999
dxflib 3.17.0.0
  0
SECTION
  2
HEADER
  9
$ACADVER
  1
AC1015
  9
$HANDSEED
  5
FFFF
  9
$ANGBASE
 50
0.0
  9
$ANGDIR
 70
0
  9
$ATTMODE
 70
0
  9
$AUNITS
 70
0
  9
$AUPREC
 70
2
  9
$CECOLOR
 62
256
  9
$CELTSCALE
 40
1.0
  9
$CHAMFERA
 40
0.0
  9
$CHAMFERB
 40
0.0
  9
$CHAMFERC
 40
0.0
  9
$CHAMFERD
 40
0.0
  9
$CMLJUST
 70
0
  9
$CMLSCALE
 40
20.0
  9
$DIMADEC
 70
0
  9
$DIMALT
 70
0
  9
$DIMALTD
 70
3
  9
$DIMALTF
 40
0.03937
  9
$DIMALTRND
 40
0.0
  9
$DIMALTTD
 70
3
  9
$DIMALTTZ
 70
0
  9
$DIMALTU
 70
2
  9
$DIMALTZ
 70
0
  9
$DIMAPOST
  1

  9
$DIMASZ
 40
2.5
  9
$DIMATFIT
 70
3
  9
$DIMAUNIT
 70
0
  9
$DIMAZIN
 70
2
  9
$DIMBLK
  1

  9
$DIMBLK1
  1

  9
$DIMBLK2
  1

  9
$DIMCEN
 40
2.5
  9
$DIMCLRD
 70
0
  9
$DIMCLRE
 70
0
  9
$DIMDEC
 70
2
  9
$DIMDLE
 40
0.0
  9
$DIMDLI
 40
5.0
  9
$DIMDSEP
 70
46
  9
$DIMEXE
 40
1.25
  9
$DIMEXO
 40
0.625
  9
$DIMFRAC
 70
0
  9
$DIMGAP
 40
0.625
  9
$DIMJUST
 70
0
  9
$DIMLDRBLK
  1
STANDARD
  9
$DIMLFAC
 40
1.0
  9
$DIMLIM
 70
0
  9
$DIMLUNIT
 70
2
  9
$DIMLWD
 70
-2
  9
$DIMLWE
 70
-2
  9
$DIMPOST
  1

  9
$DIMRND
 40
0.0
  9
$DIMSAH
 70
0
  9
$DIMSCALE
 40
1.0
  9
$DIMSD1
 70
0
  9
$DIMSD2
 70
0
  9
$DIMSE1
 70
0
  9
$DIMSE2
 70
0
  9
$DIMSOXD
 70
0
  9
$DIMTAD
 70
1
  9
$DIMTDEC
 70
2
  9
$DIMTFAC
 40
1.0
  9
$DIMTIH
 70
0
  9
$DIMTIX
 70
0
  9
$DIMTM
 40
0.0
  9
$DIMTOFL
 70
1
  9
$DIMTOH
 70
0
  9
$DIMTOL
 70
0
  9
$DIMTOLJ
 70
0
  9
$DIMTP
 40
0.0
  9
$DIMTSZ
 40
0.0
  9
$DIMTVP
 40
0.0
  9
$DIMTXSTY
  7
STANDARD
  9
$DIMTXT
 40
2.5
  9
$DIMTZIN
 70
8
  9
$DIMUPT
 70
0
  9
$DIMZIN
 70
8
  9
$DISPSILH
 70
0
  9
$DWGCODEPAGE
  3
ANSI_1252
  9
$ELEVATION
 40
0.0
  9
$EXTMAX
 10
386.0000000000001137
 20
292.0
 30
0.0
  9
$EXTMIN
 10
0.0
 20
0.0
 30
0.0
  9
$FILLETRAD
 40
0.0
  9
$FILLMODE
 70
1
  9
$INSBASE
 10
0.0
 20
0.0
 30
0.0
  9
$INSUNITS
 70
4
  9
$LIMCHECK
 70
0
  9
$LIMMAX
 10
420.0
 20
297.0
  9
$LIMMIN
 10
0.0
 20
0.0
  9
$LTSCALE
 40
1.0
  9
$LUNITS
 70
2
  9
$LUPREC
 70
4
  9
$MAXACTVP
 70
64
  9
$MEASUREMENT
 70
1
  9
$MIRRTEXT
 70
0
  9
$ORTHOMODE
 70
0
  9
$PDMODE
 70
0
  9
$PDSIZE
 40
0.0
  9
$PELEVATION
 40
0.0
  9
$PEXTMAX
 10
0.0
 20
0.0
 30
0.0
  9
$PEXTMIN
 10
0.0
 20
0.0
 30
0.0
  9
$PINSBASE
 10
0.0
 20
0.0
 30
0.0
  9
$PLIMCHECK
 70
0
  9
$PLIMMAX
 10
210.0
 20
297.0
  9
$PLIMMIN
 10
0.0
 20
0.0
  9
$PLINEGEN
 70
0
  9
$PLINEWID
 40
0.0
  9
$PROXYGRAPHICS
 70
1
  9
$PSLTSCALE
 70
1
  9
$PUCSNAME
  2

  9
$PUCSORG
 10
0.0
 20
0.0
 30
0.0
  9
$PUCSXDIR
 10
1.0
 20
0.0
 30
0.0
  9
$PUCSYDIR
 10
0.0
 20
1.0
 30
0.0
  9
$QTEXTMODE
 70
0
  9
$REGENMODE
 70
1
  9
$SHADEDGE
 70
3
  9
$SHADEDIF
 70
70
  9
$SKETCHINC
 40
1.0
  9
$SKPOLY
 70
0
  9
$SPLFRAME
 70
0
  9
$SPLINESEGS
 70
8
  9
$SPLINETYPE
 70
2
  9
$SURFTAB1
 70
6
  9
$SURFTAB2
 70
6
  9
$SURFTYPE
 70
6
  9
$SURFU
 70
6
  9
$SURFV
 70
6
  9
$TEXTSIZE
 40
2.5
  9
$TEXTSTYLE
  7
STANDARD
  9
$THICKNESS
 40
0.0
  9
$TILEMODE
 70
1
  9
$TRACEWID
 40
15.6799999999999997
  9
$TREEDEPTH
 70
3020
  9
$UCSNAME
  2

  9
$UCSORG
 10
0.0
 20
0.0
 30
0.0
  9
$UCSXDIR
 10
1.0
 20
0.0
 30
0.0
  9
$UCSYDIR
 10
0.0
 20
1.0
 30
0.0
  9
$UNITMODE
 70
0
  9
$USERI1
 70
0
  9
$USERI2
 70
0
  9
$USERI3
 70
0
  9
$USERI4
 70
0
  9
$USERI5
 70
0
  9
$USERR1
 40
0.0
  9
$USERR2
 40
0.0
  9
$USERR3
 40
0.0
  9
$USERR4
 40
0.0
  9
$USERR5
 40
0.0
  9
$USRTIMER
 70
1
  9
$VISRETAIN
 70
1
  0
ENDSEC
  0
SECTION
  2
TABLES
  0
TABLE
  2
VPORT
  5
8
100
AcDbSymbolTable
 70
1
  0
VPORT
  5
30
100
AcDbSymbolTableRecord
100
AcDbViewportTableRecord
  2
*Active
 70
0
 10
0.0
 20
0.0
 11
1.0
 21
1.0
 12
286.3055555555554861
 22
148.5
 13
0.0
 23
0.0
 14
10.0
 24
10.0
 15
10.0
 25
10.0
 16
0.0
 26
0.0
 36
1.0
 17
0.0
 27
0.0
 37
0.0
 40
297.0
 41
1.92798353909465
 42
50.0
 43
0.0
 44
0.0
 50
0.0
 51
0.0
 71
0
 72
100
 73
1
 74
3
 75
1
 76
1
 77
0
 78
0
281
0
 65
1
110
0.0
120
0.0
130
0.0
111
1.0
121
0.0
131
0.0
112
0.0
122
1.0
132
0.0
 79
0
146
0.0
  0
ENDTAB
  0
TABLE
  2
LTYPE
  5
5
100
AcDbSymbolTable
 70
47
  0
LTYPE
  5
16
100
AcDbSymbolTableRecord
100
AcDbLinetypeTableRecord
  2
Continuous
 70
0
  3
Solid line
 72
65
 73
0
 40
0.0
  0
LTYPE
  5
31
100
AcDbSymbolTableRecord
100
AcDbLinetypeTableRecord
  2
DOTX2
 70
0
  3
Dot (2x) .  .  .  .  .  .  .  .  .  .  .  .  .
 72
65
 73
2
 40
12.6999999999999993
 49
0.1
 74
0
 49
-12.5999999999999996
 74
0
  0
LTYPE
  5
32
100
AcDbSymbolTableRecord
100
AcDbLinetypeTableRecord
  2
CENTER2
 70
0
  3
Center (.5x) ___ _ ___ _ ___ _ ___ _ ___ _ ___
 72
65
 73
4
 40
28.5750000000000028
 49
19.0500000000000007
 74
0
 49
-3.1749999999999998
 74
0
 49
3.1749999999999998
 74
0
 49
-3.1749999999999998
 74
0
  0
LTYPE
  5
33
100
AcDbSymbolTableRecord
100
AcDbLinetypeTableRecord
  2
CENTERX2
 70
0
  3
Center (2x) ________  __  ________  __  _____
 72
65
 73
4
 40
101.6000000000000085
 49
63.5
 74
0
 49
-12.6999999999999993
 74
0
 49
12.6999999999999993
 74
0
 49
-12.6999999999999993
 74
0
  0
LTYPE
  5
34
100
AcDbSymbolTableRecord
100
AcDbLinetypeTableRecord
  2
ACAD_ISO12W100
 70
0
  3
ISO dash double-dot __ . . __ . . __ . . __ . . 
 72
65
 73
6
 40
21.0
 49
12.0
 74
0
 49
-3.0
 74
0
 49
0.0
 74
0
 49
-3.0
 74
0
 49
0.0
 74
0
 49
-3.0
 74
0
  0
LTYPE
  5
35
100
AcDbSymbolTableRecord
100
AcDbLinetypeTableRecord
  2
DOT2
 70
0
  3
Dot (.5x) .....................................
 72
65
 73
2
 40
3.1749999999999998
 49
0.1
 74
0
 49
-3.0749999999999997
 74
0
  0
LTYPE
  5
36
100
AcDbSymbolTableRecord
100
AcDbLinetypeTableRecord
  2
ACAD_ISO15W100
 70
0
  3
ISO double-dash triple-dot __ __ . . . __ __ . .
 72
65
 73
10
 40
39.0
 49
12.0
 74
0
 49
-3.0
 74
0
 49
12.0
 74
0
 49
-3.0
 74
0
 49
0.0
 74
0
 49
-3.0
 74
0
 49
0.0
 74
0
 49
-3.0
 74
0
 49
0.0
 74
0
 49
-3.0
 74
0
  0
LTYPE
  5
37
100
AcDbSymbolTableRecord
100
AcDbLinetypeTableRecord
  2
ACAD_ISO02W100
 70
0
  3
ISO dash __ __ __ __ __ __ __ __ __ __ __ __ __
 72
65
 73
2
 40
15.0
 49
12.0
 74
0
 49
-3.0
 74
0
  0
LTYPE
  5
38
100
AcDbSymbolTableRecord
100
AcDbLinetypeTableRecord
  2
ACAD_ISO10W100
 70
0
  3
ISO dash dot __ . __ . __ . __ . __ . __ . __ . 
 72
65
 73
4
 40
18.0
 49
12.0
 74
0
 49
-3.0
 74
0
 49
0.0
 74
0
 49
-3.0
 74
0
  0
LTYPE
  5
39
100
AcDbSymbolTableRecord
100
AcDbLinetypeTableRecord
  2
BORDER2
 70
0
  3
Border (.5x) __.__.__.__.__.__.__.__.__.__.__.
 72
65
 73
6
 40
22.2250000000000014
 49
6.3499999999999996
 74
0
 49
-3.1749999999999998
 74
0
 49
6.3499999999999996
 74
0
 49
-3.125
 74
0
 49
0.1
 74
0
 49
-3.125
 74
0
  0
LTYPE
  5
3A
100
AcDbSymbolTableRecord
100
AcDbLinetypeTableRecord
  2
DOT
 70
0
  3
Dot . . . . . . . . . . . . . . . . . . . . . .
 72
65
 73
2
 40
6.3499999999999996
 49
0.1
 74
0
 49
-6.25
 74
0
  0
LTYPE
  5
3B
100
AcDbSymbolTableRecord
100
AcDbLinetypeTableRecord
  2
ACAD_ISO03W100
 70
0
  3
ISO dash space __    __    __    __    __    __
 72
65
 73
2
 40
30.0
 49
12.0
 74
0
 49
-18.0
 74
0
  0
LTYPE
  5
3C
100
AcDbSymbolTableRecord
100
AcDbLinetypeTableRecord
  2
DASHED
 70
0
  3
Dashed _ _ _ _ _ _ _ _ _ _ _ _ _ _ _ _ _
 72
65
 73
2
 40
19.0499999999999972
 49
12.6999999999999993
 74
0
 49
-6.3499999999999996
 74
0
  0
LTYPE
  5
3D
100
AcDbSymbolTableRecord
100
AcDbLinetypeTableRecord
  2
DIVIDE2
 70
0
  3
Divide (.5x) __..__..__..__..__..__..__..__.._
 72
65
 73
6
 40
15.8749999999999982
 49
6.3499999999999996
 74
0
 49
-3.125
 74
0
 49
0.1
 74
0
 49
-3.0750000000000002
 74
0
 49
0.1
 74
0
 49
-3.125
 74
0
  0
LTYPE
  5
3E
100
AcDbSymbolTableRecord
100
AcDbLinetypeTableRecord
  2
DOTTINY
 70
0
  3
Dot (.15x) .....................................
 72
65
 73
2
 40
0.9525
 49
0.1
 74
0
 49
-0.8525
 74
0
  0
LTYPE
  5
3F
100
AcDbSymbolTableRecord
100
AcDbLinetypeTableRecord
  2
ACAD_ISO08W100
 70
0
  3
ISO long-dash short-dash ____ __ ____ __ ____ _
 72
65
 73
4
 40
36.0
 49
24.0
 74
0
 49
-3.0
 74
0
 49
6.0
 74
0
 49
-3.0
 74
0
  0
LTYPE
  5
40
100
AcDbSymbolTableRecord
100
AcDbLinetypeTableRecord
  2
HIDDEN
 70
0
  3
Hidden __ __ __ __ __ __ __ __ __ __ __ __ __ __
 72
65
 73
2
 40
9.5249999999999986
 49
6.3499999999999996
 74
0
 49
-3.1749999999999998
 74
0
  0
LTYPE
  5
41
100
AcDbSymbolTableRecord
100
AcDbLinetypeTableRecord
  2
ACAD_ISO07W100
 70
0
  3
ISO dot . . . . . . . . . . . . . . . . . . . . 
 72
65
 73
2
 40
3.0
 49
0.0
 74
0
 49
-3.0
 74
0
  0
LTYPE
  5
42
100
AcDbSymbolTableRecord
100
AcDbLinetypeTableRecord
  2
ACAD_ISO14W100
 70
0
  3
ISO dash triple-dot __ . . . __ . . . __ . . . _
 72
65
 73
8
 40
24.0
 49
12.0
 74
0
 49
-3.0
 74
0
 49
0.0
 74
0
 49
-3.0
 74
0
 49
0.0
 74
0
 49
-3.0
 74
0
 49
0.0
 74
0
 49
-3.0
 74
0
  0
LTYPE
  5
43
100
AcDbSymbolTableRecord
100
AcDbLinetypeTableRecord
  2
PHANTOMX2
 70
0
  3
Phantom (2x) ____________    ____    ____   _
 72
65
 73
6
 40
127.0000000000000142
 49
63.5
 74
0
 49
-12.6999999999999993
 74
0
 49
12.6999999999999993
 74
0
 49
-12.6999999999999993
 74
0
 49
12.6999999999999993
 74
0
 49
-12.6999999999999993
 74
0
  0
LTYPE
  5
44
100
AcDbSymbolTableRecord
100
AcDbLinetypeTableRecord
  2
DASHDOTX2
 70
0
  3
Dash dot (2x) ____  .  ____  .  ____  .  ___
 72
65
 73
4
 40
50.7999999999999972
 49
25.3999999999999986
 74
0
 49
-12.6499999999999986
 74
0
 49
0.1
 74
0
 49
-12.6499999999999986
 74
0
  0
LTYPE
  5
45
100
AcDbSymbolTableRecord
100
AcDbLinetypeTableRecord
  2
ACAD_ISO05W100
 70
0
  3
ISO long-dash double-dot ____ .. ____ .. ____ . 
 72
65
 73
6
 40
33.0
 49
24.0
 74
0
 49
-3.0
 74
0
 49
0.0
 74
0
 49
-3.0
 74
0
 49
0.0
 74
0
 49
-3.0
 74
0
  0
LTYPE
  5
46
100
AcDbSymbolTableRecord
100
AcDbLinetypeTableRecord
  2
BORDERTINY
 70
0
  3
Border (.15x) __.__.__.__.__.__.__.__.__.__.__.
 72
65
 73
6
 40
6.6674999999999995
 49
1.905
 74
0
 49
-0.9525
 74
0
 49
1.905
 74
0
 49
-0.9025
 74
0
 49
0.1
 74
0
 49
-0.9025
 74
0
  0
LTYPE
  5
47
100
AcDbSymbolTableRecord
100
AcDbLinetypeTableRecord
  2
BORDER
 70
0
  3
Border __ __ . __ __ . __ __ . __ __ . __ __ .
 72
65
 73
6
 40
44.4499999999999957
 49
12.6999999999999993
 74
0
 49
-6.3499999999999996
 74
0
 49
12.6999999999999993
 74
0
 49
-6.2999999999999998
 74
0
 49
0.1
 74
0
 49
-6.2999999999999998
 74
0
  0
LTYPE
  5
48
100
AcDbSymbolTableRecord
100
AcDbLinetypeTableRecord
  2
HIDDENX2
 70
0
  3
Hidden (2x) ____ ____ ____ ____ ____ ____ ____ 
 72
65
 73
2
 40
19.0499999999999972
 49
12.6999999999999993
 74
0
 49
-6.3499999999999996
 74
0
  0
LTYPE
  5
49
100
AcDbSymbolTableRecord
100
AcDbLinetypeTableRecord
  2
ACAD_ISO11W100
 70
0
  3
ISO double-dash dot __ __ . __ __ . __ __ . __ _
 72
65
 73
6
 40
33.0
 49
12.0
 74
0
 49
-3.0
 74
0
 49
12.0
 74
0
 49
-3.0
 74
0
 49
0.0
 74
0
 49
-3.0
 74
0
  0
LTYPE
  5
4A
100
AcDbSymbolTableRecord
100
AcDbLinetypeTableRecord
  2
DASHED2
 70
0
  3
Dashed (.5x) _ _ _ _ _ _ _ _ _ _ _ _ _ _ _ _ _
 72
65
 73
2
 40
9.5249999999999986
 49
6.3499999999999996
 74
0
 49
-3.1749999999999998
 74
0
  0
LTYPE
  5
4B
100
AcDbSymbolTableRecord
100
AcDbLinetypeTableRecord
  2
ACAD_ISO09W100
 70
0
  3
ISO long-dash double-short-dash ____ __ __ ____
 72
65
 73
6
 40
45.0
 49
24.0
 74
0
 49
-3.0
 74
0
 49
6.0
 74
0
 49
-3.0
 74
0
 49
6.0
 74
0
 49
-3.0
 74
0
  0
LTYPE
  5
14
100
AcDbSymbolTableRecord
100
AcDbLinetypeTableRecord
  2
ByBlock
 70
0
  3

 72
65
 73
0
 40
0.0
  0
LTYPE
  5
4C
100
AcDbSymbolTableRecord
100
AcDbLinetypeTableRecord
  2
BORDERX2
 70
0
  3
Border (2x) ____  ____  .  ____  ____  .  ___
 72
65
 73
6
 40
88.8999999999999773
 49
25.3999999999999986
 74
0
 49
-12.6999999999999993
 74
0
 49
25.3999999999999986
 74
0
 49
-12.6499999999999986
 74
0
 49
0.1
 74
0
 49
-12.6499999999999986
 74
0
  0
LTYPE
  5
4D
100
AcDbSymbolTableRecord
100
AcDbLinetypeTableRecord
  2
DIVIDETINY
 70
0
  3
Divide (.15x) __..__..__..__..__..__..__..__.._
 72
65
 73
6
 40
4.7625000000000002
 49
1.905
 74
0
 49
-0.9025
 74
0
 49
0.1
 74
0
 49
-0.8524999999999999
 74
0
 49
0.1
 74
0
 49
-0.9025
 74
0
  0
LTYPE
  5
4E
100
AcDbSymbolTableRecord
100
AcDbLinetypeTableRecord
  2
PHANTOM2
 70
0
  3
Phantom (.5x) ___ _ _ ___ _ _ ___ _ _ ___ _ _
 72
65
 73
6
 40
31.7500000000000036
 49
15.875
 74
0
 49
-3.1749999999999998
 74
0
 49
3.1749999999999998
 74
0
 49
-3.1749999999999998
 74
0
 49
3.1749999999999998
 74
0
 49
-3.1749999999999998
 74
0
  0
LTYPE
  5
4F
100
AcDbSymbolTableRecord
100
AcDbLinetypeTableRecord
  2
ACAD_ISO04W100
 70
0
  3
ISO long-dash dot ____ . ____ . ____ . ____ . _
 72
65
 73
4
 40
30.0
 49
24.0
 74
0
 49
-3.0
 74
0
 49
0.0
 74
0
 49
-3.0
 74
0
  0
LTYPE
  5
50
100
AcDbSymbolTableRecord
100
AcDbLinetypeTableRecord
  2
DIVIDE
 70
0
  3
Divide ____ . . ____ . . ____ . . ____ . . ____
 72
65
 73
6
 40
31.7500000000000036
 49
12.6999999999999993
 74
0
 49
-6.2999999999999998
 74
0
 49
0.1
 74
0
 49
-6.25
 74
0
 49
0.1
 74
0
 49
-6.2999999999999998
 74
0
  0
LTYPE
  5
15
100
AcDbSymbolTableRecord
100
AcDbLinetypeTableRecord
  2
ByLayer
 70
0
  3

 72
65
 73
0
 40
0.0
  0
LTYPE
  5
51
100
AcDbSymbolTableRecord
100
AcDbLinetypeTableRecord
  2
PHANTOM
 70
0
  3
Phantom ______  __  __  ______  __  __  ______ 
 72
65
 73
6
 40
63.5000000000000071
 49
31.75
 74
0
 49
-6.3499999999999996
 74
0
 49
6.3499999999999996
 74
0
 49
-6.3499999999999996
 74
0
 49
6.3499999999999996
 74
0
 49
-6.3499999999999996
 74
0
  0
LTYPE
  5
52
100
AcDbSymbolTableRecord
100
AcDbLinetypeTableRecord
  2
CENTERTINY
 70
0
  3
Center (.15x) ___ _ ___ _ ___ _ ___ _ ___ _ ___
 72
65
 73
4
 40
7.6199999999999992
 49
4.7625000000000002
 74
0
 49
-0.9525
 74
0
 49
0.9525
 74
0
 49
-0.9525
 74
0
  0
LTYPE
  5
53
100
AcDbSymbolTableRecord
100
AcDbLinetypeTableRecord
  2
DASHEDTINY
 70
0
  3
Dashed (.15x) _ _ _ _ _ _ _ _ _ _ _ _ _ _ _ _ _
 72
65
 73
2
 40
2.8574999999999999
 49
1.905
 74
0
 49
-0.9525
 74
0
  0
LTYPE
  5
54
100
AcDbSymbolTableRecord
100
AcDbLinetypeTableRecord
  2
DIVIDEX2
 70
0
  3
Divide (2x) ________  .  .  ________  .  .  _
 72
65
 73
6
 40
63.5
 49
25.3999999999999986
 74
0
 49
-12.6499999999999986
 74
0
 49
0.1
 74
0
 49
-12.5999999999999979
 74
0
 49
0.1
 74
0
 49
-12.6499999999999986
 74
0
  0
LTYPE
  5
55
100
AcDbSymbolTableRecord
100
AcDbLinetypeTableRecord
  2
ACAD_ISO13W100
 70
0
  3
ISO double-dash double-dot __ __ . . __ __ . . _
 72
65
 73
8
 40
36.0
 49
12.0
 74
0
 49
-3.0
 74
0
 49
12.0
 74
0
 49
-3.0
 74
0
 49
0.0
 74
0
 49
-3.0
 74
0
 49
0.0
 74
0
 49
-3.0
 74
0
  0
LTYPE
  5
56
100
AcDbSymbolTableRecord
100
AcDbLinetypeTableRecord
  2
HIDDEN2
 70
0
  3
Hidden (.5x) _ _ _ _ _ _ _ _ _ _ _ _ _ _ _ _ _ 
 72
65
 73
2
 40
4.7624999999999993
 49
3.1749999999999998
 74
0
 49
-1.5874999999999999
 74
0
  0
LTYPE
  5
57
100
AcDbSymbolTableRecord
100
AcDbLinetypeTableRecord
  2
DASHDOT2
 70
0
  3
Dash dot (.5x) _._._._._._._._._._._._._._._.
 72
65
 73
4
 40
12.6999999999999993
 49
6.3499999999999996
 74
0
 49
-3.125
 74
0
 49
0.1
 74
0
 49
-3.125
 74
0
  0
LTYPE
  5
58
100
AcDbSymbolTableRecord
100
AcDbLinetypeTableRecord
  2
DASHDOTTINY
 70
0
  3
Dash dot (.15x) _._._._._._._._._._._._._._._.
 72
65
 73
4
 40
3.8100000000000001
 49
1.905
 74
0
 49
-0.9025
 74
0
 49
0.1
 74
0
 49
-0.9025
 74
0
  0
LTYPE
  5
59
100
AcDbSymbolTableRecord
100
AcDbLinetypeTableRecord
  2
ACAD_ISO06W100
 70
0
  3
ISO long-dash triple-dot ____ ... ____ ... ____
 72
65
 73
8
 40
36.0
 49
24.0
 74
0
 49
-3.0
 74
0
 49
0.0
 74
0
 49
-3.0
 74
0
 49
0.0
 74
0
 49
-3.0
 74
0
 49
0.0
 74
0
 49
-3.0
 74
0
  0
LTYPE
  5
5A
100
AcDbSymbolTableRecord
100
AcDbLinetypeTableRecord
  2
DASHDOT
 70
0
  3
Dash dot __ . __ . __ . __ . __ . __ . __ . __
 72
65
 73
4
 40
25.4000000000000021
 49
12.6999999999999993
 74
0
 49
-6.2999999999999998
 74
0
 49
0.1
 74
0
 49
-6.2999999999999998
 74
0
  0
LTYPE
  5
5B
100
AcDbSymbolTableRecord
100
AcDbLinetypeTableRecord
  2
DASHEDX2
 70
0
  3
Dashed (2x) ____  ____  ____  ____  ____  ___
 72
65
 73
2
 40
38.0999999999999943
 49
25.3999999999999986
 74
0
 49
-12.6999999999999993
 74
0
  0
LTYPE
  5
5C
100
AcDbSymbolTableRecord
100
AcDbLinetypeTableRecord
  2
CENTER
 70
0
  3
Center ____ _ ____ _ ____ _ ____ _ ____ _ ____
 72
65
 73
4
 40
50.8000000000000043
 49
31.75
 74
0
 49
-6.3499999999999996
 74
0
 49
6.3499999999999996
 74
0
 49
-6.3499999999999996
 74
0
  0
ENDTAB
  0
TABLE
  2
LAYER
  5
2
100
AcDbSymbolTable
 70
3
  0
LAYER
  5
5D
100
AcDbSymbolTableRecord
100
AcDbLayerTableRecord
  2
DRILLS
 70
0
 62
3
420
65280
  6
Continuous
370
5
390
F
  0
LAYER
  5
10
100
AcDbSymbolTableRecord
100
AcDbLayerTableRecord
  2
0
 70
0
 62
6
420
16711935
  6
Continuous
370
25
390
F
  0
LAYER
  5
5E
100
AcDbSymbolTableRecord
100
AcDbLayerTableRecord
  2
LAYER_AUX
 70
0
 62
2
420
16776960
  6
Continuous
370
5
390
F
  0
ENDTAB
  0
TABLE
  2
STYLE
  5
3
100
AcDbSymbolTable
 70
1
  0
STYLE
  5
5F
100
AcDbSymbolTableRecord
100
AcDbTextStyleTableRecord
  2
Standard
 70
0
 40
0.0
 41
1.0
 50
0.0
 71
0
 42
2.5
  3

  4

1001
ACAD
1000
txt
1071
0
  0
ENDTAB
  0
TABLE
  2
VIEW
  5
6
100
AcDbSymbolTable
 70
0
  0
ENDTAB
  0
TABLE
  2
UCS
  5
7
100
AcDbSymbolTable
 70
0
  0
ENDTAB
  0
TABLE
  2
APPID
  5
9
100
AcDbSymbolTable
 70
1
  0
APPID
  5
12
100
AcDbSymbolTableRecord
100
AcDbRegAppTableRecord
  2
ACAD
 70
0
  0
APPID
  5
60
100
AcDbSymbolTableRecord
100
AcDbRegAppTableRecord
  2
QCAD
 70
0
  0
ENDTAB
  0
TABLE
  2
DIMSTYLE
  5
A
100
AcDbSymbolTable
 70
1
100
AcDbDimStyleTable
 71
0
  0
DIMSTYLE
105
27
100
AcDbSymbolTableRecord
100
AcDbDimStyleTableRecord
  2
Standard
 41
2.5
 42
0.625
 43
3.75
 44
1.25
 70
0
 73
0
 74
0
 77
1
 78
8
140
2.5
141
2.5
143
0.03937007874016
147
0.625
171
3
172
1
271
2
272
2
274
3
278
44
283
0
284
8
340
5F
  0
ENDTAB
  0
TABLE
  2
BLOCK_RECORD
  5
1
100
AcDbSymbolTable
 70
1
  0
BLOCK_RECORD
  5
1F
100
AcDbSymbolTableRecord
100
AcDbBlockTableRecord
  2
*Model_Space
340
22
  0
BLOCK_RECORD
  5
1B
100
AcDbSymbolTableRecord
100
AcDbBlockTableRecord
  2
*Paper_Space
340
1E
  0
BLOCK_RECORD
  5
23
100
AcDbSymbolTableRecord
100
AcDbBlockTableRecord
  2
*Paper_Space0
340
26
  0
ENDTAB
  0
ENDSEC
  0
SECTION
  2
BLOCKS
  0
BLOCK
  5
20
100
AcDbEntity
  8
0
100
AcDbBlockBegin
  2
*Model_Space
 70
0
 10
0.0
 20
0.0
 30
0.0
  3
*Model_Space
  1

  0
ENDBLK
  5
21
100
AcDbEntity
  8
0
100
AcDbBlockEnd
  0
BLOCK
  5
1C
100
AcDbEntity
 67
1
  8
0
100
AcDbBlockBegin
  2
*Paper_Space
 70
0
 10
0.0
 20
0.0
 30
0.0
  3
*Paper_Space
  1

  0
ENDBLK
  5
1D
100
AcDbEntity
 67
1
  8
0
100
AcDbBlockEnd
  0
BLOCK
  5
24
100
AcDbEntity
  8
0
100
AcDbBlockBegin
  2
*Paper_Space0
 70
0
 10
0.0
 20
0.0
 30
0.0
  3
*Paper_Space0
  1

  0
ENDBLK
  5
25
100
AcDbEntity
  8
0
100
AcDbBlockEnd
  0
ENDSEC
  0
SECTION
  2
ENTITIES
  0
CIRCLE
  5
61
100
AcDbEntity
  8
0
 62
256
370
-1
 48
1.0
  6
ByLayer
100
AcDbCircle
 10
31.9499999999999993
 20
262.0299999999999727
 30
0.0
 40
4.0
  0
CIRCLE
  5
62
100
AcDbEntity
  8
DRILLS
 62
256
370
-1
 48
1.0
  6
ByLayer
100
AcDbCircle
 10
241.736888735260294
 20
164.7260000041266039
 30
0.0
 40
1.6000000000000001
  0
CIRCLE
  5
63
100
AcDbEntity
  8
DRILLS
 62
256
370
-1
 48
1.0
  6
ByLayer
100
AcDbCircle
 10
257.6204443676302276
 20
164.828000000000003
 30
0.0
 40
1.6000000000000001
  0
CIRCLE
  5
64
100
AcDbEntity
  8
DRILLS
 62
256
370
-1
 48
1.0
  6
ByLayer
100
AcDbCircle
 10
380.8917333947637758
 20
286.5
 30
0.0
 40
1.600000000000003
  0
CIRCLE
  5
65
100
AcDbEntity
  8
DRILLS
 62
256
370
-1
 48
1.0
  6
ByLayer
100
AcDbCircle
 10
201.5834443676301078
 20
164.3859999999999957
 30
0.0
 40
1.6000000000000001
  0
CIRCLE
  5
66
100
AcDbEntity
  8
DRILLS
 62
256
370
-1
 48
1.0
  6
ByLayer
100
AcDbCircle
 10
259.5584000614305182
 20
286.5
 30
0.0
 40
1.600000000000003
  0
CIRCLE
  5
67
100
AcDbEntity
  8
DRILLS
 62
256
370
-1
 48
1.0
  6
ByLayer
100
AcDbCircle
 10
167.6734443676301112
 20
164.36099999999999
 30
0.0
 40
1.6000000000000001
  0
CIRCLE
  5
68
100
AcDbEntity
  8
DRILLS
 62
256
370
-1
 48
1.0
  6
ByLayer
100
AcDbCircle
 10
138.2250667280970902
 20
286.5
 30
0.0
 40
1.600000000000003
  0
CIRCLE
  5
69
100
AcDbEntity
  8
DRILLS
 62
256
370
-1
 48
1.0
  6
ByLayer
100
AcDbCircle
 10
133.6174443676300996
 20
164.3449999999999989
 30
0.0
 40
1.6000000000000001
  0
CIRCLE
  5
6A
100
AcDbEntity
  8
DRILLS
 62
256
370
-1
 48
1.0
  6
ByLayer
100
AcDbCircle
 10
16.8917333947638006
 20
286.5
 30
0.0
 40
1.600000000000003
  0
CIRCLE
  5
6B
100
AcDbEntity
  8
0
 62
256
370
-1
 48
1.0
  6
ByLayer
100
AcDbCircle
 10
324.0099999999999909
 20
262.1100000000000136
 30
0.0
 40
4.0
  0
CIRCLE
  5
6C
100
AcDbEntity
  8
DRILLS
 62
256
370
-1
 48
1.0
  6
ByLayer
100
AcDbCircle
 10
380.8917333947637758
 20
11.5000000000000302
 30
0.0
 40
1.600000000000003
  0
CIRCLE
  5
6D
100
AcDbEntity
  8
DRILLS
 62
256
370
-1
 48
1.0
  6
ByLayer
100
AcDbCircle
 10
241.736888735260294
 20
160.2260000041266039
 30
0.0
 40
1.6000000000000001
  0
CIRCLE
  5
6E
100
AcDbEntity
  8
DRILLS
 62
256
370
-1
 48
1.0
  6
ByLayer
100
AcDbCircle
 10
259.5584000614305182
 20
11.5000000000000302
 30
0.0
 40
1.600000000000003
  0
CIRCLE
  5
6F
100
AcDbEntity
  8
DRILLS
 62
256
370
-1
 48
1.0
  6
ByLayer
100
AcDbCircle
 10
257.6204443676302276
 20
160.328000000000003
 30
0.0
 40
1.6000000000000001
  0
CIRCLE
  5
70
100
AcDbEntity
  8
DRILLS
 62
256
370
-1
 48
1.0
  6
ByLayer
100
AcDbCircle
 10
138.2250667280970902
 20
11.5000000000000302
 30
0.0
 40
1.600000000000003
  0
CIRCLE
  5
71
100
AcDbEntity
  8
DRILLS
 62
256
370
-1
 48
1.0
  6
ByLayer
100
AcDbCircle
 10
201.5834443676301078
 20
159.8859999999999957
 30
0.0
 40
1.6000000000000001
  0
CIRCLE
  5
72
100
AcDbEntity
  8
DRILLS
 62
256
370
-1
 48
1.0
  6
ByLayer
100
AcDbCircle
 10
16.8917333947638006
 20
11.5000000000000302
 30
0.0
 40
1.600000000000003
  0
CIRCLE
  5
73
100
AcDbEntity
  8
DRILLS
 62
256
370
-1
 48
1.0
  6
ByLayer
100
AcDbCircle
 10
167.6734443676301112
 20
159.86099999999999
 30
0.0
 40
1.6000000000000001
  0
CIRCLE
  5
74
100
AcDbEntity
  8
DRILLS
 62
256
370
-1
 48
1.0
  6
ByLayer
100
AcDbCircle
 10
133.6174443676300996
 20
159.8449999999999989
 30
0.0
 40
1.6000000000000001
  0
CIRCLE
  5
75
100
AcDbEntity
  8
DRILLS
 62
256
370
-1
 48
1.0
  6
ByLayer
100
AcDbCircle
 10
241.7468887352603133
 20
223.2260000041266039
 30
0.0
 40
1.6000000000000001
  0
CIRCLE
  5
76
100
AcDbEntity
  8
DRILLS
 62
256
370
-1
 48
1.0
  6
ByLayer
100
AcDbCircle
 10
257.6304443676302185
 20
223.328000000000003
 30
0.0
 40
1.6000000000000001
  0
CIRCLE
  5
77
100
AcDbEntity
  8
DRILLS
 62
256
370
-1
 48
1.0
  6
ByLayer
100
AcDbCircle
 10
201.5934443676302124
 20
222.8859999999999957
 30
0.0
 40
1.6000000000000001
  0
CIRCLE
  5
78
100
AcDbEntity
  8
DRILLS
 62
256
370
-1
 48
1.0
  6
ByLayer
100
AcDbCircle
 10
167.6834443676301873
 20
222.86099999999999
 30
0.0
 40
1.6000000000000001
  0
CIRCLE
  5
79
100
AcDbEntity
  8
DRILLS
 62
256
370
-1
 48
1.0
  6
ByLayer
100
AcDbCircle
 10
133.6274443676302042
 20
222.8449999999999989
 30
0.0
 40
1.6000000000000001
  0
CIRCLE
  5
7A
100
AcDbEntity
  8
0
 62
256
370
-1
 48
1.0
  6
ByLayer
100
AcDbCircle
 10
249.0099999999999909
 20
245.6899999999999977
 30
0.0
 40
4.0
  0
LWPOLYLINE
  5
7B
100
AcDbEntity
  8
0
 62
256
370
-1
 48
1.0
  6
ByLayer
100
AcDbPolyline
 90
4
 70
1
 10
216.9995634966788032
 20
128.9944432350723105
 42
0.4142135623730961
 10
212.9995634966788032
 20
124.9944432350722963
 42
0.414213562373095
 10
216.9995634966788032
 20
120.9944432350722963
 42
0.414213562373095
 10
220.9995634966788032
 20
124.9944432350722963
 42
0.4142135623730961
  0
LWPOLYLINE
  5
7C
100
AcDbEntity
  8
0
 62
256
370
-1
 48
1.0
  6
ByLayer
100
AcDbPolyline
 90
4
 70
1
 10
183.0095634966787941
 20
266.0544432350724264
 42
0.414213562373095
 10
179.0095634966787941
 20
262.0544432350724264
 42
0.414213562373095
 10
183.0095634966787941
 20
258.0544432350724264
 42
0.414213562373095
 10
187.0095634966787941
 20
262.0544432350724264
 42
0.414213562373095
  0
LWPOLYLINE
  5
7D
100
AcDbEntity
  8
0
 62
256
370
-1
 48
1.0
  6
ByLayer
100
AcDbPolyline
 90
4
 70
1
 10
73.9720918352766432
 20
219.9791324445587009
 42
0.414213562373094
 10
69.9720918352767569
 20
215.9791324445587861
 42
0.414213562373095
 10
73.9720918352766432
 20
211.9791324445587861
 42
0.414213562373095
 10
77.9720918352766432
 20
215.9791324445587861
 42
0.414213562373094
  0
LWPOLYLINE
  5
7E
100
AcDbEntity
  8
0
 62
256
370
-1
 48
1.0
  6
ByLayer
100
AcDbPolyline
 90
4
 70
1
 10
323.989560903876793
 20
219.9444448592986987
 42
0.414213562373095
 10
319.989560903876793
 20
215.9444448592988124
 42
0.414213562373095
 10
323.989560903876793
 20
211.9444448592988124
 42
0.414213562373095
 10
327.989560903876793
 20
215.9444448592988124
 42
0.414213562373095
  0
LWPOLYLINE
  5
7F
100
AcDbEntity
  8
0
 62
256
370
-1
 48
1.0
  6
ByLayer
100
AcDbPolyline
 90
4
 70
1
 10
148.9895634966788123
 20
232.1144432350722866
 42
0.414213562373095
 10
144.9895634966788123
 20
228.1144432350722866
 42
0.414213562373095
 10
148.9895634966788123
 20
224.1144432350722866
 42
0.414213562373095
 10
152.9895634966788123
 20
228.1144432350722866
 42
0.414213562373095
  0
LWPOLYLINE
  5
80
100
AcDbEntity
  8
0
 62
256
370
-1
 48
1.0
  6
ByLayer
100
AcDbPolyline
 90
4
 70
1
 10
182.9995634966788032
 20
128.9944432350723105
 42
0.4142135623730961
 10
178.9995634966788032
 20
124.9944432350722963
 42
0.414213562373095
 10
182.9995634966788032
 20
120.9944432350722963
 42
0.414213562373095
 10
186.9995634966788032
 20
124.9944432350722963
 42
0.4142135623730961
  0
LWPOLYLINE
  5
81
100
AcDbEntity
  8
0
 62
256
370
-1
 48
1.0
  6
ByLayer
100
AcDbPolyline
 90
4
 70
1
 10
182.9995634966788032
 20
231.9944432350723105
 42
0.414213562373095
 10
178.9995634966788032
 20
227.9944432350723105
 42
0.414213562373095
 10
182.9995634966788032
 20
223.9944432350723105
 42
0.414213562373095
 10
186.9995634966788032
 20
227.9944432350723105
 42
0.414213562373095
  0
LWPOLYLINE
  5
82
100
AcDbEntity
  8
0
 62
256
370
-1
 48
1.0
  6
ByLayer
100
AcDbPolyline
 90
4
 70
1
 10
182.9995634966788032
 20
197.9944432350723105
 42
0.414213562373095
 10
178.9995634966788032
 20
193.9944432350723105
 42
0.414213562373095
 10
182.9995634966788032
 20
189.9944432350723105
 42
0.414213562373095
 10
186.9995634966788032
 20
193.9944432350723105
 42
0.414213562373095
  0
LWPOLYLINE
  5
83
100
AcDbEntity
  8
0
 62
256
370
-1
 48
1.0
  6
ByLayer
100
AcDbPolyline
 90
4
 70
1
 10
148.9795634966787929
 20
164.0744432350724082
 42
0.414213562373095
 10
144.9795634966787929
 20
160.0744432350724082
 42
0.414213562373095
 10
148.9795634966787929
 20
156.0744432350724082
 42
0.414213562373095
 10
152.9795634966787929
 20
160.0744432350724082
 42
0.414213562373095
  0
LWPOLYLINE
  5
84
100
AcDbEntity
  8
0
 62
256
370
-1
 48
1.0
  6
ByLayer
100
AcDbPolyline
 90
4
 70
1
 10
217.0965634966788116
 20
232.0924432350724089
 42
0.414213562373095
 10
213.0965634966788116
 20
228.0924432350724089
 42
0.414213562373095
 10
217.0965634966788116
 20
224.0924432350724089
 42
0.414213562373095
 10
221.0965634966788116
 20
228.0924432350724089
 42
0.414213562373095
  0
LWPOLYLINE
  5
85
100
AcDbEntity
  8
0
 62
256
370
-1
 48
1.0
  6
ByLayer
100
AcDbPolyline
 90
4
 70
1
 10
292.9995634966788884
 20
58.9944432350723673
 42
0.414213562373095
 10
280.4995634966788884
 20
46.4944432350723673
 42
0.414213562373095
 10
292.9995634966788884
 20
33.9944432350723673
 42
0.414213562373095
 10
305.4995634966788884
 20
46.4944432350723673
 42
0.414213562373095
  0
LWPOLYLINE
  5
86
100
AcDbEntity
  8
0
 62
256
370
-1
 48
1.0
  6
ByLayer
100
AcDbPolyline
 90
8
 70
1
 10
43.023563496678797
 20
175.9104432350723073
 42
-0.414213562373095
 10
45.023563496678797
 20
173.9104432350723073
 10
45.023563496678797
 20
161.9104432350723073
 42
-0.414213562373094
 10
43.023563496678797
 20
159.9104432350723073
 10
31.0235634966788005
 20
159.9104432350723073
 42
-0.414213562373095
 10
29.0235634966788005
 20
161.9104432350723073
 10
29.0235634966788005
 20
173.9104432350723073
 42
-0.414213562373095
 10
31.0235634966788005
 20
175.9104432350723073
  0
LWPOLYLINE
  5
87
100
AcDbEntity
  8
0
 62
256
370
-1
 48
1.0
  6
ByLayer
100
AcDbPolyline
 90
8
 70
1
 10
281.4620069792371737
 20
175.9263911166648882
 10
293.4620069792372874
 20
175.9263911166648882
 42
-0.414213562373095
 10
295.4620069792372874
 20
173.9263911166648882
 10
295.4620069792371737
 20
161.9263911166648882
 42
-0.414213562373095
 10
293.4620069792372874
 20
159.9263911166648882
 10
281.4620069792371737
 20
159.9263911166648882
 42
-0.414213562373095
 10
279.4620069792371737
 20
161.9263911166648882
 10
279.4620069792372874
 20
173.9263911166648882
 42
-0.414213562373095
  0
LWPOLYLINE
  5
88
100
AcDbEntity
  8
0
 62
256
370
-1
 48
1.0
  6
ByLayer
100
AcDbPolyline
 90
4
 70
1
 10
292.9995634966788884
 20
88.9944432350723673
 42
0.414213562373095
 10
280.4995634966788884
 20
76.4944432350723673
 42
0.414213562373095
 10
292.9995634966788884
 20
63.9944432350723673
 42
0.414213562373095
 10
305.4995634966788884
 20
76.4944432350723673
 42
0.414213562373095
  0
LWPOLYLINE
  5
89
100
AcDbEntity
  8
0
 62
256
370
-1
 48
1.0
  6
ByLayer
100
AcDbPolyline
 90
4
 70
1
 10
148.9495634966787918
 20
198.164443235072298
 42
0.414213562373095
 10
144.9495634966787918
 20
194.164443235072298
 42
0.414213562373095
 10
148.9495634966787918
 20
190.164443235072298
 42
0.414213562373095
 10
152.9495634966787918
 20
194.164443235072298
 42
0.414213562373095
  0
LWPOLYLINE
  5
8A
100
AcDbEntity
  8
0
 62
256
370
-1
 48
1.0
  6
ByLayer
100
AcDbPolyline
 90
8
 70
1
 10
318.4620069792371169
 20
159.9263911166648882
 10
306.4620069792371169
 20
159.9263911166648882
 42
-0.4142135623730992
 10
304.4620069792371169
 20
161.9263911166648882
 10
304.4620069792371169
 20
173.9263911166648882
 42
-0.414213562373095
 10
306.4620069792371169
 20
175.9263911166648882
 10
318.4620069792371169
 20
175.9263911166648882
 42
-0.414213562373095
 10
320.4620069792371169
 20
173.9263911166648882
 10
320.4620069792371169
 20
161.9263911166648882
 42
-0.414213562373095
  0
LWPOLYLINE
  5
8B
100
AcDbEntity
  8
0
 62
256
370
-1
 48
1.0
  6
ByLayer
100
AcDbPolyline
 90
4
 70
1
 10
149.0095634966787941
 20
129.1444432350722877
 42
0.414213562373094
 10
145.0095634966787941
 20
125.1444432350724014
 42
0.414213562373095
 10
149.0095634966787941
 20
121.1444432350724014
 42
0.414213562373095
 10
153.0095634966787941
 20
125.1444432350724014
 42
0.414213562373095
  0
LWPOLYLINE
  5
8C
100
AcDbEntity
  8
0
 62
256
370
-1
 48
1.0
  6
ByLayer
100
AcDbPolyline
 90
8
 70
1
 10
68.0235634966788041
 20
175.9104432350723073
 42
-0.414213562373095
 10
70.0235634966788041
 20
173.9104432350723073
 10
70.0235634966788041
 20
161.9104432350723073
 42
-0.414213562373095
 10
68.0235634966788041
 20
159.9104432350723073
 10
56.023563496678797
 20
159.9104432350723073
 42
-0.414213562373095
 10
54.023563496678797
 20
161.9104432350723073
 10
54.023563496678797
 20
173.9104432350723073
 42
-0.414213562373095
 10
56.023563496678797
 20
175.9104432350723073
  0
LWPOLYLINE
  5
8D
100
AcDbEntity
  8
0
 62
256
370
-1
 48
1.0
  6
ByLayer
100
AcDbPolyline
 90
4
 70
1
 10
148.9595634966788111
 20
266.1244432350724196
 42
0.414213562373095
 10
144.9595634966788111
 20
262.1244432350724196
 42
0.414213562373095
 10
148.9595634966788111
 20
258.1244432350724196
 42
0.414213562373095
 10
152.9595634966788111
 20
262.1244432350724196
 42
0.414213562373095
  0
LWPOLYLINE
  5
8E
100
AcDbEntity
  8
0
 62
256
370
-1
 48
1.0
  6
ByLayer
100
AcDbPolyline
 90
4
 70
1
 10
42.9995634966788032
 20
58.9944432350723673
 42
0.4142135623730949
 10
30.4995634966788103
 20
46.4944432350723673
 42
0.4142135623730948
 10
42.999563496678789
 20
33.9944432350723673
 42
0.4142135623730953
 10
55.4995634966788032
 20
46.4944432350723673
 42
0.414213562373095
  0
CIRCLE
  5
8F
100
AcDbEntity
  8
DRILLS
 62
256
370
-1
 48
1.0
  6
ByLayer
100
AcDbCircle
 10
241.736888735260294
 20
191.7260000041266039
 30
0.0
 40
1.6000000000000001
  0
CIRCLE
  5
90
100
AcDbEntity
  8
DRILLS
 62
256
370
-1
 48
1.0
  6
ByLayer
100
AcDbCircle
 10
257.6204443676302276
 20
191.828000000000003
 30
0.0
 40
1.6000000000000001
  0
CIRCLE
  5
91
100
AcDbEntity
  8
DRILLS
 62
256
370
-1
 48
1.0
  6
ByLayer
100
AcDbCircle
 10
201.5834443676301078
 20
191.3859999999999957
 30
0.0
 40
1.6000000000000001
  0
CIRCLE
  5
92
100
AcDbEntity
  8
DRILLS
 62
256
370
-1
 48
1.0
  6
ByLayer
100
AcDbCircle
 10
167.6734443676301112
 20
191.36099999999999
 30
0.0
 40
1.6000000000000001
  0
CIRCLE
  5
93
100
AcDbEntity
  8
DRILLS
 62
256
370
-1
 48
1.0
  6
ByLayer
100
AcDbCircle
 10
133.6174443676300996
 20
191.3449999999999989
 30
0.0
 40
1.6000000000000001
  0
CIRCLE
  5
94
100
AcDbEntity
  8
DRILLS
 62
256
370
-1
 48
1.0
  6
ByLayer
100
AcDbCircle
 10
241.736888735260294
 20
196.2260000041266039
 30
0.0
 40
1.6000000000000001
  0
CIRCLE
  5
95
100
AcDbEntity
  8
DRILLS
 62
256
370
-1
 48
1.0
  6
ByLayer
100
AcDbCircle
 10
257.6204443676302276
 20
196.328000000000003
 30
0.0
 40
1.6000000000000001
  0
CIRCLE
  5
96
100
AcDbEntity
  8
DRILLS
 62
256
370
-1
 48
1.0
  6
ByLayer
100
AcDbCircle
 10
201.5834443676301078
 20
195.8859999999999957
 30
0.0
 40
1.6000000000000001
  0
CIRCLE
  5
97
100
AcDbEntity
  8
DRILLS
 62
256
370
-1
 48
1.0
  6
ByLayer
100
AcDbCircle
 10
167.6734443676301112
 20
195.86099999999999
 30
0.0
 40
1.6000000000000001
  0
CIRCLE
  5
98
100
AcDbEntity
  8
DRILLS
 62
256
370
-1
 48
1.0
  6
ByLayer
100
AcDbCircle
 10
133.6174443676300996
 20
195.8449999999999989
 30
0.0
 40
1.6000000000000001
  0
LWPOLYLINE
  5
99
100
AcDbEntity
  8
0
 62
256
370
-1
 48
1.0
  6
ByLayer
100
AcDbPolyline
 90
4
 70
1
 10
216.9995634966788032
 20
197.9944432350723105
 42
0.414213562373095
 10
212.9995634966788032
 20
193.9944432350723105
 42
0.414213562373095
 10
216.9995634966788032
 20
189.9944432350723105
 42
0.414213562373095
 10
220.9995634966788032
 20
193.9944432350723105
 42
0.414213562373095
  0
LWPOLYLINE
  5
9A
100
AcDbEntity
  8
0
 62
256
370
-1
 48
1.0
  6
ByLayer
100
AcDbPolyline
 90
4
 70
1
 10
216.9995634966788032
 20
163.9944432350723105
 42
0.414213562373095
 10
212.9995634966788032
 20
159.9944432350723105
 42
0.414213562373095
 10
216.9995634966788032
 20
155.9944432350723105
 42
0.414213562373095
 10
220.9995634966788032
 20
159.9944432350723105
 42
0.414213562373095
  0
LWPOLYLINE
  5
9B
100
AcDbEntity
  8
0
 62
256
370
-1
 48
1.0
  6
ByLayer
100
AcDbPolyline
 90
4
 70
1
 10
182.9995634966788032
 20
163.9944432350723105
 42
0.414213562373095
 10
178.9995634966788032
 20
159.9944432350723105
 42
0.414213562373095
 10
182.9995634966788032
 20
155.9944432350723105
 42
0.414213562373095
 10
186.9995634966788032
 20
159.9944432350723105
 42
0.414213562373095
  0
LWPOLYLINE
  5
9C
100
AcDbEntity
  8
0
 62
256
370
-1
 48
1.0
  6
ByLayer
100
AcDbPolyline
 90
4
 70
1
 10
42.9995634966788032
 20
88.9944432350723531
 42
0.4142135623730948
 10
30.4995634966788103
 20
76.4944432350723673
 42
0.4142135623730948
 10
42.999563496678789
 20
63.9944432350723673
 42
0.4142135623730953
 10
55.4995634966788032
 20
76.4944432350723673
 42
0.414213562373095
  0
LWPOLYLINE
  5
9D
100
AcDbEntity
  8
0
 62
256
370
-1
 48
1.0
  6
ByLayer
100
AcDbPolyline
 90
4
 70
1
 10
217.0064468771763018
 20
266.1138001812230982
 42
0.414213562373095
 10
213.0064468771763018
 20
262.1138001812230982
 42
0.414213562373095
 10
217.0064468771763018
 20
258.1138001812230982
 42
0.414213562373095
 10
221.0064468771763018
 20
262.1138001812230982
 42
0.414213562373095
  0
LWPOLYLINE
  5
9E
100
AcDbEntity
  8
0
 62
256
370
-1
 48
1.0
  6
ByLayer
100
AcDbPolyline
 90
8
 70
1
 10
368.4620069792371169
 20
159.9263911166648882
 10
356.4620069792371737
 20
159.9263911166648882
 42
-0.414213562373095
 10
354.4620069792372874
 20
161.9263911166648882
 10
354.4620069792372874
 20
173.9263911166648882
 42
-0.414213562373095
 10
356.4620069792371737
 20
175.9263911166648882
 10
368.4620069792371169
 20
175.9263911166650871
 42
-0.414213562373095
 10
370.4620069792371169
 20
173.9263911166648882
 10
370.4620069792371169
 20
161.9263911166648882
 42
-0.414213562373095
  0
LWPOLYLINE
  5
9F
100
AcDbEntity
  8
0
 62
256
370
-1
 48
1.0
  6
ByLayer
100
AcDbPolyline
 90
8
 70
1
 10
95.0235634966788041
 20
148.9104432350723073
 10
95.0235634966788041
 20
136.9104432350723073
 42
-0.414213562373095
 10
93.0235634966788041
 20
134.9104432350723073
 10
81.0235634966788041
 20
134.9104432350723073
 42
-0.414213562373095
 10
79.0235634966788041
 20
136.9104432350723073
 10
79.0235634966788041
 20
148.9104432350723073
 42
-0.414213562373095
 10
81.0235634966788041
 20
150.9104432350723073
 10
93.0235634966788041
 20
150.9104432350723073
 42
-0.414213562373095
  0
LWPOLYLINE
  5
A0
100
AcDbEntity
  8
0
 62
256
370
-1
 48
1.0
  6
ByLayer
100
AcDbPolyline
 90
8
 70
1
 10
343.4620069792372874
 20
150.9263911166650871
 42
-0.414213562373095
 10
345.4620069792372874
 20
148.9263911166648882
 10
345.4620069792371737
 20
136.9263911166648882
 42
-0.414213562373095
 10
343.4620069792372874
 20
134.9263911166648882
 10
331.4620069792371737
 20
134.9263911166648882
 42
-0.414213562373095
 10
329.4620069792372874
 20
136.9263911166648882
 10
329.4620069792372874
 20
148.9263911166648882
 42
-0.414213562373095
 10
331.4620069792371737
 20
150.9263911166648882
  0
LWPOLYLINE
  5
A1
100
AcDbEntity
  8
0
 62
256
370
-1
 48
1.0
  6
ByLayer
100
AcDbPolyline
 90
8
 70
1
 10
81.0235634966788041
 20
159.9104432350723073
 42
-0.414213562373095
 10
79.0235634966788041
 20
161.9104432350723073
 10
79.0235634966788041
 20
173.9104432350723073
 42
-0.414213562373095
 10
81.0235634966788041
 20
175.9104432350723073
 10
93.0235634966788041
 20
175.9104432350723073
 42
-0.414213562373095
 10
95.0235634966788041
 20
173.9104432350723073
 10
95.0235634966788041
 20
161.9104432350723073
 42
-0.414213562373095
 10
93.0235634966788041
 20
159.9104432350723073
  0
LWPOLYLINE
  5
A2
100
AcDbEntity
  8
0
 62
256
370
-1
 48
1.0
  6
ByLayer
100
AcDbPolyline
 90
8
 70
1
 10
120.0235634966788041
 20
148.9104432350723073
 10
120.0235634966788041
 20
136.9104432350723073
 42
-0.414213562373095
 10
118.0235634966788041
 20
134.9104432350723073
 10
106.0235634966788041
 20
134.9104432350723073
 42
-0.414213562373095
 10
104.0235634966788041
 20
136.9104432350723073
 10
104.0235634966788041
 20
148.9104432350723073
 42
-0.414213562373095
 10
106.0235634966788041
 20
150.9104432350723073
 10
118.0235634966788041
 20
150.9104432350723073
 42
-0.414213562373095
  0
LWPOLYLINE
  5
A3
100
AcDbEntity
  8
0
 62
256
370
-1
 48
1.0
  6
ByLayer
100
AcDbPolyline
 90
8
 70
1
 10
329.4620069792372874
 20
173.9263911166648882
 42
-0.414213562373095
 10
331.4620069792371737
 20
175.9263911166648882
 10
343.4620069792372874
 20
175.9263911166650871
 42
-0.414213562373095
 10
345.4620069792372874
 20
173.9263911166648882
 10
345.4620069792371737
 20
161.9263911166648882
 42
-0.414213562373095
 10
343.4620069792372874
 20
159.9263911166648882
 10
331.4620069792371737
 20
159.9263911166648882
 42
-0.414213562373095
 10
329.4620069792371737
 20
161.9263911166648882
  0
LWPOLYLINE
  5
A4
100
AcDbEntity
  8
0
 62
256
370
-1
 48
1.0
  6
ByLayer
100
AcDbPolyline
 90
8
 70
1
 10
118.0235634966788041
 20
175.9104432350723073
 42
-0.414213562373095
 10
120.0235634966788041
 20
173.9104432350723073
 10
120.0235634966788041
 20
161.9104432350723073
 42
-0.414213562373095
 10
118.0235634966788041
 20
159.9104432350723073
 10
106.0235634966788041
 20
159.9104432350723073
 42
-0.414213562373095
 10
104.0235634966788041
 20
161.9104432350723073
 10
104.0235634966788041
 20
173.9104432350723073
 42
-0.414213562373095
 10
106.0235634966788041
 20
175.9104432350723073
  0
LWPOLYLINE
  5
A5
100
AcDbEntity
  8
0
 62
256
370
-1
 48
1.0
  6
ByLayer
100
AcDbPolyline
 90
8
 70
1
 10
354.4620069792372874
 20
136.9263911166648882
 10
354.4620069792372874
 20
148.9263911166648882
 42
-0.414213562373095
 10
356.4620069792371737
 20
150.9263911166648882
 10
368.4620069792371169
 20
150.9263911166650871
 42
-0.414213562373095
 10
370.4620069792371169
 20
148.9263911166648882
 10
370.4620069792371169
 20
136.9263911166648882
 42
-0.414213562373095
 10
368.4620069792371169
 20
134.9263911166648882
 10
356.4620069792371737
 20
134.9263911166648882
 42
-0.414213562373095
  0
CIRCLE
  5
A6
100
AcDbEntity
  8
0
 62
256
370
-1
 48
1.0
  6
ByLayer
100
AcDbCircle
 10
281.9900000000000091
 20
262.1200000000000045
 30
0.0
 40
4.0
  0
LWPOLYLINE
  5
A7
100
AcDbEntity
  8
0
 62
256
370
-1
 48
1.0
  6
ByLayer
100
AcDbPolyline
 90
8
 70
1
 10
343.799126993357504
 20
92.9888864701438536
 10
343.7991269933576746
 20
98.9888864701440809
 42
0.4142135623730891
 10
340.99912699335772
 20
101.788886470144007
 10
328.99912699335772
 20
101.788886470144007
 42
0.4142135623730578
 10
326.1991269933578792
 20
98.9888864701440809
 10
326.1991269933578224
 20
92.9888864701440809
 42
0.4142135623731024
 10
328.9991269933577769
 20
90.1888864701439559
 10
340.9991269933574927
 20
90.1888864701439559
 42
0.4142135623730935
  0
LWPOLYLINE
  5
A8
100
AcDbEntity
  8
0
 62
256
370
-1
 48
1.0
  6
ByLayer
100
AcDbPolyline
 90
8
 70
1
 10
304.4620069792371169
 20
148.9263911166648882
 42
-0.414213562373095
 10
306.4620069792371169
 20
150.9263911166648029
 10
318.4620069792371169
 20
150.9263911166648882
 42
-0.414213562373095
 10
320.4620069792371169
 20
148.9263911166648882
 10
320.4620069792371169
 20
136.9263911166648882
 42
-0.414213562373095
 10
318.4620069792371169
 20
134.9263911166648882
 10
306.4620069792371169
 20
134.9263911166648029
 42
-0.414213562373095
 10
304.4620069792371169
 20
136.9263911166648882
  0
LWPOLYLINE
  5
A9
100
AcDbEntity
  8
0
 62
256
370
-1
 48
1.0
  6
ByLayer
100
AcDbPolyline
 90
8
 70
1
 10
70.0235634966788894
 20
148.9104432350723073
 10
70.0235634966788041
 20
136.9104432350723073
 42
-0.414213562373095
 10
68.0235634966788041
 20
134.9104432350723073
 10
56.023563496678797
 20
134.9104432350723073
 42
-0.414213562373095
 10
54.023563496678797
 20
136.9104432350723073
 10
54.023563496678797
 20
148.9104432350723073
 42
-0.414213562373095
 10
56.023563496678797
 20
150.9104432350723073
 10
68.0235634966788041
 20
150.9104432350723073
 42
-0.4142135623730909
  0
LWPOLYLINE
  5
AA
100
AcDbEntity
  8
0
 62
256
370
-1
 48
1.0
  6
ByLayer
100
AcDbPolyline
 90
8
 70
1
 10
281.4620069792371737
 20
134.9263911166648029
 42
-0.414213562373095
 10
279.4620069792371737
 20
136.9263911166648882
 10
279.4620069792372874
 20
148.9263911166648882
 42
-0.414213562373095
 10
281.4620069792371737
 20
150.9263911166648029
 10
293.4620069792372874
 20
150.9263911166648882
 42
-0.414213562373095
 10
295.4620069792372874
 20
148.9263911166648882
 10
295.4620069792371737
 20
136.9263911166648882
 42
-0.414213562373095
 10
293.4620069792372874
 20
134.9263911166648882
  0
LWPOLYLINE
  5
AB
100
AcDbEntity
  8
0
 62
256
370
-1
 48
1.0
  6
ByLayer
100
AcDbPolyline
 90
8
 70
1
 10
258.0022270322875784
 20
119.0555464202492999
 42
-0.414213562373095
 10
256.0022270322875784
 20
117.0555464202492999
 10
242.0022270322876068
 20
117.0555464202492004
 42
-0.414213562373095
 10
240.0022270322876068
 20
119.0555464202492999
 10
240.0022270322876068
 20
136.0555464202492999
 42
-0.414213562373095
 10
242.0022270322876068
 20
138.0555464202492999
 10
256.0022270322875784
 20
138.0555464202492999
 42
-0.414213562373095
 10
258.0022270322876921
 20
136.0555464202492999
  0
LWPOLYLINE
  5
AC
100
AcDbEntity
  8
0
 62
256
370
-1
 48
1.0
  6
ByLayer
100
AcDbPolyline
 90
8
 70
1
 10
31.0235634966788005
 20
150.9104432350723073
 10
43.023563496678797
 20
150.9104432350723073
 42
-0.414213562373095
 10
45.023563496678797
 20
148.9104432350723073
 10
45.023563496678797
 20
136.9104432350723073
 42
-0.414213562373095
 10
43.023563496678797
 20
134.9104432350723073
 10
31.0235634966788005
 20
134.9104432350723073
 42
-0.414213562373095
 10
29.0235634966788005
 20
136.9104432350723073
 10
29.0235634966788005
 20
148.9104432350723073
 42
-0.414213562373095
  0
LWPOLYLINE
  5
AD
100
AcDbEntity
  8
0
 62
256
370
-1
 48
1.0
  6
ByLayer
100
AcDbPolyline
 90
8
 70
1
 10
90.9991269933576916
 20
76.1888864701440696
 10
78.9991269933576064
 20
76.1888864701440696
 42
-0.414213562373098
 10
76.1991269933577087
 20
78.9888864701440809
 10
76.1991269933577087
 20
84.9888864701439672
 42
-0.4142135623730832
 10
78.9991269933578053
 20
87.7888864701439786
 10
90.9991269933576064
 20
87.7888864701440639
 42
-0.4142135623730951
 10
93.7991269933578167
 20
84.9888864701439672
 10
93.799126993357703
 20
78.9888864701439672
 42
-0.414213562373095
  0
LWPOLYLINE
  5
AE
100
AcDbEntity
  8
0
 62
256
370
-1
 48
1.0
  6
ByLayer
100
AcDbPolyline
 90
8
 70
1
 10
91.0107054414646939
 20
52.3322547519834629
 10
79.0107054414646086
 20
52.3322547519834629
 42
-0.4142135623731001
 10
76.2107054414647109
 20
55.1322547519834671
 10
76.2107054414647109
 20
61.1322547519833535
 42
-0.4142135623730832
 10
79.0107054414648076
 20
63.9322547519833577
 10
91.0107054414646086
 20
63.9322547519834501
 42
-0.4142135623730951
 10
93.8107054414648189
 20
61.1322547519833535
 10
93.8107054414647052
 20
55.1322547519833535
 42
-0.414213562373095
  0
LWPOLYLINE
  5
AF
100
AcDbEntity
  8
0
 62
256
370
-1
 48
1.0
  6
ByLayer
100
AcDbPolyline
 90
8
 70
1
 10
76.1991269933577087
 20
98.9888864701439672
 10
76.1991269933577087
 20
92.9888864701439672
 42
0.414213562373098
 10
78.9991269933576916
 20
90.1888864701439559
 10
90.9991269933576916
 20
90.1888864701439559
 42
0.414213562373095
 10
93.7991269933575893
 20
92.9888864701439672
 10
93.7991269933575893
 20
98.9888864701440809
 42
0.414213562373095
 10
90.9991269933576916
 20
101.788886470144007
 10
78.9991269933576916
 20
101.788886470144007
 42
0.4142135623731068
  0
LWPOLYLINE
  5
B0
100
AcDbEntity
  8
0
 62
256
370
-1
 48
1.0
  6
ByLayer
100
AcDbPolyline
 90
8
 70
1
 10
140.0894258644266017
 20
103.4481537555187032
 10
140.0894258644266017
 20
97.4481537555187458
 42
0.4142135623730965
 10
142.8894258644266131
 20
94.6481537555187344
 10
154.8894258644266131
 20
94.6481537555187344
 42
0.414213562373095
 10
157.6894258644265108
 20
97.4481537555187458
 10
157.6894258644265108
 20
103.4481537555189021
 42
0.4142135623730921
 10
154.8894258644266131
 20
106.2481537555187003
 10
142.8894258644266131
 20
106.2481537555187003
 42
0.4142135623731039
  0
LWPOLYLINE
  5
B1
100
AcDbEntity
  8
0
 62
256
370
-1
 48
1.0
  6
ByLayer
100
AcDbPolyline
 90
8
 70
1
 10
174.1929309892952915
 20
103.4471530399378025
 10
174.1929309892952915
 20
97.4471530399378452
 42
0.4142135623731009
 10
176.9929309892953029
 20
94.6471530399378338
 10
188.9929309892953029
 20
94.6471530399378338
 42
0.414213562373095
 10
191.7929309892952006
 20
97.4471530399378452
 10
191.7929309892950869
 20
103.4471530399380015
 42
0.4142135623730906
 10
188.9929309892953029
 20
106.2471530399377997
 10
176.9929309892953029
 20
106.2471530399377997
 42
0.4142135623731068
  0
LWPOLYLINE
  5
B2
100
AcDbEntity
  8
0
 62
256
370
-1
 48
1.0
  6
ByLayer
100
AcDbPolyline
 90
8
 70
1
 10
208.0900767040546953
 20
103.3684266152158955
 10
208.0900767040546953
 20
97.3684266152158955
 42
0.4142135623731009
 10
210.8900767040547066
 20
94.5684266152158841
 10
222.8900767040547066
 20
94.5684266152158841
 42
0.414213562373095
 10
225.6900767040546043
 20
97.3684266152158955
 10
225.6900767040544906
 20
103.368426615215995
 42
0.4142135623730921
 10
222.8900767040547066
 20
106.1684266152159068
 10
210.8900767040547066
 20
106.1684266152159068
 42
0.4142135623731068
  0
LWPOLYLINE
  5
B3
100
AcDbEntity
  8
0
 62
256
370
-1
 48
1.0
  6
ByLayer
100
AcDbPolyline
 90
8
 70
1
 10
66.3528730904617134
 20
221.2644601669423139
 10
52.0528730904618229
 20
221.2644601669425128
 42
0.4142135623730843
 10
50.3028730904618229
 20
219.5144601669423139
 10
50.3028730904618229
 20
212.5144601669423139
 42
0.4142135623731044
 10
52.0528730904618229
 20
210.7644601669423139
 10
66.3528730904617987
 20
210.7644601669423139
 42
0.414213562373107
 10
68.1028730904617987
 20
212.5144601669423139
 10
68.1028730904617987
 20
219.5144601669423139
 42
0.4142135623730999
  0
LWPOLYLINE
  5
B4
100
AcDbEntity
  8
0
 62
256
370
-1
 48
1.0
  6
ByLayer
100
AcDbPolyline
 90
8
 70
1
 10
95.8500000000000085
 20
210.7644601669420865
 42
0.4142135623730927
 10
97.6000000000000085
 20
212.5144601669420013
 10
97.6000000000000085
 20
219.5144601669420013
 42
0.4142135623731143
 10
95.8500000000000085
 20
221.2644601669420013
 10
81.5499999999999972
 20
221.2644601669420865
 42
0.4142135623731116
 10
79.7999999999999972
 20
219.5144601669420865
 10
79.8000000000000114
 20
212.5144601669420865
 42
0.4142135623730736
 10
81.5499999999999972
 20
210.7644601669420865
  0
LWPOLYLINE
  5
B5
100
AcDbEntity
  8
0
 62
256
370
-1
 48
1.0
  6
ByLayer
100
AcDbPolyline
 90
8
 70
1
 10
42.1289260112141477
 20
244.5724007489314999
 42
0.4142135623730919
 10
38.1289260112140695
 20
248.5724007489313863
 10
26.1289260112140411
 20
248.5724007489313863
 42
0.4142135623730992
 10
22.1289260112141513
 20
244.5724007489314999
 10
22.1289260112141513
 20
238.4824007489312976
 42
0.4142135623730992
 10
26.1289260112140411
 20
234.4824007489312976
 10
38.1289260112140695
 20
234.4824007489314113
 42
0.4142135623730919
 10
42.1289260112140767
 20
238.4824007489312976
  0
LWPOLYLINE
  5
B6
100
AcDbEntity
  8
0
 62
256
370
-1
 48
1.0
  6
ByLayer
100
AcDbPolyline
 90
8
 70
1
 10
83.9575260112142132
 20
244.6434007489314979
 42
0.4142135623730929
 10
79.9575260112141279
 20
248.6434007489314126
 10
67.9575260112140995
 20
248.6434007489314126
 42
0.4142135623731003
 10
63.9575260112142132
 20
244.6434007489314979
 10
63.9575260112142132
 20
238.5534007489312955
 42
0.4142135623730981
 10
67.9575260112140995
 20
234.5534007489314092
 10
79.9575260112141279
 20
234.5534007489314092
 42
0.4142135623730909
 10
83.9575260112141279
 20
238.5534007489312955
  0
LWPOLYLINE
  5
B7
100
AcDbEntity
  8
0
 62
256
370
-1
 48
1.0
  6
ByLayer
100
AcDbPolyline
 90
8
 70
1
 10
125.0575260112141933
 20
244.6244007489314924
 42
0.4142135623730919
 10
121.0575260112141933
 20
248.6244007489314072
 10
109.0575260112140938
 20
248.6244007489314072
 42
0.4142135623731003
 10
105.0575260112141933
 20
244.6244007489314924
 10
105.0575260112141933
 20
238.5344007489312901
 42
0.4142135623730992
 10
109.0575260112140938
 20
234.5344007489312901
 10
121.0575260112141933
 20
234.5344007489312901
 42
0.414213562373095
 10
125.0575260112141933
 20
238.5344007489312901
  0
LWPOLYLINE
  5
B8
100
AcDbEntity
  8
0
 62
256
370
-1
 48
1.0
  6
ByLayer
100
AcDbPolyline
 90
8
 70
1
 10
292.2665260112141254
 20
244.423400748931499
 42
0.4142135623730888
 10
288.2665260112141254
 20
248.4234007489314138
 10
276.2665260112140118
 20
248.4234007489314138
 42
0.4142135623730992
 10
272.2665260112141823
 20
244.423400748931499
 10
272.2665260112141254
 20
238.3334007489312967
 42
0.4142135623731054
 10
276.2665260112140118
 20
234.3334007489312967
 10
288.2665260112141254
 20
234.3334007489314104
 42
0.4142135623730929
 10
292.2665260112141254
 20
238.3334007489312967
  0
LWPOLYLINE
  5
B9
100
AcDbEntity
  8
0
 62
256
370
-1
 48
1.0
  6
ByLayer
100
AcDbPolyline
 90
8
 70
1
 10
334.0951260112141199
 20
244.494400748931497
 42
0.4142135623730909
 10
330.0951260112141199
 20
248.4944007489314117
 10
318.0951260112141199
 20
248.4944007489314117
 42
0.4142135623730992
 10
314.0951260112141199
 20
244.494400748931497
 10
314.0951260112141767
 20
238.4044007489312946
 42
0.4142135623730992
 10
318.0951260112141199
 20
234.4044007489314083
 10
330.0951260112141199
 20
234.4044007489314083
 42
0.4142135623730867
 10
334.0951260112141199
 20
238.4044007489312946
  0
LWPOLYLINE
  5
BA
100
AcDbEntity
  8
0
 62
256
370
-1
 48
1.0
  6
ByLayer
100
AcDbPolyline
 90
8
 70
1
 10
375.1951260112141995
 20
244.4754007489314915
 42
0.4142135623730909
 10
371.1951260112140858
 20
248.4754007489314063
 10
359.1951260112140858
 20
248.4754007489314063
 42
0.4142135623730971
 10
355.1951260112143132
 20
244.4754007489314915
 10
355.1951260112144269
 20
238.3854007489312892
 42
0.4142135623730971
 10
359.1951260112140858
 20
234.3854007489312892
 10
371.1951260112140858
 20
234.3854007489314029
 42
0.4142135623730929
 10
375.1951260112140858
 20
238.3854007489312892
  0
LWPOLYLINE
  5
BB
100
AcDbEntity
  8
0
 62
256
370
-1
 48
1.0
  6
ByLayer
100
AcDbPolyline
 90
8
 70
1
 10
331.5400000000000773
 20
221.2644601669420865
 42
0.4142135623730855
 10
329.7900000000000205
 20
219.5144601669420865
 10
329.7900000000000773
 20
212.5144601669420865
 42
0.4142135623731139
 10
331.5400000000000773
 20
210.7644601669420865
 10
345.839999999999975
 20
210.7644601669420013
 42
0.414213562373114
 10
347.5900000000000887
 20
212.5144601669420013
 10
347.589999999999975
 20
219.5144601669420865
 42
0.4142135623731427
 10
345.839999999999975
 20
221.2644601669420013
  0
LWPOLYLINE
  5
BC
100
AcDbEntity
  8
0
 62
256
370
-1
 48
1.0
  6
ByLayer
100
AcDbPolyline
 90
8
 70
1
 10
316.3528730904619124
 20
210.7644601669423139
 42
0.4142135623730571
 10
318.102873090461685
 20
212.5144601669423139
 10
318.102873090461685
 20
219.5144601669423139
 42
0.414213562373076
 10
316.3528730904619124
 20
221.2644601669423139
 10
302.0528730904617873
 20
221.2644601669423139
 42
0.414213562373095
 10
300.3028730904617873
 20
219.5144601669423139
 10
300.3028730904617873
 20
212.5144601669423139
 42
0.4142135623730854
 10
302.0528730904617873
 20
210.7644601669425128
  0
LWPOLYLINE
  5
BD
100
AcDbEntity
  8
0
 62
256
370
-1
 48
1.0
  6
ByLayer
100
AcDbPolyline
 90
8
 70
1
 10
343.7991269933577883
 20
33.9888864701440525
 42
0.4142135623730965
 10
340.9991269933574927
 20
36.7888864701438933
 10
328.99912699335772
 20
36.7888864701438933
 42
0.414213562373052
 10
326.1991269933578792
 20
33.9888864701440028
 10
326.1991269933577087
 20
27.9888864701439992
 42
0.4142135623730924
 10
328.99912699335772
 20
25.1888864701439807
 10
340.99912699335772
 20
25.1888864701440411
 42
0.4142135623730898
 10
343.7991269933576177
 20
27.9888864701439992
  0
LWPOLYLINE
  5
BE
100
AcDbEntity
  8
0
 62
256
370
-1
 48
1.0
  6
ByLayer
100
AcDbPolyline
 90
8
 70
1
 10
328.9991269933578906
 20
76.1888864701439559
 42
-0.4142135623730772
 10
326.1991269933577087
 20
78.9888864701439672
 10
326.1991269933577087
 20
84.9888864701439672
 42
-0.4142135623730936
 10
328.99912699335772
 20
87.7888864701439786
 10
340.99912699335772
 20
87.7888864701440639
 42
-0.4142135623730919
 10
343.799126993357504
 20
84.9888864701439672
 10
343.7991269933576746
 20
78.9888864701439672
 42
-0.4142135623731174
 10
340.9991269933577769
 20
76.1888864701440696
  0
LWPOLYLINE
  5
BF
100
AcDbEntity
  8
0
 62
256
370
-1
 48
1.0
  6
ByLayer
100
AcDbPolyline
 90
8
 70
1
 10
329.0371837937693158
 20
52.6027428207149228
 42
-0.4142135623730795
 10
326.2371837937690771
 20
55.4027428207149271
 10
326.2371837937690202
 20
61.4027428207149271
 42
-0.4142135623730914
 10
329.0371837937690884
 20
64.2027428207149455
 10
341.0371837937690884
 20
64.2027428207150308
 42
-0.4142135623730929
 10
343.8371837937688724
 20
61.4027428207149271
 10
343.8371837937690998
 20
55.4027428207149271
 42
-0.4142135623731159
 10
341.0371837937690884
 20
52.6027428207150365
  0
LWPOLYLINE
  5
C0
100
AcDbEntity
  8
0
 62
256
370
-1
 48
1.0
  6
ByLayer
100
AcDbPolyline
 90
8
 70
1
 10
76.1991269933577939
 20
27.9888864701439992
 42
0.4142135623730984
 10
78.9991269933576916
 20
25.1888864701439807
 10
90.9991269933576064
 20
25.1888864701439807
 42
0.4142135623730953
 10
93.7991269933578167
 20
27.9888864701439992
 10
93.7991269933575893
 20
33.9888864701440525
 42
0.4142135623731018
 10
90.9991269933576916
 20
36.7888864701438933
 10
78.9991269933574927
 20
36.7888864701439502
 42
0.4142135623730682
 10
76.199126993357595
 20
33.9888864701440525
  0
LWPOLYLINE
  5
C1
100
AcDbEntity
  8
0
 62
256
370
-1
 48
1.0
  6
ByLayer
100
AcDbPolyline
 90
8
 70
1
 10
46.6477847427669019
 20
112.6481226931569068
 10
80.4477847427669133
 20
112.6481226931569068
 42
0.414213562373095
 10
82.0477847427669076
 20
114.2481226931569012
 10
82.0477847427669076
 20
124.0481226931568983
 42
0.414213562373095
 10
80.4477847427669133
 20
125.6481226931569068
 10
46.6477847427669019
 20
125.6481226931569068
 42
0.4142135623730963
 10
45.0477847427669076
 20
124.0481226931568983
 10
45.0477847427669076
 20
114.2481226931569012
 42
0.414213562373095
  0
LWPOLYLINE
  5
C2
100
AcDbEntity
  8
0
 62
256
370
-1
 48
1.0
  6
ByLayer
100
AcDbPolyline
 90
8
 70
1
 10
297.0195634966788134
 20
112.4944432350722963
 10
330.8195634966788248
 20
112.4944432350722963
 42
0.4142135623730976
 10
332.419563496678677
 20
114.0944432350723048
 10
332.419563496678677
 20
123.8944432350723019
 42
0.414213562373095
 10
330.8195634966788248
 20
125.4944432350722963
 10
297.0195634966788134
 20
125.4944432350722963
 42
0.4142135623730898
 10
295.4195634966787907
 20
123.8944432350723019
 10
295.4195634966787907
 20
114.0944432350723048
 42
0.414213562373095
  0
LWPOLYLINE
  5
C3
100
AcDbEntity
  8
0
 62
256
370
-1
 48
1.0
  6
ByLayer
100
AcDbPolyline
 90
4
 70
1
 10
356.5
 20
29.4999999999999893
 10
356.5
 20
97.5
 42
-0.9999999999999957
 10
359.7300391008794236
 20
97.5124803660368826
 10
359.7300391008794236
 20
29.5124803660368791
 42
-0.9999999999999999
  0
LWPOLYLINE
  5
C4
100
AcDbEntity
  8
0
 62
256
370
-1
 48
1.0
  6
ByLayer
100
AcDbPolyline
 90
4
 70
1
 10
215.2924829913571045
 20
26.2443138185551597
 42
0.9999999999999999
 10
218.4924829913570932
 20
26.2443138185551597
 10
218.4924829913570932
 20
82.2443138185551561
 42
0.9999999999999999
 10
215.2924829913571045
 20
82.2443138185551561
  0
LWPOLYLINE
  5
C5
100
AcDbEntity
  8
0
 62
256
370
-1
 48
1.0
  6
ByLayer
100
AcDbPolyline
 90
4
 70
1
 10
181.3995634966788089
 20
26.22629804582661
 42
0.9999999999999999
 10
184.5995634966787975
 20
26.22629804582661
 10
184.5995634966787975
 20
82.22629804582661
 42
0.9999999999999999
 10
181.3995634966788089
 20
82.22629804582661
  0
LWPOLYLINE
  5
C6
100
AcDbEntity
  8
0
 62
256
370
-1
 48
1.0
  6
ByLayer
100
AcDbPolyline
 90
5
 70
1
 10
147.3995634966788089
 20
26.22629804582661
 42
0.4142135623730612
 10
148.9995634966788032
 20
24.6262980458265908
 42
0.414213562373068
 10
150.4000000000000057
 20
26.1999999999999993
 10
150.4000000000000057
 20
82.1999999999999886
 42
1.0
 10
147.3995634966788089
 20
82.22629804582661
  0
LWPOLYLINE
  5
C7
100
AcDbEntity
  8
0
 62
256
370
-1
 48
1.0
  6
ByLayer
100
AcDbPolyline
 90
5
 70
1
 10
106.5999999999999943
 20
29.3999999999999986
 42
0.4142135623730827
 10
108.2000000000000028
 20
27.7999999999999794
 42
0.414213562373088
 10
109.7474456787972059
 20
29.3978302075717401
 10
109.7474456787972059
 20
97.3978302075717437
 42
0.9999999999999954
 10
106.5999999999999943
 20
97.4000000000000057
  0
CIRCLE
  5
C8
100
AcDbEntity
  8
DRILLS
 62
256
370
-1
 48
1.0
  6
ByLayer
100
AcDbCircle
 10
241.736888735260294
 20
182.7260000041266039
 30
0.0
 40
1.6000000000000001
  0
CIRCLE
  5
C9
100
AcDbEntity
  8
DRILLS
 62
256
370
-1
 48
1.0
  6
ByLayer
100
AcDbCircle
 10
257.6204443676302276
 20
182.828000000000003
 30
0.0
 40
1.6000000000000001
  0
CIRCLE
  5
CA
100
AcDbEntity
  8
DRILLS
 62
256
370
-1
 48
1.0
  6
ByLayer
100
AcDbCircle
 10
201.5834443676301078
 20
182.3859999999999957
 30
0.0
 40
1.6000000000000001
  0
CIRCLE
  5
CB
100
AcDbEntity
  8
DRILLS
 62
256
370
-1
 48
1.0
  6
ByLayer
100
AcDbCircle
 10
167.6734443676301112
 20
182.36099999999999
 30
0.0
 40
1.6000000000000001
  0
CIRCLE
  5
CC
100
AcDbEntity
  8
DRILLS
 62
256
370
-1
 48
1.0
  6
ByLayer
100
AcDbCircle
 10
133.6174443676300996
 20
182.3449999999999989
 30
0.0
 40
1.6000000000000001
  0
CIRCLE
  5
CD
100
AcDbEntity
  8
0
 62
256
370
-1
 48
1.0
  6
ByLayer
100
AcDbCircle
 10
249.0300000000000011
 20
80.460000000000008
 30
0.0
 40
4.0
  0
CIRCLE
  5
CE
100
AcDbEntity
  8
DRILLS
 62
256
370
-1
 48
1.0
  6
ByLayer
100
AcDbCircle
 10
241.736888735260294
 20
205.2260000041266039
 30
0.0
 40
1.6000000000000001
  0
CIRCLE
  5
CF
100
AcDbEntity
  8
DRILLS
 62
256
370
-1
 48
1.0
  6
ByLayer
100
AcDbCircle
 10
257.6204443676302276
 20
205.328000000000003
 30
0.0
 40
1.6000000000000001
  0
CIRCLE
  5
D0
100
AcDbEntity
  8
DRILLS
 62
256
370
-1
 48
1.0
  6
ByLayer
100
AcDbCircle
 10
201.5834443676301078
 20
204.8859999999999957
 30
0.0
 40
1.6000000000000001
  0
CIRCLE
  5
D1
100
AcDbEntity
  8
DRILLS
 62
256
370
-1
 48
1.0
  6
ByLayer
100
AcDbCircle
 10
167.6734443676301112
 20
204.86099999999999
 30
0.0
 40
1.6000000000000001
  0
CIRCLE
  5
D2
100
AcDbEntity
  8
DRILLS
 62
256
370
-1
 48
1.0
  6
ByLayer
100
AcDbCircle
 10
133.6174443676300996
 20
204.8449999999999989
 30
0.0
 40
1.6000000000000001
  0
CIRCLE
  5
D3
100
AcDbEntity
  8
DRILLS
 62
256
370
-1
 48
1.0
  6
ByLayer
100
AcDbCircle
 10
241.736888735260294
 20
173.7260000041266039
 30
0.0
 40
1.6000000000000001
  0
CIRCLE
  5
D4
100
AcDbEntity
  8
DRILLS
 62
256
370
-1
 48
1.0
  6
ByLayer
100
AcDbCircle
 10
257.6204443676302276
 20
173.828000000000003
 30
0.0
 40
1.6000000000000001
  0
CIRCLE
  5
D5
100
AcDbEntity
  8
DRILLS
 62
256
370
-1
 48
1.0
  6
ByLayer
100
AcDbCircle
 10
201.5834443676301078
 20
173.3859999999999957
 30
0.0
 40
1.6000000000000001
  0
CIRCLE
  5
D6
100
AcDbEntity
  8
DRILLS
 62
256
370
-1
 48
1.0
  6
ByLayer
100
AcDbCircle
 10
167.6734443676301112
 20
173.36099999999999
 30
0.0
 40
1.6000000000000001
  0
CIRCLE
  5
D7
100
AcDbEntity
  8
DRILLS
 62
256
370
-1
 48
1.0
  6
ByLayer
100
AcDbCircle
 10
133.6174443676300996
 20
173.3449999999999989
 30
0.0
 40
1.6000000000000001
  0
CIRCLE
  5
D8
100
AcDbEntity
  8
DRILLS
 62
256
370
-1
 48
1.0
  6
ByLayer
100
AcDbCircle
 10
241.7518887352603087
 20
200.7260000041266039
 30
0.0
 40
1.6000000000000001
  0
CIRCLE
  5
D9
100
AcDbEntity
  8
DRILLS
 62
256
370
-1
 48
1.0
  6
ByLayer
100
AcDbCircle
 10
257.6354443676302139
 20
200.828000000000003
 30
0.0
 40
1.6000000000000001
  0
CIRCLE
  5
DA
100
AcDbEntity
  8
DRILLS
 62
256
370
-1
 48
1.0
  6
ByLayer
100
AcDbCircle
 10
201.5984443676302078
 20
200.3859999999999957
 30
0.0
 40
1.6000000000000001
  0
CIRCLE
  5
DB
100
AcDbEntity
  8
DRILLS
 62
256
370
-1
 48
1.0
  6
ByLayer
100
AcDbCircle
 10
167.6884443676302112
 20
200.36099999999999
 30
0.0
 40
1.6000000000000001
  0
CIRCLE
  5
DC
100
AcDbEntity
  8
DRILLS
 62
256
370
-1
 48
1.0
  6
ByLayer
100
AcDbCircle
 10
133.6324443676301996
 20
200.3449999999999989
 30
0.0
 40
1.6000000000000001
  0
CIRCLE
  5
DD
100
AcDbEntity
  8
DRILLS
 62
256
370
-1
 48
1.0
  6
ByLayer
100
AcDbCircle
 10
241.736888735260294
 20
209.7260000041266039
 30
0.0
 40
1.6000000000000001
  0
CIRCLE
  5
DE
100
AcDbEntity
  8
DRILLS
 62
256
370
-1
 48
1.0
  6
ByLayer
100
AcDbCircle
 10
257.6204443676302276
 20
209.828000000000003
 30
0.0
 40
1.6000000000000001
  0
CIRCLE
  5
DF
100
AcDbEntity
  8
DRILLS
 62
256
370
-1
 48
1.0
  6
ByLayer
100
AcDbCircle
 10
201.5834443676301078
 20
209.3859999999999957
 30
0.0
 40
1.6000000000000001
  0
CIRCLE
  5
E0
100
AcDbEntity
  8
DRILLS
 62
256
370
-1
 48
1.0
  6
ByLayer
100
AcDbCircle
 10
167.6734443676301112
 20
209.36099999999999
 30
0.0
 40
1.6000000000000001
  0
CIRCLE
  5
E1
100
AcDbEntity
  8
DRILLS
 62
256
370
-1
 48
1.0
  6
ByLayer
100
AcDbCircle
 10
133.6174443676300996
 20
209.3449999999999989
 30
0.0
 40
1.6000000000000001
  0
CIRCLE
  5
E2
100
AcDbEntity
  8
0
 62
256
370
-1
 48
1.0
  6
ByLayer
100
AcDbCircle
 10
364.9700000000000273
 20
262.1700000000000159
 30
0.0
 40
4.0
  0
CIRCLE
  5
E3
100
AcDbEntity
  8
DRILLS
 62
256
370
-1
 48
1.0
  6
ByLayer
100
AcDbCircle
 10
241.7700000000000102
 20
169.25
 30
0.0
 40
1.6000000000000001
  0
CIRCLE
  5
E4
100
AcDbEntity
  8
DRILLS
 62
256
370
-1
 48
1.0
  6
ByLayer
100
AcDbCircle
 10
257.6535556323697733
 20
169.351999995873399
 30
0.0
 40
1.6000000000000001
  0
CIRCLE
  5
E5
100
AcDbEntity
  8
DRILLS
 62
256
370
-1
 48
1.0
  6
ByLayer
100
AcDbCircle
 10
201.6165556323699093
 20
168.9099999958733918
 30
0.0
 40
1.6000000000000001
  0
CIRCLE
  5
E6
100
AcDbEntity
  8
DRILLS
 62
256
370
-1
 48
1.0
  6
ByLayer
100
AcDbCircle
 10
167.7065556323699127
 20
168.8849999958733861
 30
0.0
 40
1.6000000000000001
  0
CIRCLE
  5
E7
100
AcDbEntity
  8
DRILLS
 62
256
370
-1
 48
1.0
  6
ByLayer
100
AcDbCircle
 10
133.6505556323697874
 20
168.8689999958733949
 30
0.0
 40
1.6000000000000001
  0
CIRCLE
  5
E8
100
AcDbEntity
  8
DRILLS
 62
256
370
-1
 48
1.0
  6
ByLayer
100
AcDbCircle
 10
241.736888735260294
 20
187.2260000041266039
 30
0.0
 40
1.6000000000000001
  0
CIRCLE
  5
E9
100
AcDbEntity
  8
DRILLS
 62
256
370
-1
 48
1.0
  6
ByLayer
100
AcDbCircle
 10
257.6204443676302276
 20
187.328000000000003
 30
0.0
 40
1.6000000000000001
  0
CIRCLE
  5
EA
100
AcDbEntity
  8
DRILLS
 62
256
370
-1
 48
1.0
  6
ByLayer
100
AcDbCircle
 10
201.5834443676301078
 20
186.8859999999999957
 30
0.0
 40
1.6000000000000001
  0
CIRCLE
  5
EB
100
AcDbEntity
  8
DRILLS
 62
256
370
-1
 48
1.0
  6
ByLayer
100
AcDbCircle
 10
167.6734443676301112
 20
186.86099999999999
 30
0.0
 40
1.6000000000000001
  0
CIRCLE
  5
EC
100
AcDbEntity
  8
DRILLS
 62
256
370
-1
 48
1.0
  6
ByLayer
100
AcDbCircle
 10
133.6174443676300996
 20
186.8449999999999989
 30
0.0
 40
1.6000000000000001
  0
CIRCLE
  5
ED
100
AcDbEntity
  8
DRILLS
 62
256
370
-1
 48
1.0
  6
ByLayer
100
AcDbCircle
 10
241.736888735260294
 20
178.2260000041266039
 30
0.0
 40
1.6000000000000001
  0
CIRCLE
  5
EE
100
AcDbEntity
  8
DRILLS
 62
256
370
-1
 48
1.0
  6
ByLayer
100
AcDbCircle
 10
257.6204443676302276
 20
178.328000000000003
 30
0.0
 40
1.6000000000000001
  0
CIRCLE
  5
EF
100
AcDbEntity
  8
DRILLS
 62
256
370
-1
 48
1.0
  6
ByLayer
100
AcDbCircle
 10
201.5834443676301078
 20
177.8859999999999957
 30
0.0
 40
1.6000000000000001
  0
CIRCLE
  5
F0
100
AcDbEntity
  8
DRILLS
 62
256
370
-1
 48
1.0
  6
ByLayer
100
AcDbCircle
 10
167.6734443676301112
 20
177.86099999999999
 30
0.0
 40
1.6000000000000001
  0
CIRCLE
  5
F1
100
AcDbEntity
  8
DRILLS
 62
256
370
-1
 48
1.0
  6
ByLayer
100
AcDbCircle
 10
133.6174443676300996
 20
177.8449999999999989
 30
0.0
 40
1.6000000000000001
  0
CIRCLE
  5
F2
100
AcDbEntity
  8
DRILLS
 62
256
370
-1
 48
1.0
  6
ByLayer
100
AcDbCircle
 10
241.736888735260294
 20
214.2260000041266039
 30
0.0
 40
1.6000000000000001
  0
CIRCLE
  5
F3
100
AcDbEntity
  8
DRILLS
 62
256
370
-1
 48
1.0
  6
ByLayer
100
AcDbCircle
 10
257.6204443676302276
 20
214.328000000000003
 30
0.0
 40
1.6000000000000001
  0
CIRCLE
  5
F4
100
AcDbEntity
  8
DRILLS
 62
256
370
-1
 48
1.0
  6
ByLayer
100
AcDbCircle
 10
201.5834443676301078
 20
213.8859999999999957
 30
0.0
 40
1.6000000000000001
  0
CIRCLE
  5
F5
100
AcDbEntity
  8
DRILLS
 62
256
370
-1
 48
1.0
  6
ByLayer
100
AcDbCircle
 10
167.6734443676301112
 20
213.86099999999999
 30
0.0
 40
1.6000000000000001
  0
CIRCLE
  5
F6
100
AcDbEntity
  8
DRILLS
 62
256
370
-1
 48
1.0
  6
ByLayer
100
AcDbCircle
 10
133.6174443676300996
 20
213.8449999999999989
 30
0.0
 40
1.6000000000000001
  0
CIRCLE
  5
F7
100
AcDbEntity
  8
0
 62
256
370
-1
 48
1.0
  6
ByLayer
100
AcDbCircle
 10
249.0600000000000023
 20
47.4600000000000009
 30
0.0
 40
4.0
  0
CIRCLE
  5
F8
100
AcDbEntity
  8
0
 62
256
370
-1
 48
1.0
  6
ByLayer
100
AcDbCircle
 10
114.8599999999999994
 20
262.0400000000000205
 30
0.0
 40
4.0
  0
CIRCLE
  5
F9
100
AcDbEntity
  8
0
 62
256
370
-1
 48
1.0
  6
ByLayer
100
AcDbCircle
 10
73.9699999999999989
 20
262.0199999999999818
 30
0.0
 40
4.0
  0
CIRCLE
  5
FA
100
AcDbEntity
  8
DRILLS
 62
256
370
-1
 48
1.0
  6
ByLayer
100
AcDbCircle
 10
241.736888735260294
 20
218.7260000041266039
 30
0.0
 40
1.6000000000000001
  0
CIRCLE
  5
FB
100
AcDbEntity
  8
DRILLS
 62
256
370
-1
 48
1.0
  6
ByLayer
100
AcDbCircle
 10
257.6204443676302276
 20
218.828000000000003
 30
0.0
 40
1.6000000000000001
  0
CIRCLE
  5
FC
100
AcDbEntity
  8
DRILLS
 62
256
370
-1
 48
1.0
  6
ByLayer
100
AcDbCircle
 10
201.5834443676301078
 20
218.3859999999999957
 30
0.0
 40
1.6000000000000001
  0
CIRCLE
  5
FD
100
AcDbEntity
  8
DRILLS
 62
256
370
-1
 48
1.0
  6
ByLayer
100
AcDbCircle
 10
167.6734443676301112
 20
218.36099999999999
 30
0.0
 40
1.6000000000000001
  0
CIRCLE
  5
FE
100
AcDbEntity
  8
DRILLS
 62
256
370
-1
 48
1.0
  6
ByLayer
100
AcDbCircle
 10
133.6174443676300996
 20
218.3449999999999989
 30
0.0
 40
1.6000000000000001
  0
LWPOLYLINE
  5
FF
100
AcDbEntity
  8
LAYER_AUX
 62
256
370
-1
 48
1.0
  6
ByLayer
100
AcDbPolyline
 90
10
 70
1
 10
199.0
 20
6.0000000000000284
 10
13.4999999999999396
 20
6.0000000000000853
 42
-0.4142135623731005
 10
12.0
 20
7.5000000000000568
 10
11.9999999999999503
 20
290.5
 42
-0.4142135623730971
 10
13.4999999999999698
 20
292.0
 10
199.0
 20
292.0
 10
384.5000000000001137
 20
291.9999999999998863
 42
-0.414213562373095
 10
386.0
 20
290.5
 10
386.0000000000001137
 20
7.5000000000000568
 42
-0.4142135623730979
 10
384.5000000000001137
 20
6.0000000000000284
  0
ENDSEC
  0
SECTION
  2
OBJECTS
  0
DICTIONARY
  5
C
100
AcDbDictionary
280
0
281
1
  3
ACAD_GROUP
350
D
  3
ACAD_LAYOUT
350
1A
  3
ACAD_MLINESTYLE
350
17
  3
ACAD_PLOTSETTINGS
350
19
  3
ACAD_PLOTSTYLENAME
350
E
  3
AcDbVariableDictionary
350
100
  3
QCAD_OBJECTS
350
101
  0
DICTIONARY
  5
D
100
AcDbDictionary
280
0
281
1
  0
ACDBDICTIONARYWDFLT
  5
E
100
AcDbDictionary
281
1
  3
Normal
350
F
100
AcDbDictionaryWithDefault
340
F
  0
ACDBPLACEHOLDER
  5
F
  0
DICTIONARY
  5
17
100
AcDbDictionary
280
0
281
1
  3
Standard
350
18
  0
MLINESTYLE
  5
18
100
AcDbMlineStyle
  2
STANDARD
 70
0
  3

 62
256
 51
90.0
 52
90.0
 71
2
 49
0.5
 62
256
  6
BYLAYER
 49
-0.5
 62
256
  6
BYLAYER
  0
DICTIONARY
  5
19
100
AcDbDictionary
280
0
281
1
  0
DICTIONARY
  5
1A
100
AcDbDictionary
281
1
  3
Layout1
350
1E
  3
Layout2
350
26
  3
Model
350
22
  0
LAYOUT
  5
1E
100
AcDbPlotSettings
  1

  2
none_device
  4

  6

 40
0.0
 41
0.0
 42
0.0
 43
0.0
 44
0.0
 45
0.0
 46
0.0
 47
0.0
 48
0.0
 49
0.0
140
0.0
141
0.0
142
1.0
143
1.0
 70
688
 72
0
 73
0
 74
5
  7

 75
16
147
1.0
148
0.0
149
0.0
100
AcDbLayout
  1
Layout1
 70
1
 71
1
 10
0.0
 20
0.0
 11
420.0
 21
297.0
 12
0.0
 22
0.0
 32
0.0
 14
100000000000000000000.0
 24
100000000000000000000.0
 34
100000000000000000000.0
 15
-100000000000000000000.0
 25
-100000000000000000000.0
 35
-100000000000000000000.0
146
0.0
 13
0.0
 23
0.0
 33
0.0
 16
1.0
 26
0.0
 36
0.0
 17
0.0
 27
1.0
 37
0.0
 76
0
330
1B
  0
LAYOUT
  5
22
100
AcDbPlotSettings
  1

  2
none_device
  4

  6

 40
0.0
 41
0.0
 42
0.0
 43
0.0
 44
0.0
 45
0.0
 46
0.0
 47
0.0
 48
0.0
 49
0.0
140
0.0
141
0.0
142
1.0
143
1.0
 70
1712
 72
0
 73
0
 74
0
  7

 75
0
147
1.0
148
0.0
149
0.0
100
AcDbLayout
  1
Model
 70
1
 71
0
 10
0.0
 20
0.0
 11
12.0
 21
9.0
 12
0.0
 22
0.0
 32
0.0
 14
0.0
 24
0.0
 34
0.0
 15
0.0
 25
0.0
 35
0.0
146
0.0
 13
0.0
 23
0.0
 33
0.0
 16
1.0
 26
0.0
 36
0.0
 17
0.0
 27
1.0
 37
0.0
 76
0
330
1F
  0
LAYOUT
  5
26
100
AcDbPlotSettings
  1

  2
none_device
  4

  6

 40
0.0
 41
0.0
 42
0.0
 43
0.0
 44
0.0
 45
0.0
 46
0.0
 47
0.0
 48
0.0
 49
0.0
140
0.0
141
0.0
142
1.0
143
1.0
 70
688
 72
0
 73
0
 74
5
  7

 75
16
147
1.0
148
0.0
149
0.0
100
AcDbLayout
  1
Layout2
 70
1
 71
2
 10
0.0
 20
0.0
 11
12.0
 21
9.0
 12
0.0
 22
0.0
 32
0.0
 14
0.0
 24
0.0
 34
0.0
 15
0.0
 25
0.0
 35
0.0
146
0.0
 13
0.0
 23
0.0
 33
0.0
 16
1.0
 26
0.0
 36
0.0
 17
0.0
 27
1.0
 37
0.0
 76
0
330
23
  0
DICTIONARY
  5
100
100
AcDbDictionary
281
1
  3
DIMASSOC
350
103
  3
HIDETEXT
350
102
  0
DICTIONARYVAR
  5
102
100
DictionaryVariables
280
0
  1
2
  0
DICTIONARYVAR
  5
103
100
DictionaryVariables
280
0
  1
1
  0
DICTIONARY
  5
101
100
AcDbDictionary
281
1
  3
ColorSettings/BackgroundColor
350
104
  3
ColorSettings/ColorMode
350
105
  3
Grid/DisplayGrid00
350
106
  3
Grid/DisplayGrid01
350
107
  3
Grid/DisplayGrid02
350
108
  3
Grid/DisplayGrid03
350
109
  3
Grid/GridSpacingX00
350
10A
  3
Grid/GridSpacingX01
350
10B
  3
Grid/GridSpacingX02
350
10C
  3
Grid/GridSpacingX03
350
10D
  3
Grid/GridSpacingY00
350
10E
  3
Grid/GridSpacingY01
350
10F
  3
Grid/GridSpacingY02
350
110
  3
Grid/GridSpacingY03
350
111
  3
Grid/IsometricGrid00
350
112
  3
Grid/IsometricGrid01
350
113
  3
Grid/IsometricGrid02
350
114
  3
Grid/IsometricGrid03
350
115
  3
Grid/IsometricProjection00
350
116
  3
Grid/IsometricProjection01
350
117
  3
Grid/IsometricProjection02
350
118
  3
Grid/IsometricProjection03
350
119
  3
Grid/MetaGridSpacingX00
350
11A
  3
Grid/MetaGridSpacingX01
350
11B
  3
Grid/MetaGridSpacingX02
350
11C
  3
Grid/MetaGridSpacingX03
350
11D
  3
Grid/MetaGridSpacingY00
350
11E
  3
Grid/MetaGridSpacingY01
350
11F
  3
Grid/MetaGridSpacingY02
350
120
  3
Grid/MetaGridSpacingY03
350
121
  3
MultiPageSettings/Columns
350
122
  3
MultiPageSettings/GlueMarginsBottom
350
123
  3
MultiPageSettings/GlueMarginsLeft
350
124
  3
MultiPageSettings/GlueMarginsRight
350
125
  3
MultiPageSettings/GlueMarginsTop
350
126
  3
MultiPageSettings/PrintCropMarks
350
127
  3
MultiPageSettings/Rows
350
128
  3
PageSettings/OffsetX
350
129
  3
PageSettings/OffsetY
350
12A
  3
PageSettings/PageOrientation
350
12B
  3
PageSettings/PaperHeight
350
12C
  3
PageSettings/PaperWidth
350
12D
  3
PageSettings/Scale
350
12E
  3
PageSettings/ShowPaperBorders
350
12F
  3
PageTagSettings/EnablePageTags
350
130
  3
PageTagSettings/TagAlignment
350
131
  3
PageTagSettings/TagFont
350
132
  3
PageTagSettings/TagPosition
350
133
  3
UnitSettings/PaperUnit
350
134
  3
ViewportCenter
350
135
  3
ViewportHeight
350
136
  3
ViewportWidth
350
137
  0
XRECORD
  5
104
330
101
100
AcDbXrecord
280
1
1000
White
  0
XRECORD
  5
105
330
101
100
AcDbXrecord
280
1
1000
FullColor
  0
XRECORD
  5
106
330
101
100
AcDbXrecord
280
1
290
1
  0
XRECORD
  5
107
330
101
100
AcDbXrecord
280
1
290
1
  0
XRECORD
  5
108
330
101
100
AcDbXrecord
280
1
290
1
  0
XRECORD
  5
109
330
101
100
AcDbXrecord
280
1
290
1
  0
XRECORD
  5
10A
330
101
100
AcDbXrecord
280
1
1000
auto
  0
XRECORD
  5
10B
330
101
100
AcDbXrecord
280
1
1000
auto
  0
XRECORD
  5
10C
330
101
100
AcDbXrecord
280
1
1000
auto
  0
XRECORD
  5
10D
330
101
100
AcDbXrecord
280
1
1000
auto
  0
XRECORD
  5
10E
330
101
100
AcDbXrecord
280
1
1000
auto
  0
XRECORD
  5
10F
330
101
100
AcDbXrecord
280
1
1000
auto
  0
XRECORD
  5
110
330
101
100
AcDbXrecord
280
1
1000
auto
  0
XRECORD
  5
111
330
101
100
AcDbXrecord
280
1
1000
auto
  0
XRECORD
  5
112
330
101
100
AcDbXrecord
280
1
290
0
  0
XRECORD
  5
113
330
101
100
AcDbXrecord
280
1
290
0
  0
XRECORD
  5
114
330
101
100
AcDbXrecord
280
1
290
0
  0
XRECORD
  5
115
330
101
100
AcDbXrecord
280
1
290
0
  0
XRECORD
  5
116
330
101
100
AcDbXrecord
280
1
 90
65537
  0
XRECORD
  5
117
330
101
100
AcDbXrecord
280
1
 90
65537
  0
XRECORD
  5
118
330
101
100
AcDbXrecord
280
1
 90
65537
  0
XRECORD
  5
119
330
101
100
AcDbXrecord
280
1
 90
65537
  0
XRECORD
  5
11A
330
101
100
AcDbXrecord
280
1
1000
auto
  0
XRECORD
  5
11B
330
101
100
AcDbXrecord
280
1
1000
auto
  0
XRECORD
  5
11C
330
101
100
AcDbXrecord
280
1
1000
auto
  0
XRECORD
  5
11D
330
101
100
AcDbXrecord
280
1
1000
auto
  0
XRECORD
  5
11E
330
101
100
AcDbXrecord
280
1
1000
auto
  0
XRECORD
  5
11F
330
101
100
AcDbXrecord
280
1
1000
auto
  0
XRECORD
  5
120
330
101
100
AcDbXrecord
280
1
1000
auto
  0
XRECORD
  5
121
330
101
100
AcDbXrecord
280
1
1000
auto
  0
XRECORD
  5
122
330
101
100
AcDbXrecord
280
1
 90
1
  0
XRECORD
  5
123
330
101
100
AcDbXrecord
280
1
 40
10.0
  0
XRECORD
  5
124
330
101
100
AcDbXrecord
280
1
 40
10.0
  0
XRECORD
  5
125
330
101
100
AcDbXrecord
280
1
 40
10.0
  0
XRECORD
  5
126
330
101
100
AcDbXrecord
280
1
 40
10.0
  0
XRECORD
  5
127
330
101
100
AcDbXrecord
280
1
290
0
  0
XRECORD
  5
128
330
101
100
AcDbXrecord
280
1
 90
1
  0
XRECORD
  5
129
330
101
100
AcDbXrecord
280
1
 40
0.0
  0
XRECORD
  5
12A
330
101
100
AcDbXrecord
280
1
 40
0.0
  0
XRECORD
  5
12B
330
101
100
AcDbXrecord
280
1
1000
Portrait
  0
XRECORD
  5
12C
330
101
100
AcDbXrecord
280
1
 40
420.0
  0
XRECORD
  5
12D
330
101
100
AcDbXrecord
280
1
 40
297.0
  0
XRECORD
  5
12E
330
101
100
AcDbXrecord
280
1
1000
1:1
  0
XRECORD
  5
12F
330
101
100
AcDbXrecord
280
1
290
1
  0
XRECORD
  5
130
330
101
100
AcDbXrecord
280
1
290
0
  0
XRECORD
  5
131
330
101
100
AcDbXrecord
280
1
1000
Inside
  0
XRECORD
  5
132
330
101
100
AcDbXrecord
280
1
1000
Arial,10,-1,5,50,0,0,0,0,0
  0
XRECORD
  5
133
330
101
100
AcDbXrecord
280
1
1000
TopLeft
  0
XRECORD
  5
134
330
101
100
AcDbXrecord
280
1
 90
4
  0
XRECORD
  5
136
330
101
100
AcDbXrecord
280
1
 40
525.3629813664595076
  0
XRECORD
  5
137
330
101
100
AcDbXrecord
280
1
 40
918.0026832298133286
  0
ENDSEC
  0
EOF
