999
dxflib 3.17.0.0
  0
SECTION
  2
HEADER
  9
$ACADVER
  1
AC1015
  9
$HANDSEED
  5
FFFF
  9
$DIMADEC
 70
0
  9
$DIMASZ
 40
0.18
  9
$DIMAUNIT
 70
0
  9
$DIMAZIN
 70
0
  9
$DIMDEC
 70
4
  9
$DIMDLI
 40
0.36
  9
$DIMDSEP
 70
46
  9
$DIMEXE
 40
0.18
  9
$DIMEXO
 40
0.0625
  9
$DIMGAP
 40
0.09
  9
$DIMLUNIT
 70
2
  9
$DIMSCALE
 40
1.0
  9
$DIMTSZ
 40
0.0
  9
$DIMTXT
 40
0.18
  9
$DIMZIN
 70
0
  9
$DWGCODEPAGE
  3
ANSI_1252
  9
$INSUNITS
 70
4
  9
$LTSCALE
 40
1.0
  9
$MAXACTVP
 70
64
  9
$MEASUREMENT
 70
1
  9
$MIRRTEXT
 70
0
  9
$PDMODE
 70
0
  9
$PDSIZE
 40
0.0
  0
ENDSEC
  0
SECTION
  2
TABLES
  0
TABLE
  2
VPORT
  5
8
100
AcDbSymbolTable
 70
1
  0
VPORT
  5
30
100
AcDbSymbolTableRecord
100
AcDbViewportTableRecord
  2
*Active
 70
0
 10
0.0
 20
0.0
 11
1.0
 21
1.0
 12
286.3055555555554861
 22
148.5
 13
0.0
 23
0.0
 14
10.0
 24
10.0
 15
10.0
 25
10.0
 16
0.0
 26
0.0
 36
1.0
 17
0.0
 27
0.0
 37
0.0
 40
297.0
 41
1.92798353909465
 42
50.0
 43
0.0
 44
0.0
 50
0.0
 51
0.0
 71
0
 72
100
 73
1
 74
3
 75
1
 76
1
 77
0
 78
0
281
0
 65
1
110
0.0
120
0.0
130
0.0
111
1.0
121
0.0
131
0.0
112
0.0
122
1.0
132
0.0
 79
0
146
0.0
  0
ENDTAB
  0
TABLE
  2
LTYPE
  5
5
100
AcDbSymbolTable
 70
41
  0
LTYPE
  5
16
100
AcDbSymbolTableRecord
100
AcDbLinetypeTableRecord
  2
Continuous
 70
0
  3
Solid line
 72
65
 73
0
 40
0.0
  0
LTYPE
  5
31
100
AcDbSymbolTableRecord
100
AcDbLinetypeTableRecord
  2
DOT
 70
0
  3
Dot . . . . . . . . . . . . . . . . . . . . . . . .
 72
65
 73
2
 40
6.3499999999999996
 49
0.0
 74
0
 49
-6.3499999999999996
 74
0
  0
LTYPE
  5
32
100
AcDbSymbolTableRecord
100
AcDbLinetypeTableRecord
  2
HIDDENX2
 70
0
  3
Hidden (2x) ____ ____ ____ ____ ____ ____ ____ 
 72
65
 73
2
 40
19.0499999999999972
 49
12.6999999999999993
 74
0
 49
-6.3499999999999996
 74
0
  0
LTYPE
  5
33
100
AcDbSymbolTableRecord
100
AcDbLinetypeTableRecord
  2
DOT2
 70
0
  3
Dot (.5x) ........................................
 72
65
 73
2
 40
3.1749999999999998
 49
0.0
 74
0
 49
-3.1749999999999998
 74
0
  0
LTYPE
  5
34
100
AcDbSymbolTableRecord
100
AcDbLinetypeTableRecord
  2
ACAD_ISO13W100
 70
0
  3
ISO double-dash double-dot __ __ . . __ __ . . _
 72
65
 73
8
 40
36.0
 49
12.0
 74
0
 49
-3.0
 74
0
 49
12.0
 74
0
 49
-3.0
 74
0
 49
0.0
 74
0
 49
-3.0
 74
0
 49
0.0
 74
0
 49
-3.0
 74
0
  0
LTYPE
  5
35
100
AcDbSymbolTableRecord
100
AcDbLinetypeTableRecord
  2
ACAD_ISO02W100
 70
0
  3
ISO dash __ __ __ __ __ __ __ __ __ __ __ __ __
 72
65
 73
2
 40
15.0
 49
12.0
 74
0
 49
-3.0
 74
0
  0
LTYPE
  5
36
100
AcDbSymbolTableRecord
100
AcDbLinetypeTableRecord
  2
ACAD_ISO03W100
 70
0
  3
ISO dash space __    __    __    __    __    __
 72
65
 73
2
 40
30.0
 49
12.0
 74
0
 49
-18.0
 74
0
  0
LTYPE
  5
37
100
AcDbSymbolTableRecord
100
AcDbLinetypeTableRecord
  2
CENTER
 70
0
  3
Center ____ _ ____ _ ____ _ ____ _ ____ _ ____
 72
65
 73
4
 40
50.8000000000000043
 49
31.75
 74
0
 49
-6.3499999999999996
 74
0
 49
6.3499999999999996
 74
0
 49
-6.3499999999999996
 74
0
  0
LTYPE
  5
38
100
AcDbSymbolTableRecord
100
AcDbLinetypeTableRecord
  2
ACAD_ISO06W100
 70
0
  3
ISO long-dash triple-dot ____ ... ____ ... ____
 72
65
 73
8
 40
36.0
 49
24.0
 74
0
 49
-3.0
 74
0
 49
0.0
 74
0
 49
-3.0
 74
0
 49
0.0
 74
0
 49
-3.0
 74
0
 49
0.0
 74
0
 49
-3.0
 74
0
  0
LTYPE
  5
39
100
AcDbSymbolTableRecord
100
AcDbLinetypeTableRecord
  2
DIVIDE
 70
0
  3
Divide ____ . . ____ . . ____ . . ____ . . ____
 72
65
 73
6
 40
31.75
 49
12.6999999999999993
 74
0
 49
-6.3499999999999996
 74
0
 49
0.0
 74
0
 49
-6.3499999999999996
 74
0
 49
0.0
 74
0
 49
-6.3499999999999996
 74
0
  0
LTYPE
  5
3A
100
AcDbSymbolTableRecord
100
AcDbLinetypeTableRecord
  2
DASHDOT2
 70
0
  3
Dash dot (.5x) _._._._._._._._._._._._._._._.
 72
65
 73
4
 40
12.6999999999999993
 49
6.3499999999999996
 74
0
 49
-3.1749999999999998
 74
0
 49
0.0
 74
0
 49
-3.1749999999999998
 74
0
  0
LTYPE
  5
3B
100
AcDbSymbolTableRecord
100
AcDbLinetypeTableRecord
  2
ACAD_ISO10W100
 70
0
  3
ISO dash dot __ . __ . __ . __ . __ . __ . __ . 
 72
65
 73
4
 40
18.0
 49
12.0
 74
0
 49
-3.0
 74
0
 49
0.0
 74
0
 49
-3.0
 74
0
  0
LTYPE
  5
3C
100
AcDbSymbolTableRecord
100
AcDbLinetypeTableRecord
  2
PHANTOM
 70
0
  3
Phantom ______  __  __  ______  __  __  ______ 
 72
65
 73
6
 40
63.5000000000000071
 49
31.75
 74
0
 49
-6.3499999999999996
 74
0
 49
6.3499999999999996
 74
0
 49
-6.3499999999999996
 74
0
 49
6.3499999999999996
 74
0
 49
-6.3499999999999996
 74
0
  0
LTYPE
  5
3D
100
AcDbSymbolTableRecord
100
AcDbLinetypeTableRecord
  2
DASHDOTX2
 70
0
  3
Dash dot (2x) ____  .  ____  .  ____  .  ___
 72
65
 73
4
 40
50.7999999999999972
 49
25.3999999999999986
 74
0
 49
-12.6999999999999993
 74
0
 49
0.0
 74
0
 49
-12.6999999999999993
 74
0
  0
LTYPE
  5
3E
100
AcDbSymbolTableRecord
100
AcDbLinetypeTableRecord
  2
PHANTOM2
 70
0
  3
Phantom (.5x) ___ _ _ ___ _ _ ___ _ _ ___ _ _
 72
65
 73
6
 40
31.7500000000000036
 49
15.875
 74
0
 49
-3.1749999999999998
 74
0
 49
3.1749999999999998
 74
0
 49
-3.1749999999999998
 74
0
 49
3.1749999999999998
 74
0
 49
-3.1749999999999998
 74
0
  0
LTYPE
  5
3F
100
AcDbSymbolTableRecord
100
AcDbLinetypeTableRecord
  2
CENTER2
 70
0
  3
Center (.5x) ___ _ ___ _ ___ _ ___ _ ___ _ ___
 72
65
 73
4
 40
28.5750000000000028
 49
19.0500000000000007
 74
0
 49
-3.1749999999999998
 74
0
 49
3.1749999999999998
 74
0
 49
-3.1749999999999998
 74
0
  0
LTYPE
  5
40
100
AcDbSymbolTableRecord
100
AcDbLinetypeTableRecord
  2
ACAD_ISO09W100
 70
0
  3
ISO long-dash double-short-dash ____ __ __ ____
 72
65
 73
6
 40
45.0
 49
24.0
 74
0
 49
-3.0
 74
0
 49
6.0
 74
0
 49
-3.0
 74
0
 49
6.0
 74
0
 49
-3.0
 74
0
  0
LTYPE
  5
41
100
AcDbSymbolTableRecord
100
AcDbLinetypeTableRecord
  2
BORDER
 70
0
  3
Border __ __ . __ __ . __ __ . __ __ . __ __ .
 72
65
 73
6
 40
44.4499999999999957
 49
12.6999999999999993
 74
0
 49
-6.3499999999999996
 74
0
 49
12.6999999999999993
 74
0
 49
-6.3499999999999996
 74
0
 49
0.0
 74
0
 49
-6.3499999999999996
 74
0
  0
LTYPE
  5
42
100
AcDbSymbolTableRecord
100
AcDbLinetypeTableRecord
  2
ACAD_ISO08W100
 70
0
  3
ISO long-dash short-dash ____ __ ____ __ ____ _
 72
65
 73
4
 40
36.0
 49
24.0
 74
0
 49
-3.0
 74
0
 49
6.0
 74
0
 49
-3.0
 74
0
  0
LTYPE
  5
43
100
AcDbSymbolTableRecord
100
AcDbLinetypeTableRecord
  2
DIVIDE2
 70
0
  3
Divide (.5x) __..__..__..__..__..__..__..__.._
 72
65
 73
6
 40
15.875
 49
6.3499999999999996
 74
0
 49
-3.1749999999999998
 74
0
 49
0.0
 74
0
 49
-3.1749999999999998
 74
0
 49
0.0
 74
0
 49
-3.1749999999999998
 74
0
  0
LTYPE
  5
44
100
AcDbSymbolTableRecord
100
AcDbLinetypeTableRecord
  2
ACAD_ISO14W100
 70
0
  3
ISO dash triple-dot __ . . . __ . . . __ . . . _
 72
65
 73
8
 40
24.0
 49
12.0
 74
0
 49
-3.0
 74
0
 49
0.0
 74
0
 49
-3.0
 74
0
 49
0.0
 74
0
 49
-3.0
 74
0
 49
0.0
 74
0
 49
-3.0
 74
0
  0
LTYPE
  5
45
100
AcDbSymbolTableRecord
100
AcDbLinetypeTableRecord
  2
ACAD_ISO07W100
 70
0
  3
ISO dot . . . . . . . . . . . . . . . . . . . . 
 72
65
 73
2
 40
3.0
 49
0.0
 74
0
 49
-3.0
 74
0
  0
LTYPE
  5
46
100
AcDbSymbolTableRecord
100
AcDbLinetypeTableRecord
  2
ACAD_ISO04W100
 70
0
  3
ISO long-dash dot ____ . ____ . ____ . ____ . _
 72
65
 73
4
 40
30.0
 49
24.0
 74
0
 49
-3.0
 74
0
 49
0.0
 74
0
 49
-3.0
 74
0
  0
LTYPE
  5
47
100
AcDbSymbolTableRecord
100
AcDbLinetypeTableRecord
  2
DASHDOT
 70
0
  3
Dash dot __ . __ . __ . __ . __ . __ . __ . __
 72
65
 73
4
 40
25.3999999999999986
 49
12.6999999999999993
 74
0
 49
-6.3499999999999996
 74
0
 49
0.0
 74
0
 49
-6.3499999999999996
 74
0
  0
LTYPE
  5
48
100
AcDbSymbolTableRecord
100
AcDbLinetypeTableRecord
  2
DOTX2
 70
0
  3
Dot (2x) .  .  .  .  .  .  .  .  .  .  .  .  .  .
 72
65
 73
2
 40
12.6999999999999993
 49
0.0
 74
0
 49
-12.6999999999999993
 74
0
  0
LTYPE
  5
49
100
AcDbSymbolTableRecord
100
AcDbLinetypeTableRecord
  2
ACAD_ISO05W100
 70
0
  3
ISO long-dash double-dot ____ .. ____ .. ____ . 
 72
65
 73
6
 40
33.0
 49
24.0
 74
0
 49
-3.0
 74
0
 49
0.0
 74
0
 49
-3.0
 74
0
 49
0.0
 74
0
 49
-3.0
 74
0
  0
LTYPE
  5
4A
100
AcDbSymbolTableRecord
100
AcDbLinetypeTableRecord
  2
HIDDEN2
 70
0
  3
Hidden (.5x) _ _ _ _ _ _ _ _ _ _ _ _ _ _ _ _ _ 
 72
65
 73
2
 40
4.7624999999999993
 49
3.1749999999999998
 74
0
 49
-1.5874999999999999
 74
0
  0
LTYPE
  5
4B
100
AcDbSymbolTableRecord
100
AcDbLinetypeTableRecord
  2
BORDER2
 70
0
  3
Border (.5x) __.__.__.__.__.__.__.__.__.__.__.
 72
65
 73
6
 40
22.2249999999999979
 49
6.3499999999999996
 74
0
 49
-3.1749999999999998
 74
0
 49
6.3499999999999996
 74
0
 49
-3.1749999999999998
 74
0
 49
0.0
 74
0
 49
-3.1749999999999998
 74
0
  0
LTYPE
  5
4C
100
AcDbSymbolTableRecord
100
AcDbLinetypeTableRecord
  2
DASHED
 70
0
  3
Dashed __ __ __ __ __ __ __ __ __ __ __ __ __ _
 72
65
 73
2
 40
19.0499999999999972
 49
12.6999999999999993
 74
0
 49
-6.3499999999999996
 74
0
  0
LTYPE
  5
4D
100
AcDbSymbolTableRecord
100
AcDbLinetypeTableRecord
  2
HIDDEN
 70
0
  3
Hidden __ __ __ __ __ __ __ __ __ __ __ __ __ __
 72
65
 73
2
 40
9.5249999999999986
 49
6.3499999999999996
 74
0
 49
-3.1749999999999998
 74
0
  0
LTYPE
  5
4E
100
AcDbSymbolTableRecord
100
AcDbLinetypeTableRecord
  2
CENTERX2
 70
0
  3
Center (2x) ________  __  ________  __  _____
 72
65
 73
4
 40
101.6000000000000085
 49
63.5
 74
0
 49
-12.6999999999999993
 74
0
 49
12.6999999999999993
 74
0
 49
-12.6999999999999993
 74
0
  0
LTYPE
  5
4F
100
AcDbSymbolTableRecord
100
AcDbLinetypeTableRecord
  2
BORDERX2
 70
0
  3
Border (2x) ____  ____  .  ____  ____  .  ___
 72
65
 73
6
 40
88.8999999999999915
 49
25.3999999999999986
 74
0
 49
-12.6999999999999993
 74
0
 49
25.3999999999999986
 74
0
 49
-12.6999999999999993
 74
0
 49
0.0
 74
0
 49
-12.6999999999999993
 74
0
  0
LTYPE
  5
50
100
AcDbSymbolTableRecord
100
AcDbLinetypeTableRecord
  2
DIVIDEX2
 70
0
  3
Divide (2x) ________  .  .  ________  .  .  _
 72
65
 73
6
 40
63.5
 49
25.3999999999999986
 74
0
 49
-12.6999999999999993
 74
0
 49
0.0
 74
0
 49
-12.6999999999999993
 74
0
 49
0.0
 74
0
 49
-12.6999999999999993
 74
0
  0
LTYPE
  5
51
100
AcDbSymbolTableRecord
100
AcDbLinetypeTableRecord
  2
ACAD_ISO11W100
 70
0
  3
ISO double-dash dot __ __ . __ __ . __ __ . __ _
 72
65
 73
6
 40
33.0
 49
12.0
 74
0
 49
-3.0
 74
0
 49
12.0
 74
0
 49
-3.0
 74
0
 49
0.0
 74
0
 49
-3.0
 74
0
  0
LTYPE
  5
52
100
AcDbSymbolTableRecord
100
AcDbLinetypeTableRecord
  2
DASHEDX2
 70
0
  3
Dashed (2x) ____  ____  ____  ____  ____  ___
 72
65
 73
2
 40
38.0999999999999943
 49
25.3999999999999986
 74
0
 49
-12.6999999999999993
 74
0
  0
LTYPE
  5
53
100
AcDbSymbolTableRecord
100
AcDbLinetypeTableRecord
  2
ACAD_ISO12W100
 70
0
  3
ISO dash double-dot __ . . __ . . __ . . __ . . 
 72
65
 73
6
 40
21.0
 49
12.0
 74
0
 49
-3.0
 74
0
 49
0.0
 74
0
 49
-3.0
 74
0
 49
0.0
 74
0
 49
-3.0
 74
0
  0
LTYPE
  5
14
100
AcDbSymbolTableRecord
100
AcDbLinetypeTableRecord
  2
BYBLOCK
 70
0
  3

 72
65
 73
0
 40
0.0
  0
LTYPE
  5
54
100
AcDbSymbolTableRecord
100
AcDbLinetypeTableRecord
  2
PHANTOMX2
 70
0
  3
Phantom (2x) ____________    ____    ____   _
 72
65
 73
6
 40
127.0000000000000142
 49
63.5
 74
0
 49
-12.6999999999999993
 74
0
 49
12.6999999999999993
 74
0
 49
-12.6999999999999993
 74
0
 49
12.6999999999999993
 74
0
 49
-12.6999999999999993
 74
0
  0
LTYPE
  5
15
100
AcDbSymbolTableRecord
100
AcDbLinetypeTableRecord
  2
BYLAYER
 70
0
  3

 72
65
 73
0
 40
0.0
  0
LTYPE
  5
55
100
AcDbSymbolTableRecord
100
AcDbLinetypeTableRecord
  2
ACAD_ISO15W100
 70
0
  3
ISO double-dash triple-dot __ __ . . . __ __ . .
 72
65
 73
10
 40
39.0
 49
12.0
 74
0
 49
-3.0
 74
0
 49
12.0
 74
0
 49
-3.0
 74
0
 49
0.0
 74
0
 49
-3.0
 74
0
 49
0.0
 74
0
 49
-3.0
 74
0
 49
0.0
 74
0
 49
-3.0
 74
0
  0
LTYPE
  5
56
100
AcDbSymbolTableRecord
100
AcDbLinetypeTableRecord
  2
DASHED2
 70
0
  3
Dashed (.5x) _ _ _ _ _ _ _ _ _ _ _ _ _ _ _ _ _ 
 72
65
 73
2
 40
9.5249999999999986
 49
6.3499999999999996
 74
0
 49
-3.1749999999999998
 74
0
  0
ENDTAB
  0
TABLE
  2
LAYER
  5
2
100
AcDbSymbolTable
 70
1
  0
LAYER
  5
10
100
AcDbSymbolTableRecord
100
AcDbLayerTableRecord
  2
0
 70
0
 62
7
  6
Continuous
370
5
390
F
  0
ENDTAB
  0
TABLE
  2
STYLE
  5
3
100
AcDbSymbolTable
 70
1
  0
STYLE
  5
57
100
AcDbSymbolTableRecord
100
AcDbTextStyleTableRecord
  2
Standard
 70
0
 40
0.0
 41
1.0
 50
0.0
 71
0
 42
2.5
  3

  4

1001
ACAD
1000
txt
1071
0
  0
ENDTAB
  0
TABLE
  2
VIEW
  5
6
100
AcDbSymbolTable
 70
0
  0
ENDTAB
  0
TABLE
  2
UCS
  5
7
100
AcDbSymbolTable
 70
0
  0
ENDTAB
  0
TABLE
  2
APPID
  5
9
100
AcDbSymbolTable
 70
1
  0
APPID
  5
12
100
AcDbSymbolTableRecord
100
AcDbRegAppTableRecord
  2
ACAD
 70
0
  0
APPID
  5
58
100
AcDbSymbolTableRecord
100
AcDbRegAppTableRecord
  2
QCAD
 70
0
  0
ENDTAB
  0
TABLE
  2
DIMSTYLE
  5
A
100
AcDbSymbolTable
 70
1
100
AcDbDimStyleTable
 71
0
  0
DIMSTYLE
105
27
100
AcDbSymbolTableRecord
100
AcDbDimStyleTableRecord
  2
Standard
 41
0.18
 42
0.0625
 43
3.75
 44
0.18
 70
0
 73
0
 74
0
 77
1
 78
8
140
0.18
141
2.5
143
0.03937007874016
147
0.09
171
3
172
1
271
2
272
2
274
3
278
44
283
0
284
8
340
57
  0
ENDTAB
  0
TABLE
  2
BLOCK_RECORD
  5
1
100
AcDbSymbolTable
 70
1
  0
BLOCK_RECORD
  5
1F
100
AcDbSymbolTableRecord
100
AcDbBlockTableRecord
  2
*Model_Space
340
22
  0
BLOCK_RECORD
  5
1B
100
AcDbSymbolTableRecord
100
AcDbBlockTableRecord
  2
*Paper_Space
340
1E
  0
BLOCK_RECORD
  5
23
100
AcDbSymbolTableRecord
100
AcDbBlockTableRecord
  2
*Paper_Space0
340
26
  0
ENDTAB
  0
ENDSEC
  0
SECTION
  2
BLOCKS
  0
BLOCK
  5
20
100
AcDbEntity
  8
0
100
AcDbBlockBegin
  2
*Model_Space
 70
0
 10
0.0
 20
0.0
 30
0.0
  3
*Model_Space
  1

  0
ENDBLK
  5
21
100
AcDbEntity
  8
0
100
AcDbBlockEnd
  0
BLOCK
  5
1C
100
AcDbEntity
 67
1
  8
0
100
AcDbBlockBegin
  2
*Paper_Space
 70
0
 10
0.0
 20
0.0
 30
0.0
  3
*Paper_Space
  1

  0
ENDBLK
  5
1D
100
AcDbEntity
 67
1
  8
0
100
AcDbBlockEnd
  0
BLOCK
  5
24
100
AcDbEntity
  8
0
100
AcDbBlockBegin
  2
*Paper_Space0
 70
0
 10
0.0
 20
0.0
 30
0.0
  3
*Paper_Space0
  1

  0
ENDBLK
  5
25
100
AcDbEntity
  8
0
100
AcDbBlockEnd
  0
ENDSEC
  0
SECTION
  2
ENTITIES
  0
LINE
  5
59
100
AcDbEntity
  8
0
 62
256
370
-1
 48
1.0
  6
BYLAYER
100
AcDbLine
 10
316.0
 20
-241.0
 30
0.0
 11
316.0
 21
-297.0
 31
0.0
  0
ARC
  5
5A
100
AcDbEntity
  8
0
 62
256
370
-1
 48
1.0
  6
BYLAYER
100
AcDbCircle
 10
317.0
 20
-241.0
 30
0.0
 40
1.0000000000000142
100
AcDbArc
 50
90.0
 51
180.0
  0
LINE
  5
5B
100
AcDbEntity
  8
0
 62
256
370
-1
 48
1.0
  6
BYLAYER
100
AcDbLine
 10
317.0
 20
-240.0
 30
0.0
 11
317.0
 21
-240.0
 31
0.0
  0
LWPOLYLINE
  5
5C
100
AcDbEntity
  8
0
 62
256
370
-1
 48
1.0
  6
BYLAYER
100
AcDbPolyline
 90
8
 70
1
 10
167.8799999999999955
 20
-73.125
 42
-0.414213562373095
 10
165.8799999999999955
 20
-71.125
 10
165.8799999999999955
 20
-65.0349999999999824
 42
-0.414213562373095
 10
167.8799999999999955
 20
-63.0349999999999966
 10
179.8799999999999955
 20
-63.0349999999999966
 42
-0.414213562373095
 10
181.8799999999999955
 20
-65.0349999999999824
 10
181.8799999999999955
 20
-71.125
 42
-0.414213562373095
 10
179.8799999999999955
 20
-73.125
  0
LWPOLYLINE
  5
5D
100
AcDbEntity
  8
0
 62
256
370
-1
 48
1.0
  6
BYLAYER
100
AcDbPolyline
 90
8
 70
1
 10
418.0039876677838606
 20
-73.0558335637406486
 42
-0.414213562373095
 10
416.0039876677838606
 20
-71.0558335637406486
 10
416.0039876677838606
 20
-64.965833563740631
 42
-0.414213562373095
 10
418.0039876677838606
 20
-62.9658335637406452
 10
430.0039876677838606
 20
-62.9658335637406452
 42
-0.414213562373095
 10
432.0039876677838606
 20
-64.965833563740631
 10
432.0039876677838606
 20
-71.0558335637406486
 42
-0.414213562373095
 10
430.0039876677838606
 20
-73.0558335637406486
  0
LWPOLYLINE
  5
5E
100
AcDbEntity
  8
0
 62
256
370
-1
 48
1.0
  6
BYLAYER
100
AcDbPolyline
 90
8
 70
1
 10
125.8800000000000097
 20
-73.125
 42
-0.414213562373095
 10
123.8800000000000239
 20
-71.125
 10
123.8800000000000239
 20
-65.0349999999999824
 42
-0.414213562373095
 10
125.8800000000000097
 20
-63.0349999999999966
 10
137.8799999999999955
 20
-63.0349999999999966
 42
-0.414213562373095
 10
139.8799999999999955
 20
-65.0349999999999824
 10
139.8799999999999955
 20
-71.1249999999999858
 42
-0.414213562373095
 10
137.8799999999999955
 20
-73.125
  0
LWPOLYLINE
  5
5F
100
AcDbEntity
  8
0
 62
256
370
-1
 48
1.0
  6
BYLAYER
100
AcDbPolyline
 90
8
 70
1
 10
376.0039876677838606
 20
-73.0558335637406486
 42
-0.414213562373095
 10
374.0039876677839175
 20
-71.0558335637406486
 10
374.0039876677839175
 20
-64.965833563740631
 42
-0.414213562373095
 10
376.0039876677838606
 20
-62.9658335637406452
 10
388.0039876677838606
 20
-62.9658335637406452
 42
-0.414213562373095
 10
390.0039876677838606
 20
-64.965833563740631
 10
390.0039876677838606
 20
-71.0558335637406344
 42
-0.414213562373095
 10
388.0039876677838606
 20
-73.0558335637406486
  0
ARC
  5
60
100
AcDbEntity
  8
0
 62
256
370
-1
 48
1.0
  6
BYLAYER
100
AcDbCircle
 10
317.0
 20
-297.0
 30
0.0
 40
1.0000000000000142
100
AcDbArc
 50
180.0
 51
270.0
  0
ARC
  5
61
100
AcDbEntity
  8
0
 62
256
370
-1
 48
1.0
  6
BYLAYER
100
AcDbCircle
 10
249.0000000000000284
 20
-297.0
 30
0.0
 40
1.0000000000000142
100
AcDbArc
 50
-90.0
 51
0.0
  0
LWPOLYLINE
  5
62
100
AcDbEntity
  8
0
 62
256
370
-1
 48
1.0
  6
BYLAYER
100
AcDbPolyline
 90
8
 70
1
 10
222.8799999999999955
 20
-71.125
 42
-0.414213562373095
 10
220.8799999999999955
 20
-73.125
 10
208.8800000000000239
 20
-73.125
 42
-0.414213562373095
 10
206.8800000000000239
 20
-71.125
 10
206.8800000000000239
 20
-65.0349999999999824
 42
-0.414213562373095
 10
208.8800000000000239
 20
-63.0349999999999966
 10
220.8799999999999955
 20
-63.0349999999999966
 42
-0.414213562373095
 10
222.8799999999999955
 20
-65.0349999999999824
  0
LWPOLYLINE
  5
63
100
AcDbEntity
  8
0
 62
256
370
-1
 48
1.0
  6
BYLAYER
100
AcDbPolyline
 90
8
 70
1
 10
473.0039876677838606
 20
-71.0558335637406486
 42
-0.414213562373095
 10
471.0039876677838606
 20
-73.0558335637406486
 10
459.0039876677839175
 20
-73.0558335637406486
 42
-0.414213562373095
 10
457.0039876677839175
 20
-71.0558335637406486
 10
457.0039876677839175
 20
-64.965833563740631
 42
-0.414213562373095
 10
459.0039876677839175
 20
-62.9658335637406452
 10
471.0039876677838606
 20
-62.9658335637406452
 42
-0.414213562373095
 10
473.0039876677838606
 20
-64.965833563740631
  0
ARC
  5
64
100
AcDbEntity
  8
0
 62
256
370
-1
 48
1.0
  6
BYLAYER
100
AcDbCircle
 10
458.0
 20
-300.5
 30
0.0
 40
1.0000000000000284
100
AcDbArc
 50
180.0
 51
0.0
  0
LINE
  5
65
100
AcDbEntity
  8
0
 62
256
370
-1
 48
1.0
  6
BYLAYER
100
AcDbLine
 10
457.0
 20
-300.5
 30
0.0
 11
457.0
 21
-232.5
 31
0.0
  0
ARC
  5
66
100
AcDbEntity
  8
0
 62
256
370
-1
 48
1.0
  6
BYLAYER
100
AcDbCircle
 10
458.0
 20
-232.5000000000000284
 30
0.0
 40
1.0000000000000142
100
AcDbArc
 50
0.0
 51
180.0
  0
ARC
  5
67
100
AcDbEntity
  8
0
 62
256
370
-1
 48
1.0
  6
BYLAYER
100
AcDbCircle
 10
458.0000000000000568
 20
-301.5
 30
0.0
 40
0.0
100
AcDbArc
 50
0.0
 51
0.0
  0
ARC
  5
68
100
AcDbEntity
  8
0
 62
256
370
-1
 48
1.0
  6
BYLAYER
100
AcDbCircle
 10
283.0
 20
-241.0
 30
0.0
 40
1.0
100
AcDbArc
 50
0.0
 51
180.0
  0
LINE
  5
69
100
AcDbEntity
  8
0
 62
256
370
-1
 48
1.0
  6
BYLAYER
100
AcDbLine
 10
284.0
 20
-241.0
 30
0.0
 11
284.0
 21
-297.0
 31
0.0
  0
ARC
  5
6A
100
AcDbEntity
  8
0
 62
256
370
-1
 48
1.0
  6
BYLAYER
100
AcDbCircle
 10
283.0
 20
-297.0
 30
0.0
 40
1.0
100
AcDbArc
 50
180.0
 51
0.0
  0
ARC
  5
6B
100
AcDbEntity
  8
0
 62
256
370
-1
 48
1.0
  6
BYLAYER
100
AcDbCircle
 10
283.0
 20
-240.0
 30
0.0
 40
0.0
100
AcDbArc
 50
0.0
 51
0.0
  0
LINE
  5
6C
100
AcDbEntity
  8
0
 62
256
370
-1
 48
1.0
  6
BYLAYER
100
AcDbLine
 10
249.0000000000000284
 20
-298.0000000000000568
 30
0.0
 11
249.0000000000000284
 21
-298.0000000000000568
 31
0.0
  0
ARC
  5
6D
100
AcDbEntity
  8
0
 62
256
370
-1
 48
1.0
  6
BYLAYER
100
AcDbCircle
 10
208.0
 20
-232.5
 30
0.0
 40
1.0000000000000142
100
AcDbArc
 50
0.0
 51
180.0
  0
LINE
  5
6E
100
AcDbEntity
  8
0
 62
256
370
-1
 48
1.0
  6
BYLAYER
100
AcDbLine
 10
209.0000000000000284
 20
-232.5
 30
0.0
 11
209.0000000000000284
 21
-300.5
 31
0.0
  0
ARC
  5
6F
100
AcDbEntity
  8
0
 62
256
370
-1
 48
1.0
  6
BYLAYER
100
AcDbCircle
 10
208.0
 20
-300.5
 30
0.0
 40
1.0000000000000142
100
AcDbArc
 50
180.0
 51
0.0
  0
ARC
  5
70
100
AcDbEntity
  8
0
 62
256
370
-1
 48
1.0
  6
BYLAYER
100
AcDbCircle
 10
208.0
 20
-231.5
 30
0.0
 40
0.0
100
AcDbArc
 50
0.0
 51
0.0
  0
LWPOLYLINE
  5
71
100
AcDbEntity
  8
0
 62
256
370
-1
 48
1.0
  6
BYLAYER
100
AcDbPolyline
 90
8
 70
1
 10
441.0
 20
-242.9999999999999716
 42
-0.414213562373095
 10
443.0000000000000568
 20
-245.0
 10
443.0
 20
-251.0
 42
-0.414213562373095
 10
441.0
 20
-253.0
 10
429.0000000000000568
 20
-253.0000000000000568
 42
-0.414213562373095
 10
427.0
 20
-251.0
 10
427.0
 20
-245.0
 42
-0.414213562373095
 10
429.0000000000000568
 20
-243.0
  0
LWPOLYLINE
  5
72
100
AcDbEntity
  8
0
 62
256
370
-1
 48
1.0
  6
BYLAYER
100
AcDbPolyline
 90
8
 70
1
 10
427.0
 20
-231.0
 42
-0.414213562373095
 10
429.0000000000000568
 20
-229.0000000000000284
 10
441.0
 20
-229.0
 42
-0.414213562373095
 10
443.0000000000000568
 20
-231.0
 10
443.0
 20
-237.0000000000000284
 42
-0.414213562373095
 10
441.0
 20
-239.0000000000000284
 10
429.0000000000000568
 20
-239.0000000000000568
 42
-0.414213562373095
 10
427.0
 20
-237.0000000000000284
  0
ARC
  5
73
100
AcDbEntity
  8
0
 62
256
370
-1
 48
1.0
  6
BYLAYER
100
AcDbCircle
 10
249.0000000000000284
 20
-297.0
 30
0.0
 40
1.0000000000000142
100
AcDbArc
 50
180.0
 51
270.0
  0
LWPOLYLINE
  5
74
100
AcDbEntity
  8
0
 62
256
370
-1
 48
1.0
  6
BYLAYER
100
AcDbPolyline
 90
8
 70
1
 10
443.0
 20
-302.0
 42
-0.414213562373095
 10
441.0
 20
-304.0
 10
429.0000000000000568
 20
-304.0000000000000568
 42
-0.414213562373095
 10
427.0
 20
-302.0
 10
427.0
 20
-296.0
 42
-0.414213562373095
 10
429.0000000000000568
 20
-294.0
 10
441.0
 20
-294.0
 42
-0.414213562373095
 10
443.0000000000000568
 20
-296.0
  0
ARC
  5
75
100
AcDbEntity
  8
0
 62
256
370
-1
 48
1.0
  6
BYLAYER
100
AcDbCircle
 10
317.0
 20
-297.0
 30
0.0
 40
1.0000000000000142
100
AcDbArc
 50
-90.0
 51
0.0
  0
ARC
  5
76
100
AcDbEntity
  8
0
 62
256
370
-1
 48
1.0
  6
BYLAYER
100
AcDbCircle
 10
317.0
 20
-241.0
 30
0.0
 40
1.0000000000000142
100
AcDbArc
 50
0.0
 51
90.0
  0
LINE
  5
77
100
AcDbEntity
  8
0
 62
256
370
-1
 48
1.0
  6
BYLAYER
100
AcDbLine
 10
318.0000000000000568
 20
-297.0
 30
0.0
 11
318.0000000000000568
 21
-241.0
 31
0.0
  0
LINE
  5
78
100
AcDbEntity
  8
0
 62
256
370
-1
 48
1.0
  6
BYLAYER
100
AcDbLine
 10
248.0
 20
-241.0
 30
0.0
 11
248.0
 21
-297.0
 31
0.0
  0
LINE
  5
79
100
AcDbEntity
  8
0
 62
256
370
-1
 48
1.0
  6
BYLAYER
100
AcDbLine
 10
249.0000000000000284
 20
-240.0
 30
0.0
 11
249.0000000000000284
 21
-240.0
 31
0.0
  0
ARC
  5
7A
100
AcDbEntity
  8
0
 62
256
370
-1
 48
1.0
  6
BYLAYER
100
AcDbCircle
 10
249.0000000000000284
 20
-241.0
 30
0.0
 40
1.0000000000000142
100
AcDbArc
 50
0.0
 51
90.0
  0
LINE
  5
7B
100
AcDbEntity
  8
0
 62
256
370
-1
 48
1.0
  6
BYLAYER
100
AcDbLine
 10
250.0000000000000284
 20
-297.0
 30
0.0
 11
250.0000000000000284
 21
-241.0
 31
0.0
  0
LWPOLYLINE
  5
7C
100
AcDbEntity
  8
0
 62
256
370
-1
 48
1.0
  6
BYLAYER
100
AcDbPolyline
 90
8
 70
1
 10
177.0000000000000284
 20
-296.0
 42
-0.414213562373095
 10
179.0000000000000284
 20
-294.0
 10
191.0
 20
-294.0
 42
-0.414213562373095
 10
193.0
 20
-296.0
 10
193.0
 20
-302.0
 42
-0.414213562373095
 10
191.0
 20
-304.0
 10
179.0000000000000284
 20
-304.0
 42
-0.414213562373095
 10
177.0
 20
-302.0
  0
LINE
  5
7D
100
AcDbEntity
  8
0
 62
256
370
-1
 48
1.0
  6
BYLAYER
100
AcDbLine
 10
317.0
 20
-298.0000000000000568
 30
0.0
 11
317.0
 21
-298.0000000000000568
 31
0.0
  0
ARC
  5
7E
100
AcDbEntity
  8
0
 62
256
370
-1
 48
1.0
  6
BYLAYER
100
AcDbCircle
 10
249.0000000000000284
 20
-241.0
 30
0.0
 40
1.0000000000000142
100
AcDbArc
 50
90.0
 51
180.0
  0
CIRCLE
  5
7F
100
AcDbEntity
  8
0
 62
256
370
-1
 48
1.0
  6
BYLAYER
100
AcDbCircle
 10
317.0
 20
-205.0
 30
0.0
 40
4.0
  0
CIRCLE
  5
80
100
AcDbEntity
  8
0
 62
256
370
-1
 48
1.0
  6
BYLAYER
100
AcDbCircle
 10
343.0000000000000568
 20
-109.5000000000000142
 30
0.0
 40
1.5000000000000002
  0
CIRCLE
  5
81
100
AcDbEntity
  8
0
 62
256
370
-1
 48
1.0
  6
BYLAYER
100
AcDbCircle
 10
261.0
 20
-160.0
 30
0.0
 40
1.5000000000000002
  0
CIRCLE
  5
82
100
AcDbEntity
  8
0
 62
256
370
-1
 48
1.0
  6
BYLAYER
100
AcDbCircle
 10
349.0
 20
-251.0
 30
0.0
 40
4.0
  0
CIRCLE
  5
83
100
AcDbEntity
  8
0
 62
256
370
-1
 48
1.0
  6
BYLAYER
100
AcDbCircle
 10
349.0
 20
-136.0
 30
0.0
 40
4.0
  0
CIRCLE
  5
84
100
AcDbEntity
  8
0
 62
256
370
-1
 48
1.0
  6
BYLAYER
100
AcDbCircle
 10
215.0000000000000284
 20
-86.0
 30
0.0
 40
4.0
  0
CIRCLE
  5
85
100
AcDbEntity
  8
0
 62
256
370
-1
 48
1.0
  6
BYLAYER
100
AcDbCircle
 10
465.0045208441959517
 20
-85.9443336466568724
 30
0.0
 40
4.0
  0
LWPOLYLINE
  5
86
100
AcDbEntity
  8
0
 62
256
370
-1
 48
1.0
  6
BYLAYER
100
AcDbPolyline
 90
8
 70
1
 10
292.0319999999999823
 20
-226.0040000000000191
 10
292.0319999999999823
 20
-229.0040000000000191
 42
-0.414213562373095
 10
290.0319999999999823
 20
-231.0040000000000191
 10
276.0320000000000391
 20
-231.0040000000000191
 42
-0.414213562373095
 10
274.0319999999999823
 20
-229.0040000000000191
 10
274.0320000000000391
 20
-226.0040000000000191
 42
-0.414213562373095
 10
276.0320000000000391
 20
-224.0040000000000191
 10
290.0319999999999823
 20
-224.0040000000000191
 42
-0.414213562373095
  0
CIRCLE
  5
87
100
AcDbEntity
  8
0
 62
256
370
-1
 48
1.0
  6
BYLAYER
100
AcDbCircle
 10
329.2930000000000632
 20
-154.8969999999999914
 30
0.0
 40
1.5000000000000002
  0
LWPOLYLINE
  5
88
100
AcDbEntity
  8
0
 62
256
370
-1
 48
1.0
  6
BYLAYER
100
AcDbPolyline
 90
8
 70
1
 10
240.0
 20
-229.0000000000000284
 10
240.0000000000000284
 20
-226.0
 42
-0.414213562373095
 10
242.0000000000000284
 20
-224.0000000000000284
 10
256.0
 20
-224.0000000000000284
 42
-0.414213562373095
 10
258.0
 20
-226.0
 10
258.0
 20
-229.0000000000000284
 42
-0.414213562373095
 10
256.0
 20
-231.0
 10
242.0000000000000284
 20
-231.0
 42
-0.414213562373095
  0
CIRCLE
  5
89
100
AcDbEntity
  8
0
 62
256
370
-1
 48
1.0
  6
BYLAYER
100
AcDbCircle
 10
261.0
 20
-165.0
 30
0.0
 40
1.5000000000000002
  0
CIRCLE
  5
8A
100
AcDbEntity
  8
0
 62
256
370
-1
 48
1.0
  6
BYLAYER
100
AcDbCircle
 10
355.0
 20
-104.5000000000000142
 30
0.0
 40
1.5000000000000002
  0
CIRCLE
  5
8B
100
AcDbEntity
  8
0
 62
256
370
-1
 48
1.0
  6
BYLAYER
100
AcDbCircle
 10
261.0
 20
-150.0
 30
0.0
 40
1.5000000000000002
  0
LWPOLYLINE
  5
8C
100
AcDbEntity
  8
0
 62
256
370
-1
 48
1.0
  6
BYLAYER
100
AcDbPolyline
 90
8
 70
1
 10
179.0000000000000284
 20
-229.0000000000000284
 10
191.0
 20
-229.0000000000000284
 42
-0.414213562373095
 10
193.0
 20
-231.0
 10
193.0
 20
-237.0000000000000284
 42
-0.414213562373095
 10
191.0
 20
-239.0000000000000284
 10
179.0000000000000284
 20
-239.0000000000000284
 42
-0.414213562373095
 10
177.0
 20
-237.0000000000000284
 10
177.0000000000000284
 20
-231.0
 42
-0.414213562373095
  0
CIRCLE
  5
8D
100
AcDbEntity
  8
0
 62
256
370
-1
 48
1.0
  6
BYLAYER
100
AcDbCircle
 10
343.0000000000000568
 20
-84.5000000000000142
 30
0.0
 40
1.5000000000000002
  0
CIRCLE
  5
8E
100
AcDbEntity
  8
0
 62
256
370
-1
 48
1.0
  6
BYLAYER
100
AcDbCircle
 10
283.0
 20
-68.0
 30
0.0
 40
4.0
  0
CIRCLE
  5
8F
100
AcDbEntity
  8
0
 62
256
370
-1
 48
1.0
  6
BYLAYER
100
AcDbCircle
 10
329.2930000000000632
 20
-139.8969999999999914
 30
0.0
 40
1.5000000000000002
  0
CIRCLE
  5
90
100
AcDbEntity
  8
0
 62
256
370
-1
 48
1.0
  6
BYLAYER
100
AcDbCircle
 10
355.0
 20
-109.5000000000000142
 30
0.0
 40
1.5000000000000002
  0
CIRCLE
  5
91
100
AcDbEntity
  8
0
 62
256
370
-1
 48
1.0
  6
BYLAYER
100
AcDbCircle
 10
295.2690000000000055
 20
-144.9600000000000364
 30
0.0
 40
1.5000000000000002
  0
CIRCLE
  5
92
100
AcDbEntity
  8
0
 62
256
370
-1
 48
1.0
  6
BYLAYER
100
AcDbCircle
 10
295.2690000000000055
 20
-149.9600000000000364
 30
0.0
 40
1.5000000000000002
  0
CIRCLE
  5
93
100
AcDbEntity
  8
0
 62
256
370
-1
 48
1.0
  6
BYLAYER
100
AcDbCircle
 10
261.0
 20
-145.0
 30
0.0
 40
1.5000000000000002
  0
CIRCLE
  5
94
100
AcDbEntity
  8
0
 62
256
370
-1
 48
1.0
  6
BYLAYER
100
AcDbCircle
 10
329.2930000000000632
 20
-159.8969999999999914
 30
0.0
 40
1.5000000000000002
  0
CIRCLE
  5
95
100
AcDbEntity
  8
0
 62
256
370
-1
 48
1.0
  6
BYLAYER
100
AcDbCircle
 10
355.0
 20
-114.5000000000000142
 30
0.0
 40
1.5000000000000002
  0
CIRCLE
  5
96
100
AcDbEntity
  8
0
 62
256
370
-1
 48
1.0
  6
BYLAYER
100
AcDbCircle
 10
295.2690000000000055
 20
-154.9600000000000364
 30
0.0
 40
1.5000000000000002
  0
CIRCLE
  5
97
100
AcDbEntity
  8
0
 62
256
370
-1
 48
1.0
  6
BYLAYER
100
AcDbCircle
 10
329.2930000000000632
 20
-169.8969999999999914
 30
0.0
 40
1.5000000000000002
  0
CIRCLE
  5
98
100
AcDbEntity
  8
0
 62
256
370
-1
 48
1.0
  6
BYLAYER
100
AcDbCircle
 10
295.2690000000000055
 20
-169.9600000000000364
 30
0.0
 40
1.5000000000000002
  0
CIRCLE
  5
99
100
AcDbEntity
  8
0
 62
256
370
-1
 48
1.0
  6
BYLAYER
100
AcDbCircle
 10
261.0
 20
-135.0
 30
0.0
 40
1.5000000000000002
  0
CIRCLE
  5
9A
100
AcDbEntity
  8
0
 62
256
370
-1
 48
1.0
  6
BYLAYER
100
AcDbCircle
 10
355.0
 20
-94.5000000000000142
 30
0.0
 40
1.5000000000000002
  0
CIRCLE
  5
9B
100
AcDbEntity
  8
0
 62
256
370
-1
 48
1.0
  6
BYLAYER
100
AcDbCircle
 10
329.2930000000000632
 20
-164.8969999999999914
 30
0.0
 40
1.5000000000000002
  0
CIRCLE
  5
9C
100
AcDbEntity
  8
0
 62
256
370
-1
 48
1.0
  6
BYLAYER
100
AcDbCircle
 10
343.0000000000000568
 20
-119.5000000000000142
 30
0.0
 40
1.5000000000000002
  0
CIRCLE
  5
9D
100
AcDbEntity
  8
0
 62
256
370
-1
 48
1.0
  6
BYLAYER
100
AcDbCircle
 10
355.0
 20
-84.5000000000000142
 30
0.0
 40
1.5000000000000002
  0
CIRCLE
  5
9E
100
AcDbEntity
  8
0
 62
256
370
-1
 48
1.0
  6
BYLAYER
100
AcDbCircle
 10
329.2930000000000632
 20
-149.8969999999999914
 30
0.0
 40
1.5000000000000002
  0
CIRCLE
  5
9F
100
AcDbEntity
  8
0
 62
256
370
-1
 48
1.0
  6
BYLAYER
100
AcDbCircle
 10
249.0000000000000284
 20
-102.0000000000000142
 30
0.0
 40
4.0
  0
CIRCLE
  5
A0
100
AcDbEntity
  8
0
 62
256
370
-1
 48
1.0
  6
BYLAYER
100
AcDbCircle
 10
283.0
 20
-205.0
 30
0.0
 40
4.0
  0
CIRCLE
  5
A1
100
AcDbEntity
  8
0
 62
256
370
-1
 48
1.0
  6
BYLAYER
100
AcDbCircle
 10
343.0000000000000568
 20
-114.5000000000000142
 30
0.0
 40
1.5000000000000002
  0
CIRCLE
  5
A2
100
AcDbEntity
  8
0
 62
256
370
-1
 48
1.0
  6
BYLAYER
100
AcDbCircle
 10
295.2690000000000055
 20
-139.9600000000000364
 30
0.0
 40
1.5000000000000002
  0
CIRCLE
  5
A3
100
AcDbEntity
  8
0
 62
256
370
-1
 48
1.0
  6
BYLAYER
100
AcDbCircle
 10
343.0000000000000568
 20
-89.5000000000000142
 30
0.0
 40
1.5000000000000002
  0
ARC
  5
A4
100
AcDbEntity
  8
0
 62
256
370
-1
 48
1.0
  6
BYLAYER
100
AcDbCircle
 10
424.0000000000000568
 20
-114.0
 30
0.0
 40
3.9999999999999858
100
AcDbArc
 50
-180.0
 51
0.0
  0
LWPOLYLINE
  5
A5
100
AcDbEntity
  8
0
 62
256
370
-1
 48
1.0
  6
BYLAYER
100
AcDbPolyline
 90
8
 70
1
 10
326.0190000000000055
 20
-226.0180000000000007
 10
326.0190000000000055
 20
-229.0180000000000291
 42
-0.414213562373095
 10
324.0190000000000055
 20
-231.0180000000000007
 10
310.0190000000000055
 20
-231.0180000000000007
 42
-0.414213562373095
 10
308.0190000000000055
 20
-229.0180000000000291
 10
308.0190000000000055
 20
-226.0180000000000007
 42
-0.414213562373095
 10
310.0190000000000055
 20
-224.0180000000000291
 10
324.0190000000000623
 20
-224.0179999999999723
 42
-0.414213562373095
  0
CIRCLE
  5
A6
100
AcDbEntity
  8
0
 62
256
370
-1
 48
1.0
  6
BYLAYER
100
AcDbCircle
 10
355.0
 20
-119.5000000000000142
 30
0.0
 40
1.5000000000000002
  0
CIRCLE
  5
A7
100
AcDbEntity
  8
0
 62
256
370
-1
 48
1.0
  6
BYLAYER
100
AcDbCircle
 10
283.0
 20
-102.0000000000000142
 30
0.0
 40
4.0
  0
ARC
  5
A8
100
AcDbEntity
  8
0
 62
256
370
-1
 48
1.0
  6
BYLAYER
100
AcDbCircle
 10
174.0000000000000284
 20
-114.0
 30
0.0
 40
3.9999999999999858
100
AcDbArc
 50
-180.0
 51
0.0
  0
CIRCLE
  5
A9
100
AcDbEntity
  8
0
 62
256
370
-1
 48
1.0
  6
BYLAYER
100
AcDbCircle
 10
283.0
 20
-136.0
 30
0.0
 40
4.0
  0
CIRCLE
  5
AA
100
AcDbEntity
  8
0
 62
256
370
-1
 48
1.0
  6
BYLAYER
100
AcDbCircle
 10
249.0000000000000284
 20
-170.0
 30
0.0
 40
4.0
  0
CIRCLE
  5
AB
100
AcDbEntity
  8
0
 62
256
370
-1
 48
1.0
  6
BYLAYER
100
AcDbCircle
 10
343.0000000000000568
 20
-104.5000000000000142
 30
0.0
 40
1.5000000000000002
  0
CIRCLE
  5
AC
100
AcDbEntity
  8
0
 62
256
370
-1
 48
1.0
  6
BYLAYER
100
AcDbCircle
 10
355.0
 20
-89.5000000000000142
 30
0.0
 40
1.5000000000000002
  0
CIRCLE
  5
AD
100
AcDbEntity
  8
0
 62
256
370
-1
 48
1.0
  6
BYLAYER
100
AcDbCircle
 10
317.0
 20
-102.0000000000000142
 30
0.0
 40
4.0
  0
ARC
  5
AE
100
AcDbEntity
  8
0
 62
256
370
-1
 48
1.0
  6
BYLAYER
100
AcDbCircle
 10
174.0000000000000284
 20
-114.0
 30
0.0
 40
3.9999999999999858
100
AcDbArc
 50
0.0
 51
180.0
  0
CIRCLE
  5
AF
100
AcDbEntity
  8
0
 62
256
370
-1
 48
1.0
  6
BYLAYER
100
AcDbCircle
 10
329.2930000000000632
 20
-144.8969999999999914
 30
0.0
 40
1.5000000000000002
  0
CIRCLE
  5
B0
100
AcDbEntity
  8
0
 62
256
370
-1
 48
1.0
  6
BYLAYER
100
AcDbCircle
 10
343.0000000000000568
 20
-99.5000000000000142
 30
0.0
 40
1.5000000000000002
  0
CIRCLE
  5
B1
100
AcDbEntity
  8
0
 62
256
370
-1
 48
1.0
  6
BYLAYER
100
AcDbCircle
 10
355.0
 20
-99.5000000000000142
 30
0.0
 40
1.5000000000000002
  0
CIRCLE
  5
B2
100
AcDbEntity
  8
0
 62
256
370
-1
 48
1.0
  6
BYLAYER
100
AcDbCircle
 10
174.0
 20
-86.0
 30
0.0
 40
4.0
  0
CIRCLE
  5
B3
100
AcDbEntity
  8
0
 62
256
370
-1
 48
1.0
  6
BYLAYER
100
AcDbCircle
 10
424.0045208441958948
 20
-85.9443336466568724
 30
0.0
 40
4.0
  0
CIRCLE
  5
B4
100
AcDbEntity
  8
0
 62
256
370
-1
 48
1.0
  6
BYLAYER
100
AcDbCircle
 10
295.2690000000000055
 20
-164.9600000000000364
 30
0.0
 40
1.5000000000000002
  0
CIRCLE
  5
B5
100
AcDbEntity
  8
0
 62
256
370
-1
 48
1.0
  6
BYLAYER
100
AcDbCircle
 10
393.0000000000000568
 20
-283.5
 30
0.0
 40
12.5
  0
LWPOLYLINE
  5
B6
100
AcDbEntity
  8
0
 62
256
370
-1
 48
1.0
  6
BYLAYER
100
AcDbPolyline
 90
8
 70
1
 10
143.0240000000000009
 20
-154.0840000000000316
 42
-0.414213562373095
 10
145.0240000000000009
 20
-156.0840000000000316
 10
145.0240000000000009
 20
-168.0840000000000316
 42
-0.414213562373095
 10
143.0240000000000009
 20
-170.08400000000006
 10
131.0240000000000009
 20
-170.0840000000000032
 42
-0.414213562373095
 10
129.0240000000000293
 20
-168.0840000000000316
 10
129.0240000000000293
 20
-156.0840000000000316
 42
-0.414213562373095
 10
131.0240000000000009
 20
-154.0840000000000316
  0
CIRCLE
  5
B7
100
AcDbEntity
  8
0
 62
256
370
-1
 48
1.0
  6
BYLAYER
100
AcDbCircle
 10
261.0
 20
-140.0
 30
0.0
 40
1.5000000000000002
  0
LWPOLYLINE
  5
B8
100
AcDbEntity
  8
0
 62
256
370
-1
 48
1.0
  6
BYLAYER
100
AcDbPolyline
 90
8
 70
1
 10
381.462443482558399
 20
-154.0680521184074223
 10
393.4624434825584558
 20
-154.0680521184073655
 42
-0.414213562373095
 10
395.4624434825584558
 20
-156.0680521184073939
 10
395.462443482558399
 20
-168.0680521184073939
 42
-0.414213562373095
 10
393.4624434825584558
 20
-170.0680521184073939
 10
381.462443482558399
 20
-170.0680521184074223
 42
-0.414213562373095
 10
379.462443482558399
 20
-168.0680521184073939
 10
379.4624434825584558
 20
-156.0680521184073939
 42
-0.414213562373095
  0
CIRCLE
  5
B9
100
AcDbEntity
  8
0
 62
256
370
-1
 48
1.0
  6
BYLAYER
100
AcDbCircle
 10
329.2930000000000632
 20
-134.8969999999999914
 30
0.0
 40
1.5000000000000002
  0
CIRCLE
  5
BA
100
AcDbEntity
  8
0
 62
256
370
-1
 48
1.0
  6
BYLAYER
100
AcDbCircle
 10
295.2690000000000055
 20
-134.9600000000000364
 30
0.0
 40
1.5000000000000002
  0
LWPOLYLINE
  5
BB
100
AcDbEntity
  8
0
 62
256
370
-1
 48
1.0
  6
BYLAYER
100
AcDbPolyline
 90
8
 70
1
 10
179.0000000000000284
 20
-243.0
 10
191.0
 20
-243.0
 42
-0.414213562373095
 10
193.0
 20
-245.0
 10
193.0
 20
-251.0
 42
-0.414213562373095
 10
191.0
 20
-253.0
 10
179.0000000000000284
 20
-253.0
 42
-0.414213562373095
 10
177.0
 20
-251.0
 10
177.0000000000000284
 20
-245.0
 42
-0.414213562373095
  0
CIRCLE
  5
BC
100
AcDbEntity
  8
0
 62
256
370
-1
 48
1.0
  6
BYLAYER
100
AcDbCircle
 10
261.0
 20
-155.0
 30
0.0
 40
1.5000000000000002
  0
CIRCLE
  5
BD
100
AcDbEntity
  8
0
 62
256
370
-1
 48
1.0
  6
BYLAYER
100
AcDbCircle
 10
393.0000000000000568
 20
-253.5
 30
0.0
 40
12.5
  0
CIRCLE
  5
BE
100
AcDbEntity
  8
0
 62
256
370
-1
 48
1.0
  6
BYLAYER
100
AcDbCircle
 10
249.0000000000000284
 20
-136.0
 30
0.0
 40
4.0
  0
ARC
  5
BF
100
AcDbEntity
  8
0
 62
256
370
-1
 48
1.0
  6
BYLAYER
100
AcDbCircle
 10
424.0000000000000568
 20
-114.0
 30
0.0
 40
3.9999999999999858
100
AcDbArc
 50
0.0
 51
180.0
  0
LWPOLYLINE
  5
C0
100
AcDbEntity
  8
0
 62
256
370
-1
 48
1.0
  6
BYLAYER
100
AcDbPolyline
 90
8
 70
1
 10
418.4624434825583421
 20
-170.0680521184073939
 10
406.4624434825583421
 20
-170.0680521184074223
 42
-0.414213562373095
 10
404.462443482558399
 20
-168.0680521184073939
 10
404.4624434825583421
 20
-156.0680521184073939
 42
-0.414213562373095
 10
406.4624434825583421
 20
-154.0680521184074223
 10
418.4624434825583421
 20
-154.0680521184073655
 42
-0.414213562373095
 10
420.462443482558399
 20
-156.0680521184073939
 10
420.462443482558399
 20
-168.0680521184073939
 42
-0.414213562373095
  0
CIRCLE
  5
C1
100
AcDbEntity
  8
0
 62
256
370
-1
 48
1.0
  6
BYLAYER
100
AcDbCircle
 10
249.0000000000000284
 20
-205.0
 30
0.0
 40
4.0
  0
LWPOLYLINE
  5
C2
100
AcDbEntity
  8
0
 62
256
370
-1
 48
1.0
  6
BYLAYER
100
AcDbPolyline
 90
8
 70
1
 10
168.0240000000000293
 20
-154.0840000000000316
 42
-0.414213562373095
 10
170.0240000000000009
 20
-156.0840000000000316
 10
170.0240000000000009
 20
-168.0840000000000316
 42
-0.414213562373095
 10
168.0240000000000293
 20
-170.0840000000000032
 10
156.0240000000000293
 20
-170.0840000000000032
 42
-0.414213562373095
 10
154.0240000000000293
 20
-168.0840000000000316
 10
154.0240000000000293
 20
-156.0840000000000316
 42
-0.414213562373095
 10
156.0240000000000293
 20
-154.0840000000000316
  0
CIRCLE
  5
C3
100
AcDbEntity
  8
0
 62
256
370
-1
 48
1.0
  6
BYLAYER
100
AcDbCircle
 10
249.0000000000000284
 20
-68.0
 30
0.0
 40
4.0
  0
CIRCLE
  5
C4
100
AcDbEntity
  8
0
 62
256
370
-1
 48
1.0
  6
BYLAYER
100
AcDbCircle
 10
343.0000000000000568
 20
-94.5000000000000142
 30
0.0
 40
1.5000000000000002
  0
CIRCLE
  5
C5
100
AcDbEntity
  8
0
 62
256
370
-1
 48
1.0
  6
BYLAYER
100
AcDbCircle
 10
132.0
 20
-86.0
 30
0.0
 40
4.0
  0
CIRCLE
  5
C6
100
AcDbEntity
  8
0
 62
256
370
-1
 48
1.0
  6
BYLAYER
100
AcDbCircle
 10
382.0045208441958948
 20
-85.9443336466568724
 30
0.0
 40
4.0
  0
CIRCLE
  5
C7
100
AcDbEntity
  8
0
 62
256
370
-1
 48
1.0
  6
BYLAYER
100
AcDbCircle
 10
261.0
 20
-170.0
 30
0.0
 40
1.5000000000000002
  0
CIRCLE
  5
C8
100
AcDbEntity
  8
0
 62
256
370
-1
 48
1.0
  6
BYLAYER
100
AcDbCircle
 10
143.0
 20
-283.5
 30
0.0
 40
12.5
  0
CIRCLE
  5
C9
100
AcDbEntity
  8
0
 62
256
370
-1
 48
1.0
  6
BYLAYER
100
AcDbCircle
 10
349.0
 20
-284.0
 30
0.0
 40
4.0
  0
CIRCLE
  5
CA
100
AcDbEntity
  8
0
 62
256
370
-1
 48
1.0
  6
BYLAYER
100
AcDbCircle
 10
317.0
 20
-136.0
 30
0.0
 40
4.0
  0
CIRCLE
  5
CB
100
AcDbEntity
  8
0
 62
256
370
-1
 48
1.0
  6
BYLAYER
100
AcDbCircle
 10
317.0
 20
-170.0
 30
0.0
 40
4.0
  0
CIRCLE
  5
CC
100
AcDbEntity
  8
0
 62
256
370
-1
 48
1.0
  6
BYLAYER
100
AcDbCircle
 10
283.0
 20
-170.0
 30
0.0
 40
4.0
  0
CIRCLE
  5
CD
100
AcDbEntity
  8
0
 62
256
370
-1
 48
1.0
  6
BYLAYER
100
AcDbCircle
 10
295.2690000000000055
 20
-159.9600000000000364
 30
0.0
 40
1.5000000000000002
  0
CIRCLE
  5
CE
100
AcDbEntity
  8
0
 62
256
370
-1
 48
1.0
  6
BYLAYER
100
AcDbCircle
 10
143.0
 20
-253.5
 30
0.0
 40
12.5
  0
CIRCLE
  5
CF
100
AcDbEntity
  8
0
 62
256
370
-1
 48
1.0
  6
BYLAYER
100
AcDbCircle
 10
317.0
 20
-68.0
 30
0.0
 40
4.0
  0
LWPOLYLINE
  5
D0
100
AcDbEntity
  8
0
 62
256
370
-1
 48
1.0
  6
BYLAYER
100
AcDbPolyline
 90
8
 70
1
 10
468.4624434825583421
 20
-170.0680521184073939
 10
456.462443482558399
 20
-170.0680521184073939
 42
-0.414213562373095
 10
454.4624434825584558
 20
-168.0680521184073655
 10
454.4624434825584558
 20
-156.0680521184073655
 42
-0.414213562373095
 10
456.462443482558399
 20
-154.0680521184073655
 10
468.4624434825583421
 20
-154.068052118407337
 42
-0.414213562373095
 10
470.462443482558399
 20
-156.0680521184073655
 10
470.462443482558399
 20
-168.0680521184073655
 42
-0.414213562373095
  0
LWPOLYLINE
  5
D1
100
AcDbEntity
  8
0
 62
256
370
-1
 48
1.0
  6
BYLAYER
100
AcDbPolyline
 90
8
 70
1
 10
195.0240000000000009
 20
-181.0840000000000032
 10
195.0240000000000009
 20
-193.0840000000000316
 42
-0.414213562373095
 10
193.0240000000000293
 20
-195.0840000000000032
 10
181.0240000000000009
 20
-195.0840000000000032
 42
-0.414213562373095
 10
179.0240000000000009
 20
-193.0840000000000316
 10
179.0240000000000009
 20
-181.0840000000000032
 42
-0.414213562373095
 10
181.0240000000000009
 20
-179.0840000000000032
 10
193.0240000000000293
 20
-179.0840000000000032
 42
-0.414213562373095
  0
LWPOLYLINE
  5
D2
100
AcDbEntity
  8
0
 62
256
370
-1
 48
1.0
  6
BYLAYER
100
AcDbPolyline
 90
8
 70
1
 10
443.4624434825584558
 20
-179.068052118407337
 42
-0.414213562373095
 10
445.4624434825584558
 20
-181.0680521184073655
 10
445.462443482558399
 20
-193.0680521184073939
 42
-0.414213562373095
 10
443.4624434825584558
 20
-195.0680521184073939
 10
431.462443482558399
 20
-195.0680521184074223
 42
-0.414213562373095
 10
429.4624434825584558
 20
-193.0680521184073939
 10
429.4624434825584558
 20
-181.0680521184073655
 42
-0.414213562373095
 10
431.462443482558399
 20
-179.0680521184073655
  0
LWPOLYLINE
  5
D3
100
AcDbEntity
  8
0
 62
256
370
-1
 48
1.0
  6
BYLAYER
100
AcDbPolyline
 90
8
 70
1
 10
181.0240000000000009
 20
-170.0840000000000032
 42
-0.414213562373095
 10
179.0240000000000009
 20
-168.0840000000000316
 10
179.0240000000000009
 20
-156.0840000000000032
 42
-0.414213562373095
 10
181.0240000000000009
 20
-154.0840000000000316
 10
193.0240000000000293
 20
-154.0840000000000316
 42
-0.414213562373095
 10
195.0240000000000009
 20
-156.0840000000000032
 10
195.0240000000000009
 20
-168.0840000000000316
 42
-0.414213562373095
 10
193.0240000000000293
 20
-170.0840000000000032
  0
LWPOLYLINE
  5
D4
100
AcDbEntity
  8
0
 62
256
370
-1
 48
1.0
  6
BYLAYER
100
AcDbPolyline
 90
8
 70
1
 10
220.0240000000000009
 20
-181.0840000000000316
 10
220.0240000000000009
 20
-193.08400000000006
 42
-0.414213562373095
 10
218.0240000000000293
 20
-195.08400000000006
 10
206.0240000000000293
 20
-195.08400000000006
 42
-0.414213562373095
 10
204.0240000000000293
 20
-193.08400000000006
 10
204.0240000000000293
 20
-181.0840000000000316
 42
-0.414213562373095
 10
206.0240000000000293
 20
-179.0840000000000316
 10
218.0240000000000293
 20
-179.0840000000000316
 42
-0.414213562373095
  0
LWPOLYLINE
  5
D5
100
AcDbEntity
  8
0
 62
256
370
-1
 48
1.0
  6
BYLAYER
100
AcDbPolyline
 90
8
 70
1
 10
429.4624434825584558
 20
-156.0680521184073655
 42
-0.414213562373095
 10
431.462443482558399
 20
-154.0680521184073655
 10
443.4624434825584558
 20
-154.068052118407337
 42
-0.414213562373095
 10
445.4624434825584558
 20
-156.0680521184073655
 10
445.462443482558399
 20
-168.0680521184073655
 42
-0.414213562373095
 10
443.4624434825584558
 20
-170.0680521184073655
 10
431.462443482558399
 20
-170.0680521184073939
 42
-0.414213562373095
 10
429.462443482558399
 20
-168.0680521184073655
  0
LWPOLYLINE
  5
D6
100
AcDbEntity
  8
0
 62
256
370
-1
 48
1.0
  6
BYLAYER
100
AcDbPolyline
 90
8
 70
1
 10
218.0240000000000293
 20
-154.0840000000000316
 42
-0.414213562373095
 10
220.0240000000000009
 20
-156.0840000000000032
 10
220.0240000000000009
 20
-168.0840000000000316
 42
-0.414213562373095
 10
218.0240000000000293
 20
-170.0840000000000032
 10
206.0240000000000293
 20
-170.0840000000000032
 42
-0.414213562373095
 10
204.0240000000000293
 20
-168.0840000000000316
 10
204.0240000000000293
 20
-156.0840000000000032
 42
-0.414213562373095
 10
206.0240000000000293
 20
-154.0840000000000032
  0
LWPOLYLINE
  5
D7
100
AcDbEntity
  8
0
 62
256
370
-1
 48
1.0
  6
BYLAYER
100
AcDbPolyline
 90
8
 70
1
 10
454.4624434825584558
 20
-193.0680521184073939
 10
454.4624434825584558
 20
-181.0680521184073655
 42
-0.414213562373095
 10
456.462443482558399
 20
-179.0680521184073655
 10
468.4624434825583421
 20
-179.068052118407337
 42
-0.414213562373095
 10
470.462443482558399
 20
-181.0680521184073655
 10
470.462443482558399
 20
-193.0680521184073939
 42
-0.414213562373095
 10
468.4624434825583421
 20
-195.0680521184073939
 10
456.462443482558399
 20
-195.0680521184074223
 42
-0.414213562373095
  0
LWPOLYLINE
  5
D8
100
AcDbEntity
  8
0
 62
256
370
-1
 48
1.0
  6
BYLAYER
100
AcDbPolyline
 90
8
 70
1
 10
404.4624434825583421
 20
-181.0680521184074223
 42
-0.414213562373095
 10
406.4624434825583421
 20
-179.0680521184074507
 10
418.4624434825583421
 20
-179.0680521184074223
 42
-0.414213562373095
 10
420.462443482558399
 20
-181.0680521184074223
 10
420.462443482558399
 20
-193.0680521184074223
 42
-0.414213562373095
 10
418.4624434825583421
 20
-195.0680521184074223
 10
406.4624434825583421
 20
-195.0680521184074507
 42
-0.414213562373095
 10
404.462443482558399
 20
-193.0680521184074223
  0
LWPOLYLINE
  5
D9
100
AcDbEntity
  8
0
 62
256
370
-1
 48
1.0
  6
BYLAYER
100
AcDbPolyline
 90
8
 70
1
 10
170.0240000000000578
 20
-181.0840000000001169
 10
170.0240000000000009
 20
-193.0840000000000884
 42
-0.414213562373095
 10
168.0240000000000293
 20
-195.0840000000000884
 10
156.0240000000000293
 20
-195.0840000000000884
 42
-0.414213562373095
 10
154.0240000000000293
 20
-193.0840000000000884
 10
154.0240000000000293
 20
-181.0840000000001169
 42
-0.414213562373095
 10
156.0240000000000293
 20
-179.0840000000001169
 10
168.0240000000000293
 20
-179.0840000000001169
 42
-0.414213562373095
  0
LWPOLYLINE
  5
DA
100
AcDbEntity
  8
0
 62
256
370
-1
 48
1.0
  6
BYLAYER
100
AcDbPolyline
 90
8
 70
1
 10
381.462443482558399
 20
-195.0680521184074507
 42
-0.414213562373095
 10
379.462443482558399
 20
-193.0680521184074223
 10
379.4624434825584558
 20
-181.0680521184074223
 42
-0.414213562373095
 10
381.462443482558399
 20
-179.0680521184074507
 10
393.4624434825584558
 20
-179.0680521184074223
 42
-0.414213562373095
 10
395.4624434825584558
 20
-181.0680521184074223
 10
395.462443482558399
 20
-193.0680521184074223
 42
-0.414213562373095
 10
393.4624434825584558
 20
-195.0680521184074223
  0
LWPOLYLINE
  5
DB
100
AcDbEntity
  8
0
 62
256
370
-1
 48
1.0
  6
BYLAYER
100
AcDbPolyline
 90
8
 70
1
 10
358.0
 20
-213.5
 42
-0.414213562373095
 10
356.0
 20
-215.5
 10
342.0
 20
-215.5000000000000568
 42
-0.414213562373095
 10
340.0
 20
-213.5
 10
340.0
 20
-196.5000000000000284
 42
-0.414213562373095
 10
342.0
 20
-194.5000000000000284
 10
356.0
 20
-194.5
 42
-0.414213562373095
 10
358.0000000000000568
 20
-196.5000000000000284
  0
LWPOLYLINE
  5
DC
100
AcDbEntity
  8
0
 62
256
370
-1
 48
1.0
  6
BYLAYER
100
AcDbPolyline
 90
8
 70
1
 10
131.0240000000000009
 20
-179.0840000000001169
 10
143.0240000000000009
 20
-179.0840000000001169
 42
-0.414213562373095
 10
145.0240000000000009
 20
-181.0840000000001169
 10
145.0240000000000009
 20
-193.0840000000000884
 42
-0.414213562373095
 10
143.0240000000000009
 20
-195.0840000000000884
 10
131.0240000000000009
 20
-195.0840000000000884
 42
-0.414213562373095
 10
129.0240000000000009
 20
-193.0840000000000884
 10
129.0240000000000293
 20
-181.0840000000001169
 42
-0.414213562373095
  0
LWPOLYLINE
  5
DD
100
AcDbEntity
  8
0
 62
256
370
-1
 48
1.0
  6
BYLAYER
100
AcDbPolyline
 90
4
 70
1
 10
108.9998673510863512
 20
-315.9888863690104017
 10
108.8582925253865596
 20
-45.9235415732928587
 10
489.0010056555559004
 20
-46.0000001011343329
 10
490.000007301568985
 20
-316.0000046363904289
  0
LINE
  5
DE
100
AcDbEntity
  8
0
 62
256
370
-1
 48
1.0
  6
BYLAYER
100
AcDbLine
 10
207.0
 20
-300.5
 30
0.0
 11
207.0
 21
-232.5
 31
0.0
  0
LINE
  5
DF
100
AcDbEntity
  8
0
 62
256
370
-1
 48
1.0
  6
BYLAYER
100
AcDbLine
 10
282.0
 20
-241.0
 30
0.0
 11
282.0
 21
-297.0
 31
0.0
  0
LINE
  5
E0
100
AcDbEntity
  8
0
 62
256
370
-1
 48
1.0
  6
BYLAYER
100
AcDbLine
 10
459.0
 20
-232.5000000000000284
 30
0.0
 11
459.0
 21
-300.5
 31
0.0
  0
ENDSEC
  0
SECTION
  2
OBJECTS
  0
DICTIONARY
  5
C
100
AcDbDictionary
280
0
281
1
  3
ACAD_GROUP
350
D
  3
ACAD_LAYOUT
350
1A
  3
ACAD_MLINESTYLE
350
17
  3
ACAD_PLOTSETTINGS
350
19
  3
ACAD_PLOTSTYLENAME
350
E
  3
AcDbVariableDictionary
350
E1
  3
QCAD_OBJECTS
350
E2
  0
DICTIONARY
  5
D
100
AcDbDictionary
280
0
281
1
  0
ACDBDICTIONARYWDFLT
  5
E
100
AcDbDictionary
281
1
  3
Normal
350
F
100
AcDbDictionaryWithDefault
340
F
  0
ACDBPLACEHOLDER
  5
F
  0
DICTIONARY
  5
17
100
AcDbDictionary
280
0
281
1
  3
Standard
350
18
  0
MLINESTYLE
  5
18
100
AcDbMlineStyle
  2
STANDARD
 70
0
  3

 62
256
 51
90.0
 52
90.0
 71
2
 49
0.5
 62
256
  6
BYLAYER
 49
-0.5
 62
256
  6
BYLAYER
  0
DICTIONARY
  5
19
100
AcDbDictionary
280
0
281
1
  0
DICTIONARY
  5
1A
100
AcDbDictionary
281
1
  3
Layout1
350
1E
  3
Layout2
350
26
  3
Model
350
22
  0
LAYOUT
  5
1E
100
AcDbPlotSettings
  1

  2
none_device
  4

  6

 40
0.0
 41
0.0
 42
0.0
 43
0.0
 44
0.0
 45
0.0
 46
0.0
 47
0.0
 48
0.0
 49
0.0
140
0.0
141
0.0
142
1.0
143
1.0
 70
688
 72
0
 73
0
 74
5
  7

 75
16
147
1.0
148
0.0
149
0.0
100
AcDbLayout
  1
Layout1
 70
1
 71
1
 10
0.0
 20
0.0
 11
420.0
 21
297.0
 12
0.0
 22
0.0
 32
0.0
 14
100000000000000000000.0
 24
100000000000000000000.0
 34
100000000000000000000.0
 15
-100000000000000000000.0
 25
-100000000000000000000.0
 35
-100000000000000000000.0
146
0.0
 13
0.0
 23
0.0
 33
0.0
 16
1.0
 26
0.0
 36
0.0
 17
0.0
 27
1.0
 37
0.0
 76
0
330
1B
  0
LAYOUT
  5
22
100
AcDbPlotSettings
  1

  2
none_device
  4

  6

 40
0.0
 41
0.0
 42
0.0
 43
0.0
 44
0.0
 45
0.0
 46
0.0
 47
0.0
 48
0.0
 49
0.0
140
0.0
141
0.0
142
1.0
143
1.0
 70
1712
 72
0
 73
0
 74
0
  7

 75
0
147
1.0
148
0.0
149
0.0
100
AcDbLayout
  1
Model
 70
1
 71
0
 10
0.0
 20
0.0
 11
12.0
 21
9.0
 12
0.0
 22
0.0
 32
0.0
 14
0.0
 24
0.0
 34
0.0
 15
0.0
 25
0.0
 35
0.0
146
0.0
 13
0.0
 23
0.0
 33
0.0
 16
1.0
 26
0.0
 36
0.0
 17
0.0
 27
1.0
 37
0.0
 76
0
330
1F
  0
LAYOUT
  5
26
100
AcDbPlotSettings
  1

  2
none_device
  4

  6

 40
0.0
 41
0.0
 42
0.0
 43
0.0
 44
0.0
 45
0.0
 46
0.0
 47
0.0
 48
0.0
 49
0.0
140
0.0
141
0.0
142
1.0
143
1.0
 70
688
 72
0
 73
0
 74
5
  7

 75
16
147
1.0
148
0.0
149
0.0
100
AcDbLayout
  1
Layout2
 70
1
 71
2
 10
0.0
 20
0.0
 11
12.0
 21
9.0
 12
0.0
 22
0.0
 32
0.0
 14
0.0
 24
0.0
 34
0.0
 15
0.0
 25
0.0
 35
0.0
146
0.0
 13
0.0
 23
0.0
 33
0.0
 16
1.0
 26
0.0
 36
0.0
 17
0.0
 27
1.0
 37
0.0
 76
0
330
23
  0
DICTIONARY
  5
E1
100
AcDbDictionary
281
1
  3
DIMASSOC
350
E4
  3
HIDETEXT
350
E3
  0
DICTIONARYVAR
  5
E3
100
DictionaryVariables
280
0
  1
2
  0
DICTIONARYVAR
  5
E4
100
DictionaryVariables
280
0
  1
1
  0
DICTIONARY
  5
E2
100
AcDbDictionary
281
1
  3
ColorSettings/BackgroundColor
350
E5
  3
ColorSettings/ColorMode
350
E6
  3
Grid/DisplayGrid00
350
E7
  3
Grid/DisplayGrid01
350
E8
  3
Grid/DisplayGrid02
350
E9
  3
Grid/DisplayGrid03
350
EA
  3
Grid/GridSpacingX00
350
EB
  3
Grid/GridSpacingX01
350
EC
  3
Grid/GridSpacingX02
350
ED
  3
Grid/GridSpacingX03
350
EE
  3
Grid/GridSpacingY00
350
EF
  3
Grid/GridSpacingY01
350
F0
  3
Grid/GridSpacingY02
350
F1
  3
Grid/GridSpacingY03
350
F2
  3
Grid/IsometricGrid00
350
F3
  3
Grid/IsometricGrid01
350
F4
  3
Grid/IsometricGrid02
350
F5
  3
Grid/IsometricGrid03
350
F6
  3
Grid/IsometricProjection00
350
F7
  3
Grid/IsometricProjection01
350
F8
  3
Grid/IsometricProjection02
350
F9
  3
Grid/IsometricProjection03
350
FA
  3
Grid/MetaGridSpacingX00
350
FB
  3
Grid/MetaGridSpacingX01
350
FC
  3
Grid/MetaGridSpacingX02
350
FD
  3
Grid/MetaGridSpacingX03
350
FE
  3
Grid/MetaGridSpacingY00
350
FF
  3
Grid/MetaGridSpacingY01
350
100
  3
Grid/MetaGridSpacingY02
350
101
  3
Grid/MetaGridSpacingY03
350
102
  3
MultiPageSettings/Columns
350
103
  3
MultiPageSettings/GlueMarginsBottom
350
104
  3
MultiPageSettings/GlueMarginsLeft
350
105
  3
MultiPageSettings/GlueMarginsRight
350
106
  3
MultiPageSettings/GlueMarginsTop
350
107
  3
MultiPageSettings/PrintCropMarks
350
108
  3
MultiPageSettings/Rows
350
109
  3
PageSettings/OffsetX
350
10A
  3
PageSettings/OffsetY
350
10B
  3
PageSettings/PageOrientation
350
10C
  3
PageSettings/PaperHeight
350
10D
  3
PageSettings/PaperWidth
350
10E
  3
PageSettings/Scale
350
10F
  3
PageSettings/ShowPaperBorders
350
110
  3
PageTagSettings/EnablePageTags
350
111
  3
PageTagSettings/TagAlignment
350
112
  3
PageTagSettings/TagFont
350
113
  3
PageTagSettings/TagPosition
350
114
  3
QCADVersion
350
115
  3
UnitSettings/PaperUnit
350
116
  3
ViewportCenter
350
117
  3
ViewportHeight
350
118
  3
ViewportWidth
350
119
  0
XRECORD
  5
E5
330
E2
100
AcDbXrecord
280
1
1000
White
  0
XRECORD
  5
E6
330
E2
100
AcDbXrecord
280
1
1000
FullColor
  0
XRECORD
  5
E7
330
E2
100
AcDbXrecord
280
1
290
1
  0
XRECORD
  5
E8
330
E2
100
AcDbXrecord
280
1
290
1
  0
XRECORD
  5
E9
330
E2
100
AcDbXrecord
280
1
290
1
  0
XRECORD
  5
EA
330
E2
100
AcDbXrecord
280
1
290
1
  0
XRECORD
  5
EB
330
E2
100
AcDbXrecord
280
1
1000
auto
  0
XRECORD
  5
EC
330
E2
100
AcDbXrecord
280
1
1000
auto
  0
XRECORD
  5
ED
330
E2
100
AcDbXrecord
280
1
1000
auto
  0
XRECORD
  5
EE
330
E2
100
AcDbXrecord
280
1
1000
auto
  0
XRECORD
  5
EF
330
E2
100
AcDbXrecord
280
1
1000
auto
  0
XRECORD
  5
F0
330
E2
100
AcDbXrecord
280
1
1000
auto
  0
XRECORD
  5
F1
330
E2
100
AcDbXrecord
280
1
1000
auto
  0
XRECORD
  5
F2
330
E2
100
AcDbXrecord
280
1
1000
auto
  0
XRECORD
  5
F3
330
E2
100
AcDbXrecord
280
1
290
0
  0
XRECORD
  5
F4
330
E2
100
AcDbXrecord
280
1
290
0
  0
XRECORD
  5
F5
330
E2
100
AcDbXrecord
280
1
290
0
  0
XRECORD
  5
F6
330
E2
100
AcDbXrecord
280
1
290
0
  0
XRECORD
  5
F7
330
E2
100
AcDbXrecord
280
1
 90
65537
  0
XRECORD
  5
F8
330
E2
100
AcDbXrecord
280
1
 90
65537
  0
XRECORD
  5
F9
330
E2
100
AcDbXrecord
280
1
 90
65537
  0
XRECORD
  5
FA
330
E2
100
AcDbXrecord
280
1
 90
65537
  0
XRECORD
  5
FB
330
E2
100
AcDbXrecord
280
1
1000
auto
  0
XRECORD
  5
FC
330
E2
100
AcDbXrecord
280
1
1000
auto
  0
XRECORD
  5
FD
330
E2
100
AcDbXrecord
280
1
1000
auto
  0
XRECORD
  5
FE
330
E2
100
AcDbXrecord
280
1
1000
auto
  0
XRECORD
  5
FF
330
E2
100
AcDbXrecord
280
1
1000
auto
  0
XRECORD
  5
100
330
E2
100
AcDbXrecord
280
1
1000
auto
  0
XRECORD
  5
101
330
E2
100
AcDbXrecord
280
1
1000
auto
  0
XRECORD
  5
102
330
E2
100
AcDbXrecord
280
1
1000
auto
  0
XRECORD
  5
103
330
E2
100
AcDbXrecord
280
1
 90
1
  0
XRECORD
  5
104
330
E2
100
AcDbXrecord
280
1
 40
10.0
  0
XRECORD
  5
105
330
E2
100
AcDbXrecord
280
1
 40
10.0
  0
XRECORD
  5
106
330
E2
100
AcDbXrecord
280
1
 40
10.0
  0
XRECORD
  5
107
330
E2
100
AcDbXrecord
280
1
 40
10.0
  0
XRECORD
  5
108
330
E2
100
AcDbXrecord
280
1
290
0
  0
XRECORD
  5
109
330
E2
100
AcDbXrecord
280
1
 90
1
  0
XRECORD
  5
10A
330
E2
100
AcDbXrecord
280
1
 40
0.0
  0
XRECORD
  5
10B
330
E2
100
AcDbXrecord
280
1
 40
0.0
  0
XRECORD
  5
10C
330
E2
100
AcDbXrecord
280
1
1000
Portrait
  0
XRECORD
  5
10D
330
E2
100
AcDbXrecord
280
1
 40
420.0
  0
XRECORD
  5
10E
330
E2
100
AcDbXrecord
280
1
 40
297.0
  0
XRECORD
  5
10F
330
E2
100
AcDbXrecord
280
1
1000
1:1
  0
XRECORD
  5
110
330
E2
100
AcDbXrecord
280
1
290
1
  0
XRECORD
  5
111
330
E2
100
AcDbXrecord
280
1
290
0
  0
XRECORD
  5
112
330
E2
100
AcDbXrecord
280
1
1000
Inside
  0
XRECORD
  5
113
330
E2
100
AcDbXrecord
280
1
1000
Arial,10,-1,5,50,0,0,0,0,0
  0
XRECORD
  5
114
330
E2
100
AcDbXrecord
280
1
1000
TopLeft
  0
XRECORD
  5
115
330
E2
100
AcDbXrecord
280
1
1000
3.26.1
  0
XRECORD
  5
116
330
E2
100
AcDbXrecord
280
1
 90
4
  0
XRECORD
  5
118
330
E2
100
AcDbXrecord
280
1
 40
495.7709833390588301
  0
XRECORD
  5
119
330
E2
100
AcDbXrecord
280
1
 40
866.2945603608818601
  0
ENDSEC
  0
EOF
