<?xml version="1.0" encoding="UTF-8" standalone="no"?>
<svg
   xmlns:dc="http://purl.org/dc/elements/1.1/"
   xmlns:cc="http://creativecommons.org/ns#"
   xmlns:rdf="http://www.w3.org/1999/02/22-rdf-syntax-ns#"
   xmlns:svg="http://www.w3.org/2000/svg"
   xmlns="http://www.w3.org/2000/svg"
   viewBox="0 0 793.7007874015749 1122.5196850393702"
   width="793.7007874015749"
   height="1122.5196850393702"
   version="1.1"
   id="svg1124">
  <metadata
     id="metadata1128">
    <rdf:RDF>
      <cc:Work
         rdf:about="">
        <dc:format>image/svg+xml</dc:format>
        <dc:type
           rdf:resource="http://purl.org/dc/dcmitype/StillImage" />
        <dc:title></dc:title>
      </cc:Work>
    </rdf:RDF>
  </metadata>
  <defs
     id="defs846">
    <marker
       id="DistanceX"
       orient="auto"
       refX="0.0"
       refY="0.0"
       style="overflow:visible">
      <path
         d="M 3,-3 L -3,3 M 0,-5 L  0,5"
         style="stroke:#000000; stroke-width:0.5"
         id="path833" />
    </marker>
    <pattern
       id="Hatch"
       patternUnits="userSpaceOnUse"
       width="8"
       height="8"
       x="0"
       y="0">
      <path
         d="M8 4 l-4,4"
         stroke="#000000"
         stroke-width="0.25"
         linecap="square"
         id="path836" />
      <path
         d="M6 2 l-4,4"
         stroke="#000000"
         stroke-width="0.25"
         linecap="square"
         id="path838" />
      <path
         d="M4 0 l-4,4"
         stroke="#000000"
         stroke-width="0.25"
         linecap="square"
         id="path840" />
    </pattern>
    <symbol
       id="*Model_Space" />
    <symbol
       id="*Paper_Space" />
    <symbol
       id="*Paper_Space0" />
  </defs>
  <g
     id="g1120">
    <path
       d="M 1194.330709,2033.385827 1194.330709,2245.039370"
       style="fill:#000000;stroke:#000000;stroke-linecap:round;fill-opacity:1"
       id="path848" />
    <path
       d="M 1198.110236,2029.606299 A 3.779528,3.779528 -0.000000 0 0 1194.330709,2033.385827"
       style="fill:#000000;stroke:#000000;stroke-linecap:round;fill-opacity:1"
       id="path850" />
    <path
       d="M 1198.110236,2029.606299 1198.110236,2029.606299"
       style="fill:#000000;stroke:#000000;stroke-linecap:round;fill-opacity:1"
       id="path852" />
    <path
       d="M 634.507087,1398.897638 A 7.559055,7.559055 0.0 0 1 626.948031,1391.338583 L 626.948031,1368.321260 A 7.559055,7.559055 0.0 0 1 634.507087,1360.762205 L 679.861417,1360.762205 A 7.559055,7.559055 0.0 0 1 687.420472,1368.321260 L 687.420472,1391.338583 A 7.559055,7.559055 0.0 0 1 679.861417,1398.897638 L 634.507087,1398.897638 z"
       style="fill:#000000;stroke:#000000;stroke-linecap:round;fill-opacity:1"
       id="path854" />
    <path
       d="M 1579.857591,1398.636221 A 7.559055,7.559055 0.0 0 1 1572.298536,1391.077166 L 1572.298536,1368.059843 A 7.559055,7.559055 0.0 0 1 1579.857591,1360.500788 L 1625.211922,1360.500788 A 7.559055,7.559055 0.0 0 1 1632.770977,1368.059843 L 1632.770977,1391.077166 A 7.559055,7.559055 0.0 0 1 1625.211922,1398.636221 L 1579.857591,1398.636221 z"
       style="fill:#000000;stroke:#000000;stroke-linecap:round;fill-opacity:1"
       id="path856" />
    <path
       d="M 475.766929,1398.897638 A 7.559055,7.559055 0.0 0 1 468.207874,1391.338583 L 468.207874,1368.321260 A 7.559055,7.559055 0.0 0 1 475.766929,1360.762205 L 521.121260,1360.762205 A 7.559055,7.559055 0.0 0 1 528.680315,1368.321260 L 528.680315,1391.338583 A 7.559055,7.559055 0.0 0 1 521.121260,1398.897638 L 475.766929,1398.897638 z"
       style="fill:#000000;stroke:#000000;stroke-linecap:round;fill-opacity:1"
       id="path858" />
    <path
       d="M 1421.117434,1398.636221 A 7.559055,7.559055 0.0 0 1 1413.558379,1391.077166 L 1413.558379,1368.059843 A 7.559055,7.559055 0.0 0 1 1421.117434,1360.500788 L 1466.471764,1360.500788 A 7.559055,7.559055 0.0 0 1 1474.030820,1368.059843 L 1474.030820,1391.077166 A 7.559055,7.559055 0.0 0 1 1466.471764,1398.636221 L 1421.117434,1398.636221 z"
       style="fill:#000000;stroke:#000000;stroke-linecap:round;fill-opacity:1"
       id="path860" />
    <path
       d="M 1194.330709,2245.039370 A 3.779528,3.779528 -0.000000 0 0 1198.110236,2248.818898"
       style="fill:#000000;stroke:#000000;stroke-linecap:round;fill-opacity:1"
       id="path862" />
    <path
       d="M 941.102362,2248.818898 A 3.779528,3.779528 -0.000000 0 0 944.881890,2245.039370"
       style="fill:#000000;stroke:#000000;stroke-linecap:round;fill-opacity:1"
       id="path864" />
    <path
       d="M 842.381102,1391.338583 A 7.559055,7.559055 0.0 0 1 834.822047,1398.897638 L 789.467717,1398.897638 A 7.559055,7.559055 0.0 0 1 781.908661,1391.338583 L 781.908661,1368.321260 A 7.559055,7.559055 0.0 0 1 789.467717,1360.762205 L 834.822047,1360.762205 A 7.559055,7.559055 0.0 0 1 842.381102,1368.321260 L 842.381102,1391.338583 z"
       style="fill:#000000;stroke:#000000;stroke-linecap:round;fill-opacity:1"
       id="path866" />
    <path
       d="M 1787.731607,1391.077166 A 7.559055,7.559055 0.0 0 1 1780.172552,1398.636221 L 1734.818221,1398.636221 A 7.559055,7.559055 0.0 0 1 1727.259166,1391.077166 L 1727.259166,1368.059843 A 7.559055,7.559055 0.0 0 1 1734.818221,1360.500788 L 1780.172552,1360.500788 A 7.559055,7.559055 0.0 0 1 1787.731607,1368.059843 L 1787.731607,1391.077166 z"
       style="fill:#000000;stroke:#000000;stroke-linecap:round;fill-opacity:1"
       id="path868" />
    <path
       d="M 1727.244094,2258.267717 A 3.779528,3.779528 -0.000000 0 0 1734.803150,2258.267717"
       style="fill:#000000;stroke:#000000;stroke-linecap:round;fill-opacity:1"
       id="path870" />
    <path
       d="M 1727.244094,2258.267717 1727.244094,2001.259843"
       style="fill:#000000;stroke:#000000;stroke-linecap:round;fill-opacity:1"
       id="path872" />
    <path
       d="M 1734.803150,2001.259843 A 3.779528,3.779528 -0.000000 0 0 1727.244094,2001.259843"
       style="fill:#000000;stroke:#000000;stroke-linecap:round;fill-opacity:1"
       id="path874" />
    <path
       d="M 1731.023622,2262.047244 A 0.000000,0.000000 -0.000000 1 0 1731.023622,2262.047244 0.000000,0.000000 -0.000000 1 0 1731.023622,2262.047244 z"
       style="fill:#000000;stroke:#000000;stroke-linecap:round;fill-opacity:1"
       id="path876" />
    <path
       d="M 1073.385827,2033.385827 A 3.779528,3.779528 -0.000000 0 0 1065.826772,2033.385827"
       style="fill:#000000;stroke:#000000;stroke-linecap:round;fill-opacity:1"
       id="path878" />
    <path
       d="M 1073.385827,2033.385827 1073.385827,2245.039370"
       style="fill:#000000;stroke:#000000;stroke-linecap:round;fill-opacity:1"
       id="path880" />
    <path
       d="M 1065.826772,2245.039370 A 3.779528,3.779528 -0.000000 0 0 1073.385827,2245.039370"
       style="fill:#000000;stroke:#000000;stroke-linecap:round;fill-opacity:1"
       id="path882" />
    <path
       d="M 1069.606299,2029.606299 A 0.000000,0.000000 -0.000000 1 0 1069.606299,2029.606299 0.000000,0.000000 -0.000000 1 0 1069.606299,2029.606299 z"
       style="fill:#000000;stroke:#000000;stroke-linecap:round;fill-opacity:1"
       id="path884" />
    <path
       d="M 941.102362,2248.818898 941.102362,2248.818898"
       style="fill:#000000;stroke:#000000;stroke-linecap:round;fill-opacity:1"
       id="path886" />
    <path
       d="M 789.921260,2001.259843 A 3.779528,3.779528 -0.000000 0 0 782.362205,2001.259843"
       style="fill:#000000;stroke:#000000;stroke-linecap:round;fill-opacity:1"
       id="path888" />
    <path
       d="M 789.921260,2001.259843 789.921260,2258.267717"
       style="fill:#000000;stroke:#000000;stroke-linecap:round;fill-opacity:1"
       id="path890" />
    <path
       d="M 782.362205,2258.267717 A 3.779528,3.779528 -0.000000 0 0 789.921260,2258.267717"
       style="fill:#000000;stroke:#000000;stroke-linecap:round;fill-opacity:1"
       id="path892" />
    <path
       d="M 786.141732,1997.480315 A 0.000000,0.000000 -0.000000 1 0 786.141732,1997.480315 0.000000,0.000000 -0.000000 1 0 786.141732,1997.480315 z"
       style="fill:#000000;stroke:#000000;stroke-linecap:round;fill-opacity:1"
       id="path894" />
    <path
       d="M 1666.771654,2040.944882 A 7.559055,7.559055 0.0 0 1 1674.330709,2048.503937 L 1674.330709,2071.181102 A 7.559055,7.559055 0.0 0 1 1666.771654,2078.740157 L 1621.417323,2078.740157 A 7.559055,7.559055 0.0 0 1 1613.858268,2071.181102 L 1613.858268,2048.503937 A 7.559055,7.559055 0.0 0 1 1621.417323,2040.944882 L 1666.771654,2040.944882 z"
       style="fill:#000000;stroke:#000000;stroke-linecap:round;fill-opacity:1"
       id="path896" />
    <path
       d="M 1613.858268,1995.590551 A 7.559055,7.559055 0.0 0 1 1621.417323,1988.031496 L 1666.771654,1988.031496 A 7.559055,7.559055 0.0 0 1 1674.330709,1995.590551 L 1674.330709,2018.267717 A 7.559055,7.559055 0.0 0 1 1666.771654,2025.826772 L 1621.417323,2025.826772 A 7.559055,7.559055 0.0 0 1 1613.858268,2018.267717 L 1613.858268,1995.590551 z"
       style="fill:#000000;stroke:#000000;stroke-linecap:round;fill-opacity:1"
       id="path898" />
    <path
       d="M 937.322835,2245.039370 A 3.779528,3.779528 -0.000000 0 0 941.102362,2248.818898"
       style="fill:#000000;stroke:#000000;stroke-linecap:round;fill-opacity:1"
       id="path900" />
    <path
       d="M 1674.330709,2263.937008 A 7.559055,7.559055 0.0 0 1 1666.771654,2271.496063 L 1621.417323,2271.496063 A 7.559055,7.559055 0.0 0 1 1613.858268,2263.937008 L 1613.858268,2241.259843 A 7.559055,7.559055 0.0 0 1 1621.417323,2233.700787 L 1666.771654,2233.700787 A 7.559055,7.559055 0.0 0 1 1674.330709,2241.259843 L 1674.330709,2263.937008 z"
       style="fill:#000000;stroke:#000000;stroke-linecap:round;fill-opacity:1"
       id="path902" />
    <path
       d="M 1198.110236,2248.818898 A 3.779528,3.779528 -0.000000 0 0 1201.889764,2245.039370"
       style="fill:#000000;stroke:#000000;stroke-linecap:round;fill-opacity:1"
       id="path904" />
    <path
       d="M 1201.889764,2033.385827 A 3.779528,3.779528 -0.000000 0 0 1198.110236,2029.606299"
       style="fill:#000000;stroke:#000000;stroke-linecap:round;fill-opacity:1"
       id="path906" />
    <path
       d="M 1201.889764,2245.039370 1201.889764,2033.385827"
       style="fill:#000000;stroke:#000000;stroke-linecap:round;fill-opacity:1"
       id="path908" />
    <path
       d="M 937.322835,2033.385827 937.322835,2245.039370"
       style="fill:#000000;stroke:#000000;stroke-linecap:round;fill-opacity:1"
       id="path910" />
    <path
       d="M 941.102362,2029.606299 941.102362,2029.606299"
       style="fill:#000000;stroke:#000000;stroke-linecap:round;fill-opacity:1"
       id="path912" />
    <path
       d="M 944.881890,2033.385827 A 3.779528,3.779528 -0.000000 0 0 941.102362,2029.606299"
       style="fill:#000000;stroke:#000000;stroke-linecap:round;fill-opacity:1"
       id="path914" />
    <path
       d="M 944.881890,2245.039370 944.881890,2033.385827"
       style="fill:#000000;stroke:#000000;stroke-linecap:round;fill-opacity:1"
       id="path916" />
    <path
       d="M 668.976378,2241.259843 A 7.559055,7.559055 0.0 0 1 676.535433,2233.700787 L 721.889764,2233.700787 A 7.559055,7.559055 0.0 0 1 729.448819,2241.259843 L 729.448819,2263.937008 A 7.559055,7.559055 0.0 0 1 721.889764,2271.496063 L 676.535433,2271.496063 A 7.559055,7.559055 0.0 0 1 668.976378,2263.937008 L 668.976378,2241.259843 z"
       style="fill:#000000;stroke:#000000;stroke-linecap:round;fill-opacity:1"
       id="path918" />
    <path
       d="M 1198.110236,2248.818898 1198.110236,2248.818898"
       style="fill:#000000;stroke:#000000;stroke-linecap:round;fill-opacity:1"
       id="path920" />
    <path
       d="M 941.102362,2029.606299 A 3.779528,3.779528 -0.000000 0 0 937.322835,2033.385827"
       style="fill:#000000;stroke:#000000;stroke-linecap:round;fill-opacity:1"
       id="path922" />
    <path
       d="M 1213.228346,1897.322835 A 15.118110,15.118110 -0.000000 1 0 1182.992126,1897.322835 15.118110,15.118110 -0.000000 1 0 1213.228346,1897.322835 z"
       style="fill:#000000;stroke:#000000;stroke-linecap:round;fill-opacity:1"
       id="path924" />
    <path
       d="M 1302.047244,1536.377953 A 5.669291,5.669291 -0.000000 1 0 1290.708661,1536.377953 5.669291,5.669291 -0.000000 1 0 1302.047244,1536.377953 z"
       style="fill:#000000;stroke:#000000;stroke-linecap:round;fill-opacity:1"
       id="path926" />
    <path
       d="M 992.125984,1727.244094 A 5.669291,5.669291 -0.000000 1 0 980.787402,1727.244094 5.669291,5.669291 -0.000000 1 0 992.125984,1727.244094 z"
       style="fill:#000000;stroke:#000000;stroke-linecap:round;fill-opacity:1"
       id="path928" />
    <path
       d="M 1334.173228,2071.181102 A 15.118110,15.118110 -0.000000 1 0 1303.937008,2071.181102 15.118110,15.118110 -0.000000 1 0 1334.173228,2071.181102 z"
       style="fill:#000000;stroke:#000000;stroke-linecap:round;fill-opacity:1"
       id="path930" />
    <path
       d="M 1334.173228,1636.535433 A 15.118110,15.118110 -0.000000 1 0 1303.937008,1636.535433 15.118110,15.118110 -0.000000 1 0 1334.173228,1636.535433 z"
       style="fill:#000000;stroke:#000000;stroke-linecap:round;fill-opacity:1"
       id="path932" />
    <path
       d="M 827.716535,1447.559055 A 15.118110,15.118110 -0.000000 1 0 797.480315,1447.559055 15.118110,15.118110 -0.000000 1 0 827.716535,1447.559055 z"
       style="fill:#000000;stroke:#000000;stroke-linecap:round;fill-opacity:1"
       id="path934" />
    <path
       d="M 1772.615512,1447.348663 A 15.118110,15.118110 -0.000000 1 0 1742.379291,1447.348663 15.118110,15.118110 -0.000000 1 0 1772.615512,1447.348663 z"
       style="fill:#000000;stroke:#000000;stroke-linecap:round;fill-opacity:1"
       id="path936" />
    <path
       d="M 1103.742992,1976.708031 L 1103.742992,1988.046614 A 7.559055,7.559055 0.0 0 1 1096.183937,1995.605669 L 1043.270551,1995.605669 A 7.559055,7.559055 0.0 0 1 1035.711496,1988.046614 L 1035.711496,1976.708031 A 7.559055,7.559055 0.0 0 1 1043.270551,1969.148976 L 1096.183937,1969.148976 A 7.559055,7.559055 0.0 0 1 1103.742992,1976.708031 z"
       style="fill:#000000;stroke:#000000;stroke-linecap:round;fill-opacity:1"
       id="path938" />
    <path
       d="M 1250.241260,1707.957165 A 5.669291,5.669291 -0.000000 1 0 1238.902677,1707.957165 5.669291,5.669291 -0.000000 1 0 1250.241260,1707.957165 z"
       style="fill:#000000;stroke:#000000;stroke-linecap:round;fill-opacity:1"
       id="path940" />
    <path
       d="M 907.086614,1988.031496 L 907.086614,1976.692913 A 7.559055,7.559055 0.0 0 1 914.645669,1969.133858 L 967.559055,1969.133858 A 7.559055,7.559055 0.0 0 1 975.118110,1976.692913 L 975.118110,1988.031496 A 7.559055,7.559055 0.0 0 1 967.559055,1995.590551 L 914.645669,1995.590551 A 7.559055,7.559055 0.0 0 1 907.086614,1988.031496 z"
       style="fill:#000000;stroke:#000000;stroke-linecap:round;fill-opacity:1"
       id="path942" />
    <path
       d="M 992.125984,1746.141732 A 5.669291,5.669291 -0.000000 1 0 980.787402,1746.141732 5.669291,5.669291 -0.000000 1 0 992.125984,1746.141732 z"
       style="fill:#000000;stroke:#000000;stroke-linecap:round;fill-opacity:1"
       id="path944" />
    <path
       d="M 1347.401575,1517.480315 A 5.669291,5.669291 -0.000000 1 0 1336.062992,1517.480315 5.669291,5.669291 -0.000000 1 0 1347.401575,1517.480315 z"
       style="fill:#000000;stroke:#000000;stroke-linecap:round;fill-opacity:1"
       id="path946" />
    <path
       d="M 992.125984,1689.448819 A 5.669291,5.669291 -0.000000 1 0 980.787402,1689.448819 5.669291,5.669291 -0.000000 1 0 992.125984,1689.448819 z"
       style="fill:#000000;stroke:#000000;stroke-linecap:round;fill-opacity:1"
       id="path948" />
    <path
       d="M 676.535433,1988.031496 L 721.889764,1988.031496 A 7.559055,7.559055 0.0 0 1 729.448819,1995.590551 L 729.448819,2018.267717 A 7.559055,7.559055 0.0 0 1 721.889764,2025.826772 L 676.535433,2025.826772 A 7.559055,7.559055 0.0 0 1 668.976378,2018.267717 L 668.976378,1995.590551 A 7.559055,7.559055 0.0 0 1 676.535433,1988.031496 z"
       style="fill:#000000;stroke:#000000;stroke-linecap:round;fill-opacity:1"
       id="path950" />
    <path
       d="M 1302.047244,1441.889764 A 5.669291,5.669291 -0.000000 1 0 1290.708661,1441.889764 5.669291,5.669291 -0.000000 1 0 1302.047244,1441.889764 z"
       style="fill:#000000;stroke:#000000;stroke-linecap:round;fill-opacity:1"
       id="path952" />
    <path
       d="M 1084.724409,1379.527559 A 15.118110,15.118110 -0.000000 1 0 1054.488189,1379.527559 15.118110,15.118110 -0.000000 1 0 1084.724409,1379.527559 z"
       style="fill:#000000;stroke:#000000;stroke-linecap:round;fill-opacity:1"
       id="path954" />
    <path
       d="M 1250.241260,1651.264252 A 5.669291,5.669291 -0.000000 1 0 1238.902677,1651.264252 5.669291,5.669291 -0.000000 1 0 1250.241260,1651.264252 z"
       style="fill:#000000;stroke:#000000;stroke-linecap:round;fill-opacity:1"
       id="path956" />
    <path
       d="M 1347.401575,1536.377953 A 5.669291,5.669291 -0.000000 1 0 1336.062992,1536.377953 5.669291,5.669291 -0.000000 1 0 1347.401575,1536.377953 z"
       style="fill:#000000;stroke:#000000;stroke-linecap:round;fill-opacity:1"
       id="path958" />
    <path
       d="M 1121.646614,1670.400000 A 5.669291,5.669291 -0.000000 1 0 1110.308031,1670.400000 5.669291,5.669291 -0.000000 1 0 1121.646614,1670.400000 z"
       style="fill:#000000;stroke:#000000;stroke-linecap:round;fill-opacity:1"
       id="path960" />
    <path
       d="M 1121.646614,1689.297638 A 5.669291,5.669291 -0.000000 1 0 1110.308031,1689.297638 5.669291,5.669291 -0.000000 1 0 1121.646614,1689.297638 z"
       style="fill:#000000;stroke:#000000;stroke-linecap:round;fill-opacity:1"
       id="path962" />
    <path
       d="M 992.125984,1670.551181 A 5.669291,5.669291 -0.000000 1 0 980.787402,1670.551181 5.669291,5.669291 -0.000000 1 0 992.125984,1670.551181 z"
       style="fill:#000000;stroke:#000000;stroke-linecap:round;fill-opacity:1"
       id="path964" />
    <path
       d="M 1250.241260,1726.854803 A 5.669291,5.669291 -0.000000 1 0 1238.902677,1726.854803 5.669291,5.669291 -0.000000 1 0 1250.241260,1726.854803 z"
       style="fill:#000000;stroke:#000000;stroke-linecap:round;fill-opacity:1"
       id="path966" />
    <path
       d="M 1347.401575,1555.275591 A 5.669291,5.669291 -0.000000 1 0 1336.062992,1555.275591 5.669291,5.669291 -0.000000 1 0 1347.401575,1555.275591 z"
       style="fill:#000000;stroke:#000000;stroke-linecap:round;fill-opacity:1"
       id="path968" />
    <path
       d="M 1121.646614,1708.195276 A 5.669291,5.669291 -0.000000 1 0 1110.308031,1708.195276 5.669291,5.669291 -0.000000 1 0 1121.646614,1708.195276 z"
       style="fill:#000000;stroke:#000000;stroke-linecap:round;fill-opacity:1"
       id="path970" />
    <path
       d="M 1250.241260,1764.650079 A 5.669291,5.669291 -0.000000 1 0 1238.902677,1764.650079 5.669291,5.669291 -0.000000 1 0 1250.241260,1764.650079 z"
       style="fill:#000000;stroke:#000000;stroke-linecap:round;fill-opacity:1"
       id="path972" />
    <path
       d="M 1121.646614,1764.888189 A 5.669291,5.669291 -0.000000 1 0 1110.308031,1764.888189 5.669291,5.669291 -0.000000 1 0 1121.646614,1764.888189 z"
       style="fill:#000000;stroke:#000000;stroke-linecap:round;fill-opacity:1"
       id="path974" />
    <path
       d="M 992.125984,1632.755906 A 5.669291,5.669291 -0.000000 1 0 980.787402,1632.755906 5.669291,5.669291 -0.000000 1 0 992.125984,1632.755906 z"
       style="fill:#000000;stroke:#000000;stroke-linecap:round;fill-opacity:1"
       id="path976" />
    <path
       d="M 1347.401575,1479.685039 A 5.669291,5.669291 -0.000000 1 0 1336.062992,1479.685039 5.669291,5.669291 -0.000000 1 0 1347.401575,1479.685039 z"
       style="fill:#000000;stroke:#000000;stroke-linecap:round;fill-opacity:1"
       id="path978" />
    <path
       d="M 1250.241260,1745.752441 A 5.669291,5.669291 -0.000000 1 0 1238.902677,1745.752441 5.669291,5.669291 -0.000000 1 0 1250.241260,1745.752441 z"
       style="fill:#000000;stroke:#000000;stroke-linecap:round;fill-opacity:1"
       id="path980" />
    <path
       d="M 1302.047244,1574.173228 A 5.669291,5.669291 -0.000000 1 0 1290.708661,1574.173228 5.669291,5.669291 -0.000000 1 0 1302.047244,1574.173228 z"
       style="fill:#000000;stroke:#000000;stroke-linecap:round;fill-opacity:1"
       id="path982" />
    <path
       d="M 1347.401575,1441.889764 A 5.669291,5.669291 -0.000000 1 0 1336.062992,1441.889764 5.669291,5.669291 -0.000000 1 0 1347.401575,1441.889764 z"
       style="fill:#000000;stroke:#000000;stroke-linecap:round;fill-opacity:1"
       id="path984" />
    <path
       d="M 1250.241260,1689.059528 A 5.669291,5.669291 -0.000000 1 0 1238.902677,1689.059528 5.669291,5.669291 -0.000000 1 0 1250.241260,1689.059528 z"
       style="fill:#000000;stroke:#000000;stroke-linecap:round;fill-opacity:1"
       id="path986" />
    <path
       d="M 956.220472,1508.031496 A 15.118110,15.118110 -0.000000 1 0 925.984252,1508.031496 15.118110,15.118110 -0.000000 1 0 956.220472,1508.031496 z"
       style="fill:#000000;stroke:#000000;stroke-linecap:round;fill-opacity:1"
       id="path988" />
    <path
       d="M 1084.724409,1897.322835 A 15.118110,15.118110 -0.000000 1 0 1054.488189,1897.322835 15.118110,15.118110 -0.000000 1 0 1084.724409,1897.322835 z"
       style="fill:#000000;stroke:#000000;stroke-linecap:round;fill-opacity:1"
       id="path990" />
    <path
       d="M 1302.047244,1555.275591 A 5.669291,5.669291 -0.000000 1 0 1290.708661,1555.275591 5.669291,5.669291 -0.000000 1 0 1302.047244,1555.275591 z"
       style="fill:#000000;stroke:#000000;stroke-linecap:round;fill-opacity:1"
       id="path992" />
    <path
       d="M 1121.646614,1651.502362 A 5.669291,5.669291 -0.000000 1 0 1110.308031,1651.502362 5.669291,5.669291 -0.000000 1 0 1121.646614,1651.502362 z"
       style="fill:#000000;stroke:#000000;stroke-linecap:round;fill-opacity:1"
       id="path994" />
    <path
       d="M 1302.047244,1460.787402 A 5.669291,5.669291 -0.000000 1 0 1290.708661,1460.787402 5.669291,5.669291 -0.000000 1 0 1302.047244,1460.787402 z"
       style="fill:#000000;stroke:#000000;stroke-linecap:round;fill-opacity:1"
       id="path996" />
    <path
       d="M 1587.401575,1553.385827 A 15.118110,15.118110 -0.000000 0 0 1617.637795,1553.385827"
       style="fill:#000000;stroke:#000000;stroke-linecap:round;fill-opacity:1"
       id="path998" />
    <path
       d="M 1232.197795,1976.760945 L 1232.197795,1988.099528 A 7.559055,7.559055 0.0 0 1 1224.638740,1995.658583 L 1171.725354,1995.658583 A 7.559055,7.559055 0.0 0 1 1164.166299,1988.099528 L 1164.166299,1976.760945 A 7.559055,7.559055 0.0 0 1 1171.725354,1969.201890 L 1224.638740,1969.201890 A 7.559055,7.559055 0.0 0 1 1232.197795,1976.760945 z"
       style="fill:#000000;stroke:#000000;stroke-linecap:round;fill-opacity:1"
       id="path1000" />
    <path
       d="M 1347.401575,1574.173228 A 5.669291,5.669291 -0.000000 1 0 1336.062992,1574.173228 5.669291,5.669291 -0.000000 1 0 1347.401575,1574.173228 z"
       style="fill:#000000;stroke:#000000;stroke-linecap:round;fill-opacity:1"
       id="path1002" />
    <path
       d="M 1084.724409,1508.031496 A 15.118110,15.118110 -0.000000 1 0 1054.488189,1508.031496 15.118110,15.118110 -0.000000 1 0 1084.724409,1508.031496 z"
       style="fill:#000000;stroke:#000000;stroke-linecap:round;fill-opacity:1"
       id="path1004" />
    <path
       d="M 642.519685,1553.385827 A 15.118110,15.118110 -0.000000 0 0 672.755906,1553.385827"
       style="fill:#000000;stroke:#000000;stroke-linecap:round;fill-opacity:1"
       id="path1006" />
    <path
       d="M 1084.724409,1636.535433 A 15.118110,15.118110 -0.000000 1 0 1054.488189,1636.535433 15.118110,15.118110 -0.000000 1 0 1084.724409,1636.535433 z"
       style="fill:#000000;stroke:#000000;stroke-linecap:round;fill-opacity:1"
       id="path1008" />
    <path
       d="M 956.220472,1765.039370 A 15.118110,15.118110 -0.000000 1 0 925.984252,1765.039370 15.118110,15.118110 -0.000000 1 0 956.220472,1765.039370 z"
       style="fill:#000000;stroke:#000000;stroke-linecap:round;fill-opacity:1"
       id="path1010" />
    <path
       d="M 1302.047244,1517.480315 A 5.669291,5.669291 -0.000000 1 0 1290.708661,1517.480315 5.669291,5.669291 -0.000000 1 0 1302.047244,1517.480315 z"
       style="fill:#000000;stroke:#000000;stroke-linecap:round;fill-opacity:1"
       id="path1012" />
    <path
       d="M 1347.401575,1460.787402 A 5.669291,5.669291 -0.000000 1 0 1336.062992,1460.787402 5.669291,5.669291 -0.000000 1 0 1347.401575,1460.787402 z"
       style="fill:#000000;stroke:#000000;stroke-linecap:round;fill-opacity:1"
       id="path1014" />
    <path
       d="M 1213.228346,1508.031496 A 15.118110,15.118110 -0.000000 1 0 1182.992126,1508.031496 15.118110,15.118110 -0.000000 1 0 1213.228346,1508.031496 z"
       style="fill:#000000;stroke:#000000;stroke-linecap:round;fill-opacity:1"
       id="path1016" />
    <path
       d="M 672.755906,1553.385827 A 15.118110,15.118110 -0.000000 0 0 642.519685,1553.385827"
       style="fill:#000000;stroke:#000000;stroke-linecap:round;fill-opacity:1"
       id="path1018" />
    <path
       d="M 1250.241260,1670.161890 A 5.669291,5.669291 -0.000000 1 0 1238.902677,1670.161890 5.669291,5.669291 -0.000000 1 0 1250.241260,1670.161890 z"
       style="fill:#000000;stroke:#000000;stroke-linecap:round;fill-opacity:1"
       id="path1020" />
    <path
       d="M 1302.047244,1498.582677 A 5.669291,5.669291 -0.000000 1 0 1290.708661,1498.582677 5.669291,5.669291 -0.000000 1 0 1302.047244,1498.582677 z"
       style="fill:#000000;stroke:#000000;stroke-linecap:round;fill-opacity:1"
       id="path1022" />
    <path
       d="M 1347.401575,1498.582677 A 5.669291,5.669291 -0.000000 1 0 1336.062992,1498.582677 5.669291,5.669291 -0.000000 1 0 1347.401575,1498.582677 z"
       style="fill:#000000;stroke:#000000;stroke-linecap:round;fill-opacity:1"
       id="path1024" />
    <path
       d="M 672.755906,1447.559055 A 15.118110,15.118110 -0.000000 1 0 642.519685,1447.559055 15.118110,15.118110 -0.000000 1 0 672.755906,1447.559055 z"
       style="fill:#000000;stroke:#000000;stroke-linecap:round;fill-opacity:1"
       id="path1026" />
    <path
       d="M 1617.654882,1447.348663 A 15.118110,15.118110 -0.000000 1 0 1587.418661,1447.348663 15.118110,15.118110 -0.000000 1 0 1617.654882,1447.348663 z"
       style="fill:#000000;stroke:#000000;stroke-linecap:round;fill-opacity:1"
       id="path1028" />
    <path
       d="M 1121.646614,1745.990551 A 5.669291,5.669291 -0.000000 1 0 1110.308031,1745.990551 5.669291,5.669291 -0.000000 1 0 1121.646614,1745.990551 z"
       style="fill:#000000;stroke:#000000;stroke-linecap:round;fill-opacity:1"
       id="path1030" />
    <path
       d="M 1532.598425,2194.015748 A 47.244094,47.244094 -0.000000 1 0 1438.110236,2194.015748 47.244094,47.244094 -0.000000 1 0 1532.598425,2194.015748 z"
       style="fill:#000000;stroke:#000000;stroke-linecap:round;fill-opacity:1"
       id="path1032" />
    <path
       d="M 540.563150,1704.884409 A 7.559055,7.559055 0.0 0 1 548.122205,1712.443465 L 548.122205,1757.797795 A 7.559055,7.559055 0.0 0 1 540.563150,1765.356850 L 495.208819,1765.356850 A 7.559055,7.559055 0.0 0 1 487.649764,1757.797795 L 487.649764,1712.443465 A 7.559055,7.559055 0.0 0 1 495.208819,1704.884409 L 540.563150,1704.884409 z"
       style="fill:#000000;stroke:#000000;stroke-linecap:round;fill-opacity:1"
       id="path1034" />
    <path
       d="M 992.125984,1651.653543 A 5.669291,5.669291 -0.000000 1 0 980.787402,1651.653543 5.669291,5.669291 -0.000000 1 0 992.125984,1651.653543 z"
       style="fill:#000000;stroke:#000000;stroke-linecap:round;fill-opacity:1"
       id="path1036" />
    <path
       d="M 1441.747818,1704.824134 L 1487.102149,1704.824134 A 7.559055,7.559055 0.0 0 1 1494.661204,1712.383189 L 1494.661204,1757.737520 A 7.559055,7.559055 0.0 0 1 1487.102149,1765.296575 L 1441.747818,1765.296575 A 7.559055,7.559055 0.0 0 1 1434.188763,1757.737520 L 1434.188763,1712.383189 A 7.559055,7.559055 0.0 0 1 1441.747818,1704.824134 z"
       style="fill:#000000;stroke:#000000;stroke-linecap:round;fill-opacity:1"
       id="path1038" />
    <path
       d="M 1250.241260,1632.366614 A 5.669291,5.669291 -0.000000 1 0 1238.902677,1632.366614 5.669291,5.669291 -0.000000 1 0 1250.241260,1632.366614 z"
       style="fill:#000000;stroke:#000000;stroke-linecap:round;fill-opacity:1"
       id="path1040" />
    <path
       d="M 1121.646614,1632.604724 A 5.669291,5.669291 -0.000000 1 0 1110.308031,1632.604724 5.669291,5.669291 -0.000000 1 0 1121.646614,1632.604724 z"
       style="fill:#000000;stroke:#000000;stroke-linecap:round;fill-opacity:1"
       id="path1042" />
    <path
       d="M 676.535433,2040.944882 L 721.889764,2040.944882 A 7.559055,7.559055 0.0 0 1 729.448819,2048.503937 L 729.448819,2071.181102 A 7.559055,7.559055 0.0 0 1 721.889764,2078.740157 L 676.535433,2078.740157 A 7.559055,7.559055 0.0 0 1 668.976378,2071.181102 L 668.976378,2048.503937 A 7.559055,7.559055 0.0 0 1 676.535433,2040.944882 z"
       style="fill:#000000;stroke:#000000;stroke-linecap:round;fill-opacity:1"
       id="path1044" />
    <path
       d="M 992.125984,1708.346457 A 5.669291,5.669291 -0.000000 1 0 980.787402,1708.346457 5.669291,5.669291 -0.000000 1 0 992.125984,1708.346457 z"
       style="fill:#000000;stroke:#000000;stroke-linecap:round;fill-opacity:1"
       id="path1046" />
    <path
       d="M 1532.598425,2080.629921 A 47.244094,47.244094 -0.000000 1 0 1438.110236,2080.629921 47.244094,47.244094 -0.000000 1 0 1532.598425,2080.629921 z"
       style="fill:#000000;stroke:#000000;stroke-linecap:round;fill-opacity:1"
       id="path1048" />
    <path
       d="M 956.220472,1636.535433 A 15.118110,15.118110 -0.000000 1 0 925.984252,1636.535433 15.118110,15.118110 -0.000000 1 0 956.220472,1636.535433 z"
       style="fill:#000000;stroke:#000000;stroke-linecap:round;fill-opacity:1"
       id="path1050" />
    <path
       d="M 1617.637795,1553.385827 A 15.118110,15.118110 -0.000000 0 0 1587.401575,1553.385827"
       style="fill:#000000;stroke:#000000;stroke-linecap:round;fill-opacity:1"
       id="path1052" />
    <path
       d="M 1581.590338,1765.296575 L 1536.236007,1765.296575 A 7.559055,7.559055 0.0 0 1 1528.676952,1757.737520 L 1528.676952,1712.383189 A 7.559055,7.559055 0.0 0 1 1536.236007,1704.824134 L 1581.590338,1704.824134 A 7.559055,7.559055 0.0 0 1 1589.149393,1712.383189 L 1589.149393,1757.737520 A 7.559055,7.559055 0.0 0 1 1581.590338,1765.296575 z"
       style="fill:#000000;stroke:#000000;stroke-linecap:round;fill-opacity:1"
       id="path1054" />
    <path
       d="M 956.220472,1897.322835 A 15.118110,15.118110 -0.000000 1 0 925.984252,1897.322835 15.118110,15.118110 -0.000000 1 0 956.220472,1897.322835 z"
       style="fill:#000000;stroke:#000000;stroke-linecap:round;fill-opacity:1"
       id="path1056" />
    <path
       d="M 635.051339,1704.884409 A 7.559055,7.559055 0.0 0 1 642.610394,1712.443465 L 642.610394,1757.797795 A 7.559055,7.559055 0.0 0 1 635.051339,1765.356850 L 589.697008,1765.356850 A 7.559055,7.559055 0.0 0 1 582.137953,1757.797795 L 582.137953,1712.443465 A 7.559055,7.559055 0.0 0 1 589.697008,1704.884409 L 635.051339,1704.884409 z"
       style="fill:#000000;stroke:#000000;stroke-linecap:round;fill-opacity:1"
       id="path1058" />
    <path
       d="M 956.220472,1379.527559 A 15.118110,15.118110 -0.000000 1 0 925.984252,1379.527559 15.118110,15.118110 -0.000000 1 0 956.220472,1379.527559 z"
       style="fill:#000000;stroke:#000000;stroke-linecap:round;fill-opacity:1"
       id="path1060" />
    <path
       d="M 1302.047244,1479.685039 A 5.669291,5.669291 -0.000000 1 0 1290.708661,1479.685039 5.669291,5.669291 -0.000000 1 0 1302.047244,1479.685039 z"
       style="fill:#000000;stroke:#000000;stroke-linecap:round;fill-opacity:1"
       id="path1062" />
    <path
       d="M 514.015748,1447.559055 A 15.118110,15.118110 -0.000000 1 0 483.779528,1447.559055 15.118110,15.118110 -0.000000 1 0 514.015748,1447.559055 z"
       style="fill:#000000;stroke:#000000;stroke-linecap:round;fill-opacity:1"
       id="path1064" />
    <path
       d="M 1458.914724,1447.348663 A 15.118110,15.118110 -0.000000 1 0 1428.678504,1447.348663 15.118110,15.118110 -0.000000 1 0 1458.914724,1447.348663 z"
       style="fill:#000000;stroke:#000000;stroke-linecap:round;fill-opacity:1"
       id="path1066" />
    <path
       d="M 992.125984,1765.039370 A 5.669291,5.669291 -0.000000 1 0 980.787402,1765.039370 5.669291,5.669291 -0.000000 1 0 992.125984,1765.039370 z"
       style="fill:#000000;stroke:#000000;stroke-linecap:round;fill-opacity:1"
       id="path1068" />
    <path
       d="M 587.716535,2194.015748 A 47.244094,47.244094 -0.000000 1 0 493.228346,2194.015748 47.244094,47.244094 -0.000000 1 0 587.716535,2194.015748 z"
       style="fill:#000000;stroke:#000000;stroke-linecap:round;fill-opacity:1"
       id="path1070" />
    <path
       d="M 1334.173228,2195.905512 A 15.118110,15.118110 -0.000000 1 0 1303.937008,2195.905512 15.118110,15.118110 -0.000000 1 0 1334.173228,2195.905512 z"
       style="fill:#000000;stroke:#000000;stroke-linecap:round;fill-opacity:1"
       id="path1072" />
    <path
       d="M 1213.228346,1636.535433 A 15.118110,15.118110 -0.000000 1 0 1182.992126,1636.535433 15.118110,15.118110 -0.000000 1 0 1213.228346,1636.535433 z"
       style="fill:#000000;stroke:#000000;stroke-linecap:round;fill-opacity:1"
       id="path1074" />
    <path
       d="M 1213.228346,1765.039370 A 15.118110,15.118110 -0.000000 1 0 1182.992126,1765.039370 15.118110,15.118110 -0.000000 1 0 1213.228346,1765.039370 z"
       style="fill:#000000;stroke:#000000;stroke-linecap:round;fill-opacity:1"
       id="path1076" />
    <path
       d="M 1084.724409,1765.039370 A 15.118110,15.118110 -0.000000 1 0 1054.488189,1765.039370 15.118110,15.118110 -0.000000 1 0 1084.724409,1765.039370 z"
       style="fill:#000000;stroke:#000000;stroke-linecap:round;fill-opacity:1"
       id="path1078" />
    <path
       d="M 1121.646614,1727.092913 A 5.669291,5.669291 -0.000000 1 0 1110.308031,1727.092913 5.669291,5.669291 -0.000000 1 0 1121.646614,1727.092913 z"
       style="fill:#000000;stroke:#000000;stroke-linecap:round;fill-opacity:1"
       id="path1080" />
    <path
       d="M 587.716535,2080.629921 A 47.244094,47.244094 -0.000000 1 0 493.228346,2080.629921 47.244094,47.244094 -0.000000 1 0 587.716535,2080.629921 z"
       style="fill:#000000;stroke:#000000;stroke-linecap:round;fill-opacity:1"
       id="path1082" />
    <path
       d="M 1213.228346,1379.527559 A 15.118110,15.118110 -0.000000 1 0 1182.992126,1379.527559 15.118110,15.118110 -0.000000 1 0 1213.228346,1379.527559 z"
       style="fill:#000000;stroke:#000000;stroke-linecap:round;fill-opacity:1"
       id="path1084" />
    <path
       d="M 1770.566716,1765.296575 L 1725.212385,1765.296575 A 7.559055,7.559055 0.0 0 1 1717.653330,1757.737520 L 1717.653330,1712.383189 A 7.559055,7.559055 0.0 0 1 1725.212385,1704.824134 L 1770.566716,1704.824134 A 7.559055,7.559055 0.0 0 1 1778.125771,1712.383189 L 1778.125771,1757.737520 A 7.559055,7.559055 0.0 0 1 1770.566716,1765.296575 z"
       style="fill:#000000;stroke:#000000;stroke-linecap:round;fill-opacity:1"
       id="path1086" />
    <path
       d="M 737.098583,1806.931654 L 737.098583,1852.285984 A 7.559055,7.559055 0.0 0 1 729.539528,1859.845039 L 684.185197,1859.845039 A 7.559055,7.559055 0.0 0 1 676.626142,1852.285984 L 676.626142,1806.931654 A 7.559055,7.559055 0.0 0 1 684.185197,1799.372598 L 729.539528,1799.372598 A 7.559055,7.559055 0.0 0 1 737.098583,1806.931654 z"
       style="fill:#000000;stroke:#000000;stroke-linecap:round;fill-opacity:1"
       id="path1088" />
    <path
       d="M 1676.078527,1799.312323 A 7.559055,7.559055 0.0 0 1 1683.637582,1806.871378 L 1683.637582,1852.225709 A 7.559055,7.559055 0.0 0 1 1676.078527,1859.784764 L 1630.724196,1859.784764 A 7.559055,7.559055 0.0 0 1 1623.165141,1852.225709 L 1623.165141,1806.871378 A 7.559055,7.559055 0.0 0 1 1630.724196,1799.312323 L 1676.078527,1799.312323 z"
       style="fill:#000000;stroke:#000000;stroke-linecap:round;fill-opacity:1"
       id="path1090" />
    <path
       d="M 684.185197,1765.356850 A 7.559055,7.559055 0.0 0 1 676.626142,1757.797795 L 676.626142,1712.443465 A 7.559055,7.559055 0.0 0 1 684.185197,1704.884409 L 729.539528,1704.884409 A 7.559055,7.559055 0.0 0 1 737.098583,1712.443465 L 737.098583,1757.797795 A 7.559055,7.559055 0.0 0 1 729.539528,1765.356850 L 684.185197,1765.356850 z"
       style="fill:#000000;stroke:#000000;stroke-linecap:round;fill-opacity:1"
       id="path1092" />
    <path
       d="M 831.586772,1806.931654 L 831.586772,1852.285984 A 7.559055,7.559055 0.0 0 1 824.027717,1859.845039 L 778.673386,1859.845039 A 7.559055,7.559055 0.0 0 1 771.114331,1852.285984 L 771.114331,1806.931654 A 7.559055,7.559055 0.0 0 1 778.673386,1799.372598 L 824.027717,1799.372598 A 7.559055,7.559055 0.0 0 1 831.586772,1806.931654 z"
       style="fill:#000000;stroke:#000000;stroke-linecap:round;fill-opacity:1"
       id="path1094" />
    <path
       d="M 1623.165141,1712.383189 A 7.559055,7.559055 0.0 0 1 1630.724196,1704.824134 L 1676.078527,1704.824134 A 7.559055,7.559055 0.0 0 1 1683.637582,1712.383189 L 1683.637582,1757.737520 A 7.559055,7.559055 0.0 0 1 1676.078527,1765.296575 L 1630.724196,1765.296575 A 7.559055,7.559055 0.0 0 1 1623.165141,1757.737520 L 1623.165141,1712.383189 z"
       style="fill:#000000;stroke:#000000;stroke-linecap:round;fill-opacity:1"
       id="path1096" />
    <path
       d="M 824.027717,1704.884409 A 7.559055,7.559055 0.0 0 1 831.586772,1712.443465 L 831.586772,1757.797795 A 7.559055,7.559055 0.0 0 1 824.027717,1765.356850 L 778.673386,1765.356850 A 7.559055,7.559055 0.0 0 1 771.114331,1757.797795 L 771.114331,1712.443465 A 7.559055,7.559055 0.0 0 1 778.673386,1704.884409 L 824.027717,1704.884409 z"
       style="fill:#000000;stroke:#000000;stroke-linecap:round;fill-opacity:1"
       id="path1098" />
    <path
       d="M 1717.653330,1852.225709 L 1717.653330,1806.871378 A 7.559055,7.559055 0.0 0 1 1725.212385,1799.312323 L 1770.566716,1799.312323 A 7.559055,7.559055 0.0 0 1 1778.125771,1806.871378 L 1778.125771,1852.225709 A 7.559055,7.559055 0.0 0 1 1770.566716,1859.784764 L 1725.212385,1859.784764 A 7.559055,7.559055 0.0 0 1 1717.653330,1852.225709 z"
       style="fill:#000000;stroke:#000000;stroke-linecap:round;fill-opacity:1"
       id="path1100" />
    <path
       d="M 1528.676952,1806.871378 A 7.559055,7.559055 0.0 0 1 1536.236007,1799.312323 L 1581.590338,1799.312323 A 7.559055,7.559055 0.0 0 1 1589.149393,1806.871378 L 1589.149393,1852.225709 A 7.559055,7.559055 0.0 0 1 1581.590338,1859.784764 L 1536.236007,1859.784764 A 7.559055,7.559055 0.0 0 1 1528.676952,1852.225709 L 1528.676952,1806.871378 z"
       style="fill:#000000;stroke:#000000;stroke-linecap:round;fill-opacity:1"
       id="path1102" />
    <path
       d="M 642.610394,1806.931654 L 642.610394,1852.285984 A 7.559055,7.559055 0.0 0 1 635.051339,1859.845039 L 589.697008,1859.845039 A 7.559055,7.559055 0.0 0 1 582.137953,1852.285984 L 582.137953,1806.931654 A 7.559055,7.559055 0.0 0 1 589.697008,1799.372598 L 635.051339,1799.372598 A 7.559055,7.559055 0.0 0 1 642.610394,1806.931654 z"
       style="fill:#000000;stroke:#000000;stroke-linecap:round;fill-opacity:1"
       id="path1104" />
    <path
       d="M 1441.747818,1859.784764 A 7.559055,7.559055 0.0 0 1 1434.188763,1852.225709 L 1434.188763,1806.871378 A 7.559055,7.559055 0.0 0 1 1441.747818,1799.312323 L 1487.102149,1799.312323 A 7.559055,7.559055 0.0 0 1 1494.661204,1806.871378 L 1494.661204,1852.225709 A 7.559055,7.559055 0.0 0 1 1487.102149,1859.784764 L 1441.747818,1859.784764 z"
       style="fill:#000000;stroke:#000000;stroke-linecap:round;fill-opacity:1"
       id="path1106" />
    <path
       d="M 1353.070866,1929.448819 A 7.559055,7.559055 0.0 0 1 1345.511811,1937.007874 L 1292.598425,1937.007874 A 7.559055,7.559055 0.0 0 1 1285.039370,1929.448819 L 1285.039370,1865.196850 A 7.559055,7.559055 0.0 0 1 1292.598425,1857.637795 L 1345.511811,1857.637795 A 7.559055,7.559055 0.0 0 1 1353.070866,1865.196850 L 1353.070866,1929.448819 z"
       style="fill:#000000;stroke:#000000;stroke-linecap:round;fill-opacity:1"
       id="path1108" />
    <path
       d="M 495.208819,1799.372598 L 540.563150,1799.372598 A 7.559055,7.559055 0.0 0 1 548.122205,1806.931654 L 548.122205,1852.285984 A 7.559055,7.559055 0.0 0 1 540.563150,1859.845039 L 495.208819,1859.845039 A 7.559055,7.559055 0.0 0 1 487.649764,1852.285984 L 487.649764,1806.931654 A 7.559055,7.559055 0.0 0 1 495.208819,1799.372598 z"
       style="fill:#000000;stroke:#000000;stroke-linecap:round;fill-opacity:1"
       id="path1110" />
    <path
       d="M 411.968003,2316.808389 L 411.432917,1296.088976 L 1848.192777,1296.377953 L 1851.968532,2316.850411 L 411.968003,2316.808389 z"
       style="fill:none;stroke:#000000;stroke-linecap: round"
       id="path1112" />
    <path
       d="M 782.362205,2258.267717 782.362205,2001.259843"
       style="fill:#000000;stroke:#000000;stroke-linecap:round;fill-opacity:1"
       id="path1114" />
    <path
       d="M 1065.826772,2033.385827 1065.826772,2245.039370"
       style="fill:#000000;stroke:#000000;stroke-linecap:round;fill-opacity:1"
       id="path1116" />
    <path
       d="M 1734.803150,2001.259843 1734.803150,2258.267717"
       style="fill:#000000;stroke:#000000;stroke-linecap:round;fill-opacity:1"
       id="path1118" />
  </g>
  <desc
     id="desc1122">top-enclosure.dxf - scale = 1.000000, origin = (0.000000, 0.000000), method = manual</desc>
</svg>
