999
dxflib 3.17.0.0
  0
SECTION
  2
HEADER
  9
$ACADVER
  1
AC1015
  9
$HANDSEED
  5
FFFF
  9
$ANGBASE
 50
0.0
  9
$ANGDIR
 70
1
  9
$ATTMODE
 70
0
  9
$AUNITS
 70
0
  9
$AUPREC
 70
2
  9
$CECOLOR
 62
256
  9
$CELTSCALE
 40
1.0
  9
$CHAMFERA
 40
0.0
  9
$CHAMFERB
 40
0.0
  9
$CHAMFERC
 40
0.0
  9
$CHAMFERD
 40
0.0
  9
$CMLJUST
 70
0
  9
$CMLSCALE
 40
20.0
  9
$DIMADEC
 70
0
  9
$DIMALT
 70
0
  9
$DIMALTD
 70
3
  9
$DIMALTF
 40
0.03937
  9
$DIMALTRND
 40
0.0
  9
$DIMALTTD
 70
3
  9
$DIMALTTZ
 70
0
  9
$DIMALTU
 70
2
  9
$DIMALTZ
 70
0
  9
$DIMAPOST
  1

  9
$DIMASZ
 40
2.5
  9
$DIMATFIT
 70
3
  9
$DIMAUNIT
 70
0
  9
$DIMAZIN
 70
0
  9
$DIMBLK
  1

  9
$DIMBLK1
  1

  9
$DIMBLK2
  1

  9
$DIMCEN
 40
2.5
  9
$DIMCLRD
 70
0
  9
$DIMCLRE
 70
0
  9
$DIMDEC
 70
2
  9
$DIMDLE
 40
0.0
  9
$DIMDLI
 40
3.75
  9
$DIMDSEP
 70
44
  9
$DIMEXE
 40
1.25
  9
$DIMEXO
 40
0.625
  9
$DIMFRAC
 70
0
  9
$DIMGAP
 40
0.625
  9
$DIMJUST
 70
0
  9
$DIMLDRBLK
  1
STANDARD
  9
$DIMLFAC
 40
1.0
  9
$DIMLIM
 70
0
  9
$DIMLUNIT
 70
2
  9
$DIMLWD
 70
-2
  9
$DIMLWE
 70
-2
  9
$DIMPOST
  1

  9
$DIMRND
 40
0.0
  9
$DIMSAH
 70
0
  9
$DIMSCALE
 40
2.5
  9
$DIMSD1
 70
0
  9
$DIMSD2
 70
0
  9
$DIMSE1
 70
0
  9
$DIMSE2
 70
0
  9
$DIMSOXD
 70
0
  9
$DIMTAD
 70
1
  9
$DIMTDEC
 70
2
  9
$DIMTFAC
 40
1.0
  9
$DIMTIH
 70
0
  9
$DIMTIX
 70
0
  9
$DIMTM
 40
0.0
  9
$DIMTOFL
 70
1
  9
$DIMTOH
 70
0
  9
$DIMTOL
 70
0
  9
$DIMTOLJ
 70
0
  9
$DIMTP
 40
0.0
  9
$DIMTSZ
 40
0.0
  9
$DIMTVP
 40
0.0
  9
$DIMTXSTY
  7
STANDARD
  9
$DIMTXT
 40
2.5
  9
$DIMTZIN
 70
8
  9
$DIMUPT
 70
0
  9
$DIMZIN
 70
8
  9
$DISPSILH
 70
0
  9
$DWGCODEPAGE
  3
ANSI_1252
  9
$ELEVATION
 40
0.0
  9
$EXTMAX
 10
479.0
 20
-51.0
 30
0.0
  9
$EXTMIN
 10
119.0
 20
-311.0
 30
0.0
  9
$FILLETRAD
 40
0.0
  9
$FILLMODE
 70
1
  9
$INSBASE
 10
0.0
 20
0.0
 30
0.0
  9
$INSUNITS
 70
4
  9
$LIMCHECK
 70
0
  9
$LIMMAX
 10
420.0
 20
297.0
  9
$LIMMIN
 10
0.0
 20
0.0
  9
$LTSCALE
 40
1.0
  9
$LUNITS
 70
2
  9
$LUPREC
 70
4
  9
$MAXACTVP
 70
64
  9
$MEASUREMENT
 70
1
  9
$MIRRTEXT
 70
0
  9
$ORTHOMODE
 70
0
  9
$PDMODE
 70
34
  9
$PDSIZE
 40
0.0
  9
$PELEVATION
 40
0.0
  9
$PEXTMAX
 10
0.0
 20
0.0
 30
0.0
  9
$PEXTMIN
 10
0.0
 20
0.0
 30
0.0
  9
$PINSBASE
 10
0.0
 20
0.0
 30
0.0
  9
$PLIMCHECK
 70
0
  9
$PLIMMAX
 10
210.0
 20
297.0
  9
$PLIMMIN
 10
0.0
 20
0.0
  9
$PLINEGEN
 70
0
  9
$PLINEWID
 40
0.0
  9
$PROXYGRAPHICS
 70
1
  9
$PSLTSCALE
 70
1
  9
$PUCSNAME
  2

  9
$PUCSORG
 10
0.0
 20
0.0
 30
0.0
  9
$PUCSXDIR
 10
1.0
 20
0.0
 30
0.0
  9
$PUCSYDIR
 10
0.0
 20
1.0
 30
0.0
  9
$QTEXTMODE
 70
0
  9
$REGENMODE
 70
1
  9
$SHADEDGE
 70
3
  9
$SHADEDIF
 70
70
  9
$SKETCHINC
 40
1.0
  9
$SKPOLY
 70
0
  9
$SPLFRAME
 70
0
  9
$SPLINESEGS
 70
8
  9
$SPLINETYPE
 70
2
  9
$SURFTAB1
 70
6
  9
$SURFTAB2
 70
6
  9
$SURFTYPE
 70
6
  9
$SURFU
 70
6
  9
$SURFV
 70
6
  9
$TEXTSIZE
 40
2.5
  9
$TEXTSTYLE
  7
STANDARD
  9
$THICKNESS
 40
0.0
  9
$TILEMODE
 70
1
  9
$TRACEWID
 40
15.6799999999999997
  9
$TREEDEPTH
 70
3020
  9
$UCSNAME
  2

  9
$UCSORG
 10
0.0
 20
0.0
 30
0.0
  9
$UCSXDIR
 10
1.0
 20
0.0
 30
0.0
  9
$UCSYDIR
 10
0.0
 20
1.0
 30
0.0
  9
$UNITMODE
 70
0
  9
$USERI1
 70
0
  9
$USERI2
 70
0
  9
$USERI3
 70
0
  9
$USERI4
 70
0
  9
$USERI5
 70
0
  9
$USERR1
 40
0.0
  9
$USERR2
 40
0.0
  9
$USERR3
 40
0.0
  9
$USERR4
 40
0.0
  9
$USERR5
 40
0.0
  9
$USRTIMER
 70
1
  9
$VISRETAIN
 70
1
  0
ENDSEC
  0
SECTION
  2
TABLES
  0
TABLE
  2
VPORT
  5
8
100
AcDbSymbolTable
 70
1
  0
VPORT
  5
30
100
AcDbSymbolTableRecord
100
AcDbViewportTableRecord
  2
*Active
 70
0
 10
0.0
 20
0.0
 11
1.0
 21
1.0
 12
286.3055555555554861
 22
148.5
 13
0.0
 23
0.0
 14
10.0
 24
10.0
 15
10.0
 25
10.0
 16
0.0
 26
0.0
 36
1.0
 17
0.0
 27
0.0
 37
0.0
 40
297.0
 41
1.92798353909465
 42
50.0
 43
0.0
 44
0.0
 50
0.0
 51
0.0
 71
0
 72
100
 73
1
 74
3
 75
1
 76
1
 77
0
 78
0
281
0
 65
1
110
0.0
120
0.0
130
0.0
111
1.0
121
0.0
131
0.0
112
0.0
122
1.0
132
0.0
 79
0
146
0.0
  0
ENDTAB
  0
TABLE
  2
LTYPE
  5
5
100
AcDbSymbolTable
 70
47
  0
LTYPE
  5
16
100
AcDbSymbolTableRecord
100
AcDbLinetypeTableRecord
  2
Continuous
 70
0
  3
Solid line
 72
65
 73
0
 40
0.0
  0
LTYPE
  5
31
100
AcDbSymbolTableRecord
100
AcDbLinetypeTableRecord
  2
DIVIDEX2
 70
0
  3
Divide (2x) ________  .  .  ________  .  .  _
 72
65
 73
6
 40
63.5
 49
25.3999999999999986
 74
0
 49
-12.6499999999999986
 74
0
 49
0.1
 74
0
 49
-12.5999999999999979
 74
0
 49
0.1
 74
0
 49
-12.6499999999999986
 74
0
  0
LTYPE
  5
32
100
AcDbSymbolTableRecord
100
AcDbLinetypeTableRecord
  2
ACAD_ISO04W100
 70
0
  3
ISO long-dash dot ____ . ____ . ____ . ____ . _
 72
65
 73
4
 40
30.0
 49
24.0
 74
0
 49
-3.0
 74
0
 49
0.0
 74
0
 49
-3.0
 74
0
  0
LTYPE
  5
33
100
AcDbSymbolTableRecord
100
AcDbLinetypeTableRecord
  2
DIVIDETINY
 70
0
  3
Divide (.15x) __..__..__..__..__..__..__..__.._
 72
65
 73
6
 40
4.7625000000000002
 49
1.905
 74
0
 49
-0.9025
 74
0
 49
0.1
 74
0
 49
-0.8524999999999999
 74
0
 49
0.1
 74
0
 49
-0.9025
 74
0
  0
LTYPE
  5
14
100
AcDbSymbolTableRecord
100
AcDbLinetypeTableRecord
  2
ByBlock
 70
0
  3

 72
65
 73
0
 40
0.0
  0
LTYPE
  5
34
100
AcDbSymbolTableRecord
100
AcDbLinetypeTableRecord
  2
DOTTINY
 70
0
  3
Dot (.15x) .....................................
 72
65
 73
2
 40
0.9525
 49
0.1
 74
0
 49
-0.8525
 74
0
  0
LTYPE
  5
35
100
AcDbSymbolTableRecord
100
AcDbLinetypeTableRecord
  2
ACAD_ISO11W100
 70
0
  3
ISO double-dash dot __ __ . __ __ . __ __ . __ _
 72
65
 73
6
 40
33.0
 49
12.0
 74
0
 49
-3.0
 74
0
 49
12.0
 74
0
 49
-3.0
 74
0
 49
0.0
 74
0
 49
-3.0
 74
0
  0
LTYPE
  5
36
100
AcDbSymbolTableRecord
100
AcDbLinetypeTableRecord
  2
ACAD_ISO09W100
 70
0
  3
ISO long-dash double-short-dash ____ __ __ ____
 72
65
 73
6
 40
45.0
 49
24.0
 74
0
 49
-3.0
 74
0
 49
6.0
 74
0
 49
-3.0
 74
0
 49
6.0
 74
0
 49
-3.0
 74
0
  0
LTYPE
  5
37
100
AcDbSymbolTableRecord
100
AcDbLinetypeTableRecord
  2
ACAD_ISO02W100
 70
0
  3
ISO dash __ __ __ __ __ __ __ __ __ __ __ __ __
 72
65
 73
2
 40
15.0
 49
12.0
 74
0
 49
-3.0
 74
0
  0
LTYPE
  5
38
100
AcDbSymbolTableRecord
100
AcDbLinetypeTableRecord
  2
ACAD_ISO05W100
 70
0
  3
ISO long-dash double-dot ____ .. ____ .. ____ . 
 72
65
 73
6
 40
33.0
 49
24.0
 74
0
 49
-3.0
 74
0
 49
0.0
 74
0
 49
-3.0
 74
0
 49
0.0
 74
0
 49
-3.0
 74
0
  0
LTYPE
  5
39
100
AcDbSymbolTableRecord
100
AcDbLinetypeTableRecord
  2
CENTERTINY
 70
0
  3
Center (.15x) ___ _ ___ _ ___ _ ___ _ ___ _ ___
 72
65
 73
4
 40
7.6199999999999992
 49
4.7625000000000002
 74
0
 49
-0.9525
 74
0
 49
0.9525
 74
0
 49
-0.9525
 74
0
  0
LTYPE
  5
3A
100
AcDbSymbolTableRecord
100
AcDbLinetypeTableRecord
  2
HIDDEN2
 70
0
  3
Hidden (.5x) _ _ _ _ _ _ _ _ _ _ _ _ _ _ _ _ _ 
 72
65
 73
2
 40
4.7624999999999993
 49
3.1749999999999998
 74
0
 49
-1.5874999999999999
 74
0
  0
LTYPE
  5
3B
100
AcDbSymbolTableRecord
100
AcDbLinetypeTableRecord
  2
ACAD_ISO07W100
 70
0
  3
ISO dot . . . . . . . . . . . . . . . . . . . . 
 72
65
 73
2
 40
3.0
 49
0.0
 74
0
 49
-3.0
 74
0
  0
LTYPE
  5
3C
100
AcDbSymbolTableRecord
100
AcDbLinetypeTableRecord
  2
CENTER
 70
0
  3
Center ____ _ ____ _ ____ _ ____ _ ____ _ ____
 72
65
 73
4
 40
50.8000000000000043
 49
31.75
 74
0
 49
-6.3499999999999996
 74
0
 49
6.3499999999999996
 74
0
 49
-6.3499999999999996
 74
0
  0
LTYPE
  5
3D
100
AcDbSymbolTableRecord
100
AcDbLinetypeTableRecord
  2
BORDERTINY
 70
0
  3
Border (.15x) __.__.__.__.__.__.__.__.__.__.__.
 72
65
 73
6
 40
6.6674999999999995
 49
1.905
 74
0
 49
-0.9525
 74
0
 49
1.905
 74
0
 49
-0.9025
 74
0
 49
0.1
 74
0
 49
-0.9025
 74
0
  0
LTYPE
  5
3E
100
AcDbSymbolTableRecord
100
AcDbLinetypeTableRecord
  2
BORDER2
 70
0
  3
Border (.5x) __.__.__.__.__.__.__.__.__.__.__.
 72
65
 73
6
 40
22.2250000000000014
 49
6.3499999999999996
 74
0
 49
-3.1749999999999998
 74
0
 49
6.3499999999999996
 74
0
 49
-3.125
 74
0
 49
0.1
 74
0
 49
-3.125
 74
0
  0
LTYPE
  5
3F
100
AcDbSymbolTableRecord
100
AcDbLinetypeTableRecord
  2
DASHED
 70
0
  3
Dashed _ _ _ _ _ _ _ _ _ _ _ _ _ _ _ _ _
 72
65
 73
2
 40
19.0499999999999972
 49
12.6999999999999993
 74
0
 49
-6.3499999999999996
 74
0
  0
LTYPE
  5
40
100
AcDbSymbolTableRecord
100
AcDbLinetypeTableRecord
  2
PHANTOM
 70
0
  3
Phantom ______  __  __  ______  __  __  ______ 
 72
65
 73
6
 40
63.5000000000000071
 49
31.75
 74
0
 49
-6.3499999999999996
 74
0
 49
6.3499999999999996
 74
0
 49
-6.3499999999999996
 74
0
 49
6.3499999999999996
 74
0
 49
-6.3499999999999996
 74
0
  0
LTYPE
  5
41
100
AcDbSymbolTableRecord
100
AcDbLinetypeTableRecord
  2
ACAD_ISO03W100
 70
0
  3
ISO dash space __    __    __    __    __    __
 72
65
 73
2
 40
30.0
 49
12.0
 74
0
 49
-18.0
 74
0
  0
LTYPE
  5
42
100
AcDbSymbolTableRecord
100
AcDbLinetypeTableRecord
  2
DASHEDTINY
 70
0
  3
Dashed (.15x) _ _ _ _ _ _ _ _ _ _ _ _ _ _ _ _ _
 72
65
 73
2
 40
2.8574999999999999
 49
1.905
 74
0
 49
-0.9525
 74
0
  0
LTYPE
  5
43
100
AcDbSymbolTableRecord
100
AcDbLinetypeTableRecord
  2
ACAD_ISO15W100
 70
0
  3
ISO double-dash triple-dot __ __ . . . __ __ . .
 72
65
 73
10
 40
39.0
 49
12.0
 74
0
 49
-3.0
 74
0
 49
12.0
 74
0
 49
-3.0
 74
0
 49
0.0
 74
0
 49
-3.0
 74
0
 49
0.0
 74
0
 49
-3.0
 74
0
 49
0.0
 74
0
 49
-3.0
 74
0
  0
LTYPE
  5
44
100
AcDbSymbolTableRecord
100
AcDbLinetypeTableRecord
  2
HIDDEN
 70
0
  3
Hidden __ __ __ __ __ __ __ __ __ __ __ __ __ __
 72
65
 73
2
 40
9.5249999999999986
 49
6.3499999999999996
 74
0
 49
-3.1749999999999998
 74
0
  0
LTYPE
  5
45
100
AcDbSymbolTableRecord
100
AcDbLinetypeTableRecord
  2
DASHDOT2
 70
0
  3
Dash dot (.5x) _._._._._._._._._._._._._._._.
 72
65
 73
4
 40
12.6999999999999993
 49
6.3499999999999996
 74
0
 49
-3.125
 74
0
 49
0.1
 74
0
 49
-3.125
 74
0
  0
LTYPE
  5
46
100
AcDbSymbolTableRecord
100
AcDbLinetypeTableRecord
  2
ACAD_ISO08W100
 70
0
  3
ISO long-dash short-dash ____ __ ____ __ ____ _
 72
65
 73
4
 40
36.0
 49
24.0
 74
0
 49
-3.0
 74
0
 49
6.0
 74
0
 49
-3.0
 74
0
  0
LTYPE
  5
47
100
AcDbSymbolTableRecord
100
AcDbLinetypeTableRecord
  2
DIVIDE
 70
0
  3
Divide ____ . . ____ . . ____ . . ____ . . ____
 72
65
 73
6
 40
31.7500000000000036
 49
12.6999999999999993
 74
0
 49
-6.2999999999999998
 74
0
 49
0.1
 74
0
 49
-6.25
 74
0
 49
0.1
 74
0
 49
-6.2999999999999998
 74
0
  0
LTYPE
  5
48
100
AcDbSymbolTableRecord
100
AcDbLinetypeTableRecord
  2
DOTX2
 70
0
  3
Dot (2x) .  .  .  .  .  .  .  .  .  .  .  .  .
 72
65
 73
2
 40
12.6999999999999993
 49
0.1
 74
0
 49
-12.5999999999999996
 74
0
  0
LTYPE
  5
49
100
AcDbSymbolTableRecord
100
AcDbLinetypeTableRecord
  2
DASHEDX2
 70
0
  3
Dashed (2x) ____  ____  ____  ____  ____  ___
 72
65
 73
2
 40
38.0999999999999943
 49
25.3999999999999986
 74
0
 49
-12.6999999999999993
 74
0
  0
LTYPE
  5
4A
100
AcDbSymbolTableRecord
100
AcDbLinetypeTableRecord
  2
DIVIDE2
 70
0
  3
Divide (.5x) __..__..__..__..__..__..__..__.._
 72
65
 73
6
 40
15.8749999999999982
 49
6.3499999999999996
 74
0
 49
-3.125
 74
0
 49
0.1
 74
0
 49
-3.0750000000000002
 74
0
 49
0.1
 74
0
 49
-3.125
 74
0
  0
LTYPE
  5
4B
100
AcDbSymbolTableRecord
100
AcDbLinetypeTableRecord
  2
ACAD_ISO12W100
 70
0
  3
ISO dash double-dot __ . . __ . . __ . . __ . . 
 72
65
 73
6
 40
21.0
 49
12.0
 74
0
 49
-3.0
 74
0
 49
0.0
 74
0
 49
-3.0
 74
0
 49
0.0
 74
0
 49
-3.0
 74
0
  0
LTYPE
  5
4C
100
AcDbSymbolTableRecord
100
AcDbLinetypeTableRecord
  2
ACAD_ISO10W100
 70
0
  3
ISO dash dot __ . __ . __ . __ . __ . __ . __ . 
 72
65
 73
4
 40
18.0
 49
12.0
 74
0
 49
-3.0
 74
0
 49
0.0
 74
0
 49
-3.0
 74
0
  0
LTYPE
  5
4D
100
AcDbSymbolTableRecord
100
AcDbLinetypeTableRecord
  2
DASHDOTTINY
 70
0
  3
Dash dot (.15x) _._._._._._._._._._._._._._._.
 72
65
 73
4
 40
3.8100000000000001
 49
1.905
 74
0
 49
-0.9025
 74
0
 49
0.1
 74
0
 49
-0.9025
 74
0
  0
LTYPE
  5
4E
100
AcDbSymbolTableRecord
100
AcDbLinetypeTableRecord
  2
BORDERX2
 70
0
  3
Border (2x) ____  ____  .  ____  ____  .  ___
 72
65
 73
6
 40
88.8999999999999773
 49
25.3999999999999986
 74
0
 49
-12.6999999999999993
 74
0
 49
25.3999999999999986
 74
0
 49
-12.6499999999999986
 74
0
 49
0.1
 74
0
 49
-12.6499999999999986
 74
0
  0
LTYPE
  5
4F
100
AcDbSymbolTableRecord
100
AcDbLinetypeTableRecord
  2
ACAD_ISO06W100
 70
0
  3
ISO long-dash triple-dot ____ ... ____ ... ____
 72
65
 73
8
 40
36.0
 49
24.0
 74
0
 49
-3.0
 74
0
 49
0.0
 74
0
 49
-3.0
 74
0
 49
0.0
 74
0
 49
-3.0
 74
0
 49
0.0
 74
0
 49
-3.0
 74
0
  0
LTYPE
  5
50
100
AcDbSymbolTableRecord
100
AcDbLinetypeTableRecord
  2
BORDER
 70
0
  3
Border __ __ . __ __ . __ __ . __ __ . __ __ .
 72
65
 73
6
 40
44.4499999999999957
 49
12.6999999999999993
 74
0
 49
-6.3499999999999996
 74
0
 49
12.6999999999999993
 74
0
 49
-6.2999999999999998
 74
0
 49
0.1
 74
0
 49
-6.2999999999999998
 74
0
  0
LTYPE
  5
51
100
AcDbSymbolTableRecord
100
AcDbLinetypeTableRecord
  2
DASHDOTX2
 70
0
  3
Dash dot (2x) ____  .  ____  .  ____  .  ___
 72
65
 73
4
 40
50.7999999999999972
 49
25.3999999999999986
 74
0
 49
-12.6499999999999986
 74
0
 49
0.1
 74
0
 49
-12.6499999999999986
 74
0
  0
LTYPE
  5
52
100
AcDbSymbolTableRecord
100
AcDbLinetypeTableRecord
  2
CENTER2
 70
0
  3
Center (.5x) ___ _ ___ _ ___ _ ___ _ ___ _ ___
 72
65
 73
4
 40
28.5750000000000028
 49
19.0500000000000007
 74
0
 49
-3.1749999999999998
 74
0
 49
3.1749999999999998
 74
0
 49
-3.1749999999999998
 74
0
  0
LTYPE
  5
53
100
AcDbSymbolTableRecord
100
AcDbLinetypeTableRecord
  2
DASHDOT
 70
0
  3
Dash dot __ . __ . __ . __ . __ . __ . __ . __
 72
65
 73
4
 40
25.4000000000000021
 49
12.6999999999999993
 74
0
 49
-6.2999999999999998
 74
0
 49
0.1
 74
0
 49
-6.2999999999999998
 74
0
  0
LTYPE
  5
54
100
AcDbSymbolTableRecord
100
AcDbLinetypeTableRecord
  2
PHANTOMX2
 70
0
  3
Phantom (2x) ____________    ____    ____   _
 72
65
 73
6
 40
127.0000000000000142
 49
63.5
 74
0
 49
-12.6999999999999993
 74
0
 49
12.6999999999999993
 74
0
 49
-12.6999999999999993
 74
0
 49
12.6999999999999993
 74
0
 49
-12.6999999999999993
 74
0
  0
LTYPE
  5
15
100
AcDbSymbolTableRecord
100
AcDbLinetypeTableRecord
  2
ByLayer
 70
0
  3

 72
65
 73
0
 40
0.0
  0
LTYPE
  5
55
100
AcDbSymbolTableRecord
100
AcDbLinetypeTableRecord
  2
ACAD_ISO14W100
 70
0
  3
ISO dash triple-dot __ . . . __ . . . __ . . . _
 72
65
 73
8
 40
24.0
 49
12.0
 74
0
 49
-3.0
 74
0
 49
0.0
 74
0
 49
-3.0
 74
0
 49
0.0
 74
0
 49
-3.0
 74
0
 49
0.0
 74
0
 49
-3.0
 74
0
  0
LTYPE
  5
56
100
AcDbSymbolTableRecord
100
AcDbLinetypeTableRecord
  2
CENTERX2
 70
0
  3
Center (2x) ________  __  ________  __  _____
 72
65
 73
4
 40
101.6000000000000085
 49
63.5
 74
0
 49
-12.6999999999999993
 74
0
 49
12.6999999999999993
 74
0
 49
-12.6999999999999993
 74
0
  0
LTYPE
  5
57
100
AcDbSymbolTableRecord
100
AcDbLinetypeTableRecord
  2
HIDDENX2
 70
0
  3
Hidden (2x) ____ ____ ____ ____ ____ ____ ____ 
 72
65
 73
2
 40
19.0499999999999972
 49
12.6999999999999993
 74
0
 49
-6.3499999999999996
 74
0
  0
LTYPE
  5
58
100
AcDbSymbolTableRecord
100
AcDbLinetypeTableRecord
  2
DASHED2
 70
0
  3
Dashed (.5x) _ _ _ _ _ _ _ _ _ _ _ _ _ _ _ _ _
 72
65
 73
2
 40
9.5249999999999986
 49
6.3499999999999996
 74
0
 49
-3.1749999999999998
 74
0
  0
LTYPE
  5
59
100
AcDbSymbolTableRecord
100
AcDbLinetypeTableRecord
  2
DOT
 70
0
  3
Dot . . . . . . . . . . . . . . . . . . . . . .
 72
65
 73
2
 40
6.3499999999999996
 49
0.1
 74
0
 49
-6.25
 74
0
  0
LTYPE
  5
5A
100
AcDbSymbolTableRecord
100
AcDbLinetypeTableRecord
  2
PHANTOM2
 70
0
  3
Phantom (.5x) ___ _ _ ___ _ _ ___ _ _ ___ _ _
 72
65
 73
6
 40
31.7500000000000036
 49
15.875
 74
0
 49
-3.1749999999999998
 74
0
 49
3.1749999999999998
 74
0
 49
-3.1749999999999998
 74
0
 49
3.1749999999999998
 74
0
 49
-3.1749999999999998
 74
0
  0
LTYPE
  5
5B
100
AcDbSymbolTableRecord
100
AcDbLinetypeTableRecord
  2
ACAD_ISO13W100
 70
0
  3
ISO double-dash double-dot __ __ . . __ __ . . _
 72
65
 73
8
 40
36.0
 49
12.0
 74
0
 49
-3.0
 74
0
 49
12.0
 74
0
 49
-3.0
 74
0
 49
0.0
 74
0
 49
-3.0
 74
0
 49
0.0
 74
0
 49
-3.0
 74
0
  0
LTYPE
  5
5C
100
AcDbSymbolTableRecord
100
AcDbLinetypeTableRecord
  2
DOT2
 70
0
  3
Dot (.5x) .....................................
 72
65
 73
2
 40
3.1749999999999998
 49
0.1
 74
0
 49
-3.0749999999999997
 74
0
  0
ENDTAB
  0
TABLE
  2
LAYER
  5
2
100
AcDbSymbolTable
 70
2
  0
LAYER
  5
5D
100
AcDbSymbolTableRecord
100
AcDbLayerTableRecord
  2
BLACK
 70
0
 62
7
420
16777215
  6
Continuous
370
-3
390
F
  0
LAYER
  5
10
100
AcDbSymbolTableRecord
100
AcDbLayerTableRecord
  2
0
 70
0
 62
7
420
16777215
  6
Continuous
370
0
390
F
  0
ENDTAB
  0
TABLE
  2
STYLE
  5
3
100
AcDbSymbolTable
 70
1
  0
STYLE
  5
5E
100
AcDbSymbolTableRecord
100
AcDbTextStyleTableRecord
  2
Standard
 70
0
 40
0.0
 41
1.0
 50
0.0
 71
0
 42
2.5
  3

  4

1001
ACAD
1000
txt
1071
0
  0
ENDTAB
  0
TABLE
  2
VIEW
  5
6
100
AcDbSymbolTable
 70
0
  0
ENDTAB
  0
TABLE
  2
UCS
  5
7
100
AcDbSymbolTable
 70
0
  0
ENDTAB
  0
TABLE
  2
APPID
  5
9
100
AcDbSymbolTable
 70
1
  0
APPID
  5
12
100
AcDbSymbolTableRecord
100
AcDbRegAppTableRecord
  2
ACAD
 70
0
  0
APPID
  5
5F
100
AcDbSymbolTableRecord
100
AcDbRegAppTableRecord
  2
QCAD
 70
0
  0
ENDTAB
  0
TABLE
  2
DIMSTYLE
  5
A
100
AcDbSymbolTable
 70
1
100
AcDbDimStyleTable
 71
0
  0
DIMSTYLE
105
27
100
AcDbSymbolTableRecord
100
AcDbDimStyleTableRecord
  2
Standard
 41
2.5
 42
0.625
 43
3.75
 44
1.25
 70
0
 73
0
 74
0
 77
1
 78
8
140
2.5
141
2.5
143
0.03937007874016
147
0.625
171
3
172
1
271
2
272
2
274
3
278
44
283
0
284
8
340
5E
  0
ENDTAB
  0
TABLE
  2
BLOCK_RECORD
  5
1
100
AcDbSymbolTable
 70
1
  0
BLOCK_RECORD
  5
1F
100
AcDbSymbolTableRecord
100
AcDbBlockTableRecord
  2
*Model_Space
340
22
  0
BLOCK_RECORD
  5
1B
100
AcDbSymbolTableRecord
100
AcDbBlockTableRecord
  2
*Paper_Space
340
1E
  0
BLOCK_RECORD
  5
23
100
AcDbSymbolTableRecord
100
AcDbBlockTableRecord
  2
*Paper_Space0
340
26
  0
ENDTAB
  0
ENDSEC
  0
SECTION
  2
BLOCKS
  0
BLOCK
  5
20
100
AcDbEntity
  8
0
100
AcDbBlockBegin
  2
*Model_Space
 70
0
 10
0.0
 20
0.0
 30
0.0
  3
*Model_Space
  1

  0
ENDBLK
  5
21
100
AcDbEntity
  8
0
100
AcDbBlockEnd
  0
BLOCK
  5
1C
100
AcDbEntity
 67
1
  8
0
100
AcDbBlockBegin
  2
*Paper_Space
 70
0
 10
0.0
 20
0.0
 30
0.0
  3
*Paper_Space
  1

  0
ENDBLK
  5
1D
100
AcDbEntity
 67
1
  8
0
100
AcDbBlockEnd
  0
BLOCK
  5
24
100
AcDbEntity
  8
0
100
AcDbBlockBegin
  2
*Paper_Space0
 70
0
 10
0.0
 20
0.0
 30
0.0
  3
*Paper_Space0
  1

  0
ENDBLK
  5
25
100
AcDbEntity
  8
0
100
AcDbBlockEnd
  0
ENDSEC
  0
SECTION
  2
ENTITIES
  0
CIRCLE
  5
60
100
AcDbEntity
  8
BLACK
 62
256
370
-1
 48
1.0
  6
ByLayer
100
AcDbCircle
 10
341.75
 20
-165.3100000000000023
 30
0.0
 40
1.6000000000000001
  0
CIRCLE
  5
61
100
AcDbEntity
  8
BLACK
 62
256
370
-1
 48
1.0
  6
ByLayer
100
AcDbCircle
 10
357.7099999999999795
 20
-133.7400000000000091
 30
0.0
 40
1.6000000000000001
  0
LINE
  5
62
100
AcDbEntity
  8
BLACK
 62
256
370
-1
 48
1.0
  6
Continuous
100
AcDbLine
 10
177.0
 20
-253.0
 30
0.0
 11
193.0
 21
-253.0
 31
0.0
  0
CIRCLE
  5
63
100
AcDbEntity
  8
BLACK
 62
256
370
-1
 48
1.0
  6
ByLayer
100
AcDbCircle
 10
270.8100000000000023
 20
-152.1699999999999875
 30
0.0
 40
1.6000000000000001
  0
CIRCLE
  5
64
100
AcDbEntity
  8
BLACK
 62
256
370
-1
 48
1.0
  6
ByLayer
100
AcDbCircle
 10
341.75
 20
-169.8199999999999932
 30
0.0
 40
1.6000000000000001
  0
CIRCLE
  5
65
100
AcDbEntity
  8
BLACK
 62
256
370
-1
 48
1.0
  6
ByLayer
100
AcDbCircle
 10
341.7699999999999818
 20
-106.8199999999999932
 30
0.0
 40
1.6000000000000001
  0
CIRCLE
  5
66
100
AcDbEntity
  8
BLACK
 62
256
370
-1
 48
1.0
  6
ByLayer
100
AcDbCircle
 10
387.5520000000000209
 20
-174.6200000000000045
 30
0.0
 40
1.6000000000000001
  0
CIRCLE
  5
67
100
AcDbEntity
  8
BLACK
 62
256
370
-1
 48
1.0
  6
ByLayer
100
AcDbCircle
 10
349.0099999999999909
 20
-84.3100000000000023
 30
0.0
 40
4.0
  0
LINE
  5
68
100
AcDbEntity
  8
BLACK
 62
256
370
-1
 48
1.0
  6
Continuous
100
AcDbLine
 10
443.0
 20
-304.0
 30
0.0
 11
443.0
 21
-294.0
 31
0.0
  0
LINE
  5
69
100
AcDbEntity
  8
BLACK
 62
256
370
-1
 48
1.0
  6
Continuous
100
AcDbLine
 10
475.0
 20
-199.5840000000000032
 30
0.0
 11
475.0
 21
-149.5840000000000032
 31
0.0
  0
LINE
  5
6A
100
AcDbEntity
  8
BLACK
 62
256
370
-1
 48
1.0
  6
Continuous
100
AcDbLine
 10
427.0199999999999818
 20
-266.6270000000000095
 30
0.0
 11
427.0199999999999818
 21
-276.6270000000000095
 31
0.0
  0
CIRCLE
  5
6B
100
AcDbEntity
  8
BLACK
 62
256
370
-1
 48
1.0
  6
ByLayer
100
AcDbCircle
 10
236.5200000000000102
 20
-107.1700000000000017
 30
0.0
 40
1.6000000000000001
  0
LINE
  5
6C
100
AcDbEntity
  8
BLACK
 62
256
370
-1
 48
1.0
  6
Continuous
100
AcDbLine
 10
181.8799999999999955
 20
-93.4099999999999966
 30
0.0
 11
181.8799999999999955
 21
-83.4099999999999966
 31
0.0
  0
LINE
  5
6D
100
AcDbEntity
  8
BLACK
 62
256
370
-1
 48
1.0
  6
Continuous
100
AcDbLine
 10
177.0
 20
-294.0
 30
0.0
 11
177.0
 21
-304.0
 31
0.0
  0
LINE
  5
6E
100
AcDbEntity
  8
BLACK
 62
256
370
-1
 48
1.0
  6
Continuous
100
AcDbLine
 10
427.0
 20
-243.0
 30
0.0
 11
427.0
 21
-253.0
 31
0.0
  0
LINE
  5
6F
100
AcDbEntity
  8
BLACK
 62
256
370
-1
 48
1.0
  6
Continuous
100
AcDbLine
 10
443.0
 20
-253.0
 30
0.0
 11
443.0
 21
-243.0
 31
0.0
  0
LINE
  5
70
100
AcDbEntity
  8
BLACK
 62
256
370
-1
 48
1.0
  6
Continuous
100
AcDbLine
 10
224.5240000000000009
 20
-149.5840000000000032
 30
0.0
 11
124.5240000000000009
 21
-149.5840000000000032
 31
0.0
  0
CIRCLE
  5
71
100
AcDbEntity
  8
BLACK
 62
256
370
-1
 48
1.0
  6
ByLayer
100
AcDbCircle
 10
270.8100000000000023
 20
-111.6800000000000068
 30
0.0
 40
1.6000000000000001
  0
LINE
  5
72
100
AcDbEntity
  8
BLACK
 62
256
370
-1
 48
1.0
  6
Continuous
100
AcDbLine
 10
193.0
 20
-229.0
 30
0.0
 11
177.0
 21
-229.0
 31
0.0
  0
CIRCLE
  5
73
100
AcDbEntity
  8
BLACK
 62
256
370
-1
 48
1.0
  6
ByLayer
100
AcDbCircle
 10
341.7599999999999909
 20
-138.3600000000000136
 30
0.0
 40
1.6000000000000001
  0
CIRCLE
  5
74
100
AcDbEntity
  8
BLACK
 62
256
370
-1
 48
1.0
  6
ByLayer
100
AcDbCircle
 10
341.7900000000000205
 20
-133.8400000000000034
 30
0.0
 40
1.6000000000000001
  0
CIRCLE
  5
75
100
AcDbEntity
  8
BLACK
 62
256
370
-1
 48
1.0
  6
ByLayer
100
AcDbCircle
 10
357.6899999999999977
 20
-106.7199999999999989
 30
0.0
 40
1.6000000000000001
  0
LINE
  5
76
100
AcDbEntity
  8
BLACK
 62
256
370
-1
 48
1.0
  6
Continuous
100
AcDbLine
 10
427.0
 20
-253.0
 30
0.0
 11
443.0
 21
-253.0
 31
0.0
  0
CIRCLE
  5
77
100
AcDbEntity
  8
BLACK
 62
256
370
-1
 48
1.0
  6
ByLayer
100
AcDbCircle
 10
400.0480000000000018
 20
-162.117999999999995
 30
0.0
 40
1.6000000000000001
  0
LINE
  5
78
100
AcDbEntity
  8
BLACK
 62
256
370
-1
 48
1.0
  6
Continuous
100
AcDbLine
 10
312.4200000000000159
 20
-305.8140000000000214
 30
0.0
 11
321.4200000000000159
 21
-305.8140000000000214
 31
0.0
  0
LINE
  5
79
100
AcDbEntity
  8
BLACK
 62
256
370
-1
 48
1.0
  6
Continuous
100
AcDbLine
 10
244.4199999999999875
 20
-305.8140000000000214
 30
0.0
 11
253.4199999999999875
 21
-305.8140000000000214
 31
0.0
  0
LINE
  5
7A
100
AcDbEntity
  8
BLACK
 62
256
370
-1
 48
1.0
  6
Continuous
100
AcDbLine
 10
453.0
 20
-304.0
 30
0.0
 11
463.0
 21
-304.0
 31
0.0
  0
CIRCLE
  5
7B
100
AcDbEntity
  8
BLACK
 62
256
370
-1
 48
1.0
  6
ByLayer
100
AcDbCircle
 10
357.6800000000000068
 20
-142.7299999999999898
 30
0.0
 40
1.6000000000000001
  0
LINE
  5
7C
100
AcDbEntity
  8
BLACK
 62
256
370
-1
 48
1.0
  6
Continuous
100
AcDbLine
 10
177.0
 20
-229.0
 30
0.0
 11
177.0
 21
-239.0
 31
0.0
  0
LINE
  5
7D
100
AcDbEntity
  8
BLACK
 62
256
370
-1
 48
1.0
  6
Continuous
100
AcDbLine
 10
427.0
 20
-229.0
 30
0.0
 11
427.0
 21
-239.0
 31
0.0
  0
CIRCLE
  5
7E
100
AcDbEntity
  8
BLACK
 62
256
370
-1
 48
1.0
  6
ByLayer
100
AcDbCircle
 10
270.8000000000000114
 20
-120.6700000000000017
 30
0.0
 40
1.6000000000000001
  0
CIRCLE
  5
7F
100
AcDbEntity
  8
BLACK
 62
256
370
-1
 48
1.0
  6
ByLayer
100
AcDbCircle
 10
424.0
 20
-67.980000000000004
 30
0.0
 40
4.0
  0
LINE
  5
80
100
AcDbEntity
  8
BLACK
 62
256
370
-1
 48
1.0
  6
Continuous
100
AcDbLine
 10
431.9039999999999964
 20
-93.2879999999999967
 30
0.0
 11
431.9039999999999964
 21
-83.2879999999999967
 31
0.0
  0
LINE
  5
81
100
AcDbEntity
  8
BLACK
 62
256
370
-1
 48
1.0
  6
Continuous
100
AcDbLine
 10
312.4200000000000159
 20
-245.813999999999993
 30
0.0
 11
312.4200000000000159
 21
-305.8140000000000214
 31
0.0
  0
LINE
  5
82
100
AcDbEntity
  8
BLACK
 62
256
370
-1
 48
1.0
  6
Continuous
100
AcDbLine
 10
278.4200000000000159
 20
-305.8140000000000214
 30
0.0
 11
287.4200000000000159
 21
-305.8140000000000214
 31
0.0
  0
CIRCLE
  5
83
100
AcDbEntity
  8
BLACK
 62
256
370
-1
 48
1.0
  6
ByLayer
100
AcDbCircle
 10
236.5099999999999909
 20
-125.1700000000000017
 30
0.0
 40
1.6000000000000001
  0
CIRCLE
  5
84
100
AcDbEntity
  8
BLACK
 62
256
370
-1
 48
1.0
  6
ByLayer
100
AcDbCircle
 10
214.960000000000008
 20
-68.0600000000000023
 30
0.0
 40
4.0
  0
CIRCLE
  5
85
100
AcDbEntity
  8
BLACK
 62
256
370
-1
 48
1.0
  6
ByLayer
100
AcDbCircle
 10
357.6899999999999977
 20
-160.6500000000000057
 30
0.0
 40
1.6000000000000001
  0
LINE
  5
86
100
AcDbEntity
  8
BLACK
 62
256
370
-1
 48
1.0
  6
Continuous
100
AcDbLine
 10
443.0
 20
-239.0
 30
0.0
 11
443.0
 21
-229.0
 31
0.0
  0
LINE
  5
87
100
AcDbEntity
  8
BLACK
 62
256
370
-1
 48
1.0
  6
Continuous
100
AcDbLine
 10
177.0
 20
-304.0
 30
0.0
 11
193.0
 21
-304.0
 31
0.0
  0
CIRCLE
  5
88
100
AcDbEntity
  8
BLACK
 62
256
370
-1
 48
1.0
  6
ByLayer
100
AcDbCircle
 10
357.6800000000000068
 20
-115.7199999999999989
 30
0.0
 40
1.6000000000000001
  0
CIRCLE
  5
89
100
AcDbEntity
  8
BLACK
 62
256
370
-1
 48
1.0
  6
ByLayer
100
AcDbCircle
 10
341.75
 20
-147.3199999999999932
 30
0.0
 40
1.6000000000000001
  0
LINE
  5
8A
100
AcDbEntity
  8
BLACK
 62
256
370
-1
 48
1.0
  6
Continuous
100
AcDbLine
 10
224.5240000000000009
 20
-204.5840000000000032
 30
0.0
 11
124.5240000000000009
 21
-204.5840000000000032
 31
0.0
  0
LINE
  5
8B
100
AcDbEntity
  8
BLACK
 62
256
370
-1
 48
1.0
  6
Continuous
100
AcDbLine
 10
193.0
 20
-266.8799999999999955
 30
0.0
 11
177.0
 21
-266.8799999999999955
 31
0.0
  0
LINE
  5
8C
100
AcDbEntity
  8
BLACK
 62
256
370
-1
 48
1.0
  6
Continuous
100
AcDbLine
 10
177.0
 20
-276.8799999999999955
 30
0.0
 11
193.0
 21
-276.8799999999999955
 31
0.0
  0
CIRCLE
  5
8D
100
AcDbEntity
  8
BLACK
 62
256
370
-1
 48
1.0
  6
ByLayer
100
AcDbCircle
 10
236.5099999999999909
 20
-120.6700000000000017
 30
0.0
 40
1.6000000000000001
  0
LINE
  5
8E
100
AcDbEntity
  8
BLACK
 62
256
370
-1
 48
1.0
  6
Continuous
100
AcDbLine
 10
193.0
 20
-276.8799999999999955
 30
0.0
 11
193.0
 21
-266.8799999999999955
 31
0.0
  0
CIRCLE
  5
8F
100
AcDbEntity
  8
BLACK
 62
256
370
-1
 48
1.0
  6
ByLayer
100
AcDbCircle
 10
304.8000000000000114
 20
-138.5600000000000023
 30
0.0
 40
1.6000000000000001
  0
CIRCLE
  5
90
100
AcDbEntity
  8
BLACK
 62
256
370
-1
 48
1.0
  6
ByLayer
100
AcDbCircle
 10
283.0
 20
-68.0
 30
0.0
 40
4.0
  0
CIRCLE
  5
91
100
AcDbEntity
  8
BLACK
 62
256
370
-1
 48
1.0
  6
ByLayer
100
AcDbCircle
 10
349.0
 20
-251.0
 30
0.0
 40
4.0
  0
CIRCLE
  5
92
100
AcDbEntity
  8
BLACK
 62
256
370
-1
 48
1.0
  6
ByLayer
100
AcDbCircle
 10
317.0
 20
-205.0
 30
0.0
 40
4.0
  0
LINE
  5
93
100
AcDbEntity
  8
BLACK
 62
256
370
-1
 48
1.0
  6
Continuous
100
AcDbLine
 10
287.4200000000000159
 20
-305.8140000000000214
 30
0.0
 11
287.4200000000000159
 21
-245.813999999999993
 31
0.0
  0
CIRCLE
  5
94
100
AcDbEntity
  8
BLACK
 62
256
370
-1
 48
1.0
  6
ByLayer
100
AcDbCircle
 10
236.5
 20
-170.1699999999999875
 30
0.0
 40
1.6000000000000001
  0
CIRCLE
  5
95
100
AcDbEntity
  8
BLACK
 62
256
370
-1
 48
1.0
  6
ByLayer
100
AcDbCircle
 10
236.5099999999999909
 20
-143.1800000000000068
 30
0.0
 40
1.6000000000000001
  0
LINE
  5
96
100
AcDbEntity
  8
BLACK
 62
256
370
-1
 48
1.0
  6
Continuous
100
AcDbLine
 10
453.0
 20
-229.0
 30
0.0
 11
453.0
 21
-304.0
 31
0.0
  0
LINE
  5
97
100
AcDbEntity
  8
BLACK
 62
256
370
-1
 48
1.0
  6
Continuous
100
AcDbLine
 10
124.5240000000000009
 20
-224.5840000000000032
 30
0.0
 11
224.5240000000000009
 21
-224.5840000000000032
 31
0.0
  0
LINE
  5
98
100
AcDbEntity
  8
BLACK
 62
256
370
-1
 48
1.0
  6
Continuous
100
AcDbLine
 10
427.0
 20
-304.0
 30
0.0
 11
443.0
 21
-304.0
 31
0.0
  0
CIRCLE
  5
99
100
AcDbEntity
  8
BLACK
 62
256
370
-1
 48
1.0
  6
ByLayer
100
AcDbCircle
 10
236.5099999999999909
 20
-116.1700000000000017
 30
0.0
 40
1.6000000000000001
  0
LINE
  5
9A
100
AcDbEntity
  8
BLACK
 62
256
370
-1
 48
1.0
  6
Continuous
100
AcDbLine
 10
213.0
 20
-229.0
 30
0.0
 11
203.0
 21
-229.0
 31
0.0
  0
LINE
  5
9B
100
AcDbEntity
  8
BLACK
 62
256
370
-1
 48
1.0
  6
Continuous
100
AcDbLine
 10
443.0199999999999818
 20
-276.6270000000000095
 30
0.0
 11
443.0199999999999818
 21
-266.6270000000000095
 31
0.0
  0
CIRCLE
  5
9C
100
AcDbEntity
  8
BLACK
 62
256
370
-1
 48
1.0
  6
ByLayer
100
AcDbCircle
 10
341.7599999999999909
 20
-124.8199999999999932
 30
0.0
 40
1.6000000000000001
  0
CIRCLE
  5
9D
100
AcDbEntity
  8
BLACK
 62
256
370
-1
 48
1.0
  6
ByLayer
100
AcDbCircle
 10
341.7599999999999909
 20
-156.3300000000000125
 30
0.0
 40
1.6000000000000001
  0
CIRCLE
  5
9E
100
AcDbEntity
  8
BLACK
 62
256
370
-1
 48
1.0
  6
ByLayer
100
AcDbCircle
 10
236.5200000000000102
 20
-111.6800000000000068
 30
0.0
 40
1.6000000000000001
  0
CIRCLE
  5
9F
100
AcDbEntity
  8
BLACK
 62
256
370
-1
 48
1.0
  6
ByLayer
100
AcDbCircle
 10
357.6700000000000159
 20
-147.2199999999999989
 30
0.0
 40
1.6000000000000001
  0
LINE
  5
A0
100
AcDbEntity
  8
BLACK
 62
256
370
-1
 48
1.0
  6
Continuous
100
AcDbLine
 10
213.0
 20
-304.0
 30
0.0
 11
213.0
 21
-229.0
 31
0.0
  0
CIRCLE
  5
A1
100
AcDbEntity
  8
BLACK
 62
256
370
-1
 48
1.0
  6
ByLayer
100
AcDbCircle
 10
450.0040000000000191
 20
-162.1040000000000134
 30
0.0
 40
1.6000000000000001
  0
LINE
  5
A2
100
AcDbEntity
  8
BLACK
 62
256
370
-1
 48
1.0
  6
Continuous
100
AcDbLine
 10
222.8799999999999955
 20
-93.4099999999999966
 30
0.0
 11
222.8799999999999955
 21
-83.4099999999999966
 31
0.0
  0
LINE
  5
A3
100
AcDbEntity
  8
BLACK
 62
256
370
-1
 48
1.0
  6
Continuous
100
AcDbLine
 10
278.4200000000000159
 20
-245.813999999999993
 30
0.0
 11
278.4200000000000159
 21
-305.8140000000000214
 31
0.0
  0
CIRCLE
  5
A4
100
AcDbEntity
  8
BLACK
 62
256
370
-1
 48
1.0
  6
ByLayer
100
AcDbCircle
 10
304.8000000000000114
 20
-116.019999999999996
 30
0.0
 40
1.6000000000000001
  0
LINE
  5
A5
100
AcDbEntity
  8
BLACK
 62
256
370
-1
 48
1.0
  6
Continuous
100
AcDbLine
 10
206.9499999999999886
 20
-93.5
 30
0.0
 11
222.9499999999999886
 21
-93.5
 31
0.0
  0
LINE
  5
A6
100
AcDbEntity
  8
BLACK
 62
256
370
-1
 48
1.0
  6
Continuous
100
AcDbLine
 10
415.9039999999999964
 20
-93.2879999999999967
 30
0.0
 11
431.9039999999999964
 21
-93.2879999999999967
 31
0.0
  0
CIRCLE
  5
A7
100
AcDbEntity
  8
BLACK
 62
256
370
-1
 48
1.0
  6
ByLayer
100
AcDbCircle
 10
143.0500000000000114
 20
-283.5
 30
0.0
 40
12.5054999999999996
  0
LINE
  5
A8
100
AcDbEntity
  8
BLACK
 62
256
370
-1
 48
1.0
  6
Continuous
100
AcDbLine
 10
427.0
 20
-239.0
 30
0.0
 11
443.0
 21
-239.0
 31
0.0
  0
CIRCLE
  5
A9
100
AcDbEntity
  8
BLACK
 62
256
370
-1
 48
1.0
  6
ByLayer
100
AcDbCircle
 10
357.6899999999999977
 20
-111.230000000000004
 30
0.0
 40
1.6000000000000001
  0
LINE
  5
AA
100
AcDbEntity
  8
BLACK
 62
256
370
-1
 48
1.0
  6
Continuous
100
AcDbLine
 10
475.0
 20
-149.5840000000000032
 30
0.0
 11
375.0
 21
-149.5840000000000032
 31
0.0
  0
CIRCLE
  5
AB
100
AcDbEntity
  8
BLACK
 62
256
370
-1
 48
1.0
  6
ByLayer
100
AcDbCircle
 10
304.8000000000000114
 20
-120.519999999999996
 30
0.0
 40
1.6000000000000001
  0
LINE
  5
AC
100
AcDbEntity
  8
BLACK
 62
256
370
-1
 48
1.0
  6
Continuous
100
AcDbLine
 10
427.0199999999999818
 20
-276.6270000000000095
 30
0.0
 11
443.0199999999999818
 21
-276.6270000000000095
 31
0.0
  0
CIRCLE
  5
AD
100
AcDbEntity
  8
BLACK
 62
256
370
-1
 48
1.0
  6
ByLayer
100
AcDbCircle
 10
283.0
 20
-205.0
 30
0.0
 40
4.0
  0
LINE
  5
AE
100
AcDbEntity
  8
BLACK
 62
256
370
-1
 48
1.0
  6
Continuous
100
AcDbLine
 10
181.8799999999999955
 20
-83.4099999999999966
 30
0.0
 11
165.8799999999999955
 21
-83.4099999999999966
 31
0.0
  0
CIRCLE
  5
AF
100
AcDbEntity
  8
BLACK
 62
256
370
-1
 48
1.0
  6
ByLayer
100
AcDbCircle
 10
465.0
 20
-67.980000000000004
 30
0.0
 40
4.0
  0
CIRCLE
  5
B0
100
AcDbEntity
  8
BLACK
 62
256
370
-1
 48
1.0
  6
ByLayer
100
AcDbCircle
 10
341.7599999999999909
 20
-129.3600000000000136
 30
0.0
 40
1.6000000000000001
  0
LINE
  5
B1
100
AcDbEntity
  8
BLACK
 62
256
370
-1
 48
1.0
  6
Continuous
100
AcDbLine
 10
177.0
 20
-239.0
 30
0.0
 11
193.0
 21
-239.0
 31
0.0
  0
CIRCLE
  5
B2
100
AcDbEntity
  8
BLACK
 62
256
370
-1
 48
1.0
  6
ByLayer
100
AcDbCircle
 10
270.8000000000000114
 20
-156.6800000000000068
 30
0.0
 40
1.6000000000000001
  0
CIRCLE
  5
B3
100
AcDbEntity
  8
BLACK
 62
256
370
-1
 48
1.0
  6
ByLayer
100
AcDbCircle
 10
357.6700000000000159
 20
-165.210000000000008
 30
0.0
 40
1.6000000000000001
  0
LINE
  5
B4
100
AcDbEntity
  8
BLACK
 62
256
370
-1
 48
1.0
  6
Continuous
100
AcDbLine
 10
193.0
 20
-239.0
 30
0.0
 11
193.0
 21
-229.0
 31
0.0
  0
CIRCLE
  5
B5
100
AcDbEntity
  8
BLACK
 62
256
370
-1
 48
1.0
  6
ByLayer
100
AcDbCircle
 10
341.7599999999999909
 20
-120.3199999999999932
 30
0.0
 40
1.6000000000000001
  0
CIRCLE
  5
B6
100
AcDbEntity
  8
BLACK
 62
256
370
-1
 48
1.0
  6
ByLayer
100
AcDbCircle
 10
199.4759999999999991
 20
-162.0759999999999934
 30
0.0
 40
1.6000000000000001
  0
LINE
  5
B7
100
AcDbEntity
  8
BLACK
 62
256
370
-1
 48
1.0
  6
Continuous
100
AcDbLine
 10
375.0
 20
-199.5840000000000032
 30
0.0
 11
475.0
 21
-199.5840000000000032
 31
0.0
  0
LINE
  5
B8
100
AcDbEntity
  8
BLACK
 62
256
370
-1
 48
1.0
  6
Continuous
100
AcDbLine
 10
253.4199999999999875
 20
-305.8140000000000214
 30
0.0
 11
253.4199999999999875
 21
-245.813999999999993
 31
0.0
  0
CIRCLE
  5
B9
100
AcDbEntity
  8
BLACK
 62
256
370
-1
 48
1.0
  6
ByLayer
100
AcDbCircle
 10
270.8000000000000114
 20
-125.1700000000000017
 30
0.0
 40
1.6000000000000001
  0
CIRCLE
  5
BA
100
AcDbEntity
  8
BLACK
 62
256
370
-1
 48
1.0
  6
ByLayer
100
AcDbCircle
 10
236.539999999999992
 20
-134.1899999999999977
 30
0.0
 40
1.6000000000000001
  0
CIRCLE
  5
BB
100
AcDbEntity
  8
BLACK
 62
256
370
-1
 48
1.0
  6
ByLayer
100
AcDbCircle
 10
304.8100000000000023
 20
-152.0200000000000102
 30
0.0
 40
1.6000000000000001
  0
CIRCLE
  5
BC
100
AcDbEntity
  8
BLACK
 62
256
370
-1
 48
1.0
  6
ByLayer
100
AcDbCircle
 10
304.7900000000000205
 20
-170.0200000000000102
 30
0.0
 40
1.6000000000000001
  0
CIRCLE
  5
BD
100
AcDbEntity
  8
BLACK
 62
256
370
-1
 48
1.0
  6
ByLayer
100
AcDbCircle
 10
304.7900000000000205
 20
-147.5200000000000102
 30
0.0
 40
1.6000000000000001
  0
CIRCLE
  5
BE
100
AcDbEntity
  8
BLACK
 62
256
370
-1
 48
1.0
  6
ByLayer
100
AcDbCircle
 10
341.7699999999999818
 20
-160.75
 30
0.0
 40
1.6000000000000001
  0
CIRCLE
  5
BF
100
AcDbEntity
  8
BLACK
 62
256
370
-1
 48
1.0
  6
ByLayer
100
AcDbCircle
 10
304.7900000000000205
 20
-165.5099999999999909
 30
0.0
 40
1.6000000000000001
  0
CIRCLE
  5
C0
100
AcDbEntity
  8
BLACK
 62
256
370
-1
 48
1.0
  6
ByLayer
100
AcDbCircle
 10
357.6800000000000068
 20
-129.2599999999999909
 30
0.0
 40
1.6000000000000001
  0
LINE
  5
C1
100
AcDbEntity
  8
BLACK
 62
256
370
-1
 48
1.0
  6
Continuous
100
AcDbLine
 10
373.9039999999999964
 20
-93.2879999999999967
 30
0.0
 11
389.9039999999999964
 21
-93.2879999999999967
 31
0.0
  0
LINE
  5
C2
100
AcDbEntity
  8
BLACK
 62
256
370
-1
 48
1.0
  6
Continuous
100
AcDbLine
 10
165.9499999999999886
 20
-93.5
 30
0.0
 11
181.9499999999999886
 21
-93.5
 31
0.0
  0
LINE
  5
C3
100
AcDbEntity
  8
BLACK
 62
256
370
-1
 48
1.0
  6
Continuous
100
AcDbLine
 10
400.75
 20
-109.0699999999999932
 30
0.0
 11
418.0500000000000114
 21
-109.0699999999999932
 31
0.0
  0
LINE
  5
C4
100
AcDbEntity
  8
BLACK
 62
256
370
-1
 48
1.0
  6
Continuous
100
AcDbLine
 10
418.0500000000000114
 20
-109.0699999999999932
 30
0.0
 11
418.0500000000000114
 21
-119.0799999999999983
 31
0.0
  0
LINE
  5
C5
100
AcDbEntity
  8
BLACK
 62
256
370
-1
 48
1.0
  6
Continuous
100
AcDbLine
 10
418.0500000000000114
 20
-119.0799999999999983
 30
0.0
 11
400.75
 21
-119.0799999999999983
 31
0.0
  0
LINE
  5
C6
100
AcDbEntity
  8
BLACK
 62
256
370
-1
 48
1.0
  6
Continuous
100
AcDbLine
 10
400.75
 20
-119.0799999999999983
 30
0.0
 11
400.75
 21
-109.0699999999999932
 31
0.0
  0
CIRCLE
  5
C7
100
AcDbEntity
  8
BLACK
 62
256
370
-1
 48
1.0
  6
ByLayer
100
AcDbCircle
 10
236.5
 20
-165.6599999999999966
 30
0.0
 40
1.6000000000000001
  0
LINE
  5
C8
100
AcDbEntity
  8
BLACK
 62
256
370
-1
 48
1.0
  6
Continuous
100
AcDbLine
 10
375.0
 20
-149.5840000000000032
 30
0.0
 11
375.0
 21
-199.5840000000000032
 31
0.0
  0
LINE
  5
C9
100
AcDbEntity
  8
BLACK
 62
256
370
-1
 48
1.0
  6
Continuous
100
AcDbLine
 10
124.5240000000000009
 20
-149.5840000000000032
 30
0.0
 11
124.5240000000000009
 21
-199.5840000000000032
 31
0.0
  0
CIRCLE
  5
CA
100
AcDbEntity
  8
BLACK
 62
256
370
-1
 48
1.0
  6
ByLayer
100
AcDbCircle
 10
270.8100000000000023
 20
-161.0999999999999943
 30
0.0
 40
1.6000000000000001
  0
CIRCLE
  5
CB
100
AcDbEntity
  8
BLACK
 62
256
370
-1
 48
1.0
  6
ByLayer
100
AcDbCircle
 10
270.7900000000000205
 20
-165.6599999999999966
 30
0.0
 40
1.6000000000000001
  0
LINE
  5
CC
100
AcDbEntity
  8
BLACK
 62
256
370
-1
 48
1.0
  6
Continuous
100
AcDbLine
 10
373.9039999999999964
 20
-83.2879999999999967
 30
0.0
 11
373.9039999999999964
 21
-93.2879999999999967
 31
0.0
  0
CIRCLE
  5
CD
100
AcDbEntity
  8
BLACK
 62
256
370
-1
 48
1.0
  6
ByLayer
100
AcDbCircle
 10
199.48599999999999
 20
-187.0560000000000116
 30
0.0
 40
1.6000000000000001
  0
LINE
  5
CE
100
AcDbEntity
  8
BLACK
 62
256
370
-1
 48
1.0
  6
Continuous
100
AcDbLine
 10
253.4199999999999875
 20
-245.813999999999993
 30
0.0
 11
244.4199999999999875
 21
-245.813999999999993
 31
0.0
  0
CIRCLE
  5
CF
100
AcDbEntity
  8
BLACK
 62
256
370
-1
 48
1.0
  6
ByLayer
100
AcDbCircle
 10
462.5040000000000191
 20
-174.5939999999999941
 30
0.0
 40
1.6000000000000001
  0
CIRCLE
  5
D0
100
AcDbEntity
  8
BLACK
 62
256
370
-1
 48
1.0
  6
ByLayer
100
AcDbCircle
 10
211.9759999999999991
 20
-174.5660000000000025
 30
0.0
 40
1.6000000000000001
  0
CIRCLE
  5
D1
100
AcDbEntity
  8
BLACK
 62
256
370
-1
 48
1.0
  6
ByLayer
100
AcDbCircle
 10
341.7599999999999909
 20
-142.8300000000000125
 30
0.0
 40
1.6000000000000001
  0
LINE
  5
D2
100
AcDbEntity
  8
BLACK
 62
256
370
-1
 48
1.0
  6
Continuous
100
AcDbLine
 10
443.0
 20
-294.0
 30
0.0
 11
427.0
 21
-294.0
 31
0.0
  0
CIRCLE
  5
D3
100
AcDbEntity
  8
BLACK
 62
256
370
-1
 48
1.0
  6
ByLayer
100
AcDbCircle
 10
304.8100000000000023
 20
-111.5300000000000011
 30
0.0
 40
1.6000000000000001
  0
CIRCLE
  5
D4
100
AcDbEntity
  8
BLACK
 62
256
370
-1
 48
1.0
  6
ByLayer
100
AcDbCircle
 10
270.7900000000000205
 20
-170.1699999999999875
 30
0.0
 40
1.6000000000000001
  0
LINE
  5
D5
100
AcDbEntity
  8
BLACK
 62
256
370
-1
 48
1.0
  6
Continuous
100
AcDbLine
 10
321.4200000000000159
 20
-245.813999999999993
 30
0.0
 11
312.4200000000000159
 21
-245.813999999999993
 31
0.0
  0
LINE
  5
D6
100
AcDbEntity
  8
BLACK
 62
256
370
-1
 48
1.0
  6
Continuous
100
AcDbLine
 10
389.9039999999999964
 20
-83.2879999999999967
 30
0.0
 11
373.9039999999999964
 21
-83.2879999999999967
 31
0.0
  0
CIRCLE
  5
D7
100
AcDbEntity
  8
BLACK
 62
256
370
-1
 48
1.0
  6
ByLayer
100
AcDbCircle
 10
270.7900000000000205
 20
-147.6699999999999875
 30
0.0
 40
1.6000000000000001
  0
CIRCLE
  5
D8
100
AcDbEntity
  8
BLACK
 62
256
370
-1
 48
1.0
  6
ByLayer
100
AcDbCircle
 10
393.0
 20
-283.4800000000000182
 30
0.0
 40
12.5009999999999994
  0
CIRCLE
  5
D9
100
AcDbEntity
  8
BLACK
 62
256
370
-1
 48
1.0
  6
ByLayer
100
AcDbCircle
 10
400.0579999999999927
 20
-187.0980000000000132
 30
0.0
 40
1.6000000000000001
  0
CIRCLE
  5
DA
100
AcDbEntity
  8
BLACK
 62
256
370
-1
 48
1.0
  6
ByLayer
100
AcDbCircle
 10
270.8000000000000114
 20
-116.1700000000000017
 30
0.0
 40
1.6000000000000001
  0
LINE
  5
DB
100
AcDbEntity
  8
BLACK
 62
256
370
-1
 48
1.0
  6
Continuous
100
AcDbLine
 10
203.0
 20
-229.0
 30
0.0
 11
203.0
 21
-304.0
 31
0.0
  0
CIRCLE
  5
DC
100
AcDbEntity
  8
BLACK
 62
256
370
-1
 48
1.0
  6
ByLayer
100
AcDbCircle
 10
437.5079999999999814
 20
-174.6059999999999945
 30
0.0
 40
1.6000000000000001
  0
LINE
  5
DD
100
AcDbEntity
  8
BLACK
 62
256
370
-1
 48
1.0
  6
Continuous
100
AcDbLine
 10
124.5240000000000009
 20
-199.5840000000000032
 30
0.0
 11
224.5240000000000009
 21
-199.5840000000000032
 31
0.0
  0
CIRCLE
  5
DE
100
AcDbEntity
  8
BLACK
 62
256
370
-1
 48
1.0
  6
ByLayer
100
AcDbCircle
 10
270.8000000000000114
 20
-129.710000000000008
 30
0.0
 40
1.6000000000000001
  0
CIRCLE
  5
DF
100
AcDbEntity
  8
BLACK
 62
256
370
-1
 48
1.0
  6
ByLayer
100
AcDbCircle
 10
270.8100000000000023
 20
-107.1700000000000017
 30
0.0
 40
1.6000000000000001
  0
LINE
  5
E0
100
AcDbEntity
  8
BLACK
 62
256
370
-1
 48
1.0
  6
Continuous
100
AcDbLine
 10
443.0
 20
-243.0
 30
0.0
 11
427.0
 21
-243.0
 31
0.0
  0
LINE
  5
E1
100
AcDbEntity
  8
BLACK
 62
256
370
-1
 48
1.0
  6
Continuous
100
AcDbLine
 10
165.8799999999999955
 20
-83.4099999999999966
 30
0.0
 11
165.8799999999999955
 21
-93.4099999999999966
 31
0.0
  0
LINE
  5
E2
100
AcDbEntity
  8
BLACK
 62
256
370
-1
 48
1.0
  6
Continuous
100
AcDbLine
 10
431.9039999999999964
 20
-83.2879999999999967
 30
0.0
 11
415.9039999999999964
 21
-83.2879999999999967
 31
0.0
  0
LINE
  5
E3
100
AcDbEntity
  8
BLACK
 62
256
370
-1
 48
1.0
  6
Continuous
100
AcDbLine
 10
224.5240000000000009
 20
-224.5840000000000032
 30
0.0
 11
224.5240000000000009
 21
-204.5840000000000032
 31
0.0
  0
CIRCLE
  5
E4
100
AcDbEntity
  8
BLACK
 62
256
370
-1
 48
1.0
  6
ByLayer
100
AcDbCircle
 10
304.8000000000000114
 20
-125.019999999999996
 30
0.0
 40
1.6000000000000001
  0
CIRCLE
  5
E5
100
AcDbEntity
  8
BLACK
 62
256
370
-1
 48
1.0
  6
ByLayer
100
AcDbCircle
 10
357.6700000000000159
 20
-169.7199999999999989
 30
0.0
 40
1.6000000000000001
  0
LINE
  5
E6
100
AcDbEntity
  8
BLACK
 62
256
370
-1
 48
1.0
  6
Continuous
100
AcDbLine
 10
203.0
 20
-304.0
 30
0.0
 11
213.0
 21
-304.0
 31
0.0
  0
LINE
  5
E7
100
AcDbEntity
  8
BLACK
 62
256
370
-1
 48
1.0
  6
Continuous
100
AcDbLine
 10
206.8799999999999955
 20
-83.4099999999999966
 30
0.0
 11
206.8799999999999955
 21
-93.4099999999999966
 31
0.0
  0
CIRCLE
  5
E8
100
AcDbEntity
  8
BLACK
 62
256
370
-1
 48
1.0
  6
ByLayer
100
AcDbCircle
 10
341.7699999999999818
 20
-151.8199999999999932
 30
0.0
 40
1.6000000000000001
  0
CIRCLE
  5
E9
100
AcDbEntity
  8
BLACK
 62
256
370
-1
 48
1.0
  6
ByLayer
100
AcDbCircle
 10
143.0
 20
-253.4799999999999898
 30
0.0
 40
12.5022000000000002
  0
CIRCLE
  5
EA
100
AcDbEntity
  8
BLACK
 62
256
370
-1
 48
1.0
  6
ByLayer
100
AcDbCircle
 10
450.01400000000001
 20
-187.0840000000000032
 30
0.0
 40
1.6000000000000001
  0
CIRCLE
  5
EB
100
AcDbEntity
  8
BLACK
 62
256
370
-1
 48
1.0
  6
ByLayer
100
AcDbCircle
 10
304.8000000000000114
 20
-143.0300000000000011
 30
0.0
 40
1.6000000000000001
  0
LINE
  5
EC
100
AcDbEntity
  8
BLACK
 62
256
370
-1
 48
1.0
  6
Continuous
100
AcDbLine
 10
193.0
 20
-304.0
 30
0.0
 11
193.0
 21
-294.0
 31
0.0
  0
CIRCLE
  5
ED
100
AcDbEntity
  8
BLACK
 62
256
370
-1
 48
1.0
  6
ByLayer
100
AcDbCircle
 10
382.0
 20
-67.980000000000004
 30
0.0
 40
4.0
  0
CIRCLE
  5
EE
100
AcDbEntity
  8
BLACK
 62
256
370
-1
 48
1.0
  6
ByLayer
100
AcDbCircle
 10
304.8100000000000023
 20
-107.019999999999996
 30
0.0
 40
1.6000000000000001
  0
CIRCLE
  5
EF
100
AcDbEntity
  8
BLACK
 62
256
370
-1
 48
1.0
  6
ByLayer
100
AcDbCircle
 10
236.5099999999999909
 20
-129.710000000000008
 30
0.0
 40
1.6000000000000001
  0
CIRCLE
  5
F0
100
AcDbEntity
  8
BLACK
 62
256
370
-1
 48
1.0
  6
ByLayer
100
AcDbCircle
 10
149.5200000000000102
 20
-162.0900000000000034
 30
0.0
 40
1.6000000000000001
  0
CIRCLE
  5
F1
100
AcDbEntity
  8
BLACK
 62
256
370
-1
 48
1.0
  6
ByLayer
100
AcDbCircle
 10
236.5200000000000102
 20
-152.1699999999999875
 30
0.0
 40
1.6000000000000001
  0
LINE
  5
F2
100
AcDbEntity
  8
BLACK
 62
256
370
-1
 48
1.0
  6
Continuous
100
AcDbLine
 10
287.4200000000000159
 20
-245.813999999999993
 30
0.0
 11
278.4200000000000159
 21
-245.813999999999993
 31
0.0
  0
LINE
  5
F3
100
AcDbEntity
  8
BLACK
 62
256
370
-1
 48
1.0
  6
Continuous
100
AcDbLine
 10
443.0
 20
-229.0
 30
0.0
 11
427.0
 21
-229.0
 31
0.0
  0
LINE
  5
F4
100
AcDbEntity
  8
BLACK
 62
256
370
-1
 48
1.0
  6
Continuous
100
AcDbLine
 10
244.4199999999999875
 20
-245.813999999999993
 30
0.0
 11
244.4199999999999875
 21
-305.8140000000000214
 31
0.0
  0
CIRCLE
  5
F5
100
AcDbEntity
  8
BLACK
 62
256
370
-1
 48
1.0
  6
ByLayer
100
AcDbCircle
 10
357.6800000000000068
 20
-156.2299999999999898
 30
0.0
 40
1.6000000000000001
  0
CIRCLE
  5
F6
100
AcDbEntity
  8
BLACK
 62
256
370
-1
 48
1.0
  6
ByLayer
100
AcDbCircle
 10
236.5099999999999909
 20
-138.710000000000008
 30
0.0
 40
1.6000000000000001
  0
CIRCLE
  5
F7
100
AcDbEntity
  8
BLACK
 62
256
370
-1
 48
1.0
  6
ByLayer
100
AcDbCircle
 10
357.6800000000000068
 20
-138.2599999999999909
 30
0.0
 40
1.6000000000000001
  0
CIRCLE
  5
F8
100
AcDbEntity
  8
BLACK
 62
256
370
-1
 48
1.0
  6
ByLayer
100
AcDbCircle
 10
149.5300000000000011
 20
-187.0699999999999932
 30
0.0
 40
1.6000000000000001
  0
CIRCLE
  5
F9
100
AcDbEntity
  8
BLACK
 62
256
370
-1
 48
1.0
  6
ByLayer
100
AcDbCircle
 10
173.960000000000008
 20
-68.0600000000000023
 30
0.0
 40
4.0
  0
CIRCLE
  5
FA
100
AcDbEntity
  8
BLACK
 62
256
370
-1
 48
1.0
  6
ByLayer
100
AcDbCircle
 10
174.0
 20
-114.0300000000000011
 30
0.0
 40
4.0056200000000004
  0
CIRCLE
  5
FB
100
AcDbEntity
  8
BLACK
 62
256
370
-1
 48
1.0
  6
ByLayer
100
AcDbCircle
 10
412.5480000000000018
 20
-174.6080000000000041
 30
0.0
 40
1.6000000000000001
  0
LINE
  5
FC
100
AcDbEntity
  8
BLACK
 62
256
370
-1
 48
1.0
  6
Continuous
100
AcDbLine
 10
177.0
 20
-266.8799999999999955
 30
0.0
 11
177.0
 21
-276.8799999999999955
 31
0.0
  0
CIRCLE
  5
FD
100
AcDbEntity
  8
BLACK
 62
256
370
-1
 48
1.0
  6
ByLayer
100
AcDbCircle
 10
341.7599999999999909
 20
-115.8199999999999932
 30
0.0
 40
1.6000000000000001
  0
CIRCLE
  5
FE
100
AcDbEntity
  8
BLACK
 62
256
370
-1
 48
1.0
  6
ByLayer
100
AcDbCircle
 10
270.8299999999999841
 20
-134.1899999999999977
 30
0.0
 40
1.6000000000000001
  0
CIRCLE
  5
FF
100
AcDbEntity
  8
BLACK
 62
256
370
-1
 48
1.0
  6
ByLayer
100
AcDbCircle
 10
423.9900000000000091
 20
-114.0499999999999972
 30
0.0
 40
4.0042499999999999
  0
CIRCLE
  5
100
100
AcDbEntity
  8
BLACK
 62
256
370
-1
 48
1.0
  6
ByLayer
100
AcDbCircle
 10
137.0240000000000009
 20
-174.592000000000013
 30
0.0
 40
1.6000000000000001
  0
LINE
  5
101
100
AcDbEntity
  8
BLACK
 62
256
370
-1
 48
1.0
  6
Continuous
100
AcDbLine
 10
430.0500000000000114
 20
-109.0900000000000034
 30
0.0
 11
447.3500000000000227
 21
-109.0900000000000034
 31
0.0
  0
LINE
  5
102
100
AcDbEntity
  8
BLACK
 62
256
370
-1
 48
1.0
  6
Continuous
100
AcDbLine
 10
447.3500000000000227
 20
-109.0900000000000034
 30
0.0
 11
447.3500000000000227
 21
-119.0799999999999983
 31
0.0
  0
LINE
  5
103
100
AcDbEntity
  8
BLACK
 62
256
370
-1
 48
1.0
  6
Continuous
100
AcDbLine
 10
447.3500000000000227
 20
-119.0799999999999983
 30
0.0
 11
430.0500000000000114
 21
-119.0799999999999983
 31
0.0
  0
LINE
  5
104
100
AcDbEntity
  8
BLACK
 62
256
370
-1
 48
1.0
  6
Continuous
100
AcDbLine
 10
430.0500000000000114
 20
-119.0799999999999983
 30
0.0
 11
430.0500000000000114
 21
-109.0900000000000034
 31
0.0
  0
CIRCLE
  5
105
100
AcDbEntity
  8
BLACK
 62
256
370
-1
 48
1.0
  6
ByLayer
100
AcDbCircle
 10
236.5200000000000102
 20
-161.0999999999999943
 30
0.0
 40
1.6000000000000001
  0
LINE
  5
106
100
AcDbEntity
  8
BLACK
 62
256
370
-1
 48
1.0
  6
Continuous
100
AcDbLine
 10
224.5240000000000009
 20
-199.5840000000000032
 30
0.0
 11
224.5240000000000009
 21
-149.5840000000000032
 31
0.0
  0
CIRCLE
  5
107
100
AcDbEntity
  8
BLACK
 62
256
370
-1
 48
1.0
  6
ByLayer
100
AcDbCircle
 10
349.0
 20
-284.0
 30
0.0
 40
4.0
  0
CIRCLE
  5
108
100
AcDbEntity
  8
BLACK
 62
256
370
-1
 48
1.0
  6
ByLayer
100
AcDbCircle
 10
304.8000000000000114
 20
-129.5600000000000023
 30
0.0
 40
1.6000000000000001
  0
CIRCLE
  5
109
100
AcDbEntity
  8
BLACK
 62
256
370
-1
 48
1.0
  6
ByLayer
100
AcDbCircle
 10
249.0
 20
-68.0
 30
0.0
 40
4.0
  0
LINE
  5
10A
100
AcDbEntity
  8
BLACK
 62
256
370
-1
 48
1.0
  6
Continuous
100
AcDbLine
 10
177.0
 20
-243.0
 30
0.0
 11
177.0
 21
-253.0
 31
0.0
  0
LINE
  5
10B
100
AcDbEntity
  8
BLACK
 62
256
370
-1
 48
1.0
  6
Continuous
100
AcDbLine
 10
427.0
 20
-294.0
 30
0.0
 11
427.0
 21
-304.0
 31
0.0
  0
CIRCLE
  5
10C
100
AcDbEntity
  8
BLACK
 62
256
370
-1
 48
1.0
  6
ByLayer
100
AcDbCircle
 10
304.8299999999999841
 20
-134.039999999999992
 30
0.0
 40
1.6000000000000001
  0
CIRCLE
  5
10D
100
AcDbEntity
  8
BLACK
 62
256
370
-1
 48
1.0
  6
ByLayer
100
AcDbCircle
 10
304.8100000000000023
 20
-160.9499999999999886
 30
0.0
 40
1.6000000000000001
  0
CIRCLE
  5
10E
100
AcDbEntity
  8
BLACK
 62
256
370
-1
 48
1.0
  6
ByLayer
100
AcDbCircle
 10
236.5099999999999909
 20
-156.6800000000000068
 30
0.0
 40
1.6000000000000001
  0
LINE
  5
10F
100
AcDbEntity
  8
BLACK
 62
256
370
-1
 48
1.0
  6
Continuous
100
AcDbLine
 10
124.5240000000000009
 20
-204.5840000000000032
 30
0.0
 11
124.5240000000000009
 21
-224.5840000000000032
 31
0.0
  0
LINE
  5
110
100
AcDbEntity
  8
BLACK
 62
256
370
-1
 48
1.0
  6
Continuous
100
AcDbLine
 10
443.0199999999999818
 20
-266.6270000000000095
 30
0.0
 11
427.0199999999999818
 21
-266.6270000000000095
 31
0.0
  0
CIRCLE
  5
111
100
AcDbEntity
  8
BLACK
 62
256
370
-1
 48
1.0
  6
ByLayer
100
AcDbCircle
 10
186.9799999999999898
 20
-174.578000000000003
 30
0.0
 40
1.6000000000000001
  0
LINE
  5
112
100
AcDbEntity
  8
BLACK
 62
256
370
-1
 48
1.0
  6
Continuous
100
AcDbLine
 10
321.4200000000000159
 20
-305.8140000000000214
 30
0.0
 11
321.4200000000000159
 21
-245.813999999999993
 31
0.0
  0
CIRCLE
  5
113
100
AcDbEntity
  8
BLACK
 62
256
370
-1
 48
1.0
  6
ByLayer
100
AcDbCircle
 10
249.0
 20
-205.0
 30
0.0
 40
4.0
  0
CIRCLE
  5
114
100
AcDbEntity
  8
BLACK
 62
256
370
-1
 48
1.0
  6
ByLayer
100
AcDbCircle
 10
270.8000000000000114
 20
-138.710000000000008
 30
0.0
 40
1.6000000000000001
  0
CIRCLE
  5
115
100
AcDbEntity
  8
BLACK
 62
256
370
-1
 48
1.0
  6
ByLayer
100
AcDbCircle
 10
357.6800000000000068
 20
-124.7199999999999989
 30
0.0
 40
1.6000000000000001
  0
LINE
  5
116
100
AcDbEntity
  8
BLACK
 62
256
370
-1
 48
1.0
  6
Continuous
100
AcDbLine
 10
463.0
 20
-304.0
 30
0.0
 11
463.0
 21
-229.0
 31
0.0
  0
CIRCLE
  5
117
100
AcDbEntity
  8
BLACK
 62
256
370
-1
 48
1.0
  6
ByLayer
100
AcDbCircle
 10
270.8000000000000114
 20
-143.1800000000000068
 30
0.0
 40
1.6000000000000001
  0
CIRCLE
  5
118
100
AcDbEntity
  8
BLACK
 62
256
370
-1
 48
1.0
  6
ByLayer
100
AcDbCircle
 10
162.0200000000000102
 20
-174.5800000000000125
 30
0.0
 40
1.6000000000000001
  0
LINE
  5
119
100
AcDbEntity
  8
BLACK
 62
256
370
-1
 48
1.0
  6
Continuous
100
AcDbLine
 10
463.0
 20
-229.0
 30
0.0
 11
453.0
 21
-229.0
 31
0.0
  0
LINE
  5
11A
100
AcDbEntity
  8
BLACK
 62
256
370
-1
 48
1.0
  6
Continuous
100
AcDbLine
 10
193.0
 20
-294.0
 30
0.0
 11
177.0
 21
-294.0
 31
0.0
  0
CIRCLE
  5
11B
100
AcDbEntity
  8
BLACK
 62
256
370
-1
 48
1.0
  6
ByLayer
100
AcDbCircle
 10
392.9700000000000273
 20
-253.5200000000000102
 30
0.0
 40
12.5015000000000001
  0
CIRCLE
  5
11C
100
AcDbEntity
  8
BLACK
 62
256
370
-1
 48
1.0
  6
ByLayer
100
AcDbCircle
 10
357.6899999999999977
 20
-151.7199999999999989
 30
0.0
 40
1.6000000000000001
  0
LINE
  5
11D
100
AcDbEntity
  8
BLACK
 62
256
370
-1
 48
1.0
  6
Continuous
100
AcDbLine
 10
222.8799999999999955
 20
-83.4099999999999966
 30
0.0
 11
206.8799999999999955
 21
-83.4099999999999966
 31
0.0
  0
CIRCLE
  5
11E
100
AcDbEntity
  8
BLACK
 62
256
370
-1
 48
1.0
  6
ByLayer
100
AcDbCircle
 10
357.6800000000000068
 20
-120.2199999999999989
 30
0.0
 40
1.6000000000000001
  0
CIRCLE
  5
11F
100
AcDbEntity
  8
BLACK
 62
256
370
-1
 48
1.0
  6
ByLayer
100
AcDbCircle
 10
304.8000000000000114
 20
-156.5300000000000011
 30
0.0
 40
1.6000000000000001
  0
LINE
  5
120
100
AcDbEntity
  8
BLACK
 62
256
370
-1
 48
1.0
  6
Continuous
100
AcDbLine
 10
415.9039999999999964
 20
-83.2879999999999967
 30
0.0
 11
415.9039999999999964
 21
-93.2879999999999967
 31
0.0
  0
LINE
  5
121
100
AcDbEntity
  8
BLACK
 62
256
370
-1
 48
1.0
  6
Continuous
100
AcDbLine
 10
389.9039999999999964
 20
-93.2879999999999967
 30
0.0
 11
389.9039999999999964
 21
-83.2879999999999967
 31
0.0
  0
CIRCLE
  5
122
100
AcDbEntity
  8
BLACK
 62
256
370
-1
 48
1.0
  6
ByLayer
100
AcDbCircle
 10
341.7699999999999818
 20
-111.3299999999999983
 30
0.0
 40
1.6000000000000001
  0
LINE
  5
123
100
AcDbEntity
  8
BLACK
 62
256
370
-1
 48
1.0
  6
Continuous
100
AcDbLine
 10
193.0
 20
-243.0
 30
0.0
 11
177.0
 21
-243.0
 31
0.0
  0
CIRCLE
  5
124
100
AcDbEntity
  8
BLACK
 62
256
370
-1
 48
1.0
  6
ByLayer
100
AcDbCircle
 10
131.960000000000008
 20
-68.0600000000000023
 30
0.0
 40
4.0
  0
LINE
  5
125
100
AcDbEntity
  8
BLACK
 62
256
370
-1
 48
1.0
  6
Continuous
100
AcDbLine
 10
456.9200000000000159
 20
-83.2879999999999967
 30
0.0
 11
472.9200000000000159
 21
-83.2879999999999967
 31
0.0
  0
LINE
  5
126
100
AcDbEntity
  8
BLACK
 62
256
370
-1
 48
1.0
  6
Continuous
100
AcDbLine
 10
472.9200000000000159
 20
-83.2879999999999967
 30
0.0
 11
472.9200000000000159
 21
-93.2879999999999967
 31
0.0
  0
LINE
  5
127
100
AcDbEntity
  8
BLACK
 62
256
370
-1
 48
1.0
  6
Continuous
100
AcDbLine
 10
472.9200000000000159
 20
-93.2879999999999967
 30
0.0
 11
456.9200000000000159
 21
-93.2879999999999967
 31
0.0
  0
LINE
  5
128
100
AcDbEntity
  8
BLACK
 62
256
370
-1
 48
1.0
  6
Continuous
100
AcDbLine
 10
456.9200000000000159
 20
-93.2879999999999967
 30
0.0
 11
456.9200000000000159
 21
-83.2879999999999967
 31
0.0
  0
CIRCLE
  5
129
100
AcDbEntity
  8
BLACK
 62
256
370
-1
 48
1.0
  6
ByLayer
100
AcDbCircle
 10
236.5
 20
-147.6699999999999875
 30
0.0
 40
1.6000000000000001
  0
LINE
  5
12A
100
AcDbEntity
  8
BLACK
 62
256
370
-1
 48
1.0
  6
Continuous
100
AcDbLine
 10
193.0
 20
-253.0
 30
0.0
 11
193.0
 21
-243.0
 31
0.0
  0
LINE
  5
12B
100
AcDbEntity
  8
BLACK
 62
256
370
-1
 48
1.0
  6
Continuous
100
AcDbLine
 10
416.1929999999999836
 20
-212.9410000000000025
 30
0.0
 11
417.73599999999999
 21
-212.9410000000000025
 31
0.0
  0
LINE
  5
12C
100
AcDbEntity
  8
BLACK
 62
256
370
-1
 48
1.0
  6
Continuous
100
AcDbLine
 10
416.9639999999999986
 20
-215.9410000000000025
 30
0.0
 11
416.9639999999999986
 21
-212.9410000000000025
 31
0.0
  0
LINE
  5
12D
100
AcDbEntity
  8
BLACK
 62
256
370
-1
 48
1.0
  6
Continuous
100
AcDbLine
 10
420.1789999999999736
 20
-215.9410000000000025
 30
0.0
 11
419.2789999999999964
 21
-214.5130000000000052
 31
0.0
  0
LINE
  5
12E
100
AcDbEntity
  8
BLACK
 62
256
370
-1
 48
1.0
  6
Continuous
100
AcDbLine
 10
418.6360000000000241
 20
-215.9410000000000025
 30
0.0
 11
418.6360000000000241
 21
-212.9410000000000025
 31
0.0
  0
LINE
  5
12F
100
AcDbEntity
  8
BLACK
 62
256
370
-1
 48
1.0
  6
Continuous
100
AcDbLine
 10
418.6360000000000241
 20
-212.9410000000000025
 30
0.0
 11
419.6639999999999873
 21
-212.9410000000000025
 31
0.0
  0
LINE
  5
130
100
AcDbEntity
  8
BLACK
 62
256
370
-1
 48
1.0
  6
Continuous
100
AcDbLine
 10
419.6639999999999873
 20
-212.9410000000000025
 30
0.0
 11
419.9209999999999923
 21
-213.0840000000000032
 31
0.0
  0
LINE
  5
131
100
AcDbEntity
  8
BLACK
 62
256
370
-1
 48
1.0
  6
Continuous
100
AcDbLine
 10
419.9209999999999923
 20
-213.0840000000000032
 30
0.0
 11
420.0500000000000114
 21
-213.2270000000000039
 31
0.0
  0
LINE
  5
132
100
AcDbEntity
  8
BLACK
 62
256
370
-1
 48
1.0
  6
Continuous
100
AcDbLine
 10
420.0500000000000114
 20
-213.2270000000000039
 30
0.0
 11
420.1789999999999736
 21
-213.5130000000000052
 31
0.0
  0
LINE
  5
133
100
AcDbEntity
  8
BLACK
 62
256
370
-1
 48
1.0
  6
Continuous
100
AcDbLine
 10
420.1789999999999736
 20
-213.5130000000000052
 30
0.0
 11
420.1789999999999736
 21
-213.9410000000000025
 31
0.0
  0
LINE
  5
134
100
AcDbEntity
  8
BLACK
 62
256
370
-1
 48
1.0
  6
Continuous
100
AcDbLine
 10
420.1789999999999736
 20
-213.9410000000000025
 30
0.0
 11
420.0500000000000114
 21
-214.2270000000000039
 31
0.0
  0
LINE
  5
135
100
AcDbEntity
  8
BLACK
 62
256
370
-1
 48
1.0
  6
Continuous
100
AcDbLine
 10
420.0500000000000114
 20
-214.2270000000000039
 30
0.0
 11
419.9209999999999923
 21
-214.3700000000000045
 31
0.0
  0
LINE
  5
136
100
AcDbEntity
  8
BLACK
 62
256
370
-1
 48
1.0
  6
Continuous
100
AcDbLine
 10
419.9209999999999923
 20
-214.3700000000000045
 30
0.0
 11
419.6639999999999873
 21
-214.5130000000000052
 31
0.0
  0
LINE
  5
137
100
AcDbEntity
  8
BLACK
 62
256
370
-1
 48
1.0
  6
Continuous
100
AcDbLine
 10
419.6639999999999873
 20
-214.5130000000000052
 30
0.0
 11
418.6360000000000241
 21
-214.5130000000000052
 31
0.0
  0
LINE
  5
138
100
AcDbEntity
  8
BLACK
 62
256
370
-1
 48
1.0
  6
Continuous
100
AcDbLine
 10
421.3360000000000127
 20
-215.9410000000000025
 30
0.0
 11
421.3360000000000127
 21
-212.9410000000000025
 31
0.0
  0
LINE
  5
139
100
AcDbEntity
  8
BLACK
 62
256
370
-1
 48
1.0
  6
Continuous
100
AcDbLine
 10
423.9069999999999823
 20
-215.9410000000000025
 30
0.0
 11
422.6209999999999809
 21
-215.9410000000000025
 31
0.0
  0
LINE
  5
13A
100
AcDbEntity
  8
BLACK
 62
256
370
-1
 48
1.0
  6
Continuous
100
AcDbLine
 10
422.6209999999999809
 20
-215.9410000000000025
 30
0.0
 11
422.6209999999999809
 21
-212.9410000000000025
 31
0.0
  0
LINE
  5
13B
100
AcDbEntity
  8
BLACK
 62
256
370
-1
 48
1.0
  6
Continuous
100
AcDbLine
 10
426.0930000000000177
 20
-215.9410000000000025
 30
0.0
 11
424.8070000000000164
 21
-215.9410000000000025
 31
0.0
  0
LINE
  5
13C
100
AcDbEntity
  8
BLACK
 62
256
370
-1
 48
1.0
  6
Continuous
100
AcDbLine
 10
424.8070000000000164
 20
-215.9410000000000025
 30
0.0
 11
424.8070000000000164
 21
-212.9410000000000025
 31
0.0
  0
LINE
  5
13D
100
AcDbEntity
  8
BLACK
 62
256
370
-1
 48
1.0
  6
Continuous
100
AcDbLine
 10
427.8929999999999723
 20
-214.3700000000000045
 30
0.0
 11
428.2789999999999964
 21
-214.5130000000000052
 31
0.0
  0
LINE
  5
13E
100
AcDbEntity
  8
BLACK
 62
256
370
-1
 48
1.0
  6
Continuous
100
AcDbLine
 10
428.2789999999999964
 20
-214.5130000000000052
 30
0.0
 11
428.4069999999999823
 21
-214.6550000000000011
 31
0.0
  0
LINE
  5
13F
100
AcDbEntity
  8
BLACK
 62
256
370
-1
 48
1.0
  6
Continuous
100
AcDbLine
 10
428.4069999999999823
 20
-214.6550000000000011
 30
0.0
 11
428.5360000000000014
 21
-214.9410000000000025
 31
0.0
  0
LINE
  5
140
100
AcDbEntity
  8
BLACK
 62
256
370
-1
 48
1.0
  6
Continuous
100
AcDbLine
 10
428.5360000000000014
 20
-214.9410000000000025
 30
0.0
 11
428.5360000000000014
 21
-215.3700000000000045
 31
0.0
  0
LINE
  5
141
100
AcDbEntity
  8
BLACK
 62
256
370
-1
 48
1.0
  6
Continuous
100
AcDbLine
 10
428.5360000000000014
 20
-215.3700000000000045
 30
0.0
 11
428.4069999999999823
 21
-215.6550000000000011
 31
0.0
  0
LINE
  5
142
100
AcDbEntity
  8
BLACK
 62
256
370
-1
 48
1.0
  6
Continuous
100
AcDbLine
 10
428.4069999999999823
 20
-215.6550000000000011
 30
0.0
 11
428.2789999999999964
 21
-215.7980000000000018
 31
0.0
  0
LINE
  5
143
100
AcDbEntity
  8
BLACK
 62
256
370
-1
 48
1.0
  6
Continuous
100
AcDbLine
 10
428.2789999999999964
 20
-215.7980000000000018
 30
0.0
 11
428.021000000000015
 21
-215.9410000000000025
 31
0.0
  0
LINE
  5
144
100
AcDbEntity
  8
BLACK
 62
256
370
-1
 48
1.0
  6
Continuous
100
AcDbLine
 10
428.021000000000015
 20
-215.9410000000000025
 30
0.0
 11
426.992999999999995
 21
-215.9410000000000025
 31
0.0
  0
LINE
  5
145
100
AcDbEntity
  8
BLACK
 62
256
370
-1
 48
1.0
  6
Continuous
100
AcDbLine
 10
426.992999999999995
 20
-215.9410000000000025
 30
0.0
 11
426.992999999999995
 21
-212.9410000000000025
 31
0.0
  0
LINE
  5
146
100
AcDbEntity
  8
BLACK
 62
256
370
-1
 48
1.0
  6
Continuous
100
AcDbLine
 10
426.992999999999995
 20
-212.9410000000000025
 30
0.0
 11
427.8929999999999723
 21
-212.9410000000000025
 31
0.0
  0
LINE
  5
147
100
AcDbEntity
  8
BLACK
 62
256
370
-1
 48
1.0
  6
Continuous
100
AcDbLine
 10
427.8929999999999723
 20
-212.9410000000000025
 30
0.0
 11
428.1499999999999773
 21
-213.0840000000000032
 31
0.0
  0
LINE
  5
148
100
AcDbEntity
  8
BLACK
 62
256
370
-1
 48
1.0
  6
Continuous
100
AcDbLine
 10
428.1499999999999773
 20
-213.0840000000000032
 30
0.0
 11
428.2789999999999964
 21
-213.2270000000000039
 31
0.0
  0
LINE
  5
149
100
AcDbEntity
  8
BLACK
 62
256
370
-1
 48
1.0
  6
Continuous
100
AcDbLine
 10
428.2789999999999964
 20
-213.2270000000000039
 30
0.0
 11
428.4069999999999823
 21
-213.5130000000000052
 31
0.0
  0
LINE
  5
14A
100
AcDbEntity
  8
BLACK
 62
256
370
-1
 48
1.0
  6
Continuous
100
AcDbLine
 10
428.4069999999999823
 20
-213.5130000000000052
 30
0.0
 11
428.4069999999999823
 21
-213.7980000000000018
 31
0.0
  0
LINE
  5
14B
100
AcDbEntity
  8
BLACK
 62
256
370
-1
 48
1.0
  6
Continuous
100
AcDbLine
 10
428.4069999999999823
 20
-213.7980000000000018
 30
0.0
 11
428.2789999999999964
 21
-214.0840000000000032
 31
0.0
  0
LINE
  5
14C
100
AcDbEntity
  8
BLACK
 62
256
370
-1
 48
1.0
  6
Continuous
100
AcDbLine
 10
428.2789999999999964
 20
-214.0840000000000032
 30
0.0
 11
428.1499999999999773
 21
-214.2270000000000039
 31
0.0
  0
LINE
  5
14D
100
AcDbEntity
  8
BLACK
 62
256
370
-1
 48
1.0
  6
Continuous
100
AcDbLine
 10
428.1499999999999773
 20
-214.2270000000000039
 30
0.0
 11
427.8929999999999723
 21
-214.3700000000000045
 31
0.0
  0
LINE
  5
14E
100
AcDbEntity
  8
BLACK
 62
256
370
-1
 48
1.0
  6
Continuous
100
AcDbLine
 10
427.8929999999999723
 20
-214.3700000000000045
 30
0.0
 11
426.992999999999995
 21
-214.3700000000000045
 31
0.0
  0
LINE
  5
14F
100
AcDbEntity
  8
BLACK
 62
256
370
-1
 48
1.0
  6
Continuous
100
AcDbLine
 10
429.5640000000000214
 20
-215.0840000000000032
 30
0.0
 11
430.8500000000000227
 21
-215.0840000000000032
 31
0.0
  0
LINE
  5
150
100
AcDbEntity
  8
BLACK
 62
256
370
-1
 48
1.0
  6
Continuous
100
AcDbLine
 10
429.3070000000000164
 20
-215.9410000000000025
 30
0.0
 11
430.2069999999999936
 21
-212.9410000000000025
 31
0.0
  0
LINE
  5
151
100
AcDbEntity
  8
BLACK
 62
256
370
-1
 48
1.0
  6
Continuous
100
AcDbLine
 10
430.2069999999999936
 20
-212.9410000000000025
 30
0.0
 11
431.1070000000000277
 21
-215.9410000000000025
 31
0.0
  0
LINE
  5
152
100
AcDbEntity
  8
BLACK
 62
256
370
-1
 48
1.0
  6
Continuous
100
AcDbLine
 10
433.5500000000000114
 20
-215.9410000000000025
 30
0.0
 11
432.6499999999999773
 21
-214.5130000000000052
 31
0.0
  0
LINE
  5
153
100
AcDbEntity
  8
BLACK
 62
256
370
-1
 48
1.0
  6
Continuous
100
AcDbLine
 10
432.007000000000005
 20
-215.9410000000000025
 30
0.0
 11
432.007000000000005
 21
-212.9410000000000025
 31
0.0
  0
LINE
  5
154
100
AcDbEntity
  8
BLACK
 62
256
370
-1
 48
1.0
  6
Continuous
100
AcDbLine
 10
432.007000000000005
 20
-212.9410000000000025
 30
0.0
 11
433.0360000000000014
 21
-212.9410000000000025
 31
0.0
  0
LINE
  5
155
100
AcDbEntity
  8
BLACK
 62
256
370
-1
 48
1.0
  6
Continuous
100
AcDbLine
 10
433.0360000000000014
 20
-212.9410000000000025
 30
0.0
 11
433.2930000000000064
 21
-213.0840000000000032
 31
0.0
  0
LINE
  5
156
100
AcDbEntity
  8
BLACK
 62
256
370
-1
 48
1.0
  6
Continuous
100
AcDbLine
 10
433.2930000000000064
 20
-213.0840000000000032
 30
0.0
 11
433.4209999999999923
 21
-213.2270000000000039
 31
0.0
  0
LINE
  5
157
100
AcDbEntity
  8
BLACK
 62
256
370
-1
 48
1.0
  6
Continuous
100
AcDbLine
 10
433.4209999999999923
 20
-213.2270000000000039
 30
0.0
 11
433.5500000000000114
 21
-213.5130000000000052
 31
0.0
  0
LINE
  5
158
100
AcDbEntity
  8
BLACK
 62
256
370
-1
 48
1.0
  6
Continuous
100
AcDbLine
 10
433.5500000000000114
 20
-213.5130000000000052
 30
0.0
 11
433.5500000000000114
 21
-213.9410000000000025
 31
0.0
  0
LINE
  5
159
100
AcDbEntity
  8
BLACK
 62
256
370
-1
 48
1.0
  6
Continuous
100
AcDbLine
 10
433.5500000000000114
 20
-213.9410000000000025
 30
0.0
 11
433.4209999999999923
 21
-214.2270000000000039
 31
0.0
  0
LINE
  5
15A
100
AcDbEntity
  8
BLACK
 62
256
370
-1
 48
1.0
  6
Continuous
100
AcDbLine
 10
433.4209999999999923
 20
-214.2270000000000039
 30
0.0
 11
433.2930000000000064
 21
-214.3700000000000045
 31
0.0
  0
LINE
  5
15B
100
AcDbEntity
  8
BLACK
 62
256
370
-1
 48
1.0
  6
Continuous
100
AcDbLine
 10
433.2930000000000064
 20
-214.3700000000000045
 30
0.0
 11
433.0360000000000014
 21
-214.5130000000000052
 31
0.0
  0
LINE
  5
15C
100
AcDbEntity
  8
BLACK
 62
256
370
-1
 48
1.0
  6
Continuous
100
AcDbLine
 10
433.0360000000000014
 20
-214.5130000000000052
 30
0.0
 11
432.007000000000005
 21
-214.5130000000000052
 31
0.0
  0
LINE
  5
15D
100
AcDbEntity
  8
BLACK
 62
256
370
-1
 48
1.0
  6
Continuous
100
AcDbLine
 10
165.717000000000013
 20
-212.9410000000000025
 30
0.0
 11
167.2599999999999909
 21
-212.9410000000000025
 31
0.0
  0
LINE
  5
15E
100
AcDbEntity
  8
BLACK
 62
256
370
-1
 48
1.0
  6
Continuous
100
AcDbLine
 10
166.4879999999999995
 20
-215.9410000000000025
 30
0.0
 11
166.4879999999999995
 21
-212.9410000000000025
 31
0.0
  0
LINE
  5
15F
100
AcDbEntity
  8
BLACK
 62
256
370
-1
 48
1.0
  6
Continuous
100
AcDbLine
 10
169.703000000000003
 20
-215.9410000000000025
 30
0.0
 11
168.8029999999999973
 21
-214.5130000000000052
 31
0.0
  0
LINE
  5
160
100
AcDbEntity
  8
BLACK
 62
256
370
-1
 48
1.0
  6
Continuous
100
AcDbLine
 10
168.1599999999999966
 20
-215.9410000000000025
 30
0.0
 11
168.1599999999999966
 21
-212.9410000000000025
 31
0.0
  0
LINE
  5
161
100
AcDbEntity
  8
BLACK
 62
256
370
-1
 48
1.0
  6
Continuous
100
AcDbLine
 10
168.1599999999999966
 20
-212.9410000000000025
 30
0.0
 11
169.1879999999999882
 21
-212.9410000000000025
 31
0.0
  0
LINE
  5
162
100
AcDbEntity
  8
BLACK
 62
256
370
-1
 48
1.0
  6
Continuous
100
AcDbLine
 10
169.1879999999999882
 20
-212.9410000000000025
 30
0.0
 11
169.4449999999999932
 21
-213.0840000000000032
 31
0.0
  0
LINE
  5
163
100
AcDbEntity
  8
BLACK
 62
256
370
-1
 48
1.0
  6
Continuous
100
AcDbLine
 10
169.4449999999999932
 20
-213.0840000000000032
 30
0.0
 11
169.5740000000000123
 21
-213.2270000000000039
 31
0.0
  0
LINE
  5
164
100
AcDbEntity
  8
BLACK
 62
256
370
-1
 48
1.0
  6
Continuous
100
AcDbLine
 10
169.5740000000000123
 20
-213.2270000000000039
 30
0.0
 11
169.703000000000003
 21
-213.5130000000000052
 31
0.0
  0
LINE
  5
165
100
AcDbEntity
  8
BLACK
 62
256
370
-1
 48
1.0
  6
Continuous
100
AcDbLine
 10
169.703000000000003
 20
-213.5130000000000052
 30
0.0
 11
169.703000000000003
 21
-213.9410000000000025
 31
0.0
  0
LINE
  5
166
100
AcDbEntity
  8
BLACK
 62
256
370
-1
 48
1.0
  6
Continuous
100
AcDbLine
 10
169.703000000000003
 20
-213.9410000000000025
 30
0.0
 11
169.5740000000000123
 21
-214.2270000000000039
 31
0.0
  0
LINE
  5
167
100
AcDbEntity
  8
BLACK
 62
256
370
-1
 48
1.0
  6
Continuous
100
AcDbLine
 10
169.5740000000000123
 20
-214.2270000000000039
 30
0.0
 11
169.4449999999999932
 21
-214.3700000000000045
 31
0.0
  0
LINE
  5
168
100
AcDbEntity
  8
BLACK
 62
256
370
-1
 48
1.0
  6
Continuous
100
AcDbLine
 10
169.4449999999999932
 20
-214.3700000000000045
 30
0.0
 11
169.1879999999999882
 21
-214.5130000000000052
 31
0.0
  0
LINE
  5
169
100
AcDbEntity
  8
BLACK
 62
256
370
-1
 48
1.0
  6
Continuous
100
AcDbLine
 10
169.1879999999999882
 20
-214.5130000000000052
 30
0.0
 11
168.1599999999999966
 21
-214.5130000000000052
 31
0.0
  0
LINE
  5
16A
100
AcDbEntity
  8
BLACK
 62
256
370
-1
 48
1.0
  6
Continuous
100
AcDbLine
 10
170.8600000000000136
 20
-215.9410000000000025
 30
0.0
 11
170.8600000000000136
 21
-212.9410000000000025
 31
0.0
  0
LINE
  5
16B
100
AcDbEntity
  8
BLACK
 62
256
370
-1
 48
1.0
  6
Continuous
100
AcDbLine
 10
173.4310000000000116
 20
-215.9410000000000025
 30
0.0
 11
172.1450000000000102
 21
-215.9410000000000025
 31
0.0
  0
LINE
  5
16C
100
AcDbEntity
  8
BLACK
 62
256
370
-1
 48
1.0
  6
Continuous
100
AcDbLine
 10
172.1450000000000102
 20
-215.9410000000000025
 30
0.0
 11
172.1450000000000102
 21
-212.9410000000000025
 31
0.0
  0
LINE
  5
16D
100
AcDbEntity
  8
BLACK
 62
256
370
-1
 48
1.0
  6
Continuous
100
AcDbLine
 10
175.6169999999999902
 20
-215.9410000000000025
 30
0.0
 11
174.3309999999999889
 21
-215.9410000000000025
 31
0.0
  0
LINE
  5
16E
100
AcDbEntity
  8
BLACK
 62
256
370
-1
 48
1.0
  6
Continuous
100
AcDbLine
 10
174.3309999999999889
 20
-215.9410000000000025
 30
0.0
 11
174.3309999999999889
 21
-212.9410000000000025
 31
0.0
  0
LINE
  5
16F
100
AcDbEntity
  8
BLACK
 62
256
370
-1
 48
1.0
  6
Continuous
100
AcDbLine
 10
177.4170000000000016
 20
-214.3700000000000045
 30
0.0
 11
177.8029999999999973
 21
-214.5130000000000052
 31
0.0
  0
LINE
  5
170
100
AcDbEntity
  8
BLACK
 62
256
370
-1
 48
1.0
  6
Continuous
100
AcDbLine
 10
177.8029999999999973
 20
-214.5130000000000052
 30
0.0
 11
177.9310000000000116
 21
-214.6550000000000011
 31
0.0
  0
LINE
  5
171
100
AcDbEntity
  8
BLACK
 62
256
370
-1
 48
1.0
  6
Continuous
100
AcDbLine
 10
177.9310000000000116
 20
-214.6550000000000011
 30
0.0
 11
178.0600000000000023
 21
-214.9410000000000025
 31
0.0
  0
LINE
  5
172
100
AcDbEntity
  8
BLACK
 62
256
370
-1
 48
1.0
  6
Continuous
100
AcDbLine
 10
178.0600000000000023
 20
-214.9410000000000025
 30
0.0
 11
178.0600000000000023
 21
-215.3700000000000045
 31
0.0
  0
LINE
  5
173
100
AcDbEntity
  8
BLACK
 62
256
370
-1
 48
1.0
  6
Continuous
100
AcDbLine
 10
178.0600000000000023
 20
-215.3700000000000045
 30
0.0
 11
177.9310000000000116
 21
-215.6550000000000011
 31
0.0
  0
LINE
  5
174
100
AcDbEntity
  8
BLACK
 62
256
370
-1
 48
1.0
  6
Continuous
100
AcDbLine
 10
177.9310000000000116
 20
-215.6550000000000011
 30
0.0
 11
177.8029999999999973
 21
-215.7980000000000018
 31
0.0
  0
LINE
  5
175
100
AcDbEntity
  8
BLACK
 62
256
370
-1
 48
1.0
  6
Continuous
100
AcDbLine
 10
177.8029999999999973
 20
-215.7980000000000018
 30
0.0
 11
177.5449999999999875
 21
-215.9410000000000025
 31
0.0
  0
LINE
  5
176
100
AcDbEntity
  8
BLACK
 62
256
370
-1
 48
1.0
  6
Continuous
100
AcDbLine
 10
177.5449999999999875
 20
-215.9410000000000025
 30
0.0
 11
176.5169999999999959
 21
-215.9410000000000025
 31
0.0
  0
LINE
  5
177
100
AcDbEntity
  8
BLACK
 62
256
370
-1
 48
1.0
  6
Continuous
100
AcDbLine
 10
176.5169999999999959
 20
-215.9410000000000025
 30
0.0
 11
176.5169999999999959
 21
-212.9410000000000025
 31
0.0
  0
LINE
  5
178
100
AcDbEntity
  8
BLACK
 62
256
370
-1
 48
1.0
  6
Continuous
100
AcDbLine
 10
176.5169999999999959
 20
-212.9410000000000025
 30
0.0
 11
177.4170000000000016
 21
-212.9410000000000025
 31
0.0
  0
LINE
  5
179
100
AcDbEntity
  8
BLACK
 62
256
370
-1
 48
1.0
  6
Continuous
100
AcDbLine
 10
177.4170000000000016
 20
-212.9410000000000025
 30
0.0
 11
177.6740000000000066
 21
-213.0840000000000032
 31
0.0
  0
LINE
  5
17A
100
AcDbEntity
  8
BLACK
 62
256
370
-1
 48
1.0
  6
Continuous
100
AcDbLine
 10
177.6740000000000066
 20
-213.0840000000000032
 30
0.0
 11
177.8029999999999973
 21
-213.2270000000000039
 31
0.0
  0
LINE
  5
17B
100
AcDbEntity
  8
BLACK
 62
256
370
-1
 48
1.0
  6
Continuous
100
AcDbLine
 10
177.8029999999999973
 20
-213.2270000000000039
 30
0.0
 11
177.9310000000000116
 21
-213.5130000000000052
 31
0.0
  0
LINE
  5
17C
100
AcDbEntity
  8
BLACK
 62
256
370
-1
 48
1.0
  6
Continuous
100
AcDbLine
 10
177.9310000000000116
 20
-213.5130000000000052
 30
0.0
 11
177.9310000000000116
 21
-213.7980000000000018
 31
0.0
  0
LINE
  5
17D
100
AcDbEntity
  8
BLACK
 62
256
370
-1
 48
1.0
  6
Continuous
100
AcDbLine
 10
177.9310000000000116
 20
-213.7980000000000018
 30
0.0
 11
177.8029999999999973
 21
-214.0840000000000032
 31
0.0
  0
LINE
  5
17E
100
AcDbEntity
  8
BLACK
 62
256
370
-1
 48
1.0
  6
Continuous
100
AcDbLine
 10
177.8029999999999973
 20
-214.0840000000000032
 30
0.0
 11
177.6740000000000066
 21
-214.2270000000000039
 31
0.0
  0
LINE
  5
17F
100
AcDbEntity
  8
BLACK
 62
256
370
-1
 48
1.0
  6
Continuous
100
AcDbLine
 10
177.6740000000000066
 20
-214.2270000000000039
 30
0.0
 11
177.4170000000000016
 21
-214.3700000000000045
 31
0.0
  0
LINE
  5
180
100
AcDbEntity
  8
BLACK
 62
256
370
-1
 48
1.0
  6
Continuous
100
AcDbLine
 10
177.4170000000000016
 20
-214.3700000000000045
 30
0.0
 11
176.5169999999999959
 21
-214.3700000000000045
 31
0.0
  0
LINE
  5
181
100
AcDbEntity
  8
BLACK
 62
256
370
-1
 48
1.0
  6
Continuous
100
AcDbLine
 10
179.0879999999999939
 20
-215.0840000000000032
 30
0.0
 11
180.3739999999999952
 21
-215.0840000000000032
 31
0.0
  0
LINE
  5
182
100
AcDbEntity
  8
BLACK
 62
256
370
-1
 48
1.0
  6
Continuous
100
AcDbLine
 10
178.8309999999999889
 20
-215.9410000000000025
 30
0.0
 11
179.7309999999999945
 21
-212.9410000000000025
 31
0.0
  0
LINE
  5
183
100
AcDbEntity
  8
BLACK
 62
256
370
-1
 48
1.0
  6
Continuous
100
AcDbLine
 10
179.7309999999999945
 20
-212.9410000000000025
 30
0.0
 11
180.6310000000000002
 21
-215.9410000000000025
 31
0.0
  0
LINE
  5
184
100
AcDbEntity
  8
BLACK
 62
256
370
-1
 48
1.0
  6
Continuous
100
AcDbLine
 10
183.0740000000000123
 20
-215.9410000000000025
 30
0.0
 11
182.1740000000000066
 21
-214.5130000000000052
 31
0.0
  0
LINE
  5
185
100
AcDbEntity
  8
BLACK
 62
256
370
-1
 48
1.0
  6
Continuous
100
AcDbLine
 10
181.5310000000000059
 20
-215.9410000000000025
 30
0.0
 11
181.5310000000000059
 21
-212.9410000000000025
 31
0.0
  0
LINE
  5
186
100
AcDbEntity
  8
BLACK
 62
256
370
-1
 48
1.0
  6
Continuous
100
AcDbLine
 10
181.5310000000000059
 20
-212.9410000000000025
 30
0.0
 11
182.5600000000000023
 21
-212.9410000000000025
 31
0.0
  0
LINE
  5
187
100
AcDbEntity
  8
BLACK
 62
256
370
-1
 48
1.0
  6
Continuous
100
AcDbLine
 10
182.5600000000000023
 20
-212.9410000000000025
 30
0.0
 11
182.8170000000000073
 21
-213.0840000000000032
 31
0.0
  0
LINE
  5
188
100
AcDbEntity
  8
BLACK
 62
256
370
-1
 48
1.0
  6
Continuous
100
AcDbLine
 10
182.8170000000000073
 20
-213.0840000000000032
 30
0.0
 11
182.9449999999999932
 21
-213.2270000000000039
 31
0.0
  0
LINE
  5
189
100
AcDbEntity
  8
BLACK
 62
256
370
-1
 48
1.0
  6
Continuous
100
AcDbLine
 10
182.9449999999999932
 20
-213.2270000000000039
 30
0.0
 11
183.0740000000000123
 21
-213.5130000000000052
 31
0.0
  0
LINE
  5
18A
100
AcDbEntity
  8
BLACK
 62
256
370
-1
 48
1.0
  6
Continuous
100
AcDbLine
 10
183.0740000000000123
 20
-213.5130000000000052
 30
0.0
 11
183.0740000000000123
 21
-213.9410000000000025
 31
0.0
  0
LINE
  5
18B
100
AcDbEntity
  8
BLACK
 62
256
370
-1
 48
1.0
  6
Continuous
100
AcDbLine
 10
183.0740000000000123
 20
-213.9410000000000025
 30
0.0
 11
182.9449999999999932
 21
-214.2270000000000039
 31
0.0
  0
LINE
  5
18C
100
AcDbEntity
  8
BLACK
 62
256
370
-1
 48
1.0
  6
Continuous
100
AcDbLine
 10
182.9449999999999932
 20
-214.2270000000000039
 30
0.0
 11
182.8170000000000073
 21
-214.3700000000000045
 31
0.0
  0
LINE
  5
18D
100
AcDbEntity
  8
BLACK
 62
256
370
-1
 48
1.0
  6
Continuous
100
AcDbLine
 10
182.8170000000000073
 20
-214.3700000000000045
 30
0.0
 11
182.5600000000000023
 21
-214.5130000000000052
 31
0.0
  0
LINE
  5
18E
100
AcDbEntity
  8
BLACK
 62
256
370
-1
 48
1.0
  6
Continuous
100
AcDbLine
 10
182.5600000000000023
 20
-214.5130000000000052
 30
0.0
 11
181.5310000000000059
 21
-214.5130000000000052
 31
0.0
  0
LWPOLYLINE
  5
18F
100
AcDbEntity
  8
0
 62
256
370
-1
 48
1.0
  6
ByLayer
100
AcDbPolyline
 90
5
 70
0
 10
356.8100000000000023
 20
-192.4499999999999886
 10
356.8100000000000023
 20
-210.4300000000000068
 10
341.8199999999999932
 20
-210.4300000000000068
 10
341.8199999999999932
 20
-192.4499999999999886
 10
356.8100000000000023
 20
-192.4499999999999886
  0
LWPOLYLINE
  5
190
100
AcDbEntity
  8
0
 62
256
370
-1
 48
1.0
  6
ByLayer
100
AcDbPolyline
 90
4
 70
1
 10
375.0
 20
-204.5840000000000032
 10
375.0
 20
-224.5840000000000032
 10
475.0
 20
-224.5840000000000032
 10
475.0
 20
-204.5840000000000032
  0
CIRCLE
  5
191
100
AcDbEntity
  8
0
 62
256
370
-1
 48
1.0
  6
ByLayer
100
AcDbCircle
 10
283.0
 20
-170.0
 30
0.0
 40
4.0
  0
CIRCLE
  5
192
100
AcDbEntity
  8
BLACK
 62
256
370
-1
 48
1.0
  6
ByLayer
100
AcDbCircle
 10
249.0
 20
-170.0
 30
0.0
 40
4.0
  0
CIRCLE
  5
193
100
AcDbEntity
  8
BLACK
 62
256
370
-1
 48
1.0
  6
ByLayer
100
AcDbCircle
 10
249.0
 20
-102.0
 30
0.0
 40
4.0
  0
CIRCLE
  5
194
100
AcDbEntity
  8
BLACK
 62
256
370
-1
 48
1.0
  6
ByLayer
100
AcDbCircle
 10
249.0
 20
-136.0
 30
0.0
 40
4.0
  0
CIRCLE
  5
195
100
AcDbEntity
  8
BLACK
 62
256
370
-1
 48
1.0
  6
ByLayer
100
AcDbCircle
 10
283.0
 20
-136.0
 30
0.0
 40
4.0
  0
CIRCLE
  5
196
100
AcDbEntity
  8
BLACK
 62
256
370
-1
 48
1.0
  6
ByLayer
100
AcDbCircle
 10
283.0
 20
-102.0
 30
0.0
 40
4.0
  0
CIRCLE
  5
197
100
AcDbEntity
  8
BLACK
 62
256
370
-1
 48
1.0
  6
ByLayer
100
AcDbCircle
 10
317.0
 20
-136.0
 30
0.0
 40
4.0
  0
CIRCLE
  5
198
100
AcDbEntity
  8
BLACK
 62
256
370
-1
 48
1.0
  6
ByLayer
100
AcDbCircle
 10
317.0
 20
-170.0
 30
0.0
 40
4.0
  0
CIRCLE
  5
199
100
AcDbEntity
  8
BLACK
 62
256
370
-1
 48
1.0
  6
ByLayer
100
AcDbCircle
 10
317.0
 20
-102.0
 30
0.0
 40
4.0
  0
CIRCLE
  5
19A
100
AcDbEntity
  8
BLACK
 62
256
370
-1
 48
1.0
  6
ByLayer
100
AcDbCircle
 10
317.0
 20
-68.0
 30
0.0
 40
4.0
  0
LWPOLYLINE
  5
19B
100
AcDbEntity
  8
0
 62
256
370
-1
 48
1.0
  6
ByLayer
100
AcDbPolyline
 90
4
 70
1
 10
479.0
 20
-311.0
 10
119.0
 20
-311.0
 10
119.0
 20
-51.0
 10
479.0
 20
-51.0
  0
LWPOLYLINE
  5
19C
100
AcDbEntity
  8
0
 62
256
370
-1
 48
1.0
  6
ByLayer
100
AcDbPolyline
 90
4
 70
1
 10
168.0800000000000125
 20
-109.0300000000000011
 10
168.0800000000000125
 20
-119.0300000000000011
 10
150.789999999999992
 20
-119.0300000000000011
 10
150.789999999999992
 20
-109.0300000000000011
  0
LWPOLYLINE
  5
19D
100
AcDbEntity
  8
0
 62
256
370
-1
 48
1.0
  6
ByLayer
100
AcDbPolyline
 90
4
 70
1
 10
197.3799999999999955
 20
-109.0300000000000011
 10
197.3799999999999955
 20
-119.0300000000000011
 10
180.0800000000000125
 20
-119.0300000000000011
 10
180.0800000000000125
 20
-109.0300000000000011
  0
LWPOLYLINE
  5
19E
100
AcDbEntity
  8
0
 62
256
370
-1
 48
1.0
  6
ByLayer
100
AcDbPolyline
 90
6
 70
1
 10
139.8799999999999955
 20
-93.4099999999999966
 10
123.8799999999999955
 20
-93.4099999999999966
 10
123.8799999999999955
 20
-83.4099999999999966
 10
139.8799999999999955
 20
-83.4099999999999966
 10
139.8799999999999955
 20
-83.4099999999999966
 10
139.8799999999999955
 20
-83.4099999999999966
  0
LWPOLYLINE
  5
19F
100
AcDbEntity
  8
BLACK
 62
256
370
-1
 48
1.0
  6
ByLayer
100
AcDbPolyline
 90
4
 70
1
 10
273.90300000000002
 20
-233.1570000000000107
 10
291.90300000000002
 20
-233.1570000000000107
 10
291.90300000000002
 20
-226.1570000000000107
 10
273.90300000000002
 20
-226.1570000000000107
  0
LWPOLYLINE
  5
1A0
100
AcDbEntity
  8
BLACK
 62
256
370
-1
 48
1.0
  6
ByLayer
100
AcDbPolyline
 90
4
 70
1
 10
325.8899999999999864
 20
-233.1709999999999923
 10
325.8899999999999864
 20
-226.1709999999999923
 10
307.8899999999999864
 20
-226.1709999999999923
 10
307.8899999999999864
 20
-233.1709999999999923
  0
LWPOLYLINE
  5
1A1
100
AcDbEntity
  8
BLACK
 62
256
370
-1
 48
1.0
  6
ByLayer
100
AcDbPolyline
 90
4
 70
1
 10
257.8709999999999809
 20
-226.1529999999999916
 10
239.8710000000000093
 20
-226.1529999999999916
 10
239.8710000000000093
 20
-233.1529999999999916
 10
257.8709999999999809
 20
-233.1529999999999916
  0
ENDSEC
  0
SECTION
  2
OBJECTS
  0
DICTIONARY
  5
C
100
AcDbDictionary
280
0
281
1
  3
ACAD_GROUP
350
D
  3
ACAD_LAYOUT
350
1A
  3
ACAD_MLINESTYLE
350
17
  3
ACAD_PLOTSETTINGS
350
19
  3
ACAD_PLOTSTYLENAME
350
E
  3
AcDbVariableDictionary
350
1A2
  3
QCAD_OBJECTS
350
1A3
  0
DICTIONARY
  5
D
100
AcDbDictionary
280
0
281
1
  0
ACDBDICTIONARYWDFLT
  5
E
100
AcDbDictionary
281
1
  3
Normal
350
F
100
AcDbDictionaryWithDefault
340
F
  0
ACDBPLACEHOLDER
  5
F
  0
DICTIONARY
  5
17
100
AcDbDictionary
280
0
281
1
  3
Standard
350
18
  0
MLINESTYLE
  5
18
100
AcDbMlineStyle
  2
STANDARD
 70
0
  3

 62
256
 51
90.0
 52
90.0
 71
2
 49
0.5
 62
256
  6
BYLAYER
 49
-0.5
 62
256
  6
BYLAYER
  0
DICTIONARY
  5
19
100
AcDbDictionary
280
0
281
1
  0
DICTIONARY
  5
1A
100
AcDbDictionary
281
1
  3
Layout1
350
1E
  3
Layout2
350
26
  3
Model
350
22
  0
LAYOUT
  5
1E
100
AcDbPlotSettings
  1

  2
none_device
  4

  6

 40
0.0
 41
0.0
 42
0.0
 43
0.0
 44
0.0
 45
0.0
 46
0.0
 47
0.0
 48
0.0
 49
0.0
140
0.0
141
0.0
142
1.0
143
1.0
 70
688
 72
0
 73
0
 74
5
  7

 75
16
147
1.0
148
0.0
149
0.0
100
AcDbLayout
  1
Layout1
 70
1
 71
1
 10
0.0
 20
0.0
 11
420.0
 21
297.0
 12
0.0
 22
0.0
 32
0.0
 14
100000000000000000000.0
 24
100000000000000000000.0
 34
100000000000000000000.0
 15
-100000000000000000000.0
 25
-100000000000000000000.0
 35
-100000000000000000000.0
146
0.0
 13
0.0
 23
0.0
 33
0.0
 16
1.0
 26
0.0
 36
0.0
 17
0.0
 27
1.0
 37
0.0
 76
0
330
1B
  0
LAYOUT
  5
22
100
AcDbPlotSettings
  1

  2
none_device
  4

  6

 40
0.0
 41
0.0
 42
0.0
 43
0.0
 44
0.0
 45
0.0
 46
0.0
 47
0.0
 48
0.0
 49
0.0
140
0.0
141
0.0
142
1.0
143
1.0
 70
1712
 72
0
 73
0
 74
0
  7

 75
0
147
1.0
148
0.0
149
0.0
100
AcDbLayout
  1
Model
 70
1
 71
0
 10
0.0
 20
0.0
 11
12.0
 21
9.0
 12
0.0
 22
0.0
 32
0.0
 14
0.0
 24
0.0
 34
0.0
 15
0.0
 25
0.0
 35
0.0
146
0.0
 13
0.0
 23
0.0
 33
0.0
 16
1.0
 26
0.0
 36
0.0
 17
0.0
 27
1.0
 37
0.0
 76
0
330
1F
  0
LAYOUT
  5
26
100
AcDbPlotSettings
  1

  2
none_device
  4

  6

 40
0.0
 41
0.0
 42
0.0
 43
0.0
 44
0.0
 45
0.0
 46
0.0
 47
0.0
 48
0.0
 49
0.0
140
0.0
141
0.0
142
1.0
143
1.0
 70
688
 72
0
 73
0
 74
5
  7

 75
16
147
1.0
148
0.0
149
0.0
100
AcDbLayout
  1
Layout2
 70
1
 71
2
 10
0.0
 20
0.0
 11
12.0
 21
9.0
 12
0.0
 22
0.0
 32
0.0
 14
0.0
 24
0.0
 34
0.0
 15
0.0
 25
0.0
 35
0.0
146
0.0
 13
0.0
 23
0.0
 33
0.0
 16
1.0
 26
0.0
 36
0.0
 17
0.0
 27
1.0
 37
0.0
 76
0
330
23
  0
DICTIONARY
  5
1A2
100
AcDbDictionary
281
1
  3
DIMASSOC
350
1A5
  3
HIDETEXT
350
1A4
  0
DICTIONARYVAR
  5
1A4
100
DictionaryVariables
280
0
  1
2
  0
DICTIONARYVAR
  5
1A5
100
DictionaryVariables
280
0
  1
1
  0
DICTIONARY
  5
1A3
100
AcDbDictionary
281
1
  3
ColorSettings/BackgroundColor
350
1A6
  3
ColorSettings/ColorMode
350
1A7
  3
Grid/DisplayGrid00
350
1A8
  3
Grid/DisplayGrid01
350
1A9
  3
Grid/DisplayGrid02
350
1AA
  3
Grid/DisplayGrid03
350
1AB
  3
Grid/GridSpacingX00
350
1AC
  3
Grid/GridSpacingX01
350
1AD
  3
Grid/GridSpacingX02
350
1AE
  3
Grid/GridSpacingX03
350
1AF
  3
Grid/GridSpacingY00
350
1B0
  3
Grid/GridSpacingY01
350
1B1
  3
Grid/GridSpacingY02
350
1B2
  3
Grid/GridSpacingY03
350
1B3
  3
Grid/IsometricGrid00
350
1B4
  3
Grid/IsometricGrid01
350
1B5
  3
Grid/IsometricGrid02
350
1B6
  3
Grid/IsometricGrid03
350
1B7
  3
Grid/IsometricProjection00
350
1B8
  3
Grid/IsometricProjection01
350
1B9
  3
Grid/IsometricProjection02
350
1BA
  3
Grid/IsometricProjection03
350
1BB
  3
Grid/MetaGridSpacingX00
350
1BC
  3
Grid/MetaGridSpacingX01
350
1BD
  3
Grid/MetaGridSpacingX02
350
1BE
  3
Grid/MetaGridSpacingX03
350
1BF
  3
Grid/MetaGridSpacingY00
350
1C0
  3
Grid/MetaGridSpacingY01
350
1C1
  3
Grid/MetaGridSpacingY02
350
1C2
  3
Grid/MetaGridSpacingY03
350
1C3
  3
MultiPageSettings/Columns
350
1C4
  3
MultiPageSettings/GlueMarginsBottom
350
1C5
  3
MultiPageSettings/GlueMarginsLeft
350
1C6
  3
MultiPageSettings/GlueMarginsRight
350
1C7
  3
MultiPageSettings/GlueMarginsTop
350
1C8
  3
MultiPageSettings/PrintCropMarks
350
1C9
  3
MultiPageSettings/Rows
350
1CA
  3
PageSettings/OffsetX
350
1CB
  3
PageSettings/OffsetY
350
1CC
  3
PageSettings/PageOrientation
350
1CD
  3
PageSettings/PaperHeight
350
1CE
  3
PageSettings/PaperWidth
350
1CF
  3
PageSettings/Scale
350
1D0
  3
PageSettings/ShowPaperBorders
350
1D1
  3
PageTagSettings/EnablePageTags
350
1D2
  3
PageTagSettings/TagAlignment
350
1D3
  3
PageTagSettings/TagFont
350
1D4
  3
PageTagSettings/TagPosition
350
1D5
  3
UnitSettings/PaperUnit
350
1D6
  3
ViewportCenter
350
1D7
  3
ViewportHeight
350
1D8
  3
ViewportWidth
350
1D9
  0
XRECORD
  5
1A6
330
1A3
100
AcDbXrecord
280
1
1000
White
  0
XRECORD
  5
1A7
330
1A3
100
AcDbXrecord
280
1
1000
FullColor
  0
XRECORD
  5
1A8
330
1A3
100
AcDbXrecord
280
1
290
1
  0
XRECORD
  5
1A9
330
1A3
100
AcDbXrecord
280
1
290
1
  0
XRECORD
  5
1AA
330
1A3
100
AcDbXrecord
280
1
290
1
  0
XRECORD
  5
1AB
330
1A3
100
AcDbXrecord
280
1
290
1
  0
XRECORD
  5
1AC
330
1A3
100
AcDbXrecord
280
1
1000
auto
  0
XRECORD
  5
1AD
330
1A3
100
AcDbXrecord
280
1
1000
auto
  0
XRECORD
  5
1AE
330
1A3
100
AcDbXrecord
280
1
1000
auto
  0
XRECORD
  5
1AF
330
1A3
100
AcDbXrecord
280
1
1000
auto
  0
XRECORD
  5
1B0
330
1A3
100
AcDbXrecord
280
1
1000
auto
  0
XRECORD
  5
1B1
330
1A3
100
AcDbXrecord
280
1
1000
auto
  0
XRECORD
  5
1B2
330
1A3
100
AcDbXrecord
280
1
1000
auto
  0
XRECORD
  5
1B3
330
1A3
100
AcDbXrecord
280
1
1000
auto
  0
XRECORD
  5
1B4
330
1A3
100
AcDbXrecord
280
1
290
0
  0
XRECORD
  5
1B5
330
1A3
100
AcDbXrecord
280
1
290
0
  0
XRECORD
  5
1B6
330
1A3
100
AcDbXrecord
280
1
290
0
  0
XRECORD
  5
1B7
330
1A3
100
AcDbXrecord
280
1
290
0
  0
XRECORD
  5
1B8
330
1A3
100
AcDbXrecord
280
1
 90
65537
  0
XRECORD
  5
1B9
330
1A3
100
AcDbXrecord
280
1
 90
65537
  0
XRECORD
  5
1BA
330
1A3
100
AcDbXrecord
280
1
 90
65537
  0
XRECORD
  5
1BB
330
1A3
100
AcDbXrecord
280
1
 90
65537
  0
XRECORD
  5
1BC
330
1A3
100
AcDbXrecord
280
1
1000
auto
  0
XRECORD
  5
1BD
330
1A3
100
AcDbXrecord
280
1
1000
auto
  0
XRECORD
  5
1BE
330
1A3
100
AcDbXrecord
280
1
1000
auto
  0
XRECORD
  5
1BF
330
1A3
100
AcDbXrecord
280
1
1000
auto
  0
XRECORD
  5
1C0
330
1A3
100
AcDbXrecord
280
1
1000
auto
  0
XRECORD
  5
1C1
330
1A3
100
AcDbXrecord
280
1
1000
auto
  0
XRECORD
  5
1C2
330
1A3
100
AcDbXrecord
280
1
1000
auto
  0
XRECORD
  5
1C3
330
1A3
100
AcDbXrecord
280
1
1000
auto
  0
XRECORD
  5
1C4
330
1A3
100
AcDbXrecord
280
1
 90
1
  0
XRECORD
  5
1C5
330
1A3
100
AcDbXrecord
280
1
 40
10.0
  0
XRECORD
  5
1C6
330
1A3
100
AcDbXrecord
280
1
 40
10.0
  0
XRECORD
  5
1C7
330
1A3
100
AcDbXrecord
280
1
 40
10.0
  0
XRECORD
  5
1C8
330
1A3
100
AcDbXrecord
280
1
 40
10.0
  0
XRECORD
  5
1C9
330
1A3
100
AcDbXrecord
280
1
290
0
  0
XRECORD
  5
1CA
330
1A3
100
AcDbXrecord
280
1
 90
1
  0
XRECORD
  5
1CB
330
1A3
100
AcDbXrecord
280
1
 40
0.0
  0
XRECORD
  5
1CC
330
1A3
100
AcDbXrecord
280
1
 40
0.0
  0
XRECORD
  5
1CD
330
1A3
100
AcDbXrecord
280
1
1000
Portrait
  0
XRECORD
  5
1CE
330
1A3
100
AcDbXrecord
280
1
 40
297.0
  0
XRECORD
  5
1CF
330
1A3
100
AcDbXrecord
280
1
 40
210.0
  0
XRECORD
  5
1D0
330
1A3
100
AcDbXrecord
280
1
1000
1:1
  0
XRECORD
  5
1D1
330
1A3
100
AcDbXrecord
280
1
290
1
  0
XRECORD
  5
1D2
330
1A3
100
AcDbXrecord
280
1
290
0
  0
XRECORD
  5
1D3
330
1A3
100
AcDbXrecord
280
1
1000
Inside
  0
XRECORD
  5
1D4
330
1A3
100
AcDbXrecord
280
1
1000
Arial,10,-1,5,50,0,0,0,0,0
  0
XRECORD
  5
1D5
330
1A3
100
AcDbXrecord
280
1
1000
TopLeft
  0
XRECORD
  5
1D6
330
1A3
100
AcDbXrecord
280
1
 90
4
  0
XRECORD
  5
1D8
330
1A3
100
AcDbXrecord
280
1
 40
37.5621036270730286
  0
XRECORD
  5
1D9
330
1A3
100
AcDbXrecord
280
1
 40
76.7171282013954396
  0
ENDSEC
  0
EOF
