999
dxflib 3.17.0.0
  0
SECTION
  2
HEADER
  9
$ACADVER
  1
AC1015
  9
$HANDSEED
  5
FFFF
  9
$DIMADEC
 70
0
  9
$DIMASZ
 40
2.5
  9
$DIMAUNIT
 70
3
  9
$DIMAZIN
 70
2
  9
$DIMDEC
 70
7
  9
$DIMDLI
 40
5.0
  9
$DIMDSEP
 70
46
  9
$DIMEXE
 40
1.25
  9
$DIMEXO
 40
0.625
  9
$DIMGAP
 40
0.625
  9
$DIMLUNIT
 70
2
  9
$DIMSCALE
 40
1.0
  9
$DIMTSZ
 40
0.0
  9
$DIMTXT
 40
2.5
  9
$DIMZIN
 70
8
  9
$DWGCODEPAGE
  3
ANSI_1252
  9
$INSUNITS
 70
4
  9
$LTSCALE
 40
1.0
  9
$MAXACTVP
 70
64
  9
$MEASUREMENT
 70
1
  9
$MIRRTEXT
 70
0
  9
$PDMODE
 70
0
  9
$PDSIZE
 40
0.0
  0
ENDSEC
  0
SECTION
  2
TABLES
  0
TABLE
  2
VPORT
  5
8
100
AcDbSymbolTable
 70
1
  0
VPORT
  5
30
100
AcDbSymbolTableRecord
100
AcDbViewportTableRecord
  2
*Active
 70
0
 10
0.0
 20
0.0
 11
1.0
 21
1.0
 12
286.3055555555554861
 22
148.5
 13
0.0
 23
0.0
 14
10.0
 24
10.0
 15
10.0
 25
10.0
 16
0.0
 26
0.0
 36
1.0
 17
0.0
 27
0.0
 37
0.0
 40
297.0
 41
1.92798353909465
 42
50.0
 43
0.0
 44
0.0
 50
0.0
 51
0.0
 71
0
 72
100
 73
1
 74
3
 75
1
 76
1
 77
0
 78
0
281
0
 65
1
110
0.0
120
0.0
130
0.0
111
1.0
121
0.0
131
0.0
112
0.0
122
1.0
132
0.0
 79
0
146
0.0
  0
ENDTAB
  0
TABLE
  2
LTYPE
  5
5
100
AcDbSymbolTable
 70
41
  0
LTYPE
  5
16
100
AcDbSymbolTableRecord
100
AcDbLinetypeTableRecord
  2
Continuous
 70
0
  3
Solid line
 72
65
 73
0
 40
0.0
  0
LTYPE
  5
31
100
AcDbSymbolTableRecord
100
AcDbLinetypeTableRecord
  2
BORDER2
 70
0
  3
Border (.5x) __.__.__.__.__.__.__.__.__.__.__.
 72
65
 73
6
 40
22.2250000000000014
 49
6.3499999999999996
 74
0
 49
-3.1749999999999998
 74
0
 49
6.3499999999999996
 74
0
 49
-3.125
 74
0
 49
0.1
 74
0
 49
-3.125
 74
0
  0
LTYPE
  5
32
100
AcDbSymbolTableRecord
100
AcDbLinetypeTableRecord
  2
DASHDOT2
 70
0
  3
Dash dot (.5x) _._._._._._._._._._._._._._._.
 72
65
 73
4
 40
12.6999999999999993
 49
6.3499999999999996
 74
0
 49
-3.125
 74
0
 49
0.1
 74
0
 49
-3.125
 74
0
  0
LTYPE
  5
33
100
AcDbSymbolTableRecord
100
AcDbLinetypeTableRecord
  2
ACAD_ISO04W100
 70
0
  3
ISO long-dash dot ____ . ____ . ____ . ____ . _
 72
65
 73
4
 40
30.0
 49
24.0
 74
0
 49
-2.9500000000000002
 74
0
 49
0.1
 74
0
 49
-2.9500000000000002
 74
0
  0
LTYPE
  5
34
100
AcDbSymbolTableRecord
100
AcDbLinetypeTableRecord
  2
ACAD_ISO05W100
 70
0
  3
ISO long-dash double-dot ____ .. ____ .. ____ . 
 72
65
 73
6
 40
33.0000000000000071
 49
24.0
 74
0
 49
-2.9500000000000002
 74
0
 49
0.1
 74
0
 49
-2.9000000000000004
 74
0
 49
0.1
 74
0
 49
-2.9500000000000002
 74
0
  0
LTYPE
  5
35
100
AcDbSymbolTableRecord
100
AcDbLinetypeTableRecord
  2
DIVIDEX2
 70
0
  3
Divide (2x) ________  .  .  ________  .  .  _
 72
65
 73
6
 40
63.5
 49
25.3999999999999986
 74
0
 49
-12.6499999999999986
 74
0
 49
0.1
 74
0
 49
-12.5999999999999979
 74
0
 49
0.1
 74
0
 49
-12.6499999999999986
 74
0
  0
LTYPE
  5
36
100
AcDbSymbolTableRecord
100
AcDbLinetypeTableRecord
  2
ACAD_ISO06W100
 70
0
  3
ISO long-dash triple-dot ____ ... ____ ... ____
 72
65
 73
8
 40
36.0000000000000071
 49
24.0
 74
0
 49
-2.9500000000000002
 74
0
 49
0.1
 74
0
 49
-2.9000000000000004
 74
0
 49
0.1
 74
0
 49
-2.9000000000000004
 74
0
 49
0.1
 74
0
 49
-2.9500000000000002
 74
0
  0
LTYPE
  5
37
100
AcDbSymbolTableRecord
100
AcDbLinetypeTableRecord
  2
ACAD_ISO13W100
 70
0
  3
ISO double-dash double-dot __ __ . . __ __ . . _
 72
65
 73
8
 40
36.0000000000000071
 49
12.0
 74
0
 49
-3.0
 74
0
 49
12.0
 74
0
 49
-2.9500000000000002
 74
0
 49
0.1
 74
0
 49
-2.9000000000000004
 74
0
 49
0.1
 74
0
 49
-2.9500000000000002
 74
0
  0
LTYPE
  5
38
100
AcDbSymbolTableRecord
100
AcDbLinetypeTableRecord
  2
CENTERX2
 70
0
  3
Center (2x) ________  __  ________  __  _____
 72
65
 73
4
 40
101.6000000000000085
 49
63.5
 74
0
 49
-12.6999999999999993
 74
0
 49
12.6999999999999993
 74
0
 49
-12.6999999999999993
 74
0
  0
LTYPE
  5
39
100
AcDbSymbolTableRecord
100
AcDbLinetypeTableRecord
  2
ACAD_ISO03W100
 70
0
  3
ISO dash space __    __    __    __    __    __
 72
65
 73
2
 40
30.0
 49
12.0
 74
0
 49
-18.0
 74
0
  0
LTYPE
  5
3A
100
AcDbSymbolTableRecord
100
AcDbLinetypeTableRecord
  2
ACAD_ISO11W100
 70
0
  3
ISO double-dash dot __ __ . __ __ . __ __ . __ _
 72
65
 73
6
 40
33.0
 49
12.0
 74
0
 49
-3.0
 74
0
 49
12.0
 74
0
 49
-2.9500000000000002
 74
0
 49
0.1
 74
0
 49
-2.9500000000000002
 74
0
  0
LTYPE
  5
3B
100
AcDbSymbolTableRecord
100
AcDbLinetypeTableRecord
  2
CENTER2
 70
0
  3
Center (.5x) ___ _ ___ _ ___ _ ___ _ ___ _ ___
 72
65
 73
4
 40
28.5750000000000028
 49
19.0500000000000007
 74
0
 49
-3.1749999999999998
 74
0
 49
3.1749999999999998
 74
0
 49
-3.1749999999999998
 74
0
  0
LTYPE
  5
3C
100
AcDbSymbolTableRecord
100
AcDbLinetypeTableRecord
  2
HIDDENX2
 70
0
  3
Hidden (2x) ____ ____ ____ ____ ____ ____ ____ 
 72
65
 73
2
 40
19.0499999999999972
 49
12.6999999999999993
 74
0
 49
-6.3499999999999996
 74
0
  0
LTYPE
  5
3D
100
AcDbSymbolTableRecord
100
AcDbLinetypeTableRecord
  2
DASHDOT
 70
0
  3
Dash dot __ . __ . __ . __ . __ . __ . __ . __
 72
65
 73
4
 40
25.4000000000000021
 49
12.6999999999999993
 74
0
 49
-6.2999999999999998
 74
0
 49
0.1
 74
0
 49
-6.2999999999999998
 74
0
  0
LTYPE
  5
3E
100
AcDbSymbolTableRecord
100
AcDbLinetypeTableRecord
  2
DASHDOTX2
 70
0
  3
Dash dot (2x) ____  .  ____  .  ____  .  ___
 72
65
 73
4
 40
50.7999999999999972
 49
25.3999999999999986
 74
0
 49
-12.6499999999999986
 74
0
 49
0.1
 74
0
 49
-12.6499999999999986
 74
0
  0
LTYPE
  5
3F
100
AcDbSymbolTableRecord
100
AcDbLinetypeTableRecord
  2
DASHED2
 70
0
  3
Dashed (.5x) _ _ _ _ _ _ _ _ _ _ _ _ _ _ _ _ _ 
 72
65
 73
2
 40
9.5249999999999986
 49
6.3499999999999996
 74
0
 49
-3.1749999999999998
 74
0
  0
LTYPE
  5
40
100
AcDbSymbolTableRecord
100
AcDbLinetypeTableRecord
  2
DIVIDE2
 70
0
  3
Divide (.5x) __..__..__..__..__..__..__..__.._
 72
65
 73
6
 40
15.8749999999999982
 49
6.3499999999999996
 74
0
 49
-3.125
 74
0
 49
0.1
 74
0
 49
-3.0750000000000002
 74
0
 49
0.1
 74
0
 49
-3.125
 74
0
  0
LTYPE
  5
41
100
AcDbSymbolTableRecord
100
AcDbLinetypeTableRecord
  2
CENTER
 70
0
  3
Center ____ _ ____ _ ____ _ ____ _ ____ _ ____
 72
65
 73
4
 40
50.8000000000000043
 49
31.75
 74
0
 49
-6.3499999999999996
 74
0
 49
6.3499999999999996
 74
0
 49
-6.3499999999999996
 74
0
  0
LTYPE
  5
42
100
AcDbSymbolTableRecord
100
AcDbLinetypeTableRecord
  2
BORDERX2
 70
0
  3
Border (2x) ____  ____  .  ____  ____  .  ___
 72
65
 73
6
 40
88.8999999999999773
 49
25.3999999999999986
 74
0
 49
-12.6999999999999993
 74
0
 49
25.3999999999999986
 74
0
 49
-12.6499999999999986
 74
0
 49
0.1
 74
0
 49
-12.6499999999999986
 74
0
  0
LTYPE
  5
43
100
AcDbSymbolTableRecord
100
AcDbLinetypeTableRecord
  2
ACAD_ISO09W100
 70
0
  3
ISO long-dash double-short-dash ____ __ __ ____
 72
65
 73
6
 40
45.0
 49
24.0
 74
0
 49
-3.0
 74
0
 49
6.0
 74
0
 49
-3.0
 74
0
 49
6.0
 74
0
 49
-3.0
 74
0
  0
LTYPE
  5
44
100
AcDbSymbolTableRecord
100
AcDbLinetypeTableRecord
  2
HIDDEN2
 70
0
  3
Hidden (.5x) _ _ _ _ _ _ _ _ _ _ _ _ _ _ _ _ _ 
 72
65
 73
2
 40
4.7624999999999993
 49
3.1749999999999998
 74
0
 49
-1.5874999999999999
 74
0
  0
LTYPE
  5
45
100
AcDbSymbolTableRecord
100
AcDbLinetypeTableRecord
  2
PHANTOM2
 70
0
  3
Phantom (.5x) ___ _ _ ___ _ _ ___ _ _ ___ _ _
 72
65
 73
6
 40
31.7500000000000036
 49
15.875
 74
0
 49
-3.1749999999999998
 74
0
 49
3.1749999999999998
 74
0
 49
-3.1749999999999998
 74
0
 49
3.1749999999999998
 74
0
 49
-3.1749999999999998
 74
0
  0
LTYPE
  5
46
100
AcDbSymbolTableRecord
100
AcDbLinetypeTableRecord
  2
ACAD_ISO15W100
 70
0
  3
ISO double-dash triple-dot __ __ . . . __ __ . .
 72
65
 73
10
 40
39.0000000000000071
 49
12.0
 74
0
 49
-3.0
 74
0
 49
12.0
 74
0
 49
-2.9500000000000002
 74
0
 49
0.1
 74
0
 49
-2.9000000000000004
 74
0
 49
0.1
 74
0
 49
-2.9000000000000004
 74
0
 49
0.1
 74
0
 49
-2.9500000000000002
 74
0
  0
LTYPE
  5
47
100
AcDbSymbolTableRecord
100
AcDbLinetypeTableRecord
  2
ACAD_ISO12W100
 70
0
  3
ISO dash double-dot __ . . __ . . __ . . __ . . 
 72
65
 73
6
 40
21.0
 49
12.0
 74
0
 49
-2.9500000000000002
 74
0
 49
0.1
 74
0
 49
-2.9000000000000004
 74
0
 49
0.1
 74
0
 49
-2.9500000000000002
 74
0
  0
LTYPE
  5
48
100
AcDbSymbolTableRecord
100
AcDbLinetypeTableRecord
  2
ACAD_ISO07W100
 70
0
  3
ISO dot . . . . . . . . . . . . . . . . . . . . 
 72
65
 73
2
 40
3.0
 49
0.1
 74
0
 49
-2.8999999999999999
 74
0
  0
LTYPE
  5
49
100
AcDbSymbolTableRecord
100
AcDbLinetypeTableRecord
  2
HIDDEN
 70
0
  3
Hidden __ __ __ __ __ __ __ __ __ __ __ __ __ __
 72
65
 73
2
 40
9.5249999999999986
 49
6.3499999999999996
 74
0
 49
-3.1749999999999998
 74
0
  0
LTYPE
  5
14
100
AcDbSymbolTableRecord
100
AcDbLinetypeTableRecord
  2
BYBLOCK
 70
0
  3

 72
65
 73
0
 40
0.0
  0
LTYPE
  5
4A
100
AcDbSymbolTableRecord
100
AcDbLinetypeTableRecord
  2
ACAD_ISO08W100
 70
0
  3
ISO long-dash short-dash ____ __ ____ __ ____ _
 72
65
 73
4
 40
36.0
 49
24.0
 74
0
 49
-3.0
 74
0
 49
6.0
 74
0
 49
-3.0
 74
0
  0
LTYPE
  5
4B
100
AcDbSymbolTableRecord
100
AcDbLinetypeTableRecord
  2
ACAD_ISO10W100
 70
0
  3
ISO dash dot __ . __ . __ . __ . __ . __ . __ . 
 72
65
 73
4
 40
18.0
 49
12.0
 74
0
 49
-2.9500000000000002
 74
0
 49
0.1
 74
0
 49
-2.9500000000000002
 74
0
  0
LTYPE
  5
4C
100
AcDbSymbolTableRecord
100
AcDbLinetypeTableRecord
  2
DIVIDE
 70
0
  3
Divide ____ . . ____ . . ____ . . ____ . . ____
 72
65
 73
6
 40
31.7500000000000036
 49
12.6999999999999993
 74
0
 49
-6.2999999999999998
 74
0
 49
0.1
 74
0
 49
-6.25
 74
0
 49
0.1
 74
0
 49
-6.2999999999999998
 74
0
  0
LTYPE
  5
4D
100
AcDbSymbolTableRecord
100
AcDbLinetypeTableRecord
  2
PHANTOMX2
 70
0
  3
Phantom (2x) ____________    ____    ____   _
 72
65
 73
6
 40
127.0000000000000142
 49
63.5
 74
0
 49
-12.6999999999999993
 74
0
 49
12.6999999999999993
 74
0
 49
-12.6999999999999993
 74
0
 49
12.6999999999999993
 74
0
 49
-12.6999999999999993
 74
0
  0
LTYPE
  5
4E
100
AcDbSymbolTableRecord
100
AcDbLinetypeTableRecord
  2
DASHEDX2
 70
0
  3
Dashed (2x) ____  ____  ____  ____  ____  ___
 72
65
 73
2
 40
38.0999999999999943
 49
25.3999999999999986
 74
0
 49
-12.6999999999999993
 74
0
  0
LTYPE
  5
4F
100
AcDbSymbolTableRecord
100
AcDbLinetypeTableRecord
  2
BORDER
 70
0
  3
Border __ __ . __ __ . __ __ . __ __ . __ __ .
 72
65
 73
6
 40
44.4499999999999957
 49
12.6999999999999993
 74
0
 49
-6.3499999999999996
 74
0
 49
12.6999999999999993
 74
0
 49
-6.2999999999999998
 74
0
 49
0.1
 74
0
 49
-6.2999999999999998
 74
0
  0
LTYPE
  5
15
100
AcDbSymbolTableRecord
100
AcDbLinetypeTableRecord
  2
BYLAYER
 70
0
  3

 72
65
 73
0
 40
0.0
  0
LTYPE
  5
50
100
AcDbSymbolTableRecord
100
AcDbLinetypeTableRecord
  2
PHANTOM
 70
0
  3
Phantom ______  __  __  ______  __  __  ______ 
 72
65
 73
6
 40
63.5000000000000071
 49
31.75
 74
0
 49
-6.3499999999999996
 74
0
 49
6.3499999999999996
 74
0
 49
-6.3499999999999996
 74
0
 49
6.3499999999999996
 74
0
 49
-6.3499999999999996
 74
0
  0
LTYPE
  5
51
100
AcDbSymbolTableRecord
100
AcDbLinetypeTableRecord
  2
DASHED
 70
0
  3
Dashed __ __ __ __ __ __ __ __ __ __ __ __ __ _
 72
65
 73
2
 40
19.0499999999999972
 49
12.6999999999999993
 74
0
 49
-6.3499999999999996
 74
0
  0
LTYPE
  5
52
100
AcDbSymbolTableRecord
100
AcDbLinetypeTableRecord
  2
DOTX2
 70
0
  3
Dot (2x) .  .  .  .  .  .  .  .  .  .  .  .  .  .
 72
65
 73
2
 40
12.6999999999999993
 49
0.1
 74
0
 49
-12.5999999999999996
 74
0
  0
LTYPE
  5
53
100
AcDbSymbolTableRecord
100
AcDbLinetypeTableRecord
  2
DOT
 70
0
  3
Dot . . . . . . . . . . . . . . . . . . . . . . . .
 72
65
 73
2
 40
6.3499999999999996
 49
0.1
 74
0
 49
-6.25
 74
0
  0
LTYPE
  5
54
100
AcDbSymbolTableRecord
100
AcDbLinetypeTableRecord
  2
ACAD_ISO02W100
 70
0
  3
ISO dash __ __ __ __ __ __ __ __ __ __ __ __ __
 72
65
 73
2
 40
15.0
 49
12.0
 74
0
 49
-3.0
 74
0
  0
LTYPE
  5
55
100
AcDbSymbolTableRecord
100
AcDbLinetypeTableRecord
  2
DOT2
 70
0
  3
Dot (.5x) ........................................
 72
65
 73
2
 40
3.1749999999999998
 49
0.1
 74
0
 49
-3.0749999999999997
 74
0
  0
LTYPE
  5
56
100
AcDbSymbolTableRecord
100
AcDbLinetypeTableRecord
  2
ACAD_ISO14W100
 70
0
  3
ISO dash triple-dot __ . . . __ . . . __ . . . _
 72
65
 73
8
 40
24.0000000000000036
 49
12.0
 74
0
 49
-2.9500000000000002
 74
0
 49
0.1
 74
0
 49
-2.9000000000000004
 74
0
 49
0.1
 74
0
 49
-2.9000000000000004
 74
0
 49
0.1
 74
0
 49
-2.9500000000000002
 74
0
  0
ENDTAB
  0
TABLE
  2
LAYER
  5
2
100
AcDbSymbolTable
 70
6
  0
LAYER
  5
57
100
AcDbSymbolTableRecord
100
AcDbLayerTableRecord
  2
Incisione
 70
0
 62
5
420
1511679
  6
Continuous
370
-3
390
F
  0
LAYER
  5
58
100
AcDbSymbolTableRecord
100
AcDbLayerTableRecord
  2
layer 2
 70
4
 62
5
420
255
  6
Continuous
370
25
390
F
  0
LAYER
  5
59
100
AcDbSymbolTableRecord
100
AcDbLayerTableRecord
  2
Taglio
 70
0
 62
22
420
12592143
  6
Continuous
370
-3
390
F
  0
LAYER
  5
10
100
AcDbSymbolTableRecord
100
AcDbLayerTableRecord
  2
0
 70
4
 62
7
420
16777215
  6
Continuous
370
25
390
F
  0
LAYER
  5
5A
100
AcDbSymbolTableRecord
100
AcDbLayerTableRecord
  2
layer 3
 70
4
 62
7
420
0
  6
Continuous
370
25
390
F
  0
LAYER
  5
5B
100
AcDbSymbolTableRecord
100
AcDbLayerTableRecord
  2
layer 1
 70
0
 62
7
420
0
  6
Continuous
370
25
390
F
  0
ENDTAB
  0
TABLE
  2
STYLE
  5
3
100
AcDbSymbolTable
 70
6
  0
STYLE
  5
5C
100
AcDbSymbolTableRecord
100
AcDbTextStyleTableRecord
  2
Standard
 70
0
 40
0.0
 41
1.0
 50
0.0
 71
0
 42
2.5
  3

  4

1001
ACAD
1000
txt
1071
0
  0
STYLE
  5
5D
100
AcDbSymbolTableRecord
100
AcDbTextStyleTableRecord
  2
textstyle0
 70
0
 40
0.0
 41
1.0
 50
0.0
 71
0
 42
5.0
  3

  4

1001
ACAD
1000
Liberation Sans
1071
0
  0
STYLE
  5
5E
100
AcDbSymbolTableRecord
100
AcDbTextStyleTableRecord
  2
textstyle1
 70
0
 40
0.0
 41
1.0
 50
0.0
 71
0
 42
3.0
  3

  4

1001
ACAD
1000
Liberation Sans
1071
0
  0
STYLE
  5
5F
100
AcDbSymbolTableRecord
100
AcDbTextStyleTableRecord
  2
textstyle2
 70
0
 40
0.0
 41
1.0
 50
0.0
 71
0
 42
3.0
  3

  4

1001
ACAD
1000
Liberation Sans
1071
0
  0
STYLE
  5
60
100
AcDbSymbolTableRecord
100
AcDbTextStyleTableRecord
  2
textstyle3
 70
0
 40
0.0
 41
1.0
 50
0.0
 71
0
 42
3.0
  3

  4

1001
ACAD
1000
Liberation Sans
1071
0
  0
STYLE
  5
61
100
AcDbSymbolTableRecord
100
AcDbTextStyleTableRecord
  2
textstyle4
 70
0
 40
0.0
 41
1.0
 50
0.0
 71
0
 42
3.0
  3

  4

1001
ACAD
1000
Liberation Sans
1071
0
  0
ENDTAB
  0
TABLE
  2
VIEW
  5
6
100
AcDbSymbolTable
 70
0
  0
ENDTAB
  0
TABLE
  2
UCS
  5
7
100
AcDbSymbolTable
 70
0
  0
ENDTAB
  0
TABLE
  2
APPID
  5
9
100
AcDbSymbolTable
 70
1
  0
APPID
  5
12
100
AcDbSymbolTableRecord
100
AcDbRegAppTableRecord
  2
ACAD
 70
0
  0
APPID
  5
62
100
AcDbSymbolTableRecord
100
AcDbRegAppTableRecord
  2
QCAD
 70
0
  0
ENDTAB
  0
TABLE
  2
DIMSTYLE
  5
A
100
AcDbSymbolTable
 70
1
100
AcDbDimStyleTable
 71
0
  0
DIMSTYLE
105
27
100
AcDbSymbolTableRecord
100
AcDbDimStyleTableRecord
  2
Standard
 41
2.5
 42
0.625
 43
3.75
 44
1.25
 70
0
 73
0
 74
0
 77
1
 78
8
140
2.5
141
2.5
143
0.03937007874016
147
0.625
171
3
172
1
271
2
272
2
274
3
278
44
283
0
284
8
340
5C
  0
ENDTAB
  0
TABLE
  2
BLOCK_RECORD
  5
1
100
AcDbSymbolTable
 70
1
  0
BLOCK_RECORD
  5
1F
100
AcDbSymbolTableRecord
100
AcDbBlockTableRecord
  2
*Model_Space
340
22
  0
BLOCK_RECORD
  5
1B
100
AcDbSymbolTableRecord
100
AcDbBlockTableRecord
  2
*Paper_Space
340
1E
  0
BLOCK_RECORD
  5
23
100
AcDbSymbolTableRecord
100
AcDbBlockTableRecord
  2
*Paper_Space0
340
26
  0
BLOCK_RECORD
  5
63
100
AcDbSymbolTableRecord
100
AcDbBlockTableRecord
  2
block browser
340
0
  0
BLOCK_RECORD
  5
64
100
AcDbSymbolTableRecord
100
AcDbBlockTableRecord
  2
leds
340
0
  0
BLOCK_RECORD
  5
65
100
AcDbSymbolTableRecord
100
AcDbBlockTableRecord
  2
block FX
340
0
  0
BLOCK_RECORD
  5
66
100
AcDbSymbolTableRecord
100
AcDbBlockTableRecord
  2
block deck
340
0
  0
BLOCK_RECORD
  5
67
100
AcDbSymbolTableRecord
100
AcDbBlockTableRecord
  2
block 1
340
0
  0
BLOCK_RECORD
  5
68
100
AcDbSymbolTableRecord
100
AcDbBlockTableRecord
  2
block trillbar
340
0
  0
ENDTAB
  0
ENDSEC
  0
SECTION
  2
BLOCKS
  0
BLOCK
  5
20
100
AcDbEntity
  8
0
100
AcDbBlockBegin
  2
*Model_Space
 70
0
 10
0.0
 20
0.0
 30
0.0
  3
*Model_Space
  1

  0
ENDBLK
  5
21
100
AcDbEntity
  8
0
100
AcDbBlockEnd
  0
BLOCK
  5
1C
100
AcDbEntity
 67
1
  8
0
100
AcDbBlockBegin
  2
*Paper_Space
 70
0
 10
0.0
 20
0.0
 30
0.0
  3
*Paper_Space
  1

  0
ENDBLK
  5
1D
100
AcDbEntity
 67
1
  8
0
100
AcDbBlockEnd
  0
BLOCK
  5
24
100
AcDbEntity
  8
0
100
AcDbBlockBegin
  2
*Paper_Space0
 70
0
 10
0.0
 20
0.0
 30
0.0
  3
*Paper_Space0
  1

  0
ENDBLK
  5
25
100
AcDbEntity
  8
0
100
AcDbBlockEnd
  0
BLOCK
  5
69
100
AcDbEntity
  8
0
100
AcDbBlockBegin
  2
block browser
 70
0
 10
0.0
 20
0.0
 30
0.0
  3
block browser
  1

  0
LWPOLYLINE
  5
6A
100
AcDbEntity
  8
layer 1
 62
6
420
16711935
370
-1
 48
1.0
  6
BYLAYER
100
AcDbPolyline
 90
2
 70
129
 10
0.5
 20
0.0
 42
0.9999999999999999
 10
-0.5
 20
0.0000000000000001
 42
0.9999999999999999
  0
LWPOLYLINE
  5
6B
100
AcDbEntity
  8
layer 1
 62
6
420
16711935
370
-1
 48
1.0
  6
BYLAYER
100
AcDbPolyline
 90
2
 70
129
 10
8.0
 20
0.0
 42
0.9999999999999999
 10
-8.0
 20
0.000000000000001
 42
0.9999999999999999
  0
LINE
  5
6C
100
AcDbEntity
  8
layer 1
 62
30
420
16744192
370
-1
 48
1.0
  6
BYLAYER
100
AcDbLine
 10
-40.0
 20
-5.0
 30
0.0
 11
-24.0
 21
-5.0
 31
0.0
  0
LINE
  5
6D
100
AcDbEntity
  8
layer 1
 62
30
420
16744192
370
-1
 48
1.0
  6
BYLAYER
100
AcDbLine
 10
24.0
 20
-5.0
 30
0.0
 11
40.0
 21
-5.0
 31
0.0
  0
LINE
  5
6E
100
AcDbEntity
  8
layer 1
 62
30
420
16744192
370
-1
 48
1.0
  6
BYLAYER
100
AcDbLine
 10
-24.0
 20
-5.0
 30
0.0
 11
-24.0
 21
5.0
 31
0.0
  0
LINE
  5
6F
100
AcDbEntity
  8
layer 1
 62
30
420
16744192
370
-1
 48
1.0
  6
BYLAYER
100
AcDbLine
 10
40.0
 20
-5.0
 30
0.0
 11
40.0
 21
5.0
 31
0.0
  0
LINE
  5
70
100
AcDbEntity
  8
layer 1
 62
30
420
16744192
370
-1
 48
1.0
  6
BYLAYER
100
AcDbLine
 10
-24.0
 20
5.0
 30
0.0
 11
-40.0
 21
5.0
 31
0.0
  0
LINE
  5
71
100
AcDbEntity
  8
layer 1
 62
30
420
16744192
370
-1
 48
1.0
  6
BYLAYER
100
AcDbLine
 10
40.0
 20
5.0
 30
0.0
 11
24.0
 21
5.0
 31
0.0
  0
LINE
  5
72
100
AcDbEntity
  8
layer 1
 62
30
420
16744192
370
-1
 48
1.0
  6
BYLAYER
100
AcDbLine
 10
-40.0
 20
5.0
 30
0.0
 11
-40.0
 21
-5.0
 31
0.0
  0
LINE
  5
73
100
AcDbEntity
  8
layer 1
 62
30
420
16744192
370
-1
 48
1.0
  6
BYLAYER
100
AcDbLine
 10
24.0
 20
5.0
 30
0.0
 11
24.0
 21
-5.0
 31
0.0
  0
ENDBLK
  5
74
100
AcDbEntity
  8
0
100
AcDbBlockEnd
  0
BLOCK
  5
75
100
AcDbEntity
  8
0
100
AcDbBlockBegin
  2
leds
 70
0
 10
0.0
 20
0.0
 30
0.0
  3
leds
  1

  0
CIRCLE
  5
76
100
AcDbEntity
  8
layer 1
 62
256
370
-1
 48
1.0
  6
BYLAYER
100
AcDbCircle
 10
0.0
 20
0.0
 30
0.0
 40
1.5
  0
CIRCLE
  5
77
100
AcDbEntity
  8
layer 1
 62
256
370
-1
 48
1.0
  6
BYLAYER
100
AcDbCircle
 10
0.0
 20
5.0
 30
0.0
 40
1.5
  0
CIRCLE
  5
78
100
AcDbEntity
  8
layer 1
 62
256
370
-1
 48
1.0
  6
BYLAYER
100
AcDbCircle
 10
0.0
 20
10.0
 30
0.0
 40
1.5
  0
CIRCLE
  5
79
100
AcDbEntity
  8
layer 1
 62
256
370
-1
 48
1.0
  6
BYLAYER
100
AcDbCircle
 10
0.0
 20
15.0
 30
0.0
 40
1.5
  0
CIRCLE
  5
7A
100
AcDbEntity
  8
layer 1
 62
256
370
-1
 48
1.0
  6
BYLAYER
100
AcDbCircle
 10
0.0
 20
20.0
 30
0.0
 40
1.5
  0
CIRCLE
  5
7B
100
AcDbEntity
  8
layer 1
 62
256
370
-1
 48
1.0
  6
BYLAYER
100
AcDbCircle
 10
0.0
 20
25.0
 30
0.0
 40
1.5
  0
CIRCLE
  5
7C
100
AcDbEntity
  8
layer 1
 62
256
370
-1
 48
1.0
  6
BYLAYER
100
AcDbCircle
 10
0.0
 20
30.0
 30
0.0
 40
1.5
  0
CIRCLE
  5
7D
100
AcDbEntity
  8
layer 1
 62
256
370
-1
 48
1.0
  6
BYLAYER
100
AcDbCircle
 10
0.0
 20
35.0
 30
0.0
 40
1.5
  0
ENDBLK
  5
7E
100
AcDbEntity
  8
0
100
AcDbBlockEnd
  0
BLOCK
  5
7F
100
AcDbEntity
  8
0
100
AcDbBlockBegin
  2
block FX
 70
0
 10
0.0
 20
0.0
 30
0.0
  3
block FX
  1

  0
CIRCLE
  5
80
100
AcDbEntity
  8
layer 1
 62
2
420
16776960
370
-1
 48
1.0
  6
BYLAYER
100
AcDbCircle
 10
84.0
 20
23.0
 30
0.0
 40
0.5
  0
CIRCLE
  5
81
100
AcDbEntity
  8
layer 1
 62
2
420
16776960
370
-1
 48
1.0
  6
BYLAYER
100
AcDbCircle
 10
42.0
 20
23.0
 30
0.0
 40
0.5
  0
CIRCLE
  5
82
100
AcDbEntity
  8
layer 1
 62
2
420
16776960
370
-1
 48
1.0
  6
BYLAYER
100
AcDbCircle
 10
1.0
 20
23.0
 30
0.0
 40
0.5
  0
CIRCLE
  5
83
100
AcDbEntity
  8
layer 1
 62
2
420
16776960
370
-1
 48
1.0
  6
BYLAYER
100
AcDbCircle
 10
84.0
 20
23.0
 30
0.0
 40
7.0
  0
CIRCLE
  5
84
100
AcDbEntity
  8
layer 1
 62
2
420
16776960
370
-1
 48
1.0
  6
BYLAYER
100
AcDbCircle
 10
42.0
 20
23.0
 30
0.0
 40
7.0
  0
CIRCLE
  5
85
100
AcDbEntity
  8
layer 1
 62
2
420
16776960
370
-1
 48
1.0
  6
BYLAYER
100
AcDbCircle
 10
1.0
 20
23.0
 30
0.0
 40
7.0
  0
LINE
  5
86
100
AcDbEntity
  8
layer 1
 62
30
420
16744192
370
-1
 48
1.0
  6
BYLAYER
100
AcDbLine
 10
-7.0
 20
0.0
 30
0.0
 11
9.0
 21
0.0
 31
0.0
  0
LINE
  5
87
100
AcDbEntity
  8
layer 1
 62
30
420
16744192
370
-1
 48
1.0
  6
BYLAYER
100
AcDbLine
 10
9.0
 20
0.0
 30
0.0
 11
9.0
 21
10.0
 31
0.0
  0
LINE
  5
88
100
AcDbEntity
  8
layer 1
 62
30
420
16744192
370
-1
 48
1.0
  6
BYLAYER
100
AcDbLine
 10
9.0
 20
10.0
 30
0.0
 11
-7.0
 21
10.0
 31
0.0
  0
LINE
  5
89
100
AcDbEntity
  8
layer 1
 62
30
420
16744192
370
-1
 48
1.0
  6
BYLAYER
100
AcDbLine
 10
-7.0
 20
10.0
 30
0.0
 11
-7.0
 21
0.0
 31
0.0
  0
LINE
  5
8A
100
AcDbEntity
  8
layer 1
 62
30
420
16744192
370
-1
 48
1.0
  6
BYLAYER
100
AcDbLine
 10
34.0
 20
0.0
 30
0.0
 11
50.0
 21
0.0
 31
0.0
  0
LINE
  5
8B
100
AcDbEntity
  8
layer 1
 62
30
420
16744192
370
-1
 48
1.0
  6
BYLAYER
100
AcDbLine
 10
50.0
 20
0.0
 30
0.0
 11
50.0
 21
10.0
 31
0.0
  0
LINE
  5
8C
100
AcDbEntity
  8
layer 1
 62
30
420
16744192
370
-1
 48
1.0
  6
BYLAYER
100
AcDbLine
 10
50.0
 20
10.0
 30
0.0
 11
34.0
 21
10.0
 31
0.0
  0
LINE
  5
8D
100
AcDbEntity
  8
layer 1
 62
30
420
16744192
370
-1
 48
1.0
  6
BYLAYER
100
AcDbLine
 10
34.0
 20
10.0
 30
0.0
 11
34.0
 21
0.0
 31
0.0
  0
LINE
  5
8E
100
AcDbEntity
  8
layer 1
 62
30
420
16744192
370
-1
 48
1.0
  6
BYLAYER
100
AcDbLine
 10
76.0
 20
0.0
 30
0.0
 11
92.0
 21
0.0
 31
0.0
  0
LINE
  5
8F
100
AcDbEntity
  8
layer 1
 62
30
420
16744192
370
-1
 48
1.0
  6
BYLAYER
100
AcDbLine
 10
92.0
 20
0.0
 30
0.0
 11
92.0
 21
10.0
 31
0.0
  0
LINE
  5
90
100
AcDbEntity
  8
layer 1
 62
30
420
16744192
370
-1
 48
1.0
  6
BYLAYER
100
AcDbLine
 10
92.0
 20
10.0
 30
0.0
 11
76.0
 21
10.0
 31
0.0
  0
LINE
  5
91
100
AcDbEntity
  8
layer 1
 62
30
420
16744192
370
-1
 48
1.0
  6
BYLAYER
100
AcDbLine
 10
76.0
 20
10.0
 30
0.0
 11
76.0
 21
0.0
 31
0.0
  0
ENDBLK
  5
92
100
AcDbEntity
  8
0
100
AcDbBlockEnd
  0
BLOCK
  5
93
100
AcDbEntity
  8
0
100
AcDbBlockBegin
  2
block deck
 70
0
 10
0.0
 20
0.0
 30
0.0
  3
block deck
  1

  0
INSERT
  5
94
100
AcDbEntity
  8
layer 1
 62
6
420
16711935
370
-1
 48
1.0
  6
BYLAYER
100
AcDbBlockReference
  2
block 1
 10
-100.0
 20
-5.0
 30
0.0
  0
CIRCLE
  5
95
100
AcDbEntity
  8
layer 1
 62
2
420
16776960
370
-1
 48
1.0
  6
BYLAYER
100
AcDbCircle
 10
-9.0
 20
105.0
 30
0.0
 40
0.5
  0
CIRCLE
  5
96
100
AcDbEntity
  8
layer 1
 62
2
420
16776960
370
-1
 48
1.0
  6
BYLAYER
100
AcDbCircle
 10
-49.9999999999999929
 20
104.9999999999999858
 30
0.0
 40
0.5
  0
LWPOLYLINE
  5
97
100
AcDbEntity
  8
layer 1
 62
6
420
16711935
370
-1
 48
1.0
  6
BYLAYER
100
AcDbPolyline
 90
2
 70
129
 10
-49.5
 20
77.0
 42
0.9999999999999999
 10
-50.5
 20
77.0
 42
0.9999999999999999
  0
CIRCLE
  5
98
100
AcDbEntity
  8
layer 1
 62
2
420
16776960
370
-1
 48
1.0
  6
BYLAYER
100
AcDbCircle
 10
-92.0
 20
105.0
 30
0.0
 40
0.5
  0
CIRCLE
  5
99
100
AcDbEntity
  8
layer 1
 62
2
420
16776960
370
-1
 48
1.0
  6
BYLAYER
100
AcDbCircle
 10
-9.0
 20
105.0
 30
0.0
 40
7.0
  0
CIRCLE
  5
9A
100
AcDbEntity
  8
layer 1
 62
2
420
16776960
370
-1
 48
1.0
  6
BYLAYER
100
AcDbCircle
 10
-49.9999999999999929
 20
104.9999999999999858
 30
0.0
 40
7.0
  0
LWPOLYLINE
  5
9B
100
AcDbEntity
  8
layer 1
 62
6
420
16711935
370
-1
 48
1.0
  6
BYLAYER
100
AcDbPolyline
 90
2
 70
129
 10
-42.0
 20
77.0
 42
0.9999999999999999
 10
-58.0
 20
77.0
 42
0.9999999999999999
  0
CIRCLE
  5
9C
100
AcDbEntity
  8
layer 1
 62
2
420
16776960
370
-1
 48
1.0
  6
BYLAYER
100
AcDbCircle
 10
-92.0
 20
105.0
 30
0.0
 40
7.0
  0
CIRCLE
  5
9D
100
AcDbEntity
  8
layer 1
 62
30
420
16744192
370
-1
 48
1.0
  6
BYLAYER
100
AcDbCircle
 10
-81.0
 20
-62.5
 30
0.0
 40
12.5
  0
CIRCLE
  5
9E
100
AcDbEntity
  8
layer 1
 62
30
420
16744192
370
-1
 48
1.0
  6
BYLAYER
100
AcDbCircle
 10
-81.0
 20
-92.5
 30
0.0
 40
12.5
  0
MTEXT
  5
9F
100
AcDbEntity
  8
layer 1
 62
30
420
16744192
370
-1
 48
1.0
  6
BYLAYER
100
AcDbMText
 10
-81.0
 20
-62.5
 30
0.0
 40
3.0
 41
0.0
 71
5
 72
1
  1
CUE
  7
textstyle2
 50
0.0
 73
2
 44
1.0
  0
MTEXT
  5
A0
100
AcDbEntity
  8
layer 1
 62
30
420
16744192
370
-1
 48
1.0
  6
BYLAYER
100
AcDbMText
 10
-81.0
 20
-92.5
 30
0.0
 40
3.0
 41
0.0
 71
5
 72
1
  1
PLAY
  7
textstyle3
 50
0.0
 73
2
 44
1.0
  0
LINE
  5
A1
100
AcDbEntity
  8
layer 1
 62
6
420
16711935
370
-1
 48
1.0
  6
BYLAYER
100
AcDbLine
 10
-21.0
 20
-113.0
 30
0.0
 11
-11.0
 21
-113.0
 31
0.0
  0
LINE
  5
A2
100
AcDbEntity
  8
layer 1
 62
6
420
16711935
370
-1
 48
1.0
  6
BYLAYER
100
AcDbLine
 10
-11.0
 20
-113.0
 30
0.0
 11
-11.0
 21
-38.0
 31
0.0
  0
LINE
  5
A3
100
AcDbEntity
  8
layer 1
 62
6
420
16711935
370
-1
 48
1.0
  6
BYLAYER
100
AcDbLine
 10
-11.0
 20
-38.0
 30
0.0
 11
-21.0
 21
-38.0
 31
0.0
  0
LINE
  5
A4
100
AcDbEntity
  8
layer 1
 62
6
420
16711935
370
-1
 48
1.0
  6
BYLAYER
100
AcDbLine
 10
-21.0
 20
-38.0
 30
0.0
 11
-21.0
 21
-113.0
 31
0.0
  0
LINE
  5
A5
100
AcDbEntity
  8
layer 1
 62
30
420
16744192
370
-1
 48
1.0
  6
BYLAYER
100
AcDbLine
 10
-47.0
 20
-48.0
 30
0.0
 11
-31.0
 21
-48.0
 31
0.0
  0
LINE
  5
A6
100
AcDbEntity
  8
layer 1
 62
30
420
16744192
370
-1
 48
1.0
  6
BYLAYER
100
AcDbLine
 10
-31.0
 20
-48.0
 30
0.0
 11
-31.0
 21
-38.0
 31
0.0
  0
LINE
  5
A7
100
AcDbEntity
  8
layer 1
 62
30
420
16744192
370
-1
 48
1.0
  6
BYLAYER
100
AcDbLine
 10
-31.0
 20
-38.0
 30
0.0
 11
-47.0
 21
-38.0
 31
0.0
  0
LINE
  5
A8
100
AcDbEntity
  8
layer 1
 62
30
420
16744192
370
-1
 48
1.0
  6
BYLAYER
100
AcDbLine
 10
-47.0
 20
-38.0
 30
0.0
 11
-47.0
 21
-48.0
 31
0.0
  0
LINE
  5
A9
100
AcDbEntity
  8
layer 1
 62
30
420
16744192
370
-1
 48
1.0
  6
BYLAYER
100
AcDbLine
 10
-47.0
 20
-62.0
 30
0.0
 11
-31.0
 21
-62.0
 31
0.0
  0
LINE
  5
AA
100
AcDbEntity
  8
layer 1
 62
30
420
16744192
370
-1
 48
1.0
  6
BYLAYER
100
AcDbLine
 10
-31.0
 20
-62.0
 30
0.0
 11
-31.0
 21
-52.0
 31
0.0
  0
LINE
  5
AB
100
AcDbEntity
  8
layer 1
 62
30
420
16744192
370
-1
 48
1.0
  6
BYLAYER
100
AcDbLine
 10
-31.0
 20
-52.0
 30
0.0
 11
-47.0
 21
-52.0
 31
0.0
  0
LINE
  5
AC
100
AcDbEntity
  8
layer 1
 62
30
420
16744192
370
-1
 48
1.0
  6
BYLAYER
100
AcDbLine
 10
-47.0
 20
-52.0
 30
0.0
 11
-47.0
 21
-62.0
 31
0.0
  0
LINE
  5
AD
100
AcDbEntity
  8
layer 1
 62
30
420
16744192
370
-1
 48
1.0
  6
BYLAYER
100
AcDbLine
 10
-47.0
 20
-113.0
 30
0.0
 11
-31.0
 21
-113.0
 31
0.0
  0
LINE
  5
AE
100
AcDbEntity
  8
layer 1
 62
30
420
16744192
370
-1
 48
1.0
  6
BYLAYER
100
AcDbLine
 10
-31.0
 20
-113.0
 30
0.0
 11
-31.0
 21
-103.0
 31
0.0
  0
LINE
  5
AF
100
AcDbEntity
  8
layer 1
 62
30
420
16744192
370
-1
 48
1.0
  6
BYLAYER
100
AcDbLine
 10
-31.0
 20
-103.0
 30
0.0
 11
-47.0
 21
-103.0
 31
0.0
  0
LINE
  5
B0
100
AcDbEntity
  8
layer 1
 62
30
420
16744192
370
-1
 48
1.0
  6
BYLAYER
100
AcDbLine
 10
-47.0
 20
-103.0
 30
0.0
 11
-47.0
 21
-113.0
 31
0.0
  0
LINE
  5
B1
100
AcDbEntity
  8
layer 1
 62
30
420
16744192
370
-1
 48
1.0
  6
BYLAYER
100
AcDbLine
 10
-100.0
 20
118.0
 30
0.0
 11
-84.0
 21
118.0
 31
0.0
  0
LINE
  5
B2
100
AcDbEntity
  8
layer 1
 62
30
420
16744192
370
-1
 48
1.0
  6
BYLAYER
100
AcDbLine
 10
-84.0
 20
118.0
 30
0.0
 11
-84.0
 21
128.0
 31
0.0
  0
LINE
  5
B3
100
AcDbEntity
  8
layer 1
 62
30
420
16744192
370
-1
 48
1.0
  6
BYLAYER
100
AcDbLine
 10
-84.0
 20
128.0
 30
0.0
 11
-100.0
 21
128.0
 31
0.0
  0
LINE
  5
B4
100
AcDbEntity
  8
layer 1
 62
30
420
16744192
370
-1
 48
1.0
  6
BYLAYER
100
AcDbLine
 10
-100.0
 20
128.0
 30
0.0
 11
-100.0
 21
118.0
 31
0.0
  0
LINE
  5
B5
100
AcDbEntity
  8
layer 1
 62
30
420
16744192
370
-1
 48
1.0
  6
BYLAYER
100
AcDbLine
 10
-58.0
 20
118.0
 30
0.0
 11
-42.0
 21
118.0
 31
0.0
  0
LINE
  5
B6
100
AcDbEntity
  8
layer 1
 62
30
420
16744192
370
-1
 48
1.0
  6
BYLAYER
100
AcDbLine
 10
-42.0
 20
118.0
 30
0.0
 11
-42.0
 21
128.0
 31
0.0
  0
LINE
  5
B7
100
AcDbEntity
  8
layer 1
 62
30
420
16744192
370
-1
 48
1.0
  6
BYLAYER
100
AcDbLine
 10
-42.0
 20
128.0
 30
0.0
 11
-58.0
 21
128.0
 31
0.0
  0
LINE
  5
B8
100
AcDbEntity
  8
layer 1
 62
30
420
16744192
370
-1
 48
1.0
  6
BYLAYER
100
AcDbLine
 10
-58.0
 20
128.0
 30
0.0
 11
-58.0
 21
118.0
 31
0.0
  0
LINE
  5
B9
100
AcDbEntity
  8
layer 1
 62
30
420
16744192
370
-1
 48
1.0
  6
BYLAYER
100
AcDbLine
 10
-17.0
 20
118.0
 30
0.0
 11
-1.0
 21
118.0
 31
0.0
  0
LINE
  5
BA
100
AcDbEntity
  8
layer 1
 62
30
420
16744192
370
-1
 48
1.0
  6
BYLAYER
100
AcDbLine
 10
-1.0
 20
118.0
 30
0.0
 11
-1.0
 21
128.0
 31
0.0
  0
LINE
  5
BB
100
AcDbEntity
  8
layer 1
 62
30
420
16744192
370
-1
 48
1.0
  6
BYLAYER
100
AcDbLine
 10
-1.0
 20
128.0
 30
0.0
 11
-17.0
 21
128.0
 31
0.0
  0
LINE
  5
BC
100
AcDbEntity
  8
layer 1
 62
30
420
16744192
370
-1
 48
1.0
  6
BYLAYER
100
AcDbLine
 10
-17.0
 20
128.0
 30
0.0
 11
-17.0
 21
118.0
 31
0.0
  0
INSERT
  5
BD
100
AcDbEntity
  8
layer 1
 62
256
370
-1
 48
1.0
  6
BYLAYER
100
AcDbBlockReference
  2
block trillbar
 10
-50.0
 20
-20.0
 30
0.0
  0
ENDBLK
  5
BE
100
AcDbEntity
  8
0
100
AcDbBlockEnd
  0
BLOCK
  5
BF
100
AcDbEntity
  8
0
100
AcDbBlockBegin
  2
block 1
 70
0
 10
0.0
 20
0.0
 30
0.0
  3
block 1
  1

  0
LINE
  5
C0
100
AcDbEntity
  8
layer 1
 62
256
370
-1
 48
1.0
  6
BYLAYER
100
AcDbLine
 10
0.0
 20
0.0
 30
0.0
 11
100.0
 21
0.0
 31
0.0
  0
LINE
  5
C1
100
AcDbEntity
  8
layer 1
 62
256
370
-1
 48
1.0
  6
BYLAYER
100
AcDbLine
 10
100.0
 20
0.0
 30
0.0
 11
100.0
 21
50.0
 31
0.0
  0
LINE
  5
C2
100
AcDbEntity
  8
layer 1
 62
256
370
-1
 48
1.0
  6
BYLAYER
100
AcDbLine
 10
100.0
 20
50.0
 30
0.0
 11
0.0
 21
50.0
 31
0.0
  0
LINE
  5
C3
100
AcDbEntity
  8
layer 1
 62
256
370
-1
 48
1.0
  6
BYLAYER
100
AcDbLine
 10
0.0
 20
50.0
 30
0.0
 11
0.0
 21
0.0
 31
0.0
  0
MTEXT
  5
C4
100
AcDbEntity
  8
layer 1
 62
256
370
-1
 48
1.0
  6
BYLAYER
100
AcDbMText
 10
50.0
 20
25.0
 30
0.0
 40
5.0
 41
0.0
 71
5
 72
1
  1
PADS
  7
textstyle0
 50
0.0
 73
2
 44
1.0
  0
ENDBLK
  5
C5
100
AcDbEntity
  8
0
100
AcDbBlockEnd
  0
BLOCK
  5
C6
100
AcDbEntity
  8
0
100
AcDbBlockBegin
  2
block trillbar
 70
0
 10
0.0
 20
0.0
 30
0.0
  3
block trillbar
  1

  0
LINE
  5
C7
100
AcDbEntity
  8
layer 1
 62
256
370
-1
 48
1.0
  6
BYLAYER
100
AcDbLine
 10
-50.0
 20
-10.0
 30
0.0
 11
50.0
 21
-10.0
 31
0.0
  0
LINE
  5
C8
100
AcDbEntity
  8
layer 1
 62
256
370
-1
 48
1.0
  6
BYLAYER
100
AcDbLine
 10
50.0
 20
-10.0
 30
0.0
 11
50.0
 21
10.0
 31
0.0
  0
LINE
  5
C9
100
AcDbEntity
  8
layer 1
 62
256
370
-1
 48
1.0
  6
BYLAYER
100
AcDbLine
 10
50.0
 20
10.0
 30
0.0
 11
-50.0
 21
10.0
 31
0.0
  0
LINE
  5
CA
100
AcDbEntity
  8
layer 1
 62
256
370
-1
 48
1.0
  6
BYLAYER
100
AcDbLine
 10
-50.0
 20
10.0
 30
0.0
 11
-50.0
 21
-10.0
 31
0.0
  0
MTEXT
  5
CB
100
AcDbEntity
  8
layer 1
 62
256
370
-1
 48
1.0
  6
BYLAYER
100
AcDbMText
 10
0.0
 20
0.0
 30
0.0
 40
3.0
 41
0.0
 71
5
 72
1
  1
TRILLBAR
  7
textstyle1
 50
0.0
 73
2
 44
1.0
  0
ENDBLK
  5
CC
100
AcDbEntity
  8
0
100
AcDbBlockEnd
  0
ENDSEC
  0
SECTION
  2
ENTITIES
  0
LWPOLYLINE
  5
CD
100
AcDbEntity
  8
Taglio
 62
256
370
-1
 48
1.0
  6
BYLAYER
100
AcDbPolyline
 90
137
 70
0
 10
313.8868598650257695
 20
202.3963874553411699
 10
313.9425692023540364
 20
202.3973527101908587
 10
313.9982116609297123
 20
202.4002473234878892
 10
314.053720442157271
 20
202.4050678202580968
 10
314.1090289079207309
 20
202.4118084135099309
 10
314.1640706605815581
 20
202.4204610111829936
 10
314.2187796226906471
 20
202.4310152258609889
 10
314.2730901163111525
 20
202.4434583872431688
 10
314.3269369418679275
 20
202.4577755573519937
 10
314.3802554564173874
 20
202.4739495484710972
 10
314.4329816512513958
 20
202.4919609437748989
 10
314.4850522287400167
 20
202.5117881206421373
 10
314.5364046783194567
 20
202.5334072766069369
 10
314.5869773515370866
 20
202.5567924579442263
 10
314.6367095360581629
 20
202.5819155908140203
 10
314.6855415285529602
 20
202.6087465149782076
 10
314.7334147063689329
 20
202.6372530199952564
 10
314.7802715979076424
 20
202.6674008838960219
 10
314.8260559516190256
 20
202.6991539142669865
 10
314.8707128035309211
 20
202.7324739916940928
 10
314.9141885432351842
 20
202.7673211155312458
 10
314.9564309782427358
 20
202.8036534519152667
 10
314.9973893966441096
 20
202.8414273839909185
 10
315.0370146279886399
 20
202.8805975642741544
 10
315.0752591023104401
 20
202.9211169690862846
 10
315.1120769072393273
 20
202.9629369550099511
 10
315.1474238431172239
 20
203.0060073172859632
 10
315.1812574760596704
 20
203.0502763500791445
 10
315.2135371888970781
 20
203.0956909085549853
 10
315.2442242299363784
 20
203.142196472682059
 10
315.273281759482245
 20
203.1897372126760786
 10
315.3006748940618422
 20
203.2382560560292006
 10
315.3263707483041003
 20
203.2876947560249903
 10
315.3503384744174696
 20
203.3379939616590093
 10
315.3725492992223849
 20
203.3890932888949976
 10
315.3929765586937606
 20
203.4409313931520558
 10
315.4115957299720208
 20
203.4934460429500689
 10
315.428384460800487
 20
203.5465741946178753
 10
315.4433225963604741
 20
203.6002520679791417
 10
315.4563922034686243
 20
203.6544152229140821
 10
315.4675775921019181
 20
203.7089986367278982
 10
315.4768653342374023
 20
203.7639367822049792
 10
315.4842442799693458
 20
203.8191637062770099
 10
315.4897055708973426
 20
203.8746131091940299
 10
315.4932426507586456
 20
203.9302184241238649
 10
315.4948512733001849
 20
203.9859128970639688
 10
315.4945295073754892
 20
204.0416296669742735
 10
315.4922777392642388
 20
204.097301846048282
 10
315.4880986722058083
 20
204.1528626000109909
 10
315.4819973231577137
 20
204.2082452283549685
 10
315.473981016770324
 20
204.2633832444090842
 10
315.4640593765937524
 20
204.318210455159857
 10
315.4522443135252274
 20
204.3726610407140072
 10
315.438550011511154
 20
204.4266696333162656
 10
315.4229929105179622
 20
204.4801713958210314
 10
315.4055916867953897
 20
204.5331020995332949
 10
315.38636723045812
 20
204.585398201309232
 10
315.3653426204048742
 20
204.6369969198459842
 10
315.3425430966133831
 20
204.6878363110442081
 10
315.3179960298395486
 20
204.7378553423751839
 10
315.2917308887602417
 20
204.7869939661501633
 10
315.263779204593618
 20
204.8351931916082833
 10
315.2341745332481082
 20
204.8823951557302792
 10
315.2029524150374868
 20
204.9285431927079628
 10
315.1701503320167035
 20
204.9735819019712437
 10
315.1358076629824723
 20
205.0174572146881076
 10
315.0999656361994425
 20
205.0601164586870766
 10
315.0626672799082257
 20
205.1015084216811886
 10
315.0239573706673468
 20
205.1415834127480196
 10
314.9838823796001748
 20
205.1802933219888985
 10
314.9424904166065176
 20
205.2175916782809111
 10
314.8998311726073212
 20
205.2534337050630313
 10
314.8559558598896615
 20
205.287776374098172
 10
314.8109171506278585
 20
205.3205784571179322
 10
314.7647691136493791
 20
205.351800575329122
 10
314.7175671495272695
 20
205.3814052466752003
 10
314.6693679240696042
 20
205.4093569308412555
 10
314.6202293002937154
 20
205.4356220719211308
 10
314.5702102689626258
 20
205.4601691386939422
 10
314.5193708777648567
 20
205.4829686624849785
 10
314.4677721592285593
 20
205.5039932725391338
 10
314.4154760574522811
 20
205.5232177288759488
 10
314.3625453537400176
 20
205.540618952598976
 10
314.3090435912350245
 20
205.5561760535921678
 10
314.2550349986328797
 20
205.5698703556060138
 10
314.2005844130791843
 20
205.5816854186752209
 10
314.1457572023284115
 20
205.5916070588511104
 10
314.0906191862744095
 20
205.5996233652391822
 10
314.0352365579303182
 20
205.6057247142872768
 10
313.9796758039668134
 20
205.6099037813452526
 10
313.924003624892805
 20
205.6121555494570714
 10
313.8682868549828413
 20
205.6124773153811987
 10
313.8125923820436469
 20
205.6108686928402278
 10
313.7569870671130161
 20
205.6073316129779016
 10
313.7015376641955413
 20
205.6018703220499049
 10
313.6463107401244201
 20
205.5944913763179613
 10
313.5913725946468844
 20
205.5852036341831592
 10
313.5367891808326135
 20
205.574018245548956
 10
313.4826260258976731
 20
205.5609486384420563
 10
313.4289481525373162
 20
205.5460105028811597
 10
313.3758200008695098
 20
205.5292217720531482
 10
313.323305351071383
 20
205.5106026007748881
 10
313.2714672468144386
 20
205.4901753413029439
 10
313.2203679195785639
 20
205.4679645164980286
 10
313.1700687139438628
 20
205.4439967903851141
 10
313.1206300139486416
 20
205.418300936142856
 10
313.0721111705949511
 20
205.3909078015632588
 10
313.0245704306008179
 20
205.3618502720170511
 10
312.9780648664740852
 20
205.3311632309779782
 10
312.9326503079975623
 20
205.2988835181410252
 10
312.8883812752049494
 20
205.2650498851991472
 10
312.8453109129297331
 20
205.2297029493198863
 10
312.8034909270053845
 20
205.1928851443909991
 10
312.7629715221934816
 20
205.1546406700701084
 10
312.7238013419103595
 20
205.1150154387261466
 10
312.6860274098336845
 20
205.074057020323977
 10
312.6496950734496636
 20
205.0318145853158569
 10
312.6148479496133064
 20
204.9883388456120485
 10
312.5815278721859727
 20
204.943681993700153
 10
312.5497748418153492
 20
204.8978976399882015
 10
312.5196269779137879
 20
204.8510407484501741
 10
312.4911204728967391
 20
204.803167570633974
 10
312.4642895487331202
 20
204.7543355781391767
 10
312.4391664158625304
 20
204.7046033936182141
 10
312.4157812345262641
 20
204.6540307204010389
 10
312.3941620785606688
 20
204.6026782708210305
 10
312.3743349016942261
 20
204.5506076933321822
 10
312.356323506389856
 20
204.4978814984989697
 10
312.3401495152704115
 20
204.4445629839489413
 10
312.3258323451615865
 20
204.3907161583921663
 10
312.3133891837800888
 20
204.3364056647712061
 10
312.3028349691024346
 20
204.2816967026630266
 10
312.2941823714292582
 20
204.2266549500019721
 10
312.2874417781774241
 20
204.1713464842379437
 10
312.2826212814073301
 20
204.1158377030111808
 10
312.279726668110186
 20
204.0601952444350502
 10
312.2787614132600424
 20
204.004485907106897
  0
LWPOLYLINE
  5
CE
100
AcDbEntity
  8
Taglio
 62
256
370
-1
 48
1.0
  6
BYLAYER
100
AcDbPolyline
 90
46
 70
0
 10
312.2787614132600424
 20
204.004485907106897
 10
312.279741024295447
 20
203.9483640807631275
 10
312.2826786620306052
 20
203.8923106302492272
 10
312.2875707474059368
 20
203.8363938480580657
 10
312.2944113201695586
 20
203.7806818601722227
 10
312.3031920461378945
 20
203.7252425430639562
 10
312.3139022273488195
 20
203.6701434409989417
 10
312.3265288150972196
 20
203.615451683742009
 10
312.3410564258317095
 20
203.5612339047731041
 10
312.3574673598967024
 20
203.5075561601021548
 10
312.3757416230981221
 20
203.4544838477869746
 10
312.3958569510620578
 20
203.4020816282651651
 10
312.4177888363608986
 20
203.3504133455641352
 10
312.4415105583718173
 20
203.2995419495270255
 10
312.4669932158320194
 20
203.2495294191100186
 10
312.494205762049944
 20
203.2004366868751788
 10
312.5231150427309217
 20
203.152323564752038
 10
312.5536858363714714
 20
203.1052486711661516
 10
312.5858808971700569
 20
203.0592693596210268
 10
312.6196610004059835
 20
203.0144416488239187
 10
312.6549849902286837
 20
202.9708201544318911
 10
312.6918098297995243
 20
202.9284580225150023
 10
312.7300906537258811
 20
202.8874068648030118
 10
312.7697808227224527
 20
202.8477166958060991
 10
312.8108319804338748
 20
202.8094358718800834
 10
312.8531941123507636
 20
202.7726110323089017
 10
312.8968156067423365
 20
202.7372870424862015
 10
312.9416433175396719
 20
202.7035069392510707
 10
312.987622629084683
 20
202.6713118784520304
 10
313.0346975226704558
 20
202.6407410848120492
 10
313.082810644794165
 20
202.6118318041300483
 10
313.1319033770290048
 20
202.5846192579121237
 10
313.1819159074460117
 20
202.5591366004520353
 10
313.2327873034834624
 20
202.5354148784410029
 10
313.2844555861835829
 20
202.5134829931422757
 10
313.3368578057059608
 20
202.4933676651791359
 10
313.3899301180202315
 20
202.4750934019772615
 10
313.443607862692545
 20
202.4586824679119275
 10
313.4978256416611089
 20
202.4441548571782334
 10
313.5525173989174732
 20
202.4315282694289237
 10
313.6076165009824877
 20
202.4208180882179988
 10
313.6630558180906405
 20
202.4120373622501177
 10
313.7187678059770519
 20
202.4051967894862685
 10
313.7746845881682134
 20
202.4003047041111643
 10
313.8307380386817727
 20
202.3973670663760061
 10
313.8868598650257695
 20
202.3963874553402604
  0
LWPOLYLINE
  5
CF
100
AcDbEntity
  8
Taglio
 62
256
370
-1
 48
1.0
  6
BYLAYER
100
AcDbPolyline
 90
137
 70
0
 10
329.1214767764988096
 20
178.2749106788420761
 10
329.1771861138275312
 20
178.2758759336922196
 10
329.2328285724032071
 20
178.2787705469892501
 10
329.2883373536307658
 20
178.2835910437599125
 10
329.3436458193938847
 20
178.2903316370112918
 10
329.3986875720549392
 20
178.298984234685264
 10
329.4533965341636872
 20
178.3095384493618951
 10
329.5077070277845337
 20
178.3219816107440749
 10
329.5615538533413087
 20
178.3362987808528999
 10
329.6148723678908823
 20
178.3524727719720033
 10
329.6675985627246632
 20
178.3704841672771693
 10
329.7196691402135116
 20
178.3903113441430435
 10
329.7710215897930652
 20
178.4119305001092073
 10
329.8215942630102404
 20
178.4353156814451324
 10
329.8713264475316578
 20
178.4604388143149265
 10
329.9201584400264551
 20
178.4872697384791138
 10
329.9680316178420867
 20
178.5157762434961626
 10
330.0148885093811373
 20
178.5459241073982923
 10
330.0606728630920657
 20
178.5776771377678926
 10
330.1053297150045296
 20
178.6109972151959084
 10
330.1488054547083379
 20
178.645844339032152
 10
330.1910478897158896
 20
178.6821766754161729
 10
330.2320063081177182
 20
178.719950607493189
 10
330.2716315394621347
 20
178.75912078777597
 10
330.3098760137838212
 20
178.7996401925881003
 10
330.3466938187128221
 20
178.8414601785122215
 10
330.3820407545907187
 20
178.8845305407882336
 10
330.4158743875330515
 20
178.9287995735800507
 10
330.4481541003704592
 20
178.9742141320572557
 10
330.4788411414098732
 20
179.0207196961838747
 10
330.5078986709551714
 20
179.0682604361778942
 10
330.5352918055347686
 20
179.1167792795319258
 10
330.5609876597774814
 20
179.1662179795272607
 10
330.5849553858905097
 20
179.2165171851612797
 10
330.607166210695425
 20
179.267616512397268
 10
330.6275934701672554
 20
179.3194546166538714
 10
330.6462126414450609
 20
179.3719692664518846
 10
330.6630013722736408
 20
179.4250974181201457
 10
330.6779395078340826
 20
179.4787752914809573
 10
330.6910091149417781
 20
179.5329384464158977
 10
330.7021945035750718
 20
179.5875218602301686
 10
330.7114822457104424
 20
179.6424600057072496
 10
330.7188611914422722
 20
179.6976869297792803
 10
330.724322482370269
 20
179.7531363326958456
 10
330.7278595622316857
 20
179.8087416476270448
 10
330.7294681847732249
 20
179.8644361205662392
 10
330.7291464188485293
 20
179.9201528904760892
 10
330.7268946507368241
 20
179.9758250695500976
 10
330.7227155836787347
 20
180.0313858235141709
 10
330.7166142346307538
 20
180.0867684518581484
 10
330.7085979282431367
 20
180.1419064679122641
 10
330.6986762880663377
 20
180.1967336786621274
 10
330.6868612249980401
 20
180.2511842642162776
 10
330.6731669229840804
 20
180.3051928568180813
 10
330.6576098219904338
 20
180.3586946193242113
 10
330.6402085982678614
 20
180.4116253230351106
 10
330.6209841419307054
 20
180.4639214248119572
 10
330.5999595318773459
 20
180.5155201433482546
 10
330.5771600080858548
 20
180.5663595345460237
 10
330.5526129413121339
 20
180.6163785658769996
 10
330.526347800232827
 20
180.6655171896528884
 10
330.4983961160663171
 20
180.7137164151110085
 10
330.4687914447206936
 20
180.7609183792330043
 10
330.4375693265099585
 20
180.8070664162111427
 10
330.4047672434891751
 20
180.8521051254730594
 10
330.3704245744544892
 20
180.8959804381912875
 10
330.3345825476720279
 20
180.9386396821902565
 10
330.2972841913809248
 20
180.9800316451839137
 10
330.2585742821400459
 20
181.0201066362511995
 10
330.2184992910727601
 20
181.0588165454920784
 10
330.1771073280791029
 20
181.0961149017831815
 10
330.1344480840796791
 20
181.1319569285662112
 10
330.0905727713619058
 20
181.1662995975999877
 10
330.0455340620998754
 20
181.1991016806211121
 10
329.9993860251218507
 20
181.2303237988309377
 10
329.9521840609992864
 20
181.2599284701770159
 10
329.9039848355417348
 20
181.2878801543439806
 10
329.8548462117657323
 20
181.3141452954229464
 10
329.8048271804348701
 20
181.3386923621962126
 10
329.7539877892369873
 20
181.3614918859881584
 10
329.7023890707006899
 20
181.3825164960409495
 10
329.650092968923957
 20
181.4017409523791287
 10
329.5971622652120345
 20
181.4191421761012464
 10
329.5436605027069277
 20
181.4346992770939835
 10
329.489651910105124
 20
181.4483935791082843
 10
329.4352013245509738
 20
181.4602086421770366
 10
329.3803741138005421
 20
181.4701302823542903
 10
329.3252360977465401
 20
181.4781465887409979
 10
329.2698534694025625
 20
181.4842479377890925
 10
329.214292715438944
 20
181.4884270048470682
 10
329.1586205363644808
 20
181.4906787729588871
 10
329.1029037664550856
 20
181.4910005388830143
 10
329.0472092935154365
 20
181.4893919163420435
 10
328.9916039785845783
 20
181.485854836480172
 10
328.9361545756675582
 20
181.4803935455521753
 10
328.8809276515959823
 20
181.4730145998202318
 10
328.8259895061185603
 20
181.4637268576849749
 10
328.7714060923041757
 20
181.4525414690512264
 10
328.717242937369349
 20
181.439471861943872
 10
328.6635650640088784
 20
181.4245337263829754
 10
328.6104369123411857
 20
181.4077449955549639
 10
328.5579222625430589
 20
181.3891258242771585
 10
328.5060841582860007
 20
181.3686985648052143
 10
328.4549848310501261
 20
181.3464877399998443
 10
328.4046856254161071
 20
181.3225200138869297
 10
328.3552469254203174
 20
181.2968241596451264
 10
328.3067280820667406
 20
181.2694310250650744
 10
328.2591873420727211
 20
181.2403734955188668
 10
328.2126817779455337
 20
181.2096864544802486
 10
328.1672672194692382
 20
181.1774067416432956
 10
328.1229981866765115
 20
181.1435731087000534
 10
328.0799278244010679
 20
181.1082261728221567
 10
328.0381078384772877
 20
181.0714083678932695
 10
327.9975884336652712
 20
181.0331638935710146
 10
327.9584182533820353
 20
180.9935386622270528
 10
327.920644321305474
 20
180.9525802438248832
 10
327.8843119849214531
 20
180.9103378088181273
 10
327.8494648610852096
 20
180.8668620691138642
 10
327.8161447836576485
 20
180.8222052172019687
 10
327.7843917532871387
 20
180.7764208634900172
 10
327.75424388938535
 20
180.7295639719519897
 10
327.725737384368415
 20
180.6816907941362444
 10
327.6989064602045687
 20
180.6328588016409924
 10
327.6737833273338651
 20
180.5831266171200298
 10
327.6503981459980537
 20
180.5325539439019451
 10
327.6287789900322309
 20
180.4812014943219367
 10
327.608951813165902
 20
180.4291309168339978
 10
327.5909404178617592
 20
180.3764047219998758
 10
327.5747664267420873
 20
180.3230862074498475
 10
327.5604492566332624
 20
180.269239381893982
 10
327.5480060952521058
 20
180.2149288882730218
 10
327.5374518805741104
 20
180.1602199261639328
 10
327.528799282900934
 20
180.1051781735028783
 10
327.5220586896492136
 20
180.0498697077402142
 10
327.517238192879006
 20
179.994360926512087
 10
327.5143435795818618
 20
179.9387184679359564
 10
327.513378324731832
 20
179.8830091306082579
  0
LWPOLYLINE
  5
D0
100
AcDbEntity
  8
Taglio
 62
256
370
-1
 48
1.0
  6
BYLAYER
100
AcDbPolyline
 90
46
 70
0
 10
327.513378324731832
 20
179.8830091306082579
 10
327.5143579357672365
 20
179.8268873042640337
 10
327.5172955735022811
 20
179.7708338537501334
 10
327.52218765887784
 20
179.7149170715589719
 10
327.5290282316415755
 20
179.6592050836731289
 10
327.5378089576094567
 20
179.6037657665648624
 10
327.5485191388208364
 20
179.5486666644998479
 10
327.5611457265693502
 20
179.4939749072429152
 10
327.5756733373033853
 20
179.4397571282749198
 10
327.5920842713687193
 20
179.3860793836021514
 10
327.6103585345702527
 20
179.3330070712878808
 10
327.6304738625338473
 20
179.2806048517651618
 10
327.6524057478324607
 20
179.2289365690659508
 10
327.6761274698436068
 20
179.1780651730279317
 10
327.70161012730415
 20
179.1280526426109247
 10
327.7288226735220746
 20
179.078959910376085
 10
327.7577319542030523
 20
179.0308467882529442
 10
327.7883027478434883
 20
178.9837718946661482
 10
327.8204978086420738
 20
178.9377925831219329
 10
327.8542779118781141
 20
178.8929648723239154
 10
327.889601901700928
 20
178.8493433779318877
 10
327.9264267412716549
 20
178.8069812460159085
 10
327.9647075651981254
 20
178.765930088303918
 10
328.0043977341944696
 20
178.7262399193070053
 10
328.0454488919064602
 20
178.6879590953809895
 10
328.0878110238230079
 20
178.6511342558102626
 10
328.1314325182150355
 20
178.6158102659871076
 10
328.1762602290121436
 20
178.5820301627519768
 10
328.2222395405571547
 20
178.5498351019529366
 10
328.2693144341431548
 20
178.5192643083120458
 10
328.3174275562667503
 20
178.4903550276309545
 10
328.3665202885014764
 20
178.4631424814130298
 10
328.4165328189184834
 20
178.4376598239529415
 10
328.4674042149561615
 20
178.4139381019419091
 10
328.5190724976561683
 20
178.3920062166431819
 10
328.5714747171785461
 20
178.3718908886791326
 10
328.6245470294931579
 20
178.3536166254781676
 10
328.6782247741651304
 20
178.3372056914132884
 10
328.7324425531340353
 20
178.3226780806791396
 10
328.7871343103905133
 20
178.3100514929302847
 10
328.8422334124555277
 20
178.299341311718905
 10
328.8976727295637943
 20
178.2905605857510238
 10
328.953384717450092
 20
178.2837200129871746
 10
329.0093014996412535
 20
178.2788279276120704
 10
329.0653549501551538
 20
178.2758902898769122
 10
329.1214767764989233
 20
178.2749106788411666
  0
LWPOLYLINE
  5
D1
100
AcDbEntity
  8
Taglio
 62
256
370
-1
 48
1.0
  6
BYLAYER
100
AcDbPolyline
 90
137
 70
0
 10
280.8996824136564214
 20
171.948312822549866
 10
280.9553917509844609
 20
171.9492780774000664
 10
281.0110342095605915
 20
171.95217269069704
 10
281.0665429907879229
 20
171.9569931874681572
 10
281.1218514565514965
 20
171.9637337807199913
 10
281.1768932092123237
 20
171.9723863783921445
 10
281.2316021713211853
 20
171.9829405930701398
 10
281.2859126649419181
 20
171.9953837544518649
 10
281.3397594904990342
 20
172.0097009245611446
 10
281.3930780050483804
 20
172.025874915680248
 10
281.445804199882275
 20
172.0438863109849592
 10
281.4978747773710097
 20
172.0637134878512882
 10
281.549227226950677
 20
172.0853326438160877
 10
281.5997999001679659
 20
172.1087178251529224
 10
281.6495320846891559
 20
172.1338409580231712
 10
281.698364077184408
 20
172.1606718821869038
 10
281.7462372549999259
 20
172.1891783872039525
 10
281.7930941465386354
 20
172.2193262511060823
 10
281.8388785002500185
 20
172.2510792814761373
 10
281.8835353521622551
 20
172.2843993589041531
 10
281.9270110918661771
 20
172.3192464827399419
 10
281.9692535268738425
 20
172.3555788191239628
 10
282.010211945275671
 20
172.3933527512009789
 10
282.0498371766198602
 20
172.4325229314842147
 10
282.0880816509417741
 20
172.4730423362958902
 10
282.1248994558706613
 20
172.5148623222200115
 10
282.1602463917486716
 20
172.557932684495114
 10
282.1940800246911181
 20
172.6022017172882954
 10
282.2263597375285258
 20
172.6476162757650457
 10
282.2570467785678261
 20
172.6941218398912099
 10
282.286104308113579
 20
172.7416625798861389
 10
282.3134974426931763
 20
172.790181423239261
 10
282.3391932969353206
 20
172.8396201232350506
 10
282.3631610230488036
 20
172.8899193288690697
 10
282.3853718478538326
 20
172.941018656105058
 10
282.405799107325322
 20
172.9928567603621161
 10
282.4244182786035822
 20
173.0453714101601292
 10
282.441207009431821
 20
173.0984995618279356
 10
282.4561451449921492
 20
173.152177435189202
 10
282.4692147520999583
 20
173.2063405901241424
 10
282.4804001407330247
 20
173.2609240039380154
 10
282.489687882868509
 20
173.315862149415949
 10
282.4970668286006799
 20
173.3710890734870702
 10
282.5025281195285629
 20
173.4265384764040903
 10
282.5060651993899796
 20
173.4821437913352895
 10
282.5076738219315189
 20
173.5378382642740291
 10
282.5073520560068232
 20
173.5935550341838791
 10
282.5051002878952318
 20
173.6492272132578876
 10
282.5009212208370286
 20
173.7047879672219608
 10
282.4948198717892751
 20
173.7601705955659384
 10
282.486803565401317
 20
173.8153086116200541
 10
282.4768819252247454
 20
173.8701358223699174
 10
282.4650668621562204
 20
173.924586407924977
 10
282.4513725601424881
 20
173.9785950005272355
 10
282.4358154591488415
 20
174.0320967630320013
 10
282.4184142354263827
 20
174.0850274667442648
 10
282.3991897790892267
 20
174.1373235685202019
 10
282.3781651690356398
 20
174.188922287056954
 10
282.3553656452442624
 20
174.2397616782551779
 10
282.3308185784707689
 20
174.2897807095861538
 10
282.3045534373912346
 20
174.3389193333611331
 10
282.2766017532244973
 20
174.3871185588192532
 10
282.2469970818786464
 20
174.434320522941249
 10
282.2157749636685935
 20
174.4804685599198422
 10
282.1829728806474691
 20
174.5255072691822136
 10
282.1486302116131242
 20
174.5693825818990774
 10
282.1127881848303218
 20
174.6120418258989559
 10
282.075489828539105
 20
174.6534337888921584
 10
282.0367799192981124
 20
174.6935087799589894
 10
281.996704928230713
 20
174.7322186891998683
 10
281.9553129652371695
 20
174.7695170454909714
 10
281.9126537212378594
 20
174.8053590722740012
 10
281.868778408520086
 20
174.8397017413091419
 10
281.8237396992581694
 20
174.8725038243302663
 10
281.7775916622799173
 20
174.9037259425400919
 10
281.7303896981575804
 20
174.9333306138861701
 10
281.6821904726998014
 20
174.9612822980522253
 10
281.6330518489240262
 20
174.9875474391321006
 10
281.583032817592823
 20
175.012094505904912
 10
281.5321934263951675
 20
175.0348940296968578
 10
281.4805947078587565
 20
175.0559186397501037
 10
281.4282986060822509
 20
175.0751430960882828
 10
281.3753679023703285
 20
175.0925443198099458
 10
281.3218661398649942
 20
175.1081014208031377
 10
281.2678575472630769
 20
175.1217957228169837
 10
281.2134069617089267
 20
175.1336107858861908
 10
281.158579750958495
 20
175.1435324260620803
 10
281.1034417349042656
 20
175.1515487324501521
 10
281.0480591065601743
 20
175.1576500814982467
 10
280.9924983525966695
 20
175.1618291485562224
 10
280.9368261735225474
 20
175.1640809166680413
 10
280.8811094036125837
 20
175.1644026825921685
 10
280.825414930673162
 20
175.1627940600511977
 10
280.7698096157425312
 20
175.1592569801888715
 10
280.7143602128250564
 20
175.1537956892608747
 10
280.6591332887538215
 20
175.1464167435289312
 10
280.6041951432762858
 20
175.1371290013941291
 10
280.5496117294621286
 20
175.1259436127599258
 10
280.4954485745267334
 20
175.1128740056530262
 10
280.4417707011667176
 20
175.0979358700921296
 10
280.3886425494986838
 20
175.0811471392641181
 10
280.3361278997006707
 20
175.0625279679858579
 10
280.2842897954437262
 20
175.0421007085139138
 10
280.2331904682076242
 20
175.0198898837089985
 10
280.1828912625734915
 20
174.9959221575960839
 10
280.1334525625779293
 20
174.9702263033529164
 10
280.0849337192241251
 20
174.9428331687742286
 10
280.0373929792301055
 20
174.913775639228021
 10
279.9908874151032592
 20
174.8830885981890049
 10
279.9454728566265089
 20
174.8508088853511424
 10
279.9012038238340097
 20
174.8169752524092075
 10
279.8581334615587934
 20
174.7816283165308562
 10
279.8163134756346722
 20
174.744810511601969
 10
279.7757940708225419
 20
174.7065660372801688
 10
279.7366238905394198
 20
174.666940805936207
 10
279.6988499584629722
 20
174.6259823875340373
 10
279.6625176220789513
 20
174.5837399525259173
 10
279.6276704982424803
 20
174.5402642128221089
 10
279.5943504208149193
 20
174.4956073609102134
 10
279.5625973904444095
 20
174.4498230071991713
 10
279.5324495265429618
 20
174.4029661156602344
 10
279.5039430215257994
 20
174.3550929378440912
 10
279.4771120973621805
 20
174.3062609453492371
 10
279.4519889644915907
 20
174.2565287608282745
 10
279.4286037831554381
 20
174.2059560876101898
 10
279.4069846271899564
 20
174.1546036380311477
 10
279.3871574503236275
 20
174.1025330605422425
 10
279.3691460550191437
 20
174.0498068657081205
 10
279.3529720638998128
 20
173.9964883511590017
 10
279.3386548937906468
 20
173.9426415256022267
 10
279.3262117324094902
 20
173.8883310319812665
 10
279.3156575177316086
 20
173.8336220698721775
 10
279.3070049200585458
 20
173.778580317211123
 10
279.3002643268067118
 20
173.7232718514480041
 10
279.2954438300366178
 20
173.6677630702198769
 10
279.29254921673936
 20
173.6121206116442011
 10
279.2915839618892164
 20
173.5564112743160479
  0
LWPOLYLINE
  5
D2
100
AcDbEntity
  8
Taglio
 62
256
370
-1
 48
1.0
  6
BYLAYER
100
AcDbPolyline
 90
46
 70
0
 10
279.2915839618892164
 20
173.5564112743160479
 10
279.2925635729248484
 20
173.5002894479723352
 10
279.2955012106597792
 20
173.4442359974592875
 10
279.3003932960351108
 20
173.3883192152672734
 10
279.3072338687990737
 20
173.3326072273809189
 10
279.3160145947671822
 20
173.2771679102731071
 10
279.3267247759784482
 20
173.2220688082080926
 10
279.3393513637269621
 20
173.1673770509511598
 10
279.3538789744612245
 20
173.1131592719832213
 10
279.3702899085264448
 20
173.0594815273108509
 10
279.3885641717277508
 20
173.0064092149961255
 10
279.4086794996915728
 20
172.9540069954738613
 10
279.4306113849905273
 20
172.9023387127741955
 10
279.454333107001446
 20
172.8514673167361764
 10
279.4798157644616481
 20
172.8014547863191694
 10
279.5070283106796865
 20
172.7523620540838749
 10
279.5359375913607778
 20
172.7042489319611889
 10
279.5665083850013275
 20
172.6571740383748477
 10
279.5987034458000267
 20
172.6111947268301776
 10
279.6324835490358396
 20
172.5663670160330696
 10
279.6678075388585398
 20
172.5227455216410419
 10
279.7046323784292667
 20
172.4803833897241532
 10
279.7429132023556235
 20
172.4393322320121626
 10
279.7826033713524225
 20
172.3996420630161595
 10
279.823654529064072
 20
172.3613612390892342
 10
279.8660166609810744
 20
172.3245363995189621
 10
279.9096381553728747
 20
172.2892124096962618
 10
279.9544658661699827
 20
172.2554323064602215
 10
280.0004451777146528
 20
172.2232372456621476
 10
280.047520071300994
 20
172.1926664520212
 10
280.0956331934241348
 20
172.1637571713401655
 10
280.1447259256593156
 20
172.136544625122184
 10
280.1947384560763226
 20
172.1110619676620956
 10
280.2456098521136596
 20
172.0873402456510632
 10
280.2972781348140074
 20
172.0654083603518814
 10
280.3496803543363853
 20
172.0452930323882867
 10
280.4027526666508834
 20
172.0270187691868671
 10
280.4564304113226285
 20
172.0106078351219878
 10
280.5106481902914197
 20
171.9960802243869864
 10
280.565339947547784
 20
171.9834536366389841
 10
280.6204390496131396
 20
171.9727434554280592
 10
280.675878366721065
 20
171.9639627294602349
 10
280.7315903546074765
 20
171.9571221566958741
 10
280.7875071367986379
 20
171.9522300713212246
 10
280.8435605873124246
 20
171.9492924335851569
 10
280.8996824136564214
 20
171.948312822549866
  0
LWPOLYLINE
  5
D3
100
AcDbEntity
  8
Taglio
 62
256
370
-1
 48
1.0
  6
BYLAYER
100
AcDbPolyline
 90
137
 70
0
 10
280.8996824136564214
 20
254.4268360460511076
 10
280.9553917509846883
 20
254.4278013009011374
 10
281.0110342095605915
 20
254.4306959141980542
 10
281.0665429907880366
 20
254.4355164109682619
 10
281.1218514565513829
 20
254.4422570042199823
 10
281.1768932092124373
 20
254.4509096018931587
 10
281.2316021713211853
 20
254.461463816571154
 10
281.2859126649419181
 20
254.4739069779520833
 10
281.3397594904988068
 20
254.4882241480621587
 10
281.3930780050483804
 20
254.5043981391812622
 10
281.445804199882275
 20
254.5224095344850639
 10
281.4978747773707823
 20
254.5422367113519613
 10
281.5492272269504497
 20
254.5638558673169882
 10
281.5997999001678522
 20
254.5872410486532544
 10
281.6495320846890422
 20
254.6123641815240717
 10
281.6983640771837258
 20
254.6391951056880316
 10
281.7462372549998122
 20
254.6677016107050804
 10
281.7930941465385217
 20
254.6978494746060733
 10
281.8388785002497912
 20
254.7296025049770378
 10
281.8835353521621414
 20
254.7629225824042578
 10
281.9270110918661771
 20
254.7977697062410698
 10
281.9692535268737288
 20
254.8341020426250907
 10
282.01021194527533
 20
254.8718759747009699
 10
282.0498371766196328
 20
254.9110461549839783
 10
282.0880816509413194
 20
254.9515655597970181
 10
282.1248994558704339
 20
254.993385545721253
 10
282.1602463917485579
 20
255.0364559079960145
 10
282.1940800246908907
 20
255.0807249407889685
 10
282.2263597375281847
 20
255.1261394992650366
 10
282.257046778567485
 20
255.1726450633921104
 10
282.2861043081131243
 20
255.2201858033861299
 10
282.3134974426928352
 20
255.2687046467399341
 10
282.3391932969350933
 20
255.3181433467351553
 10
282.3631610230485762
 20
255.3684425523690606
 10
282.3853718478534915
 20
255.4195418796060721
 10
282.4057991073250946
 20
255.4713799838630166
 10
282.4244182786032411
 20
255.5238946336610297
 10
282.4412070094314799
 20
255.5770227853290635
 10
282.4561451449919218
 20
255.6307006586889656
 10
282.469214752099731
 20
255.6848638136241334
 10
282.4804001407330247
 20
255.7394472274380632
 10
282.4896878828682816
 20
255.7943853729160537
 10
282.4970668286002251
 20
255.8496122969870612
 10
282.5025281195283355
 20
255.9050616999040813
 10
282.5060651993896386
 20
255.9606670148351668
 10
282.5076738219312915
 20
256.0163614877740201
 10
282.5073520560068232
 20
256.0720782576840975
 10
282.5051002878952318
 20
256.1277504367581059
 10
282.5009212208370286
 20
256.1833111907220655
 10
282.4948198717889341
 20
256.2386938190659293
 10
282.4868035654014307
 20
256.2938318351201588
 10
282.4768819252246317
 20
256.3486590458711589
 10
282.4650668621563341
 20
256.403109631424968
 10
282.4513725601422607
 20
256.4571182240262033
 10
282.4358154591488415
 20
256.5106199865319923
 10
282.4184142354263827
 20
256.5635506902440284
 10
282.3991897790889993
 20
256.6158467920199655
 10
282.3781651690355261
 20
256.6674455105560355
 10
282.355365645244035
 20
256.718284901754032
 10
282.3308185784707689
 20
256.7683039330850079
 10
282.3045534373912346
 20
256.8174425568611241
 10
282.2766017532243836
 20
256.8656417823190168
 10
282.2469970818787601
 20
256.9128437464410126
 10
282.2157749636684798
 20
256.9589917834192647
 10
282.1829728806475828
 20
257.0040304926810677
 10
282.1486302116131242
 20
257.0479058053990684
 10
282.1127881848304355
 20
257.0905650493980374
 10
282.0754898285392187
 20
257.1319570123922631
 10
282.0367799192983398
 20
257.1720320034589804
 10
281.9967049282310541
 20
257.2107419127000867
 10
281.9553129652373968
 20
257.2480402689909624
 10
281.9126537212380867
 20
257.2838822957739922
 10
281.8687784085204271
 20
257.3182249648091329
 10
281.8237396992585104
 20
257.3510270478291204
 10
281.7775916622801446
 20
257.3822491660400829
 10
281.7303896981579214
 20
257.4118538373850242
 10
281.6821904727000287
 20
257.4398055215519889
 10
281.6330518489245947
 20
257.4660706626320916
 10
281.5830328175933914
 20
257.4906177294051304
 10
281.5321934263956223
 20
257.513417253196053
 10
281.4805947078592112
 20
257.5344418632500947
 10
281.4282986060827056
 20
257.553666319587137
 10
281.3753679023706695
 20
257.5710675433099368
 10
281.321866139865449
 20
257.5866246443031287
 10
281.2678575472636453
 20
257.6003189463169747
 10
281.2134069617094951
 20
257.6121340093851586
 10
281.1585797509589497
 20
257.6220556495620713
 10
281.103441734904834
 20
257.6300719559502568
 10
281.0480591065608564
 20
257.6361733049980103
 10
280.992498352597238
 20
257.6403523720559861
 10
280.9368261735232295
 20
257.6426041401680322
 10
280.8811094036133795
 20
257.6429259060919321
 10
280.8254149306739578
 20
257.6413172835501655
 10
280.769809615743327
 20
257.6377802036890898
 10
280.7143602128259658
 20
257.6323189127610931
 10
280.659133288754731
 20
257.6249399670292632
 10
280.6041951432770816
 20
257.6156522248941201
 10
280.549611729463038
 20
257.6044668362602579
 10
280.4954485745276429
 20
257.5913972291530172
 10
280.4417707011676271
 20
257.5764590935921206
 10
280.3886425494995933
 20
257.5596703627641091
 10
280.3361278997016939
 20
257.5410511914860763
 10
280.2842897954446357
 20
257.5206239320141322
 10
280.2331904682086474
 20
257.4984131072089895
 10
280.1828912625742873
 20
257.4744453810960749
 10
280.1334525625788388
 20
257.4487495268531347
 10
280.0849337192250346
 20
257.4213563922739922
 10
280.0373929792309013
 20
257.392298862728012
 10
279.9908874151042824
 20
257.3616118216890527
 10
279.9454728566276458
 20
257.3293321088510766
 10
279.9012038238350328
 20
257.2954984759089712
 10
279.8581334615597029
 20
257.2601515400310745
 10
279.8163134756356953
 20
257.22333373510196
 10
279.7757940708233377
 20
257.1850892607799324
 10
279.7366238905403293
 20
257.1454640294359706
 10
279.6988499584639953
 20
257.1045056110340283
 10
279.6625176220799744
 20
257.0622631760271588
 10
279.6276704982433898
 20
257.0187874363230094
 10
279.5943504208159425
 20
256.9741305844100907
 10
279.5625973904454327
 20
256.928346230698935
 10
279.532449526543985
 20
256.8814893391599981
 10
279.5039430215268226
 20
256.8336161613440254
 10
279.4771120973632037
 20
256.7847841688501376
 10
279.4519889644926138
 20
256.7350519843281518
 10
279.428603783156575
 20
256.6844793111110903
 10
279.4069846271910933
 20
256.6331268615311956
 10
279.387157450324537
 20
256.5810562840432567
 10
279.3691460550200532
 20
256.528330089209021
 10
279.352972063900836
 20
256.4750115746589927
 10
279.33865489379167
 20
256.4211647491019903
 10
279.3262117324103997
 20
256.3668542554810301
 10
279.3156575177326317
 20
256.3121452933730779
 10
279.307004920059569
 20
256.2571035407120235
 10
279.3002643268076213
 20
256.2017950749479951
 10
279.2954438300375273
 20
256.1462862937210048
 10
279.2925492167402695
 20
256.0906438351451015
 10
279.2915839618901259
 20
256.034934497817062
  0
LWPOLYLINE
  5
D4
100
AcDbEntity
  8
Taglio
 62
256
370
-1
 48
1.0
  6
BYLAYER
100
AcDbPolyline
 90
46
 70
0
 10
279.2915839618901259
 20
256.034934497817062
 10
279.2925635729256442
 20
255.9788126714730652
 10
279.2955012106606887
 20
255.9227592209591648
 10
279.300393296036134
 20
255.8668424387681171
 10
279.3072338687999832
 20
255.8111304508821604
 10
279.3160145947680917
 20
255.7556911337740075
 10
279.326724775979244
 20
255.7005920317080836
 10
279.3393513637276442
 20
255.6459002744520603
 10
279.353878974462134
 20
255.5916824954829281
 10
279.370289908527127
 20
255.5380047508110692
 10
279.3885641717285466
 20
255.4849324384970259
 10
279.4086794996923686
 20
255.4325302189749891
 10
279.4306113849912094
 20
255.3808619362740728
 10
279.4543331070021281
 20
255.3299905402370769
 10
279.4798157644623302
 20
255.2799780098200699
 10
279.5070283106801412
 20
255.2308852775850028
 10
279.5359375913612325
 20
255.1827721554620894
 10
279.5665083850018959
 20
255.1356972618759755
 10
279.5987034458004814
 20
255.0897179503310781
 10
279.6324835490362943
 20
255.0448902395330606
 10
279.6678075388589946
 20
255.0012687451420561
 10
279.7046323784299489
 20
254.9589066132251673
 10
279.742913202356192
 20
254.9178554555130631
 10
279.7826033713528773
 20
254.8781652865170599
 10
279.8236545290645267
 20
254.8398844625901347
 10
279.8660166609813018
 20
254.8030596230190667
 10
279.9096381553729884
 20
254.7677356331969349
 10
279.9544658661704375
 20
254.733955529961122
 10
280.0004451777151075
 20
254.7017604691620818
 10
280.0475200713012214
 20
254.6711896755221005
 10
280.0956331934245895
 20
254.6422803948410092
 10
280.1447259256594293
 20
254.6150678486230845
 10
280.1947384560766636
 20
254.5895851911620866
 10
280.245609852113887
 20
254.5658634691511679
 10
280.2972781348142348
 20
254.5439315838530092
 10
280.349680354336499
 20
254.5238162558889599
 10
280.4027526666508834
 20
254.5055419926870854
 10
280.4564304113229696
 20
254.4891310586219788
 10
280.5106481902916471
 20
254.4746034478881711
 10
280.5653399475480114
 20
254.4619768601389751
 10
280.6204390496131396
 20
254.4512666789281639
 10
280.6758783667212924
 20
254.4424859529600553
 10
280.7315903546074765
 20
254.4356453801960924
 10
280.7875071367988653
 20
254.4307532948209882
 10
280.8435605873124246
 20
254.4278156570861711
 10
280.8996824136565351
 20
254.4268360460500844
  0
LWPOLYLINE
  5
D5
100
AcDbEntity
  8
Taglio
 62
256
370
-1
 48
1.0
  6
BYLAYER
100
AcDbPolyline
 90
137
 70
0
 10
329.1214767764992644
 20
253.1572846367610055
 10
329.1771861138275312
 20
253.1582498916112627
 10
329.2328285724032071
 20
253.1611445049080658
 10
329.2883373536307658
 20
253.1659650016779324
 10
329.3436458193944532
 20
253.1727055949299938
 10
329.3986875720550529
 20
253.1813581926031702
 10
329.4533965341641419
 20
253.1919124072811655
 10
329.5077070277846474
 20
253.2043555686630043
 10
329.5615538533417634
 20
253.2186727387721703
 10
329.6148723678908823
 20
253.2348467298909327
 10
329.667598562725118
 20
253.2528581251949618
 10
329.7196691402135116
 20
253.2726853020619728
 10
329.7710215897930652
 20
253.2943044580269998
 10
329.8215942630105815
 20
253.317689639363266
 10
329.8713264475321125
 20
253.3428127722340832
 10
329.9201584400269098
 20
253.3696436963971337
 10
329.9680316178426551
 20
253.3981502014150919
 10
330.0148885093811373
 20
253.4282980653160848
 10
330.0606728630926341
 20
253.4600510956871631
 10
330.1053297150048706
 20
253.4933711731139283
 10
330.148805454708679
 20
253.5282182969510814
 10
330.191047889716458
 20
253.5645506333339654
 10
330.2320063081180592
 20
253.6023245654109814
 10
330.2716315394625894
 20
253.6414947456939899
 10
330.309876013784276
 20
253.6820141505061201
 10
330.3466938187131632
 20
253.723834136430014
 10
330.3820407545910598
 20
253.7669044987060261
 10
330.415874387533961
 20
253.8111735314980706
 10
330.448154100371255
 20
253.8565880899751619
 10
330.4788411414104417
 20
253.9030936541021219
 10
330.5078986709560809
 20
253.9506343940962552
 10
330.5352918055356781
 20
253.9991532374490362
 10
330.5609876597780499
 20
254.0485919374451669
 10
330.5849553858914192
 20
254.0988911430790722
 10
330.6071662106963345
 20
254.1499904703150605
 10
330.6275934701682786
 20
254.2018285745721187
 10
330.6462126414465388
 20
254.2543432243701318
 10
330.6630013722745502
 20
254.3074713760380519
 10
330.6779395078348784
 20
254.3611492493980677
 10
330.6910091149426876
 20
254.4153124043330081
 10
330.7021945035759813
 20
254.4698958181471653
 10
330.7114822457113519
 20
254.5248339636251558
 10
330.7188611914437502
 20
254.5800608876959359
 10
330.7243224823717469
 20
254.6355102906140928
 10
330.7278595622327089
 20
254.6911156055439278
 10
330.7294681847744755
 20
254.7468100784840317
 10
330.7291464188500072
 20
254.802526848394109
 10
330.7268946507386431
 20
254.8581990274669806
 10
330.7227155836802126
 20
254.9137597814311675
 10
330.7166142346325728
 20
254.9691424097750314
 10
330.7085979282449557
 20
255.0242804258292608
 10
330.6986762880681567
 20
255.079107636580261
 10
330.6868612249998591
 20
255.1335582221340701
 10
330.6731669229860131
 20
255.1875668147361012
 10
330.6576098219923665
 20
255.2410685772410943
 10
330.6402085982696804
 20
255.2939992809531304
 10
330.6209841419325244
 20
255.3462953827290676
 10
330.5999595318791648
 20
255.3978941012661608
 10
330.5771600080877874
 20
255.4487334924641573
 10
330.5526129413145213
 20
255.4987525237950194
 10
330.5263478002349871
 20
255.5478911475699988
 10
330.4983961160681361
 20
255.5960903730281188
 10
330.4687914447225126
 20
255.6432923371510242
 10
330.4375693265122322
 20
255.6894403741289352
 10
330.4047672434915626
 20
255.7344790833910793
 10
330.3704245744567629
 20
255.7783543961080568
 10
330.3345825476741879
 20
255.8210136401081627
 10
330.2972841913830848
 20
255.8624056031010241
 10
330.2585742821423196
 20
255.902480594168992
 10
330.2184992910750339
 20
255.9411905034100982
 10
330.1771073280812629
 20
255.978488859700974
 10
330.1344480840819529
 20
256.0143308864840037
 10
330.0905727713640658
 20
256.0486735555180076
 10
330.0455340621027176
 20
256.081475638539132
 10
329.9993860251241244
 20
256.1126977567490712
 10
329.9521840610021286
 20
256.1423024280950358
 10
329.9039848355440085
 20
256.1702541122620005
 10
329.8548462117685744
 20
256.1965192533409663
 10
329.8048271804374849
 20
256.2210663201152556
 10
329.7539877892398295
 20
256.2438658439060646
 10
329.7023890707035321
 20
256.2648904539601062
 10
329.6500929689271402
 20
256.2841149102972622
 10
329.597162265214763
 20
256.3015161340191526
 10
329.5436605027096562
 20
256.3170732350132539
 10
329.4896519101078525
 20
256.3307675370269862
 10
329.4352013245535886
 20
256.3425826000951702
 10
329.3803741138032706
 20
256.3525042402720828
 10
329.3252360977488138
 20
256.3605205466590178
 10
329.269853469405291
 20
256.3666218957080218
 10
329.2142927154415588
 20
256.3708009627659976
 10
329.158620536367664
 20
256.3730527308771343
 10
329.1029037664578141
 20
256.3733744968020574
 10
329.0472092935181649
 20
256.3717658742600634
 10
328.9916039785874204
 20
256.3682287943991014
 10
328.9361545756702867
 20
256.3627675034711046
 10
328.8809276515992792
 20
256.3553885577389337
 10
328.8259895061211751
 20
256.3461008156041316
 10
328.7714060923073589
 20
256.3349154269699284
 10
328.7172429373719638
 20
256.3218458198630287
 10
328.6635650640120616
 20
256.3069076843031553
 10
328.6104369123439142
 20
256.2901189534741206
 10
328.5579222625457874
 20
256.2714997821960878
 10
328.5060841582888429
 20
256.2510725227242574
 10
328.4549848310528546
 20
256.228861697919001
 10
328.4046856254182671
 20
256.2048939718060865
 10
328.3552469254230459
 20
256.1791981175641695
 10
328.3067280820693554
 20
256.1518049829840038
 10
328.2591873420754496
 20
256.1227474534380235
 10
328.2126817779482622
 20
256.0920604123990643
 10
328.1672672194719667
 20
256.0597806995619976
 10
328.1229981866793537
 20
256.0259470666201196
 10
328.0799278244042512
 20
255.9906001307410861
 10
328.0381078384795615
 20
255.9537823258131084
 10
327.9975884336675449
 20
255.9155378514910808
 10
327.9584182533847638
 20
255.875912620147119
 10
327.9206443213080888
 20
255.8349542017450631
 10
327.8843119849240679
 20
255.7927117667371704
 10
327.8494648610873696
 20
255.7492360270330209
 10
327.8161447836599223
 20
255.7045791751211254
 10
327.7843917532894125
 20
255.6587948214100834
 10
327.7542438893877375
 20
255.6119379298712602
 10
327.725737384370575
 20
255.5640647520550601
 10
327.6989064602069561
 20
255.5152327595611723
 10
327.6737833273367073
 20
255.4655005750390728
 10
327.6503981460003274
 20
255.4149279018220113
 10
327.6287789900349594
 20
255.3635754522420029
 10
327.6089518131681757
 20
255.3115048747540641
 10
327.590940417864033
 20
255.2587786799200558
 10
327.5747664267443611
 20
255.2054601653702548
 10
327.5604492566350814
 20
255.1516133398141619
 10
327.5480060952539247
 20
255.097302846193088
 10
327.5374518805762705
 20
255.042593884083999
 10
327.5287992829033215
 20
254.9875521314230582
 10
327.5220586896510326
 20
254.9322436656601667
 10
327.517238192880825
 20
254.8767348844322669
 10
327.5143435795836808
 20
254.8210924258560226
 10
327.513378324733651
 20
254.7653830885280968
  0
LWPOLYLINE
  5
D6
100
AcDbEntity
  8
Taglio
 62
256
370
-1
 48
1.0
  6
BYLAYER
100
AcDbPolyline
 90
46
 70
0
 10
327.513378324733651
 20
254.7653830885280968
 10
327.5143579357689418
 20
254.7092612621840999
 10
327.5172955735039864
 20
254.6532078116711091
 10
327.522187658879659
 20
254.5972910294791518
 10
327.5290282316430535
 20
254.5415790415929678
 10
327.5378089576112757
 20
254.4861397244849286
 10
327.5485191388223143
 20
254.4310406224202552
 10
327.5611457265707145
 20
254.3763488651629814
 10
327.575673337305318
 20
254.3221310861940765
 10
327.5920842713700836
 20
254.2684533415219903
 10
327.6103585345716169
 20
254.2153810292080607
 10
327.6304738625352115
 20
254.1629788096861375
 10
327.6524057478339387
 20
254.1113105269860171
 10
327.6761274698449711
 20
254.0604391309479979
 10
327.7016101273050595
 20
254.010426600530991
 10
327.7288226735228704
 20
253.9613338682962649
 10
327.7577319542040755
 20
253.9132207461730104
 10
327.7883027478449662
 20
253.866145852587124
 10
327.8204978086429833
 20
253.8201665410419992
 10
327.8542779118791373
 20
253.7753388302451185
 10
327.8896019017018375
 20
253.7317173358530908
 10
327.9264267412725644
 20
253.6893552039359747
 10
327.9647075651990349
 20
253.6483040462239842
 10
328.0043977341953791
 20
253.6086138772270715
 10
328.0454488919073697
 20
253.5703330533011695
 10
328.0878110238239174
 20
253.5335082137301015
 10
328.131432518215945
 20
253.4981842239080834
 10
328.176260229013053
 20
253.4644041206721568
 10
328.2222395405577231
 20
253.4322090598730028
 10
328.2693144341436096
 20
253.4016382662330216
 10
328.3174275562672051
 20
253.3727289855510207
 10
328.3665202885020449
 20
253.3455164393340056
 10
328.4165328189195066
 20
253.3200337818730077
 10
328.4674042149566162
 20
253.2963120598619753
 10
328.5190724976567367
 20
253.2743801745630208
 10
328.5714747171788872
 20
253.2542648465989714
 10
328.6245470294937263
 20
253.2359905833980065
 10
328.6782247741654714
 20
253.2195796493331272
 10
328.7324425531343763
 20
253.205052038598069
 10
328.7871343103905133
 20
253.1924254508501235
 10
328.8422334124555277
 20
253.1817152696389712
 10
328.897672729564249
 20
253.1729345436710901
 10
328.9533847174499783
 20
253.1660939709070135
 10
329.0093014996412535
 20
253.1612018855309998
 10
329.0653549501551538
 20
253.1582642477969785
 10
329.1214767764989233
 20
253.1572846367610055
  0
LWPOLYLINE
  5
D7
100
AcDbEntity
  8
Incisione
 62
256
370
158
 48
1.0
  6
BYLAYER
100
AcDbPolyline
 90
2
 70
0
 10
331.6605795950774223
 20
173.5564112743160479
 10
329.1214767764989233
 20
171.0173084557369805
  0
INSERT
  5
D8
100
AcDbEntity
  8
layer 1
 62
2
420
16776960
370
-1
 48
1.0
  6
BYLAYER
100
AcDbBlockReference
  2
leds
 10
210.2925071397995112
 20
141.1026703748453883
 30
0.0
  0
LWPOLYLINE
  5
D9
100
AcDbEntity
  8
Incisione
 62
256
370
158
 48
1.0
  6
BYLAYER
100
AcDbPolyline
 90
2
 70
0
 10
329.1214767764989233
 20
171.0173084557369805
 10
318.9650655021834496
 20
171.0173084557369805
  0
LINE
  5
DA
100
AcDbEntity
  8
0
 62
256
370
-1
 48
1.0
  6
BYLAYER
100
AcDbLine
 10
0.0
 20
0.0
 30
0.0
 11
360.0
 21
0.0
 31
0.0
  0
LWPOLYLINE
  5
DB
100
AcDbEntity
  8
Incisione
 62
256
370
158
 48
1.0
  6
BYLAYER
100
AcDbPolyline
 90
2
 70
0
 10
318.9650655021834496
 20
171.0173084557369805
 10
316.4259626836043822
 20
168.4782056371592773
  0
LINE
  5
DC
100
AcDbEntity
  8
0
 62
256
370
-1
 48
1.0
  6
BYLAYER
100
AcDbLine
 10
0.0
 20
0.0
 30
0.0
 11
0.0
 21
260.0
 31
0.0
  0
LWPOLYLINE
  5
DD
100
AcDbEntity
  8
Incisione
 62
256
370
158
 48
1.0
  6
BYLAYER
100
AcDbPolyline
 90
2
 70
0
 10
316.4259626836043822
 20
168.4782056371592773
 10
282.1692338229457278
 20
168.4782056371592773
  0
LINE
  5
DE
100
AcDbEntity
  8
0
 62
256
370
-1
 48
1.0
  6
BYLAYER
100
AcDbLine
 10
360.0
 20
0.0
 30
0.0
 11
360.0
 21
260.0
 31
0.0
  0
LWPOLYLINE
  5
DF
100
AcDbEntity
  8
Incisione
 62
256
370
158
 48
1.0
  6
BYLAYER
100
AcDbPolyline
 90
2
 70
0
 10
282.1692338229457278
 20
168.4782056371592773
 10
279.6301310043675699
 20
171.0173084557369805
  0
LINE
  5
E0
100
AcDbEntity
  8
0
 62
256
370
-1
 48
1.0
  6
BYLAYER
100
AcDbLine
 10
0.0
 20
260.0
 30
0.0
 11
360.0
 21
260.0
 31
0.0
  0
LWPOLYLINE
  5
E1
100
AcDbEntity
  8
Incisione
 62
256
370
158
 48
1.0
  6
BYLAYER
100
AcDbPolyline
 90
2
 70
0
 10
279.6301310043675699
 20
171.0173084557369805
 10
279.3550615323543411
 20
171.0173084557369805
  0
LWPOLYLINE
  5
E2
100
AcDbEntity
  8
Incisione
 62
256
370
158
 48
1.0
  6
BYLAYER
100
AcDbPolyline
 90
2
 70
0
 10
279.3550615323543411
 20
171.0173084557369805
 10
279.1011512504965708
 20
171.0384676458922115
  0
CIRCLE
  5
E3
100
AcDbEntity
  8
layer 1
 62
2
420
16776960
370
-1
 48
1.0
  6
BYLAYER
100
AcDbCircle
 10
198.0
 20
106.0
 30
0.0
 40
0.5
  0
LWPOLYLINE
  5
E4
100
AcDbEntity
  8
Incisione
 62
256
370
158
 48
1.0
  6
BYLAYER
100
AcDbPolyline
 90
2
 70
0
 10
279.1011512504965708
 20
171.0384676458922115
 10
278.8684001587936905
 20
171.144263596666093
  0
CIRCLE
  5
E5
100
AcDbEntity
  8
layer 1
 62
2
420
16776960
370
-1
 48
1.0
  6
BYLAYER
100
AcDbCircle
 10
164.0
 20
106.0
 30
0.0
 40
0.5
  0
LWPOLYLINE
  5
E6
100
AcDbEntity
  8
Incisione
 62
256
370
158
 48
1.0
  6
BYLAYER
100
AcDbPolyline
 90
2
 70
0
 10
278.8684001587936905
 20
171.144263596666093
 10
278.6568082572453591
 20
171.2923779277499818
  0
CIRCLE
  5
E7
100
AcDbEntity
  8
layer 1
 62
2
420
16776960
370
-1
 48
1.0
  6
BYLAYER
100
AcDbCircle
 10
130.0
 20
106.0
 30
0.0
 40
0.5
  0
LWPOLYLINE
  5
E8
100
AcDbEntity
  8
Incisione
 62
256
370
158
 48
1.0
  6
BYLAYER
100
AcDbPolyline
 90
2
 70
0
 10
278.6568082572453591
 20
171.2923779277499818
 10
278.487534736007035
 20
171.5039698292981996
  0
CIRCLE
  5
E9
100
AcDbEntity
  8
layer 1
 62
2
420
16776960
370
-1
 48
1.0
  6
BYLAYER
100
AcDbCircle
 10
198.0
 20
141.0
 30
0.0
 40
0.5
  0
LWPOLYLINE
  5
EA
100
AcDbEntity
  8
Incisione
 62
256
370
158
 48
1.0
  6
BYLAYER
100
AcDbPolyline
 90
2
 70
0
 10
278.487534736007035
 20
171.5039698292981996
 10
278.4028979753877024
 20
171.7578801111559699
  0
CIRCLE
  5
EB
100
AcDbEntity
  8
layer 1
 62
2
420
16776960
370
-1
 48
1.0
  6
BYLAYER
100
AcDbCircle
 10
164.0
 20
141.0
 30
0.0
 40
0.5
  0
LWPOLYLINE
  5
EC
100
AcDbEntity
  8
Incisione
 62
256
370
158
 48
1.0
  6
BYLAYER
100
AcDbPolyline
 90
2
 70
0
 10
278.4028979753877024
 20
171.7578801111559699
 10
278.3605795950774677
 20
172.0117903930142518
  0
CIRCLE
  5
ED
100
AcDbEntity
  8
layer 1
 62
2
420
16776960
370
-1
 48
1.0
  6
BYLAYER
100
AcDbCircle
 10
130.0
 20
141.0
 30
0.0
 40
0.5
  0
LWPOLYLINE
  5
EE
100
AcDbEntity
  8
Incisione
 62
256
370
158
 48
1.0
  6
BYLAYER
100
AcDbPolyline
 90
2
 70
0
 10
278.3605795950774677
 20
172.0117903930142518
 10
278.3605795950776951
 20
269.0055180627230129
  0
CIRCLE
  5
EF
100
AcDbEntity
  8
layer 1
 62
2
420
16776960
370
-1
 48
1.0
  6
BYLAYER
100
AcDbCircle
 10
198.0
 20
175.0
 30
0.0
 40
0.5
  0
LWPOLYLINE
  5
F0
100
AcDbEntity
  8
Incisione
 62
256
370
158
 48
1.0
  6
BYLAYER
100
AcDbPolyline
 90
2
 70
0
 10
278.3605795950776951
 20
269.0055180627230129
 10
278.4028979753877024
 20
269.2594283445822612
  0
CIRCLE
  5
F1
100
AcDbEntity
  8
layer 1
 62
2
420
16776960
370
-1
 48
1.0
  6
BYLAYER
100
AcDbCircle
 10
164.0
 20
175.0
 30
0.0
 40
0.5
  0
LWPOLYLINE
  5
F2
100
AcDbEntity
  8
Incisione
 62
256
370
158
 48
1.0
  6
BYLAYER
100
AcDbPolyline
 90
2
 70
0
 10
278.4028979753877024
 20
269.2594283445822612
 10
278.4875347360069213
 20
269.4921794362852552
  0
CIRCLE
  5
F3
100
AcDbEntity
  8
layer 1
 62
2
420
16776960
370
-1
 48
1.0
  6
BYLAYER
100
AcDbCircle
 10
130.0
 20
175.0
 30
0.0
 40
0.5
  0
LWPOLYLINE
  5
F4
100
AcDbEntity
  8
Incisione
 62
256
370
158
 48
1.0
  6
BYLAYER
100
AcDbPolyline
 90
2
 70
0
 10
278.4875347360069213
 20
269.4921794362852552
 10
278.6568082572454728
 20
269.7037713378321087
  0
CIRCLE
  5
F5
100
AcDbEntity
  8
layer 1
 62
2
420
16776960
370
-1
 48
1.0
  6
BYLAYER
100
AcDbCircle
 10
198.0
 20
209.0
 30
0.0
 40
0.5
  0
LWPOLYLINE
  5
F6
100
AcDbEntity
  8
Incisione
 62
256
370
158
 48
1.0
  6
BYLAYER
100
AcDbPolyline
 90
2
 70
0
 10
278.6568082572454728
 20
269.7037713378321087
 10
278.8684001587936905
 20
269.8730448590720243
  0
CIRCLE
  5
F7
100
AcDbEntity
  8
layer 1
 62
2
420
16776960
370
-1
 48
1.0
  6
BYLAYER
100
AcDbCircle
 10
164.0
 20
209.0
 30
0.0
 40
0.5
  0
LWPOLYLINE
  5
F8
100
AcDbEntity
  8
Incisione
 62
256
370
158
 48
1.0
  6
BYLAYER
100
AcDbPolyline
 90
2
 70
0
 10
278.8684001587936905
 20
269.8730448590720243
 10
279.1011512504966845
 20
269.9576816196911295
  0
CIRCLE
  5
F9
100
AcDbEntity
  8
layer 1
 62
2
420
16776960
370
-1
 48
1.0
  6
BYLAYER
100
AcDbCircle
 10
130.0
 20
209.0
 30
0.0
 40
0.5
  0
LWPOLYLINE
  5
FA
100
AcDbEntity
  8
Incisione
 62
256
370
158
 48
1.0
  6
BYLAYER
100
AcDbPolyline
 90
2
 70
0
 10
279.1011512504966845
 20
269.9576816196911295
 10
279.3550615323544548
 20
270.0
  0
CIRCLE
  5
FB
100
AcDbEntity
  8
layer 1
 62
2
420
16776960
370
-1
 48
1.0
  6
BYLAYER
100
AcDbCircle
 10
198.0
 20
243.0
 30
0.0
 40
0.5
  0
LWPOLYLINE
  5
FC
100
AcDbEntity
  8
Incisione
 62
256
370
158
 48
1.0
  6
BYLAYER
100
AcDbPolyline
 90
2
 70
0
 10
279.3550615323544548
 20
270.0
 10
330.6449384676455452
 20
270.0
  0
CIRCLE
  5
FD
100
AcDbEntity
  8
layer 1
 62
2
420
16776960
370
-1
 48
1.0
  6
BYLAYER
100
AcDbCircle
 10
164.0
 20
243.0
 30
0.0
 40
0.5
  0
LWPOLYLINE
  5
FE
100
AcDbEntity
  8
Incisione
 62
256
370
158
 48
1.0
  6
BYLAYER
100
AcDbPolyline
 90
2
 70
0
 10
330.6449384676455452
 20
270.0
 10
330.9200079396585465
 20
269.9576816196911295
  0
CIRCLE
  5
FF
100
AcDbEntity
  8
layer 1
 62
2
420
16776960
370
-1
 48
1.0
  6
BYLAYER
100
AcDbCircle
 10
130.0
 20
243.0
 30
0.0
 40
0.5
  0
LWPOLYLINE
  5
100
100
AcDbEntity
  8
Incisione
 62
256
370
158
 48
1.0
  6
BYLAYER
100
AcDbPolyline
 90
2
 70
0
 10
330.9200079396585465
 20
269.9576816196911295
 10
331.1527590313615406
 20
269.8730448590720243
  0
CIRCLE
  5
101
100
AcDbEntity
  8
layer 1
 62
2
420
16776960
370
-1
 48
1.0
  6
BYLAYER
100
AcDbCircle
 10
198.0
 20
106.0
 30
0.0
 40
9.0
  0
LWPOLYLINE
  5
102
100
AcDbEntity
  8
Incisione
 62
256
370
158
 48
1.0
  6
BYLAYER
100
AcDbPolyline
 90
2
 70
0
 10
331.1527590313615406
 20
269.8730448590720243
 10
331.3643509329097583
 20
269.703771337831995
  0
CIRCLE
  5
103
100
AcDbEntity
  8
layer 1
 62
2
420
16776960
370
-1
 48
1.0
  6
BYLAYER
100
AcDbCircle
 10
164.0
 20
106.0
 30
0.0
 40
9.0
  0
LWPOLYLINE
  5
104
100
AcDbEntity
  8
Incisione
 62
256
370
158
 48
1.0
  6
BYLAYER
100
AcDbPolyline
 90
2
 70
0
 10
331.3643509329097583
 20
269.703771337831995
 10
331.5124652639936471
 20
269.4921794362852552
  0
CIRCLE
  5
105
100
AcDbEntity
  8
layer 1
 62
2
420
16776960
370
-1
 48
1.0
  6
BYLAYER
100
AcDbCircle
 10
130.0
 20
106.0
 30
0.0
 40
9.0
  0
LWPOLYLINE
  5
106
100
AcDbEntity
  8
Incisione
 62
256
370
158
 48
1.0
  6
BYLAYER
100
AcDbPolyline
 90
2
 70
0
 10
331.5124652639936471
 20
269.4921794362852552
 10
331.6182612147675286
 20
269.2594283445822612
  0
CIRCLE
  5
107
100
AcDbEntity
  8
layer 1
 62
2
420
16776960
370
-1
 48
1.0
  6
BYLAYER
100
AcDbCircle
 10
198.0
 20
141.0
 30
0.0
 40
7.0
  0
LWPOLYLINE
  5
108
100
AcDbEntity
  8
Incisione
 62
256
370
158
 48
1.0
  6
BYLAYER
100
AcDbPolyline
 90
2
 70
0
 10
331.6182612147675286
 20
269.2594283445822612
 10
331.6605795950775359
 20
269.0055180627230129
  0
CIRCLE
  5
109
100
AcDbEntity
  8
layer 1
 62
2
420
16776960
370
-1
 48
1.0
  6
BYLAYER
100
AcDbCircle
 10
164.0
 20
141.0
 30
0.0
 40
7.0
  0
LWPOLYLINE
  5
10A
100
AcDbEntity
  8
Incisione
 62
256
370
158
 48
1.0
  6
BYLAYER
100
AcDbPolyline
 90
2
 70
0
 10
331.6605795950775359
 20
269.0055180627230129
 10
331.6605795950774223
 20
173.5564112743160479
  0
CIRCLE
  5
10B
100
AcDbEntity
  8
layer 1
 62
2
420
16776960
370
-1
 48
1.0
  6
BYLAYER
100
AcDbCircle
 10
130.0
 20
141.0
 30
0.0
 40
7.0
  0
LWPOLYLINE
  5
10C
100
AcDbEntity
  8
Taglio
 62
256
370
-1
 48
1.0
  6
BYLAYER
100
AcDbPolyline
 90
137
 70
0
 10
285.977888050813533
 20
202.3963874553411699
 10
286.0335973881419136
 20
202.3973527101908587
 10
286.0892398467175894
 20
202.4002473234878892
 10
286.1447486279449208
 20
202.4050678202590063
 10
286.2000570937083808
 20
202.4118084135112952
 10
286.2550988463694353
 20
202.4204610111829936
 10
286.3098078084781832
 20
202.4310152258609889
 10
286.3641183020986887
 20
202.4434583872431688
 10
286.4179651276555774
 20
202.4577755573519937
 10
286.4712836422050373
 20
202.4739495484710972
 10
286.5240098370389319
 20
202.4919609437748989
 10
286.5760804145275529
 20
202.5117881206421373
 10
286.6274328641072202
 20
202.5334072766069369
 10
286.6780055373247365
 20
202.5567924579442263
 10
286.7277377218459264
 20
202.5819155908140203
 10
286.7765697143407237
 20
202.6087465149782076
 10
286.824442892156469
 20
202.6372530199952564
 10
286.8712997836952923
 20
202.6674008838960219
 10
286.9170841374065617
 20
202.6991539142669865
 10
286.9617409893186846
 20
202.7324739916940928
 10
287.0052167290227203
 20
202.7673211155312458
 10
287.0474591640302719
 20
202.8036534519152667
 10
287.0884175824319868
 20
202.8414273839909185
 10
287.128042813776176
 20
202.8805975642741544
 10
287.1662872880980899
 20
202.9211169690871941
 10
287.2031050930269771
 20
202.9629369550099511
 10
287.2384520289048737
 20
203.0060073172859632
 10
287.2722856618474339
 20
203.0502763500791445
 10
287.3045653746848416
 20
203.0956909085549853
 10
287.3352524157240282
 20
203.142196472682059
 10
287.3643099452696674
 20
203.1897372126760786
 10
287.3917030798493784
 20
203.2382560560292006
 10
287.4173989340917501
 20
203.2876947560249903
 10
287.4413666602050057
 20
203.3379939616599188
 10
287.4635774850098073
 20
203.3890932888949976
 10
287.4840047444816378
 20
203.4409313931520558
 10
287.5026239157597843
 20
203.4934460429500689
 10
287.5194126465880231
 20
203.5465741946178753
 10
287.5343507821481239
 20
203.6002520679791417
 10
287.5474203892562741
 20
203.6544152229140821
 10
287.5586057778895679
 20
203.7089986367278982
 10
287.5678935200245974
 20
203.7639367822049792
 10
287.5752724657566546
 20
203.8191637062761004
 10
287.5807337566846513
 20
203.8746131091940299
 10
287.5842708365461817
 20
203.9302184241238649
 10
287.585879459087721
 20
203.9859128970639688
 10
287.585557693163139
 20
204.0416296669742735
 10
287.5833059250516612
 20
204.097301846048282
 10
287.5791268579934581
 20
204.1528626000109909
 10
287.5730255089455909
 20
204.2082452283549685
 10
287.5650092025579738
 20
204.2633832444090842
 10
287.5550875623811748
 20
204.318210455159857
 10
287.5432724993127636
 20
204.3726610407140072
 10
287.5295781972988038
 20
204.4266696333162656
 10
287.5140210963053846
 20
204.4801713958210314
 10
287.4966198725829258
 20
204.5331020995332949
 10
287.4773954162454288
 20
204.585398201309232
 10
287.456370806192183
 20
204.6369969198459842
 10
287.4335712824009192
 20
204.6878363110428438
 10
287.4090242156273121
 20
204.7378553423751839
 10
287.3827590745478915
 20
204.7869939661501633
 10
287.3548073903811542
 20
204.8351931916082833
 10
287.3252027190355307
 20
204.8823951557302792
 10
287.2939806008251367
 20
204.9285431927079628
 10
287.261178517804467
 20
204.9735819019698795
 10
287.2268358487698947
 20
205.0174572146881076
 10
287.1909938219873197
 20
205.0601164586870766
 10
287.1536954656959892
 20
205.1015084216811886
 10
287.1149855564549966
 20
205.1415834127480196
 10
287.0749105653879383
 20
205.1802933219888985
 10
287.0335186023942811
 20
205.2175916782800016
 10
286.9908593583948573
 20
205.2534337050630313
 10
286.946984045677425
 20
205.287776374098172
 10
286.9019453364155083
 20
205.3205784571179322
 10
286.8557972994371426
 20
205.351800575329122
 10
286.808595335315033
 20
205.3814052466742908
 10
286.7603961098571403
 20
205.4093569308412555
 10
286.7112574860814789
 20
205.4356220719202213
 10
286.661238454750503
 20
205.4601691386939422
 10
286.6103990635526202
 20
205.4829686624849785
 10
286.5588003450164365
 20
205.5039932725391338
 10
286.5065042432398172
 20
205.5232177288759488
 10
286.4535735395276674
 20
205.540618952598976
 10
286.4000717770226743
 20
205.5561760535921678
 10
286.3460631844208706
 20
205.5698703556060138
 10
286.2916125988669478
 20
205.5816854186738567
 10
286.2367853881162887
 20
205.5916070588511104
 10
286.181647372062173
 20
205.5996233652391822
 10
286.1262647437181954
 20
205.6057247142872768
 10
286.0707039897545769
 20
205.6099037813452526
 10
286.0150318106806822
 20
205.6121555494570714
 10
285.9593150407708322
 20
205.6124773153811987
 10
285.9036205678315241
 20
205.6108686928388636
 10
285.8480152529008933
 20
205.6073316129779016
 10
285.7925658499835322
 20
205.6018703220499049
 10
285.7373389259121836
 20
205.5944913763179613
 10
285.6824007804346479
 20
205.5852036341831592
 10
285.6278173666206044
 20
205.574018245548956
 10
285.5736542116853229
 20
205.5609486384420563
 10
285.5199763383253071
 20
205.5460105028811597
 10
285.4668481866572733
 20
205.5292217720531482
 10
285.4143335368593739
 20
205.5106026007748881
 10
285.3624954326023158
 20
205.4901753413029439
 10
285.3113961053662138
 20
205.4679645164980286
 10
285.2610968997320811
 20
205.4439967903851141
 10
285.2116581997365188
 20
205.418300936142856
 10
285.1631393563828283
 20
205.3909078015632588
 10
285.1155986163888088
 20
205.3618502720170511
 10
285.0690930522620761
 20
205.3311632309779782
 10
285.0236784937855532
 20
205.2988835181410252
 10
284.9794094609927129
 20
205.2650498851982377
 10
284.9363390987176103
 20
205.2297029493198863
 10
284.8945191127934891
 20
205.1928851443909991
 10
284.8539997079811315
 20
205.1546406700691989
 10
284.8148295276982367
 20
205.1150154387261466
 10
284.7770555956217891
 20
205.074057020323977
 10
284.7407232592378818
 20
205.0318145853158569
 10
284.7058761354012972
 20
204.9883388456120485
 10
284.6725560579737362
 20
204.943681993700153
 10
284.6408030276032264
 20
204.8978976399882015
 10
284.6106551637017787
 20
204.8510407484501741
 10
284.5821486586848437
 20
204.803167570633974
 10
284.5553177345209974
 20
204.7543355781391767
 10
284.5301946016504075
 20
204.7046033936182141
 10
284.5068094203143687
 20
204.6540307204010389
 10
284.4851902643487733
 20
204.6026782708210305
 10
284.4653630874823307
 20
204.5506076933330917
 10
284.4473516921778469
 20
204.4978814984989697
 10
284.431177701058516
 20
204.4445629839489413
 10
284.4168605309495774
 20
204.3907161583921663
 10
284.4044173695681934
 20
204.3364056647712061
 10
284.3938631548903118
 20
204.2816967026630266
 10
284.3852105572174764
 20
204.2266549500019721
 10
284.3784699639653013
 20
204.1713464842388532
 10
284.3736494671952073
 20
204.1158377030111808
 10
284.3707548538980632
 20
204.0601952444350502
 10
284.369789599047806
 20
204.004485907106897
  0
CIRCLE
  5
10D
100
AcDbEntity
  8
layer 1
 62
2
420
16776960
370
-1
 48
1.0
  6
BYLAYER
100
AcDbCircle
 10
198.0
 20
175.0
 30
0.0
 40
7.0
  0
LWPOLYLINE
  5
10E
100
AcDbEntity
  8
Taglio
 62
256
370
-1
 48
1.0
  6
BYLAYER
100
AcDbPolyline
 90
46
 70
0
 10
284.369789599047806
 20
204.004485907106897
 10
284.3707692100835516
 20
203.9483640807631275
 10
284.3737068478183687
 20
203.8923106302492272
 10
284.378598933193814
 20
203.8363938480580657
 10
284.3854395059576632
 20
203.7806818601722227
 10
284.3942202319257717
 20
203.7252425430639562
 10
284.4049304131370377
 20
203.6701434409989417
 10
284.4175570008854379
 20
203.6154516837429185
 10
284.432084611619814
 20
203.5612339047740136
 10
284.4484955456849207
 20
203.5075561601021548
 10
284.4667698088862267
 20
203.4544838477869746
 10
284.4868851368500486
 20
203.4020816282651651
 10
284.5088170221488895
 20
203.3504133455650447
 10
284.5325387441599219
 20
203.2995419495270255
 10
284.5580214016201239
 20
203.2495294191100186
 10
284.5852339478379349
 20
203.2004366868751788
 10
284.6141432285191399
 20
203.152323564752038
 10
284.6447140221594623
 20
203.1052486711661516
 10
284.6769090829581614
 20
203.0592693596210268
 10
284.7106891861940881
 20
203.0144416488239187
 10
284.7460131760165609
 20
202.9708201544318911
 10
284.7828380155875152
 20
202.9284580225159118
 10
284.821118839513872
 20
202.8874068648039213
 10
284.8608090085102162
 20
202.8477166958070086
 10
284.9018601662220931
 20
202.8094358718809929
 10
284.9442222981388682
 20
202.772611032310266
 10
284.9878437925306685
 20
202.737287042487111
 10
285.0326715033277765
 20
202.7035069392510707
 10
285.0786508148726739
 20
202.6713118784529399
 10
285.125725708458674
 20
202.6407410848120492
 10
285.1738388305820422
 20
202.6118318041309578
 10
285.2229315628169957
 20
202.5846192579130332
 10
285.2729440932341163
 20
202.5591366004529448
 10
285.3238154892713396
 20
202.5354148784419124
 10
285.3754837719716875
 20
202.5134829931431852
 10
285.427885991493838
 20
202.4933676651791359
 10
285.4809583038082224
 20
202.475093401978171
 10
285.5346360484801949
 20
202.4586824679132917
 10
285.5888538274488724
 20
202.4441548571791429
 10
285.6435455847053504
 20
202.431528269430288
 10
285.6986446867704785
 20
202.4208180882189083
 10
285.7540840038786314
 20
202.4120373622510272
 10
285.8097959917645881
 20
202.405196789487178
 10
285.8657127739559769
 20
202.4003047041120738
 10
285.9217662244697635
 20
202.3973670663769155
 10
285.977888050813533
 20
202.3963874553411699
  0
CIRCLE
  5
10F
100
AcDbEntity
  8
layer 1
 62
2
420
16776960
370
-1
 48
1.0
  6
BYLAYER
100
AcDbCircle
 10
164.0
 20
175.0
 30
0.0
 40
7.0
  0
CIRCLE
  5
110
100
AcDbEntity
  8
layer 1
 62
2
420
16776960
370
-1
 48
1.0
  6
BYLAYER
100
AcDbCircle
 10
130.0
 20
175.0
 30
0.0
 40
7.0
  0
CIRCLE
  5
111
100
AcDbEntity
  8
layer 1
 62
2
420
16776960
370
-1
 48
1.0
  6
BYLAYER
100
AcDbCircle
 10
198.0
 20
209.0
 30
0.0
 40
7.0
  0
CIRCLE
  5
112
100
AcDbEntity
  8
layer 1
 62
2
420
16776960
370
-1
 48
1.0
  6
BYLAYER
100
AcDbCircle
 10
164.0
 20
209.0
 30
0.0
 40
7.0
  0
CIRCLE
  5
113
100
AcDbEntity
  8
layer 1
 62
2
420
16776960
370
-1
 48
1.0
  6
BYLAYER
100
AcDbCircle
 10
130.0
 20
209.0
 30
0.0
 40
7.0
  0
CIRCLE
  5
114
100
AcDbEntity
  8
layer 1
 62
2
420
16776960
370
-1
 48
1.0
  6
BYLAYER
100
AcDbCircle
 10
198.0
 20
243.0
 30
0.0
 40
7.0
  0
CIRCLE
  5
115
100
AcDbEntity
  8
layer 1
 62
2
420
16776960
370
-1
 48
1.0
  6
BYLAYER
100
AcDbCircle
 10
164.0
 20
243.0
 30
0.0
 40
7.0
  0
CIRCLE
  5
116
100
AcDbEntity
  8
layer 1
 62
2
420
16776960
370
-1
 48
1.0
  6
BYLAYER
100
AcDbCircle
 10
130.0
 20
243.0
 30
0.0
 40
7.0
  0
LINE
  5
117
100
AcDbEntity
  8
layer 1
 62
30
420
16744192
370
-1
 48
1.0
  6
BYLAYER
100
AcDbLine
 10
121.0
 20
80.0
 30
0.0
 11
139.0
 21
80.0
 31
0.0
  0
LINE
  5
118
100
AcDbEntity
  8
layer 1
 62
30
420
16744192
370
-1
 48
1.0
  6
BYLAYER
100
AcDbLine
 10
155.03157416496731
 20
79.9962425025943844
 30
0.0
 11
173.03157416496731
 21
79.9962425025943844
 31
0.0
  0
LINE
  5
119
100
AcDbEntity
  8
layer 1
 62
30
420
16744192
370
-1
 48
1.0
  6
BYLAYER
100
AcDbLine
 10
189.0187860991236448
 20
79.9816951774915168
 30
0.0
 11
207.0187860991236448
 21
79.9816951774915168
 31
0.0
  0
LINE
  5
11A
100
AcDbEntity
  8
layer 1
 62
30
420
16744192
370
-1
 48
1.0
  6
BYLAYER
100
AcDbLine
 10
139.0
 20
80.0
 30
0.0
 11
139.0
 21
87.0
 31
0.0
  0
LINE
  5
11B
100
AcDbEntity
  8
layer 1
 62
30
420
16744192
370
-1
 48
1.0
  6
BYLAYER
100
AcDbLine
 10
173.03157416496731
 20
79.9962425025943844
 30
0.0
 11
173.03157416496731
 21
86.9962425025943844
 31
0.0
  0
LINE
  5
11C
100
AcDbEntity
  8
layer 1
 62
30
420
16744192
370
-1
 48
1.0
  6
BYLAYER
100
AcDbLine
 10
207.0187860991236448
 20
79.9816951774915168
 30
0.0
 11
207.0187860991236448
 21
86.9816951774915168
 31
0.0
  0
LINE
  5
11D
100
AcDbEntity
  8
layer 1
 62
30
420
16744192
370
-1
 48
1.0
  6
BYLAYER
100
AcDbLine
 10
139.0
 20
87.0
 30
0.0
 11
121.0
 21
87.0
 31
0.0
  0
LINE
  5
11E
100
AcDbEntity
  8
layer 1
 62
30
420
16744192
370
-1
 48
1.0
  6
BYLAYER
100
AcDbLine
 10
173.03157416496731
 20
86.9962425025943844
 30
0.0
 11
155.03157416496731
 21
86.9962425025943844
 31
0.0
  0
LINE
  5
11F
100
AcDbEntity
  8
layer 1
 62
30
420
16744192
370
-1
 48
1.0
  6
BYLAYER
100
AcDbLine
 10
207.0187860991236448
 20
86.9816951774915168
 30
0.0
 11
189.0187860991236448
 21
86.9816951774915168
 31
0.0
  0
LINE
  5
120
100
AcDbEntity
  8
layer 1
 62
30
420
16744192
370
-1
 48
1.0
  6
BYLAYER
100
AcDbLine
 10
121.0
 20
87.0
 30
0.0
 11
121.0
 21
80.0
 31
0.0
  0
LINE
  5
121
100
AcDbEntity
  8
layer 1
 62
30
420
16744192
370
-1
 48
1.0
  6
BYLAYER
100
AcDbLine
 10
155.03157416496731
 20
86.9962425025943844
 30
0.0
 11
155.03157416496731
 21
79.9962425025943844
 31
0.0
  0
LINE
  5
122
100
AcDbEntity
  8
layer 1
 62
30
420
16744192
370
-1
 48
1.0
  6
BYLAYER
100
AcDbLine
 10
189.0187860991236448
 20
86.9816951774915168
 30
0.0
 11
189.0187860991236448
 21
79.9816951774915168
 31
0.0
  0
LINE
  5
123
100
AcDbEntity
  8
layer 1
 62
2
420
16776960
370
-1
 48
1.0
  6
BYLAYER
100
AcDbLine
 10
193.5
 20
12.0
 30
0.0
 11
202.5
 21
12.0
 31
0.0
  0
LINE
  5
124
100
AcDbEntity
  8
layer 1
 62
2
420
16776960
370
-1
 48
1.0
  6
BYLAYER
100
AcDbLine
 10
202.5
 20
12.0
 30
0.0
 11
202.5
 21
72.0
 31
0.0
  0
LINE
  5
125
100
AcDbEntity
  8
layer 1
 62
2
420
16776960
370
-1
 48
1.0
  6
BYLAYER
100
AcDbLine
 10
202.5
 20
72.0
 30
0.0
 11
193.5
 21
72.0
 31
0.0
  0
LINE
  5
126
100
AcDbEntity
  8
layer 1
 62
2
420
16776960
370
-1
 48
1.0
  6
BYLAYER
100
AcDbLine
 10
193.5
 20
72.0
 30
0.0
 11
193.5
 21
12.0
 31
0.0
  0
LINE
  5
127
100
AcDbEntity
  8
layer 1
 62
2
420
16776960
370
-1
 48
1.0
  6
BYLAYER
100
AcDbLine
 10
159.5
 20
12.0
 30
0.0
 11
168.5
 21
12.0
 31
0.0
  0
LINE
  5
128
100
AcDbEntity
  8
layer 1
 62
2
420
16776960
370
-1
 48
1.0
  6
BYLAYER
100
AcDbLine
 10
168.5
 20
12.0
 30
0.0
 11
168.5
 21
72.0
 31
0.0
  0
LINE
  5
129
100
AcDbEntity
  8
layer 1
 62
2
420
16776960
370
-1
 48
1.0
  6
BYLAYER
100
AcDbLine
 10
168.5
 20
72.0
 30
0.0
 11
159.5
 21
72.0
 31
0.0
  0
LINE
  5
12A
100
AcDbEntity
  8
layer 1
 62
2
420
16776960
370
-1
 48
1.0
  6
BYLAYER
100
AcDbLine
 10
159.5
 20
72.0
 30
0.0
 11
159.5
 21
12.0
 31
0.0
  0
LINE
  5
12B
100
AcDbEntity
  8
layer 1
 62
2
420
16776960
370
-1
 48
1.0
  6
BYLAYER
100
AcDbLine
 10
125.5
 20
12.0
 30
0.0
 11
134.5
 21
12.0
 31
0.0
  0
LINE
  5
12C
100
AcDbEntity
  8
layer 1
 62
2
420
16776960
370
-1
 48
1.0
  6
BYLAYER
100
AcDbLine
 10
134.5
 20
12.0
 30
0.0
 11
134.5
 21
72.0
 31
0.0
  0
LINE
  5
12D
100
AcDbEntity
  8
layer 1
 62
2
420
16776960
370
-1
 48
1.0
  6
BYLAYER
100
AcDbLine
 10
134.5
 20
72.0
 30
0.0
 11
125.5
 21
72.0
 31
0.0
  0
LINE
  5
12E
100
AcDbEntity
  8
layer 1
 62
2
420
16776960
370
-1
 48
1.0
  6
BYLAYER
100
AcDbLine
 10
125.5
 20
72.0
 30
0.0
 11
125.5
 21
12.0
 31
0.0
  0
INSERT
  5
12F
100
AcDbEntity
  8
layer 1
 62
2
420
16776960
370
-1
 48
1.0
  6
BYLAYER
100
AcDbBlockReference
  2
leds
 10
176.2689140328037638
 20
141.0396853782747826
 30
0.0
  0
INSERT
  5
130
100
AcDbEntity
  8
layer 1
 62
2
420
16776960
370
-1
 48
1.0
  6
BYLAYER
100
AcDbBlockReference
  2
leds
 10
142.0
 20
141.0
 30
0.0
  0
INSERT
  5
131
100
AcDbEntity
  8
layer 1
 62
2
420
16776960
370
-1
 48
1.0
  6
BYLAYER
100
AcDbBlockReference
  2
leds
 10
224.0
 20
191.5
 30
0.0
  0
INSERT
  5
132
100
AcDbEntity
  8
layer 1
 62
2
420
16776960
370
-1
 48
1.0
  6
BYLAYER
100
AcDbBlockReference
  2
leds
 10
236.0
 20
191.5
 30
0.0
  0
CIRCLE
  5
133
100
AcDbEntity
  8
layer 1
 62
2
420
16776960
370
-1
 48
1.0
  6
BYLAYER
100
AcDbCircle
 10
230.0
 20
175.0
 30
0.0
 40
7.0
  0
CIRCLE
  5
134
100
AcDbEntity
  8
layer 1
 62
2
420
16776960
370
-1
 48
1.0
  6
BYLAYER
100
AcDbCircle
 10
230.0
 20
60.0
 30
0.0
 40
7.0
  0
CIRCLE
  5
135
100
AcDbEntity
  8
layer 1
 62
2
420
16776960
370
-1
 48
1.0
  6
BYLAYER
100
AcDbCircle
 10
230.0
 20
27.0
 30
0.0
 40
7.0
  0
INSERT
  5
136
100
AcDbEntity
  8
layer 1
 62
256
370
-1
 48
1.0
  6
BYLAYER
100
AcDbBlockReference
  2
block deck
 10
355.0
 20
120.0
 30
0.0
  0
LINE
  5
137
100
AcDbEntity
  8
layer 1
 62
30
420
16744192
370
-1
 48
1.0
  6
BYLAYER
100
AcDbLine
 10
221.0
 20
96.0
 30
0.0
 11
239.0
 21
96.0
 31
0.0
  0
LINE
  5
138
100
AcDbEntity
  8
layer 1
 62
30
420
16744192
370
-1
 48
1.0
  6
BYLAYER
100
AcDbLine
 10
239.0
 20
96.0
 30
0.0
 11
239.0
 21
120.0
 31
0.0
  0
LINE
  5
139
100
AcDbEntity
  8
layer 1
 62
30
420
16744192
370
-1
 48
1.0
  6
BYLAYER
100
AcDbLine
 10
239.0
 20
120.0
 30
0.0
 11
221.0
 21
120.0
 31
0.0
  0
LINE
  5
13A
100
AcDbEntity
  8
layer 1
 62
30
420
16744192
370
-1
 48
1.0
  6
BYLAYER
100
AcDbLine
 10
221.0
 20
120.0
 30
0.0
 11
221.0
 21
96.0
 31
0.0
  0
MTEXT
  5
13B
100
AcDbEntity
  8
layer 1
 62
30
420
16744192
370
-1
 48
1.0
  6
BYLAYER
100
AcDbMText
 10
230.0
 20
108.0
 30
0.0
 40
3.0
 41
0.0
 71
5
 72
1
  1
DECK\PSWITCH
  7
textstyle4
 50
0.0
 73
2
 44
1.0
  0
LWPOLYLINE
  5
13C
100
AcDbEntity
  8
layer 3
 62
7
420
0
370
-1
 48
1.0
  6
BYLAYER
100
AcDbPolyline
 90
5
 70
128
 10
-2.822222222222222
 20
-0.0
 10
-3.951111111111111
 20
-1.1288888888888888
 10
0.0
 20
-0.0
 10
-3.951111111111111
 20
1.1288888888888888
 10
-2.822222222222222
 20
-0.0
  0
INSERT
  5
13D
100
AcDbEntity
  8
layer 1
 62
256
370
-1
 48
1.0
  6
BYLAYER
100
AcDbBlockReference
  2
block deck
 10
105.0
 20
120.0
 30
0.0
  0
ENDSEC
  0
SECTION
  2
OBJECTS
  0
DICTIONARY
  5
C
100
AcDbDictionary
280
0
281
1
  3
ACAD_GROUP
350
D
  3
ACAD_LAYOUT
350
1A
  3
ACAD_MLINESTYLE
350
17
  3
ACAD_PLOTSETTINGS
350
19
  3
ACAD_PLOTSTYLENAME
350
E
  3
AcDbVariableDictionary
350
13E
  3
QCAD_OBJECTS
350
13F
  0
DICTIONARY
  5
D
100
AcDbDictionary
280
0
281
1
  0
ACDBDICTIONARYWDFLT
  5
E
100
AcDbDictionary
281
1
  3
Normal
350
F
100
AcDbDictionaryWithDefault
340
F
  0
ACDBPLACEHOLDER
  5
F
  0
DICTIONARY
  5
17
100
AcDbDictionary
280
0
281
1
  3
Standard
350
18
  0
MLINESTYLE
  5
18
100
AcDbMlineStyle
  2
STANDARD
 70
0
  3

 62
256
 51
90.0
 52
90.0
 71
2
 49
0.5
 62
256
  6
BYLAYER
 49
-0.5
 62
256
  6
BYLAYER
  0
DICTIONARY
  5
19
100
AcDbDictionary
280
0
281
1
  0
DICTIONARY
  5
1A
100
AcDbDictionary
281
1
  3
Layout1
350
1E
  3
Layout2
350
26
  3
Model
350
22
  0
LAYOUT
  5
1E
100
AcDbPlotSettings
  1

  2
none_device
  4

  6

 40
0.0
 41
0.0
 42
0.0
 43
0.0
 44
0.0
 45
0.0
 46
0.0
 47
0.0
 48
0.0
 49
0.0
140
0.0
141
0.0
142
1.0
143
1.0
 70
688
 72
0
 73
0
 74
5
  7

 75
16
147
1.0
148
0.0
149
0.0
100
AcDbLayout
  1
Layout1
 70
1
 71
1
 10
0.0
 20
0.0
 11
420.0
 21
297.0
 12
0.0
 22
0.0
 32
0.0
 14
100000000000000000000.0
 24
100000000000000000000.0
 34
100000000000000000000.0
 15
-100000000000000000000.0
 25
-100000000000000000000.0
 35
-100000000000000000000.0
146
0.0
 13
0.0
 23
0.0
 33
0.0
 16
1.0
 26
0.0
 36
0.0
 17
0.0
 27
1.0
 37
0.0
 76
0
330
1B
  0
LAYOUT
  5
22
100
AcDbPlotSettings
  1

  2
none_device
  4

  6

 40
0.0
 41
0.0
 42
0.0
 43
0.0
 44
0.0
 45
0.0
 46
0.0
 47
0.0
 48
0.0
 49
0.0
140
0.0
141
0.0
142
1.0
143
1.0
 70
1712
 72
0
 73
0
 74
0
  7

 75
0
147
1.0
148
0.0
149
0.0
100
AcDbLayout
  1
Model
 70
1
 71
0
 10
0.0
 20
0.0
 11
12.0
 21
9.0
 12
0.0
 22
0.0
 32
0.0
 14
0.0
 24
0.0
 34
0.0
 15
0.0
 25
0.0
 35
0.0
146
0.0
 13
0.0
 23
0.0
 33
0.0
 16
1.0
 26
0.0
 36
0.0
 17
0.0
 27
1.0
 37
0.0
 76
0
330
1F
  0
LAYOUT
  5
26
100
AcDbPlotSettings
  1

  2
none_device
  4

  6

 40
0.0
 41
0.0
 42
0.0
 43
0.0
 44
0.0
 45
0.0
 46
0.0
 47
0.0
 48
0.0
 49
0.0
140
0.0
141
0.0
142
1.0
143
1.0
 70
688
 72
0
 73
0
 74
5
  7

 75
16
147
1.0
148
0.0
149
0.0
100
AcDbLayout
  1
Layout2
 70
1
 71
2
 10
0.0
 20
0.0
 11
12.0
 21
9.0
 12
0.0
 22
0.0
 32
0.0
 14
0.0
 24
0.0
 34
0.0
 15
0.0
 25
0.0
 35
0.0
146
0.0
 13
0.0
 23
0.0
 33
0.0
 16
1.0
 26
0.0
 36
0.0
 17
0.0
 27
1.0
 37
0.0
 76
0
330
23
  0
DICTIONARY
  5
13E
100
AcDbDictionary
281
1
  3
DIMASSOC
350
141
  3
HIDETEXT
350
140
  0
DICTIONARYVAR
  5
140
100
DictionaryVariables
280
0
  1
2
  0
DICTIONARYVAR
  5
141
100
DictionaryVariables
280
0
  1
1
  0
DICTIONARY
  5
13F
100
AcDbDictionary
281
1
  3
ColorSettings/BackgroundColor
350
142
  3
ColorSettings/ColorMode
350
143
  3
DimensionSettings/AngularFormat
350
144
  3
DimensionSettings/AngularPrecision
350
145
  3
DimensionSettings/DecimalPoint
350
146
  3
DimensionSettings/DimensionFont
350
147
  3
DimensionSettings/DimensionTextColor
350
148
  3
DimensionSettings/KeepProportions
350
149
  3
DimensionSettings/LinearFormat
350
14A
  3
DimensionSettings/LinearPrecision
350
14B
  3
Grid/DisplayGrid00
350
14C
  3
Grid/DisplayGrid01
350
14D
  3
Grid/DisplayGrid02
350
14E
  3
Grid/DisplayGrid03
350
14F
  3
Grid/GridSpacingX00
350
150
  3
Grid/GridSpacingX01
350
151
  3
Grid/GridSpacingX02
350
152
  3
Grid/GridSpacingX03
350
153
  3
Grid/GridSpacingY00
350
154
  3
Grid/GridSpacingY01
350
155
  3
Grid/GridSpacingY02
350
156
  3
Grid/GridSpacingY03
350
157
  3
Grid/IsometricGrid00
350
158
  3
Grid/IsometricGrid01
350
159
  3
Grid/IsometricGrid02
350
15A
  3
Grid/IsometricGrid03
350
15B
  3
Grid/IsometricProjection00
350
15C
  3
Grid/IsometricProjection01
350
15D
  3
Grid/IsometricProjection02
350
15E
  3
Grid/IsometricProjection03
350
15F
  3
Grid/MetaGridSpacingX00
350
160
  3
Grid/MetaGridSpacingX01
350
161
  3
Grid/MetaGridSpacingX02
350
162
  3
Grid/MetaGridSpacingX03
350
163
  3
Grid/MetaGridSpacingY00
350
164
  3
Grid/MetaGridSpacingY01
350
165
  3
Grid/MetaGridSpacingY02
350
166
  3
Grid/MetaGridSpacingY03
350
167
  3
LinetypeSettings/PSLTSCALE
350
168
  3
MultiPageSettings/Columns
350
169
  3
MultiPageSettings/GlueMarginsBottom
350
16A
  3
MultiPageSettings/GlueMarginsLeft
350
16B
  3
MultiPageSettings/GlueMarginsRight
350
16C
  3
MultiPageSettings/GlueMarginsTop
350
16D
  3
MultiPageSettings/PrintCropMarks
350
16E
  3
MultiPageSettings/Rows
350
16F
  3
PageSettings/OffsetX
350
170
  3
PageSettings/OffsetY
350
171
  3
PageSettings/PageOrientation
350
172
  3
PageSettings/PaperHeight
350
173
  3
PageSettings/PaperSizeName
350
174
  3
PageSettings/PaperWidth
350
175
  3
PageSettings/PointSize
350
176
  3
PageSettings/Scale
350
177
  3
PageSettings/ShowPaperBorders
350
178
  3
PageTagSettings/EnablePageTags
350
179
  3
PageTagSettings/TagAlignment
350
17A
  3
PageTagSettings/TagFont
350
17B
  3
PageTagSettings/TagPosition
350
17C
  3
QCADVersion
350
17D
  3
UnitSettings/PaperUnit
350
17E
  3
ViewportCenter
350
17F
  3
ViewportHeight
350
180
  3
ViewportWidth
350
181
  0
XRECORD
  5
142
330
13F
100
AcDbXrecord
280
1
1000
White
  0
XRECORD
  5
143
330
13F
100
AcDbXrecord
280
1
1000
FullColor
  0
XRECORD
  5
144
330
13F
100
AcDbXrecord
280
1
 90
3
  0
XRECORD
  5
145
330
13F
100
AcDbXrecord
280
1
 90
0
  0
XRECORD
  5
146
330
13F
100
AcDbXrecord
280
1
 90
46
  0
XRECORD
  5
147
330
13F
100
AcDbXrecord
280
1
1000
MS Shell Dlg 2
  0
XRECORD
  5
148
330
13F
100
AcDbXrecord
280
1
1000
By Layer
  0
XRECORD
  5
149
330
13F
100
AcDbXrecord
280
1
290
1
  0
XRECORD
  5
14A
330
13F
100
AcDbXrecord
280
1
 90
2
  0
XRECORD
  5
14B
330
13F
100
AcDbXrecord
280
1
 90
7
  0
XRECORD
  5
14C
330
13F
100
AcDbXrecord
280
1
290
1
  0
XRECORD
  5
14D
330
13F
100
AcDbXrecord
280
1
290
1
  0
XRECORD
  5
14E
330
13F
100
AcDbXrecord
280
1
290
1
  0
XRECORD
  5
14F
330
13F
100
AcDbXrecord
280
1
290
1
  0
XRECORD
  5
150
330
13F
100
AcDbXrecord
280
1
1000
auto
  0
XRECORD
  5
151
330
13F
100
AcDbXrecord
280
1
1000
auto
  0
XRECORD
  5
152
330
13F
100
AcDbXrecord
280
1
1000
auto
  0
XRECORD
  5
153
330
13F
100
AcDbXrecord
280
1
1000
auto
  0
XRECORD
  5
154
330
13F
100
AcDbXrecord
280
1
1000
auto
  0
XRECORD
  5
155
330
13F
100
AcDbXrecord
280
1
1000
auto
  0
XRECORD
  5
156
330
13F
100
AcDbXrecord
280
1
1000
auto
  0
XRECORD
  5
157
330
13F
100
AcDbXrecord
280
1
1000
auto
  0
XRECORD
  5
158
330
13F
100
AcDbXrecord
280
1
290
0
  0
XRECORD
  5
159
330
13F
100
AcDbXrecord
280
1
290
0
  0
XRECORD
  5
15A
330
13F
100
AcDbXrecord
280
1
290
0
  0
XRECORD
  5
15B
330
13F
100
AcDbXrecord
280
1
290
0
  0
XRECORD
  5
15C
330
13F
100
AcDbXrecord
280
1
 90
65537
  0
XRECORD
  5
15D
330
13F
100
AcDbXrecord
280
1
 90
65537
  0
XRECORD
  5
15E
330
13F
100
AcDbXrecord
280
1
 90
65537
  0
XRECORD
  5
15F
330
13F
100
AcDbXrecord
280
1
 90
65537
  0
XRECORD
  5
160
330
13F
100
AcDbXrecord
280
1
1000
auto
  0
XRECORD
  5
161
330
13F
100
AcDbXrecord
280
1
1000
auto
  0
XRECORD
  5
162
330
13F
100
AcDbXrecord
280
1
1000
auto
  0
XRECORD
  5
163
330
13F
100
AcDbXrecord
280
1
1000
auto
  0
XRECORD
  5
164
330
13F
100
AcDbXrecord
280
1
1000
auto
  0
XRECORD
  5
165
330
13F
100
AcDbXrecord
280
1
1000
auto
  0
XRECORD
  5
166
330
13F
100
AcDbXrecord
280
1
1000
auto
  0
XRECORD
  5
167
330
13F
100
AcDbXrecord
280
1
1000
auto
  0
XRECORD
  5
168
330
13F
100
AcDbXrecord
280
1
290
0
  0
XRECORD
  5
169
330
13F
100
AcDbXrecord
280
1
 90
1
  0
XRECORD
  5
16A
330
13F
100
AcDbXrecord
280
1
 40
10.0
  0
XRECORD
  5
16B
330
13F
100
AcDbXrecord
280
1
 40
10.0
  0
XRECORD
  5
16C
330
13F
100
AcDbXrecord
280
1
 40
10.0
  0
XRECORD
  5
16D
330
13F
100
AcDbXrecord
280
1
 40
10.0
  0
XRECORD
  5
16E
330
13F
100
AcDbXrecord
280
1
290
0
  0
XRECORD
  5
16F
330
13F
100
AcDbXrecord
280
1
 90
1
  0
XRECORD
  5
170
330
13F
100
AcDbXrecord
280
1
1000
-30
  0
XRECORD
  5
171
330
13F
100
AcDbXrecord
280
1
1000
-15
  0
XRECORD
  5
172
330
13F
100
AcDbXrecord
280
1
1000
Landscape
  0
XRECORD
  5
173
330
13F
100
AcDbXrecord
280
1
1000
420
  0
XRECORD
  5
174
330
13F
100
AcDbXrecord
280
1
1000
ISO A3
  0
XRECORD
  5
175
330
13F
100
AcDbXrecord
280
1
1000
297
  0
XRECORD
  5
176
330
13F
100
AcDbXrecord
280
1
1000
0.5
  0
XRECORD
  5
177
330
13F
100
AcDbXrecord
280
1
1000
1:1
  0
XRECORD
  5
178
330
13F
100
AcDbXrecord
280
1
290
1
  0
XRECORD
  5
179
330
13F
100
AcDbXrecord
280
1
290
0
  0
XRECORD
  5
17A
330
13F
100
AcDbXrecord
280
1
1000
Inside
  0
XRECORD
  5
17B
330
13F
100
AcDbXrecord
280
1
1000
Arial,10,-1,5,50,0,0,0,0,0
  0
XRECORD
  5
17C
330
13F
100
AcDbXrecord
280
1
1000
TopLeft
  0
XRECORD
  5
17D
330
13F
100
AcDbXrecord
280
1
1000
3.26.1
  0
XRECORD
  5
17E
330
13F
100
AcDbXrecord
280
1
 90
4
  0
XRECORD
  5
180
330
13F
100
AcDbXrecord
280
1
 40
532.7357090057374762
  0
XRECORD
  5
181
330
13F
100
AcDbXrecord
280
1
 40
899.3301121520585184
  0
ENDSEC
  0
EOF
