999
dxflib 3.17.0.0
  0
SECTION
  2
HEADER
  9
$ACADVER
  1
AC1015
  9
$HANDSEED
  5
FFFF
  9
$ANGBASE
 50
0.0
  9
$ANGDIR
 70
0
  9
$ATTMODE
 70
1
  9
$AUNITS
 70
0
  9
$AUPREC
 70
0
  9
$CECOLOR
 62
256
  9
$CELTSCALE
 40
1.0
  9
$CHAMFERA
 40
0.0
  9
$CHAMFERB
 40
0.0
  9
$CHAMFERC
 40
0.0
  9
$CHAMFERD
 40
0.0
  9
$CMLJUST
 70
0
  9
$CMLSCALE
 40
1.0
  9
$DIMADEC
 70
0
  9
$DIMALT
 70
0
  9
$DIMALTD
 70
2
  9
$DIMALTF
 40
25.3999999999999986
  9
$DIMALTRND
 40
0.0
  9
$DIMALTTD
 70
2
  9
$DIMALTTZ
 70
0
  9
$DIMALTU
 70
2
  9
$DIMALTZ
 70
0
  9
$DIMAPOST
  1

  9
$DIMASZ
 40
0.18
  9
$DIMATFIT
 70
3
  9
$DIMAUNIT
 70
0
  9
$DIMAZIN
 70
0
  9
$DIMBLK
  1

  9
$DIMBLK1
  1

  9
$DIMBLK2
  1

  9
$DIMCEN
 40
0.09
  9
$DIMCLRD
 70
0
  9
$DIMCLRE
 70
0
  9
$DIMDEC
 70
0
  9
$DIMDLE
 40
0.0
  9
$DIMDLI
 40
0.38
  9
$DIMDSEP
 70
46
  9
$DIMEXE
 40
0.18
  9
$DIMEXO
 40
0.0625
  9
$DIMFRAC
 70
0
  9
$DIMGAP
 40
0.09
  9
$DIMJUST
 70
0
  9
$DIMLDRBLK
  1

  9
$DIMLFAC
 40
1.0
  9
$DIMLIM
 70
0
  9
$DIMLUNIT
 70
2
  9
$DIMLWD
 70
-2
  9
$DIMLWE
 70
-2
  9
$DIMPOST
  1

  9
$DIMRND
 40
0.0
  9
$DIMSAH
 70
0
  9
$DIMSCALE
 40
1.0
  9
$DIMSD1
 70
0
  9
$DIMSD2
 70
0
  9
$DIMSE1
 70
0
  9
$DIMSE2
 70
0
  9
$DIMSOXD
 70
0
  9
$DIMTAD
 70
0
  9
$DIMTDEC
 70
4
  9
$DIMTFAC
 40
1.0
  9
$DIMTIH
 70
1
  9
$DIMTIX
 70
0
  9
$DIMTM
 40
0.0
  9
$DIMTOFL
 70
0
  9
$DIMTOH
 70
1
  9
$DIMTOL
 70
0
  9
$DIMTOLJ
 70
1
  9
$DIMTP
 40
0.0
  9
$DIMTSZ
 40
0.0
  9
$DIMTVP
 40
0.0
  9
$DIMTXSTY
  7
Standard
  9
$DIMTXT
 40
0.18
  9
$DIMTZIN
 70
0
  9
$DIMUPT
 70
0
  9
$DIMZIN
 70
0
  9
$DISPSILH
 70
0
  9
$DWGCODEPAGE
  3
ANSI_1252
  9
$ELEVATION
 40
0.0
  9
$EXTMAX
 10
374.0
 20
280.0
 30
0.0
  9
$EXTMIN
 10
-30.0768392612313917
 20
0.0
 30
0.0
  9
$FILLETRAD
 40
0.5
  9
$FILLMODE
 70
1
  9
$INSBASE
 10
0.0
 20
0.0
 30
0.0
  9
$INSUNITS
 70
4
  9
$LIMCHECK
 70
0
  9
$LIMMAX
 10
12.0
 20
9.0
  9
$LIMMIN
 10
0.0
 20
0.0
  9
$LTSCALE
 40
1.0
  9
$LUNITS
 70
2
  9
$LUPREC
 70
4
  9
$MAXACTVP
 70
64
  9
$MEASUREMENT
 70
1
  9
$MIRRTEXT
 70
1
  9
$ORTHOMODE
 70
0
  9
$PDMODE
 70
0
  9
$PDSIZE
 40
0.0
  9
$PELEVATION
 40
0.0
  9
$PEXTMAX
 10
-100000000000000000000.0
 20
-100000000000000000000.0
 30
-100000000000000000000.0
  9
$PEXTMIN
 10
100000000000000000000.0
 20
100000000000000000000.0
 30
100000000000000000000.0
  9
$PINSBASE
 10
0.0
 20
0.0
 30
0.0
  9
$PLIMCHECK
 70
0
  9
$PLIMMAX
 10
277.0
 20
202.5
  9
$PLIMMIN
 10
-20.0
 20
-7.5
  9
$PLINEGEN
 70
0
  9
$PLINEWID
 40
0.0
  9
$PROXYGRAPHICS
 70
1
  9
$PSLTSCALE
 70
1
  9
$PUCSNAME
  2

  9
$PUCSORG
 10
0.0
 20
0.0
 30
0.0
  9
$PUCSXDIR
 10
1.0
 20
0.0
 30
0.0
  9
$PUCSYDIR
 10
0.0
 20
1.0
 30
0.0
  9
$QTEXTMODE
 70
0
  9
$REGENMODE
 70
1
  9
$SHADEDGE
 70
3
  9
$SHADEDIF
 70
70
  9
$SKETCHINC
 40
0.1
  9
$SKPOLY
 70
0
  9
$SPLFRAME
 70
0
  9
$SPLINESEGS
 70
8
  9
$SPLINETYPE
 70
6
  9
$SURFTAB1
 70
6
  9
$SURFTAB2
 70
6
  9
$SURFTYPE
 70
6
  9
$SURFU
 70
6
  9
$SURFV
 70
6
  9
$TEXTSIZE
 40
0.2
  9
$TEXTSTYLE
  7
Standard
  9
$THICKNESS
 40
0.0
  9
$TILEMODE
 70
1
  9
$TRACEWID
 40
0.05
  9
$TREEDEPTH
 70
3020
  9
$UCSNAME
  2

  9
$UCSORG
 10
0.0
 20
0.0
 30
0.0
  9
$UCSXDIR
 10
1.0
 20
0.0
 30
0.0
  9
$UCSYDIR
 10
0.0
 20
1.0
 30
0.0
  9
$UNITMODE
 70
0
  9
$USERI1
 70
0
  9
$USERI2
 70
0
  9
$USERI3
 70
0
  9
$USERI4
 70
0
  9
$USERI5
 70
0
  9
$USERR1
 40
0.0
  9
$USERR2
 40
0.0
  9
$USERR3
 40
0.0
  9
$USERR4
 40
0.0
  9
$USERR5
 40
0.0
  9
$USRTIMER
 70
1
  9
$VISRETAIN
 70
1
  0
ENDSEC
  0
SECTION
  2
TABLES
  0
TABLE
  2
VPORT
  5
8
100
AcDbSymbolTable
 70
1
  0
VPORT
  5
30
100
AcDbSymbolTableRecord
100
AcDbViewportTableRecord
  2
*Active
 70
0
 10
0.0
 20
0.0
 11
1.0
 21
1.0
 12
286.3055555555554861
 22
148.5
 13
0.0
 23
0.0
 14
10.0
 24
10.0
 15
10.0
 25
10.0
 16
0.0
 26
0.0
 36
1.0
 17
0.0
 27
0.0
 37
0.0
 40
297.0
 41
1.92798353909465
 42
50.0
 43
0.0
 44
0.0
 50
0.0
 51
0.0
 71
0
 72
100
 73
1
 74
3
 75
1
 76
1
 77
0
 78
0
281
0
 65
1
110
0.0
120
0.0
130
0.0
111
1.0
121
0.0
131
0.0
112
0.0
122
1.0
132
0.0
 79
0
146
0.0
  0
ENDTAB
  0
TABLE
  2
LTYPE
  5
5
100
AcDbSymbolTable
 70
50
  0
LTYPE
  5
16
100
AcDbSymbolTableRecord
100
AcDbLinetypeTableRecord
  2
Continuous
 70
0
  3
Solid line
 72
65
 73
0
 40
0.0
  0
LTYPE
  5
31
100
AcDbSymbolTableRecord
100
AcDbLinetypeTableRecord
  2
FENCELINE2
 70
0
  3
Fenceline square ----[]-----[]----[]-----[]----[]---
 72
65
 73
2
 40
8.8900000000000006
 49
6.3499999999999996
 74
0
 49
-2.54
 74
0
  0
LTYPE
  5
32
100
AcDbSymbolTableRecord
100
AcDbLinetypeTableRecord
  2
BORDER
 70
0
  3
Border __ __ . __ __ . __ __ . __ __ . __ __ .
 72
65
 73
6
 40
44.4499999999999957
 49
12.6999999999999993
 74
0
 49
-6.3499999999999996
 74
0
 49
12.6999999999999993
 74
0
 49
-6.2999999999999998
 74
0
 49
0.1
 74
0
 49
-6.2999999999999998
 74
0
  0
LTYPE
  5
33
100
AcDbSymbolTableRecord
100
AcDbLinetypeTableRecord
  2
HIDDENX2
 70
0
  3
Hidden (2x) ____ ____ ____ ____ ____ ____ ____ 
 72
65
 73
2
 40
19.0499999999999972
 49
12.6999999999999993
 74
0
 49
-6.3499999999999996
 74
0
  0
LTYPE
  5
34
100
AcDbSymbolTableRecord
100
AcDbLinetypeTableRecord
  2
CENTER
 70
0
  3
Center ____ _ ____ _ ____ _ ____ _ ____ _ ____
 72
65
 73
4
 40
50.8000000000000043
 49
31.75
 74
0
 49
-6.3499999999999996
 74
0
 49
6.3499999999999996
 74
0
 49
-6.3499999999999996
 74
0
  0
LTYPE
  5
35
100
AcDbSymbolTableRecord
100
AcDbLinetypeTableRecord
  2
ACAD_ISO05W100
 70
0
  3
ISO long-dash double-dot ____ .. ____ .. ____ . 
 72
65
 73
6
 40
33.0000000000000071
 49
24.0
 74
0
 49
-2.9500000000000002
 74
0
 49
0.1
 74
0
 49
-2.9000000000000004
 74
0
 49
0.1
 74
0
 49
-2.9500000000000002
 74
0
  0
LTYPE
  5
36
100
AcDbSymbolTableRecord
100
AcDbLinetypeTableRecord
  2
ACAD_ISO13W100
 70
0
  3
ISO double-dash double-dot __ __ . . __ __ . . _
 72
65
 73
8
 40
36.0000000000000071
 49
12.0
 74
0
 49
-3.0
 74
0
 49
12.0
 74
0
 49
-2.9500000000000002
 74
0
 49
0.1
 74
0
 49
-2.9000000000000004
 74
0
 49
0.1
 74
0
 49
-2.9500000000000002
 74
0
  0
LTYPE
  5
37
100
AcDbSymbolTableRecord
100
AcDbLinetypeTableRecord
  2
BORDER2
 70
0
  3
Border (.5x) __.__.__.__.__.__.__.__.__.__.__.
 72
65
 73
6
 40
22.2250000000000014
 49
6.3499999999999996
 74
0
 49
-3.1749999999999998
 74
0
 49
6.3499999999999996
 74
0
 49
-3.125
 74
0
 49
0.1
 74
0
 49
-3.125
 74
0
  0
LTYPE
  5
38
100
AcDbSymbolTableRecord
100
AcDbLinetypeTableRecord
  2
ACAD_ISO03W100
 70
0
  3
ISO dash space __    __    __    __    __    __
 72
65
 73
2
 40
30.0
 49
12.0
 74
0
 49
-18.0
 74
0
  0
LTYPE
  5
39
100
AcDbSymbolTableRecord
100
AcDbLinetypeTableRecord
  2
ACAD_ISO02W100
 70
0
  3
ISO dash __ __ __ __ __ __ __ __ __ __ __ __ __
 72
65
 73
2
 40
15.0
 49
12.0
 74
0
 49
-3.0
 74
0
  0
LTYPE
  5
3A
100
AcDbSymbolTableRecord
100
AcDbLinetypeTableRecord
  2
CENTER2
 70
0
  3
Center (.5x) ___ _ ___ _ ___ _ ___ _ ___ _ ___
 72
65
 73
4
 40
28.5750000000000028
 49
19.0500000000000007
 74
0
 49
-3.1749999999999998
 74
0
 49
3.1749999999999998
 74
0
 49
-3.1749999999999998
 74
0
  0
LTYPE
  5
3B
100
AcDbSymbolTableRecord
100
AcDbLinetypeTableRecord
  2
DOT
 70
0
  3
Dot . . . . . . . . . . . . . . . . . . . . . . . .
 72
65
 73
2
 40
6.3499999999999996
 49
0.1
 74
0
 49
-6.25
 74
0
  0
LTYPE
  5
14
100
AcDbSymbolTableRecord
100
AcDbLinetypeTableRecord
  2
ByBlock
 70
0
  3

 72
65
 73
0
 40
0.0
  0
LTYPE
  5
3C
100
AcDbSymbolTableRecord
100
AcDbLinetypeTableRecord
  2
DOT2
 70
0
  3
Dot (.5x) ........................................
 72
65
 73
2
 40
3.1749999999999998
 49
0.1
 74
0
 49
-3.0749999999999997
 74
0
  0
LTYPE
  5
3D
100
AcDbSymbolTableRecord
100
AcDbLinetypeTableRecord
  2
DASHDOTX2
 70
0
  3
Dash dot (2x) ____  .  ____  .  ____  .  ___
 72
65
 73
4
 40
50.7999999999999972
 49
25.3999999999999986
 74
0
 49
-12.6499999999999986
 74
0
 49
0.1
 74
0
 49
-12.6499999999999986
 74
0
  0
LTYPE
  5
3E
100
AcDbSymbolTableRecord
100
AcDbLinetypeTableRecord
  2
ACAD_ISO11W100
 70
0
  3
ISO double-dash dot __ __ . __ __ . __ __ . __ _
 72
65
 73
6
 40
33.0
 49
12.0
 74
0
 49
-3.0
 74
0
 49
12.0
 74
0
 49
-2.9500000000000002
 74
0
 49
0.1
 74
0
 49
-2.9500000000000002
 74
0
  0
LTYPE
  5
3F
100
AcDbSymbolTableRecord
100
AcDbLinetypeTableRecord
  2
DIVIDE2
 70
0
  3
Divide (.5x) __..__..__..__..__..__..__..__.._
 72
65
 73
6
 40
15.8749999999999982
 49
6.3499999999999996
 74
0
 49
-3.125
 74
0
 49
0.1
 74
0
 49
-3.0750000000000002
 74
0
 49
0.1
 74
0
 49
-3.125
 74
0
  0
LTYPE
  5
40
100
AcDbSymbolTableRecord
100
AcDbLinetypeTableRecord
  2
PHANTOMX2
 70
0
  3
Phantom (2x) ____________    ____    ____   _
 72
65
 73
6
 40
127.0000000000000142
 49
63.5
 74
0
 49
-12.6999999999999993
 74
0
 49
12.6999999999999993
 74
0
 49
-12.6999999999999993
 74
0
 49
12.6999999999999993
 74
0
 49
-12.6999999999999993
 74
0
  0
LTYPE
  5
41
100
AcDbSymbolTableRecord
100
AcDbLinetypeTableRecord
  2
HIDDEN
 70
0
  3
Hidden __ __ __ __ __ __ __ __ __ __ __ __ __ __
 72
65
 73
2
 40
9.5249999999999986
 49
6.3499999999999996
 74
0
 49
-3.1749999999999998
 74
0
  0
LTYPE
  5
42
100
AcDbSymbolTableRecord
100
AcDbLinetypeTableRecord
  2
DASHED
 70
0
  3
Dashed __ __ __ __ __ __ __ __ __ __ __ __ __ _
 72
65
 73
2
 40
19.0499999999999972
 49
12.6999999999999993
 74
0
 49
-6.3499999999999996
 74
0
  0
LTYPE
  5
43
100
AcDbSymbolTableRecord
100
AcDbLinetypeTableRecord
  2
ACAD_ISO09W100
 70
0
  3
ISO long-dash double-short-dash ____ __ __ ____
 72
65
 73
6
 40
45.0
 49
24.0
 74
0
 49
-3.0
 74
0
 49
6.0
 74
0
 49
-3.0
 74
0
 49
6.0
 74
0
 49
-3.0
 74
0
  0
LTYPE
  5
44
100
AcDbSymbolTableRecord
100
AcDbLinetypeTableRecord
  2
HIDDEN2
 70
0
  3
Hidden (.5x) _ _ _ _ _ _ _ _ _ _ _ _ _ _ _ _ _ 
 72
65
 73
2
 40
4.7624999999999993
 49
3.1749999999999998
 74
0
 49
-1.5874999999999999
 74
0
  0
LTYPE
  5
45
100
AcDbSymbolTableRecord
100
AcDbLinetypeTableRecord
  2
DASHED2
 70
0
  3
Dashed (.5x) _ _ _ _ _ _ _ _ _ _ _ _ _ _ _ _ _ 
 72
65
 73
2
 40
9.5249999999999986
 49
6.3499999999999996
 74
0
 49
-3.1749999999999998
 74
0
  0
LTYPE
  5
46
100
AcDbSymbolTableRecord
100
AcDbLinetypeTableRecord
  2
ACAD_ISO06W100
 70
0
  3
ISO long-dash triple-dot ____ ... ____ ... ____
 72
65
 73
8
 40
36.0000000000000071
 49
24.0
 74
0
 49
-2.9500000000000002
 74
0
 49
0.1
 74
0
 49
-2.9000000000000004
 74
0
 49
0.1
 74
0
 49
-2.9000000000000004
 74
0
 49
0.1
 74
0
 49
-2.9500000000000002
 74
0
  0
LTYPE
  5
47
100
AcDbSymbolTableRecord
100
AcDbLinetypeTableRecord
  2
DRAINAGE
 70
0
  3
Drainage ---->---->---->----
 72
65
 73
1
 40
5.0800000000000001
 49
5.0800000000000001
 74
0
  0
LTYPE
  5
48
100
AcDbSymbolTableRecord
100
AcDbLinetypeTableRecord
  2
ACAD_ISO12W100
 70
0
  3
ISO dash double-dot __ . . __ . . __ . . __ . . 
 72
65
 73
6
 40
21.0
 49
12.0
 74
0
 49
-2.9500000000000002
 74
0
 49
0.1
 74
0
 49
-2.9000000000000004
 74
0
 49
0.1
 74
0
 49
-2.9500000000000002
 74
0
  0
LTYPE
  5
49
100
AcDbSymbolTableRecord
100
AcDbLinetypeTableRecord
  2
ACAD_ISO08W100
 70
0
  3
ISO long-dash short-dash ____ __ ____ __ ____ _
 72
65
 73
4
 40
36.0
 49
24.0
 74
0
 49
-3.0
 74
0
 49
6.0
 74
0
 49
-3.0
 74
0
  0
LTYPE
  5
4A
100
AcDbSymbolTableRecord
100
AcDbLinetypeTableRecord
  2
ACAD_ISO07W100
 70
0
  3
ISO dot . . . . . . . . . . . . . . . . . . . . 
 72
65
 73
2
 40
3.0
 49
0.1
 74
0
 49
-2.8999999999999999
 74
0
  0
LTYPE
  5
4B
100
AcDbSymbolTableRecord
100
AcDbLinetypeTableRecord
  2
ZIGZAG
 70
0
  3
Zig zag /\/\/\/\/\/\/\/\/\/\/\/\/\/\/\/\/\/\/\/\/\/\/\/
 72
65
 73
2
 40
5.0825399999999998
 49
0.00254
 74
0
 49
-5.0800000000000001
 74
0
  0
LTYPE
  5
4C
100
AcDbSymbolTableRecord
100
AcDbLinetypeTableRecord
  2
CENTERX2
 70
0
  3
Center (2x) ________  __  ________  __  _____
 72
65
 73
4
 40
101.6000000000000085
 49
63.5
 74
0
 49
-12.6999999999999993
 74
0
 49
12.6999999999999993
 74
0
 49
-12.6999999999999993
 74
0
  0
LTYPE
  5
4D
100
AcDbSymbolTableRecord
100
AcDbLinetypeTableRecord
  2
GAS_LINE
 70
0
  3
Gas line ----GAS----GAS----GAS----GAS----GAS----GAS--
 72
65
 73
2
 40
17.7800000000000011
 49
12.6999999999999993
 74
0
 49
-5.0800000000000001
 74
0
  0
LTYPE
  5
4E
100
AcDbSymbolTableRecord
100
AcDbLinetypeTableRecord
  2
DRAINAGE2
 70
0
  3
Drainage reversed----<----<----<----
 72
65
 73
1
 40
5.0800000000000001
 49
5.0800000000000001
 74
0
  0
LTYPE
  5
4F
100
AcDbSymbolTableRecord
100
AcDbLinetypeTableRecord
  2
TRACKS
 70
0
  3
Tracks -|-|-|-|-|-|-|-|-|-|-|-|-|-|-|-|-|-|-|-|-|-|-|-|-
 72
65
 73
1
 40
3.8100000000000001
 49
3.8100000000000001
 74
0
  0
LTYPE
  5
50
100
AcDbSymbolTableRecord
100
AcDbLinetypeTableRecord
  2
DIVIDEX2
 70
0
  3
Divide (2x) ________  .  .  ________  .  .  _
 72
65
 73
6
 40
63.5
 49
25.3999999999999986
 74
0
 49
-12.6499999999999986
 74
0
 49
0.1
 74
0
 49
-12.5999999999999979
 74
0
 49
0.1
 74
0
 49
-12.6499999999999986
 74
0
  0
LTYPE
  5
51
100
AcDbSymbolTableRecord
100
AcDbLinetypeTableRecord
  2
DIVIDE
 70
0
  3
Divide ____ . . ____ . . ____ . . ____ . . ____
 72
65
 73
6
 40
31.7500000000000036
 49
12.6999999999999993
 74
0
 49
-6.2999999999999998
 74
0
 49
0.1
 74
0
 49
-6.25
 74
0
 49
0.1
 74
0
 49
-6.2999999999999998
 74
0
  0
LTYPE
  5
52
100
AcDbSymbolTableRecord
100
AcDbLinetypeTableRecord
  2
DOTX2
 70
0
  3
Dot (2x) .  .  .  .  .  .  .  .  .  .  .  .  .  .
 72
65
 73
2
 40
12.6999999999999993
 49
0.1
 74
0
 49
-12.5999999999999996
 74
0
  0
LTYPE
  5
53
100
AcDbSymbolTableRecord
100
AcDbLinetypeTableRecord
  2
BATTING
 70
0
  3
Batting SSSSSSSSSSSSSSSSSSSSSSSSSSSSSSSSSSSSSSSSSSSSSSS
 72
65
 73
2
 40
2.5425400000000002
 49
0.00254
 74
0
 49
-2.54
 74
0
  0
LTYPE
  5
54
100
AcDbSymbolTableRecord
100
AcDbLinetypeTableRecord
  2
FENCELINE1
 70
0
  3
Fenceline circle ----0-----0----0-----0----0-----0--
 72
65
 73
2
 40
8.8900000000000006
 49
6.3499999999999996
 74
0
 49
-2.54
 74
0
  0
LTYPE
  5
55
100
AcDbSymbolTableRecord
100
AcDbLinetypeTableRecord
  2
ACAD_ISO14W100
 70
0
  3
ISO dash triple-dot __ . . . __ . . . __ . . . _
 72
65
 73
8
 40
24.0000000000000036
 49
12.0
 74
0
 49
-2.9500000000000002
 74
0
 49
0.1
 74
0
 49
-2.9000000000000004
 74
0
 49
0.1
 74
0
 49
-2.9000000000000004
 74
0
 49
0.1
 74
0
 49
-2.9500000000000002
 74
0
  0
LTYPE
  5
56
100
AcDbSymbolTableRecord
100
AcDbLinetypeTableRecord
  2
DASHEDX2
 70
0
  3
Dashed (2x) ____  ____  ____  ____  ____  ___
 72
65
 73
2
 40
38.0999999999999943
 49
25.3999999999999986
 74
0
 49
-12.6999999999999993
 74
0
  0
LTYPE
  5
57
100
AcDbSymbolTableRecord
100
AcDbLinetypeTableRecord
  2
ACAD_ISO10W100
 70
0
  3
ISO dash dot __ . __ . __ . __ . __ . __ . __ . 
 72
65
 73
4
 40
18.0
 49
12.0
 74
0
 49
-2.9500000000000002
 74
0
 49
0.1
 74
0
 49
-2.9500000000000002
 74
0
  0
LTYPE
  5
58
100
AcDbSymbolTableRecord
100
AcDbLinetypeTableRecord
  2
ACAD_ISO15W100
 70
0
  3
ISO double-dash triple-dot __ __ . . . __ __ . .
 72
65
 73
10
 40
39.0000000000000071
 49
12.0
 74
0
 49
-3.0
 74
0
 49
12.0
 74
0
 49
-2.9500000000000002
 74
0
 49
0.1
 74
0
 49
-2.9000000000000004
 74
0
 49
0.1
 74
0
 49
-2.9000000000000004
 74
0
 49
0.1
 74
0
 49
-2.9500000000000002
 74
0
  0
LTYPE
  5
59
100
AcDbSymbolTableRecord
100
AcDbLinetypeTableRecord
  2
PHANTOM
 70
0
  3
Phantom ______  __  __  ______  __  __  ______ 
 72
65
 73
6
 40
63.5000000000000071
 49
31.75
 74
0
 49
-6.3499999999999996
 74
0
 49
6.3499999999999996
 74
0
 49
-6.3499999999999996
 74
0
 49
6.3499999999999996
 74
0
 49
-6.3499999999999996
 74
0
  0
LTYPE
  5
5A
100
AcDbSymbolTableRecord
100
AcDbLinetypeTableRecord
  2
ACAD_ISO04W100
 70
0
  3
ISO long-dash dot ____ . ____ . ____ . ____ . _
 72
65
 73
4
 40
30.0
 49
24.0
 74
0
 49
-2.9500000000000002
 74
0
 49
0.1
 74
0
 49
-2.9500000000000002
 74
0
  0
LTYPE
  5
5B
100
AcDbSymbolTableRecord
100
AcDbLinetypeTableRecord
  2
DASHDOT
 70
0
  3
Dash dot __ . __ . __ . __ . __ . __ . __ . __
 72
65
 73
4
 40
25.4000000000000021
 49
12.6999999999999993
 74
0
 49
-6.2999999999999998
 74
0
 49
0.1
 74
0
 49
-6.2999999999999998
 74
0
  0
LTYPE
  5
5C
100
AcDbSymbolTableRecord
100
AcDbLinetypeTableRecord
  2
BORDERX2
 70
0
  3
Border (2x) ____  ____  .  ____  ____  .  ___
 72
65
 73
6
 40
88.8999999999999773
 49
25.3999999999999986
 74
0
 49
-12.6999999999999993
 74
0
 49
25.3999999999999986
 74
0
 49
-12.6499999999999986
 74
0
 49
0.1
 74
0
 49
-12.6499999999999986
 74
0
  0
LTYPE
  5
5D
100
AcDbSymbolTableRecord
100
AcDbLinetypeTableRecord
  2
PHANTOM2
 70
0
  3
Phantom (.5x) ___ _ _ ___ _ _ ___ _ _ ___ _ _
 72
65
 73
6
 40
31.7500000000000036
 49
15.875
 74
0
 49
-3.1749999999999998
 74
0
 49
3.1749999999999998
 74
0
 49
-3.1749999999999998
 74
0
 49
3.1749999999999998
 74
0
 49
-3.1749999999999998
 74
0
  0
LTYPE
  5
5E
100
AcDbSymbolTableRecord
100
AcDbLinetypeTableRecord
  2
HOT_WATER_SUPPLY
 70
0
  3
Hot water supply ---- HW ---- HW ---- HW ----
 72
65
 73
2
 40
17.7800000000000011
 49
12.6999999999999993
 74
0
 49
-5.0800000000000001
 74
0
  0
LTYPE
  5
5F
100
AcDbSymbolTableRecord
100
AcDbLinetypeTableRecord
  2
DASHDOT2
 70
0
  3
Dash dot (.5x) _._._._._._._._._._._._._._._.
 72
65
 73
4
 40
12.6999999999999993
 49
6.3499999999999996
 74
0
 49
-3.125
 74
0
 49
0.1
 74
0
 49
-3.125
 74
0
  0
LTYPE
  5
15
100
AcDbSymbolTableRecord
100
AcDbLinetypeTableRecord
  2
ByLayer
 70
0
  3

 72
65
 73
0
 40
0.0
  0
ENDTAB
  0
TABLE
  2
LAYER
  5
2
100
AcDbSymbolTable
 70
5
  0
LAYER
  5
60
100
AcDbSymbolTableRecord
100
AcDbLayerTableRecord
  2
pcb
 70
4
 62
3
420
65280
  6
Continuous
370
25
390
F
  0
LAYER
  5
61
100
AcDbSymbolTableRecord
100
AcDbLayerTableRecord
  2
layer 1
 70
0
 62
30
420
16744192
  6
Continuous
370
25
390
F
  0
LAYER
  5
62
100
AcDbSymbolTableRecord
100
AcDbLayerTableRecord
  2
Incisione
 70
0
 62
5
420
1511679
  6
Continuous
370
-3
390
F
  0
LAYER
  5
63
100
AcDbSymbolTableRecord
100
AcDbLayerTableRecord
  2
user drw
 70
4
 62
6
420
16711935
  6
Continuous
370
25
390
F
  0
LAYER
  5
10
100
AcDbSymbolTableRecord
100
AcDbLayerTableRecord
  2
0
 70
4
 62
7
420
16777215
  6
Continuous
370
-3
390
F
  0
ENDTAB
  0
TABLE
  2
STYLE
  5
3
100
AcDbSymbolTable
 70
1
  0
STYLE
  5
64
100
AcDbSymbolTableRecord
100
AcDbTextStyleTableRecord
  2
Standard
 70
0
 40
0.0
 41
1.0
 50
0.0
 71
0
 42
2.5
  3

  4

1001
ACAD
1000
txt
1071
0
  0
ENDTAB
  0
TABLE
  2
VIEW
  5
6
100
AcDbSymbolTable
 70
0
  0
ENDTAB
  0
TABLE
  2
UCS
  5
7
100
AcDbSymbolTable
 70
0
  0
ENDTAB
  0
TABLE
  2
APPID
  5
9
100
AcDbSymbolTable
 70
1
  0
APPID
  5
12
100
AcDbSymbolTableRecord
100
AcDbRegAppTableRecord
  2
ACAD
 70
0
  0
APPID
  5
65
100
AcDbSymbolTableRecord
100
AcDbRegAppTableRecord
  2
QCAD
 70
0
  0
ENDTAB
  0
TABLE
  2
DIMSTYLE
  5
A
100
AcDbSymbolTable
 70
1
100
AcDbDimStyleTable
 71
0
  0
DIMSTYLE
105
27
100
AcDbSymbolTableRecord
100
AcDbDimStyleTableRecord
  2
Standard
 41
0.18
 42
0.0625
 43
3.75
 44
0.18
 70
0
 73
0
 74
0
 77
1
 78
8
140
0.18
141
2.5
143
0.03937007874016
147
0.09
171
3
172
1
271
2
272
2
274
3
278
44
283
0
284
8
340
64
  0
ENDTAB
  0
TABLE
  2
BLOCK_RECORD
  5
1
100
AcDbSymbolTable
 70
1
  0
BLOCK_RECORD
  5
1F
100
AcDbSymbolTableRecord
100
AcDbBlockTableRecord
  2
*Model_Space
340
22
  0
BLOCK_RECORD
  5
1B
100
AcDbSymbolTableRecord
100
AcDbBlockTableRecord
  2
*Paper_Space
340
1E
  0
BLOCK_RECORD
  5
23
100
AcDbSymbolTableRecord
100
AcDbBlockTableRecord
  2
*Paper_Space0
340
26
  0
BLOCK_RECORD
  5
66
100
AcDbSymbolTableRecord
100
AcDbBlockTableRecord
  2
mega
340
0
  0
ENDTAB
  0
ENDSEC
  0
SECTION
  2
BLOCKS
  0
BLOCK
  5
20
100
AcDbEntity
  8
0
100
AcDbBlockBegin
  2
*Model_Space
 70
0
 10
0.0
 20
0.0
 30
0.0
  3
*Model_Space
  1

  0
ENDBLK
  5
21
100
AcDbEntity
  8
0
100
AcDbBlockEnd
  0
BLOCK
  5
1C
100
AcDbEntity
 67
1
  8
0
100
AcDbBlockBegin
  2
*Paper_Space
 70
0
 10
0.0
 20
0.0
 30
0.0
  3
*Paper_Space
  1

  0
ENDBLK
  5
1D
100
AcDbEntity
 67
1
  8
0
100
AcDbBlockEnd
  0
BLOCK
  5
24
100
AcDbEntity
  8
0
100
AcDbBlockBegin
  2
*Paper_Space0
 70
0
 10
0.0
 20
0.0
 30
0.0
  3
*Paper_Space0
  1

  0
ENDBLK
  5
25
100
AcDbEntity
  8
0
100
AcDbBlockEnd
  0
BLOCK
  5
67
100
AcDbEntity
  8
0
100
AcDbBlockBegin
  2
mega
 70
0
 10
0.0
 20
0.0
 30
0.0
  3
mega
  1

  0
LWPOLYLINE
  5
68
100
AcDbEntity
  8
Incisione
 62
256
370
158
 48
1.0
  6
ByLayer
100
AcDbPolyline
 90
2
 70
0
 10
-19.5692006450050258
 20
8.073921027787776
 10
-22.1083034635836384
 20
5.5348182092087086
  0
LWPOLYLINE
  5
69
100
AcDbEntity
  8
Incisione
 62
256
370
158
 48
1.0
  6
ByLayer
100
AcDbPolyline
 90
2
 70
0
 10
-22.1083034635836384
 20
5.5348182092087086
 10
-32.2647147378989985
 20
5.5348182092087086
  0
LWPOLYLINE
  5
6A
100
AcDbEntity
  8
Incisione
 62
256
370
158
 48
1.0
  6
ByLayer
100
AcDbPolyline
 90
2
 70
0
 10
-32.2647147378989985
 20
5.5348182092087086
 10
-34.8038175564780659
 20
2.9957153906310054
  0
LWPOLYLINE
  5
6B
100
AcDbEntity
  8
Incisione
 62
256
370
158
 48
1.0
  6
ByLayer
100
AcDbPolyline
 90
2
 70
0
 10
-34.8038175564780659
 20
2.9957153906310054
 10
-69.060546417136834
 20
2.9957153906310054
  0
LWPOLYLINE
  5
6C
100
AcDbEntity
  8
Incisione
 62
256
370
158
 48
1.0
  6
ByLayer
100
AcDbPolyline
 90
2
 70
0
 10
-69.060546417136834
 20
2.9957153906310054
 10
-71.5996492357149918
 20
5.5348182092087086
  0
LWPOLYLINE
  5
6D
100
AcDbEntity
  8
Incisione
 62
256
370
158
 48
1.0
  6
ByLayer
100
AcDbPolyline
 90
2
 70
0
 10
-71.5996492357149918
 20
5.5348182092087086
 10
-71.8747187077281069
 20
5.5348182092087086
  0
LWPOLYLINE
  5
6E
100
AcDbEntity
  8
Incisione
 62
256
370
158
 48
1.0
  6
ByLayer
100
AcDbPolyline
 90
2
 70
0
 10
-71.8747187077281069
 20
5.5348182092087086
 10
-72.1286289895858772
 20
5.5559773993639396
  0
LWPOLYLINE
  5
6F
100
AcDbEntity
  8
Incisione
 62
256
370
158
 48
1.0
  6
ByLayer
100
AcDbPolyline
 90
2
 70
0
 10
-72.1286289895858772
 20
5.5559773993639396
 10
-72.3613800812888712
 20
5.6617733501378211
  0
LWPOLYLINE
  5
70
100
AcDbEntity
  8
Incisione
 62
256
370
158
 48
1.0
  6
ByLayer
100
AcDbPolyline
 90
2
 70
0
 10
-72.3613800812888712
 20
5.6617733501378211
 10
-72.5729719828369753
 20
5.80988768122171
  0
LWPOLYLINE
  5
71
100
AcDbEntity
  8
Incisione
 62
256
370
158
 48
1.0
  6
ByLayer
100
AcDbPolyline
 90
2
 70
0
 10
-72.5729719828369753
 20
5.80988768122171
 10
-72.7422455040756404
 20
6.0214795827699561
  0
LWPOLYLINE
  5
72
100
AcDbEntity
  8
Incisione
 62
256
370
158
 48
1.0
  6
ByLayer
100
AcDbPolyline
 90
2
 70
0
 10
-72.7422455040756404
 20
6.0214795827699561
 10
-72.8268822646947456
 20
6.275389864627698
  0
LWPOLYLINE
  5
73
100
AcDbEntity
  8
Incisione
 62
256
370
158
 48
1.0
  6
ByLayer
100
AcDbPolyline
 90
2
 70
0
 10
-72.8268822646947456
 20
6.275389864627698
 10
-72.8692006450047529
 20
6.5293001464859231
  0
LWPOLYLINE
  5
74
100
AcDbEntity
  8
Incisione
 62
256
370
158
 48
1.0
  6
ByLayer
100
AcDbPolyline
 90
2
 70
0
 10
-72.8692006450047529
 20
6.5293001464859231
 10
-72.8692006450047529
 20
103.5230278161947695
  0
LWPOLYLINE
  5
75
100
AcDbEntity
  8
Incisione
 62
256
370
158
 48
1.0
  6
ByLayer
100
AcDbPolyline
 90
2
 70
0
 10
-72.8692006450047529
 20
103.5230278161947695
 10
-72.8268822646947456
 20
103.7769380980539609
  0
LWPOLYLINE
  5
76
100
AcDbEntity
  8
Incisione
 62
256
370
158
 48
1.0
  6
ByLayer
100
AcDbPolyline
 90
2
 70
0
 10
-72.8268822646947456
 20
103.7769380980539609
 10
-72.7422455040755267
 20
104.0096891897569549
  0
LWPOLYLINE
  5
77
100
AcDbEntity
  8
Incisione
 62
256
370
158
 48
1.0
  6
ByLayer
100
AcDbPolyline
 90
2
 70
0
 10
-72.7422455040755267
 20
104.0096891897569549
 10
-72.5729719828369753
 20
104.2212810913037515
  0
LWPOLYLINE
  5
78
100
AcDbEntity
  8
Incisione
 62
256
370
158
 48
1.0
  6
ByLayer
100
AcDbPolyline
 90
2
 70
0
 10
-72.5729719828369753
 20
104.2212810913037515
 10
-72.3613800812887575
 20
104.390554612543724
  0
LWPOLYLINE
  5
79
100
AcDbEntity
  8
Incisione
 62
256
370
158
 48
1.0
  6
ByLayer
100
AcDbPolyline
 90
2
 70
0
 10
-72.3613800812887575
 20
104.390554612543724
 10
-72.1286289895857635
 20
104.4751913731628292
  0
LWPOLYLINE
  5
7A
100
AcDbEntity
  8
Incisione
 62
256
370
158
 48
1.0
  6
ByLayer
100
AcDbPolyline
 90
2
 70
0
 10
-72.1286289895857635
 20
104.4751913731628292
 10
-71.8747187077279932
 20
104.5175097534717565
  0
LWPOLYLINE
  5
7B
100
AcDbEntity
  8
Incisione
 62
256
370
158
 48
1.0
  6
ByLayer
100
AcDbPolyline
 90
2
 70
0
 10
-71.8747187077279932
 20
104.5175097534717565
 10
-20.5848417724369028
 20
104.5175097534717565
  0
LWPOLYLINE
  5
7C
100
AcDbEntity
  8
Incisione
 62
256
370
158
 48
1.0
  6
ByLayer
100
AcDbPolyline
 90
2
 70
0
 10
-20.5848417724369028
 20
104.5175097534717565
 10
-20.3097723004239015
 20
104.4751913731628292
  0
LWPOLYLINE
  5
7D
100
AcDbEntity
  8
Incisione
 62
256
370
158
 48
1.0
  6
ByLayer
100
AcDbPolyline
 90
2
 70
0
 10
-20.3097723004239015
 20
104.4751913731628292
 10
-20.0770212087210211
 20
104.390554612543724
  0
LWPOLYLINE
  5
7E
100
AcDbEntity
  8
Incisione
 62
256
370
158
 48
1.0
  6
ByLayer
100
AcDbPolyline
 90
2
 70
0
 10
-20.0770212087210211
 20
104.390554612543724
 10
-19.8654293071728034
 20
104.2212810913037515
  0
LWPOLYLINE
  5
7F
100
AcDbEntity
  8
Incisione
 62
256
370
158
 48
1.0
  6
ByLayer
100
AcDbPolyline
 90
2
 70
0
 10
-19.8654293071728034
 20
104.2212810913037515
 10
-19.7173149760889146
 20
104.0096891897569549
  0
LWPOLYLINE
  5
80
100
AcDbEntity
  8
Incisione
 62
256
370
158
 48
1.0
  6
ByLayer
100
AcDbPolyline
 90
2
 70
0
 10
-19.7173149760889146
 20
104.0096891897569549
 10
-19.6115190253149194
 20
103.7769380980539609
  0
LWPOLYLINE
  5
81
100
AcDbEntity
  8
Incisione
 62
256
370
158
 48
1.0
  6
ByLayer
100
AcDbPolyline
 90
2
 70
0
 10
-19.6115190253149194
 20
103.7769380980539609
 10
-19.5692006450050258
 20
103.5230278161947695
  0
LWPOLYLINE
  5
82
100
AcDbEntity
  8
Incisione
 62
256
370
158
 48
1.0
  6
ByLayer
100
AcDbPolyline
 90
2
 70
0
 10
-19.5692006450050258
 20
103.5230278161947695
 10
-19.5692006450050258
 20
8.073921027787776
  0
ENDBLK
  5
83
100
AcDbEntity
  8
0
100
AcDbBlockEnd
  0
ENDSEC
  0
SECTION
  2
ENTITIES
  0
LWPOLYLINE
  5
84
100
AcDbEntity
  8
0
 62
256
370
-1
 48
1.0
  6
ByLayer
100
AcDbPolyline
 90
4
 70
1
 10
130.0
 20
71.0
 10
130.0
 20
11.0
 10
122.0
 20
11.0
 10
122.0
 20
71.0
  0
LWPOLYLINE
  5
85
100
AcDbEntity
  8
0
 62
256
370
-1
 48
1.0
  6
ByLayer
100
AcDbPolyline
 90
4
 70
1
 10
96.0
 20
71.0
 10
96.0
 20
10.9999999999999929
 10
88.0
 20
10.9999999999999929
 10
88.0
 20
71.0
  0
LWPOLYLINE
  5
86
100
AcDbEntity
  8
0
 62
256
370
-1
 48
1.0
  6
ByLayer
100
AcDbPolyline
 90
4
 70
1
 10
164.0
 20
71.0
 10
164.0
 20
11.0
 10
156.0
 20
11.0
 10
156.0
 20
71.0
  0
LINE
  5
87
100
AcDbEntity
  8
0
 62
256
370
-1
 48
1.0
  6
ByLayer
100
AcDbLine
 10
126.0166520000009029
 20
41.7524407004773792
 30
0.0
 11
116.0166520000009029
 21
41.7524407004773792
 31
0.0
  0
LINE
  5
88
100
AcDbEntity
  8
0
 62
256
370
-1
 48
1.0
  6
ByLayer
100
AcDbLine
 10
160.0166520000008745
 20
41.7524407004773792
 30
0.0
 11
150.0166520000008745
 21
41.7524407004773792
 31
0.0
  0
LINE
  5
89
100
AcDbEntity
  8
0
 62
256
370
-1
 48
1.0
  6
ByLayer
100
AcDbLine
 10
116.0166520000009029
 20
41.7524407004773792
 30
0.0
 11
116.0166520000009029
 21
36.7524407004773792
 31
0.0
  0
LINE
  5
8A
100
AcDbEntity
  8
0
 62
256
370
-1
 48
1.0
  6
ByLayer
100
AcDbLine
 10
150.0166520000008745
 20
41.7524407004773792
 30
0.0
 11
150.0166520000008745
 21
36.7524407004773792
 31
0.0
  0
LINE
  5
8B
100
AcDbEntity
  8
0
 62
256
370
-1
 48
1.0
  6
ByLayer
100
AcDbLine
 10
116.0166520000009029
 20
36.7524407004773792
 30
0.0
 11
126.0166520000009029
 21
36.7524407004773792
 31
0.0
  0
LINE
  5
8C
100
AcDbEntity
  8
0
 62
256
370
-1
 48
1.0
  6
ByLayer
100
AcDbLine
 10
150.0166520000008745
 20
36.7524407004773792
 30
0.0
 11
160.0166520000008745
 21
36.7524407004773792
 31
0.0
  0
LINE
  5
8D
100
AcDbEntity
  8
0
 62
256
370
-1
 48
1.0
  6
ByLayer
100
AcDbLine
 10
126.0166520000009029
 20
36.7524407004773792
 30
0.0
 11
126.0166520000009029
 21
41.7524407004773792
 31
0.0
  0
LINE
  5
8E
100
AcDbEntity
  8
0
 62
256
370
-1
 48
1.0
  6
ByLayer
100
AcDbLine
 10
160.0166520000008745
 20
36.7524407004773792
 30
0.0
 11
160.0166520000008745
 21
41.7524407004773792
 31
0.0
  0
LINE
  5
8F
100
AcDbEntity
  8
0
 62
256
370
-1
 48
1.0
  6
ByLayer
100
AcDbLine
 10
126.0166520000009029
 20
41.7524407004773792
 30
0.0
 11
136.0166520000009029
 21
41.7524407004773792
 31
0.0
  0
LINE
  5
90
100
AcDbEntity
  8
0
 62
256
370
-1
 48
1.0
  6
ByLayer
100
AcDbLine
 10
160.0166520000008745
 20
41.7524407004773792
 30
0.0
 11
170.0166520000008745
 21
41.7524407004773792
 31
0.0
  0
LINE
  5
91
100
AcDbEntity
  8
0
 62
256
370
-1
 48
1.0
  6
ByLayer
100
AcDbLine
 10
136.0166520000009029
 20
41.7524407004773792
 30
0.0
 11
136.0166520000009882
 21
36.7343127428727598
 31
0.0
  0
LINE
  5
92
100
AcDbEntity
  8
0
 62
256
370
-1
 48
1.0
  6
ByLayer
100
AcDbLine
 10
170.0166520000008745
 20
41.7524407004773792
 30
0.0
 11
170.0166520000009882
 21
36.7343127428727598
 31
0.0
  0
LINE
  5
93
100
AcDbEntity
  8
0
 62
256
370
-1
 48
1.0
  6
ByLayer
100
AcDbLine
 10
136.0166520000009882
 20
36.7343127428727598
 30
0.0
 11
126.0166520000011019
 21
36.7343127428727598
 31
0.0
  0
LINE
  5
94
100
AcDbEntity
  8
0
 62
256
370
-1
 48
1.0
  6
ByLayer
100
AcDbLine
 10
170.0166520000009882
 20
36.7343127428727598
 30
0.0
 11
160.0166520000011019
 21
36.7343127428727598
 31
0.0
  0
LINE
  5
95
100
AcDbEntity
  8
0
 62
256
370
-1
 48
1.0
  6
ByLayer
100
AcDbLine
 10
126.0166520000011019
 20
36.7343127428727598
 30
0.0
 11
126.0166520000009029
 21
41.7524407004773792
 31
0.0
  0
LINE
  5
96
100
AcDbEntity
  8
0
 62
256
370
-1
 48
1.0
  6
ByLayer
100
AcDbLine
 10
160.0166520000011019
 20
36.7343127428727598
 30
0.0
 11
160.0166520000008745
 21
41.7524407004773792
 31
0.0
  0
CIRCLE
  5
97
100
AcDbEntity
  8
0
 62
256
370
-1
 48
1.0
  6
ByLayer
100
AcDbCircle
 10
127.0166520000008745
 20
224.9999999999999432
 30
0.0
 40
7.0999999999999996
  0
CIRCLE
  5
98
100
AcDbEntity
  8
0
 62
256
370
-1
 48
1.0
  6
ByLayer
100
AcDbCircle
 10
127.0166520000007608
 20
259.9999999999998863
 30
0.0
 40
7.0999999999999996
  0
CIRCLE
  5
99
100
AcDbEntity
  8
0
 62
256
370
-1
 48
1.0
  6
ByLayer
100
AcDbCircle
 10
127.0166520000008461
 20
118.9999999999999147
 30
0.0
 40
9.25
  0
CIRCLE
  5
9A
100
AcDbEntity
  8
0
 62
256
370
-1
 48
1.0
  6
ByLayer
100
AcDbCircle
 10
161.0000000000001137
 20
119.0999999999999943
 30
0.0
 40
9.25
  0
CIRCLE
  5
9B
100
AcDbEntity
  8
0
 62
256
370
-1
 48
1.0
  6
ByLayer
100
AcDbCircle
 10
127.0166520000007324
 20
153.9999999999999147
 30
0.0
 40
7.0999999999999996
  0
CIRCLE
  5
9C
100
AcDbEntity
  8
0
 62
256
370
-1
 48
1.0
  6
ByLayer
100
AcDbCircle
 10
161.0
 20
154.0999999999999943
 30
0.0
 40
7.0999999999999996
  0
CIRCLE
  5
9D
100
AcDbEntity
  8
0
 62
256
370
-1
 48
1.0
  6
ByLayer
100
AcDbCircle
 10
127.0166520000007324
 20
189.0000000000000284
 30
0.0
 40
7.0999999999999996
  0
CIRCLE
  5
9E
100
AcDbEntity
  8
0
 62
256
370
-1
 48
1.0
  6
ByLayer
100
AcDbCircle
 10
161.0
 20
189.100000000000108
 30
0.0
 40
7.0999999999999996
  0
LWPOLYLINE
  5
9F
100
AcDbEntity
  8
0
 62
256
370
-1
 48
1.0
  6
ByLayer
100
AcDbPolyline
 90
4
 70
1
 10
113.0166520000007324
 20
187.5000000000000284
 10
113.0166520000007324
 20
184.4999999552965448
 10
115.0166520298030264
 20
184.4999999552965448
 10
115.0166520298030264
 20
187.5000000000000284
  0
LWPOLYLINE
  5
A0
100
AcDbEntity
  8
0
 62
256
370
-1
 48
1.0
  6
ByLayer
100
AcDbPolyline
 90
4
 70
1
 10
113.0166520000007324
 20
178.5000000000000284
 10
113.0166520000007324
 20
175.4999999552965448
 10
115.0166520298030264
 20
175.4999999552965448
 10
115.0166520298030264
 20
178.5000000000000284
  0
LWPOLYLINE
  5
A1
100
AcDbEntity
  8
0
 62
256
370
-1
 48
1.0
  6
ByLayer
100
AcDbPolyline
 90
4
 70
1
 10
113.0166520000007324
 20
191.9999999552965448
 10
113.0166520000007324
 20
188.9999999105930328
 10
115.0166520298030264
 20
188.9999999105930328
 10
115.0166520298030264
 20
191.9999999552965448
  0
LWPOLYLINE
  5
A2
100
AcDbEntity
  8
0
 62
256
370
-1
 48
1.0
  6
ByLayer
100
AcDbPolyline
 90
4
 70
1
 10
113.0166520000007324
 20
166.4999999552965448
 10
115.0166520298030264
 20
166.4999999552965448
 10
115.0166520298030264
 20
169.4999999999999432
 10
113.0166520000007324
 20
169.4999999999999432
  0
LWPOLYLINE
  5
A3
100
AcDbEntity
  8
0
 62
256
370
-1
 48
1.0
  6
ByLayer
100
AcDbPolyline
 90
4
 70
1
 10
113.0166520000007324
 20
179.9999999105930328
 10
115.0166520298030264
 20
179.9999999105930328
 10
115.0166520298030264
 20
182.9999999552965448
 10
113.0166520000007324
 20
182.9999999552965448
  0
LWPOLYLINE
  5
A4
100
AcDbEntity
  8
0
 62
256
370
-1
 48
1.0
  6
ByLayer
100
AcDbPolyline
 90
4
 70
1
 10
115.0166520298030264
 20
196.5000000000000284
 10
113.0166520000007324
 20
196.5000000000000284
 10
113.0166520000007324
 20
193.4999999552965448
 10
115.0166520298030264
 20
193.4999999552965448
  0
LWPOLYLINE
  5
A5
100
AcDbEntity
  8
0
 62
256
370
-1
 48
1.0
  6
ByLayer
100
AcDbPolyline
 90
4
 70
1
 10
113.0166520000007324
 20
173.9999999552965448
 10
113.0166520000007324
 20
170.9999999105930328
 10
115.0166520298030264
 20
170.9999999105930328
 10
115.0166520298030264
 20
173.9999999552965448
  0
LWPOLYLINE
  5
A6
100
AcDbEntity
  8
0
 62
256
370
-1
 48
1.0
  6
ByLayer
100
AcDbPolyline
 90
4
 70
1
 10
115.0166520298030264
 20
164.9999999552965448
 10
113.0166520000007324
 20
164.9999999552965448
 10
113.0166520000007324
 20
161.9999999105930328
 10
115.0166520298030264
 20
161.9999999105930328
  0
LWPOLYLINE
  5
A7
100
AcDbEntity
  8
0
 62
256
370
-1
 48
1.0
  6
ByLayer
100
AcDbPolyline
 90
4
 70
1
 10
113.0166520000007324
 20
157.4999999552965448
 10
115.0166520298030264
 20
157.4999999552965448
 10
115.0166520298030264
 20
160.4999999999999432
 10
113.0166520000007324
 20
160.4999999999999432
  0
LWPOLYLINE
  5
A8
100
AcDbEntity
  8
0
 62
256
370
-1
 48
1.0
  6
ByLayer
100
AcDbPolyline
 90
4
 70
1
 10
113.0166520000007324
 20
157.4999999552965448
 10
115.0166520298030264
 20
157.4999999552965448
 10
115.0166520298030264
 20
160.4999999999999432
 10
113.0166520000007324
 20
160.4999999999999432
  0
LWPOLYLINE
  5
A9
100
AcDbEntity
  8
0
 62
256
370
-1
 48
1.0
  6
ByLayer
100
AcDbPolyline
 90
4
 70
1
 10
149.0166520149019789
 20
179.9999999105930328
 10
149.0166520149019789
 20
182.9999999552965448
 10
147.0166519850996849
 20
182.9999999552965448
 10
147.0166519850996849
 20
179.9999999105930328
  0
LWPOLYLINE
  5
AA
100
AcDbEntity
  8
0
 62
256
370
-1
 48
1.0
  6
ByLayer
100
AcDbPolyline
 90
4
 70
1
 10
149.0166520149019789
 20
191.9999999552965448
 10
147.0166519850996849
 20
191.9999999552965448
 10
147.0166519850996849
 20
188.9999999105930328
 10
149.0166520149019789
 20
188.9999999105930328
  0
LWPOLYLINE
  5
AB
100
AcDbEntity
  8
0
 62
256
370
-1
 48
1.0
  6
ByLayer
100
AcDbPolyline
 90
4
 70
1
 10
147.0166519850996849
 20
175.4999999552965448
 10
149.0166520149019789
 20
175.4999999552965448
 10
149.0166520149019789
 20
178.5000000000000284
 10
147.0166519850996849
 20
178.5000000000000284
  0
LWPOLYLINE
  5
AC
100
AcDbEntity
  8
0
 62
256
370
-1
 48
1.0
  6
ByLayer
100
AcDbPolyline
 90
4
 70
1
 10
149.0166520149019789
 20
173.9999999552965448
 10
147.0166519850996849
 20
173.9999999552965448
 10
147.0166519850996849
 20
170.9999999105930328
 10
149.0166520149019789
 20
170.9999999105930328
  0
LWPOLYLINE
  5
AD
100
AcDbEntity
  8
0
 62
256
370
-1
 48
1.0
  6
ByLayer
100
AcDbPolyline
 90
4
 70
1
 10
149.0166520149019789
 20
157.4999999552965448
 10
149.0166520149019789
 20
160.4999999999999432
 10
147.0166519850996849
 20
160.4999999999999432
 10
147.0166519850996849
 20
157.4999999552965448
  0
LWPOLYLINE
  5
AE
100
AcDbEntity
  8
0
 62
256
370
-1
 48
1.0
  6
ByLayer
100
AcDbPolyline
 90
4
 70
1
 10
147.0166519850996849
 20
166.4999999552965448
 10
149.0166520149019789
 20
166.4999999552965448
 10
149.0166520149019789
 20
169.4999999999999432
 10
147.0166519850996849
 20
169.4999999999999432
  0
LWPOLYLINE
  5
AF
100
AcDbEntity
  8
0
 62
256
370
-1
 48
1.0
  6
ByLayer
100
AcDbPolyline
 90
4
 70
1
 10
147.0166519850996849
 20
160.4999999999999432
 10
147.0166519850996849
 20
157.4999999552965448
 10
149.0166520149019789
 20
157.4999999552965448
 10
149.0166520149019789
 20
160.4999999999999432
  0
LWPOLYLINE
  5
B0
100
AcDbEntity
  8
0
 62
256
370
-1
 48
1.0
  6
ByLayer
100
AcDbPolyline
 90
4
 70
1
 10
147.0166519850996849
 20
164.9999999552965448
 10
147.0166519850996849
 20
161.9999999105930328
 10
149.0166520149019789
 20
161.9999999105930328
 10
149.0166520149019789
 20
164.9999999552965448
  0
LWPOLYLINE
  5
B1
100
AcDbEntity
  8
0
 62
256
370
-1
 48
1.0
  6
ByLayer
100
AcDbPolyline
 90
4
 70
1
 10
149.0166520149019789
 20
184.4999999552965448
 10
149.0166520149019789
 20
187.5000000000000284
 10
147.0166519850996849
 20
187.5000000000000284
 10
147.0166519850996849
 20
184.4999999552965448
  0
LWPOLYLINE
  5
B2
100
AcDbEntity
  8
0
 62
256
370
-1
 48
1.0
  6
ByLayer
100
AcDbPolyline
 90
4
 70
1
 10
149.0166520149019789
 20
196.5000000000000284
 10
147.0166519850996849
 20
196.5000000000000284
 10
147.0166519850996849
 20
193.4999999552965448
 10
149.0166520149019789
 20
193.4999999552965448
  0
CIRCLE
  5
B3
100
AcDbEntity
  8
0
 62
256
370
-1
 48
1.0
  6
ByLayer
100
AcDbCircle
 10
93.0000000000000284
 20
224.5
 30
0.0
 40
7.0999999999999996
  0
CIRCLE
  5
B4
100
AcDbEntity
  8
0
 62
256
370
-1
 48
1.0
  6
ByLayer
100
AcDbCircle
 10
160.5219026496546633
 20
224.5936774757721253
 30
0.0
 40
7.0999999999999996
  0
LWPOLYLINE
  5
B5
100
AcDbEntity
  8
0
 62
256
370
-1
 48
1.0
  6
ByLayer
100
AcDbPolyline
 90
8
 70
1
 10
102.0000000000000568
 20
41.2524407004773508
 10
92.0000000000000568
 20
41.2524407004773508
 10
92.0000000000000568
 20
36.2524407004773508
 10
82.0000000000000568
 20
36.2524407004773508
 10
82.0000000000000568
 20
41.2524407004773508
 10
92.0000000000000568
 20
41.2524407004773508
 10
92.00000000000027
 20
36.2343127428727314
 10
102.00000000000027
 20
36.2343127428727314
  0
LINE
  5
B6
100
AcDbEntity
  8
0
 62
256
370
-1
 48
1.0
  6
ByLayer
100
AcDbLine
 10
80.0
 20
85.0
 30
0.0
 11
104.0
 21
85.0
 31
0.0
  0
LINE
  5
B7
100
AcDbEntity
  8
0
 62
256
370
-1
 48
1.0
  6
ByLayer
100
AcDbLine
 10
113.5986953464370401
 20
84.9598452857926532
 30
0.0
 11
137.5986953464370401
 21
84.9598452857926532
 31
0.0
  0
LINE
  5
B8
100
AcDbEntity
  8
0
 62
256
370
-1
 48
1.0
  6
ByLayer
100
AcDbLine
 10
147.6274167229779835
 20
84.976964301171634
 30
0.0
 11
171.6274167229779835
 21
84.976964301171634
 31
0.0
  0
LINE
  5
B9
100
AcDbEntity
  8
0
 62
256
370
-1
 48
1.0
  6
ByLayer
100
AcDbLine
 10
81.0
 20
278.0
 30
0.0
 11
105.0
 21
278.0
 31
0.0
  0
LINE
  5
BA
100
AcDbEntity
  8
0
 62
256
370
-1
 48
1.0
  6
ByLayer
100
AcDbLine
 10
114.5986953464370401
 20
277.9598452857926532
 30
0.0
 11
138.5986953464370117
 21
277.9598452857926532
 31
0.0
  0
LINE
  5
BB
100
AcDbEntity
  8
0
 62
256
370
-1
 48
1.0
  6
ByLayer
100
AcDbLine
 10
148.627416722977955
 20
277.9769643011716198
 30
0.0
 11
172.627416722977955
 21
277.9769643011716198
 31
0.0
  0
LINE
  5
BC
100
AcDbEntity
  8
0
 62
256
370
-1
 48
1.0
  6
ByLayer
100
AcDbLine
 10
104.0
 20
85.0
 30
0.0
 11
104.0
 21
93.9999999999999716
 31
0.0
  0
LINE
  5
BD
100
AcDbEntity
  8
0
 62
256
370
-1
 48
1.0
  6
ByLayer
100
AcDbLine
 10
137.5986953464370401
 20
84.9598452857926532
 30
0.0
 11
137.5986953464370401
 21
93.9598452857926247
 31
0.0
  0
LINE
  5
BE
100
AcDbEntity
  8
0
 62
256
370
-1
 48
1.0
  6
ByLayer
100
AcDbLine
 10
171.6274167229779835
 20
84.976964301171634
 30
0.0
 11
171.6274167229779835
 21
93.9769643011716056
 31
0.0
  0
LINE
  5
BF
100
AcDbEntity
  8
0
 62
256
370
-1
 48
1.0
  6
ByLayer
100
AcDbLine
 10
105.0
 20
278.0
 30
0.0
 11
105.0
 21
287.0
 31
0.0
  0
LINE
  5
C0
100
AcDbEntity
  8
0
 62
256
370
-1
 48
1.0
  6
ByLayer
100
AcDbLine
 10
138.5986953464370117
 20
277.9598452857926532
 30
0.0
 11
138.5986953464370117
 21
286.9598452857926532
 31
0.0
  0
LINE
  5
C1
100
AcDbEntity
  8
0
 62
256
370
-1
 48
1.0
  6
ByLayer
100
AcDbLine
 10
172.627416722977955
 20
277.9769643011716198
 30
0.0
 11
172.627416722977955
 21
286.9769643011716198
 31
0.0
  0
LINE
  5
C2
100
AcDbEntity
  8
0
 62
256
370
-1
 48
1.0
  6
ByLayer
100
AcDbLine
 10
80.0
 20
94.0
 30
0.0
 11
80.0
 21
85.0
 31
0.0
  0
LINE
  5
C3
100
AcDbEntity
  8
0
 62
256
370
-1
 48
1.0
  6
ByLayer
100
AcDbLine
 10
113.5986953464370401
 20
93.9598452857926532
 30
0.0
 11
113.5986953464370401
 21
84.9598452857926532
 31
0.0
  0
LINE
  5
C4
100
AcDbEntity
  8
0
 62
256
370
-1
 48
1.0
  6
ByLayer
100
AcDbLine
 10
147.6274167229779835
 20
93.976964301171634
 30
0.0
 11
147.6274167229779835
 21
84.976964301171634
 31
0.0
  0
LINE
  5
C5
100
AcDbEntity
  8
0
 62
256
370
-1
 48
1.0
  6
ByLayer
100
AcDbLine
 10
81.0
 20
287.0
 30
0.0
 11
81.0
 21
278.0
 31
0.0
  0
LINE
  5
C6
100
AcDbEntity
  8
0
 62
256
370
-1
 48
1.0
  6
ByLayer
100
AcDbLine
 10
114.5986953464370401
 20
286.9598452857926532
 30
0.0
 11
114.5986953464370401
 21
277.9598452857926532
 31
0.0
  0
LINE
  5
C7
100
AcDbEntity
  8
0
 62
256
370
-1
 48
1.0
  6
ByLayer
100
AcDbLine
 10
148.627416722977955
 20
286.9769643011716198
 30
0.0
 11
148.627416722977955
 21
277.9769643011716198
 31
0.0
  0
CIRCLE
  5
C8
100
AcDbEntity
  8
0
 62
256
370
-1
 48
1.0
  6
ByLayer
100
AcDbCircle
 10
92.0
 20
118.25
 30
0.0
 40
9.25
  0
CIRCLE
  5
C9
100
AcDbEntity
  8
0
 62
256
370
-1
 48
1.0
  6
ByLayer
100
AcDbCircle
 10
92.9999999999999432
 20
259.5
 30
0.0
 40
7.0999999999999996
  0
CIRCLE
  5
CA
100
AcDbEntity
  8
0
 62
256
370
-1
 48
1.0
  6
ByLayer
100
AcDbCircle
 10
160.521902649654578
 20
259.5936774757721537
 30
0.0
 40
7.0999999999999996
  0
LWPOLYLINE
  5
CB
100
AcDbEntity
  8
0
 62
256
370
-1
 48
1.0
  6
ByLayer
100
AcDbPolyline
 90
4
 70
1
 10
81.0000000149011612
 20
179.4999999105930044
 10
81.0000000149011612
 20
182.4999999552965164
 10
78.9999999850988388
 20
182.4999999552965164
 10
78.9999999850988388
 20
179.4999999105930044
  0
LWPOLYLINE
  5
CC
100
AcDbEntity
  8
0
 62
256
370
-1
 48
1.0
  6
ByLayer
100
AcDbPolyline
 90
4
 70
1
 10
81.0000000149011612
 20
191.4999999552965164
 10
78.9999999850988388
 20
191.4999999552965164
 10
78.9999999850988388
 20
188.4999999105930044
 10
81.0000000149011612
 20
188.4999999105930044
  0
CIRCLE
  5
CD
100
AcDbEntity
  8
0
 62
256
370
-1
 48
1.0
  6
ByLayer
100
AcDbCircle
 10
93.0
 20
153.5
 30
0.0
 40
7.0999999999999996
  0
LWPOLYLINE
  5
CE
100
AcDbEntity
  8
0
 62
256
370
-1
 48
1.0
  6
ByLayer
100
AcDbPolyline
 90
4
 70
1
 10
78.9999999850988388
 20
174.9999999552965164
 10
81.0000000149011612
 20
174.9999999552965164
 10
81.0000000149011612
 20
178.0
 10
78.9999999850988388
 20
178.0
  0
LWPOLYLINE
  5
CF
100
AcDbEntity
  8
0
 62
256
370
-1
 48
1.0
  6
ByLayer
100
AcDbPolyline
 90
4
 70
1
 10
81.0000000149011612
 20
173.4999999552965164
 10
78.9999999850988388
 20
173.4999999552965164
 10
78.9999999850988388
 20
170.4999999105930044
 10
81.0000000149011612
 20
170.4999999105930044
  0
LWPOLYLINE
  5
D0
100
AcDbEntity
  8
0
 62
256
370
-1
 48
1.0
  6
ByLayer
100
AcDbPolyline
 90
4
 70
1
 10
81.0000000149011612
 20
156.9999999552965164
 10
81.0000000149011612
 20
159.9999999999999147
 10
78.9999999850988388
 20
159.9999999999999147
 10
78.9999999850988388
 20
156.9999999552965164
  0
LWPOLYLINE
  5
D1
100
AcDbEntity
  8
0
 62
256
370
-1
 48
1.0
  6
ByLayer
100
AcDbPolyline
 90
4
 70
1
 10
78.9999999850988388
 20
165.9999999552965164
 10
81.0000000149011612
 20
165.9999999552965164
 10
81.0000000149011612
 20
168.9999999999999147
 10
78.9999999850988388
 20
168.9999999999999147
  0
LWPOLYLINE
  5
D2
100
AcDbEntity
  8
0
 62
256
370
-1
 48
1.0
  6
ByLayer
100
AcDbPolyline
 90
4
 70
1
 10
78.9999999850988388
 20
159.9999999999999147
 10
78.9999999850988388
 20
156.9999999552965164
 10
81.0000000149011612
 20
156.9999999552965164
 10
81.0000000149011612
 20
159.9999999999999147
  0
LWPOLYLINE
  5
D3
100
AcDbEntity
  8
0
 62
256
370
-1
 48
1.0
  6
ByLayer
100
AcDbPolyline
 90
4
 70
1
 10
78.9999999850988388
 20
164.4999999552965164
 10
78.9999999850988388
 20
161.4999999105930044
 10
81.0000000149011612
 20
161.4999999105930044
 10
81.0000000149011612
 20
164.4999999552965164
  0
LWPOLYLINE
  5
D4
100
AcDbEntity
  8
0
 62
256
370
-1
 48
1.0
  6
ByLayer
100
AcDbPolyline
 90
4
 70
1
 10
81.0000000149011612
 20
183.9999999552965164
 10
81.0000000149011612
 20
187.0
 10
78.9999999850988388
 20
187.0
 10
78.9999999850988388
 20
183.9999999552965164
  0
LWPOLYLINE
  5
D5
100
AcDbEntity
  8
0
 62
256
370
-1
 48
1.0
  6
ByLayer
100
AcDbPolyline
 90
4
 70
1
 10
81.0000000149011612
 20
196.0
 10
78.9999999850988388
 20
196.0
 10
78.9999999850988388
 20
192.9999999552965164
 10
81.0000000149011612
 20
192.9999999552965164
  0
CIRCLE
  5
D6
100
AcDbEntity
  8
0
 62
256
370
-1
 48
1.0
  6
ByLayer
100
AcDbCircle
 10
93.0
 20
188.5
 30
0.0
 40
7.0999999999999996
  0
LWPOLYLINE
  5
D7
100
AcDbEntity
  8
0
 62
256
370
-1
 48
1.0
  6
ByLayer
100
AcDbPolyline
 90
4
 70
1
 10
188.9999999999998863
 20
119.8822764223145043
 10
188.9999999999998863
 20
116.882276377611106
 10
191.0000000298021803
 20
116.882276377611106
 10
191.0000000298021803
 20
119.8822764223145043
  0
LWPOLYLINE
  5
D8
100
AcDbEntity
  8
0
 62
256
370
-1
 48
1.0
  6
ByLayer
100
AcDbPolyline
 90
4
 70
1
 10
191.0000000298021803
 20
112.382276332907594
 10
191.0000000298021803
 20
115.382276377611106
 10
188.9999999999998863
 20
115.382276377611106
 10
188.9999999999998863
 20
112.382276332907594
  0
LWPOLYLINE
  5
D9
100
AcDbEntity
  8
0
 62
256
370
-1
 48
1.0
  6
ByLayer
100
AcDbPolyline
 90
4
 70
1
 10
191.0000000298021803
 20
121.382276332907594
 10
191.0000000298021803
 20
124.382276377611106
 10
188.9999999999998863
 20
124.382276377611106
 10
188.9999999999998863
 20
121.382276332907594
  0
LWPOLYLINE
  5
DA
100
AcDbEntity
  8
0
 62
256
370
-1
 48
1.0
  6
ByLayer
100
AcDbPolyline
 90
4
 70
1
 10
191.0000000298021803
 20
125.8822763776109923
 10
191.0000000298021803
 20
128.8822764223145043
 10
188.9999999999998863
 20
128.8822764223145043
 10
188.9999999999998863
 20
125.8822763776109923
  0
LWPOLYLINE
  5
DB
100
AcDbEntity
  8
0
 62
256
370
-1
 48
1.0
  6
ByLayer
100
AcDbPolyline
 90
4
 70
1
 10
191.0000000298021803
 20
112.382276332907594
 10
191.0000000298021803
 20
115.382276377611106
 10
188.9999999999998863
 20
115.382276377611106
 10
188.9999999999998863
 20
112.382276332907594
  0
LWPOLYLINE
  5
DC
100
AcDbEntity
  8
0
 62
256
370
-1
 48
1.0
  6
ByLayer
100
AcDbPolyline
 90
4
 70
1
 10
188.9999999999998863
 20
128.8822764223145043
 10
188.9999999999998863
 20
125.8822763776109923
 10
191.0000000298021803
 20
125.8822763776109923
 10
191.0000000298021803
 20
128.8822764223145043
  0
CIRCLE
  5
DD
100
AcDbEntity
  8
0
 62
256
370
-1
 48
1.0
  6
ByLayer
100
AcDbCircle
 10
194.9888185954872029
 20
21.9000000000000483
 30
0.0
 40
7.0999999999999996
  0
LWPOLYLINE
  5
DE
100
AcDbEntity
  8
0
 62
256
370
-1
 48
1.0
  6
ByLayer
100
AcDbPolyline
 90
4
 70
1
 10
191.0000000298021803
 20
124.382276377611106
 10
188.9999999999998863
 20
124.382276377611106
 10
188.9999999999998863
 20
121.382276332907594
 10
191.0000000298021803
 20
121.382276332907594
  0
LWPOLYLINE
  5
DF
100
AcDbEntity
  8
0
 62
256
370
-1
 48
1.0
  6
ByLayer
100
AcDbPolyline
 90
4
 70
1
 10
188.9999999999998863
 20
119.8822764223145043
 10
188.9999999999998863
 20
116.882276377611106
 10
191.0000000298021803
 20
116.882276377611106
 10
191.0000000298021803
 20
119.8822764223145043
  0
LWPOLYLINE
  5
E0
100
AcDbEntity
  8
0
 62
256
370
-1
 48
1.0
  6
ByLayer
100
AcDbPolyline
 90
4
 70
1
 10
191.0000000298021803
 20
157.382276332907594
 10
191.0000000298021803
 20
160.382276377611106
 10
188.9999999999998863
 20
160.382276377611106
 10
188.9999999999998863
 20
157.382276332907594
  0
LWPOLYLINE
  5
E1
100
AcDbEntity
  8
0
 62
256
370
-1
 48
1.0
  6
ByLayer
100
AcDbPolyline
 90
4
 70
1
 10
191.0000000298021803
 20
169.382276377611106
 10
188.9999999999998863
 20
169.382276377611106
 10
188.9999999999998863
 20
166.382276332907594
 10
191.0000000298021803
 20
166.382276332907594
  0
LWPOLYLINE
  5
E2
100
AcDbEntity
  8
0
 62
256
370
-1
 48
1.0
  6
ByLayer
100
AcDbPolyline
 90
4
 70
1
 10
188.9999999999998863
 20
152.882276377611106
 10
191.0000000298021803
 20
152.882276377611106
 10
191.0000000298021803
 20
155.8822764223145896
 10
188.9999999999998863
 20
155.8822764223145896
  0
LWPOLYLINE
  5
E3
100
AcDbEntity
  8
0
 62
256
370
-1
 48
1.0
  6
ByLayer
100
AcDbPolyline
 90
4
 70
1
 10
191.0000000298021803
 20
133.382276377611106
 10
188.9999999999998863
 20
133.382276377611106
 10
188.9999999999998863
 20
130.3822763329074803
 10
191.0000000298021803
 20
130.3822763329074803
  0
LWPOLYLINE
  5
E4
100
AcDbEntity
  8
0
 62
256
370
-1
 48
1.0
  6
ByLayer
100
AcDbPolyline
 90
4
 70
1
 10
191.0000000298021803
 20
151.382276377611106
 10
188.9999999999998863
 20
151.382276377611106
 10
188.9999999999998863
 20
148.382276332907594
 10
191.0000000298021803
 20
148.382276332907594
  0
LWPOLYLINE
  5
E5
100
AcDbEntity
  8
0
 62
256
370
-1
 48
1.0
  6
ByLayer
100
AcDbPolyline
 90
4
 70
1
 10
191.0000000298021803
 20
134.882276377611106
 10
191.0000000298021803
 20
137.8822764223145043
 10
188.9999999999998863
 20
137.8822764223145043
 10
188.9999999999998863
 20
134.882276377611106
  0
LWPOLYLINE
  5
E6
100
AcDbEntity
  8
0
 62
256
370
-1
 48
1.0
  6
ByLayer
100
AcDbPolyline
 90
4
 70
1
 10
188.9999999999998863
 20
143.882276377611106
 10
191.0000000298021803
 20
143.882276377611106
 10
191.0000000298021803
 20
146.8822764223145043
 10
188.9999999999998863
 20
146.8822764223145043
  0
LWPOLYLINE
  5
E7
100
AcDbEntity
  8
0
 62
256
370
-1
 48
1.0
  6
ByLayer
100
AcDbPolyline
 90
4
 70
1
 10
188.9999999999998863
 20
137.8822764223145043
 10
188.9999999999998863
 20
134.882276377611106
 10
191.0000000298021803
 20
134.882276377611106
 10
191.0000000298021803
 20
137.8822764223145043
  0
LWPOLYLINE
  5
E8
100
AcDbEntity
  8
0
 62
256
370
-1
 48
1.0
  6
ByLayer
100
AcDbPolyline
 90
4
 70
1
 10
188.9999999999998863
 20
142.382276377611106
 10
188.9999999999998863
 20
139.382276332907594
 10
191.0000000298021803
 20
139.382276332907594
 10
191.0000000298021803
 20
142.382276377611106
  0
LWPOLYLINE
  5
E9
100
AcDbEntity
  8
0
 62
256
370
-1
 48
1.0
  6
ByLayer
100
AcDbPolyline
 90
4
 70
1
 10
191.0000000298021803
 20
161.882276377611106
 10
191.0000000298021803
 20
164.8822764223145896
 10
188.9999999999998863
 20
164.8822764223145896
 10
188.9999999999998863
 20
161.882276377611106
  0
LWPOLYLINE
  5
EA
100
AcDbEntity
  8
0
 62
256
370
-1
 48
1.0
  6
ByLayer
100
AcDbPolyline
 90
4
 70
1
 10
191.0000000298021803
 20
133.382276377611106
 10
188.9999999999998863
 20
133.382276377611106
 10
188.9999999999998863
 20
130.3822763329074803
 10
191.0000000298021803
 20
130.3822763329074803
  0
LWPOLYLINE
  5
EB
100
AcDbEntity
  8
0
 62
256
370
-1
 48
1.0
  6
ByLayer
100
AcDbPolyline
 90
4
 70
1
 10
191.0000000298021803
 20
173.8822764223145896
 10
188.9999999999998863
 20
173.8822764223145896
 10
188.9999999999998863
 20
170.882276377611106
 10
191.0000000298021803
 20
170.882276377611106
  0
CIRCLE
  5
EC
100
AcDbEntity
  8
0
 62
256
370
-1
 48
1.0
  6
ByLayer
100
AcDbCircle
 10
195.0
 20
188.9000000000000057
 30
0.0
 40
7.0999999999999996
  0
LWPOLYLINE
  5
ED
100
AcDbEntity
  8
0
 62
256
370
-1
 48
1.0
  6
ByLayer
100
AcDbPolyline
 90
4
 70
1
 10
198.9999999999998863
 20
134.882276377611106
 10
201.0000000298021803
 20
134.882276377611106
 10
201.0000000298021803
 20
137.8822764223145043
 10
198.9999999999998863
 20
137.8822764223145043
  0
LWPOLYLINE
  5
EE
100
AcDbEntity
  8
0
 62
256
370
-1
 48
1.0
  6
ByLayer
100
AcDbPolyline
 90
4
 70
1
 10
201.0000000298021803
 20
143.882276377611106
 10
201.0000000298021803
 20
146.8822764223145043
 10
198.9999999999998863
 20
146.8822764223145043
 10
198.9999999999998863
 20
143.882276377611106
  0
LWPOLYLINE
  5
EF
100
AcDbEntity
  8
0
 62
256
370
-1
 48
1.0
  6
ByLayer
100
AcDbPolyline
 90
4
 70
1
 10
201.0000000298021803
 20
139.382276332907594
 10
201.0000000298021803
 20
142.382276377611106
 10
198.9999999999998863
 20
142.382276377611106
 10
198.9999999999998863
 20
139.382276332907594
  0
LWPOLYLINE
  5
F0
100
AcDbEntity
  8
0
 62
256
370
-1
 48
1.0
  6
ByLayer
100
AcDbPolyline
 90
4
 70
1
 10
198.9999999999998863
 20
130.3822763329074803
 10
201.0000000298021803
 20
130.3822763329074803
 10
201.0000000298021803
 20
133.382276377611106
 10
198.9999999999998863
 20
133.382276377611106
  0
LWPOLYLINE
  5
F1
100
AcDbEntity
  8
0
 62
256
370
-1
 48
1.0
  6
ByLayer
100
AcDbPolyline
 90
4
 70
1
 10
198.9999999999998863
 20
133.382276377611106
 10
198.9999999999998863
 20
130.3822763329074803
 10
201.0000000298021803
 20
130.3822763329074803
 10
201.0000000298021803
 20
133.382276377611106
  0
LWPOLYLINE
  5
F2
100
AcDbEntity
  8
0
 62
256
370
-1
 48
1.0
  6
ByLayer
100
AcDbPolyline
 90
4
 70
1
 10
201.0000000298021803
 20
128.8822764223145043
 10
198.9999999999998863
 20
128.8822764223145043
 10
198.9999999999998863
 20
125.8822763776109923
 10
201.0000000298021803
 20
125.8822763776109923
  0
LWPOLYLINE
  5
F3
100
AcDbEntity
  8
0
 62
256
370
-1
 48
1.0
  6
ByLayer
100
AcDbPolyline
 90
4
 70
1
 10
198.9999999999998863
 20
137.8822764223145043
 10
198.9999999999998863
 20
134.882276377611106
 10
201.0000000298021803
 20
134.882276377611106
 10
201.0000000298021803
 20
137.8822764223145043
  0
LWPOLYLINE
  5
F4
100
AcDbEntity
  8
0
 62
256
370
-1
 48
1.0
  6
ByLayer
100
AcDbPolyline
 90
4
 70
1
 10
201.0000000298021803
 20
128.8822764223145043
 10
198.9999999999998863
 20
128.8822764223145043
 10
198.9999999999998863
 20
125.8822763776109923
 10
201.0000000298021803
 20
125.8822763776109923
  0
LWPOLYLINE
  5
F5
100
AcDbEntity
  8
0
 62
256
370
-1
 48
1.0
  6
ByLayer
100
AcDbPolyline
 90
4
 70
1
 10
201.0000000298021803
 20
121.382276332907594
 10
201.0000000298021803
 20
124.382276377611106
 10
198.9999999999998863
 20
124.382276377611106
 10
198.9999999999998863
 20
121.382276332907594
  0
LWPOLYLINE
  5
F6
100
AcDbEntity
  8
0
 62
256
370
-1
 48
1.0
  6
ByLayer
100
AcDbPolyline
 90
4
 70
1
 10
198.9999999999998863
 20
161.882276377611106
 10
201.0000000298021803
 20
161.882276377611106
 10
201.0000000298021803
 20
164.8822764223145896
 10
198.9999999999998863
 20
164.8822764223145896
  0
LWPOLYLINE
  5
F7
100
AcDbEntity
  8
0
 62
256
370
-1
 48
1.0
  6
ByLayer
100
AcDbPolyline
 90
4
 70
1
 10
198.9999999999998863
 20
166.382276332907594
 10
201.0000000298021803
 20
166.382276332907594
 10
201.0000000298021803
 20
169.382276377611106
 10
198.9999999999998863
 20
169.382276377611106
  0
LWPOLYLINE
  5
F8
100
AcDbEntity
  8
0
 62
256
370
-1
 48
1.0
  6
ByLayer
100
AcDbPolyline
 90
4
 70
1
 10
198.9999999999998863
 20
170.882276377611106
 10
201.0000000298021803
 20
170.882276377611106
 10
201.0000000298021803
 20
173.8822764223145896
 10
198.9999999999998863
 20
173.8822764223145896
  0
LWPOLYLINE
  5
F9
100
AcDbEntity
  8
0
 62
256
370
-1
 48
1.0
  6
ByLayer
100
AcDbPolyline
 90
4
 70
1
 10
201.0000000298021803
 20
152.882276377611106
 10
201.0000000298021803
 20
155.8822764223145896
 10
198.9999999999998863
 20
155.8822764223145896
 10
198.9999999999998863
 20
152.882276377611106
  0
LWPOLYLINE
  5
FA
100
AcDbEntity
  8
0
 62
256
370
-1
 48
1.0
  6
ByLayer
100
AcDbPolyline
 90
4
 70
1
 10
201.0000000298021803
 20
115.382276377611106
 10
198.9999999999998863
 20
115.382276377611106
 10
198.9999999999998863
 20
112.382276332907594
 10
201.0000000298021803
 20
112.382276332907594
  0
LWPOLYLINE
  5
FB
100
AcDbEntity
  8
0
 62
256
370
-1
 48
1.0
  6
ByLayer
100
AcDbPolyline
 90
4
 70
1
 10
198.9999999999998863
 20
116.882276377611106
 10
201.0000000298021803
 20
116.882276377611106
 10
201.0000000298021803
 20
119.8822764223145043
 10
198.9999999999998863
 20
119.8822764223145043
  0
LWPOLYLINE
  5
FC
100
AcDbEntity
  8
0
 62
256
370
-1
 48
1.0
  6
ByLayer
100
AcDbPolyline
 90
4
 70
1
 10
198.9999999999998863
 20
160.382276377611106
 10
198.9999999999998863
 20
157.382276332907594
 10
201.0000000298021803
 20
157.382276332907594
 10
201.0000000298021803
 20
160.382276377611106
  0
LWPOLYLINE
  5
FD
100
AcDbEntity
  8
0
 62
256
370
-1
 48
1.0
  6
ByLayer
100
AcDbPolyline
 90
4
 70
1
 10
198.9999999999998863
 20
121.382276332907594
 10
201.0000000298021803
 20
121.382276332907594
 10
201.0000000298021803
 20
124.382276377611106
 10
198.9999999999998863
 20
124.382276377611106
  0
LWPOLYLINE
  5
FE
100
AcDbEntity
  8
0
 62
256
370
-1
 48
1.0
  6
ByLayer
100
AcDbPolyline
 90
4
 70
1
 10
201.0000000298021803
 20
115.382276377611106
 10
198.9999999999998863
 20
115.382276377611106
 10
198.9999999999998863
 20
112.382276332907594
 10
201.0000000298021803
 20
112.382276332907594
  0
LWPOLYLINE
  5
FF
100
AcDbEntity
  8
0
 62
256
370
-1
 48
1.0
  6
ByLayer
100
AcDbPolyline
 90
4
 70
1
 10
198.9999999999998863
 20
116.882276377611106
 10
201.0000000298021803
 20
116.882276377611106
 10
201.0000000298021803
 20
119.8822764223145043
 10
198.9999999999998863
 20
119.8822764223145043
  0
LWPOLYLINE
  5
100
100
AcDbEntity
  8
0
 62
256
370
-1
 48
1.0
  6
ByLayer
100
AcDbPolyline
 90
4
 70
1
 10
201.0000000298021803
 20
151.382276377611106
 10
198.9999999999998863
 20
151.382276377611106
 10
198.9999999999998863
 20
148.382276332907594
 10
201.0000000298021803
 20
148.382276332907594
  0
CIRCLE
  5
101
100
AcDbEntity
  8
0
 62
256
370
-1
 48
1.0
  6
ByLayer
100
AcDbCircle
 10
194.9888185954872029
 20
56.9000000000000483
 30
0.0
 40
7.0999999999999996
  0
LWPOLYLINE
  5
102
100
AcDbEntity
  8
0
 62
256
370
-1
 48
1.0
  6
ByLayer
100
AcDbPolyline
 90
4
 70
1
 10
-25.0
 20
140.0
 10
75.0
 20
140.0
 10
75.0
 20
190.0
 10
-25.0
 20
190.0
  0
LWPOLYLINE
  5
103
100
AcDbEntity
  8
0
 62
256
370
-1
 48
1.0
  6
ByLayer
100
AcDbPolyline
 90
4
 70
1
 10
214.9872647295669594
 20
143.003740689796814
 10
314.9872647295669594
 20
143.003740689796814
 10
314.9872647295669594
 20
193.003740689796814
 10
214.9872647295669594
 20
193.003740689796814
  0
LWPOLYLINE
  5
104
100
AcDbEntity
  8
0
 62
256
370
-1
 48
1.0
  6
ByLayer
100
AcDbPolyline
 90
4
 70
1
 10
-20.5
 20
169.4999999999998863
 10
-4.5
 20
169.4999999999998863
 10
-4.5
 20
185.5
 10
-20.4999999999999716
 20
185.5
  0
LWPOLYLINE
  5
105
100
AcDbEntity
  8
0
 62
256
370
-1
 48
1.0
  6
ByLayer
100
AcDbPolyline
 90
4
 70
1
 10
219.4872647295669594
 20
172.5037406897967003
 10
235.4872647295669594
 20
172.5037406897967003
 10
235.4872647295669594
 20
188.503740689796814
 10
219.4872647295670163
 20
188.503740689796814
  0
LWPOLYLINE
  5
106
100
AcDbEntity
  8
0
 62
256
370
-1
 48
1.0
  6
ByLayer
100
AcDbPolyline
 90
4
 70
1
 10
4.5000000000000568
 20
169.4999999999998863
 10
20.5000000000000284
 20
169.4999999999998863
 10
20.5000000000000284
 20
185.5
 10
4.5000000000000568
 20
185.5
  0
LWPOLYLINE
  5
107
100
AcDbEntity
  8
0
 62
256
370
-1
 48
1.0
  6
ByLayer
100
AcDbPolyline
 90
4
 70
1
 10
244.4872647295670163
 20
172.5037406897967003
 10
260.4872647295669594
 20
172.5037406897967003
 10
260.4872647295669594
 20
188.503740689796814
 10
244.4872647295670163
 20
188.503740689796814
  0
LWPOLYLINE
  5
108
100
AcDbEntity
  8
0
 62
256
370
-1
 48
1.0
  6
ByLayer
100
AcDbPolyline
 90
4
 70
1
 10
29.5
 20
169.4999999999998863
 10
45.5000000000000284
 20
169.4999999999998863
 10
45.5000000000000284
 20
185.5
 10
29.5
 20
185.5
  0
LWPOLYLINE
  5
109
100
AcDbEntity
  8
0
 62
256
370
-1
 48
1.0
  6
ByLayer
100
AcDbPolyline
 90
4
 70
1
 10
269.4872647295669594
 20
172.5037406897967003
 10
285.4872647295669594
 20
172.5037406897967003
 10
285.4872647295669594
 20
188.503740689796814
 10
269.4872647295669594
 20
188.503740689796814
  0
LWPOLYLINE
  5
10A
100
AcDbEntity
  8
0
 62
256
370
-1
 48
1.0
  6
ByLayer
100
AcDbPolyline
 90
4
 70
1
 10
54.5
 20
169.4999999999998863
 10
70.5000000000000284
 20
169.4999999999998863
 10
70.5000000000000284
 20
185.5
 10
54.5
 20
185.5
  0
LWPOLYLINE
  5
10B
100
AcDbEntity
  8
0
 62
256
370
-1
 48
1.0
  6
ByLayer
100
AcDbPolyline
 90
4
 70
1
 10
294.4872647295669594
 20
172.5037406897967003
 10
310.4872647295670163
 20
172.5037406897967003
 10
310.4872647295670163
 20
188.503740689796814
 10
294.4872647295669594
 20
188.503740689796814
  0
LWPOLYLINE
  5
10C
100
AcDbEntity
  8
0
 62
256
370
-1
 48
1.0
  6
ByLayer
100
AcDbPolyline
 90
4
 70
1
 10
-20.4999999999999716
 20
144.4999999999998863
 10
-4.5
 20
144.4999999999998863
 10
-4.5
 20
160.5
 10
-20.4999999999999716
 20
160.5
  0
LWPOLYLINE
  5
10D
100
AcDbEntity
  8
0
 62
256
370
-1
 48
1.0
  6
ByLayer
100
AcDbPolyline
 90
4
 70
1
 10
219.4872647295670163
 20
147.5037406897967003
 10
235.4872647295669594
 20
147.5037406897967003
 10
235.4872647295669594
 20
163.503740689796814
 10
219.4872647295670163
 20
163.503740689796814
  0
LWPOLYLINE
  5
10E
100
AcDbEntity
  8
0
 62
256
370
-1
 48
1.0
  6
ByLayer
100
AcDbPolyline
 90
4
 70
1
 10
4.5000000000000568
 20
144.4999999999998863
 10
20.5000000000000284
 20
144.4999999999998863
 10
20.5000000000000284
 20
160.5
 10
4.5000000000000568
 20
160.5
  0
LWPOLYLINE
  5
10F
100
AcDbEntity
  8
0
 62
256
370
-1
 48
1.0
  6
ByLayer
100
AcDbPolyline
 90
4
 70
1
 10
244.4872647295670163
 20
147.5037406897967003
 10
260.4872647295669594
 20
147.5037406897967003
 10
260.4872647295669594
 20
163.503740689796814
 10
244.4872647295670163
 20
163.503740689796814
  0
LWPOLYLINE
  5
110
100
AcDbEntity
  8
0
 62
256
370
-1
 48
1.0
  6
ByLayer
100
AcDbPolyline
 90
4
 70
1
 10
29.5
 20
144.4999999999998863
 10
45.5000000000000284
 20
144.4999999999998863
 10
45.5000000000000284
 20
160.5
 10
29.5
 20
160.5
  0
LWPOLYLINE
  5
111
100
AcDbEntity
  8
0
 62
256
370
-1
 48
1.0
  6
ByLayer
100
AcDbPolyline
 90
4
 70
1
 10
269.4872647295669594
 20
147.5037406897967003
 10
285.4872647295669594
 20
147.5037406897967003
 10
285.4872647295669594
 20
163.503740689796814
 10
269.4872647295669594
 20
163.503740689796814
  0
LWPOLYLINE
  5
112
100
AcDbEntity
  8
0
 62
256
370
-1
 48
1.0
  6
ByLayer
100
AcDbPolyline
 90
4
 70
1
 10
54.5
 20
144.4999999999998863
 10
70.5000000000000284
 20
144.4999999999998863
 10
70.5000000000000284
 20
160.5
 10
54.5
 20
160.5
  0
LWPOLYLINE
  5
113
100
AcDbEntity
  8
0
 62
256
370
-1
 48
1.0
  6
ByLayer
100
AcDbPolyline
 90
4
 70
1
 10
294.4872647295669594
 20
147.5037406897967003
 10
310.4872647295670163
 20
147.5037406897967003
 10
310.4872647295670163
 20
163.503740689796814
 10
294.4872647295669594
 20
163.503740689796814
  0
LWPOLYLINE
  5
114
100
AcDbEntity
  8
0
 62
256
370
-1
 48
1.0
  6
ByLayer
100
AcDbPolyline
 90
4
 70
1
 10
70.0000008940696716
 20
100.0000002980231955
 10
50.0000008940696716
 20
100.0000002980231955
 10
50.0000008940696716
 20
0.0000002980232239
 10
70.0000008940696716
 20
0.0000002980232239
  0
LWPOLYLINE
  5
115
100
AcDbEntity
  8
0
 62
256
370
-1
 48
1.0
  6
ByLayer
100
AcDbPolyline
 90
4
 70
1
 10
310.0000008940696716
 20
100.0000002980231955
 10
290.0000008940696716
 20
100.0000002980231955
 10
290.0000008940696716
 20
0.0000002980232239
 10
310.0000008940696716
 20
0.0000002980232239
  0
LWPOLYLINE
  5
116
100
AcDbEntity
  8
0
 62
256
370
-1
 48
1.0
  6
ByLayer
100
AcDbPolyline
 90
4
 70
1
 10
-25.0768392612313917
 20
107.9813922776582018
 10
74.9231607387686154
 20
107.9813922776582018
 10
74.9231607387686154
 20
127.9813922776582018
 10
-25.0768392612313917
 20
127.9813922776582018
  0
LWPOLYLINE
  5
117
100
AcDbEntity
  8
0
 62
256
370
-1
 48
1.0
  6
ByLayer
100
AcDbPolyline
 90
4
 70
1
 10
214.9231607387686154
 20
107.9813922776582018
 10
314.9231607387686154
 20
107.9813922776582018
 10
314.9231607387686154
 20
127.9813922776582018
 10
214.9231607387686154
 20
127.9813922776582018
  0
CIRCLE
  5
118
100
AcDbEntity
  8
0
 62
256
370
-1
 48
1.0
  6
ByLayer
100
AcDbCircle
 10
-3.0
 20
31.0
 30
0.0
 40
15.0
  0
CIRCLE
  5
119
100
AcDbEntity
  8
0
 62
256
370
-1
 48
1.0
  6
ByLayer
100
AcDbCircle
 10
237.0
 20
31.0
 30
0.0
 40
15.0
  0
CIRCLE
  5
11A
100
AcDbEntity
  8
0
 62
256
370
-1
 48
1.0
  6
ByLayer
100
AcDbCircle
 10
-3.0
 20
71.0
 30
0.0
 40
15.0
  0
CIRCLE
  5
11B
100
AcDbEntity
  8
0
 62
256
370
-1
 48
1.0
  6
ByLayer
100
AcDbCircle
 10
237.0
 20
71.0
 30
0.0
 40
15.0
  0
CIRCLE
  5
11C
100
AcDbEntity
  8
0
 62
256
370
-1
 48
1.0
  6
ByLayer
100
AcDbCircle
 10
242.0
 20
282.0
 30
0.0
 40
9.25
  0
CIRCLE
  5
11D
100
AcDbEntity
  8
0
 62
256
370
-1
 48
1.0
  6
ByLayer
100
AcDbCircle
 10
2.0
 20
282.0
 30
0.0
 40
9.25
  0
CIRCLE
  5
11E
100
AcDbEntity
  8
0
 62
256
370
-1
 48
1.0
  6
ByLayer
100
AcDbCircle
 10
231.5
 20
228.5
 30
0.0
 40
7.0999999999999996
  0
CIRCLE
  5
11F
100
AcDbEntity
  8
0
 62
256
370
-1
 48
1.0
  6
ByLayer
100
AcDbCircle
 10
-8.5
 20
228.5
 30
0.0
 40
7.0999999999999996
  0
LINE
  5
120
100
AcDbEntity
  8
0
 62
256
370
-1
 48
1.0
  6
ByLayer
100
AcDbLine
 10
239.0
 20
217.0
 30
0.0
 11
224.0000000000000568
 21
217.0
 31
0.0
  0
LINE
  5
121
100
AcDbEntity
  8
0
 62
256
370
-1
 48
1.0
  6
ByLayer
100
AcDbLine
 10
-1.0
 20
217.0
 30
0.0
 11
-15.9999999999999432
 21
217.0
 31
0.0
  0
LINE
  5
122
100
AcDbEntity
  8
0
 62
256
370
-1
 48
1.0
  6
ByLayer
100
AcDbLine
 10
224.0000000000000568
 20
217.0
 30
0.0
 11
224.0
 21
210.0
 31
0.0
  0
LINE
  5
123
100
AcDbEntity
  8
0
 62
256
370
-1
 48
1.0
  6
ByLayer
100
AcDbLine
 10
-15.9999999999999432
 20
217.0
 30
0.0
 11
-16.0
 21
210.0
 31
0.0
  0
LINE
  5
124
100
AcDbEntity
  8
0
 62
256
370
-1
 48
1.0
  6
ByLayer
100
AcDbLine
 10
224.0
 20
210.0
 30
0.0
 11
239.0
 21
210.0
 31
0.0
  0
LINE
  5
125
100
AcDbEntity
  8
0
 62
256
370
-1
 48
1.0
  6
ByLayer
100
AcDbLine
 10
-16.0
 20
210.0
 30
0.0
 11
-1.0
 21
210.0
 31
0.0
  0
LINE
  5
126
100
AcDbEntity
  8
0
 62
256
370
-1
 48
1.0
  6
ByLayer
100
AcDbLine
 10
239.0
 20
210.0
 30
0.0
 11
239.0
 21
217.0
 31
0.0
  0
LINE
  5
127
100
AcDbEntity
  8
0
 62
256
370
-1
 48
1.0
  6
ByLayer
100
AcDbLine
 10
-1.0
 20
210.0
 30
0.0
 11
-1.0
 21
217.0
 31
0.0
  0
LINE
  5
128
100
AcDbEntity
  8
0
 62
256
370
-1
 48
1.0
  6
ByLayer
100
AcDbLine
 10
239.0
 20
217.0
 30
0.0
 11
224.0
 21
210.0
 31
0.0
  0
LINE
  5
129
100
AcDbEntity
  8
0
 62
256
370
-1
 48
1.0
  6
ByLayer
100
AcDbLine
 10
-1.0
 20
217.0
 30
0.0
 11
-16.0
 21
210.0
 31
0.0
  0
LINE
  5
12A
100
AcDbEntity
  8
0
 62
256
370
-1
 48
1.0
  6
ByLayer
100
AcDbLine
 10
224.0000000000000568
 20
217.0
 30
0.0
 11
239.0
 21
210.0
 31
0.0
  0
LINE
  5
12B
100
AcDbEntity
  8
0
 62
256
370
-1
 48
1.0
  6
ByLayer
100
AcDbLine
 10
-15.9999999999999432
 20
217.0
 30
0.0
 11
-1.0
 21
210.0
 31
0.0
  0
LINE
  5
12C
100
AcDbEntity
  8
0
 62
256
370
-1
 48
1.0
  6
ByLayer
100
AcDbLine
 10
273.0
 20
217.0
 30
0.0
 11
258.0
 21
217.0
 31
0.0
  0
LINE
  5
12D
100
AcDbEntity
  8
0
 62
256
370
-1
 48
1.0
  6
ByLayer
100
AcDbLine
 10
33.0
 20
217.0
 30
0.0
 11
18.0
 21
217.0
 31
0.0
  0
LINE
  5
12E
100
AcDbEntity
  8
0
 62
256
370
-1
 48
1.0
  6
ByLayer
100
AcDbLine
 10
258.0
 20
210.0
 30
0.0
 11
273.0
 21
210.0
 31
0.0
  0
LINE
  5
12F
100
AcDbEntity
  8
0
 62
256
370
-1
 48
1.0
  6
ByLayer
100
AcDbLine
 10
18.0
 20
210.0
 30
0.0
 11
33.0
 21
210.0
 31
0.0
  0
LINE
  5
130
100
AcDbEntity
  8
0
 62
256
370
-1
 48
1.0
  6
ByLayer
100
AcDbLine
 10
273.0
 20
217.0
 30
0.0
 11
258.0
 21
210.0
 31
0.0
  0
LINE
  5
131
100
AcDbEntity
  8
0
 62
256
370
-1
 48
1.0
  6
ByLayer
100
AcDbLine
 10
33.0
 20
217.0
 30
0.0
 11
18.0
 21
210.0
 31
0.0
  0
LINE
  5
132
100
AcDbEntity
  8
0
 62
256
370
-1
 48
1.0
  6
ByLayer
100
AcDbLine
 10
258.0
 20
217.0
 30
0.0
 11
258.0
 21
210.0
 31
0.0
  0
LINE
  5
133
100
AcDbEntity
  8
0
 62
256
370
-1
 48
1.0
  6
ByLayer
100
AcDbLine
 10
18.0
 20
217.0
 30
0.0
 11
18.0
 21
210.0
 31
0.0
  0
LINE
  5
134
100
AcDbEntity
  8
0
 62
256
370
-1
 48
1.0
  6
ByLayer
100
AcDbLine
 10
258.0
 20
217.0
 30
0.0
 11
273.0
 21
210.0
 31
0.0
  0
LINE
  5
135
100
AcDbEntity
  8
0
 62
256
370
-1
 48
1.0
  6
ByLayer
100
AcDbLine
 10
18.0
 20
217.0
 30
0.0
 11
33.0
 21
210.0
 31
0.0
  0
CIRCLE
  5
136
100
AcDbEntity
  8
0
 62
256
370
-1
 48
1.0
  6
ByLayer
100
AcDbCircle
 10
265.5
 20
228.5
 30
0.0
 40
7.0999999999999996
  0
CIRCLE
  5
137
100
AcDbEntity
  8
0
 62
256
370
-1
 48
1.0
  6
ByLayer
100
AcDbCircle
 10
25.5
 20
228.5
 30
0.0
 40
7.0999999999999996
  0
LINE
  5
138
100
AcDbEntity
  8
0
 62
256
370
-1
 48
1.0
  6
ByLayer
100
AcDbLine
 10
273.0
 20
210.0
 30
0.0
 11
273.0
 21
217.0
 31
0.0
  0
LINE
  5
139
100
AcDbEntity
  8
0
 62
256
370
-1
 48
1.0
  6
ByLayer
100
AcDbLine
 10
33.0
 20
210.0
 30
0.0
 11
33.0
 21
217.0
 31
0.0
  0
LINE
  5
13A
100
AcDbEntity
  8
0
 62
256
370
-1
 48
1.0
  6
ByLayer
100
AcDbLine
 10
307.0
 20
217.0
 30
0.0
 11
292.0
 21
217.0
 31
0.0
  0
LINE
  5
13B
100
AcDbEntity
  8
0
 62
256
370
-1
 48
1.0
  6
ByLayer
100
AcDbLine
 10
67.0
 20
217.0
 30
0.0
 11
52.0
 21
217.0
 31
0.0
  0
LINE
  5
13C
100
AcDbEntity
  8
0
 62
256
370
-1
 48
1.0
  6
ByLayer
100
AcDbLine
 10
292.0
 20
210.0
 30
0.0
 11
307.0
 21
210.0
 31
0.0
  0
LINE
  5
13D
100
AcDbEntity
  8
0
 62
256
370
-1
 48
1.0
  6
ByLayer
100
AcDbLine
 10
52.0
 20
210.0
 30
0.0
 11
67.0
 21
210.0
 31
0.0
  0
LINE
  5
13E
100
AcDbEntity
  8
0
 62
256
370
-1
 48
1.0
  6
ByLayer
100
AcDbLine
 10
307.0
 20
217.0
 30
0.0
 11
292.0
 21
210.0
 31
0.0
  0
LINE
  5
13F
100
AcDbEntity
  8
0
 62
256
370
-1
 48
1.0
  6
ByLayer
100
AcDbLine
 10
67.0
 20
217.0
 30
0.0
 11
52.0
 21
210.0
 31
0.0
  0
LINE
  5
140
100
AcDbEntity
  8
0
 62
256
370
-1
 48
1.0
  6
ByLayer
100
AcDbLine
 10
292.0
 20
217.0
 30
0.0
 11
292.0
 21
210.0
 31
0.0
  0
LINE
  5
141
100
AcDbEntity
  8
0
 62
256
370
-1
 48
1.0
  6
ByLayer
100
AcDbLine
 10
52.0
 20
217.0
 30
0.0
 11
52.0
 21
210.0
 31
0.0
  0
LINE
  5
142
100
AcDbEntity
  8
0
 62
256
370
-1
 48
1.0
  6
ByLayer
100
AcDbLine
 10
292.0
 20
217.0
 30
0.0
 11
307.0
 21
210.0
 31
0.0
  0
LINE
  5
143
100
AcDbEntity
  8
0
 62
256
370
-1
 48
1.0
  6
ByLayer
100
AcDbLine
 10
52.0
 20
217.0
 30
0.0
 11
67.0
 21
210.0
 31
0.0
  0
CIRCLE
  5
144
100
AcDbEntity
  8
0
 62
256
370
-1
 48
1.0
  6
ByLayer
100
AcDbCircle
 10
299.5
 20
228.5
 30
0.0
 40
7.0999999999999996
  0
CIRCLE
  5
145
100
AcDbEntity
  8
0
 62
256
370
-1
 48
1.0
  6
ByLayer
100
AcDbCircle
 10
59.5
 20
228.5
 30
0.0
 40
7.0999999999999996
  0
LINE
  5
146
100
AcDbEntity
  8
0
 62
256
370
-1
 48
1.0
  6
ByLayer
100
AcDbLine
 10
307.0
 20
210.0
 30
0.0
 11
307.0
 21
217.0
 31
0.0
  0
LINE
  5
147
100
AcDbEntity
  8
0
 62
256
370
-1
 48
1.0
  6
ByLayer
100
AcDbLine
 10
67.0
 20
210.0
 30
0.0
 11
67.0
 21
217.0
 31
0.0
  0
LINE
  5
148
100
AcDbEntity
  8
pcb
 62
256
370
-1
 48
1.0
  6
ByLayer
100
AcDbLine
 10
-25.0
 20
0.0
 30
0.0
 11
75.0
 21
0.0
 31
0.0
  0
LINE
  5
149
100
AcDbEntity
  8
pcb
 62
256
370
-1
 48
1.0
  6
ByLayer
100
AcDbLine
 10
76.0
 20
0.0
 30
0.0
 11
176.0
 21
0.0
 31
0.0
  0
LINE
  5
14A
100
AcDbEntity
  8
pcb
 62
256
370
-1
 48
1.0
  6
ByLayer
100
AcDbLine
 10
215.0
 20
0.0
 30
0.0
 11
315.0
 21
0.0
 31
0.0
  0
LINE
  5
14B
100
AcDbEntity
  8
pcb
 62
256
370
-1
 48
1.0
  6
ByLayer
100
AcDbLine
 10
75.0
 20
0.0
 30
0.0
 11
75.0
 21
100.0
 31
0.0
  0
LINE
  5
14C
100
AcDbEntity
  8
pcb
 62
256
370
-1
 48
1.0
  6
ByLayer
100
AcDbLine
 10
176.0
 20
0.0
 30
0.0
 11
176.0
 21
100.0
 31
0.0
  0
LINE
  5
14D
100
AcDbEntity
  8
pcb
 62
256
370
-1
 48
1.0
  6
ByLayer
100
AcDbLine
 10
315.0
 20
0.0
 30
0.0
 11
315.0
 21
100.0
 31
0.0
  0
LINE
  5
14E
100
AcDbEntity
  8
pcb
 62
256
370
-1
 48
1.0
  6
ByLayer
100
AcDbLine
 10
75.0
 20
100.0
 30
0.0
 11
-25.0
 21
100.0
 31
0.0
  0
LINE
  5
14F
100
AcDbEntity
  8
pcb
 62
256
370
-1
 48
1.0
  6
ByLayer
100
AcDbLine
 10
176.0
 20
100.0
 30
0.0
 11
76.0
 21
100.0
 31
0.0
  0
LINE
  5
150
100
AcDbEntity
  8
pcb
 62
256
370
-1
 48
1.0
  6
ByLayer
100
AcDbLine
 10
315.0
 20
100.0
 30
0.0
 11
215.0
 21
100.0
 31
0.0
  0
LINE
  5
151
100
AcDbEntity
  8
pcb
 62
256
370
-1
 48
1.0
  6
ByLayer
100
AcDbLine
 10
-25.0
 20
100.0
 30
0.0
 11
-25.0
 21
0.0
 31
0.0
  0
LINE
  5
152
100
AcDbEntity
  8
pcb
 62
256
370
-1
 48
1.0
  6
ByLayer
100
AcDbLine
 10
76.0
 20
100.0
 30
0.0
 11
76.0
 21
0.0
 31
0.0
  0
LINE
  5
153
100
AcDbEntity
  8
pcb
 62
256
370
-1
 48
1.0
  6
ByLayer
100
AcDbLine
 10
215.0
 20
100.0
 30
0.0
 11
215.0
 21
0.0
 31
0.0
  0
LINE
  5
154
100
AcDbEntity
  8
pcb
 62
256
370
-1
 48
1.0
  6
ByLayer
100
AcDbLine
 10
-25.0
 20
101.0
 30
0.0
 11
75.0
 21
101.0
 31
0.0
  0
LINE
  5
155
100
AcDbEntity
  8
pcb
 62
256
370
-1
 48
1.0
  6
ByLayer
100
AcDbLine
 10
76.0
 20
101.0
 30
0.0
 11
176.0
 21
101.0
 31
0.0
  0
LINE
  5
156
100
AcDbEntity
  8
pcb
 62
256
370
-1
 48
1.0
  6
ByLayer
100
AcDbLine
 10
215.0
 20
101.0
 30
0.0
 11
315.0
 21
101.0
 31
0.0
  0
LINE
  5
157
100
AcDbEntity
  8
pcb
 62
256
370
-1
 48
1.0
  6
ByLayer
100
AcDbLine
 10
75.0
 20
101.0
 30
0.0
 11
75.0
 21
201.0
 31
0.0
  0
LINE
  5
158
100
AcDbEntity
  8
pcb
 62
256
370
-1
 48
1.0
  6
ByLayer
100
AcDbLine
 10
176.0
 20
101.0
 30
0.0
 11
176.0
 21
201.0
 31
0.0
  0
LINE
  5
159
100
AcDbEntity
  8
pcb
 62
256
370
-1
 48
1.0
  6
ByLayer
100
AcDbLine
 10
315.0
 20
101.0
 30
0.0
 11
315.0
 21
201.0
 31
0.0
  0
LINE
  5
15A
100
AcDbEntity
  8
pcb
 62
256
370
-1
 48
1.0
  6
ByLayer
100
AcDbLine
 10
75.0
 20
201.0
 30
0.0
 11
-25.0
 21
201.0
 31
0.0
  0
LINE
  5
15B
100
AcDbEntity
  8
pcb
 62
256
370
-1
 48
1.0
  6
ByLayer
100
AcDbLine
 10
176.0
 20
201.0
 30
0.0
 11
76.0
 21
201.0
 31
0.0
  0
LINE
  5
15C
100
AcDbEntity
  8
pcb
 62
256
370
-1
 48
1.0
  6
ByLayer
100
AcDbLine
 10
315.0
 20
201.0
 30
0.0
 11
215.0
 21
201.0
 31
0.0
  0
LINE
  5
15D
100
AcDbEntity
  8
pcb
 62
256
370
-1
 48
1.0
  6
ByLayer
100
AcDbLine
 10
-25.0
 20
201.0
 30
0.0
 11
-25.0
 21
101.0
 31
0.0
  0
LINE
  5
15E
100
AcDbEntity
  8
pcb
 62
256
370
-1
 48
1.0
  6
ByLayer
100
AcDbLine
 10
76.0
 20
201.0
 30
0.0
 11
76.0
 21
101.0
 31
0.0
  0
LINE
  5
15F
100
AcDbEntity
  8
pcb
 62
256
370
-1
 48
1.0
  6
ByLayer
100
AcDbLine
 10
215.0
 20
201.0
 30
0.0
 11
215.0
 21
101.0
 31
0.0
  0
LINE
  5
160
100
AcDbEntity
  8
0
 62
256
370
-1
 48
1.0
  6
ByLayer
100
AcDbLine
 10
45.0
 20
90.0
 30
0.0
 11
25.0
 21
90.0
 31
0.0
  0
LINE
  5
161
100
AcDbEntity
  8
0
 62
256
370
-1
 48
1.0
  6
ByLayer
100
AcDbLine
 10
285.0
 20
90.0
 30
0.0
 11
265.0
 21
90.0
 31
0.0
  0
LINE
  5
162
100
AcDbEntity
  8
0
 62
256
370
-1
 48
1.0
  6
ByLayer
100
AcDbLine
 10
25.0
 20
90.0
 30
0.0
 11
25.0
 21
80.0
 31
0.0
  0
LINE
  5
163
100
AcDbEntity
  8
0
 62
256
370
-1
 48
1.0
  6
ByLayer
100
AcDbLine
 10
265.0
 20
90.0
 30
0.0
 11
265.0
 21
80.0
 31
0.0
  0
LINE
  5
164
100
AcDbEntity
  8
0
 62
256
370
-1
 48
1.0
  6
ByLayer
100
AcDbLine
 10
25.0
 20
80.0
 30
0.0
 11
45.0
 21
80.0
 31
0.0
  0
LINE
  5
165
100
AcDbEntity
  8
0
 62
256
370
-1
 48
1.0
  6
ByLayer
100
AcDbLine
 10
265.0
 20
80.0
 30
0.0
 11
285.0
 21
80.0
 31
0.0
  0
LINE
  5
166
100
AcDbEntity
  8
0
 62
256
370
-1
 48
1.0
  6
ByLayer
100
AcDbLine
 10
45.0
 20
80.0
 30
0.0
 11
45.0
 21
90.0
 31
0.0
  0
LINE
  5
167
100
AcDbEntity
  8
0
 62
256
370
-1
 48
1.0
  6
ByLayer
100
AcDbLine
 10
285.0
 20
80.0
 30
0.0
 11
285.0
 21
90.0
 31
0.0
  0
LINE
  5
168
100
AcDbEntity
  8
0
 62
256
370
-1
 48
1.0
  6
ByLayer
100
AcDbLine
 10
25.0
 20
76.0
 30
0.0
 11
45.0
 21
76.0
 31
0.0
  0
LINE
  5
169
100
AcDbEntity
  8
0
 62
256
370
-1
 48
1.0
  6
ByLayer
100
AcDbLine
 10
265.0
 20
76.0
 30
0.0
 11
285.0
 21
76.0
 31
0.0
  0
LINE
  5
16A
100
AcDbEntity
  8
0
 62
256
370
-1
 48
1.0
  6
ByLayer
100
AcDbLine
 10
45.0
 20
76.0
 30
0.0
 11
45.0
 21
66.0
 31
0.0
  0
LINE
  5
16B
100
AcDbEntity
  8
0
 62
256
370
-1
 48
1.0
  6
ByLayer
100
AcDbLine
 10
285.0
 20
76.0
 30
0.0
 11
285.0
 21
66.0
 31
0.0
  0
LINE
  5
16C
100
AcDbEntity
  8
0
 62
256
370
-1
 48
1.0
  6
ByLayer
100
AcDbLine
 10
45.0
 20
66.0
 30
0.0
 11
25.0
 21
66.0
 31
0.0
  0
LINE
  5
16D
100
AcDbEntity
  8
0
 62
256
370
-1
 48
1.0
  6
ByLayer
100
AcDbLine
 10
285.0
 20
66.0
 30
0.0
 11
265.0
 21
66.0
 31
0.0
  0
LINE
  5
16E
100
AcDbEntity
  8
0
 62
256
370
-1
 48
1.0
  6
ByLayer
100
AcDbLine
 10
25.0
 20
66.0
 30
0.0
 11
25.0
 21
76.0
 31
0.0
  0
LINE
  5
16F
100
AcDbEntity
  8
0
 62
256
370
-1
 48
1.0
  6
ByLayer
100
AcDbLine
 10
265.0
 20
66.0
 30
0.0
 11
265.0
 21
76.0
 31
0.0
  0
LINE
  5
170
100
AcDbEntity
  8
0
 62
256
370
-1
 48
1.0
  6
ByLayer
100
AcDbLine
 10
25.0
 20
20.0
 30
0.0
 11
45.0
 21
20.0
 31
0.0
  0
LINE
  5
171
100
AcDbEntity
  8
0
 62
256
370
-1
 48
1.0
  6
ByLayer
100
AcDbLine
 10
265.0
 20
20.0
 30
0.0
 11
285.0
 21
20.0
 31
0.0
  0
LINE
  5
172
100
AcDbEntity
  8
0
 62
256
370
-1
 48
1.0
  6
ByLayer
100
AcDbLine
 10
45.0
 20
20.0
 30
0.0
 11
45.0
 21
10.0
 31
0.0
  0
LINE
  5
173
100
AcDbEntity
  8
0
 62
256
370
-1
 48
1.0
  6
ByLayer
100
AcDbLine
 10
285.0
 20
20.0
 30
0.0
 11
285.0
 21
10.0
 31
0.0
  0
LINE
  5
174
100
AcDbEntity
  8
0
 62
256
370
-1
 48
1.0
  6
ByLayer
100
AcDbLine
 10
45.0
 20
10.0
 30
0.0
 11
25.0
 21
10.0
 31
0.0
  0
LINE
  5
175
100
AcDbEntity
  8
0
 62
256
370
-1
 48
1.0
  6
ByLayer
100
AcDbLine
 10
285.0
 20
10.0
 30
0.0
 11
265.0
 21
10.0
 31
0.0
  0
LINE
  5
176
100
AcDbEntity
  8
0
 62
256
370
-1
 48
1.0
  6
ByLayer
100
AcDbLine
 10
25.0
 20
10.0
 30
0.0
 11
25.0
 21
20.0
 31
0.0
  0
LINE
  5
177
100
AcDbEntity
  8
0
 62
256
370
-1
 48
1.0
  6
ByLayer
100
AcDbLine
 10
265.0
 20
10.0
 30
0.0
 11
265.0
 21
20.0
 31
0.0
  0
LINE
  5
178
100
AcDbEntity
  8
0
 62
256
370
-1
 48
1.0
  6
ByLayer
100
AcDbLine
 10
239.0
 20
266.0
 30
0.0
 11
225.0
 21
266.0
 31
0.0
  0
LINE
  5
179
100
AcDbEntity
  8
0
 62
256
370
-1
 48
1.0
  6
ByLayer
100
AcDbLine
 10
-1.0
 20
266.0
 30
0.0
 11
-15.0
 21
266.0
 31
0.0
  0
LINE
  5
17A
100
AcDbEntity
  8
0
 62
256
370
-1
 48
1.0
  6
ByLayer
100
AcDbLine
 10
225.0
 20
266.0
 30
0.0
 11
225.0
 21
260.0
 31
0.0
  0
LINE
  5
17B
100
AcDbEntity
  8
0
 62
256
370
-1
 48
1.0
  6
ByLayer
100
AcDbLine
 10
-15.0
 20
266.0
 30
0.0
 11
-15.0
 21
260.0
 31
0.0
  0
LINE
  5
17C
100
AcDbEntity
  8
0
 62
256
370
-1
 48
1.0
  6
ByLayer
100
AcDbLine
 10
225.0
 20
260.0
 30
0.0
 11
239.0
 21
260.0
 31
0.0
  0
LINE
  5
17D
100
AcDbEntity
  8
0
 62
256
370
-1
 48
1.0
  6
ByLayer
100
AcDbLine
 10
-15.0
 20
260.0
 30
0.0
 11
-1.0
 21
260.0
 31
0.0
  0
LINE
  5
17E
100
AcDbEntity
  8
0
 62
256
370
-1
 48
1.0
  6
ByLayer
100
AcDbLine
 10
239.0
 20
260.0
 30
0.0
 11
239.0
 21
266.0
 31
0.0
  0
LINE
  5
17F
100
AcDbEntity
  8
0
 62
256
370
-1
 48
1.0
  6
ByLayer
100
AcDbLine
 10
-1.0
 20
260.0
 30
0.0
 11
-1.0
 21
266.0
 31
0.0
  0
LINE
  5
180
100
AcDbEntity
  8
0
 62
256
370
-1
 48
1.0
  6
ByLayer
100
AcDbLine
 10
245.0
 20
266.0
 30
0.0
 11
259.0
 21
266.0
 31
0.0
  0
LINE
  5
181
100
AcDbEntity
  8
0
 62
256
370
-1
 48
1.0
  6
ByLayer
100
AcDbLine
 10
5.0
 20
266.0
 30
0.0
 11
19.0
 21
266.0
 31
0.0
  0
LINE
  5
182
100
AcDbEntity
  8
0
 62
256
370
-1
 48
1.0
  6
ByLayer
100
AcDbLine
 10
259.0
 20
266.0
 30
0.0
 11
259.0
 21
260.0
 31
0.0
  0
LINE
  5
183
100
AcDbEntity
  8
0
 62
256
370
-1
 48
1.0
  6
ByLayer
100
AcDbLine
 10
19.0
 20
266.0
 30
0.0
 11
19.0
 21
260.0
 31
0.0
  0
LINE
  5
184
100
AcDbEntity
  8
0
 62
256
370
-1
 48
1.0
  6
ByLayer
100
AcDbLine
 10
259.0
 20
260.0
 30
0.0
 11
245.0
 21
260.0
 31
0.0
  0
LINE
  5
185
100
AcDbEntity
  8
0
 62
256
370
-1
 48
1.0
  6
ByLayer
100
AcDbLine
 10
19.0
 20
260.0
 30
0.0
 11
5.0
 21
260.0
 31
0.0
  0
LINE
  5
186
100
AcDbEntity
  8
0
 62
256
370
-1
 48
1.0
  6
ByLayer
100
AcDbLine
 10
245.0
 20
260.0
 30
0.0
 11
245.0
 21
266.0
 31
0.0
  0
LINE
  5
187
100
AcDbEntity
  8
0
 62
256
370
-1
 48
1.0
  6
ByLayer
100
AcDbLine
 10
5.0
 20
260.0
 30
0.0
 11
5.0
 21
266.0
 31
0.0
  0
LINE
  5
188
100
AcDbEntity
  8
pcb
 62
256
370
-1
 48
1.0
  6
ByLayer
100
AcDbLine
 10
76.0
 20
202.0
 30
0.0
 11
76.0
 21
302.0
 31
0.0
  0
LINE
  5
189
100
AcDbEntity
  8
pcb
 62
256
370
-1
 48
1.0
  6
ByLayer
100
AcDbLine
 10
215.0
 20
202.0
 30
0.0
 11
215.0
 21
302.0
 31
0.0
  0
LINE
  5
18A
100
AcDbEntity
  8
pcb
 62
256
370
-1
 48
1.0
  6
ByLayer
100
AcDbLine
 10
-25.0
 20
202.0
 30
0.0
 11
-25.0
 21
302.0
 31
0.0
  0
LINE
  5
18B
100
AcDbEntity
  8
pcb
 62
256
370
-1
 48
1.0
  6
ByLayer
100
AcDbLine
 10
76.0
 20
202.0
 30
0.0
 11
176.0
 21
202.0
 31
0.0
  0
LINE
  5
18C
100
AcDbEntity
  8
pcb
 62
256
370
-1
 48
1.0
  6
ByLayer
100
AcDbLine
 10
215.0
 20
202.0
 30
0.0
 11
315.0
 21
202.0
 31
0.0
  0
LINE
  5
18D
100
AcDbEntity
  8
pcb
 62
256
370
-1
 48
1.0
  6
ByLayer
100
AcDbLine
 10
-25.0
 20
202.0
 30
0.0
 11
75.0
 21
202.0
 31
0.0
  0
LINE
  5
18E
100
AcDbEntity
  8
pcb
 62
256
370
-1
 48
1.0
  6
ByLayer
100
AcDbLine
 10
76.0
 20
302.0
 30
0.0
 11
176.0
 21
302.0
 31
0.0
  0
LINE
  5
18F
100
AcDbEntity
  8
pcb
 62
256
370
-1
 48
1.0
  6
ByLayer
100
AcDbLine
 10
215.0
 20
302.0
 30
0.0
 11
315.0
 21
302.0
 31
0.0
  0
LINE
  5
190
100
AcDbEntity
  8
pcb
 62
256
370
-1
 48
1.0
  6
ByLayer
100
AcDbLine
 10
-25.0
 20
302.0
 30
0.0
 11
75.0
 21
302.0
 31
0.0
  0
LINE
  5
191
100
AcDbEntity
  8
pcb
 62
256
370
-1
 48
1.0
  6
ByLayer
100
AcDbLine
 10
176.0
 20
202.0
 30
0.0
 11
176.0
 21
302.0
 31
0.0
  0
LINE
  5
192
100
AcDbEntity
  8
pcb
 62
256
370
-1
 48
1.0
  6
ByLayer
100
AcDbLine
 10
315.0
 20
202.0
 30
0.0
 11
315.0
 21
302.0
 31
0.0
  0
LINE
  5
193
100
AcDbEntity
  8
pcb
 62
256
370
-1
 48
1.0
  6
ByLayer
100
AcDbLine
 10
75.0
 20
202.0
 30
0.0
 11
75.0
 21
302.0
 31
0.0
  0
LINE
  5
194
100
AcDbEntity
  8
0
 62
256
370
-1
 48
1.0
  6
ByLayer
100
AcDbLine
 10
91.0
 20
94.0
 30
0.0
 11
104.0
 21
94.0
 31
0.0
  0
LINE
  5
195
100
AcDbEntity
  8
0
 62
256
370
-1
 48
1.0
  6
ByLayer
100
AcDbLine
 10
124.5986953464370401
 20
93.9598452857926532
 30
0.0
 11
137.5986953464370401
 21
93.9598452857926532
 31
0.0
  0
LINE
  5
196
100
AcDbEntity
  8
0
 62
256
370
-1
 48
1.0
  6
ByLayer
100
AcDbLine
 10
158.6274167229779835
 20
93.976964301171634
 30
0.0
 11
171.6274167229779835
 21
93.976964301171634
 31
0.0
  0
LINE
  5
197
100
AcDbEntity
  8
0
 62
256
370
-1
 48
1.0
  6
ByLayer
100
AcDbLine
 10
92.0
 20
287.0
 30
0.0
 11
105.0
 21
287.0
 31
0.0
  0
LINE
  5
198
100
AcDbEntity
  8
0
 62
256
370
-1
 48
1.0
  6
ByLayer
100
AcDbLine
 10
125.5986953464370401
 20
286.9598452857926532
 30
0.0
 11
138.5986953464370117
 21
286.9598452857926532
 31
0.0
  0
LINE
  5
199
100
AcDbEntity
  8
0
 62
256
370
-1
 48
1.0
  6
ByLayer
100
AcDbLine
 10
159.627416722977955
 20
286.9769643011716198
 30
0.0
 11
172.627416722977955
 21
286.9769643011716198
 31
0.0
  0
LINE
  5
19A
100
AcDbEntity
  8
0
 62
256
370
-1
 48
1.0
  6
ByLayer
100
AcDbLine
 10
80.0
 20
94.0
 30
0.0
 11
92.0
 21
94.0
 31
0.0
  0
LINE
  5
19B
100
AcDbEntity
  8
0
 62
256
370
-1
 48
1.0
  6
ByLayer
100
AcDbLine
 10
113.5986953464370401
 20
93.9598452857926532
 30
0.0
 11
125.5986953464370401
 21
93.9598452857926532
 31
0.0
  0
LINE
  5
19C
100
AcDbEntity
  8
0
 62
256
370
-1
 48
1.0
  6
ByLayer
100
AcDbLine
 10
147.6274167229779835
 20
93.976964301171634
 30
0.0
 11
159.6274167229779835
 21
93.976964301171634
 31
0.0
  0
LINE
  5
19D
100
AcDbEntity
  8
0
 62
256
370
-1
 48
1.0
  6
ByLayer
100
AcDbLine
 10
81.0
 20
287.0
 30
0.0
 11
93.0
 21
287.0
 31
0.0
  0
LINE
  5
19E
100
AcDbEntity
  8
0
 62
256
370
-1
 48
1.0
  6
ByLayer
100
AcDbLine
 10
114.5986953464370401
 20
286.9598452857926532
 30
0.0
 11
126.5986953464370401
 21
286.9598452857926532
 31
0.0
  0
LINE
  5
19F
100
AcDbEntity
  8
0
 62
256
370
-1
 48
1.0
  6
ByLayer
100
AcDbLine
 10
148.627416722977955
 20
286.9769643011716198
 30
0.0
 11
160.627416722977955
 21
286.9769643011716198
 31
0.0
  0
LINE
  5
1A0
100
AcDbEntity
  8
0
 62
256
370
-1
 48
1.0
  6
ByLayer
100
AcDbLine
 10
80.0
 20
85.0
 30
0.0
 11
104.0
 21
94.0
 31
0.0
  0
LINE
  5
1A1
100
AcDbEntity
  8
0
 62
256
370
-1
 48
1.0
  6
ByLayer
100
AcDbLine
 10
113.5986953464370401
 20
84.9598452857926532
 30
0.0
 11
137.5986953464370401
 21
93.9598452857926532
 31
0.0
  0
LINE
  5
1A2
100
AcDbEntity
  8
0
 62
256
370
-1
 48
1.0
  6
ByLayer
100
AcDbLine
 10
147.6274167229779835
 20
84.976964301171634
 30
0.0
 11
171.6274167229779835
 21
93.976964301171634
 31
0.0
  0
LINE
  5
1A3
100
AcDbEntity
  8
0
 62
256
370
-1
 48
1.0
  6
ByLayer
100
AcDbLine
 10
81.0
 20
278.0
 30
0.0
 11
105.0
 21
287.0
 31
0.0
  0
LINE
  5
1A4
100
AcDbEntity
  8
0
 62
256
370
-1
 48
1.0
  6
ByLayer
100
AcDbLine
 10
114.5986953464370401
 20
277.9598452857926532
 30
0.0
 11
138.5986953464370117
 21
286.9598452857926532
 31
0.0
  0
LINE
  5
1A5
100
AcDbEntity
  8
0
 62
256
370
-1
 48
1.0
  6
ByLayer
100
AcDbLine
 10
148.627416722977955
 20
277.9769643011716198
 30
0.0
 11
172.627416722977955
 21
286.9769643011716198
 31
0.0
  0
LINE
  5
1A6
100
AcDbEntity
  8
0
 62
256
370
-1
 48
1.0
  6
ByLayer
100
AcDbLine
 10
80.0
 20
94.0
 30
0.0
 11
104.0
 21
85.0
 31
0.0
  0
LINE
  5
1A7
100
AcDbEntity
  8
0
 62
256
370
-1
 48
1.0
  6
ByLayer
100
AcDbLine
 10
113.5986953464370401
 20
93.9598452857926532
 30
0.0
 11
137.5986953464370401
 21
84.9598452857926532
 31
0.0
  0
LINE
  5
1A8
100
AcDbEntity
  8
0
 62
256
370
-1
 48
1.0
  6
ByLayer
100
AcDbLine
 10
147.6274167229779835
 20
93.976964301171634
 30
0.0
 11
171.6274167229779835
 21
84.976964301171634
 31
0.0
  0
LINE
  5
1A9
100
AcDbEntity
  8
0
 62
256
370
-1
 48
1.0
  6
ByLayer
100
AcDbLine
 10
81.0
 20
287.0
 30
0.0
 11
105.0
 21
278.0
 31
0.0
  0
LINE
  5
1AA
100
AcDbEntity
  8
0
 62
256
370
-1
 48
1.0
  6
ByLayer
100
AcDbLine
 10
114.5986953464370401
 20
286.9598452857926532
 30
0.0
 11
138.5986953464370117
 21
277.9598452857926532
 31
0.0
  0
LINE
  5
1AB
100
AcDbEntity
  8
0
 62
256
370
-1
 48
1.0
  6
ByLayer
100
AcDbLine
 10
148.627416722977955
 20
286.9769643011716198
 30
0.0
 11
172.627416722977955
 21
277.9769643011716198
 31
0.0
  0
LINE
  5
1AC
100
AcDbEntity
  8
user drw
 62
256
370
-1
 48
1.0
  6
ByLayer
100
AcDbLine
 10
144.987264729566931
 20
0.0
 30
0.0
 11
144.9872647295669594
 21
300.0
 31
0.0
  0
LINE
  5
1AD
100
AcDbEntity
  8
user drw
 62
256
370
-1
 48
1.0
  6
ByLayer
100
AcDbLine
 10
-25.0127352704330406
 20
300.0
 30
0.0
 11
144.9872647295669594
 21
300.0
 31
0.0
  0
LINE
  5
1AE
100
AcDbEntity
  8
user drw
 62
256
370
-1
 48
1.0
  6
ByLayer
100
AcDbLine
 10
144.9872647295669594
 20
300.0
 30
0.0
 11
314.9872647295669594
 21
300.0
 31
0.0
  0
LINE
  5
1AF
100
AcDbEntity
  8
user drw
 62
256
370
-1
 48
1.0
  6
ByLayer
100
AcDbLine
 10
-25.0127352704330583
 20
0.0
 30
0.0
 11
-25.0127352704330406
 21
300.0
 31
0.0
  0
LINE
  5
1B0
100
AcDbEntity
  8
user drw
 62
256
370
-1
 48
1.0
  6
ByLayer
100
AcDbLine
 10
314.9872647295669594
 20
0.0
 30
0.0
 11
314.9872647295669594
 21
300.0
 31
0.0
  0
LINE
  5
1B1
100
AcDbEntity
  8
user drw
 62
256
370
-1
 48
1.0
  6
ByLayer
100
AcDbLine
 10
-25.0127352704330583
 20
0.0
 30
0.0
 11
314.9872647295669594
 21
0.0
 31
0.0
  0
LINE
  5
1B2
100
AcDbEntity
  8
user drw
 62
256
370
-1
 48
1.0
  6
ByLayer
100
AcDbLine
 10
-25.0127352704330406
 20
149.9999999999999716
 30
0.0
 11
314.9872647295669594
 21
150.0
 31
0.0
  0
LINE
  5
1B3
100
AcDbEntity
  8
0
 62
256
370
-1
 48
1.0
  6
ByLayer
100
AcDbLine
 10
126.0166520000009029
 20
41.7524407004773792
 30
0.0
 11
126.0024311221502558
 21
71.0
 31
0.0
  0
LINE
  5
1B4
100
AcDbEntity
  8
0
 62
256
370
-1
 48
1.0
  6
ByLayer
100
AcDbLine
 10
92.0
 20
10.9999999999999929
 30
0.0
 11
92.0024311221502558
 21
71.0
 31
0.0
  0
LINE
  5
1B5
100
AcDbEntity
  8
0
 62
256
370
-1
 48
1.0
  6
ByLayer
100
AcDbLine
 10
160.0166520000008745
 20
41.7524407004773792
 30
0.0
 11
160.0024311221502558
 21
71.0
 31
0.0
  0
LINE
  5
1B6
100
AcDbEntity
  8
0
 62
256
370
-1
 48
1.0
  6
ByLayer
100
AcDbLine
 10
126.0166520000011019
 20
36.7524407004773863
 30
0.0
 11
126.0031465927595775
 21
11.0
 31
0.0
  0
LINE
  5
1B7
100
AcDbEntity
  8
0
 62
256
370
-1
 48
1.0
  6
ByLayer
100
AcDbLine
 10
160.0166520000011019
 20
36.7524407004773863
 30
0.0
 11
160.0031465927595491
 21
11.0
 31
0.0
  0
INSERT
  5
1B8
100
AcDbEntity
  8
layer 1
 62
256
370
-1
 48
1.0
  6
ByLayer
100
AcDbBlockReference
  2
mega
 10
215.0
 20
202.0
 30
0.0
  0
ENDSEC
  0
SECTION
  2
OBJECTS
  0
DICTIONARY
  5
C
100
AcDbDictionary
280
0
281
1
  3
ACAD_GROUP
350
D
  3
ACAD_LAYOUT
350
1A
  3
ACAD_MLINESTYLE
350
17
  3
ACAD_PLOTSETTINGS
350
19
  3
ACAD_PLOTSTYLENAME
350
E
  3
AcDbVariableDictionary
350
1B9
  3
QCAD_OBJECTS
350
1BA
  0
DICTIONARY
  5
D
100
AcDbDictionary
280
0
281
1
  0
ACDBDICTIONARYWDFLT
  5
E
100
AcDbDictionary
281
1
  3
Normal
350
F
100
AcDbDictionaryWithDefault
340
F
  0
ACDBPLACEHOLDER
  5
F
  0
DICTIONARY
  5
17
100
AcDbDictionary
280
0
281
1
  3
Standard
350
18
  0
MLINESTYLE
  5
18
100
AcDbMlineStyle
  2
STANDARD
 70
0
  3

 62
256
 51
90.0
 52
90.0
 71
2
 49
0.5
 62
256
  6
BYLAYER
 49
-0.5
 62
256
  6
BYLAYER
  0
DICTIONARY
  5
19
100
AcDbDictionary
280
0
281
1
  0
DICTIONARY
  5
1A
100
AcDbDictionary
281
1
  3
Layout1
350
1E
  3
Layout2
350
26
  3
Model
350
22
  0
LAYOUT
  5
1E
100
AcDbPlotSettings
  1

  2
none_device
  4

  6

 40
0.0
 41
0.0
 42
0.0
 43
0.0
 44
0.0
 45
0.0
 46
0.0
 47
0.0
 48
0.0
 49
0.0
140
0.0
141
0.0
142
1.0
143
1.0
 70
688
 72
0
 73
0
 74
5
  7

 75
16
147
1.0
148
0.0
149
0.0
100
AcDbLayout
  1
Layout1
 70
1
 71
1
 10
0.0
 20
0.0
 11
420.0
 21
297.0
 12
0.0
 22
0.0
 32
0.0
 14
100000000000000000000.0
 24
100000000000000000000.0
 34
100000000000000000000.0
 15
-100000000000000000000.0
 25
-100000000000000000000.0
 35
-100000000000000000000.0
146
0.0
 13
0.0
 23
0.0
 33
0.0
 16
1.0
 26
0.0
 36
0.0
 17
0.0
 27
1.0
 37
0.0
 76
0
330
1B
  0
LAYOUT
  5
22
100
AcDbPlotSettings
  1

  2
none_device
  4

  6

 40
0.0
 41
0.0
 42
0.0
 43
0.0
 44
0.0
 45
0.0
 46
0.0
 47
0.0
 48
0.0
 49
0.0
140
0.0
141
0.0
142
1.0
143
1.0
 70
1712
 72
0
 73
0
 74
0
  7

 75
0
147
1.0
148
0.0
149
0.0
100
AcDbLayout
  1
Model
 70
1
 71
0
 10
0.0
 20
0.0
 11
12.0
 21
9.0
 12
0.0
 22
0.0
 32
0.0
 14
0.0
 24
0.0
 34
0.0
 15
0.0
 25
0.0
 35
0.0
146
0.0
 13
0.0
 23
0.0
 33
0.0
 16
1.0
 26
0.0
 36
0.0
 17
0.0
 27
1.0
 37
0.0
 76
0
330
1F
  0
LAYOUT
  5
26
100
AcDbPlotSettings
  1

  2
none_device
  4

  6

 40
0.0
 41
0.0
 42
0.0
 43
0.0
 44
0.0
 45
0.0
 46
0.0
 47
0.0
 48
0.0
 49
0.0
140
0.0
141
0.0
142
1.0
143
1.0
 70
688
 72
0
 73
0
 74
5
  7

 75
16
147
1.0
148
0.0
149
0.0
100
AcDbLayout
  1
Layout2
 70
1
 71
2
 10
0.0
 20
0.0
 11
12.0
 21
9.0
 12
0.0
 22
0.0
 32
0.0
 14
0.0
 24
0.0
 34
0.0
 15
0.0
 25
0.0
 35
0.0
146
0.0
 13
0.0
 23
0.0
 33
0.0
 16
1.0
 26
0.0
 36
0.0
 17
0.0
 27
1.0
 37
0.0
 76
0
330
23
  0
DICTIONARY
  5
1B9
100
AcDbDictionary
281
1
  3
DIMASSOC
350
1BC
  3
HIDETEXT
350
1BB
  0
DICTIONARYVAR
  5
1BB
100
DictionaryVariables
280
0
  1
2
  0
DICTIONARYVAR
  5
1BC
100
DictionaryVariables
280
0
  1
1
  0
DICTIONARY
  5
1BA
100
AcDbDictionary
281
1
  3
ColorSettings/BackgroundColor
350
1BD
  3
ColorSettings/ColorMode
350
1BE
  3
DimensionSettings/AngularFormat
350
1BF
  3
DimensionSettings/AngularPrecision
350
1C0
  3
DimensionSettings/DecimalPoint
350
1C1
  3
DimensionSettings/DimensionFont
350
1C2
  3
DimensionSettings/DimensionTextColor
350
1C3
  3
DimensionSettings/KeepProportions
350
1C4
  3
DimensionSettings/LinearFormat
350
1C5
  3
DimensionSettings/LinearPrecision
350
1C6
  3
Grid/DisplayGrid00
350
1C7
  3
Grid/DisplayGrid01
350
1C8
  3
Grid/DisplayGrid02
350
1C9
  3
Grid/DisplayGrid03
350
1CA
  3
Grid/GridSpacingX00
350
1CB
  3
Grid/GridSpacingX01
350
1CC
  3
Grid/GridSpacingX02
350
1CD
  3
Grid/GridSpacingX03
350
1CE
  3
Grid/GridSpacingY00
350
1CF
  3
Grid/GridSpacingY01
350
1D0
  3
Grid/GridSpacingY02
350
1D1
  3
Grid/GridSpacingY03
350
1D2
  3
Grid/IsometricGrid00
350
1D3
  3
Grid/IsometricGrid01
350
1D4
  3
Grid/IsometricGrid02
350
1D5
  3
Grid/IsometricGrid03
350
1D6
  3
Grid/IsometricProjection00
350
1D7
  3
Grid/IsometricProjection01
350
1D8
  3
Grid/IsometricProjection02
350
1D9
  3
Grid/IsometricProjection03
350
1DA
  3
Grid/MetaGridSpacingX00
350
1DB
  3
Grid/MetaGridSpacingX01
350
1DC
  3
Grid/MetaGridSpacingX02
350
1DD
  3
Grid/MetaGridSpacingX03
350
1DE
  3
Grid/MetaGridSpacingY00
350
1DF
  3
Grid/MetaGridSpacingY01
350
1E0
  3
Grid/MetaGridSpacingY02
350
1E1
  3
Grid/MetaGridSpacingY03
350
1E2
  3
MultiPageSettings/Columns
350
1E3
  3
MultiPageSettings/GlueMarginsBottom
350
1E4
  3
MultiPageSettings/GlueMarginsLeft
350
1E5
  3
MultiPageSettings/GlueMarginsRight
350
1E6
  3
MultiPageSettings/GlueMarginsTop
350
1E7
  3
MultiPageSettings/PrintCropMarks
350
1E8
  3
MultiPageSettings/Rows
350
1E9
  3
PageSettings/OffsetX
350
1EA
  3
PageSettings/OffsetY
350
1EB
  3
PageSettings/PageOrientation
350
1EC
  3
PageSettings/PaperHeight
350
1ED
  3
PageSettings/PaperWidth
350
1EE
  3
PageSettings/Scale
350
1EF
  3
PageSettings/ShowPaperBorders
350
1F0
  3
PageTagSettings/EnablePageTags
350
1F1
  3
PageTagSettings/TagAlignment
350
1F2
  3
PageTagSettings/TagFont
350
1F3
  3
PageTagSettings/TagPosition
350
1F4
  3
QCADVersion
350
1F5
  3
UnitSettings/Measurement
350
1F6
  3
UnitSettings/PaperUnit
350
1F7
  3
ViewportCenter
350
1F8
  3
ViewportHeight
350
1F9
  3
ViewportWidth
350
1FA
  0
XRECORD
  5
1BD
330
1BA
100
AcDbXrecord
280
1
1000
#ffffff
  0
XRECORD
  5
1BE
330
1BA
100
AcDbXrecord
280
1
1000
FullColor
  0
XRECORD
  5
1BF
330
1BA
100
AcDbXrecord
280
1
 90
0
  0
XRECORD
  5
1C0
330
1BA
100
AcDbXrecord
280
1
 90
0
  0
XRECORD
  5
1C1
330
1BA
100
AcDbXrecord
280
1
 90
46
  0
XRECORD
  5
1C2
330
1BA
100
AcDbXrecord
280
1
1000
MS Shell Dlg 2
  0
XRECORD
  5
1C3
330
1BA
100
AcDbXrecord
280
1
1000
Black
  0
XRECORD
  5
1C4
330
1BA
100
AcDbXrecord
280
1
290
0
  0
XRECORD
  5
1C5
330
1BA
100
AcDbXrecord
280
1
 90
2
  0
XRECORD
  5
1C6
330
1BA
100
AcDbXrecord
280
1
 90
0
  0
XRECORD
  5
1C7
330
1BA
100
AcDbXrecord
280
1
290
1
  0
XRECORD
  5
1C8
330
1BA
100
AcDbXrecord
280
1
290
1
  0
XRECORD
  5
1C9
330
1BA
100
AcDbXrecord
280
1
290
1
  0
XRECORD
  5
1CA
330
1BA
100
AcDbXrecord
280
1
290
1
  0
XRECORD
  5
1CB
330
1BA
100
AcDbXrecord
280
1
1000
1
  0
XRECORD
  5
1CC
330
1BA
100
AcDbXrecord
280
1
1000
auto
  0
XRECORD
  5
1CD
330
1BA
100
AcDbXrecord
280
1
1000
auto
  0
XRECORD
  5
1CE
330
1BA
100
AcDbXrecord
280
1
1000
auto
  0
XRECORD
  5
1CF
330
1BA
100
AcDbXrecord
280
1
1000
1
  0
XRECORD
  5
1D0
330
1BA
100
AcDbXrecord
280
1
1000
auto
  0
XRECORD
  5
1D1
330
1BA
100
AcDbXrecord
280
1
1000
auto
  0
XRECORD
  5
1D2
330
1BA
100
AcDbXrecord
280
1
1000
auto
  0
XRECORD
  5
1D3
330
1BA
100
AcDbXrecord
280
1
290
0
  0
XRECORD
  5
1D4
330
1BA
100
AcDbXrecord
280
1
290
0
  0
XRECORD
  5
1D5
330
1BA
100
AcDbXrecord
280
1
290
0
  0
XRECORD
  5
1D6
330
1BA
100
AcDbXrecord
280
1
290
0
  0
XRECORD
  5
1D7
330
1BA
100
AcDbXrecord
280
1
 90
65537
  0
XRECORD
  5
1D8
330
1BA
100
AcDbXrecord
280
1
 90
65537
  0
XRECORD
  5
1D9
330
1BA
100
AcDbXrecord
280
1
 90
65537
  0
XRECORD
  5
1DA
330
1BA
100
AcDbXrecord
280
1
 90
65537
  0
XRECORD
  5
1DB
330
1BA
100
AcDbXrecord
280
1
1000
1000
  0
XRECORD
  5
1DC
330
1BA
100
AcDbXrecord
280
1
1000
auto
  0
XRECORD
  5
1DD
330
1BA
100
AcDbXrecord
280
1
1000
auto
  0
XRECORD
  5
1DE
330
1BA
100
AcDbXrecord
280
1
1000
auto
  0
XRECORD
  5
1DF
330
1BA
100
AcDbXrecord
280
1
1000
1
  0
XRECORD
  5
1E0
330
1BA
100
AcDbXrecord
280
1
1000
auto
  0
XRECORD
  5
1E1
330
1BA
100
AcDbXrecord
280
1
1000
auto
  0
XRECORD
  5
1E2
330
1BA
100
AcDbXrecord
280
1
1000
auto
  0
XRECORD
  5
1E3
330
1BA
100
AcDbXrecord
280
1
 90
1
  0
XRECORD
  5
1E4
330
1BA
100
AcDbXrecord
280
1
 40
10.0
  0
XRECORD
  5
1E5
330
1BA
100
AcDbXrecord
280
1
 40
10.0
  0
XRECORD
  5
1E6
330
1BA
100
AcDbXrecord
280
1
 40
10.0
  0
XRECORD
  5
1E7
330
1BA
100
AcDbXrecord
280
1
 40
10.0
  0
XRECORD
  5
1E8
330
1BA
100
AcDbXrecord
280
1
290
0
  0
XRECORD
  5
1E9
330
1BA
100
AcDbXrecord
280
1
 90
1
  0
XRECORD
  5
1EA
330
1BA
100
AcDbXrecord
280
1
 40
0.0
  0
XRECORD
  5
1EB
330
1BA
100
AcDbXrecord
280
1
 40
0.0
  0
XRECORD
  5
1EC
330
1BA
100
AcDbXrecord
280
1
1000
Portrait
  0
XRECORD
  5
1ED
330
1BA
100
AcDbXrecord
280
1
 40
420.0
  0
XRECORD
  5
1EE
330
1BA
100
AcDbXrecord
280
1
 40
297.0
  0
XRECORD
  5
1EF
330
1BA
100
AcDbXrecord
280
1
1000
1:1
  0
XRECORD
  5
1F0
330
1BA
100
AcDbXrecord
280
1
290
1
  0
XRECORD
  5
1F1
330
1BA
100
AcDbXrecord
280
1
290
0
  0
XRECORD
  5
1F2
330
1BA
100
AcDbXrecord
280
1
1000
Inside
  0
XRECORD
  5
1F3
330
1BA
100
AcDbXrecord
280
1
1000
Arial,10,-1,5,50,0,0,0,0,0
  0
XRECORD
  5
1F4
330
1BA
100
AcDbXrecord
280
1
1000
TopLeft
  0
XRECORD
  5
1F5
330
1BA
100
AcDbXrecord
280
1
1000
3.26.1
  0
XRECORD
  5
1F6
330
1BA
100
AcDbXrecord
280
1
 90
1
  0
XRECORD
  5
1F7
330
1BA
100
AcDbXrecord
280
1
 90
4
  0
XRECORD
  5
1F9
330
1BA
100
AcDbXrecord
280
1
 40
483.1983388704320532
  0
XRECORD
  5
1FA
330
1BA
100
AcDbXrecord
280
1
 40
899.5200996677743888
  0
ENDSEC
  0
EOF
