0
SECTION
2
HEADER
9
$INSUNITS
70
4
9
$ACADVER
1
AC1014
9
$HANDSEED
5
FFFF
0
ENDSEC
0
SECTION
2
TABLES
0
TABLE
2
VPORT
5
8
100
AcDbSymbolTable
0
ENDTAB
0
TABLE
2
LTYPE
5
5
100
AcDbSymbolTable
0
LTYPE
5
14
100
AcDbSymbolTableRecord
100
AcDbLinetypeTableRecord
2
BYBLOCK
70
0
0
LTYPE
5
15
100
AcDbSymbolTableRecord
100
AcDbLinetypeTableRecord
2
BYLAYER
70
0
0
ENDTAB
0
TABLE
2
LAYER
5
2
100
AcDbSymbolTable
70
2
0
LAYER
5
50
100
AcDbSymbolTableRecord
100
AcDbLayerTableRecord
2
0
70
0
6
CONTINUOUS
0
ENDTAB
0
TABLE
2
STYLE
5
3
100
AcDbSymbolTable
70
1
0
STYLE
5
11
100
AcDbSymbolTableRecord
100
AcDbTextStyleTableRecord
2
STANDARD
70
0
0
ENDTAB
0
TABLE
2
VIEW
5
6
100
AcDbSymbolTable
70
0
0
ENDTAB
0
TABLE
2
UCS
5
7
100
AcDbSymbolTable
70
0
0
ENDTAB
0
TABLE
2
APPID
5
9
100
AcDbSymbolTable
70
2
0
APPID
5
12
100
AcDbSymbolTableRecord
100
AcDbRegAppTableRecord
2
ACAD
70
0
0
ENDTAB
0
TABLE
2
DIMSTYLE
5
A
100
AcDbSymbolTable
70
1
0
ENDTAB
0
TABLE
2
BLOCK_RECORD
5
1
100
AcDbSymbolTable
70
1
0
BLOCK_RECORD
5
1F
100
AcDbSymbolTableRecord
100
AcDbBlockTableRecord
2
*MODEL_SPACE
0
BLOCK_RECORD
5
1B
100
AcDbSymbolTableRecord
100
AcDbBlockTableRecord
2
*PAPER_SPACE
0
ENDTAB
0
ENDSEC
0
SECTION
2
BLOCKS
0
BLOCK
5
20
100
AcDbEntity
100
AcDbBlockBegin
2
*MODEL_SPACE
0
ENDBLK
5
21
100
AcDbEntity
100
AcDbBlockEnd
0
BLOCK
5
1C
100
AcDbEntity
100
AcDbBlockBegin
2
*PAPER_SPACE
0
ENDBLK
5
1D
100
AcDbEntity
100
AcDbBlockEnd
0
ENDSEC
0
SECTION
2
ENTITIES
0
LWPOLYLINE
5
100
100
AcDbEntity
8
0
100
AcDbPolyline
90
4
70
1
43
0.0
10
154.4833502351733
20
80
10
154.4833502351733
20
20.000000000000007
10
145.4833502351733
20
20.000000000000007
10
145.4833502351733
20
80
0
LINE
5
101
100
AcDbEntity
8
0
100
AcDbLine
10
150.00000223517421
20
50.752440700477379
30
0
11
140.00000223517421
21
50.752440700477379
31
0
0
LINE
5
102
100
AcDbEntity
8
0
100
AcDbLine
10
140.00000223517421
20
50.752440700477379
30
0
11
140.00000223517421
21
45.752440700477379
31
0
0
LINE
5
103
100
AcDbEntity
8
0
100
AcDbLine
10
140.00000223517421
20
45.752440700477379
30
0
11
150.00000223517421
21
45.752440700477379
31
0
0
LINE
5
104
100
AcDbEntity
8
0
100
AcDbLine
10
150.00000223517421
20
45.752440700477379
30
0
11
150.00000223517421
21
50.752440700477379
31
0
0
LINE
5
105
100
AcDbEntity
8
0
100
AcDbLine
10
150.00000223517421
20
50.752440700477379
30
0
11
160.00000223517418
21
50.752440700477379
31
0
0
LINE
5
106
100
AcDbEntity
8
0
100
AcDbLine
10
160.00000223517418
20
50.752440700477379
30
0
11
160.00000223517435
21
45.73431274287276
31
0
0
LINE
5
107
100
AcDbEntity
8
0
100
AcDbLine
10
160.00000223517435
20
45.73431274287276
30
0
11
150.00000223517441
21
45.73431274287276
31
0
0
LINE
5
108
100
AcDbEntity
8
0
100
AcDbLine
10
150.00000223517441
20
45.73431274287276
30
0
11
150.00000223517421
21
50.752440700477379
31
0
0
CIRCLE
5
109
100
AcDbEntity
8
0
100
AcDbCircle
10
150.00000223517415
20
125.00000000000003
30
0
40
10
210
0
220
0
230
1
0
CIRCLE
5
110
100
AcDbEntity
8
0
100
AcDbCircle
10
150.00000223517409
20
160.00000000000003
30
0
40
7.5
210
0
220
0
230
1
0
CIRCLE
5
111
100
AcDbEntity
8
0
100
AcDbCircle
10
150.00000223517407
20
195.00000000000003
30
0
40
7.5
210
0
220
0
230
1
0
CIRCLE
5
112
100
AcDbEntity
8
0
100
AcDbCircle
10
150.00000223517401
20
230.00000000000003
30
0
40
8.2499999999999893
210
0
220
0
230
1
0
CIRCLE
5
113
100
AcDbEntity
8
0
100
AcDbCircle
10
150.00000223517401
20
265.00000000000006
30
0
40
7.5
210
0
220
0
230
1
0
LINE
5
114
100
AcDbEntity
8
0
100
AcDbLine
10
130.00000223517418
20
275.58016201011299
30
0
11
170.00000223517418
21
275.58016201011299
31
0
0
LWPOLYLINE
5
115
100
AcDbEntity
8
0
100
AcDbPolyline
90
4
70
1
43
0.0
10
170.00000223517418
20
4.4408920985006262e-15
10
130.00000223517421
20
0
10
130.00000223517418
20
275.58016201011299
10
170.00000223517418
20
275.58016201011299
0
LINE
5
116
100
AcDbEntity
8
0
100
AcDbLine
10
165.00000223517404
20
103.50000000000001
30
0
11
135.00000223517404
21
103.50000000000001
31
0
0
LINE
5
117
100
AcDbEntity
8
0
100
AcDbLine
10
135.00000223517404
20
103.50000000000001
30
0
11
135.00000223517404
21
96.500000000000028
31
0
0
LINE
5
118
100
AcDbEntity
8
0
100
AcDbLine
10
135.00000223517404
20
96.500000000000028
30
0
11
165.00000223517404
21
96.500000000000028
31
0
0
LINE
5
119
100
AcDbEntity
8
0
100
AcDbLine
10
165.00000223517404
20
96.500000000000028
30
0
11
165.00000223517404
21
103.50000000000001
31
0
0
LINE
5
120
100
AcDbEntity
8
0
100
AcDbLine
10
165.00000223517404
20
103.50000000000001
30
0
11
135.00000223517404
21
96.500000000000028
31
0
0
LINE
5
121
100
AcDbEntity
8
0
100
AcDbLine
10
135.00000223517404
20
103.50000000000001
30
0
11
165.00000223517404
21
96.500000000000028
31
0
0
LWPOLYLINE
5
122
100
AcDbEntity
8
0
100
AcDbPolyline
90
4
70
1
43
0.0
10
132.98882083066113
20
242.58227642231469
10
132.98882083066113
20
239.58227637761121
10
134.98882086046345
20
239.58227637761121
10
134.98882086046345
20
242.58227642231469
0
LWPOLYLINE
5
123
100
AcDbEntity
8
0
100
AcDbPolyline
90
4
70
1
43
0.0
10
132.98882083066113
20
193.08227637761118
10
132.98882083066113
20
190.0822763329077
10
134.98882086046345
20
190.0822763329077
10
134.98882086046345
20
193.08227637761118
0
LWPOLYLINE
5
124
100
AcDbEntity
8
0
100
AcDbPolyline
90
4
70
1
43
0.0
10
134.98882086046345
20
206.58227642231464
10
132.98882083066113
20
206.58227642231464
10
132.98882083066113
20
203.58227637761115
10
134.98882086046345
20
203.58227637761115
0
LWPOLYLINE
5
125
100
AcDbEntity
8
0
100
AcDbPolyline
90
4
70
1
43
0.0
10
132.98882083066113
20
197.58227642231464
10
132.98882083066113
20
194.58227637761115
10
134.98882086046345
20
194.58227637761115
10
134.98882086046345
20
197.58227642231464
0
LWPOLYLINE
5
126
100
AcDbEntity
8
0
100
AcDbPolyline
90
4
70
1
43
0.0
10
134.98882086046345
20
194.58227637761115
10
134.98882086046345
20
197.58227642231464
10
132.98882083066113
20
197.58227642231464
10
132.98882083066113
20
194.58227637761115
0
LWPOLYLINE
5
127
100
AcDbEntity
8
0
100
AcDbPolyline
90
4
70
1
43
0.0
10
132.98882083066113
20
202.08227637761115
10
132.98882083066113
20
199.08227633290767
10
134.98882086046345
20
199.08227633290767
10
134.98882086046345
20
202.08227637761115
0
LWPOLYLINE
5
128
100
AcDbEntity
8
0
100
AcDbPolyline
90
4
70
1
43
0.0
10
134.98882086046345
20
199.08227633290767
10
134.98882086046345
20
202.08227637761115
10
132.98882083066113
20
202.08227637761115
10
132.98882083066113
20
199.08227633290767
0
LWPOLYLINE
5
129
100
AcDbEntity
8
0
100
AcDbPolyline
90
4
70
1
43
0.0
10
132.98882083066113
20
233.58227642231466
10
132.98882083066113
20
230.58227637761118
10
134.98882086046345
20
230.58227637761118
10
134.98882086046345
20
233.58227642231466
0
LWPOLYLINE
5
130
100
AcDbEntity
8
0
100
AcDbPolyline
90
4
70
1
43
0.0
10
132.98882083066113
20
206.58227642231464
10
132.98882083066113
20
203.58227637761115
10
134.98882086046345
20
203.58227637761115
10
134.98882086046345
20
206.58227642231464
0
LWPOLYLINE
5
131
100
AcDbEntity
8
0
100
AcDbPolyline
90
4
70
1
43
0.0
10
132.98882083066113
20
247.08227637761121
10
132.98882083066113
20
244.08227633290767
10
134.98882086046345
20
244.08227633290767
10
134.98882086046345
20
247.08227637761121
0
LWPOLYLINE
5
132
100
AcDbEntity
8
0
100
AcDbPolyline
90
4
70
1
43
0.0
10
132.98882083066113
20
193.08227637761118
10
132.98882083066113
20
190.0822763329077
10
134.98882086046345
20
190.0822763329077
10
134.98882086046345
20
193.08227637761118
0
LWPOLYLINE
5
133
100
AcDbEntity
8
0
100
AcDbPolyline
90
4
70
1
43
0.0
10
132.98882083066113
20
221.58227637761115
10
134.98882086046345
20
221.58227637761115
10
134.98882086046345
20
224.58227642231464
10
132.98882083066113
20
224.58227642231464
0
LWPOLYLINE
5
134
100
AcDbEntity
8
0
100
AcDbPolyline
90
4
70
1
43
0.0
10
132.98882083066113
20
235.0822763329077
10
134.98882086046345
20
235.0822763329077
10
134.98882086046345
20
238.08227637761121
10
132.98882083066113
20
238.08227637761121
0
LWPOLYLINE
5
135
100
AcDbEntity
8
0
100
AcDbPolyline
90
4
70
1
43
0.0
10
134.98882086046345
20
251.58227642231466
10
132.98882083066113
20
251.58227642231466
10
132.98882083066113
20
248.58227637761118
10
134.98882086046345
20
248.58227637761118
0
LWPOLYLINE
5
136
100
AcDbEntity
8
0
100
AcDbPolyline
90
4
70
1
43
0.0
10
132.98882083066113
20
229.08227637761115
10
132.98882083066113
20
226.08227633290767
10
134.98882086046345
20
226.08227633290767
10
134.98882086046345
20
229.08227637761115
0
LWPOLYLINE
5
137
100
AcDbEntity
8
0
100
AcDbPolyline
90
4
70
1
43
0.0
10
134.98882086046345
20
220.08227637761115
10
132.98882083066113
20
220.08227637761115
10
132.98882083066113
20
217.08227633290767
10
134.98882086046345
20
217.08227633290767
0
LWPOLYLINE
5
138
100
AcDbEntity
8
0
100
AcDbPolyline
90
4
70
1
43
0.0
10
132.98882083066113
20
212.58227637761115
10
134.98882086046345
20
212.58227637761115
10
134.98882086046345
20
215.58227642231464
10
132.98882083066113
20
215.58227642231464
0
LWPOLYLINE
5
139
100
AcDbEntity
8
0
100
AcDbPolyline
90
4
70
1
43
0.0
10
132.98882083066113
20
211.08227637761118
10
132.98882083066113
20
208.08227633290767
10
134.98882086046345
20
208.08227633290767
10
134.98882086046345
20
211.08227637761118
0
LWPOLYLINE
5
140
100
AcDbEntity
8
0
100
AcDbPolyline
90
4
70
1
43
0.0
10
132.98882083066113
20
212.58227637761115
10
134.98882086046345
20
212.58227637761115
10
134.98882086046345
20
215.58227642231464
10
132.98882083066113
20
215.58227642231464
0
LWPOLYLINE
5
141
100
AcDbEntity
8
0
100
AcDbPolyline
90
4
70
1
43
0.0
10
134.98882086046345
20
211.08227637761118
10
132.98882083066113
20
211.08227637761118
10
132.98882083066113
20
208.08227633290767
10
134.98882086046345
20
208.08227633290767
0
LWPOLYLINE
5
142
100
AcDbEntity
8
0
100
AcDbPolyline
90
4
70
1
43
0.0
10
172.9888208306611
20
197.58227642231464
10
172.9888208306611
20
194.58227637761115
10
174.98882086046342
20
194.58227637761115
10
174.98882086046342
20
197.58227642231464
0
LWPOLYLINE
5
143
100
AcDbEntity
8
0
100
AcDbPolyline
90
4
70
1
43
0.0
10
174.98882086046342
20
190.0822763329077
10
174.98882086046342
20
193.08227637761118
10
172.9888208306611
20
193.08227637761118
10
172.9888208306611
20
190.0822763329077
0
LWPOLYLINE
5
144
100
AcDbEntity
8
0
100
AcDbPolyline
90
4
70
1
43
0.0
10
174.98882086046342
20
199.08227633290767
10
174.98882086046342
20
202.08227637761115
10
172.9888208306611
20
202.08227637761115
10
172.9888208306611
20
199.08227633290767
0
LWPOLYLINE
5
145
100
AcDbEntity
8
0
100
AcDbPolyline
90
4
70
1
43
0.0
10
174.98882086046342
20
203.58227637761115
10
174.98882086046342
20
206.58227642231464
10
172.9888208306611
20
206.58227642231464
10
172.9888208306611
20
203.58227637761115
0
LWPOLYLINE
5
146
100
AcDbEntity
8
0
100
AcDbPolyline
90
4
70
1
43
0.0
10
174.98882086046342
20
190.0822763329077
10
174.98882086046342
20
193.08227637761118
10
172.9888208306611
20
193.08227637761118
10
172.9888208306611
20
190.0822763329077
0
LWPOLYLINE
5
147
100
AcDbEntity
8
0
100
AcDbPolyline
90
4
70
1
43
0.0
10
172.9888208306611
20
206.58227642231464
10
172.9888208306611
20
203.58227637761115
10
174.98882086046342
20
203.58227637761115
10
174.98882086046342
20
206.58227642231464
0
CIRCLE
5
148
100
AcDbEntity
8
0
100
AcDbCircle
10
190.00000223517404
20
125.00000000000006
30
0
40
10
210
0
220
0
230
1
0
LINE
5
149
100
AcDbEntity
8
0
100
AcDbLine
10
170.00000223517418
20
275.58016201011299
30
0
11
170.00000223517418
21
1.3322676295501878e-14
31
0
0
LWPOLYLINE
5
150
100
AcDbEntity
8
0
100
AcDbPolyline
90
4
70
1
43
0.0
10
194.48335023517325
20
20.000000000000007
10
185.48335023517322
20
20.000000000000007
10
185.48335023517322
20
80
10
194.48335023517325
20
80
0
LWPOLYLINE
5
151
100
AcDbEntity
8
0
100
AcDbPolyline
90
8
70
1
43
0.0
10
200.00000223517412
20
50.752440700477379
10
190.00000223517412
20
50.752440700477379
10
190.00000223517412
20
45.752440700477379
10
180.00000223517412
20
45.752440700477379
10
180.00000223517412
20
50.752440700477379
10
190.00000223517412
20
50.752440700477379
10
190.00000223517432
20
45.73431274287276
10
200.00000223517424
20
45.73431274287276
0
LINE
5
152
100
AcDbEntity
8
0
100
AcDbLine
10
170.00000223517418
20
1.3322676295501878e-14
30
0
11
210.00000223517418
21
8.8817841970012523e-15
31
0
0
LINE
5
153
100
AcDbEntity
8
0
100
AcDbLine
10
175.00000223517404
20
103.50000000000001
30
0
11
205.00000223517404
21
96.500000000000028
31
0
0
LINE
5
154
100
AcDbEntity
8
0
100
AcDbLine
10
175.00000223517404
20
96.500000000000028
30
0
11
205.00000223517404
21
96.500000000000028
31
0
0
LINE
5
155
100
AcDbEntity
8
0
100
AcDbLine
10
205.00000223517404
20
103.50000000000001
30
0
11
175.00000223517404
21
103.50000000000001
31
0
0
LINE
5
156
100
AcDbEntity
8
0
100
AcDbLine
10
205.00000223517404
20
96.500000000000028
30
0
11
205.00000223517404
21
103.50000000000001
31
0
0
LINE
5
157
100
AcDbEntity
8
0
100
AcDbLine
10
205.00000223517404
20
103.50000000000001
30
0
11
175.00000223517404
21
96.500000000000028
31
0
0
LINE
5
158
100
AcDbEntity
8
0
100
AcDbLine
10
175.00000223517404
20
103.50000000000001
30
0
11
175.00000223517404
21
96.500000000000028
31
0
0
CIRCLE
5
159
100
AcDbEntity
8
0
100
AcDbCircle
10
190.00000223517401
20
195.00000000000003
30
0
40
7.5
210
0
220
0
230
1
0
CIRCLE
5
160
100
AcDbEntity
8
0
100
AcDbCircle
10
190.00000223517404
20
160.00000000000006
30
0
40
7.5
210
0
220
0
230
1
0
LWPOLYLINE
5
161
100
AcDbEntity
8
0
100
AcDbPolyline
90
4
70
1
43
0.0
10
174.98882086046342
20
202.08227637761115
10
172.9888208306611
20
202.08227637761115
10
172.9888208306611
20
199.08227633290767
10
174.98882086046342
20
199.08227633290767
0
LWPOLYLINE
5
162
100
AcDbEntity
8
0
100
AcDbPolyline
90
4
70
1
43
0.0
10
172.9888208306611
20
197.58227642231464
10
172.9888208306611
20
194.58227637761115
10
174.98882086046342
20
194.58227637761115
10
174.98882086046342
20
197.58227642231464
0
LWPOLYLINE
5
163
100
AcDbEntity
8
0
100
AcDbPolyline
90
4
70
1
43
0.0
10
174.98882086046342
20
235.0822763329077
10
174.98882086046342
20
238.08227637761121
10
172.9888208306611
20
238.08227637761121
10
172.9888208306611
20
235.0822763329077
0
LWPOLYLINE
5
164
100
AcDbEntity
8
0
100
AcDbPolyline
90
4
70
1
43
0.0
10
174.98882086046342
20
247.08227637761121
10
172.9888208306611
20
247.08227637761121
10
172.9888208306611
20
244.08227633290767
10
174.98882086046342
20
244.08227633290767
0
CIRCLE
5
165
100
AcDbEntity
8
0
100
AcDbCircle
10
190.00000223517395
20
230
30
0
40
8.2499999999999893
210
0
220
0
230
1
0
LWPOLYLINE
5
166
100
AcDbEntity
8
0
100
AcDbPolyline
90
4
70
1
43
0.0
10
172.9888208306611
20
230.58227637761118
10
174.98882086046342
20
230.58227637761118
10
174.98882086046342
20
233.58227642231466
10
172.9888208306611
20
233.58227642231466
0
LWPOLYLINE
5
167
100
AcDbEntity
8
0
100
AcDbPolyline
90
4
70
1
43
0.0
10
174.98882086046342
20
211.08227637761118
10
172.9888208306611
20
211.08227637761118
10
172.9888208306611
20
208.08227633290767
10
174.98882086046342
20
208.08227633290767
0
LWPOLYLINE
5
168
100
AcDbEntity
8
0
100
AcDbPolyline
90
4
70
1
43
0.0
10
174.98882086046342
20
229.08227637761115
10
172.9888208306611
20
229.08227637761115
10
172.9888208306611
20
226.08227633290767
10
174.98882086046342
20
226.08227633290767
0
LWPOLYLINE
5
169
100
AcDbEntity
8
0
100
AcDbPolyline
90
4
70
1
43
0.0
10
174.98882086046342
20
212.58227637761115
10
174.98882086046342
20
215.58227642231464
10
172.9888208306611
20
215.58227642231464
10
172.9888208306611
20
212.58227637761115
0
LWPOLYLINE
5
170
100
AcDbEntity
8
0
100
AcDbPolyline
90
4
70
1
43
0.0
10
172.9888208306611
20
221.58227637761115
10
174.98882086046342
20
221.58227637761115
10
174.98882086046342
20
224.58227642231464
10
172.9888208306611
20
224.58227642231464
0
LWPOLYLINE
5
171
100
AcDbEntity
8
0
100
AcDbPolyline
90
4
70
1
43
0.0
10
172.9888208306611
20
215.58227642231464
10
172.9888208306611
20
212.58227637761115
10
174.98882086046342
20
212.58227637761115
10
174.98882086046342
20
215.58227642231464
0
LWPOLYLINE
5
172
100
AcDbEntity
8
0
100
AcDbPolyline
90
4
70
1
43
0.0
10
172.9888208306611
20
220.08227637761115
10
172.9888208306611
20
217.08227633290767
10
174.98882086046342
20
217.08227633290767
10
174.98882086046342
20
220.08227637761115
0
LWPOLYLINE
5
173
100
AcDbEntity
8
0
100
AcDbPolyline
90
4
70
1
43
0.0
10
174.98882086046342
20
239.58227637761121
10
174.98882086046342
20
242.58227642231469
10
172.9888208306611
20
242.58227642231469
10
172.9888208306611
20
239.58227637761121
0
LWPOLYLINE
5
174
100
AcDbEntity
8
0
100
AcDbPolyline
90
4
70
1
43
0.0
10
174.98882086046342
20
211.08227637761118
10
172.9888208306611
20
211.08227637761118
10
172.9888208306611
20
208.08227633290767
10
174.98882086046342
20
208.08227633290767
0
LINE
5
175
100
AcDbEntity
8
0
100
AcDbLine
10
210.00000223517418
20
275.58016201011299
30
0
11
170.00000223517418
21
275.58016201011299
31
0
0
LWPOLYLINE
5
176
100
AcDbEntity
8
0
100
AcDbPolyline
90
4
70
1
43
0.0
10
174.98882086046342
20
251.58227642231466
10
172.9888208306611
20
251.58227642231466
10
172.9888208306611
20
248.58227637761118
10
174.98882086046342
20
248.58227637761118
0
LINE
5
177
100
AcDbEntity
8
0
100
AcDbLine
10
170.00000223517418
20
275.58016201011299
30
0
11
210.00000223517418
21
275.58016201011299
31
0
0
CIRCLE
5
178
100
AcDbEntity
8
0
100
AcDbCircle
10
190.00000223517392
20
264.99999999999994
30
0
40
7.5
210
0
220
0
230
1
0
LWPOLYLINE
5
179
100
AcDbEntity
8
0
100
AcDbPolyline
90
4
70
1
43
0.0
10
92.988820830661126
20
197.58227642231464
10
92.988820830661126
20
194.58227637761115
10
94.988820860463449
20
194.58227637761115
10
94.988820860463449
20
197.58227642231464
0
LWPOLYLINE
5
180
100
AcDbEntity
8
0
100
AcDbPolyline
90
4
70
1
43
0.0
10
94.988820860463449
20
190.0822763329077
10
94.988820860463449
20
193.08227637761118
10
92.988820830661126
20
193.08227637761118
10
92.988820830661126
20
190.0822763329077
0
LWPOLYLINE
5
181
100
AcDbEntity
8
0
100
AcDbPolyline
90
4
70
1
43
0.0
10
94.988820860463449
20
199.08227633290767
10
94.988820860463449
20
202.08227637761115
10
92.988820830661126
20
202.08227637761115
10
92.988820830661126
20
199.08227633290767
0
LWPOLYLINE
5
182
100
AcDbEntity
8
0
100
AcDbPolyline
90
4
70
1
43
0.0
10
94.988820860463449
20
203.58227637761115
10
94.988820860463449
20
206.58227642231464
10
92.988820830661126
20
206.58227642231464
10
92.988820830661126
20
203.58227637761115
0
LWPOLYLINE
5
183
100
AcDbEntity
8
0
100
AcDbPolyline
90
4
70
1
43
0.0
10
94.988820860463449
20
190.0822763329077
10
94.988820860463449
20
193.08227637761118
10
92.988820830661126
20
193.08227637761118
10
92.988820830661126
20
190.0822763329077
0
LWPOLYLINE
5
184
100
AcDbEntity
8
0
100
AcDbPolyline
90
4
70
1
43
0.0
10
92.988820830661126
20
206.58227642231464
10
92.988820830661126
20
203.58227637761115
10
94.988820860463449
20
203.58227637761115
10
94.988820860463449
20
206.58227642231464
0
CIRCLE
5
185
100
AcDbEntity
8
0
100
AcDbCircle
10
110.00000223517407
20
125.00000000000006
30
0
40
10
210
0
220
0
230
1
0
LWPOLYLINE
5
186
100
AcDbEntity
8
0
100
AcDbPolyline
90
4
70
1
43
0.0
10
90.000002235174193
20
0
10
90.000002235174179
20
275.58016201011299
10
130.00000223517418
20
275.58016201011299
10
130.00000223517418
20
8.8817841970012523e-15
0
LWPOLYLINE
5
187
100
AcDbEntity
8
0
100
AcDbPolyline
90
4
70
1
43
0.0
10
114.48335023517323
20
20.000000000000007
10
105.48335023517323
20
20.000000000000007
10
105.48335023517323
20
80
10
114.48335023517323
20
80
0
LWPOLYLINE
5
188
100
AcDbEntity
8
0
100
AcDbPolyline
90
8
70
1
43
0.0
10
120.00000223517411
20
50.752440700477379
10
110.00000223517412
20
50.752440700477379
10
110.00000223517412
20
45.752440700477379
10
100.00000223517412
20
45.752440700477379
10
100.00000223517412
20
50.752440700477379
10
110.00000223517412
20
50.752440700477379
10
110.00000223517432
20
45.73431274287276
10
120.00000223517429
20
45.73431274287276
0
LINE
5
189
100
AcDbEntity
8
0
100
AcDbLine
10
95.000002235174037
20
103.50000000000001
30
0
11
125.00000223517404
21
96.500000000000028
31
0
0
LINE
5
190
100
AcDbEntity
8
0
100
AcDbLine
10
95.000002235174037
20
96.500000000000028
30
0
11
125.00000223517404
21
96.500000000000028
31
0
0
LINE
5
191
100
AcDbEntity
8
0
100
AcDbLine
10
125.00000223517404
20
103.50000000000001
30
0
11
95.000002235174037
21
103.50000000000001
31
0
0
LINE
5
192
100
AcDbEntity
8
0
100
AcDbLine
10
125.00000223517404
20
96.500000000000028
30
0
11
125.00000223517404
21
103.50000000000001
31
0
0
LINE
5
193
100
AcDbEntity
8
0
100
AcDbLine
10
125.00000223517404
20
103.50000000000001
30
0
11
95.000002235174037
21
96.500000000000028
31
0
0
LINE
5
194
100
AcDbEntity
8
0
100
AcDbLine
10
95.000002235174037
20
103.50000000000001
30
0
11
95.000002235174037
21
96.500000000000028
31
0
0
CIRCLE
5
195
100
AcDbEntity
8
0
100
AcDbCircle
10
110.00000223517401
20
195.00000000000006
30
0
40
7.5
210
0
220
0
230
1
0
CIRCLE
5
196
100
AcDbEntity
8
0
100
AcDbCircle
10
110.00000223517404
20
160.00000000000006
30
0
40
7.5
210
0
220
0
230
1
0
LWPOLYLINE
5
197
100
AcDbEntity
8
0
100
AcDbPolyline
90
4
70
1
43
0.0
10
94.988820860463449
20
202.08227637761115
10
92.988820830661126
20
202.08227637761115
10
92.988820830661126
20
199.08227633290767
10
94.988820860463449
20
199.08227633290767
0
LWPOLYLINE
5
198
100
AcDbEntity
8
0
100
AcDbPolyline
90
4
70
1
43
0.0
10
92.988820830661126
20
197.58227642231464
10
92.988820830661126
20
194.58227637761115
10
94.988820860463449
20
194.58227637761115
10
94.988820860463449
20
197.58227642231464
0
LWPOLYLINE
5
199
100
AcDbEntity
8
0
100
AcDbPolyline
90
4
70
1
43
0.0
10
94.988820860463449
20
235.0822763329077
10
94.988820860463449
20
238.08227637761121
10
92.988820830661126
20
238.08227637761121
10
92.988820830661126
20
235.0822763329077
0
LWPOLYLINE
5
200
100
AcDbEntity
8
0
100
AcDbPolyline
90
4
70
1
43
0.0
10
94.988820860463449
20
247.08227637761121
10
92.988820830661126
20
247.08227637761121
10
92.988820830661126
20
244.08227633290767
10
94.988820860463449
20
244.08227633290767
0
CIRCLE
5
201
100
AcDbEntity
8
0
100
AcDbCircle
10
110.00000223517398
20
230.00000000000006
30
0
40
8.2499999999999893
210
0
220
0
230
1
0
LWPOLYLINE
5
202
100
AcDbEntity
8
0
100
AcDbPolyline
90
4
70
1
43
0.0
10
92.988820830661126
20
230.58227637761118
10
94.988820860463449
20
230.58227637761118
10
94.988820860463449
20
233.58227642231466
10
92.988820830661126
20
233.58227642231466
0
LWPOLYLINE
5
203
100
AcDbEntity
8
0
100
AcDbPolyline
90
4
70
1
43
0.0
10
94.988820860463449
20
211.08227637761118
10
92.988820830661126
20
211.08227637761118
10
92.988820830661126
20
208.08227633290767
10
94.988820860463449
20
208.08227633290767
0
LWPOLYLINE
5
204
100
AcDbEntity
8
0
100
AcDbPolyline
90
4
70
1
43
0.0
10
94.988820860463449
20
229.08227637761115
10
92.988820830661126
20
229.08227637761115
10
92.988820830661126
20
226.08227633290767
10
94.988820860463449
20
226.08227633290767
0
LWPOLYLINE
5
205
100
AcDbEntity
8
0
100
AcDbPolyline
90
4
70
1
43
0.0
10
94.988820860463449
20
212.58227637761115
10
94.988820860463449
20
215.58227642231464
10
92.988820830661126
20
215.58227642231464
10
92.988820830661126
20
212.58227637761115
0
LWPOLYLINE
5
206
100
AcDbEntity
8
0
100
AcDbPolyline
90
4
70
1
43
0.0
10
92.988820830661126
20
221.58227637761115
10
94.988820860463449
20
221.58227637761115
10
94.988820860463449
20
224.58227642231464
10
92.988820830661126
20
224.58227642231464
0
LWPOLYLINE
5
207
100
AcDbEntity
8
0
100
AcDbPolyline
90
4
70
1
43
0.0
10
92.988820830661126
20
215.58227642231464
10
92.988820830661126
20
212.58227637761115
10
94.988820860463449
20
212.58227637761115
10
94.988820860463449
20
215.58227642231464
0
LWPOLYLINE
5
208
100
AcDbEntity
8
0
100
AcDbPolyline
90
4
70
1
43
0.0
10
92.988820830661126
20
220.08227637761115
10
92.988820830661126
20
217.08227633290767
10
94.988820860463449
20
217.08227633290767
10
94.988820860463449
20
220.08227637761115
0
LWPOLYLINE
5
209
100
AcDbEntity
8
0
100
AcDbPolyline
90
4
70
1
43
0.0
10
94.988820860463449
20
239.58227637761121
10
94.988820860463449
20
242.58227642231469
10
92.988820830661126
20
242.58227642231469
10
92.988820830661126
20
239.58227637761121
0
LWPOLYLINE
5
210
100
AcDbEntity
8
0
100
AcDbPolyline
90
4
70
1
43
0.0
10
94.988820860463449
20
211.08227637761118
10
92.988820830661126
20
211.08227637761118
10
92.988820830661126
20
208.08227633290767
10
94.988820860463449
20
208.08227633290767
0
LWPOLYLINE
5
211
100
AcDbEntity
8
0
100
AcDbPolyline
90
4
70
1
43
0.0
10
94.988820860463449
20
251.58227642231466
10
92.988820830661126
20
251.58227642231466
10
92.988820830661126
20
248.58227637761118
10
94.988820860463449
20
248.58227637761118
0
LINE
5
212
100
AcDbEntity
8
0
100
AcDbLine
10
90.000002235174179
20
275.58016201011299
30
0
11
130.00000223517418
21
275.58016201011299
31
0
0
CIRCLE
5
213
100
AcDbEntity
8
0
100
AcDbCircle
10
110.00000223517395
20
265.00000000000006
30
0
40
7.5
210
0
220
0
230
1
0
LWPOLYLINE
5
214
100
AcDbEntity
8
0
100
AcDbPolyline
90
4
70
1
43
0.0
10
223.98882083066113
20
180.98227642231464
10
223.98882083066113
20
177.98227637761116
10
225.98882086046345
20
177.98227637761116
10
225.98882086046345
20
180.98227642231464
0
LWPOLYLINE
5
215
100
AcDbEntity
8
0
100
AcDbPolyline
90
4
70
1
43
0.0
10
225.98882086046345
20
173.4822763329077
10
225.98882086046345
20
176.48227637761119
10
223.98882083066113
20
176.48227637761119
10
223.98882083066113
20
173.4822763329077
0
LWPOLYLINE
5
216
100
AcDbEntity
8
0
100
AcDbPolyline
90
4
70
1
43
0.0
10
225.98882086046345
20
182.48227633290767
10
225.98882086046345
20
185.48227637761116
10
223.98882083066113
20
185.48227637761116
10
223.98882083066113
20
182.48227633290767
0
LWPOLYLINE
5
217
100
AcDbEntity
8
0
100
AcDbPolyline
90
4
70
1
43
0.0
10
225.98882086046345
20
186.98227637761113
10
225.98882086046345
20
189.98227642231461
10
223.98882083066113
20
189.98227642231461
10
223.98882083066113
20
186.98227637761113
0
LWPOLYLINE
5
218
100
AcDbEntity
8
0
100
AcDbPolyline
90
4
70
1
43
0.0
10
225.98882086046345
20
173.4822763329077
10
225.98882086046345
20
176.48227637761119
10
223.98882083066113
20
176.48227637761119
10
223.98882083066113
20
173.4822763329077
0
LWPOLYLINE
5
219
100
AcDbEntity
8
0
100
AcDbPolyline
90
4
70
1
43
0.0
10
223.98882083066113
20
189.98227642231461
10
223.98882083066113
20
186.98227637761113
10
225.98882086046345
20
186.98227637761113
10
225.98882086046345
20
189.98227642231461
0
LWPOLYLINE
5
220
100
AcDbEntity
8
0
100
AcDbPolyline
90
4
70
1
43
0.0
10
210.00000223517418
20
0
10
210.00000223517418
20
275.58016201011299
10
250.00000223517418
20
275.58016201011299
10
250.00000223517418
20
8.8817841970012523e-15
0
CIRCLE
5
221
100
AcDbEntity
8
0
100
AcDbCircle
10
229.98882083066124
20
31.000000000000071
30
0
40
7.5
210
0
220
0
230
1
0
LWPOLYLINE
5
222
100
AcDbEntity
8
0
100
AcDbPolyline
90
4
70
1
43
0.0
10
225.98882086046345
20
185.48227637761116
10
223.98882083066113
20
185.48227637761116
10
223.98882083066113
20
182.48227633290767
10
225.98882086046345
20
182.48227633290767
0
LWPOLYLINE
5
223
100
AcDbEntity
8
0
100
AcDbPolyline
90
4
70
1
43
0.0
10
223.98882083066113
20
180.98227642231464
10
223.98882083066113
20
177.98227637761116
10
225.98882086046345
20
177.98227637761116
10
225.98882086046345
20
180.98227642231464
0
LWPOLYLINE
5
224
100
AcDbEntity
8
0
100
AcDbPolyline
90
4
70
1
43
0.0
10
225.98882086046345
20
218.4822763329077
10
225.98882086046345
20
221.48227637761121
10
223.98882083066113
20
221.48227637761121
10
223.98882083066113
20
218.4822763329077
0
LWPOLYLINE
5
225
100
AcDbEntity
8
0
100
AcDbPolyline
90
4
70
1
43
0.0
10
225.98882086046345
20
230.48227637761119
10
223.98882083066113
20
230.48227637761119
10
223.98882083066113
20
227.48227633290767
10
225.98882086046345
20
227.48227633290767
0
LWPOLYLINE
5
226
100
AcDbEntity
8
0
100
AcDbPolyline
90
4
70
1
43
0.0
10
223.98882083066113
20
213.98227637761119
10
225.98882086046345
20
213.98227637761119
10
225.98882086046345
20
216.98227642231467
10
223.98882083066113
20
216.98227642231467
0
LWPOLYLINE
5
227
100
AcDbEntity
8
0
100
AcDbPolyline
90
4
70
1
43
0.0
10
225.98882086046345
20
194.48227637761119
10
223.98882083066113
20
194.48227637761119
10
223.98882083066113
20
191.48227633290765
10
225.98882086046345
20
191.48227633290765
0
LWPOLYLINE
5
228
100
AcDbEntity
8
0
100
AcDbPolyline
90
4
70
1
43
0.0
10
225.98882086046345
20
212.48227637761116
10
223.98882083066113
20
212.48227637761116
10
223.98882083066113
20
209.48227633290767
10
225.98882086046345
20
209.48227633290767
0
LWPOLYLINE
5
229
100
AcDbEntity
8
0
100
AcDbPolyline
90
4
70
1
43
0.0
10
225.98882086046345
20
195.98227637761116
10
225.98882086046345
20
198.98227642231464
10
223.98882083066113
20
198.98227642231464
10
223.98882083066113
20
195.98227637761116
0
LWPOLYLINE
5
230
100
AcDbEntity
8
0
100
AcDbPolyline
90
4
70
1
43
0.0
10
223.98882083066113
20
204.98227637761116
10
225.98882086046345
20
204.98227637761116
10
225.98882086046345
20
207.98227642231464
10
223.98882083066113
20
207.98227642231464
0
LWPOLYLINE
5
231
100
AcDbEntity
8
0
100
AcDbPolyline
90
4
70
1
43
0.0
10
223.98882083066113
20
198.98227642231464
10
223.98882083066113
20
195.98227637761116
10
225.98882086046345
20
195.98227637761116
10
225.98882086046345
20
198.98227642231464
0
LWPOLYLINE
5
232
100
AcDbEntity
8
0
100
AcDbPolyline
90
4
70
1
43
0.0
10
223.98882083066113
20
203.48227637761116
10
223.98882083066113
20
200.48227633290767
10
225.98882086046345
20
200.48227633290767
10
225.98882086046345
20
203.48227637761116
0
LWPOLYLINE
5
233
100
AcDbEntity
8
0
100
AcDbPolyline
90
4
70
1
43
0.0
10
225.98882086046345
20
222.98227637761119
10
225.98882086046345
20
225.98227642231467
10
223.98882083066113
20
225.98227642231467
10
223.98882083066113
20
222.98227637761119
0
LWPOLYLINE
5
234
100
AcDbEntity
8
0
100
AcDbPolyline
90
4
70
1
43
0.0
10
225.98882086046345
20
194.48227637761119
10
223.98882083066113
20
194.48227637761119
10
223.98882083066113
20
191.48227633290765
10
225.98882086046345
20
191.48227633290765
0
LWPOLYLINE
5
235
100
AcDbEntity
8
0
100
AcDbPolyline
90
4
70
1
43
0.0
10
225.98882086046345
20
234.98227642231467
10
223.98882083066113
20
234.98227642231467
10
223.98882083066113
20
231.98227637761119
10
225.98882086046345
20
231.98227637761119
0
LINE
5
236
100
AcDbEntity
8
0
100
AcDbLine
10
210.00000223517418
20
275.58016201011299
30
0
11
250.00000223517418
21
275.58016201011299
31
0
0
CIRCLE
5
237
100
AcDbEntity
8
0
100
AcDbCircle
10
229.98882083066115
20
250.00000000000006
30
0
40
7.5
210
0
220
0
230
1
0
LWPOLYLINE
5
238
100
AcDbEntity
8
0
100
AcDbPolyline
90
4
70
1
43
0.0
10
233.98882083066113
20
195.98227637761116
10
235.98882086046345
20
195.98227637761116
10
235.98882086046345
20
198.98227642231464
10
233.98882083066113
20
198.98227642231464
0
LWPOLYLINE
5
239
100
AcDbEntity
8
0
100
AcDbPolyline
90
4
70
1
43
0.0
10
235.98882086046345
20
204.98227637761116
10
235.98882086046345
20
207.98227642231464
10
233.98882083066113
20
207.98227642231464
10
233.98882083066113
20
204.98227637761116
0
LWPOLYLINE
5
240
100
AcDbEntity
8
0
100
AcDbPolyline
90
4
70
1
43
0.0
10
235.98882086046345
20
200.48227633290767
10
235.98882086046345
20
203.48227637761116
10
233.98882083066113
20
203.48227637761116
10
233.98882083066113
20
200.48227633290767
0
LWPOLYLINE
5
241
100
AcDbEntity
8
0
100
AcDbPolyline
90
4
70
1
43
0.0
10
233.98882083066113
20
191.48227633290765
10
235.98882086046345
20
191.48227633290765
10
235.98882086046345
20
194.48227637761119
10
233.98882083066113
20
194.48227637761119
0
LWPOLYLINE
5
242
100
AcDbEntity
8
0
100
AcDbPolyline
90
4
70
1
43
0.0
10
233.98882083066113
20
194.48227637761119
10
233.98882083066113
20
191.48227633290765
10
235.98882086046345
20
191.48227633290765
10
235.98882086046345
20
194.48227637761119
0
LWPOLYLINE
5
243
100
AcDbEntity
8
0
100
AcDbPolyline
90
4
70
1
43
0.0
10
235.98882086046345
20
189.98227642231461
10
233.98882083066113
20
189.98227642231461
10
233.98882083066113
20
186.98227637761113
10
235.98882086046345
20
186.98227637761113
0
LWPOLYLINE
5
244
100
AcDbEntity
8
0
100
AcDbPolyline
90
4
70
1
43
0.0
10
233.98882083066113
20
198.98227642231464
10
233.98882083066113
20
195.98227637761116
10
235.98882086046345
20
195.98227637761116
10
235.98882086046345
20
198.98227642231464
0
LWPOLYLINE
5
245
100
AcDbEntity
8
0
100
AcDbPolyline
90
4
70
1
43
0.0
10
235.98882086046345
20
189.98227642231461
10
233.98882083066113
20
189.98227642231461
10
233.98882083066113
20
186.98227637761113
10
235.98882086046345
20
186.98227637761113
0
LWPOLYLINE
5
246
100
AcDbEntity
8
0
100
AcDbPolyline
90
4
70
1
43
0.0
10
235.98882086046345
20
182.48227633290767
10
235.98882086046345
20
185.48227637761116
10
233.98882083066113
20
185.48227637761116
10
233.98882083066113
20
182.48227633290767
0
LWPOLYLINE
5
247
100
AcDbEntity
8
0
100
AcDbPolyline
90
4
70
1
43
0.0
10
233.98882083066113
20
222.98227637761119
10
235.98882086046345
20
222.98227637761119
10
235.98882086046345
20
225.98227642231467
10
233.98882083066113
20
225.98227642231467
0
LWPOLYLINE
5
248
100
AcDbEntity
8
0
100
AcDbPolyline
90
4
70
1
43
0.0
10
233.98882083066113
20
227.48227633290767
10
235.98882086046345
20
227.48227633290767
10
235.98882086046345
20
230.48227637761119
10
233.98882083066113
20
230.48227637761119
0
LWPOLYLINE
5
249
100
AcDbEntity
8
0
100
AcDbPolyline
90
4
70
1
43
0.0
10
233.98882083066113
20
231.98227637761119
10
235.98882086046345
20
231.98227637761119
10
235.98882086046345
20
234.98227642231467
10
233.98882083066113
20
234.98227642231467
0
LWPOLYLINE
5
250
100
AcDbEntity
8
0
100
AcDbPolyline
90
4
70
1
43
0.0
10
235.98882086046345
20
213.98227637761119
10
235.98882086046345
20
216.98227642231467
10
233.98882083066113
20
216.98227642231467
10
233.98882083066113
20
213.98227637761119
0
LWPOLYLINE
5
251
100
AcDbEntity
8
0
100
AcDbPolyline
90
4
70
1
43
0.0
10
235.98882086046345
20
176.48227637761119
10
233.98882083066113
20
176.48227637761119
10
233.98882083066113
20
173.4822763329077
10
235.98882086046345
20
173.4822763329077
0
LWPOLYLINE
5
252
100
AcDbEntity
8
0
100
AcDbPolyline
90
4
70
1
43
0.0
10
233.98882083066113
20
177.98227637761116
10
235.98882086046345
20
177.98227637761116
10
235.98882086046345
20
180.98227642231464
10
233.98882083066113
20
180.98227642231464
0
LWPOLYLINE
5
253
100
AcDbEntity
8
0
100
AcDbPolyline
90
4
70
1
43
0.0
10
233.98882083066113
20
221.48227637761121
10
233.98882083066113
20
218.4822763329077
10
235.98882086046345
20
218.4822763329077
10
235.98882086046345
20
221.48227637761121
0
LWPOLYLINE
5
254
100
AcDbEntity
8
0
100
AcDbPolyline
90
4
70
1
43
0.0
10
233.98882083066113
20
182.48227633290767
10
235.98882086046345
20
182.48227633290767
10
235.98882086046345
20
185.48227637761116
10
233.98882083066113
20
185.48227637761116
0
LWPOLYLINE
5
255
100
AcDbEntity
8
0
100
AcDbPolyline
90
4
70
1
43
0.0
10
235.98882086046345
20
176.48227637761119
10
233.98882083066113
20
176.48227637761119
10
233.98882083066113
20
173.4822763329077
10
235.98882086046345
20
173.4822763329077
0
LWPOLYLINE
5
256
100
AcDbEntity
8
0
100
AcDbPolyline
90
4
70
1
43
0.0
10
233.98882083066113
20
177.98227637761116
10
235.98882086046345
20
177.98227637761116
10
235.98882086046345
20
180.98227642231464
10
233.98882083066113
20
180.98227642231464
0
LWPOLYLINE
5
257
100
AcDbEntity
8
0
100
AcDbPolyline
90
4
70
1
43
0.0
10
235.98882086046345
20
212.48227637761116
10
233.98882083066113
20
212.48227637761116
10
233.98882083066113
20
209.48227633290767
10
235.98882086046345
20
209.48227633290767
0
LINE
5
258
100
AcDbEntity
8
0
100
AcDbLine
10
229.98882083066115
20
250.00000000000006
30
0
11
229.98882083066124
21
31.000000000000071
31
0
0
CIRCLE
5
259
100
AcDbEntity
8
0
100
AcDbCircle
10
229.98882083066121
20
66.000000000000071
30
0
40
7.5000000000000098
210
0
220
0
230
1
0
LWPOLYLINE
5
260
100
AcDbEntity
8
0
100
AcDbPolyline
90
4
70
1
43
0.0
10
-20.012735270433026
20
150.00374068979676
10
79.987264729566974
20
150.00374068979676
10
79.987264729566974
20
200.00374068979676
10
-20.012735270433026
20
200.00374068979676
0
LWPOLYLINE
5
261
100
AcDbEntity
8
0
100
AcDbPolyline
90
4
70
1
43
0.0
10
-15.512735270433033
20
179.5037406897967
10
0.48726472956694522
20
179.50374068979673
10
0.48726472956694522
20
195.50374068979676
10
-15.512735270432998
20
195.50374068979676
0
LWPOLYLINE
5
262
100
AcDbEntity
8
0
100
AcDbPolyline
90
4
70
1
43
0.0
10
9.4872647295670021
20
179.50374068979673
10
25.487264729566981
20
179.50374068979673
10
25.487264729566981
20
195.50374068979676
10
9.4872647295670021
20
195.50374068979676
0
LWPOLYLINE
5
263
100
AcDbEntity
8
0
100
AcDbPolyline
90
4
70
1
43
0.0
10
34.487264729566967
20
179.50374068979673
10
50.487264729566981
20
179.50374068979673
10
50.487264729566981
20
195.50374068979676
10
34.487264729566967
20
195.50374068979676
0
LWPOLYLINE
5
264
100
AcDbEntity
8
0
100
AcDbPolyline
90
4
70
1
43
0.0
10
59.487264729566967
20
179.50374068979673
10
75.487264729566988
20
179.50374068979673
10
75.487264729566988
20
195.50374068979676
10
59.487264729566967
20
195.50374068979676
0
LWPOLYLINE
5
265
100
AcDbEntity
8
0
100
AcDbPolyline
90
4
70
1
43
0.0
10
-15.512735270432998
20
154.50374068979673
10
0.48726472956694522
20
154.50374068979673
10
0.48726472956694522
20
170.50374068979676
10
-15.512735270432998
20
170.50374068979676
0
LWPOLYLINE
5
266
100
AcDbEntity
8
0
100
AcDbPolyline
90
4
70
1
43
0.0
10
9.4872647295670021
20
154.50374068979673
10
25.487264729566981
20
154.50374068979673
10
25.487264729566981
20
170.50374068979676
10
9.4872647295670021
20
170.50374068979676
0
LWPOLYLINE
5
267
100
AcDbEntity
8
0
100
AcDbPolyline
90
4
70
1
43
0.0
10
34.487264729566967
20
154.50374068979673
10
50.487264729566981
20
154.50374068979673
10
50.487264729566981
20
170.50374068979676
10
34.487264729566967
20
170.50374068979676
0
LWPOLYLINE
5
268
100
AcDbEntity
8
0
100
AcDbPolyline
90
4
70
1
43
0.0
10
59.487264729566967
20
154.50374068979673
10
75.487264729566988
20
154.50374068979673
10
75.487264729566988
20
170.50374068979676
10
59.487264729566967
20
170.50374068979676
0
LWPOLYLINE
5
269
100
AcDbEntity
8
0
100
AcDbPolyline
90
4
70
1
43
0.0
10
80.000000894069672
20
120.00000029802322
10
60.000000894069672
20
120.00000029802322
10
60.000000894069672
20
20.000000298023224
10
80.000000894069672
20
20.000000298023224
0
LWPOLYLINE
5
270
100
AcDbEntity
8
0
100
AcDbPolyline
90
4
70
1
43
0.0
10
-20.076839261231392
20
124.98139227765822
10
79.923160738768615
20
124.98139227765822
10
79.923160738768615
20
144.98139227765822
10
-20.076839261231392
20
144.98139227765822
0
CIRCLE
5
271
100
AcDbEntity
8
0
100
AcDbCircle
10
0
20
35
30
0
40
15.000000000000002
210
0
220
0
230
1
0
CIRCLE
5
272
100
AcDbEntity
8
0
100
AcDbCircle
10
0
20
75
30
0
40
15.000000000000002
210
0
220
0
230
1
0
CIRCLE
5
273
100
AcDbEntity
8
0
100
AcDbCircle
10
-10
20
245
30
0
40
9.9999999999999929
210
0
220
0
230
1
0
LWPOLYLINE
5
274
100
AcDbEntity
8
0
100
AcDbPolyline
90
4
70
1
43
0.0
10
0
20
230
10
-20
20
230
10
-20
20
220
10
0
20
220
0
LWPOLYLINE
5
275
100
AcDbEntity
8
0
100
AcDbPolyline
90
4
70
1
43
0.0
10
0
20
260
10
-20
20
260
10
-20
20
270
10
0
20
270
0
CIRCLE
5
276
100
AcDbEntity
8
0
100
AcDbCircle
10
35
20
265
30
0
40
7.4999999999999876
210
0
220
0
230
1
0
LINE
5
277
100
AcDbEntity
8
0
100
AcDbLine
10
42.5
20
253.5
30
0
11
27.500000000000032
21
253.5
31
0
0
LINE
5
278
100
AcDbEntity
8
0
100
AcDbLine
10
27.500000000000032
20
253.5
30
0
11
27.5
21
246.5
31
0
0
LINE
5
279
100
AcDbEntity
8
0
100
AcDbLine
10
27.5
20
246.5
30
0
11
42.5
21
246.5
31
0
0
LINE
5
280
100
AcDbEntity
8
0
100
AcDbLine
10
42.5
20
246.5
30
0
11
42.5
21
253.5
31
0
0
LINE
5
281
100
AcDbEntity
8
0
100
AcDbLine
10
42.5
20
253.5
30
0
11
27.5
21
246.5
31
0
0
LINE
5
282
100
AcDbEntity
8
0
100
AcDbLine
10
27.500000000000032
20
253.5
30
0
11
42.5
21
246.5
31
0
0
LINE
5
283
100
AcDbEntity
8
0
100
AcDbLine
10
77.5
20
253.5
30
0
11
62.500000000000014
21
253.5
31
0
0
LINE
5
284
100
AcDbEntity
8
0
100
AcDbLine
10
62.5
20
246.5
30
0
11
77.5
21
246.5
31
0
0
LINE
5
285
100
AcDbEntity
8
0
100
AcDbLine
10
77.5
20
253.5
30
0
11
62.5
21
246.5
31
0
0
LINE
5
286
100
AcDbEntity
8
0
100
AcDbLine
10
62.500000000000014
20
253.5
30
0
11
62.5
21
246.5
31
0
0
LINE
5
287
100
AcDbEntity
8
0
100
AcDbLine
10
62.500000000000014
20
253.5
30
0
11
77.5
21
246.5
31
0
0
CIRCLE
5
288
100
AcDbEntity
8
0
100
AcDbCircle
10
70
20
265
30
0
40
7.4999999999999876
210
0
220
0
230
1
0
LINE
5
289
100
AcDbEntity
8
0
100
AcDbLine
10
77.5
20
246.5
30
0
11
77.5
21
253.5
31
0
0
LINE
5
290
100
AcDbEntity
8
0
100
AcDbLine
10
42.5
20
218.5
30
0
11
27.500000000000014
21
218.5
31
0
0
LINE
5
291
100
AcDbEntity
8
0
100
AcDbLine
10
27.5
20
211.5
30
0
11
42.5
21
211.5
31
0
0
LINE
5
292
100
AcDbEntity
8
0
100
AcDbLine
10
42.5
20
218.5
30
0
11
27.5
21
211.5
31
0
0
LINE
5
293
100
AcDbEntity
8
0
100
AcDbLine
10
27.500000000000014
20
218.5
30
0
11
27.5
21
211.5
31
0
0
LINE
5
294
100
AcDbEntity
8
0
100
AcDbLine
10
27.500000000000014
20
218.5
30
0
11
42.5
21
211.5
31
0
0
CIRCLE
5
295
100
AcDbEntity
8
0
100
AcDbCircle
10
35
20
230
30
0
40
7.4999999999999876
210
0
220
0
230
1
0
LINE
5
296
100
AcDbEntity
8
0
100
AcDbLine
10
42.5
20
211.5
30
0
11
42.5
21
218.5
31
0
0
LINE
5
297
100
AcDbEntity
8
0
100
AcDbLine
10
77.5
20
218.5
30
0
11
62.500000000000014
21
218.5
31
0
0
LINE
5
298
100
AcDbEntity
8
0
100
AcDbLine
10
62.5
20
211.5
30
0
11
77.5
21
211.5
31
0
0
LINE
5
299
100
AcDbEntity
8
0
100
AcDbLine
10
77.5
20
218.5
30
0
11
62.5
21
211.5
31
0
0
LINE
5
300
100
AcDbEntity
8
0
100
AcDbLine
10
62.500000000000014
20
218.5
30
0
11
62.5
21
211.5
31
0
0
LINE
5
301
100
AcDbEntity
8
0
100
AcDbLine
10
62.500000000000014
20
218.5
30
0
11
77.5
21
211.5
31
0
0
CIRCLE
5
302
100
AcDbEntity
8
0
100
AcDbCircle
10
70
20
230
30
0
40
7.4999999999999876
210
0
220
0
230
1
0
LINE
5
303
100
AcDbEntity
8
0
100
AcDbLine
10
77.5
20
211.5
30
0
11
77.5
21
218.5
31
0
0
LWPOLYLINE
5
304
100
AcDbEntity
8
0
100
AcDbPolyline
90
4
70
1
43
0.0
10
259.98726472956696
20
200.00374068979676
10
259.98726472956696
20
150.00374068979676
10
359.98726472956696
20
150.00374068979676
10
359.98726472956696
20
200.00374068979676
0
LWPOLYLINE
5
305
100
AcDbEntity
8
0
100
AcDbPolyline
90
4
70
1
43
0.0
10
305.48726472956696
20
154.50374068979673
10
305.48726472956696
20
170.50374068979676
10
289.48726472956702
20
170.50374068979676
10
289.48726472956702
20
154.50374068979673
0
LWPOLYLINE
5
306
100
AcDbEntity
8
0
100
AcDbPolyline
90
4
70
1
43
0.0
10
330.48726472956702
20
170.50374068979676
10
314.48726472956696
20
170.50374068979676
10
314.48726472956696
20
154.50374068979673
10
330.48726472956702
20
154.50374068979673
0
LWPOLYLINE
5
307
100
AcDbEntity
8
0
100
AcDbPolyline
90
4
70
1
43
0.0
10
339.48726472956696
20
154.50374068979673
10
355.48726472956702
20
154.50374068979673
10
355.48726472956702
20
170.50374068979676
10
339.48726472956696
20
170.50374068979676
0
LWPOLYLINE
5
308
100
AcDbEntity
8
0
100
AcDbPolyline
90
4
70
1
43
0.0
10
360.00000089406967
20
120.00000029802322
10
340.00000089406967
20
120.00000029802322
10
340.00000089406967
20
20.000000298023224
10
360.00000089406967
20
20.000000298023224
0
LWPOLYLINE
5
309
100
AcDbEntity
8
0
100
AcDbPolyline
90
4
70
1
43
0.0
10
280.48726472956696
20
154.50374068979673
10
280.48726472956696
20
170.50374068979676
10
264.48726472956702
20
170.50374068979676
10
264.48726472956702
20
154.50374068979673
0
LWPOLYLINE
5
310
100
AcDbEntity
8
0
100
AcDbPolyline
90
4
70
1
43
0.0
10
359.92316073876862
20
124.98139227765822
10
359.92316073876862
20
144.98139227765822
10
259.92316073876862
20
144.98139227765822
10
259.92316073876862
20
124.98139227765822
0
CIRCLE
5
311
100
AcDbEntity
8
0
100
AcDbCircle
10
280
20
35
30
0
40
15.000000000000002
210
0
220
0
230
1
0
LWPOLYLINE
5
312
100
AcDbEntity
8
0
100
AcDbPolyline
90
6
70
1
43
0.0
10
357.5
20
253.5
10
357.5
20
246.5
10
342.49999999999955
20
253.50000000000006
10
342.5
20
246.5
10
357.5
20
253.5
10
342.49999999999955
20
253.50000000000006
0
LWPOLYLINE
5
313
100
AcDbEntity
8
0
100
AcDbPolyline
90
4
70
1
43
0.0
10
260
20
260
10
260
20
270
10
280
20
270
10
280
20
260
0
LWPOLYLINE
5
314
100
AcDbEntity
8
0
100
AcDbPolyline
90
4
70
1
43
0.0
10
305.48726472956696
20
179.50374068979673
10
305.48726472956696
20
195.50374068979676
10
289.48726472956702
20
195.50374068979676
10
289.48726472956702
20
179.50374068979673
0
LWPOLYLINE
5
315
100
AcDbEntity
8
0
100
AcDbPolyline
90
4
70
1
43
0.0
10
280
20
220
10
280
20
230
10
260
20
230
10
260
20
220
0
LWPOLYLINE
5
316
100
AcDbEntity
8
0
100
AcDbPolyline
90
4
70
1
43
0.0
10
355.48726472956702
20
195.50374068979676
10
339.48726472956696
20
195.50374068979676
10
339.48726472956696
20
179.50374068979673
10
355.48726472956702
20
179.50374068979673
0
LWPOLYLINE
5
317
100
AcDbEntity
8
0
100
AcDbPolyline
90
4
70
1
43
0.0
10
280.48726472956696
20
195.50374068979676
10
264.48726472956702
20
195.50374068979676
10
264.48726472956616
20
179.50374068979664
10
280.48726472956696
20
179.50374068979673
0
LWPOLYLINE
5
318
100
AcDbEntity
8
0
100
AcDbPolyline
90
4
70
1
43
0.0
10
314.48726472956696
20
179.50374068979673
10
330.48726472956702
20
179.50374068979673
10
330.48726472956702
20
195.50374068979676
10
314.48726472956696
20
195.50374068979676
0
LINE
5
319
100
AcDbEntity
8
0
100
AcDbLine
10
307.5
20
211.5
30
0
11
322.5
21
211.5
31
0
0
LINE
5
320
100
AcDbEntity
8
0
100
AcDbLine
10
307.49999999999909
20
253.50000000000063
30
0
11
307.5
21
246.5
31
0
0
LINE
5
321
100
AcDbEntity
8
0
100
AcDbLine
10
342.5
20
211.5
30
0
11
357.5
21
211.5
31
0
0
LINE
5
322
100
AcDbEntity
8
0
100
AcDbLine
10
322.5
20
253.5
30
0
11
307.49999999999909
21
253.50000000000063
31
0
0
CIRCLE
5
323
100
AcDbEntity
8
0
100
AcDbCircle
10
350
20
230
30
0
40
7.4999999999999876
210
0
220
0
230
1
0
LINE
5
324
100
AcDbEntity
8
0
100
AcDbLine
10
322.5
20
253.5
30
0
11
307.5
21
246.5
31
0
0
LINE
5
325
100
AcDbEntity
8
0
100
AcDbLine
10
322.5
20
246.5
30
0
11
322.5
21
253.5
31
0
0
CIRCLE
5
326
100
AcDbEntity
8
0
100
AcDbCircle
10
315
20
230
30
0
40
7.4999999999999876
210
0
220
0
230
1
0
LINE
5
327
100
AcDbEntity
8
0
100
AcDbLine
10
307.5
20
246.5
30
0
11
322.5
21
246.5
31
0
0
CIRCLE
5
328
100
AcDbEntity
8
0
100
AcDbCircle
10
315
20
265
30
0
40
7.4999999999999876
210
0
220
0
230
1
0
CIRCLE
5
329
100
AcDbEntity
8
0
100
AcDbCircle
10
270
20
245
30
0
40
9.9999999999999929
210
0
220
0
230
1
0
CIRCLE
5
330
100
AcDbEntity
8
0
100
AcDbCircle
10
350
20
265
30
0
40
7.4999999999999876
210
0
220
0
230
1
0
LINE
5
331
100
AcDbEntity
8
0
100
AcDbLine
10
307.49999999999909
20
253.50000000000063
30
0
11
322.5
21
246.5
31
0
0
LINE
5
332
100
AcDbEntity
8
0
100
AcDbLine
10
357.5
20
218.5
30
0
11
342.49999999999955
21
218.50000000000006
31
0
0
LINE
5
333
100
AcDbEntity
8
0
100
AcDbLine
10
322.5
20
218.5
30
0
11
307.49999999999955
21
218.50000000000006
31
0
0
LINE
5
334
100
AcDbEntity
8
0
100
AcDbLine
10
357.5
20
218.5
30
0
11
342.5
21
211.5
31
0
0
LINE
5
335
100
AcDbEntity
8
0
100
AcDbLine
10
342.49999999999955
20
218.50000000000006
30
0
11
357.5
21
211.5
31
0
0
LINE
5
336
100
AcDbEntity
8
0
100
AcDbLine
10
322.5
20
211.5
30
0
11
322.5
21
218.5
31
0
0
LINE
5
337
100
AcDbEntity
8
0
100
AcDbLine
10
307.49999999999955
20
218.50000000000006
30
0
11
322.5
21
211.5
31
0
0
CIRCLE
5
338
100
AcDbEntity
8
0
100
AcDbCircle
10
280
20
75
30
0
40
15.000000000000002
210
0
220
0
230
1
0
LINE
5
339
100
AcDbEntity
8
0
100
AcDbLine
10
342.49999999999955
20
218.50000000000006
30
0
11
342.5
21
211.5
31
0
0
LINE
5
340
100
AcDbEntity
8
0
100
AcDbLine
10
322.5
20
218.5
30
0
11
307.5
21
211.5
31
0
0
LINE
5
341
100
AcDbEntity
8
0
100
AcDbLine
10
307.49999999999955
20
218.50000000000006
30
0
11
307.5
21
211.5
31
0
0
LINE
5
342
100
AcDbEntity
8
0
100
AcDbLine
10
357.5
20
211.5
30
0
11
357.5
21
218.5
31
0
0
LWPOLYLINE
5
343
100
AcDbEntity
8
0
100
AcDbPolyline
90
4
70
1
43
0.0
10
370
20
0
10
-30
20
0
10
-30
20
280
10
370
20
280
0
ENDSEC
0
SECTION
2
OBJECTS
0
DICTIONARY
5
C
100
AcDbDictionary
3
ACAD_GROUP
350
D
3
ACAD_MLINESTYLE
350
17
0
DICTIONARY
5
D
100
AcDbDictionary
0
DICTIONARY
5
1A
330
C
100
AcDbDictionary
0
DICTIONARY
5
17
100
AcDbDictionary
0
ENDSEC
0
EOF
