999
dxflib 3.17.0.0
  0
SECTION
  2
HEADER
  9
$ACADVER
  1
AC1015
  9
$HANDSEED
  5
FFFF
  9
$DIMADEC
 70
0
  9
$DIMASZ
 40
2.5
  9
$DIMAUNIT
 70
3
  9
$DIMAZIN
 70
2
  9
$DIMDEC
 70
2
  9
$DIMDLI
 40
5.0
  9
$DIMDSEP
 70
46
  9
$DIMEXE
 40
1.25
  9
$DIMEXO
 40
0.625
  9
$DIMGAP
 40
0.625
  9
$DIMLUNIT
 70
2
  9
$DIMSCALE
 40
1.0
  9
$DIMTSZ
 40
0.0
  9
$DIMTXT
 40
2.5
  9
$DIMZIN
 70
8
  9
$DWGCODEPAGE
  3
ANSI_1252
  9
$INSUNITS
 70
4
  9
$LTSCALE
 40
1.0
  9
$MAXACTVP
 70
64
  9
$MEASUREMENT
 70
1
  9
$MIRRTEXT
 70
0
  9
$PDMODE
 70
0
  9
$PDSIZE
 40
0.0
  0
ENDSEC
  0
SECTION
  2
TABLES
  0
TABLE
  2
VPORT
  5
8
100
AcDbSymbolTable
 70
1
  0
VPORT
  5
30
100
AcDbSymbolTableRecord
100
AcDbViewportTableRecord
  2
*Active
 70
0
 10
0.0
 20
0.0
 11
1.0
 21
1.0
 12
286.3055555555554861
 22
148.5
 13
0.0
 23
0.0
 14
10.0
 24
10.0
 15
10.0
 25
10.0
 16
0.0
 26
0.0
 36
1.0
 17
0.0
 27
0.0
 37
0.0
 40
297.0
 41
1.92798353909465
 42
50.0
 43
0.0
 44
0.0
 50
0.0
 51
0.0
 71
0
 72
100
 73
1
 74
3
 75
1
 76
1
 77
0
 78
0
281
0
 65
1
110
0.0
120
0.0
130
0.0
111
1.0
121
0.0
131
0.0
112
0.0
122
1.0
132
0.0
 79
0
146
0.0
  0
ENDTAB
  0
TABLE
  2
LTYPE
  5
5
100
AcDbSymbolTable
 70
41
  0
LTYPE
  5
16
100
AcDbSymbolTableRecord
100
AcDbLinetypeTableRecord
  2
Continuous
 70
0
  3
Solid line
 72
65
 73
0
 40
0.0
  0
LTYPE
  5
31
100
AcDbSymbolTableRecord
100
AcDbLinetypeTableRecord
  2
ACAD_ISO09W100
 70
0
  3
ISO long-dash double-short-dash ____ __ __ ____
 72
65
 73
6
 40
45.0
 49
24.0
 74
0
 49
-3.0
 74
0
 49
6.0
 74
0
 49
-3.0
 74
0
 49
6.0
 74
0
 49
-3.0
 74
0
  0
LTYPE
  5
32
100
AcDbSymbolTableRecord
100
AcDbLinetypeTableRecord
  2
HIDDEN
 70
0
  3
Hidden __ __ __ __ __ __ __ __ __ __ __ __ __ __
 72
65
 73
2
 40
9.5249999999999986
 49
6.3499999999999996
 74
0
 49
-3.1749999999999998
 74
0
  0
LTYPE
  5
33
100
AcDbSymbolTableRecord
100
AcDbLinetypeTableRecord
  2
DOT
 70
0
  3
Dot . . . . . . . . . . . . . . . . . . . . . . . .
 72
65
 73
2
 40
6.3499999999999996
 49
0.1
 74
0
 49
-6.25
 74
0
  0
LTYPE
  5
34
100
AcDbSymbolTableRecord
100
AcDbLinetypeTableRecord
  2
DASHEDX2
 70
0
  3
Dashed (2x) ____  ____  ____  ____  ____  ___
 72
65
 73
2
 40
38.0999999999999943
 49
25.3999999999999986
 74
0
 49
-12.6999999999999993
 74
0
  0
LTYPE
  5
35
100
AcDbSymbolTableRecord
100
AcDbLinetypeTableRecord
  2
DASHDOT
 70
0
  3
Dash dot __ . __ . __ . __ . __ . __ . __ . __
 72
65
 73
4
 40
25.4000000000000021
 49
12.6999999999999993
 74
0
 49
-6.2999999999999998
 74
0
 49
0.1
 74
0
 49
-6.2999999999999998
 74
0
  0
LTYPE
  5
36
100
AcDbSymbolTableRecord
100
AcDbLinetypeTableRecord
  2
CENTER
 70
0
  3
Center ____ _ ____ _ ____ _ ____ _ ____ _ ____
 72
65
 73
4
 40
50.8000000000000043
 49
31.75
 74
0
 49
-6.3499999999999996
 74
0
 49
6.3499999999999996
 74
0
 49
-6.3499999999999996
 74
0
  0
LTYPE
  5
37
100
AcDbSymbolTableRecord
100
AcDbLinetypeTableRecord
  2
ACAD_ISO13W100
 70
0
  3
ISO double-dash double-dot __ __ . . __ __ . . _
 72
65
 73
8
 40
36.0000000000000071
 49
12.0
 74
0
 49
-3.0
 74
0
 49
12.0
 74
0
 49
-2.9500000000000002
 74
0
 49
0.1
 74
0
 49
-2.9000000000000004
 74
0
 49
0.1
 74
0
 49
-2.9500000000000002
 74
0
  0
LTYPE
  5
38
100
AcDbSymbolTableRecord
100
AcDbLinetypeTableRecord
  2
ACAD_ISO04W100
 70
0
  3
ISO long-dash dot ____ . ____ . ____ . ____ . _
 72
65
 73
4
 40
30.0
 49
24.0
 74
0
 49
-2.9500000000000002
 74
0
 49
0.1
 74
0
 49
-2.9500000000000002
 74
0
  0
LTYPE
  5
39
100
AcDbSymbolTableRecord
100
AcDbLinetypeTableRecord
  2
ACAD_ISO15W100
 70
0
  3
ISO double-dash triple-dot __ __ . . . __ __ . .
 72
65
 73
10
 40
39.0000000000000071
 49
12.0
 74
0
 49
-3.0
 74
0
 49
12.0
 74
0
 49
-2.9500000000000002
 74
0
 49
0.1
 74
0
 49
-2.9000000000000004
 74
0
 49
0.1
 74
0
 49
-2.9000000000000004
 74
0
 49
0.1
 74
0
 49
-2.9500000000000002
 74
0
  0
LTYPE
  5
3A
100
AcDbSymbolTableRecord
100
AcDbLinetypeTableRecord
  2
ACAD_ISO08W100
 70
0
  3
ISO long-dash short-dash ____ __ ____ __ ____ _
 72
65
 73
4
 40
36.0
 49
24.0
 74
0
 49
-3.0
 74
0
 49
6.0
 74
0
 49
-3.0
 74
0
  0
LTYPE
  5
3B
100
AcDbSymbolTableRecord
100
AcDbLinetypeTableRecord
  2
BORDER
 70
0
  3
Border __ __ . __ __ . __ __ . __ __ . __ __ .
 72
65
 73
6
 40
44.4499999999999957
 49
12.6999999999999993
 74
0
 49
-6.3499999999999996
 74
0
 49
12.6999999999999993
 74
0
 49
-6.2999999999999998
 74
0
 49
0.1
 74
0
 49
-6.2999999999999998
 74
0
  0
LTYPE
  5
3C
100
AcDbSymbolTableRecord
100
AcDbLinetypeTableRecord
  2
DIVIDEX2
 70
0
  3
Divide (2x) ________  .  .  ________  .  .  _
 72
65
 73
6
 40
63.5
 49
25.3999999999999986
 74
0
 49
-12.6499999999999986
 74
0
 49
0.1
 74
0
 49
-12.5999999999999979
 74
0
 49
0.1
 74
0
 49
-12.6499999999999986
 74
0
  0
LTYPE
  5
3D
100
AcDbSymbolTableRecord
100
AcDbLinetypeTableRecord
  2
ACAD_ISO02W100
 70
0
  3
ISO dash __ __ __ __ __ __ __ __ __ __ __ __ __
 72
65
 73
2
 40
15.0
 49
12.0
 74
0
 49
-3.0
 74
0
  0
LTYPE
  5
3E
100
AcDbSymbolTableRecord
100
AcDbLinetypeTableRecord
  2
PHANTOMX2
 70
0
  3
Phantom (2x) ____________    ____    ____   _
 72
65
 73
6
 40
127.0000000000000142
 49
63.5
 74
0
 49
-12.6999999999999993
 74
0
 49
12.6999999999999993
 74
0
 49
-12.6999999999999993
 74
0
 49
12.6999999999999993
 74
0
 49
-12.6999999999999993
 74
0
  0
LTYPE
  5
3F
100
AcDbSymbolTableRecord
100
AcDbLinetypeTableRecord
  2
ACAD_ISO07W100
 70
0
  3
ISO dot . . . . . . . . . . . . . . . . . . . . 
 72
65
 73
2
 40
3.0
 49
0.1
 74
0
 49
-2.8999999999999999
 74
0
  0
LTYPE
  5
40
100
AcDbSymbolTableRecord
100
AcDbLinetypeTableRecord
  2
DASHDOT2
 70
0
  3
Dash dot (.5x) _._._._._._._._._._._._._._._.
 72
65
 73
4
 40
12.6999999999999993
 49
6.3499999999999996
 74
0
 49
-3.125
 74
0
 49
0.1
 74
0
 49
-3.125
 74
0
  0
LTYPE
  5
41
100
AcDbSymbolTableRecord
100
AcDbLinetypeTableRecord
  2
CENTERX2
 70
0
  3
Center (2x) ________  __  ________  __  _____
 72
65
 73
4
 40
101.6000000000000085
 49
63.5
 74
0
 49
-12.6999999999999993
 74
0
 49
12.6999999999999993
 74
0
 49
-12.6999999999999993
 74
0
  0
LTYPE
  5
42
100
AcDbSymbolTableRecord
100
AcDbLinetypeTableRecord
  2
DIVIDE
 70
0
  3
Divide ____ . . ____ . . ____ . . ____ . . ____
 72
65
 73
6
 40
31.7500000000000036
 49
12.6999999999999993
 74
0
 49
-6.2999999999999998
 74
0
 49
0.1
 74
0
 49
-6.25
 74
0
 49
0.1
 74
0
 49
-6.2999999999999998
 74
0
  0
LTYPE
  5
43
100
AcDbSymbolTableRecord
100
AcDbLinetypeTableRecord
  2
DIVIDE2
 70
0
  3
Divide (.5x) __..__..__..__..__..__..__..__.._
 72
65
 73
6
 40
15.8749999999999982
 49
6.3499999999999996
 74
0
 49
-3.125
 74
0
 49
0.1
 74
0
 49
-3.0750000000000002
 74
0
 49
0.1
 74
0
 49
-3.125
 74
0
  0
LTYPE
  5
44
100
AcDbSymbolTableRecord
100
AcDbLinetypeTableRecord
  2
ACAD_ISO12W100
 70
0
  3
ISO dash double-dot __ . . __ . . __ . . __ . . 
 72
65
 73
6
 40
21.0
 49
12.0
 74
0
 49
-2.9500000000000002
 74
0
 49
0.1
 74
0
 49
-2.9000000000000004
 74
0
 49
0.1
 74
0
 49
-2.9500000000000002
 74
0
  0
LTYPE
  5
45
100
AcDbSymbolTableRecord
100
AcDbLinetypeTableRecord
  2
PHANTOM
 70
0
  3
Phantom ______  __  __  ______  __  __  ______ 
 72
65
 73
6
 40
63.5000000000000071
 49
31.75
 74
0
 49
-6.3499999999999996
 74
0
 49
6.3499999999999996
 74
0
 49
-6.3499999999999996
 74
0
 49
6.3499999999999996
 74
0
 49
-6.3499999999999996
 74
0
  0
LTYPE
  5
46
100
AcDbSymbolTableRecord
100
AcDbLinetypeTableRecord
  2
BORDER2
 70
0
  3
Border (.5x) __.__.__.__.__.__.__.__.__.__.__.
 72
65
 73
6
 40
22.2250000000000014
 49
6.3499999999999996
 74
0
 49
-3.1749999999999998
 74
0
 49
6.3499999999999996
 74
0
 49
-3.125
 74
0
 49
0.1
 74
0
 49
-3.125
 74
0
  0
LTYPE
  5
47
100
AcDbSymbolTableRecord
100
AcDbLinetypeTableRecord
  2
ACAD_ISO03W100
 70
0
  3
ISO dash space __    __    __    __    __    __
 72
65
 73
2
 40
30.0
 49
12.0
 74
0
 49
-18.0
 74
0
  0
LTYPE
  5
48
100
AcDbSymbolTableRecord
100
AcDbLinetypeTableRecord
  2
BORDERX2
 70
0
  3
Border (2x) ____  ____  .  ____  ____  .  ___
 72
65
 73
6
 40
88.8999999999999773
 49
25.3999999999999986
 74
0
 49
-12.6999999999999993
 74
0
 49
25.3999999999999986
 74
0
 49
-12.6499999999999986
 74
0
 49
0.1
 74
0
 49
-12.6499999999999986
 74
0
  0
LTYPE
  5
15
100
AcDbSymbolTableRecord
100
AcDbLinetypeTableRecord
  2
BYLAYER
 70
0
  3

 72
65
 73
0
 40
0.0
  0
LTYPE
  5
49
100
AcDbSymbolTableRecord
100
AcDbLinetypeTableRecord
  2
DASHDOTX2
 70
0
  3
Dash dot (2x) ____  .  ____  .  ____  .  ___
 72
65
 73
4
 40
50.7999999999999972
 49
25.3999999999999986
 74
0
 49
-12.6499999999999986
 74
0
 49
0.1
 74
0
 49
-12.6499999999999986
 74
0
  0
LTYPE
  5
4A
100
AcDbSymbolTableRecord
100
AcDbLinetypeTableRecord
  2
ACAD_ISO11W100
 70
0
  3
ISO double-dash dot __ __ . __ __ . __ __ . __ _
 72
65
 73
6
 40
33.0
 49
12.0
 74
0
 49
-3.0
 74
0
 49
12.0
 74
0
 49
-2.9500000000000002
 74
0
 49
0.1
 74
0
 49
-2.9500000000000002
 74
0
  0
LTYPE
  5
4B
100
AcDbSymbolTableRecord
100
AcDbLinetypeTableRecord
  2
ACAD_ISO05W100
 70
0
  3
ISO long-dash double-dot ____ .. ____ .. ____ . 
 72
65
 73
6
 40
33.0000000000000071
 49
24.0
 74
0
 49
-2.9500000000000002
 74
0
 49
0.1
 74
0
 49
-2.9000000000000004
 74
0
 49
0.1
 74
0
 49
-2.9500000000000002
 74
0
  0
LTYPE
  5
14
100
AcDbSymbolTableRecord
100
AcDbLinetypeTableRecord
  2
BYBLOCK
 70
0
  3

 72
65
 73
0
 40
0.0
  0
LTYPE
  5
4C
100
AcDbSymbolTableRecord
100
AcDbLinetypeTableRecord
  2
DASHED2
 70
0
  3
Dashed (.5x) _ _ _ _ _ _ _ _ _ _ _ _ _ _ _ _ _ 
 72
65
 73
2
 40
9.5249999999999986
 49
6.3499999999999996
 74
0
 49
-3.1749999999999998
 74
0
  0
LTYPE
  5
4D
100
AcDbSymbolTableRecord
100
AcDbLinetypeTableRecord
  2
DASHED
 70
0
  3
Dashed __ __ __ __ __ __ __ __ __ __ __ __ __ _
 72
65
 73
2
 40
19.0499999999999972
 49
12.6999999999999993
 74
0
 49
-6.3499999999999996
 74
0
  0
LTYPE
  5
4E
100
AcDbSymbolTableRecord
100
AcDbLinetypeTableRecord
  2
CENTER2
 70
0
  3
Center (.5x) ___ _ ___ _ ___ _ ___ _ ___ _ ___
 72
65
 73
4
 40
28.5750000000000028
 49
19.0500000000000007
 74
0
 49
-3.1749999999999998
 74
0
 49
3.1749999999999998
 74
0
 49
-3.1749999999999998
 74
0
  0
LTYPE
  5
4F
100
AcDbSymbolTableRecord
100
AcDbLinetypeTableRecord
  2
HIDDENX2
 70
0
  3
Hidden (2x) ____ ____ ____ ____ ____ ____ ____ 
 72
65
 73
2
 40
19.0499999999999972
 49
12.6999999999999993
 74
0
 49
-6.3499999999999996
 74
0
  0
LTYPE
  5
50
100
AcDbSymbolTableRecord
100
AcDbLinetypeTableRecord
  2
ACAD_ISO10W100
 70
0
  3
ISO dash dot __ . __ . __ . __ . __ . __ . __ . 
 72
65
 73
4
 40
18.0
 49
12.0
 74
0
 49
-2.9500000000000002
 74
0
 49
0.1
 74
0
 49
-2.9500000000000002
 74
0
  0
LTYPE
  5
51
100
AcDbSymbolTableRecord
100
AcDbLinetypeTableRecord
  2
HIDDEN2
 70
0
  3
Hidden (.5x) _ _ _ _ _ _ _ _ _ _ _ _ _ _ _ _ _ 
 72
65
 73
2
 40
4.7624999999999993
 49
3.1749999999999998
 74
0
 49
-1.5874999999999999
 74
0
  0
LTYPE
  5
52
100
AcDbSymbolTableRecord
100
AcDbLinetypeTableRecord
  2
PHANTOM2
 70
0
  3
Phantom (.5x) ___ _ _ ___ _ _ ___ _ _ ___ _ _
 72
65
 73
6
 40
31.7500000000000036
 49
15.875
 74
0
 49
-3.1749999999999998
 74
0
 49
3.1749999999999998
 74
0
 49
-3.1749999999999998
 74
0
 49
3.1749999999999998
 74
0
 49
-3.1749999999999998
 74
0
  0
LTYPE
  5
53
100
AcDbSymbolTableRecord
100
AcDbLinetypeTableRecord
  2
ACAD_ISO06W100
 70
0
  3
ISO long-dash triple-dot ____ ... ____ ... ____
 72
65
 73
8
 40
36.0000000000000071
 49
24.0
 74
0
 49
-2.9500000000000002
 74
0
 49
0.1
 74
0
 49
-2.9000000000000004
 74
0
 49
0.1
 74
0
 49
-2.9000000000000004
 74
0
 49
0.1
 74
0
 49
-2.9500000000000002
 74
0
  0
LTYPE
  5
54
100
AcDbSymbolTableRecord
100
AcDbLinetypeTableRecord
  2
ACAD_ISO14W100
 70
0
  3
ISO dash triple-dot __ . . . __ . . . __ . . . _
 72
65
 73
8
 40
24.0000000000000036
 49
12.0
 74
0
 49
-2.9500000000000002
 74
0
 49
0.1
 74
0
 49
-2.9000000000000004
 74
0
 49
0.1
 74
0
 49
-2.9000000000000004
 74
0
 49
0.1
 74
0
 49
-2.9500000000000002
 74
0
  0
LTYPE
  5
55
100
AcDbSymbolTableRecord
100
AcDbLinetypeTableRecord
  2
DOTX2
 70
0
  3
Dot (2x) .  .  .  .  .  .  .  .  .  .  .  .  .  .
 72
65
 73
2
 40
12.6999999999999993
 49
0.1
 74
0
 49
-12.5999999999999996
 74
0
  0
LTYPE
  5
56
100
AcDbSymbolTableRecord
100
AcDbLinetypeTableRecord
  2
DOT2
 70
0
  3
Dot (.5x) ........................................
 72
65
 73
2
 40
3.1749999999999998
 49
0.1
 74
0
 49
-3.0749999999999997
 74
0
  0
ENDTAB
  0
TABLE
  2
LAYER
  5
2
100
AcDbSymbolTable
 70
4
  0
LAYER
  5
57
100
AcDbSymbolTableRecord
100
AcDbLayerTableRecord
  2
layer 3
 70
4
 62
7
420
16777215
  6
Continuous
370
25
390
F
  0
LAYER
  5
58
100
AcDbSymbolTableRecord
100
AcDbLayerTableRecord
  2
layer 1
 70
0
 62
7
420
0
  6
Continuous
370
25
390
F
  0
LAYER
  5
10
100
AcDbSymbolTableRecord
100
AcDbLayerTableRecord
  2
0
 70
4
 62
7
420
16777215
  6
Continuous
370
25
390
F
  0
LAYER
  5
59
100
AcDbSymbolTableRecord
100
AcDbLayerTableRecord
  2
LinearPattern001
 70
4
 62
7
420
16777215
  6
Continuous
370
5
390
F
  0
ENDTAB
  0
TABLE
  2
STYLE
  5
3
100
AcDbSymbolTable
 70
6
  0
STYLE
  5
5A
100
AcDbSymbolTableRecord
100
AcDbTextStyleTableRecord
  2
Standard
 70
0
 40
0.0
 41
1.0
 50
0.0
 71
0
 42
2.5
  3

  4

1001
ACAD
1000
txt
1071
0
  0
STYLE
  5
5B
100
AcDbSymbolTableRecord
100
AcDbTextStyleTableRecord
  2
textstyle0
 70
0
 40
0.0
 41
1.0
 50
0.0
 71
0
 42
3.0
  3

  4

1001
ACAD
1000
Liberation Sans
1071
0
  0
STYLE
  5
5C
100
AcDbSymbolTableRecord
100
AcDbTextStyleTableRecord
  2
textstyle1
 70
0
 40
0.0
 41
1.0
 50
0.0
 71
0
 42
3.0
  3

  4

1001
ACAD
1000
Liberation Sans
1071
0
  0
STYLE
  5
5D
100
AcDbSymbolTableRecord
100
AcDbTextStyleTableRecord
  2
textstyle2
 70
0
 40
0.0
 41
1.0
 50
0.0
 71
0
 42
3.0
  3

  4

1001
ACAD
1000
Liberation Sans
1071
0
  0
STYLE
  5
5E
100
AcDbSymbolTableRecord
100
AcDbTextStyleTableRecord
  2
textstyle3
 70
0
 40
0.0
 41
1.0
 50
0.0
 71
0
 42
3.0
  3

  4

1001
ACAD
1000
Liberation Sans
1071
0
  0
STYLE
  5
5F
100
AcDbSymbolTableRecord
100
AcDbTextStyleTableRecord
  2
textstyle4
 70
0
 40
0.0
 41
1.0
 50
0.0
 71
0
 42
5.0
  3

  4

1001
ACAD
1000
Liberation Sans
1071
0
  0
ENDTAB
  0
TABLE
  2
VIEW
  5
6
100
AcDbSymbolTable
 70
0
  0
ENDTAB
  0
TABLE
  2
UCS
  5
7
100
AcDbSymbolTable
 70
0
  0
ENDTAB
  0
TABLE
  2
APPID
  5
9
100
AcDbSymbolTable
 70
1
  0
APPID
  5
12
100
AcDbSymbolTableRecord
100
AcDbRegAppTableRecord
  2
ACAD
 70
0
  0
APPID
  5
60
100
AcDbSymbolTableRecord
100
AcDbRegAppTableRecord
  2
QCAD
 70
0
  0
ENDTAB
  0
TABLE
  2
DIMSTYLE
  5
A
100
AcDbSymbolTable
 70
1
100
AcDbDimStyleTable
 71
0
  0
DIMSTYLE
105
27
100
AcDbSymbolTableRecord
100
AcDbDimStyleTableRecord
  2
Standard
 41
2.5
 42
0.625
 43
3.75
 44
1.25
 70
0
 73
0
 74
0
 77
1
 78
8
140
2.5
141
2.5
143
0.03937007874016
147
0.625
171
3
172
1
271
2
272
2
274
3
278
44
283
0
284
8
340
5A
  0
ENDTAB
  0
TABLE
  2
BLOCK_RECORD
  5
1
100
AcDbSymbolTable
 70
1
  0
BLOCK_RECORD
  5
1F
100
AcDbSymbolTableRecord
100
AcDbBlockTableRecord
  2
*Model_Space
340
22
  0
BLOCK_RECORD
  5
1B
100
AcDbSymbolTableRecord
100
AcDbBlockTableRecord
  2
*Paper_Space
340
1E
  0
BLOCK_RECORD
  5
23
100
AcDbSymbolTableRecord
100
AcDbBlockTableRecord
  2
*Paper_Space0
340
26
  0
BLOCK_RECORD
  5
61
100
AcDbSymbolTableRecord
100
AcDbBlockTableRecord
  2
block browser
340
0
  0
BLOCK_RECORD
  5
62
100
AcDbSymbolTableRecord
100
AcDbBlockTableRecord
  2
leds
340
0
  0
BLOCK_RECORD
  5
63
100
AcDbSymbolTableRecord
100
AcDbBlockTableRecord
  2
block FX
340
0
  0
BLOCK_RECORD
  5
64
100
AcDbSymbolTableRecord
100
AcDbBlockTableRecord
  2
block trillbar
340
0
  0
BLOCK_RECORD
  5
65
100
AcDbSymbolTableRecord
100
AcDbBlockTableRecord
  2
block 1
340
0
  0
BLOCK_RECORD
  5
66
100
AcDbSymbolTableRecord
100
AcDbBlockTableRecord
  2
block deck
340
0
  0
BLOCK_RECORD
  5
67
100
AcDbSymbolTableRecord
100
AcDbBlockTableRecord
  2
arduino mega
340
0
  0
ENDTAB
  0
ENDSEC
  0
SECTION
  2
BLOCKS
  0
BLOCK
  5
20
100
AcDbEntity
  8
0
100
AcDbBlockBegin
  2
*Model_Space
 70
0
 10
0.0
 20
0.0
 30
0.0
  3
*Model_Space
  1

  0
ENDBLK
  5
21
100
AcDbEntity
  8
0
100
AcDbBlockEnd
  0
BLOCK
  5
1C
100
AcDbEntity
 67
1
  8
0
100
AcDbBlockBegin
  2
*Paper_Space
 70
0
 10
0.0
 20
0.0
 30
0.0
  3
*Paper_Space
  1

  0
ENDBLK
  5
1D
100
AcDbEntity
 67
1
  8
0
100
AcDbBlockEnd
  0
BLOCK
  5
24
100
AcDbEntity
  8
0
100
AcDbBlockBegin
  2
*Paper_Space0
 70
0
 10
0.0
 20
0.0
 30
0.0
  3
*Paper_Space0
  1

  0
ENDBLK
  5
25
100
AcDbEntity
  8
0
100
AcDbBlockEnd
  0
BLOCK
  5
68
100
AcDbEntity
  8
0
100
AcDbBlockBegin
  2
block browser
 70
0
 10
0.0
 20
0.0
 30
0.0
  3
block browser
  1

  0
LWPOLYLINE
  5
69
100
AcDbEntity
  8
layer 1
 62
6
420
16711935
370
-1
 48
1.0
  6
BYLAYER
100
AcDbPolyline
 90
2
 70
129
 10
0.5
 20
0.0
 42
0.9999999999999999
 10
-0.5
 20
0.0000000000000001
 42
0.9999999999999999
  0
LWPOLYLINE
  5
6A
100
AcDbEntity
  8
layer 1
 62
6
420
16711935
370
-1
 48
1.0
  6
BYLAYER
100
AcDbPolyline
 90
2
 70
129
 10
8.0
 20
0.0
 42
0.9999999999999999
 10
-8.0
 20
0.000000000000001
 42
0.9999999999999999
  0
LINE
  5
6B
100
AcDbEntity
  8
layer 1
 62
30
420
16744192
370
-1
 48
1.0
  6
BYLAYER
100
AcDbLine
 10
-40.0
 20
-5.0
 30
0.0
 11
-24.0
 21
-5.0
 31
0.0
  0
LINE
  5
6C
100
AcDbEntity
  8
layer 1
 62
30
420
16744192
370
-1
 48
1.0
  6
BYLAYER
100
AcDbLine
 10
24.0
 20
-5.0
 30
0.0
 11
40.0
 21
-5.0
 31
0.0
  0
LINE
  5
6D
100
AcDbEntity
  8
layer 1
 62
30
420
16744192
370
-1
 48
1.0
  6
BYLAYER
100
AcDbLine
 10
-24.0
 20
-5.0
 30
0.0
 11
-24.0
 21
5.0
 31
0.0
  0
LINE
  5
6E
100
AcDbEntity
  8
layer 1
 62
30
420
16744192
370
-1
 48
1.0
  6
BYLAYER
100
AcDbLine
 10
40.0
 20
-5.0
 30
0.0
 11
40.0
 21
5.0
 31
0.0
  0
LINE
  5
6F
100
AcDbEntity
  8
layer 1
 62
30
420
16744192
370
-1
 48
1.0
  6
BYLAYER
100
AcDbLine
 10
-24.0
 20
5.0
 30
0.0
 11
-40.0
 21
5.0
 31
0.0
  0
LINE
  5
70
100
AcDbEntity
  8
layer 1
 62
30
420
16744192
370
-1
 48
1.0
  6
BYLAYER
100
AcDbLine
 10
40.0
 20
5.0
 30
0.0
 11
24.0
 21
5.0
 31
0.0
  0
LINE
  5
71
100
AcDbEntity
  8
layer 1
 62
30
420
16744192
370
-1
 48
1.0
  6
BYLAYER
100
AcDbLine
 10
-40.0
 20
5.0
 30
0.0
 11
-40.0
 21
-5.0
 31
0.0
  0
LINE
  5
72
100
AcDbEntity
  8
layer 1
 62
30
420
16744192
370
-1
 48
1.0
  6
BYLAYER
100
AcDbLine
 10
24.0
 20
5.0
 30
0.0
 11
24.0
 21
-5.0
 31
0.0
  0
ENDBLK
  5
73
100
AcDbEntity
  8
0
100
AcDbBlockEnd
  0
BLOCK
  5
74
100
AcDbEntity
  8
0
100
AcDbBlockBegin
  2
leds
 70
0
 10
0.0
 20
0.0
 30
0.0
  3
leds
  1

  0
CIRCLE
  5
75
100
AcDbEntity
  8
layer 1
 62
1
420
16711680
370
-1
 48
1.0
  6
BYLAYER
100
AcDbCircle
 10
0.0
 20
0.0
 30
0.0
 40
1.5
  0
CIRCLE
  5
76
100
AcDbEntity
  8
layer 1
 62
1
420
16711680
370
-1
 48
1.0
  6
BYLAYER
100
AcDbCircle
 10
0.0
 20
5.0
 30
0.0
 40
1.5
  0
CIRCLE
  5
77
100
AcDbEntity
  8
layer 1
 62
1
420
16711680
370
-1
 48
1.0
  6
BYLAYER
100
AcDbCircle
 10
0.0
 20
10.0
 30
0.0
 40
1.5
  0
CIRCLE
  5
78
100
AcDbEntity
  8
layer 1
 62
1
420
16711680
370
-1
 48
1.0
  6
BYLAYER
100
AcDbCircle
 10
0.0
 20
15.0
 30
0.0
 40
1.5
  0
CIRCLE
  5
79
100
AcDbEntity
  8
layer 1
 62
1
420
16711680
370
-1
 48
1.0
  6
BYLAYER
100
AcDbCircle
 10
0.0
 20
20.0
 30
0.0
 40
1.5
  0
CIRCLE
  5
7A
100
AcDbEntity
  8
layer 1
 62
1
420
16711680
370
-1
 48
1.0
  6
BYLAYER
100
AcDbCircle
 10
0.0
 20
25.0
 30
0.0
 40
1.5
  0
CIRCLE
  5
7B
100
AcDbEntity
  8
layer 1
 62
1
420
16711680
370
-1
 48
1.0
  6
BYLAYER
100
AcDbCircle
 10
0.0
 20
30.0
 30
0.0
 40
1.5
  0
CIRCLE
  5
7C
100
AcDbEntity
  8
layer 1
 62
1
420
16711680
370
-1
 48
1.0
  6
BYLAYER
100
AcDbCircle
 10
0.0
 20
35.0
 30
0.0
 40
1.5
  0
ENDBLK
  5
7D
100
AcDbEntity
  8
0
100
AcDbBlockEnd
  0
BLOCK
  5
7E
100
AcDbEntity
  8
0
100
AcDbBlockBegin
  2
block FX
 70
0
 10
0.0
 20
0.0
 30
0.0
  3
block FX
  1

  0
CIRCLE
  5
7F
100
AcDbEntity
  8
layer 1
 62
2
420
16776960
370
-1
 48
1.0
  6
BYLAYER
100
AcDbCircle
 10
84.0
 20
23.0
 30
0.0
 40
0.5
  0
CIRCLE
  5
80
100
AcDbEntity
  8
layer 1
 62
2
420
16776960
370
-1
 48
1.0
  6
BYLAYER
100
AcDbCircle
 10
42.0
 20
23.0
 30
0.0
 40
0.5
  0
CIRCLE
  5
81
100
AcDbEntity
  8
layer 1
 62
2
420
16776960
370
-1
 48
1.0
  6
BYLAYER
100
AcDbCircle
 10
1.0
 20
23.0
 30
0.0
 40
0.5
  0
CIRCLE
  5
82
100
AcDbEntity
  8
layer 1
 62
2
420
16776960
370
-1
 48
1.0
  6
BYLAYER
100
AcDbCircle
 10
84.0
 20
23.0
 30
0.0
 40
7.0
  0
CIRCLE
  5
83
100
AcDbEntity
  8
layer 1
 62
2
420
16776960
370
-1
 48
1.0
  6
BYLAYER
100
AcDbCircle
 10
42.0
 20
23.0
 30
0.0
 40
7.0
  0
CIRCLE
  5
84
100
AcDbEntity
  8
layer 1
 62
2
420
16776960
370
-1
 48
1.0
  6
BYLAYER
100
AcDbCircle
 10
1.0
 20
23.0
 30
0.0
 40
7.0
  0
LINE
  5
85
100
AcDbEntity
  8
layer 1
 62
30
420
16744192
370
-1
 48
1.0
  6
BYLAYER
100
AcDbLine
 10
-7.0
 20
0.0
 30
0.0
 11
9.0
 21
0.0
 31
0.0
  0
LINE
  5
86
100
AcDbEntity
  8
layer 1
 62
30
420
16744192
370
-1
 48
1.0
  6
BYLAYER
100
AcDbLine
 10
9.0
 20
0.0
 30
0.0
 11
9.0
 21
10.0
 31
0.0
  0
LINE
  5
87
100
AcDbEntity
  8
layer 1
 62
30
420
16744192
370
-1
 48
1.0
  6
BYLAYER
100
AcDbLine
 10
9.0
 20
10.0
 30
0.0
 11
-7.0
 21
10.0
 31
0.0
  0
LINE
  5
88
100
AcDbEntity
  8
layer 1
 62
30
420
16744192
370
-1
 48
1.0
  6
BYLAYER
100
AcDbLine
 10
-7.0
 20
10.0
 30
0.0
 11
-7.0
 21
0.0
 31
0.0
  0
LINE
  5
89
100
AcDbEntity
  8
layer 1
 62
30
420
16744192
370
-1
 48
1.0
  6
BYLAYER
100
AcDbLine
 10
34.0
 20
0.0
 30
0.0
 11
50.0
 21
0.0
 31
0.0
  0
LINE
  5
8A
100
AcDbEntity
  8
layer 1
 62
30
420
16744192
370
-1
 48
1.0
  6
BYLAYER
100
AcDbLine
 10
50.0
 20
0.0
 30
0.0
 11
50.0
 21
10.0
 31
0.0
  0
LINE
  5
8B
100
AcDbEntity
  8
layer 1
 62
30
420
16744192
370
-1
 48
1.0
  6
BYLAYER
100
AcDbLine
 10
50.0
 20
10.0
 30
0.0
 11
34.0
 21
10.0
 31
0.0
  0
LINE
  5
8C
100
AcDbEntity
  8
layer 1
 62
30
420
16744192
370
-1
 48
1.0
  6
BYLAYER
100
AcDbLine
 10
34.0
 20
10.0
 30
0.0
 11
34.0
 21
0.0
 31
0.0
  0
LINE
  5
8D
100
AcDbEntity
  8
layer 1
 62
30
420
16744192
370
-1
 48
1.0
  6
BYLAYER
100
AcDbLine
 10
76.0
 20
0.0
 30
0.0
 11
92.0
 21
0.0
 31
0.0
  0
LINE
  5
8E
100
AcDbEntity
  8
layer 1
 62
30
420
16744192
370
-1
 48
1.0
  6
BYLAYER
100
AcDbLine
 10
92.0
 20
0.0
 30
0.0
 11
92.0
 21
10.0
 31
0.0
  0
LINE
  5
8F
100
AcDbEntity
  8
layer 1
 62
30
420
16744192
370
-1
 48
1.0
  6
BYLAYER
100
AcDbLine
 10
92.0
 20
10.0
 30
0.0
 11
76.0
 21
10.0
 31
0.0
  0
LINE
  5
90
100
AcDbEntity
  8
layer 1
 62
30
420
16744192
370
-1
 48
1.0
  6
BYLAYER
100
AcDbLine
 10
76.0
 20
10.0
 30
0.0
 11
76.0
 21
0.0
 31
0.0
  0
ENDBLK
  5
91
100
AcDbEntity
  8
0
100
AcDbBlockEnd
  0
BLOCK
  5
92
100
AcDbEntity
  8
0
100
AcDbBlockBegin
  2
block trillbar
 70
0
 10
0.0
 20
0.0
 30
0.0
  3
block trillbar
  1

  0
LINE
  5
93
100
AcDbEntity
  8
layer 1
 62
4
420
65535
370
-1
 48
1.0
  6
BYLAYER
100
AcDbLine
 10
-50.0
 20
-10.0
 30
0.0
 11
50.0
 21
-10.0
 31
0.0
  0
LINE
  5
94
100
AcDbEntity
  8
layer 1
 62
4
420
65535
370
-1
 48
1.0
  6
BYLAYER
100
AcDbLine
 10
50.0
 20
-10.0
 30
0.0
 11
50.0
 21
10.0
 31
0.0
  0
LINE
  5
95
100
AcDbEntity
  8
layer 1
 62
4
420
65535
370
-1
 48
1.0
  6
BYLAYER
100
AcDbLine
 10
50.0
 20
10.0
 30
0.0
 11
-50.0
 21
10.0
 31
0.0
  0
LINE
  5
96
100
AcDbEntity
  8
layer 1
 62
4
420
65535
370
-1
 48
1.0
  6
BYLAYER
100
AcDbLine
 10
-50.0
 20
10.0
 30
0.0
 11
-50.0
 21
-10.0
 31
0.0
  0
MTEXT
  5
97
100
AcDbEntity
  8
layer 1
 62
4
420
65535
370
-1
 48
1.0
  6
BYLAYER
100
AcDbMText
 10
0.0
 20
0.0
 30
0.0
 40
3.0
 41
0.0
 71
5
 72
1
  1
TRILLBAR
  7
textstyle3
 50
0.0
 73
2
 44
1.0
  0
ENDBLK
  5
98
100
AcDbEntity
  8
0
100
AcDbBlockEnd
  0
BLOCK
  5
99
100
AcDbEntity
  8
0
100
AcDbBlockBegin
  2
block 1
 70
0
 10
0.0
 20
0.0
 30
0.0
  3
block 1
  1

  0
LINE
  5
9A
100
AcDbEntity
  8
layer 1
 62
6
420
16711935
370
-1
 48
1.0
  6
BYLAYER
100
AcDbLine
 10
0.0
 20
0.0
 30
0.0
 11
100.0
 21
0.0
 31
0.0
  0
LINE
  5
9B
100
AcDbEntity
  8
layer 1
 62
6
420
16711935
370
-1
 48
1.0
  6
BYLAYER
100
AcDbLine
 10
100.0
 20
0.0
 30
0.0
 11
100.0
 21
50.0
 31
0.0
  0
LINE
  5
9C
100
AcDbEntity
  8
layer 1
 62
6
420
16711935
370
-1
 48
1.0
  6
BYLAYER
100
AcDbLine
 10
100.0
 20
50.0
 30
0.0
 11
0.0
 21
50.0
 31
0.0
  0
LINE
  5
9D
100
AcDbEntity
  8
layer 1
 62
6
420
16711935
370
-1
 48
1.0
  6
BYLAYER
100
AcDbLine
 10
0.0
 20
50.0
 30
0.0
 11
0.0
 21
0.0
 31
0.0
  0
MTEXT
  5
9E
100
AcDbEntity
  8
layer 1
 62
6
420
16711935
370
-1
 48
1.0
  6
BYLAYER
100
AcDbMText
 10
50.0
 20
25.0
 30
0.0
 40
5.0
 41
0.0
 71
5
 72
1
  1
PADS
  7
textstyle4
 50
0.0
 73
2
 44
1.0
  0
ENDBLK
  5
9F
100
AcDbEntity
  8
0
100
AcDbBlockEnd
  0
BLOCK
  5
A0
100
AcDbEntity
  8
0
100
AcDbBlockBegin
  2
block deck
 70
0
 10
0.0
 20
0.0
 30
0.0
  3
block deck
  1

  0
INSERT
  5
A1
100
AcDbEntity
  8
layer 1
 62
6
420
16711935
370
-1
 48
1.0
  6
BYLAYER
100
AcDbBlockReference
  2
block 1
 10
-100.0
 20
-5.0
 30
0.0
  0
CIRCLE
  5
A2
100
AcDbEntity
  8
layer 1
 62
2
420
16776960
370
-1
 48
1.0
  6
BYLAYER
100
AcDbCircle
 10
-9.0
 20
105.0
 30
0.0
 40
0.5
  0
CIRCLE
  5
A3
100
AcDbEntity
  8
layer 1
 62
2
420
16776960
370
-1
 48
1.0
  6
BYLAYER
100
AcDbCircle
 10
-49.9999999999999929
 20
104.9999999999999858
 30
0.0
 40
0.5
  0
LWPOLYLINE
  5
A4
100
AcDbEntity
  8
layer 1
 62
6
420
16711935
370
-1
 48
1.0
  6
BYLAYER
100
AcDbPolyline
 90
2
 70
129
 10
-49.5
 20
77.0
 42
0.9999999999999999
 10
-50.5
 20
77.0
 42
0.9999999999999999
  0
CIRCLE
  5
A5
100
AcDbEntity
  8
layer 1
 62
2
420
16776960
370
-1
 48
1.0
  6
BYLAYER
100
AcDbCircle
 10
-92.0
 20
105.0
 30
0.0
 40
0.5
  0
CIRCLE
  5
A6
100
AcDbEntity
  8
layer 1
 62
2
420
16776960
370
-1
 48
1.0
  6
BYLAYER
100
AcDbCircle
 10
-9.0
 20
105.0
 30
0.0
 40
7.0
  0
CIRCLE
  5
A7
100
AcDbEntity
  8
layer 1
 62
2
420
16776960
370
-1
 48
1.0
  6
BYLAYER
100
AcDbCircle
 10
-49.9999999999999929
 20
104.9999999999999858
 30
0.0
 40
7.0
  0
LWPOLYLINE
  5
A8
100
AcDbEntity
  8
layer 1
 62
6
420
16711935
370
-1
 48
1.0
  6
BYLAYER
100
AcDbPolyline
 90
2
 70
129
 10
-42.0
 20
77.0
 42
0.9999999999999999
 10
-58.0
 20
77.0
 42
0.9999999999999999
  0
CIRCLE
  5
A9
100
AcDbEntity
  8
layer 1
 62
2
420
16776960
370
-1
 48
1.0
  6
BYLAYER
100
AcDbCircle
 10
-92.0
 20
105.0
 30
0.0
 40
7.0
  0
CIRCLE
  5
AA
100
AcDbEntity
  8
layer 1
 62
30
420
16744192
370
-1
 48
1.0
  6
BYLAYER
100
AcDbCircle
 10
-81.0
 20
-62.5
 30
0.0
 40
12.5
  0
CIRCLE
  5
AB
100
AcDbEntity
  8
layer 1
 62
30
420
16744192
370
-1
 48
1.0
  6
BYLAYER
100
AcDbCircle
 10
-81.0
 20
-92.5
 30
0.0
 40
12.5
  0
MTEXT
  5
AC
100
AcDbEntity
  8
layer 1
 62
30
420
16744192
370
-1
 48
1.0
  6
BYLAYER
100
AcDbMText
 10
-81.0
 20
-62.5
 30
0.0
 40
3.0
 41
0.0
 71
5
 72
1
  1
CUE
  7
textstyle0
 50
0.0
 73
2
 44
1.0
  0
MTEXT
  5
AD
100
AcDbEntity
  8
layer 1
 62
30
420
16744192
370
-1
 48
1.0
  6
BYLAYER
100
AcDbMText
 10
-81.0
 20
-92.5
 30
0.0
 40
3.0
 41
0.0
 71
5
 72
1
  1
PLAY
  7
textstyle1
 50
0.0
 73
2
 44
1.0
  0
LINE
  5
AE
100
AcDbEntity
  8
layer 1
 62
6
420
16711935
370
-1
 48
1.0
  6
BYLAYER
100
AcDbLine
 10
-21.0
 20
-113.0
 30
0.0
 11
-11.0
 21
-113.0
 31
0.0
  0
LINE
  5
AF
100
AcDbEntity
  8
layer 1
 62
6
420
16711935
370
-1
 48
1.0
  6
BYLAYER
100
AcDbLine
 10
-11.0
 20
-113.0
 30
0.0
 11
-11.0
 21
-38.0
 31
0.0
  0
LINE
  5
B0
100
AcDbEntity
  8
layer 1
 62
6
420
16711935
370
-1
 48
1.0
  6
BYLAYER
100
AcDbLine
 10
-11.0
 20
-38.0
 30
0.0
 11
-21.0
 21
-38.0
 31
0.0
  0
LINE
  5
B1
100
AcDbEntity
  8
layer 1
 62
6
420
16711935
370
-1
 48
1.0
  6
BYLAYER
100
AcDbLine
 10
-21.0
 20
-38.0
 30
0.0
 11
-21.0
 21
-113.0
 31
0.0
  0
LINE
  5
B2
100
AcDbEntity
  8
layer 1
 62
30
420
16744192
370
-1
 48
1.0
  6
BYLAYER
100
AcDbLine
 10
-47.0
 20
-48.0
 30
0.0
 11
-31.0
 21
-48.0
 31
0.0
  0
LINE
  5
B3
100
AcDbEntity
  8
layer 1
 62
30
420
16744192
370
-1
 48
1.0
  6
BYLAYER
100
AcDbLine
 10
-31.0
 20
-48.0
 30
0.0
 11
-31.0
 21
-38.0
 31
0.0
  0
LINE
  5
B4
100
AcDbEntity
  8
layer 1
 62
30
420
16744192
370
-1
 48
1.0
  6
BYLAYER
100
AcDbLine
 10
-31.0
 20
-38.0
 30
0.0
 11
-47.0
 21
-38.0
 31
0.0
  0
LINE
  5
B5
100
AcDbEntity
  8
layer 1
 62
30
420
16744192
370
-1
 48
1.0
  6
BYLAYER
100
AcDbLine
 10
-47.0
 20
-38.0
 30
0.0
 11
-47.0
 21
-48.0
 31
0.0
  0
LINE
  5
B6
100
AcDbEntity
  8
layer 1
 62
30
420
16744192
370
-1
 48
1.0
  6
BYLAYER
100
AcDbLine
 10
-47.0
 20
-62.0
 30
0.0
 11
-31.0
 21
-62.0
 31
0.0
  0
LINE
  5
B7
100
AcDbEntity
  8
layer 1
 62
30
420
16744192
370
-1
 48
1.0
  6
BYLAYER
100
AcDbLine
 10
-31.0
 20
-62.0
 30
0.0
 11
-31.0
 21
-52.0
 31
0.0
  0
LINE
  5
B8
100
AcDbEntity
  8
layer 1
 62
30
420
16744192
370
-1
 48
1.0
  6
BYLAYER
100
AcDbLine
 10
-31.0
 20
-52.0
 30
0.0
 11
-47.0
 21
-52.0
 31
0.0
  0
LINE
  5
B9
100
AcDbEntity
  8
layer 1
 62
30
420
16744192
370
-1
 48
1.0
  6
BYLAYER
100
AcDbLine
 10
-47.0
 20
-52.0
 30
0.0
 11
-47.0
 21
-62.0
 31
0.0
  0
LINE
  5
BA
100
AcDbEntity
  8
layer 1
 62
30
420
16744192
370
-1
 48
1.0
  6
BYLAYER
100
AcDbLine
 10
-47.0
 20
-113.0
 30
0.0
 11
-31.0
 21
-113.0
 31
0.0
  0
LINE
  5
BB
100
AcDbEntity
  8
layer 1
 62
30
420
16744192
370
-1
 48
1.0
  6
BYLAYER
100
AcDbLine
 10
-31.0
 20
-113.0
 30
0.0
 11
-31.0
 21
-103.0
 31
0.0
  0
LINE
  5
BC
100
AcDbEntity
  8
layer 1
 62
30
420
16744192
370
-1
 48
1.0
  6
BYLAYER
100
AcDbLine
 10
-31.0
 20
-103.0
 30
0.0
 11
-47.0
 21
-103.0
 31
0.0
  0
LINE
  5
BD
100
AcDbEntity
  8
layer 1
 62
30
420
16744192
370
-1
 48
1.0
  6
BYLAYER
100
AcDbLine
 10
-47.0
 20
-103.0
 30
0.0
 11
-47.0
 21
-113.0
 31
0.0
  0
LINE
  5
BE
100
AcDbEntity
  8
layer 1
 62
30
420
16744192
370
-1
 48
1.0
  6
BYLAYER
100
AcDbLine
 10
-100.0
 20
118.0
 30
0.0
 11
-84.0
 21
118.0
 31
0.0
  0
LINE
  5
BF
100
AcDbEntity
  8
layer 1
 62
30
420
16744192
370
-1
 48
1.0
  6
BYLAYER
100
AcDbLine
 10
-84.0
 20
118.0
 30
0.0
 11
-84.0
 21
128.0
 31
0.0
  0
LINE
  5
C0
100
AcDbEntity
  8
layer 1
 62
30
420
16744192
370
-1
 48
1.0
  6
BYLAYER
100
AcDbLine
 10
-84.0
 20
128.0
 30
0.0
 11
-100.0
 21
128.0
 31
0.0
  0
LINE
  5
C1
100
AcDbEntity
  8
layer 1
 62
30
420
16744192
370
-1
 48
1.0
  6
BYLAYER
100
AcDbLine
 10
-100.0
 20
128.0
 30
0.0
 11
-100.0
 21
118.0
 31
0.0
  0
LINE
  5
C2
100
AcDbEntity
  8
layer 1
 62
30
420
16744192
370
-1
 48
1.0
  6
BYLAYER
100
AcDbLine
 10
-58.0
 20
118.0
 30
0.0
 11
-42.0
 21
118.0
 31
0.0
  0
LINE
  5
C3
100
AcDbEntity
  8
layer 1
 62
30
420
16744192
370
-1
 48
1.0
  6
BYLAYER
100
AcDbLine
 10
-42.0
 20
118.0
 30
0.0
 11
-42.0
 21
128.0
 31
0.0
  0
LINE
  5
C4
100
AcDbEntity
  8
layer 1
 62
30
420
16744192
370
-1
 48
1.0
  6
BYLAYER
100
AcDbLine
 10
-42.0
 20
128.0
 30
0.0
 11
-58.0
 21
128.0
 31
0.0
  0
LINE
  5
C5
100
AcDbEntity
  8
layer 1
 62
30
420
16744192
370
-1
 48
1.0
  6
BYLAYER
100
AcDbLine
 10
-58.0
 20
128.0
 30
0.0
 11
-58.0
 21
118.0
 31
0.0
  0
LINE
  5
C6
100
AcDbEntity
  8
layer 1
 62
30
420
16744192
370
-1
 48
1.0
  6
BYLAYER
100
AcDbLine
 10
-17.0
 20
118.0
 30
0.0
 11
-1.0
 21
118.0
 31
0.0
  0
LINE
  5
C7
100
AcDbEntity
  8
layer 1
 62
30
420
16744192
370
-1
 48
1.0
  6
BYLAYER
100
AcDbLine
 10
-1.0
 20
118.0
 30
0.0
 11
-1.0
 21
128.0
 31
0.0
  0
LINE
  5
C8
100
AcDbEntity
  8
layer 1
 62
30
420
16744192
370
-1
 48
1.0
  6
BYLAYER
100
AcDbLine
 10
-1.0
 20
128.0
 30
0.0
 11
-17.0
 21
128.0
 31
0.0
  0
LINE
  5
C9
100
AcDbEntity
  8
layer 1
 62
30
420
16744192
370
-1
 48
1.0
  6
BYLAYER
100
AcDbLine
 10
-17.0
 20
128.0
 30
0.0
 11
-17.0
 21
118.0
 31
0.0
  0
INSERT
  5
CA
100
AcDbEntity
  8
layer 1
 62
256
370
-1
 48
1.0
  6
BYLAYER
100
AcDbBlockReference
  2
block trillbar
 10
-50.0
 20
-20.0
 30
0.0
  0
ENDBLK
  5
CB
100
AcDbEntity
  8
0
100
AcDbBlockEnd
  0
BLOCK
  5
CC
100
AcDbEntity
  8
0
100
AcDbBlockBegin
  2
arduino mega
 70
0
 10
0.0
 20
0.0
 30
0.0
  3
arduino mega
  1

  0
LINE
  5
CD
100
AcDbEntity
  8
LinearPattern001
 62
5
420
255
370
-1
 48
1.0
  6
BYLAYER
100
AcDbLine
 10
-26.5824999999999818
 20
50.7275000000000205
 30
0.0
 11
-26.5824999999999818
 21
50.7275000000000205
 31
0.0
  0
LINE
  5
CE
100
AcDbEntity
  8
LinearPattern001
 62
5
420
255
370
-1
 48
1.0
  6
BYLAYER
100
AcDbLine
 10
26.5824999999999818
 20
50.7275000000000205
 30
0.0
 11
26.5824999999999818
 21
50.7275000000000205
 31
0.0
  0
LINE
  5
CF
100
AcDbEntity
  8
LinearPattern001
 62
5
420
255
370
-1
 48
1.0
  6
BYLAYER
100
AcDbLine
 10
-26.5824999999999818
 20
50.7275000000000205
 30
0.0
 11
26.5824999999999818
 21
50.7275000000000205
 31
0.0
  0
LINE
  5
D0
100
AcDbEntity
  8
LinearPattern001
 62
5
420
255
370
-1
 48
1.0
  6
BYLAYER
100
AcDbLine
 10
-26.5824999999999818
 20
50.7275000000000205
 30
0.0
 11
26.5824999999999818
 21
50.7275000000000205
 31
0.0
  0
LINE
  5
D1
100
AcDbEntity
  8
LinearPattern001
 62
5
420
255
370
-1
 48
1.0
  6
BYLAYER
100
AcDbLine
 10
-26.5825000000000387
 20
-48.1905000000000143
 30
0.0
 11
-26.5825000000000387
 21
-48.1905000000000143
 31
0.0
  0
LINE
  5
D2
100
AcDbEntity
  8
LinearPattern001
 62
5
420
255
370
-1
 48
1.0
  6
BYLAYER
100
AcDbLine
 10
-26.5824999999999818
 20
50.7275000000000205
 30
0.0
 11
-26.5824999999999818
 21
50.7275000000000205
 31
0.0
  0
LINE
  5
D3
100
AcDbEntity
  8
LinearPattern001
 62
5
420
255
370
-1
 48
1.0
  6
BYLAYER
100
AcDbLine
 10
-26.5825000000000387
 20
-48.1905000000000143
 30
0.0
 11
-26.5824999999999818
 21
50.7275000000000205
 31
0.0
  0
LINE
  5
D4
100
AcDbEntity
  8
LinearPattern001
 62
5
420
255
370
-1
 48
1.0
  6
BYLAYER
100
AcDbLine
 10
-26.5825000000000387
 20
-48.1905000000000143
 30
0.0
 11
-26.5824999999999818
 21
50.7275000000000205
 31
0.0
  0
LINE
  5
D5
100
AcDbEntity
  8
LinearPattern001
 62
5
420
255
370
-1
 48
1.0
  6
BYLAYER
100
AcDbLine
 10
26.5824999999999818
 20
50.7275000000000205
 30
0.0
 11
26.5824999999999818
 21
50.7275000000000205
 31
0.0
  0
LINE
  5
D6
100
AcDbEntity
  8
LinearPattern001
 62
5
420
255
370
-1
 48
1.0
  6
BYLAYER
100
AcDbLine
 10
26.5824999999999818
 20
-45.6905000000000427
 30
0.0
 11
26.5824999999999818
 21
-45.6905000000000427
 31
0.0
  0
LINE
  5
D7
100
AcDbEntity
  8
LinearPattern001
 62
5
420
255
370
-1
 48
1.0
  6
BYLAYER
100
AcDbLine
 10
26.5824999999999818
 20
50.7275000000000205
 30
0.0
 11
26.5824999999999818
 21
-45.6905000000000427
 31
0.0
  0
LINE
  5
D8
100
AcDbEntity
  8
LinearPattern001
 62
5
420
255
370
-1
 48
1.0
  6
BYLAYER
100
AcDbLine
 10
26.5824999999999818
 20
50.7275000000000205
 30
0.0
 11
26.5824999999999818
 21
-45.6905000000000427
 31
0.0
  0
LINE
  5
D9
100
AcDbEntity
  8
LinearPattern001
 62
5
420
255
370
-1
 48
1.0
  6
BYLAYER
100
AcDbLine
 10
-26.5824999999999818
 20
50.7275000000000205
 30
0.0
 11
26.5824999999999818
 21
50.7275000000000205
 31
0.0
  0
LINE
  5
DA
100
AcDbEntity
  8
LinearPattern001
 62
5
420
255
370
-1
 48
1.0
  6
BYLAYER
100
AcDbLine
 10
-26.5825000000000387
 20
-48.1905000000000143
 30
0.0
 11
-26.5824999999999818
 21
50.7275000000000205
 31
0.0
  0
LINE
  5
DB
100
AcDbEntity
  8
LinearPattern001
 62
5
420
255
370
-1
 48
1.0
  6
BYLAYER
100
AcDbLine
 10
26.5824999999999818
 20
50.7275000000000205
 30
0.0
 11
26.5824999999999818
 21
-45.6905000000000427
 31
0.0
  0
LINE
  5
DC
100
AcDbEntity
  8
LinearPattern001
 62
5
420
255
370
-1
 48
1.0
  6
BYLAYER
100
AcDbLine
 10
-25.3224999999999909
 20
-48.1905000000000427
 30
0.0
 11
-26.5825000000000387
 21
-48.1905000000000143
 31
0.0
  0
LINE
  5
DD
100
AcDbEntity
  8
LinearPattern001
 62
5
420
255
370
-1
 48
1.0
  6
BYLAYER
100
AcDbLine
 10
26.5824999999999818
 20
-45.6905000000000427
 30
0.0
 11
24.0824999999999818
 21
-48.1905000000000427
 31
0.0
  0
LINE
  5
DE
100
AcDbEntity
  8
LinearPattern001
 62
5
420
255
370
-1
 48
1.0
  6
BYLAYER
100
AcDbLine
 10
-22.8245000000000005
 20
-50.7274999999999636
 30
0.0
 11
-25.3224999999999909
 21
-48.1905000000000427
 31
0.0
  0
LINE
  5
DF
100
AcDbEntity
  8
LinearPattern001
 62
5
420
255
370
-1
 48
1.0
  6
BYLAYER
100
AcDbLine
 10
24.0824999999999818
 20
-48.1905000000000427
 30
0.0
 11
13.8824999999999932
 21
-48.1905000000000427
 31
0.0
  0
LINE
  5
E0
100
AcDbEntity
  8
LinearPattern001
 62
5
420
255
370
-1
 48
1.0
  6
BYLAYER
100
AcDbLine
 10
11.3454999999999018
 20
-50.7274999999999636
 30
0.0
 11
-22.8245000000000005
 21
-50.7274999999999636
 31
0.0
  0
LINE
  5
E1
100
AcDbEntity
  8
LinearPattern001
 62
5
420
255
370
-1
 48
1.0
  6
BYLAYER
100
AcDbLine
 10
13.8824999999999932
 20
-48.1905000000000427
 30
0.0
 11
11.3454999999999018
 21
-50.7274999999999636
 31
0.0
  0
CIRCLE
  5
E2
100
AcDbEntity
  8
LinearPattern001
 62
5
420
255
370
-1
 48
1.0
  6
BYLAYER
100
AcDbCircle
 10
8.8439999999999941
 20
-15.1000000000000227
 30
0.0
 40
1.6000000000000001
  0
CIRCLE
  5
E3
100
AcDbEntity
  8
LinearPattern001
 62
5
420
255
370
-1
 48
1.0
  6
BYLAYER
100
AcDbCircle
 10
-19.0999999999999659
 20
-15.1000000000000227
 30
0.0
 40
1.6000000000000001
  0
CIRCLE
  5
E4
100
AcDbEntity
  8
LinearPattern001
 62
5
420
255
370
-1
 48
1.0
  6
BYLAYER
100
AcDbCircle
 10
-24.1800000000000068
 20
-45.5800000000000409
 30
0.0
 40
1.6000000000000001
  0
CIRCLE
  5
E5
100
AcDbEntity
  8
LinearPattern001
 62
5
420
255
370
-1
 48
1.0
  6
BYLAYER
100
AcDbCircle
 10
24.0840000000000032
 20
35.6963999999999828
 30
0.0
 40
1.6000000000000001
  0
CIRCLE
  5
E6
100
AcDbEntity
  8
LinearPattern001
 62
5
420
255
370
-1
 48
1.0
  6
BYLAYER
100
AcDbCircle
 10
-24.1759999999999309
 20
36.9660000000000082
 30
0.0
 40
1.6000000000000001
  0
CIRCLE
  5
E7
100
AcDbEntity
  8
LinearPattern001
 62
5
420
255
370
-1
 48
1.0
  6
BYLAYER
100
AcDbCircle
 10
24.0840000000000032
 20
-39.2340000000000373
 30
0.0
 40
1.6000000000000001
  0
CIRCLE
  5
E8
100
AcDbEntity
  8
LinearPattern001
 62
5
420
255
370
-1
 48
1.0
  6
BYLAYER
100
AcDbCircle
 10
-18.410000000000025
 20
39.25
 30
0.0
 40
1.6499999999999999
  0
CIRCLE
  5
E9
100
AcDbEntity
  8
LinearPattern001
 62
5
420
255
370
-1
 48
1.0
  6
BYLAYER
100
AcDbCircle
 10
-18.4099999999999682
 20
45.25
 30
0.0
 40
1.6499999999999999
  0
CIRCLE
  5
EA
100
AcDbEntity
  8
LinearPattern001
 62
5
420
255
370
-1
 48
1.0
  6
BYLAYER
100
AcDbCircle
 10
-23.3866999999999621
 20
42.2434000000000083
 30
0.0
 40
1.6499999999999999
  0
CIRCLE
  5
EB
100
AcDbEntity
  8
LinearPattern001
 62
5
420
255
370
-1
 48
1.0
  6
BYLAYER
100
AcDbCircle
 10
5.3799999999999386
 20
47.1299999999999955
 30
0.0
 40
1.1000000000000001
  0
CIRCLE
  5
EC
100
AcDbEntity
  8
LinearPattern001
 62
5
420
255
370
-1
 48
1.0
  6
BYLAYER
100
AcDbCircle
 10
12.6399999999999864
 20
42.4200000000000159
 30
0.0
 40
0.475
  0
CIRCLE
  5
ED
100
AcDbEntity
  8
LinearPattern001
 62
5
420
255
370
-1
 48
1.0
  6
BYLAYER
100
AcDbCircle
 10
10.1399999999999864
 20
42.4200000000000159
 30
0.0
 40
0.475
  0
CIRCLE
  5
EE
100
AcDbEntity
  8
LinearPattern001
 62
5
420
255
370
-1
 48
1.0
  6
BYLAYER
100
AcDbCircle
 10
12.6399999999999864
 20
44.4200000000000159
 30
0.0
 40
0.475
  0
CIRCLE
  5
EF
100
AcDbEntity
  8
LinearPattern001
 62
5
420
255
370
-1
 48
1.0
  6
BYLAYER
100
AcDbCircle
 10
10.1399999999999864
 20
44.4200000000000159
 30
0.0
 40
0.475
  0
CIRCLE
  5
F0
100
AcDbEntity
  8
LinearPattern001
 62
5
420
255
370
-1
 48
1.0
  6
BYLAYER
100
AcDbCircle
 10
17.3799999999999386
 20
47.1299999999999955
 30
0.0
 40
1.1000000000000001
  0
CIRCLE
  5
F1
100
AcDbEntity
  8
LinearPattern001
 62
5
420
255
370
-1
 48
1.0
  6
BYLAYER
100
AcDbCircle
 10
-1.3000000000000114
 20
-15.2201000000000022
 30
0.0
 40
0.5
  0
CIRCLE
  5
F2
100
AcDbEntity
  8
LinearPattern001
 62
5
420
255
370
-1
 48
1.0
  6
BYLAYER
100
AcDbCircle
 10
1.2400000000000091
 20
-15.2201000000000022
 30
0.0
 40
0.5
  0
CIRCLE
  5
F3
100
AcDbEntity
  8
LinearPattern001
 62
5
420
255
370
-1
 48
1.0
  6
BYLAYER
100
AcDbCircle
 10
3.7800000000000296
 20
-15.2201000000000022
 30
0.0
 40
0.5
  0
CIRCLE
  5
F4
100
AcDbEntity
  8
LinearPattern001
 62
5
420
255
370
-1
 48
1.0
  6
BYLAYER
100
AcDbCircle
 10
1.2400000000000091
 20
-12.6800999999999817
 30
0.0
 40
0.5
  0
CIRCLE
  5
F5
100
AcDbEntity
  8
LinearPattern001
 62
5
420
255
370
-1
 48
1.0
  6
BYLAYER
100
AcDbCircle
 10
3.7799999999999727
 20
-12.6800999999999817
 30
0.0
 40
0.5
  0
CIRCLE
  5
F6
100
AcDbEntity
  8
LinearPattern001
 62
5
420
255
370
-1
 48
1.0
  6
BYLAYER
100
AcDbCircle
 10
-1.3000000000000114
 20
-12.6800999999999817
 30
0.0
 40
0.5
  0
CIRCLE
  5
F7
100
AcDbEntity
  8
LinearPattern001
 62
5
420
255
370
-1
 48
1.0
  6
BYLAYER
100
AcDbCircle
 10
24.0840000000000032
 20
19.4399999999999977
 30
0.0
 40
0.5
  0
CIRCLE
  5
F8
100
AcDbEntity
  8
LinearPattern001
 62
5
420
255
370
-1
 48
1.0
  6
BYLAYER
100
AcDbCircle
 10
24.0840000000000032
 20
14.3600000000000136
 30
0.0
 40
0.5
  0
CIRCLE
  5
F9
100
AcDbEntity
  8
LinearPattern001
 62
5
420
255
370
-1
 48
1.0
  6
BYLAYER
100
AcDbCircle
 10
24.0840000000000032
 20
9.2799999999999727
 30
0.0
 40
0.5
  0
CIRCLE
  5
FA
100
AcDbEntity
  8
LinearPattern001
 62
5
420
255
370
-1
 48
1.0
  6
BYLAYER
100
AcDbCircle
 10
24.0840000000000032
 20
11.8199999999999932
 30
0.0
 40
0.5
  0
CIRCLE
  5
FB
100
AcDbEntity
  8
LinearPattern001
 62
5
420
255
370
-1
 48
1.0
  6
BYLAYER
100
AcDbCircle
 10
24.0840000000000032
 20
27.0600000000000023
 30
0.0
 40
0.5
  0
CIRCLE
  5
FC
100
AcDbEntity
  8
LinearPattern001
 62
5
420
255
370
-1
 48
1.0
  6
BYLAYER
100
AcDbCircle
 10
24.0840000000000032
 20
21.9800000000000182
 30
0.0
 40
0.5
  0
CIRCLE
  5
FD
100
AcDbEntity
  8
LinearPattern001
 62
5
420
255
370
-1
 48
1.0
  6
BYLAYER
100
AcDbCircle
 10
24.0840000000000032
 20
24.5199999999999818
 30
0.0
 40
0.5
  0
CIRCLE
  5
FE
100
AcDbEntity
  8
LinearPattern001
 62
5
420
255
370
-1
 48
1.0
  6
BYLAYER
100
AcDbCircle
 10
24.0840000000000032
 20
16.8999999999999773
 30
0.0
 40
0.5
  0
CIRCLE
  5
FF
100
AcDbEntity
  8
LinearPattern001
 62
5
420
255
370
-1
 48
1.0
  6
BYLAYER
100
AcDbCircle
 10
24.0840000000000032
 20
-12.5640000000000214
 30
0.0
 40
0.5
  0
CIRCLE
  5
100
100
AcDbEntity
  8
LinearPattern001
 62
5
420
255
370
-1
 48
1.0
  6
BYLAYER
100
AcDbCircle
 10
24.0840000000000032
 20
-10.0240000000000009
 30
0.0
 40
0.5
  0
CIRCLE
  5
101
100
AcDbEntity
  8
LinearPattern001
 62
5
420
255
370
-1
 48
1.0
  6
BYLAYER
100
AcDbCircle
 10
24.0840000000000032
 20
5.2160000000000082
 30
0.0
 40
0.5
  0
CIRCLE
  5
102
100
AcDbEntity
  8
LinearPattern001
 62
5
420
255
370
-1
 48
1.0
  6
BYLAYER
100
AcDbCircle
 10
24.0840000000000032
 20
2.6759999999999877
 30
0.0
 40
0.5
  0
CIRCLE
  5
103
100
AcDbEntity
  8
LinearPattern001
 62
5
420
255
370
-1
 48
1.0
  6
BYLAYER
100
AcDbCircle
 10
24.0840000000000032
 20
-2.4039999999999964
 30
0.0
 40
0.5
  0
CIRCLE
  5
104
100
AcDbEntity
  8
LinearPattern001
 62
5
420
255
370
-1
 48
1.0
  6
BYLAYER
100
AcDbCircle
 10
24.0840000000000032
 20
0.1360000000000241
 30
0.0
 40
0.5
  0
CIRCLE
  5
105
100
AcDbEntity
  8
LinearPattern001
 62
5
420
255
370
-1
 48
1.0
  6
BYLAYER
100
AcDbCircle
 10
24.0840000000000032
 20
-7.4839999999999804
 30
0.0
 40
0.5
  0
CIRCLE
  5
106
100
AcDbEntity
  8
LinearPattern001
 62
5
420
255
370
-1
 48
1.0
  6
BYLAYER
100
AcDbCircle
 10
24.0840000000000032
 20
-4.9440000000000168
 30
0.0
 40
0.5
  0
CIRCLE
  5
107
100
AcDbEntity
  8
LinearPattern001
 62
5
420
255
370
-1
 48
1.0
  6
BYLAYER
100
AcDbCircle
 10
24.0840000000000032
 20
-20.1840000000000259
 30
0.0
 40
0.5
  0
CIRCLE
  5
108
100
AcDbEntity
  8
LinearPattern001
 62
5
420
255
370
-1
 48
1.0
  6
BYLAYER
100
AcDbCircle
 10
24.0840000000000032
 20
-17.6440000000000055
 30
0.0
 40
0.5
  0
CIRCLE
  5
109
100
AcDbEntity
  8
LinearPattern001
 62
5
420
255
370
-1
 48
1.0
  6
BYLAYER
100
AcDbCircle
 10
24.0840000000000032
 20
-35.4239999999999782
 30
0.0
 40
0.5
  0
CIRCLE
  5
10A
100
AcDbEntity
  8
LinearPattern001
 62
5
420
255
370
-1
 48
1.0
  6
BYLAYER
100
AcDbCircle
 10
24.0840000000000032
 20
-22.7239999999999895
 30
0.0
 40
0.5
  0
CIRCLE
  5
10B
100
AcDbEntity
  8
LinearPattern001
 62
5
420
255
370
-1
 48
1.0
  6
BYLAYER
100
AcDbCircle
 10
24.0840000000000032
 20
-25.26400000000001
 30
0.0
 40
0.5
  0
CIRCLE
  5
10C
100
AcDbEntity
  8
LinearPattern001
 62
5
420
255
370
-1
 48
1.0
  6
BYLAYER
100
AcDbCircle
 10
24.0840000000000032
 20
-32.8840000000000146
 30
0.0
 40
0.5
  0
CIRCLE
  5
10D
100
AcDbEntity
  8
LinearPattern001
 62
5
420
255
370
-1
 48
1.0
  6
BYLAYER
100
AcDbCircle
 10
24.0840000000000032
 20
-30.3439999999999941
 30
0.0
 40
0.5
  0
CIRCLE
  5
10E
100
AcDbEntity
  8
LinearPattern001
 62
5
420
255
370
-1
 48
1.0
  6
BYLAYER
100
AcDbCircle
 10
24.0840000000000032
 20
-27.8039999999999736
 30
0.0
 40
0.5
  0
CIRCLE
  5
10F
100
AcDbEntity
  8
LinearPattern001
 62
5
420
255
370
-1
 48
1.0
  6
BYLAYER
100
AcDbCircle
 10
-24.1759999999999877
 20
15.3760000000000048
 30
0.0
 40
0.5
  0
CIRCLE
  5
110
100
AcDbEntity
  8
LinearPattern001
 62
5
420
255
370
-1
 48
1.0
  6
BYLAYER
100
AcDbCircle
 10
-24.1759999999999877
 20
10.2959999999999923
 30
0.0
 40
0.5
  0
CIRCLE
  5
111
100
AcDbEntity
  8
LinearPattern001
 62
5
420
255
370
-1
 48
1.0
  6
BYLAYER
100
AcDbCircle
 10
-24.1759999999999877
 20
12.8360000000000412
 30
0.0
 40
0.5
  0
CIRCLE
  5
112
100
AcDbEntity
  8
LinearPattern001
 62
5
420
255
370
-1
 48
1.0
  6
BYLAYER
100
AcDbCircle
 10
-24.1759999999999877
 20
7.7559999999999718
 30
0.0
 40
0.5
  0
CIRCLE
  5
113
100
AcDbEntity
  8
LinearPattern001
 62
5
420
255
370
-1
 48
1.0
  6
BYLAYER
100
AcDbCircle
 10
-24.1759999999999877
 20
5.2160000000000366
 30
0.0
 40
0.5
  0
CIRCLE
  5
114
100
AcDbEntity
  8
LinearPattern001
 62
5
420
255
370
-1
 48
1.0
  6
BYLAYER
100
AcDbCircle
 10
-24.1759999999999877
 20
17.9159999999999968
 30
0.0
 40
0.5
  0
CIRCLE
  5
115
100
AcDbEntity
  8
LinearPattern001
 62
5
420
255
370
-1
 48
1.0
  6
BYLAYER
100
AcDbCircle
 10
-24.1759999999999877
 20
-17.9159999999999968
 30
0.0
 40
0.5
  0
CIRCLE
  5
116
100
AcDbEntity
  8
LinearPattern001
 62
5
420
255
370
-1
 48
1.0
  6
BYLAYER
100
AcDbCircle
 10
-24.1759999999999877
 20
-15.3759999999999764
 30
0.0
 40
0.5
  0
CIRCLE
  5
117
100
AcDbEntity
  8
LinearPattern001
 62
5
420
255
370
-1
 48
1.0
  6
BYLAYER
100
AcDbCircle
 10
-24.1759999999999877
 20
-10.2959999999999923
 30
0.0
 40
0.5
  0
CIRCLE
  5
118
100
AcDbEntity
  8
LinearPattern001
 62
5
420
255
370
-1
 48
1.0
  6
BYLAYER
100
AcDbCircle
 10
-24.1759999999999877
 20
-12.8360000000000127
 30
0.0
 40
0.5
  0
CIRCLE
  5
119
100
AcDbEntity
  8
LinearPattern001
 62
5
420
255
370
-1
 48
1.0
  6
BYLAYER
100
AcDbCircle
 10
-24.1759999999999877
 20
-0.1360000000000241
 30
0.0
 40
0.5
  0
CIRCLE
  5
11A
100
AcDbEntity
  8
LinearPattern001
 62
5
420
255
370
-1
 48
1.0
  6
BYLAYER
100
AcDbCircle
 10
-24.1759999999999877
 20
-2.6759999999999877
 30
0.0
 40
0.5
  0
CIRCLE
  5
11B
100
AcDbEntity
  8
LinearPattern001
 62
5
420
255
370
-1
 48
1.0
  6
BYLAYER
100
AcDbCircle
 10
-24.1759999999999877
 20
-5.2159999999999798
 30
0.0
 40
0.5
  0
CIRCLE
  5
11C
100
AcDbEntity
  8
LinearPattern001
 62
5
420
255
370
-1
 48
1.0
  6
BYLAYER
100
AcDbCircle
 10
-24.1759999999999877
 20
-7.7559999999999434
 30
0.0
 40
0.5
  0
CIRCLE
  5
11D
100
AcDbEntity
  8
LinearPattern001
 62
5
420
255
370
-1
 48
1.0
  6
BYLAYER
100
AcDbCircle
 10
-24.1759999999999877
 20
-22.7239999999999895
 30
0.0
 40
0.5
  0
CIRCLE
  5
11E
100
AcDbEntity
  8
LinearPattern001
 62
5
420
255
370
-1
 48
1.0
  6
BYLAYER
100
AcDbCircle
 10
-24.1759999999999877
 20
-25.26400000000001
 30
0.0
 40
0.5
  0
CIRCLE
  5
11F
100
AcDbEntity
  8
LinearPattern001
 62
5
420
255
370
-1
 48
1.0
  6
BYLAYER
100
AcDbCircle
 10
-24.1759999999999877
 20
-27.8039999999999736
 30
0.0
 40
0.5
  0
CIRCLE
  5
120
100
AcDbEntity
  8
LinearPattern001
 62
5
420
255
370
-1
 48
1.0
  6
BYLAYER
100
AcDbCircle
 10
-24.1759999999999877
 20
-30.3439999999999941
 30
0.0
 40
0.5
  0
CIRCLE
  5
121
100
AcDbEntity
  8
LinearPattern001
 62
5
420
255
370
-1
 48
1.0
  6
BYLAYER
100
AcDbCircle
 10
-24.1759999999999877
 20
-32.8840000000000146
 30
0.0
 40
0.5
  0
CIRCLE
  5
122
100
AcDbEntity
  8
LinearPattern001
 62
5
420
255
370
-1
 48
1.0
  6
BYLAYER
100
AcDbCircle
 10
-24.1759999999999877
 20
-35.4239999999999782
 30
0.0
 40
0.5
  0
CIRCLE
  5
123
100
AcDbEntity
  8
LinearPattern001
 62
5
420
255
370
-1
 48
1.0
  6
BYLAYER
100
AcDbCircle
 10
-24.1760000000000446
 20
-40.5039999999999907
 30
0.0
 40
0.5
  0
CIRCLE
  5
124
100
AcDbEntity
  8
LinearPattern001
 62
5
420
255
370
-1
 48
1.0
  6
BYLAYER
100
AcDbCircle
 10
-24.1759999999999877
 20
-37.9639999999999418
 30
0.0
 40
0.5
  0
CIRCLE
  5
125
100
AcDbEntity
  8
LinearPattern001
 62
5
420
255
370
-1
 48
1.0
  6
BYLAYER
100
AcDbCircle
 10
24.0840000000000032
 20
-45.58400000000006
 30
0.0
 40
0.5
  0
CIRCLE
  5
126
100
AcDbEntity
  8
LinearPattern001
 62
5
420
255
370
-1
 48
1.0
  6
BYLAYER
100
AcDbCircle
 10
24.0840000000000032
 20
-43.0439999999999827
 30
0.0
 40
0.5
  0
CIRCLE
  5
127
100
AcDbEntity
  8
LinearPattern001
 62
5
420
255
370
-1
 48
1.0
  6
BYLAYER
100
AcDbCircle
 10
-3.8560000000001082
 20
-45.58400000000006
 30
0.0
 40
0.5
  0
CIRCLE
  5
128
100
AcDbEntity
  8
LinearPattern001
 62
5
420
255
370
-1
 48
1.0
  6
BYLAYER
100
AcDbCircle
 10
-1.3160000000000878
 20
-45.58400000000006
 30
0.0
 40
0.5
  0
CIRCLE
  5
129
100
AcDbEntity
  8
LinearPattern001
 62
5
420
255
370
-1
 48
1.0
  6
BYLAYER
100
AcDbCircle
 10
1.2240000000001032
 20
-45.58400000000006
 30
0.0
 40
0.5
  0
CIRCLE
  5
12A
100
AcDbEntity
  8
LinearPattern001
 62
5
420
255
370
-1
 48
1.0
  6
BYLAYER
100
AcDbCircle
 10
3.76400000000001
 20
-45.58400000000006
 30
0.0
 40
0.5
  0
CIRCLE
  5
12B
100
AcDbEntity
  8
LinearPattern001
 62
5
420
255
370
-1
 48
1.0
  6
BYLAYER
100
AcDbCircle
 10
6.3040000000000305
 20
-45.58400000000006
 30
0.0
 40
0.5
  0
CIRCLE
  5
12C
100
AcDbEntity
  8
LinearPattern001
 62
5
420
255
370
-1
 48
1.0
  6
BYLAYER
100
AcDbCircle
 10
19.0040000000000191
 20
-45.58400000000006
 30
0.0
 40
0.5
  0
CIRCLE
  5
12D
100
AcDbEntity
  8
LinearPattern001
 62
5
420
255
370
-1
 48
1.0
  6
BYLAYER
100
AcDbCircle
 10
16.4639999999999986
 20
-45.58400000000006
 30
0.0
 40
0.5
  0
CIRCLE
  5
12E
100
AcDbEntity
  8
LinearPattern001
 62
5
420
255
370
-1
 48
1.0
  6
BYLAYER
100
AcDbCircle
 10
13.924000000000035
 20
-45.58400000000006
 30
0.0
 40
0.5
  0
CIRCLE
  5
12F
100
AcDbEntity
  8
LinearPattern001
 62
5
420
255
370
-1
 48
1.0
  6
BYLAYER
100
AcDbCircle
 10
8.8439999999999941
 20
-45.58400000000006
 30
0.0
 40
0.5
  0
CIRCLE
  5
130
100
AcDbEntity
  8
LinearPattern001
 62
5
420
255
370
-1
 48
1.0
  6
BYLAYER
100
AcDbCircle
 10
11.3840000000000146
 20
-45.58400000000006
 30
0.0
 40
0.5
  0
CIRCLE
  5
131
100
AcDbEntity
  8
LinearPattern001
 62
5
420
255
370
-1
 48
1.0
  6
BYLAYER
100
AcDbCircle
 10
3.7639999999998963
 20
-43.0439999999999827
 30
0.0
 40
0.5
  0
CIRCLE
  5
132
100
AcDbEntity
  8
LinearPattern001
 62
5
420
255
370
-1
 48
1.0
  6
BYLAYER
100
AcDbCircle
 10
6.3039999999999736
 20
-43.0439999999999827
 30
0.0
 40
0.5
  0
CIRCLE
  5
133
100
AcDbEntity
  8
LinearPattern001
 62
5
420
255
370
-1
 48
1.0
  6
BYLAYER
100
AcDbCircle
 10
11.3840000000000146
 20
-43.0439999999999827
 30
0.0
 40
0.5
  0
CIRCLE
  5
134
100
AcDbEntity
  8
LinearPattern001
 62
5
420
255
370
-1
 48
1.0
  6
BYLAYER
100
AcDbCircle
 10
8.8439999999999941
 20
-43.0439999999999827
 30
0.0
 40
0.5
  0
CIRCLE
  5
135
100
AcDbEntity
  8
LinearPattern001
 62
5
420
255
370
-1
 48
1.0
  6
BYLAYER
100
AcDbCircle
 10
19.0040000000000191
 20
-43.0439999999999827
 30
0.0
 40
0.5
  0
CIRCLE
  5
136
100
AcDbEntity
  8
LinearPattern001
 62
5
420
255
370
-1
 48
1.0
  6
BYLAYER
100
AcDbCircle
 10
16.4639999999999986
 20
-43.0439999999999827
 30
0.0
 40
0.5
  0
CIRCLE
  5
137
100
AcDbEntity
  8
LinearPattern001
 62
5
420
255
370
-1
 48
1.0
  6
BYLAYER
100
AcDbCircle
 10
13.9239999999999782
 20
-43.0439999999999827
 30
0.0
 40
0.5
  0
CIRCLE
  5
138
100
AcDbEntity
  8
LinearPattern001
 62
5
420
255
370
-1
 48
1.0
  6
BYLAYER
100
AcDbCircle
 10
1.2239999999999895
 20
-43.0439999999999827
 30
0.0
 40
0.5
  0
CIRCLE
  5
139
100
AcDbEntity
  8
LinearPattern001
 62
5
420
255
370
-1
 48
1.0
  6
BYLAYER
100
AcDbCircle
 10
-1.3160000000000878
 20
-43.0439999999999827
 30
0.0
 40
0.5
  0
CIRCLE
  5
13A
100
AcDbEntity
  8
LinearPattern001
 62
5
420
255
370
-1
 48
1.0
  6
BYLAYER
100
AcDbCircle
 10
-3.8559999999999377
 20
-43.0439999999999827
 30
0.0
 40
0.5
  0
CIRCLE
  5
13B
100
AcDbEntity
  8
LinearPattern001
 62
5
420
255
370
-1
 48
1.0
  6
BYLAYER
100
AcDbCircle
 10
21.5439999999999827
 20
-43.0439999999999827
 30
0.0
 40
0.5
  0
CIRCLE
  5
13C
100
AcDbEntity
  8
LinearPattern001
 62
5
420
255
370
-1
 48
1.0
  6
BYLAYER
100
AcDbCircle
 10
21.5439999999999827
 20
-45.58400000000006
 30
0.0
 40
0.5
  0
CIRCLE
  5
13D
100
AcDbEntity
  8
LinearPattern001
 62
5
420
255
370
-1
 48
1.0
  6
BYLAYER
100
AcDbCircle
 10
-16.55600000000004
 20
-43.0439999999999543
 30
0.0
 40
0.5
  0
CIRCLE
  5
13E
100
AcDbEntity
  8
LinearPattern001
 62
5
420
255
370
-1
 48
1.0
  6
BYLAYER
100
AcDbCircle
 10
-14.0160000000000196
 20
-43.0439999999999827
 30
0.0
 40
0.5
  0
CIRCLE
  5
13F
100
AcDbEntity
  8
LinearPattern001
 62
5
420
255
370
-1
 48
1.0
  6
BYLAYER
100
AcDbCircle
 10
-14.0160000000000196
 20
-45.58400000000006
 30
0.0
 40
0.5
  0
CIRCLE
  5
140
100
AcDbEntity
  8
LinearPattern001
 62
5
420
255
370
-1
 48
1.0
  6
BYLAYER
100
AcDbCircle
 10
-16.5560000000000969
 20
-45.5840000000000316
 30
0.0
 40
0.5
  0
CIRCLE
  5
141
100
AcDbEntity
  8
LinearPattern001
 62
5
420
255
370
-1
 48
1.0
  6
BYLAYER
100
AcDbCircle
 10
-8.9360000000000355
 20
-45.58400000000006
 30
0.0
 40
0.5
  0
CIRCLE
  5
142
100
AcDbEntity
  8
LinearPattern001
 62
5
420
255
370
-1
 48
1.0
  6
BYLAYER
100
AcDbCircle
 10
-8.9360000000000355
 20
-43.0439999999999827
 30
0.0
 40
0.5
  0
CIRCLE
  5
143
100
AcDbEntity
  8
LinearPattern001
 62
5
420
255
370
-1
 48
1.0
  6
BYLAYER
100
AcDbCircle
 10
-11.4759999999999991
 20
-45.58400000000006
 30
0.0
 40
0.5
  0
CIRCLE
  5
144
100
AcDbEntity
  8
LinearPattern001
 62
5
420
255
370
-1
 48
1.0
  6
BYLAYER
100
AcDbCircle
 10
-11.4759999999999991
 20
-43.0439999999999827
 30
0.0
 40
0.5
  0
CIRCLE
  5
145
100
AcDbEntity
  8
LinearPattern001
 62
5
420
255
370
-1
 48
1.0
  6
BYLAYER
100
AcDbCircle
 10
-6.396000000000015
 20
-43.0439999999999827
 30
0.0
 40
0.5
  0
CIRCLE
  5
146
100
AcDbEntity
  8
LinearPattern001
 62
5
420
255
370
-1
 48
1.0
  6
BYLAYER
100
AcDbCircle
 10
-6.396000000000015
 20
-45.58400000000006
 30
0.0
 40
0.5
  0
CIRCLE
  5
147
100
AcDbEntity
  8
LinearPattern001
 62
5
420
255
370
-1
 48
1.0
  6
BYLAYER
100
AcDbCircle
 10
-19.0960000000000605
 20
-43.0439999999999543
 30
0.0
 40
0.5
  0
CIRCLE
  5
148
100
AcDbEntity
  8
LinearPattern001
 62
5
420
255
370
-1
 48
1.0
  6
BYLAYER
100
AcDbCircle
 10
-19.0960000000000036
 20
-45.58400000000006
 30
0.0
 40
0.5
  0
LINE
  5
149
100
AcDbEntity
  8
LinearPattern001
 62
5
420
255
370
-1
 48
1.0
  6
BYLAYER
100
AcDbLine
 10
-26.5824999999999818
 20
50.7275000000000205
 30
0.0
 11
26.5824999999999818
 21
50.7275000000000205
 31
0.0
  0
LINE
  5
14A
100
AcDbEntity
  8
LinearPattern001
 62
5
420
255
370
-1
 48
1.0
  6
BYLAYER
100
AcDbLine
 10
-26.5825000000000387
 20
-48.1905000000000143
 30
0.0
 11
-26.5824999999999818
 21
50.7275000000000205
 31
0.0
  0
LINE
  5
14B
100
AcDbEntity
  8
LinearPattern001
 62
5
420
255
370
-1
 48
1.0
  6
BYLAYER
100
AcDbLine
 10
26.5824999999999818
 20
50.7275000000000205
 30
0.0
 11
26.5824999999999818
 21
-45.6905000000000427
 31
0.0
  0
LINE
  5
14C
100
AcDbEntity
  8
LinearPattern001
 62
5
420
255
370
-1
 48
1.0
  6
BYLAYER
100
AcDbLine
 10
-25.3224999999999909
 20
-48.1905000000000427
 30
0.0
 11
-26.5825000000000387
 21
-48.1905000000000143
 31
0.0
  0
LINE
  5
14D
100
AcDbEntity
  8
LinearPattern001
 62
5
420
255
370
-1
 48
1.0
  6
BYLAYER
100
AcDbLine
 10
26.5824999999999818
 20
-45.6905000000000427
 30
0.0
 11
24.0824999999999818
 21
-48.1905000000000427
 31
0.0
  0
LINE
  5
14E
100
AcDbEntity
  8
LinearPattern001
 62
5
420
255
370
-1
 48
1.0
  6
BYLAYER
100
AcDbLine
 10
-22.8245000000000005
 20
-50.7274999999999636
 30
0.0
 11
-25.3224999999999909
 21
-48.1905000000000427
 31
0.0
  0
LINE
  5
14F
100
AcDbEntity
  8
LinearPattern001
 62
5
420
255
370
-1
 48
1.0
  6
BYLAYER
100
AcDbLine
 10
24.0824999999999818
 20
-48.1905000000000427
 30
0.0
 11
13.8824999999999932
 21
-48.1905000000000427
 31
0.0
  0
LINE
  5
150
100
AcDbEntity
  8
LinearPattern001
 62
5
420
255
370
-1
 48
1.0
  6
BYLAYER
100
AcDbLine
 10
11.3454999999999018
 20
-50.7274999999999636
 30
0.0
 11
-22.8245000000000005
 21
-50.7274999999999636
 31
0.0
  0
LINE
  5
151
100
AcDbEntity
  8
LinearPattern001
 62
5
420
255
370
-1
 48
1.0
  6
BYLAYER
100
AcDbLine
 10
13.8824999999999932
 20
-48.1905000000000427
 30
0.0
 11
11.3454999999999018
 21
-50.7274999999999636
 31
0.0
  0
CIRCLE
  5
152
100
AcDbEntity
  8
LinearPattern001
 62
5
420
255
370
-1
 48
1.0
  6
BYLAYER
100
AcDbCircle
 10
-19.0999999999999659
 20
-15.1000000000000227
 30
0.0
 40
1.6000000000000001
  0
CIRCLE
  5
153
100
AcDbEntity
  8
LinearPattern001
 62
5
420
255
370
-1
 48
1.0
  6
BYLAYER
100
AcDbCircle
 10
-24.1800000000000068
 20
-45.5800000000000409
 30
0.0
 40
1.6000000000000001
  0
CIRCLE
  5
154
100
AcDbEntity
  8
LinearPattern001
 62
5
420
255
370
-1
 48
1.0
  6
BYLAYER
100
AcDbCircle
 10
24.0840000000000032
 20
-39.2340000000000373
 30
0.0
 40
1.6000000000000001
  0
CIRCLE
  5
155
100
AcDbEntity
  8
LinearPattern001
 62
5
420
255
370
-1
 48
1.0
  6
BYLAYER
100
AcDbCircle
 10
-24.1759999999999309
 20
36.9660000000000082
 30
0.0
 40
1.6000000000000001
  0
CIRCLE
  5
156
100
AcDbEntity
  8
LinearPattern001
 62
5
420
255
370
-1
 48
1.0
  6
BYLAYER
100
AcDbCircle
 10
8.8439999999999941
 20
-15.1000000000000227
 30
0.0
 40
1.6000000000000001
  0
CIRCLE
  5
157
100
AcDbEntity
  8
LinearPattern001
 62
5
420
255
370
-1
 48
1.0
  6
BYLAYER
100
AcDbCircle
 10
24.0840000000000032
 20
35.6963999999999828
 30
0.0
 40
1.6000000000000001
  0
CIRCLE
  5
158
100
AcDbEntity
  8
LinearPattern001
 62
5
420
255
370
-1
 48
1.0
  6
BYLAYER
100
AcDbCircle
 10
-23.3866999999999621
 20
42.2434000000000083
 30
0.0
 40
1.6499999999999999
  0
CIRCLE
  5
159
100
AcDbEntity
  8
LinearPattern001
 62
5
420
255
370
-1
 48
1.0
  6
BYLAYER
100
AcDbCircle
 10
-18.410000000000025
 20
39.25
 30
0.0
 40
1.6499999999999999
  0
CIRCLE
  5
15A
100
AcDbEntity
  8
LinearPattern001
 62
5
420
255
370
-1
 48
1.0
  6
BYLAYER
100
AcDbCircle
 10
-18.4099999999999682
 20
45.25
 30
0.0
 40
1.6499999999999999
  0
CIRCLE
  5
15B
100
AcDbEntity
  8
LinearPattern001
 62
5
420
255
370
-1
 48
1.0
  6
BYLAYER
100
AcDbCircle
 10
12.6399999999999864
 20
42.4200000000000159
 30
0.0
 40
0.475
  0
CIRCLE
  5
15C
100
AcDbEntity
  8
LinearPattern001
 62
5
420
255
370
-1
 48
1.0
  6
BYLAYER
100
AcDbCircle
 10
5.3799999999999386
 20
47.1299999999999955
 30
0.0
 40
1.1000000000000001
  0
CIRCLE
  5
15D
100
AcDbEntity
  8
LinearPattern001
 62
5
420
255
370
-1
 48
1.0
  6
BYLAYER
100
AcDbCircle
 10
12.6399999999999864
 20
44.4200000000000159
 30
0.0
 40
0.475
  0
CIRCLE
  5
15E
100
AcDbEntity
  8
LinearPattern001
 62
5
420
255
370
-1
 48
1.0
  6
BYLAYER
100
AcDbCircle
 10
10.1399999999999864
 20
44.4200000000000159
 30
0.0
 40
0.475
  0
CIRCLE
  5
15F
100
AcDbEntity
  8
LinearPattern001
 62
5
420
255
370
-1
 48
1.0
  6
BYLAYER
100
AcDbCircle
 10
10.1399999999999864
 20
42.4200000000000159
 30
0.0
 40
0.475
  0
CIRCLE
  5
160
100
AcDbEntity
  8
LinearPattern001
 62
5
420
255
370
-1
 48
1.0
  6
BYLAYER
100
AcDbCircle
 10
17.3799999999999386
 20
47.1299999999999955
 30
0.0
 40
1.1000000000000001
  0
CIRCLE
  5
161
100
AcDbEntity
  8
LinearPattern001
 62
5
420
255
370
-1
 48
1.0
  6
BYLAYER
100
AcDbCircle
 10
-1.3000000000000114
 20
-15.2201000000000022
 30
0.0
 40
0.5
  0
CIRCLE
  5
162
100
AcDbEntity
  8
LinearPattern001
 62
5
420
255
370
-1
 48
1.0
  6
BYLAYER
100
AcDbCircle
 10
3.7800000000000296
 20
-15.2201000000000022
 30
0.0
 40
0.5
  0
CIRCLE
  5
163
100
AcDbEntity
  8
LinearPattern001
 62
5
420
255
370
-1
 48
1.0
  6
BYLAYER
100
AcDbCircle
 10
3.7799999999999727
 20
-12.6800999999999817
 30
0.0
 40
0.5
  0
CIRCLE
  5
164
100
AcDbEntity
  8
LinearPattern001
 62
5
420
255
370
-1
 48
1.0
  6
BYLAYER
100
AcDbCircle
 10
1.2400000000000091
 20
-12.6800999999999817
 30
0.0
 40
0.5
  0
CIRCLE
  5
165
100
AcDbEntity
  8
LinearPattern001
 62
5
420
255
370
-1
 48
1.0
  6
BYLAYER
100
AcDbCircle
 10
1.2400000000000091
 20
-15.2201000000000022
 30
0.0
 40
0.5
  0
CIRCLE
  5
166
100
AcDbEntity
  8
LinearPattern001
 62
5
420
255
370
-1
 48
1.0
  6
BYLAYER
100
AcDbCircle
 10
-1.3000000000000114
 20
-12.6800999999999817
 30
0.0
 40
0.5
  0
CIRCLE
  5
167
100
AcDbEntity
  8
LinearPattern001
 62
5
420
255
370
-1
 48
1.0
  6
BYLAYER
100
AcDbCircle
 10
24.0840000000000032
 20
16.8999999999999773
 30
0.0
 40
0.5
  0
CIRCLE
  5
168
100
AcDbEntity
  8
LinearPattern001
 62
5
420
255
370
-1
 48
1.0
  6
BYLAYER
100
AcDbCircle
 10
24.0840000000000032
 20
14.3600000000000136
 30
0.0
 40
0.5
  0
CIRCLE
  5
169
100
AcDbEntity
  8
LinearPattern001
 62
5
420
255
370
-1
 48
1.0
  6
BYLAYER
100
AcDbCircle
 10
24.0840000000000032
 20
11.8199999999999932
 30
0.0
 40
0.5
  0
CIRCLE
  5
16A
100
AcDbEntity
  8
LinearPattern001
 62
5
420
255
370
-1
 48
1.0
  6
BYLAYER
100
AcDbCircle
 10
24.0840000000000032
 20
9.2799999999999727
 30
0.0
 40
0.5
  0
CIRCLE
  5
16B
100
AcDbEntity
  8
LinearPattern001
 62
5
420
255
370
-1
 48
1.0
  6
BYLAYER
100
AcDbCircle
 10
24.0840000000000032
 20
27.0600000000000023
 30
0.0
 40
0.5
  0
CIRCLE
  5
16C
100
AcDbEntity
  8
LinearPattern001
 62
5
420
255
370
-1
 48
1.0
  6
BYLAYER
100
AcDbCircle
 10
24.0840000000000032
 20
24.5199999999999818
 30
0.0
 40
0.5
  0
CIRCLE
  5
16D
100
AcDbEntity
  8
LinearPattern001
 62
5
420
255
370
-1
 48
1.0
  6
BYLAYER
100
AcDbCircle
 10
24.0840000000000032
 20
21.9800000000000182
 30
0.0
 40
0.5
  0
CIRCLE
  5
16E
100
AcDbEntity
  8
LinearPattern001
 62
5
420
255
370
-1
 48
1.0
  6
BYLAYER
100
AcDbCircle
 10
24.0840000000000032
 20
19.4399999999999977
 30
0.0
 40
0.5
  0
CIRCLE
  5
16F
100
AcDbEntity
  8
LinearPattern001
 62
5
420
255
370
-1
 48
1.0
  6
BYLAYER
100
AcDbCircle
 10
24.0840000000000032
 20
-10.0240000000000009
 30
0.0
 40
0.5
  0
CIRCLE
  5
170
100
AcDbEntity
  8
LinearPattern001
 62
5
420
255
370
-1
 48
1.0
  6
BYLAYER
100
AcDbCircle
 10
24.0840000000000032
 20
-12.5640000000000214
 30
0.0
 40
0.5
  0
CIRCLE
  5
171
100
AcDbEntity
  8
LinearPattern001
 62
5
420
255
370
-1
 48
1.0
  6
BYLAYER
100
AcDbCircle
 10
24.0840000000000032
 20
-7.4839999999999804
 30
0.0
 40
0.5
  0
CIRCLE
  5
172
100
AcDbEntity
  8
LinearPattern001
 62
5
420
255
370
-1
 48
1.0
  6
BYLAYER
100
AcDbCircle
 10
24.0840000000000032
 20
-4.9440000000000168
 30
0.0
 40
0.5
  0
CIRCLE
  5
173
100
AcDbEntity
  8
LinearPattern001
 62
5
420
255
370
-1
 48
1.0
  6
BYLAYER
100
AcDbCircle
 10
24.0840000000000032
 20
0.1360000000000241
 30
0.0
 40
0.5
  0
CIRCLE
  5
174
100
AcDbEntity
  8
LinearPattern001
 62
5
420
255
370
-1
 48
1.0
  6
BYLAYER
100
AcDbCircle
 10
24.0840000000000032
 20
-2.4039999999999964
 30
0.0
 40
0.5
  0
CIRCLE
  5
175
100
AcDbEntity
  8
LinearPattern001
 62
5
420
255
370
-1
 48
1.0
  6
BYLAYER
100
AcDbCircle
 10
24.0840000000000032
 20
2.6759999999999877
 30
0.0
 40
0.5
  0
CIRCLE
  5
176
100
AcDbEntity
  8
LinearPattern001
 62
5
420
255
370
-1
 48
1.0
  6
BYLAYER
100
AcDbCircle
 10
24.0840000000000032
 20
5.2160000000000082
 30
0.0
 40
0.5
  0
CIRCLE
  5
177
100
AcDbEntity
  8
LinearPattern001
 62
5
420
255
370
-1
 48
1.0
  6
BYLAYER
100
AcDbCircle
 10
24.0840000000000032
 20
-20.1840000000000259
 30
0.0
 40
0.5
  0
CIRCLE
  5
178
100
AcDbEntity
  8
LinearPattern001
 62
5
420
255
370
-1
 48
1.0
  6
BYLAYER
100
AcDbCircle
 10
24.0840000000000032
 20
-17.6440000000000055
 30
0.0
 40
0.5
  0
CIRCLE
  5
179
100
AcDbEntity
  8
LinearPattern001
 62
5
420
255
370
-1
 48
1.0
  6
BYLAYER
100
AcDbCircle
 10
24.0840000000000032
 20
-35.4239999999999782
 30
0.0
 40
0.5
  0
CIRCLE
  5
17A
100
AcDbEntity
  8
LinearPattern001
 62
5
420
255
370
-1
 48
1.0
  6
BYLAYER
100
AcDbCircle
 10
24.0840000000000032
 20
-22.7239999999999895
 30
0.0
 40
0.5
  0
CIRCLE
  5
17B
100
AcDbEntity
  8
LinearPattern001
 62
5
420
255
370
-1
 48
1.0
  6
BYLAYER
100
AcDbCircle
 10
24.0840000000000032
 20
-25.26400000000001
 30
0.0
 40
0.5
  0
CIRCLE
  5
17C
100
AcDbEntity
  8
LinearPattern001
 62
5
420
255
370
-1
 48
1.0
  6
BYLAYER
100
AcDbCircle
 10
24.0840000000000032
 20
-32.8840000000000146
 30
0.0
 40
0.5
  0
CIRCLE
  5
17D
100
AcDbEntity
  8
LinearPattern001
 62
5
420
255
370
-1
 48
1.0
  6
BYLAYER
100
AcDbCircle
 10
24.0840000000000032
 20
-30.3439999999999941
 30
0.0
 40
0.5
  0
CIRCLE
  5
17E
100
AcDbEntity
  8
LinearPattern001
 62
5
420
255
370
-1
 48
1.0
  6
BYLAYER
100
AcDbCircle
 10
24.0840000000000032
 20
-27.8039999999999736
 30
0.0
 40
0.5
  0
CIRCLE
  5
17F
100
AcDbEntity
  8
LinearPattern001
 62
5
420
255
370
-1
 48
1.0
  6
BYLAYER
100
AcDbCircle
 10
-24.1759999999999877
 20
7.7559999999999718
 30
0.0
 40
0.5
  0
CIRCLE
  5
180
100
AcDbEntity
  8
LinearPattern001
 62
5
420
255
370
-1
 48
1.0
  6
BYLAYER
100
AcDbCircle
 10
-24.1759999999999877
 20
12.8360000000000412
 30
0.0
 40
0.5
  0
CIRCLE
  5
181
100
AcDbEntity
  8
LinearPattern001
 62
5
420
255
370
-1
 48
1.0
  6
BYLAYER
100
AcDbCircle
 10
-24.1759999999999877
 20
17.9159999999999968
 30
0.0
 40
0.5
  0
CIRCLE
  5
182
100
AcDbEntity
  8
LinearPattern001
 62
5
420
255
370
-1
 48
1.0
  6
BYLAYER
100
AcDbCircle
 10
-24.1759999999999877
 20
5.2160000000000366
 30
0.0
 40
0.5
  0
CIRCLE
  5
183
100
AcDbEntity
  8
LinearPattern001
 62
5
420
255
370
-1
 48
1.0
  6
BYLAYER
100
AcDbCircle
 10
-24.1759999999999877
 20
15.3760000000000048
 30
0.0
 40
0.5
  0
CIRCLE
  5
184
100
AcDbEntity
  8
LinearPattern001
 62
5
420
255
370
-1
 48
1.0
  6
BYLAYER
100
AcDbCircle
 10
-24.1759999999999877
 20
10.2959999999999923
 30
0.0
 40
0.5
  0
CIRCLE
  5
185
100
AcDbEntity
  8
LinearPattern001
 62
5
420
255
370
-1
 48
1.0
  6
BYLAYER
100
AcDbCircle
 10
-24.1759999999999877
 20
-15.3759999999999764
 30
0.0
 40
0.5
  0
CIRCLE
  5
186
100
AcDbEntity
  8
LinearPattern001
 62
5
420
255
370
-1
 48
1.0
  6
BYLAYER
100
AcDbCircle
 10
-24.1759999999999877
 20
-12.8360000000000127
 30
0.0
 40
0.5
  0
CIRCLE
  5
187
100
AcDbEntity
  8
LinearPattern001
 62
5
420
255
370
-1
 48
1.0
  6
BYLAYER
100
AcDbCircle
 10
-24.1759999999999877
 20
-17.9159999999999968
 30
0.0
 40
0.5
  0
CIRCLE
  5
188
100
AcDbEntity
  8
LinearPattern001
 62
5
420
255
370
-1
 48
1.0
  6
BYLAYER
100
AcDbCircle
 10
-24.1759999999999877
 20
-5.2159999999999798
 30
0.0
 40
0.5
  0
CIRCLE
  5
189
100
AcDbEntity
  8
LinearPattern001
 62
5
420
255
370
-1
 48
1.0
  6
BYLAYER
100
AcDbCircle
 10
-24.1759999999999877
 20
-2.6759999999999877
 30
0.0
 40
0.5
  0
CIRCLE
  5
18A
100
AcDbEntity
  8
LinearPattern001
 62
5
420
255
370
-1
 48
1.0
  6
BYLAYER
100
AcDbCircle
 10
-24.1759999999999877
 20
-0.1360000000000241
 30
0.0
 40
0.5
  0
CIRCLE
  5
18B
100
AcDbEntity
  8
LinearPattern001
 62
5
420
255
370
-1
 48
1.0
  6
BYLAYER
100
AcDbCircle
 10
-24.1759999999999877
 20
-7.7559999999999434
 30
0.0
 40
0.5
  0
CIRCLE
  5
18C
100
AcDbEntity
  8
LinearPattern001
 62
5
420
255
370
-1
 48
1.0
  6
BYLAYER
100
AcDbCircle
 10
-24.1759999999999877
 20
-10.2959999999999923
 30
0.0
 40
0.5
  0
CIRCLE
  5
18D
100
AcDbEntity
  8
LinearPattern001
 62
5
420
255
370
-1
 48
1.0
  6
BYLAYER
100
AcDbCircle
 10
-24.1759999999999877
 20
-30.3439999999999941
 30
0.0
 40
0.5
  0
CIRCLE
  5
18E
100
AcDbEntity
  8
LinearPattern001
 62
5
420
255
370
-1
 48
1.0
  6
BYLAYER
100
AcDbCircle
 10
-24.1760000000000446
 20
-40.5039999999999907
 30
0.0
 40
0.5
  0
CIRCLE
  5
18F
100
AcDbEntity
  8
LinearPattern001
 62
5
420
255
370
-1
 48
1.0
  6
BYLAYER
100
AcDbCircle
 10
-24.1759999999999877
 20
-32.8840000000000146
 30
0.0
 40
0.5
  0
CIRCLE
  5
190
100
AcDbEntity
  8
LinearPattern001
 62
5
420
255
370
-1
 48
1.0
  6
BYLAYER
100
AcDbCircle
 10
-24.1759999999999877
 20
-27.8039999999999736
 30
0.0
 40
0.5
  0
CIRCLE
  5
191
100
AcDbEntity
  8
LinearPattern001
 62
5
420
255
370
-1
 48
1.0
  6
BYLAYER
100
AcDbCircle
 10
-24.1759999999999877
 20
-25.26400000000001
 30
0.0
 40
0.5
  0
CIRCLE
  5
192
100
AcDbEntity
  8
LinearPattern001
 62
5
420
255
370
-1
 48
1.0
  6
BYLAYER
100
AcDbCircle
 10
-24.1759999999999877
 20
-22.7239999999999895
 30
0.0
 40
0.5
  0
CIRCLE
  5
193
100
AcDbEntity
  8
LinearPattern001
 62
5
420
255
370
-1
 48
1.0
  6
BYLAYER
100
AcDbCircle
 10
-24.1759999999999877
 20
-37.9639999999999418
 30
0.0
 40
0.5
  0
CIRCLE
  5
194
100
AcDbEntity
  8
LinearPattern001
 62
5
420
255
370
-1
 48
1.0
  6
BYLAYER
100
AcDbCircle
 10
-24.1759999999999877
 20
-35.4239999999999782
 30
0.0
 40
0.5
  0
CIRCLE
  5
195
100
AcDbEntity
  8
LinearPattern001
 62
5
420
255
370
-1
 48
1.0
  6
BYLAYER
100
AcDbCircle
 10
24.0840000000000032
 20
-43.0439999999999827
 30
0.0
 40
0.5
  0
CIRCLE
  5
196
100
AcDbEntity
  8
LinearPattern001
 62
5
420
255
370
-1
 48
1.0
  6
BYLAYER
100
AcDbCircle
 10
24.0840000000000032
 20
-45.58400000000006
 30
0.0
 40
0.5
  0
CIRCLE
  5
197
100
AcDbEntity
  8
LinearPattern001
 62
5
420
255
370
-1
 48
1.0
  6
BYLAYER
100
AcDbCircle
 10
19.0040000000000191
 20
-45.58400000000006
 30
0.0
 40
0.5
  0
CIRCLE
  5
198
100
AcDbEntity
  8
LinearPattern001
 62
5
420
255
370
-1
 48
1.0
  6
BYLAYER
100
AcDbCircle
 10
8.8439999999999941
 20
-45.58400000000006
 30
0.0
 40
0.5
  0
CIRCLE
  5
199
100
AcDbEntity
  8
LinearPattern001
 62
5
420
255
370
-1
 48
1.0
  6
BYLAYER
100
AcDbCircle
 10
16.4639999999999986
 20
-43.0439999999999827
 30
0.0
 40
0.5
  0
CIRCLE
  5
19A
100
AcDbEntity
  8
LinearPattern001
 62
5
420
255
370
-1
 48
1.0
  6
BYLAYER
100
AcDbCircle
 10
16.4639999999999986
 20
-45.58400000000006
 30
0.0
 40
0.5
  0
CIRCLE
  5
19B
100
AcDbEntity
  8
LinearPattern001
 62
5
420
255
370
-1
 48
1.0
  6
BYLAYER
100
AcDbCircle
 10
-1.3160000000000878
 20
-43.0439999999999827
 30
0.0
 40
0.5
  0
CIRCLE
  5
19C
100
AcDbEntity
  8
LinearPattern001
 62
5
420
255
370
-1
 48
1.0
  6
BYLAYER
100
AcDbCircle
 10
-14.0160000000000196
 20
-45.58400000000006
 30
0.0
 40
0.5
  0
CIRCLE
  5
19D
100
AcDbEntity
  8
LinearPattern001
 62
5
420
255
370
-1
 48
1.0
  6
BYLAYER
100
AcDbCircle
 10
-8.9360000000000355
 20
-45.58400000000006
 30
0.0
 40
0.5
  0
CIRCLE
  5
19E
100
AcDbEntity
  8
LinearPattern001
 62
5
420
255
370
-1
 48
1.0
  6
BYLAYER
100
AcDbCircle
 10
-11.4759999999999991
 20
-45.58400000000006
 30
0.0
 40
0.5
  0
CIRCLE
  5
19F
100
AcDbEntity
  8
LinearPattern001
 62
5
420
255
370
-1
 48
1.0
  6
BYLAYER
100
AcDbCircle
 10
13.9239999999999782
 20
-43.0439999999999827
 30
0.0
 40
0.5
  0
CIRCLE
  5
1A0
100
AcDbEntity
  8
LinearPattern001
 62
5
420
255
370
-1
 48
1.0
  6
BYLAYER
100
AcDbCircle
 10
-19.0960000000000605
 20
-43.0439999999999543
 30
0.0
 40
0.5
  0
CIRCLE
  5
1A1
100
AcDbEntity
  8
LinearPattern001
 62
5
420
255
370
-1
 48
1.0
  6
BYLAYER
100
AcDbCircle
 10
21.5439999999999827
 20
-45.58400000000006
 30
0.0
 40
0.5
  0
CIRCLE
  5
1A2
100
AcDbEntity
  8
LinearPattern001
 62
5
420
255
370
-1
 48
1.0
  6
BYLAYER
100
AcDbCircle
 10
-3.8560000000001082
 20
-45.58400000000006
 30
0.0
 40
0.5
  0
CIRCLE
  5
1A3
100
AcDbEntity
  8
LinearPattern001
 62
5
420
255
370
-1
 48
1.0
  6
BYLAYER
100
AcDbCircle
 10
-1.3160000000000878
 20
-45.58400000000006
 30
0.0
 40
0.5
  0
CIRCLE
  5
1A4
100
AcDbEntity
  8
LinearPattern001
 62
5
420
255
370
-1
 48
1.0
  6
BYLAYER
100
AcDbCircle
 10
3.76400000000001
 20
-45.58400000000006
 30
0.0
 40
0.5
  0
CIRCLE
  5
1A5
100
AcDbEntity
  8
LinearPattern001
 62
5
420
255
370
-1
 48
1.0
  6
BYLAYER
100
AcDbCircle
 10
1.2239999999999895
 20
-43.0439999999999827
 30
0.0
 40
0.5
  0
CIRCLE
  5
1A6
100
AcDbEntity
  8
LinearPattern001
 62
5
420
255
370
-1
 48
1.0
  6
BYLAYER
100
AcDbCircle
 10
3.7639999999998963
 20
-43.0439999999999827
 30
0.0
 40
0.5
  0
CIRCLE
  5
1A7
100
AcDbEntity
  8
LinearPattern001
 62
5
420
255
370
-1
 48
1.0
  6
BYLAYER
100
AcDbCircle
 10
8.8439999999999941
 20
-43.0439999999999827
 30
0.0
 40
0.5
  0
CIRCLE
  5
1A8
100
AcDbEntity
  8
LinearPattern001
 62
5
420
255
370
-1
 48
1.0
  6
BYLAYER
100
AcDbCircle
 10
19.0040000000000191
 20
-43.0439999999999827
 30
0.0
 40
0.5
  0
CIRCLE
  5
1A9
100
AcDbEntity
  8
LinearPattern001
 62
5
420
255
370
-1
 48
1.0
  6
BYLAYER
100
AcDbCircle
 10
-3.8559999999999377
 20
-43.0439999999999827
 30
0.0
 40
0.5
  0
CIRCLE
  5
1AA
100
AcDbEntity
  8
LinearPattern001
 62
5
420
255
370
-1
 48
1.0
  6
BYLAYER
100
AcDbCircle
 10
-16.55600000000004
 20
-43.0439999999999543
 30
0.0
 40
0.5
  0
CIRCLE
  5
1AB
100
AcDbEntity
  8
LinearPattern001
 62
5
420
255
370
-1
 48
1.0
  6
BYLAYER
100
AcDbCircle
 10
-16.5560000000000969
 20
-45.5840000000000316
 30
0.0
 40
0.5
  0
CIRCLE
  5
1AC
100
AcDbEntity
  8
LinearPattern001
 62
5
420
255
370
-1
 48
1.0
  6
BYLAYER
100
AcDbCircle
 10
-19.0960000000000036
 20
-45.58400000000006
 30
0.0
 40
0.5
  0
CIRCLE
  5
1AD
100
AcDbEntity
  8
LinearPattern001
 62
5
420
255
370
-1
 48
1.0
  6
BYLAYER
100
AcDbCircle
 10
-11.4759999999999991
 20
-43.0439999999999827
 30
0.0
 40
0.5
  0
CIRCLE
  5
1AE
100
AcDbEntity
  8
LinearPattern001
 62
5
420
255
370
-1
 48
1.0
  6
BYLAYER
100
AcDbCircle
 10
-14.0160000000000196
 20
-43.0439999999999827
 30
0.0
 40
0.5
  0
CIRCLE
  5
1AF
100
AcDbEntity
  8
LinearPattern001
 62
5
420
255
370
-1
 48
1.0
  6
BYLAYER
100
AcDbCircle
 10
-6.396000000000015
 20
-43.0439999999999827
 30
0.0
 40
0.5
  0
CIRCLE
  5
1B0
100
AcDbEntity
  8
LinearPattern001
 62
5
420
255
370
-1
 48
1.0
  6
BYLAYER
100
AcDbCircle
 10
6.3040000000000305
 20
-45.58400000000006
 30
0.0
 40
0.5
  0
CIRCLE
  5
1B1
100
AcDbEntity
  8
LinearPattern001
 62
5
420
255
370
-1
 48
1.0
  6
BYLAYER
100
AcDbCircle
 10
13.924000000000035
 20
-45.58400000000006
 30
0.0
 40
0.5
  0
CIRCLE
  5
1B2
100
AcDbEntity
  8
LinearPattern001
 62
5
420
255
370
-1
 48
1.0
  6
BYLAYER
100
AcDbCircle
 10
21.5439999999999827
 20
-43.0439999999999827
 30
0.0
 40
0.5
  0
CIRCLE
  5
1B3
100
AcDbEntity
  8
LinearPattern001
 62
5
420
255
370
-1
 48
1.0
  6
BYLAYER
100
AcDbCircle
 10
-6.396000000000015
 20
-45.58400000000006
 30
0.0
 40
0.5
  0
CIRCLE
  5
1B4
100
AcDbEntity
  8
LinearPattern001
 62
5
420
255
370
-1
 48
1.0
  6
BYLAYER
100
AcDbCircle
 10
1.2240000000001032
 20
-45.58400000000006
 30
0.0
 40
0.5
  0
CIRCLE
  5
1B5
100
AcDbEntity
  8
LinearPattern001
 62
5
420
255
370
-1
 48
1.0
  6
BYLAYER
100
AcDbCircle
 10
11.3840000000000146
 20
-43.0439999999999827
 30
0.0
 40
0.5
  0
CIRCLE
  5
1B6
100
AcDbEntity
  8
LinearPattern001
 62
5
420
255
370
-1
 48
1.0
  6
BYLAYER
100
AcDbCircle
 10
6.3039999999999736
 20
-43.0439999999999827
 30
0.0
 40
0.5
  0
CIRCLE
  5
1B7
100
AcDbEntity
  8
LinearPattern001
 62
5
420
255
370
-1
 48
1.0
  6
BYLAYER
100
AcDbCircle
 10
-8.9360000000000355
 20
-43.0439999999999827
 30
0.0
 40
0.5
  0
CIRCLE
  5
1B8
100
AcDbEntity
  8
LinearPattern001
 62
5
420
255
370
-1
 48
1.0
  6
BYLAYER
100
AcDbCircle
 10
11.3840000000000146
 20
-45.58400000000006
 30
0.0
 40
0.5
  0
LINE
  5
1B9
100
AcDbEntity
  8
LinearPattern001
 62
5
420
255
370
-1
 48
1.0
  6
BYLAYER
100
AcDbLine
 10
-25.3224999999999909
 20
-48.1905000000000427
 30
0.0
 11
-25.3224999999999909
 21
-48.1905000000000427
 31
0.0
  0
LINE
  5
1BA
100
AcDbEntity
  8
LinearPattern001
 62
5
420
255
370
-1
 48
1.0
  6
BYLAYER
100
AcDbLine
 10
-26.5825000000000387
 20
-48.1905000000000143
 30
0.0
 11
-26.5825000000000387
 21
-48.1905000000000143
 31
0.0
  0
LINE
  5
1BB
100
AcDbEntity
  8
LinearPattern001
 62
5
420
255
370
-1
 48
1.0
  6
BYLAYER
100
AcDbLine
 10
-25.3224999999999909
 20
-48.1905000000000427
 30
0.0
 11
-26.5825000000000387
 21
-48.1905000000000143
 31
0.0
  0
LINE
  5
1BC
100
AcDbEntity
  8
LinearPattern001
 62
5
420
255
370
-1
 48
1.0
  6
BYLAYER
100
AcDbLine
 10
-25.3224999999999909
 20
-48.1905000000000427
 30
0.0
 11
-26.5825000000000387
 21
-48.1905000000000143
 31
0.0
  0
LINE
  5
1BD
100
AcDbEntity
  8
LinearPattern001
 62
5
420
255
370
-1
 48
1.0
  6
BYLAYER
100
AcDbLine
 10
26.5824999999999818
 20
-45.6905000000000427
 30
0.0
 11
26.5824999999999818
 21
-45.6905000000000427
 31
0.0
  0
LINE
  5
1BE
100
AcDbEntity
  8
LinearPattern001
 62
5
420
255
370
-1
 48
1.0
  6
BYLAYER
100
AcDbLine
 10
24.0824999999999818
 20
-48.1905000000000427
 30
0.0
 11
24.0824999999999818
 21
-48.1905000000000427
 31
0.0
  0
LINE
  5
1BF
100
AcDbEntity
  8
LinearPattern001
 62
5
420
255
370
-1
 48
1.0
  6
BYLAYER
100
AcDbLine
 10
26.5824999999999818
 20
-45.6905000000000427
 30
0.0
 11
24.0824999999999818
 21
-48.1905000000000427
 31
0.0
  0
LINE
  5
1C0
100
AcDbEntity
  8
LinearPattern001
 62
5
420
255
370
-1
 48
1.0
  6
BYLAYER
100
AcDbLine
 10
26.5824999999999818
 20
-45.6905000000000427
 30
0.0
 11
24.0824999999999818
 21
-48.1905000000000427
 31
0.0
  0
LINE
  5
1C1
100
AcDbEntity
  8
LinearPattern001
 62
5
420
255
370
-1
 48
1.0
  6
BYLAYER
100
AcDbLine
 10
-22.8245000000000005
 20
-50.7274999999999636
 30
0.0
 11
-22.8245000000000005
 21
-50.7274999999999636
 31
0.0
  0
LINE
  5
1C2
100
AcDbEntity
  8
LinearPattern001
 62
5
420
255
370
-1
 48
1.0
  6
BYLAYER
100
AcDbLine
 10
-25.3224999999999909
 20
-48.1905000000000427
 30
0.0
 11
-25.3224999999999909
 21
-48.1905000000000427
 31
0.0
  0
LINE
  5
1C3
100
AcDbEntity
  8
LinearPattern001
 62
5
420
255
370
-1
 48
1.0
  6
BYLAYER
100
AcDbLine
 10
-22.8245000000000005
 20
-50.7274999999999636
 30
0.0
 11
-25.3224999999999909
 21
-48.1905000000000427
 31
0.0
  0
LINE
  5
1C4
100
AcDbEntity
  8
LinearPattern001
 62
5
420
255
370
-1
 48
1.0
  6
BYLAYER
100
AcDbLine
 10
-22.8245000000000005
 20
-50.7274999999999636
 30
0.0
 11
-25.3224999999999909
 21
-48.1905000000000427
 31
0.0
  0
LINE
  5
1C5
100
AcDbEntity
  8
LinearPattern001
 62
5
420
255
370
-1
 48
1.0
  6
BYLAYER
100
AcDbLine
 10
24.0824999999999818
 20
-48.1905000000000427
 30
0.0
 11
24.0824999999999818
 21
-48.1905000000000427
 31
0.0
  0
LINE
  5
1C6
100
AcDbEntity
  8
LinearPattern001
 62
5
420
255
370
-1
 48
1.0
  6
BYLAYER
100
AcDbLine
 10
13.8824999999999932
 20
-48.1905000000000427
 30
0.0
 11
13.8824999999999932
 21
-48.1905000000000427
 31
0.0
  0
LINE
  5
1C7
100
AcDbEntity
  8
LinearPattern001
 62
5
420
255
370
-1
 48
1.0
  6
BYLAYER
100
AcDbLine
 10
24.0824999999999818
 20
-48.1905000000000427
 30
0.0
 11
13.8824999999999932
 21
-48.1905000000000427
 31
0.0
  0
LINE
  5
1C8
100
AcDbEntity
  8
LinearPattern001
 62
5
420
255
370
-1
 48
1.0
  6
BYLAYER
100
AcDbLine
 10
24.0824999999999818
 20
-48.1905000000000427
 30
0.0
 11
13.8824999999999932
 21
-48.1905000000000427
 31
0.0
  0
LINE
  5
1C9
100
AcDbEntity
  8
LinearPattern001
 62
5
420
255
370
-1
 48
1.0
  6
BYLAYER
100
AcDbLine
 10
11.3454999999999018
 20
-50.7274999999999636
 30
0.0
 11
11.3454999999999018
 21
-50.7274999999999636
 31
0.0
  0
LINE
  5
1CA
100
AcDbEntity
  8
LinearPattern001
 62
5
420
255
370
-1
 48
1.0
  6
BYLAYER
100
AcDbLine
 10
-22.8245000000000005
 20
-50.7274999999999636
 30
0.0
 11
-22.8245000000000005
 21
-50.7274999999999636
 31
0.0
  0
LINE
  5
1CB
100
AcDbEntity
  8
LinearPattern001
 62
5
420
255
370
-1
 48
1.0
  6
BYLAYER
100
AcDbLine
 10
11.3454999999999018
 20
-50.7274999999999636
 30
0.0
 11
-22.8245000000000005
 21
-50.7274999999999636
 31
0.0
  0
LINE
  5
1CC
100
AcDbEntity
  8
LinearPattern001
 62
5
420
255
370
-1
 48
1.0
  6
BYLAYER
100
AcDbLine
 10
11.3454999999999018
 20
-50.7274999999999636
 30
0.0
 11
-22.8245000000000005
 21
-50.7274999999999636
 31
0.0
  0
LINE
  5
1CD
100
AcDbEntity
  8
LinearPattern001
 62
5
420
255
370
-1
 48
1.0
  6
BYLAYER
100
AcDbLine
 10
13.8824999999999932
 20
-48.1905000000000427
 30
0.0
 11
13.8824999999999932
 21
-48.1905000000000427
 31
0.0
  0
LINE
  5
1CE
100
AcDbEntity
  8
LinearPattern001
 62
5
420
255
370
-1
 48
1.0
  6
BYLAYER
100
AcDbLine
 10
11.3454999999999018
 20
-50.7274999999999636
 30
0.0
 11
11.3454999999999018
 21
-50.7274999999999636
 31
0.0
  0
LINE
  5
1CF
100
AcDbEntity
  8
LinearPattern001
 62
5
420
255
370
-1
 48
1.0
  6
BYLAYER
100
AcDbLine
 10
13.8824999999999932
 20
-48.1905000000000427
 30
0.0
 11
11.3454999999999018
 21
-50.7274999999999636
 31
0.0
  0
LINE
  5
1D0
100
AcDbEntity
  8
LinearPattern001
 62
5
420
255
370
-1
 48
1.0
  6
BYLAYER
100
AcDbLine
 10
13.8824999999999932
 20
-48.1905000000000427
 30
0.0
 11
11.3454999999999018
 21
-50.7274999999999636
 31
0.0
  0
CIRCLE
  5
1D1
100
AcDbEntity
  8
LinearPattern001
 62
5
420
255
370
-1
 48
1.0
  6
BYLAYER
100
AcDbCircle
 10
8.8439999999999941
 20
-15.1000000000000227
 30
0.0
 40
1.6000000000000001
  0
LINE
  5
1D2
100
AcDbEntity
  8
LinearPattern001
 62
5
420
255
370
-1
 48
1.0
  6
BYLAYER
100
AcDbLine
 10
8.8439999999999941
 20
-16.6999999999999886
 30
0.0
 11
8.8439999999999941
 21
-16.6999999999999886
 31
0.0
  0
CIRCLE
  5
1D3
100
AcDbEntity
  8
LinearPattern001
 62
5
420
255
370
-1
 48
1.0
  6
BYLAYER
100
AcDbCircle
 10
8.8439999999999941
 20
-15.1000000000000227
 30
0.0
 40
1.6000000000000001
  0
LINE
  5
1D4
100
AcDbEntity
  8
LinearPattern001
 62
5
420
255
370
-1
 48
1.0
  6
BYLAYER
100
AcDbLine
 10
8.8439999999999941
 20
-16.6999999999999886
 30
0.0
 11
8.8439999999999941
 21
-16.6999999999999886
 31
0.0
  0
CIRCLE
  5
1D5
100
AcDbEntity
  8
LinearPattern001
 62
5
420
255
370
-1
 48
1.0
  6
BYLAYER
100
AcDbCircle
 10
-19.0999999999999659
 20
-15.1000000000000227
 30
0.0
 40
1.6000000000000001
  0
LINE
  5
1D6
100
AcDbEntity
  8
LinearPattern001
 62
5
420
255
370
-1
 48
1.0
  6
BYLAYER
100
AcDbLine
 10
-19.0999999999999659
 20
-16.6999999999999886
 30
0.0
 11
-19.0999999999999659
 21
-16.6999999999999886
 31
0.0
  0
CIRCLE
  5
1D7
100
AcDbEntity
  8
LinearPattern001
 62
5
420
255
370
-1
 48
1.0
  6
BYLAYER
100
AcDbCircle
 10
-19.0999999999999659
 20
-15.1000000000000227
 30
0.0
 40
1.6000000000000001
  0
LINE
  5
1D8
100
AcDbEntity
  8
LinearPattern001
 62
5
420
255
370
-1
 48
1.0
  6
BYLAYER
100
AcDbLine
 10
-19.0999999999999659
 20
-16.6999999999999886
 30
0.0
 11
-19.0999999999999659
 21
-16.6999999999999886
 31
0.0
  0
CIRCLE
  5
1D9
100
AcDbEntity
  8
LinearPattern001
 62
5
420
255
370
-1
 48
1.0
  6
BYLAYER
100
AcDbCircle
 10
-24.1800000000000068
 20
-45.5800000000000409
 30
0.0
 40
1.6000000000000001
  0
LINE
  5
1DA
100
AcDbEntity
  8
LinearPattern001
 62
5
420
255
370
-1
 48
1.0
  6
BYLAYER
100
AcDbLine
 10
-24.1800000000000637
 20
-47.1799999999999216
 30
0.0
 11
-24.1800000000000637
 21
-47.1799999999999216
 31
0.0
  0
CIRCLE
  5
1DB
100
AcDbEntity
  8
LinearPattern001
 62
5
420
255
370
-1
 48
1.0
  6
BYLAYER
100
AcDbCircle
 10
-24.1800000000000068
 20
-45.5800000000000409
 30
0.0
 40
1.6000000000000001
  0
LINE
  5
1DC
100
AcDbEntity
  8
LinearPattern001
 62
5
420
255
370
-1
 48
1.0
  6
BYLAYER
100
AcDbLine
 10
-24.1800000000000637
 20
-47.1799999999999216
 30
0.0
 11
-24.1800000000000637
 21
-47.1799999999999216
 31
0.0
  0
CIRCLE
  5
1DD
100
AcDbEntity
  8
LinearPattern001
 62
5
420
255
370
-1
 48
1.0
  6
BYLAYER
100
AcDbCircle
 10
24.0840000000000032
 20
35.6963999999999828
 30
0.0
 40
1.6000000000000001
  0
LINE
  5
1DE
100
AcDbEntity
  8
LinearPattern001
 62
5
420
255
370
-1
 48
1.0
  6
BYLAYER
100
AcDbLine
 10
24.0840000000000032
 20
34.0964000000000169
 30
0.0
 11
24.0840000000000032
 21
34.0964000000000169
 31
0.0
  0
CIRCLE
  5
1DF
100
AcDbEntity
  8
LinearPattern001
 62
5
420
255
370
-1
 48
1.0
  6
BYLAYER
100
AcDbCircle
 10
24.0840000000000032
 20
35.6963999999999828
 30
0.0
 40
1.6000000000000001
  0
LINE
  5
1E0
100
AcDbEntity
  8
LinearPattern001
 62
5
420
255
370
-1
 48
1.0
  6
BYLAYER
100
AcDbLine
 10
24.0840000000000032
 20
34.0964000000000169
 30
0.0
 11
24.0840000000000032
 21
34.0964000000000169
 31
0.0
  0
CIRCLE
  5
1E1
100
AcDbEntity
  8
LinearPattern001
 62
5
420
255
370
-1
 48
1.0
  6
BYLAYER
100
AcDbCircle
 10
-24.1759999999999309
 20
36.9660000000000082
 30
0.0
 40
1.6000000000000001
  0
LINE
  5
1E2
100
AcDbEntity
  8
LinearPattern001
 62
5
420
255
370
-1
 48
1.0
  6
BYLAYER
100
AcDbLine
 10
-24.1759999999999309
 20
35.3659999999999854
 30
0.0
 11
-24.1759999999999309
 21
35.3659999999999854
 31
0.0
  0
CIRCLE
  5
1E3
100
AcDbEntity
  8
LinearPattern001
 62
5
420
255
370
-1
 48
1.0
  6
BYLAYER
100
AcDbCircle
 10
-24.1759999999999309
 20
36.9660000000000082
 30
0.0
 40
1.6000000000000001
  0
LINE
  5
1E4
100
AcDbEntity
  8
LinearPattern001
 62
5
420
255
370
-1
 48
1.0
  6
BYLAYER
100
AcDbLine
 10
-24.1759999999999309
 20
35.3659999999999854
 30
0.0
 11
-24.1759999999999309
 21
35.3659999999999854
 31
0.0
  0
CIRCLE
  5
1E5
100
AcDbEntity
  8
LinearPattern001
 62
5
420
255
370
-1
 48
1.0
  6
BYLAYER
100
AcDbCircle
 10
24.0840000000000032
 20
-39.2340000000000373
 30
0.0
 40
1.6000000000000001
  0
LINE
  5
1E6
100
AcDbEntity
  8
LinearPattern001
 62
5
420
255
370
-1
 48
1.0
  6
BYLAYER
100
AcDbLine
 10
24.0840000000000032
 20
-40.83400000000006
 30
0.0
 11
24.0840000000000032
 21
-40.83400000000006
 31
0.0
  0
CIRCLE
  5
1E7
100
AcDbEntity
  8
LinearPattern001
 62
5
420
255
370
-1
 48
1.0
  6
BYLAYER
100
AcDbCircle
 10
24.0840000000000032
 20
-39.2340000000000373
 30
0.0
 40
1.6000000000000001
  0
LINE
  5
1E8
100
AcDbEntity
  8
LinearPattern001
 62
5
420
255
370
-1
 48
1.0
  6
BYLAYER
100
AcDbLine
 10
24.0840000000000032
 20
-40.83400000000006
 30
0.0
 11
24.0840000000000032
 21
-40.83400000000006
 31
0.0
  0
CIRCLE
  5
1E9
100
AcDbEntity
  8
LinearPattern001
 62
5
420
255
370
-1
 48
1.0
  6
BYLAYER
100
AcDbCircle
 10
-18.410000000000025
 20
39.25
 30
0.0
 40
1.6499999999999999
  0
LINE
  5
1EA
100
AcDbEntity
  8
LinearPattern001
 62
5
420
255
370
-1
 48
1.0
  6
BYLAYER
100
AcDbLine
 10
-18.4099999999999682
 20
37.6000000000000227
 30
0.0
 11
-18.4099999999999682
 21
37.6000000000000227
 31
0.0
  0
CIRCLE
  5
1EB
100
AcDbEntity
  8
LinearPattern001
 62
5
420
255
370
-1
 48
1.0
  6
BYLAYER
100
AcDbCircle
 10
-18.410000000000025
 20
39.25
 30
0.0
 40
1.6499999999999999
  0
LINE
  5
1EC
100
AcDbEntity
  8
LinearPattern001
 62
5
420
255
370
-1
 48
1.0
  6
BYLAYER
100
AcDbLine
 10
-18.4099999999999682
 20
37.6000000000000227
 30
0.0
 11
-18.4099999999999682
 21
37.6000000000000227
 31
0.0
  0
CIRCLE
  5
1ED
100
AcDbEntity
  8
LinearPattern001
 62
5
420
255
370
-1
 48
1.0
  6
BYLAYER
100
AcDbCircle
 10
-18.4099999999999682
 20
45.25
 30
0.0
 40
1.6499999999999999
  0
LINE
  5
1EE
100
AcDbEntity
  8
LinearPattern001
 62
5
420
255
370
-1
 48
1.0
  6
BYLAYER
100
AcDbLine
 10
-18.4099999999999682
 20
43.6000000000000227
 30
0.0
 11
-18.4099999999999682
 21
43.6000000000000227
 31
0.0
  0
CIRCLE
  5
1EF
100
AcDbEntity
  8
LinearPattern001
 62
5
420
255
370
-1
 48
1.0
  6
BYLAYER
100
AcDbCircle
 10
-18.4099999999999682
 20
45.25
 30
0.0
 40
1.6499999999999999
  0
LINE
  5
1F0
100
AcDbEntity
  8
LinearPattern001
 62
5
420
255
370
-1
 48
1.0
  6
BYLAYER
100
AcDbLine
 10
-18.4099999999999682
 20
43.6000000000000227
 30
0.0
 11
-18.4099999999999682
 21
43.6000000000000227
 31
0.0
  0
CIRCLE
  5
1F1
100
AcDbEntity
  8
LinearPattern001
 62
5
420
255
370
-1
 48
1.0
  6
BYLAYER
100
AcDbCircle
 10
-23.3866999999999621
 20
42.2434000000000083
 30
0.0
 40
1.6499999999999999
  0
LINE
  5
1F2
100
AcDbEntity
  8
LinearPattern001
 62
5
420
255
370
-1
 48
1.0
  6
BYLAYER
100
AcDbLine
 10
-23.3867000000000189
 20
40.5933999999999742
 30
0.0
 11
-23.3867000000000189
 21
40.5933999999999742
 31
0.0
  0
CIRCLE
  5
1F3
100
AcDbEntity
  8
LinearPattern001
 62
5
420
255
370
-1
 48
1.0
  6
BYLAYER
100
AcDbCircle
 10
-23.3866999999999621
 20
42.2434000000000083
 30
0.0
 40
1.6499999999999999
  0
LINE
  5
1F4
100
AcDbEntity
  8
LinearPattern001
 62
5
420
255
370
-1
 48
1.0
  6
BYLAYER
100
AcDbLine
 10
-23.3867000000000189
 20
40.5933999999999742
 30
0.0
 11
-23.3867000000000189
 21
40.5933999999999742
 31
0.0
  0
CIRCLE
  5
1F5
100
AcDbEntity
  8
LinearPattern001
 62
5
420
255
370
-1
 48
1.0
  6
BYLAYER
100
AcDbCircle
 10
5.3799999999999386
 20
47.1299999999999955
 30
0.0
 40
1.1000000000000001
  0
LINE
  5
1F6
100
AcDbEntity
  8
LinearPattern001
 62
5
420
255
370
-1
 48
1.0
  6
BYLAYER
100
AcDbLine
 10
5.3799999999999955
 20
46.0299999999999727
 30
0.0
 11
5.3799999999999955
 21
46.0299999999999727
 31
0.0
  0
CIRCLE
  5
1F7
100
AcDbEntity
  8
LinearPattern001
 62
5
420
255
370
-1
 48
1.0
  6
BYLAYER
100
AcDbCircle
 10
5.3799999999999386
 20
47.1299999999999955
 30
0.0
 40
1.1000000000000001
  0
LINE
  5
1F8
100
AcDbEntity
  8
LinearPattern001
 62
5
420
255
370
-1
 48
1.0
  6
BYLAYER
100
AcDbLine
 10
5.3799999999999955
 20
46.0299999999999727
 30
0.0
 11
5.3799999999999955
 21
46.0299999999999727
 31
0.0
  0
CIRCLE
  5
1F9
100
AcDbEntity
  8
LinearPattern001
 62
5
420
255
370
-1
 48
1.0
  6
BYLAYER
100
AcDbCircle
 10
12.6399999999999864
 20
42.4200000000000159
 30
0.0
 40
0.475
  0
LINE
  5
1FA
100
AcDbEntity
  8
LinearPattern001
 62
5
420
255
370
-1
 48
1.0
  6
BYLAYER
100
AcDbLine
 10
12.6399999999999864
 20
41.9449999999999932
 30
0.0
 11
12.6399999999999864
 21
41.9449999999999932
 31
0.0
  0
CIRCLE
  5
1FB
100
AcDbEntity
  8
LinearPattern001
 62
5
420
255
370
-1
 48
1.0
  6
BYLAYER
100
AcDbCircle
 10
12.6399999999999864
 20
42.4200000000000159
 30
0.0
 40
0.475
  0
LINE
  5
1FC
100
AcDbEntity
  8
LinearPattern001
 62
5
420
255
370
-1
 48
1.0
  6
BYLAYER
100
AcDbLine
 10
12.6399999999999864
 20
41.9449999999999932
 30
0.0
 11
12.6399999999999864
 21
41.9449999999999932
 31
0.0
  0
CIRCLE
  5
1FD
100
AcDbEntity
  8
LinearPattern001
 62
5
420
255
370
-1
 48
1.0
  6
BYLAYER
100
AcDbCircle
 10
10.1399999999999864
 20
42.4200000000000159
 30
0.0
 40
0.475
  0
LINE
  5
1FE
100
AcDbEntity
  8
LinearPattern001
 62
5
420
255
370
-1
 48
1.0
  6
BYLAYER
100
AcDbLine
 10
10.1399999999999864
 20
41.9449999999999932
 30
0.0
 11
10.1399999999999864
 21
41.9449999999999932
 31
0.0
  0
CIRCLE
  5
1FF
100
AcDbEntity
  8
LinearPattern001
 62
5
420
255
370
-1
 48
1.0
  6
BYLAYER
100
AcDbCircle
 10
10.1399999999999864
 20
42.4200000000000159
 30
0.0
 40
0.475
  0
LINE
  5
200
100
AcDbEntity
  8
LinearPattern001
 62
5
420
255
370
-1
 48
1.0
  6
BYLAYER
100
AcDbLine
 10
10.1399999999999864
 20
41.9449999999999932
 30
0.0
 11
10.1399999999999864
 21
41.9449999999999932
 31
0.0
  0
CIRCLE
  5
201
100
AcDbEntity
  8
LinearPattern001
 62
5
420
255
370
-1
 48
1.0
  6
BYLAYER
100
AcDbCircle
 10
12.6399999999999864
 20
44.4200000000000159
 30
0.0
 40
0.475
  0
LINE
  5
202
100
AcDbEntity
  8
LinearPattern001
 62
5
420
255
370
-1
 48
1.0
  6
BYLAYER
100
AcDbLine
 10
12.6399999999999864
 20
43.9449999999999932
 30
0.0
 11
12.6399999999999864
 21
43.9449999999999932
 31
0.0
  0
CIRCLE
  5
203
100
AcDbEntity
  8
LinearPattern001
 62
5
420
255
370
-1
 48
1.0
  6
BYLAYER
100
AcDbCircle
 10
12.6399999999999864
 20
44.4200000000000159
 30
0.0
 40
0.475
  0
LINE
  5
204
100
AcDbEntity
  8
LinearPattern001
 62
5
420
255
370
-1
 48
1.0
  6
BYLAYER
100
AcDbLine
 10
12.6399999999999864
 20
43.9449999999999932
 30
0.0
 11
12.6399999999999864
 21
43.9449999999999932
 31
0.0
  0
CIRCLE
  5
205
100
AcDbEntity
  8
LinearPattern001
 62
5
420
255
370
-1
 48
1.0
  6
BYLAYER
100
AcDbCircle
 10
10.1399999999999864
 20
44.4200000000000159
 30
0.0
 40
0.475
  0
LINE
  5
206
100
AcDbEntity
  8
LinearPattern001
 62
5
420
255
370
-1
 48
1.0
  6
BYLAYER
100
AcDbLine
 10
10.1399999999999864
 20
43.9449999999999932
 30
0.0
 11
10.1399999999999864
 21
43.9449999999999932
 31
0.0
  0
CIRCLE
  5
207
100
AcDbEntity
  8
LinearPattern001
 62
5
420
255
370
-1
 48
1.0
  6
BYLAYER
100
AcDbCircle
 10
10.1399999999999864
 20
44.4200000000000159
 30
0.0
 40
0.475
  0
LINE
  5
208
100
AcDbEntity
  8
LinearPattern001
 62
5
420
255
370
-1
 48
1.0
  6
BYLAYER
100
AcDbLine
 10
10.1399999999999864
 20
43.9449999999999932
 30
0.0
 11
10.1399999999999864
 21
43.9449999999999932
 31
0.0
  0
CIRCLE
  5
209
100
AcDbEntity
  8
LinearPattern001
 62
5
420
255
370
-1
 48
1.0
  6
BYLAYER
100
AcDbCircle
 10
17.3799999999999386
 20
47.1299999999999955
 30
0.0
 40
1.1000000000000001
  0
LINE
  5
20A
100
AcDbEntity
  8
LinearPattern001
 62
5
420
255
370
-1
 48
1.0
  6
BYLAYER
100
AcDbLine
 10
17.3800000000000523
 20
46.0299999999999727
 30
0.0
 11
17.3800000000000523
 21
46.0299999999999727
 31
0.0
  0
CIRCLE
  5
20B
100
AcDbEntity
  8
LinearPattern001
 62
5
420
255
370
-1
 48
1.0
  6
BYLAYER
100
AcDbCircle
 10
17.3799999999999386
 20
47.1299999999999955
 30
0.0
 40
1.1000000000000001
  0
LINE
  5
20C
100
AcDbEntity
  8
LinearPattern001
 62
5
420
255
370
-1
 48
1.0
  6
BYLAYER
100
AcDbLine
 10
17.3800000000000523
 20
46.0299999999999727
 30
0.0
 11
17.3800000000000523
 21
46.0299999999999727
 31
0.0
  0
CIRCLE
  5
20D
100
AcDbEntity
  8
LinearPattern001
 62
5
420
255
370
-1
 48
1.0
  6
BYLAYER
100
AcDbCircle
 10
-1.3000000000000114
 20
-15.2201000000000022
 30
0.0
 40
0.5
  0
LINE
  5
20E
100
AcDbEntity
  8
LinearPattern001
 62
5
420
255
370
-1
 48
1.0
  6
BYLAYER
100
AcDbLine
 10
-1.3000000000000114
 20
-15.7201000000000022
 30
0.0
 11
-1.3000000000000114
 21
-15.7201000000000022
 31
0.0
  0
CIRCLE
  5
20F
100
AcDbEntity
  8
LinearPattern001
 62
5
420
255
370
-1
 48
1.0
  6
BYLAYER
100
AcDbCircle
 10
-1.3000000000000114
 20
-15.2201000000000022
 30
0.0
 40
0.5
  0
LINE
  5
210
100
AcDbEntity
  8
LinearPattern001
 62
5
420
255
370
-1
 48
1.0
  6
BYLAYER
100
AcDbLine
 10
-1.3000000000000114
 20
-15.7201000000000022
 30
0.0
 11
-1.3000000000000114
 21
-15.7201000000000022
 31
0.0
  0
CIRCLE
  5
211
100
AcDbEntity
  8
LinearPattern001
 62
5
420
255
370
-1
 48
1.0
  6
BYLAYER
100
AcDbCircle
 10
1.2400000000000091
 20
-15.2201000000000022
 30
0.0
 40
0.5
  0
LINE
  5
212
100
AcDbEntity
  8
LinearPattern001
 62
5
420
255
370
-1
 48
1.0
  6
BYLAYER
100
AcDbLine
 10
1.2400000000000091
 20
-15.7201000000000022
 30
0.0
 11
1.2400000000000091
 21
-15.7201000000000022
 31
0.0
  0
CIRCLE
  5
213
100
AcDbEntity
  8
LinearPattern001
 62
5
420
255
370
-1
 48
1.0
  6
BYLAYER
100
AcDbCircle
 10
1.2400000000000091
 20
-15.2201000000000022
 30
0.0
 40
0.5
  0
LINE
  5
214
100
AcDbEntity
  8
LinearPattern001
 62
5
420
255
370
-1
 48
1.0
  6
BYLAYER
100
AcDbLine
 10
1.2400000000000091
 20
-15.7201000000000022
 30
0.0
 11
1.2400000000000091
 21
-15.7201000000000022
 31
0.0
  0
CIRCLE
  5
215
100
AcDbEntity
  8
LinearPattern001
 62
5
420
255
370
-1
 48
1.0
  6
BYLAYER
100
AcDbCircle
 10
3.7800000000000296
 20
-15.2201000000000022
 30
0.0
 40
0.5
  0
LINE
  5
216
100
AcDbEntity
  8
LinearPattern001
 62
5
420
255
370
-1
 48
1.0
  6
BYLAYER
100
AcDbLine
 10
3.7799999999999727
 20
-15.7201000000000022
 30
0.0
 11
3.7799999999999727
 21
-15.7201000000000022
 31
0.0
  0
CIRCLE
  5
217
100
AcDbEntity
  8
LinearPattern001
 62
5
420
255
370
-1
 48
1.0
  6
BYLAYER
100
AcDbCircle
 10
3.7800000000000296
 20
-15.2201000000000022
 30
0.0
 40
0.5
  0
LINE
  5
218
100
AcDbEntity
  8
LinearPattern001
 62
5
420
255
370
-1
 48
1.0
  6
BYLAYER
100
AcDbLine
 10
3.7799999999999727
 20
-15.7201000000000022
 30
0.0
 11
3.7799999999999727
 21
-15.7201000000000022
 31
0.0
  0
CIRCLE
  5
219
100
AcDbEntity
  8
LinearPattern001
 62
5
420
255
370
-1
 48
1.0
  6
BYLAYER
100
AcDbCircle
 10
1.2400000000000091
 20
-12.6800999999999817
 30
0.0
 40
0.5
  0
LINE
  5
21A
100
AcDbEntity
  8
LinearPattern001
 62
5
420
255
370
-1
 48
1.0
  6
BYLAYER
100
AcDbLine
 10
1.2400000000000091
 20
-13.1800999999999817
 30
0.0
 11
1.2400000000000091
 21
-13.1800999999999817
 31
0.0
  0
CIRCLE
  5
21B
100
AcDbEntity
  8
LinearPattern001
 62
5
420
255
370
-1
 48
1.0
  6
BYLAYER
100
AcDbCircle
 10
1.2400000000000091
 20
-12.6800999999999817
 30
0.0
 40
0.5
  0
LINE
  5
21C
100
AcDbEntity
  8
LinearPattern001
 62
5
420
255
370
-1
 48
1.0
  6
BYLAYER
100
AcDbLine
 10
1.2400000000000091
 20
-13.1800999999999817
 30
0.0
 11
1.2400000000000091
 21
-13.1800999999999817
 31
0.0
  0
CIRCLE
  5
21D
100
AcDbEntity
  8
LinearPattern001
 62
5
420
255
370
-1
 48
1.0
  6
BYLAYER
100
AcDbCircle
 10
3.7799999999999727
 20
-12.6800999999999817
 30
0.0
 40
0.5
  0
LINE
  5
21E
100
AcDbEntity
  8
LinearPattern001
 62
5
420
255
370
-1
 48
1.0
  6
BYLAYER
100
AcDbLine
 10
3.7799999999999727
 20
-13.1800999999999817
 30
0.0
 11
3.7799999999999727
 21
-13.1800999999999817
 31
0.0
  0
CIRCLE
  5
21F
100
AcDbEntity
  8
LinearPattern001
 62
5
420
255
370
-1
 48
1.0
  6
BYLAYER
100
AcDbCircle
 10
3.7799999999999727
 20
-12.6800999999999817
 30
0.0
 40
0.5
  0
LINE
  5
220
100
AcDbEntity
  8
LinearPattern001
 62
5
420
255
370
-1
 48
1.0
  6
BYLAYER
100
AcDbLine
 10
3.7799999999999727
 20
-13.1800999999999817
 30
0.0
 11
3.7799999999999727
 21
-13.1800999999999817
 31
0.0
  0
CIRCLE
  5
221
100
AcDbEntity
  8
LinearPattern001
 62
5
420
255
370
-1
 48
1.0
  6
BYLAYER
100
AcDbCircle
 10
-1.3000000000000114
 20
-12.6800999999999817
 30
0.0
 40
0.5
  0
LINE
  5
222
100
AcDbEntity
  8
LinearPattern001
 62
5
420
255
370
-1
 48
1.0
  6
BYLAYER
100
AcDbLine
 10
-1.3000000000000114
 20
-13.1800999999999817
 30
0.0
 11
-1.3000000000000114
 21
-13.1800999999999817
 31
0.0
  0
CIRCLE
  5
223
100
AcDbEntity
  8
LinearPattern001
 62
5
420
255
370
-1
 48
1.0
  6
BYLAYER
100
AcDbCircle
 10
-1.3000000000000114
 20
-12.6800999999999817
 30
0.0
 40
0.5
  0
LINE
  5
224
100
AcDbEntity
  8
LinearPattern001
 62
5
420
255
370
-1
 48
1.0
  6
BYLAYER
100
AcDbLine
 10
-1.3000000000000114
 20
-13.1800999999999817
 30
0.0
 11
-1.3000000000000114
 21
-13.1800999999999817
 31
0.0
  0
CIRCLE
  5
225
100
AcDbEntity
  8
LinearPattern001
 62
5
420
255
370
-1
 48
1.0
  6
BYLAYER
100
AcDbCircle
 10
24.0840000000000032
 20
19.4399999999999977
 30
0.0
 40
0.5
  0
LINE
  5
226
100
AcDbEntity
  8
LinearPattern001
 62
5
420
255
370
-1
 48
1.0
  6
BYLAYER
100
AcDbLine
 10
24.0840000000000032
 20
18.9399999999999977
 30
0.0
 11
24.0840000000000032
 21
18.9399999999999977
 31
0.0
  0
CIRCLE
  5
227
100
AcDbEntity
  8
LinearPattern001
 62
5
420
255
370
-1
 48
1.0
  6
BYLAYER
100
AcDbCircle
 10
24.0840000000000032
 20
19.4399999999999977
 30
0.0
 40
0.5
  0
LINE
  5
228
100
AcDbEntity
  8
LinearPattern001
 62
5
420
255
370
-1
 48
1.0
  6
BYLAYER
100
AcDbLine
 10
24.0840000000000032
 20
18.9399999999999977
 30
0.0
 11
24.0840000000000032
 21
18.9399999999999977
 31
0.0
  0
CIRCLE
  5
229
100
AcDbEntity
  8
LinearPattern001
 62
5
420
255
370
-1
 48
1.0
  6
BYLAYER
100
AcDbCircle
 10
24.0840000000000032
 20
14.3600000000000136
 30
0.0
 40
0.5
  0
LINE
  5
22A
100
AcDbEntity
  8
LinearPattern001
 62
5
420
255
370
-1
 48
1.0
  6
BYLAYER
100
AcDbLine
 10
24.0840000000000032
 20
13.8600000000000136
 30
0.0
 11
24.0840000000000032
 21
13.8600000000000136
 31
0.0
  0
CIRCLE
  5
22B
100
AcDbEntity
  8
LinearPattern001
 62
5
420
255
370
-1
 48
1.0
  6
BYLAYER
100
AcDbCircle
 10
24.0840000000000032
 20
14.3600000000000136
 30
0.0
 40
0.5
  0
LINE
  5
22C
100
AcDbEntity
  8
LinearPattern001
 62
5
420
255
370
-1
 48
1.0
  6
BYLAYER
100
AcDbLine
 10
24.0840000000000032
 20
13.8600000000000136
 30
0.0
 11
24.0840000000000032
 21
13.8600000000000136
 31
0.0
  0
CIRCLE
  5
22D
100
AcDbEntity
  8
LinearPattern001
 62
5
420
255
370
-1
 48
1.0
  6
BYLAYER
100
AcDbCircle
 10
24.0840000000000032
 20
9.2799999999999727
 30
0.0
 40
0.5
  0
LINE
  5
22E
100
AcDbEntity
  8
LinearPattern001
 62
5
420
255
370
-1
 48
1.0
  6
BYLAYER
100
AcDbLine
 10
24.0840000000000032
 20
8.7799999999999727
 30
0.0
 11
24.0840000000000032
 21
8.7799999999999727
 31
0.0
  0
CIRCLE
  5
22F
100
AcDbEntity
  8
LinearPattern001
 62
5
420
255
370
-1
 48
1.0
  6
BYLAYER
100
AcDbCircle
 10
24.0840000000000032
 20
9.2799999999999727
 30
0.0
 40
0.5
  0
LINE
  5
230
100
AcDbEntity
  8
LinearPattern001
 62
5
420
255
370
-1
 48
1.0
  6
BYLAYER
100
AcDbLine
 10
24.0840000000000032
 20
8.7799999999999727
 30
0.0
 11
24.0840000000000032
 21
8.7799999999999727
 31
0.0
  0
CIRCLE
  5
231
100
AcDbEntity
  8
LinearPattern001
 62
5
420
255
370
-1
 48
1.0
  6
BYLAYER
100
AcDbCircle
 10
24.0840000000000032
 20
11.8199999999999932
 30
0.0
 40
0.5
  0
LINE
  5
232
100
AcDbEntity
  8
LinearPattern001
 62
5
420
255
370
-1
 48
1.0
  6
BYLAYER
100
AcDbLine
 10
24.0840000000000032
 20
11.3199999999999932
 30
0.0
 11
24.0840000000000032
 21
11.3199999999999932
 31
0.0
  0
CIRCLE
  5
233
100
AcDbEntity
  8
LinearPattern001
 62
5
420
255
370
-1
 48
1.0
  6
BYLAYER
100
AcDbCircle
 10
24.0840000000000032
 20
11.8199999999999932
 30
0.0
 40
0.5
  0
LINE
  5
234
100
AcDbEntity
  8
LinearPattern001
 62
5
420
255
370
-1
 48
1.0
  6
BYLAYER
100
AcDbLine
 10
24.0840000000000032
 20
11.3199999999999932
 30
0.0
 11
24.0840000000000032
 21
11.3199999999999932
 31
0.0
  0
CIRCLE
  5
235
100
AcDbEntity
  8
LinearPattern001
 62
5
420
255
370
-1
 48
1.0
  6
BYLAYER
100
AcDbCircle
 10
24.0840000000000032
 20
27.0600000000000023
 30
0.0
 40
0.5
  0
LINE
  5
236
100
AcDbEntity
  8
LinearPattern001
 62
5
420
255
370
-1
 48
1.0
  6
BYLAYER
100
AcDbLine
 10
24.0840000000000032
 20
26.5600000000000023
 30
0.0
 11
24.0840000000000032
 21
26.5600000000000023
 31
0.0
  0
CIRCLE
  5
237
100
AcDbEntity
  8
LinearPattern001
 62
5
420
255
370
-1
 48
1.0
  6
BYLAYER
100
AcDbCircle
 10
24.0840000000000032
 20
27.0600000000000023
 30
0.0
 40
0.5
  0
LINE
  5
238
100
AcDbEntity
  8
LinearPattern001
 62
5
420
255
370
-1
 48
1.0
  6
BYLAYER
100
AcDbLine
 10
24.0840000000000032
 20
26.5600000000000023
 30
0.0
 11
24.0840000000000032
 21
26.5600000000000023
 31
0.0
  0
CIRCLE
  5
239
100
AcDbEntity
  8
LinearPattern001
 62
5
420
255
370
-1
 48
1.0
  6
BYLAYER
100
AcDbCircle
 10
24.0840000000000032
 20
21.9800000000000182
 30
0.0
 40
0.5
  0
LINE
  5
23A
100
AcDbEntity
  8
LinearPattern001
 62
5
420
255
370
-1
 48
1.0
  6
BYLAYER
100
AcDbLine
 10
24.0840000000000032
 20
21.4800000000000182
 30
0.0
 11
24.0840000000000032
 21
21.4800000000000182
 31
0.0
  0
CIRCLE
  5
23B
100
AcDbEntity
  8
LinearPattern001
 62
5
420
255
370
-1
 48
1.0
  6
BYLAYER
100
AcDbCircle
 10
24.0840000000000032
 20
21.9800000000000182
 30
0.0
 40
0.5
  0
LINE
  5
23C
100
AcDbEntity
  8
LinearPattern001
 62
5
420
255
370
-1
 48
1.0
  6
BYLAYER
100
AcDbLine
 10
24.0840000000000032
 20
21.4800000000000182
 30
0.0
 11
24.0840000000000032
 21
21.4800000000000182
 31
0.0
  0
CIRCLE
  5
23D
100
AcDbEntity
  8
LinearPattern001
 62
5
420
255
370
-1
 48
1.0
  6
BYLAYER
100
AcDbCircle
 10
24.0840000000000032
 20
24.5199999999999818
 30
0.0
 40
0.5
  0
LINE
  5
23E
100
AcDbEntity
  8
LinearPattern001
 62
5
420
255
370
-1
 48
1.0
  6
BYLAYER
100
AcDbLine
 10
24.0840000000000032
 20
24.0199999999999818
 30
0.0
 11
24.0840000000000032
 21
24.0199999999999818
 31
0.0
  0
CIRCLE
  5
23F
100
AcDbEntity
  8
LinearPattern001
 62
5
420
255
370
-1
 48
1.0
  6
BYLAYER
100
AcDbCircle
 10
24.0840000000000032
 20
24.5199999999999818
 30
0.0
 40
0.5
  0
LINE
  5
240
100
AcDbEntity
  8
LinearPattern001
 62
5
420
255
370
-1
 48
1.0
  6
BYLAYER
100
AcDbLine
 10
24.0840000000000032
 20
24.0199999999999818
 30
0.0
 11
24.0840000000000032
 21
24.0199999999999818
 31
0.0
  0
CIRCLE
  5
241
100
AcDbEntity
  8
LinearPattern001
 62
5
420
255
370
-1
 48
1.0
  6
BYLAYER
100
AcDbCircle
 10
24.0840000000000032
 20
16.8999999999999773
 30
0.0
 40
0.5
  0
LINE
  5
242
100
AcDbEntity
  8
LinearPattern001
 62
5
420
255
370
-1
 48
1.0
  6
BYLAYER
100
AcDbLine
 10
24.0840000000000032
 20
16.3999999999999773
 30
0.0
 11
24.0840000000000032
 21
16.3999999999999773
 31
0.0
  0
CIRCLE
  5
243
100
AcDbEntity
  8
LinearPattern001
 62
5
420
255
370
-1
 48
1.0
  6
BYLAYER
100
AcDbCircle
 10
24.0840000000000032
 20
16.8999999999999773
 30
0.0
 40
0.5
  0
LINE
  5
244
100
AcDbEntity
  8
LinearPattern001
 62
5
420
255
370
-1
 48
1.0
  6
BYLAYER
100
AcDbLine
 10
24.0840000000000032
 20
16.3999999999999773
 30
0.0
 11
24.0840000000000032
 21
16.3999999999999773
 31
0.0
  0
CIRCLE
  5
245
100
AcDbEntity
  8
LinearPattern001
 62
5
420
255
370
-1
 48
1.0
  6
BYLAYER
100
AcDbCircle
 10
24.0840000000000032
 20
-12.5640000000000214
 30
0.0
 40
0.5
  0
LINE
  5
246
100
AcDbEntity
  8
LinearPattern001
 62
5
420
255
370
-1
 48
1.0
  6
BYLAYER
100
AcDbLine
 10
24.0840000000000032
 20
-13.0640000000000214
 30
0.0
 11
24.0840000000000032
 21
-13.0640000000000214
 31
0.0
  0
CIRCLE
  5
247
100
AcDbEntity
  8
LinearPattern001
 62
5
420
255
370
-1
 48
1.0
  6
BYLAYER
100
AcDbCircle
 10
24.0840000000000032
 20
-12.5640000000000214
 30
0.0
 40
0.5
  0
LINE
  5
248
100
AcDbEntity
  8
LinearPattern001
 62
5
420
255
370
-1
 48
1.0
  6
BYLAYER
100
AcDbLine
 10
24.0840000000000032
 20
-13.0640000000000214
 30
0.0
 11
24.0840000000000032
 21
-13.0640000000000214
 31
0.0
  0
CIRCLE
  5
249
100
AcDbEntity
  8
LinearPattern001
 62
5
420
255
370
-1
 48
1.0
  6
BYLAYER
100
AcDbCircle
 10
24.0840000000000032
 20
-10.0240000000000009
 30
0.0
 40
0.5
  0
LINE
  5
24A
100
AcDbEntity
  8
LinearPattern001
 62
5
420
255
370
-1
 48
1.0
  6
BYLAYER
100
AcDbLine
 10
24.0840000000000032
 20
-10.5240000000000009
 30
0.0
 11
24.0840000000000032
 21
-10.5240000000000009
 31
0.0
  0
CIRCLE
  5
24B
100
AcDbEntity
  8
LinearPattern001
 62
5
420
255
370
-1
 48
1.0
  6
BYLAYER
100
AcDbCircle
 10
24.0840000000000032
 20
-10.0240000000000009
 30
0.0
 40
0.5
  0
LINE
  5
24C
100
AcDbEntity
  8
LinearPattern001
 62
5
420
255
370
-1
 48
1.0
  6
BYLAYER
100
AcDbLine
 10
24.0840000000000032
 20
-10.5240000000000009
 30
0.0
 11
24.0840000000000032
 21
-10.5240000000000009
 31
0.0
  0
CIRCLE
  5
24D
100
AcDbEntity
  8
LinearPattern001
 62
5
420
255
370
-1
 48
1.0
  6
BYLAYER
100
AcDbCircle
 10
24.0840000000000032
 20
5.2160000000000082
 30
0.0
 40
0.5
  0
LINE
  5
24E
100
AcDbEntity
  8
LinearPattern001
 62
5
420
255
370
-1
 48
1.0
  6
BYLAYER
100
AcDbLine
 10
24.0840000000000032
 20
4.7159999999999798
 30
0.0
 11
24.0840000000000032
 21
4.7159999999999798
 31
0.0
  0
CIRCLE
  5
24F
100
AcDbEntity
  8
LinearPattern001
 62
5
420
255
370
-1
 48
1.0
  6
BYLAYER
100
AcDbCircle
 10
24.0840000000000032
 20
5.2160000000000082
 30
0.0
 40
0.5
  0
LINE
  5
250
100
AcDbEntity
  8
LinearPattern001
 62
5
420
255
370
-1
 48
1.0
  6
BYLAYER
100
AcDbLine
 10
24.0840000000000032
 20
4.7159999999999798
 30
0.0
 11
24.0840000000000032
 21
4.7159999999999798
 31
0.0
  0
CIRCLE
  5
251
100
AcDbEntity
  8
LinearPattern001
 62
5
420
255
370
-1
 48
1.0
  6
BYLAYER
100
AcDbCircle
 10
24.0840000000000032
 20
2.6759999999999877
 30
0.0
 40
0.5
  0
LINE
  5
252
100
AcDbEntity
  8
LinearPattern001
 62
5
420
255
370
-1
 48
1.0
  6
BYLAYER
100
AcDbLine
 10
24.0840000000000032
 20
2.1759999999999877
 30
0.0
 11
24.0840000000000032
 21
2.1759999999999877
 31
0.0
  0
CIRCLE
  5
253
100
AcDbEntity
  8
LinearPattern001
 62
5
420
255
370
-1
 48
1.0
  6
BYLAYER
100
AcDbCircle
 10
24.0840000000000032
 20
2.6759999999999877
 30
0.0
 40
0.5
  0
LINE
  5
254
100
AcDbEntity
  8
LinearPattern001
 62
5
420
255
370
-1
 48
1.0
  6
BYLAYER
100
AcDbLine
 10
24.0840000000000032
 20
2.1759999999999877
 30
0.0
 11
24.0840000000000032
 21
2.1759999999999877
 31
0.0
  0
CIRCLE
  5
255
100
AcDbEntity
  8
LinearPattern001
 62
5
420
255
370
-1
 48
1.0
  6
BYLAYER
100
AcDbCircle
 10
24.0840000000000032
 20
-2.4039999999999964
 30
0.0
 40
0.5
  0
LINE
  5
256
100
AcDbEntity
  8
LinearPattern001
 62
5
420
255
370
-1
 48
1.0
  6
BYLAYER
100
AcDbLine
 10
24.0840000000000032
 20
-2.9039999999999964
 30
0.0
 11
24.0840000000000032
 21
-2.9039999999999964
 31
0.0
  0
CIRCLE
  5
257
100
AcDbEntity
  8
LinearPattern001
 62
5
420
255
370
-1
 48
1.0
  6
BYLAYER
100
AcDbCircle
 10
24.0840000000000032
 20
-2.4039999999999964
 30
0.0
 40
0.5
  0
LINE
  5
258
100
AcDbEntity
  8
LinearPattern001
 62
5
420
255
370
-1
 48
1.0
  6
BYLAYER
100
AcDbLine
 10
24.0840000000000032
 20
-2.9039999999999964
 30
0.0
 11
24.0840000000000032
 21
-2.9039999999999964
 31
0.0
  0
CIRCLE
  5
259
100
AcDbEntity
  8
LinearPattern001
 62
5
420
255
370
-1
 48
1.0
  6
BYLAYER
100
AcDbCircle
 10
24.0840000000000032
 20
0.1360000000000241
 30
0.0
 40
0.5
  0
LINE
  5
25A
100
AcDbEntity
  8
LinearPattern001
 62
5
420
255
370
-1
 48
1.0
  6
BYLAYER
100
AcDbLine
 10
24.0840000000000032
 20
-0.3639999999999759
 30
0.0
 11
24.0840000000000032
 21
-0.3639999999999759
 31
0.0
  0
CIRCLE
  5
25B
100
AcDbEntity
  8
LinearPattern001
 62
5
420
255
370
-1
 48
1.0
  6
BYLAYER
100
AcDbCircle
 10
24.0840000000000032
 20
0.1360000000000241
 30
0.0
 40
0.5
  0
LINE
  5
25C
100
AcDbEntity
  8
LinearPattern001
 62
5
420
255
370
-1
 48
1.0
  6
BYLAYER
100
AcDbLine
 10
24.0840000000000032
 20
-0.3639999999999759
 30
0.0
 11
24.0840000000000032
 21
-0.3639999999999759
 31
0.0
  0
CIRCLE
  5
25D
100
AcDbEntity
  8
LinearPattern001
 62
5
420
255
370
-1
 48
1.0
  6
BYLAYER
100
AcDbCircle
 10
24.0840000000000032
 20
-7.4839999999999804
 30
0.0
 40
0.5
  0
LINE
  5
25E
100
AcDbEntity
  8
LinearPattern001
 62
5
420
255
370
-1
 48
1.0
  6
BYLAYER
100
AcDbLine
 10
24.0840000000000032
 20
-7.9839999999999804
 30
0.0
 11
24.0840000000000032
 21
-7.9839999999999804
 31
0.0
  0
CIRCLE
  5
25F
100
AcDbEntity
  8
LinearPattern001
 62
5
420
255
370
-1
 48
1.0
  6
BYLAYER
100
AcDbCircle
 10
24.0840000000000032
 20
-7.4839999999999804
 30
0.0
 40
0.5
  0
LINE
  5
260
100
AcDbEntity
  8
LinearPattern001
 62
5
420
255
370
-1
 48
1.0
  6
BYLAYER
100
AcDbLine
 10
24.0840000000000032
 20
-7.9839999999999804
 30
0.0
 11
24.0840000000000032
 21
-7.9839999999999804
 31
0.0
  0
CIRCLE
  5
261
100
AcDbEntity
  8
LinearPattern001
 62
5
420
255
370
-1
 48
1.0
  6
BYLAYER
100
AcDbCircle
 10
24.0840000000000032
 20
-4.9440000000000168
 30
0.0
 40
0.5
  0
LINE
  5
262
100
AcDbEntity
  8
LinearPattern001
 62
5
420
255
370
-1
 48
1.0
  6
BYLAYER
100
AcDbLine
 10
24.0840000000000032
 20
-5.4440000000000168
 30
0.0
 11
24.0840000000000032
 21
-5.4440000000000168
 31
0.0
  0
CIRCLE
  5
263
100
AcDbEntity
  8
LinearPattern001
 62
5
420
255
370
-1
 48
1.0
  6
BYLAYER
100
AcDbCircle
 10
24.0840000000000032
 20
-4.9440000000000168
 30
0.0
 40
0.5
  0
LINE
  5
264
100
AcDbEntity
  8
LinearPattern001
 62
5
420
255
370
-1
 48
1.0
  6
BYLAYER
100
AcDbLine
 10
24.0840000000000032
 20
-5.4440000000000168
 30
0.0
 11
24.0840000000000032
 21
-5.4440000000000168
 31
0.0
  0
CIRCLE
  5
265
100
AcDbEntity
  8
LinearPattern001
 62
5
420
255
370
-1
 48
1.0
  6
BYLAYER
100
AcDbCircle
 10
24.0840000000000032
 20
-20.1840000000000259
 30
0.0
 40
0.5
  0
LINE
  5
266
100
AcDbEntity
  8
LinearPattern001
 62
5
420
255
370
-1
 48
1.0
  6
BYLAYER
100
AcDbLine
 10
24.0840000000000032
 20
-20.6840000000000259
 30
0.0
 11
24.0840000000000032
 21
-20.6840000000000259
 31
0.0
  0
CIRCLE
  5
267
100
AcDbEntity
  8
LinearPattern001
 62
5
420
255
370
-1
 48
1.0
  6
BYLAYER
100
AcDbCircle
 10
24.0840000000000032
 20
-20.1840000000000259
 30
0.0
 40
0.5
  0
LINE
  5
268
100
AcDbEntity
  8
LinearPattern001
 62
5
420
255
370
-1
 48
1.0
  6
BYLAYER
100
AcDbLine
 10
24.0840000000000032
 20
-20.6840000000000259
 30
0.0
 11
24.0840000000000032
 21
-20.6840000000000259
 31
0.0
  0
CIRCLE
  5
269
100
AcDbEntity
  8
LinearPattern001
 62
5
420
255
370
-1
 48
1.0
  6
BYLAYER
100
AcDbCircle
 10
24.0840000000000032
 20
-17.6440000000000055
 30
0.0
 40
0.5
  0
LINE
  5
26A
100
AcDbEntity
  8
LinearPattern001
 62
5
420
255
370
-1
 48
1.0
  6
BYLAYER
100
AcDbLine
 10
24.0840000000000032
 20
-18.1440000000000055
 30
0.0
 11
24.0840000000000032
 21
-18.1440000000000055
 31
0.0
  0
CIRCLE
  5
26B
100
AcDbEntity
  8
LinearPattern001
 62
5
420
255
370
-1
 48
1.0
  6
BYLAYER
100
AcDbCircle
 10
24.0840000000000032
 20
-17.6440000000000055
 30
0.0
 40
0.5
  0
LINE
  5
26C
100
AcDbEntity
  8
LinearPattern001
 62
5
420
255
370
-1
 48
1.0
  6
BYLAYER
100
AcDbLine
 10
24.0840000000000032
 20
-18.1440000000000055
 30
0.0
 11
24.0840000000000032
 21
-18.1440000000000055
 31
0.0
  0
CIRCLE
  5
26D
100
AcDbEntity
  8
LinearPattern001
 62
5
420
255
370
-1
 48
1.0
  6
BYLAYER
100
AcDbCircle
 10
24.0840000000000032
 20
-35.4239999999999782
 30
0.0
 40
0.5
  0
LINE
  5
26E
100
AcDbEntity
  8
LinearPattern001
 62
5
420
255
370
-1
 48
1.0
  6
BYLAYER
100
AcDbLine
 10
24.0839999999999463
 20
-35.9239999999999782
 30
0.0
 11
24.0839999999999463
 21
-35.9239999999999782
 31
0.0
  0
CIRCLE
  5
26F
100
AcDbEntity
  8
LinearPattern001
 62
5
420
255
370
-1
 48
1.0
  6
BYLAYER
100
AcDbCircle
 10
24.0840000000000032
 20
-35.4239999999999782
 30
0.0
 40
0.5
  0
LINE
  5
270
100
AcDbEntity
  8
LinearPattern001
 62
5
420
255
370
-1
 48
1.0
  6
BYLAYER
100
AcDbLine
 10
24.0839999999999463
 20
-35.9239999999999782
 30
0.0
 11
24.0839999999999463
 21
-35.9239999999999782
 31
0.0
  0
CIRCLE
  5
271
100
AcDbEntity
  8
LinearPattern001
 62
5
420
255
370
-1
 48
1.0
  6
BYLAYER
100
AcDbCircle
 10
24.0840000000000032
 20
-22.7239999999999895
 30
0.0
 40
0.5
  0
LINE
  5
272
100
AcDbEntity
  8
LinearPattern001
 62
5
420
255
370
-1
 48
1.0
  6
BYLAYER
100
AcDbLine
 10
24.0840000000000032
 20
-23.2239999999999895
 30
0.0
 11
24.0840000000000032
 21
-23.2239999999999895
 31
0.0
  0
CIRCLE
  5
273
100
AcDbEntity
  8
LinearPattern001
 62
5
420
255
370
-1
 48
1.0
  6
BYLAYER
100
AcDbCircle
 10
24.0840000000000032
 20
-22.7239999999999895
 30
0.0
 40
0.5
  0
LINE
  5
274
100
AcDbEntity
  8
LinearPattern001
 62
5
420
255
370
-1
 48
1.0
  6
BYLAYER
100
AcDbLine
 10
24.0840000000000032
 20
-23.2239999999999895
 30
0.0
 11
24.0840000000000032
 21
-23.2239999999999895
 31
0.0
  0
CIRCLE
  5
275
100
AcDbEntity
  8
LinearPattern001
 62
5
420
255
370
-1
 48
1.0
  6
BYLAYER
100
AcDbCircle
 10
24.0840000000000032
 20
-25.26400000000001
 30
0.0
 40
0.5
  0
LINE
  5
276
100
AcDbEntity
  8
LinearPattern001
 62
5
420
255
370
-1
 48
1.0
  6
BYLAYER
100
AcDbLine
 10
24.0840000000000032
 20
-25.76400000000001
 30
0.0
 11
24.0840000000000032
 21
-25.76400000000001
 31
0.0
  0
CIRCLE
  5
277
100
AcDbEntity
  8
LinearPattern001
 62
5
420
255
370
-1
 48
1.0
  6
BYLAYER
100
AcDbCircle
 10
24.0840000000000032
 20
-25.26400000000001
 30
0.0
 40
0.5
  0
LINE
  5
278
100
AcDbEntity
  8
LinearPattern001
 62
5
420
255
370
-1
 48
1.0
  6
BYLAYER
100
AcDbLine
 10
24.0840000000000032
 20
-25.76400000000001
 30
0.0
 11
24.0840000000000032
 21
-25.76400000000001
 31
0.0
  0
CIRCLE
  5
279
100
AcDbEntity
  8
LinearPattern001
 62
5
420
255
370
-1
 48
1.0
  6
BYLAYER
100
AcDbCircle
 10
24.0840000000000032
 20
-32.8840000000000146
 30
0.0
 40
0.5
  0
LINE
  5
27A
100
AcDbEntity
  8
LinearPattern001
 62
5
420
255
370
-1
 48
1.0
  6
BYLAYER
100
AcDbLine
 10
24.0840000000000032
 20
-33.3840000000000146
 30
0.0
 11
24.0840000000000032
 21
-33.3840000000000146
 31
0.0
  0
CIRCLE
  5
27B
100
AcDbEntity
  8
LinearPattern001
 62
5
420
255
370
-1
 48
1.0
  6
BYLAYER
100
AcDbCircle
 10
24.0840000000000032
 20
-32.8840000000000146
 30
0.0
 40
0.5
  0
LINE
  5
27C
100
AcDbEntity
  8
LinearPattern001
 62
5
420
255
370
-1
 48
1.0
  6
BYLAYER
100
AcDbLine
 10
24.0840000000000032
 20
-33.3840000000000146
 30
0.0
 11
24.0840000000000032
 21
-33.3840000000000146
 31
0.0
  0
CIRCLE
  5
27D
100
AcDbEntity
  8
LinearPattern001
 62
5
420
255
370
-1
 48
1.0
  6
BYLAYER
100
AcDbCircle
 10
24.0840000000000032
 20
-30.3439999999999941
 30
0.0
 40
0.5
  0
LINE
  5
27E
100
AcDbEntity
  8
LinearPattern001
 62
5
420
255
370
-1
 48
1.0
  6
BYLAYER
100
AcDbLine
 10
24.0840000000000032
 20
-30.8439999999999941
 30
0.0
 11
24.0840000000000032
 21
-30.8439999999999941
 31
0.0
  0
CIRCLE
  5
27F
100
AcDbEntity
  8
LinearPattern001
 62
5
420
255
370
-1
 48
1.0
  6
BYLAYER
100
AcDbCircle
 10
24.0840000000000032
 20
-30.3439999999999941
 30
0.0
 40
0.5
  0
LINE
  5
280
100
AcDbEntity
  8
LinearPattern001
 62
5
420
255
370
-1
 48
1.0
  6
BYLAYER
100
AcDbLine
 10
24.0840000000000032
 20
-30.8439999999999941
 30
0.0
 11
24.0840000000000032
 21
-30.8439999999999941
 31
0.0
  0
CIRCLE
  5
281
100
AcDbEntity
  8
LinearPattern001
 62
5
420
255
370
-1
 48
1.0
  6
BYLAYER
100
AcDbCircle
 10
24.0840000000000032
 20
-27.8039999999999736
 30
0.0
 40
0.5
  0
LINE
  5
282
100
AcDbEntity
  8
LinearPattern001
 62
5
420
255
370
-1
 48
1.0
  6
BYLAYER
100
AcDbLine
 10
24.0840000000000032
 20
-28.3039999999999736
 30
0.0
 11
24.0840000000000032
 21
-28.3039999999999736
 31
0.0
  0
CIRCLE
  5
283
100
AcDbEntity
  8
LinearPattern001
 62
5
420
255
370
-1
 48
1.0
  6
BYLAYER
100
AcDbCircle
 10
24.0840000000000032
 20
-27.8039999999999736
 30
0.0
 40
0.5
  0
LINE
  5
284
100
AcDbEntity
  8
LinearPattern001
 62
5
420
255
370
-1
 48
1.0
  6
BYLAYER
100
AcDbLine
 10
24.0840000000000032
 20
-28.3039999999999736
 30
0.0
 11
24.0840000000000032
 21
-28.3039999999999736
 31
0.0
  0
CIRCLE
  5
285
100
AcDbEntity
  8
LinearPattern001
 62
5
420
255
370
-1
 48
1.0
  6
BYLAYER
100
AcDbCircle
 10
-24.1759999999999877
 20
15.3760000000000048
 30
0.0
 40
0.5
  0
LINE
  5
286
100
AcDbEntity
  8
LinearPattern001
 62
5
420
255
370
-1
 48
1.0
  6
BYLAYER
100
AcDbLine
 10
-24.1759999999999877
 20
14.8760000000000048
 30
0.0
 11
-24.1759999999999877
 21
14.8760000000000048
 31
0.0
  0
CIRCLE
  5
287
100
AcDbEntity
  8
LinearPattern001
 62
5
420
255
370
-1
 48
1.0
  6
BYLAYER
100
AcDbCircle
 10
-24.1759999999999877
 20
15.3760000000000048
 30
0.0
 40
0.5
  0
LINE
  5
288
100
AcDbEntity
  8
LinearPattern001
 62
5
420
255
370
-1
 48
1.0
  6
BYLAYER
100
AcDbLine
 10
-24.1759999999999877
 20
14.8760000000000048
 30
0.0
 11
-24.1759999999999877
 21
14.8760000000000048
 31
0.0
  0
CIRCLE
  5
289
100
AcDbEntity
  8
LinearPattern001
 62
5
420
255
370
-1
 48
1.0
  6
BYLAYER
100
AcDbCircle
 10
-24.1759999999999877
 20
10.2959999999999923
 30
0.0
 40
0.5
  0
LINE
  5
28A
100
AcDbEntity
  8
LinearPattern001
 62
5
420
255
370
-1
 48
1.0
  6
BYLAYER
100
AcDbLine
 10
-24.1759999999999877
 20
9.7959999999999923
 30
0.0
 11
-24.1759999999999877
 21
9.7959999999999923
 31
0.0
  0
CIRCLE
  5
28B
100
AcDbEntity
  8
LinearPattern001
 62
5
420
255
370
-1
 48
1.0
  6
BYLAYER
100
AcDbCircle
 10
-24.1759999999999877
 20
10.2959999999999923
 30
0.0
 40
0.5
  0
LINE
  5
28C
100
AcDbEntity
  8
LinearPattern001
 62
5
420
255
370
-1
 48
1.0
  6
BYLAYER
100
AcDbLine
 10
-24.1759999999999877
 20
9.7959999999999923
 30
0.0
 11
-24.1759999999999877
 21
9.7959999999999923
 31
0.0
  0
CIRCLE
  5
28D
100
AcDbEntity
  8
LinearPattern001
 62
5
420
255
370
-1
 48
1.0
  6
BYLAYER
100
AcDbCircle
 10
-24.1759999999999877
 20
12.8360000000000412
 30
0.0
 40
0.5
  0
LINE
  5
28E
100
AcDbEntity
  8
LinearPattern001
 62
5
420
255
370
-1
 48
1.0
  6
BYLAYER
100
AcDbLine
 10
-24.1759999999999877
 20
12.3360000000000127
 30
0.0
 11
-24.1759999999999877
 21
12.3360000000000127
 31
0.0
  0
CIRCLE
  5
28F
100
AcDbEntity
  8
LinearPattern001
 62
5
420
255
370
-1
 48
1.0
  6
BYLAYER
100
AcDbCircle
 10
-24.1759999999999877
 20
12.8360000000000412
 30
0.0
 40
0.5
  0
LINE
  5
290
100
AcDbEntity
  8
LinearPattern001
 62
5
420
255
370
-1
 48
1.0
  6
BYLAYER
100
AcDbLine
 10
-24.1759999999999877
 20
12.3360000000000127
 30
0.0
 11
-24.1759999999999877
 21
12.3360000000000127
 31
0.0
  0
CIRCLE
  5
291
100
AcDbEntity
  8
LinearPattern001
 62
5
420
255
370
-1
 48
1.0
  6
BYLAYER
100
AcDbCircle
 10
-24.1759999999999877
 20
7.7559999999999718
 30
0.0
 40
0.5
  0
LINE
  5
292
100
AcDbEntity
  8
LinearPattern001
 62
5
420
255
370
-1
 48
1.0
  6
BYLAYER
100
AcDbLine
 10
-24.1759999999999877
 20
7.2559999999999718
 30
0.0
 11
-24.1759999999999877
 21
7.2559999999999718
 31
0.0
  0
CIRCLE
  5
293
100
AcDbEntity
  8
LinearPattern001
 62
5
420
255
370
-1
 48
1.0
  6
BYLAYER
100
AcDbCircle
 10
-24.1759999999999877
 20
7.7559999999999718
 30
0.0
 40
0.5
  0
LINE
  5
294
100
AcDbEntity
  8
LinearPattern001
 62
5
420
255
370
-1
 48
1.0
  6
BYLAYER
100
AcDbLine
 10
-24.1759999999999877
 20
7.2559999999999718
 30
0.0
 11
-24.1759999999999877
 21
7.2559999999999718
 31
0.0
  0
CIRCLE
  5
295
100
AcDbEntity
  8
LinearPattern001
 62
5
420
255
370
-1
 48
1.0
  6
BYLAYER
100
AcDbCircle
 10
-24.1759999999999877
 20
5.2160000000000366
 30
0.0
 40
0.5
  0
LINE
  5
296
100
AcDbEntity
  8
LinearPattern001
 62
5
420
255
370
-1
 48
1.0
  6
BYLAYER
100
AcDbLine
 10
-24.1759999999999877
 20
4.7160000000000082
 30
0.0
 11
-24.1759999999999877
 21
4.7160000000000082
 31
0.0
  0
CIRCLE
  5
297
100
AcDbEntity
  8
LinearPattern001
 62
5
420
255
370
-1
 48
1.0
  6
BYLAYER
100
AcDbCircle
 10
-24.1759999999999877
 20
5.2160000000000366
 30
0.0
 40
0.5
  0
LINE
  5
298
100
AcDbEntity
  8
LinearPattern001
 62
5
420
255
370
-1
 48
1.0
  6
BYLAYER
100
AcDbLine
 10
-24.1759999999999877
 20
4.7160000000000082
 30
0.0
 11
-24.1759999999999877
 21
4.7160000000000082
 31
0.0
  0
CIRCLE
  5
299
100
AcDbEntity
  8
LinearPattern001
 62
5
420
255
370
-1
 48
1.0
  6
BYLAYER
100
AcDbCircle
 10
-24.1759999999999877
 20
17.9159999999999968
 30
0.0
 40
0.5
  0
LINE
  5
29A
100
AcDbEntity
  8
LinearPattern001
 62
5
420
255
370
-1
 48
1.0
  6
BYLAYER
100
AcDbLine
 10
-24.1759999999999877
 20
17.4159999999999968
 30
0.0
 11
-24.1759999999999877
 21
17.4159999999999968
 31
0.0
  0
CIRCLE
  5
29B
100
AcDbEntity
  8
LinearPattern001
 62
5
420
255
370
-1
 48
1.0
  6
BYLAYER
100
AcDbCircle
 10
-24.1759999999999877
 20
17.9159999999999968
 30
0.0
 40
0.5
  0
LINE
  5
29C
100
AcDbEntity
  8
LinearPattern001
 62
5
420
255
370
-1
 48
1.0
  6
BYLAYER
100
AcDbLine
 10
-24.1759999999999877
 20
17.4159999999999968
 30
0.0
 11
-24.1759999999999877
 21
17.4159999999999968
 31
0.0
  0
CIRCLE
  5
29D
100
AcDbEntity
  8
LinearPattern001
 62
5
420
255
370
-1
 48
1.0
  6
BYLAYER
100
AcDbCircle
 10
-24.1759999999999877
 20
-17.9159999999999968
 30
0.0
 40
0.5
  0
LINE
  5
29E
100
AcDbEntity
  8
LinearPattern001
 62
5
420
255
370
-1
 48
1.0
  6
BYLAYER
100
AcDbLine
 10
-24.1759999999999877
 20
-18.4159999999999968
 30
0.0
 11
-24.1759999999999877
 21
-18.4159999999999968
 31
0.0
  0
CIRCLE
  5
29F
100
AcDbEntity
  8
LinearPattern001
 62
5
420
255
370
-1
 48
1.0
  6
BYLAYER
100
AcDbCircle
 10
-24.1759999999999877
 20
-17.9159999999999968
 30
0.0
 40
0.5
  0
LINE
  5
2A0
100
AcDbEntity
  8
LinearPattern001
 62
5
420
255
370
-1
 48
1.0
  6
BYLAYER
100
AcDbLine
 10
-24.1759999999999877
 20
-18.4159999999999968
 30
0.0
 11
-24.1759999999999877
 21
-18.4159999999999968
 31
0.0
  0
CIRCLE
  5
2A1
100
AcDbEntity
  8
LinearPattern001
 62
5
420
255
370
-1
 48
1.0
  6
BYLAYER
100
AcDbCircle
 10
-24.1759999999999877
 20
-15.3759999999999764
 30
0.0
 40
0.5
  0
LINE
  5
2A2
100
AcDbEntity
  8
LinearPattern001
 62
5
420
255
370
-1
 48
1.0
  6
BYLAYER
100
AcDbLine
 10
-24.1759999999999877
 20
-15.8759999999999764
 30
0.0
 11
-24.1759999999999877
 21
-15.8759999999999764
 31
0.0
  0
CIRCLE
  5
2A3
100
AcDbEntity
  8
LinearPattern001
 62
5
420
255
370
-1
 48
1.0
  6
BYLAYER
100
AcDbCircle
 10
-24.1759999999999877
 20
-15.3759999999999764
 30
0.0
 40
0.5
  0
LINE
  5
2A4
100
AcDbEntity
  8
LinearPattern001
 62
5
420
255
370
-1
 48
1.0
  6
BYLAYER
100
AcDbLine
 10
-24.1759999999999877
 20
-15.8759999999999764
 30
0.0
 11
-24.1759999999999877
 21
-15.8759999999999764
 31
0.0
  0
CIRCLE
  5
2A5
100
AcDbEntity
  8
LinearPattern001
 62
5
420
255
370
-1
 48
1.0
  6
BYLAYER
100
AcDbCircle
 10
-24.1759999999999877
 20
-10.2959999999999923
 30
0.0
 40
0.5
  0
LINE
  5
2A6
100
AcDbEntity
  8
LinearPattern001
 62
5
420
255
370
-1
 48
1.0
  6
BYLAYER
100
AcDbLine
 10
-24.1759999999999877
 20
-10.7959999999999638
 30
0.0
 11
-24.1759999999999877
 21
-10.7959999999999638
 31
0.0
  0
CIRCLE
  5
2A7
100
AcDbEntity
  8
LinearPattern001
 62
5
420
255
370
-1
 48
1.0
  6
BYLAYER
100
AcDbCircle
 10
-24.1759999999999877
 20
-10.2959999999999923
 30
0.0
 40
0.5
  0
LINE
  5
2A8
100
AcDbEntity
  8
LinearPattern001
 62
5
420
255
370
-1
 48
1.0
  6
BYLAYER
100
AcDbLine
 10
-24.1759999999999877
 20
-10.7959999999999638
 30
0.0
 11
-24.1759999999999877
 21
-10.7959999999999638
 31
0.0
  0
CIRCLE
  5
2A9
100
AcDbEntity
  8
LinearPattern001
 62
5
420
255
370
-1
 48
1.0
  6
BYLAYER
100
AcDbCircle
 10
-24.1759999999999877
 20
-12.8360000000000127
 30
0.0
 40
0.5
  0
LINE
  5
2AA
100
AcDbEntity
  8
LinearPattern001
 62
5
420
255
370
-1
 48
1.0
  6
BYLAYER
100
AcDbLine
 10
-24.1759999999999877
 20
-13.3359999999999843
 30
0.0
 11
-24.1759999999999877
 21
-13.3359999999999843
 31
0.0
  0
CIRCLE
  5
2AB
100
AcDbEntity
  8
LinearPattern001
 62
5
420
255
370
-1
 48
1.0
  6
BYLAYER
100
AcDbCircle
 10
-24.1759999999999877
 20
-12.8360000000000127
 30
0.0
 40
0.5
  0
LINE
  5
2AC
100
AcDbEntity
  8
LinearPattern001
 62
5
420
255
370
-1
 48
1.0
  6
BYLAYER
100
AcDbLine
 10
-24.1759999999999877
 20
-13.3359999999999843
 30
0.0
 11
-24.1759999999999877
 21
-13.3359999999999843
 31
0.0
  0
CIRCLE
  5
2AD
100
AcDbEntity
  8
LinearPattern001
 62
5
420
255
370
-1
 48
1.0
  6
BYLAYER
100
AcDbCircle
 10
-24.1759999999999877
 20
-0.1360000000000241
 30
0.0
 40
0.5
  0
LINE
  5
2AE
100
AcDbEntity
  8
LinearPattern001
 62
5
420
255
370
-1
 48
1.0
  6
BYLAYER
100
AcDbLine
 10
-24.1759999999999877
 20
-0.6360000000000241
 30
0.0
 11
-24.1759999999999877
 21
-0.6360000000000241
 31
0.0
  0
CIRCLE
  5
2AF
100
AcDbEntity
  8
LinearPattern001
 62
5
420
255
370
-1
 48
1.0
  6
BYLAYER
100
AcDbCircle
 10
-24.1759999999999877
 20
-0.1360000000000241
 30
0.0
 40
0.5
  0
LINE
  5
2B0
100
AcDbEntity
  8
LinearPattern001
 62
5
420
255
370
-1
 48
1.0
  6
BYLAYER
100
AcDbLine
 10
-24.1759999999999877
 20
-0.6360000000000241
 30
0.0
 11
-24.1759999999999877
 21
-0.6360000000000241
 31
0.0
  0
CIRCLE
  5
2B1
100
AcDbEntity
  8
LinearPattern001
 62
5
420
255
370
-1
 48
1.0
  6
BYLAYER
100
AcDbCircle
 10
-24.1759999999999877
 20
-2.6759999999999877
 30
0.0
 40
0.5
  0
LINE
  5
2B2
100
AcDbEntity
  8
LinearPattern001
 62
5
420
255
370
-1
 48
1.0
  6
BYLAYER
100
AcDbLine
 10
-24.1759999999999877
 20
-3.1759999999999877
 30
0.0
 11
-24.1759999999999877
 21
-3.1759999999999877
 31
0.0
  0
CIRCLE
  5
2B3
100
AcDbEntity
  8
LinearPattern001
 62
5
420
255
370
-1
 48
1.0
  6
BYLAYER
100
AcDbCircle
 10
-24.1759999999999877
 20
-2.6759999999999877
 30
0.0
 40
0.5
  0
LINE
  5
2B4
100
AcDbEntity
  8
LinearPattern001
 62
5
420
255
370
-1
 48
1.0
  6
BYLAYER
100
AcDbLine
 10
-24.1759999999999877
 20
-3.1759999999999877
 30
0.0
 11
-24.1759999999999877
 21
-3.1759999999999877
 31
0.0
  0
CIRCLE
  5
2B5
100
AcDbEntity
  8
LinearPattern001
 62
5
420
255
370
-1
 48
1.0
  6
BYLAYER
100
AcDbCircle
 10
-24.1759999999999877
 20
-5.2159999999999798
 30
0.0
 40
0.5
  0
LINE
  5
2B6
100
AcDbEntity
  8
LinearPattern001
 62
5
420
255
370
-1
 48
1.0
  6
BYLAYER
100
AcDbLine
 10
-24.1759999999999877
 20
-5.7160000000000082
 30
0.0
 11
-24.1759999999999877
 21
-5.7160000000000082
 31
0.0
  0
CIRCLE
  5
2B7
100
AcDbEntity
  8
LinearPattern001
 62
5
420
255
370
-1
 48
1.0
  6
BYLAYER
100
AcDbCircle
 10
-24.1759999999999877
 20
-5.2159999999999798
 30
0.0
 40
0.5
  0
LINE
  5
2B8
100
AcDbEntity
  8
LinearPattern001
 62
5
420
255
370
-1
 48
1.0
  6
BYLAYER
100
AcDbLine
 10
-24.1759999999999877
 20
-5.7160000000000082
 30
0.0
 11
-24.1759999999999877
 21
-5.7160000000000082
 31
0.0
  0
CIRCLE
  5
2B9
100
AcDbEntity
  8
LinearPattern001
 62
5
420
255
370
-1
 48
1.0
  6
BYLAYER
100
AcDbCircle
 10
-24.1759999999999877
 20
-7.7559999999999434
 30
0.0
 40
0.5
  0
LINE
  5
2BA
100
AcDbEntity
  8
LinearPattern001
 62
5
420
255
370
-1
 48
1.0
  6
BYLAYER
100
AcDbLine
 10
-24.1759999999999877
 20
-8.2559999999999434
 30
0.0
 11
-24.1759999999999877
 21
-8.2559999999999434
 31
0.0
  0
CIRCLE
  5
2BB
100
AcDbEntity
  8
LinearPattern001
 62
5
420
255
370
-1
 48
1.0
  6
BYLAYER
100
AcDbCircle
 10
-24.1759999999999877
 20
-7.7559999999999434
 30
0.0
 40
0.5
  0
LINE
  5
2BC
100
AcDbEntity
  8
LinearPattern001
 62
5
420
255
370
-1
 48
1.0
  6
BYLAYER
100
AcDbLine
 10
-24.1759999999999877
 20
-8.2559999999999434
 30
0.0
 11
-24.1759999999999877
 21
-8.2559999999999434
 31
0.0
  0
CIRCLE
  5
2BD
100
AcDbEntity
  8
LinearPattern001
 62
5
420
255
370
-1
 48
1.0
  6
BYLAYER
100
AcDbCircle
 10
-24.1759999999999877
 20
-22.7239999999999895
 30
0.0
 40
0.5
  0
LINE
  5
2BE
100
AcDbEntity
  8
LinearPattern001
 62
5
420
255
370
-1
 48
1.0
  6
BYLAYER
100
AcDbLine
 10
-24.1759999999999877
 20
-23.2239999999999895
 30
0.0
 11
-24.1759999999999877
 21
-23.2239999999999895
 31
0.0
  0
CIRCLE
  5
2BF
100
AcDbEntity
  8
LinearPattern001
 62
5
420
255
370
-1
 48
1.0
  6
BYLAYER
100
AcDbCircle
 10
-24.1759999999999877
 20
-22.7239999999999895
 30
0.0
 40
0.5
  0
LINE
  5
2C0
100
AcDbEntity
  8
LinearPattern001
 62
5
420
255
370
-1
 48
1.0
  6
BYLAYER
100
AcDbLine
 10
-24.1759999999999877
 20
-23.2239999999999895
 30
0.0
 11
-24.1759999999999877
 21
-23.2239999999999895
 31
0.0
  0
CIRCLE
  5
2C1
100
AcDbEntity
  8
LinearPattern001
 62
5
420
255
370
-1
 48
1.0
  6
BYLAYER
100
AcDbCircle
 10
-24.1759999999999877
 20
-25.26400000000001
 30
0.0
 40
0.5
  0
LINE
  5
2C2
100
AcDbEntity
  8
LinearPattern001
 62
5
420
255
370
-1
 48
1.0
  6
BYLAYER
100
AcDbLine
 10
-24.1759999999999877
 20
-25.76400000000001
 30
0.0
 11
-24.1759999999999877
 21
-25.76400000000001
 31
0.0
  0
CIRCLE
  5
2C3
100
AcDbEntity
  8
LinearPattern001
 62
5
420
255
370
-1
 48
1.0
  6
BYLAYER
100
AcDbCircle
 10
-24.1759999999999877
 20
-25.26400000000001
 30
0.0
 40
0.5
  0
LINE
  5
2C4
100
AcDbEntity
  8
LinearPattern001
 62
5
420
255
370
-1
 48
1.0
  6
BYLAYER
100
AcDbLine
 10
-24.1759999999999877
 20
-25.76400000000001
 30
0.0
 11
-24.1759999999999877
 21
-25.76400000000001
 31
0.0
  0
CIRCLE
  5
2C5
100
AcDbEntity
  8
LinearPattern001
 62
5
420
255
370
-1
 48
1.0
  6
BYLAYER
100
AcDbCircle
 10
-24.1759999999999877
 20
-27.8039999999999736
 30
0.0
 40
0.5
  0
LINE
  5
2C6
100
AcDbEntity
  8
LinearPattern001
 62
5
420
255
370
-1
 48
1.0
  6
BYLAYER
100
AcDbLine
 10
-24.1759999999999877
 20
-28.3039999999999736
 30
0.0
 11
-24.1759999999999877
 21
-28.3039999999999736
 31
0.0
  0
CIRCLE
  5
2C7
100
AcDbEntity
  8
LinearPattern001
 62
5
420
255
370
-1
 48
1.0
  6
BYLAYER
100
AcDbCircle
 10
-24.1759999999999877
 20
-27.8039999999999736
 30
0.0
 40
0.5
  0
LINE
  5
2C8
100
AcDbEntity
  8
LinearPattern001
 62
5
420
255
370
-1
 48
1.0
  6
BYLAYER
100
AcDbLine
 10
-24.1759999999999877
 20
-28.3039999999999736
 30
0.0
 11
-24.1759999999999877
 21
-28.3039999999999736
 31
0.0
  0
CIRCLE
  5
2C9
100
AcDbEntity
  8
LinearPattern001
 62
5
420
255
370
-1
 48
1.0
  6
BYLAYER
100
AcDbCircle
 10
-24.1759999999999877
 20
-30.3439999999999941
 30
0.0
 40
0.5
  0
LINE
  5
2CA
100
AcDbEntity
  8
LinearPattern001
 62
5
420
255
370
-1
 48
1.0
  6
BYLAYER
100
AcDbLine
 10
-24.1760000000000446
 20
-30.8439999999999657
 30
0.0
 11
-24.1760000000000446
 21
-30.8439999999999657
 31
0.0
  0
CIRCLE
  5
2CB
100
AcDbEntity
  8
LinearPattern001
 62
5
420
255
370
-1
 48
1.0
  6
BYLAYER
100
AcDbCircle
 10
-24.1759999999999877
 20
-30.3439999999999941
 30
0.0
 40
0.5
  0
LINE
  5
2CC
100
AcDbEntity
  8
LinearPattern001
 62
5
420
255
370
-1
 48
1.0
  6
BYLAYER
100
AcDbLine
 10
-24.1760000000000446
 20
-30.8439999999999657
 30
0.0
 11
-24.1760000000000446
 21
-30.8439999999999657
 31
0.0
  0
CIRCLE
  5
2CD
100
AcDbEntity
  8
LinearPattern001
 62
5
420
255
370
-1
 48
1.0
  6
BYLAYER
100
AcDbCircle
 10
-24.1759999999999877
 20
-32.8840000000000146
 30
0.0
 40
0.5
  0
LINE
  5
2CE
100
AcDbEntity
  8
LinearPattern001
 62
5
420
255
370
-1
 48
1.0
  6
BYLAYER
100
AcDbLine
 10
-24.1759999999999877
 20
-33.3840000000000146
 30
0.0
 11
-24.1759999999999877
 21
-33.3840000000000146
 31
0.0
  0
CIRCLE
  5
2CF
100
AcDbEntity
  8
LinearPattern001
 62
5
420
255
370
-1
 48
1.0
  6
BYLAYER
100
AcDbCircle
 10
-24.1759999999999877
 20
-32.8840000000000146
 30
0.0
 40
0.5
  0
LINE
  5
2D0
100
AcDbEntity
  8
LinearPattern001
 62
5
420
255
370
-1
 48
1.0
  6
BYLAYER
100
AcDbLine
 10
-24.1759999999999877
 20
-33.3840000000000146
 30
0.0
 11
-24.1759999999999877
 21
-33.3840000000000146
 31
0.0
  0
CIRCLE
  5
2D1
100
AcDbEntity
  8
LinearPattern001
 62
5
420
255
370
-1
 48
1.0
  6
BYLAYER
100
AcDbCircle
 10
-24.1759999999999877
 20
-35.4239999999999782
 30
0.0
 40
0.5
  0
LINE
  5
2D2
100
AcDbEntity
  8
LinearPattern001
 62
5
420
255
370
-1
 48
1.0
  6
BYLAYER
100
AcDbLine
 10
-24.1759999999999877
 20
-35.9239999999999782
 30
0.0
 11
-24.1759999999999877
 21
-35.9239999999999782
 31
0.0
  0
CIRCLE
  5
2D3
100
AcDbEntity
  8
LinearPattern001
 62
5
420
255
370
-1
 48
1.0
  6
BYLAYER
100
AcDbCircle
 10
-24.1759999999999877
 20
-35.4239999999999782
 30
0.0
 40
0.5
  0
LINE
  5
2D4
100
AcDbEntity
  8
LinearPattern001
 62
5
420
255
370
-1
 48
1.0
  6
BYLAYER
100
AcDbLine
 10
-24.1759999999999877
 20
-35.9239999999999782
 30
0.0
 11
-24.1759999999999877
 21
-35.9239999999999782
 31
0.0
  0
CIRCLE
  5
2D5
100
AcDbEntity
  8
LinearPattern001
 62
5
420
255
370
-1
 48
1.0
  6
BYLAYER
100
AcDbCircle
 10
-24.1760000000000446
 20
-40.5039999999999907
 30
0.0
 40
0.5
  0
LINE
  5
2D6
100
AcDbEntity
  8
LinearPattern001
 62
5
420
255
370
-1
 48
1.0
  6
BYLAYER
100
AcDbLine
 10
-24.1759999999999877
 20
-41.0040000000000191
 30
0.0
 11
-24.1759999999999877
 21
-41.0040000000000191
 31
0.0
  0
CIRCLE
  5
2D7
100
AcDbEntity
  8
LinearPattern001
 62
5
420
255
370
-1
 48
1.0
  6
BYLAYER
100
AcDbCircle
 10
-24.1760000000000446
 20
-40.5039999999999907
 30
0.0
 40
0.5
  0
LINE
  5
2D8
100
AcDbEntity
  8
LinearPattern001
 62
5
420
255
370
-1
 48
1.0
  6
BYLAYER
100
AcDbLine
 10
-24.1759999999999877
 20
-41.0040000000000191
 30
0.0
 11
-24.1759999999999877
 21
-41.0040000000000191
 31
0.0
  0
CIRCLE
  5
2D9
100
AcDbEntity
  8
LinearPattern001
 62
5
420
255
370
-1
 48
1.0
  6
BYLAYER
100
AcDbCircle
 10
-24.1759999999999877
 20
-37.9639999999999418
 30
0.0
 40
0.5
  0
LINE
  5
2DA
100
AcDbEntity
  8
LinearPattern001
 62
5
420
255
370
-1
 48
1.0
  6
BYLAYER
100
AcDbLine
 10
-24.1760000000000446
 20
-38.4639999999999134
 30
0.0
 11
-24.1760000000000446
 21
-38.4639999999999134
 31
0.0
  0
CIRCLE
  5
2DB
100
AcDbEntity
  8
LinearPattern001
 62
5
420
255
370
-1
 48
1.0
  6
BYLAYER
100
AcDbCircle
 10
-24.1759999999999877
 20
-37.9639999999999418
 30
0.0
 40
0.5
  0
LINE
  5
2DC
100
AcDbEntity
  8
LinearPattern001
 62
5
420
255
370
-1
 48
1.0
  6
BYLAYER
100
AcDbLine
 10
-24.1760000000000446
 20
-38.4639999999999134
 30
0.0
 11
-24.1760000000000446
 21
-38.4639999999999134
 31
0.0
  0
CIRCLE
  5
2DD
100
AcDbEntity
  8
LinearPattern001
 62
5
420
255
370
-1
 48
1.0
  6
BYLAYER
100
AcDbCircle
 10
24.0840000000000032
 20
-45.58400000000006
 30
0.0
 40
0.5
  0
LINE
  5
2DE
100
AcDbEntity
  8
LinearPattern001
 62
5
420
255
370
-1
 48
1.0
  6
BYLAYER
100
AcDbLine
 10
24.0839999999999463
 20
-46.08400000000006
 30
0.0
 11
24.0839999999999463
 21
-46.08400000000006
 31
0.0
  0
CIRCLE
  5
2DF
100
AcDbEntity
  8
LinearPattern001
 62
5
420
255
370
-1
 48
1.0
  6
BYLAYER
100
AcDbCircle
 10
24.0840000000000032
 20
-45.58400000000006
 30
0.0
 40
0.5
  0
LINE
  5
2E0
100
AcDbEntity
  8
LinearPattern001
 62
5
420
255
370
-1
 48
1.0
  6
BYLAYER
100
AcDbLine
 10
24.0839999999999463
 20
-46.08400000000006
 30
0.0
 11
24.0839999999999463
 21
-46.08400000000006
 31
0.0
  0
CIRCLE
  5
2E1
100
AcDbEntity
  8
LinearPattern001
 62
5
420
255
370
-1
 48
1.0
  6
BYLAYER
100
AcDbCircle
 10
24.0840000000000032
 20
-43.0439999999999827
 30
0.0
 40
0.5
  0
LINE
  5
2E2
100
AcDbEntity
  8
LinearPattern001
 62
5
420
255
370
-1
 48
1.0
  6
BYLAYER
100
AcDbLine
 10
24.0840000000000032
 20
-43.5439999999999827
 30
0.0
 11
24.0840000000000032
 21
-43.5439999999999827
 31
0.0
  0
CIRCLE
  5
2E3
100
AcDbEntity
  8
LinearPattern001
 62
5
420
255
370
-1
 48
1.0
  6
BYLAYER
100
AcDbCircle
 10
24.0840000000000032
 20
-43.0439999999999827
 30
0.0
 40
0.5
  0
LINE
  5
2E4
100
AcDbEntity
  8
LinearPattern001
 62
5
420
255
370
-1
 48
1.0
  6
BYLAYER
100
AcDbLine
 10
24.0840000000000032
 20
-43.5439999999999827
 30
0.0
 11
24.0840000000000032
 21
-43.5439999999999827
 31
0.0
  0
CIRCLE
  5
2E5
100
AcDbEntity
  8
LinearPattern001
 62
5
420
255
370
-1
 48
1.0
  6
BYLAYER
100
AcDbCircle
 10
-3.8560000000001082
 20
-45.58400000000006
 30
0.0
 40
0.5
  0
LINE
  5
2E6
100
AcDbEntity
  8
LinearPattern001
 62
5
420
255
370
-1
 48
1.0
  6
BYLAYER
100
AcDbLine
 10
-3.8559999999999377
 20
-46.08400000000006
 30
0.0
 11
-3.8559999999999377
 21
-46.08400000000006
 31
0.0
  0
CIRCLE
  5
2E7
100
AcDbEntity
  8
LinearPattern001
 62
5
420
255
370
-1
 48
1.0
  6
BYLAYER
100
AcDbCircle
 10
-3.8560000000001082
 20
-45.58400000000006
 30
0.0
 40
0.5
  0
LINE
  5
2E8
100
AcDbEntity
  8
LinearPattern001
 62
5
420
255
370
-1
 48
1.0
  6
BYLAYER
100
AcDbLine
 10
-3.8559999999999377
 20
-46.08400000000006
 30
0.0
 11
-3.8559999999999377
 21
-46.08400000000006
 31
0.0
  0
CIRCLE
  5
2E9
100
AcDbEntity
  8
LinearPattern001
 62
5
420
255
370
-1
 48
1.0
  6
BYLAYER
100
AcDbCircle
 10
-1.3160000000000878
 20
-45.58400000000006
 30
0.0
 40
0.5
  0
LINE
  5
2EA
100
AcDbEntity
  8
LinearPattern001
 62
5
420
255
370
-1
 48
1.0
  6
BYLAYER
100
AcDbLine
 10
-1.3159999999999172
 20
-46.08400000000006
 30
0.0
 11
-1.3159999999999172
 21
-46.08400000000006
 31
0.0
  0
CIRCLE
  5
2EB
100
AcDbEntity
  8
LinearPattern001
 62
5
420
255
370
-1
 48
1.0
  6
BYLAYER
100
AcDbCircle
 10
-1.3160000000000878
 20
-45.58400000000006
 30
0.0
 40
0.5
  0
LINE
  5
2EC
100
AcDbEntity
  8
LinearPattern001
 62
5
420
255
370
-1
 48
1.0
  6
BYLAYER
100
AcDbLine
 10
-1.3159999999999172
 20
-46.08400000000006
 30
0.0
 11
-1.3159999999999172
 21
-46.08400000000006
 31
0.0
  0
CIRCLE
  5
2ED
100
AcDbEntity
  8
LinearPattern001
 62
5
420
255
370
-1
 48
1.0
  6
BYLAYER
100
AcDbCircle
 10
1.2240000000001032
 20
-45.58400000000006
 30
0.0
 40
0.5
  0
LINE
  5
2EE
100
AcDbEntity
  8
LinearPattern001
 62
5
420
255
370
-1
 48
1.0
  6
BYLAYER
100
AcDbLine
 10
1.2240000000001032
 20
-46.08400000000006
 30
0.0
 11
1.2240000000001032
 21
-46.08400000000006
 31
0.0
  0
CIRCLE
  5
2EF
100
AcDbEntity
  8
LinearPattern001
 62
5
420
255
370
-1
 48
1.0
  6
BYLAYER
100
AcDbCircle
 10
1.2240000000001032
 20
-45.58400000000006
 30
0.0
 40
0.5
  0
LINE
  5
2F0
100
AcDbEntity
  8
LinearPattern001
 62
5
420
255
370
-1
 48
1.0
  6
BYLAYER
100
AcDbLine
 10
1.2240000000001032
 20
-46.08400000000006
 30
0.0
 11
1.2240000000001032
 21
-46.08400000000006
 31
0.0
  0
CIRCLE
  5
2F1
100
AcDbEntity
  8
LinearPattern001
 62
5
420
255
370
-1
 48
1.0
  6
BYLAYER
100
AcDbCircle
 10
3.76400000000001
 20
-45.58400000000006
 30
0.0
 40
0.5
  0
LINE
  5
2F2
100
AcDbEntity
  8
LinearPattern001
 62
5
420
255
370
-1
 48
1.0
  6
BYLAYER
100
AcDbLine
 10
3.7639999999999532
 20
-46.08400000000006
 30
0.0
 11
3.7639999999999532
 21
-46.08400000000006
 31
0.0
  0
CIRCLE
  5
2F3
100
AcDbEntity
  8
LinearPattern001
 62
5
420
255
370
-1
 48
1.0
  6
BYLAYER
100
AcDbCircle
 10
3.76400000000001
 20
-45.58400000000006
 30
0.0
 40
0.5
  0
LINE
  5
2F4
100
AcDbEntity
  8
LinearPattern001
 62
5
420
255
370
-1
 48
1.0
  6
BYLAYER
100
AcDbLine
 10
3.7639999999999532
 20
-46.08400000000006
 30
0.0
 11
3.7639999999999532
 21
-46.08400000000006
 31
0.0
  0
CIRCLE
  5
2F5
100
AcDbEntity
  8
LinearPattern001
 62
5
420
255
370
-1
 48
1.0
  6
BYLAYER
100
AcDbCircle
 10
6.3040000000000305
 20
-45.58400000000006
 30
0.0
 40
0.5
  0
LINE
  5
2F6
100
AcDbEntity
  8
LinearPattern001
 62
5
420
255
370
-1
 48
1.0
  6
BYLAYER
100
AcDbLine
 10
6.3039999999999736
 20
-46.08400000000006
 30
0.0
 11
6.3039999999999736
 21
-46.08400000000006
 31
0.0
  0
CIRCLE
  5
2F7
100
AcDbEntity
  8
LinearPattern001
 62
5
420
255
370
-1
 48
1.0
  6
BYLAYER
100
AcDbCircle
 10
6.3040000000000305
 20
-45.58400000000006
 30
0.0
 40
0.5
  0
LINE
  5
2F8
100
AcDbEntity
  8
LinearPattern001
 62
5
420
255
370
-1
 48
1.0
  6
BYLAYER
100
AcDbLine
 10
6.3039999999999736
 20
-46.08400000000006
 30
0.0
 11
6.3039999999999736
 21
-46.08400000000006
 31
0.0
  0
CIRCLE
  5
2F9
100
AcDbEntity
  8
LinearPattern001
 62
5
420
255
370
-1
 48
1.0
  6
BYLAYER
100
AcDbCircle
 10
19.0040000000000191
 20
-45.58400000000006
 30
0.0
 40
0.5
  0
LINE
  5
2FA
100
AcDbEntity
  8
LinearPattern001
 62
5
420
255
370
-1
 48
1.0
  6
BYLAYER
100
AcDbLine
 10
19.0040000000000191
 20
-46.08400000000006
 30
0.0
 11
19.0040000000000191
 21
-46.08400000000006
 31
0.0
  0
CIRCLE
  5
2FB
100
AcDbEntity
  8
LinearPattern001
 62
5
420
255
370
-1
 48
1.0
  6
BYLAYER
100
AcDbCircle
 10
19.0040000000000191
 20
-45.58400000000006
 30
0.0
 40
0.5
  0
LINE
  5
2FC
100
AcDbEntity
  8
LinearPattern001
 62
5
420
255
370
-1
 48
1.0
  6
BYLAYER
100
AcDbLine
 10
19.0040000000000191
 20
-46.08400000000006
 30
0.0
 11
19.0040000000000191
 21
-46.08400000000006
 31
0.0
  0
CIRCLE
  5
2FD
100
AcDbEntity
  8
LinearPattern001
 62
5
420
255
370
-1
 48
1.0
  6
BYLAYER
100
AcDbCircle
 10
16.4639999999999986
 20
-45.58400000000006
 30
0.0
 40
0.5
  0
LINE
  5
2FE
100
AcDbEntity
  8
LinearPattern001
 62
5
420
255
370
-1
 48
1.0
  6
BYLAYER
100
AcDbLine
 10
16.4639999999999986
 20
-46.08400000000006
 30
0.0
 11
16.4639999999999986
 21
-46.08400000000006
 31
0.0
  0
CIRCLE
  5
2FF
100
AcDbEntity
  8
LinearPattern001
 62
5
420
255
370
-1
 48
1.0
  6
BYLAYER
100
AcDbCircle
 10
16.4639999999999986
 20
-45.58400000000006
 30
0.0
 40
0.5
  0
LINE
  5
300
100
AcDbEntity
  8
LinearPattern001
 62
5
420
255
370
-1
 48
1.0
  6
BYLAYER
100
AcDbLine
 10
16.4639999999999986
 20
-46.08400000000006
 30
0.0
 11
16.4639999999999986
 21
-46.08400000000006
 31
0.0
  0
CIRCLE
  5
301
100
AcDbEntity
  8
LinearPattern001
 62
5
420
255
370
-1
 48
1.0
  6
BYLAYER
100
AcDbCircle
 10
13.924000000000035
 20
-45.58400000000006
 30
0.0
 40
0.5
  0
LINE
  5
302
100
AcDbEntity
  8
LinearPattern001
 62
5
420
255
370
-1
 48
1.0
  6
BYLAYER
100
AcDbLine
 10
13.9239999999999782
 20
-46.08400000000006
 30
0.0
 11
13.9239999999999782
 21
-46.08400000000006
 31
0.0
  0
CIRCLE
  5
303
100
AcDbEntity
  8
LinearPattern001
 62
5
420
255
370
-1
 48
1.0
  6
BYLAYER
100
AcDbCircle
 10
13.924000000000035
 20
-45.58400000000006
 30
0.0
 40
0.5
  0
LINE
  5
304
100
AcDbEntity
  8
LinearPattern001
 62
5
420
255
370
-1
 48
1.0
  6
BYLAYER
100
AcDbLine
 10
13.9239999999999782
 20
-46.08400000000006
 30
0.0
 11
13.9239999999999782
 21
-46.08400000000006
 31
0.0
  0
CIRCLE
  5
305
100
AcDbEntity
  8
LinearPattern001
 62
5
420
255
370
-1
 48
1.0
  6
BYLAYER
100
AcDbCircle
 10
8.8439999999999941
 20
-45.58400000000006
 30
0.0
 40
0.5
  0
LINE
  5
306
100
AcDbEntity
  8
LinearPattern001
 62
5
420
255
370
-1
 48
1.0
  6
BYLAYER
100
AcDbLine
 10
8.8439999999999941
 20
-46.08400000000006
 30
0.0
 11
8.8439999999999941
 21
-46.08400000000006
 31
0.0
  0
CIRCLE
  5
307
100
AcDbEntity
  8
LinearPattern001
 62
5
420
255
370
-1
 48
1.0
  6
BYLAYER
100
AcDbCircle
 10
8.8439999999999941
 20
-45.58400000000006
 30
0.0
 40
0.5
  0
LINE
  5
308
100
AcDbEntity
  8
LinearPattern001
 62
5
420
255
370
-1
 48
1.0
  6
BYLAYER
100
AcDbLine
 10
8.8439999999999941
 20
-46.08400000000006
 30
0.0
 11
8.8439999999999941
 21
-46.08400000000006
 31
0.0
  0
CIRCLE
  5
309
100
AcDbEntity
  8
LinearPattern001
 62
5
420
255
370
-1
 48
1.0
  6
BYLAYER
100
AcDbCircle
 10
11.3840000000000146
 20
-45.58400000000006
 30
0.0
 40
0.5
  0
LINE
  5
30A
100
AcDbEntity
  8
LinearPattern001
 62
5
420
255
370
-1
 48
1.0
  6
BYLAYER
100
AcDbLine
 10
11.3840000000000146
 20
-46.08400000000006
 30
0.0
 11
11.3840000000000146
 21
-46.08400000000006
 31
0.0
  0
CIRCLE
  5
30B
100
AcDbEntity
  8
LinearPattern001
 62
5
420
255
370
-1
 48
1.0
  6
BYLAYER
100
AcDbCircle
 10
11.3840000000000146
 20
-45.58400000000006
 30
0.0
 40
0.5
  0
LINE
  5
30C
100
AcDbEntity
  8
LinearPattern001
 62
5
420
255
370
-1
 48
1.0
  6
BYLAYER
100
AcDbLine
 10
11.3840000000000146
 20
-46.08400000000006
 30
0.0
 11
11.3840000000000146
 21
-46.08400000000006
 31
0.0
  0
CIRCLE
  5
30D
100
AcDbEntity
  8
LinearPattern001
 62
5
420
255
370
-1
 48
1.0
  6
BYLAYER
100
AcDbCircle
 10
3.7639999999998963
 20
-43.0439999999999827
 30
0.0
 40
0.5
  0
LINE
  5
30E
100
AcDbEntity
  8
LinearPattern001
 62
5
420
255
370
-1
 48
1.0
  6
BYLAYER
100
AcDbLine
 10
3.76400000000001
 20
-43.5439999999999827
 30
0.0
 11
3.76400000000001
 21
-43.5439999999999827
 31
0.0
  0
CIRCLE
  5
30F
100
AcDbEntity
  8
LinearPattern001
 62
5
420
255
370
-1
 48
1.0
  6
BYLAYER
100
AcDbCircle
 10
3.7639999999998963
 20
-43.0439999999999827
 30
0.0
 40
0.5
  0
LINE
  5
310
100
AcDbEntity
  8
LinearPattern001
 62
5
420
255
370
-1
 48
1.0
  6
BYLAYER
100
AcDbLine
 10
3.76400000000001
 20
-43.5439999999999827
 30
0.0
 11
3.76400000000001
 21
-43.5439999999999827
 31
0.0
  0
CIRCLE
  5
311
100
AcDbEntity
  8
LinearPattern001
 62
5
420
255
370
-1
 48
1.0
  6
BYLAYER
100
AcDbCircle
 10
6.3039999999999736
 20
-43.0439999999999827
 30
0.0
 40
0.5
  0
LINE
  5
312
100
AcDbEntity
  8
LinearPattern001
 62
5
420
255
370
-1
 48
1.0
  6
BYLAYER
100
AcDbLine
 10
6.3039999999999736
 20
-43.5439999999999827
 30
0.0
 11
6.3039999999999736
 21
-43.5439999999999827
 31
0.0
  0
CIRCLE
  5
313
100
AcDbEntity
  8
LinearPattern001
 62
5
420
255
370
-1
 48
1.0
  6
BYLAYER
100
AcDbCircle
 10
6.3039999999999736
 20
-43.0439999999999827
 30
0.0
 40
0.5
  0
LINE
  5
314
100
AcDbEntity
  8
LinearPattern001
 62
5
420
255
370
-1
 48
1.0
  6
BYLAYER
100
AcDbLine
 10
6.3039999999999736
 20
-43.5439999999999827
 30
0.0
 11
6.3039999999999736
 21
-43.5439999999999827
 31
0.0
  0
CIRCLE
  5
315
100
AcDbEntity
  8
LinearPattern001
 62
5
420
255
370
-1
 48
1.0
  6
BYLAYER
100
AcDbCircle
 10
11.3840000000000146
 20
-43.0439999999999827
 30
0.0
 40
0.5
  0
LINE
  5
316
100
AcDbEntity
  8
LinearPattern001
 62
5
420
255
370
-1
 48
1.0
  6
BYLAYER
100
AcDbLine
 10
11.3839999999999577
 20
-43.5439999999999827
 30
0.0
 11
11.3839999999999577
 21
-43.5439999999999827
 31
0.0
  0
CIRCLE
  5
317
100
AcDbEntity
  8
LinearPattern001
 62
5
420
255
370
-1
 48
1.0
  6
BYLAYER
100
AcDbCircle
 10
11.3840000000000146
 20
-43.0439999999999827
 30
0.0
 40
0.5
  0
LINE
  5
318
100
AcDbEntity
  8
LinearPattern001
 62
5
420
255
370
-1
 48
1.0
  6
BYLAYER
100
AcDbLine
 10
11.3839999999999577
 20
-43.5439999999999827
 30
0.0
 11
11.3839999999999577
 21
-43.5439999999999827
 31
0.0
  0
CIRCLE
  5
319
100
AcDbEntity
  8
LinearPattern001
 62
5
420
255
370
-1
 48
1.0
  6
BYLAYER
100
AcDbCircle
 10
8.8439999999999941
 20
-43.0439999999999827
 30
0.0
 40
0.5
  0
LINE
  5
31A
100
AcDbEntity
  8
LinearPattern001
 62
5
420
255
370
-1
 48
1.0
  6
BYLAYER
100
AcDbLine
 10
8.8439999999999372
 20
-43.5439999999999827
 30
0.0
 11
8.8439999999999372
 21
-43.5439999999999827
 31
0.0
  0
CIRCLE
  5
31B
100
AcDbEntity
  8
LinearPattern001
 62
5
420
255
370
-1
 48
1.0
  6
BYLAYER
100
AcDbCircle
 10
8.8439999999999941
 20
-43.0439999999999827
 30
0.0
 40
0.5
  0
LINE
  5
31C
100
AcDbEntity
  8
LinearPattern001
 62
5
420
255
370
-1
 48
1.0
  6
BYLAYER
100
AcDbLine
 10
8.8439999999999372
 20
-43.5439999999999827
 30
0.0
 11
8.8439999999999372
 21
-43.5439999999999827
 31
0.0
  0
CIRCLE
  5
31D
100
AcDbEntity
  8
LinearPattern001
 62
5
420
255
370
-1
 48
1.0
  6
BYLAYER
100
AcDbCircle
 10
19.0040000000000191
 20
-43.0439999999999827
 30
0.0
 40
0.5
  0
LINE
  5
31E
100
AcDbEntity
  8
LinearPattern001
 62
5
420
255
370
-1
 48
1.0
  6
BYLAYER
100
AcDbLine
 10
19.0040000000000191
 20
-43.5439999999999827
 30
0.0
 11
19.0040000000000191
 21
-43.5439999999999827
 31
0.0
  0
CIRCLE
  5
31F
100
AcDbEntity
  8
LinearPattern001
 62
5
420
255
370
-1
 48
1.0
  6
BYLAYER
100
AcDbCircle
 10
19.0040000000000191
 20
-43.0439999999999827
 30
0.0
 40
0.5
  0
LINE
  5
320
100
AcDbEntity
  8
LinearPattern001
 62
5
420
255
370
-1
 48
1.0
  6
BYLAYER
100
AcDbLine
 10
19.0040000000000191
 20
-43.5439999999999827
 30
0.0
 11
19.0040000000000191
 21
-43.5439999999999827
 31
0.0
  0
CIRCLE
  5
321
100
AcDbEntity
  8
LinearPattern001
 62
5
420
255
370
-1
 48
1.0
  6
BYLAYER
100
AcDbCircle
 10
16.4639999999999986
 20
-43.0439999999999827
 30
0.0
 40
0.5
  0
LINE
  5
322
100
AcDbEntity
  8
LinearPattern001
 62
5
420
255
370
-1
 48
1.0
  6
BYLAYER
100
AcDbLine
 10
16.4639999999999418
 20
-43.5439999999999827
 30
0.0
 11
16.4639999999999418
 21
-43.5439999999999827
 31
0.0
  0
CIRCLE
  5
323
100
AcDbEntity
  8
LinearPattern001
 62
5
420
255
370
-1
 48
1.0
  6
BYLAYER
100
AcDbCircle
 10
16.4639999999999986
 20
-43.0439999999999827
 30
0.0
 40
0.5
  0
LINE
  5
324
100
AcDbEntity
  8
LinearPattern001
 62
5
420
255
370
-1
 48
1.0
  6
BYLAYER
100
AcDbLine
 10
16.4639999999999418
 20
-43.5439999999999827
 30
0.0
 11
16.4639999999999418
 21
-43.5439999999999827
 31
0.0
  0
CIRCLE
  5
325
100
AcDbEntity
  8
LinearPattern001
 62
5
420
255
370
-1
 48
1.0
  6
BYLAYER
100
AcDbCircle
 10
13.9239999999999782
 20
-43.0439999999999827
 30
0.0
 40
0.5
  0
LINE
  5
326
100
AcDbEntity
  8
LinearPattern001
 62
5
420
255
370
-1
 48
1.0
  6
BYLAYER
100
AcDbLine
 10
13.9239999999999782
 20
-43.5439999999999827
 30
0.0
 11
13.9239999999999782
 21
-43.5439999999999827
 31
0.0
  0
CIRCLE
  5
327
100
AcDbEntity
  8
LinearPattern001
 62
5
420
255
370
-1
 48
1.0
  6
BYLAYER
100
AcDbCircle
 10
13.9239999999999782
 20
-43.0439999999999827
 30
0.0
 40
0.5
  0
LINE
  5
328
100
AcDbEntity
  8
LinearPattern001
 62
5
420
255
370
-1
 48
1.0
  6
BYLAYER
100
AcDbLine
 10
13.9239999999999782
 20
-43.5439999999999827
 30
0.0
 11
13.9239999999999782
 21
-43.5439999999999827
 31
0.0
  0
CIRCLE
  5
329
100
AcDbEntity
  8
LinearPattern001
 62
5
420
255
370
-1
 48
1.0
  6
BYLAYER
100
AcDbCircle
 10
1.2239999999999895
 20
-43.0439999999999827
 30
0.0
 40
0.5
  0
LINE
  5
32A
100
AcDbEntity
  8
LinearPattern001
 62
5
420
255
370
-1
 48
1.0
  6
BYLAYER
100
AcDbLine
 10
1.2240000000001032
 20
-43.5439999999999827
 30
0.0
 11
1.2240000000001032
 21
-43.5439999999999827
 31
0.0
  0
CIRCLE
  5
32B
100
AcDbEntity
  8
LinearPattern001
 62
5
420
255
370
-1
 48
1.0
  6
BYLAYER
100
AcDbCircle
 10
1.2239999999999895
 20
-43.0439999999999827
 30
0.0
 40
0.5
  0
LINE
  5
32C
100
AcDbEntity
  8
LinearPattern001
 62
5
420
255
370
-1
 48
1.0
  6
BYLAYER
100
AcDbLine
 10
1.2240000000001032
 20
-43.5439999999999827
 30
0.0
 11
1.2240000000001032
 21
-43.5439999999999827
 31
0.0
  0
CIRCLE
  5
32D
100
AcDbEntity
  8
LinearPattern001
 62
5
420
255
370
-1
 48
1.0
  6
BYLAYER
100
AcDbCircle
 10
-1.3160000000000878
 20
-43.0439999999999827
 30
0.0
 40
0.5
  0
LINE
  5
32E
100
AcDbEntity
  8
LinearPattern001
 62
5
420
255
370
-1
 48
1.0
  6
BYLAYER
100
AcDbLine
 10
-1.3160000000001446
 20
-43.5439999999999827
 30
0.0
 11
-1.3160000000001446
 21
-43.5439999999999827
 31
0.0
  0
CIRCLE
  5
32F
100
AcDbEntity
  8
LinearPattern001
 62
5
420
255
370
-1
 48
1.0
  6
BYLAYER
100
AcDbCircle
 10
-1.3160000000000878
 20
-43.0439999999999827
 30
0.0
 40
0.5
  0
LINE
  5
330
100
AcDbEntity
  8
LinearPattern001
 62
5
420
255
370
-1
 48
1.0
  6
BYLAYER
100
AcDbLine
 10
-1.3160000000001446
 20
-43.5439999999999827
 30
0.0
 11
-1.3160000000001446
 21
-43.5439999999999827
 31
0.0
  0
CIRCLE
  5
331
100
AcDbEntity
  8
LinearPattern001
 62
5
420
255
370
-1
 48
1.0
  6
BYLAYER
100
AcDbCircle
 10
-3.8559999999999377
 20
-43.0439999999999827
 30
0.0
 40
0.5
  0
LINE
  5
332
100
AcDbEntity
  8
LinearPattern001
 62
5
420
255
370
-1
 48
1.0
  6
BYLAYER
100
AcDbLine
 10
-3.8559999999999945
 20
-43.5439999999999827
 30
0.0
 11
-3.8559999999999945
 21
-43.5439999999999827
 31
0.0
  0
CIRCLE
  5
333
100
AcDbEntity
  8
LinearPattern001
 62
5
420
255
370
-1
 48
1.0
  6
BYLAYER
100
AcDbCircle
 10
-3.8559999999999377
 20
-43.0439999999999827
 30
0.0
 40
0.5
  0
LINE
  5
334
100
AcDbEntity
  8
LinearPattern001
 62
5
420
255
370
-1
 48
1.0
  6
BYLAYER
100
AcDbLine
 10
-3.8559999999999945
 20
-43.5439999999999827
 30
0.0
 11
-3.8559999999999945
 21
-43.5439999999999827
 31
0.0
  0
CIRCLE
  5
335
100
AcDbEntity
  8
LinearPattern001
 62
5
420
255
370
-1
 48
1.0
  6
BYLAYER
100
AcDbCircle
 10
21.5439999999999827
 20
-43.0439999999999827
 30
0.0
 40
0.5
  0
LINE
  5
336
100
AcDbEntity
  8
LinearPattern001
 62
5
420
255
370
-1
 48
1.0
  6
BYLAYER
100
AcDbLine
 10
21.5439999999999827
 20
-43.5439999999999827
 30
0.0
 11
21.5439999999999827
 21
-43.5439999999999827
 31
0.0
  0
CIRCLE
  5
337
100
AcDbEntity
  8
LinearPattern001
 62
5
420
255
370
-1
 48
1.0
  6
BYLAYER
100
AcDbCircle
 10
21.5439999999999827
 20
-43.0439999999999827
 30
0.0
 40
0.5
  0
LINE
  5
338
100
AcDbEntity
  8
LinearPattern001
 62
5
420
255
370
-1
 48
1.0
  6
BYLAYER
100
AcDbLine
 10
21.5439999999999827
 20
-43.5439999999999827
 30
0.0
 11
21.5439999999999827
 21
-43.5439999999999827
 31
0.0
  0
CIRCLE
  5
339
100
AcDbEntity
  8
LinearPattern001
 62
5
420
255
370
-1
 48
1.0
  6
BYLAYER
100
AcDbCircle
 10
21.5439999999999827
 20
-45.58400000000006
 30
0.0
 40
0.5
  0
LINE
  5
33A
100
AcDbEntity
  8
LinearPattern001
 62
5
420
255
370
-1
 48
1.0
  6
BYLAYER
100
AcDbLine
 10
21.5439999999999827
 20
-46.08400000000006
 30
0.0
 11
21.5439999999999827
 21
-46.08400000000006
 31
0.0
  0
CIRCLE
  5
33B
100
AcDbEntity
  8
LinearPattern001
 62
5
420
255
370
-1
 48
1.0
  6
BYLAYER
100
AcDbCircle
 10
21.5439999999999827
 20
-45.58400000000006
 30
0.0
 40
0.5
  0
LINE
  5
33C
100
AcDbEntity
  8
LinearPattern001
 62
5
420
255
370
-1
 48
1.0
  6
BYLAYER
100
AcDbLine
 10
21.5439999999999827
 20
-46.08400000000006
 30
0.0
 11
21.5439999999999827
 21
-46.08400000000006
 31
0.0
  0
CIRCLE
  5
33D
100
AcDbEntity
  8
LinearPattern001
 62
5
420
255
370
-1
 48
1.0
  6
BYLAYER
100
AcDbCircle
 10
-16.55600000000004
 20
-43.0439999999999543
 30
0.0
 40
0.5
  0
LINE
  5
33E
100
AcDbEntity
  8
LinearPattern001
 62
5
420
255
370
-1
 48
1.0
  6
BYLAYER
100
AcDbLine
 10
-16.55600000000004
 20
-43.5439999999999827
 30
0.0
 11
-16.55600000000004
 21
-43.5439999999999827
 31
0.0
  0
CIRCLE
  5
33F
100
AcDbEntity
  8
LinearPattern001
 62
5
420
255
370
-1
 48
1.0
  6
BYLAYER
100
AcDbCircle
 10
-16.55600000000004
 20
-43.0439999999999543
 30
0.0
 40
0.5
  0
LINE
  5
340
100
AcDbEntity
  8
LinearPattern001
 62
5
420
255
370
-1
 48
1.0
  6
BYLAYER
100
AcDbLine
 10
-16.55600000000004
 20
-43.5439999999999827
 30
0.0
 11
-16.55600000000004
 21
-43.5439999999999827
 31
0.0
  0
CIRCLE
  5
341
100
AcDbEntity
  8
LinearPattern001
 62
5
420
255
370
-1
 48
1.0
  6
BYLAYER
100
AcDbCircle
 10
-14.0160000000000196
 20
-43.0439999999999827
 30
0.0
 40
0.5
  0
LINE
  5
342
100
AcDbEntity
  8
LinearPattern001
 62
5
420
255
370
-1
 48
1.0
  6
BYLAYER
100
AcDbLine
 10
-14.0160000000000196
 20
-43.5439999999999827
 30
0.0
 11
-14.0160000000000196
 21
-43.5439999999999827
 31
0.0
  0
CIRCLE
  5
343
100
AcDbEntity
  8
LinearPattern001
 62
5
420
255
370
-1
 48
1.0
  6
BYLAYER
100
AcDbCircle
 10
-14.0160000000000196
 20
-43.0439999999999827
 30
0.0
 40
0.5
  0
LINE
  5
344
100
AcDbEntity
  8
LinearPattern001
 62
5
420
255
370
-1
 48
1.0
  6
BYLAYER
100
AcDbLine
 10
-14.0160000000000196
 20
-43.5439999999999827
 30
0.0
 11
-14.0160000000000196
 21
-43.5439999999999827
 31
0.0
  0
CIRCLE
  5
345
100
AcDbEntity
  8
LinearPattern001
 62
5
420
255
370
-1
 48
1.0
  6
BYLAYER
100
AcDbCircle
 10
-14.0160000000000196
 20
-45.58400000000006
 30
0.0
 40
0.5
  0
LINE
  5
346
100
AcDbEntity
  8
LinearPattern001
 62
5
420
255
370
-1
 48
1.0
  6
BYLAYER
100
AcDbLine
 10
-14.0159999999999627
 20
-46.08400000000006
 30
0.0
 11
-14.0159999999999627
 21
-46.08400000000006
 31
0.0
  0
CIRCLE
  5
347
100
AcDbEntity
  8
LinearPattern001
 62
5
420
255
370
-1
 48
1.0
  6
BYLAYER
100
AcDbCircle
 10
-14.0160000000000196
 20
-45.58400000000006
 30
0.0
 40
0.5
  0
LINE
  5
348
100
AcDbEntity
  8
LinearPattern001
 62
5
420
255
370
-1
 48
1.0
  6
BYLAYER
100
AcDbLine
 10
-14.0159999999999627
 20
-46.08400000000006
 30
0.0
 11
-14.0159999999999627
 21
-46.08400000000006
 31
0.0
  0
CIRCLE
  5
349
100
AcDbEntity
  8
LinearPattern001
 62
5
420
255
370
-1
 48
1.0
  6
BYLAYER
100
AcDbCircle
 10
-16.5560000000000969
 20
-45.5840000000000316
 30
0.0
 40
0.5
  0
LINE
  5
34A
100
AcDbEntity
  8
LinearPattern001
 62
5
420
255
370
-1
 48
1.0
  6
BYLAYER
100
AcDbLine
 10
-16.5560000000000969
 20
-46.0840000000000316
 30
0.0
 11
-16.5560000000000969
 21
-46.0840000000000316
 31
0.0
  0
CIRCLE
  5
34B
100
AcDbEntity
  8
LinearPattern001
 62
5
420
255
370
-1
 48
1.0
  6
BYLAYER
100
AcDbCircle
 10
-16.5560000000000969
 20
-45.5840000000000316
 30
0.0
 40
0.5
  0
LINE
  5
34C
100
AcDbEntity
  8
LinearPattern001
 62
5
420
255
370
-1
 48
1.0
  6
BYLAYER
100
AcDbLine
 10
-16.5560000000000969
 20
-46.0840000000000316
 30
0.0
 11
-16.5560000000000969
 21
-46.0840000000000316
 31
0.0
  0
CIRCLE
  5
34D
100
AcDbEntity
  8
LinearPattern001
 62
5
420
255
370
-1
 48
1.0
  6
BYLAYER
100
AcDbCircle
 10
-8.9360000000000355
 20
-45.58400000000006
 30
0.0
 40
0.5
  0
LINE
  5
34E
100
AcDbEntity
  8
LinearPattern001
 62
5
420
255
370
-1
 48
1.0
  6
BYLAYER
100
AcDbLine
 10
-8.9360000000000355
 20
-46.08400000000006
 30
0.0
 11
-8.9360000000000355
 21
-46.08400000000006
 31
0.0
  0
CIRCLE
  5
34F
100
AcDbEntity
  8
LinearPattern001
 62
5
420
255
370
-1
 48
1.0
  6
BYLAYER
100
AcDbCircle
 10
-8.9360000000000355
 20
-45.58400000000006
 30
0.0
 40
0.5
  0
LINE
  5
350
100
AcDbEntity
  8
LinearPattern001
 62
5
420
255
370
-1
 48
1.0
  6
BYLAYER
100
AcDbLine
 10
-8.9360000000000355
 20
-46.08400000000006
 30
0.0
 11
-8.9360000000000355
 21
-46.08400000000006
 31
0.0
  0
CIRCLE
  5
351
100
AcDbEntity
  8
LinearPattern001
 62
5
420
255
370
-1
 48
1.0
  6
BYLAYER
100
AcDbCircle
 10
-8.9360000000000355
 20
-43.0439999999999827
 30
0.0
 40
0.5
  0
LINE
  5
352
100
AcDbEntity
  8
LinearPattern001
 62
5
420
255
370
-1
 48
1.0
  6
BYLAYER
100
AcDbLine
 10
-8.9359999999999786
 20
-43.5439999999999827
 30
0.0
 11
-8.9359999999999786
 21
-43.5439999999999827
 31
0.0
  0
CIRCLE
  5
353
100
AcDbEntity
  8
LinearPattern001
 62
5
420
255
370
-1
 48
1.0
  6
BYLAYER
100
AcDbCircle
 10
-8.9360000000000355
 20
-43.0439999999999827
 30
0.0
 40
0.5
  0
LINE
  5
354
100
AcDbEntity
  8
LinearPattern001
 62
5
420
255
370
-1
 48
1.0
  6
BYLAYER
100
AcDbLine
 10
-8.9359999999999786
 20
-43.5439999999999827
 30
0.0
 11
-8.9359999999999786
 21
-43.5439999999999827
 31
0.0
  0
CIRCLE
  5
355
100
AcDbEntity
  8
LinearPattern001
 62
5
420
255
370
-1
 48
1.0
  6
BYLAYER
100
AcDbCircle
 10
-11.4759999999999991
 20
-45.58400000000006
 30
0.0
 40
0.5
  0
LINE
  5
356
100
AcDbEntity
  8
LinearPattern001
 62
5
420
255
370
-1
 48
1.0
  6
BYLAYER
100
AcDbLine
 10
-11.4759999999999991
 20
-46.08400000000006
 30
0.0
 11
-11.4759999999999991
 21
-46.08400000000006
 31
0.0
  0
CIRCLE
  5
357
100
AcDbEntity
  8
LinearPattern001
 62
5
420
255
370
-1
 48
1.0
  6
BYLAYER
100
AcDbCircle
 10
-11.4759999999999991
 20
-45.58400000000006
 30
0.0
 40
0.5
  0
LINE
  5
358
100
AcDbEntity
  8
LinearPattern001
 62
5
420
255
370
-1
 48
1.0
  6
BYLAYER
100
AcDbLine
 10
-11.4759999999999991
 20
-46.08400000000006
 30
0.0
 11
-11.4759999999999991
 21
-46.08400000000006
 31
0.0
  0
CIRCLE
  5
359
100
AcDbEntity
  8
LinearPattern001
 62
5
420
255
370
-1
 48
1.0
  6
BYLAYER
100
AcDbCircle
 10
-11.4759999999999991
 20
-43.0439999999999827
 30
0.0
 40
0.5
  0
LINE
  5
35A
100
AcDbEntity
  8
LinearPattern001
 62
5
420
255
370
-1
 48
1.0
  6
BYLAYER
100
AcDbLine
 10
-11.4759999999999991
 20
-43.5439999999999827
 30
0.0
 11
-11.4759999999999991
 21
-43.5439999999999827
 31
0.0
  0
CIRCLE
  5
35B
100
AcDbEntity
  8
LinearPattern001
 62
5
420
255
370
-1
 48
1.0
  6
BYLAYER
100
AcDbCircle
 10
-11.4759999999999991
 20
-43.0439999999999827
 30
0.0
 40
0.5
  0
LINE
  5
35C
100
AcDbEntity
  8
LinearPattern001
 62
5
420
255
370
-1
 48
1.0
  6
BYLAYER
100
AcDbLine
 10
-11.4759999999999991
 20
-43.5439999999999827
 30
0.0
 11
-11.4759999999999991
 21
-43.5439999999999827
 31
0.0
  0
CIRCLE
  5
35D
100
AcDbEntity
  8
LinearPattern001
 62
5
420
255
370
-1
 48
1.0
  6
BYLAYER
100
AcDbCircle
 10
-6.396000000000015
 20
-43.0439999999999827
 30
0.0
 40
0.5
  0
LINE
  5
35E
100
AcDbEntity
  8
LinearPattern001
 62
5
420
255
370
-1
 48
1.0
  6
BYLAYER
100
AcDbLine
 10
-6.396000000000015
 20
-43.5439999999999827
 30
0.0
 11
-6.396000000000015
 21
-43.5439999999999827
 31
0.0
  0
CIRCLE
  5
35F
100
AcDbEntity
  8
LinearPattern001
 62
5
420
255
370
-1
 48
1.0
  6
BYLAYER
100
AcDbCircle
 10
-6.396000000000015
 20
-43.0439999999999827
 30
0.0
 40
0.5
  0
LINE
  5
360
100
AcDbEntity
  8
LinearPattern001
 62
5
420
255
370
-1
 48
1.0
  6
BYLAYER
100
AcDbLine
 10
-6.396000000000015
 20
-43.5439999999999827
 30
0.0
 11
-6.396000000000015
 21
-43.5439999999999827
 31
0.0
  0
CIRCLE
  5
361
100
AcDbEntity
  8
LinearPattern001
 62
5
420
255
370
-1
 48
1.0
  6
BYLAYER
100
AcDbCircle
 10
-6.396000000000015
 20
-45.58400000000006
 30
0.0
 40
0.5
  0
LINE
  5
362
100
AcDbEntity
  8
LinearPattern001
 62
5
420
255
370
-1
 48
1.0
  6
BYLAYER
100
AcDbLine
 10
-6.396000000000015
 20
-46.08400000000006
 30
0.0
 11
-6.396000000000015
 21
-46.08400000000006
 31
0.0
  0
CIRCLE
  5
363
100
AcDbEntity
  8
LinearPattern001
 62
5
420
255
370
-1
 48
1.0
  6
BYLAYER
100
AcDbCircle
 10
-6.396000000000015
 20
-45.58400000000006
 30
0.0
 40
0.5
  0
LINE
  5
364
100
AcDbEntity
  8
LinearPattern001
 62
5
420
255
370
-1
 48
1.0
  6
BYLAYER
100
AcDbLine
 10
-6.396000000000015
 20
-46.08400000000006
 30
0.0
 11
-6.396000000000015
 21
-46.08400000000006
 31
0.0
  0
CIRCLE
  5
365
100
AcDbEntity
  8
LinearPattern001
 62
5
420
255
370
-1
 48
1.0
  6
BYLAYER
100
AcDbCircle
 10
-19.0960000000000605
 20
-43.0439999999999543
 30
0.0
 40
0.5
  0
LINE
  5
366
100
AcDbEntity
  8
LinearPattern001
 62
5
420
255
370
-1
 48
1.0
  6
BYLAYER
100
AcDbLine
 10
-19.0960000000000036
 20
-43.5439999999999827
 30
0.0
 11
-19.0960000000000036
 21
-43.5439999999999827
 31
0.0
  0
CIRCLE
  5
367
100
AcDbEntity
  8
LinearPattern001
 62
5
420
255
370
-1
 48
1.0
  6
BYLAYER
100
AcDbCircle
 10
-19.0960000000000605
 20
-43.0439999999999543
 30
0.0
 40
0.5
  0
LINE
  5
368
100
AcDbEntity
  8
LinearPattern001
 62
5
420
255
370
-1
 48
1.0
  6
BYLAYER
100
AcDbLine
 10
-19.0960000000000036
 20
-43.5439999999999827
 30
0.0
 11
-19.0960000000000036
 21
-43.5439999999999827
 31
0.0
  0
CIRCLE
  5
369
100
AcDbEntity
  8
LinearPattern001
 62
5
420
255
370
-1
 48
1.0
  6
BYLAYER
100
AcDbCircle
 10
-19.0960000000000036
 20
-45.58400000000006
 30
0.0
 40
0.5
  0
LINE
  5
36A
100
AcDbEntity
  8
LinearPattern001
 62
5
420
255
370
-1
 48
1.0
  6
BYLAYER
100
AcDbLine
 10
-19.0960000000000036
 20
-46.08400000000006
 30
0.0
 11
-19.0960000000000036
 21
-46.08400000000006
 31
0.0
  0
CIRCLE
  5
36B
100
AcDbEntity
  8
LinearPattern001
 62
5
420
255
370
-1
 48
1.0
  6
BYLAYER
100
AcDbCircle
 10
-19.0960000000000036
 20
-45.58400000000006
 30
0.0
 40
0.5
  0
LINE
  5
36C
100
AcDbEntity
  8
LinearPattern001
 62
5
420
255
370
-1
 48
1.0
  6
BYLAYER
100
AcDbLine
 10
-19.0960000000000036
 20
-46.08400000000006
 30
0.0
 11
-19.0960000000000036
 21
-46.08400000000006
 31
0.0
  0
ENDBLK
  5
36D
100
AcDbEntity
  8
0
100
AcDbBlockEnd
  0
ENDSEC
  0
SECTION
  2
ENTITIES
  0
INSERT
  5
36E
100
AcDbEntity
  8
layer 1
 62
2
420
16776960
370
-1
 48
1.0
  6
BYLAYER
100
AcDbBlockReference
  2
leds
 10
210.2925071397995112
 20
141.1026703748453883
 30
0.0
  0
LINE
  5
36F
100
AcDbEntity
  8
0
 62
256
370
-1
 48
1.0
  6
BYLAYER
100
AcDbLine
 10
0.0
 20
0.0
 30
0.0
 11
360.0
 21
0.0
 31
0.0
  0
LINE
  5
370
100
AcDbEntity
  8
0
 62
256
370
-1
 48
1.0
  6
BYLAYER
100
AcDbLine
 10
0.0
 20
0.0
 30
0.0
 11
0.0
 21
260.0
 31
0.0
  0
LINE
  5
371
100
AcDbEntity
  8
0
 62
256
370
-1
 48
1.0
  6
BYLAYER
100
AcDbLine
 10
360.0
 20
0.0
 30
0.0
 11
360.0
 21
260.0
 31
0.0
  0
LINE
  5
372
100
AcDbEntity
  8
0
 62
256
370
-1
 48
1.0
  6
BYLAYER
100
AcDbLine
 10
0.0
 20
260.0
 30
0.0
 11
360.0
 21
260.0
 31
0.0
  0
CIRCLE
  5
373
100
AcDbEntity
  8
layer 1
 62
2
420
16776960
370
-1
 48
1.0
  6
BYLAYER
100
AcDbCircle
 10
198.0
 20
106.0
 30
0.0
 40
0.5
  0
CIRCLE
  5
374
100
AcDbEntity
  8
layer 1
 62
2
420
16776960
370
-1
 48
1.0
  6
BYLAYER
100
AcDbCircle
 10
164.0
 20
106.0
 30
0.0
 40
0.5
  0
CIRCLE
  5
375
100
AcDbEntity
  8
layer 1
 62
2
420
16776960
370
-1
 48
1.0
  6
BYLAYER
100
AcDbCircle
 10
130.0
 20
106.0
 30
0.0
 40
0.5
  0
CIRCLE
  5
376
100
AcDbEntity
  8
layer 1
 62
2
420
16776960
370
-1
 48
1.0
  6
BYLAYER
100
AcDbCircle
 10
198.0
 20
141.0
 30
0.0
 40
0.5
  0
CIRCLE
  5
377
100
AcDbEntity
  8
layer 1
 62
2
420
16776960
370
-1
 48
1.0
  6
BYLAYER
100
AcDbCircle
 10
164.0
 20
141.0
 30
0.0
 40
0.5
  0
CIRCLE
  5
378
100
AcDbEntity
  8
layer 1
 62
2
420
16776960
370
-1
 48
1.0
  6
BYLAYER
100
AcDbCircle
 10
130.0
 20
141.0
 30
0.0
 40
0.5
  0
CIRCLE
  5
379
100
AcDbEntity
  8
layer 1
 62
2
420
16776960
370
-1
 48
1.0
  6
BYLAYER
100
AcDbCircle
 10
198.0
 20
175.0
 30
0.0
 40
0.5
  0
CIRCLE
  5
37A
100
AcDbEntity
  8
layer 1
 62
2
420
16776960
370
-1
 48
1.0
  6
BYLAYER
100
AcDbCircle
 10
164.0
 20
175.0
 30
0.0
 40
0.5
  0
CIRCLE
  5
37B
100
AcDbEntity
  8
layer 1
 62
2
420
16776960
370
-1
 48
1.0
  6
BYLAYER
100
AcDbCircle
 10
130.0
 20
175.0
 30
0.0
 40
0.5
  0
CIRCLE
  5
37C
100
AcDbEntity
  8
layer 1
 62
2
420
16776960
370
-1
 48
1.0
  6
BYLAYER
100
AcDbCircle
 10
198.0
 20
209.0
 30
0.0
 40
0.5
  0
CIRCLE
  5
37D
100
AcDbEntity
  8
layer 1
 62
2
420
16776960
370
-1
 48
1.0
  6
BYLAYER
100
AcDbCircle
 10
164.0
 20
209.0
 30
0.0
 40
0.5
  0
CIRCLE
  5
37E
100
AcDbEntity
  8
layer 1
 62
2
420
16776960
370
-1
 48
1.0
  6
BYLAYER
100
AcDbCircle
 10
130.0
 20
209.0
 30
0.0
 40
0.5
  0
CIRCLE
  5
37F
100
AcDbEntity
  8
layer 1
 62
2
420
16776960
370
-1
 48
1.0
  6
BYLAYER
100
AcDbCircle
 10
198.0
 20
243.0
 30
0.0
 40
0.5
  0
CIRCLE
  5
380
100
AcDbEntity
  8
layer 1
 62
2
420
16776960
370
-1
 48
1.0
  6
BYLAYER
100
AcDbCircle
 10
164.0
 20
243.0
 30
0.0
 40
0.5
  0
CIRCLE
  5
381
100
AcDbEntity
  8
layer 1
 62
2
420
16776960
370
-1
 48
1.0
  6
BYLAYER
100
AcDbCircle
 10
130.0
 20
243.0
 30
0.0
 40
0.5
  0
CIRCLE
  5
382
100
AcDbEntity
  8
layer 1
 62
2
420
16776960
370
-1
 48
1.0
  6
BYLAYER
100
AcDbCircle
 10
198.0
 20
106.0
 30
0.0
 40
9.0
  0
CIRCLE
  5
383
100
AcDbEntity
  8
layer 1
 62
2
420
16776960
370
-1
 48
1.0
  6
BYLAYER
100
AcDbCircle
 10
164.0
 20
106.0
 30
0.0
 40
9.0
  0
CIRCLE
  5
384
100
AcDbEntity
  8
layer 1
 62
2
420
16776960
370
-1
 48
1.0
  6
BYLAYER
100
AcDbCircle
 10
130.0
 20
106.0
 30
0.0
 40
9.0
  0
CIRCLE
  5
385
100
AcDbEntity
  8
layer 1
 62
2
420
16776960
370
-1
 48
1.0
  6
BYLAYER
100
AcDbCircle
 10
198.0
 20
141.0
 30
0.0
 40
7.0
  0
CIRCLE
  5
386
100
AcDbEntity
  8
layer 1
 62
2
420
16776960
370
-1
 48
1.0
  6
BYLAYER
100
AcDbCircle
 10
164.0
 20
141.0
 30
0.0
 40
7.0
  0
CIRCLE
  5
387
100
AcDbEntity
  8
layer 1
 62
2
420
16776960
370
-1
 48
1.0
  6
BYLAYER
100
AcDbCircle
 10
130.0
 20
141.0
 30
0.0
 40
7.0
  0
CIRCLE
  5
388
100
AcDbEntity
  8
layer 1
 62
2
420
16776960
370
-1
 48
1.0
  6
BYLAYER
100
AcDbCircle
 10
198.0
 20
175.0
 30
0.0
 40
7.0
  0
CIRCLE
  5
389
100
AcDbEntity
  8
layer 1
 62
2
420
16776960
370
-1
 48
1.0
  6
BYLAYER
100
AcDbCircle
 10
164.0
 20
175.0
 30
0.0
 40
7.0
  0
CIRCLE
  5
38A
100
AcDbEntity
  8
layer 1
 62
2
420
16776960
370
-1
 48
1.0
  6
BYLAYER
100
AcDbCircle
 10
130.0
 20
175.0
 30
0.0
 40
7.0
  0
CIRCLE
  5
38B
100
AcDbEntity
  8
layer 1
 62
2
420
16776960
370
-1
 48
1.0
  6
BYLAYER
100
AcDbCircle
 10
198.0
 20
209.0
 30
0.0
 40
7.0
  0
CIRCLE
  5
38C
100
AcDbEntity
  8
layer 1
 62
2
420
16776960
370
-1
 48
1.0
  6
BYLAYER
100
AcDbCircle
 10
164.0
 20
209.0
 30
0.0
 40
7.0
  0
CIRCLE
  5
38D
100
AcDbEntity
  8
layer 1
 62
2
420
16776960
370
-1
 48
1.0
  6
BYLAYER
100
AcDbCircle
 10
130.0
 20
209.0
 30
0.0
 40
7.0
  0
CIRCLE
  5
38E
100
AcDbEntity
  8
layer 1
 62
2
420
16776960
370
-1
 48
1.0
  6
BYLAYER
100
AcDbCircle
 10
198.0
 20
243.0
 30
0.0
 40
7.0
  0
CIRCLE
  5
38F
100
AcDbEntity
  8
layer 1
 62
2
420
16776960
370
-1
 48
1.0
  6
BYLAYER
100
AcDbCircle
 10
164.0
 20
243.0
 30
0.0
 40
7.0
  0
CIRCLE
  5
390
100
AcDbEntity
  8
layer 1
 62
2
420
16776960
370
-1
 48
1.0
  6
BYLAYER
100
AcDbCircle
 10
130.0
 20
243.0
 30
0.0
 40
7.0
  0
LINE
  5
391
100
AcDbEntity
  8
layer 1
 62
30
420
16744192
370
-1
 48
1.0
  6
BYLAYER
100
AcDbLine
 10
121.0
 20
80.0
 30
0.0
 11
139.0
 21
80.0
 31
0.0
  0
LINE
  5
392
100
AcDbEntity
  8
layer 1
 62
30
420
16744192
370
-1
 48
1.0
  6
BYLAYER
100
AcDbLine
 10
155.03157416496731
 20
79.9962425025943844
 30
0.0
 11
173.03157416496731
 21
79.9962425025943844
 31
0.0
  0
LINE
  5
393
100
AcDbEntity
  8
layer 1
 62
30
420
16744192
370
-1
 48
1.0
  6
BYLAYER
100
AcDbLine
 10
189.0187860991236448
 20
79.9816951774915168
 30
0.0
 11
207.0187860991236448
 21
79.9816951774915168
 31
0.0
  0
LINE
  5
394
100
AcDbEntity
  8
layer 1
 62
30
420
16744192
370
-1
 48
1.0
  6
BYLAYER
100
AcDbLine
 10
139.0
 20
80.0
 30
0.0
 11
139.0
 21
87.0
 31
0.0
  0
LINE
  5
395
100
AcDbEntity
  8
layer 1
 62
30
420
16744192
370
-1
 48
1.0
  6
BYLAYER
100
AcDbLine
 10
173.03157416496731
 20
79.9962425025943844
 30
0.0
 11
173.03157416496731
 21
86.9962425025943844
 31
0.0
  0
LINE
  5
396
100
AcDbEntity
  8
layer 1
 62
30
420
16744192
370
-1
 48
1.0
  6
BYLAYER
100
AcDbLine
 10
207.0187860991236448
 20
79.9816951774915168
 30
0.0
 11
207.0187860991236448
 21
86.9816951774915168
 31
0.0
  0
LINE
  5
397
100
AcDbEntity
  8
layer 1
 62
30
420
16744192
370
-1
 48
1.0
  6
BYLAYER
100
AcDbLine
 10
139.0
 20
87.0
 30
0.0
 11
121.0
 21
87.0
 31
0.0
  0
LINE
  5
398
100
AcDbEntity
  8
layer 1
 62
30
420
16744192
370
-1
 48
1.0
  6
BYLAYER
100
AcDbLine
 10
173.03157416496731
 20
86.9962425025943844
 30
0.0
 11
155.03157416496731
 21
86.9962425025943844
 31
0.0
  0
LINE
  5
399
100
AcDbEntity
  8
layer 1
 62
30
420
16744192
370
-1
 48
1.0
  6
BYLAYER
100
AcDbLine
 10
207.0187860991236448
 20
86.9816951774915168
 30
0.0
 11
189.0187860991236448
 21
86.9816951774915168
 31
0.0
  0
LINE
  5
39A
100
AcDbEntity
  8
layer 1
 62
30
420
16744192
370
-1
 48
1.0
  6
BYLAYER
100
AcDbLine
 10
121.0
 20
87.0
 30
0.0
 11
121.0
 21
80.0
 31
0.0
  0
LINE
  5
39B
100
AcDbEntity
  8
layer 1
 62
30
420
16744192
370
-1
 48
1.0
  6
BYLAYER
100
AcDbLine
 10
155.03157416496731
 20
86.9962425025943844
 30
0.0
 11
155.03157416496731
 21
79.9962425025943844
 31
0.0
  0
LINE
  5
39C
100
AcDbEntity
  8
layer 1
 62
30
420
16744192
370
-1
 48
1.0
  6
BYLAYER
100
AcDbLine
 10
189.0187860991236448
 20
86.9816951774915168
 30
0.0
 11
189.0187860991236448
 21
79.9816951774915168
 31
0.0
  0
LINE
  5
39D
100
AcDbEntity
  8
layer 1
 62
2
420
16776960
370
-1
 48
1.0
  6
BYLAYER
100
AcDbLine
 10
193.5
 20
12.0
 30
0.0
 11
202.5
 21
12.0
 31
0.0
  0
LINE
  5
39E
100
AcDbEntity
  8
layer 1
 62
2
420
16776960
370
-1
 48
1.0
  6
BYLAYER
100
AcDbLine
 10
202.5
 20
12.0
 30
0.0
 11
202.5
 21
72.0
 31
0.0
  0
LINE
  5
39F
100
AcDbEntity
  8
layer 1
 62
2
420
16776960
370
-1
 48
1.0
  6
BYLAYER
100
AcDbLine
 10
202.5
 20
72.0
 30
0.0
 11
193.5
 21
72.0
 31
0.0
  0
LINE
  5
3A0
100
AcDbEntity
  8
layer 1
 62
2
420
16776960
370
-1
 48
1.0
  6
BYLAYER
100
AcDbLine
 10
193.5
 20
72.0
 30
0.0
 11
193.5
 21
12.0
 31
0.0
  0
LINE
  5
3A1
100
AcDbEntity
  8
layer 1
 62
2
420
16776960
370
-1
 48
1.0
  6
BYLAYER
100
AcDbLine
 10
159.5
 20
12.0
 30
0.0
 11
168.5
 21
12.0
 31
0.0
  0
LINE
  5
3A2
100
AcDbEntity
  8
layer 1
 62
2
420
16776960
370
-1
 48
1.0
  6
BYLAYER
100
AcDbLine
 10
168.5
 20
12.0
 30
0.0
 11
168.5
 21
72.0
 31
0.0
  0
LINE
  5
3A3
100
AcDbEntity
  8
layer 1
 62
2
420
16776960
370
-1
 48
1.0
  6
BYLAYER
100
AcDbLine
 10
168.5
 20
72.0
 30
0.0
 11
159.5
 21
72.0
 31
0.0
  0
LINE
  5
3A4
100
AcDbEntity
  8
layer 1
 62
2
420
16776960
370
-1
 48
1.0
  6
BYLAYER
100
AcDbLine
 10
159.5
 20
72.0
 30
0.0
 11
159.5
 21
12.0
 31
0.0
  0
LINE
  5
3A5
100
AcDbEntity
  8
layer 1
 62
2
420
16776960
370
-1
 48
1.0
  6
BYLAYER
100
AcDbLine
 10
125.5
 20
12.0
 30
0.0
 11
134.5
 21
12.0
 31
0.0
  0
LINE
  5
3A6
100
AcDbEntity
  8
layer 1
 62
2
420
16776960
370
-1
 48
1.0
  6
BYLAYER
100
AcDbLine
 10
134.5
 20
12.0
 30
0.0
 11
134.5
 21
72.0
 31
0.0
  0
LINE
  5
3A7
100
AcDbEntity
  8
layer 1
 62
2
420
16776960
370
-1
 48
1.0
  6
BYLAYER
100
AcDbLine
 10
134.5
 20
72.0
 30
0.0
 11
125.5
 21
72.0
 31
0.0
  0
LINE
  5
3A8
100
AcDbEntity
  8
layer 1
 62
2
420
16776960
370
-1
 48
1.0
  6
BYLAYER
100
AcDbLine
 10
125.5
 20
72.0
 30
0.0
 11
125.5
 21
12.0
 31
0.0
  0
INSERT
  5
3A9
100
AcDbEntity
  8
layer 1
 62
2
420
16776960
370
-1
 48
1.0
  6
BYLAYER
100
AcDbBlockReference
  2
leds
 10
176.2689140328037638
 20
141.0396853782747826
 30
0.0
  0
INSERT
  5
3AA
100
AcDbEntity
  8
layer 1
 62
14
420
8388608
370
-1
 48
1.0
  6
BYLAYER
100
AcDbBlockReference
  2
leds
 10
142.0
 20
141.0
 30
0.0
  0
INSERT
  5
3AB
100
AcDbEntity
  8
layer 1
 62
2
420
16776960
370
-1
 48
1.0
  6
BYLAYER
100
AcDbBlockReference
  2
leds
 10
224.0
 20
191.5
 30
0.0
  0
INSERT
  5
3AC
100
AcDbEntity
  8
layer 1
 62
2
420
16776960
370
-1
 48
1.0
  6
BYLAYER
100
AcDbBlockReference
  2
leds
 10
236.0
 20
191.5
 30
0.0
  0
CIRCLE
  5
3AD
100
AcDbEntity
  8
layer 1
 62
2
420
16776960
370
-1
 48
1.0
  6
BYLAYER
100
AcDbCircle
 10
230.0
 20
175.0
 30
0.0
 40
7.0
  0
CIRCLE
  5
3AE
100
AcDbEntity
  8
layer 1
 62
2
420
16776960
370
-1
 48
1.0
  6
BYLAYER
100
AcDbCircle
 10
230.0
 20
60.0
 30
0.0
 40
7.0
  0
CIRCLE
  5
3AF
100
AcDbEntity
  8
layer 1
 62
2
420
16776960
370
-1
 48
1.0
  6
BYLAYER
100
AcDbCircle
 10
230.0
 20
27.0
 30
0.0
 40
7.0
  0
INSERT
  5
3B0
100
AcDbEntity
  8
layer 1
 62
256
370
-1
 48
1.0
  6
BYLAYER
100
AcDbBlockReference
  2
block deck
 10
355.0
 20
120.0
 30
0.0
  0
LINE
  5
3B1
100
AcDbEntity
  8
layer 1
 62
30
420
16744192
370
-1
 48
1.0
  6
BYLAYER
100
AcDbLine
 10
221.0
 20
96.0
 30
0.0
 11
239.0
 21
96.0
 31
0.0
  0
LINE
  5
3B2
100
AcDbEntity
  8
layer 1
 62
30
420
16744192
370
-1
 48
1.0
  6
BYLAYER
100
AcDbLine
 10
239.0
 20
96.0
 30
0.0
 11
239.0
 21
120.0
 31
0.0
  0
LINE
  5
3B3
100
AcDbEntity
  8
layer 1
 62
30
420
16744192
370
-1
 48
1.0
  6
BYLAYER
100
AcDbLine
 10
239.0
 20
120.0
 30
0.0
 11
221.0
 21
120.0
 31
0.0
  0
LINE
  5
3B4
100
AcDbEntity
  8
layer 1
 62
30
420
16744192
370
-1
 48
1.0
  6
BYLAYER
100
AcDbLine
 10
221.0
 20
120.0
 30
0.0
 11
221.0
 21
96.0
 31
0.0
  0
MTEXT
  5
3B5
100
AcDbEntity
  8
layer 1
 62
30
420
16744192
370
-1
 48
1.0
  6
BYLAYER
100
AcDbMText
 10
230.0
 20
108.0000000000000142
 30
0.0
 40
3.0
 41
0.0
 71
5
 72
1
  1
DECK\PSWITCH
  7
textstyle2
 50
0.0
 73
2
 44
1.0
  0
INSERT
  5
3B6
100
AcDbEntity
  8
layer 1
 62
256
370
-1
 48
1.0
  6
BYLAYER
100
AcDbBlockReference
  2
block deck
 10
105.0
 20
120.0
 30
0.0
  0
INSERT
  5
3B7
100
AcDbEntity
  8
layer 3
 62
5
420
255
370
-1
 48
1.0
  6
BYLAYER
100
AcDbBlockReference
  2
arduino mega
 10
305.0
 20
214.0
 30
0.0
  0
ENDSEC
  0
SECTION
  2
OBJECTS
  0
DICTIONARY
  5
C
100
AcDbDictionary
280
0
281
1
  3
ACAD_GROUP
350
D
  3
ACAD_LAYOUT
350
1A
  3
ACAD_MLINESTYLE
350
17
  3
ACAD_PLOTSETTINGS
350
19
  3
ACAD_PLOTSTYLENAME
350
E
  3
AcDbVariableDictionary
350
3B8
  3
QCAD_OBJECTS
350
3B9
  0
DICTIONARY
  5
D
100
AcDbDictionary
280
0
281
1
  0
ACDBDICTIONARYWDFLT
  5
E
100
AcDbDictionary
281
1
  3
Normal
350
F
100
AcDbDictionaryWithDefault
340
F
  0
ACDBPLACEHOLDER
  5
F
  0
DICTIONARY
  5
17
100
AcDbDictionary
280
0
281
1
  3
Standard
350
18
  0
MLINESTYLE
  5
18
100
AcDbMlineStyle
  2
STANDARD
 70
0
  3

 62
256
 51
90.0
 52
90.0
 71
2
 49
0.5
 62
256
  6
BYLAYER
 49
-0.5
 62
256
  6
BYLAYER
  0
DICTIONARY
  5
19
100
AcDbDictionary
280
0
281
1
  0
DICTIONARY
  5
1A
100
AcDbDictionary
281
1
  3
Layout1
350
1E
  3
Layout2
350
26
  3
Model
350
22
  0
LAYOUT
  5
1E
100
AcDbPlotSettings
  1

  2
none_device
  4

  6

 40
0.0
 41
0.0
 42
0.0
 43
0.0
 44
0.0
 45
0.0
 46
0.0
 47
0.0
 48
0.0
 49
0.0
140
0.0
141
0.0
142
1.0
143
1.0
 70
688
 72
0
 73
0
 74
5
  7

 75
16
147
1.0
148
0.0
149
0.0
100
AcDbLayout
  1
Layout1
 70
1
 71
1
 10
0.0
 20
0.0
 11
420.0
 21
297.0
 12
0.0
 22
0.0
 32
0.0
 14
100000000000000000000.0
 24
100000000000000000000.0
 34
100000000000000000000.0
 15
-100000000000000000000.0
 25
-100000000000000000000.0
 35
-100000000000000000000.0
146
0.0
 13
0.0
 23
0.0
 33
0.0
 16
1.0
 26
0.0
 36
0.0
 17
0.0
 27
1.0
 37
0.0
 76
0
330
1B
  0
LAYOUT
  5
22
100
AcDbPlotSettings
  1

  2
none_device
  4

  6

 40
0.0
 41
0.0
 42
0.0
 43
0.0
 44
0.0
 45
0.0
 46
0.0
 47
0.0
 48
0.0
 49
0.0
140
0.0
141
0.0
142
1.0
143
1.0
 70
1712
 72
0
 73
0
 74
0
  7

 75
0
147
1.0
148
0.0
149
0.0
100
AcDbLayout
  1
Model
 70
1
 71
0
 10
0.0
 20
0.0
 11
12.0
 21
9.0
 12
0.0
 22
0.0
 32
0.0
 14
0.0
 24
0.0
 34
0.0
 15
0.0
 25
0.0
 35
0.0
146
0.0
 13
0.0
 23
0.0
 33
0.0
 16
1.0
 26
0.0
 36
0.0
 17
0.0
 27
1.0
 37
0.0
 76
0
330
1F
  0
LAYOUT
  5
26
100
AcDbPlotSettings
  1

  2
none_device
  4

  6

 40
0.0
 41
0.0
 42
0.0
 43
0.0
 44
0.0
 45
0.0
 46
0.0
 47
0.0
 48
0.0
 49
0.0
140
0.0
141
0.0
142
1.0
143
1.0
 70
688
 72
0
 73
0
 74
5
  7

 75
16
147
1.0
148
0.0
149
0.0
100
AcDbLayout
  1
Layout2
 70
1
 71
2
 10
0.0
 20
0.0
 11
12.0
 21
9.0
 12
0.0
 22
0.0
 32
0.0
 14
0.0
 24
0.0
 34
0.0
 15
0.0
 25
0.0
 35
0.0
146
0.0
 13
0.0
 23
0.0
 33
0.0
 16
1.0
 26
0.0
 36
0.0
 17
0.0
 27
1.0
 37
0.0
 76
0
330
23
  0
DICTIONARY
  5
3B8
100
AcDbDictionary
281
1
  3
DIMASSOC
350
3BB
  3
HIDETEXT
350
3BA
  0
DICTIONARYVAR
  5
3BA
100
DictionaryVariables
280
0
  1
2
  0
DICTIONARYVAR
  5
3BB
100
DictionaryVariables
280
0
  1
1
  0
DICTIONARY
  5
3B9
100
AcDbDictionary
281
1
  3
ColorSettings/BackgroundColor
350
3BC
  3
ColorSettings/ColorMode
350
3BD
  3
DimensionSettings/AngularFormat
350
3BE
  3
DimensionSettings/AngularPrecision
350
3BF
  3
DimensionSettings/DecimalPoint
350
3C0
  3
DimensionSettings/DimensionFont
350
3C1
  3
DimensionSettings/DimensionTextColor
350
3C2
  3
DimensionSettings/KeepProportions
350
3C3
  3
DimensionSettings/LinearFormat
350
3C4
  3
DimensionSettings/LinearPrecision
350
3C5
  3
Grid/DisplayGrid00
350
3C6
  3
Grid/DisplayGrid01
350
3C7
  3
Grid/DisplayGrid02
350
3C8
  3
Grid/DisplayGrid03
350
3C9
  3
Grid/GridSpacingX00
350
3CA
  3
Grid/GridSpacingX01
350
3CB
  3
Grid/GridSpacingX02
350
3CC
  3
Grid/GridSpacingX03
350
3CD
  3
Grid/GridSpacingY00
350
3CE
  3
Grid/GridSpacingY01
350
3CF
  3
Grid/GridSpacingY02
350
3D0
  3
Grid/GridSpacingY03
350
3D1
  3
Grid/IsometricGrid00
350
3D2
  3
Grid/IsometricGrid01
350
3D3
  3
Grid/IsometricGrid02
350
3D4
  3
Grid/IsometricGrid03
350
3D5
  3
Grid/IsometricProjection00
350
3D6
  3
Grid/IsometricProjection01
350
3D7
  3
Grid/IsometricProjection02
350
3D8
  3
Grid/IsometricProjection03
350
3D9
  3
Grid/MetaGridSpacingX00
350
3DA
  3
Grid/MetaGridSpacingX01
350
3DB
  3
Grid/MetaGridSpacingX02
350
3DC
  3
Grid/MetaGridSpacingX03
350
3DD
  3
Grid/MetaGridSpacingY00
350
3DE
  3
Grid/MetaGridSpacingY01
350
3DF
  3
Grid/MetaGridSpacingY02
350
3E0
  3
Grid/MetaGridSpacingY03
350
3E1
  3
LinetypeSettings/PSLTSCALE
350
3E2
  3
MultiPageSettings/Columns
350
3E3
  3
MultiPageSettings/GlueMarginsBottom
350
3E4
  3
MultiPageSettings/GlueMarginsLeft
350
3E5
  3
MultiPageSettings/GlueMarginsRight
350
3E6
  3
MultiPageSettings/GlueMarginsTop
350
3E7
  3
MultiPageSettings/PrintCropMarks
350
3E8
  3
MultiPageSettings/Rows
350
3E9
  3
PageSettings/OffsetX
350
3EA
  3
PageSettings/OffsetY
350
3EB
  3
PageSettings/PageOrientation
350
3EC
  3
PageSettings/PaperHeight
350
3ED
  3
PageSettings/PaperSizeName
350
3EE
  3
PageSettings/PaperWidth
350
3EF
  3
PageSettings/PointSize
350
3F0
  3
PageSettings/Scale
350
3F1
  3
PageSettings/ShowPaperBorders
350
3F2
  3
PageTagSettings/EnablePageTags
350
3F3
  3
PageTagSettings/TagAlignment
350
3F4
  3
PageTagSettings/TagFont
350
3F5
  3
PageTagSettings/TagPosition
350
3F6
  3
QCADVersion
350
3F7
  3
UnitSettings/PaperUnit
350
3F8
  3
ViewportCenter
350
3F9
  3
ViewportHeight
350
3FA
  3
ViewportWidth
350
3FB
  0
XRECORD
  5
3BC
330
3B9
100
AcDbXrecord
280
1
1000
White
  0
XRECORD
  5
3BD
330
3B9
100
AcDbXrecord
280
1
1000
FullColor
  0
XRECORD
  5
3BE
330
3B9
100
AcDbXrecord
280
1
 90
3
  0
XRECORD
  5
3BF
330
3B9
100
AcDbXrecord
280
1
 90
0
  0
XRECORD
  5
3C0
330
3B9
100
AcDbXrecord
280
1
 90
46
  0
XRECORD
  5
3C1
330
3B9
100
AcDbXrecord
280
1
1000
MS Shell Dlg 2
  0
XRECORD
  5
3C2
330
3B9
100
AcDbXrecord
280
1
1000
By Layer
  0
XRECORD
  5
3C3
330
3B9
100
AcDbXrecord
280
1
290
1
  0
XRECORD
  5
3C4
330
3B9
100
AcDbXrecord
280
1
 90
2
  0
XRECORD
  5
3C5
330
3B9
100
AcDbXrecord
280
1
 90
2
  0
XRECORD
  5
3C6
330
3B9
100
AcDbXrecord
280
1
290
1
  0
XRECORD
  5
3C7
330
3B9
100
AcDbXrecord
280
1
290
1
  0
XRECORD
  5
3C8
330
3B9
100
AcDbXrecord
280
1
290
1
  0
XRECORD
  5
3C9
330
3B9
100
AcDbXrecord
280
1
290
1
  0
XRECORD
  5
3CA
330
3B9
100
AcDbXrecord
280
1
1000
auto
  0
XRECORD
  5
3CB
330
3B9
100
AcDbXrecord
280
1
1000
auto
  0
XRECORD
  5
3CC
330
3B9
100
AcDbXrecord
280
1
1000
auto
  0
XRECORD
  5
3CD
330
3B9
100
AcDbXrecord
280
1
1000
auto
  0
XRECORD
  5
3CE
330
3B9
100
AcDbXrecord
280
1
1000
auto
  0
XRECORD
  5
3CF
330
3B9
100
AcDbXrecord
280
1
1000
auto
  0
XRECORD
  5
3D0
330
3B9
100
AcDbXrecord
280
1
1000
auto
  0
XRECORD
  5
3D1
330
3B9
100
AcDbXrecord
280
1
1000
auto
  0
XRECORD
  5
3D2
330
3B9
100
AcDbXrecord
280
1
290
0
  0
XRECORD
  5
3D3
330
3B9
100
AcDbXrecord
280
1
290
0
  0
XRECORD
  5
3D4
330
3B9
100
AcDbXrecord
280
1
290
0
  0
XRECORD
  5
3D5
330
3B9
100
AcDbXrecord
280
1
290
0
  0
XRECORD
  5
3D6
330
3B9
100
AcDbXrecord
280
1
 90
65537
  0
XRECORD
  5
3D7
330
3B9
100
AcDbXrecord
280
1
 90
65537
  0
XRECORD
  5
3D8
330
3B9
100
AcDbXrecord
280
1
 90
65537
  0
XRECORD
  5
3D9
330
3B9
100
AcDbXrecord
280
1
 90
65537
  0
XRECORD
  5
3DA
330
3B9
100
AcDbXrecord
280
1
1000
auto
  0
XRECORD
  5
3DB
330
3B9
100
AcDbXrecord
280
1
1000
auto
  0
XRECORD
  5
3DC
330
3B9
100
AcDbXrecord
280
1
1000
auto
  0
XRECORD
  5
3DD
330
3B9
100
AcDbXrecord
280
1
1000
auto
  0
XRECORD
  5
3DE
330
3B9
100
AcDbXrecord
280
1
1000
auto
  0
XRECORD
  5
3DF
330
3B9
100
AcDbXrecord
280
1
1000
auto
  0
XRECORD
  5
3E0
330
3B9
100
AcDbXrecord
280
1
1000
auto
  0
XRECORD
  5
3E1
330
3B9
100
AcDbXrecord
280
1
1000
auto
  0
XRECORD
  5
3E2
330
3B9
100
AcDbXrecord
280
1
290
0
  0
XRECORD
  5
3E3
330
3B9
100
AcDbXrecord
280
1
 90
1
  0
XRECORD
  5
3E4
330
3B9
100
AcDbXrecord
280
1
 40
10.0
  0
XRECORD
  5
3E5
330
3B9
100
AcDbXrecord
280
1
 40
10.0
  0
XRECORD
  5
3E6
330
3B9
100
AcDbXrecord
280
1
 40
10.0
  0
XRECORD
  5
3E7
330
3B9
100
AcDbXrecord
280
1
 40
10.0
  0
XRECORD
  5
3E8
330
3B9
100
AcDbXrecord
280
1
290
0
  0
XRECORD
  5
3E9
330
3B9
100
AcDbXrecord
280
1
 90
1
  0
XRECORD
  5
3EA
330
3B9
100
AcDbXrecord
280
1
1000
-30
  0
XRECORD
  5
3EB
330
3B9
100
AcDbXrecord
280
1
1000
-15
  0
XRECORD
  5
3EC
330
3B9
100
AcDbXrecord
280
1
1000
Landscape
  0
XRECORD
  5
3ED
330
3B9
100
AcDbXrecord
280
1
 40
420.0
  0
XRECORD
  5
3EE
330
3B9
100
AcDbXrecord
280
1
1000
ISO A3
  0
XRECORD
  5
3EF
330
3B9
100
AcDbXrecord
280
1
 40
297.0
  0
XRECORD
  5
3F0
330
3B9
100
AcDbXrecord
280
1
1000
0.5
  0
XRECORD
  5
3F1
330
3B9
100
AcDbXrecord
280
1
1000
1:1
  0
XRECORD
  5
3F2
330
3B9
100
AcDbXrecord
280
1
290
1
  0
XRECORD
  5
3F3
330
3B9
100
AcDbXrecord
280
1
290
0
  0
XRECORD
  5
3F4
330
3B9
100
AcDbXrecord
280
1
1000
Inside
  0
XRECORD
  5
3F5
330
3B9
100
AcDbXrecord
280
1
1000
Arial,10,-1,5,50,0,0,0,0,0
  0
XRECORD
  5
3F6
330
3B9
100
AcDbXrecord
280
1
1000
TopLeft
  0
XRECORD
  5
3F7
330
3B9
100
AcDbXrecord
280
1
1000
3.26.1
  0
XRECORD
  5
3F8
330
3B9
100
AcDbXrecord
280
1
 90
4
  0
XRECORD
  5
3FA
330
3B9
100
AcDbXrecord
280
1
 40
307.7075471698112779
  0
XRECORD
  5
3FB
330
3B9
100
AcDbXrecord
280
1
 40
544.0415094339621191
  0
ENDSEC
  0
EOF
