  0
SECTION
  2
HEADER
  9
$ANGBASE
  50
0.0
  9
$ANGDIR
  70
1
  9
$MEASUREMENT
  70
1
  0
ENDSEC
  0
SECTION
  2
TABLES
  0
TABLE
  2
LTYPE
  70
4
  0
LTYPE
  5
40F
  2
CONTINUOUS
  70
0
  3
Solid line
  72
65
  73
0
  40
0.0
  0
LTYPE
  5
410
  2
DASHDOT
 70
0
  3
Dash Dot ____ _ ____ _
 72
65
 73
4
 40
2.0
 49
1.25
 49
-0.25
 49
0.25
 49
-0.25
  0
LTYPE
  5
411
  2
DASHED
 70
0
  3
Dashed __ __ __ __ __
 72
65
 73
2
 40
0.75
 49
0.5
 49
-0.25
  0
LTYPE
  5
43B
  2
DOTTED
 70
0
  3
Dotted .  .  .  .
 72
65
 73
2
 40
0.2
 49
0.0
 49
-0.2
  0
ENDTAB
  0
TABLE
  2
STYLE
  70
4
  0
STYLE
  2
KICAD
  70
0
  40
0
  41
1
  42
1
  50
0
  71
0
  3
isocp.shx
  0
STYLE
  2
KICADB
  70
0
  40
0
  41
1
  42
1
  50
0
  71
0
  3
isocp.shx
  0
STYLE
  2
KICADI
  70
0
  40
0
  41
1
  42
1
  50
15
  71
0
  3
isocp.shx
  0
STYLE
  2
KICADBI
  70
0
  40
0
  41
1
  42
1
  50
15
  71
0
  3
isocp.shx
  0
ENDTAB
  0
TABLE
  2
LAYER
  70
1
  0
LAYER
  2
BLACK
  70
0
  62
7
  6
CONTINUOUS
  0
ENDTAB
  0
ENDSEC
  0
SECTION
  2
ENTITIES
0
LINE
8
BLACK
6
CONTINUOUS
10
360
20
0
11
0
21
0
0
LINE
8
BLACK
6
CONTINUOUS
10
0
20
0
11
0
21
260
0
LINE
8
BLACK
6
CONTINUOUS
10
360
20
260
11
360
21
0
0
LINE
8
BLACK
6
CONTINUOUS
10
0
20
260
11
360
21
260
0
LINE
8
BLACK
6
CONTINUOUS
10
41.8143
20
27.3381
11
42.081
21
27.719
0
LINE
8
BLACK
6
CONTINUOUS
10
42.2714
20
27.3381
11
42.2714
21
28.1381
0
LINE
8
BLACK
6
CONTINUOUS
10
42.2714
20
28.1381
11
41.9667
21
28.1381
0
LINE
8
BLACK
6
CONTINUOUS
10
41.9667
20
28.1381
11
41.8905
21
28.1
0
LINE
8
BLACK
6
CONTINUOUS
10
41.8905
20
28.1
11
41.8524
21
28.0619
0
LINE
8
BLACK
6
CONTINUOUS
10
41.8524
20
28.0619
11
41.8143
21
27.9857
0
LINE
8
BLACK
6
CONTINUOUS
10
41.8143
20
27.9857
11
41.8143
21
27.8714
0
LINE
8
BLACK
6
CONTINUOUS
10
41.8143
20
27.8714
11
41.8524
21
27.7952
0
LINE
8
BLACK
6
CONTINUOUS
10
41.8524
20
27.7952
11
41.8905
21
27.7571
0
LINE
8
BLACK
6
CONTINUOUS
10
41.8905
20
27.7571
11
41.9667
21
27.719
0
LINE
8
BLACK
6
CONTINUOUS
10
41.9667
20
27.719
11
42.2714
21
27.719
0
LINE
8
BLACK
6
CONTINUOUS
10
41.0524
20
27.3381
11
41.5095
21
27.3381
0
LINE
8
BLACK
6
CONTINUOUS
10
41.281
20
27.3381
11
41.281
21
28.1381
0
LINE
8
BLACK
6
CONTINUOUS
10
41.281
20
28.1381
11
41.3571
21
28.0238
0
LINE
8
BLACK
6
CONTINUOUS
10
41.3571
20
28.0238
11
41.4333
21
27.9476
0
LINE
8
BLACK
6
CONTINUOUS
10
41.4333
20
27.9476
11
41.5095
21
27.9095
0
LINE
8
BLACK
6
CONTINUOUS
10
40.3286
20
28.1381
11
40.7095
21
28.1381
0
LINE
8
BLACK
6
CONTINUOUS
10
40.7095
20
28.1381
11
40.7476
21
27.7571
0
LINE
8
BLACK
6
CONTINUOUS
10
40.7476
20
27.7571
11
40.7095
21
27.7952
0
LINE
8
BLACK
6
CONTINUOUS
10
40.7095
20
27.7952
11
40.6333
21
27.8333
0
LINE
8
BLACK
6
CONTINUOUS
10
40.6333
20
27.8333
11
40.4429
21
27.8333
0
LINE
8
BLACK
6
CONTINUOUS
10
40.4429
20
27.8333
11
40.3667
21
27.7952
0
LINE
8
BLACK
6
CONTINUOUS
10
40.3667
20
27.7952
11
40.3286
21
27.7571
0
LINE
8
BLACK
6
CONTINUOUS
10
40.3286
20
27.7571
11
40.2905
21
27.681
0
LINE
8
BLACK
6
CONTINUOUS
10
40.2905
20
27.681
11
40.2905
21
27.4905
0
LINE
8
BLACK
6
CONTINUOUS
10
40.2905
20
27.4905
11
40.3286
21
27.4143
0
LINE
8
BLACK
6
CONTINUOUS
10
40.3286
20
27.4143
11
40.3667
21
27.3762
0
LINE
8
BLACK
6
CONTINUOUS
10
40.3667
20
27.3762
11
40.4429
21
27.3381
0
LINE
8
BLACK
6
CONTINUOUS
10
40.4429
20
27.3381
11
40.6333
21
27.3381
0
LINE
8
BLACK
6
CONTINUOUS
10
40.6333
20
27.3381
11
40.7095
21
27.3762
0
LINE
8
BLACK
6
CONTINUOUS
10
40.7095
20
27.3762
11
40.7476
21
27.4143
0
LINE
8
BLACK
6
CONTINUOUS
10
283.274
20
57.3476
11
283.25
21
57.3952
0
LINE
8
BLACK
6
CONTINUOUS
10
283.25
20
57.3952
11
283.202
21
57.4429
0
LINE
8
BLACK
6
CONTINUOUS
10
283.202
20
57.4429
11
283.131
21
57.5143
0
LINE
8
BLACK
6
CONTINUOUS
10
283.131
20
57.5143
11
283.107
21
57.5619
0
LINE
8
BLACK
6
CONTINUOUS
10
283.107
20
57.5619
11
283.107
21
57.6095
0
LINE
8
BLACK
6
CONTINUOUS
10
283.226
20
57.5857
11
283.202
21
57.6333
0
LINE
8
BLACK
6
CONTINUOUS
10
283.202
20
57.6333
11
283.155
21
57.681
0
LINE
8
BLACK
6
CONTINUOUS
10
283.155
20
57.681
11
283.06
21
57.7048
0
LINE
8
BLACK
6
CONTINUOUS
10
283.06
20
57.7048
11
282.893
21
57.7048
0
LINE
8
BLACK
6
CONTINUOUS
10
282.893
20
57.7048
11
282.798
21
57.681
0
LINE
8
BLACK
6
CONTINUOUS
10
282.798
20
57.681
11
282.75
21
57.6333
0
LINE
8
BLACK
6
CONTINUOUS
10
282.75
20
57.6333
11
282.726
21
57.5857
0
LINE
8
BLACK
6
CONTINUOUS
10
282.726
20
57.5857
11
282.726
21
57.4905
0
LINE
8
BLACK
6
CONTINUOUS
10
282.726
20
57.4905
11
282.75
21
57.4429
0
LINE
8
BLACK
6
CONTINUOUS
10
282.75
20
57.4429
11
282.798
21
57.3952
0
LINE
8
BLACK
6
CONTINUOUS
10
282.798
20
57.3952
11
282.893
21
57.3714
0
LINE
8
BLACK
6
CONTINUOUS
10
282.893
20
57.3714
11
283.06
21
57.3714
0
LINE
8
BLACK
6
CONTINUOUS
10
283.06
20
57.3714
11
283.155
21
57.3952
0
LINE
8
BLACK
6
CONTINUOUS
10
283.155
20
57.3952
11
283.202
21
57.4429
0
LINE
8
BLACK
6
CONTINUOUS
10
283.202
20
57.4429
11
283.226
21
57.4905
0
LINE
8
BLACK
6
CONTINUOUS
10
283.226
20
57.4905
11
283.226
21
57.5857
0
LINE
8
BLACK
6
CONTINUOUS
10
282.726
20
57.2048
11
282.726
21
56.8952
0
LINE
8
BLACK
6
CONTINUOUS
10
282.726
20
56.8952
11
282.917
21
57.0619
0
LINE
8
BLACK
6
CONTINUOUS
10
282.917
20
57.0619
11
282.917
21
56.9905
0
LINE
8
BLACK
6
CONTINUOUS
10
282.917
20
56.9905
11
282.94
21
56.9429
0
LINE
8
BLACK
6
CONTINUOUS
10
282.94
20
56.9429
11
282.964
21
56.919
0
LINE
8
BLACK
6
CONTINUOUS
10
282.964
20
56.919
11
283.012
21
56.8952
0
LINE
8
BLACK
6
CONTINUOUS
10
283.012
20
56.8952
11
283.131
21
56.8952
0
LINE
8
BLACK
6
CONTINUOUS
10
283.131
20
56.8952
11
283.179
21
56.919
0
LINE
8
BLACK
6
CONTINUOUS
10
283.179
20
56.919
11
283.202
21
56.9429
0
LINE
8
BLACK
6
CONTINUOUS
10
283.202
20
56.9429
11
283.226
21
56.9905
0
LINE
8
BLACK
6
CONTINUOUS
10
283.226
20
56.9905
11
283.226
21
57.1333
0
LINE
8
BLACK
6
CONTINUOUS
10
283.226
20
57.1333
11
283.202
21
57.181
0
LINE
8
BLACK
6
CONTINUOUS
10
283.202
20
57.181
11
283.179
21
57.2048
0
LINE
8
BLACK
6
CONTINUOUS
10
26.9095
20
157.476
11
26.9095
21
158.276
0
LINE
8
BLACK
6
CONTINUOUS
10
26.9095
20
158.276
11
26.4524
21
157.476
0
LINE
8
BLACK
6
CONTINUOUS
10
26.4524
20
157.476
11
26.4524
21
158.276
0
LINE
8
BLACK
6
CONTINUOUS
10
26.0714
20
157.476
11
26.0714
21
158.276
0
LINE
8
BLACK
6
CONTINUOUS
10
26.0714
20
158.276
11
25.7667
21
158.276
0
LINE
8
BLACK
6
CONTINUOUS
10
25.7667
20
158.276
11
25.6905
21
158.238
0
LINE
8
BLACK
6
CONTINUOUS
10
25.6905
20
158.238
11
25.6524
21
158.2
0
LINE
8
BLACK
6
CONTINUOUS
10
25.6524
20
158.2
11
25.6143
21
158.124
0
LINE
8
BLACK
6
CONTINUOUS
10
25.6143
20
158.124
11
25.6143
21
158.009
0
LINE
8
BLACK
6
CONTINUOUS
10
25.6143
20
158.009
11
25.6524
21
157.933
0
LINE
8
BLACK
6
CONTINUOUS
10
25.6524
20
157.933
11
25.6905
21
157.895
0
LINE
8
BLACK
6
CONTINUOUS
10
25.6905
20
157.895
11
25.7667
21
157.857
0
LINE
8
BLACK
6
CONTINUOUS
10
25.7667
20
157.857
11
26.0714
21
157.857
0
LINE
8
BLACK
6
CONTINUOUS
10
24.8143
20
157.476
11
25.081
21
157.857
0
LINE
8
BLACK
6
CONTINUOUS
10
25.2714
20
157.476
11
25.2714
21
158.276
0
LINE
8
BLACK
6
CONTINUOUS
10
25.2714
20
158.276
11
24.9667
21
158.276
0
LINE
8
BLACK
6
CONTINUOUS
10
24.9667
20
158.276
11
24.8905
21
158.238
0
LINE
8
BLACK
6
CONTINUOUS
10
24.8905
20
158.238
11
24.8524
21
158.2
0
LINE
8
BLACK
6
CONTINUOUS
10
24.8524
20
158.2
11
24.8143
21
158.124
0
LINE
8
BLACK
6
CONTINUOUS
10
24.8143
20
158.124
11
24.8143
21
158.009
0
LINE
8
BLACK
6
CONTINUOUS
10
24.8143
20
158.009
11
24.8524
21
157.933
0
LINE
8
BLACK
6
CONTINUOUS
10
24.8524
20
157.933
11
24.8905
21
157.895
0
LINE
8
BLACK
6
CONTINUOUS
10
24.8905
20
157.895
11
24.9667
21
157.857
0
LINE
8
BLACK
6
CONTINUOUS
10
24.9667
20
157.857
11
25.2714
21
157.857
0
LINE
8
BLACK
6
CONTINUOUS
10
24.0524
20
157.476
11
24.5095
21
157.476
0
LINE
8
BLACK
6
CONTINUOUS
10
24.281
20
157.476
11
24.281
21
158.276
0
LINE
8
BLACK
6
CONTINUOUS
10
24.281
20
158.276
11
24.3571
21
158.162
0
LINE
8
BLACK
6
CONTINUOUS
10
24.3571
20
158.162
11
24.4333
21
158.086
0
LINE
8
BLACK
6
CONTINUOUS
10
24.4333
20
158.086
11
24.5095
21
158.048
0
LINE
8
BLACK
6
CONTINUOUS
10
35.1738
20
26.4476
11
35.15
21
26.4952
0
LINE
8
BLACK
6
CONTINUOUS
10
35.15
20
26.4952
11
35.1024
21
26.5429
0
LINE
8
BLACK
6
CONTINUOUS
10
35.1024
20
26.5429
11
35.031
21
26.6143
0
LINE
8
BLACK
6
CONTINUOUS
10
35.031
20
26.6143
11
35.0071
21
26.6619
0
LINE
8
BLACK
6
CONTINUOUS
10
35.0071
20
26.6619
11
35.0071
21
26.7095
0
LINE
8
BLACK
6
CONTINUOUS
10
35.1262
20
26.6857
11
35.1024
21
26.7333
0
LINE
8
BLACK
6
CONTINUOUS
10
35.1024
20
26.7333
11
35.0548
21
26.781
0
LINE
8
BLACK
6
CONTINUOUS
10
35.0548
20
26.781
11
34.9595
21
26.8048
0
LINE
8
BLACK
6
CONTINUOUS
10
34.9595
20
26.8048
11
34.7929
21
26.8048
0
LINE
8
BLACK
6
CONTINUOUS
10
34.7929
20
26.8048
11
34.6976
21
26.781
0
LINE
8
BLACK
6
CONTINUOUS
10
34.6976
20
26.781
11
34.65
21
26.7333
0
LINE
8
BLACK
6
CONTINUOUS
10
34.65
20
26.7333
11
34.6262
21
26.6857
0
LINE
8
BLACK
6
CONTINUOUS
10
34.6262
20
26.6857
11
34.6262
21
26.5905
0
LINE
8
BLACK
6
CONTINUOUS
10
34.6262
20
26.5905
11
34.65
21
26.5429
0
LINE
8
BLACK
6
CONTINUOUS
10
34.65
20
26.5429
11
34.6976
21
26.4952
0
LINE
8
BLACK
6
CONTINUOUS
10
34.6976
20
26.4952
11
34.7929
21
26.4714
0
LINE
8
BLACK
6
CONTINUOUS
10
34.7929
20
26.4714
11
34.9595
21
26.4714
0
LINE
8
BLACK
6
CONTINUOUS
10
34.9595
20
26.4714
11
35.0548
21
26.4952
0
LINE
8
BLACK
6
CONTINUOUS
10
35.0548
20
26.4952
11
35.1024
21
26.5429
0
LINE
8
BLACK
6
CONTINUOUS
10
35.1024
20
26.5429
11
35.1262
21
26.5905
0
LINE
8
BLACK
6
CONTINUOUS
10
35.1262
20
26.5905
11
35.1262
21
26.6857
0
LINE
8
BLACK
6
CONTINUOUS
10
34.6738
20
26.281
11
34.65
21
26.2571
0
LINE
8
BLACK
6
CONTINUOUS
10
34.65
20
26.2571
11
34.6262
21
26.2095
0
LINE
8
BLACK
6
CONTINUOUS
10
34.6262
20
26.2095
11
34.6262
21
26.0905
0
LINE
8
BLACK
6
CONTINUOUS
10
34.6262
20
26.0905
11
34.65
21
26.0429
0
LINE
8
BLACK
6
CONTINUOUS
10
34.65
20
26.0429
11
34.6738
21
26.019
0
LINE
8
BLACK
6
CONTINUOUS
10
34.6738
20
26.019
11
34.7214
21
25.9952
0
LINE
8
BLACK
6
CONTINUOUS
10
34.7214
20
25.9952
11
34.769
21
25.9952
0
LINE
8
BLACK
6
CONTINUOUS
10
34.769
20
25.9952
11
34.8405
21
26.019
0
LINE
8
BLACK
6
CONTINUOUS
10
34.8405
20
26.019
11
35.1262
21
26.3048
0
LINE
8
BLACK
6
CONTINUOUS
10
35.1262
20
26.3048
11
35.1262
21
25.9952
0
LINE
8
BLACK
6
CONTINUOUS
10
305.852
20
103.919
11
304.852
21
103.919
0
LINE
8
BLACK
6
CONTINUOUS
10
305.757
20
102.871
11
305.805
21
102.919
0
LINE
8
BLACK
6
CONTINUOUS
10
305.805
20
102.919
11
305.852
21
103.062
0
LINE
8
BLACK
6
CONTINUOUS
10
305.852
20
103.062
11
305.852
21
103.157
0
LINE
8
BLACK
6
CONTINUOUS
10
305.852
20
103.157
11
305.805
21
103.3
0
LINE
8
BLACK
6
CONTINUOUS
10
305.805
20
103.3
11
305.71
21
103.395
0
LINE
8
BLACK
6
CONTINUOUS
10
305.71
20
103.395
11
305.614
21
103.443
0
LINE
8
BLACK
6
CONTINUOUS
10
305.614
20
103.443
11
305.424
21
103.49
0
LINE
8
BLACK
6
CONTINUOUS
10
305.424
20
103.49
11
305.281
21
103.49
0
LINE
8
BLACK
6
CONTINUOUS
10
305.281
20
103.49
11
305.09
21
103.443
0
LINE
8
BLACK
6
CONTINUOUS
10
305.09
20
103.443
11
304.995
21
103.395
0
LINE
8
BLACK
6
CONTINUOUS
10
304.995
20
103.395
11
304.9
21
103.3
0
LINE
8
BLACK
6
CONTINUOUS
10
304.9
20
103.3
11
304.852
21
103.157
0
LINE
8
BLACK
6
CONTINUOUS
10
304.852
20
103.157
11
304.852
21
103.062
0
LINE
8
BLACK
6
CONTINUOUS
10
304.852
20
103.062
11
304.9
21
102.919
0
LINE
8
BLACK
6
CONTINUOUS
10
304.9
20
102.919
11
304.948
21
102.871
0
LINE
8
BLACK
6
CONTINUOUS
10
305.471
20
102.443
11
305.471
21
101.681
0
LINE
8
BLACK
6
CONTINUOUS
10
305.852
20
101.205
11
304.852
21
101.205
0
LINE
8
BLACK
6
CONTINUOUS
10
304.852
20
101.205
11
305.567
21
100.871
0
LINE
8
BLACK
6
CONTINUOUS
10
305.567
20
100.871
11
304.852
21
100.538
0
LINE
8
BLACK
6
CONTINUOUS
10
304.852
20
100.538
11
305.852
21
100.538
0
LINE
8
BLACK
6
CONTINUOUS
10
305.852
20
100.062
11
304.852
21
100.062
0
LINE
8
BLACK
6
CONTINUOUS
10
304.852
20
100.062
11
304.852
21
99.681
0
LINE
8
BLACK
6
CONTINUOUS
10
304.852
20
99.681
11
304.9
21
99.5857
0
LINE
8
BLACK
6
CONTINUOUS
10
304.9
20
99.5857
11
304.948
21
99.5381
0
LINE
8
BLACK
6
CONTINUOUS
10
304.948
20
99.5381
11
305.043
21
99.4905
0
LINE
8
BLACK
6
CONTINUOUS
10
305.043
20
99.4905
11
305.186
21
99.4905
0
LINE
8
BLACK
6
CONTINUOUS
10
305.186
20
99.4905
11
305.281
21
99.5381
0
LINE
8
BLACK
6
CONTINUOUS
10
305.281
20
99.5381
11
305.329
21
99.5857
0
LINE
8
BLACK
6
CONTINUOUS
10
305.329
20
99.5857
11
305.376
21
99.681
0
LINE
8
BLACK
6
CONTINUOUS
10
305.376
20
99.681
11
305.376
21
100.062
0
LINE
8
BLACK
6
CONTINUOUS
10
305.852
20
98.5857
11
305.852
21
99.0619
0
LINE
8
BLACK
6
CONTINUOUS
10
305.852
20
99.0619
11
304.852
21
99.0619
0
LINE
8
BLACK
6
CONTINUOUS
10
305.329
20
98.2524
11
305.329
21
97.919
0
LINE
8
BLACK
6
CONTINUOUS
10
305.852
20
97.7762
11
305.852
21
98.2524
0
LINE
8
BLACK
6
CONTINUOUS
10
305.852
20
98.2524
11
304.852
21
98.2524
0
LINE
8
BLACK
6
CONTINUOUS
10
304.852
20
98.2524
11
304.852
21
97.7762
0
LINE
8
BLACK
6
CONTINUOUS
10
304.852
20
97.4429
11
305.852
21
96.7762
0
LINE
8
BLACK
6
CONTINUOUS
10
304.852
20
96.7762
11
305.852
21
97.4429
0
LINE
8
BLACK
6
CONTINUOUS
10
305.471
20
96.3952
11
305.471
21
95.6333
0
LINE
8
BLACK
6
CONTINUOUS
10
304.948
20
95.2048
11
304.9
21
95.1571
0
LINE
8
BLACK
6
CONTINUOUS
10
304.9
20
95.1571
11
304.852
21
95.0619
0
LINE
8
BLACK
6
CONTINUOUS
10
304.852
20
95.0619
11
304.852
21
94.8238
0
LINE
8
BLACK
6
CONTINUOUS
10
304.852
20
94.8238
11
304.9
21
94.7286
0
LINE
8
BLACK
6
CONTINUOUS
10
304.9
20
94.7286
11
304.948
21
94.681
0
LINE
8
BLACK
6
CONTINUOUS
10
304.948
20
94.681
11
305.043
21
94.6333
0
LINE
8
BLACK
6
CONTINUOUS
10
305.043
20
94.6333
11
305.138
21
94.6333
0
LINE
8
BLACK
6
CONTINUOUS
10
305.138
20
94.6333
11
305.281
21
94.681
0
LINE
8
BLACK
6
CONTINUOUS
10
305.281
20
94.681
11
305.852
21
95.2524
0
LINE
8
BLACK
6
CONTINUOUS
10
305.852
20
95.2524
11
305.852
21
94.6333
0
LINE
8
BLACK
6
CONTINUOUS
10
274.362
20
57.9143
11
273.981
21
58.181
0
LINE
8
BLACK
6
CONTINUOUS
10
274.362
20
58.3714
11
273.562
21
58.3714
0
LINE
8
BLACK
6
CONTINUOUS
10
273.562
20
58.3714
11
273.562
21
58.0667
0
LINE
8
BLACK
6
CONTINUOUS
10
273.562
20
58.0667
11
273.6
21
57.9905
0
LINE
8
BLACK
6
CONTINUOUS
10
273.6
20
57.9905
11
273.638
21
57.9524
0
LINE
8
BLACK
6
CONTINUOUS
10
273.638
20
57.9524
11
273.714
21
57.9143
0
LINE
8
BLACK
6
CONTINUOUS
10
273.714
20
57.9143
11
273.829
21
57.9143
0
LINE
8
BLACK
6
CONTINUOUS
10
273.829
20
57.9143
11
273.905
21
57.9524
0
LINE
8
BLACK
6
CONTINUOUS
10
273.905
20
57.9524
11
273.943
21
57.9905
0
LINE
8
BLACK
6
CONTINUOUS
10
273.943
20
57.9905
11
273.981
21
58.0667
0
LINE
8
BLACK
6
CONTINUOUS
10
273.981
20
58.0667
11
273.981
21
58.3714
0
LINE
8
BLACK
6
CONTINUOUS
10
273.638
20
57.6095
11
273.6
21
57.5714
0
LINE
8
BLACK
6
CONTINUOUS
10
273.6
20
57.5714
11
273.562
21
57.4952
0
LINE
8
BLACK
6
CONTINUOUS
10
273.562
20
57.4952
11
273.562
21
57.3048
0
LINE
8
BLACK
6
CONTINUOUS
10
273.562
20
57.3048
11
273.6
21
57.2286
0
LINE
8
BLACK
6
CONTINUOUS
10
273.6
20
57.2286
11
273.638
21
57.1905
0
LINE
8
BLACK
6
CONTINUOUS
10
273.638
20
57.1905
11
273.714
21
57.1524
0
LINE
8
BLACK
6
CONTINUOUS
10
273.714
20
57.1524
11
273.79
21
57.1524
0
LINE
8
BLACK
6
CONTINUOUS
10
273.79
20
57.1524
11
273.905
21
57.1905
0
LINE
8
BLACK
6
CONTINUOUS
10
273.905
20
57.1905
11
274.362
21
57.6476
0
LINE
8
BLACK
6
CONTINUOUS
10
274.362
20
57.6476
11
274.362
21
57.1524
0
LINE
8
BLACK
6
CONTINUOUS
10
273.638
20
56.8476
11
273.6
21
56.8095
0
LINE
8
BLACK
6
CONTINUOUS
10
273.6
20
56.8095
11
273.562
21
56.7333
0
LINE
8
BLACK
6
CONTINUOUS
10
273.562
20
56.7333
11
273.562
21
56.5429
0
LINE
8
BLACK
6
CONTINUOUS
10
273.562
20
56.5429
11
273.6
21
56.4667
0
LINE
8
BLACK
6
CONTINUOUS
10
273.6
20
56.4667
11
273.638
21
56.4286
0
LINE
8
BLACK
6
CONTINUOUS
10
273.638
20
56.4286
11
273.714
21
56.3905
0
LINE
8
BLACK
6
CONTINUOUS
10
273.714
20
56.3905
11
273.79
21
56.3905
0
LINE
8
BLACK
6
CONTINUOUS
10
273.79
20
56.3905
11
273.905
21
56.4286
0
LINE
8
BLACK
6
CONTINUOUS
10
273.905
20
56.4286
11
274.362
21
56.8857
0
LINE
8
BLACK
6
CONTINUOUS
10
274.362
20
56.8857
11
274.362
21
56.3905
0
LINE
8
BLACK
6
CONTINUOUS
10
171.416
20
189.776
11
171.416
21
188.983
0
LINE
8
BLACK
6
CONTINUOUS
10
171.416
20
188.983
11
171.37
21
188.889
0
LINE
8
BLACK
6
CONTINUOUS
10
171.37
20
188.889
11
171.323
21
188.843
0
LINE
8
BLACK
6
CONTINUOUS
10
171.323
20
188.843
11
171.23
21
188.796
0
LINE
8
BLACK
6
CONTINUOUS
10
171.23
20
188.796
11
171.043
21
188.796
0
LINE
8
BLACK
6
CONTINUOUS
10
171.043
20
188.796
11
170.95
21
188.843
0
LINE
8
BLACK
6
CONTINUOUS
10
170.95
20
188.843
11
170.903
21
188.889
0
LINE
8
BLACK
6
CONTINUOUS
10
170.903
20
188.889
11
170.856
21
188.983
0
LINE
8
BLACK
6
CONTINUOUS
10
170.856
20
188.983
11
170.856
21
189.776
0
LINE
8
BLACK
6
CONTINUOUS
10
169.923
20
189.776
11
170.39
21
189.776
0
LINE
8
BLACK
6
CONTINUOUS
10
170.39
20
189.776
11
170.436
21
189.309
0
LINE
8
BLACK
6
CONTINUOUS
10
170.436
20
189.309
11
170.39
21
189.356
0
LINE
8
BLACK
6
CONTINUOUS
10
170.39
20
189.356
11
170.296
21
189.403
0
LINE
8
BLACK
6
CONTINUOUS
10
170.296
20
189.403
11
170.063
21
189.403
0
LINE
8
BLACK
6
CONTINUOUS
10
170.063
20
189.403
11
169.97
21
189.356
0
LINE
8
BLACK
6
CONTINUOUS
10
169.97
20
189.356
11
169.923
21
189.309
0
LINE
8
BLACK
6
CONTINUOUS
10
169.923
20
189.309
11
169.876
21
189.216
0
LINE
8
BLACK
6
CONTINUOUS
10
169.876
20
189.216
11
169.876
21
188.983
0
LINE
8
BLACK
6
CONTINUOUS
10
169.876
20
188.983
11
169.923
21
188.889
0
LINE
8
BLACK
6
CONTINUOUS
10
169.923
20
188.889
11
169.97
21
188.843
0
LINE
8
BLACK
6
CONTINUOUS
10
169.97
20
188.843
11
170.063
21
188.796
0
LINE
8
BLACK
6
CONTINUOUS
10
170.063
20
188.796
11
170.296
21
188.796
0
LINE
8
BLACK
6
CONTINUOUS
10
170.296
20
188.796
11
170.39
21
188.843
0
LINE
8
BLACK
6
CONTINUOUS
10
170.39
20
188.843
11
170.436
21
188.889
0
LINE
8
BLACK
6
CONTINUOUS
10
101.761
20
189.413
11
101.761
21
188.62
0
LINE
8
BLACK
6
CONTINUOUS
10
101.761
20
188.62
11
101.715
21
188.527
0
LINE
8
BLACK
6
CONTINUOUS
10
101.715
20
188.527
11
101.668
21
188.48
0
LINE
8
BLACK
6
CONTINUOUS
10
101.668
20
188.48
11
101.575
21
188.433
0
LINE
8
BLACK
6
CONTINUOUS
10
101.575
20
188.433
11
101.388
21
188.433
0
LINE
8
BLACK
6
CONTINUOUS
10
101.388
20
188.433
11
101.295
21
188.48
0
LINE
8
BLACK
6
CONTINUOUS
10
101.295
20
188.48
11
101.248
21
188.527
0
LINE
8
BLACK
6
CONTINUOUS
10
101.248
20
188.527
11
101.201
21
188.62
0
LINE
8
BLACK
6
CONTINUOUS
10
101.201
20
188.62
11
101.201
21
189.413
0
LINE
8
BLACK
6
CONTINUOUS
10
100.221
20
188.433
11
100.781
21
188.433
0
LINE
8
BLACK
6
CONTINUOUS
10
100.501
20
188.433
11
100.501
21
189.413
0
LINE
8
BLACK
6
CONTINUOUS
10
100.501
20
189.413
11
100.595
21
189.273
0
LINE
8
BLACK
6
CONTINUOUS
10
100.595
20
189.273
11
100.688
21
189.18
0
LINE
8
BLACK
6
CONTINUOUS
10
100.688
20
189.18
11
100.781
21
189.133
0
LINE
8
BLACK
6
CONTINUOUS
10
101.761
20
156.713
11
101.761
21
155.92
0
LINE
8
BLACK
6
CONTINUOUS
10
101.761
20
155.92
11
101.715
21
155.827
0
LINE
8
BLACK
6
CONTINUOUS
10
101.715
20
155.827
11
101.668
21
155.78
0
LINE
8
BLACK
6
CONTINUOUS
10
101.668
20
155.78
11
101.575
21
155.733
0
LINE
8
BLACK
6
CONTINUOUS
10
101.575
20
155.733
11
101.388
21
155.733
0
LINE
8
BLACK
6
CONTINUOUS
10
101.388
20
155.733
11
101.295
21
155.78
0
LINE
8
BLACK
6
CONTINUOUS
10
101.295
20
155.78
11
101.248
21
155.827
0
LINE
8
BLACK
6
CONTINUOUS
10
101.248
20
155.827
11
101.201
21
155.92
0
LINE
8
BLACK
6
CONTINUOUS
10
101.201
20
155.92
11
101.201
21
156.713
0
LINE
8
BLACK
6
CONTINUOUS
10
100.781
20
156.62
11
100.735
21
156.667
0
LINE
8
BLACK
6
CONTINUOUS
10
100.735
20
156.667
11
100.641
21
156.713
0
LINE
8
BLACK
6
CONTINUOUS
10
100.641
20
156.713
11
100.408
21
156.713
0
LINE
8
BLACK
6
CONTINUOUS
10
100.408
20
156.713
11
100.315
21
156.667
0
LINE
8
BLACK
6
CONTINUOUS
10
100.315
20
156.667
11
100.268
21
156.62
0
LINE
8
BLACK
6
CONTINUOUS
10
100.268
20
156.62
11
100.221
21
156.527
0
LINE
8
BLACK
6
CONTINUOUS
10
100.221
20
156.527
11
100.221
21
156.433
0
LINE
8
BLACK
6
CONTINUOUS
10
100.221
20
156.433
11
100.268
21
156.293
0
LINE
8
BLACK
6
CONTINUOUS
10
100.268
20
156.293
11
100.828
21
155.733
0
LINE
8
BLACK
6
CONTINUOUS
10
100.828
20
155.733
11
100.221
21
155.733
0
LINE
8
BLACK
6
CONTINUOUS
10
289.714
20
28.7381
11
289.981
21
29.119
0
LINE
8
BLACK
6
CONTINUOUS
10
290.171
20
28.7381
11
290.171
21
29.5381
0
LINE
8
BLACK
6
CONTINUOUS
10
290.171
20
29.5381
11
289.867
21
29.5381
0
LINE
8
BLACK
6
CONTINUOUS
10
289.867
20
29.5381
11
289.79
21
29.5
0
LINE
8
BLACK
6
CONTINUOUS
10
289.79
20
29.5
11
289.752
21
29.4619
0
LINE
8
BLACK
6
CONTINUOUS
10
289.752
20
29.4619
11
289.714
21
29.3857
0
LINE
8
BLACK
6
CONTINUOUS
10
289.714
20
29.3857
11
289.714
21
29.2714
0
LINE
8
BLACK
6
CONTINUOUS
10
289.714
20
29.2714
11
289.752
21
29.1952
0
LINE
8
BLACK
6
CONTINUOUS
10
289.752
20
29.1952
11
289.79
21
29.1571
0
LINE
8
BLACK
6
CONTINUOUS
10
289.79
20
29.1571
11
289.867
21
29.119
0
LINE
8
BLACK
6
CONTINUOUS
10
289.867
20
29.119
11
290.171
21
29.119
0
LINE
8
BLACK
6
CONTINUOUS
10
288.952
20
28.7381
11
289.41
21
28.7381
0
LINE
8
BLACK
6
CONTINUOUS
10
289.181
20
28.7381
11
289.181
21
29.5381
0
LINE
8
BLACK
6
CONTINUOUS
10
289.181
20
29.5381
11
289.257
21
29.4238
0
LINE
8
BLACK
6
CONTINUOUS
10
289.257
20
29.4238
11
289.333
21
29.3476
0
LINE
8
BLACK
6
CONTINUOUS
10
289.333
20
29.3476
11
289.41
21
29.3095
0
LINE
8
BLACK
6
CONTINUOUS
10
288.267
20
29.2714
11
288.267
21
28.7381
0
LINE
8
BLACK
6
CONTINUOUS
10
288.457
20
29.5762
11
288.648
21
29.0048
0
LINE
8
BLACK
6
CONTINUOUS
10
288.648
20
29.0048
11
288.152
21
29.0048
0
LINE
8
BLACK
6
CONTINUOUS
10
33.6738
20
56.1476
11
33.65
21
56.1952
0
LINE
8
BLACK
6
CONTINUOUS
10
33.65
20
56.1952
11
33.6024
21
56.2429
0
LINE
8
BLACK
6
CONTINUOUS
10
33.6024
20
56.2429
11
33.531
21
56.3143
0
LINE
8
BLACK
6
CONTINUOUS
10
33.531
20
56.3143
11
33.5071
21
56.3619
0
LINE
8
BLACK
6
CONTINUOUS
10
33.5071
20
56.3619
11
33.5071
21
56.4095
0
LINE
8
BLACK
6
CONTINUOUS
10
33.6262
20
56.3857
11
33.6024
21
56.4333
0
LINE
8
BLACK
6
CONTINUOUS
10
33.6024
20
56.4333
11
33.5548
21
56.481
0
LINE
8
BLACK
6
CONTINUOUS
10
33.5548
20
56.481
11
33.4595
21
56.5048
0
LINE
8
BLACK
6
CONTINUOUS
10
33.4595
20
56.5048
11
33.2929
21
56.5048
0
LINE
8
BLACK
6
CONTINUOUS
10
33.2929
20
56.5048
11
33.1976
21
56.481
0
LINE
8
BLACK
6
CONTINUOUS
10
33.1976
20
56.481
11
33.15
21
56.4333
0
LINE
8
BLACK
6
CONTINUOUS
10
33.15
20
56.4333
11
33.1262
21
56.3857
0
LINE
8
BLACK
6
CONTINUOUS
10
33.1262
20
56.3857
11
33.1262
21
56.2905
0
LINE
8
BLACK
6
CONTINUOUS
10
33.1262
20
56.2905
11
33.15
21
56.2429
0
LINE
8
BLACK
6
CONTINUOUS
10
33.15
20
56.2429
11
33.1976
21
56.1952
0
LINE
8
BLACK
6
CONTINUOUS
10
33.1976
20
56.1952
11
33.2929
21
56.1714
0
LINE
8
BLACK
6
CONTINUOUS
10
33.2929
20
56.1714
11
33.4595
21
56.1714
0
LINE
8
BLACK
6
CONTINUOUS
10
33.4595
20
56.1714
11
33.5548
21
56.1952
0
LINE
8
BLACK
6
CONTINUOUS
10
33.5548
20
56.1952
11
33.6024
21
56.2429
0
LINE
8
BLACK
6
CONTINUOUS
10
33.6024
20
56.2429
11
33.6262
21
56.2905
0
LINE
8
BLACK
6
CONTINUOUS
10
33.6262
20
56.2905
11
33.6262
21
56.3857
0
LINE
8
BLACK
6
CONTINUOUS
10
33.2929
20
55.7429
11
33.6262
21
55.7429
0
LINE
8
BLACK
6
CONTINUOUS
10
33.1024
20
55.8619
11
33.4595
21
55.981
0
LINE
8
BLACK
6
CONTINUOUS
10
33.4595
20
55.981
11
33.4595
21
55.6714
0
LINE
8
BLACK
6
CONTINUOUS
10
213.598
20
189.744
11
213.598
21
188.95
0
LINE
8
BLACK
6
CONTINUOUS
10
213.598
20
188.95
11
213.551
21
188.857
0
LINE
8
BLACK
6
CONTINUOUS
10
213.551
20
188.857
11
213.504
21
188.81
0
LINE
8
BLACK
6
CONTINUOUS
10
213.504
20
188.81
11
213.411
21
188.764
0
LINE
8
BLACK
6
CONTINUOUS
10
213.411
20
188.764
11
213.224
21
188.764
0
LINE
8
BLACK
6
CONTINUOUS
10
213.224
20
188.764
11
213.131
21
188.81
0
LINE
8
BLACK
6
CONTINUOUS
10
213.131
20
188.81
11
213.084
21
188.857
0
LINE
8
BLACK
6
CONTINUOUS
10
213.084
20
188.857
11
213.038
21
188.95
0
LINE
8
BLACK
6
CONTINUOUS
10
213.038
20
188.95
11
213.038
21
189.744
0
LINE
8
BLACK
6
CONTINUOUS
10
212.664
20
189.744
11
212.011
21
189.744
0
LINE
8
BLACK
6
CONTINUOUS
10
212.011
20
189.744
11
212.431
21
188.764
0
LINE
8
BLACK
6
CONTINUOUS
10
290.514
20
53.6381
11
290.781
21
54.019
0
LINE
8
BLACK
6
CONTINUOUS
10
290.971
20
53.6381
11
290.971
21
54.4381
0
LINE
8
BLACK
6
CONTINUOUS
10
290.971
20
54.4381
11
290.667
21
54.4381
0
LINE
8
BLACK
6
CONTINUOUS
10
290.667
20
54.4381
11
290.59
21
54.4
0
LINE
8
BLACK
6
CONTINUOUS
10
290.59
20
54.4
11
290.552
21
54.3619
0
LINE
8
BLACK
6
CONTINUOUS
10
290.552
20
54.3619
11
290.514
21
54.2857
0
LINE
8
BLACK
6
CONTINUOUS
10
290.514
20
54.2857
11
290.514
21
54.1714
0
LINE
8
BLACK
6
CONTINUOUS
10
290.514
20
54.1714
11
290.552
21
54.0952
0
LINE
8
BLACK
6
CONTINUOUS
10
290.552
20
54.0952
11
290.59
21
54.0571
0
LINE
8
BLACK
6
CONTINUOUS
10
290.59
20
54.0571
11
290.667
21
54.019
0
LINE
8
BLACK
6
CONTINUOUS
10
290.667
20
54.019
11
290.971
21
54.019
0
LINE
8
BLACK
6
CONTINUOUS
10
289.752
20
53.6381
11
290.21
21
53.6381
0
LINE
8
BLACK
6
CONTINUOUS
10
289.981
20
53.6381
11
289.981
21
54.4381
0
LINE
8
BLACK
6
CONTINUOUS
10
289.981
20
54.4381
11
290.057
21
54.3238
0
LINE
8
BLACK
6
CONTINUOUS
10
290.057
20
54.3238
11
290.133
21
54.2476
0
LINE
8
BLACK
6
CONTINUOUS
10
290.133
20
54.2476
11
290.21
21
54.2095
0
LINE
8
BLACK
6
CONTINUOUS
10
289.295
20
54.0952
11
289.371
21
54.1333
0
LINE
8
BLACK
6
CONTINUOUS
10
289.371
20
54.1333
11
289.41
21
54.1714
0
LINE
8
BLACK
6
CONTINUOUS
10
289.41
20
54.1714
11
289.448
21
54.2476
0
LINE
8
BLACK
6
CONTINUOUS
10
289.448
20
54.2476
11
289.448
21
54.2857
0
LINE
8
BLACK
6
CONTINUOUS
10
289.448
20
54.2857
11
289.41
21
54.3619
0
LINE
8
BLACK
6
CONTINUOUS
10
289.41
20
54.3619
11
289.371
21
54.4
0
LINE
8
BLACK
6
CONTINUOUS
10
289.371
20
54.4
11
289.295
21
54.4381
0
LINE
8
BLACK
6
CONTINUOUS
10
289.295
20
54.4381
11
289.143
21
54.4381
0
LINE
8
BLACK
6
CONTINUOUS
10
289.143
20
54.4381
11
289.067
21
54.4
0
LINE
8
BLACK
6
CONTINUOUS
10
289.067
20
54.4
11
289.029
21
54.3619
0
LINE
8
BLACK
6
CONTINUOUS
10
289.029
20
54.3619
11
288.99
21
54.2857
0
LINE
8
BLACK
6
CONTINUOUS
10
288.99
20
54.2857
11
288.99
21
54.2476
0
LINE
8
BLACK
6
CONTINUOUS
10
288.99
20
54.2476
11
289.029
21
54.1714
0
LINE
8
BLACK
6
CONTINUOUS
10
289.029
20
54.1714
11
289.067
21
54.1333
0
LINE
8
BLACK
6
CONTINUOUS
10
289.067
20
54.1333
11
289.143
21
54.0952
0
LINE
8
BLACK
6
CONTINUOUS
10
289.143
20
54.0952
11
289.295
21
54.0952
0
LINE
8
BLACK
6
CONTINUOUS
10
289.295
20
54.0952
11
289.371
21
54.0571
0
LINE
8
BLACK
6
CONTINUOUS
10
289.371
20
54.0571
11
289.41
21
54.019
0
LINE
8
BLACK
6
CONTINUOUS
10
289.41
20
54.019
11
289.448
21
53.9429
0
LINE
8
BLACK
6
CONTINUOUS
10
289.448
20
53.9429
11
289.448
21
53.7905
0
LINE
8
BLACK
6
CONTINUOUS
10
289.448
20
53.7905
11
289.41
21
53.7143
0
LINE
8
BLACK
6
CONTINUOUS
10
289.41
20
53.7143
11
289.371
21
53.6762
0
LINE
8
BLACK
6
CONTINUOUS
10
289.371
20
53.6762
11
289.295
21
53.6381
0
LINE
8
BLACK
6
CONTINUOUS
10
289.295
20
53.6381
11
289.143
21
53.6381
0
LINE
8
BLACK
6
CONTINUOUS
10
289.143
20
53.6381
11
289.067
21
53.6762
0
LINE
8
BLACK
6
CONTINUOUS
10
289.067
20
53.6762
11
289.029
21
53.7143
0
LINE
8
BLACK
6
CONTINUOUS
10
289.029
20
53.7143
11
288.99
21
53.7905
0
LINE
8
BLACK
6
CONTINUOUS
10
288.99
20
53.7905
11
288.99
21
53.9429
0
LINE
8
BLACK
6
CONTINUOUS
10
288.99
20
53.9429
11
289.029
21
54.019
0
LINE
8
BLACK
6
CONTINUOUS
10
289.029
20
54.019
11
289.067
21
54.0571
0
LINE
8
BLACK
6
CONTINUOUS
10
289.067
20
54.0571
11
289.143
21
54.0952
0
LINE
8
BLACK
6
CONTINUOUS
10
289.814
20
23.0381
11
290.081
21
23.419
0
LINE
8
BLACK
6
CONTINUOUS
10
290.271
20
23.0381
11
290.271
21
23.8381
0
LINE
8
BLACK
6
CONTINUOUS
10
290.271
20
23.8381
11
289.967
21
23.8381
0
LINE
8
BLACK
6
CONTINUOUS
10
289.967
20
23.8381
11
289.89
21
23.8
0
LINE
8
BLACK
6
CONTINUOUS
10
289.89
20
23.8
11
289.852
21
23.7619
0
LINE
8
BLACK
6
CONTINUOUS
10
289.852
20
23.7619
11
289.814
21
23.6857
0
LINE
8
BLACK
6
CONTINUOUS
10
289.814
20
23.6857
11
289.814
21
23.5714
0
LINE
8
BLACK
6
CONTINUOUS
10
289.814
20
23.5714
11
289.852
21
23.4952
0
LINE
8
BLACK
6
CONTINUOUS
10
289.852
20
23.4952
11
289.89
21
23.4571
0
LINE
8
BLACK
6
CONTINUOUS
10
289.89
20
23.4571
11
289.967
21
23.419
0
LINE
8
BLACK
6
CONTINUOUS
10
289.967
20
23.419
11
290.271
21
23.419
0
LINE
8
BLACK
6
CONTINUOUS
10
289.052
20
23.0381
11
289.51
21
23.0381
0
LINE
8
BLACK
6
CONTINUOUS
10
289.281
20
23.0381
11
289.281
21
23.8381
0
LINE
8
BLACK
6
CONTINUOUS
10
289.281
20
23.8381
11
289.357
21
23.7238
0
LINE
8
BLACK
6
CONTINUOUS
10
289.357
20
23.7238
11
289.433
21
23.6476
0
LINE
8
BLACK
6
CONTINUOUS
10
289.433
20
23.6476
11
289.51
21
23.6095
0
LINE
8
BLACK
6
CONTINUOUS
10
288.748
20
23.7619
11
288.71
21
23.8
0
LINE
8
BLACK
6
CONTINUOUS
10
288.71
20
23.8
11
288.633
21
23.8381
0
LINE
8
BLACK
6
CONTINUOUS
10
288.633
20
23.8381
11
288.443
21
23.8381
0
LINE
8
BLACK
6
CONTINUOUS
10
288.443
20
23.8381
11
288.367
21
23.8
0
LINE
8
BLACK
6
CONTINUOUS
10
288.367
20
23.8
11
288.329
21
23.7619
0
LINE
8
BLACK
6
CONTINUOUS
10
288.329
20
23.7619
11
288.29
21
23.6857
0
LINE
8
BLACK
6
CONTINUOUS
10
288.29
20
23.6857
11
288.29
21
23.6095
0
LINE
8
BLACK
6
CONTINUOUS
10
288.29
20
23.6095
11
288.329
21
23.4952
0
LINE
8
BLACK
6
CONTINUOUS
10
288.329
20
23.4952
11
288.786
21
23.0381
0
LINE
8
BLACK
6
CONTINUOUS
10
288.786
20
23.0381
11
288.29
21
23.0381
0
LINE
8
BLACK
6
CONTINUOUS
10
231.555
20
189.363
11
231.555
21
188.569
0
LINE
8
BLACK
6
CONTINUOUS
10
231.555
20
188.569
11
231.509
21
188.476
0
LINE
8
BLACK
6
CONTINUOUS
10
231.509
20
188.476
11
231.462
21
188.429
0
LINE
8
BLACK
6
CONTINUOUS
10
231.462
20
188.429
11
231.369
21
188.383
0
LINE
8
BLACK
6
CONTINUOUS
10
231.369
20
188.383
11
231.182
21
188.383
0
LINE
8
BLACK
6
CONTINUOUS
10
231.182
20
188.383
11
231.089
21
188.429
0
LINE
8
BLACK
6
CONTINUOUS
10
231.089
20
188.429
11
231.042
21
188.476
0
LINE
8
BLACK
6
CONTINUOUS
10
231.042
20
188.476
11
230.995
21
188.569
0
LINE
8
BLACK
6
CONTINUOUS
10
230.995
20
188.569
11
230.995
21
189.363
0
LINE
8
BLACK
6
CONTINUOUS
10
230.482
20
188.383
11
230.295
21
188.383
0
LINE
8
BLACK
6
CONTINUOUS
10
230.295
20
188.383
11
230.202
21
188.429
0
LINE
8
BLACK
6
CONTINUOUS
10
230.202
20
188.429
11
230.155
21
188.476
0
LINE
8
BLACK
6
CONTINUOUS
10
230.155
20
188.476
11
230.062
21
188.616
0
LINE
8
BLACK
6
CONTINUOUS
10
230.062
20
188.616
11
230.015
21
188.803
0
LINE
8
BLACK
6
CONTINUOUS
10
230.015
20
188.803
11
230.015
21
189.176
0
LINE
8
BLACK
6
CONTINUOUS
10
230.015
20
189.176
11
230.062
21
189.269
0
LINE
8
BLACK
6
CONTINUOUS
10
230.062
20
189.269
11
230.109
21
189.316
0
LINE
8
BLACK
6
CONTINUOUS
10
230.109
20
189.316
11
230.202
21
189.363
0
LINE
8
BLACK
6
CONTINUOUS
10
230.202
20
189.363
11
230.389
21
189.363
0
LINE
8
BLACK
6
CONTINUOUS
10
230.389
20
189.363
11
230.482
21
189.316
0
LINE
8
BLACK
6
CONTINUOUS
10
230.482
20
189.316
11
230.529
21
189.269
0
LINE
8
BLACK
6
CONTINUOUS
10
230.529
20
189.269
11
230.575
21
189.176
0
LINE
8
BLACK
6
CONTINUOUS
10
230.575
20
189.176
11
230.575
21
188.943
0
LINE
8
BLACK
6
CONTINUOUS
10
230.575
20
188.943
11
230.529
21
188.849
0
LINE
8
BLACK
6
CONTINUOUS
10
230.529
20
188.849
11
230.482
21
188.803
0
LINE
8
BLACK
6
CONTINUOUS
10
230.482
20
188.803
11
230.389
21
188.756
0
LINE
8
BLACK
6
CONTINUOUS
10
230.389
20
188.756
11
230.202
21
188.756
0
LINE
8
BLACK
6
CONTINUOUS
10
230.202
20
188.756
11
230.109
21
188.803
0
LINE
8
BLACK
6
CONTINUOUS
10
230.109
20
188.803
11
230.062
21
188.849
0
LINE
8
BLACK
6
CONTINUOUS
10
230.062
20
188.849
11
230.015
21
188.943
0
LINE
8
BLACK
6
CONTINUOUS
10
185.219
20
97.0476
11
185.219
21
98.0476
0
LINE
8
BLACK
6
CONTINUOUS
10
184.171
20
97.1429
11
184.219
21
97.0952
0
LINE
8
BLACK
6
CONTINUOUS
10
184.219
20
97.0952
11
184.362
21
97.0476
0
LINE
8
BLACK
6
CONTINUOUS
10
184.362
20
97.0476
11
184.457
21
97.0476
0
LINE
8
BLACK
6
CONTINUOUS
10
184.457
20
97.0476
11
184.6
21
97.0952
0
LINE
8
BLACK
6
CONTINUOUS
10
184.6
20
97.0952
11
184.695
21
97.1905
0
LINE
8
BLACK
6
CONTINUOUS
10
184.695
20
97.1905
11
184.743
21
97.2857
0
LINE
8
BLACK
6
CONTINUOUS
10
184.743
20
97.2857
11
184.79
21
97.4762
0
LINE
8
BLACK
6
CONTINUOUS
10
184.79
20
97.4762
11
184.79
21
97.619
0
LINE
8
BLACK
6
CONTINUOUS
10
184.79
20
97.619
11
184.743
21
97.8095
0
LINE
8
BLACK
6
CONTINUOUS
10
184.743
20
97.8095
11
184.695
21
97.9048
0
LINE
8
BLACK
6
CONTINUOUS
10
184.695
20
97.9048
11
184.6
21
98
0
LINE
8
BLACK
6
CONTINUOUS
10
184.6
20
98
11
184.457
21
98.0476
0
LINE
8
BLACK
6
CONTINUOUS
10
184.457
20
98.0476
11
184.362
21
98.0476
0
LINE
8
BLACK
6
CONTINUOUS
10
184.362
20
98.0476
11
184.219
21
98
0
LINE
8
BLACK
6
CONTINUOUS
10
184.219
20
98
11
184.171
21
97.9524
0
LINE
8
BLACK
6
CONTINUOUS
10
183.743
20
97.4286
11
182.981
21
97.4286
0
LINE
8
BLACK
6
CONTINUOUS
10
182.505
20
97.0476
11
182.505
21
98.0476
0
LINE
8
BLACK
6
CONTINUOUS
10
182.505
20
98.0476
11
182.171
21
97.3333
0
LINE
8
BLACK
6
CONTINUOUS
10
182.171
20
97.3333
11
181.838
21
98.0476
0
LINE
8
BLACK
6
CONTINUOUS
10
181.838
20
98.0476
11
181.838
21
97.0476
0
LINE
8
BLACK
6
CONTINUOUS
10
181.362
20
97.0476
11
181.362
21
98.0476
0
LINE
8
BLACK
6
CONTINUOUS
10
181.362
20
98.0476
11
180.981
21
98.0476
0
LINE
8
BLACK
6
CONTINUOUS
10
180.981
20
98.0476
11
180.886
21
98
0
LINE
8
BLACK
6
CONTINUOUS
10
180.886
20
98
11
180.838
21
97.9524
0
LINE
8
BLACK
6
CONTINUOUS
10
180.838
20
97.9524
11
180.79
21
97.8571
0
LINE
8
BLACK
6
CONTINUOUS
10
180.79
20
97.8571
11
180.79
21
97.7143
0
LINE
8
BLACK
6
CONTINUOUS
10
180.79
20
97.7143
11
180.838
21
97.619
0
LINE
8
BLACK
6
CONTINUOUS
10
180.838
20
97.619
11
180.886
21
97.5714
0
LINE
8
BLACK
6
CONTINUOUS
10
180.886
20
97.5714
11
180.981
21
97.5238
0
LINE
8
BLACK
6
CONTINUOUS
10
180.981
20
97.5238
11
181.362
21
97.5238
0
LINE
8
BLACK
6
CONTINUOUS
10
179.886
20
97.0476
11
180.362
21
97.0476
0
LINE
8
BLACK
6
CONTINUOUS
10
180.362
20
97.0476
11
180.362
21
98.0476
0
LINE
8
BLACK
6
CONTINUOUS
10
179.552
20
97.5714
11
179.219
21
97.5714
0
LINE
8
BLACK
6
CONTINUOUS
10
179.076
20
97.0476
11
179.552
21
97.0476
0
LINE
8
BLACK
6
CONTINUOUS
10
179.552
20
97.0476
11
179.552
21
98.0476
0
LINE
8
BLACK
6
CONTINUOUS
10
179.552
20
98.0476
11
179.076
21
98.0476
0
LINE
8
BLACK
6
CONTINUOUS
10
178.743
20
98.0476
11
178.076
21
97.0476
0
LINE
8
BLACK
6
CONTINUOUS
10
178.076
20
98.0476
11
178.743
21
97.0476
0
LINE
8
BLACK
6
CONTINUOUS
10
177.695
20
97.4286
11
176.933
21
97.4286
0
LINE
8
BLACK
6
CONTINUOUS
10
176.029
20
97.7143
11
176.029
21
97.0476
0
LINE
8
BLACK
6
CONTINUOUS
10
176.267
20
98.0952
11
176.505
21
97.381
0
LINE
8
BLACK
6
CONTINUOUS
10
176.505
20
97.381
11
175.886
21
97.381
0
LINE
8
BLACK
6
CONTINUOUS
10
39.6143
20
53.9381
11
39.881
21
54.319
0
LINE
8
BLACK
6
CONTINUOUS
10
40.0714
20
53.9381
11
40.0714
21
54.7381
0
LINE
8
BLACK
6
CONTINUOUS
10
40.0714
20
54.7381
11
39.7667
21
54.7381
0
LINE
8
BLACK
6
CONTINUOUS
10
39.7667
20
54.7381
11
39.6905
21
54.7
0
LINE
8
BLACK
6
CONTINUOUS
10
39.6905
20
54.7
11
39.6524
21
54.6619
0
LINE
8
BLACK
6
CONTINUOUS
10
39.6524
20
54.6619
11
39.6143
21
54.5857
0
LINE
8
BLACK
6
CONTINUOUS
10
39.6143
20
54.5857
11
39.6143
21
54.4714
0
LINE
8
BLACK
6
CONTINUOUS
10
39.6143
20
54.4714
11
39.6524
21
54.3952
0
LINE
8
BLACK
6
CONTINUOUS
10
39.6524
20
54.3952
11
39.6905
21
54.3571
0
LINE
8
BLACK
6
CONTINUOUS
10
39.6905
20
54.3571
11
39.7667
21
54.319
0
LINE
8
BLACK
6
CONTINUOUS
10
39.7667
20
54.319
11
40.0714
21
54.319
0
LINE
8
BLACK
6
CONTINUOUS
10
38.8524
20
53.9381
11
39.3095
21
53.9381
0
LINE
8
BLACK
6
CONTINUOUS
10
39.081
20
53.9381
11
39.081
21
54.7381
0
LINE
8
BLACK
6
CONTINUOUS
10
39.081
20
54.7381
11
39.1571
21
54.6238
0
LINE
8
BLACK
6
CONTINUOUS
10
39.1571
20
54.6238
11
39.2333
21
54.5476
0
LINE
8
BLACK
6
CONTINUOUS
10
39.2333
20
54.5476
11
39.3095
21
54.5095
0
LINE
8
BLACK
6
CONTINUOUS
10
38.4714
20
53.9381
11
38.319
21
53.9381
0
LINE
8
BLACK
6
CONTINUOUS
10
38.319
20
53.9381
11
38.2429
21
53.9762
0
LINE
8
BLACK
6
CONTINUOUS
10
38.2429
20
53.9762
11
38.2048
21
54.0143
0
LINE
8
BLACK
6
CONTINUOUS
10
38.2048
20
54.0143
11
38.1286
21
54.1286
0
LINE
8
BLACK
6
CONTINUOUS
10
38.1286
20
54.1286
11
38.0905
21
54.281
0
LINE
8
BLACK
6
CONTINUOUS
10
38.0905
20
54.281
11
38.0905
21
54.5857
0
LINE
8
BLACK
6
CONTINUOUS
10
38.0905
20
54.5857
11
38.1286
21
54.6619
0
LINE
8
BLACK
6
CONTINUOUS
10
38.1286
20
54.6619
11
38.1667
21
54.7
0
LINE
8
BLACK
6
CONTINUOUS
10
38.1667
20
54.7
11
38.2429
21
54.7381
0
LINE
8
BLACK
6
CONTINUOUS
10
38.2429
20
54.7381
11
38.3952
21
54.7381
0
LINE
8
BLACK
6
CONTINUOUS
10
38.3952
20
54.7381
11
38.4714
21
54.7
0
LINE
8
BLACK
6
CONTINUOUS
10
38.4714
20
54.7
11
38.5095
21
54.6619
0
LINE
8
BLACK
6
CONTINUOUS
10
38.5095
20
54.6619
11
38.5476
21
54.5857
0
LINE
8
BLACK
6
CONTINUOUS
10
38.5476
20
54.5857
11
38.5476
21
54.3952
0
LINE
8
BLACK
6
CONTINUOUS
10
38.5476
20
54.3952
11
38.5095
21
54.319
0
LINE
8
BLACK
6
CONTINUOUS
10
38.5095
20
54.319
11
38.4714
21
54.281
0
LINE
8
BLACK
6
CONTINUOUS
10
38.4714
20
54.281
11
38.3952
21
54.2429
0
LINE
8
BLACK
6
CONTINUOUS
10
38.3952
20
54.2429
11
38.2429
21
54.2429
0
LINE
8
BLACK
6
CONTINUOUS
10
38.2429
20
54.2429
11
38.1667
21
54.281
0
LINE
8
BLACK
6
CONTINUOUS
10
38.1667
20
54.281
11
38.1286
21
54.319
0
LINE
8
BLACK
6
CONTINUOUS
10
38.1286
20
54.319
11
38.0905
21
54.3952
0
LINE
8
BLACK
6
CONTINUOUS
10
171.916
20
156.876
11
171.916
21
156.083
0
LINE
8
BLACK
6
CONTINUOUS
10
171.916
20
156.083
11
171.87
21
155.989
0
LINE
8
BLACK
6
CONTINUOUS
10
171.87
20
155.989
11
171.823
21
155.943
0
LINE
8
BLACK
6
CONTINUOUS
10
171.823
20
155.943
11
171.73
21
155.896
0
LINE
8
BLACK
6
CONTINUOUS
10
171.73
20
155.896
11
171.543
21
155.896
0
LINE
8
BLACK
6
CONTINUOUS
10
171.543
20
155.896
11
171.45
21
155.943
0
LINE
8
BLACK
6
CONTINUOUS
10
171.45
20
155.943
11
171.403
21
155.989
0
LINE
8
BLACK
6
CONTINUOUS
10
171.403
20
155.989
11
171.356
21
156.083
0
LINE
8
BLACK
6
CONTINUOUS
10
171.356
20
156.083
11
171.356
21
156.876
0
LINE
8
BLACK
6
CONTINUOUS
10
170.47
20
156.876
11
170.656
21
156.876
0
LINE
8
BLACK
6
CONTINUOUS
10
170.656
20
156.876
11
170.75
21
156.829
0
LINE
8
BLACK
6
CONTINUOUS
10
170.75
20
156.829
11
170.796
21
156.783
0
LINE
8
BLACK
6
CONTINUOUS
10
170.796
20
156.783
11
170.89
21
156.643
0
LINE
8
BLACK
6
CONTINUOUS
10
170.89
20
156.643
11
170.936
21
156.456
0
LINE
8
BLACK
6
CONTINUOUS
10
170.936
20
156.456
11
170.936
21
156.083
0
LINE
8
BLACK
6
CONTINUOUS
10
170.936
20
156.083
11
170.89
21
155.989
0
LINE
8
BLACK
6
CONTINUOUS
10
170.89
20
155.989
11
170.843
21
155.943
0
LINE
8
BLACK
6
CONTINUOUS
10
170.843
20
155.943
11
170.75
21
155.896
0
LINE
8
BLACK
6
CONTINUOUS
10
170.75
20
155.896
11
170.563
21
155.896
0
LINE
8
BLACK
6
CONTINUOUS
10
170.563
20
155.896
11
170.47
21
155.943
0
LINE
8
BLACK
6
CONTINUOUS
10
170.47
20
155.943
11
170.423
21
155.989
0
LINE
8
BLACK
6
CONTINUOUS
10
170.423
20
155.989
11
170.376
21
156.083
0
LINE
8
BLACK
6
CONTINUOUS
10
170.376
20
156.083
11
170.376
21
156.316
0
LINE
8
BLACK
6
CONTINUOUS
10
170.376
20
156.316
11
170.423
21
156.409
0
LINE
8
BLACK
6
CONTINUOUS
10
170.423
20
156.409
11
170.47
21
156.456
0
LINE
8
BLACK
6
CONTINUOUS
10
170.47
20
156.456
11
170.563
21
156.503
0
LINE
8
BLACK
6
CONTINUOUS
10
170.563
20
156.503
11
170.75
21
156.503
0
LINE
8
BLACK
6
CONTINUOUS
10
170.75
20
156.503
11
170.843
21
156.456
0
LINE
8
BLACK
6
CONTINUOUS
10
170.843
20
156.456
11
170.89
21
156.409
0
LINE
8
BLACK
6
CONTINUOUS
10
170.89
20
156.409
11
170.936
21
156.316
0
LINE
8
BLACK
6
CONTINUOUS
10
24.7143
20
27.3381
11
24.981
21
27.719
0
LINE
8
BLACK
6
CONTINUOUS
10
25.1714
20
27.3381
11
25.1714
21
28.1381
0
LINE
8
BLACK
6
CONTINUOUS
10
25.1714
20
28.1381
11
24.8667
21
28.1381
0
LINE
8
BLACK
6
CONTINUOUS
10
24.8667
20
28.1381
11
24.7905
21
28.1
0
LINE
8
BLACK
6
CONTINUOUS
10
24.7905
20
28.1
11
24.7524
21
28.0619
0
LINE
8
BLACK
6
CONTINUOUS
10
24.7524
20
28.0619
11
24.7143
21
27.9857
0
LINE
8
BLACK
6
CONTINUOUS
10
24.7143
20
27.9857
11
24.7143
21
27.8714
0
LINE
8
BLACK
6
CONTINUOUS
10
24.7143
20
27.8714
11
24.7524
21
27.7952
0
LINE
8
BLACK
6
CONTINUOUS
10
24.7524
20
27.7952
11
24.7905
21
27.7571
0
LINE
8
BLACK
6
CONTINUOUS
10
24.7905
20
27.7571
11
24.8667
21
27.719
0
LINE
8
BLACK
6
CONTINUOUS
10
24.8667
20
27.719
11
25.1714
21
27.719
0
LINE
8
BLACK
6
CONTINUOUS
10
23.9524
20
27.3381
11
24.4095
21
27.3381
0
LINE
8
BLACK
6
CONTINUOUS
10
24.181
20
27.3381
11
24.181
21
28.1381
0
LINE
8
BLACK
6
CONTINUOUS
10
24.181
20
28.1381
11
24.2571
21
28.0238
0
LINE
8
BLACK
6
CONTINUOUS
10
24.2571
20
28.0238
11
24.3333
21
27.9476
0
LINE
8
BLACK
6
CONTINUOUS
10
24.3333
20
27.9476
11
24.4095
21
27.9095
0
LINE
8
BLACK
6
CONTINUOUS
10
23.6857
20
28.1381
11
23.1524
21
28.1381
0
LINE
8
BLACK
6
CONTINUOUS
10
23.1524
20
28.1381
11
23.4952
21
27.3381
0
LINE
8
BLACK
6
CONTINUOUS
10
136.686
20
156.724
11
136.686
21
155.93
0
LINE
8
BLACK
6
CONTINUOUS
10
136.686
20
155.93
11
136.64
21
155.837
0
LINE
8
BLACK
6
CONTINUOUS
10
136.64
20
155.837
11
136.593
21
155.79
0
LINE
8
BLACK
6
CONTINUOUS
10
136.593
20
155.79
11
136.5
21
155.744
0
LINE
8
BLACK
6
CONTINUOUS
10
136.5
20
155.744
11
136.313
21
155.744
0
LINE
8
BLACK
6
CONTINUOUS
10
136.313
20
155.744
11
136.22
21
155.79
0
LINE
8
BLACK
6
CONTINUOUS
10
136.22
20
155.79
11
136.173
21
155.837
0
LINE
8
BLACK
6
CONTINUOUS
10
136.173
20
155.837
11
136.126
21
155.93
0
LINE
8
BLACK
6
CONTINUOUS
10
136.126
20
155.93
11
136.126
21
156.724
0
LINE
8
BLACK
6
CONTINUOUS
10
135.24
20
156.397
11
135.24
21
155.744
0
LINE
8
BLACK
6
CONTINUOUS
10
135.473
20
156.77
11
135.706
21
156.07
0
LINE
8
BLACK
6
CONTINUOUS
10
135.706
20
156.07
11
135.1
21
156.07
0
LINE
8
BLACK
6
CONTINUOUS
10
282.974
20
25.5476
11
282.95
21
25.5952
0
LINE
8
BLACK
6
CONTINUOUS
10
282.95
20
25.5952
11
282.902
21
25.6429
0
LINE
8
BLACK
6
CONTINUOUS
10
282.902
20
25.6429
11
282.831
21
25.7143
0
LINE
8
BLACK
6
CONTINUOUS
10
282.831
20
25.7143
11
282.807
21
25.7619
0
LINE
8
BLACK
6
CONTINUOUS
10
282.807
20
25.7619
11
282.807
21
25.8095
0
LINE
8
BLACK
6
CONTINUOUS
10
282.926
20
25.7857
11
282.902
21
25.8333
0
LINE
8
BLACK
6
CONTINUOUS
10
282.902
20
25.8333
11
282.855
21
25.881
0
LINE
8
BLACK
6
CONTINUOUS
10
282.855
20
25.881
11
282.76
21
25.9048
0
LINE
8
BLACK
6
CONTINUOUS
10
282.76
20
25.9048
11
282.593
21
25.9048
0
LINE
8
BLACK
6
CONTINUOUS
10
282.593
20
25.9048
11
282.498
21
25.881
0
LINE
8
BLACK
6
CONTINUOUS
10
282.498
20
25.881
11
282.45
21
25.8333
0
LINE
8
BLACK
6
CONTINUOUS
10
282.45
20
25.8333
11
282.426
21
25.7857
0
LINE
8
BLACK
6
CONTINUOUS
10
282.426
20
25.7857
11
282.426
21
25.6905
0
LINE
8
BLACK
6
CONTINUOUS
10
282.426
20
25.6905
11
282.45
21
25.6429
0
LINE
8
BLACK
6
CONTINUOUS
10
282.45
20
25.6429
11
282.498
21
25.5952
0
LINE
8
BLACK
6
CONTINUOUS
10
282.498
20
25.5952
11
282.593
21
25.5714
0
LINE
8
BLACK
6
CONTINUOUS
10
282.593
20
25.5714
11
282.76
21
25.5714
0
LINE
8
BLACK
6
CONTINUOUS
10
282.76
20
25.5714
11
282.855
21
25.5952
0
LINE
8
BLACK
6
CONTINUOUS
10
282.855
20
25.5952
11
282.902
21
25.6429
0
LINE
8
BLACK
6
CONTINUOUS
10
282.902
20
25.6429
11
282.926
21
25.6905
0
LINE
8
BLACK
6
CONTINUOUS
10
282.926
20
25.6905
11
282.926
21
25.7857
0
LINE
8
BLACK
6
CONTINUOUS
10
282.926
20
25.0952
11
282.926
21
25.381
0
LINE
8
BLACK
6
CONTINUOUS
10
282.926
20
25.2381
11
282.426
21
25.2381
0
LINE
8
BLACK
6
CONTINUOUS
10
282.426
20
25.2381
11
282.498
21
25.2857
0
LINE
8
BLACK
6
CONTINUOUS
10
282.498
20
25.2857
11
282.545
21
25.3333
0
LINE
8
BLACK
6
CONTINUOUS
10
282.545
20
25.3333
11
282.569
21
25.381
0
LINE
8
BLACK
6
CONTINUOUS
10
186.519
20
219.848
11
186.519
21
220.848
0
LINE
8
BLACK
6
CONTINUOUS
10
185.471
20
219.943
11
185.519
21
219.895
0
LINE
8
BLACK
6
CONTINUOUS
10
185.519
20
219.895
11
185.662
21
219.848
0
LINE
8
BLACK
6
CONTINUOUS
10
185.662
20
219.848
11
185.757
21
219.848
0
LINE
8
BLACK
6
CONTINUOUS
10
185.757
20
219.848
11
185.9
21
219.895
0
LINE
8
BLACK
6
CONTINUOUS
10
185.9
20
219.895
11
185.995
21
219.99
0
LINE
8
BLACK
6
CONTINUOUS
10
185.995
20
219.99
11
186.043
21
220.086
0
LINE
8
BLACK
6
CONTINUOUS
10
186.043
20
220.086
11
186.09
21
220.276
0
LINE
8
BLACK
6
CONTINUOUS
10
186.09
20
220.276
11
186.09
21
220.419
0
LINE
8
BLACK
6
CONTINUOUS
10
186.09
20
220.419
11
186.043
21
220.61
0
LINE
8
BLACK
6
CONTINUOUS
10
186.043
20
220.61
11
185.995
21
220.705
0
LINE
8
BLACK
6
CONTINUOUS
10
185.995
20
220.705
11
185.9
21
220.8
0
LINE
8
BLACK
6
CONTINUOUS
10
185.9
20
220.8
11
185.757
21
220.848
0
LINE
8
BLACK
6
CONTINUOUS
10
185.757
20
220.848
11
185.662
21
220.848
0
LINE
8
BLACK
6
CONTINUOUS
10
185.662
20
220.848
11
185.519
21
220.8
0
LINE
8
BLACK
6
CONTINUOUS
10
185.519
20
220.8
11
185.471
21
220.752
0
LINE
8
BLACK
6
CONTINUOUS
10
185.043
20
220.229
11
184.281
21
220.229
0
LINE
8
BLACK
6
CONTINUOUS
10
183.805
20
219.848
11
183.805
21
220.848
0
LINE
8
BLACK
6
CONTINUOUS
10
183.805
20
220.848
11
183.471
21
220.133
0
LINE
8
BLACK
6
CONTINUOUS
10
183.471
20
220.133
11
183.138
21
220.848
0
LINE
8
BLACK
6
CONTINUOUS
10
183.138
20
220.848
11
183.138
21
219.848
0
LINE
8
BLACK
6
CONTINUOUS
10
182.662
20
219.848
11
182.662
21
220.848
0
LINE
8
BLACK
6
CONTINUOUS
10
182.662
20
220.848
11
182.281
21
220.848
0
LINE
8
BLACK
6
CONTINUOUS
10
182.281
20
220.848
11
182.186
21
220.8
0
LINE
8
BLACK
6
CONTINUOUS
10
182.186
20
220.8
11
182.138
21
220.752
0
LINE
8
BLACK
6
CONTINUOUS
10
182.138
20
220.752
11
182.09
21
220.657
0
LINE
8
BLACK
6
CONTINUOUS
10
182.09
20
220.657
11
182.09
21
220.514
0
LINE
8
BLACK
6
CONTINUOUS
10
182.09
20
220.514
11
182.138
21
220.419
0
LINE
8
BLACK
6
CONTINUOUS
10
182.138
20
220.419
11
182.186
21
220.371
0
LINE
8
BLACK
6
CONTINUOUS
10
182.186
20
220.371
11
182.281
21
220.324
0
LINE
8
BLACK
6
CONTINUOUS
10
182.281
20
220.324
11
182.662
21
220.324
0
LINE
8
BLACK
6
CONTINUOUS
10
181.186
20
219.848
11
181.662
21
219.848
0
LINE
8
BLACK
6
CONTINUOUS
10
181.662
20
219.848
11
181.662
21
220.848
0
LINE
8
BLACK
6
CONTINUOUS
10
180.852
20
220.371
11
180.519
21
220.371
0
LINE
8
BLACK
6
CONTINUOUS
10
180.376
20
219.848
11
180.852
21
219.848
0
LINE
8
BLACK
6
CONTINUOUS
10
180.852
20
219.848
11
180.852
21
220.848
0
LINE
8
BLACK
6
CONTINUOUS
10
180.852
20
220.848
11
180.376
21
220.848
0
LINE
8
BLACK
6
CONTINUOUS
10
180.043
20
220.848
11
179.376
21
219.848
0
LINE
8
BLACK
6
CONTINUOUS
10
179.376
20
220.848
11
180.043
21
219.848
0
LINE
8
BLACK
6
CONTINUOUS
10
178.995
20
220.229
11
178.233
21
220.229
0
LINE
8
BLACK
6
CONTINUOUS
10
177.233
20
219.848
11
177.805
21
219.848
0
LINE
8
BLACK
6
CONTINUOUS
10
177.519
20
219.848
11
177.519
21
220.848
0
LINE
8
BLACK
6
CONTINUOUS
10
177.519
20
220.848
11
177.614
21
220.705
0
LINE
8
BLACK
6
CONTINUOUS
10
177.614
20
220.705
11
177.71
21
220.61
0
LINE
8
BLACK
6
CONTINUOUS
10
177.71
20
220.61
11
177.805
21
220.562
0
LINE
8
BLACK
6
CONTINUOUS
10
39.7143
20
57.5381
11
39.981
21
57.919
0
LINE
8
BLACK
6
CONTINUOUS
10
40.1714
20
57.5381
11
40.1714
21
58.3381
0
LINE
8
BLACK
6
CONTINUOUS
10
40.1714
20
58.3381
11
39.8667
21
58.3381
0
LINE
8
BLACK
6
CONTINUOUS
10
39.8667
20
58.3381
11
39.7905
21
58.3
0
LINE
8
BLACK
6
CONTINUOUS
10
39.7905
20
58.3
11
39.7524
21
58.2619
0
LINE
8
BLACK
6
CONTINUOUS
10
39.7524
20
58.2619
11
39.7143
21
58.1857
0
LINE
8
BLACK
6
CONTINUOUS
10
39.7143
20
58.1857
11
39.7143
21
58.0714
0
LINE
8
BLACK
6
CONTINUOUS
10
39.7143
20
58.0714
11
39.7524
21
57.9952
0
LINE
8
BLACK
6
CONTINUOUS
10
39.7524
20
57.9952
11
39.7905
21
57.9571
0
LINE
8
BLACK
6
CONTINUOUS
10
39.7905
20
57.9571
11
39.8667
21
57.919
0
LINE
8
BLACK
6
CONTINUOUS
10
39.8667
20
57.919
11
40.1714
21
57.919
0
LINE
8
BLACK
6
CONTINUOUS
10
39.4095
20
58.2619
11
39.3714
21
58.3
0
LINE
8
BLACK
6
CONTINUOUS
10
39.3714
20
58.3
11
39.2952
21
58.3381
0
LINE
8
BLACK
6
CONTINUOUS
10
39.2952
20
58.3381
11
39.1048
21
58.3381
0
LINE
8
BLACK
6
CONTINUOUS
10
39.1048
20
58.3381
11
39.0286
21
58.3
0
LINE
8
BLACK
6
CONTINUOUS
10
39.0286
20
58.3
11
38.9905
21
58.2619
0
LINE
8
BLACK
6
CONTINUOUS
10
38.9905
20
58.2619
11
38.9524
21
58.1857
0
LINE
8
BLACK
6
CONTINUOUS
10
38.9524
20
58.1857
11
38.9524
21
58.1095
0
LINE
8
BLACK
6
CONTINUOUS
10
38.9524
20
58.1095
11
38.9905
21
57.9952
0
LINE
8
BLACK
6
CONTINUOUS
10
38.9905
20
57.9952
11
39.4476
21
57.5381
0
LINE
8
BLACK
6
CONTINUOUS
10
39.4476
20
57.5381
11
38.9524
21
57.5381
0
LINE
8
BLACK
6
CONTINUOUS
10
38.1905
20
57.5381
11
38.6476
21
57.5381
0
LINE
8
BLACK
6
CONTINUOUS
10
38.419
20
57.5381
11
38.419
21
58.3381
0
LINE
8
BLACK
6
CONTINUOUS
10
38.419
20
58.3381
11
38.4952
21
58.2238
0
LINE
8
BLACK
6
CONTINUOUS
10
38.4952
20
58.2238
11
38.5714
21
58.1476
0
LINE
8
BLACK
6
CONTINUOUS
10
38.5714
20
58.1476
11
38.6476
21
58.1095
0
LINE
8
BLACK
6
CONTINUOUS
10
290.414
20
58.9381
11
290.681
21
59.319
0
LINE
8
BLACK
6
CONTINUOUS
10
290.871
20
58.9381
11
290.871
21
59.7381
0
LINE
8
BLACK
6
CONTINUOUS
10
290.871
20
59.7381
11
290.567
21
59.7381
0
LINE
8
BLACK
6
CONTINUOUS
10
290.567
20
59.7381
11
290.49
21
59.7
0
LINE
8
BLACK
6
CONTINUOUS
10
290.49
20
59.7
11
290.452
21
59.6619
0
LINE
8
BLACK
6
CONTINUOUS
10
290.452
20
59.6619
11
290.414
21
59.5857
0
LINE
8
BLACK
6
CONTINUOUS
10
290.414
20
59.5857
11
290.414
21
59.4714
0
LINE
8
BLACK
6
CONTINUOUS
10
290.414
20
59.4714
11
290.452
21
59.3952
0
LINE
8
BLACK
6
CONTINUOUS
10
290.452
20
59.3952
11
290.49
21
59.3571
0
LINE
8
BLACK
6
CONTINUOUS
10
290.49
20
59.3571
11
290.567
21
59.319
0
LINE
8
BLACK
6
CONTINUOUS
10
290.567
20
59.319
11
290.871
21
59.319
0
LINE
8
BLACK
6
CONTINUOUS
10
290.11
20
59.6619
11
290.071
21
59.7
0
LINE
8
BLACK
6
CONTINUOUS
10
290.071
20
59.7
11
289.995
21
59.7381
0
LINE
8
BLACK
6
CONTINUOUS
10
289.995
20
59.7381
11
289.805
21
59.7381
0
LINE
8
BLACK
6
CONTINUOUS
10
289.805
20
59.7381
11
289.729
21
59.7
0
LINE
8
BLACK
6
CONTINUOUS
10
289.729
20
59.7
11
289.69
21
59.6619
0
LINE
8
BLACK
6
CONTINUOUS
10
289.69
20
59.6619
11
289.652
21
59.5857
0
LINE
8
BLACK
6
CONTINUOUS
10
289.652
20
59.5857
11
289.652
21
59.5095
0
LINE
8
BLACK
6
CONTINUOUS
10
289.652
20
59.5095
11
289.69
21
59.3952
0
LINE
8
BLACK
6
CONTINUOUS
10
289.69
20
59.3952
11
290.148
21
58.9381
0
LINE
8
BLACK
6
CONTINUOUS
10
290.148
20
58.9381
11
289.652
21
58.9381
0
LINE
8
BLACK
6
CONTINUOUS
10
289.157
20
59.7381
11
289.081
21
59.7381
0
LINE
8
BLACK
6
CONTINUOUS
10
289.081
20
59.7381
11
289.005
21
59.7
0
LINE
8
BLACK
6
CONTINUOUS
10
289.005
20
59.7
11
288.967
21
59.6619
0
LINE
8
BLACK
6
CONTINUOUS
10
288.967
20
59.6619
11
288.929
21
59.5857
0
LINE
8
BLACK
6
CONTINUOUS
10
288.929
20
59.5857
11
288.89
21
59.4333
0
LINE
8
BLACK
6
CONTINUOUS
10
288.89
20
59.4333
11
288.89
21
59.2429
0
LINE
8
BLACK
6
CONTINUOUS
10
288.89
20
59.2429
11
288.929
21
59.0905
0
LINE
8
BLACK
6
CONTINUOUS
10
288.929
20
59.0905
11
288.967
21
59.0143
0
LINE
8
BLACK
6
CONTINUOUS
10
288.967
20
59.0143
11
289.005
21
58.9762
0
LINE
8
BLACK
6
CONTINUOUS
10
289.005
20
58.9762
11
289.081
21
58.9381
0
LINE
8
BLACK
6
CONTINUOUS
10
289.081
20
58.9381
11
289.157
21
58.9381
0
LINE
8
BLACK
6
CONTINUOUS
10
289.157
20
58.9381
11
289.233
21
58.9762
0
LINE
8
BLACK
6
CONTINUOUS
10
289.233
20
58.9762
11
289.271
21
59.0143
0
LINE
8
BLACK
6
CONTINUOUS
10
289.271
20
59.0143
11
289.31
21
59.0905
0
LINE
8
BLACK
6
CONTINUOUS
10
289.31
20
59.0905
11
289.348
21
59.2429
0
LINE
8
BLACK
6
CONTINUOUS
10
289.348
20
59.2429
11
289.348
21
59.4333
0
LINE
8
BLACK
6
CONTINUOUS
10
289.348
20
59.4333
11
289.31
21
59.5857
0
LINE
8
BLACK
6
CONTINUOUS
10
289.31
20
59.5857
11
289.271
21
59.6619
0
LINE
8
BLACK
6
CONTINUOUS
10
289.271
20
59.6619
11
289.233
21
59.7
0
LINE
8
BLACK
6
CONTINUOUS
10
289.233
20
59.7
11
289.157
21
59.7381
0
LINE
8
BLACK
6
CONTINUOUS
10
231.209
20
156.825
11
231.209
21
156.032
0
LINE
8
BLACK
6
CONTINUOUS
10
231.209
20
156.032
11
231.163
21
155.939
0
LINE
8
BLACK
6
CONTINUOUS
10
231.163
20
155.939
11
231.116
21
155.892
0
LINE
8
BLACK
6
CONTINUOUS
10
231.116
20
155.892
11
231.023
21
155.845
0
LINE
8
BLACK
6
CONTINUOUS
10
231.023
20
155.845
11
230.836
21
155.845
0
LINE
8
BLACK
6
CONTINUOUS
10
230.836
20
155.845
11
230.743
21
155.892
0
LINE
8
BLACK
6
CONTINUOUS
10
230.743
20
155.892
11
230.696
21
155.939
0
LINE
8
BLACK
6
CONTINUOUS
10
230.696
20
155.939
11
230.649
21
156.032
0
LINE
8
BLACK
6
CONTINUOUS
10
230.649
20
156.032
11
230.649
21
156.825
0
LINE
8
BLACK
6
CONTINUOUS
10
229.669
20
155.845
11
230.229
21
155.845
0
LINE
8
BLACK
6
CONTINUOUS
10
229.949
20
155.845
11
229.949
21
156.825
0
LINE
8
BLACK
6
CONTINUOUS
10
229.949
20
156.825
11
230.043
21
156.685
0
LINE
8
BLACK
6
CONTINUOUS
10
230.043
20
156.685
11
230.136
21
156.592
0
LINE
8
BLACK
6
CONTINUOUS
10
230.136
20
156.592
11
230.229
21
156.545
0
LINE
8
BLACK
6
CONTINUOUS
10
229.063
20
156.825
11
228.969
21
156.825
0
LINE
8
BLACK
6
CONTINUOUS
10
228.969
20
156.825
11
228.876
21
156.779
0
LINE
8
BLACK
6
CONTINUOUS
10
228.876
20
156.779
11
228.829
21
156.732
0
LINE
8
BLACK
6
CONTINUOUS
10
228.829
20
156.732
11
228.783
21
156.639
0
LINE
8
BLACK
6
CONTINUOUS
10
228.783
20
156.639
11
228.736
21
156.452
0
LINE
8
BLACK
6
CONTINUOUS
10
228.736
20
156.452
11
228.736
21
156.219
0
LINE
8
BLACK
6
CONTINUOUS
10
228.736
20
156.219
11
228.783
21
156.032
0
LINE
8
BLACK
6
CONTINUOUS
10
228.783
20
156.032
11
228.829
21
155.939
0
LINE
8
BLACK
6
CONTINUOUS
10
228.829
20
155.939
11
228.876
21
155.892
0
LINE
8
BLACK
6
CONTINUOUS
10
228.876
20
155.892
11
228.969
21
155.845
0
LINE
8
BLACK
6
CONTINUOUS
10
228.969
20
155.845
11
229.063
21
155.845
0
LINE
8
BLACK
6
CONTINUOUS
10
229.063
20
155.845
11
229.156
21
155.892
0
LINE
8
BLACK
6
CONTINUOUS
10
229.156
20
155.892
11
229.203
21
155.939
0
LINE
8
BLACK
6
CONTINUOUS
10
229.203
20
155.939
11
229.249
21
156.032
0
LINE
8
BLACK
6
CONTINUOUS
10
229.249
20
156.032
11
229.296
21
156.219
0
LINE
8
BLACK
6
CONTINUOUS
10
229.296
20
156.219
11
229.296
21
156.452
0
LINE
8
BLACK
6
CONTINUOUS
10
229.296
20
156.452
11
229.249
21
156.639
0
LINE
8
BLACK
6
CONTINUOUS
10
229.249
20
156.639
11
229.203
21
156.732
0
LINE
8
BLACK
6
CONTINUOUS
10
229.203
20
156.732
11
229.156
21
156.779
0
LINE
8
BLACK
6
CONTINUOUS
10
229.156
20
156.779
11
229.063
21
156.825
0
LINE
8
BLACK
6
CONTINUOUS
10
213.873
20
156.979
11
213.873
21
156.185
0
LINE
8
BLACK
6
CONTINUOUS
10
213.873
20
156.185
11
213.826
21
156.092
0
LINE
8
BLACK
6
CONTINUOUS
10
213.826
20
156.092
11
213.779
21
156.045
0
LINE
8
BLACK
6
CONTINUOUS
10
213.779
20
156.045
11
213.686
21
155.999
0
LINE
8
BLACK
6
CONTINUOUS
10
213.686
20
155.999
11
213.499
21
155.999
0
LINE
8
BLACK
6
CONTINUOUS
10
213.499
20
155.999
11
213.406
21
156.045
0
LINE
8
BLACK
6
CONTINUOUS
10
213.406
20
156.045
11
213.359
21
156.092
0
LINE
8
BLACK
6
CONTINUOUS
10
213.359
20
156.092
11
213.313
21
156.185
0
LINE
8
BLACK
6
CONTINUOUS
10
213.313
20
156.185
11
213.313
21
156.979
0
LINE
8
BLACK
6
CONTINUOUS
10
212.706
20
156.559
11
212.799
21
156.605
0
LINE
8
BLACK
6
CONTINUOUS
10
212.799
20
156.605
11
212.846
21
156.652
0
LINE
8
BLACK
6
CONTINUOUS
10
212.846
20
156.652
11
212.893
21
156.745
0
LINE
8
BLACK
6
CONTINUOUS
10
212.893
20
156.745
11
212.893
21
156.792
0
LINE
8
BLACK
6
CONTINUOUS
10
212.893
20
156.792
11
212.846
21
156.885
0
LINE
8
BLACK
6
CONTINUOUS
10
212.846
20
156.885
11
212.799
21
156.932
0
LINE
8
BLACK
6
CONTINUOUS
10
212.799
20
156.932
11
212.706
21
156.979
0
LINE
8
BLACK
6
CONTINUOUS
10
212.706
20
156.979
11
212.519
21
156.979
0
LINE
8
BLACK
6
CONTINUOUS
10
212.519
20
156.979
11
212.426
21
156.932
0
LINE
8
BLACK
6
CONTINUOUS
10
212.426
20
156.932
11
212.379
21
156.885
0
LINE
8
BLACK
6
CONTINUOUS
10
212.379
20
156.885
11
212.333
21
156.792
0
LINE
8
BLACK
6
CONTINUOUS
10
212.333
20
156.792
11
212.333
21
156.745
0
LINE
8
BLACK
6
CONTINUOUS
10
212.333
20
156.745
11
212.379
21
156.652
0
LINE
8
BLACK
6
CONTINUOUS
10
212.379
20
156.652
11
212.426
21
156.605
0
LINE
8
BLACK
6
CONTINUOUS
10
212.426
20
156.605
11
212.519
21
156.559
0
LINE
8
BLACK
6
CONTINUOUS
10
212.519
20
156.559
11
212.706
21
156.559
0
LINE
8
BLACK
6
CONTINUOUS
10
212.706
20
156.559
11
212.799
21
156.512
0
LINE
8
BLACK
6
CONTINUOUS
10
212.799
20
156.512
11
212.846
21
156.465
0
LINE
8
BLACK
6
CONTINUOUS
10
212.846
20
156.465
11
212.893
21
156.372
0
LINE
8
BLACK
6
CONTINUOUS
10
212.893
20
156.372
11
212.893
21
156.185
0
LINE
8
BLACK
6
CONTINUOUS
10
212.893
20
156.185
11
212.846
21
156.092
0
LINE
8
BLACK
6
CONTINUOUS
10
212.846
20
156.092
11
212.799
21
156.045
0
LINE
8
BLACK
6
CONTINUOUS
10
212.799
20
156.045
11
212.706
21
155.999
0
LINE
8
BLACK
6
CONTINUOUS
10
212.706
20
155.999
11
212.519
21
155.999
0
LINE
8
BLACK
6
CONTINUOUS
10
212.519
20
155.999
11
212.426
21
156.045
0
LINE
8
BLACK
6
CONTINUOUS
10
212.426
20
156.045
11
212.379
21
156.092
0
LINE
8
BLACK
6
CONTINUOUS
10
212.379
20
156.092
11
212.333
21
156.185
0
LINE
8
BLACK
6
CONTINUOUS
10
212.333
20
156.185
11
212.333
21
156.372
0
LINE
8
BLACK
6
CONTINUOUS
10
212.333
20
156.372
11
212.379
21
156.465
0
LINE
8
BLACK
6
CONTINUOUS
10
212.379
20
156.465
11
212.426
21
156.512
0
LINE
8
BLACK
6
CONTINUOUS
10
212.426
20
156.512
11
212.519
21
156.559
0
LINE
8
BLACK
6
CONTINUOUS
10
55.2524
20
102.719
11
54.2524
21
102.719
0
LINE
8
BLACK
6
CONTINUOUS
10
55.1571
20
101.671
11
55.2048
21
101.719
0
LINE
8
BLACK
6
CONTINUOUS
10
55.2048
20
101.719
11
55.2524
21
101.862
0
LINE
8
BLACK
6
CONTINUOUS
10
55.2524
20
101.862
11
55.2524
21
101.957
0
LINE
8
BLACK
6
CONTINUOUS
10
55.2524
20
101.957
11
55.2048
21
102.1
0
LINE
8
BLACK
6
CONTINUOUS
10
55.2048
20
102.1
11
55.1095
21
102.195
0
LINE
8
BLACK
6
CONTINUOUS
10
55.1095
20
102.195
11
55.0143
21
102.243
0
LINE
8
BLACK
6
CONTINUOUS
10
55.0143
20
102.243
11
54.8238
21
102.29
0
LINE
8
BLACK
6
CONTINUOUS
10
54.8238
20
102.29
11
54.681
21
102.29
0
LINE
8
BLACK
6
CONTINUOUS
10
54.681
20
102.29
11
54.4905
21
102.243
0
LINE
8
BLACK
6
CONTINUOUS
10
54.4905
20
102.243
11
54.3952
21
102.195
0
LINE
8
BLACK
6
CONTINUOUS
10
54.3952
20
102.195
11
54.3
21
102.1
0
LINE
8
BLACK
6
CONTINUOUS
10
54.3
20
102.1
11
54.2524
21
101.957
0
LINE
8
BLACK
6
CONTINUOUS
10
54.2524
20
101.957
11
54.2524
21
101.862
0
LINE
8
BLACK
6
CONTINUOUS
10
54.2524
20
101.862
11
54.3
21
101.719
0
LINE
8
BLACK
6
CONTINUOUS
10
54.3
20
101.719
11
54.3476
21
101.671
0
LINE
8
BLACK
6
CONTINUOUS
10
54.8714
20
101.243
11
54.8714
21
100.481
0
LINE
8
BLACK
6
CONTINUOUS
10
55.2524
20
100.005
11
54.2524
21
100.005
0
LINE
8
BLACK
6
CONTINUOUS
10
54.2524
20
100.005
11
54.9667
21
99.6714
0
LINE
8
BLACK
6
CONTINUOUS
10
54.9667
20
99.6714
11
54.2524
21
99.3381
0
LINE
8
BLACK
6
CONTINUOUS
10
54.2524
20
99.3381
11
55.2524
21
99.3381
0
LINE
8
BLACK
6
CONTINUOUS
10
55.2524
20
98.8619
11
54.2524
21
98.8619
0
LINE
8
BLACK
6
CONTINUOUS
10
54.2524
20
98.8619
11
54.2524
21
98.481
0
LINE
8
BLACK
6
CONTINUOUS
10
54.2524
20
98.481
11
54.3
21
98.3857
0
LINE
8
BLACK
6
CONTINUOUS
10
54.3
20
98.3857
11
54.3476
21
98.3381
0
LINE
8
BLACK
6
CONTINUOUS
10
54.3476
20
98.3381
11
54.4429
21
98.2905
0
LINE
8
BLACK
6
CONTINUOUS
10
54.4429
20
98.2905
11
54.5857
21
98.2905
0
LINE
8
BLACK
6
CONTINUOUS
10
54.5857
20
98.2905
11
54.681
21
98.3381
0
LINE
8
BLACK
6
CONTINUOUS
10
54.681
20
98.3381
11
54.7286
21
98.3857
0
LINE
8
BLACK
6
CONTINUOUS
10
54.7286
20
98.3857
11
54.7762
21
98.481
0
LINE
8
BLACK
6
CONTINUOUS
10
54.7762
20
98.481
11
54.7762
21
98.8619
0
LINE
8
BLACK
6
CONTINUOUS
10
55.2524
20
97.3857
11
55.2524
21
97.8619
0
LINE
8
BLACK
6
CONTINUOUS
10
55.2524
20
97.8619
11
54.2524
21
97.8619
0
LINE
8
BLACK
6
CONTINUOUS
10
54.7286
20
97.0524
11
54.7286
21
96.719
0
LINE
8
BLACK
6
CONTINUOUS
10
55.2524
20
96.5762
11
55.2524
21
97.0524
0
LINE
8
BLACK
6
CONTINUOUS
10
55.2524
20
97.0524
11
54.2524
21
97.0524
0
LINE
8
BLACK
6
CONTINUOUS
10
54.2524
20
97.0524
11
54.2524
21
96.5762
0
LINE
8
BLACK
6
CONTINUOUS
10
54.2524
20
96.2429
11
55.2524
21
95.5762
0
LINE
8
BLACK
6
CONTINUOUS
10
54.2524
20
95.5762
11
55.2524
21
96.2429
0
LINE
8
BLACK
6
CONTINUOUS
10
54.8714
20
95.1952
11
54.8714
21
94.4333
0
LINE
8
BLACK
6
CONTINUOUS
10
54.2524
20
94.0524
11
54.2524
21
93.4333
0
LINE
8
BLACK
6
CONTINUOUS
10
54.2524
20
93.4333
11
54.6333
21
93.7667
0
LINE
8
BLACK
6
CONTINUOUS
10
54.6333
20
93.7667
11
54.6333
21
93.6238
0
LINE
8
BLACK
6
CONTINUOUS
10
54.6333
20
93.6238
11
54.681
21
93.5286
0
LINE
8
BLACK
6
CONTINUOUS
10
54.681
20
93.5286
11
54.7286
21
93.481
0
LINE
8
BLACK
6
CONTINUOUS
10
54.7286
20
93.481
11
54.8238
21
93.4333
0
LINE
8
BLACK
6
CONTINUOUS
10
54.8238
20
93.4333
11
55.0619
21
93.4333
0
LINE
8
BLACK
6
CONTINUOUS
10
55.0619
20
93.4333
11
55.1571
21
93.481
0
LINE
8
BLACK
6
CONTINUOUS
10
55.1571
20
93.481
11
55.2048
21
93.5286
0
LINE
8
BLACK
6
CONTINUOUS
10
55.2048
20
93.5286
11
55.2524
21
93.6238
0
LINE
8
BLACK
6
CONTINUOUS
10
55.2524
20
93.6238
11
55.2524
21
93.9095
0
LINE
8
BLACK
6
CONTINUOUS
10
55.2524
20
93.9095
11
55.2048
21
94.0048
0
LINE
8
BLACK
6
CONTINUOUS
10
55.2048
20
94.0048
11
55.1571
21
94.0524
0
LINE
8
BLACK
6
CONTINUOUS
10
24.3143
20
57.2381
11
24.581
21
57.619
0
LINE
8
BLACK
6
CONTINUOUS
10
24.7714
20
57.2381
11
24.7714
21
58.0381
0
LINE
8
BLACK
6
CONTINUOUS
10
24.7714
20
58.0381
11
24.4667
21
58.0381
0
LINE
8
BLACK
6
CONTINUOUS
10
24.4667
20
58.0381
11
24.3905
21
58
0
LINE
8
BLACK
6
CONTINUOUS
10
24.3905
20
58
11
24.3524
21
57.9619
0
LINE
8
BLACK
6
CONTINUOUS
10
24.3524
20
57.9619
11
24.3143
21
57.8857
0
LINE
8
BLACK
6
CONTINUOUS
10
24.3143
20
57.8857
11
24.3143
21
57.7714
0
LINE
8
BLACK
6
CONTINUOUS
10
24.3143
20
57.7714
11
24.3524
21
57.6952
0
LINE
8
BLACK
6
CONTINUOUS
10
24.3524
20
57.6952
11
24.3905
21
57.6571
0
LINE
8
BLACK
6
CONTINUOUS
10
24.3905
20
57.6571
11
24.4667
21
57.619
0
LINE
8
BLACK
6
CONTINUOUS
10
24.4667
20
57.619
11
24.7714
21
57.619
0
LINE
8
BLACK
6
CONTINUOUS
10
24.0095
20
57.9619
11
23.9714
21
58
0
LINE
8
BLACK
6
CONTINUOUS
10
23.9714
20
58
11
23.8952
21
58.0381
0
LINE
8
BLACK
6
CONTINUOUS
10
23.8952
20
58.0381
11
23.7048
21
58.0381
0
LINE
8
BLACK
6
CONTINUOUS
10
23.7048
20
58.0381
11
23.6286
21
58
0
LINE
8
BLACK
6
CONTINUOUS
10
23.6286
20
58
11
23.5905
21
57.9619
0
LINE
8
BLACK
6
CONTINUOUS
10
23.5905
20
57.9619
11
23.5524
21
57.8857
0
LINE
8
BLACK
6
CONTINUOUS
10
23.5524
20
57.8857
11
23.5524
21
57.8095
0
LINE
8
BLACK
6
CONTINUOUS
10
23.5524
20
57.8095
11
23.5905
21
57.6952
0
LINE
8
BLACK
6
CONTINUOUS
10
23.5905
20
57.6952
11
24.0476
21
57.2381
0
LINE
8
BLACK
6
CONTINUOUS
10
24.0476
20
57.2381
11
23.5524
21
57.2381
0
LINE
8
BLACK
6
CONTINUOUS
10
23.2857
20
58.0381
11
22.7905
21
58.0381
0
LINE
8
BLACK
6
CONTINUOUS
10
22.7905
20
58.0381
11
23.0571
21
57.7333
0
LINE
8
BLACK
6
CONTINUOUS
10
23.0571
20
57.7333
11
22.9429
21
57.7333
0
LINE
8
BLACK
6
CONTINUOUS
10
22.9429
20
57.7333
11
22.8667
21
57.6952
0
LINE
8
BLACK
6
CONTINUOUS
10
22.8667
20
57.6952
11
22.8286
21
57.6571
0
LINE
8
BLACK
6
CONTINUOUS
10
22.8286
20
57.6571
11
22.7905
21
57.581
0
LINE
8
BLACK
6
CONTINUOUS
10
22.7905
20
57.581
11
22.7905
21
57.3905
0
LINE
8
BLACK
6
CONTINUOUS
10
22.7905
20
57.3905
11
22.8286
21
57.3143
0
LINE
8
BLACK
6
CONTINUOUS
10
22.8286
20
57.3143
11
22.8667
21
57.2762
0
LINE
8
BLACK
6
CONTINUOUS
10
22.8667
20
57.2762
11
22.9429
21
57.2381
0
LINE
8
BLACK
6
CONTINUOUS
10
22.9429
20
57.2381
11
23.1714
21
57.2381
0
LINE
8
BLACK
6
CONTINUOUS
10
23.1714
20
57.2381
11
23.2476
21
57.2762
0
LINE
8
BLACK
6
CONTINUOUS
10
23.2476
20
57.2762
11
23.2857
21
57.3143
0
LINE
8
BLACK
6
CONTINUOUS
10
41.7629
20
24.3039
11
42.0296
21
24.6848
0
LINE
8
BLACK
6
CONTINUOUS
10
42.22
20
24.3039
11
42.22
21
25.1039
0
LINE
8
BLACK
6
CONTINUOUS
10
42.22
20
25.1039
11
41.9153
21
25.1039
0
LINE
8
BLACK
6
CONTINUOUS
10
41.9153
20
25.1039
11
41.8391
21
25.0658
0
LINE
8
BLACK
6
CONTINUOUS
10
41.8391
20
25.0658
11
41.801
21
25.0277
0
LINE
8
BLACK
6
CONTINUOUS
10
41.801
20
25.0277
11
41.7629
21
24.9515
0
LINE
8
BLACK
6
CONTINUOUS
10
41.7629
20
24.9515
11
41.7629
21
24.8372
0
LINE
8
BLACK
6
CONTINUOUS
10
41.7629
20
24.8372
11
41.801
21
24.761
0
LINE
8
BLACK
6
CONTINUOUS
10
41.801
20
24.761
11
41.8391
21
24.7229
0
LINE
8
BLACK
6
CONTINUOUS
10
41.8391
20
24.7229
11
41.9153
21
24.6848
0
LINE
8
BLACK
6
CONTINUOUS
10
41.9153
20
24.6848
11
42.22
21
24.6848
0
LINE
8
BLACK
6
CONTINUOUS
10
41.001
20
24.3039
11
41.4581
21
24.3039
0
LINE
8
BLACK
6
CONTINUOUS
10
41.2296
20
24.3039
11
41.2296
21
25.1039
0
LINE
8
BLACK
6
CONTINUOUS
10
41.2296
20
25.1039
11
41.3057
21
24.9896
0
LINE
8
BLACK
6
CONTINUOUS
10
41.3057
20
24.9896
11
41.3819
21
24.9134
0
LINE
8
BLACK
6
CONTINUOUS
10
41.3819
20
24.9134
11
41.4581
21
24.8753
0
LINE
8
BLACK
6
CONTINUOUS
10
40.7343
20
25.1039
11
40.2391
21
25.1039
0
LINE
8
BLACK
6
CONTINUOUS
10
40.2391
20
25.1039
11
40.5057
21
24.7991
0
LINE
8
BLACK
6
CONTINUOUS
10
40.5057
20
24.7991
11
40.3915
21
24.7991
0
LINE
8
BLACK
6
CONTINUOUS
10
40.3915
20
24.7991
11
40.3153
21
24.761
0
LINE
8
BLACK
6
CONTINUOUS
10
40.3153
20
24.761
11
40.2772
21
24.7229
0
LINE
8
BLACK
6
CONTINUOUS
10
40.2772
20
24.7229
11
40.2391
21
24.6468
0
LINE
8
BLACK
6
CONTINUOUS
10
40.2391
20
24.6468
11
40.2391
21
24.4563
0
LINE
8
BLACK
6
CONTINUOUS
10
40.2391
20
24.4563
11
40.2772
21
24.3801
0
LINE
8
BLACK
6
CONTINUOUS
10
40.2772
20
24.3801
11
40.3153
21
24.342
0
LINE
8
BLACK
6
CONTINUOUS
10
40.3153
20
24.342
11
40.3915
21
24.3039
0
LINE
8
BLACK
6
CONTINUOUS
10
40.3915
20
24.3039
11
40.62
21
24.3039
0
LINE
8
BLACK
6
CONTINUOUS
10
40.62
20
24.3039
11
40.6962
21
24.342
0
LINE
8
BLACK
6
CONTINUOUS
10
40.6962
20
24.342
11
40.7343
21
24.3801
0
LINE
8
BLACK
6
CONTINUOUS
10
136.483
20
188.855
11
136.483
21
188.061
0
LINE
8
BLACK
6
CONTINUOUS
10
136.483
20
188.061
11
136.437
21
187.968
0
LINE
8
BLACK
6
CONTINUOUS
10
136.437
20
187.968
11
136.39
21
187.921
0
LINE
8
BLACK
6
CONTINUOUS
10
136.39
20
187.921
11
136.297
21
187.875
0
LINE
8
BLACK
6
CONTINUOUS
10
136.297
20
187.875
11
136.11
21
187.875
0
LINE
8
BLACK
6
CONTINUOUS
10
136.11
20
187.875
11
136.017
21
187.921
0
LINE
8
BLACK
6
CONTINUOUS
10
136.017
20
187.921
11
135.97
21
187.968
0
LINE
8
BLACK
6
CONTINUOUS
10
135.97
20
187.968
11
135.923
21
188.061
0
LINE
8
BLACK
6
CONTINUOUS
10
135.923
20
188.061
11
135.923
21
188.855
0
LINE
8
BLACK
6
CONTINUOUS
10
135.55
20
188.855
11
134.943
21
188.855
0
LINE
8
BLACK
6
CONTINUOUS
10
134.943
20
188.855
11
135.27
21
188.481
0
LINE
8
BLACK
6
CONTINUOUS
10
135.27
20
188.481
11
135.13
21
188.481
0
LINE
8
BLACK
6
CONTINUOUS
10
135.13
20
188.481
11
135.037
21
188.435
0
LINE
8
BLACK
6
CONTINUOUS
10
135.037
20
188.435
11
134.99
21
188.388
0
LINE
8
BLACK
6
CONTINUOUS
10
134.99
20
188.388
11
134.943
21
188.295
0
LINE
8
BLACK
6
CONTINUOUS
10
134.943
20
188.295
11
134.943
21
188.061
0
LINE
8
BLACK
6
CONTINUOUS
10
134.943
20
188.061
11
134.99
21
187.968
0
LINE
8
BLACK
6
CONTINUOUS
10
134.99
20
187.968
11
135.037
21
187.921
0
LINE
8
BLACK
6
CONTINUOUS
10
135.037
20
187.921
11
135.13
21
187.875
0
LINE
8
BLACK
6
CONTINUOUS
10
135.13
20
187.875
11
135.41
21
187.875
0
LINE
8
BLACK
6
CONTINUOUS
10
135.41
20
187.875
11
135.503
21
187.921
0
LINE
8
BLACK
6
CONTINUOUS
10
135.503
20
187.921
11
135.55
21
187.968
0
LINE
8
BLACK
6
CONTINUOUS
10
274.514
20
27.0381
11
274.781
21
27.419
0
LINE
8
BLACK
6
CONTINUOUS
10
274.971
20
27.0381
11
274.971
21
27.8381
0
LINE
8
BLACK
6
CONTINUOUS
10
274.971
20
27.8381
11
274.667
21
27.8381
0
LINE
8
BLACK
6
CONTINUOUS
10
274.667
20
27.8381
11
274.59
21
27.8
0
LINE
8
BLACK
6
CONTINUOUS
10
274.59
20
27.8
11
274.552
21
27.7619
0
LINE
8
BLACK
6
CONTINUOUS
10
274.552
20
27.7619
11
274.514
21
27.6857
0
LINE
8
BLACK
6
CONTINUOUS
10
274.514
20
27.6857
11
274.514
21
27.5714
0
LINE
8
BLACK
6
CONTINUOUS
10
274.514
20
27.5714
11
274.552
21
27.4952
0
LINE
8
BLACK
6
CONTINUOUS
10
274.552
20
27.4952
11
274.59
21
27.4571
0
LINE
8
BLACK
6
CONTINUOUS
10
274.59
20
27.4571
11
274.667
21
27.419
0
LINE
8
BLACK
6
CONTINUOUS
10
274.667
20
27.419
11
274.971
21
27.419
0
LINE
8
BLACK
6
CONTINUOUS
10
273.752
20
27.0381
11
274.21
21
27.0381
0
LINE
8
BLACK
6
CONTINUOUS
10
273.981
20
27.0381
11
273.981
21
27.8381
0
LINE
8
BLACK
6
CONTINUOUS
10
273.981
20
27.8381
11
274.057
21
27.7238
0
LINE
8
BLACK
6
CONTINUOUS
10
274.057
20
27.7238
11
274.133
21
27.6476
0
LINE
8
BLACK
6
CONTINUOUS
10
274.133
20
27.6476
11
274.21
21
27.6095
0
LINE
8
BLACK
6
CONTINUOUS
10
273.067
20
27.8381
11
273.219
21
27.8381
0
LINE
8
BLACK
6
CONTINUOUS
10
273.219
20
27.8381
11
273.295
21
27.8
0
LINE
8
BLACK
6
CONTINUOUS
10
273.295
20
27.8
11
273.333
21
27.7619
0
LINE
8
BLACK
6
CONTINUOUS
10
273.333
20
27.7619
11
273.41
21
27.6476
0
LINE
8
BLACK
6
CONTINUOUS
10
273.41
20
27.6476
11
273.448
21
27.4952
0
LINE
8
BLACK
6
CONTINUOUS
10
273.448
20
27.4952
11
273.448
21
27.1905
0
LINE
8
BLACK
6
CONTINUOUS
10
273.448
20
27.1905
11
273.41
21
27.1143
0
LINE
8
BLACK
6
CONTINUOUS
10
273.41
20
27.1143
11
273.371
21
27.0762
0
LINE
8
BLACK
6
CONTINUOUS
10
273.371
20
27.0762
11
273.295
21
27.0381
0
LINE
8
BLACK
6
CONTINUOUS
10
273.295
20
27.0381
11
273.143
21
27.0381
0
LINE
8
BLACK
6
CONTINUOUS
10
273.143
20
27.0381
11
273.067
21
27.0762
0
LINE
8
BLACK
6
CONTINUOUS
10
273.067
20
27.0762
11
273.029
21
27.1143
0
LINE
8
BLACK
6
CONTINUOUS
10
273.029
20
27.1143
11
272.99
21
27.1905
0
LINE
8
BLACK
6
CONTINUOUS
10
272.99
20
27.1905
11
272.99
21
27.381
0
LINE
8
BLACK
6
CONTINUOUS
10
272.99
20
27.381
11
273.029
21
27.4571
0
LINE
8
BLACK
6
CONTINUOUS
10
273.029
20
27.4571
11
273.067
21
27.4952
0
LINE
8
BLACK
6
CONTINUOUS
10
273.067
20
27.4952
11
273.143
21
27.5333
0
LINE
8
BLACK
6
CONTINUOUS
10
273.143
20
27.5333
11
273.295
21
27.5333
0
LINE
8
BLACK
6
CONTINUOUS
10
273.295
20
27.5333
11
273.371
21
27.4952
0
LINE
8
BLACK
6
CONTINUOUS
10
273.371
20
27.4952
11
273.41
21
27.4571
0
LINE
8
BLACK
6
CONTINUOUS
10
273.41
20
27.4571
11
273.448
21
27.381
0
LINE
8
BLACK
6
CONTINUOUS
10
39.7
20
28.5
11
39.7
21
26.9
0
LINE
8
BLACK
6
CONTINUOUS
10
42.9
20
26.9
11
42.9
21
28.5
0
LINE
8
BLACK
6
CONTINUOUS
10
39.7
20
26.9
11
42.9
21
26.9
0
LINE
8
BLACK
6
CONTINUOUS
10
42.9
20
28.5
11
39.7
21
28.5
0
LINE
8
BLACK
6
CONTINUOUS
10
283.7
20
58.25
11
283.7
21
55.8
0
LINE
8
BLACK
6
CONTINUOUS
10
282.3
20
58.82
11
282.3
21
55.78
0
LINE
8
BLACK
6
CONTINUOUS
10
283.7
20
55.78
11
282.3
21
55.78
0
LINE
8
BLACK
6
CONTINUOUS
10
283.7
20
58.25
11
283.15
21
58.82
0
LINE
8
BLACK
6
CONTINUOUS
10
283.15
20
58.82
11
282.3
21
58.82
0
LINE
8
BLACK
6
CONTINUOUS
10
23.9
20
157.038
11
27.1
21
157.038
0
LINE
8
BLACK
6
CONTINUOUS
10
27.1
20
158.638
11
23.9
21
158.638
0
LINE
8
BLACK
6
CONTINUOUS
10
27.1
20
157.038
11
27.1
21
158.638
0
LINE
8
BLACK
6
CONTINUOUS
10
23.9
20
158.638
11
23.9
21
157.038
0
LINE
8
BLACK
6
CONTINUOUS
10
35.6
20
24.88
11
34.2
21
24.88
0
LINE
8
BLACK
6
CONTINUOUS
10
35.6
20
27.35
11
35.6
21
24.9
0
LINE
8
BLACK
6
CONTINUOUS
10
34.2
20
27.92
11
34.2
21
24.88
0
LINE
8
BLACK
6
CONTINUOUS
10
35.6
20
27.35
11
35.05
21
27.92
0
LINE
8
BLACK
6
CONTINUOUS
10
35.05
20
27.92
11
34.2
21
27.92
0
LINE
8
BLACK
6
CONTINUOUS
10
313.1
20
96.55
11
313.1
21
103.05
0
LINE
8
BLACK
6
CONTINUOUS
10
313.1
20
103.05
11
297.7
21
103.05
0
LINE
8
BLACK
6
CONTINUOUS
10
312.1
20
95.55
11
313.1
21
96.55
0
LINE
8
BLACK
6
CONTINUOUS
10
297.7
20
103.05
11
297.7
21
95.55
0
LINE
8
BLACK
6
CONTINUOUS
10
297.7
20
95.55
11
312.1
21
95.55
0
LINE
8
BLACK
6
CONTINUOUS
10
273.2
20
59
11
273.2
21
55.8
0
LINE
8
BLACK
6
CONTINUOUS
10
274.8
20
55.8
11
274.8
21
59
0
LINE
8
BLACK
6
CONTINUOUS
10
273.2
20
55.8
11
274.8
21
55.8
0
LINE
8
BLACK
6
CONTINUOUS
10
274.8
20
59
11
273.2
21
59
0
LINE
8
BLACK
6
CONTINUOUS
10
168.72
20
184.289
11
172.62
21
184.289
0
LINE
8
BLACK
6
CONTINUOUS
10
172.62
20
184.289
11
172.62
21
193.214
0
LINE
8
BLACK
6
CONTINUOUS
10
171.645
20
194.189
11
168.72
21
194.189
0
LINE
8
BLACK
6
CONTINUOUS
10
168.72
20
194.189
11
168.72
21
184.289
0
LINE
8
BLACK
6
CONTINUOUS
10
172.62
20
193.214
11
171.645
21
194.189
0
LINE
8
BLACK
6
CONTINUOUS
10
102.965
20
183.927
11
102.965
21
192.852
0
LINE
8
BLACK
6
CONTINUOUS
10
102.965
20
192.852
11
101.99
21
193.827
0
LINE
8
BLACK
6
CONTINUOUS
10
101.99
20
193.827
11
99.0648
21
193.827
0
LINE
8
BLACK
6
CONTINUOUS
10
99.0648
20
183.927
11
102.965
21
183.927
0
LINE
8
BLACK
6
CONTINUOUS
10
99.0648
20
193.827
11
99.0648
21
183.927
0
LINE
8
BLACK
6
CONTINUOUS
10
99.0648
20
161.127
11
99.0648
21
151.227
0
LINE
8
BLACK
6
CONTINUOUS
10
102.965
20
160.152
11
101.99
21
161.127
0
LINE
8
BLACK
6
CONTINUOUS
10
101.99
20
161.127
11
99.0648
21
161.127
0
LINE
8
BLACK
6
CONTINUOUS
10
102.965
20
151.227
11
102.965
21
160.152
0
LINE
8
BLACK
6
CONTINUOUS
10
99.0648
20
151.227
11
102.965
21
151.227
0
LINE
8
BLACK
6
CONTINUOUS
10
290.8
20
28.3
11
290.8
21
29.9
0
LINE
8
BLACK
6
CONTINUOUS
10
287.6
20
29.9
11
287.6
21
28.3
0
LINE
8
BLACK
6
CONTINUOUS
10
287.6
20
28.3
11
290.8
21
28.3
0
LINE
8
BLACK
6
CONTINUOUS
10
290.8
20
29.9
11
287.6
21
29.9
0
LINE
8
BLACK
6
CONTINUOUS
10
33.55
20
57.62
11
32.7
21
57.62
0
LINE
8
BLACK
6
CONTINUOUS
10
34.1
20
57.05
11
33.55
21
57.62
0
LINE
8
BLACK
6
CONTINUOUS
10
34.1
20
54.58
11
32.7
21
54.58
0
LINE
8
BLACK
6
CONTINUOUS
10
32.7
20
57.62
11
32.7
21
54.58
0
LINE
8
BLACK
6
CONTINUOUS
10
34.1
20
57.05
11
34.1
21
54.6
0
LINE
8
BLACK
6
CONTINUOUS
10
214.801
20
184.257
11
214.801
21
193.182
0
LINE
8
BLACK
6
CONTINUOUS
10
210.901
20
184.257
11
214.801
21
184.257
0
LINE
8
BLACK
6
CONTINUOUS
10
214.801
20
193.182
11
213.826
21
194.157
0
LINE
8
BLACK
6
CONTINUOUS
10
213.826
20
194.157
11
210.901
21
194.157
0
LINE
8
BLACK
6
CONTINUOUS
10
210.901
20
194.157
11
210.901
21
184.257
0
LINE
8
BLACK
6
CONTINUOUS
10
288.4
20
53.2
11
291.6
21
53.2
0
LINE
8
BLACK
6
CONTINUOUS
10
291.6
20
53.2
11
291.6
21
54.8
0
LINE
8
BLACK
6
CONTINUOUS
10
288.4
20
54.8
11
288.4
21
53.2
0
LINE
8
BLACK
6
CONTINUOUS
10
291.6
20
54.8
11
288.4
21
54.8
0
LINE
8
BLACK
6
CONTINUOUS
10
290.9
20
24.2
11
287.7
21
24.2
0
LINE
8
BLACK
6
CONTINUOUS
10
287.7
20
22.6
11
290.9
21
22.6
0
LINE
8
BLACK
6
CONTINUOUS
10
290.9
20
22.6
11
290.9
21
24.2
0
LINE
8
BLACK
6
CONTINUOUS
10
287.7
20
24.2
11
287.7
21
22.6
0
LINE
8
BLACK
6
CONTINUOUS
10
228.859
20
193.776
11
228.859
21
183.876
0
LINE
8
BLACK
6
CONTINUOUS
10
228.859
20
183.876
11
232.759
21
183.876
0
LINE
8
BLACK
6
CONTINUOUS
10
232.759
20
183.876
11
232.759
21
192.801
0
LINE
8
BLACK
6
CONTINUOUS
10
232.759
20
192.801
11
231.784
21
193.776
0
LINE
8
BLACK
6
CONTINUOUS
10
231.784
20
193.776
11
228.859
21
193.776
0
LINE
8
BLACK
6
CONTINUOUS
10
184.35
20
104.2
11
183.35
21
105.2
0
LINE
8
BLACK
6
CONTINUOUS
10
183.35
20
105.2
11
176.85
21
105.2
0
LINE
8
BLACK
6
CONTINUOUS
10
176.85
20
105.2
11
176.85
21
89.8
0
LINE
8
BLACK
6
CONTINUOUS
10
184.35
20
89.8
11
184.35
21
104.2
0
LINE
8
BLACK
6
CONTINUOUS
10
176.85
20
89.8
11
184.35
21
89.8
0
LINE
8
BLACK
6
CONTINUOUS
10
37.5
20
55.1
11
37.5
21
53.5
0
LINE
8
BLACK
6
CONTINUOUS
10
37.5
20
53.5
11
40.7
21
53.5
0
LINE
8
BLACK
6
CONTINUOUS
10
40.7
20
53.5
11
40.7
21
55.1
0
LINE
8
BLACK
6
CONTINUOUS
10
40.7
20
55.1
11
37.5
21
55.1
0
LINE
8
BLACK
6
CONTINUOUS
10
169.22
20
151.389
11
173.12
21
151.389
0
LINE
8
BLACK
6
CONTINUOUS
10
172.145
20
161.289
11
169.22
21
161.289
0
LINE
8
BLACK
6
CONTINUOUS
10
173.12
20
160.314
11
172.145
21
161.289
0
LINE
8
BLACK
6
CONTINUOUS
10
169.22
20
161.289
11
169.22
21
151.389
0
LINE
8
BLACK
6
CONTINUOUS
10
173.12
20
151.389
11
173.12
21
160.314
0
LINE
8
BLACK
6
CONTINUOUS
10
25.8
20
26.9
11
25.8
21
28.5
0
LINE
8
BLACK
6
CONTINUOUS
10
22.6
20
28.5
11
22.6
21
26.9
0
LINE
8
BLACK
6
CONTINUOUS
10
25.8
20
28.5
11
22.6
21
28.5
0
LINE
8
BLACK
6
CONTINUOUS
10
22.6
20
26.9
11
25.8
21
26.9
0
LINE
8
BLACK
6
CONTINUOUS
10
137.89
20
151.237
11
137.89
21
160.162
0
LINE
8
BLACK
6
CONTINUOUS
10
133.99
20
151.237
11
137.89
21
151.237
0
LINE
8
BLACK
6
CONTINUOUS
10
137.89
20
160.162
11
136.915
21
161.137
0
LINE
8
BLACK
6
CONTINUOUS
10
136.915
20
161.137
11
133.99
21
161.137
0
LINE
8
BLACK
6
CONTINUOUS
10
133.99
20
161.137
11
133.99
21
151.237
0
LINE
8
BLACK
6
CONTINUOUS
10
282.85
20
27.02
11
282
21
27.02
0
LINE
8
BLACK
6
CONTINUOUS
10
283.4
20
26.45
11
282.85
21
27.02
0
LINE
8
BLACK
6
CONTINUOUS
10
283.4
20
23.98
11
282
21
23.98
0
LINE
8
BLACK
6
CONTINUOUS
10
283.4
20
26.45
11
283.4
21
24
0
LINE
8
BLACK
6
CONTINUOUS
10
282
20
27.02
11
282
21
23.98
0
LINE
8
BLACK
6
CONTINUOUS
10
184.65
20
228
11
178.15
21
228
0
LINE
8
BLACK
6
CONTINUOUS
10
185.65
20
227
11
184.65
21
228
0
LINE
8
BLACK
6
CONTINUOUS
10
178.15
20
228
11
178.15
21
212.6
0
LINE
8
BLACK
6
CONTINUOUS
10
178.15
20
212.6
11
185.65
21
212.6
0
LINE
8
BLACK
6
CONTINUOUS
10
185.65
20
212.6
11
185.65
21
227
0
LINE
8
BLACK
6
CONTINUOUS
10
37.6
20
58.7
11
37.6
21
57.1
0
LINE
8
BLACK
6
CONTINUOUS
10
40.8
20
58.7
11
37.6
21
58.7
0
LINE
8
BLACK
6
CONTINUOUS
10
40.8
20
57.1
11
40.8
21
58.7
0
LINE
8
BLACK
6
CONTINUOUS
10
37.6
20
57.1
11
40.8
21
57.1
0
LINE
8
BLACK
6
CONTINUOUS
10
288.3
20
58.5
11
291.5
21
58.5
0
LINE
8
BLACK
6
CONTINUOUS
10
291.5
20
60.1
11
288.3
21
60.1
0
LINE
8
BLACK
6
CONTINUOUS
10
291.5
20
58.5
11
291.5
21
60.1
0
LINE
8
BLACK
6
CONTINUOUS
10
288.3
20
60.1
11
288.3
21
58.5
0
LINE
8
BLACK
6
CONTINUOUS
10
228.046
20
151.339
11
231.946
21
151.339
0
LINE
8
BLACK
6
CONTINUOUS
10
231.946
20
151.339
11
231.946
21
160.264
0
LINE
8
BLACK
6
CONTINUOUS
10
228.046
20
161.239
11
228.046
21
151.339
0
LINE
8
BLACK
6
CONTINUOUS
10
231.946
20
160.264
11
230.971
21
161.239
0
LINE
8
BLACK
6
CONTINUOUS
10
230.971
20
161.239
11
228.046
21
161.239
0
LINE
8
BLACK
6
CONTINUOUS
10
215.076
20
160.417
11
214.101
21
161.392
0
LINE
8
BLACK
6
CONTINUOUS
10
211.176
20
151.492
11
215.076
21
151.492
0
LINE
8
BLACK
6
CONTINUOUS
10
215.076
20
151.492
11
215.076
21
160.417
0
LINE
8
BLACK
6
CONTINUOUS
10
214.101
20
161.392
11
211.176
21
161.392
0
LINE
8
BLACK
6
CONTINUOUS
10
211.176
20
161.392
11
211.176
21
151.492
0
LINE
8
BLACK
6
CONTINUOUS
10
47.1
20
94.35
11
61.5
21
94.35
0
LINE
8
BLACK
6
CONTINUOUS
10
61.5
20
94.35
11
62.5
21
95.35
0
LINE
8
BLACK
6
CONTINUOUS
10
47.1
20
101.85
11
47.1
21
94.35
0
LINE
8
BLACK
6
CONTINUOUS
10
62.5
20
101.85
11
47.1
21
101.85
0
LINE
8
BLACK
6
CONTINUOUS
10
62.5
20
95.35
11
62.5
21
101.85
0
LINE
8
BLACK
6
CONTINUOUS
10
22.2
20
56.8
11
25.4
21
56.8
0
LINE
8
BLACK
6
CONTINUOUS
10
22.2
20
58.4
11
22.2
21
56.8
0
LINE
8
BLACK
6
CONTINUOUS
10
25.4
20
56.8
11
25.4
21
58.4
0
LINE
8
BLACK
6
CONTINUOUS
10
25.4
20
58.4
11
22.2
21
58.4
0
LINE
8
BLACK
6
CONTINUOUS
10
42.8486
20
25.4658
11
39.6486
21
25.4658
0
LINE
8
BLACK
6
CONTINUOUS
10
39.6486
20
23.8658
11
42.8486
21
23.8658
0
LINE
8
BLACK
6
CONTINUOUS
10
39.6486
20
25.4658
11
39.6486
21
23.8658
0
LINE
8
BLACK
6
CONTINUOUS
10
42.8486
20
23.8658
11
42.8486
21
25.4658
0
LINE
8
BLACK
6
CONTINUOUS
10
137.687
20
183.368
11
137.687
21
192.293
0
LINE
8
BLACK
6
CONTINUOUS
10
133.787
20
193.268
11
133.787
21
183.368
0
LINE
8
BLACK
6
CONTINUOUS
10
137.687
20
192.293
11
136.712
21
193.268
0
LINE
8
BLACK
6
CONTINUOUS
10
133.787
20
183.368
11
137.687
21
183.368
0
LINE
8
BLACK
6
CONTINUOUS
10
136.712
20
193.268
11
133.787
21
193.268
0
LINE
8
BLACK
6
CONTINUOUS
10
275.6
20
26.6
11
275.6
21
28.2
0
LINE
8
BLACK
6
CONTINUOUS
10
272.4
20
28.2
11
272.4
21
26.6
0
LINE
8
BLACK
6
CONTINUOUS
10
275.6
20
28.2
11
272.4
21
28.2
0
LINE
8
BLACK
6
CONTINUOUS
10
272.4
20
26.6
11
275.6
21
26.6
  0
ENDSEC
  0
EOF
