  0
SECTION
  2
HEADER
  9
$ANGBASE
  50
0.0
  9
$ANGDIR
  70
1
  9
$MEASUREMENT
  70
1
  0
ENDSEC
  0
SECTION
  2
TABLES
  0
TABLE
  2
LTYPE
  70
4
  0
LTYPE
  5
40F
  2
CONTINUOUS
  70
0
  3
Solid line
  72
65
  73
0
  40
0.0
  0
LTYPE
  5
410
  2
DASHDOT
 70
0
  3
Dash Dot ____ _ ____ _
 72
65
 73
4
 40
2.0
 49
1.25
 49
-0.25
 49
0.25
 49
-0.25
  0
LTYPE
  5
411
  2
DASHED
 70
0
  3
Dashed __ __ __ __ __
 72
65
 73
2
 40
0.75
 49
0.5
 49
-0.25
  0
LTYPE
  5
43B
  2
DOTTED
 70
0
  3
Dotted .  .  .  .
 72
65
 73
2
 40
0.2
 49
0.0
 49
-0.2
  0
ENDTAB
  0
TABLE
  2
STYLE
  70
4
  0
STYLE
  2
KICAD
  70
0
  40
0
  41
1
  42
1
  50
0
  71
0
  3
isocp.shx
  0
STYLE
  2
KICADB
  70
0
  40
0
  41
1
  42
1
  50
0
  71
0
  3
isocp.shx
  0
STYLE
  2
KICADI
  70
0
  40
0
  41
1
  42
1
  50
15
  71
0
  3
isocp.shx
  0
STYLE
  2
KICADBI
  70
0
  40
0
  41
1
  42
1
  50
15
  71
0
  3
isocp.shx
  0
ENDTAB
  0
TABLE
  2
LAYER
  70
1
  0
LAYER
  2
BLACK
  70
0
  62
7
  6
CONTINUOUS
  0
ENDTAB
  0
ENDSEC
  0
SECTION
  2
ENTITIES
0
LINE
8
BLACK
6
CONTINUOUS
10
392.138
20
-293.022
11
392.219
21
-293.076
0
LINE
8
BLACK
6
CONTINUOUS
10
392.219
20
-293.076
11
392.273
21
-293.157
0
LINE
8
BLACK
6
CONTINUOUS
10
392.273
20
-293.157
11
392.292
21
-293.253
0
LINE
8
BLACK
6
CONTINUOUS
10
392.292
20
-293.253
11
392.292
21
-294.503
0
LINE
8
BLACK
6
CONTINUOUS
10
392.292
20
-294.503
11
392.273
21
-294.599
0
LINE
8
BLACK
6
CONTINUOUS
10
392.273
20
-294.599
11
392.219
21
-294.68
0
LINE
8
BLACK
6
CONTINUOUS
10
392.219
20
-294.68
11
392.138
21
-294.734
0
LINE
8
BLACK
6
CONTINUOUS
10
392.138
20
-294.734
11
392.042
21
-294.753
0
LINE
8
BLACK
6
CONTINUOUS
10
392.042
20
-294.753
11
391.242
21
-294.753
0
LINE
8
BLACK
6
CONTINUOUS
10
391.242
20
-294.753
11
391.146
21
-294.734
0
LINE
8
BLACK
6
CONTINUOUS
10
391.146
20
-294.734
11
391.065
21
-294.68
0
LINE
8
BLACK
6
CONTINUOUS
10
391.065
20
-294.68
11
391.011
21
-294.599
0
LINE
8
BLACK
6
CONTINUOUS
10
391.011
20
-294.599
11
390.992
21
-294.503
0
LINE
8
BLACK
6
CONTINUOUS
10
390.992
20
-294.503
11
390.992
21
-293.253
0
LINE
8
BLACK
6
CONTINUOUS
10
390.992
20
-293.253
11
391.011
21
-293.157
0
LINE
8
BLACK
6
CONTINUOUS
10
391.011
20
-293.157
11
391.065
21
-293.076
0
LINE
8
BLACK
6
CONTINUOUS
10
391.065
20
-293.076
11
391.146
21
-293.022
0
LINE
8
BLACK
6
CONTINUOUS
10
391.146
20
-293.022
11
391.242
21
-293.003
0
LINE
8
BLACK
6
CONTINUOUS
10
391.242
20
-293.003
11
392.042
21
-293.003
0
LINE
8
BLACK
6
CONTINUOUS
10
392.042
20
-293.003
11
392.138
21
-293.022
0
LINE
8
BLACK
6
CONTINUOUS
10
395.238
20
-293.022
11
395.319
21
-293.076
0
LINE
8
BLACK
6
CONTINUOUS
10
395.319
20
-293.076
11
395.373
21
-293.157
0
LINE
8
BLACK
6
CONTINUOUS
10
395.373
20
-293.157
11
395.392
21
-293.253
0
LINE
8
BLACK
6
CONTINUOUS
10
395.392
20
-293.253
11
395.392
21
-294.503
0
LINE
8
BLACK
6
CONTINUOUS
10
395.392
20
-294.503
11
395.373
21
-294.599
0
LINE
8
BLACK
6
CONTINUOUS
10
395.373
20
-294.599
11
395.319
21
-294.68
0
LINE
8
BLACK
6
CONTINUOUS
10
395.319
20
-294.68
11
395.238
21
-294.734
0
LINE
8
BLACK
6
CONTINUOUS
10
395.238
20
-294.734
11
395.142
21
-294.753
0
LINE
8
BLACK
6
CONTINUOUS
10
395.142
20
-294.753
11
394.342
21
-294.753
0
LINE
8
BLACK
6
CONTINUOUS
10
394.342
20
-294.753
11
394.246
21
-294.734
0
LINE
8
BLACK
6
CONTINUOUS
10
394.246
20
-294.734
11
394.165
21
-294.68
0
LINE
8
BLACK
6
CONTINUOUS
10
394.165
20
-294.68
11
394.111
21
-294.599
0
LINE
8
BLACK
6
CONTINUOUS
10
394.111
20
-294.599
11
394.092
21
-294.503
0
LINE
8
BLACK
6
CONTINUOUS
10
394.092
20
-294.503
11
394.092
21
-293.253
0
LINE
8
BLACK
6
CONTINUOUS
10
394.092
20
-293.253
11
394.111
21
-293.157
0
LINE
8
BLACK
6
CONTINUOUS
10
394.111
20
-293.157
11
394.165
21
-293.076
0
LINE
8
BLACK
6
CONTINUOUS
10
394.165
20
-293.076
11
394.246
21
-293.022
0
LINE
8
BLACK
6
CONTINUOUS
10
394.246
20
-293.022
11
394.342
21
-293.003
0
LINE
8
BLACK
6
CONTINUOUS
10
394.342
20
-293.003
11
395.142
21
-293.003
0
LINE
8
BLACK
6
CONTINUOUS
10
395.142
20
-293.003
11
395.238
21
-293.022
0
LINE
8
BLACK
6
CONTINUOUS
10
142.202
20
-292.006
11
142.283
21
-292.06
0
LINE
8
BLACK
6
CONTINUOUS
10
142.283
20
-292.06
11
142.337
21
-292.141
0
LINE
8
BLACK
6
CONTINUOUS
10
142.337
20
-292.141
11
142.356
21
-292.237
0
LINE
8
BLACK
6
CONTINUOUS
10
142.356
20
-292.237
11
142.356
21
-293.487
0
LINE
8
BLACK
6
CONTINUOUS
10
142.356
20
-293.487
11
142.337
21
-293.583
0
LINE
8
BLACK
6
CONTINUOUS
10
142.337
20
-293.583
11
142.283
21
-293.664
0
LINE
8
BLACK
6
CONTINUOUS
10
142.283
20
-293.664
11
142.202
21
-293.718
0
LINE
8
BLACK
6
CONTINUOUS
10
142.202
20
-293.718
11
142.106
21
-293.737
0
LINE
8
BLACK
6
CONTINUOUS
10
142.106
20
-293.737
11
141.306
21
-293.737
0
LINE
8
BLACK
6
CONTINUOUS
10
141.306
20
-293.737
11
141.21
21
-293.718
0
LINE
8
BLACK
6
CONTINUOUS
10
141.21
20
-293.718
11
141.129
21
-293.664
0
LINE
8
BLACK
6
CONTINUOUS
10
141.129
20
-293.664
11
141.075
21
-293.583
0
LINE
8
BLACK
6
CONTINUOUS
10
141.075
20
-293.583
11
141.056
21
-293.487
0
LINE
8
BLACK
6
CONTINUOUS
10
141.056
20
-293.487
11
141.056
21
-292.237
0
LINE
8
BLACK
6
CONTINUOUS
10
141.056
20
-292.237
11
141.075
21
-292.141
0
LINE
8
BLACK
6
CONTINUOUS
10
141.075
20
-292.141
11
141.129
21
-292.06
0
LINE
8
BLACK
6
CONTINUOUS
10
141.129
20
-292.06
11
141.21
21
-292.006
0
LINE
8
BLACK
6
CONTINUOUS
10
141.21
20
-292.006
11
141.306
21
-291.987
0
LINE
8
BLACK
6
CONTINUOUS
10
141.306
20
-291.987
11
142.106
21
-291.987
0
LINE
8
BLACK
6
CONTINUOUS
10
142.106
20
-291.987
11
142.202
21
-292.006
0
LINE
8
BLACK
6
CONTINUOUS
10
145.302
20
-292.006
11
145.383
21
-292.06
0
LINE
8
BLACK
6
CONTINUOUS
10
145.383
20
-292.06
11
145.437
21
-292.141
0
LINE
8
BLACK
6
CONTINUOUS
10
145.437
20
-292.141
11
145.456
21
-292.237
0
LINE
8
BLACK
6
CONTINUOUS
10
145.456
20
-292.237
11
145.456
21
-293.487
0
LINE
8
BLACK
6
CONTINUOUS
10
145.456
20
-293.487
11
145.437
21
-293.583
0
LINE
8
BLACK
6
CONTINUOUS
10
145.437
20
-293.583
11
145.383
21
-293.664
0
LINE
8
BLACK
6
CONTINUOUS
10
145.383
20
-293.664
11
145.302
21
-293.718
0
LINE
8
BLACK
6
CONTINUOUS
10
145.302
20
-293.718
11
145.206
21
-293.737
0
LINE
8
BLACK
6
CONTINUOUS
10
145.206
20
-293.737
11
144.406
21
-293.737
0
LINE
8
BLACK
6
CONTINUOUS
10
144.406
20
-293.737
11
144.31
21
-293.718
0
LINE
8
BLACK
6
CONTINUOUS
10
144.31
20
-293.718
11
144.229
21
-293.664
0
LINE
8
BLACK
6
CONTINUOUS
10
144.229
20
-293.664
11
144.175
21
-293.583
0
LINE
8
BLACK
6
CONTINUOUS
10
144.175
20
-293.583
11
144.156
21
-293.487
0
LINE
8
BLACK
6
CONTINUOUS
10
144.156
20
-293.487
11
144.156
21
-292.237
0
LINE
8
BLACK
6
CONTINUOUS
10
144.156
20
-292.237
11
144.175
21
-292.141
0
LINE
8
BLACK
6
CONTINUOUS
10
144.175
20
-292.141
11
144.229
21
-292.06
0
LINE
8
BLACK
6
CONTINUOUS
10
144.229
20
-292.06
11
144.31
21
-292.006
0
LINE
8
BLACK
6
CONTINUOUS
10
144.31
20
-292.006
11
144.406
21
-291.987
0
LINE
8
BLACK
6
CONTINUOUS
10
144.406
20
-291.987
11
145.206
21
-291.987
0
LINE
8
BLACK
6
CONTINUOUS
10
145.206
20
-291.987
11
145.302
21
-292.006
0
LINE
8
BLACK
6
CONTINUOUS
10
444.211
20
-272.909
11
444.292
21
-272.963
0
LINE
8
BLACK
6
CONTINUOUS
10
444.292
20
-272.963
11
444.346
21
-273.044
0
LINE
8
BLACK
6
CONTINUOUS
10
444.346
20
-273.044
11
444.365
21
-273.14
0
LINE
8
BLACK
6
CONTINUOUS
10
444.365
20
-273.14
11
444.365
21
-273.94
0
LINE
8
BLACK
6
CONTINUOUS
10
444.365
20
-273.94
11
444.346
21
-274.036
0
LINE
8
BLACK
6
CONTINUOUS
10
444.346
20
-274.036
11
444.292
21
-274.117
0
LINE
8
BLACK
6
CONTINUOUS
10
444.292
20
-274.117
11
444.211
21
-274.171
0
LINE
8
BLACK
6
CONTINUOUS
10
444.211
20
-274.171
11
444.115
21
-274.19
0
LINE
8
BLACK
6
CONTINUOUS
10
444.115
20
-274.19
11
442.865
21
-274.19
0
LINE
8
BLACK
6
CONTINUOUS
10
442.865
20
-274.19
11
442.769
21
-274.171
0
LINE
8
BLACK
6
CONTINUOUS
10
442.769
20
-274.171
11
442.688
21
-274.117
0
LINE
8
BLACK
6
CONTINUOUS
10
442.688
20
-274.117
11
442.634
21
-274.036
0
LINE
8
BLACK
6
CONTINUOUS
10
442.634
20
-274.036
11
442.615
21
-273.94
0
LINE
8
BLACK
6
CONTINUOUS
10
442.615
20
-273.94
11
442.615
21
-273.14
0
LINE
8
BLACK
6
CONTINUOUS
10
442.615
20
-273.14
11
442.634
21
-273.044
0
LINE
8
BLACK
6
CONTINUOUS
10
442.634
20
-273.044
11
442.688
21
-272.963
0
LINE
8
BLACK
6
CONTINUOUS
10
442.688
20
-272.963
11
442.769
21
-272.909
0
LINE
8
BLACK
6
CONTINUOUS
10
442.769
20
-272.909
11
442.865
21
-272.89
0
LINE
8
BLACK
6
CONTINUOUS
10
442.865
20
-272.89
11
444.115
21
-272.89
0
LINE
8
BLACK
6
CONTINUOUS
10
444.115
20
-272.89
11
444.211
21
-272.909
0
LINE
8
BLACK
6
CONTINUOUS
10
194.376
20
-272.625
11
194.457
21
-272.679
0
LINE
8
BLACK
6
CONTINUOUS
10
194.457
20
-272.679
11
194.511
21
-272.76
0
LINE
8
BLACK
6
CONTINUOUS
10
194.511
20
-272.76
11
194.53
21
-272.856
0
LINE
8
BLACK
6
CONTINUOUS
10
194.53
20
-272.856
11
194.53
21
-273.656
0
LINE
8
BLACK
6
CONTINUOUS
10
194.53
20
-273.656
11
194.511
21
-273.752
0
LINE
8
BLACK
6
CONTINUOUS
10
194.511
20
-273.752
11
194.457
21
-273.833
0
LINE
8
BLACK
6
CONTINUOUS
10
194.457
20
-273.833
11
194.376
21
-273.887
0
LINE
8
BLACK
6
CONTINUOUS
10
194.376
20
-273.887
11
194.28
21
-273.906
0
LINE
8
BLACK
6
CONTINUOUS
10
194.28
20
-273.906
11
193.03
21
-273.906
0
LINE
8
BLACK
6
CONTINUOUS
10
193.03
20
-273.906
11
192.935
21
-273.887
0
LINE
8
BLACK
6
CONTINUOUS
10
192.935
20
-273.887
11
192.854
21
-273.833
0
LINE
8
BLACK
6
CONTINUOUS
10
192.854
20
-273.833
11
192.799
21
-273.752
0
LINE
8
BLACK
6
CONTINUOUS
10
192.799
20
-273.752
11
192.78
21
-273.656
0
LINE
8
BLACK
6
CONTINUOUS
10
192.78
20
-273.656
11
192.78
21
-272.856
0
LINE
8
BLACK
6
CONTINUOUS
10
192.78
20
-272.856
11
192.799
21
-272.76
0
LINE
8
BLACK
6
CONTINUOUS
10
192.799
20
-272.76
11
192.854
21
-272.679
0
LINE
8
BLACK
6
CONTINUOUS
10
192.854
20
-272.679
11
192.935
21
-272.625
0
LINE
8
BLACK
6
CONTINUOUS
10
192.935
20
-272.625
11
193.03
21
-272.606
0
LINE
8
BLACK
6
CONTINUOUS
10
193.03
20
-272.606
11
194.28
21
-272.606
0
LINE
8
BLACK
6
CONTINUOUS
10
194.28
20
-272.606
11
194.376
21
-272.625
0
LINE
8
BLACK
6
CONTINUOUS
10
444.211
20
-269.809
11
444.292
21
-269.863
0
LINE
8
BLACK
6
CONTINUOUS
10
444.292
20
-269.863
11
444.346
21
-269.944
0
LINE
8
BLACK
6
CONTINUOUS
10
444.346
20
-269.944
11
444.365
21
-270.04
0
LINE
8
BLACK
6
CONTINUOUS
10
444.365
20
-270.04
11
444.365
21
-270.84
0
LINE
8
BLACK
6
CONTINUOUS
10
444.365
20
-270.84
11
444.346
21
-270.936
0
LINE
8
BLACK
6
CONTINUOUS
10
444.346
20
-270.936
11
444.292
21
-271.017
0
LINE
8
BLACK
6
CONTINUOUS
10
444.292
20
-271.017
11
444.211
21
-271.071
0
LINE
8
BLACK
6
CONTINUOUS
10
444.211
20
-271.071
11
444.115
21
-271.09
0
LINE
8
BLACK
6
CONTINUOUS
10
444.115
20
-271.09
11
442.865
21
-271.09
0
LINE
8
BLACK
6
CONTINUOUS
10
442.865
20
-271.09
11
442.769
21
-271.071
0
LINE
8
BLACK
6
CONTINUOUS
10
442.769
20
-271.071
11
442.688
21
-271.017
0
LINE
8
BLACK
6
CONTINUOUS
10
442.688
20
-271.017
11
442.634
21
-270.936
0
LINE
8
BLACK
6
CONTINUOUS
10
442.634
20
-270.936
11
442.615
21
-270.84
0
LINE
8
BLACK
6
CONTINUOUS
10
442.615
20
-270.84
11
442.615
21
-270.04
0
LINE
8
BLACK
6
CONTINUOUS
10
442.615
20
-270.04
11
442.634
21
-269.944
0
LINE
8
BLACK
6
CONTINUOUS
10
442.634
20
-269.944
11
442.688
21
-269.863
0
LINE
8
BLACK
6
CONTINUOUS
10
442.688
20
-269.863
11
442.769
21
-269.809
0
LINE
8
BLACK
6
CONTINUOUS
10
442.769
20
-269.809
11
442.865
21
-269.79
0
LINE
8
BLACK
6
CONTINUOUS
10
442.865
20
-269.79
11
444.115
21
-269.79
0
LINE
8
BLACK
6
CONTINUOUS
10
444.115
20
-269.79
11
444.211
21
-269.809
0
LINE
8
BLACK
6
CONTINUOUS
10
194.376
20
-269.525
11
194.457
21
-269.579
0
LINE
8
BLACK
6
CONTINUOUS
10
194.457
20
-269.579
11
194.511
21
-269.66
0
LINE
8
BLACK
6
CONTINUOUS
10
194.511
20
-269.66
11
194.53
21
-269.756
0
LINE
8
BLACK
6
CONTINUOUS
10
194.53
20
-269.756
11
194.53
21
-270.556
0
LINE
8
BLACK
6
CONTINUOUS
10
194.53
20
-270.556
11
194.511
21
-270.652
0
LINE
8
BLACK
6
CONTINUOUS
10
194.511
20
-270.652
11
194.457
21
-270.733
0
LINE
8
BLACK
6
CONTINUOUS
10
194.457
20
-270.733
11
194.376
21
-270.787
0
LINE
8
BLACK
6
CONTINUOUS
10
194.376
20
-270.787
11
194.28
21
-270.806
0
LINE
8
BLACK
6
CONTINUOUS
10
194.28
20
-270.806
11
193.03
21
-270.806
0
LINE
8
BLACK
6
CONTINUOUS
10
193.03
20
-270.806
11
192.935
21
-270.787
0
LINE
8
BLACK
6
CONTINUOUS
10
192.935
20
-270.787
11
192.854
21
-270.733
0
LINE
8
BLACK
6
CONTINUOUS
10
192.854
20
-270.733
11
192.799
21
-270.652
0
LINE
8
BLACK
6
CONTINUOUS
10
192.799
20
-270.652
11
192.78
21
-270.556
0
LINE
8
BLACK
6
CONTINUOUS
10
192.78
20
-270.556
11
192.78
21
-269.756
0
LINE
8
BLACK
6
CONTINUOUS
10
192.78
20
-269.756
11
192.799
21
-269.66
0
LINE
8
BLACK
6
CONTINUOUS
10
192.799
20
-269.66
11
192.854
21
-269.579
0
LINE
8
BLACK
6
CONTINUOUS
10
192.854
20
-269.579
11
192.935
21
-269.525
0
LINE
8
BLACK
6
CONTINUOUS
10
192.935
20
-269.525
11
193.03
21
-269.506
0
LINE
8
BLACK
6
CONTINUOUS
10
193.03
20
-269.506
11
194.28
21
-269.506
0
LINE
8
BLACK
6
CONTINUOUS
10
194.28
20
-269.506
11
194.376
21
-269.525
0
LINE
8
BLACK
6
CONTINUOUS
10
392.027
20
-262.918
11
392.108
21
-262.972
0
LINE
8
BLACK
6
CONTINUOUS
10
392.108
20
-262.972
11
392.162
21
-263.053
0
LINE
8
BLACK
6
CONTINUOUS
10
392.162
20
-263.053
11
392.181
21
-263.149
0
LINE
8
BLACK
6
CONTINUOUS
10
392.181
20
-263.149
11
392.181
21
-264.399
0
LINE
8
BLACK
6
CONTINUOUS
10
392.181
20
-264.399
11
392.162
21
-264.495
0
LINE
8
BLACK
6
CONTINUOUS
10
392.162
20
-264.495
11
392.108
21
-264.576
0
LINE
8
BLACK
6
CONTINUOUS
10
392.108
20
-264.576
11
392.027
21
-264.63
0
LINE
8
BLACK
6
CONTINUOUS
10
392.027
20
-264.63
11
391.931
21
-264.649
0
LINE
8
BLACK
6
CONTINUOUS
10
391.931
20
-264.649
11
391.131
21
-264.649
0
LINE
8
BLACK
6
CONTINUOUS
10
391.131
20
-264.649
11
391.035
21
-264.63
0
LINE
8
BLACK
6
CONTINUOUS
10
391.035
20
-264.63
11
390.954
21
-264.576
0
LINE
8
BLACK
6
CONTINUOUS
10
390.954
20
-264.576
11
390.9
21
-264.495
0
LINE
8
BLACK
6
CONTINUOUS
10
390.9
20
-264.495
11
390.881
21
-264.399
0
LINE
8
BLACK
6
CONTINUOUS
10
390.881
20
-264.399
11
390.881
21
-263.149
0
LINE
8
BLACK
6
CONTINUOUS
10
390.881
20
-263.149
11
390.9
21
-263.053
0
LINE
8
BLACK
6
CONTINUOUS
10
390.9
20
-263.053
11
390.954
21
-262.972
0
LINE
8
BLACK
6
CONTINUOUS
10
390.954
20
-262.972
11
391.035
21
-262.918
0
LINE
8
BLACK
6
CONTINUOUS
10
391.035
20
-262.918
11
391.131
21
-262.899
0
LINE
8
BLACK
6
CONTINUOUS
10
391.131
20
-262.899
11
391.931
21
-262.899
0
LINE
8
BLACK
6
CONTINUOUS
10
391.931
20
-262.899
11
392.027
21
-262.918
0
LINE
8
BLACK
6
CONTINUOUS
10
395.127
20
-262.918
11
395.208
21
-262.972
0
LINE
8
BLACK
6
CONTINUOUS
10
395.208
20
-262.972
11
395.262
21
-263.053
0
LINE
8
BLACK
6
CONTINUOUS
10
395.262
20
-263.053
11
395.281
21
-263.149
0
LINE
8
BLACK
6
CONTINUOUS
10
395.281
20
-263.149
11
395.281
21
-264.399
0
LINE
8
BLACK
6
CONTINUOUS
10
395.281
20
-264.399
11
395.262
21
-264.495
0
LINE
8
BLACK
6
CONTINUOUS
10
395.262
20
-264.495
11
395.208
21
-264.576
0
LINE
8
BLACK
6
CONTINUOUS
10
395.208
20
-264.576
11
395.127
21
-264.63
0
LINE
8
BLACK
6
CONTINUOUS
10
395.127
20
-264.63
11
395.031
21
-264.649
0
LINE
8
BLACK
6
CONTINUOUS
10
395.031
20
-264.649
11
394.231
21
-264.649
0
LINE
8
BLACK
6
CONTINUOUS
10
394.231
20
-264.649
11
394.135
21
-264.63
0
LINE
8
BLACK
6
CONTINUOUS
10
394.135
20
-264.63
11
394.054
21
-264.576
0
LINE
8
BLACK
6
CONTINUOUS
10
394.054
20
-264.576
11
394
21
-264.495
0
LINE
8
BLACK
6
CONTINUOUS
10
394
20
-264.495
11
393.981
21
-264.399
0
LINE
8
BLACK
6
CONTINUOUS
10
393.981
20
-264.399
11
393.981
21
-263.149
0
LINE
8
BLACK
6
CONTINUOUS
10
393.981
20
-263.149
11
394
21
-263.053
0
LINE
8
BLACK
6
CONTINUOUS
10
394
20
-263.053
11
394.054
21
-262.972
0
LINE
8
BLACK
6
CONTINUOUS
10
394.054
20
-262.972
11
394.135
21
-262.918
0
LINE
8
BLACK
6
CONTINUOUS
10
394.135
20
-262.918
11
394.231
21
-262.899
0
LINE
8
BLACK
6
CONTINUOUS
10
394.231
20
-262.899
11
395.031
21
-262.899
0
LINE
8
BLACK
6
CONTINUOUS
10
395.031
20
-262.899
11
395.127
21
-262.918
0
LINE
8
BLACK
6
CONTINUOUS
10
145.556
20
-262.288
11
145.637
21
-262.342
0
LINE
8
BLACK
6
CONTINUOUS
10
145.637
20
-262.342
11
145.691
21
-262.423
0
LINE
8
BLACK
6
CONTINUOUS
10
145.691
20
-262.423
11
145.71
21
-262.519
0
LINE
8
BLACK
6
CONTINUOUS
10
145.71
20
-262.519
11
145.71
21
-263.769
0
LINE
8
BLACK
6
CONTINUOUS
10
145.71
20
-263.769
11
145.691
21
-263.865
0
LINE
8
BLACK
6
CONTINUOUS
10
145.691
20
-263.865
11
145.637
21
-263.946
0
LINE
8
BLACK
6
CONTINUOUS
10
145.637
20
-263.946
11
145.556
21
-264
0
LINE
8
BLACK
6
CONTINUOUS
10
145.556
20
-264
11
145.46
21
-264.019
0
LINE
8
BLACK
6
CONTINUOUS
10
145.46
20
-264.019
11
144.66
21
-264.019
0
LINE
8
BLACK
6
CONTINUOUS
10
144.66
20
-264.019
11
144.564
21
-264
0
LINE
8
BLACK
6
CONTINUOUS
10
144.564
20
-264
11
144.483
21
-263.946
0
LINE
8
BLACK
6
CONTINUOUS
10
144.483
20
-263.946
11
144.429
21
-263.865
0
LINE
8
BLACK
6
CONTINUOUS
10
144.429
20
-263.865
11
144.41
21
-263.769
0
LINE
8
BLACK
6
CONTINUOUS
10
144.41
20
-263.769
11
144.41
21
-262.519
0
LINE
8
BLACK
6
CONTINUOUS
10
144.41
20
-262.519
11
144.429
21
-262.423
0
LINE
8
BLACK
6
CONTINUOUS
10
144.429
20
-262.423
11
144.483
21
-262.342
0
LINE
8
BLACK
6
CONTINUOUS
10
144.483
20
-262.342
11
144.564
21
-262.288
0
LINE
8
BLACK
6
CONTINUOUS
10
144.564
20
-262.288
11
144.66
21
-262.269
0
LINE
8
BLACK
6
CONTINUOUS
10
144.66
20
-262.269
11
145.46
21
-262.269
0
LINE
8
BLACK
6
CONTINUOUS
10
145.46
20
-262.269
11
145.556
21
-262.288
0
LINE
8
BLACK
6
CONTINUOUS
10
142.456
20
-262.288
11
142.537
21
-262.342
0
LINE
8
BLACK
6
CONTINUOUS
10
142.537
20
-262.342
11
142.591
21
-262.423
0
LINE
8
BLACK
6
CONTINUOUS
10
142.591
20
-262.423
11
142.61
21
-262.519
0
LINE
8
BLACK
6
CONTINUOUS
10
142.61
20
-262.519
11
142.61
21
-263.769
0
LINE
8
BLACK
6
CONTINUOUS
10
142.61
20
-263.769
11
142.591
21
-263.865
0
LINE
8
BLACK
6
CONTINUOUS
10
142.591
20
-263.865
11
142.537
21
-263.946
0
LINE
8
BLACK
6
CONTINUOUS
10
142.537
20
-263.946
11
142.456
21
-264
0
LINE
8
BLACK
6
CONTINUOUS
10
142.456
20
-264
11
142.36
21
-264.019
0
LINE
8
BLACK
6
CONTINUOUS
10
142.36
20
-264.019
11
141.56
21
-264.019
0
LINE
8
BLACK
6
CONTINUOUS
10
141.56
20
-264.019
11
141.464
21
-264
0
LINE
8
BLACK
6
CONTINUOUS
10
141.464
20
-264
11
141.383
21
-263.946
0
LINE
8
BLACK
6
CONTINUOUS
10
141.383
20
-263.946
11
141.329
21
-263.865
0
LINE
8
BLACK
6
CONTINUOUS
10
141.329
20
-263.865
11
141.31
21
-263.769
0
LINE
8
BLACK
6
CONTINUOUS
10
141.31
20
-263.769
11
141.31
21
-262.519
0
LINE
8
BLACK
6
CONTINUOUS
10
141.31
20
-262.519
11
141.329
21
-262.423
0
LINE
8
BLACK
6
CONTINUOUS
10
141.329
20
-262.423
11
141.383
21
-262.342
0
LINE
8
BLACK
6
CONTINUOUS
10
141.383
20
-262.342
11
141.464
21
-262.288
0
LINE
8
BLACK
6
CONTINUOUS
10
141.464
20
-262.288
11
141.56
21
-262.269
0
LINE
8
BLACK
6
CONTINUOUS
10
141.56
20
-262.269
11
142.36
21
-262.269
0
LINE
8
BLACK
6
CONTINUOUS
10
142.36
20
-262.269
11
142.456
21
-262.288
0
LINE
8
BLACK
6
CONTINUOUS
10
325.333
20
-228.757
11
325.414
21
-228.811
0
LINE
8
BLACK
6
CONTINUOUS
10
325.414
20
-228.811
11
325.468
21
-228.892
0
LINE
8
BLACK
6
CONTINUOUS
10
325.468
20
-228.892
11
325.487
21
-228.988
0
LINE
8
BLACK
6
CONTINUOUS
10
325.487
20
-228.988
11
325.487
21
-229.788
0
LINE
8
BLACK
6
CONTINUOUS
10
325.487
20
-229.788
11
325.468
21
-229.884
0
LINE
8
BLACK
6
CONTINUOUS
10
325.468
20
-229.884
11
325.414
21
-229.965
0
LINE
8
BLACK
6
CONTINUOUS
10
325.414
20
-229.965
11
325.333
21
-230.019
0
LINE
8
BLACK
6
CONTINUOUS
10
325.333
20
-230.019
11
325.237
21
-230.038
0
LINE
8
BLACK
6
CONTINUOUS
10
325.237
20
-230.038
11
323.987
21
-230.038
0
LINE
8
BLACK
6
CONTINUOUS
10
323.987
20
-230.038
11
323.891
21
-230.019
0
LINE
8
BLACK
6
CONTINUOUS
10
323.891
20
-230.019
11
323.81
21
-229.965
0
LINE
8
BLACK
6
CONTINUOUS
10
323.81
20
-229.965
11
323.756
21
-229.884
0
LINE
8
BLACK
6
CONTINUOUS
10
323.756
20
-229.884
11
323.737
21
-229.788
0
LINE
8
BLACK
6
CONTINUOUS
10
323.737
20
-229.788
11
323.737
21
-228.988
0
LINE
8
BLACK
6
CONTINUOUS
10
323.737
20
-228.988
11
323.756
21
-228.892
0
LINE
8
BLACK
6
CONTINUOUS
10
323.756
20
-228.892
11
323.81
21
-228.811
0
LINE
8
BLACK
6
CONTINUOUS
10
323.81
20
-228.811
11
323.891
21
-228.757
0
LINE
8
BLACK
6
CONTINUOUS
10
323.891
20
-228.757
11
323.987
21
-228.738
0
LINE
8
BLACK
6
CONTINUOUS
10
323.987
20
-228.738
11
325.237
21
-228.738
0
LINE
8
BLACK
6
CONTINUOUS
10
325.237
20
-228.738
11
325.333
21
-228.757
0
LINE
8
BLACK
6
CONTINUOUS
10
257.007
20
-228.249
11
257.088
21
-228.303
0
LINE
8
BLACK
6
CONTINUOUS
10
257.088
20
-228.303
11
257.142
21
-228.384
0
LINE
8
BLACK
6
CONTINUOUS
10
257.142
20
-228.384
11
257.161
21
-228.48
0
LINE
8
BLACK
6
CONTINUOUS
10
257.161
20
-228.48
11
257.161
21
-229.28
0
LINE
8
BLACK
6
CONTINUOUS
10
257.161
20
-229.28
11
257.142
21
-229.376
0
LINE
8
BLACK
6
CONTINUOUS
10
257.142
20
-229.376
11
257.088
21
-229.457
0
LINE
8
BLACK
6
CONTINUOUS
10
257.088
20
-229.457
11
257.007
21
-229.511
0
LINE
8
BLACK
6
CONTINUOUS
10
257.007
20
-229.511
11
256.911
21
-229.53
0
LINE
8
BLACK
6
CONTINUOUS
10
256.911
20
-229.53
11
255.661
21
-229.53
0
LINE
8
BLACK
6
CONTINUOUS
10
255.661
20
-229.53
11
255.565
21
-229.511
0
LINE
8
BLACK
6
CONTINUOUS
10
255.565
20
-229.511
11
255.484
21
-229.457
0
LINE
8
BLACK
6
CONTINUOUS
10
255.484
20
-229.457
11
255.43
21
-229.376
0
LINE
8
BLACK
6
CONTINUOUS
10
255.43
20
-229.376
11
255.411
21
-229.28
0
LINE
8
BLACK
6
CONTINUOUS
10
255.411
20
-229.28
11
255.411
21
-228.48
0
LINE
8
BLACK
6
CONTINUOUS
10
255.411
20
-228.48
11
255.43
21
-228.384
0
LINE
8
BLACK
6
CONTINUOUS
10
255.43
20
-228.384
11
255.484
21
-228.303
0
LINE
8
BLACK
6
CONTINUOUS
10
255.484
20
-228.303
11
255.565
21
-228.249
0
LINE
8
BLACK
6
CONTINUOUS
10
255.565
20
-228.249
11
255.661
21
-228.23
0
LINE
8
BLACK
6
CONTINUOUS
10
255.661
20
-228.23
11
256.911
21
-228.23
0
LINE
8
BLACK
6
CONTINUOUS
10
256.911
20
-228.23
11
257.007
21
-228.249
0
LINE
8
BLACK
6
CONTINUOUS
10
291.271
20
-228.179
11
291.352
21
-228.233
0
LINE
8
BLACK
6
CONTINUOUS
10
291.352
20
-228.233
11
291.406
21
-228.314
0
LINE
8
BLACK
6
CONTINUOUS
10
291.406
20
-228.314
11
291.425
21
-228.41
0
LINE
8
BLACK
6
CONTINUOUS
10
291.425
20
-228.41
11
291.425
21
-229.21
0
LINE
8
BLACK
6
CONTINUOUS
10
291.425
20
-229.21
11
291.406
21
-229.306
0
LINE
8
BLACK
6
CONTINUOUS
10
291.406
20
-229.306
11
291.352
21
-229.387
0
LINE
8
BLACK
6
CONTINUOUS
10
291.352
20
-229.387
11
291.271
21
-229.441
0
LINE
8
BLACK
6
CONTINUOUS
10
291.271
20
-229.441
11
291.175
21
-229.46
0
LINE
8
BLACK
6
CONTINUOUS
10
291.175
20
-229.46
11
289.925
21
-229.46
0
LINE
8
BLACK
6
CONTINUOUS
10
289.925
20
-229.46
11
289.829
21
-229.441
0
LINE
8
BLACK
6
CONTINUOUS
10
289.829
20
-229.441
11
289.748
21
-229.387
0
LINE
8
BLACK
6
CONTINUOUS
10
289.748
20
-229.387
11
289.694
21
-229.306
0
LINE
8
BLACK
6
CONTINUOUS
10
289.694
20
-229.306
11
289.675
21
-229.21
0
LINE
8
BLACK
6
CONTINUOUS
10
289.675
20
-229.21
11
289.675
21
-228.41
0
LINE
8
BLACK
6
CONTINUOUS
10
289.675
20
-228.41
11
289.694
21
-228.314
0
LINE
8
BLACK
6
CONTINUOUS
10
289.694
20
-228.314
11
289.748
21
-228.233
0
LINE
8
BLACK
6
CONTINUOUS
10
289.748
20
-228.233
11
289.829
21
-228.179
0
LINE
8
BLACK
6
CONTINUOUS
10
289.829
20
-228.179
11
289.925
21
-228.16
0
LINE
8
BLACK
6
CONTINUOUS
10
289.925
20
-228.16
11
291.175
21
-228.16
0
LINE
8
BLACK
6
CONTINUOUS
10
291.175
20
-228.16
11
291.271
21
-228.179
0
LINE
8
BLACK
6
CONTINUOUS
10
325.333
20
-225.657
11
325.414
21
-225.711
0
LINE
8
BLACK
6
CONTINUOUS
10
325.414
20
-225.711
11
325.468
21
-225.792
0
LINE
8
BLACK
6
CONTINUOUS
10
325.468
20
-225.792
11
325.487
21
-225.888
0
LINE
8
BLACK
6
CONTINUOUS
10
325.487
20
-225.888
11
325.487
21
-226.688
0
LINE
8
BLACK
6
CONTINUOUS
10
325.487
20
-226.688
11
325.468
21
-226.784
0
LINE
8
BLACK
6
CONTINUOUS
10
325.468
20
-226.784
11
325.414
21
-226.865
0
LINE
8
BLACK
6
CONTINUOUS
10
325.414
20
-226.865
11
325.333
21
-226.919
0
LINE
8
BLACK
6
CONTINUOUS
10
325.333
20
-226.919
11
325.237
21
-226.938
0
LINE
8
BLACK
6
CONTINUOUS
10
325.237
20
-226.938
11
323.987
21
-226.938
0
LINE
8
BLACK
6
CONTINUOUS
10
323.987
20
-226.938
11
323.891
21
-226.919
0
LINE
8
BLACK
6
CONTINUOUS
10
323.891
20
-226.919
11
323.81
21
-226.865
0
LINE
8
BLACK
6
CONTINUOUS
10
323.81
20
-226.865
11
323.756
21
-226.784
0
LINE
8
BLACK
6
CONTINUOUS
10
323.756
20
-226.784
11
323.737
21
-226.688
0
LINE
8
BLACK
6
CONTINUOUS
10
323.737
20
-226.688
11
323.737
21
-225.888
0
LINE
8
BLACK
6
CONTINUOUS
10
323.737
20
-225.888
11
323.756
21
-225.792
0
LINE
8
BLACK
6
CONTINUOUS
10
323.756
20
-225.792
11
323.81
21
-225.711
0
LINE
8
BLACK
6
CONTINUOUS
10
323.81
20
-225.711
11
323.891
21
-225.657
0
LINE
8
BLACK
6
CONTINUOUS
10
323.891
20
-225.657
11
323.987
21
-225.638
0
LINE
8
BLACK
6
CONTINUOUS
10
323.987
20
-225.638
11
325.237
21
-225.638
0
LINE
8
BLACK
6
CONTINUOUS
10
325.237
20
-225.638
11
325.333
21
-225.657
0
LINE
8
BLACK
6
CONTINUOUS
10
257.007
20
-225.149
11
257.088
21
-225.203
0
LINE
8
BLACK
6
CONTINUOUS
10
257.088
20
-225.203
11
257.142
21
-225.284
0
LINE
8
BLACK
6
CONTINUOUS
10
257.142
20
-225.284
11
257.161
21
-225.38
0
LINE
8
BLACK
6
CONTINUOUS
10
257.161
20
-225.38
11
257.161
21
-226.18
0
LINE
8
BLACK
6
CONTINUOUS
10
257.161
20
-226.18
11
257.142
21
-226.276
0
LINE
8
BLACK
6
CONTINUOUS
10
257.142
20
-226.276
11
257.088
21
-226.357
0
LINE
8
BLACK
6
CONTINUOUS
10
257.088
20
-226.357
11
257.007
21
-226.411
0
LINE
8
BLACK
6
CONTINUOUS
10
257.007
20
-226.411
11
256.911
21
-226.43
0
LINE
8
BLACK
6
CONTINUOUS
10
256.911
20
-226.43
11
255.661
21
-226.43
0
LINE
8
BLACK
6
CONTINUOUS
10
255.661
20
-226.43
11
255.565
21
-226.411
0
LINE
8
BLACK
6
CONTINUOUS
10
255.565
20
-226.411
11
255.484
21
-226.357
0
LINE
8
BLACK
6
CONTINUOUS
10
255.484
20
-226.357
11
255.43
21
-226.276
0
LINE
8
BLACK
6
CONTINUOUS
10
255.43
20
-226.276
11
255.411
21
-226.18
0
LINE
8
BLACK
6
CONTINUOUS
10
255.411
20
-226.18
11
255.411
21
-225.38
0
LINE
8
BLACK
6
CONTINUOUS
10
255.411
20
-225.38
11
255.43
21
-225.284
0
LINE
8
BLACK
6
CONTINUOUS
10
255.43
20
-225.284
11
255.484
21
-225.203
0
LINE
8
BLACK
6
CONTINUOUS
10
255.484
20
-225.203
11
255.565
21
-225.149
0
LINE
8
BLACK
6
CONTINUOUS
10
255.565
20
-225.149
11
255.661
21
-225.13
0
LINE
8
BLACK
6
CONTINUOUS
10
255.661
20
-225.13
11
256.911
21
-225.13
0
LINE
8
BLACK
6
CONTINUOUS
10
256.911
20
-225.13
11
257.007
21
-225.149
0
LINE
8
BLACK
6
CONTINUOUS
10
291.271
20
-225.079
11
291.352
21
-225.133
0
LINE
8
BLACK
6
CONTINUOUS
10
291.352
20
-225.133
11
291.406
21
-225.214
0
LINE
8
BLACK
6
CONTINUOUS
10
291.406
20
-225.214
11
291.425
21
-225.31
0
LINE
8
BLACK
6
CONTINUOUS
10
291.425
20
-225.31
11
291.425
21
-226.11
0
LINE
8
BLACK
6
CONTINUOUS
10
291.425
20
-226.11
11
291.406
21
-226.206
0
LINE
8
BLACK
6
CONTINUOUS
10
291.406
20
-226.206
11
291.352
21
-226.287
0
LINE
8
BLACK
6
CONTINUOUS
10
291.352
20
-226.287
11
291.271
21
-226.341
0
LINE
8
BLACK
6
CONTINUOUS
10
291.271
20
-226.341
11
291.175
21
-226.36
0
LINE
8
BLACK
6
CONTINUOUS
10
291.175
20
-226.36
11
289.925
21
-226.36
0
LINE
8
BLACK
6
CONTINUOUS
10
289.925
20
-226.36
11
289.829
21
-226.341
0
LINE
8
BLACK
6
CONTINUOUS
10
289.829
20
-226.341
11
289.748
21
-226.287
0
LINE
8
BLACK
6
CONTINUOUS
10
289.748
20
-226.287
11
289.694
21
-226.206
0
LINE
8
BLACK
6
CONTINUOUS
10
289.694
20
-226.206
11
289.675
21
-226.11
0
LINE
8
BLACK
6
CONTINUOUS
10
289.675
20
-226.11
11
289.675
21
-225.31
0
LINE
8
BLACK
6
CONTINUOUS
10
289.675
20
-225.31
11
289.694
21
-225.214
0
LINE
8
BLACK
6
CONTINUOUS
10
289.694
20
-225.214
11
289.748
21
-225.133
0
LINE
8
BLACK
6
CONTINUOUS
10
289.748
20
-225.133
11
289.829
21
-225.079
0
LINE
8
BLACK
6
CONTINUOUS
10
289.829
20
-225.079
11
289.925
21
-225.06
0
LINE
8
BLACK
6
CONTINUOUS
10
289.925
20
-225.06
11
291.175
21
-225.06
0
LINE
8
BLACK
6
CONTINUOUS
10
291.175
20
-225.06
11
291.271
21
-225.079
0
LINE
8
BLACK
6
CONTINUOUS
10
268.686
20
-169.07
11
268.767
21
-169.124
0
LINE
8
BLACK
6
CONTINUOUS
10
268.767
20
-169.124
11
268.821
21
-169.205
0
LINE
8
BLACK
6
CONTINUOUS
10
268.821
20
-169.205
11
268.84
21
-169.301
0
LINE
8
BLACK
6
CONTINUOUS
10
268.84
20
-169.301
11
268.84
21
-170.551
0
LINE
8
BLACK
6
CONTINUOUS
10
268.84
20
-170.551
11
268.821
21
-170.647
0
LINE
8
BLACK
6
CONTINUOUS
10
268.821
20
-170.647
11
268.767
21
-170.728
0
LINE
8
BLACK
6
CONTINUOUS
10
268.767
20
-170.728
11
268.686
21
-170.782
0
LINE
8
BLACK
6
CONTINUOUS
10
268.686
20
-170.782
11
268.59
21
-170.801
0
LINE
8
BLACK
6
CONTINUOUS
10
268.59
20
-170.801
11
267.79
21
-170.801
0
LINE
8
BLACK
6
CONTINUOUS
10
267.79
20
-170.801
11
267.694
21
-170.782
0
LINE
8
BLACK
6
CONTINUOUS
10
267.694
20
-170.782
11
267.613
21
-170.728
0
LINE
8
BLACK
6
CONTINUOUS
10
267.613
20
-170.728
11
267.559
21
-170.647
0
LINE
8
BLACK
6
CONTINUOUS
10
267.559
20
-170.647
11
267.54
21
-170.551
0
LINE
8
BLACK
6
CONTINUOUS
10
267.54
20
-170.551
11
267.54
21
-169.301
0
LINE
8
BLACK
6
CONTINUOUS
10
267.54
20
-169.301
11
267.559
21
-169.205
0
LINE
8
BLACK
6
CONTINUOUS
10
267.559
20
-169.205
11
267.613
21
-169.124
0
LINE
8
BLACK
6
CONTINUOUS
10
267.613
20
-169.124
11
267.694
21
-169.07
0
LINE
8
BLACK
6
CONTINUOUS
10
267.694
20
-169.07
11
267.79
21
-169.051
0
LINE
8
BLACK
6
CONTINUOUS
10
267.79
20
-169.051
11
268.59
21
-169.051
0
LINE
8
BLACK
6
CONTINUOUS
10
268.59
20
-169.051
11
268.686
21
-169.07
0
LINE
8
BLACK
6
CONTINUOUS
10
299.946
20
-169.07
11
300.027
21
-169.124
0
LINE
8
BLACK
6
CONTINUOUS
10
300.027
20
-169.124
11
300.081
21
-169.205
0
LINE
8
BLACK
6
CONTINUOUS
10
300.081
20
-169.205
11
300.1
21
-169.301
0
LINE
8
BLACK
6
CONTINUOUS
10
300.1
20
-169.301
11
300.1
21
-170.551
0
LINE
8
BLACK
6
CONTINUOUS
10
300.1
20
-170.551
11
300.081
21
-170.647
0
LINE
8
BLACK
6
CONTINUOUS
10
300.081
20
-170.647
11
300.027
21
-170.728
0
LINE
8
BLACK
6
CONTINUOUS
10
300.027
20
-170.728
11
299.946
21
-170.782
0
LINE
8
BLACK
6
CONTINUOUS
10
299.946
20
-170.782
11
299.85
21
-170.801
0
LINE
8
BLACK
6
CONTINUOUS
10
299.85
20
-170.801
11
299.05
21
-170.801
0
LINE
8
BLACK
6
CONTINUOUS
10
299.05
20
-170.801
11
298.954
21
-170.782
0
LINE
8
BLACK
6
CONTINUOUS
10
298.954
20
-170.782
11
298.873
21
-170.728
0
LINE
8
BLACK
6
CONTINUOUS
10
298.873
20
-170.728
11
298.819
21
-170.647
0
LINE
8
BLACK
6
CONTINUOUS
10
298.819
20
-170.647
11
298.8
21
-170.551
0
LINE
8
BLACK
6
CONTINUOUS
10
298.8
20
-170.551
11
298.8
21
-169.301
0
LINE
8
BLACK
6
CONTINUOUS
10
298.8
20
-169.301
11
298.819
21
-169.205
0
LINE
8
BLACK
6
CONTINUOUS
10
298.819
20
-169.205
11
298.873
21
-169.124
0
LINE
8
BLACK
6
CONTINUOUS
10
298.873
20
-169.124
11
298.954
21
-169.07
0
LINE
8
BLACK
6
CONTINUOUS
10
298.954
20
-169.07
11
299.05
21
-169.051
0
LINE
8
BLACK
6
CONTINUOUS
10
299.05
20
-169.051
11
299.85
21
-169.051
0
LINE
8
BLACK
6
CONTINUOUS
10
299.85
20
-169.051
11
299.946
21
-169.07
0
LINE
8
BLACK
6
CONTINUOUS
10
303.046
20
-169.07
11
303.127
21
-169.124
0
LINE
8
BLACK
6
CONTINUOUS
10
303.127
20
-169.124
11
303.181
21
-169.205
0
LINE
8
BLACK
6
CONTINUOUS
10
303.181
20
-169.205
11
303.2
21
-169.301
0
LINE
8
BLACK
6
CONTINUOUS
10
303.2
20
-169.301
11
303.2
21
-170.551
0
LINE
8
BLACK
6
CONTINUOUS
10
303.2
20
-170.551
11
303.181
21
-170.647
0
LINE
8
BLACK
6
CONTINUOUS
10
303.181
20
-170.647
11
303.127
21
-170.728
0
LINE
8
BLACK
6
CONTINUOUS
10
303.127
20
-170.728
11
303.046
21
-170.782
0
LINE
8
BLACK
6
CONTINUOUS
10
303.046
20
-170.782
11
302.95
21
-170.801
0
LINE
8
BLACK
6
CONTINUOUS
10
302.95
20
-170.801
11
302.15
21
-170.801
0
LINE
8
BLACK
6
CONTINUOUS
10
302.15
20
-170.801
11
302.054
21
-170.782
0
LINE
8
BLACK
6
CONTINUOUS
10
302.054
20
-170.782
11
301.973
21
-170.728
0
LINE
8
BLACK
6
CONTINUOUS
10
301.973
20
-170.728
11
301.919
21
-170.647
0
LINE
8
BLACK
6
CONTINUOUS
10
301.919
20
-170.647
11
301.9
21
-170.551
0
LINE
8
BLACK
6
CONTINUOUS
10
301.9
20
-170.551
11
301.9
21
-169.301
0
LINE
8
BLACK
6
CONTINUOUS
10
301.9
20
-169.301
11
301.919
21
-169.205
0
LINE
8
BLACK
6
CONTINUOUS
10
301.919
20
-169.205
11
301.973
21
-169.124
0
LINE
8
BLACK
6
CONTINUOUS
10
301.973
20
-169.124
11
302.054
21
-169.07
0
LINE
8
BLACK
6
CONTINUOUS
10
302.054
20
-169.07
11
302.15
21
-169.051
0
LINE
8
BLACK
6
CONTINUOUS
10
302.15
20
-169.051
11
302.95
21
-169.051
0
LINE
8
BLACK
6
CONTINUOUS
10
302.95
20
-169.051
11
303.046
21
-169.07
0
LINE
8
BLACK
6
CONTINUOUS
10
337.046
20
-169.07
11
337.127
21
-169.124
0
LINE
8
BLACK
6
CONTINUOUS
10
337.127
20
-169.124
11
337.181
21
-169.205
0
LINE
8
BLACK
6
CONTINUOUS
10
337.181
20
-169.205
11
337.2
21
-169.301
0
LINE
8
BLACK
6
CONTINUOUS
10
337.2
20
-169.301
11
337.2
21
-170.551
0
LINE
8
BLACK
6
CONTINUOUS
10
337.2
20
-170.551
11
337.181
21
-170.647
0
LINE
8
BLACK
6
CONTINUOUS
10
337.181
20
-170.647
11
337.127
21
-170.728
0
LINE
8
BLACK
6
CONTINUOUS
10
337.127
20
-170.728
11
337.046
21
-170.782
0
LINE
8
BLACK
6
CONTINUOUS
10
337.046
20
-170.782
11
336.95
21
-170.801
0
LINE
8
BLACK
6
CONTINUOUS
10
336.95
20
-170.801
11
336.15
21
-170.801
0
LINE
8
BLACK
6
CONTINUOUS
10
336.15
20
-170.801
11
336.054
21
-170.782
0
LINE
8
BLACK
6
CONTINUOUS
10
336.054
20
-170.782
11
335.973
21
-170.728
0
LINE
8
BLACK
6
CONTINUOUS
10
335.973
20
-170.728
11
335.919
21
-170.647
0
LINE
8
BLACK
6
CONTINUOUS
10
335.919
20
-170.647
11
335.9
21
-170.551
0
LINE
8
BLACK
6
CONTINUOUS
10
335.9
20
-170.551
11
335.9
21
-169.301
0
LINE
8
BLACK
6
CONTINUOUS
10
335.9
20
-169.301
11
335.919
21
-169.205
0
LINE
8
BLACK
6
CONTINUOUS
10
335.919
20
-169.205
11
335.973
21
-169.124
0
LINE
8
BLACK
6
CONTINUOUS
10
335.973
20
-169.124
11
336.054
21
-169.07
0
LINE
8
BLACK
6
CONTINUOUS
10
336.054
20
-169.07
11
336.15
21
-169.051
0
LINE
8
BLACK
6
CONTINUOUS
10
336.15
20
-169.051
11
336.95
21
-169.051
0
LINE
8
BLACK
6
CONTINUOUS
10
336.95
20
-169.051
11
337.046
21
-169.07
0
LINE
8
BLACK
6
CONTINUOUS
10
333.946
20
-169.07
11
334.027
21
-169.124
0
LINE
8
BLACK
6
CONTINUOUS
10
334.027
20
-169.124
11
334.081
21
-169.205
0
LINE
8
BLACK
6
CONTINUOUS
10
334.081
20
-169.205
11
334.1
21
-169.301
0
LINE
8
BLACK
6
CONTINUOUS
10
334.1
20
-169.301
11
334.1
21
-170.551
0
LINE
8
BLACK
6
CONTINUOUS
10
334.1
20
-170.551
11
334.081
21
-170.647
0
LINE
8
BLACK
6
CONTINUOUS
10
334.081
20
-170.647
11
334.027
21
-170.728
0
LINE
8
BLACK
6
CONTINUOUS
10
334.027
20
-170.728
11
333.946
21
-170.782
0
LINE
8
BLACK
6
CONTINUOUS
10
333.946
20
-170.782
11
333.85
21
-170.801
0
LINE
8
BLACK
6
CONTINUOUS
10
333.85
20
-170.801
11
333.05
21
-170.801
0
LINE
8
BLACK
6
CONTINUOUS
10
333.05
20
-170.801
11
332.954
21
-170.782
0
LINE
8
BLACK
6
CONTINUOUS
10
332.954
20
-170.782
11
332.873
21
-170.728
0
LINE
8
BLACK
6
CONTINUOUS
10
332.873
20
-170.728
11
332.819
21
-170.647
0
LINE
8
BLACK
6
CONTINUOUS
10
332.819
20
-170.647
11
332.8
21
-170.551
0
LINE
8
BLACK
6
CONTINUOUS
10
332.8
20
-170.551
11
332.8
21
-169.301
0
LINE
8
BLACK
6
CONTINUOUS
10
332.8
20
-169.301
11
332.819
21
-169.205
0
LINE
8
BLACK
6
CONTINUOUS
10
332.819
20
-169.205
11
332.873
21
-169.124
0
LINE
8
BLACK
6
CONTINUOUS
10
332.873
20
-169.124
11
332.954
21
-169.07
0
LINE
8
BLACK
6
CONTINUOUS
10
332.954
20
-169.07
11
333.05
21
-169.051
0
LINE
8
BLACK
6
CONTINUOUS
10
333.05
20
-169.051
11
333.85
21
-169.051
0
LINE
8
BLACK
6
CONTINUOUS
10
333.85
20
-169.051
11
333.946
21
-169.07
0
LINE
8
BLACK
6
CONTINUOUS
10
265.586
20
-169.07
11
265.667
21
-169.124
0
LINE
8
BLACK
6
CONTINUOUS
10
265.667
20
-169.124
11
265.721
21
-169.205
0
LINE
8
BLACK
6
CONTINUOUS
10
265.721
20
-169.205
11
265.74
21
-169.301
0
LINE
8
BLACK
6
CONTINUOUS
10
265.74
20
-169.301
11
265.74
21
-170.551
0
LINE
8
BLACK
6
CONTINUOUS
10
265.74
20
-170.551
11
265.721
21
-170.647
0
LINE
8
BLACK
6
CONTINUOUS
10
265.721
20
-170.647
11
265.667
21
-170.728
0
LINE
8
BLACK
6
CONTINUOUS
10
265.667
20
-170.728
11
265.586
21
-170.782
0
LINE
8
BLACK
6
CONTINUOUS
10
265.586
20
-170.782
11
265.49
21
-170.801
0
LINE
8
BLACK
6
CONTINUOUS
10
265.49
20
-170.801
11
264.69
21
-170.801
0
LINE
8
BLACK
6
CONTINUOUS
10
264.69
20
-170.801
11
264.594
21
-170.782
0
LINE
8
BLACK
6
CONTINUOUS
10
264.594
20
-170.782
11
264.513
21
-170.728
0
LINE
8
BLACK
6
CONTINUOUS
10
264.513
20
-170.728
11
264.459
21
-170.647
0
LINE
8
BLACK
6
CONTINUOUS
10
264.459
20
-170.647
11
264.44
21
-170.551
0
LINE
8
BLACK
6
CONTINUOUS
10
264.44
20
-170.551
11
264.44
21
-169.301
0
LINE
8
BLACK
6
CONTINUOUS
10
264.44
20
-169.301
11
264.459
21
-169.205
0
LINE
8
BLACK
6
CONTINUOUS
10
264.459
20
-169.205
11
264.513
21
-169.124
0
LINE
8
BLACK
6
CONTINUOUS
10
264.513
20
-169.124
11
264.594
21
-169.07
0
LINE
8
BLACK
6
CONTINUOUS
10
264.594
20
-169.07
11
264.69
21
-169.051
0
LINE
8
BLACK
6
CONTINUOUS
10
264.69
20
-169.051
11
265.49
21
-169.051
0
LINE
8
BLACK
6
CONTINUOUS
10
265.49
20
-169.051
11
265.586
21
-169.07
0
LINE
8
BLACK
6
CONTINUOUS
10
299.946
20
-164.244
11
300.027
21
-164.298
0
LINE
8
BLACK
6
CONTINUOUS
10
300.027
20
-164.298
11
300.081
21
-164.379
0
LINE
8
BLACK
6
CONTINUOUS
10
300.081
20
-164.379
11
300.1
21
-164.475
0
LINE
8
BLACK
6
CONTINUOUS
10
300.1
20
-164.475
11
300.1
21
-165.725
0
LINE
8
BLACK
6
CONTINUOUS
10
300.1
20
-165.725
11
300.081
21
-165.821
0
LINE
8
BLACK
6
CONTINUOUS
10
300.081
20
-165.821
11
300.027
21
-165.902
0
LINE
8
BLACK
6
CONTINUOUS
10
300.027
20
-165.902
11
299.946
21
-165.956
0
LINE
8
BLACK
6
CONTINUOUS
10
299.946
20
-165.956
11
299.85
21
-165.975
0
LINE
8
BLACK
6
CONTINUOUS
10
299.85
20
-165.975
11
299.05
21
-165.975
0
LINE
8
BLACK
6
CONTINUOUS
10
299.05
20
-165.975
11
298.954
21
-165.956
0
LINE
8
BLACK
6
CONTINUOUS
10
298.954
20
-165.956
11
298.873
21
-165.902
0
LINE
8
BLACK
6
CONTINUOUS
10
298.873
20
-165.902
11
298.819
21
-165.821
0
LINE
8
BLACK
6
CONTINUOUS
10
298.819
20
-165.821
11
298.8
21
-165.725
0
LINE
8
BLACK
6
CONTINUOUS
10
298.8
20
-165.725
11
298.8
21
-164.475
0
LINE
8
BLACK
6
CONTINUOUS
10
298.8
20
-164.475
11
298.819
21
-164.379
0
LINE
8
BLACK
6
CONTINUOUS
10
298.819
20
-164.379
11
298.873
21
-164.298
0
LINE
8
BLACK
6
CONTINUOUS
10
298.873
20
-164.298
11
298.954
21
-164.244
0
LINE
8
BLACK
6
CONTINUOUS
10
298.954
20
-164.244
11
299.05
21
-164.225
0
LINE
8
BLACK
6
CONTINUOUS
10
299.05
20
-164.225
11
299.85
21
-164.225
0
LINE
8
BLACK
6
CONTINUOUS
10
299.85
20
-164.225
11
299.946
21
-164.244
0
LINE
8
BLACK
6
CONTINUOUS
10
303.046
20
-164.244
11
303.127
21
-164.298
0
LINE
8
BLACK
6
CONTINUOUS
10
303.127
20
-164.298
11
303.181
21
-164.379
0
LINE
8
BLACK
6
CONTINUOUS
10
303.181
20
-164.379
11
303.2
21
-164.475
0
LINE
8
BLACK
6
CONTINUOUS
10
303.2
20
-164.475
11
303.2
21
-165.725
0
LINE
8
BLACK
6
CONTINUOUS
10
303.2
20
-165.725
11
303.181
21
-165.821
0
LINE
8
BLACK
6
CONTINUOUS
10
303.181
20
-165.821
11
303.127
21
-165.902
0
LINE
8
BLACK
6
CONTINUOUS
10
303.127
20
-165.902
11
303.046
21
-165.956
0
LINE
8
BLACK
6
CONTINUOUS
10
303.046
20
-165.956
11
302.95
21
-165.975
0
LINE
8
BLACK
6
CONTINUOUS
10
302.95
20
-165.975
11
302.15
21
-165.975
0
LINE
8
BLACK
6
CONTINUOUS
10
302.15
20
-165.975
11
302.054
21
-165.956
0
LINE
8
BLACK
6
CONTINUOUS
10
302.054
20
-165.956
11
301.973
21
-165.902
0
LINE
8
BLACK
6
CONTINUOUS
10
301.973
20
-165.902
11
301.919
21
-165.821
0
LINE
8
BLACK
6
CONTINUOUS
10
301.919
20
-165.821
11
301.9
21
-165.725
0
LINE
8
BLACK
6
CONTINUOUS
10
301.9
20
-165.725
11
301.9
21
-164.475
0
LINE
8
BLACK
6
CONTINUOUS
10
301.9
20
-164.475
11
301.919
21
-164.379
0
LINE
8
BLACK
6
CONTINUOUS
10
301.919
20
-164.379
11
301.973
21
-164.298
0
LINE
8
BLACK
6
CONTINUOUS
10
301.973
20
-164.298
11
302.054
21
-164.244
0
LINE
8
BLACK
6
CONTINUOUS
10
302.054
20
-164.244
11
302.15
21
-164.225
0
LINE
8
BLACK
6
CONTINUOUS
10
302.15
20
-164.225
11
302.95
21
-164.225
0
LINE
8
BLACK
6
CONTINUOUS
10
302.95
20
-164.225
11
303.046
21
-164.244
0
LINE
8
BLACK
6
CONTINUOUS
10
268.662
20
-164.154
11
268.743
21
-164.208
0
LINE
8
BLACK
6
CONTINUOUS
10
268.743
20
-164.208
11
268.797
21
-164.289
0
LINE
8
BLACK
6
CONTINUOUS
10
268.797
20
-164.289
11
268.816
21
-164.385
0
LINE
8
BLACK
6
CONTINUOUS
10
268.816
20
-164.385
11
268.816
21
-165.635
0
LINE
8
BLACK
6
CONTINUOUS
10
268.816
20
-165.635
11
268.797
21
-165.731
0
LINE
8
BLACK
6
CONTINUOUS
10
268.797
20
-165.731
11
268.743
21
-165.812
0
LINE
8
BLACK
6
CONTINUOUS
10
268.743
20
-165.812
11
268.662
21
-165.866
0
LINE
8
BLACK
6
CONTINUOUS
10
268.662
20
-165.866
11
268.566
21
-165.885
0
LINE
8
BLACK
6
CONTINUOUS
10
268.566
20
-165.885
11
267.766
21
-165.885
0
LINE
8
BLACK
6
CONTINUOUS
10
267.766
20
-165.885
11
267.67
21
-165.866
0
LINE
8
BLACK
6
CONTINUOUS
10
267.67
20
-165.866
11
267.589
21
-165.812
0
LINE
8
BLACK
6
CONTINUOUS
10
267.589
20
-165.812
11
267.535
21
-165.731
0
LINE
8
BLACK
6
CONTINUOUS
10
267.535
20
-165.731
11
267.516
21
-165.635
0
LINE
8
BLACK
6
CONTINUOUS
10
267.516
20
-165.635
11
267.516
21
-164.385
0
LINE
8
BLACK
6
CONTINUOUS
10
267.516
20
-164.385
11
267.535
21
-164.289
0
LINE
8
BLACK
6
CONTINUOUS
10
267.535
20
-164.289
11
267.589
21
-164.208
0
LINE
8
BLACK
6
CONTINUOUS
10
267.589
20
-164.208
11
267.67
21
-164.154
0
LINE
8
BLACK
6
CONTINUOUS
10
267.67
20
-164.154
11
267.766
21
-164.135
0
LINE
8
BLACK
6
CONTINUOUS
10
267.766
20
-164.135
11
268.566
21
-164.135
0
LINE
8
BLACK
6
CONTINUOUS
10
268.566
20
-164.135
11
268.662
21
-164.154
0
LINE
8
BLACK
6
CONTINUOUS
10
265.562
20
-164.154
11
265.643
21
-164.208
0
LINE
8
BLACK
6
CONTINUOUS
10
265.643
20
-164.208
11
265.697
21
-164.289
0
LINE
8
BLACK
6
CONTINUOUS
10
265.697
20
-164.289
11
265.716
21
-164.385
0
LINE
8
BLACK
6
CONTINUOUS
10
265.716
20
-164.385
11
265.716
21
-165.635
0
LINE
8
BLACK
6
CONTINUOUS
10
265.716
20
-165.635
11
265.697
21
-165.731
0
LINE
8
BLACK
6
CONTINUOUS
10
265.697
20
-165.731
11
265.643
21
-165.812
0
LINE
8
BLACK
6
CONTINUOUS
10
265.643
20
-165.812
11
265.562
21
-165.866
0
LINE
8
BLACK
6
CONTINUOUS
10
265.562
20
-165.866
11
265.466
21
-165.885
0
LINE
8
BLACK
6
CONTINUOUS
10
265.466
20
-165.885
11
264.666
21
-165.885
0
LINE
8
BLACK
6
CONTINUOUS
10
264.666
20
-165.885
11
264.57
21
-165.866
0
LINE
8
BLACK
6
CONTINUOUS
10
264.57
20
-165.866
11
264.489
21
-165.812
0
LINE
8
BLACK
6
CONTINUOUS
10
264.489
20
-165.812
11
264.435
21
-165.731
0
LINE
8
BLACK
6
CONTINUOUS
10
264.435
20
-165.731
11
264.416
21
-165.635
0
LINE
8
BLACK
6
CONTINUOUS
10
264.416
20
-165.635
11
264.416
21
-164.385
0
LINE
8
BLACK
6
CONTINUOUS
10
264.416
20
-164.385
11
264.435
21
-164.289
0
LINE
8
BLACK
6
CONTINUOUS
10
264.435
20
-164.289
11
264.489
21
-164.208
0
LINE
8
BLACK
6
CONTINUOUS
10
264.489
20
-164.208
11
264.57
21
-164.154
0
LINE
8
BLACK
6
CONTINUOUS
10
264.57
20
-164.154
11
264.666
21
-164.135
0
LINE
8
BLACK
6
CONTINUOUS
10
264.666
20
-164.135
11
265.466
21
-164.135
0
LINE
8
BLACK
6
CONTINUOUS
10
265.466
20
-164.135
11
265.562
21
-164.154
0
LINE
8
BLACK
6
CONTINUOUS
10
337.046
20
-163.99
11
337.127
21
-164.044
0
LINE
8
BLACK
6
CONTINUOUS
10
337.127
20
-164.044
11
337.181
21
-164.125
0
LINE
8
BLACK
6
CONTINUOUS
10
337.181
20
-164.125
11
337.2
21
-164.221
0
LINE
8
BLACK
6
CONTINUOUS
10
337.2
20
-164.221
11
337.2
21
-165.471
0
LINE
8
BLACK
6
CONTINUOUS
10
337.2
20
-165.471
11
337.181
21
-165.567
0
LINE
8
BLACK
6
CONTINUOUS
10
337.181
20
-165.567
11
337.127
21
-165.648
0
LINE
8
BLACK
6
CONTINUOUS
10
337.127
20
-165.648
11
337.046
21
-165.702
0
LINE
8
BLACK
6
CONTINUOUS
10
337.046
20
-165.702
11
336.95
21
-165.721
0
LINE
8
BLACK
6
CONTINUOUS
10
336.95
20
-165.721
11
336.15
21
-165.721
0
LINE
8
BLACK
6
CONTINUOUS
10
336.15
20
-165.721
11
336.054
21
-165.702
0
LINE
8
BLACK
6
CONTINUOUS
10
336.054
20
-165.702
11
335.973
21
-165.648
0
LINE
8
BLACK
6
CONTINUOUS
10
335.973
20
-165.648
11
335.919
21
-165.567
0
LINE
8
BLACK
6
CONTINUOUS
10
335.919
20
-165.567
11
335.9
21
-165.471
0
LINE
8
BLACK
6
CONTINUOUS
10
335.9
20
-165.471
11
335.9
21
-164.221
0
LINE
8
BLACK
6
CONTINUOUS
10
335.9
20
-164.221
11
335.919
21
-164.125
0
LINE
8
BLACK
6
CONTINUOUS
10
335.919
20
-164.125
11
335.973
21
-164.044
0
LINE
8
BLACK
6
CONTINUOUS
10
335.973
20
-164.044
11
336.054
21
-163.99
0
LINE
8
BLACK
6
CONTINUOUS
10
336.054
20
-163.99
11
336.15
21
-163.971
0
LINE
8
BLACK
6
CONTINUOUS
10
336.15
20
-163.971
11
336.95
21
-163.971
0
LINE
8
BLACK
6
CONTINUOUS
10
336.95
20
-163.971
11
337.046
21
-163.99
0
LINE
8
BLACK
6
CONTINUOUS
10
333.946
20
-163.99
11
334.027
21
-164.044
0
LINE
8
BLACK
6
CONTINUOUS
10
334.027
20
-164.044
11
334.081
21
-164.125
0
LINE
8
BLACK
6
CONTINUOUS
10
334.081
20
-164.125
11
334.1
21
-164.221
0
LINE
8
BLACK
6
CONTINUOUS
10
334.1
20
-164.221
11
334.1
21
-165.471
0
LINE
8
BLACK
6
CONTINUOUS
10
334.1
20
-165.471
11
334.081
21
-165.567
0
LINE
8
BLACK
6
CONTINUOUS
10
334.081
20
-165.567
11
334.027
21
-165.648
0
LINE
8
BLACK
6
CONTINUOUS
10
334.027
20
-165.648
11
333.946
21
-165.702
0
LINE
8
BLACK
6
CONTINUOUS
10
333.946
20
-165.702
11
333.85
21
-165.721
0
LINE
8
BLACK
6
CONTINUOUS
10
333.85
20
-165.721
11
333.05
21
-165.721
0
LINE
8
BLACK
6
CONTINUOUS
10
333.05
20
-165.721
11
332.954
21
-165.702
0
LINE
8
BLACK
6
CONTINUOUS
10
332.954
20
-165.702
11
332.873
21
-165.648
0
LINE
8
BLACK
6
CONTINUOUS
10
332.873
20
-165.648
11
332.819
21
-165.567
0
LINE
8
BLACK
6
CONTINUOUS
10
332.819
20
-165.567
11
332.8
21
-165.471
0
LINE
8
BLACK
6
CONTINUOUS
10
332.8
20
-165.471
11
332.8
21
-164.221
0
LINE
8
BLACK
6
CONTINUOUS
10
332.8
20
-164.221
11
332.819
21
-164.125
0
LINE
8
BLACK
6
CONTINUOUS
10
332.819
20
-164.125
11
332.873
21
-164.044
0
LINE
8
BLACK
6
CONTINUOUS
10
332.873
20
-164.044
11
332.954
21
-163.99
0
LINE
8
BLACK
6
CONTINUOUS
10
332.954
20
-163.99
11
333.05
21
-163.971
0
LINE
8
BLACK
6
CONTINUOUS
10
333.05
20
-163.971
11
333.85
21
-163.971
0
LINE
8
BLACK
6
CONTINUOUS
10
333.85
20
-163.971
11
333.946
21
-163.99
0
LINE
8
BLACK
6
CONTINUOUS
10
268.612
20
-159.184
11
268.693
21
-159.238
0
LINE
8
BLACK
6
CONTINUOUS
10
268.693
20
-159.238
11
268.747
21
-159.319
0
LINE
8
BLACK
6
CONTINUOUS
10
268.747
20
-159.319
11
268.766
21
-159.415
0
LINE
8
BLACK
6
CONTINUOUS
10
268.766
20
-159.415
11
268.766
21
-160.665
0
LINE
8
BLACK
6
CONTINUOUS
10
268.766
20
-160.665
11
268.747
21
-160.761
0
LINE
8
BLACK
6
CONTINUOUS
10
268.747
20
-160.761
11
268.693
21
-160.842
0
LINE
8
BLACK
6
CONTINUOUS
10
268.693
20
-160.842
11
268.612
21
-160.896
0
LINE
8
BLACK
6
CONTINUOUS
10
268.612
20
-160.896
11
268.516
21
-160.915
0
LINE
8
BLACK
6
CONTINUOUS
10
268.516
20
-160.915
11
267.716
21
-160.915
0
LINE
8
BLACK
6
CONTINUOUS
10
267.716
20
-160.915
11
267.62
21
-160.896
0
LINE
8
BLACK
6
CONTINUOUS
10
267.62
20
-160.896
11
267.539
21
-160.842
0
LINE
8
BLACK
6
CONTINUOUS
10
267.539
20
-160.842
11
267.485
21
-160.761
0
LINE
8
BLACK
6
CONTINUOUS
10
267.485
20
-160.761
11
267.466
21
-160.665
0
LINE
8
BLACK
6
CONTINUOUS
10
267.466
20
-160.665
11
267.466
21
-159.415
0
LINE
8
BLACK
6
CONTINUOUS
10
267.466
20
-159.415
11
267.485
21
-159.319
0
LINE
8
BLACK
6
CONTINUOUS
10
267.485
20
-159.319
11
267.539
21
-159.238
0
LINE
8
BLACK
6
CONTINUOUS
10
267.539
20
-159.238
11
267.62
21
-159.184
0
LINE
8
BLACK
6
CONTINUOUS
10
267.62
20
-159.184
11
267.716
21
-159.165
0
LINE
8
BLACK
6
CONTINUOUS
10
267.716
20
-159.165
11
268.516
21
-159.165
0
LINE
8
BLACK
6
CONTINUOUS
10
268.516
20
-159.165
11
268.612
21
-159.184
0
LINE
8
BLACK
6
CONTINUOUS
10
265.512
20
-159.184
11
265.593
21
-159.238
0
LINE
8
BLACK
6
CONTINUOUS
10
265.593
20
-159.238
11
265.647
21
-159.319
0
LINE
8
BLACK
6
CONTINUOUS
10
265.647
20
-159.319
11
265.666
21
-159.415
0
LINE
8
BLACK
6
CONTINUOUS
10
265.666
20
-159.415
11
265.666
21
-160.665
0
LINE
8
BLACK
6
CONTINUOUS
10
265.666
20
-160.665
11
265.647
21
-160.761
0
LINE
8
BLACK
6
CONTINUOUS
10
265.647
20
-160.761
11
265.593
21
-160.842
0
LINE
8
BLACK
6
CONTINUOUS
10
265.593
20
-160.842
11
265.512
21
-160.896
0
LINE
8
BLACK
6
CONTINUOUS
10
265.512
20
-160.896
11
265.416
21
-160.915
0
LINE
8
BLACK
6
CONTINUOUS
10
265.416
20
-160.915
11
264.616
21
-160.915
0
LINE
8
BLACK
6
CONTINUOUS
10
264.616
20
-160.915
11
264.52
21
-160.896
0
LINE
8
BLACK
6
CONTINUOUS
10
264.52
20
-160.896
11
264.439
21
-160.842
0
LINE
8
BLACK
6
CONTINUOUS
10
264.439
20
-160.842
11
264.385
21
-160.761
0
LINE
8
BLACK
6
CONTINUOUS
10
264.385
20
-160.761
11
264.366
21
-160.665
0
LINE
8
BLACK
6
CONTINUOUS
10
264.366
20
-160.665
11
264.366
21
-159.415
0
LINE
8
BLACK
6
CONTINUOUS
10
264.366
20
-159.415
11
264.385
21
-159.319
0
LINE
8
BLACK
6
CONTINUOUS
10
264.385
20
-159.319
11
264.439
21
-159.238
0
LINE
8
BLACK
6
CONTINUOUS
10
264.439
20
-159.238
11
264.52
21
-159.184
0
LINE
8
BLACK
6
CONTINUOUS
10
264.52
20
-159.184
11
264.616
21
-159.165
0
LINE
8
BLACK
6
CONTINUOUS
10
264.616
20
-159.165
11
265.416
21
-159.165
0
LINE
8
BLACK
6
CONTINUOUS
10
265.416
20
-159.165
11
265.512
21
-159.184
0
LINE
8
BLACK
6
CONTINUOUS
10
333.946
20
-159.164
11
334.027
21
-159.218
0
LINE
8
BLACK
6
CONTINUOUS
10
334.027
20
-159.218
11
334.081
21
-159.299
0
LINE
8
BLACK
6
CONTINUOUS
10
334.081
20
-159.299
11
334.1
21
-159.395
0
LINE
8
BLACK
6
CONTINUOUS
10
334.1
20
-159.395
11
334.1
21
-160.645
0
LINE
8
BLACK
6
CONTINUOUS
10
334.1
20
-160.645
11
334.081
21
-160.741
0
LINE
8
BLACK
6
CONTINUOUS
10
334.081
20
-160.741
11
334.027
21
-160.822
0
LINE
8
BLACK
6
CONTINUOUS
10
334.027
20
-160.822
11
333.946
21
-160.876
0
LINE
8
BLACK
6
CONTINUOUS
10
333.946
20
-160.876
11
333.85
21
-160.895
0
LINE
8
BLACK
6
CONTINUOUS
10
333.85
20
-160.895
11
333.05
21
-160.895
0
LINE
8
BLACK
6
CONTINUOUS
10
333.05
20
-160.895
11
332.954
21
-160.876
0
LINE
8
BLACK
6
CONTINUOUS
10
332.954
20
-160.876
11
332.873
21
-160.822
0
LINE
8
BLACK
6
CONTINUOUS
10
332.873
20
-160.822
11
332.819
21
-160.741
0
LINE
8
BLACK
6
CONTINUOUS
10
332.819
20
-160.741
11
332.8
21
-160.645
0
LINE
8
BLACK
6
CONTINUOUS
10
332.8
20
-160.645
11
332.8
21
-159.395
0
LINE
8
BLACK
6
CONTINUOUS
10
332.8
20
-159.395
11
332.819
21
-159.299
0
LINE
8
BLACK
6
CONTINUOUS
10
332.819
20
-159.299
11
332.873
21
-159.218
0
LINE
8
BLACK
6
CONTINUOUS
10
332.873
20
-159.218
11
332.954
21
-159.164
0
LINE
8
BLACK
6
CONTINUOUS
10
332.954
20
-159.164
11
333.05
21
-159.145
0
LINE
8
BLACK
6
CONTINUOUS
10
333.05
20
-159.145
11
333.85
21
-159.145
0
LINE
8
BLACK
6
CONTINUOUS
10
333.85
20
-159.145
11
333.946
21
-159.164
0
LINE
8
BLACK
6
CONTINUOUS
10
337.046
20
-159.164
11
337.127
21
-159.218
0
LINE
8
BLACK
6
CONTINUOUS
10
337.127
20
-159.218
11
337.181
21
-159.299
0
LINE
8
BLACK
6
CONTINUOUS
10
337.181
20
-159.299
11
337.2
21
-159.395
0
LINE
8
BLACK
6
CONTINUOUS
10
337.2
20
-159.395
11
337.2
21
-160.645
0
LINE
8
BLACK
6
CONTINUOUS
10
337.2
20
-160.645
11
337.181
21
-160.741
0
LINE
8
BLACK
6
CONTINUOUS
10
337.181
20
-160.741
11
337.127
21
-160.822
0
LINE
8
BLACK
6
CONTINUOUS
10
337.127
20
-160.822
11
337.046
21
-160.876
0
LINE
8
BLACK
6
CONTINUOUS
10
337.046
20
-160.876
11
336.95
21
-160.895
0
LINE
8
BLACK
6
CONTINUOUS
10
336.95
20
-160.895
11
336.15
21
-160.895
0
LINE
8
BLACK
6
CONTINUOUS
10
336.15
20
-160.895
11
336.054
21
-160.876
0
LINE
8
BLACK
6
CONTINUOUS
10
336.054
20
-160.876
11
335.973
21
-160.822
0
LINE
8
BLACK
6
CONTINUOUS
10
335.973
20
-160.822
11
335.919
21
-160.741
0
LINE
8
BLACK
6
CONTINUOUS
10
335.919
20
-160.741
11
335.9
21
-160.645
0
LINE
8
BLACK
6
CONTINUOUS
10
335.9
20
-160.645
11
335.9
21
-159.395
0
LINE
8
BLACK
6
CONTINUOUS
10
335.9
20
-159.395
11
335.919
21
-159.299
0
LINE
8
BLACK
6
CONTINUOUS
10
335.919
20
-159.299
11
335.973
21
-159.218
0
LINE
8
BLACK
6
CONTINUOUS
10
335.973
20
-159.218
11
336.054
21
-159.164
0
LINE
8
BLACK
6
CONTINUOUS
10
336.054
20
-159.164
11
336.15
21
-159.145
0
LINE
8
BLACK
6
CONTINUOUS
10
336.15
20
-159.145
11
336.95
21
-159.145
0
LINE
8
BLACK
6
CONTINUOUS
10
336.95
20
-159.145
11
337.046
21
-159.164
0
LINE
8
BLACK
6
CONTINUOUS
10
303.046
20
-159.164
11
303.127
21
-159.218
0
LINE
8
BLACK
6
CONTINUOUS
10
303.127
20
-159.218
11
303.181
21
-159.299
0
LINE
8
BLACK
6
CONTINUOUS
10
303.181
20
-159.299
11
303.2
21
-159.395
0
LINE
8
BLACK
6
CONTINUOUS
10
303.2
20
-159.395
11
303.2
21
-160.645
0
LINE
8
BLACK
6
CONTINUOUS
10
303.2
20
-160.645
11
303.181
21
-160.741
0
LINE
8
BLACK
6
CONTINUOUS
10
303.181
20
-160.741
11
303.127
21
-160.822
0
LINE
8
BLACK
6
CONTINUOUS
10
303.127
20
-160.822
11
303.046
21
-160.876
0
LINE
8
BLACK
6
CONTINUOUS
10
303.046
20
-160.876
11
302.95
21
-160.895
0
LINE
8
BLACK
6
CONTINUOUS
10
302.95
20
-160.895
11
302.15
21
-160.895
0
LINE
8
BLACK
6
CONTINUOUS
10
302.15
20
-160.895
11
302.054
21
-160.876
0
LINE
8
BLACK
6
CONTINUOUS
10
302.054
20
-160.876
11
301.973
21
-160.822
0
LINE
8
BLACK
6
CONTINUOUS
10
301.973
20
-160.822
11
301.919
21
-160.741
0
LINE
8
BLACK
6
CONTINUOUS
10
301.919
20
-160.741
11
301.9
21
-160.645
0
LINE
8
BLACK
6
CONTINUOUS
10
301.9
20
-160.645
11
301.9
21
-159.395
0
LINE
8
BLACK
6
CONTINUOUS
10
301.9
20
-159.395
11
301.919
21
-159.299
0
LINE
8
BLACK
6
CONTINUOUS
10
301.919
20
-159.299
11
301.973
21
-159.218
0
LINE
8
BLACK
6
CONTINUOUS
10
301.973
20
-159.218
11
302.054
21
-159.164
0
LINE
8
BLACK
6
CONTINUOUS
10
302.054
20
-159.164
11
302.15
21
-159.145
0
LINE
8
BLACK
6
CONTINUOUS
10
302.15
20
-159.145
11
302.95
21
-159.145
0
LINE
8
BLACK
6
CONTINUOUS
10
302.95
20
-159.145
11
303.046
21
-159.164
0
LINE
8
BLACK
6
CONTINUOUS
10
299.946
20
-159.164
11
300.027
21
-159.218
0
LINE
8
BLACK
6
CONTINUOUS
10
300.027
20
-159.218
11
300.081
21
-159.299
0
LINE
8
BLACK
6
CONTINUOUS
10
300.081
20
-159.299
11
300.1
21
-159.395
0
LINE
8
BLACK
6
CONTINUOUS
10
300.1
20
-159.395
11
300.1
21
-160.645
0
LINE
8
BLACK
6
CONTINUOUS
10
300.1
20
-160.645
11
300.081
21
-160.741
0
LINE
8
BLACK
6
CONTINUOUS
10
300.081
20
-160.741
11
300.027
21
-160.822
0
LINE
8
BLACK
6
CONTINUOUS
10
300.027
20
-160.822
11
299.946
21
-160.876
0
LINE
8
BLACK
6
CONTINUOUS
10
299.946
20
-160.876
11
299.85
21
-160.895
0
LINE
8
BLACK
6
CONTINUOUS
10
299.85
20
-160.895
11
299.05
21
-160.895
0
LINE
8
BLACK
6
CONTINUOUS
10
299.05
20
-160.895
11
298.954
21
-160.876
0
LINE
8
BLACK
6
CONTINUOUS
10
298.954
20
-160.876
11
298.873
21
-160.822
0
LINE
8
BLACK
6
CONTINUOUS
10
298.873
20
-160.822
11
298.819
21
-160.741
0
LINE
8
BLACK
6
CONTINUOUS
10
298.819
20
-160.741
11
298.8
21
-160.645
0
LINE
8
BLACK
6
CONTINUOUS
10
298.8
20
-160.645
11
298.8
21
-159.395
0
LINE
8
BLACK
6
CONTINUOUS
10
298.8
20
-159.395
11
298.819
21
-159.299
0
LINE
8
BLACK
6
CONTINUOUS
10
298.819
20
-159.299
11
298.873
21
-159.218
0
LINE
8
BLACK
6
CONTINUOUS
10
298.873
20
-159.218
11
298.954
21
-159.164
0
LINE
8
BLACK
6
CONTINUOUS
10
298.954
20
-159.164
11
299.05
21
-159.145
0
LINE
8
BLACK
6
CONTINUOUS
10
299.05
20
-159.145
11
299.85
21
-159.145
0
LINE
8
BLACK
6
CONTINUOUS
10
299.85
20
-159.145
11
299.946
21
-159.164
0
LINE
8
BLACK
6
CONTINUOUS
10
265.462
20
-154.144
11
265.543
21
-154.198
0
LINE
8
BLACK
6
CONTINUOUS
10
265.543
20
-154.198
11
265.597
21
-154.279
0
LINE
8
BLACK
6
CONTINUOUS
10
265.597
20
-154.279
11
265.616
21
-154.375
0
LINE
8
BLACK
6
CONTINUOUS
10
265.616
20
-154.375
11
265.616
21
-155.625
0
LINE
8
BLACK
6
CONTINUOUS
10
265.616
20
-155.625
11
265.597
21
-155.721
0
LINE
8
BLACK
6
CONTINUOUS
10
265.597
20
-155.721
11
265.543
21
-155.802
0
LINE
8
BLACK
6
CONTINUOUS
10
265.543
20
-155.802
11
265.462
21
-155.856
0
LINE
8
BLACK
6
CONTINUOUS
10
265.462
20
-155.856
11
265.366
21
-155.875
0
LINE
8
BLACK
6
CONTINUOUS
10
265.366
20
-155.875
11
264.566
21
-155.875
0
LINE
8
BLACK
6
CONTINUOUS
10
264.566
20
-155.875
11
264.47
21
-155.856
0
LINE
8
BLACK
6
CONTINUOUS
10
264.47
20
-155.856
11
264.389
21
-155.802
0
LINE
8
BLACK
6
CONTINUOUS
10
264.389
20
-155.802
11
264.335
21
-155.721
0
LINE
8
BLACK
6
CONTINUOUS
10
264.335
20
-155.721
11
264.316
21
-155.625
0
LINE
8
BLACK
6
CONTINUOUS
10
264.316
20
-155.625
11
264.316
21
-154.375
0
LINE
8
BLACK
6
CONTINUOUS
10
264.316
20
-154.375
11
264.335
21
-154.279
0
LINE
8
BLACK
6
CONTINUOUS
10
264.335
20
-154.279
11
264.389
21
-154.198
0
LINE
8
BLACK
6
CONTINUOUS
10
264.389
20
-154.198
11
264.47
21
-154.144
0
LINE
8
BLACK
6
CONTINUOUS
10
264.47
20
-154.144
11
264.566
21
-154.125
0
LINE
8
BLACK
6
CONTINUOUS
10
264.566
20
-154.125
11
265.366
21
-154.125
0
LINE
8
BLACK
6
CONTINUOUS
10
265.366
20
-154.125
11
265.462
21
-154.144
0
LINE
8
BLACK
6
CONTINUOUS
10
268.562
20
-154.144
11
268.643
21
-154.198
0
LINE
8
BLACK
6
CONTINUOUS
10
268.643
20
-154.198
11
268.697
21
-154.279
0
LINE
8
BLACK
6
CONTINUOUS
10
268.697
20
-154.279
11
268.716
21
-154.375
0
LINE
8
BLACK
6
CONTINUOUS
10
268.716
20
-154.375
11
268.716
21
-155.625
0
LINE
8
BLACK
6
CONTINUOUS
10
268.716
20
-155.625
11
268.697
21
-155.721
0
LINE
8
BLACK
6
CONTINUOUS
10
268.697
20
-155.721
11
268.643
21
-155.802
0
LINE
8
BLACK
6
CONTINUOUS
10
268.643
20
-155.802
11
268.562
21
-155.856
0
LINE
8
BLACK
6
CONTINUOUS
10
268.562
20
-155.856
11
268.466
21
-155.875
0
LINE
8
BLACK
6
CONTINUOUS
10
268.466
20
-155.875
11
267.666
21
-155.875
0
LINE
8
BLACK
6
CONTINUOUS
10
267.666
20
-155.875
11
267.57
21
-155.856
0
LINE
8
BLACK
6
CONTINUOUS
10
267.57
20
-155.856
11
267.489
21
-155.802
0
LINE
8
BLACK
6
CONTINUOUS
10
267.489
20
-155.802
11
267.435
21
-155.721
0
LINE
8
BLACK
6
CONTINUOUS
10
267.435
20
-155.721
11
267.416
21
-155.625
0
LINE
8
BLACK
6
CONTINUOUS
10
267.416
20
-155.625
11
267.416
21
-154.375
0
LINE
8
BLACK
6
CONTINUOUS
10
267.416
20
-154.375
11
267.435
21
-154.279
0
LINE
8
BLACK
6
CONTINUOUS
10
267.435
20
-154.279
11
267.489
21
-154.198
0
LINE
8
BLACK
6
CONTINUOUS
10
267.489
20
-154.198
11
267.57
21
-154.144
0
LINE
8
BLACK
6
CONTINUOUS
10
267.57
20
-154.144
11
267.666
21
-154.125
0
LINE
8
BLACK
6
CONTINUOUS
10
267.666
20
-154.125
11
268.466
21
-154.125
0
LINE
8
BLACK
6
CONTINUOUS
10
268.466
20
-154.125
11
268.562
21
-154.144
0
LINE
8
BLACK
6
CONTINUOUS
10
299.946
20
-154.084
11
300.027
21
-154.138
0
LINE
8
BLACK
6
CONTINUOUS
10
300.027
20
-154.138
11
300.081
21
-154.219
0
LINE
8
BLACK
6
CONTINUOUS
10
300.081
20
-154.219
11
300.1
21
-154.315
0
LINE
8
BLACK
6
CONTINUOUS
10
300.1
20
-154.315
11
300.1
21
-155.565
0
LINE
8
BLACK
6
CONTINUOUS
10
300.1
20
-155.565
11
300.081
21
-155.661
0
LINE
8
BLACK
6
CONTINUOUS
10
300.081
20
-155.661
11
300.027
21
-155.742
0
LINE
8
BLACK
6
CONTINUOUS
10
300.027
20
-155.742
11
299.946
21
-155.796
0
LINE
8
BLACK
6
CONTINUOUS
10
299.946
20
-155.796
11
299.85
21
-155.815
0
LINE
8
BLACK
6
CONTINUOUS
10
299.85
20
-155.815
11
299.05
21
-155.815
0
LINE
8
BLACK
6
CONTINUOUS
10
299.05
20
-155.815
11
298.954
21
-155.796
0
LINE
8
BLACK
6
CONTINUOUS
10
298.954
20
-155.796
11
298.873
21
-155.742
0
LINE
8
BLACK
6
CONTINUOUS
10
298.873
20
-155.742
11
298.819
21
-155.661
0
LINE
8
BLACK
6
CONTINUOUS
10
298.819
20
-155.661
11
298.8
21
-155.565
0
LINE
8
BLACK
6
CONTINUOUS
10
298.8
20
-155.565
11
298.8
21
-154.315
0
LINE
8
BLACK
6
CONTINUOUS
10
298.8
20
-154.315
11
298.819
21
-154.219
0
LINE
8
BLACK
6
CONTINUOUS
10
298.819
20
-154.219
11
298.873
21
-154.138
0
LINE
8
BLACK
6
CONTINUOUS
10
298.873
20
-154.138
11
298.954
21
-154.084
0
LINE
8
BLACK
6
CONTINUOUS
10
298.954
20
-154.084
11
299.05
21
-154.065
0
LINE
8
BLACK
6
CONTINUOUS
10
299.05
20
-154.065
11
299.85
21
-154.065
0
LINE
8
BLACK
6
CONTINUOUS
10
299.85
20
-154.065
11
299.946
21
-154.084
0
LINE
8
BLACK
6
CONTINUOUS
10
303.046
20
-154.084
11
303.127
21
-154.138
0
LINE
8
BLACK
6
CONTINUOUS
10
303.127
20
-154.138
11
303.181
21
-154.219
0
LINE
8
BLACK
6
CONTINUOUS
10
303.181
20
-154.219
11
303.2
21
-154.315
0
LINE
8
BLACK
6
CONTINUOUS
10
303.2
20
-154.315
11
303.2
21
-155.565
0
LINE
8
BLACK
6
CONTINUOUS
10
303.2
20
-155.565
11
303.181
21
-155.661
0
LINE
8
BLACK
6
CONTINUOUS
10
303.181
20
-155.661
11
303.127
21
-155.742
0
LINE
8
BLACK
6
CONTINUOUS
10
303.127
20
-155.742
11
303.046
21
-155.796
0
LINE
8
BLACK
6
CONTINUOUS
10
303.046
20
-155.796
11
302.95
21
-155.815
0
LINE
8
BLACK
6
CONTINUOUS
10
302.95
20
-155.815
11
302.15
21
-155.815
0
LINE
8
BLACK
6
CONTINUOUS
10
302.15
20
-155.815
11
302.054
21
-155.796
0
LINE
8
BLACK
6
CONTINUOUS
10
302.054
20
-155.796
11
301.973
21
-155.742
0
LINE
8
BLACK
6
CONTINUOUS
10
301.973
20
-155.742
11
301.919
21
-155.661
0
LINE
8
BLACK
6
CONTINUOUS
10
301.919
20
-155.661
11
301.9
21
-155.565
0
LINE
8
BLACK
6
CONTINUOUS
10
301.9
20
-155.565
11
301.9
21
-154.315
0
LINE
8
BLACK
6
CONTINUOUS
10
301.9
20
-154.315
11
301.919
21
-154.219
0
LINE
8
BLACK
6
CONTINUOUS
10
301.919
20
-154.219
11
301.973
21
-154.138
0
LINE
8
BLACK
6
CONTINUOUS
10
301.973
20
-154.138
11
302.054
21
-154.084
0
LINE
8
BLACK
6
CONTINUOUS
10
302.054
20
-154.084
11
302.15
21
-154.065
0
LINE
8
BLACK
6
CONTINUOUS
10
302.15
20
-154.065
11
302.95
21
-154.065
0
LINE
8
BLACK
6
CONTINUOUS
10
302.95
20
-154.065
11
303.046
21
-154.084
0
LINE
8
BLACK
6
CONTINUOUS
10
333.946
20
-154.084
11
334.027
21
-154.138
0
LINE
8
BLACK
6
CONTINUOUS
10
334.027
20
-154.138
11
334.081
21
-154.219
0
LINE
8
BLACK
6
CONTINUOUS
10
334.081
20
-154.219
11
334.1
21
-154.315
0
LINE
8
BLACK
6
CONTINUOUS
10
334.1
20
-154.315
11
334.1
21
-155.565
0
LINE
8
BLACK
6
CONTINUOUS
10
334.1
20
-155.565
11
334.081
21
-155.661
0
LINE
8
BLACK
6
CONTINUOUS
10
334.081
20
-155.661
11
334.027
21
-155.742
0
LINE
8
BLACK
6
CONTINUOUS
10
334.027
20
-155.742
11
333.946
21
-155.796
0
LINE
8
BLACK
6
CONTINUOUS
10
333.946
20
-155.796
11
333.85
21
-155.815
0
LINE
8
BLACK
6
CONTINUOUS
10
333.85
20
-155.815
11
333.05
21
-155.815
0
LINE
8
BLACK
6
CONTINUOUS
10
333.05
20
-155.815
11
332.954
21
-155.796
0
LINE
8
BLACK
6
CONTINUOUS
10
332.954
20
-155.796
11
332.873
21
-155.742
0
LINE
8
BLACK
6
CONTINUOUS
10
332.873
20
-155.742
11
332.819
21
-155.661
0
LINE
8
BLACK
6
CONTINUOUS
10
332.819
20
-155.661
11
332.8
21
-155.565
0
LINE
8
BLACK
6
CONTINUOUS
10
332.8
20
-155.565
11
332.8
21
-154.315
0
LINE
8
BLACK
6
CONTINUOUS
10
332.8
20
-154.315
11
332.819
21
-154.219
0
LINE
8
BLACK
6
CONTINUOUS
10
332.819
20
-154.219
11
332.873
21
-154.138
0
LINE
8
BLACK
6
CONTINUOUS
10
332.873
20
-154.138
11
332.954
21
-154.084
0
LINE
8
BLACK
6
CONTINUOUS
10
332.954
20
-154.084
11
333.05
21
-154.065
0
LINE
8
BLACK
6
CONTINUOUS
10
333.05
20
-154.065
11
333.85
21
-154.065
0
LINE
8
BLACK
6
CONTINUOUS
10
333.85
20
-154.065
11
333.946
21
-154.084
0
LINE
8
BLACK
6
CONTINUOUS
10
337.046
20
-154.084
11
337.127
21
-154.138
0
LINE
8
BLACK
6
CONTINUOUS
10
337.127
20
-154.138
11
337.181
21
-154.219
0
LINE
8
BLACK
6
CONTINUOUS
10
337.181
20
-154.219
11
337.2
21
-154.315
0
LINE
8
BLACK
6
CONTINUOUS
10
337.2
20
-154.315
11
337.2
21
-155.565
0
LINE
8
BLACK
6
CONTINUOUS
10
337.2
20
-155.565
11
337.181
21
-155.661
0
LINE
8
BLACK
6
CONTINUOUS
10
337.181
20
-155.661
11
337.127
21
-155.742
0
LINE
8
BLACK
6
CONTINUOUS
10
337.127
20
-155.742
11
337.046
21
-155.796
0
LINE
8
BLACK
6
CONTINUOUS
10
337.046
20
-155.796
11
336.95
21
-155.815
0
LINE
8
BLACK
6
CONTINUOUS
10
336.95
20
-155.815
11
336.15
21
-155.815
0
LINE
8
BLACK
6
CONTINUOUS
10
336.15
20
-155.815
11
336.054
21
-155.796
0
LINE
8
BLACK
6
CONTINUOUS
10
336.054
20
-155.796
11
335.973
21
-155.742
0
LINE
8
BLACK
6
CONTINUOUS
10
335.973
20
-155.742
11
335.919
21
-155.661
0
LINE
8
BLACK
6
CONTINUOUS
10
335.919
20
-155.661
11
335.9
21
-155.565
0
LINE
8
BLACK
6
CONTINUOUS
10
335.9
20
-155.565
11
335.9
21
-154.315
0
LINE
8
BLACK
6
CONTINUOUS
10
335.9
20
-154.315
11
335.919
21
-154.219
0
LINE
8
BLACK
6
CONTINUOUS
10
335.919
20
-154.219
11
335.973
21
-154.138
0
LINE
8
BLACK
6
CONTINUOUS
10
335.973
20
-154.138
11
336.054
21
-154.084
0
LINE
8
BLACK
6
CONTINUOUS
10
336.054
20
-154.084
11
336.15
21
-154.065
0
LINE
8
BLACK
6
CONTINUOUS
10
336.15
20
-154.065
11
336.95
21
-154.065
0
LINE
8
BLACK
6
CONTINUOUS
10
336.95
20
-154.065
11
337.046
21
-154.084
0
LINE
8
BLACK
6
CONTINUOUS
10
143.646
20
-152.384
11
143.727
21
-152.438
0
LINE
8
BLACK
6
CONTINUOUS
10
143.727
20
-152.438
11
143.781
21
-152.519
0
LINE
8
BLACK
6
CONTINUOUS
10
143.781
20
-152.519
11
143.8
21
-152.615
0
LINE
8
BLACK
6
CONTINUOUS
10
143.8
20
-152.615
11
143.8
21
-153.865
0
LINE
8
BLACK
6
CONTINUOUS
10
143.8
20
-153.865
11
143.781
21
-153.961
0
LINE
8
BLACK
6
CONTINUOUS
10
143.781
20
-153.961
11
143.727
21
-154.042
0
LINE
8
BLACK
6
CONTINUOUS
10
143.727
20
-154.042
11
143.646
21
-154.096
0
LINE
8
BLACK
6
CONTINUOUS
10
143.646
20
-154.096
11
143.55
21
-154.115
0
LINE
8
BLACK
6
CONTINUOUS
10
143.55
20
-154.115
11
142.75
21
-154.115
0
LINE
8
BLACK
6
CONTINUOUS
10
142.75
20
-154.115
11
142.654
21
-154.096
0
LINE
8
BLACK
6
CONTINUOUS
10
142.654
20
-154.096
11
142.573
21
-154.042
0
LINE
8
BLACK
6
CONTINUOUS
10
142.573
20
-154.042
11
142.519
21
-153.961
0
LINE
8
BLACK
6
CONTINUOUS
10
142.519
20
-153.961
11
142.5
21
-153.865
0
LINE
8
BLACK
6
CONTINUOUS
10
142.5
20
-153.865
11
142.5
21
-152.615
0
LINE
8
BLACK
6
CONTINUOUS
10
142.5
20
-152.615
11
142.519
21
-152.519
0
LINE
8
BLACK
6
CONTINUOUS
10
142.519
20
-152.519
11
142.573
21
-152.438
0
LINE
8
BLACK
6
CONTINUOUS
10
142.573
20
-152.438
11
142.654
21
-152.384
0
LINE
8
BLACK
6
CONTINUOUS
10
142.654
20
-152.384
11
142.75
21
-152.365
0
LINE
8
BLACK
6
CONTINUOUS
10
142.75
20
-152.365
11
143.55
21
-152.365
0
LINE
8
BLACK
6
CONTINUOUS
10
143.55
20
-152.365
11
143.646
21
-152.384
0
LINE
8
BLACK
6
CONTINUOUS
10
146.746
20
-152.384
11
146.827
21
-152.438
0
LINE
8
BLACK
6
CONTINUOUS
10
146.827
20
-152.438
11
146.881
21
-152.519
0
LINE
8
BLACK
6
CONTINUOUS
10
146.881
20
-152.519
11
146.9
21
-152.615
0
LINE
8
BLACK
6
CONTINUOUS
10
146.9
20
-152.615
11
146.9
21
-153.865
0
LINE
8
BLACK
6
CONTINUOUS
10
146.9
20
-153.865
11
146.881
21
-153.961
0
LINE
8
BLACK
6
CONTINUOUS
10
146.881
20
-153.961
11
146.827
21
-154.042
0
LINE
8
BLACK
6
CONTINUOUS
10
146.827
20
-154.042
11
146.746
21
-154.096
0
LINE
8
BLACK
6
CONTINUOUS
10
146.746
20
-154.096
11
146.65
21
-154.115
0
LINE
8
BLACK
6
CONTINUOUS
10
146.65
20
-154.115
11
145.85
21
-154.115
0
LINE
8
BLACK
6
CONTINUOUS
10
145.85
20
-154.115
11
145.754
21
-154.096
0
LINE
8
BLACK
6
CONTINUOUS
10
145.754
20
-154.096
11
145.673
21
-154.042
0
LINE
8
BLACK
6
CONTINUOUS
10
145.673
20
-154.042
11
145.619
21
-153.961
0
LINE
8
BLACK
6
CONTINUOUS
10
145.619
20
-153.961
11
145.6
21
-153.865
0
LINE
8
BLACK
6
CONTINUOUS
10
145.6
20
-153.865
11
145.6
21
-152.615
0
LINE
8
BLACK
6
CONTINUOUS
10
145.6
20
-152.615
11
145.619
21
-152.519
0
LINE
8
BLACK
6
CONTINUOUS
10
145.619
20
-152.519
11
145.673
21
-152.438
0
LINE
8
BLACK
6
CONTINUOUS
10
145.673
20
-152.438
11
145.754
21
-152.384
0
LINE
8
BLACK
6
CONTINUOUS
10
145.754
20
-152.384
11
145.85
21
-152.365
0
LINE
8
BLACK
6
CONTINUOUS
10
145.85
20
-152.365
11
146.65
21
-152.365
0
LINE
8
BLACK
6
CONTINUOUS
10
146.65
20
-152.365
11
146.746
21
-152.384
0
LINE
8
BLACK
6
CONTINUOUS
10
268.532
20
-149.154
11
268.613
21
-149.208
0
LINE
8
BLACK
6
CONTINUOUS
10
268.613
20
-149.208
11
268.667
21
-149.289
0
LINE
8
BLACK
6
CONTINUOUS
10
268.667
20
-149.289
11
268.686
21
-149.385
0
LINE
8
BLACK
6
CONTINUOUS
10
268.686
20
-149.385
11
268.686
21
-150.635
0
LINE
8
BLACK
6
CONTINUOUS
10
268.686
20
-150.635
11
268.667
21
-150.731
0
LINE
8
BLACK
6
CONTINUOUS
10
268.667
20
-150.731
11
268.613
21
-150.812
0
LINE
8
BLACK
6
CONTINUOUS
10
268.613
20
-150.812
11
268.532
21
-150.866
0
LINE
8
BLACK
6
CONTINUOUS
10
268.532
20
-150.866
11
268.436
21
-150.885
0
LINE
8
BLACK
6
CONTINUOUS
10
268.436
20
-150.885
11
267.636
21
-150.885
0
LINE
8
BLACK
6
CONTINUOUS
10
267.636
20
-150.885
11
267.54
21
-150.866
0
LINE
8
BLACK
6
CONTINUOUS
10
267.54
20
-150.866
11
267.459
21
-150.812
0
LINE
8
BLACK
6
CONTINUOUS
10
267.459
20
-150.812
11
267.405
21
-150.731
0
LINE
8
BLACK
6
CONTINUOUS
10
267.405
20
-150.731
11
267.386
21
-150.635
0
LINE
8
BLACK
6
CONTINUOUS
10
267.386
20
-150.635
11
267.386
21
-149.385
0
LINE
8
BLACK
6
CONTINUOUS
10
267.386
20
-149.385
11
267.405
21
-149.289
0
LINE
8
BLACK
6
CONTINUOUS
10
267.405
20
-149.289
11
267.459
21
-149.208
0
LINE
8
BLACK
6
CONTINUOUS
10
267.459
20
-149.208
11
267.54
21
-149.154
0
LINE
8
BLACK
6
CONTINUOUS
10
267.54
20
-149.154
11
267.636
21
-149.135
0
LINE
8
BLACK
6
CONTINUOUS
10
267.636
20
-149.135
11
268.436
21
-149.135
0
LINE
8
BLACK
6
CONTINUOUS
10
268.436
20
-149.135
11
268.532
21
-149.154
0
LINE
8
BLACK
6
CONTINUOUS
10
265.432
20
-149.154
11
265.513
21
-149.208
0
LINE
8
BLACK
6
CONTINUOUS
10
265.513
20
-149.208
11
265.567
21
-149.289
0
LINE
8
BLACK
6
CONTINUOUS
10
265.567
20
-149.289
11
265.586
21
-149.385
0
LINE
8
BLACK
6
CONTINUOUS
10
265.586
20
-149.385
11
265.586
21
-150.635
0
LINE
8
BLACK
6
CONTINUOUS
10
265.586
20
-150.635
11
265.567
21
-150.731
0
LINE
8
BLACK
6
CONTINUOUS
10
265.567
20
-150.731
11
265.513
21
-150.812
0
LINE
8
BLACK
6
CONTINUOUS
10
265.513
20
-150.812
11
265.432
21
-150.866
0
LINE
8
BLACK
6
CONTINUOUS
10
265.432
20
-150.866
11
265.336
21
-150.885
0
LINE
8
BLACK
6
CONTINUOUS
10
265.336
20
-150.885
11
264.536
21
-150.885
0
LINE
8
BLACK
6
CONTINUOUS
10
264.536
20
-150.885
11
264.44
21
-150.866
0
LINE
8
BLACK
6
CONTINUOUS
10
264.44
20
-150.866
11
264.359
21
-150.812
0
LINE
8
BLACK
6
CONTINUOUS
10
264.359
20
-150.812
11
264.305
21
-150.731
0
LINE
8
BLACK
6
CONTINUOUS
10
264.305
20
-150.731
11
264.286
21
-150.635
0
LINE
8
BLACK
6
CONTINUOUS
10
264.286
20
-150.635
11
264.286
21
-149.385
0
LINE
8
BLACK
6
CONTINUOUS
10
264.286
20
-149.385
11
264.305
21
-149.289
0
LINE
8
BLACK
6
CONTINUOUS
10
264.305
20
-149.289
11
264.359
21
-149.208
0
LINE
8
BLACK
6
CONTINUOUS
10
264.359
20
-149.208
11
264.44
21
-149.154
0
LINE
8
BLACK
6
CONTINUOUS
10
264.44
20
-149.154
11
264.536
21
-149.135
0
LINE
8
BLACK
6
CONTINUOUS
10
264.536
20
-149.135
11
265.336
21
-149.135
0
LINE
8
BLACK
6
CONTINUOUS
10
265.336
20
-149.135
11
265.432
21
-149.154
0
LINE
8
BLACK
6
CONTINUOUS
10
337.046
20
-149.004
11
337.127
21
-149.058
0
LINE
8
BLACK
6
CONTINUOUS
10
337.127
20
-149.058
11
337.181
21
-149.139
0
LINE
8
BLACK
6
CONTINUOUS
10
337.181
20
-149.139
11
337.2
21
-149.235
0
LINE
8
BLACK
6
CONTINUOUS
10
337.2
20
-149.235
11
337.2
21
-150.485
0
LINE
8
BLACK
6
CONTINUOUS
10
337.2
20
-150.485
11
337.181
21
-150.581
0
LINE
8
BLACK
6
CONTINUOUS
10
337.181
20
-150.581
11
337.127
21
-150.662
0
LINE
8
BLACK
6
CONTINUOUS
10
337.127
20
-150.662
11
337.046
21
-150.716
0
LINE
8
BLACK
6
CONTINUOUS
10
337.046
20
-150.716
11
336.95
21
-150.735
0
LINE
8
BLACK
6
CONTINUOUS
10
336.95
20
-150.735
11
336.15
21
-150.735
0
LINE
8
BLACK
6
CONTINUOUS
10
336.15
20
-150.735
11
336.054
21
-150.716
0
LINE
8
BLACK
6
CONTINUOUS
10
336.054
20
-150.716
11
335.973
21
-150.662
0
LINE
8
BLACK
6
CONTINUOUS
10
335.973
20
-150.662
11
335.919
21
-150.581
0
LINE
8
BLACK
6
CONTINUOUS
10
335.919
20
-150.581
11
335.9
21
-150.485
0
LINE
8
BLACK
6
CONTINUOUS
10
335.9
20
-150.485
11
335.9
21
-149.235
0
LINE
8
BLACK
6
CONTINUOUS
10
335.9
20
-149.235
11
335.919
21
-149.139
0
LINE
8
BLACK
6
CONTINUOUS
10
335.919
20
-149.139
11
335.973
21
-149.058
0
LINE
8
BLACK
6
CONTINUOUS
10
335.973
20
-149.058
11
336.054
21
-149.004
0
LINE
8
BLACK
6
CONTINUOUS
10
336.054
20
-149.004
11
336.15
21
-148.985
0
LINE
8
BLACK
6
CONTINUOUS
10
336.15
20
-148.985
11
336.95
21
-148.985
0
LINE
8
BLACK
6
CONTINUOUS
10
336.95
20
-148.985
11
337.046
21
-149.004
0
LINE
8
BLACK
6
CONTINUOUS
10
333.946
20
-149.004
11
334.027
21
-149.058
0
LINE
8
BLACK
6
CONTINUOUS
10
334.027
20
-149.058
11
334.081
21
-149.139
0
LINE
8
BLACK
6
CONTINUOUS
10
334.081
20
-149.139
11
334.1
21
-149.235
0
LINE
8
BLACK
6
CONTINUOUS
10
334.1
20
-149.235
11
334.1
21
-150.485
0
LINE
8
BLACK
6
CONTINUOUS
10
334.1
20
-150.485
11
334.081
21
-150.581
0
LINE
8
BLACK
6
CONTINUOUS
10
334.081
20
-150.581
11
334.027
21
-150.662
0
LINE
8
BLACK
6
CONTINUOUS
10
334.027
20
-150.662
11
333.946
21
-150.716
0
LINE
8
BLACK
6
CONTINUOUS
10
333.946
20
-150.716
11
333.85
21
-150.735
0
LINE
8
BLACK
6
CONTINUOUS
10
333.85
20
-150.735
11
333.05
21
-150.735
0
LINE
8
BLACK
6
CONTINUOUS
10
333.05
20
-150.735
11
332.954
21
-150.716
0
LINE
8
BLACK
6
CONTINUOUS
10
332.954
20
-150.716
11
332.873
21
-150.662
0
LINE
8
BLACK
6
CONTINUOUS
10
332.873
20
-150.662
11
332.819
21
-150.581
0
LINE
8
BLACK
6
CONTINUOUS
10
332.819
20
-150.581
11
332.8
21
-150.485
0
LINE
8
BLACK
6
CONTINUOUS
10
332.8
20
-150.485
11
332.8
21
-149.235
0
LINE
8
BLACK
6
CONTINUOUS
10
332.8
20
-149.235
11
332.819
21
-149.139
0
LINE
8
BLACK
6
CONTINUOUS
10
332.819
20
-149.139
11
332.873
21
-149.058
0
LINE
8
BLACK
6
CONTINUOUS
10
332.873
20
-149.058
11
332.954
21
-149.004
0
LINE
8
BLACK
6
CONTINUOUS
10
332.954
20
-149.004
11
333.05
21
-148.985
0
LINE
8
BLACK
6
CONTINUOUS
10
333.05
20
-148.985
11
333.85
21
-148.985
0
LINE
8
BLACK
6
CONTINUOUS
10
333.85
20
-148.985
11
333.946
21
-149.004
0
LINE
8
BLACK
6
CONTINUOUS
10
299.946
20
-149.004
11
300.027
21
-149.058
0
LINE
8
BLACK
6
CONTINUOUS
10
300.027
20
-149.058
11
300.081
21
-149.139
0
LINE
8
BLACK
6
CONTINUOUS
10
300.081
20
-149.139
11
300.1
21
-149.235
0
LINE
8
BLACK
6
CONTINUOUS
10
300.1
20
-149.235
11
300.1
21
-150.485
0
LINE
8
BLACK
6
CONTINUOUS
10
300.1
20
-150.485
11
300.081
21
-150.581
0
LINE
8
BLACK
6
CONTINUOUS
10
300.081
20
-150.581
11
300.027
21
-150.662
0
LINE
8
BLACK
6
CONTINUOUS
10
300.027
20
-150.662
11
299.946
21
-150.716
0
LINE
8
BLACK
6
CONTINUOUS
10
299.946
20
-150.716
11
299.85
21
-150.735
0
LINE
8
BLACK
6
CONTINUOUS
10
299.85
20
-150.735
11
299.05
21
-150.735
0
LINE
8
BLACK
6
CONTINUOUS
10
299.05
20
-150.735
11
298.954
21
-150.716
0
LINE
8
BLACK
6
CONTINUOUS
10
298.954
20
-150.716
11
298.873
21
-150.662
0
LINE
8
BLACK
6
CONTINUOUS
10
298.873
20
-150.662
11
298.819
21
-150.581
0
LINE
8
BLACK
6
CONTINUOUS
10
298.819
20
-150.581
11
298.8
21
-150.485
0
LINE
8
BLACK
6
CONTINUOUS
10
298.8
20
-150.485
11
298.8
21
-149.235
0
LINE
8
BLACK
6
CONTINUOUS
10
298.8
20
-149.235
11
298.819
21
-149.139
0
LINE
8
BLACK
6
CONTINUOUS
10
298.819
20
-149.139
11
298.873
21
-149.058
0
LINE
8
BLACK
6
CONTINUOUS
10
298.873
20
-149.058
11
298.954
21
-149.004
0
LINE
8
BLACK
6
CONTINUOUS
10
298.954
20
-149.004
11
299.05
21
-148.985
0
LINE
8
BLACK
6
CONTINUOUS
10
299.05
20
-148.985
11
299.85
21
-148.985
0
LINE
8
BLACK
6
CONTINUOUS
10
299.85
20
-148.985
11
299.946
21
-149.004
0
LINE
8
BLACK
6
CONTINUOUS
10
303.046
20
-149.004
11
303.127
21
-149.058
0
LINE
8
BLACK
6
CONTINUOUS
10
303.127
20
-149.058
11
303.181
21
-149.139
0
LINE
8
BLACK
6
CONTINUOUS
10
303.181
20
-149.139
11
303.2
21
-149.235
0
LINE
8
BLACK
6
CONTINUOUS
10
303.2
20
-149.235
11
303.2
21
-150.485
0
LINE
8
BLACK
6
CONTINUOUS
10
303.2
20
-150.485
11
303.181
21
-150.581
0
LINE
8
BLACK
6
CONTINUOUS
10
303.181
20
-150.581
11
303.127
21
-150.662
0
LINE
8
BLACK
6
CONTINUOUS
10
303.127
20
-150.662
11
303.046
21
-150.716
0
LINE
8
BLACK
6
CONTINUOUS
10
303.046
20
-150.716
11
302.95
21
-150.735
0
LINE
8
BLACK
6
CONTINUOUS
10
302.95
20
-150.735
11
302.15
21
-150.735
0
LINE
8
BLACK
6
CONTINUOUS
10
302.15
20
-150.735
11
302.054
21
-150.716
0
LINE
8
BLACK
6
CONTINUOUS
10
302.054
20
-150.716
11
301.973
21
-150.662
0
LINE
8
BLACK
6
CONTINUOUS
10
301.973
20
-150.662
11
301.919
21
-150.581
0
LINE
8
BLACK
6
CONTINUOUS
10
301.919
20
-150.581
11
301.9
21
-150.485
0
LINE
8
BLACK
6
CONTINUOUS
10
301.9
20
-150.485
11
301.9
21
-149.235
0
LINE
8
BLACK
6
CONTINUOUS
10
301.9
20
-149.235
11
301.919
21
-149.139
0
LINE
8
BLACK
6
CONTINUOUS
10
301.919
20
-149.139
11
301.973
21
-149.058
0
LINE
8
BLACK
6
CONTINUOUS
10
301.973
20
-149.058
11
302.054
21
-149.004
0
LINE
8
BLACK
6
CONTINUOUS
10
302.054
20
-149.004
11
302.15
21
-148.985
0
LINE
8
BLACK
6
CONTINUOUS
10
302.15
20
-148.985
11
302.95
21
-148.985
0
LINE
8
BLACK
6
CONTINUOUS
10
302.95
20
-148.985
11
303.046
21
-149.004
0
LINE
8
BLACK
6
CONTINUOUS
10
299.936
20
-144.178
11
300.017
21
-144.232
0
LINE
8
BLACK
6
CONTINUOUS
10
300.017
20
-144.232
11
300.071
21
-144.313
0
LINE
8
BLACK
6
CONTINUOUS
10
300.071
20
-144.313
11
300.09
21
-144.409
0
LINE
8
BLACK
6
CONTINUOUS
10
300.09
20
-144.409
11
300.09
21
-145.659
0
LINE
8
BLACK
6
CONTINUOUS
10
300.09
20
-145.659
11
300.071
21
-145.755
0
LINE
8
BLACK
6
CONTINUOUS
10
300.071
20
-145.755
11
300.017
21
-145.836
0
LINE
8
BLACK
6
CONTINUOUS
10
300.017
20
-145.836
11
299.936
21
-145.89
0
LINE
8
BLACK
6
CONTINUOUS
10
299.936
20
-145.89
11
299.84
21
-145.909
0
LINE
8
BLACK
6
CONTINUOUS
10
299.84
20
-145.909
11
299.04
21
-145.909
0
LINE
8
BLACK
6
CONTINUOUS
10
299.04
20
-145.909
11
298.944
21
-145.89
0
LINE
8
BLACK
6
CONTINUOUS
10
298.944
20
-145.89
11
298.863
21
-145.836
0
LINE
8
BLACK
6
CONTINUOUS
10
298.863
20
-145.836
11
298.809
21
-145.755
0
LINE
8
BLACK
6
CONTINUOUS
10
298.809
20
-145.755
11
298.79
21
-145.659
0
LINE
8
BLACK
6
CONTINUOUS
10
298.79
20
-145.659
11
298.79
21
-144.409
0
LINE
8
BLACK
6
CONTINUOUS
10
298.79
20
-144.409
11
298.809
21
-144.313
0
LINE
8
BLACK
6
CONTINUOUS
10
298.809
20
-144.313
11
298.863
21
-144.232
0
LINE
8
BLACK
6
CONTINUOUS
10
298.863
20
-144.232
11
298.944
21
-144.178
0
LINE
8
BLACK
6
CONTINUOUS
10
298.944
20
-144.178
11
299.04
21
-144.159
0
LINE
8
BLACK
6
CONTINUOUS
10
299.04
20
-144.159
11
299.84
21
-144.159
0
LINE
8
BLACK
6
CONTINUOUS
10
299.84
20
-144.159
11
299.936
21
-144.178
0
LINE
8
BLACK
6
CONTINUOUS
10
303.036
20
-144.178
11
303.117
21
-144.232
0
LINE
8
BLACK
6
CONTINUOUS
10
303.117
20
-144.232
11
303.171
21
-144.313
0
LINE
8
BLACK
6
CONTINUOUS
10
303.171
20
-144.313
11
303.19
21
-144.409
0
LINE
8
BLACK
6
CONTINUOUS
10
303.19
20
-144.409
11
303.19
21
-145.659
0
LINE
8
BLACK
6
CONTINUOUS
10
303.19
20
-145.659
11
303.171
21
-145.755
0
LINE
8
BLACK
6
CONTINUOUS
10
303.171
20
-145.755
11
303.117
21
-145.836
0
LINE
8
BLACK
6
CONTINUOUS
10
303.117
20
-145.836
11
303.036
21
-145.89
0
LINE
8
BLACK
6
CONTINUOUS
10
303.036
20
-145.89
11
302.94
21
-145.909
0
LINE
8
BLACK
6
CONTINUOUS
10
302.94
20
-145.909
11
302.14
21
-145.909
0
LINE
8
BLACK
6
CONTINUOUS
10
302.14
20
-145.909
11
302.044
21
-145.89
0
LINE
8
BLACK
6
CONTINUOUS
10
302.044
20
-145.89
11
301.963
21
-145.836
0
LINE
8
BLACK
6
CONTINUOUS
10
301.963
20
-145.836
11
301.909
21
-145.755
0
LINE
8
BLACK
6
CONTINUOUS
10
301.909
20
-145.755
11
301.89
21
-145.659
0
LINE
8
BLACK
6
CONTINUOUS
10
301.89
20
-145.659
11
301.89
21
-144.409
0
LINE
8
BLACK
6
CONTINUOUS
10
301.89
20
-144.409
11
301.909
21
-144.313
0
LINE
8
BLACK
6
CONTINUOUS
10
301.909
20
-144.313
11
301.963
21
-144.232
0
LINE
8
BLACK
6
CONTINUOUS
10
301.963
20
-144.232
11
302.044
21
-144.178
0
LINE
8
BLACK
6
CONTINUOUS
10
302.044
20
-144.178
11
302.14
21
-144.159
0
LINE
8
BLACK
6
CONTINUOUS
10
302.14
20
-144.159
11
302.94
21
-144.159
0
LINE
8
BLACK
6
CONTINUOUS
10
302.94
20
-144.159
11
303.036
21
-144.178
0
LINE
8
BLACK
6
CONTINUOUS
10
268.562
20
-144.064
11
268.643
21
-144.118
0
LINE
8
BLACK
6
CONTINUOUS
10
268.643
20
-144.118
11
268.697
21
-144.199
0
LINE
8
BLACK
6
CONTINUOUS
10
268.697
20
-144.199
11
268.716
21
-144.295
0
LINE
8
BLACK
6
CONTINUOUS
10
268.716
20
-144.295
11
268.716
21
-145.545
0
LINE
8
BLACK
6
CONTINUOUS
10
268.716
20
-145.545
11
268.697
21
-145.641
0
LINE
8
BLACK
6
CONTINUOUS
10
268.697
20
-145.641
11
268.643
21
-145.722
0
LINE
8
BLACK
6
CONTINUOUS
10
268.643
20
-145.722
11
268.562
21
-145.776
0
LINE
8
BLACK
6
CONTINUOUS
10
268.562
20
-145.776
11
268.466
21
-145.795
0
LINE
8
BLACK
6
CONTINUOUS
10
268.466
20
-145.795
11
267.666
21
-145.795
0
LINE
8
BLACK
6
CONTINUOUS
10
267.666
20
-145.795
11
267.57
21
-145.776
0
LINE
8
BLACK
6
CONTINUOUS
10
267.57
20
-145.776
11
267.489
21
-145.722
0
LINE
8
BLACK
6
CONTINUOUS
10
267.489
20
-145.722
11
267.435
21
-145.641
0
LINE
8
BLACK
6
CONTINUOUS
10
267.435
20
-145.641
11
267.416
21
-145.545
0
LINE
8
BLACK
6
CONTINUOUS
10
267.416
20
-145.545
11
267.416
21
-144.295
0
LINE
8
BLACK
6
CONTINUOUS
10
267.416
20
-144.295
11
267.435
21
-144.199
0
LINE
8
BLACK
6
CONTINUOUS
10
267.435
20
-144.199
11
267.489
21
-144.118
0
LINE
8
BLACK
6
CONTINUOUS
10
267.489
20
-144.118
11
267.57
21
-144.064
0
LINE
8
BLACK
6
CONTINUOUS
10
267.57
20
-144.064
11
267.666
21
-144.045
0
LINE
8
BLACK
6
CONTINUOUS
10
267.666
20
-144.045
11
268.466
21
-144.045
0
LINE
8
BLACK
6
CONTINUOUS
10
268.466
20
-144.045
11
268.562
21
-144.064
0
LINE
8
BLACK
6
CONTINUOUS
10
265.462
20
-144.064
11
265.543
21
-144.118
0
LINE
8
BLACK
6
CONTINUOUS
10
265.543
20
-144.118
11
265.597
21
-144.199
0
LINE
8
BLACK
6
CONTINUOUS
10
265.597
20
-144.199
11
265.616
21
-144.295
0
LINE
8
BLACK
6
CONTINUOUS
10
265.616
20
-144.295
11
265.616
21
-145.545
0
LINE
8
BLACK
6
CONTINUOUS
10
265.616
20
-145.545
11
265.597
21
-145.641
0
LINE
8
BLACK
6
CONTINUOUS
10
265.597
20
-145.641
11
265.543
21
-145.722
0
LINE
8
BLACK
6
CONTINUOUS
10
265.543
20
-145.722
11
265.462
21
-145.776
0
LINE
8
BLACK
6
CONTINUOUS
10
265.462
20
-145.776
11
265.366
21
-145.795
0
LINE
8
BLACK
6
CONTINUOUS
10
265.366
20
-145.795
11
264.566
21
-145.795
0
LINE
8
BLACK
6
CONTINUOUS
10
264.566
20
-145.795
11
264.47
21
-145.776
0
LINE
8
BLACK
6
CONTINUOUS
10
264.47
20
-145.776
11
264.389
21
-145.722
0
LINE
8
BLACK
6
CONTINUOUS
10
264.389
20
-145.722
11
264.335
21
-145.641
0
LINE
8
BLACK
6
CONTINUOUS
10
264.335
20
-145.641
11
264.316
21
-145.545
0
LINE
8
BLACK
6
CONTINUOUS
10
264.316
20
-145.545
11
264.316
21
-144.295
0
LINE
8
BLACK
6
CONTINUOUS
10
264.316
20
-144.295
11
264.335
21
-144.199
0
LINE
8
BLACK
6
CONTINUOUS
10
264.335
20
-144.199
11
264.389
21
-144.118
0
LINE
8
BLACK
6
CONTINUOUS
10
264.389
20
-144.118
11
264.47
21
-144.064
0
LINE
8
BLACK
6
CONTINUOUS
10
264.47
20
-144.064
11
264.566
21
-144.045
0
LINE
8
BLACK
6
CONTINUOUS
10
264.566
20
-144.045
11
265.366
21
-144.045
0
LINE
8
BLACK
6
CONTINUOUS
10
265.366
20
-144.045
11
265.462
21
-144.064
0
LINE
8
BLACK
6
CONTINUOUS
10
337.046
20
-143.924
11
337.127
21
-143.978
0
LINE
8
BLACK
6
CONTINUOUS
10
337.127
20
-143.978
11
337.181
21
-144.059
0
LINE
8
BLACK
6
CONTINUOUS
10
337.181
20
-144.059
11
337.2
21
-144.155
0
LINE
8
BLACK
6
CONTINUOUS
10
337.2
20
-144.155
11
337.2
21
-145.405
0
LINE
8
BLACK
6
CONTINUOUS
10
337.2
20
-145.405
11
337.181
21
-145.501
0
LINE
8
BLACK
6
CONTINUOUS
10
337.181
20
-145.501
11
337.127
21
-145.582
0
LINE
8
BLACK
6
CONTINUOUS
10
337.127
20
-145.582
11
337.046
21
-145.636
0
LINE
8
BLACK
6
CONTINUOUS
10
337.046
20
-145.636
11
336.95
21
-145.655
0
LINE
8
BLACK
6
CONTINUOUS
10
336.95
20
-145.655
11
336.15
21
-145.655
0
LINE
8
BLACK
6
CONTINUOUS
10
336.15
20
-145.655
11
336.054
21
-145.636
0
LINE
8
BLACK
6
CONTINUOUS
10
336.054
20
-145.636
11
335.973
21
-145.582
0
LINE
8
BLACK
6
CONTINUOUS
10
335.973
20
-145.582
11
335.919
21
-145.501
0
LINE
8
BLACK
6
CONTINUOUS
10
335.919
20
-145.501
11
335.9
21
-145.405
0
LINE
8
BLACK
6
CONTINUOUS
10
335.9
20
-145.405
11
335.9
21
-144.155
0
LINE
8
BLACK
6
CONTINUOUS
10
335.9
20
-144.155
11
335.919
21
-144.059
0
LINE
8
BLACK
6
CONTINUOUS
10
335.919
20
-144.059
11
335.973
21
-143.978
0
LINE
8
BLACK
6
CONTINUOUS
10
335.973
20
-143.978
11
336.054
21
-143.924
0
LINE
8
BLACK
6
CONTINUOUS
10
336.054
20
-143.924
11
336.15
21
-143.905
0
LINE
8
BLACK
6
CONTINUOUS
10
336.15
20
-143.905
11
336.95
21
-143.905
0
LINE
8
BLACK
6
CONTINUOUS
10
336.95
20
-143.905
11
337.046
21
-143.924
0
LINE
8
BLACK
6
CONTINUOUS
10
333.946
20
-143.924
11
334.027
21
-143.978
0
LINE
8
BLACK
6
CONTINUOUS
10
334.027
20
-143.978
11
334.081
21
-144.059
0
LINE
8
BLACK
6
CONTINUOUS
10
334.081
20
-144.059
11
334.1
21
-144.155
0
LINE
8
BLACK
6
CONTINUOUS
10
334.1
20
-144.155
11
334.1
21
-145.405
0
LINE
8
BLACK
6
CONTINUOUS
10
334.1
20
-145.405
11
334.081
21
-145.501
0
LINE
8
BLACK
6
CONTINUOUS
10
334.081
20
-145.501
11
334.027
21
-145.582
0
LINE
8
BLACK
6
CONTINUOUS
10
334.027
20
-145.582
11
333.946
21
-145.636
0
LINE
8
BLACK
6
CONTINUOUS
10
333.946
20
-145.636
11
333.85
21
-145.655
0
LINE
8
BLACK
6
CONTINUOUS
10
333.85
20
-145.655
11
333.05
21
-145.655
0
LINE
8
BLACK
6
CONTINUOUS
10
333.05
20
-145.655
11
332.954
21
-145.636
0
LINE
8
BLACK
6
CONTINUOUS
10
332.954
20
-145.636
11
332.873
21
-145.582
0
LINE
8
BLACK
6
CONTINUOUS
10
332.873
20
-145.582
11
332.819
21
-145.501
0
LINE
8
BLACK
6
CONTINUOUS
10
332.819
20
-145.501
11
332.8
21
-145.405
0
LINE
8
BLACK
6
CONTINUOUS
10
332.8
20
-145.405
11
332.8
21
-144.155
0
LINE
8
BLACK
6
CONTINUOUS
10
332.8
20
-144.155
11
332.819
21
-144.059
0
LINE
8
BLACK
6
CONTINUOUS
10
332.819
20
-144.059
11
332.873
21
-143.978
0
LINE
8
BLACK
6
CONTINUOUS
10
332.873
20
-143.978
11
332.954
21
-143.924
0
LINE
8
BLACK
6
CONTINUOUS
10
332.954
20
-143.924
11
333.05
21
-143.905
0
LINE
8
BLACK
6
CONTINUOUS
10
333.05
20
-143.905
11
333.85
21
-143.905
0
LINE
8
BLACK
6
CONTINUOUS
10
333.85
20
-143.905
11
333.946
21
-143.924
0
LINE
8
BLACK
6
CONTINUOUS
10
268.632
20
-139.174
11
268.713
21
-139.228
0
LINE
8
BLACK
6
CONTINUOUS
10
268.713
20
-139.228
11
268.767
21
-139.309
0
LINE
8
BLACK
6
CONTINUOUS
10
268.767
20
-139.309
11
268.786
21
-139.405
0
LINE
8
BLACK
6
CONTINUOUS
10
268.786
20
-139.405
11
268.786
21
-140.655
0
LINE
8
BLACK
6
CONTINUOUS
10
268.786
20
-140.655
11
268.767
21
-140.751
0
LINE
8
BLACK
6
CONTINUOUS
10
268.767
20
-140.751
11
268.713
21
-140.832
0
LINE
8
BLACK
6
CONTINUOUS
10
268.713
20
-140.832
11
268.632
21
-140.886
0
LINE
8
BLACK
6
CONTINUOUS
10
268.632
20
-140.886
11
268.536
21
-140.905
0
LINE
8
BLACK
6
CONTINUOUS
10
268.536
20
-140.905
11
267.736
21
-140.905
0
LINE
8
BLACK
6
CONTINUOUS
10
267.736
20
-140.905
11
267.64
21
-140.886
0
LINE
8
BLACK
6
CONTINUOUS
10
267.64
20
-140.886
11
267.559
21
-140.832
0
LINE
8
BLACK
6
CONTINUOUS
10
267.559
20
-140.832
11
267.505
21
-140.751
0
LINE
8
BLACK
6
CONTINUOUS
10
267.505
20
-140.751
11
267.486
21
-140.655
0
LINE
8
BLACK
6
CONTINUOUS
10
267.486
20
-140.655
11
267.486
21
-139.405
0
LINE
8
BLACK
6
CONTINUOUS
10
267.486
20
-139.405
11
267.505
21
-139.309
0
LINE
8
BLACK
6
CONTINUOUS
10
267.505
20
-139.309
11
267.559
21
-139.228
0
LINE
8
BLACK
6
CONTINUOUS
10
267.559
20
-139.228
11
267.64
21
-139.174
0
LINE
8
BLACK
6
CONTINUOUS
10
267.64
20
-139.174
11
267.736
21
-139.155
0
LINE
8
BLACK
6
CONTINUOUS
10
267.736
20
-139.155
11
268.536
21
-139.155
0
LINE
8
BLACK
6
CONTINUOUS
10
268.536
20
-139.155
11
268.632
21
-139.174
0
LINE
8
BLACK
6
CONTINUOUS
10
265.532
20
-139.174
11
265.613
21
-139.228
0
LINE
8
BLACK
6
CONTINUOUS
10
265.613
20
-139.228
11
265.667
21
-139.309
0
LINE
8
BLACK
6
CONTINUOUS
10
265.667
20
-139.309
11
265.686
21
-139.405
0
LINE
8
BLACK
6
CONTINUOUS
10
265.686
20
-139.405
11
265.686
21
-140.655
0
LINE
8
BLACK
6
CONTINUOUS
10
265.686
20
-140.655
11
265.667
21
-140.751
0
LINE
8
BLACK
6
CONTINUOUS
10
265.667
20
-140.751
11
265.613
21
-140.832
0
LINE
8
BLACK
6
CONTINUOUS
10
265.613
20
-140.832
11
265.532
21
-140.886
0
LINE
8
BLACK
6
CONTINUOUS
10
265.532
20
-140.886
11
265.436
21
-140.905
0
LINE
8
BLACK
6
CONTINUOUS
10
265.436
20
-140.905
11
264.636
21
-140.905
0
LINE
8
BLACK
6
CONTINUOUS
10
264.636
20
-140.905
11
264.54
21
-140.886
0
LINE
8
BLACK
6
CONTINUOUS
10
264.54
20
-140.886
11
264.459
21
-140.832
0
LINE
8
BLACK
6
CONTINUOUS
10
264.459
20
-140.832
11
264.405
21
-140.751
0
LINE
8
BLACK
6
CONTINUOUS
10
264.405
20
-140.751
11
264.386
21
-140.655
0
LINE
8
BLACK
6
CONTINUOUS
10
264.386
20
-140.655
11
264.386
21
-139.405
0
LINE
8
BLACK
6
CONTINUOUS
10
264.386
20
-139.405
11
264.405
21
-139.309
0
LINE
8
BLACK
6
CONTINUOUS
10
264.405
20
-139.309
11
264.459
21
-139.228
0
LINE
8
BLACK
6
CONTINUOUS
10
264.459
20
-139.228
11
264.54
21
-139.174
0
LINE
8
BLACK
6
CONTINUOUS
10
264.54
20
-139.174
11
264.636
21
-139.155
0
LINE
8
BLACK
6
CONTINUOUS
10
264.636
20
-139.155
11
265.436
21
-139.155
0
LINE
8
BLACK
6
CONTINUOUS
10
265.436
20
-139.155
11
265.532
21
-139.174
0
LINE
8
BLACK
6
CONTINUOUS
10
303.046
20
-139.098
11
303.127
21
-139.152
0
LINE
8
BLACK
6
CONTINUOUS
10
303.127
20
-139.152
11
303.181
21
-139.233
0
LINE
8
BLACK
6
CONTINUOUS
10
303.181
20
-139.233
11
303.2
21
-139.329
0
LINE
8
BLACK
6
CONTINUOUS
10
303.2
20
-139.329
11
303.2
21
-140.579
0
LINE
8
BLACK
6
CONTINUOUS
10
303.2
20
-140.579
11
303.181
21
-140.675
0
LINE
8
BLACK
6
CONTINUOUS
10
303.181
20
-140.675
11
303.127
21
-140.756
0
LINE
8
BLACK
6
CONTINUOUS
10
303.127
20
-140.756
11
303.046
21
-140.81
0
LINE
8
BLACK
6
CONTINUOUS
10
303.046
20
-140.81
11
302.95
21
-140.829
0
LINE
8
BLACK
6
CONTINUOUS
10
302.95
20
-140.829
11
302.15
21
-140.829
0
LINE
8
BLACK
6
CONTINUOUS
10
302.15
20
-140.829
11
302.054
21
-140.81
0
LINE
8
BLACK
6
CONTINUOUS
10
302.054
20
-140.81
11
301.973
21
-140.756
0
LINE
8
BLACK
6
CONTINUOUS
10
301.973
20
-140.756
11
301.919
21
-140.675
0
LINE
8
BLACK
6
CONTINUOUS
10
301.919
20
-140.675
11
301.9
21
-140.579
0
LINE
8
BLACK
6
CONTINUOUS
10
301.9
20
-140.579
11
301.9
21
-139.329
0
LINE
8
BLACK
6
CONTINUOUS
10
301.9
20
-139.329
11
301.919
21
-139.233
0
LINE
8
BLACK
6
CONTINUOUS
10
301.919
20
-139.233
11
301.973
21
-139.152
0
LINE
8
BLACK
6
CONTINUOUS
10
301.973
20
-139.152
11
302.054
21
-139.098
0
LINE
8
BLACK
6
CONTINUOUS
10
302.054
20
-139.098
11
302.15
21
-139.079
0
LINE
8
BLACK
6
CONTINUOUS
10
302.15
20
-139.079
11
302.95
21
-139.079
0
LINE
8
BLACK
6
CONTINUOUS
10
302.95
20
-139.079
11
303.046
21
-139.098
0
LINE
8
BLACK
6
CONTINUOUS
10
299.946
20
-139.098
11
300.027
21
-139.152
0
LINE
8
BLACK
6
CONTINUOUS
10
300.027
20
-139.152
11
300.081
21
-139.233
0
LINE
8
BLACK
6
CONTINUOUS
10
300.081
20
-139.233
11
300.1
21
-139.329
0
LINE
8
BLACK
6
CONTINUOUS
10
300.1
20
-139.329
11
300.1
21
-140.579
0
LINE
8
BLACK
6
CONTINUOUS
10
300.1
20
-140.579
11
300.081
21
-140.675
0
LINE
8
BLACK
6
CONTINUOUS
10
300.081
20
-140.675
11
300.027
21
-140.756
0
LINE
8
BLACK
6
CONTINUOUS
10
300.027
20
-140.756
11
299.946
21
-140.81
0
LINE
8
BLACK
6
CONTINUOUS
10
299.946
20
-140.81
11
299.85
21
-140.829
0
LINE
8
BLACK
6
CONTINUOUS
10
299.85
20
-140.829
11
299.05
21
-140.829
0
LINE
8
BLACK
6
CONTINUOUS
10
299.05
20
-140.829
11
298.954
21
-140.81
0
LINE
8
BLACK
6
CONTINUOUS
10
298.954
20
-140.81
11
298.873
21
-140.756
0
LINE
8
BLACK
6
CONTINUOUS
10
298.873
20
-140.756
11
298.819
21
-140.675
0
LINE
8
BLACK
6
CONTINUOUS
10
298.819
20
-140.675
11
298.8
21
-140.579
0
LINE
8
BLACK
6
CONTINUOUS
10
298.8
20
-140.579
11
298.8
21
-139.329
0
LINE
8
BLACK
6
CONTINUOUS
10
298.8
20
-139.329
11
298.819
21
-139.233
0
LINE
8
BLACK
6
CONTINUOUS
10
298.819
20
-139.233
11
298.873
21
-139.152
0
LINE
8
BLACK
6
CONTINUOUS
10
298.873
20
-139.152
11
298.954
21
-139.098
0
LINE
8
BLACK
6
CONTINUOUS
10
298.954
20
-139.098
11
299.05
21
-139.079
0
LINE
8
BLACK
6
CONTINUOUS
10
299.05
20
-139.079
11
299.85
21
-139.079
0
LINE
8
BLACK
6
CONTINUOUS
10
299.85
20
-139.079
11
299.946
21
-139.098
0
LINE
8
BLACK
6
CONTINUOUS
10
337.072
20
-138.844
11
337.153
21
-138.898
0
LINE
8
BLACK
6
CONTINUOUS
10
337.153
20
-138.898
11
337.207
21
-138.979
0
LINE
8
BLACK
6
CONTINUOUS
10
337.207
20
-138.979
11
337.226
21
-139.075
0
LINE
8
BLACK
6
CONTINUOUS
10
337.226
20
-139.075
11
337.226
21
-140.325
0
LINE
8
BLACK
6
CONTINUOUS
10
337.226
20
-140.325
11
337.207
21
-140.421
0
LINE
8
BLACK
6
CONTINUOUS
10
337.207
20
-140.421
11
337.153
21
-140.502
0
LINE
8
BLACK
6
CONTINUOUS
10
337.153
20
-140.502
11
337.072
21
-140.556
0
LINE
8
BLACK
6
CONTINUOUS
10
337.072
20
-140.556
11
336.976
21
-140.575
0
LINE
8
BLACK
6
CONTINUOUS
10
336.976
20
-140.575
11
336.176
21
-140.575
0
LINE
8
BLACK
6
CONTINUOUS
10
336.176
20
-140.575
11
336.08
21
-140.556
0
LINE
8
BLACK
6
CONTINUOUS
10
336.08
20
-140.556
11
335.999
21
-140.502
0
LINE
8
BLACK
6
CONTINUOUS
10
335.999
20
-140.502
11
335.945
21
-140.421
0
LINE
8
BLACK
6
CONTINUOUS
10
335.945
20
-140.421
11
335.926
21
-140.325
0
LINE
8
BLACK
6
CONTINUOUS
10
335.926
20
-140.325
11
335.926
21
-139.075
0
LINE
8
BLACK
6
CONTINUOUS
10
335.926
20
-139.075
11
335.945
21
-138.979
0
LINE
8
BLACK
6
CONTINUOUS
10
335.945
20
-138.979
11
335.999
21
-138.898
0
LINE
8
BLACK
6
CONTINUOUS
10
335.999
20
-138.898
11
336.08
21
-138.844
0
LINE
8
BLACK
6
CONTINUOUS
10
336.08
20
-138.844
11
336.176
21
-138.825
0
LINE
8
BLACK
6
CONTINUOUS
10
336.176
20
-138.825
11
336.976
21
-138.825
0
LINE
8
BLACK
6
CONTINUOUS
10
336.976
20
-138.825
11
337.072
21
-138.844
0
LINE
8
BLACK
6
CONTINUOUS
10
333.972
20
-138.844
11
334.053
21
-138.898
0
LINE
8
BLACK
6
CONTINUOUS
10
334.053
20
-138.898
11
334.107
21
-138.979
0
LINE
8
BLACK
6
CONTINUOUS
10
334.107
20
-138.979
11
334.126
21
-139.075
0
LINE
8
BLACK
6
CONTINUOUS
10
334.126
20
-139.075
11
334.126
21
-140.325
0
LINE
8
BLACK
6
CONTINUOUS
10
334.126
20
-140.325
11
334.107
21
-140.421
0
LINE
8
BLACK
6
CONTINUOUS
10
334.107
20
-140.421
11
334.053
21
-140.502
0
LINE
8
BLACK
6
CONTINUOUS
10
334.053
20
-140.502
11
333.972
21
-140.556
0
LINE
8
BLACK
6
CONTINUOUS
10
333.972
20
-140.556
11
333.876
21
-140.575
0
LINE
8
BLACK
6
CONTINUOUS
10
333.876
20
-140.575
11
333.076
21
-140.575
0
LINE
8
BLACK
6
CONTINUOUS
10
333.076
20
-140.575
11
332.98
21
-140.556
0
LINE
8
BLACK
6
CONTINUOUS
10
332.98
20
-140.556
11
332.899
21
-140.502
0
LINE
8
BLACK
6
CONTINUOUS
10
332.899
20
-140.502
11
332.845
21
-140.421
0
LINE
8
BLACK
6
CONTINUOUS
10
332.845
20
-140.421
11
332.826
21
-140.325
0
LINE
8
BLACK
6
CONTINUOUS
10
332.826
20
-140.325
11
332.826
21
-139.075
0
LINE
8
BLACK
6
CONTINUOUS
10
332.826
20
-139.075
11
332.845
21
-138.979
0
LINE
8
BLACK
6
CONTINUOUS
10
332.845
20
-138.979
11
332.899
21
-138.898
0
LINE
8
BLACK
6
CONTINUOUS
10
332.899
20
-138.898
11
332.98
21
-138.844
0
LINE
8
BLACK
6
CONTINUOUS
10
332.98
20
-138.844
11
333.076
21
-138.825
0
LINE
8
BLACK
6
CONTINUOUS
10
333.076
20
-138.825
11
333.876
21
-138.825
0
LINE
8
BLACK
6
CONTINUOUS
10
333.876
20
-138.825
11
333.972
21
-138.844
0
LINE
8
BLACK
6
CONTINUOUS
10
268.492
20
-134.104
11
268.573
21
-134.158
0
LINE
8
BLACK
6
CONTINUOUS
10
268.573
20
-134.158
11
268.627
21
-134.239
0
LINE
8
BLACK
6
CONTINUOUS
10
268.627
20
-134.239
11
268.646
21
-134.335
0
LINE
8
BLACK
6
CONTINUOUS
10
268.646
20
-134.335
11
268.646
21
-135.585
0
LINE
8
BLACK
6
CONTINUOUS
10
268.646
20
-135.585
11
268.627
21
-135.681
0
LINE
8
BLACK
6
CONTINUOUS
10
268.627
20
-135.681
11
268.573
21
-135.762
0
LINE
8
BLACK
6
CONTINUOUS
10
268.573
20
-135.762
11
268.492
21
-135.816
0
LINE
8
BLACK
6
CONTINUOUS
10
268.492
20
-135.816
11
268.396
21
-135.835
0
LINE
8
BLACK
6
CONTINUOUS
10
268.396
20
-135.835
11
267.596
21
-135.835
0
LINE
8
BLACK
6
CONTINUOUS
10
267.596
20
-135.835
11
267.5
21
-135.816
0
LINE
8
BLACK
6
CONTINUOUS
10
267.5
20
-135.816
11
267.419
21
-135.762
0
LINE
8
BLACK
6
CONTINUOUS
10
267.419
20
-135.762
11
267.365
21
-135.681
0
LINE
8
BLACK
6
CONTINUOUS
10
267.365
20
-135.681
11
267.346
21
-135.585
0
LINE
8
BLACK
6
CONTINUOUS
10
267.346
20
-135.585
11
267.346
21
-134.335
0
LINE
8
BLACK
6
CONTINUOUS
10
267.346
20
-134.335
11
267.365
21
-134.239
0
LINE
8
BLACK
6
CONTINUOUS
10
267.365
20
-134.239
11
267.419
21
-134.158
0
LINE
8
BLACK
6
CONTINUOUS
10
267.419
20
-134.158
11
267.5
21
-134.104
0
LINE
8
BLACK
6
CONTINUOUS
10
267.5
20
-134.104
11
267.596
21
-134.085
0
LINE
8
BLACK
6
CONTINUOUS
10
267.596
20
-134.085
11
268.396
21
-134.085
0
LINE
8
BLACK
6
CONTINUOUS
10
268.396
20
-134.085
11
268.492
21
-134.104
0
LINE
8
BLACK
6
CONTINUOUS
10
265.392
20
-134.104
11
265.473
21
-134.158
0
LINE
8
BLACK
6
CONTINUOUS
10
265.473
20
-134.158
11
265.527
21
-134.239
0
LINE
8
BLACK
6
CONTINUOUS
10
265.527
20
-134.239
11
265.546
21
-134.335
0
LINE
8
BLACK
6
CONTINUOUS
10
265.546
20
-134.335
11
265.546
21
-135.585
0
LINE
8
BLACK
6
CONTINUOUS
10
265.546
20
-135.585
11
265.527
21
-135.681
0
LINE
8
BLACK
6
CONTINUOUS
10
265.527
20
-135.681
11
265.473
21
-135.762
0
LINE
8
BLACK
6
CONTINUOUS
10
265.473
20
-135.762
11
265.392
21
-135.816
0
LINE
8
BLACK
6
CONTINUOUS
10
265.392
20
-135.816
11
265.296
21
-135.835
0
LINE
8
BLACK
6
CONTINUOUS
10
265.296
20
-135.835
11
264.496
21
-135.835
0
LINE
8
BLACK
6
CONTINUOUS
10
264.496
20
-135.835
11
264.4
21
-135.816
0
LINE
8
BLACK
6
CONTINUOUS
10
264.4
20
-135.816
11
264.319
21
-135.762
0
LINE
8
BLACK
6
CONTINUOUS
10
264.319
20
-135.762
11
264.265
21
-135.681
0
LINE
8
BLACK
6
CONTINUOUS
10
264.265
20
-135.681
11
264.246
21
-135.585
0
LINE
8
BLACK
6
CONTINUOUS
10
264.246
20
-135.585
11
264.246
21
-134.335
0
LINE
8
BLACK
6
CONTINUOUS
10
264.246
20
-134.335
11
264.265
21
-134.239
0
LINE
8
BLACK
6
CONTINUOUS
10
264.265
20
-134.239
11
264.319
21
-134.158
0
LINE
8
BLACK
6
CONTINUOUS
10
264.319
20
-134.158
11
264.4
21
-134.104
0
LINE
8
BLACK
6
CONTINUOUS
10
264.4
20
-134.104
11
264.496
21
-134.085
0
LINE
8
BLACK
6
CONTINUOUS
10
264.496
20
-134.085
11
265.296
21
-134.085
0
LINE
8
BLACK
6
CONTINUOUS
10
265.296
20
-134.085
11
265.392
21
-134.104
0
LINE
8
BLACK
6
CONTINUOUS
10
299.946
20
-134.018
11
300.027
21
-134.072
0
LINE
8
BLACK
6
CONTINUOUS
10
300.027
20
-134.072
11
300.081
21
-134.153
0
LINE
8
BLACK
6
CONTINUOUS
10
300.081
20
-134.153
11
300.1
21
-134.249
0
LINE
8
BLACK
6
CONTINUOUS
10
300.1
20
-134.249
11
300.1
21
-135.499
0
LINE
8
BLACK
6
CONTINUOUS
10
300.1
20
-135.499
11
300.081
21
-135.595
0
LINE
8
BLACK
6
CONTINUOUS
10
300.081
20
-135.595
11
300.027
21
-135.676
0
LINE
8
BLACK
6
CONTINUOUS
10
300.027
20
-135.676
11
299.946
21
-135.73
0
LINE
8
BLACK
6
CONTINUOUS
10
299.946
20
-135.73
11
299.85
21
-135.749
0
LINE
8
BLACK
6
CONTINUOUS
10
299.85
20
-135.749
11
299.05
21
-135.749
0
LINE
8
BLACK
6
CONTINUOUS
10
299.05
20
-135.749
11
298.954
21
-135.73
0
LINE
8
BLACK
6
CONTINUOUS
10
298.954
20
-135.73
11
298.873
21
-135.676
0
LINE
8
BLACK
6
CONTINUOUS
10
298.873
20
-135.676
11
298.819
21
-135.595
0
LINE
8
BLACK
6
CONTINUOUS
10
298.819
20
-135.595
11
298.8
21
-135.499
0
LINE
8
BLACK
6
CONTINUOUS
10
298.8
20
-135.499
11
298.8
21
-134.249
0
LINE
8
BLACK
6
CONTINUOUS
10
298.8
20
-134.249
11
298.819
21
-134.153
0
LINE
8
BLACK
6
CONTINUOUS
10
298.819
20
-134.153
11
298.873
21
-134.072
0
LINE
8
BLACK
6
CONTINUOUS
10
298.873
20
-134.072
11
298.954
21
-134.018
0
LINE
8
BLACK
6
CONTINUOUS
10
298.954
20
-134.018
11
299.05
21
-133.999
0
LINE
8
BLACK
6
CONTINUOUS
10
299.05
20
-133.999
11
299.85
21
-133.999
0
LINE
8
BLACK
6
CONTINUOUS
10
299.85
20
-133.999
11
299.946
21
-134.018
0
LINE
8
BLACK
6
CONTINUOUS
10
303.046
20
-134.018
11
303.127
21
-134.072
0
LINE
8
BLACK
6
CONTINUOUS
10
303.127
20
-134.072
11
303.181
21
-134.153
0
LINE
8
BLACK
6
CONTINUOUS
10
303.181
20
-134.153
11
303.2
21
-134.249
0
LINE
8
BLACK
6
CONTINUOUS
10
303.2
20
-134.249
11
303.2
21
-135.499
0
LINE
8
BLACK
6
CONTINUOUS
10
303.2
20
-135.499
11
303.181
21
-135.595
0
LINE
8
BLACK
6
CONTINUOUS
10
303.181
20
-135.595
11
303.127
21
-135.676
0
LINE
8
BLACK
6
CONTINUOUS
10
303.127
20
-135.676
11
303.046
21
-135.73
0
LINE
8
BLACK
6
CONTINUOUS
10
303.046
20
-135.73
11
302.95
21
-135.749
0
LINE
8
BLACK
6
CONTINUOUS
10
302.95
20
-135.749
11
302.15
21
-135.749
0
LINE
8
BLACK
6
CONTINUOUS
10
302.15
20
-135.749
11
302.054
21
-135.73
0
LINE
8
BLACK
6
CONTINUOUS
10
302.054
20
-135.73
11
301.973
21
-135.676
0
LINE
8
BLACK
6
CONTINUOUS
10
301.973
20
-135.676
11
301.919
21
-135.595
0
LINE
8
BLACK
6
CONTINUOUS
10
301.919
20
-135.595
11
301.9
21
-135.499
0
LINE
8
BLACK
6
CONTINUOUS
10
301.9
20
-135.499
11
301.9
21
-134.249
0
LINE
8
BLACK
6
CONTINUOUS
10
301.9
20
-134.249
11
301.919
21
-134.153
0
LINE
8
BLACK
6
CONTINUOUS
10
301.919
20
-134.153
11
301.973
21
-134.072
0
LINE
8
BLACK
6
CONTINUOUS
10
301.973
20
-134.072
11
302.054
21
-134.018
0
LINE
8
BLACK
6
CONTINUOUS
10
302.054
20
-134.018
11
302.15
21
-133.999
0
LINE
8
BLACK
6
CONTINUOUS
10
302.15
20
-133.999
11
302.95
21
-133.999
0
LINE
8
BLACK
6
CONTINUOUS
10
302.95
20
-133.999
11
303.046
21
-134.018
0
LINE
8
BLACK
6
CONTINUOUS
10
333.972
20
-134.018
11
334.053
21
-134.072
0
LINE
8
BLACK
6
CONTINUOUS
10
334.053
20
-134.072
11
334.107
21
-134.153
0
LINE
8
BLACK
6
CONTINUOUS
10
334.107
20
-134.153
11
334.126
21
-134.249
0
LINE
8
BLACK
6
CONTINUOUS
10
334.126
20
-134.249
11
334.126
21
-135.499
0
LINE
8
BLACK
6
CONTINUOUS
10
334.126
20
-135.499
11
334.107
21
-135.595
0
LINE
8
BLACK
6
CONTINUOUS
10
334.107
20
-135.595
11
334.053
21
-135.676
0
LINE
8
BLACK
6
CONTINUOUS
10
334.053
20
-135.676
11
333.972
21
-135.73
0
LINE
8
BLACK
6
CONTINUOUS
10
333.972
20
-135.73
11
333.876
21
-135.749
0
LINE
8
BLACK
6
CONTINUOUS
10
333.876
20
-135.749
11
333.076
21
-135.749
0
LINE
8
BLACK
6
CONTINUOUS
10
333.076
20
-135.749
11
332.98
21
-135.73
0
LINE
8
BLACK
6
CONTINUOUS
10
332.98
20
-135.73
11
332.899
21
-135.676
0
LINE
8
BLACK
6
CONTINUOUS
10
332.899
20
-135.676
11
332.845
21
-135.595
0
LINE
8
BLACK
6
CONTINUOUS
10
332.845
20
-135.595
11
332.826
21
-135.499
0
LINE
8
BLACK
6
CONTINUOUS
10
332.826
20
-135.499
11
332.826
21
-134.249
0
LINE
8
BLACK
6
CONTINUOUS
10
332.826
20
-134.249
11
332.845
21
-134.153
0
LINE
8
BLACK
6
CONTINUOUS
10
332.845
20
-134.153
11
332.899
21
-134.072
0
LINE
8
BLACK
6
CONTINUOUS
10
332.899
20
-134.072
11
332.98
21
-134.018
0
LINE
8
BLACK
6
CONTINUOUS
10
332.98
20
-134.018
11
333.076
21
-133.999
0
LINE
8
BLACK
6
CONTINUOUS
10
333.076
20
-133.999
11
333.876
21
-133.999
0
LINE
8
BLACK
6
CONTINUOUS
10
333.876
20
-133.999
11
333.972
21
-134.018
0
LINE
8
BLACK
6
CONTINUOUS
10
337.072
20
-134.018
11
337.153
21
-134.072
0
LINE
8
BLACK
6
CONTINUOUS
10
337.153
20
-134.072
11
337.207
21
-134.153
0
LINE
8
BLACK
6
CONTINUOUS
10
337.207
20
-134.153
11
337.226
21
-134.249
0
LINE
8
BLACK
6
CONTINUOUS
10
337.226
20
-134.249
11
337.226
21
-135.499
0
LINE
8
BLACK
6
CONTINUOUS
10
337.226
20
-135.499
11
337.207
21
-135.595
0
LINE
8
BLACK
6
CONTINUOUS
10
337.207
20
-135.595
11
337.153
21
-135.676
0
LINE
8
BLACK
6
CONTINUOUS
10
337.153
20
-135.676
11
337.072
21
-135.73
0
LINE
8
BLACK
6
CONTINUOUS
10
337.072
20
-135.73
11
336.976
21
-135.749
0
LINE
8
BLACK
6
CONTINUOUS
10
336.976
20
-135.749
11
336.176
21
-135.749
0
LINE
8
BLACK
6
CONTINUOUS
10
336.176
20
-135.749
11
336.08
21
-135.73
0
LINE
8
BLACK
6
CONTINUOUS
10
336.08
20
-135.73
11
335.999
21
-135.676
0
LINE
8
BLACK
6
CONTINUOUS
10
335.999
20
-135.676
11
335.945
21
-135.595
0
LINE
8
BLACK
6
CONTINUOUS
10
335.945
20
-135.595
11
335.926
21
-135.499
0
LINE
8
BLACK
6
CONTINUOUS
10
335.926
20
-135.499
11
335.926
21
-134.249
0
LINE
8
BLACK
6
CONTINUOUS
10
335.926
20
-134.249
11
335.945
21
-134.153
0
LINE
8
BLACK
6
CONTINUOUS
10
335.945
20
-134.153
11
335.999
21
-134.072
0
LINE
8
BLACK
6
CONTINUOUS
10
335.999
20
-134.072
11
336.08
21
-134.018
0
LINE
8
BLACK
6
CONTINUOUS
10
336.08
20
-134.018
11
336.176
21
-133.999
0
LINE
8
BLACK
6
CONTINUOUS
10
336.176
20
-133.999
11
336.976
21
-133.999
0
LINE
8
BLACK
6
CONTINUOUS
10
336.976
20
-133.999
11
337.072
21
-134.018
0
LINE
8
BLACK
6
CONTINUOUS
10
347.18
20
-118.778
11
347.261
21
-118.832
0
LINE
8
BLACK
6
CONTINUOUS
10
347.261
20
-118.832
11
347.315
21
-118.913
0
LINE
8
BLACK
6
CONTINUOUS
10
347.315
20
-118.913
11
347.334
21
-119.009
0
LINE
8
BLACK
6
CONTINUOUS
10
347.334
20
-119.009
11
347.334
21
-120.259
0
LINE
8
BLACK
6
CONTINUOUS
10
347.334
20
-120.259
11
347.315
21
-120.355
0
LINE
8
BLACK
6
CONTINUOUS
10
347.315
20
-120.355
11
347.261
21
-120.436
0
LINE
8
BLACK
6
CONTINUOUS
10
347.261
20
-120.436
11
347.18
21
-120.49
0
LINE
8
BLACK
6
CONTINUOUS
10
347.18
20
-120.49
11
347.084
21
-120.509
0
LINE
8
BLACK
6
CONTINUOUS
10
347.084
20
-120.509
11
346.284
21
-120.509
0
LINE
8
BLACK
6
CONTINUOUS
10
346.284
20
-120.509
11
346.188
21
-120.49
0
LINE
8
BLACK
6
CONTINUOUS
10
346.188
20
-120.49
11
346.107
21
-120.436
0
LINE
8
BLACK
6
CONTINUOUS
10
346.107
20
-120.436
11
346.053
21
-120.355
0
LINE
8
BLACK
6
CONTINUOUS
10
346.053
20
-120.355
11
346.034
21
-120.259
0
LINE
8
BLACK
6
CONTINUOUS
10
346.034
20
-120.259
11
346.034
21
-119.009
0
LINE
8
BLACK
6
CONTINUOUS
10
346.034
20
-119.009
11
346.053
21
-118.913
0
LINE
8
BLACK
6
CONTINUOUS
10
346.053
20
-118.913
11
346.107
21
-118.832
0
LINE
8
BLACK
6
CONTINUOUS
10
346.107
20
-118.832
11
346.188
21
-118.778
0
LINE
8
BLACK
6
CONTINUOUS
10
346.188
20
-118.778
11
346.284
21
-118.759
0
LINE
8
BLACK
6
CONTINUOUS
10
346.284
20
-118.759
11
347.084
21
-118.759
0
LINE
8
BLACK
6
CONTINUOUS
10
347.084
20
-118.759
11
347.18
21
-118.778
0
LINE
8
BLACK
6
CONTINUOUS
10
359.398
20
-118.778
11
359.479
21
-118.832
0
LINE
8
BLACK
6
CONTINUOUS
10
359.479
20
-118.832
11
359.533
21
-118.913
0
LINE
8
BLACK
6
CONTINUOUS
10
359.533
20
-118.913
11
359.552
21
-119.009
0
LINE
8
BLACK
6
CONTINUOUS
10
359.552
20
-119.009
11
359.552
21
-120.259
0
LINE
8
BLACK
6
CONTINUOUS
10
359.552
20
-120.259
11
359.533
21
-120.355
0
LINE
8
BLACK
6
CONTINUOUS
10
359.533
20
-120.355
11
359.479
21
-120.436
0
LINE
8
BLACK
6
CONTINUOUS
10
359.479
20
-120.436
11
359.398
21
-120.49
0
LINE
8
BLACK
6
CONTINUOUS
10
359.398
20
-120.49
11
359.302
21
-120.509
0
LINE
8
BLACK
6
CONTINUOUS
10
359.302
20
-120.509
11
358.502
21
-120.509
0
LINE
8
BLACK
6
CONTINUOUS
10
358.502
20
-120.509
11
358.406
21
-120.49
0
LINE
8
BLACK
6
CONTINUOUS
10
358.406
20
-120.49
11
358.325
21
-120.436
0
LINE
8
BLACK
6
CONTINUOUS
10
358.325
20
-120.436
11
358.271
21
-120.355
0
LINE
8
BLACK
6
CONTINUOUS
10
358.271
20
-120.355
11
358.252
21
-120.259
0
LINE
8
BLACK
6
CONTINUOUS
10
358.252
20
-120.259
11
358.252
21
-119.009
0
LINE
8
BLACK
6
CONTINUOUS
10
358.252
20
-119.009
11
358.271
21
-118.913
0
LINE
8
BLACK
6
CONTINUOUS
10
358.271
20
-118.913
11
358.325
21
-118.832
0
LINE
8
BLACK
6
CONTINUOUS
10
358.325
20
-118.832
11
358.406
21
-118.778
0
LINE
8
BLACK
6
CONTINUOUS
10
358.406
20
-118.778
11
358.502
21
-118.759
0
LINE
8
BLACK
6
CONTINUOUS
10
358.502
20
-118.759
11
359.302
21
-118.759
0
LINE
8
BLACK
6
CONTINUOUS
10
359.302
20
-118.759
11
359.398
21
-118.778
0
LINE
8
BLACK
6
CONTINUOUS
10
362.498
20
-118.778
11
362.579
21
-118.832
0
LINE
8
BLACK
6
CONTINUOUS
10
362.579
20
-118.832
11
362.633
21
-118.913
0
LINE
8
BLACK
6
CONTINUOUS
10
362.633
20
-118.913
11
362.652
21
-119.009
0
LINE
8
BLACK
6
CONTINUOUS
10
362.652
20
-119.009
11
362.652
21
-120.259
0
LINE
8
BLACK
6
CONTINUOUS
10
362.652
20
-120.259
11
362.633
21
-120.355
0
LINE
8
BLACK
6
CONTINUOUS
10
362.633
20
-120.355
11
362.579
21
-120.436
0
LINE
8
BLACK
6
CONTINUOUS
10
362.579
20
-120.436
11
362.498
21
-120.49
0
LINE
8
BLACK
6
CONTINUOUS
10
362.498
20
-120.49
11
362.402
21
-120.509
0
LINE
8
BLACK
6
CONTINUOUS
10
362.402
20
-120.509
11
361.602
21
-120.509
0
LINE
8
BLACK
6
CONTINUOUS
10
361.602
20
-120.509
11
361.506
21
-120.49
0
LINE
8
BLACK
6
CONTINUOUS
10
361.506
20
-120.49
11
361.425
21
-120.436
0
LINE
8
BLACK
6
CONTINUOUS
10
361.425
20
-120.436
11
361.371
21
-120.355
0
LINE
8
BLACK
6
CONTINUOUS
10
361.371
20
-120.355
11
361.352
21
-120.259
0
LINE
8
BLACK
6
CONTINUOUS
10
361.352
20
-120.259
11
361.352
21
-119.009
0
LINE
8
BLACK
6
CONTINUOUS
10
361.352
20
-119.009
11
361.371
21
-118.913
0
LINE
8
BLACK
6
CONTINUOUS
10
361.371
20
-118.913
11
361.425
21
-118.832
0
LINE
8
BLACK
6
CONTINUOUS
10
361.425
20
-118.832
11
361.506
21
-118.778
0
LINE
8
BLACK
6
CONTINUOUS
10
361.506
20
-118.778
11
361.602
21
-118.759
0
LINE
8
BLACK
6
CONTINUOUS
10
361.602
20
-118.759
11
362.402
21
-118.759
0
LINE
8
BLACK
6
CONTINUOUS
10
362.402
20
-118.759
11
362.498
21
-118.778
0
LINE
8
BLACK
6
CONTINUOUS
10
350.28
20
-118.778
11
350.361
21
-118.832
0
LINE
8
BLACK
6
CONTINUOUS
10
350.361
20
-118.832
11
350.415
21
-118.913
0
LINE
8
BLACK
6
CONTINUOUS
10
350.415
20
-118.913
11
350.434
21
-119.009
0
LINE
8
BLACK
6
CONTINUOUS
10
350.434
20
-119.009
11
350.434
21
-120.259
0
LINE
8
BLACK
6
CONTINUOUS
10
350.434
20
-120.259
11
350.415
21
-120.355
0
LINE
8
BLACK
6
CONTINUOUS
10
350.415
20
-120.355
11
350.361
21
-120.436
0
LINE
8
BLACK
6
CONTINUOUS
10
350.361
20
-120.436
11
350.28
21
-120.49
0
LINE
8
BLACK
6
CONTINUOUS
10
350.28
20
-120.49
11
350.184
21
-120.509
0
LINE
8
BLACK
6
CONTINUOUS
10
350.184
20
-120.509
11
349.384
21
-120.509
0
LINE
8
BLACK
6
CONTINUOUS
10
349.384
20
-120.509
11
349.288
21
-120.49
0
LINE
8
BLACK
6
CONTINUOUS
10
349.288
20
-120.49
11
349.207
21
-120.436
0
LINE
8
BLACK
6
CONTINUOUS
10
349.207
20
-120.436
11
349.153
21
-120.355
0
LINE
8
BLACK
6
CONTINUOUS
10
349.153
20
-120.355
11
349.134
21
-120.259
0
LINE
8
BLACK
6
CONTINUOUS
10
349.134
20
-120.259
11
349.134
21
-119.009
0
LINE
8
BLACK
6
CONTINUOUS
10
349.134
20
-119.009
11
349.153
21
-118.913
0
LINE
8
BLACK
6
CONTINUOUS
10
349.153
20
-118.913
11
349.207
21
-118.832
0
LINE
8
BLACK
6
CONTINUOUS
10
349.207
20
-118.832
11
349.288
21
-118.778
0
LINE
8
BLACK
6
CONTINUOUS
10
349.288
20
-118.778
11
349.384
21
-118.759
0
LINE
8
BLACK
6
CONTINUOUS
10
349.384
20
-118.759
11
350.184
21
-118.759
0
LINE
8
BLACK
6
CONTINUOUS
10
350.184
20
-118.759
11
350.28
21
-118.778
0
LINE
8
BLACK
6
CONTINUOUS
10
350.28
20
-113.698
11
350.361
21
-113.752
0
LINE
8
BLACK
6
CONTINUOUS
10
350.361
20
-113.752
11
350.415
21
-113.833
0
LINE
8
BLACK
6
CONTINUOUS
10
350.415
20
-113.833
11
350.434
21
-113.929
0
LINE
8
BLACK
6
CONTINUOUS
10
350.434
20
-113.929
11
350.434
21
-115.179
0
LINE
8
BLACK
6
CONTINUOUS
10
350.434
20
-115.179
11
350.415
21
-115.275
0
LINE
8
BLACK
6
CONTINUOUS
10
350.415
20
-115.275
11
350.361
21
-115.356
0
LINE
8
BLACK
6
CONTINUOUS
10
350.361
20
-115.356
11
350.28
21
-115.41
0
LINE
8
BLACK
6
CONTINUOUS
10
350.28
20
-115.41
11
350.184
21
-115.429
0
LINE
8
BLACK
6
CONTINUOUS
10
350.184
20
-115.429
11
349.384
21
-115.429
0
LINE
8
BLACK
6
CONTINUOUS
10
349.384
20
-115.429
11
349.288
21
-115.41
0
LINE
8
BLACK
6
CONTINUOUS
10
349.288
20
-115.41
11
349.207
21
-115.356
0
LINE
8
BLACK
6
CONTINUOUS
10
349.207
20
-115.356
11
349.153
21
-115.275
0
LINE
8
BLACK
6
CONTINUOUS
10
349.153
20
-115.275
11
349.134
21
-115.179
0
LINE
8
BLACK
6
CONTINUOUS
10
349.134
20
-115.179
11
349.134
21
-113.929
0
LINE
8
BLACK
6
CONTINUOUS
10
349.134
20
-113.929
11
349.153
21
-113.833
0
LINE
8
BLACK
6
CONTINUOUS
10
349.153
20
-113.833
11
349.207
21
-113.752
0
LINE
8
BLACK
6
CONTINUOUS
10
349.207
20
-113.752
11
349.288
21
-113.698
0
LINE
8
BLACK
6
CONTINUOUS
10
349.288
20
-113.698
11
349.384
21
-113.679
0
LINE
8
BLACK
6
CONTINUOUS
10
349.384
20
-113.679
11
350.184
21
-113.679
0
LINE
8
BLACK
6
CONTINUOUS
10
350.184
20
-113.679
11
350.28
21
-113.698
0
LINE
8
BLACK
6
CONTINUOUS
10
347.18
20
-113.698
11
347.261
21
-113.752
0
LINE
8
BLACK
6
CONTINUOUS
10
347.261
20
-113.752
11
347.315
21
-113.833
0
LINE
8
BLACK
6
CONTINUOUS
10
347.315
20
-113.833
11
347.334
21
-113.929
0
LINE
8
BLACK
6
CONTINUOUS
10
347.334
20
-113.929
11
347.334
21
-115.179
0
LINE
8
BLACK
6
CONTINUOUS
10
347.334
20
-115.179
11
347.315
21
-115.275
0
LINE
8
BLACK
6
CONTINUOUS
10
347.315
20
-115.275
11
347.261
21
-115.356
0
LINE
8
BLACK
6
CONTINUOUS
10
347.261
20
-115.356
11
347.18
21
-115.41
0
LINE
8
BLACK
6
CONTINUOUS
10
347.18
20
-115.41
11
347.084
21
-115.429
0
LINE
8
BLACK
6
CONTINUOUS
10
347.084
20
-115.429
11
346.284
21
-115.429
0
LINE
8
BLACK
6
CONTINUOUS
10
346.284
20
-115.429
11
346.188
21
-115.41
0
LINE
8
BLACK
6
CONTINUOUS
10
346.188
20
-115.41
11
346.107
21
-115.356
0
LINE
8
BLACK
6
CONTINUOUS
10
346.107
20
-115.356
11
346.053
21
-115.275
0
LINE
8
BLACK
6
CONTINUOUS
10
346.053
20
-115.275
11
346.034
21
-115.179
0
LINE
8
BLACK
6
CONTINUOUS
10
346.034
20
-115.179
11
346.034
21
-113.929
0
LINE
8
BLACK
6
CONTINUOUS
10
346.034
20
-113.929
11
346.053
21
-113.833
0
LINE
8
BLACK
6
CONTINUOUS
10
346.053
20
-113.833
11
346.107
21
-113.752
0
LINE
8
BLACK
6
CONTINUOUS
10
346.107
20
-113.752
11
346.188
21
-113.698
0
LINE
8
BLACK
6
CONTINUOUS
10
346.188
20
-113.698
11
346.284
21
-113.679
0
LINE
8
BLACK
6
CONTINUOUS
10
346.284
20
-113.679
11
347.084
21
-113.679
0
LINE
8
BLACK
6
CONTINUOUS
10
347.084
20
-113.679
11
347.18
21
-113.698
0
LINE
8
BLACK
6
CONTINUOUS
10
362.498
20
-113.698
11
362.579
21
-113.752
0
LINE
8
BLACK
6
CONTINUOUS
10
362.579
20
-113.752
11
362.633
21
-113.833
0
LINE
8
BLACK
6
CONTINUOUS
10
362.633
20
-113.833
11
362.652
21
-113.929
0
LINE
8
BLACK
6
CONTINUOUS
10
362.652
20
-113.929
11
362.652
21
-115.179
0
LINE
8
BLACK
6
CONTINUOUS
10
362.652
20
-115.179
11
362.633
21
-115.275
0
LINE
8
BLACK
6
CONTINUOUS
10
362.633
20
-115.275
11
362.579
21
-115.356
0
LINE
8
BLACK
6
CONTINUOUS
10
362.579
20
-115.356
11
362.498
21
-115.41
0
LINE
8
BLACK
6
CONTINUOUS
10
362.498
20
-115.41
11
362.402
21
-115.429
0
LINE
8
BLACK
6
CONTINUOUS
10
362.402
20
-115.429
11
361.602
21
-115.429
0
LINE
8
BLACK
6
CONTINUOUS
10
361.602
20
-115.429
11
361.506
21
-115.41
0
LINE
8
BLACK
6
CONTINUOUS
10
361.506
20
-115.41
11
361.425
21
-115.356
0
LINE
8
BLACK
6
CONTINUOUS
10
361.425
20
-115.356
11
361.371
21
-115.275
0
LINE
8
BLACK
6
CONTINUOUS
10
361.371
20
-115.275
11
361.352
21
-115.179
0
LINE
8
BLACK
6
CONTINUOUS
10
361.352
20
-115.179
11
361.352
21
-113.929
0
LINE
8
BLACK
6
CONTINUOUS
10
361.352
20
-113.929
11
361.371
21
-113.833
0
LINE
8
BLACK
6
CONTINUOUS
10
361.371
20
-113.833
11
361.425
21
-113.752
0
LINE
8
BLACK
6
CONTINUOUS
10
361.425
20
-113.752
11
361.506
21
-113.698
0
LINE
8
BLACK
6
CONTINUOUS
10
361.506
20
-113.698
11
361.602
21
-113.679
0
LINE
8
BLACK
6
CONTINUOUS
10
361.602
20
-113.679
11
362.402
21
-113.679
0
LINE
8
BLACK
6
CONTINUOUS
10
362.402
20
-113.679
11
362.498
21
-113.698
0
LINE
8
BLACK
6
CONTINUOUS
10
359.398
20
-113.698
11
359.479
21
-113.752
0
LINE
8
BLACK
6
CONTINUOUS
10
359.479
20
-113.752
11
359.533
21
-113.833
0
LINE
8
BLACK
6
CONTINUOUS
10
359.533
20
-113.833
11
359.552
21
-113.929
0
LINE
8
BLACK
6
CONTINUOUS
10
359.552
20
-113.929
11
359.552
21
-115.179
0
LINE
8
BLACK
6
CONTINUOUS
10
359.552
20
-115.179
11
359.533
21
-115.275
0
LINE
8
BLACK
6
CONTINUOUS
10
359.533
20
-115.275
11
359.479
21
-115.356
0
LINE
8
BLACK
6
CONTINUOUS
10
359.479
20
-115.356
11
359.398
21
-115.41
0
LINE
8
BLACK
6
CONTINUOUS
10
359.398
20
-115.41
11
359.302
21
-115.429
0
LINE
8
BLACK
6
CONTINUOUS
10
359.302
20
-115.429
11
358.502
21
-115.429
0
LINE
8
BLACK
6
CONTINUOUS
10
358.502
20
-115.429
11
358.406
21
-115.41
0
LINE
8
BLACK
6
CONTINUOUS
10
358.406
20
-115.41
11
358.325
21
-115.356
0
LINE
8
BLACK
6
CONTINUOUS
10
358.325
20
-115.356
11
358.271
21
-115.275
0
LINE
8
BLACK
6
CONTINUOUS
10
358.271
20
-115.275
11
358.252
21
-115.179
0
LINE
8
BLACK
6
CONTINUOUS
10
358.252
20
-115.179
11
358.252
21
-113.929
0
LINE
8
BLACK
6
CONTINUOUS
10
358.252
20
-113.929
11
358.271
21
-113.833
0
LINE
8
BLACK
6
CONTINUOUS
10
358.271
20
-113.833
11
358.325
21
-113.752
0
LINE
8
BLACK
6
CONTINUOUS
10
358.325
20
-113.752
11
358.406
21
-113.698
0
LINE
8
BLACK
6
CONTINUOUS
10
358.406
20
-113.698
11
358.502
21
-113.679
0
LINE
8
BLACK
6
CONTINUOUS
10
358.502
20
-113.679
11
359.302
21
-113.679
0
LINE
8
BLACK
6
CONTINUOUS
10
359.302
20
-113.679
11
359.398
21
-113.698
0
LINE
8
BLACK
6
CONTINUOUS
10
347.18
20
-108.618
11
347.261
21
-108.672
0
LINE
8
BLACK
6
CONTINUOUS
10
347.261
20
-108.672
11
347.315
21
-108.753
0
LINE
8
BLACK
6
CONTINUOUS
10
347.315
20
-108.753
11
347.334
21
-108.849
0
LINE
8
BLACK
6
CONTINUOUS
10
347.334
20
-108.849
11
347.334
21
-110.099
0
LINE
8
BLACK
6
CONTINUOUS
10
347.334
20
-110.099
11
347.315
21
-110.195
0
LINE
8
BLACK
6
CONTINUOUS
10
347.315
20
-110.195
11
347.261
21
-110.276
0
LINE
8
BLACK
6
CONTINUOUS
10
347.261
20
-110.276
11
347.18
21
-110.33
0
LINE
8
BLACK
6
CONTINUOUS
10
347.18
20
-110.33
11
347.084
21
-110.349
0
LINE
8
BLACK
6
CONTINUOUS
10
347.084
20
-110.349
11
346.284
21
-110.349
0
LINE
8
BLACK
6
CONTINUOUS
10
346.284
20
-110.349
11
346.188
21
-110.33
0
LINE
8
BLACK
6
CONTINUOUS
10
346.188
20
-110.33
11
346.107
21
-110.276
0
LINE
8
BLACK
6
CONTINUOUS
10
346.107
20
-110.276
11
346.053
21
-110.195
0
LINE
8
BLACK
6
CONTINUOUS
10
346.053
20
-110.195
11
346.034
21
-110.099
0
LINE
8
BLACK
6
CONTINUOUS
10
346.034
20
-110.099
11
346.034
21
-108.849
0
LINE
8
BLACK
6
CONTINUOUS
10
346.034
20
-108.849
11
346.053
21
-108.753
0
LINE
8
BLACK
6
CONTINUOUS
10
346.053
20
-108.753
11
346.107
21
-108.672
0
LINE
8
BLACK
6
CONTINUOUS
10
346.107
20
-108.672
11
346.188
21
-108.618
0
LINE
8
BLACK
6
CONTINUOUS
10
346.188
20
-108.618
11
346.284
21
-108.599
0
LINE
8
BLACK
6
CONTINUOUS
10
346.284
20
-108.599
11
347.084
21
-108.599
0
LINE
8
BLACK
6
CONTINUOUS
10
347.084
20
-108.599
11
347.18
21
-108.618
0
LINE
8
BLACK
6
CONTINUOUS
10
362.498
20
-108.618
11
362.579
21
-108.672
0
LINE
8
BLACK
6
CONTINUOUS
10
362.579
20
-108.672
11
362.633
21
-108.753
0
LINE
8
BLACK
6
CONTINUOUS
10
362.633
20
-108.753
11
362.652
21
-108.849
0
LINE
8
BLACK
6
CONTINUOUS
10
362.652
20
-108.849
11
362.652
21
-110.099
0
LINE
8
BLACK
6
CONTINUOUS
10
362.652
20
-110.099
11
362.633
21
-110.195
0
LINE
8
BLACK
6
CONTINUOUS
10
362.633
20
-110.195
11
362.579
21
-110.276
0
LINE
8
BLACK
6
CONTINUOUS
10
362.579
20
-110.276
11
362.498
21
-110.33
0
LINE
8
BLACK
6
CONTINUOUS
10
362.498
20
-110.33
11
362.402
21
-110.349
0
LINE
8
BLACK
6
CONTINUOUS
10
362.402
20
-110.349
11
361.602
21
-110.349
0
LINE
8
BLACK
6
CONTINUOUS
10
361.602
20
-110.349
11
361.506
21
-110.33
0
LINE
8
BLACK
6
CONTINUOUS
10
361.506
20
-110.33
11
361.425
21
-110.276
0
LINE
8
BLACK
6
CONTINUOUS
10
361.425
20
-110.276
11
361.371
21
-110.195
0
LINE
8
BLACK
6
CONTINUOUS
10
361.371
20
-110.195
11
361.352
21
-110.099
0
LINE
8
BLACK
6
CONTINUOUS
10
361.352
20
-110.099
11
361.352
21
-108.849
0
LINE
8
BLACK
6
CONTINUOUS
10
361.352
20
-108.849
11
361.371
21
-108.753
0
LINE
8
BLACK
6
CONTINUOUS
10
361.371
20
-108.753
11
361.425
21
-108.672
0
LINE
8
BLACK
6
CONTINUOUS
10
361.425
20
-108.672
11
361.506
21
-108.618
0
LINE
8
BLACK
6
CONTINUOUS
10
361.506
20
-108.618
11
361.602
21
-108.599
0
LINE
8
BLACK
6
CONTINUOUS
10
361.602
20
-108.599
11
362.402
21
-108.599
0
LINE
8
BLACK
6
CONTINUOUS
10
362.402
20
-108.599
11
362.498
21
-108.618
0
LINE
8
BLACK
6
CONTINUOUS
10
359.398
20
-108.618
11
359.479
21
-108.672
0
LINE
8
BLACK
6
CONTINUOUS
10
359.479
20
-108.672
11
359.533
21
-108.753
0
LINE
8
BLACK
6
CONTINUOUS
10
359.533
20
-108.753
11
359.552
21
-108.849
0
LINE
8
BLACK
6
CONTINUOUS
10
359.552
20
-108.849
11
359.552
21
-110.099
0
LINE
8
BLACK
6
CONTINUOUS
10
359.552
20
-110.099
11
359.533
21
-110.195
0
LINE
8
BLACK
6
CONTINUOUS
10
359.533
20
-110.195
11
359.479
21
-110.276
0
LINE
8
BLACK
6
CONTINUOUS
10
359.479
20
-110.276
11
359.398
21
-110.33
0
LINE
8
BLACK
6
CONTINUOUS
10
359.398
20
-110.33
11
359.302
21
-110.349
0
LINE
8
BLACK
6
CONTINUOUS
10
359.302
20
-110.349
11
358.502
21
-110.349
0
LINE
8
BLACK
6
CONTINUOUS
10
358.502
20
-110.349
11
358.406
21
-110.33
0
LINE
8
BLACK
6
CONTINUOUS
10
358.406
20
-110.33
11
358.325
21
-110.276
0
LINE
8
BLACK
6
CONTINUOUS
10
358.325
20
-110.276
11
358.271
21
-110.195
0
LINE
8
BLACK
6
CONTINUOUS
10
358.271
20
-110.195
11
358.252
21
-110.099
0
LINE
8
BLACK
6
CONTINUOUS
10
358.252
20
-110.099
11
358.252
21
-108.849
0
LINE
8
BLACK
6
CONTINUOUS
10
358.252
20
-108.849
11
358.271
21
-108.753
0
LINE
8
BLACK
6
CONTINUOUS
10
358.271
20
-108.753
11
358.325
21
-108.672
0
LINE
8
BLACK
6
CONTINUOUS
10
358.325
20
-108.672
11
358.406
21
-108.618
0
LINE
8
BLACK
6
CONTINUOUS
10
358.406
20
-108.618
11
358.502
21
-108.599
0
LINE
8
BLACK
6
CONTINUOUS
10
358.502
20
-108.599
11
359.302
21
-108.599
0
LINE
8
BLACK
6
CONTINUOUS
10
359.302
20
-108.599
11
359.398
21
-108.618
0
LINE
8
BLACK
6
CONTINUOUS
10
350.28
20
-108.618
11
350.361
21
-108.672
0
LINE
8
BLACK
6
CONTINUOUS
10
350.361
20
-108.672
11
350.415
21
-108.753
0
LINE
8
BLACK
6
CONTINUOUS
10
350.415
20
-108.753
11
350.434
21
-108.849
0
LINE
8
BLACK
6
CONTINUOUS
10
350.434
20
-108.849
11
350.434
21
-110.099
0
LINE
8
BLACK
6
CONTINUOUS
10
350.434
20
-110.099
11
350.415
21
-110.195
0
LINE
8
BLACK
6
CONTINUOUS
10
350.415
20
-110.195
11
350.361
21
-110.276
0
LINE
8
BLACK
6
CONTINUOUS
10
350.361
20
-110.276
11
350.28
21
-110.33
0
LINE
8
BLACK
6
CONTINUOUS
10
350.28
20
-110.33
11
350.184
21
-110.349
0
LINE
8
BLACK
6
CONTINUOUS
10
350.184
20
-110.349
11
349.384
21
-110.349
0
LINE
8
BLACK
6
CONTINUOUS
10
349.384
20
-110.349
11
349.288
21
-110.33
0
LINE
8
BLACK
6
CONTINUOUS
10
349.288
20
-110.33
11
349.207
21
-110.276
0
LINE
8
BLACK
6
CONTINUOUS
10
349.207
20
-110.276
11
349.153
21
-110.195
0
LINE
8
BLACK
6
CONTINUOUS
10
349.153
20
-110.195
11
349.134
21
-110.099
0
LINE
8
BLACK
6
CONTINUOUS
10
349.134
20
-110.099
11
349.134
21
-108.849
0
LINE
8
BLACK
6
CONTINUOUS
10
349.134
20
-108.849
11
349.153
21
-108.753
0
LINE
8
BLACK
6
CONTINUOUS
10
349.153
20
-108.753
11
349.207
21
-108.672
0
LINE
8
BLACK
6
CONTINUOUS
10
349.207
20
-108.672
11
349.288
21
-108.618
0
LINE
8
BLACK
6
CONTINUOUS
10
349.288
20
-108.618
11
349.384
21
-108.599
0
LINE
8
BLACK
6
CONTINUOUS
10
349.384
20
-108.599
11
350.184
21
-108.599
0
LINE
8
BLACK
6
CONTINUOUS
10
350.184
20
-108.599
11
350.28
21
-108.618
0
LINE
8
BLACK
6
CONTINUOUS
10
347.18
20
-103.538
11
347.261
21
-103.592
0
LINE
8
BLACK
6
CONTINUOUS
10
347.261
20
-103.592
11
347.315
21
-103.673
0
LINE
8
BLACK
6
CONTINUOUS
10
347.315
20
-103.673
11
347.334
21
-103.769
0
LINE
8
BLACK
6
CONTINUOUS
10
347.334
20
-103.769
11
347.334
21
-105.019
0
LINE
8
BLACK
6
CONTINUOUS
10
347.334
20
-105.019
11
347.315
21
-105.115
0
LINE
8
BLACK
6
CONTINUOUS
10
347.315
20
-105.115
11
347.261
21
-105.196
0
LINE
8
BLACK
6
CONTINUOUS
10
347.261
20
-105.196
11
347.18
21
-105.25
0
LINE
8
BLACK
6
CONTINUOUS
10
347.18
20
-105.25
11
347.084
21
-105.269
0
LINE
8
BLACK
6
CONTINUOUS
10
347.084
20
-105.269
11
346.284
21
-105.269
0
LINE
8
BLACK
6
CONTINUOUS
10
346.284
20
-105.269
11
346.188
21
-105.25
0
LINE
8
BLACK
6
CONTINUOUS
10
346.188
20
-105.25
11
346.107
21
-105.196
0
LINE
8
BLACK
6
CONTINUOUS
10
346.107
20
-105.196
11
346.053
21
-105.115
0
LINE
8
BLACK
6
CONTINUOUS
10
346.053
20
-105.115
11
346.034
21
-105.019
0
LINE
8
BLACK
6
CONTINUOUS
10
346.034
20
-105.019
11
346.034
21
-103.769
0
LINE
8
BLACK
6
CONTINUOUS
10
346.034
20
-103.769
11
346.053
21
-103.673
0
LINE
8
BLACK
6
CONTINUOUS
10
346.053
20
-103.673
11
346.107
21
-103.592
0
LINE
8
BLACK
6
CONTINUOUS
10
346.107
20
-103.592
11
346.188
21
-103.538
0
LINE
8
BLACK
6
CONTINUOUS
10
346.188
20
-103.538
11
346.284
21
-103.519
0
LINE
8
BLACK
6
CONTINUOUS
10
346.284
20
-103.519
11
347.084
21
-103.519
0
LINE
8
BLACK
6
CONTINUOUS
10
347.084
20
-103.519
11
347.18
21
-103.538
0
LINE
8
BLACK
6
CONTINUOUS
10
350.28
20
-103.538
11
350.361
21
-103.592
0
LINE
8
BLACK
6
CONTINUOUS
10
350.361
20
-103.592
11
350.415
21
-103.673
0
LINE
8
BLACK
6
CONTINUOUS
10
350.415
20
-103.673
11
350.434
21
-103.769
0
LINE
8
BLACK
6
CONTINUOUS
10
350.434
20
-103.769
11
350.434
21
-105.019
0
LINE
8
BLACK
6
CONTINUOUS
10
350.434
20
-105.019
11
350.415
21
-105.115
0
LINE
8
BLACK
6
CONTINUOUS
10
350.415
20
-105.115
11
350.361
21
-105.196
0
LINE
8
BLACK
6
CONTINUOUS
10
350.361
20
-105.196
11
350.28
21
-105.25
0
LINE
8
BLACK
6
CONTINUOUS
10
350.28
20
-105.25
11
350.184
21
-105.269
0
LINE
8
BLACK
6
CONTINUOUS
10
350.184
20
-105.269
11
349.384
21
-105.269
0
LINE
8
BLACK
6
CONTINUOUS
10
349.384
20
-105.269
11
349.288
21
-105.25
0
LINE
8
BLACK
6
CONTINUOUS
10
349.288
20
-105.25
11
349.207
21
-105.196
0
LINE
8
BLACK
6
CONTINUOUS
10
349.207
20
-105.196
11
349.153
21
-105.115
0
LINE
8
BLACK
6
CONTINUOUS
10
349.153
20
-105.115
11
349.134
21
-105.019
0
LINE
8
BLACK
6
CONTINUOUS
10
349.134
20
-105.019
11
349.134
21
-103.769
0
LINE
8
BLACK
6
CONTINUOUS
10
349.134
20
-103.769
11
349.153
21
-103.673
0
LINE
8
BLACK
6
CONTINUOUS
10
349.153
20
-103.673
11
349.207
21
-103.592
0
LINE
8
BLACK
6
CONTINUOUS
10
349.207
20
-103.592
11
349.288
21
-103.538
0
LINE
8
BLACK
6
CONTINUOUS
10
349.288
20
-103.538
11
349.384
21
-103.519
0
LINE
8
BLACK
6
CONTINUOUS
10
349.384
20
-103.519
11
350.184
21
-103.519
0
LINE
8
BLACK
6
CONTINUOUS
10
350.184
20
-103.519
11
350.28
21
-103.538
0
LINE
8
BLACK
6
CONTINUOUS
10
362.446
20
-103.538
11
362.527
21
-103.592
0
LINE
8
BLACK
6
CONTINUOUS
10
362.527
20
-103.592
11
362.581
21
-103.673
0
LINE
8
BLACK
6
CONTINUOUS
10
362.581
20
-103.673
11
362.6
21
-103.769
0
LINE
8
BLACK
6
CONTINUOUS
10
362.6
20
-103.769
11
362.6
21
-105.019
0
LINE
8
BLACK
6
CONTINUOUS
10
362.6
20
-105.019
11
362.581
21
-105.115
0
LINE
8
BLACK
6
CONTINUOUS
10
362.581
20
-105.115
11
362.527
21
-105.196
0
LINE
8
BLACK
6
CONTINUOUS
10
362.527
20
-105.196
11
362.446
21
-105.25
0
LINE
8
BLACK
6
CONTINUOUS
10
362.446
20
-105.25
11
362.35
21
-105.269
0
LINE
8
BLACK
6
CONTINUOUS
10
362.35
20
-105.269
11
361.55
21
-105.269
0
LINE
8
BLACK
6
CONTINUOUS
10
361.55
20
-105.269
11
361.454
21
-105.25
0
LINE
8
BLACK
6
CONTINUOUS
10
361.454
20
-105.25
11
361.373
21
-105.196
0
LINE
8
BLACK
6
CONTINUOUS
10
361.373
20
-105.196
11
361.319
21
-105.115
0
LINE
8
BLACK
6
CONTINUOUS
10
361.319
20
-105.115
11
361.3
21
-105.019
0
LINE
8
BLACK
6
CONTINUOUS
10
361.3
20
-105.019
11
361.3
21
-103.769
0
LINE
8
BLACK
6
CONTINUOUS
10
361.3
20
-103.769
11
361.319
21
-103.673
0
LINE
8
BLACK
6
CONTINUOUS
10
361.319
20
-103.673
11
361.373
21
-103.592
0
LINE
8
BLACK
6
CONTINUOUS
10
361.373
20
-103.592
11
361.454
21
-103.538
0
LINE
8
BLACK
6
CONTINUOUS
10
361.454
20
-103.538
11
361.55
21
-103.519
0
LINE
8
BLACK
6
CONTINUOUS
10
361.55
20
-103.519
11
362.35
21
-103.519
0
LINE
8
BLACK
6
CONTINUOUS
10
362.35
20
-103.519
11
362.446
21
-103.538
0
LINE
8
BLACK
6
CONTINUOUS
10
359.346
20
-103.538
11
359.427
21
-103.592
0
LINE
8
BLACK
6
CONTINUOUS
10
359.427
20
-103.592
11
359.481
21
-103.673
0
LINE
8
BLACK
6
CONTINUOUS
10
359.481
20
-103.673
11
359.5
21
-103.769
0
LINE
8
BLACK
6
CONTINUOUS
10
359.5
20
-103.769
11
359.5
21
-105.019
0
LINE
8
BLACK
6
CONTINUOUS
10
359.5
20
-105.019
11
359.481
21
-105.115
0
LINE
8
BLACK
6
CONTINUOUS
10
359.481
20
-105.115
11
359.427
21
-105.196
0
LINE
8
BLACK
6
CONTINUOUS
10
359.427
20
-105.196
11
359.346
21
-105.25
0
LINE
8
BLACK
6
CONTINUOUS
10
359.346
20
-105.25
11
359.25
21
-105.269
0
LINE
8
BLACK
6
CONTINUOUS
10
359.25
20
-105.269
11
358.45
21
-105.269
0
LINE
8
BLACK
6
CONTINUOUS
10
358.45
20
-105.269
11
358.354
21
-105.25
0
LINE
8
BLACK
6
CONTINUOUS
10
358.354
20
-105.25
11
358.273
21
-105.196
0
LINE
8
BLACK
6
CONTINUOUS
10
358.273
20
-105.196
11
358.219
21
-105.115
0
LINE
8
BLACK
6
CONTINUOUS
10
358.219
20
-105.115
11
358.2
21
-105.019
0
LINE
8
BLACK
6
CONTINUOUS
10
358.2
20
-105.019
11
358.2
21
-103.769
0
LINE
8
BLACK
6
CONTINUOUS
10
358.2
20
-103.769
11
358.219
21
-103.673
0
LINE
8
BLACK
6
CONTINUOUS
10
358.219
20
-103.673
11
358.273
21
-103.592
0
LINE
8
BLACK
6
CONTINUOUS
10
358.273
20
-103.592
11
358.354
21
-103.538
0
LINE
8
BLACK
6
CONTINUOUS
10
358.354
20
-103.538
11
358.45
21
-103.519
0
LINE
8
BLACK
6
CONTINUOUS
10
358.45
20
-103.519
11
359.25
21
-103.519
0
LINE
8
BLACK
6
CONTINUOUS
10
359.25
20
-103.519
11
359.346
21
-103.538
0
LINE
8
BLACK
6
CONTINUOUS
10
347.18
20
-98.458
11
347.261
21
-98.5122
0
LINE
8
BLACK
6
CONTINUOUS
10
347.261
20
-98.5122
11
347.315
21
-98.5933
0
LINE
8
BLACK
6
CONTINUOUS
10
347.315
20
-98.5933
11
347.334
21
-98.689
0
LINE
8
BLACK
6
CONTINUOUS
10
347.334
20
-98.689
11
347.334
21
-99.939
0
LINE
8
BLACK
6
CONTINUOUS
10
347.334
20
-99.939
11
347.315
21
-100.035
0
LINE
8
BLACK
6
CONTINUOUS
10
347.315
20
-100.035
11
347.261
21
-100.116
0
LINE
8
BLACK
6
CONTINUOUS
10
347.261
20
-100.116
11
347.18
21
-100.17
0
LINE
8
BLACK
6
CONTINUOUS
10
347.18
20
-100.17
11
347.084
21
-100.189
0
LINE
8
BLACK
6
CONTINUOUS
10
347.084
20
-100.189
11
346.284
21
-100.189
0
LINE
8
BLACK
6
CONTINUOUS
10
346.284
20
-100.189
11
346.188
21
-100.17
0
LINE
8
BLACK
6
CONTINUOUS
10
346.188
20
-100.17
11
346.107
21
-100.116
0
LINE
8
BLACK
6
CONTINUOUS
10
346.107
20
-100.116
11
346.053
21
-100.035
0
LINE
8
BLACK
6
CONTINUOUS
10
346.053
20
-100.035
11
346.034
21
-99.939
0
LINE
8
BLACK
6
CONTINUOUS
10
346.034
20
-99.939
11
346.034
21
-98.689
0
LINE
8
BLACK
6
CONTINUOUS
10
346.034
20
-98.689
11
346.053
21
-98.5933
0
LINE
8
BLACK
6
CONTINUOUS
10
346.053
20
-98.5933
11
346.107
21
-98.5122
0
LINE
8
BLACK
6
CONTINUOUS
10
346.107
20
-98.5122
11
346.188
21
-98.458
0
LINE
8
BLACK
6
CONTINUOUS
10
346.188
20
-98.458
11
346.284
21
-98.439
0
LINE
8
BLACK
6
CONTINUOUS
10
346.284
20
-98.439
11
347.084
21
-98.439
0
LINE
8
BLACK
6
CONTINUOUS
10
347.084
20
-98.439
11
347.18
21
-98.458
0
LINE
8
BLACK
6
CONTINUOUS
10
350.28
20
-98.458
11
350.361
21
-98.5122
0
LINE
8
BLACK
6
CONTINUOUS
10
350.361
20
-98.5122
11
350.415
21
-98.5933
0
LINE
8
BLACK
6
CONTINUOUS
10
350.415
20
-98.5933
11
350.434
21
-98.689
0
LINE
8
BLACK
6
CONTINUOUS
10
350.434
20
-98.689
11
350.434
21
-99.939
0
LINE
8
BLACK
6
CONTINUOUS
10
350.434
20
-99.939
11
350.415
21
-100.035
0
LINE
8
BLACK
6
CONTINUOUS
10
350.415
20
-100.035
11
350.361
21
-100.116
0
LINE
8
BLACK
6
CONTINUOUS
10
350.361
20
-100.116
11
350.28
21
-100.17
0
LINE
8
BLACK
6
CONTINUOUS
10
350.28
20
-100.17
11
350.184
21
-100.189
0
LINE
8
BLACK
6
CONTINUOUS
10
350.184
20
-100.189
11
349.384
21
-100.189
0
LINE
8
BLACK
6
CONTINUOUS
10
349.384
20
-100.189
11
349.288
21
-100.17
0
LINE
8
BLACK
6
CONTINUOUS
10
349.288
20
-100.17
11
349.207
21
-100.116
0
LINE
8
BLACK
6
CONTINUOUS
10
349.207
20
-100.116
11
349.153
21
-100.035
0
LINE
8
BLACK
6
CONTINUOUS
10
349.153
20
-100.035
11
349.134
21
-99.939
0
LINE
8
BLACK
6
CONTINUOUS
10
349.134
20
-99.939
11
349.134
21
-98.689
0
LINE
8
BLACK
6
CONTINUOUS
10
349.134
20
-98.689
11
349.153
21
-98.5933
0
LINE
8
BLACK
6
CONTINUOUS
10
349.153
20
-98.5933
11
349.207
21
-98.5122
0
LINE
8
BLACK
6
CONTINUOUS
10
349.207
20
-98.5122
11
349.288
21
-98.458
0
LINE
8
BLACK
6
CONTINUOUS
10
349.288
20
-98.458
11
349.384
21
-98.439
0
LINE
8
BLACK
6
CONTINUOUS
10
349.384
20
-98.439
11
350.184
21
-98.439
0
LINE
8
BLACK
6
CONTINUOUS
10
350.184
20
-98.439
11
350.28
21
-98.458
0
LINE
8
BLACK
6
CONTINUOUS
10
362.446
20
-98.458
11
362.527
21
-98.5122
0
LINE
8
BLACK
6
CONTINUOUS
10
362.527
20
-98.5122
11
362.581
21
-98.5933
0
LINE
8
BLACK
6
CONTINUOUS
10
362.581
20
-98.5933
11
362.6
21
-98.689
0
LINE
8
BLACK
6
CONTINUOUS
10
362.6
20
-98.689
11
362.6
21
-99.939
0
LINE
8
BLACK
6
CONTINUOUS
10
362.6
20
-99.939
11
362.581
21
-100.035
0
LINE
8
BLACK
6
CONTINUOUS
10
362.581
20
-100.035
11
362.527
21
-100.116
0
LINE
8
BLACK
6
CONTINUOUS
10
362.527
20
-100.116
11
362.446
21
-100.17
0
LINE
8
BLACK
6
CONTINUOUS
10
362.446
20
-100.17
11
362.35
21
-100.189
0
LINE
8
BLACK
6
CONTINUOUS
10
362.35
20
-100.189
11
361.55
21
-100.189
0
LINE
8
BLACK
6
CONTINUOUS
10
361.55
20
-100.189
11
361.454
21
-100.17
0
LINE
8
BLACK
6
CONTINUOUS
10
361.454
20
-100.17
11
361.373
21
-100.116
0
LINE
8
BLACK
6
CONTINUOUS
10
361.373
20
-100.116
11
361.319
21
-100.035
0
LINE
8
BLACK
6
CONTINUOUS
10
361.319
20
-100.035
11
361.3
21
-99.939
0
LINE
8
BLACK
6
CONTINUOUS
10
361.3
20
-99.939
11
361.3
21
-98.689
0
LINE
8
BLACK
6
CONTINUOUS
10
361.3
20
-98.689
11
361.319
21
-98.5933
0
LINE
8
BLACK
6
CONTINUOUS
10
361.319
20
-98.5933
11
361.373
21
-98.5122
0
LINE
8
BLACK
6
CONTINUOUS
10
361.373
20
-98.5122
11
361.454
21
-98.458
0
LINE
8
BLACK
6
CONTINUOUS
10
361.454
20
-98.458
11
361.55
21
-98.439
0
LINE
8
BLACK
6
CONTINUOUS
10
361.55
20
-98.439
11
362.35
21
-98.439
0
LINE
8
BLACK
6
CONTINUOUS
10
362.35
20
-98.439
11
362.446
21
-98.458
0
LINE
8
BLACK
6
CONTINUOUS
10
359.346
20
-98.458
11
359.427
21
-98.5122
0
LINE
8
BLACK
6
CONTINUOUS
10
359.427
20
-98.5122
11
359.481
21
-98.5933
0
LINE
8
BLACK
6
CONTINUOUS
10
359.481
20
-98.5933
11
359.5
21
-98.689
0
LINE
8
BLACK
6
CONTINUOUS
10
359.5
20
-98.689
11
359.5
21
-99.939
0
LINE
8
BLACK
6
CONTINUOUS
10
359.5
20
-99.939
11
359.481
21
-100.035
0
LINE
8
BLACK
6
CONTINUOUS
10
359.481
20
-100.035
11
359.427
21
-100.116
0
LINE
8
BLACK
6
CONTINUOUS
10
359.427
20
-100.116
11
359.346
21
-100.17
0
LINE
8
BLACK
6
CONTINUOUS
10
359.346
20
-100.17
11
359.25
21
-100.189
0
LINE
8
BLACK
6
CONTINUOUS
10
359.25
20
-100.189
11
358.45
21
-100.189
0
LINE
8
BLACK
6
CONTINUOUS
10
358.45
20
-100.189
11
358.354
21
-100.17
0
LINE
8
BLACK
6
CONTINUOUS
10
358.354
20
-100.17
11
358.273
21
-100.116
0
LINE
8
BLACK
6
CONTINUOUS
10
358.273
20
-100.116
11
358.219
21
-100.035
0
LINE
8
BLACK
6
CONTINUOUS
10
358.219
20
-100.035
11
358.2
21
-99.939
0
LINE
8
BLACK
6
CONTINUOUS
10
358.2
20
-99.939
11
358.2
21
-98.689
0
LINE
8
BLACK
6
CONTINUOUS
10
358.2
20
-98.689
11
358.219
21
-98.5933
0
LINE
8
BLACK
6
CONTINUOUS
10
358.219
20
-98.5933
11
358.273
21
-98.5122
0
LINE
8
BLACK
6
CONTINUOUS
10
358.273
20
-98.5122
11
358.354
21
-98.458
0
LINE
8
BLACK
6
CONTINUOUS
10
358.354
20
-98.458
11
358.45
21
-98.439
0
LINE
8
BLACK
6
CONTINUOUS
10
358.45
20
-98.439
11
359.25
21
-98.439
0
LINE
8
BLACK
6
CONTINUOUS
10
359.25
20
-98.439
11
359.346
21
-98.458
0
LINE
8
BLACK
6
CONTINUOUS
10
350.28
20
-93.632
11
350.361
21
-93.6862
0
LINE
8
BLACK
6
CONTINUOUS
10
350.361
20
-93.6862
11
350.415
21
-93.7673
0
LINE
8
BLACK
6
CONTINUOUS
10
350.415
20
-93.7673
11
350.434
21
-93.863
0
LINE
8
BLACK
6
CONTINUOUS
10
350.434
20
-93.863
11
350.434
21
-95.113
0
LINE
8
BLACK
6
CONTINUOUS
10
350.434
20
-95.113
11
350.415
21
-95.2087
0
LINE
8
BLACK
6
CONTINUOUS
10
350.415
20
-95.2087
11
350.361
21
-95.2898
0
LINE
8
BLACK
6
CONTINUOUS
10
350.361
20
-95.2898
11
350.28
21
-95.344
0
LINE
8
BLACK
6
CONTINUOUS
10
350.28
20
-95.344
11
350.184
21
-95.363
0
LINE
8
BLACK
6
CONTINUOUS
10
350.184
20
-95.363
11
349.384
21
-95.363
0
LINE
8
BLACK
6
CONTINUOUS
10
349.384
20
-95.363
11
349.288
21
-95.344
0
LINE
8
BLACK
6
CONTINUOUS
10
349.288
20
-95.344
11
349.207
21
-95.2898
0
LINE
8
BLACK
6
CONTINUOUS
10
349.207
20
-95.2898
11
349.153
21
-95.2087
0
LINE
8
BLACK
6
CONTINUOUS
10
349.153
20
-95.2087
11
349.134
21
-95.113
0
LINE
8
BLACK
6
CONTINUOUS
10
349.134
20
-95.113
11
349.134
21
-93.863
0
LINE
8
BLACK
6
CONTINUOUS
10
349.134
20
-93.863
11
349.153
21
-93.7673
0
LINE
8
BLACK
6
CONTINUOUS
10
349.153
20
-93.7673
11
349.207
21
-93.6862
0
LINE
8
BLACK
6
CONTINUOUS
10
349.207
20
-93.6862
11
349.288
21
-93.632
0
LINE
8
BLACK
6
CONTINUOUS
10
349.288
20
-93.632
11
349.384
21
-93.613
0
LINE
8
BLACK
6
CONTINUOUS
10
349.384
20
-93.613
11
350.184
21
-93.613
0
LINE
8
BLACK
6
CONTINUOUS
10
350.184
20
-93.613
11
350.28
21
-93.632
0
LINE
8
BLACK
6
CONTINUOUS
10
347.18
20
-93.632
11
347.261
21
-93.6862
0
LINE
8
BLACK
6
CONTINUOUS
10
347.261
20
-93.6862
11
347.315
21
-93.7673
0
LINE
8
BLACK
6
CONTINUOUS
10
347.315
20
-93.7673
11
347.334
21
-93.863
0
LINE
8
BLACK
6
CONTINUOUS
10
347.334
20
-93.863
11
347.334
21
-95.113
0
LINE
8
BLACK
6
CONTINUOUS
10
347.334
20
-95.113
11
347.315
21
-95.2087
0
LINE
8
BLACK
6
CONTINUOUS
10
347.315
20
-95.2087
11
347.261
21
-95.2898
0
LINE
8
BLACK
6
CONTINUOUS
10
347.261
20
-95.2898
11
347.18
21
-95.344
0
LINE
8
BLACK
6
CONTINUOUS
10
347.18
20
-95.344
11
347.084
21
-95.363
0
LINE
8
BLACK
6
CONTINUOUS
10
347.084
20
-95.363
11
346.284
21
-95.363
0
LINE
8
BLACK
6
CONTINUOUS
10
346.284
20
-95.363
11
346.188
21
-95.344
0
LINE
8
BLACK
6
CONTINUOUS
10
346.188
20
-95.344
11
346.107
21
-95.2898
0
LINE
8
BLACK
6
CONTINUOUS
10
346.107
20
-95.2898
11
346.053
21
-95.2087
0
LINE
8
BLACK
6
CONTINUOUS
10
346.053
20
-95.2087
11
346.034
21
-95.113
0
LINE
8
BLACK
6
CONTINUOUS
10
346.034
20
-95.113
11
346.034
21
-93.863
0
LINE
8
BLACK
6
CONTINUOUS
10
346.034
20
-93.863
11
346.053
21
-93.7673
0
LINE
8
BLACK
6
CONTINUOUS
10
346.053
20
-93.7673
11
346.107
21
-93.6862
0
LINE
8
BLACK
6
CONTINUOUS
10
346.107
20
-93.6862
11
346.188
21
-93.632
0
LINE
8
BLACK
6
CONTINUOUS
10
346.188
20
-93.632
11
346.284
21
-93.613
0
LINE
8
BLACK
6
CONTINUOUS
10
346.284
20
-93.613
11
347.084
21
-93.613
0
LINE
8
BLACK
6
CONTINUOUS
10
347.084
20
-93.613
11
347.18
21
-93.632
0
LINE
8
BLACK
6
CONTINUOUS
10
362.446
20
-93.632
11
362.527
21
-93.6862
0
LINE
8
BLACK
6
CONTINUOUS
10
362.527
20
-93.6862
11
362.581
21
-93.7673
0
LINE
8
BLACK
6
CONTINUOUS
10
362.581
20
-93.7673
11
362.6
21
-93.863
0
LINE
8
BLACK
6
CONTINUOUS
10
362.6
20
-93.863
11
362.6
21
-95.113
0
LINE
8
BLACK
6
CONTINUOUS
10
362.6
20
-95.113
11
362.581
21
-95.2087
0
LINE
8
BLACK
6
CONTINUOUS
10
362.581
20
-95.2087
11
362.527
21
-95.2898
0
LINE
8
BLACK
6
CONTINUOUS
10
362.527
20
-95.2898
11
362.446
21
-95.344
0
LINE
8
BLACK
6
CONTINUOUS
10
362.446
20
-95.344
11
362.35
21
-95.363
0
LINE
8
BLACK
6
CONTINUOUS
10
362.35
20
-95.363
11
361.55
21
-95.363
0
LINE
8
BLACK
6
CONTINUOUS
10
361.55
20
-95.363
11
361.454
21
-95.344
0
LINE
8
BLACK
6
CONTINUOUS
10
361.454
20
-95.344
11
361.373
21
-95.2898
0
LINE
8
BLACK
6
CONTINUOUS
10
361.373
20
-95.2898
11
361.319
21
-95.2087
0
LINE
8
BLACK
6
CONTINUOUS
10
361.319
20
-95.2087
11
361.3
21
-95.113
0
LINE
8
BLACK
6
CONTINUOUS
10
361.3
20
-95.113
11
361.3
21
-93.863
0
LINE
8
BLACK
6
CONTINUOUS
10
361.3
20
-93.863
11
361.319
21
-93.7673
0
LINE
8
BLACK
6
CONTINUOUS
10
361.319
20
-93.7673
11
361.373
21
-93.6862
0
LINE
8
BLACK
6
CONTINUOUS
10
361.373
20
-93.6862
11
361.454
21
-93.632
0
LINE
8
BLACK
6
CONTINUOUS
10
361.454
20
-93.632
11
361.55
21
-93.613
0
LINE
8
BLACK
6
CONTINUOUS
10
361.55
20
-93.613
11
362.35
21
-93.613
0
LINE
8
BLACK
6
CONTINUOUS
10
362.35
20
-93.613
11
362.446
21
-93.632
0
LINE
8
BLACK
6
CONTINUOUS
10
359.346
20
-93.632
11
359.427
21
-93.6862
0
LINE
8
BLACK
6
CONTINUOUS
10
359.427
20
-93.6862
11
359.481
21
-93.7673
0
LINE
8
BLACK
6
CONTINUOUS
10
359.481
20
-93.7673
11
359.5
21
-93.863
0
LINE
8
BLACK
6
CONTINUOUS
10
359.5
20
-93.863
11
359.5
21
-95.113
0
LINE
8
BLACK
6
CONTINUOUS
10
359.5
20
-95.113
11
359.481
21
-95.2087
0
LINE
8
BLACK
6
CONTINUOUS
10
359.481
20
-95.2087
11
359.427
21
-95.2898
0
LINE
8
BLACK
6
CONTINUOUS
10
359.427
20
-95.2898
11
359.346
21
-95.344
0
LINE
8
BLACK
6
CONTINUOUS
10
359.346
20
-95.344
11
359.25
21
-95.363
0
LINE
8
BLACK
6
CONTINUOUS
10
359.25
20
-95.363
11
358.45
21
-95.363
0
LINE
8
BLACK
6
CONTINUOUS
10
358.45
20
-95.363
11
358.354
21
-95.344
0
LINE
8
BLACK
6
CONTINUOUS
10
358.354
20
-95.344
11
358.273
21
-95.2898
0
LINE
8
BLACK
6
CONTINUOUS
10
358.273
20
-95.2898
11
358.219
21
-95.2087
0
LINE
8
BLACK
6
CONTINUOUS
10
358.219
20
-95.2087
11
358.2
21
-95.113
0
LINE
8
BLACK
6
CONTINUOUS
10
358.2
20
-95.113
11
358.2
21
-93.863
0
LINE
8
BLACK
6
CONTINUOUS
10
358.2
20
-93.863
11
358.219
21
-93.7673
0
LINE
8
BLACK
6
CONTINUOUS
10
358.219
20
-93.7673
11
358.273
21
-93.6862
0
LINE
8
BLACK
6
CONTINUOUS
10
358.273
20
-93.6862
11
358.354
21
-93.632
0
LINE
8
BLACK
6
CONTINUOUS
10
358.354
20
-93.632
11
358.45
21
-93.613
0
LINE
8
BLACK
6
CONTINUOUS
10
358.45
20
-93.613
11
359.25
21
-93.613
0
LINE
8
BLACK
6
CONTINUOUS
10
359.25
20
-93.613
11
359.346
21
-93.632
0
LINE
8
BLACK
6
CONTINUOUS
10
472.557
20
-89.279
11
472.638
21
-89.3332
0
LINE
8
BLACK
6
CONTINUOUS
10
472.638
20
-89.3332
11
472.692
21
-89.4143
0
LINE
8
BLACK
6
CONTINUOUS
10
472.692
20
-89.4143
11
472.711
21
-89.51
0
LINE
8
BLACK
6
CONTINUOUS
10
472.711
20
-89.51
11
472.711
21
-90.31
0
LINE
8
BLACK
6
CONTINUOUS
10
472.711
20
-90.31
11
472.692
21
-90.4057
0
LINE
8
BLACK
6
CONTINUOUS
10
472.692
20
-90.4057
11
472.638
21
-90.4868
0
LINE
8
BLACK
6
CONTINUOUS
10
472.638
20
-90.4868
11
472.557
21
-90.541
0
LINE
8
BLACK
6
CONTINUOUS
10
472.557
20
-90.541
11
472.461
21
-90.56
0
LINE
8
BLACK
6
CONTINUOUS
10
472.461
20
-90.56
11
471.211
21
-90.56
0
LINE
8
BLACK
6
CONTINUOUS
10
471.211
20
-90.56
11
471.115
21
-90.541
0
LINE
8
BLACK
6
CONTINUOUS
10
471.115
20
-90.541
11
471.034
21
-90.4868
0
LINE
8
BLACK
6
CONTINUOUS
10
471.034
20
-90.4868
11
470.98
21
-90.4057
0
LINE
8
BLACK
6
CONTINUOUS
10
470.98
20
-90.4057
11
470.961
21
-90.31
0
LINE
8
BLACK
6
CONTINUOUS
10
470.961
20
-90.31
11
470.961
21
-89.51
0
LINE
8
BLACK
6
CONTINUOUS
10
470.961
20
-89.51
11
470.98
21
-89.4143
0
LINE
8
BLACK
6
CONTINUOUS
10
470.98
20
-89.4143
11
471.034
21
-89.3332
0
LINE
8
BLACK
6
CONTINUOUS
10
471.034
20
-89.3332
11
471.115
21
-89.279
0
LINE
8
BLACK
6
CONTINUOUS
10
471.115
20
-89.279
11
471.211
21
-89.26
0
LINE
8
BLACK
6
CONTINUOUS
10
471.211
20
-89.26
11
472.461
21
-89.26
0
LINE
8
BLACK
6
CONTINUOUS
10
472.461
20
-89.26
11
472.557
21
-89.279
0
LINE
8
BLACK
6
CONTINUOUS
10
347.18
20
-88.806
11
347.261
21
-88.8602
0
LINE
8
BLACK
6
CONTINUOUS
10
347.261
20
-88.8602
11
347.315
21
-88.9413
0
LINE
8
BLACK
6
CONTINUOUS
10
347.315
20
-88.9413
11
347.334
21
-89.037
0
LINE
8
BLACK
6
CONTINUOUS
10
347.334
20
-89.037
11
347.334
21
-90.287
0
LINE
8
BLACK
6
CONTINUOUS
10
347.334
20
-90.287
11
347.315
21
-90.3827
0
LINE
8
BLACK
6
CONTINUOUS
10
347.315
20
-90.3827
11
347.261
21
-90.4638
0
LINE
8
BLACK
6
CONTINUOUS
10
347.261
20
-90.4638
11
347.18
21
-90.518
0
LINE
8
BLACK
6
CONTINUOUS
10
347.18
20
-90.518
11
347.084
21
-90.537
0
LINE
8
BLACK
6
CONTINUOUS
10
347.084
20
-90.537
11
346.284
21
-90.537
0
LINE
8
BLACK
6
CONTINUOUS
10
346.284
20
-90.537
11
346.188
21
-90.518
0
LINE
8
BLACK
6
CONTINUOUS
10
346.188
20
-90.518
11
346.107
21
-90.4638
0
LINE
8
BLACK
6
CONTINUOUS
10
346.107
20
-90.4638
11
346.053
21
-90.3827
0
LINE
8
BLACK
6
CONTINUOUS
10
346.053
20
-90.3827
11
346.034
21
-90.287
0
LINE
8
BLACK
6
CONTINUOUS
10
346.034
20
-90.287
11
346.034
21
-89.037
0
LINE
8
BLACK
6
CONTINUOUS
10
346.034
20
-89.037
11
346.053
21
-88.9413
0
LINE
8
BLACK
6
CONTINUOUS
10
346.053
20
-88.9413
11
346.107
21
-88.8602
0
LINE
8
BLACK
6
CONTINUOUS
10
346.107
20
-88.8602
11
346.188
21
-88.806
0
LINE
8
BLACK
6
CONTINUOUS
10
346.188
20
-88.806
11
346.284
21
-88.787
0
LINE
8
BLACK
6
CONTINUOUS
10
346.284
20
-88.787
11
347.084
21
-88.787
0
LINE
8
BLACK
6
CONTINUOUS
10
347.084
20
-88.787
11
347.18
21
-88.806
0
LINE
8
BLACK
6
CONTINUOUS
10
350.28
20
-88.806
11
350.361
21
-88.8602
0
LINE
8
BLACK
6
CONTINUOUS
10
350.361
20
-88.8602
11
350.415
21
-88.9413
0
LINE
8
BLACK
6
CONTINUOUS
10
350.415
20
-88.9413
11
350.434
21
-89.037
0
LINE
8
BLACK
6
CONTINUOUS
10
350.434
20
-89.037
11
350.434
21
-90.287
0
LINE
8
BLACK
6
CONTINUOUS
10
350.434
20
-90.287
11
350.415
21
-90.3827
0
LINE
8
BLACK
6
CONTINUOUS
10
350.415
20
-90.3827
11
350.361
21
-90.4638
0
LINE
8
BLACK
6
CONTINUOUS
10
350.361
20
-90.4638
11
350.28
21
-90.518
0
LINE
8
BLACK
6
CONTINUOUS
10
350.28
20
-90.518
11
350.184
21
-90.537
0
LINE
8
BLACK
6
CONTINUOUS
10
350.184
20
-90.537
11
349.384
21
-90.537
0
LINE
8
BLACK
6
CONTINUOUS
10
349.384
20
-90.537
11
349.288
21
-90.518
0
LINE
8
BLACK
6
CONTINUOUS
10
349.288
20
-90.518
11
349.207
21
-90.4638
0
LINE
8
BLACK
6
CONTINUOUS
10
349.207
20
-90.4638
11
349.153
21
-90.3827
0
LINE
8
BLACK
6
CONTINUOUS
10
349.153
20
-90.3827
11
349.134
21
-90.287
0
LINE
8
BLACK
6
CONTINUOUS
10
349.134
20
-90.287
11
349.134
21
-89.037
0
LINE
8
BLACK
6
CONTINUOUS
10
349.134
20
-89.037
11
349.153
21
-88.9413
0
LINE
8
BLACK
6
CONTINUOUS
10
349.153
20
-88.9413
11
349.207
21
-88.8602
0
LINE
8
BLACK
6
CONTINUOUS
10
349.207
20
-88.8602
11
349.288
21
-88.806
0
LINE
8
BLACK
6
CONTINUOUS
10
349.288
20
-88.806
11
349.384
21
-88.787
0
LINE
8
BLACK
6
CONTINUOUS
10
349.384
20
-88.787
11
350.184
21
-88.787
0
LINE
8
BLACK
6
CONTINUOUS
10
350.184
20
-88.787
11
350.28
21
-88.806
0
LINE
8
BLACK
6
CONTINUOUS
10
140.809
20
-89.147
11
140.89
21
-89.2012
0
LINE
8
BLACK
6
CONTINUOUS
10
140.89
20
-89.2012
11
140.944
21
-89.2823
0
LINE
8
BLACK
6
CONTINUOUS
10
140.944
20
-89.2823
11
140.963
21
-89.378
0
LINE
8
BLACK
6
CONTINUOUS
10
140.963
20
-89.378
11
140.963
21
-90.178
0
LINE
8
BLACK
6
CONTINUOUS
10
140.963
20
-90.178
11
140.944
21
-90.2737
0
LINE
8
BLACK
6
CONTINUOUS
10
140.944
20
-90.2737
11
140.89
21
-90.3548
0
LINE
8
BLACK
6
CONTINUOUS
10
140.89
20
-90.3548
11
140.809
21
-90.409
0
LINE
8
BLACK
6
CONTINUOUS
10
140.809
20
-90.409
11
140.713
21
-90.428
0
LINE
8
BLACK
6
CONTINUOUS
10
140.713
20
-90.428
11
139.463
21
-90.428
0
LINE
8
BLACK
6
CONTINUOUS
10
139.463
20
-90.428
11
139.367
21
-90.409
0
LINE
8
BLACK
6
CONTINUOUS
10
139.367
20
-90.409
11
139.286
21
-90.3548
0
LINE
8
BLACK
6
CONTINUOUS
10
139.286
20
-90.3548
11
139.232
21
-90.2737
0
LINE
8
BLACK
6
CONTINUOUS
10
139.232
20
-90.2737
11
139.213
21
-90.178
0
LINE
8
BLACK
6
CONTINUOUS
10
139.213
20
-90.178
11
139.213
21
-89.378
0
LINE
8
BLACK
6
CONTINUOUS
10
139.213
20
-89.378
11
139.232
21
-89.2823
0
LINE
8
BLACK
6
CONTINUOUS
10
139.232
20
-89.2823
11
139.286
21
-89.2012
0
LINE
8
BLACK
6
CONTINUOUS
10
139.286
20
-89.2012
11
139.367
21
-89.147
0
LINE
8
BLACK
6
CONTINUOUS
10
139.367
20
-89.147
11
139.463
21
-89.128
0
LINE
8
BLACK
6
CONTINUOUS
10
139.463
20
-89.128
11
140.713
21
-89.128
0
LINE
8
BLACK
6
CONTINUOUS
10
140.713
20
-89.128
11
140.809
21
-89.147
0
LINE
8
BLACK
6
CONTINUOUS
10
223.613
20
-89.147
11
223.694
21
-89.2012
0
LINE
8
BLACK
6
CONTINUOUS
10
223.694
20
-89.2012
11
223.748
21
-89.2823
0
LINE
8
BLACK
6
CONTINUOUS
10
223.748
20
-89.2823
11
223.767
21
-89.378
0
LINE
8
BLACK
6
CONTINUOUS
10
223.767
20
-89.378
11
223.767
21
-90.178
0
LINE
8
BLACK
6
CONTINUOUS
10
223.767
20
-90.178
11
223.748
21
-90.2737
0
LINE
8
BLACK
6
CONTINUOUS
10
223.748
20
-90.2737
11
223.694
21
-90.3548
0
LINE
8
BLACK
6
CONTINUOUS
10
223.694
20
-90.3548
11
223.613
21
-90.409
0
LINE
8
BLACK
6
CONTINUOUS
10
223.613
20
-90.409
11
223.517
21
-90.428
0
LINE
8
BLACK
6
CONTINUOUS
10
223.517
20
-90.428
11
222.267
21
-90.428
0
LINE
8
BLACK
6
CONTINUOUS
10
222.267
20
-90.428
11
222.171
21
-90.409
0
LINE
8
BLACK
6
CONTINUOUS
10
222.171
20
-90.409
11
222.09
21
-90.3548
0
LINE
8
BLACK
6
CONTINUOUS
10
222.09
20
-90.3548
11
222.036
21
-90.2737
0
LINE
8
BLACK
6
CONTINUOUS
10
222.036
20
-90.2737
11
222.017
21
-90.178
0
LINE
8
BLACK
6
CONTINUOUS
10
222.017
20
-90.178
11
222.017
21
-89.378
0
LINE
8
BLACK
6
CONTINUOUS
10
222.017
20
-89.378
11
222.036
21
-89.2823
0
LINE
8
BLACK
6
CONTINUOUS
10
222.036
20
-89.2823
11
222.09
21
-89.2012
0
LINE
8
BLACK
6
CONTINUOUS
10
222.09
20
-89.2012
11
222.171
21
-89.147
0
LINE
8
BLACK
6
CONTINUOUS
10
222.171
20
-89.147
11
222.267
21
-89.128
0
LINE
8
BLACK
6
CONTINUOUS
10
222.267
20
-89.128
11
223.517
21
-89.128
0
LINE
8
BLACK
6
CONTINUOUS
10
223.517
20
-89.128
11
223.613
21
-89.147
0
LINE
8
BLACK
6
CONTINUOUS
10
182.719
20
-89.147
11
182.8
21
-89.2012
0
LINE
8
BLACK
6
CONTINUOUS
10
182.8
20
-89.2012
11
182.854
21
-89.2823
0
LINE
8
BLACK
6
CONTINUOUS
10
182.854
20
-89.2823
11
182.873
21
-89.378
0
LINE
8
BLACK
6
CONTINUOUS
10
182.873
20
-89.378
11
182.873
21
-90.178
0
LINE
8
BLACK
6
CONTINUOUS
10
182.873
20
-90.178
11
182.854
21
-90.2737
0
LINE
8
BLACK
6
CONTINUOUS
10
182.854
20
-90.2737
11
182.8
21
-90.3548
0
LINE
8
BLACK
6
CONTINUOUS
10
182.8
20
-90.3548
11
182.719
21
-90.409
0
LINE
8
BLACK
6
CONTINUOUS
10
182.719
20
-90.409
11
182.623
21
-90.428
0
LINE
8
BLACK
6
CONTINUOUS
10
182.623
20
-90.428
11
181.373
21
-90.428
0
LINE
8
BLACK
6
CONTINUOUS
10
181.373
20
-90.428
11
181.277
21
-90.409
0
LINE
8
BLACK
6
CONTINUOUS
10
181.277
20
-90.409
11
181.196
21
-90.3548
0
LINE
8
BLACK
6
CONTINUOUS
10
181.196
20
-90.3548
11
181.142
21
-90.2737
0
LINE
8
BLACK
6
CONTINUOUS
10
181.142
20
-90.2737
11
181.123
21
-90.178
0
LINE
8
BLACK
6
CONTINUOUS
10
181.123
20
-90.178
11
181.123
21
-89.378
0
LINE
8
BLACK
6
CONTINUOUS
10
181.123
20
-89.378
11
181.142
21
-89.2823
0
LINE
8
BLACK
6
CONTINUOUS
10
181.142
20
-89.2823
11
181.196
21
-89.2012
0
LINE
8
BLACK
6
CONTINUOUS
10
181.196
20
-89.2012
11
181.277
21
-89.147
0
LINE
8
BLACK
6
CONTINUOUS
10
181.277
20
-89.147
11
181.373
21
-89.128
0
LINE
8
BLACK
6
CONTINUOUS
10
181.373
20
-89.128
11
182.623
21
-89.128
0
LINE
8
BLACK
6
CONTINUOUS
10
182.623
20
-89.128
11
182.719
21
-89.147
0
LINE
8
BLACK
6
CONTINUOUS
10
390.007
20
-89.025
11
390.088
21
-89.0792
0
LINE
8
BLACK
6
CONTINUOUS
10
390.088
20
-89.0792
11
390.142
21
-89.1603
0
LINE
8
BLACK
6
CONTINUOUS
10
390.142
20
-89.1603
11
390.161
21
-89.256
0
LINE
8
BLACK
6
CONTINUOUS
10
390.161
20
-89.256
11
390.161
21
-90.056
0
LINE
8
BLACK
6
CONTINUOUS
10
390.161
20
-90.056
11
390.142
21
-90.1517
0
LINE
8
BLACK
6
CONTINUOUS
10
390.142
20
-90.1517
11
390.088
21
-90.2328
0
LINE
8
BLACK
6
CONTINUOUS
10
390.088
20
-90.2328
11
390.007
21
-90.287
0
LINE
8
BLACK
6
CONTINUOUS
10
390.007
20
-90.287
11
389.911
21
-90.306
0
LINE
8
BLACK
6
CONTINUOUS
10
389.911
20
-90.306
11
388.661
21
-90.306
0
LINE
8
BLACK
6
CONTINUOUS
10
388.661
20
-90.306
11
388.565
21
-90.287
0
LINE
8
BLACK
6
CONTINUOUS
10
388.565
20
-90.287
11
388.484
21
-90.2328
0
LINE
8
BLACK
6
CONTINUOUS
10
388.484
20
-90.2328
11
388.43
21
-90.1517
0
LINE
8
BLACK
6
CONTINUOUS
10
388.43
20
-90.1517
11
388.411
21
-90.056
0
LINE
8
BLACK
6
CONTINUOUS
10
388.411
20
-90.056
11
388.411
21
-89.256
0
LINE
8
BLACK
6
CONTINUOUS
10
388.411
20
-89.256
11
388.43
21
-89.1603
0
LINE
8
BLACK
6
CONTINUOUS
10
388.43
20
-89.1603
11
388.484
21
-89.0792
0
LINE
8
BLACK
6
CONTINUOUS
10
388.484
20
-89.0792
11
388.565
21
-89.025
0
LINE
8
BLACK
6
CONTINUOUS
10
388.565
20
-89.025
11
388.661
21
-89.006
0
LINE
8
BLACK
6
CONTINUOUS
10
388.661
20
-89.006
11
389.911
21
-89.006
0
LINE
8
BLACK
6
CONTINUOUS
10
389.911
20
-89.006
11
390.007
21
-89.025
0
LINE
8
BLACK
6
CONTINUOUS
10
431.663
20
-89.025
11
431.744
21
-89.0792
0
LINE
8
BLACK
6
CONTINUOUS
10
431.744
20
-89.0792
11
431.798
21
-89.1603
0
LINE
8
BLACK
6
CONTINUOUS
10
431.798
20
-89.1603
11
431.817
21
-89.256
0
LINE
8
BLACK
6
CONTINUOUS
10
431.817
20
-89.256
11
431.817
21
-90.056
0
LINE
8
BLACK
6
CONTINUOUS
10
431.817
20
-90.056
11
431.798
21
-90.1517
0
LINE
8
BLACK
6
CONTINUOUS
10
431.798
20
-90.1517
11
431.744
21
-90.2328
0
LINE
8
BLACK
6
CONTINUOUS
10
431.744
20
-90.2328
11
431.663
21
-90.287
0
LINE
8
BLACK
6
CONTINUOUS
10
431.663
20
-90.287
11
431.567
21
-90.306
0
LINE
8
BLACK
6
CONTINUOUS
10
431.567
20
-90.306
11
430.317
21
-90.306
0
LINE
8
BLACK
6
CONTINUOUS
10
430.317
20
-90.306
11
430.221
21
-90.287
0
LINE
8
BLACK
6
CONTINUOUS
10
430.221
20
-90.287
11
430.14
21
-90.2328
0
LINE
8
BLACK
6
CONTINUOUS
10
430.14
20
-90.2328
11
430.086
21
-90.1517
0
LINE
8
BLACK
6
CONTINUOUS
10
430.086
20
-90.1517
11
430.067
21
-90.056
0
LINE
8
BLACK
6
CONTINUOUS
10
430.067
20
-90.056
11
430.067
21
-89.256
0
LINE
8
BLACK
6
CONTINUOUS
10
430.067
20
-89.256
11
430.086
21
-89.1603
0
LINE
8
BLACK
6
CONTINUOUS
10
430.086
20
-89.1603
11
430.14
21
-89.0792
0
LINE
8
BLACK
6
CONTINUOUS
10
430.14
20
-89.0792
11
430.221
21
-89.025
0
LINE
8
BLACK
6
CONTINUOUS
10
430.221
20
-89.025
11
430.317
21
-89.006
0
LINE
8
BLACK
6
CONTINUOUS
10
430.317
20
-89.006
11
431.567
21
-89.006
0
LINE
8
BLACK
6
CONTINUOUS
10
431.567
20
-89.006
11
431.663
21
-89.025
0
LINE
8
BLACK
6
CONTINUOUS
10
362.446
20
-88.552
11
362.527
21
-88.6062
0
LINE
8
BLACK
6
CONTINUOUS
10
362.527
20
-88.6062
11
362.581
21
-88.6873
0
LINE
8
BLACK
6
CONTINUOUS
10
362.581
20
-88.6873
11
362.6
21
-88.783
0
LINE
8
BLACK
6
CONTINUOUS
10
362.6
20
-88.783
11
362.6
21
-90.033
0
LINE
8
BLACK
6
CONTINUOUS
10
362.6
20
-90.033
11
362.581
21
-90.1287
0
LINE
8
BLACK
6
CONTINUOUS
10
362.581
20
-90.1287
11
362.527
21
-90.2098
0
LINE
8
BLACK
6
CONTINUOUS
10
362.527
20
-90.2098
11
362.446
21
-90.264
0
LINE
8
BLACK
6
CONTINUOUS
10
362.446
20
-90.264
11
362.35
21
-90.283
0
LINE
8
BLACK
6
CONTINUOUS
10
362.35
20
-90.283
11
361.55
21
-90.283
0
LINE
8
BLACK
6
CONTINUOUS
10
361.55
20
-90.283
11
361.454
21
-90.264
0
LINE
8
BLACK
6
CONTINUOUS
10
361.454
20
-90.264
11
361.373
21
-90.2098
0
LINE
8
BLACK
6
CONTINUOUS
10
361.373
20
-90.2098
11
361.319
21
-90.1287
0
LINE
8
BLACK
6
CONTINUOUS
10
361.319
20
-90.1287
11
361.3
21
-90.033
0
LINE
8
BLACK
6
CONTINUOUS
10
361.3
20
-90.033
11
361.3
21
-88.783
0
LINE
8
BLACK
6
CONTINUOUS
10
361.3
20
-88.783
11
361.319
21
-88.6873
0
LINE
8
BLACK
6
CONTINUOUS
10
361.319
20
-88.6873
11
361.373
21
-88.6062
0
LINE
8
BLACK
6
CONTINUOUS
10
361.373
20
-88.6062
11
361.454
21
-88.552
0
LINE
8
BLACK
6
CONTINUOUS
10
361.454
20
-88.552
11
361.55
21
-88.533
0
LINE
8
BLACK
6
CONTINUOUS
10
361.55
20
-88.533
11
362.35
21
-88.533
0
LINE
8
BLACK
6
CONTINUOUS
10
362.35
20
-88.533
11
362.446
21
-88.552
0
LINE
8
BLACK
6
CONTINUOUS
10
359.346
20
-88.552
11
359.427
21
-88.6062
0
LINE
8
BLACK
6
CONTINUOUS
10
359.427
20
-88.6062
11
359.481
21
-88.6873
0
LINE
8
BLACK
6
CONTINUOUS
10
359.481
20
-88.6873
11
359.5
21
-88.783
0
LINE
8
BLACK
6
CONTINUOUS
10
359.5
20
-88.783
11
359.5
21
-90.033
0
LINE
8
BLACK
6
CONTINUOUS
10
359.5
20
-90.033
11
359.481
21
-90.1287
0
LINE
8
BLACK
6
CONTINUOUS
10
359.481
20
-90.1287
11
359.427
21
-90.2098
0
LINE
8
BLACK
6
CONTINUOUS
10
359.427
20
-90.2098
11
359.346
21
-90.264
0
LINE
8
BLACK
6
CONTINUOUS
10
359.346
20
-90.264
11
359.25
21
-90.283
0
LINE
8
BLACK
6
CONTINUOUS
10
359.25
20
-90.283
11
358.45
21
-90.283
0
LINE
8
BLACK
6
CONTINUOUS
10
358.45
20
-90.283
11
358.354
21
-90.264
0
LINE
8
BLACK
6
CONTINUOUS
10
358.354
20
-90.264
11
358.273
21
-90.2098
0
LINE
8
BLACK
6
CONTINUOUS
10
358.273
20
-90.2098
11
358.219
21
-90.1287
0
LINE
8
BLACK
6
CONTINUOUS
10
358.219
20
-90.1287
11
358.2
21
-90.033
0
LINE
8
BLACK
6
CONTINUOUS
10
358.2
20
-90.033
11
358.2
21
-88.783
0
LINE
8
BLACK
6
CONTINUOUS
10
358.2
20
-88.783
11
358.219
21
-88.6873
0
LINE
8
BLACK
6
CONTINUOUS
10
358.219
20
-88.6873
11
358.273
21
-88.6062
0
LINE
8
BLACK
6
CONTINUOUS
10
358.273
20
-88.6062
11
358.354
21
-88.552
0
LINE
8
BLACK
6
CONTINUOUS
10
358.354
20
-88.552
11
358.45
21
-88.533
0
LINE
8
BLACK
6
CONTINUOUS
10
358.45
20
-88.533
11
359.25
21
-88.533
0
LINE
8
BLACK
6
CONTINUOUS
10
359.25
20
-88.533
11
359.346
21
-88.552
0
LINE
8
BLACK
6
CONTINUOUS
10
472.557
20
-86.179
11
472.638
21
-86.2332
0
LINE
8
BLACK
6
CONTINUOUS
10
472.638
20
-86.2332
11
472.692
21
-86.3143
0
LINE
8
BLACK
6
CONTINUOUS
10
472.692
20
-86.3143
11
472.711
21
-86.41
0
LINE
8
BLACK
6
CONTINUOUS
10
472.711
20
-86.41
11
472.711
21
-87.21
0
LINE
8
BLACK
6
CONTINUOUS
10
472.711
20
-87.21
11
472.692
21
-87.3057
0
LINE
8
BLACK
6
CONTINUOUS
10
472.692
20
-87.3057
11
472.638
21
-87.3868
0
LINE
8
BLACK
6
CONTINUOUS
10
472.638
20
-87.3868
11
472.557
21
-87.441
0
LINE
8
BLACK
6
CONTINUOUS
10
472.557
20
-87.441
11
472.461
21
-87.46
0
LINE
8
BLACK
6
CONTINUOUS
10
472.461
20
-87.46
11
471.211
21
-87.46
0
LINE
8
BLACK
6
CONTINUOUS
10
471.211
20
-87.46
11
471.115
21
-87.441
0
LINE
8
BLACK
6
CONTINUOUS
10
471.115
20
-87.441
11
471.034
21
-87.3868
0
LINE
8
BLACK
6
CONTINUOUS
10
471.034
20
-87.3868
11
470.98
21
-87.3057
0
LINE
8
BLACK
6
CONTINUOUS
10
470.98
20
-87.3057
11
470.961
21
-87.21
0
LINE
8
BLACK
6
CONTINUOUS
10
470.961
20
-87.21
11
470.961
21
-86.41
0
LINE
8
BLACK
6
CONTINUOUS
10
470.961
20
-86.41
11
470.98
21
-86.3143
0
LINE
8
BLACK
6
CONTINUOUS
10
470.98
20
-86.3143
11
471.034
21
-86.2332
0
LINE
8
BLACK
6
CONTINUOUS
10
471.034
20
-86.2332
11
471.115
21
-86.179
0
LINE
8
BLACK
6
CONTINUOUS
10
471.115
20
-86.179
11
471.211
21
-86.16
0
LINE
8
BLACK
6
CONTINUOUS
10
471.211
20
-86.16
11
472.461
21
-86.16
0
LINE
8
BLACK
6
CONTINUOUS
10
472.461
20
-86.16
11
472.557
21
-86.179
0
LINE
8
BLACK
6
CONTINUOUS
10
140.809
20
-86.047
11
140.89
21
-86.1012
0
LINE
8
BLACK
6
CONTINUOUS
10
140.89
20
-86.1012
11
140.944
21
-86.1823
0
LINE
8
BLACK
6
CONTINUOUS
10
140.944
20
-86.1823
11
140.963
21
-86.278
0
LINE
8
BLACK
6
CONTINUOUS
10
140.963
20
-86.278
11
140.963
21
-87.078
0
LINE
8
BLACK
6
CONTINUOUS
10
140.963
20
-87.078
11
140.944
21
-87.1737
0
LINE
8
BLACK
6
CONTINUOUS
10
140.944
20
-87.1737
11
140.89
21
-87.2548
0
LINE
8
BLACK
6
CONTINUOUS
10
140.89
20
-87.2548
11
140.809
21
-87.309
0
LINE
8
BLACK
6
CONTINUOUS
10
140.809
20
-87.309
11
140.713
21
-87.328
0
LINE
8
BLACK
6
CONTINUOUS
10
140.713
20
-87.328
11
139.463
21
-87.328
0
LINE
8
BLACK
6
CONTINUOUS
10
139.463
20
-87.328
11
139.367
21
-87.309
0
LINE
8
BLACK
6
CONTINUOUS
10
139.367
20
-87.309
11
139.286
21
-87.2548
0
LINE
8
BLACK
6
CONTINUOUS
10
139.286
20
-87.2548
11
139.232
21
-87.1737
0
LINE
8
BLACK
6
CONTINUOUS
10
139.232
20
-87.1737
11
139.213
21
-87.078
0
LINE
8
BLACK
6
CONTINUOUS
10
139.213
20
-87.078
11
139.213
21
-86.278
0
LINE
8
BLACK
6
CONTINUOUS
10
139.213
20
-86.278
11
139.232
21
-86.1823
0
LINE
8
BLACK
6
CONTINUOUS
10
139.232
20
-86.1823
11
139.286
21
-86.1012
0
LINE
8
BLACK
6
CONTINUOUS
10
139.286
20
-86.1012
11
139.367
21
-86.047
0
LINE
8
BLACK
6
CONTINUOUS
10
139.367
20
-86.047
11
139.463
21
-86.028
0
LINE
8
BLACK
6
CONTINUOUS
10
139.463
20
-86.028
11
140.713
21
-86.028
0
LINE
8
BLACK
6
CONTINUOUS
10
140.713
20
-86.028
11
140.809
21
-86.047
0
LINE
8
BLACK
6
CONTINUOUS
10
223.613
20
-86.047
11
223.694
21
-86.1012
0
LINE
8
BLACK
6
CONTINUOUS
10
223.694
20
-86.1012
11
223.748
21
-86.1823
0
LINE
8
BLACK
6
CONTINUOUS
10
223.748
20
-86.1823
11
223.767
21
-86.278
0
LINE
8
BLACK
6
CONTINUOUS
10
223.767
20
-86.278
11
223.767
21
-87.078
0
LINE
8
BLACK
6
CONTINUOUS
10
223.767
20
-87.078
11
223.748
21
-87.1737
0
LINE
8
BLACK
6
CONTINUOUS
10
223.748
20
-87.1737
11
223.694
21
-87.2548
0
LINE
8
BLACK
6
CONTINUOUS
10
223.694
20
-87.2548
11
223.613
21
-87.309
0
LINE
8
BLACK
6
CONTINUOUS
10
223.613
20
-87.309
11
223.517
21
-87.328
0
LINE
8
BLACK
6
CONTINUOUS
10
223.517
20
-87.328
11
222.267
21
-87.328
0
LINE
8
BLACK
6
CONTINUOUS
10
222.267
20
-87.328
11
222.171
21
-87.309
0
LINE
8
BLACK
6
CONTINUOUS
10
222.171
20
-87.309
11
222.09
21
-87.2548
0
LINE
8
BLACK
6
CONTINUOUS
10
222.09
20
-87.2548
11
222.036
21
-87.1737
0
LINE
8
BLACK
6
CONTINUOUS
10
222.036
20
-87.1737
11
222.017
21
-87.078
0
LINE
8
BLACK
6
CONTINUOUS
10
222.017
20
-87.078
11
222.017
21
-86.278
0
LINE
8
BLACK
6
CONTINUOUS
10
222.017
20
-86.278
11
222.036
21
-86.1823
0
LINE
8
BLACK
6
CONTINUOUS
10
222.036
20
-86.1823
11
222.09
21
-86.1012
0
LINE
8
BLACK
6
CONTINUOUS
10
222.09
20
-86.1012
11
222.171
21
-86.047
0
LINE
8
BLACK
6
CONTINUOUS
10
222.171
20
-86.047
11
222.267
21
-86.028
0
LINE
8
BLACK
6
CONTINUOUS
10
222.267
20
-86.028
11
223.517
21
-86.028
0
LINE
8
BLACK
6
CONTINUOUS
10
223.517
20
-86.028
11
223.613
21
-86.047
0
LINE
8
BLACK
6
CONTINUOUS
10
182.719
20
-86.047
11
182.8
21
-86.1012
0
LINE
8
BLACK
6
CONTINUOUS
10
182.8
20
-86.1012
11
182.854
21
-86.1823
0
LINE
8
BLACK
6
CONTINUOUS
10
182.854
20
-86.1823
11
182.873
21
-86.278
0
LINE
8
BLACK
6
CONTINUOUS
10
182.873
20
-86.278
11
182.873
21
-87.078
0
LINE
8
BLACK
6
CONTINUOUS
10
182.873
20
-87.078
11
182.854
21
-87.1737
0
LINE
8
BLACK
6
CONTINUOUS
10
182.854
20
-87.1737
11
182.8
21
-87.2548
0
LINE
8
BLACK
6
CONTINUOUS
10
182.8
20
-87.2548
11
182.719
21
-87.309
0
LINE
8
BLACK
6
CONTINUOUS
10
182.719
20
-87.309
11
182.623
21
-87.328
0
LINE
8
BLACK
6
CONTINUOUS
10
182.623
20
-87.328
11
181.373
21
-87.328
0
LINE
8
BLACK
6
CONTINUOUS
10
181.373
20
-87.328
11
181.277
21
-87.309
0
LINE
8
BLACK
6
CONTINUOUS
10
181.277
20
-87.309
11
181.196
21
-87.2548
0
LINE
8
BLACK
6
CONTINUOUS
10
181.196
20
-87.2548
11
181.142
21
-87.1737
0
LINE
8
BLACK
6
CONTINUOUS
10
181.142
20
-87.1737
11
181.123
21
-87.078
0
LINE
8
BLACK
6
CONTINUOUS
10
181.123
20
-87.078
11
181.123
21
-86.278
0
LINE
8
BLACK
6
CONTINUOUS
10
181.123
20
-86.278
11
181.142
21
-86.1823
0
LINE
8
BLACK
6
CONTINUOUS
10
181.142
20
-86.1823
11
181.196
21
-86.1012
0
LINE
8
BLACK
6
CONTINUOUS
10
181.196
20
-86.1012
11
181.277
21
-86.047
0
LINE
8
BLACK
6
CONTINUOUS
10
181.277
20
-86.047
11
181.373
21
-86.028
0
LINE
8
BLACK
6
CONTINUOUS
10
181.373
20
-86.028
11
182.623
21
-86.028
0
LINE
8
BLACK
6
CONTINUOUS
10
182.623
20
-86.028
11
182.719
21
-86.047
0
LINE
8
BLACK
6
CONTINUOUS
10
390.007
20
-85.925
11
390.088
21
-85.9792
0
LINE
8
BLACK
6
CONTINUOUS
10
390.088
20
-85.9792
11
390.142
21
-86.0603
0
LINE
8
BLACK
6
CONTINUOUS
10
390.142
20
-86.0603
11
390.161
21
-86.156
0
LINE
8
BLACK
6
CONTINUOUS
10
390.161
20
-86.156
11
390.161
21
-86.956
0
LINE
8
BLACK
6
CONTINUOUS
10
390.161
20
-86.956
11
390.142
21
-87.0517
0
LINE
8
BLACK
6
CONTINUOUS
10
390.142
20
-87.0517
11
390.088
21
-87.1328
0
LINE
8
BLACK
6
CONTINUOUS
10
390.088
20
-87.1328
11
390.007
21
-87.187
0
LINE
8
BLACK
6
CONTINUOUS
10
390.007
20
-87.187
11
389.911
21
-87.206
0
LINE
8
BLACK
6
CONTINUOUS
10
389.911
20
-87.206
11
388.661
21
-87.206
0
LINE
8
BLACK
6
CONTINUOUS
10
388.661
20
-87.206
11
388.565
21
-87.187
0
LINE
8
BLACK
6
CONTINUOUS
10
388.565
20
-87.187
11
388.484
21
-87.1328
0
LINE
8
BLACK
6
CONTINUOUS
10
388.484
20
-87.1328
11
388.43
21
-87.0517
0
LINE
8
BLACK
6
CONTINUOUS
10
388.43
20
-87.0517
11
388.411
21
-86.956
0
LINE
8
BLACK
6
CONTINUOUS
10
388.411
20
-86.956
11
388.411
21
-86.156
0
LINE
8
BLACK
6
CONTINUOUS
10
388.411
20
-86.156
11
388.43
21
-86.0603
0
LINE
8
BLACK
6
CONTINUOUS
10
388.43
20
-86.0603
11
388.484
21
-85.9792
0
LINE
8
BLACK
6
CONTINUOUS
10
388.484
20
-85.9792
11
388.565
21
-85.925
0
LINE
8
BLACK
6
CONTINUOUS
10
388.565
20
-85.925
11
388.661
21
-85.906
0
LINE
8
BLACK
6
CONTINUOUS
10
388.661
20
-85.906
11
389.911
21
-85.906
0
LINE
8
BLACK
6
CONTINUOUS
10
389.911
20
-85.906
11
390.007
21
-85.925
0
LINE
8
BLACK
6
CONTINUOUS
10
431.663
20
-85.925
11
431.744
21
-85.9792
0
LINE
8
BLACK
6
CONTINUOUS
10
431.744
20
-85.9792
11
431.798
21
-86.0603
0
LINE
8
BLACK
6
CONTINUOUS
10
431.798
20
-86.0603
11
431.817
21
-86.156
0
LINE
8
BLACK
6
CONTINUOUS
10
431.817
20
-86.156
11
431.817
21
-86.956
0
LINE
8
BLACK
6
CONTINUOUS
10
431.817
20
-86.956
11
431.798
21
-87.0517
0
LINE
8
BLACK
6
CONTINUOUS
10
431.798
20
-87.0517
11
431.744
21
-87.1328
0
LINE
8
BLACK
6
CONTINUOUS
10
431.744
20
-87.1328
11
431.663
21
-87.187
0
LINE
8
BLACK
6
CONTINUOUS
10
431.663
20
-87.187
11
431.567
21
-87.206
0
LINE
8
BLACK
6
CONTINUOUS
10
431.567
20
-87.206
11
430.317
21
-87.206
0
LINE
8
BLACK
6
CONTINUOUS
10
430.317
20
-87.206
11
430.221
21
-87.187
0
LINE
8
BLACK
6
CONTINUOUS
10
430.221
20
-87.187
11
430.14
21
-87.1328
0
LINE
8
BLACK
6
CONTINUOUS
10
430.14
20
-87.1328
11
430.086
21
-87.0517
0
LINE
8
BLACK
6
CONTINUOUS
10
430.086
20
-87.0517
11
430.067
21
-86.956
0
LINE
8
BLACK
6
CONTINUOUS
10
430.067
20
-86.956
11
430.067
21
-86.156
0
LINE
8
BLACK
6
CONTINUOUS
10
430.067
20
-86.156
11
430.086
21
-86.0603
0
LINE
8
BLACK
6
CONTINUOUS
10
430.086
20
-86.0603
11
430.14
21
-85.9792
0
LINE
8
BLACK
6
CONTINUOUS
10
430.14
20
-85.9792
11
430.221
21
-85.925
0
LINE
8
BLACK
6
CONTINUOUS
10
430.221
20
-85.925
11
430.317
21
-85.906
0
LINE
8
BLACK
6
CONTINUOUS
10
430.317
20
-85.906
11
431.567
21
-85.906
0
LINE
8
BLACK
6
CONTINUOUS
10
431.567
20
-85.906
11
431.663
21
-85.925
0
LINE
8
BLACK
6
CONTINUOUS
10
362.446
20
-83.726
11
362.527
21
-83.7802
0
LINE
8
BLACK
6
CONTINUOUS
10
362.527
20
-83.7802
11
362.581
21
-83.8613
0
LINE
8
BLACK
6
CONTINUOUS
10
362.581
20
-83.8613
11
362.6
21
-83.957
0
LINE
8
BLACK
6
CONTINUOUS
10
362.6
20
-83.957
11
362.6
21
-85.207
0
LINE
8
BLACK
6
CONTINUOUS
10
362.6
20
-85.207
11
362.581
21
-85.3027
0
LINE
8
BLACK
6
CONTINUOUS
10
362.581
20
-85.3027
11
362.527
21
-85.3838
0
LINE
8
BLACK
6
CONTINUOUS
10
362.527
20
-85.3838
11
362.446
21
-85.438
0
LINE
8
BLACK
6
CONTINUOUS
10
362.446
20
-85.438
11
362.35
21
-85.457
0
LINE
8
BLACK
6
CONTINUOUS
10
362.35
20
-85.457
11
361.55
21
-85.457
0
LINE
8
BLACK
6
CONTINUOUS
10
361.55
20
-85.457
11
361.454
21
-85.438
0
LINE
8
BLACK
6
CONTINUOUS
10
361.454
20
-85.438
11
361.373
21
-85.3838
0
LINE
8
BLACK
6
CONTINUOUS
10
361.373
20
-85.3838
11
361.319
21
-85.3027
0
LINE
8
BLACK
6
CONTINUOUS
10
361.319
20
-85.3027
11
361.3
21
-85.207
0
LINE
8
BLACK
6
CONTINUOUS
10
361.3
20
-85.207
11
361.3
21
-83.957
0
LINE
8
BLACK
6
CONTINUOUS
10
361.3
20
-83.957
11
361.319
21
-83.8613
0
LINE
8
BLACK
6
CONTINUOUS
10
361.319
20
-83.8613
11
361.373
21
-83.7802
0
LINE
8
BLACK
6
CONTINUOUS
10
361.373
20
-83.7802
11
361.454
21
-83.726
0
LINE
8
BLACK
6
CONTINUOUS
10
361.454
20
-83.726
11
361.55
21
-83.707
0
LINE
8
BLACK
6
CONTINUOUS
10
361.55
20
-83.707
11
362.35
21
-83.707
0
LINE
8
BLACK
6
CONTINUOUS
10
362.35
20
-83.707
11
362.446
21
-83.726
0
LINE
8
BLACK
6
CONTINUOUS
10
359.346
20
-83.726
11
359.427
21
-83.7802
0
LINE
8
BLACK
6
CONTINUOUS
10
359.427
20
-83.7802
11
359.481
21
-83.8613
0
LINE
8
BLACK
6
CONTINUOUS
10
359.481
20
-83.8613
11
359.5
21
-83.957
0
LINE
8
BLACK
6
CONTINUOUS
10
359.5
20
-83.957
11
359.5
21
-85.207
0
LINE
8
BLACK
6
CONTINUOUS
10
359.5
20
-85.207
11
359.481
21
-85.3027
0
LINE
8
BLACK
6
CONTINUOUS
10
359.481
20
-85.3027
11
359.427
21
-85.3838
0
LINE
8
BLACK
6
CONTINUOUS
10
359.427
20
-85.3838
11
359.346
21
-85.438
0
LINE
8
BLACK
6
CONTINUOUS
10
359.346
20
-85.438
11
359.25
21
-85.457
0
LINE
8
BLACK
6
CONTINUOUS
10
359.25
20
-85.457
11
358.45
21
-85.457
0
LINE
8
BLACK
6
CONTINUOUS
10
358.45
20
-85.457
11
358.354
21
-85.438
0
LINE
8
BLACK
6
CONTINUOUS
10
358.354
20
-85.438
11
358.273
21
-85.3838
0
LINE
8
BLACK
6
CONTINUOUS
10
358.273
20
-85.3838
11
358.219
21
-85.3027
0
LINE
8
BLACK
6
CONTINUOUS
10
358.219
20
-85.3027
11
358.2
21
-85.207
0
LINE
8
BLACK
6
CONTINUOUS
10
358.2
20
-85.207
11
358.2
21
-83.957
0
LINE
8
BLACK
6
CONTINUOUS
10
358.2
20
-83.957
11
358.219
21
-83.8613
0
LINE
8
BLACK
6
CONTINUOUS
10
358.219
20
-83.8613
11
358.273
21
-83.7802
0
LINE
8
BLACK
6
CONTINUOUS
10
358.273
20
-83.7802
11
358.354
21
-83.726
0
LINE
8
BLACK
6
CONTINUOUS
10
358.354
20
-83.726
11
358.45
21
-83.707
0
LINE
8
BLACK
6
CONTINUOUS
10
358.45
20
-83.707
11
359.25
21
-83.707
0
LINE
8
BLACK
6
CONTINUOUS
10
359.25
20
-83.707
11
359.346
21
-83.726
0
LINE
8
BLACK
6
CONTINUOUS
10
350.28
20
-83.726
11
350.361
21
-83.7802
0
LINE
8
BLACK
6
CONTINUOUS
10
350.361
20
-83.7802
11
350.415
21
-83.8613
0
LINE
8
BLACK
6
CONTINUOUS
10
350.415
20
-83.8613
11
350.434
21
-83.957
0
LINE
8
BLACK
6
CONTINUOUS
10
350.434
20
-83.957
11
350.434
21
-85.207
0
LINE
8
BLACK
6
CONTINUOUS
10
350.434
20
-85.207
11
350.415
21
-85.3027
0
LINE
8
BLACK
6
CONTINUOUS
10
350.415
20
-85.3027
11
350.361
21
-85.3838
0
LINE
8
BLACK
6
CONTINUOUS
10
350.361
20
-85.3838
11
350.28
21
-85.438
0
LINE
8
BLACK
6
CONTINUOUS
10
350.28
20
-85.438
11
350.184
21
-85.457
0
LINE
8
BLACK
6
CONTINUOUS
10
350.184
20
-85.457
11
349.384
21
-85.457
0
LINE
8
BLACK
6
CONTINUOUS
10
349.384
20
-85.457
11
349.288
21
-85.438
0
LINE
8
BLACK
6
CONTINUOUS
10
349.288
20
-85.438
11
349.207
21
-85.3838
0
LINE
8
BLACK
6
CONTINUOUS
10
349.207
20
-85.3838
11
349.153
21
-85.3027
0
LINE
8
BLACK
6
CONTINUOUS
10
349.153
20
-85.3027
11
349.134
21
-85.207
0
LINE
8
BLACK
6
CONTINUOUS
10
349.134
20
-85.207
11
349.134
21
-83.957
0
LINE
8
BLACK
6
CONTINUOUS
10
349.134
20
-83.957
11
349.153
21
-83.8613
0
LINE
8
BLACK
6
CONTINUOUS
10
349.153
20
-83.8613
11
349.207
21
-83.7802
0
LINE
8
BLACK
6
CONTINUOUS
10
349.207
20
-83.7802
11
349.288
21
-83.726
0
LINE
8
BLACK
6
CONTINUOUS
10
349.288
20
-83.726
11
349.384
21
-83.707
0
LINE
8
BLACK
6
CONTINUOUS
10
349.384
20
-83.707
11
350.184
21
-83.707
0
LINE
8
BLACK
6
CONTINUOUS
10
350.184
20
-83.707
11
350.28
21
-83.726
0
LINE
8
BLACK
6
CONTINUOUS
10
347.18
20
-83.726
11
347.261
21
-83.7802
0
LINE
8
BLACK
6
CONTINUOUS
10
347.261
20
-83.7802
11
347.315
21
-83.8613
0
LINE
8
BLACK
6
CONTINUOUS
10
347.315
20
-83.8613
11
347.334
21
-83.957
0
LINE
8
BLACK
6
CONTINUOUS
10
347.334
20
-83.957
11
347.334
21
-85.207
0
LINE
8
BLACK
6
CONTINUOUS
10
347.334
20
-85.207
11
347.315
21
-85.3027
0
LINE
8
BLACK
6
CONTINUOUS
10
347.315
20
-85.3027
11
347.261
21
-85.3838
0
LINE
8
BLACK
6
CONTINUOUS
10
347.261
20
-85.3838
11
347.18
21
-85.438
0
LINE
8
BLACK
6
CONTINUOUS
10
347.18
20
-85.438
11
347.084
21
-85.457
0
LINE
8
BLACK
6
CONTINUOUS
10
347.084
20
-85.457
11
346.284
21
-85.457
0
LINE
8
BLACK
6
CONTINUOUS
10
346.284
20
-85.457
11
346.188
21
-85.438
0
LINE
8
BLACK
6
CONTINUOUS
10
346.188
20
-85.438
11
346.107
21
-85.3838
0
LINE
8
BLACK
6
CONTINUOUS
10
346.107
20
-85.3838
11
346.053
21
-85.3027
0
LINE
8
BLACK
6
CONTINUOUS
10
346.053
20
-85.3027
11
346.034
21
-85.207
0
LINE
8
BLACK
6
CONTINUOUS
10
346.034
20
-85.207
11
346.034
21
-83.957
0
LINE
8
BLACK
6
CONTINUOUS
10
346.034
20
-83.957
11
346.053
21
-83.8613
0
LINE
8
BLACK
6
CONTINUOUS
10
346.053
20
-83.8613
11
346.107
21
-83.7802
0
LINE
8
BLACK
6
CONTINUOUS
10
346.107
20
-83.7802
11
346.188
21
-83.726
0
LINE
8
BLACK
6
CONTINUOUS
10
346.188
20
-83.726
11
346.284
21
-83.707
0
LINE
8
BLACK
6
CONTINUOUS
10
346.284
20
-83.707
11
347.084
21
-83.707
0
LINE
8
BLACK
6
CONTINUOUS
10
347.084
20
-83.707
11
347.18
21
-83.726
0
LINE
8
BLACK
6
CONTINUOUS
10
479.01
20
-50.9267
11
479.013
21
-50.9261
0
LINE
8
BLACK
6
CONTINUOUS
10
479.013
20
-50.9261
11
479.016
21
-50.9278
0
LINE
8
BLACK
6
CONTINUOUS
10
479.016
20
-50.9278
11
479.026
21
-50.9295
0
LINE
8
BLACK
6
CONTINUOUS
10
479.026
20
-50.9295
11
479.041
21
-50.942
0
LINE
8
BLACK
6
CONTINUOUS
10
479.041
20
-50.942
11
479.057
21
-50.9518
0
LINE
8
BLACK
6
CONTINUOUS
10
479.057
20
-50.9518
11
479.06
21
-50.9581
0
LINE
8
BLACK
6
CONTINUOUS
10
479.06
20
-50.9581
11
479.065
21
-50.9625
0
LINE
8
BLACK
6
CONTINUOUS
10
479.065
20
-50.9625
11
479.068
21
-50.9817
0
LINE
8
BLACK
6
CONTINUOUS
10
479.068
20
-50.9817
11
479.075
21
-51
0
LINE
8
BLACK
6
CONTINUOUS
10
479.075
20
-51
11
479.075
21
-311
0
LINE
8
BLACK
6
CONTINUOUS
10
479.075
20
-311
11
479.073
21
-311.01
0
LINE
8
BLACK
6
CONTINUOUS
10
479.073
20
-311.01
11
479.074
21
-311.013
0
LINE
8
BLACK
6
CONTINUOUS
10
479.074
20
-311.013
11
479.072
21
-311.016
0
LINE
8
BLACK
6
CONTINUOUS
10
479.072
20
-311.016
11
479.07
21
-311.026
0
LINE
8
BLACK
6
CONTINUOUS
10
479.07
20
-311.026
11
479.058
21
-311.041
0
LINE
8
BLACK
6
CONTINUOUS
10
479.058
20
-311.041
11
479.048
21
-311.057
0
LINE
8
BLACK
6
CONTINUOUS
10
479.048
20
-311.057
11
479.042
21
-311.06
0
LINE
8
BLACK
6
CONTINUOUS
10
479.042
20
-311.06
11
479.037
21
-311.065
0
LINE
8
BLACK
6
CONTINUOUS
10
479.037
20
-311.065
11
479.018
21
-311.068
0
LINE
8
BLACK
6
CONTINUOUS
10
479.018
20
-311.068
11
479
21
-311.075
0
LINE
8
BLACK
6
CONTINUOUS
10
479
20
-311.075
11
119
21
-311.075
0
LINE
8
BLACK
6
CONTINUOUS
10
119
20
-311.075
11
118.99
21
-311.073
0
LINE
8
BLACK
6
CONTINUOUS
10
118.99
20
-311.073
11
118.987
21
-311.074
0
LINE
8
BLACK
6
CONTINUOUS
10
118.987
20
-311.074
11
118.984
21
-311.072
0
LINE
8
BLACK
6
CONTINUOUS
10
118.984
20
-311.072
11
118.974
21
-311.07
0
LINE
8
BLACK
6
CONTINUOUS
10
118.974
20
-311.07
11
118.959
21
-311.058
0
LINE
8
BLACK
6
CONTINUOUS
10
118.959
20
-311.058
11
118.943
21
-311.048
0
LINE
8
BLACK
6
CONTINUOUS
10
118.943
20
-311.048
11
118.94
21
-311.042
0
LINE
8
BLACK
6
CONTINUOUS
10
118.94
20
-311.042
11
118.935
21
-311.037
0
LINE
8
BLACK
6
CONTINUOUS
10
118.935
20
-311.037
11
118.932
21
-311.018
0
LINE
8
BLACK
6
CONTINUOUS
10
118.932
20
-311.018
11
118.925
21
-311
0
LINE
8
BLACK
6
CONTINUOUS
10
118.925
20
-311
11
118.925
21
-51
0
LINE
8
BLACK
6
CONTINUOUS
10
118.925
20
-51
11
118.927
21
-50.9903
0
LINE
8
BLACK
6
CONTINUOUS
10
118.927
20
-50.9903
11
118.926
21
-50.987
0
LINE
8
BLACK
6
CONTINUOUS
10
118.926
20
-50.987
11
118.928
21
-50.9841
0
LINE
8
BLACK
6
CONTINUOUS
10
118.928
20
-50.9841
11
118.93
21
-50.9743
0
LINE
8
BLACK
6
CONTINUOUS
10
118.93
20
-50.9743
11
118.942
21
-50.9594
0
LINE
8
BLACK
6
CONTINUOUS
10
118.942
20
-50.9594
11
118.952
21
-50.9425
0
LINE
8
BLACK
6
CONTINUOUS
10
118.952
20
-50.9425
11
118.958
21
-50.9402
0
LINE
8
BLACK
6
CONTINUOUS
10
118.958
20
-50.9402
11
118.962
21
-50.935
0
LINE
8
BLACK
6
CONTINUOUS
10
118.962
20
-50.935
11
118.982
21
-50.9317
0
LINE
8
BLACK
6
CONTINUOUS
10
118.982
20
-50.9317
11
119
21
-50.925
0
LINE
8
BLACK
6
CONTINUOUS
10
119
20
-50.925
11
479
21
-50.925
0
LINE
8
BLACK
6
CONTINUOUS
10
479
20
-50.925
11
479.01
21
-50.9267
0
LINE
8
BLACK
6
CONTINUOUS
10
119.075
20
-51.075
11
119.075
21
-310.925
0
LINE
8
BLACK
6
CONTINUOUS
10
119.075
20
-310.925
11
478.925
21
-310.925
0
LINE
8
BLACK
6
CONTINUOUS
10
478.925
20
-310.925
11
478.925
21
-51.075
0
LINE
8
BLACK
6
CONTINUOUS
10
478.925
20
-51.075
11
119.075
21
-51.075
  0
ENDSEC
  0
EOF
