  0
SECTION
  2
HEADER
  9
$ANGBASE
  50
0.0
  9
$ANGDIR
  70
1
  9
$MEASUREMENT
  70
0
  0
ENDSEC
  0
SECTION
  2
TABLES
  0
TABLE
  2
LTYPE
  70
4
  0
LTYPE
  5
40F
  2
CONTINUOUS
  70
0
  3
Solid line
  72
65
  73
0
  40
0.0
  0
LTYPE
  5
410
  2
DASHDOT
 70
0
  3
Dash Dot ____ _ ____ _
 72
65
 73
4
 40
2.0
 49
1.25
 49
-0.25
 49
0.25
 49
-0.25
  0
LTYPE
  5
411
  2
DASHED
 70
0
  3
Dashed __ __ __ __ __
 72
65
 73
2
 40
0.75
 49
0.5
 49
-0.25
  0
LTYPE
  5
43B
  2
DOTTED
 70
0
  3
Dotted .  .  .  .
 72
65
 73
2
 40
0.2
 49
0.0
 49
-0.2
  0
ENDTAB
  0
TABLE
  2
STYLE
  70
4
  0
STYLE
  2
KICAD
  70
0
  40
0
  41
1
  42
1
  50
0
  71
0
  3
isocp.shx
  0
STYLE
  2
KICADB
  70
0
  40
0
  41
1
  42
1
  50
0
  71
0
  3
isocp.shx
  0
STYLE
  2
KICADI
  70
0
  40
0
  41
1
  42
1
  50
15
  71
0
  3
isocp.shx
  0
STYLE
  2
KICADBI
  70
0
  40
0
  41
1
  42
1
  50
15
  71
0
  3
isocp.shx
  0
ENDTAB
  0
TABLE
  2
LAYER
  70
1
  0
LAYER
  2
BLACK
  70
0
  62
7
  6
CONTINUOUS
  0
ENDTAB
  0
ENDSEC
  0
SECTION
  2
ENTITIES
0
LINE
8
BLACK
6
CONTINUOUS
10
18.8587
20
-2.00499
11
18.8588
21
-2.00497
0
LINE
8
BLACK
6
CONTINUOUS
10
18.8588
20
-2.00497
11
18.8589
21
-2.00503
0
LINE
8
BLACK
6
CONTINUOUS
10
18.8589
20
-2.00503
11
18.8593
21
-2.0051
0
LINE
8
BLACK
6
CONTINUOUS
10
18.8593
20
-2.0051
11
18.8599
21
-2.00559
0
LINE
8
BLACK
6
CONTINUOUS
10
18.8599
20
-2.00559
11
18.8605
21
-2.00598
0
LINE
8
BLACK
6
CONTINUOUS
10
18.8605
20
-2.00598
11
18.8606
21
-2.00623
0
LINE
8
BLACK
6
CONTINUOUS
10
18.8606
20
-2.00623
11
18.8608
21
-2.0064
0
LINE
8
BLACK
6
CONTINUOUS
10
18.8608
20
-2.0064
11
18.861
21
-2.00715
0
LINE
8
BLACK
6
CONTINUOUS
10
18.861
20
-2.00715
11
18.8612
21
-2.00787
0
LINE
8
BLACK
6
CONTINUOUS
10
18.8612
20
-2.00787
11
18.8612
21
-12.2441
0
LINE
8
BLACK
6
CONTINUOUS
10
18.8612
20
-12.2441
11
18.8612
21
-12.2445
0
LINE
8
BLACK
6
CONTINUOUS
10
18.8612
20
-12.2445
11
18.8612
21
-12.2446
0
LINE
8
BLACK
6
CONTINUOUS
10
18.8612
20
-12.2446
11
18.8611
21
-12.2447
0
LINE
8
BLACK
6
CONTINUOUS
10
18.8611
20
-12.2447
11
18.861
21
-12.2451
0
LINE
8
BLACK
6
CONTINUOUS
10
18.861
20
-12.2451
11
18.8605
21
-12.2457
0
LINE
8
BLACK
6
CONTINUOUS
10
18.8605
20
-12.2457
11
18.8602
21
-12.2464
0
LINE
8
BLACK
6
CONTINUOUS
10
18.8602
20
-12.2464
11
18.8599
21
-12.2464
0
LINE
8
BLACK
6
CONTINUOUS
10
18.8599
20
-12.2464
11
18.8597
21
-12.2467
0
LINE
8
BLACK
6
CONTINUOUS
10
18.8597
20
-12.2467
11
18.859
21
-12.2468
0
LINE
8
BLACK
6
CONTINUOUS
10
18.859
20
-12.2468
11
18.8583
21
-12.247
0
LINE
8
BLACK
6
CONTINUOUS
10
18.8583
20
-12.247
11
4.68504
21
-12.247
0
LINE
8
BLACK
6
CONTINUOUS
10
4.68504
20
-12.247
11
4.68466
21
-12.247
0
LINE
8
BLACK
6
CONTINUOUS
10
4.68466
20
-12.247
11
4.68453
21
-12.247
0
LINE
8
BLACK
6
CONTINUOUS
10
4.68453
20
-12.247
11
4.68441
21
-12.2469
0
LINE
8
BLACK
6
CONTINUOUS
10
4.68441
20
-12.2469
11
4.68403
21
-12.2469
0
LINE
8
BLACK
6
CONTINUOUS
10
4.68403
20
-12.2469
11
4.68344
21
-12.2464
0
LINE
8
BLACK
6
CONTINUOUS
10
4.68344
20
-12.2464
11
4.68278
21
-12.246
0
LINE
8
BLACK
6
CONTINUOUS
10
4.68278
20
-12.246
11
4.68269
21
-12.2457
0
LINE
8
BLACK
6
CONTINUOUS
10
4.68269
20
-12.2457
11
4.68248
21
-12.2456
0
LINE
8
BLACK
6
CONTINUOUS
10
4.68248
20
-12.2456
11
4.68235
21
-12.2448
0
LINE
8
BLACK
6
CONTINUOUS
10
4.68235
20
-12.2448
11
4.68209
21
-12.2441
0
LINE
8
BLACK
6
CONTINUOUS
10
4.68209
20
-12.2441
11
4.68209
21
-2.00787
0
LINE
8
BLACK
6
CONTINUOUS
10
4.68209
20
-2.00787
11
4.68215
21
-2.00749
0
LINE
8
BLACK
6
CONTINUOUS
10
4.68215
20
-2.00749
11
4.68213
21
-2.00736
0
LINE
8
BLACK
6
CONTINUOUS
10
4.68213
20
-2.00736
11
4.6822
21
-2.00725
0
LINE
8
BLACK
6
CONTINUOUS
10
4.6822
20
-2.00725
11
4.68226
21
-2.00686
0
LINE
8
BLACK
6
CONTINUOUS
10
4.68226
20
-2.00686
11
4.68276
21
-2.00628
0
LINE
8
BLACK
6
CONTINUOUS
10
4.68276
20
-2.00628
11
4.68314
21
-2.00561
0
LINE
8
BLACK
6
CONTINUOUS
10
4.68314
20
-2.00561
11
4.68339
21
-2.00552
0
LINE
8
BLACK
6
CONTINUOUS
10
4.68339
20
-2.00552
11
4.68356
21
-2.00532
0
LINE
8
BLACK
6
CONTINUOUS
10
4.68356
20
-2.00532
11
4.68432
21
-2.00518
0
LINE
8
BLACK
6
CONTINUOUS
10
4.68432
20
-2.00518
11
4.68504
21
-2.00492
0
LINE
8
BLACK
6
CONTINUOUS
10
4.68504
20
-2.00492
11
18.8583
21
-2.00492
0
LINE
8
BLACK
6
CONTINUOUS
10
18.8583
20
-2.00492
11
18.8587
21
-2.00499
0
LINE
8
BLACK
6
CONTINUOUS
10
4.68799
20
-2.01083
11
4.68799
21
-12.2411
0
LINE
8
BLACK
6
CONTINUOUS
10
4.68799
20
-12.2411
11
18.8553
21
-12.2411
0
LINE
8
BLACK
6
CONTINUOUS
10
18.8553
20
-12.2411
11
18.8553
21
-2.01083
0
LINE
8
BLACK
6
CONTINUOUS
10
18.8553
20
-2.01083
11
4.68799
21
-2.01083
  0
ENDSEC
  0
EOF
