%TF.GenerationSoftware,KiCad,Pcbnew,(5.99.0-11071-g7fde05e8ee)*%
%TF.CreationDate,2021-07-29T16:05:04+02:00*%
%TF.ProjectId,Mixduino,4d697864-7569-46e6-9f2e-6b696361645f,rev?*%
%TF.SameCoordinates,Original*%
%TF.FileFunction,Legend,Bot*%
%TF.FilePolarity,Positive*%
%FSLAX46Y46*%
G04 Gerber Fmt 4.6, Leading zero omitted, Abs format (unit mm)*
G04 Created by KiCad (PCBNEW (5.99.0-11071-g7fde05e8ee)) date 2021-07-29 16:05:04*
%MOMM*%
%LPD*%
G01*
G04 APERTURE LIST*
G04 Aperture macros list*
%AMRoundRect*
0 Rectangle with rounded corners*
0 $1 Rounding radius*
0 $2 $3 $4 $5 $6 $7 $8 $9 X,Y pos of 4 corners*
0 Add a 4 corners polygon primitive as box body*
4,1,4,$2,$3,$4,$5,$6,$7,$8,$9,$2,$3,0*
0 Add four circle primitives for the rounded corners*
1,1,$1+$1,$2,$3*
1,1,$1+$1,$4,$5*
1,1,$1+$1,$6,$7*
1,1,$1+$1,$8,$9*
0 Add four rect primitives between the rounded corners*
20,1,$1+$1,$2,$3,$4,$5,0*
20,1,$1+$1,$4,$5,$6,$7,0*
20,1,$1+$1,$6,$7,$8,$9,0*
20,1,$1+$1,$8,$9,$2,$3,0*%
G04 Aperture macros list end*
%TA.AperFunction,Profile*%
%ADD10C,0.150000*%
%TD*%
%ADD11C,0.150000*%
%ADD12C,0.120000*%
%ADD13O,1.727200X1.727200*%
%ADD14R,1.800000X1.800000*%
%ADD15C,1.800000*%
%ADD16C,2.000000*%
%ADD17O,1.600000X2.400000*%
%ADD18O,1.600000X2.462000*%
%ADD19C,2.100000*%
%ADD20C,3.600000*%
%ADD21C,6.400000*%
%ADD22C,3.200000*%
%ADD23C,4.000000*%
%ADD24C,1.524000*%
%ADD25R,2.000000X2.000000*%
%ADD26RoundRect,0.250000X-0.400000X-0.625000X0.400000X-0.625000X0.400000X0.625000X-0.400000X0.625000X0*%
%ADD27RoundRect,0.250000X0.625000X-0.400000X0.625000X0.400000X-0.625000X0.400000X-0.625000X-0.400000X0*%
%ADD28RoundRect,0.250000X0.400000X0.625000X-0.400000X0.625000X-0.400000X-0.625000X0.400000X-0.625000X0*%
%ADD29RoundRect,0.250000X-0.625000X0.400000X-0.625000X-0.400000X0.625000X-0.400000X0.625000X0.400000X0*%
G04 APERTURE END LIST*
D10*
X479000000Y-311000000D02*
X119000000Y-311000000D01*
X119000000Y-311000000D02*
X119000000Y-51000000D01*
X479000000Y-51000000D02*
X479000000Y-311000000D01*
X119000000Y-51000000D02*
X479000000Y-51000000D01*
D11*
%TO.C,R1*%
X266806666Y-172198380D02*
X267140000Y-171722190D01*
X267378095Y-172198380D02*
X267378095Y-171198380D01*
X266997142Y-171198380D01*
X266901904Y-171246000D01*
X266854285Y-171293619D01*
X266806666Y-171388857D01*
X266806666Y-171531714D01*
X266854285Y-171626952D01*
X266901904Y-171674571D01*
X266997142Y-171722190D01*
X267378095Y-171722190D01*
X265854285Y-172198380D02*
X266425714Y-172198380D01*
X266140000Y-172198380D02*
X266140000Y-171198380D01*
X266235238Y-171341238D01*
X266330476Y-171436476D01*
X266425714Y-171484095D01*
%TO.C,R52*%
X361042857Y-91680380D02*
X361376190Y-91204190D01*
X361614285Y-91680380D02*
X361614285Y-90680380D01*
X361233333Y-90680380D01*
X361138095Y-90728000D01*
X361090476Y-90775619D01*
X361042857Y-90870857D01*
X361042857Y-91013714D01*
X361090476Y-91108952D01*
X361138095Y-91156571D01*
X361233333Y-91204190D01*
X361614285Y-91204190D01*
X360138095Y-90680380D02*
X360614285Y-90680380D01*
X360661904Y-91156571D01*
X360614285Y-91108952D01*
X360519047Y-91061333D01*
X360280952Y-91061333D01*
X360185714Y-91108952D01*
X360138095Y-91156571D01*
X360090476Y-91251809D01*
X360090476Y-91489904D01*
X360138095Y-91585142D01*
X360185714Y-91632761D01*
X360280952Y-91680380D01*
X360519047Y-91680380D01*
X360614285Y-91632761D01*
X360661904Y-91585142D01*
X359709523Y-90775619D02*
X359661904Y-90728000D01*
X359566666Y-90680380D01*
X359328571Y-90680380D01*
X359233333Y-90728000D01*
X359185714Y-90775619D01*
X359138095Y-90870857D01*
X359138095Y-90966095D01*
X359185714Y-91108952D01*
X359757142Y-91680380D01*
X359138095Y-91680380D01*
%TO.C,R11*%
X142360380Y-87585142D02*
X141884190Y-87251809D01*
X142360380Y-87013714D02*
X141360380Y-87013714D01*
X141360380Y-87394666D01*
X141408000Y-87489904D01*
X141455619Y-87537523D01*
X141550857Y-87585142D01*
X141693714Y-87585142D01*
X141788952Y-87537523D01*
X141836571Y-87489904D01*
X141884190Y-87394666D01*
X141884190Y-87013714D01*
X142360380Y-88537523D02*
X142360380Y-87966095D01*
X142360380Y-88251809D02*
X141360380Y-88251809D01*
X141503238Y-88156571D01*
X141598476Y-88061333D01*
X141646095Y-87966095D01*
X142360380Y-89489904D02*
X142360380Y-88918476D01*
X142360380Y-89204190D02*
X141360380Y-89204190D01*
X141503238Y-89108952D01*
X141598476Y-89013714D01*
X141646095Y-88918476D01*
%TO.C,R21*%
X301642857Y-137146380D02*
X301976190Y-136670190D01*
X302214285Y-137146380D02*
X302214285Y-136146380D01*
X301833333Y-136146380D01*
X301738095Y-136194000D01*
X301690476Y-136241619D01*
X301642857Y-136336857D01*
X301642857Y-136479714D01*
X301690476Y-136574952D01*
X301738095Y-136622571D01*
X301833333Y-136670190D01*
X302214285Y-136670190D01*
X301261904Y-136241619D02*
X301214285Y-136194000D01*
X301119047Y-136146380D01*
X300880952Y-136146380D01*
X300785714Y-136194000D01*
X300738095Y-136241619D01*
X300690476Y-136336857D01*
X300690476Y-136432095D01*
X300738095Y-136574952D01*
X301309523Y-137146380D01*
X300690476Y-137146380D01*
X299738095Y-137146380D02*
X300309523Y-137146380D01*
X300023809Y-137146380D02*
X300023809Y-136146380D01*
X300119047Y-136289238D01*
X300214285Y-136384476D01*
X300309523Y-136432095D01*
%TO.C,R25*%
X393834857Y-296150380D02*
X394168190Y-295674190D01*
X394406285Y-296150380D02*
X394406285Y-295150380D01*
X394025333Y-295150380D01*
X393930095Y-295198000D01*
X393882476Y-295245619D01*
X393834857Y-295340857D01*
X393834857Y-295483714D01*
X393882476Y-295578952D01*
X393930095Y-295626571D01*
X394025333Y-295674190D01*
X394406285Y-295674190D01*
X393453904Y-295245619D02*
X393406285Y-295198000D01*
X393311047Y-295150380D01*
X393072952Y-295150380D01*
X392977714Y-295198000D01*
X392930095Y-295245619D01*
X392882476Y-295340857D01*
X392882476Y-295436095D01*
X392930095Y-295578952D01*
X393501523Y-296150380D01*
X392882476Y-296150380D01*
X391977714Y-295150380D02*
X392453904Y-295150380D01*
X392501523Y-295626571D01*
X392453904Y-295578952D01*
X392358666Y-295531333D01*
X392120571Y-295531333D01*
X392025333Y-295578952D01*
X391977714Y-295626571D01*
X391930095Y-295721809D01*
X391930095Y-295959904D01*
X391977714Y-296055142D01*
X392025333Y-296102761D01*
X392120571Y-296150380D01*
X392358666Y-296150380D01*
X392453904Y-296102761D01*
X392501523Y-296055142D01*
%TO.C,R50*%
X361042857Y-101586380D02*
X361376190Y-101110190D01*
X361614285Y-101586380D02*
X361614285Y-100586380D01*
X361233333Y-100586380D01*
X361138095Y-100634000D01*
X361090476Y-100681619D01*
X361042857Y-100776857D01*
X361042857Y-100919714D01*
X361090476Y-101014952D01*
X361138095Y-101062571D01*
X361233333Y-101110190D01*
X361614285Y-101110190D01*
X360138095Y-100586380D02*
X360614285Y-100586380D01*
X360661904Y-101062571D01*
X360614285Y-101014952D01*
X360519047Y-100967333D01*
X360280952Y-100967333D01*
X360185714Y-101014952D01*
X360138095Y-101062571D01*
X360090476Y-101157809D01*
X360090476Y-101395904D01*
X360138095Y-101491142D01*
X360185714Y-101538761D01*
X360280952Y-101586380D01*
X360519047Y-101586380D01*
X360614285Y-101538761D01*
X360661904Y-101491142D01*
X359471428Y-100586380D02*
X359376190Y-100586380D01*
X359280952Y-100634000D01*
X359233333Y-100681619D01*
X359185714Y-100776857D01*
X359138095Y-100967333D01*
X359138095Y-101205428D01*
X359185714Y-101395904D01*
X359233333Y-101491142D01*
X359280952Y-101538761D01*
X359376190Y-101586380D01*
X359471428Y-101586380D01*
X359566666Y-101538761D01*
X359614285Y-101491142D01*
X359661904Y-101395904D01*
X359709523Y-101205428D01*
X359709523Y-100967333D01*
X359661904Y-100776857D01*
X359614285Y-100681619D01*
X359566666Y-100634000D01*
X359471428Y-100586380D01*
%TO.C,NPR1*%
X146461904Y-151872380D02*
X146461904Y-150872380D01*
X145890476Y-151872380D01*
X145890476Y-150872380D01*
X145414285Y-151872380D02*
X145414285Y-150872380D01*
X145033333Y-150872380D01*
X144938095Y-150920000D01*
X144890476Y-150967619D01*
X144842857Y-151062857D01*
X144842857Y-151205714D01*
X144890476Y-151300952D01*
X144938095Y-151348571D01*
X145033333Y-151396190D01*
X145414285Y-151396190D01*
X143842857Y-151872380D02*
X144176190Y-151396190D01*
X144414285Y-151872380D02*
X144414285Y-150872380D01*
X144033333Y-150872380D01*
X143938095Y-150920000D01*
X143890476Y-150967619D01*
X143842857Y-151062857D01*
X143842857Y-151205714D01*
X143890476Y-151300952D01*
X143938095Y-151348571D01*
X144033333Y-151396190D01*
X144414285Y-151396190D01*
X142890476Y-151872380D02*
X143461904Y-151872380D01*
X143176190Y-151872380D02*
X143176190Y-150872380D01*
X143271428Y-151015238D01*
X143366666Y-151110476D01*
X143461904Y-151158095D01*
%TO.C,R26*%
X393723857Y-266046380D02*
X394057190Y-265570190D01*
X394295285Y-266046380D02*
X394295285Y-265046380D01*
X393914333Y-265046380D01*
X393819095Y-265094000D01*
X393771476Y-265141619D01*
X393723857Y-265236857D01*
X393723857Y-265379714D01*
X393771476Y-265474952D01*
X393819095Y-265522571D01*
X393914333Y-265570190D01*
X394295285Y-265570190D01*
X393342904Y-265141619D02*
X393295285Y-265094000D01*
X393200047Y-265046380D01*
X392961952Y-265046380D01*
X392866714Y-265094000D01*
X392819095Y-265141619D01*
X392771476Y-265236857D01*
X392771476Y-265332095D01*
X392819095Y-265474952D01*
X393390523Y-266046380D01*
X392771476Y-266046380D01*
X391914333Y-265046380D02*
X392104809Y-265046380D01*
X392200047Y-265094000D01*
X392247666Y-265141619D01*
X392342904Y-265284476D01*
X392390523Y-265474952D01*
X392390523Y-265855904D01*
X392342904Y-265951142D01*
X392295285Y-265998761D01*
X392200047Y-266046380D01*
X392009571Y-266046380D01*
X391914333Y-265998761D01*
X391866714Y-265951142D01*
X391819095Y-265855904D01*
X391819095Y-265617809D01*
X391866714Y-265522571D01*
X391914333Y-265474952D01*
X392009571Y-265427333D01*
X392200047Y-265427333D01*
X392295285Y-265474952D01*
X392342904Y-265522571D01*
X392390523Y-265617809D01*
%TO.C,R34*%
X335642857Y-152132380D02*
X335976190Y-151656190D01*
X336214285Y-152132380D02*
X336214285Y-151132380D01*
X335833333Y-151132380D01*
X335738095Y-151180000D01*
X335690476Y-151227619D01*
X335642857Y-151322857D01*
X335642857Y-151465714D01*
X335690476Y-151560952D01*
X335738095Y-151608571D01*
X335833333Y-151656190D01*
X336214285Y-151656190D01*
X335309523Y-151132380D02*
X334690476Y-151132380D01*
X335023809Y-151513333D01*
X334880952Y-151513333D01*
X334785714Y-151560952D01*
X334738095Y-151608571D01*
X334690476Y-151703809D01*
X334690476Y-151941904D01*
X334738095Y-152037142D01*
X334785714Y-152084761D01*
X334880952Y-152132380D01*
X335166666Y-152132380D01*
X335261904Y-152084761D01*
X335309523Y-152037142D01*
X333833333Y-151465714D02*
X333833333Y-152132380D01*
X334071428Y-151084761D02*
X334309523Y-151799047D01*
X333690476Y-151799047D01*
%TO.C,R14*%
X301642857Y-172198380D02*
X301976190Y-171722190D01*
X302214285Y-172198380D02*
X302214285Y-171198380D01*
X301833333Y-171198380D01*
X301738095Y-171246000D01*
X301690476Y-171293619D01*
X301642857Y-171388857D01*
X301642857Y-171531714D01*
X301690476Y-171626952D01*
X301738095Y-171674571D01*
X301833333Y-171722190D01*
X302214285Y-171722190D01*
X300690476Y-172198380D02*
X301261904Y-172198380D01*
X300976190Y-172198380D02*
X300976190Y-171198380D01*
X301071428Y-171341238D01*
X301166666Y-171436476D01*
X301261904Y-171484095D01*
X299833333Y-171531714D02*
X299833333Y-172198380D01*
X300071428Y-171150761D02*
X300309523Y-171865047D01*
X299690476Y-171865047D01*
%TO.C,R37*%
X335668857Y-137146380D02*
X336002190Y-136670190D01*
X336240285Y-137146380D02*
X336240285Y-136146380D01*
X335859333Y-136146380D01*
X335764095Y-136194000D01*
X335716476Y-136241619D01*
X335668857Y-136336857D01*
X335668857Y-136479714D01*
X335716476Y-136574952D01*
X335764095Y-136622571D01*
X335859333Y-136670190D01*
X336240285Y-136670190D01*
X335335523Y-136146380D02*
X334716476Y-136146380D01*
X335049809Y-136527333D01*
X334906952Y-136527333D01*
X334811714Y-136574952D01*
X334764095Y-136622571D01*
X334716476Y-136717809D01*
X334716476Y-136955904D01*
X334764095Y-137051142D01*
X334811714Y-137098761D01*
X334906952Y-137146380D01*
X335192666Y-137146380D01*
X335287904Y-137098761D01*
X335335523Y-137051142D01*
X334383142Y-136146380D02*
X333716476Y-136146380D01*
X334145047Y-137146380D01*
%TO.C,R43*%
X348876857Y-96760380D02*
X349210190Y-96284190D01*
X349448285Y-96760380D02*
X349448285Y-95760380D01*
X349067333Y-95760380D01*
X348972095Y-95808000D01*
X348924476Y-95855619D01*
X348876857Y-95950857D01*
X348876857Y-96093714D01*
X348924476Y-96188952D01*
X348972095Y-96236571D01*
X349067333Y-96284190D01*
X349448285Y-96284190D01*
X348019714Y-96093714D02*
X348019714Y-96760380D01*
X348257809Y-95712761D02*
X348495904Y-96427047D01*
X347876857Y-96427047D01*
X347591142Y-95760380D02*
X346972095Y-95760380D01*
X347305428Y-96141333D01*
X347162571Y-96141333D01*
X347067333Y-96188952D01*
X347019714Y-96236571D01*
X346972095Y-96331809D01*
X346972095Y-96569904D01*
X347019714Y-96665142D01*
X347067333Y-96712761D01*
X347162571Y-96760380D01*
X347448285Y-96760380D01*
X347543523Y-96712761D01*
X347591142Y-96665142D01*
%TO.C,R45*%
X348876857Y-86854380D02*
X349210190Y-86378190D01*
X349448285Y-86854380D02*
X349448285Y-85854380D01*
X349067333Y-85854380D01*
X348972095Y-85902000D01*
X348924476Y-85949619D01*
X348876857Y-86044857D01*
X348876857Y-86187714D01*
X348924476Y-86282952D01*
X348972095Y-86330571D01*
X349067333Y-86378190D01*
X349448285Y-86378190D01*
X348019714Y-86187714D02*
X348019714Y-86854380D01*
X348257809Y-85806761D02*
X348495904Y-86521047D01*
X347876857Y-86521047D01*
X347019714Y-85854380D02*
X347495904Y-85854380D01*
X347543523Y-86330571D01*
X347495904Y-86282952D01*
X347400666Y-86235333D01*
X347162571Y-86235333D01*
X347067333Y-86282952D01*
X347019714Y-86330571D01*
X346972095Y-86425809D01*
X346972095Y-86663904D01*
X347019714Y-86759142D01*
X347067333Y-86806761D01*
X347162571Y-86854380D01*
X347400666Y-86854380D01*
X347495904Y-86806761D01*
X347543523Y-86759142D01*
%TO.C,R55*%
X445762380Y-271347142D02*
X445286190Y-271013809D01*
X445762380Y-270775714D02*
X444762380Y-270775714D01*
X444762380Y-271156666D01*
X444810000Y-271251904D01*
X444857619Y-271299523D01*
X444952857Y-271347142D01*
X445095714Y-271347142D01*
X445190952Y-271299523D01*
X445238571Y-271251904D01*
X445286190Y-271156666D01*
X445286190Y-270775714D01*
X444762380Y-272251904D02*
X444762380Y-271775714D01*
X445238571Y-271728095D01*
X445190952Y-271775714D01*
X445143333Y-271870952D01*
X445143333Y-272109047D01*
X445190952Y-272204285D01*
X445238571Y-272251904D01*
X445333809Y-272299523D01*
X445571904Y-272299523D01*
X445667142Y-272251904D01*
X445714761Y-272204285D01*
X445762380Y-272109047D01*
X445762380Y-271870952D01*
X445714761Y-271775714D01*
X445667142Y-271728095D01*
X444762380Y-273204285D02*
X444762380Y-272728095D01*
X445238571Y-272680476D01*
X445190952Y-272728095D01*
X445143333Y-272823333D01*
X445143333Y-273061428D01*
X445190952Y-273156666D01*
X445238571Y-273204285D01*
X445333809Y-273251904D01*
X445571904Y-273251904D01*
X445667142Y-273204285D01*
X445714761Y-273156666D01*
X445762380Y-273061428D01*
X445762380Y-272823333D01*
X445714761Y-272728095D01*
X445667142Y-272680476D01*
%TO.C,R38*%
X348876857Y-121906380D02*
X349210190Y-121430190D01*
X349448285Y-121906380D02*
X349448285Y-120906380D01*
X349067333Y-120906380D01*
X348972095Y-120954000D01*
X348924476Y-121001619D01*
X348876857Y-121096857D01*
X348876857Y-121239714D01*
X348924476Y-121334952D01*
X348972095Y-121382571D01*
X349067333Y-121430190D01*
X349448285Y-121430190D01*
X348543523Y-120906380D02*
X347924476Y-120906380D01*
X348257809Y-121287333D01*
X348114952Y-121287333D01*
X348019714Y-121334952D01*
X347972095Y-121382571D01*
X347924476Y-121477809D01*
X347924476Y-121715904D01*
X347972095Y-121811142D01*
X348019714Y-121858761D01*
X348114952Y-121906380D01*
X348400666Y-121906380D01*
X348495904Y-121858761D01*
X348543523Y-121811142D01*
X347353047Y-121334952D02*
X347448285Y-121287333D01*
X347495904Y-121239714D01*
X347543523Y-121144476D01*
X347543523Y-121096857D01*
X347495904Y-121001619D01*
X347448285Y-120954000D01*
X347353047Y-120906380D01*
X347162571Y-120906380D01*
X347067333Y-120954000D01*
X347019714Y-121001619D01*
X346972095Y-121096857D01*
X346972095Y-121144476D01*
X347019714Y-121239714D01*
X347067333Y-121287333D01*
X347162571Y-121334952D01*
X347353047Y-121334952D01*
X347448285Y-121382571D01*
X347495904Y-121430190D01*
X347543523Y-121525428D01*
X347543523Y-121715904D01*
X347495904Y-121811142D01*
X347448285Y-121858761D01*
X347353047Y-121906380D01*
X347162571Y-121906380D01*
X347067333Y-121858761D01*
X347019714Y-121811142D01*
X346972095Y-121715904D01*
X346972095Y-121525428D01*
X347019714Y-121430190D01*
X347067333Y-121382571D01*
X347162571Y-121334952D01*
%TO.C,R41*%
X348876857Y-106666380D02*
X349210190Y-106190190D01*
X349448285Y-106666380D02*
X349448285Y-105666380D01*
X349067333Y-105666380D01*
X348972095Y-105714000D01*
X348924476Y-105761619D01*
X348876857Y-105856857D01*
X348876857Y-105999714D01*
X348924476Y-106094952D01*
X348972095Y-106142571D01*
X349067333Y-106190190D01*
X349448285Y-106190190D01*
X348019714Y-105999714D02*
X348019714Y-106666380D01*
X348257809Y-105618761D02*
X348495904Y-106333047D01*
X347876857Y-106333047D01*
X346972095Y-106666380D02*
X347543523Y-106666380D01*
X347257809Y-106666380D02*
X347257809Y-105666380D01*
X347353047Y-105809238D01*
X347448285Y-105904476D01*
X347543523Y-105952095D01*
%TO.C,R7*%
X266752666Y-142302380D02*
X267086000Y-141826190D01*
X267324095Y-142302380D02*
X267324095Y-141302380D01*
X266943142Y-141302380D01*
X266847904Y-141350000D01*
X266800285Y-141397619D01*
X266752666Y-141492857D01*
X266752666Y-141635714D01*
X266800285Y-141730952D01*
X266847904Y-141778571D01*
X266943142Y-141826190D01*
X267324095Y-141826190D01*
X266419333Y-141302380D02*
X265752666Y-141302380D01*
X266181238Y-142302380D01*
%TO.C,R4*%
X266682666Y-157272380D02*
X267016000Y-156796190D01*
X267254095Y-157272380D02*
X267254095Y-156272380D01*
X266873142Y-156272380D01*
X266777904Y-156320000D01*
X266730285Y-156367619D01*
X266682666Y-156462857D01*
X266682666Y-156605714D01*
X266730285Y-156700952D01*
X266777904Y-156748571D01*
X266873142Y-156796190D01*
X267254095Y-156796190D01*
X265825523Y-156605714D02*
X265825523Y-157272380D01*
X266063619Y-156224761D02*
X266301714Y-156939047D01*
X265682666Y-156939047D01*
%TO.C,R32*%
X335642857Y-162292380D02*
X335976190Y-161816190D01*
X336214285Y-162292380D02*
X336214285Y-161292380D01*
X335833333Y-161292380D01*
X335738095Y-161340000D01*
X335690476Y-161387619D01*
X335642857Y-161482857D01*
X335642857Y-161625714D01*
X335690476Y-161720952D01*
X335738095Y-161768571D01*
X335833333Y-161816190D01*
X336214285Y-161816190D01*
X335309523Y-161292380D02*
X334690476Y-161292380D01*
X335023809Y-161673333D01*
X334880952Y-161673333D01*
X334785714Y-161720952D01*
X334738095Y-161768571D01*
X334690476Y-161863809D01*
X334690476Y-162101904D01*
X334738095Y-162197142D01*
X334785714Y-162244761D01*
X334880952Y-162292380D01*
X335166666Y-162292380D01*
X335261904Y-162244761D01*
X335309523Y-162197142D01*
X334309523Y-161387619D02*
X334261904Y-161340000D01*
X334166666Y-161292380D01*
X333928571Y-161292380D01*
X333833333Y-161340000D01*
X333785714Y-161387619D01*
X333738095Y-161482857D01*
X333738095Y-161578095D01*
X333785714Y-161720952D01*
X334357142Y-162292380D01*
X333738095Y-162292380D01*
%TO.C,R48*%
X361094857Y-111746380D02*
X361428190Y-111270190D01*
X361666285Y-111746380D02*
X361666285Y-110746380D01*
X361285333Y-110746380D01*
X361190095Y-110794000D01*
X361142476Y-110841619D01*
X361094857Y-110936857D01*
X361094857Y-111079714D01*
X361142476Y-111174952D01*
X361190095Y-111222571D01*
X361285333Y-111270190D01*
X361666285Y-111270190D01*
X360237714Y-111079714D02*
X360237714Y-111746380D01*
X360475809Y-110698761D02*
X360713904Y-111413047D01*
X360094857Y-111413047D01*
X359571047Y-111174952D02*
X359666285Y-111127333D01*
X359713904Y-111079714D01*
X359761523Y-110984476D01*
X359761523Y-110936857D01*
X359713904Y-110841619D01*
X359666285Y-110794000D01*
X359571047Y-110746380D01*
X359380571Y-110746380D01*
X359285333Y-110794000D01*
X359237714Y-110841619D01*
X359190095Y-110936857D01*
X359190095Y-110984476D01*
X359237714Y-111079714D01*
X359285333Y-111127333D01*
X359380571Y-111174952D01*
X359571047Y-111174952D01*
X359666285Y-111222571D01*
X359713904Y-111270190D01*
X359761523Y-111365428D01*
X359761523Y-111555904D01*
X359713904Y-111651142D01*
X359666285Y-111698761D01*
X359571047Y-111746380D01*
X359380571Y-111746380D01*
X359285333Y-111698761D01*
X359237714Y-111651142D01*
X359190095Y-111555904D01*
X359190095Y-111365428D01*
X359237714Y-111270190D01*
X359285333Y-111222571D01*
X359380571Y-111174952D01*
%TO.C,R27*%
X387918380Y-87463142D02*
X387442190Y-87129809D01*
X387918380Y-86891714D02*
X386918380Y-86891714D01*
X386918380Y-87272666D01*
X386966000Y-87367904D01*
X387013619Y-87415523D01*
X387108857Y-87463142D01*
X387251714Y-87463142D01*
X387346952Y-87415523D01*
X387394571Y-87367904D01*
X387442190Y-87272666D01*
X387442190Y-86891714D01*
X387013619Y-87844095D02*
X386966000Y-87891714D01*
X386918380Y-87986952D01*
X386918380Y-88225047D01*
X386966000Y-88320285D01*
X387013619Y-88367904D01*
X387108857Y-88415523D01*
X387204095Y-88415523D01*
X387346952Y-88367904D01*
X387918380Y-87796476D01*
X387918380Y-88415523D01*
X386918380Y-88748857D02*
X386918380Y-89415523D01*
X387918380Y-88986952D01*
%TO.C,R18*%
X301642857Y-152132380D02*
X301976190Y-151656190D01*
X302214285Y-152132380D02*
X302214285Y-151132380D01*
X301833333Y-151132380D01*
X301738095Y-151180000D01*
X301690476Y-151227619D01*
X301642857Y-151322857D01*
X301642857Y-151465714D01*
X301690476Y-151560952D01*
X301738095Y-151608571D01*
X301833333Y-151656190D01*
X302214285Y-151656190D01*
X300690476Y-152132380D02*
X301261904Y-152132380D01*
X300976190Y-152132380D02*
X300976190Y-151132380D01*
X301071428Y-151275238D01*
X301166666Y-151370476D01*
X301261904Y-151418095D01*
X300119047Y-151560952D02*
X300214285Y-151513333D01*
X300261904Y-151465714D01*
X300309523Y-151370476D01*
X300309523Y-151322857D01*
X300261904Y-151227619D01*
X300214285Y-151180000D01*
X300119047Y-151132380D01*
X299928571Y-151132380D01*
X299833333Y-151180000D01*
X299785714Y-151227619D01*
X299738095Y-151322857D01*
X299738095Y-151370476D01*
X299785714Y-151465714D01*
X299833333Y-151513333D01*
X299928571Y-151560952D01*
X300119047Y-151560952D01*
X300214285Y-151608571D01*
X300261904Y-151656190D01*
X300309523Y-151751428D01*
X300309523Y-151941904D01*
X300261904Y-152037142D01*
X300214285Y-152084761D01*
X300119047Y-152132380D01*
X299928571Y-152132380D01*
X299833333Y-152084761D01*
X299785714Y-152037142D01*
X299738095Y-151941904D01*
X299738095Y-151751428D01*
X299785714Y-151656190D01*
X299833333Y-151608571D01*
X299928571Y-151560952D01*
%TO.C,R22*%
X258558380Y-226687142D02*
X258082190Y-226353809D01*
X258558380Y-226115714D02*
X257558380Y-226115714D01*
X257558380Y-226496666D01*
X257606000Y-226591904D01*
X257653619Y-226639523D01*
X257748857Y-226687142D01*
X257891714Y-226687142D01*
X257986952Y-226639523D01*
X258034571Y-226591904D01*
X258082190Y-226496666D01*
X258082190Y-226115714D01*
X257653619Y-227068095D02*
X257606000Y-227115714D01*
X257558380Y-227210952D01*
X257558380Y-227449047D01*
X257606000Y-227544285D01*
X257653619Y-227591904D01*
X257748857Y-227639523D01*
X257844095Y-227639523D01*
X257986952Y-227591904D01*
X258558380Y-227020476D01*
X258558380Y-227639523D01*
X257653619Y-228020476D02*
X257606000Y-228068095D01*
X257558380Y-228163333D01*
X257558380Y-228401428D01*
X257606000Y-228496666D01*
X257653619Y-228544285D01*
X257748857Y-228591904D01*
X257844095Y-228591904D01*
X257986952Y-228544285D01*
X258558380Y-227972857D01*
X258558380Y-228591904D01*
%TO.C,R13*%
X225164380Y-87585142D02*
X224688190Y-87251809D01*
X225164380Y-87013714D02*
X224164380Y-87013714D01*
X224164380Y-87394666D01*
X224212000Y-87489904D01*
X224259619Y-87537523D01*
X224354857Y-87585142D01*
X224497714Y-87585142D01*
X224592952Y-87537523D01*
X224640571Y-87489904D01*
X224688190Y-87394666D01*
X224688190Y-87013714D01*
X225164380Y-88537523D02*
X225164380Y-87966095D01*
X225164380Y-88251809D02*
X224164380Y-88251809D01*
X224307238Y-88156571D01*
X224402476Y-88061333D01*
X224450095Y-87966095D01*
X224164380Y-88870857D02*
X224164380Y-89489904D01*
X224545333Y-89156571D01*
X224545333Y-89299428D01*
X224592952Y-89394666D01*
X224640571Y-89442285D01*
X224735809Y-89489904D01*
X224973904Y-89489904D01*
X225069142Y-89442285D01*
X225116761Y-89394666D01*
X225164380Y-89299428D01*
X225164380Y-89013714D01*
X225116761Y-88918476D01*
X225069142Y-88870857D01*
%TO.C,R42*%
X348876857Y-101586380D02*
X349210190Y-101110190D01*
X349448285Y-101586380D02*
X349448285Y-100586380D01*
X349067333Y-100586380D01*
X348972095Y-100634000D01*
X348924476Y-100681619D01*
X348876857Y-100776857D01*
X348876857Y-100919714D01*
X348924476Y-101014952D01*
X348972095Y-101062571D01*
X349067333Y-101110190D01*
X349448285Y-101110190D01*
X348019714Y-100919714D02*
X348019714Y-101586380D01*
X348257809Y-100538761D02*
X348495904Y-101253047D01*
X347876857Y-101253047D01*
X347543523Y-100681619D02*
X347495904Y-100634000D01*
X347400666Y-100586380D01*
X347162571Y-100586380D01*
X347067333Y-100634000D01*
X347019714Y-100681619D01*
X346972095Y-100776857D01*
X346972095Y-100872095D01*
X347019714Y-101014952D01*
X347591142Y-101586380D01*
X346972095Y-101586380D01*
%TO.C,R17*%
X301642857Y-157212380D02*
X301976190Y-156736190D01*
X302214285Y-157212380D02*
X302214285Y-156212380D01*
X301833333Y-156212380D01*
X301738095Y-156260000D01*
X301690476Y-156307619D01*
X301642857Y-156402857D01*
X301642857Y-156545714D01*
X301690476Y-156640952D01*
X301738095Y-156688571D01*
X301833333Y-156736190D01*
X302214285Y-156736190D01*
X300690476Y-157212380D02*
X301261904Y-157212380D01*
X300976190Y-157212380D02*
X300976190Y-156212380D01*
X301071428Y-156355238D01*
X301166666Y-156450476D01*
X301261904Y-156498095D01*
X300357142Y-156212380D02*
X299690476Y-156212380D01*
X300119047Y-157212380D01*
%TO.C,R40*%
X348876857Y-111746380D02*
X349210190Y-111270190D01*
X349448285Y-111746380D02*
X349448285Y-110746380D01*
X349067333Y-110746380D01*
X348972095Y-110794000D01*
X348924476Y-110841619D01*
X348876857Y-110936857D01*
X348876857Y-111079714D01*
X348924476Y-111174952D01*
X348972095Y-111222571D01*
X349067333Y-111270190D01*
X349448285Y-111270190D01*
X348019714Y-111079714D02*
X348019714Y-111746380D01*
X348257809Y-110698761D02*
X348495904Y-111413047D01*
X347876857Y-111413047D01*
X347305428Y-110746380D02*
X347210190Y-110746380D01*
X347114952Y-110794000D01*
X347067333Y-110841619D01*
X347019714Y-110936857D01*
X346972095Y-111127333D01*
X346972095Y-111365428D01*
X347019714Y-111555904D01*
X347067333Y-111651142D01*
X347114952Y-111698761D01*
X347210190Y-111746380D01*
X347305428Y-111746380D01*
X347400666Y-111698761D01*
X347448285Y-111651142D01*
X347495904Y-111555904D01*
X347543523Y-111365428D01*
X347543523Y-111127333D01*
X347495904Y-110936857D01*
X347448285Y-110841619D01*
X347400666Y-110794000D01*
X347305428Y-110746380D01*
%TO.C,R44*%
X348876857Y-91934380D02*
X349210190Y-91458190D01*
X349448285Y-91934380D02*
X349448285Y-90934380D01*
X349067333Y-90934380D01*
X348972095Y-90982000D01*
X348924476Y-91029619D01*
X348876857Y-91124857D01*
X348876857Y-91267714D01*
X348924476Y-91362952D01*
X348972095Y-91410571D01*
X349067333Y-91458190D01*
X349448285Y-91458190D01*
X348019714Y-91267714D02*
X348019714Y-91934380D01*
X348257809Y-90886761D02*
X348495904Y-91601047D01*
X347876857Y-91601047D01*
X347067333Y-91267714D02*
X347067333Y-91934380D01*
X347305428Y-90886761D02*
X347543523Y-91601047D01*
X346924476Y-91601047D01*
%TO.C,R19*%
X301632857Y-147306380D02*
X301966190Y-146830190D01*
X302204285Y-147306380D02*
X302204285Y-146306380D01*
X301823333Y-146306380D01*
X301728095Y-146354000D01*
X301680476Y-146401619D01*
X301632857Y-146496857D01*
X301632857Y-146639714D01*
X301680476Y-146734952D01*
X301728095Y-146782571D01*
X301823333Y-146830190D01*
X302204285Y-146830190D01*
X300680476Y-147306380D02*
X301251904Y-147306380D01*
X300966190Y-147306380D02*
X300966190Y-146306380D01*
X301061428Y-146449238D01*
X301156666Y-146544476D01*
X301251904Y-146592095D01*
X300204285Y-147306380D02*
X300013809Y-147306380D01*
X299918571Y-147258761D01*
X299870952Y-147211142D01*
X299775714Y-147068285D01*
X299728095Y-146877809D01*
X299728095Y-146496857D01*
X299775714Y-146401619D01*
X299823333Y-146354000D01*
X299918571Y-146306380D01*
X300109047Y-146306380D01*
X300204285Y-146354000D01*
X300251904Y-146401619D01*
X300299523Y-146496857D01*
X300299523Y-146734952D01*
X300251904Y-146830190D01*
X300204285Y-146877809D01*
X300109047Y-146925428D01*
X299918571Y-146925428D01*
X299823333Y-146877809D01*
X299775714Y-146830190D01*
X299728095Y-146734952D01*
%TO.C,R20*%
X301642857Y-142226380D02*
X301976190Y-141750190D01*
X302214285Y-142226380D02*
X302214285Y-141226380D01*
X301833333Y-141226380D01*
X301738095Y-141274000D01*
X301690476Y-141321619D01*
X301642857Y-141416857D01*
X301642857Y-141559714D01*
X301690476Y-141654952D01*
X301738095Y-141702571D01*
X301833333Y-141750190D01*
X302214285Y-141750190D01*
X301261904Y-141321619D02*
X301214285Y-141274000D01*
X301119047Y-141226380D01*
X300880952Y-141226380D01*
X300785714Y-141274000D01*
X300738095Y-141321619D01*
X300690476Y-141416857D01*
X300690476Y-141512095D01*
X300738095Y-141654952D01*
X301309523Y-142226380D01*
X300690476Y-142226380D01*
X300071428Y-141226380D02*
X299976190Y-141226380D01*
X299880952Y-141274000D01*
X299833333Y-141321619D01*
X299785714Y-141416857D01*
X299738095Y-141607333D01*
X299738095Y-141845428D01*
X299785714Y-142035904D01*
X299833333Y-142131142D01*
X299880952Y-142178761D01*
X299976190Y-142226380D01*
X300071428Y-142226380D01*
X300166666Y-142178761D01*
X300214285Y-142131142D01*
X300261904Y-142035904D01*
X300309523Y-141845428D01*
X300309523Y-141607333D01*
X300261904Y-141416857D01*
X300214285Y-141321619D01*
X300166666Y-141274000D01*
X300071428Y-141226380D01*
%TO.C,R54*%
X192287743Y-271063046D02*
X191811553Y-270729713D01*
X192287743Y-270491618D02*
X191287743Y-270491618D01*
X191287743Y-270872570D01*
X191335363Y-270967808D01*
X191382982Y-271015427D01*
X191478220Y-271063046D01*
X191621077Y-271063046D01*
X191716315Y-271015427D01*
X191763934Y-270967808D01*
X191811553Y-270872570D01*
X191811553Y-270491618D01*
X191287743Y-271967808D02*
X191287743Y-271491618D01*
X191763934Y-271443999D01*
X191716315Y-271491618D01*
X191668696Y-271586856D01*
X191668696Y-271824951D01*
X191716315Y-271920189D01*
X191763934Y-271967808D01*
X191859172Y-272015427D01*
X192097267Y-272015427D01*
X192192505Y-271967808D01*
X192240124Y-271920189D01*
X192287743Y-271824951D01*
X192287743Y-271586856D01*
X192240124Y-271491618D01*
X192192505Y-271443999D01*
X191621077Y-272872570D02*
X192287743Y-272872570D01*
X191240124Y-272634475D02*
X191954410Y-272396380D01*
X191954410Y-273015427D01*
%TO.C,R31*%
X335642857Y-167118380D02*
X335976190Y-166642190D01*
X336214285Y-167118380D02*
X336214285Y-166118380D01*
X335833333Y-166118380D01*
X335738095Y-166166000D01*
X335690476Y-166213619D01*
X335642857Y-166308857D01*
X335642857Y-166451714D01*
X335690476Y-166546952D01*
X335738095Y-166594571D01*
X335833333Y-166642190D01*
X336214285Y-166642190D01*
X335309523Y-166118380D02*
X334690476Y-166118380D01*
X335023809Y-166499333D01*
X334880952Y-166499333D01*
X334785714Y-166546952D01*
X334738095Y-166594571D01*
X334690476Y-166689809D01*
X334690476Y-166927904D01*
X334738095Y-167023142D01*
X334785714Y-167070761D01*
X334880952Y-167118380D01*
X335166666Y-167118380D01*
X335261904Y-167070761D01*
X335309523Y-167023142D01*
X333738095Y-167118380D02*
X334309523Y-167118380D01*
X334023809Y-167118380D02*
X334023809Y-166118380D01*
X334119047Y-166261238D01*
X334214285Y-166356476D01*
X334309523Y-166404095D01*
%TO.C,R33*%
X335642857Y-157212380D02*
X335976190Y-156736190D01*
X336214285Y-157212380D02*
X336214285Y-156212380D01*
X335833333Y-156212380D01*
X335738095Y-156260000D01*
X335690476Y-156307619D01*
X335642857Y-156402857D01*
X335642857Y-156545714D01*
X335690476Y-156640952D01*
X335738095Y-156688571D01*
X335833333Y-156736190D01*
X336214285Y-156736190D01*
X335309523Y-156212380D02*
X334690476Y-156212380D01*
X335023809Y-156593333D01*
X334880952Y-156593333D01*
X334785714Y-156640952D01*
X334738095Y-156688571D01*
X334690476Y-156783809D01*
X334690476Y-157021904D01*
X334738095Y-157117142D01*
X334785714Y-157164761D01*
X334880952Y-157212380D01*
X335166666Y-157212380D01*
X335261904Y-157164761D01*
X335309523Y-157117142D01*
X334357142Y-156212380D02*
X333738095Y-156212380D01*
X334071428Y-156593333D01*
X333928571Y-156593333D01*
X333833333Y-156640952D01*
X333785714Y-156688571D01*
X333738095Y-156783809D01*
X333738095Y-157021904D01*
X333785714Y-157117142D01*
X333833333Y-157164761D01*
X333928571Y-157212380D01*
X334214285Y-157212380D01*
X334309523Y-157164761D01*
X334357142Y-157117142D01*
%TO.C,R49*%
X361042857Y-106666380D02*
X361376190Y-106190190D01*
X361614285Y-106666380D02*
X361614285Y-105666380D01*
X361233333Y-105666380D01*
X361138095Y-105714000D01*
X361090476Y-105761619D01*
X361042857Y-105856857D01*
X361042857Y-105999714D01*
X361090476Y-106094952D01*
X361138095Y-106142571D01*
X361233333Y-106190190D01*
X361614285Y-106190190D01*
X360185714Y-105999714D02*
X360185714Y-106666380D01*
X360423809Y-105618761D02*
X360661904Y-106333047D01*
X360042857Y-106333047D01*
X359614285Y-106666380D02*
X359423809Y-106666380D01*
X359328571Y-106618761D01*
X359280952Y-106571142D01*
X359185714Y-106428285D01*
X359138095Y-106237809D01*
X359138095Y-105856857D01*
X359185714Y-105761619D01*
X359233333Y-105714000D01*
X359328571Y-105666380D01*
X359519047Y-105666380D01*
X359614285Y-105714000D01*
X359661904Y-105761619D01*
X359709523Y-105856857D01*
X359709523Y-106094952D01*
X359661904Y-106190190D01*
X359614285Y-106237809D01*
X359519047Y-106285428D01*
X359328571Y-106285428D01*
X359233333Y-106237809D01*
X359185714Y-106190190D01*
X359138095Y-106094952D01*
%TO.C,R3*%
X266732666Y-162312380D02*
X267066000Y-161836190D01*
X267304095Y-162312380D02*
X267304095Y-161312380D01*
X266923142Y-161312380D01*
X266827904Y-161360000D01*
X266780285Y-161407619D01*
X266732666Y-161502857D01*
X266732666Y-161645714D01*
X266780285Y-161740952D01*
X266827904Y-161788571D01*
X266923142Y-161836190D01*
X267304095Y-161836190D01*
X266399333Y-161312380D02*
X265780285Y-161312380D01*
X266113619Y-161693333D01*
X265970761Y-161693333D01*
X265875523Y-161740952D01*
X265827904Y-161788571D01*
X265780285Y-161883809D01*
X265780285Y-162121904D01*
X265827904Y-162217142D01*
X265875523Y-162264761D01*
X265970761Y-162312380D01*
X266256476Y-162312380D01*
X266351714Y-162264761D01*
X266399333Y-162217142D01*
%TO.C,R46*%
X361094857Y-121906380D02*
X361428190Y-121430190D01*
X361666285Y-121906380D02*
X361666285Y-120906380D01*
X361285333Y-120906380D01*
X361190095Y-120954000D01*
X361142476Y-121001619D01*
X361094857Y-121096857D01*
X361094857Y-121239714D01*
X361142476Y-121334952D01*
X361190095Y-121382571D01*
X361285333Y-121430190D01*
X361666285Y-121430190D01*
X360237714Y-121239714D02*
X360237714Y-121906380D01*
X360475809Y-120858761D02*
X360713904Y-121573047D01*
X360094857Y-121573047D01*
X359285333Y-120906380D02*
X359475809Y-120906380D01*
X359571047Y-120954000D01*
X359618666Y-121001619D01*
X359713904Y-121144476D01*
X359761523Y-121334952D01*
X359761523Y-121715904D01*
X359713904Y-121811142D01*
X359666285Y-121858761D01*
X359571047Y-121906380D01*
X359380571Y-121906380D01*
X359285333Y-121858761D01*
X359237714Y-121811142D01*
X359190095Y-121715904D01*
X359190095Y-121477809D01*
X359237714Y-121382571D01*
X359285333Y-121334952D01*
X359380571Y-121287333D01*
X359571047Y-121287333D01*
X359666285Y-121334952D01*
X359713904Y-121382571D01*
X359761523Y-121477809D01*
%TO.C,R16*%
X301642857Y-162292380D02*
X301976190Y-161816190D01*
X302214285Y-162292380D02*
X302214285Y-161292380D01*
X301833333Y-161292380D01*
X301738095Y-161340000D01*
X301690476Y-161387619D01*
X301642857Y-161482857D01*
X301642857Y-161625714D01*
X301690476Y-161720952D01*
X301738095Y-161768571D01*
X301833333Y-161816190D01*
X302214285Y-161816190D01*
X300690476Y-162292380D02*
X301261904Y-162292380D01*
X300976190Y-162292380D02*
X300976190Y-161292380D01*
X301071428Y-161435238D01*
X301166666Y-161530476D01*
X301261904Y-161578095D01*
X299833333Y-161292380D02*
X300023809Y-161292380D01*
X300119047Y-161340000D01*
X300166666Y-161387619D01*
X300261904Y-161530476D01*
X300309523Y-161720952D01*
X300309523Y-162101904D01*
X300261904Y-162197142D01*
X300214285Y-162244761D01*
X300119047Y-162292380D01*
X299928571Y-162292380D01*
X299833333Y-162244761D01*
X299785714Y-162197142D01*
X299738095Y-162101904D01*
X299738095Y-161863809D01*
X299785714Y-161768571D01*
X299833333Y-161720952D01*
X299928571Y-161673333D01*
X300119047Y-161673333D01*
X300214285Y-161720952D01*
X300261904Y-161768571D01*
X300309523Y-161863809D01*
%TO.C,R5*%
X266652666Y-152282380D02*
X266986000Y-151806190D01*
X267224095Y-152282380D02*
X267224095Y-151282380D01*
X266843142Y-151282380D01*
X266747904Y-151330000D01*
X266700285Y-151377619D01*
X266652666Y-151472857D01*
X266652666Y-151615714D01*
X266700285Y-151710952D01*
X266747904Y-151758571D01*
X266843142Y-151806190D01*
X267224095Y-151806190D01*
X265747904Y-151282380D02*
X266224095Y-151282380D01*
X266271714Y-151758571D01*
X266224095Y-151710952D01*
X266128857Y-151663333D01*
X265890761Y-151663333D01*
X265795523Y-151710952D01*
X265747904Y-151758571D01*
X265700285Y-151853809D01*
X265700285Y-152091904D01*
X265747904Y-152187142D01*
X265795523Y-152234761D01*
X265890761Y-152282380D01*
X266128857Y-152282380D01*
X266224095Y-152234761D01*
X266271714Y-152187142D01*
%TO.C,R2*%
X266782666Y-167282380D02*
X267116000Y-166806190D01*
X267354095Y-167282380D02*
X267354095Y-166282380D01*
X266973142Y-166282380D01*
X266877904Y-166330000D01*
X266830285Y-166377619D01*
X266782666Y-166472857D01*
X266782666Y-166615714D01*
X266830285Y-166710952D01*
X266877904Y-166758571D01*
X266973142Y-166806190D01*
X267354095Y-166806190D01*
X266401714Y-166377619D02*
X266354095Y-166330000D01*
X266258857Y-166282380D01*
X266020761Y-166282380D01*
X265925523Y-166330000D01*
X265877904Y-166377619D01*
X265830285Y-166472857D01*
X265830285Y-166568095D01*
X265877904Y-166710952D01*
X266449333Y-167282380D01*
X265830285Y-167282380D01*
%TO.C,R53*%
X361042857Y-86854380D02*
X361376190Y-86378190D01*
X361614285Y-86854380D02*
X361614285Y-85854380D01*
X361233333Y-85854380D01*
X361138095Y-85902000D01*
X361090476Y-85949619D01*
X361042857Y-86044857D01*
X361042857Y-86187714D01*
X361090476Y-86282952D01*
X361138095Y-86330571D01*
X361233333Y-86378190D01*
X361614285Y-86378190D01*
X360138095Y-85854380D02*
X360614285Y-85854380D01*
X360661904Y-86330571D01*
X360614285Y-86282952D01*
X360519047Y-86235333D01*
X360280952Y-86235333D01*
X360185714Y-86282952D01*
X360138095Y-86330571D01*
X360090476Y-86425809D01*
X360090476Y-86663904D01*
X360138095Y-86759142D01*
X360185714Y-86806761D01*
X360280952Y-86854380D01*
X360519047Y-86854380D01*
X360614285Y-86806761D01*
X360661904Y-86759142D01*
X359757142Y-85854380D02*
X359138095Y-85854380D01*
X359471428Y-86235333D01*
X359328571Y-86235333D01*
X359233333Y-86282952D01*
X359185714Y-86330571D01*
X359138095Y-86425809D01*
X359138095Y-86663904D01*
X359185714Y-86759142D01*
X359233333Y-86806761D01*
X359328571Y-86854380D01*
X359614285Y-86854380D01*
X359709523Y-86806761D01*
X359757142Y-86759142D01*
%TO.C,R30*%
X335642857Y-172198380D02*
X335976190Y-171722190D01*
X336214285Y-172198380D02*
X336214285Y-171198380D01*
X335833333Y-171198380D01*
X335738095Y-171246000D01*
X335690476Y-171293619D01*
X335642857Y-171388857D01*
X335642857Y-171531714D01*
X335690476Y-171626952D01*
X335738095Y-171674571D01*
X335833333Y-171722190D01*
X336214285Y-171722190D01*
X335309523Y-171198380D02*
X334690476Y-171198380D01*
X335023809Y-171579333D01*
X334880952Y-171579333D01*
X334785714Y-171626952D01*
X334738095Y-171674571D01*
X334690476Y-171769809D01*
X334690476Y-172007904D01*
X334738095Y-172103142D01*
X334785714Y-172150761D01*
X334880952Y-172198380D01*
X335166666Y-172198380D01*
X335261904Y-172150761D01*
X335309523Y-172103142D01*
X334071428Y-171198380D02*
X333976190Y-171198380D01*
X333880952Y-171246000D01*
X333833333Y-171293619D01*
X333785714Y-171388857D01*
X333738095Y-171579333D01*
X333738095Y-171817428D01*
X333785714Y-172007904D01*
X333833333Y-172103142D01*
X333880952Y-172150761D01*
X333976190Y-172198380D01*
X334071428Y-172198380D01*
X334166666Y-172150761D01*
X334214285Y-172103142D01*
X334261904Y-172007904D01*
X334309523Y-171817428D01*
X334309523Y-171579333D01*
X334261904Y-171388857D01*
X334214285Y-171293619D01*
X334166666Y-171246000D01*
X334071428Y-171198380D01*
%TO.C,R6*%
X266682666Y-147192380D02*
X267016000Y-146716190D01*
X267254095Y-147192380D02*
X267254095Y-146192380D01*
X266873142Y-146192380D01*
X266777904Y-146240000D01*
X266730285Y-146287619D01*
X266682666Y-146382857D01*
X266682666Y-146525714D01*
X266730285Y-146620952D01*
X266777904Y-146668571D01*
X266873142Y-146716190D01*
X267254095Y-146716190D01*
X265825523Y-146192380D02*
X266016000Y-146192380D01*
X266111238Y-146240000D01*
X266158857Y-146287619D01*
X266254095Y-146430476D01*
X266301714Y-146620952D01*
X266301714Y-147001904D01*
X266254095Y-147097142D01*
X266206476Y-147144761D01*
X266111238Y-147192380D01*
X265920761Y-147192380D01*
X265825523Y-147144761D01*
X265777904Y-147097142D01*
X265730285Y-147001904D01*
X265730285Y-146763809D01*
X265777904Y-146668571D01*
X265825523Y-146620952D01*
X265920761Y-146573333D01*
X266111238Y-146573333D01*
X266206476Y-146620952D01*
X266254095Y-146668571D01*
X266301714Y-146763809D01*
%TO.C,R8*%
X266612666Y-137232380D02*
X266946000Y-136756190D01*
X267184095Y-137232380D02*
X267184095Y-136232380D01*
X266803142Y-136232380D01*
X266707904Y-136280000D01*
X266660285Y-136327619D01*
X266612666Y-136422857D01*
X266612666Y-136565714D01*
X266660285Y-136660952D01*
X266707904Y-136708571D01*
X266803142Y-136756190D01*
X267184095Y-136756190D01*
X266041238Y-136660952D02*
X266136476Y-136613333D01*
X266184095Y-136565714D01*
X266231714Y-136470476D01*
X266231714Y-136422857D01*
X266184095Y-136327619D01*
X266136476Y-136280000D01*
X266041238Y-136232380D01*
X265850761Y-136232380D01*
X265755523Y-136280000D01*
X265707904Y-136327619D01*
X265660285Y-136422857D01*
X265660285Y-136470476D01*
X265707904Y-136565714D01*
X265755523Y-136613333D01*
X265850761Y-136660952D01*
X266041238Y-136660952D01*
X266136476Y-136708571D01*
X266184095Y-136756190D01*
X266231714Y-136851428D01*
X266231714Y-137041904D01*
X266184095Y-137137142D01*
X266136476Y-137184761D01*
X266041238Y-137232380D01*
X265850761Y-137232380D01*
X265755523Y-137184761D01*
X265707904Y-137137142D01*
X265660285Y-137041904D01*
X265660285Y-136851428D01*
X265707904Y-136756190D01*
X265755523Y-136708571D01*
X265850761Y-136660952D01*
%TO.C,R29*%
X470468380Y-87717142D02*
X469992190Y-87383809D01*
X470468380Y-87145714D02*
X469468380Y-87145714D01*
X469468380Y-87526666D01*
X469516000Y-87621904D01*
X469563619Y-87669523D01*
X469658857Y-87717142D01*
X469801714Y-87717142D01*
X469896952Y-87669523D01*
X469944571Y-87621904D01*
X469992190Y-87526666D01*
X469992190Y-87145714D01*
X469563619Y-88098095D02*
X469516000Y-88145714D01*
X469468380Y-88240952D01*
X469468380Y-88479047D01*
X469516000Y-88574285D01*
X469563619Y-88621904D01*
X469658857Y-88669523D01*
X469754095Y-88669523D01*
X469896952Y-88621904D01*
X470468380Y-88050476D01*
X470468380Y-88669523D01*
X470468380Y-89145714D02*
X470468380Y-89336190D01*
X470420761Y-89431428D01*
X470373142Y-89479047D01*
X470230285Y-89574285D01*
X470039809Y-89621904D01*
X469658857Y-89621904D01*
X469563619Y-89574285D01*
X469516000Y-89526666D01*
X469468380Y-89431428D01*
X469468380Y-89240952D01*
X469516000Y-89145714D01*
X469563619Y-89098095D01*
X469658857Y-89050476D01*
X469896952Y-89050476D01*
X469992190Y-89098095D01*
X470039809Y-89145714D01*
X470087428Y-89240952D01*
X470087428Y-89431428D01*
X470039809Y-89526666D01*
X469992190Y-89574285D01*
X469896952Y-89621904D01*
%TO.C,R24*%
X326884380Y-227195142D02*
X326408190Y-226861809D01*
X326884380Y-226623714D02*
X325884380Y-226623714D01*
X325884380Y-227004666D01*
X325932000Y-227099904D01*
X325979619Y-227147523D01*
X326074857Y-227195142D01*
X326217714Y-227195142D01*
X326312952Y-227147523D01*
X326360571Y-227099904D01*
X326408190Y-227004666D01*
X326408190Y-226623714D01*
X325979619Y-227576095D02*
X325932000Y-227623714D01*
X325884380Y-227718952D01*
X325884380Y-227957047D01*
X325932000Y-228052285D01*
X325979619Y-228099904D01*
X326074857Y-228147523D01*
X326170095Y-228147523D01*
X326312952Y-228099904D01*
X326884380Y-227528476D01*
X326884380Y-228147523D01*
X326217714Y-229004666D02*
X326884380Y-229004666D01*
X325836761Y-228766571D02*
X326551047Y-228528476D01*
X326551047Y-229147523D01*
%TO.C,R15*%
X301642857Y-167372380D02*
X301976190Y-166896190D01*
X302214285Y-167372380D02*
X302214285Y-166372380D01*
X301833333Y-166372380D01*
X301738095Y-166420000D01*
X301690476Y-166467619D01*
X301642857Y-166562857D01*
X301642857Y-166705714D01*
X301690476Y-166800952D01*
X301738095Y-166848571D01*
X301833333Y-166896190D01*
X302214285Y-166896190D01*
X300690476Y-167372380D02*
X301261904Y-167372380D01*
X300976190Y-167372380D02*
X300976190Y-166372380D01*
X301071428Y-166515238D01*
X301166666Y-166610476D01*
X301261904Y-166658095D01*
X299785714Y-166372380D02*
X300261904Y-166372380D01*
X300309523Y-166848571D01*
X300261904Y-166800952D01*
X300166666Y-166753333D01*
X299928571Y-166753333D01*
X299833333Y-166800952D01*
X299785714Y-166848571D01*
X299738095Y-166943809D01*
X299738095Y-167181904D01*
X299785714Y-167277142D01*
X299833333Y-167324761D01*
X299928571Y-167372380D01*
X300166666Y-167372380D01*
X300261904Y-167324761D01*
X300309523Y-167277142D01*
%TO.C,R36*%
X335668857Y-141972380D02*
X336002190Y-141496190D01*
X336240285Y-141972380D02*
X336240285Y-140972380D01*
X335859333Y-140972380D01*
X335764095Y-141020000D01*
X335716476Y-141067619D01*
X335668857Y-141162857D01*
X335668857Y-141305714D01*
X335716476Y-141400952D01*
X335764095Y-141448571D01*
X335859333Y-141496190D01*
X336240285Y-141496190D01*
X335335523Y-140972380D02*
X334716476Y-140972380D01*
X335049809Y-141353333D01*
X334906952Y-141353333D01*
X334811714Y-141400952D01*
X334764095Y-141448571D01*
X334716476Y-141543809D01*
X334716476Y-141781904D01*
X334764095Y-141877142D01*
X334811714Y-141924761D01*
X334906952Y-141972380D01*
X335192666Y-141972380D01*
X335287904Y-141924761D01*
X335335523Y-141877142D01*
X333859333Y-140972380D02*
X334049809Y-140972380D01*
X334145047Y-141020000D01*
X334192666Y-141067619D01*
X334287904Y-141210476D01*
X334335523Y-141400952D01*
X334335523Y-141781904D01*
X334287904Y-141877142D01*
X334240285Y-141924761D01*
X334145047Y-141972380D01*
X333954571Y-141972380D01*
X333859333Y-141924761D01*
X333811714Y-141877142D01*
X333764095Y-141781904D01*
X333764095Y-141543809D01*
X333811714Y-141448571D01*
X333859333Y-141400952D01*
X333954571Y-141353333D01*
X334145047Y-141353333D01*
X334240285Y-141400952D01*
X334287904Y-141448571D01*
X334335523Y-141543809D01*
%TO.C,R28*%
X429574380Y-87463142D02*
X429098190Y-87129809D01*
X429574380Y-86891714D02*
X428574380Y-86891714D01*
X428574380Y-87272666D01*
X428622000Y-87367904D01*
X428669619Y-87415523D01*
X428764857Y-87463142D01*
X428907714Y-87463142D01*
X429002952Y-87415523D01*
X429050571Y-87367904D01*
X429098190Y-87272666D01*
X429098190Y-86891714D01*
X428669619Y-87844095D02*
X428622000Y-87891714D01*
X428574380Y-87986952D01*
X428574380Y-88225047D01*
X428622000Y-88320285D01*
X428669619Y-88367904D01*
X428764857Y-88415523D01*
X428860095Y-88415523D01*
X429002952Y-88367904D01*
X429574380Y-87796476D01*
X429574380Y-88415523D01*
X429002952Y-88986952D02*
X428955333Y-88891714D01*
X428907714Y-88844095D01*
X428812476Y-88796476D01*
X428764857Y-88796476D01*
X428669619Y-88844095D01*
X428622000Y-88891714D01*
X428574380Y-88986952D01*
X428574380Y-89177428D01*
X428622000Y-89272666D01*
X428669619Y-89320285D01*
X428764857Y-89367904D01*
X428812476Y-89367904D01*
X428907714Y-89320285D01*
X428955333Y-89272666D01*
X429002952Y-89177428D01*
X429002952Y-88986952D01*
X429050571Y-88891714D01*
X429098190Y-88844095D01*
X429193428Y-88796476D01*
X429383904Y-88796476D01*
X429479142Y-88844095D01*
X429526761Y-88891714D01*
X429574380Y-88986952D01*
X429574380Y-89177428D01*
X429526761Y-89272666D01*
X429479142Y-89320285D01*
X429383904Y-89367904D01*
X429193428Y-89367904D01*
X429098190Y-89320285D01*
X429050571Y-89272666D01*
X429002952Y-89177428D01*
%TO.C,R9*%
X143422666Y-295134380D02*
X143756000Y-294658190D01*
X143994095Y-295134380D02*
X143994095Y-294134380D01*
X143613142Y-294134380D01*
X143517904Y-294182000D01*
X143470285Y-294229619D01*
X143422666Y-294324857D01*
X143422666Y-294467714D01*
X143470285Y-294562952D01*
X143517904Y-294610571D01*
X143613142Y-294658190D01*
X143994095Y-294658190D01*
X142946476Y-295134380D02*
X142756000Y-295134380D01*
X142660761Y-295086761D01*
X142613142Y-295039142D01*
X142517904Y-294896285D01*
X142470285Y-294705809D01*
X142470285Y-294324857D01*
X142517904Y-294229619D01*
X142565523Y-294182000D01*
X142660761Y-294134380D01*
X142851238Y-294134380D01*
X142946476Y-294182000D01*
X142994095Y-294229619D01*
X143041714Y-294324857D01*
X143041714Y-294562952D01*
X142994095Y-294658190D01*
X142946476Y-294705809D01*
X142851238Y-294753428D01*
X142660761Y-294753428D01*
X142565523Y-294705809D01*
X142517904Y-294658190D01*
X142470285Y-294562952D01*
%TO.C,R35*%
X335642857Y-147052380D02*
X335976190Y-146576190D01*
X336214285Y-147052380D02*
X336214285Y-146052380D01*
X335833333Y-146052380D01*
X335738095Y-146100000D01*
X335690476Y-146147619D01*
X335642857Y-146242857D01*
X335642857Y-146385714D01*
X335690476Y-146480952D01*
X335738095Y-146528571D01*
X335833333Y-146576190D01*
X336214285Y-146576190D01*
X335309523Y-146052380D02*
X334690476Y-146052380D01*
X335023809Y-146433333D01*
X334880952Y-146433333D01*
X334785714Y-146480952D01*
X334738095Y-146528571D01*
X334690476Y-146623809D01*
X334690476Y-146861904D01*
X334738095Y-146957142D01*
X334785714Y-147004761D01*
X334880952Y-147052380D01*
X335166666Y-147052380D01*
X335261904Y-147004761D01*
X335309523Y-146957142D01*
X333785714Y-146052380D02*
X334261904Y-146052380D01*
X334309523Y-146528571D01*
X334261904Y-146480952D01*
X334166666Y-146433333D01*
X333928571Y-146433333D01*
X333833333Y-146480952D01*
X333785714Y-146528571D01*
X333738095Y-146623809D01*
X333738095Y-146861904D01*
X333785714Y-146957142D01*
X333833333Y-147004761D01*
X333928571Y-147052380D01*
X334166666Y-147052380D01*
X334261904Y-147004761D01*
X334309523Y-146957142D01*
%TO.C,R12*%
X184270380Y-87585142D02*
X183794190Y-87251809D01*
X184270380Y-87013714D02*
X183270380Y-87013714D01*
X183270380Y-87394666D01*
X183318000Y-87489904D01*
X183365619Y-87537523D01*
X183460857Y-87585142D01*
X183603714Y-87585142D01*
X183698952Y-87537523D01*
X183746571Y-87489904D01*
X183794190Y-87394666D01*
X183794190Y-87013714D01*
X184270380Y-88537523D02*
X184270380Y-87966095D01*
X184270380Y-88251809D02*
X183270380Y-88251809D01*
X183413238Y-88156571D01*
X183508476Y-88061333D01*
X183556095Y-87966095D01*
X183365619Y-88918476D02*
X183318000Y-88966095D01*
X183270380Y-89061333D01*
X183270380Y-89299428D01*
X183318000Y-89394666D01*
X183365619Y-89442285D01*
X183460857Y-89489904D01*
X183556095Y-89489904D01*
X183698952Y-89442285D01*
X184270380Y-88870857D01*
X184270380Y-89489904D01*
%TO.C,R10*%
X144152857Y-265416380D02*
X144486190Y-264940190D01*
X144724285Y-265416380D02*
X144724285Y-264416380D01*
X144343333Y-264416380D01*
X144248095Y-264464000D01*
X144200476Y-264511619D01*
X144152857Y-264606857D01*
X144152857Y-264749714D01*
X144200476Y-264844952D01*
X144248095Y-264892571D01*
X144343333Y-264940190D01*
X144724285Y-264940190D01*
X143200476Y-265416380D02*
X143771904Y-265416380D01*
X143486190Y-265416380D02*
X143486190Y-264416380D01*
X143581428Y-264559238D01*
X143676666Y-264654476D01*
X143771904Y-264702095D01*
X142581428Y-264416380D02*
X142486190Y-264416380D01*
X142390952Y-264464000D01*
X142343333Y-264511619D01*
X142295714Y-264606857D01*
X142248095Y-264797333D01*
X142248095Y-265035428D01*
X142295714Y-265225904D01*
X142343333Y-265321142D01*
X142390952Y-265368761D01*
X142486190Y-265416380D01*
X142581428Y-265416380D01*
X142676666Y-265368761D01*
X142724285Y-265321142D01*
X142771904Y-265225904D01*
X142819523Y-265035428D01*
X142819523Y-264797333D01*
X142771904Y-264606857D01*
X142724285Y-264511619D01*
X142676666Y-264464000D01*
X142581428Y-264416380D01*
%TO.C,R51*%
X361042857Y-96760380D02*
X361376190Y-96284190D01*
X361614285Y-96760380D02*
X361614285Y-95760380D01*
X361233333Y-95760380D01*
X361138095Y-95808000D01*
X361090476Y-95855619D01*
X361042857Y-95950857D01*
X361042857Y-96093714D01*
X361090476Y-96188952D01*
X361138095Y-96236571D01*
X361233333Y-96284190D01*
X361614285Y-96284190D01*
X360138095Y-95760380D02*
X360614285Y-95760380D01*
X360661904Y-96236571D01*
X360614285Y-96188952D01*
X360519047Y-96141333D01*
X360280952Y-96141333D01*
X360185714Y-96188952D01*
X360138095Y-96236571D01*
X360090476Y-96331809D01*
X360090476Y-96569904D01*
X360138095Y-96665142D01*
X360185714Y-96712761D01*
X360280952Y-96760380D01*
X360519047Y-96760380D01*
X360614285Y-96712761D01*
X360661904Y-96665142D01*
X359138095Y-96760380D02*
X359709523Y-96760380D01*
X359423809Y-96760380D02*
X359423809Y-95760380D01*
X359519047Y-95903238D01*
X359614285Y-95998476D01*
X359709523Y-96046095D01*
%TO.C,R47*%
X361094857Y-116826380D02*
X361428190Y-116350190D01*
X361666285Y-116826380D02*
X361666285Y-115826380D01*
X361285333Y-115826380D01*
X361190095Y-115874000D01*
X361142476Y-115921619D01*
X361094857Y-116016857D01*
X361094857Y-116159714D01*
X361142476Y-116254952D01*
X361190095Y-116302571D01*
X361285333Y-116350190D01*
X361666285Y-116350190D01*
X360237714Y-116159714D02*
X360237714Y-116826380D01*
X360475809Y-115778761D02*
X360713904Y-116493047D01*
X360094857Y-116493047D01*
X359809142Y-115826380D02*
X359142476Y-115826380D01*
X359571047Y-116826380D01*
%TO.C,R23*%
X289182380Y-226617142D02*
X288706190Y-226283809D01*
X289182380Y-226045714D02*
X288182380Y-226045714D01*
X288182380Y-226426666D01*
X288230000Y-226521904D01*
X288277619Y-226569523D01*
X288372857Y-226617142D01*
X288515714Y-226617142D01*
X288610952Y-226569523D01*
X288658571Y-226521904D01*
X288706190Y-226426666D01*
X288706190Y-226045714D01*
X288277619Y-226998095D02*
X288230000Y-227045714D01*
X288182380Y-227140952D01*
X288182380Y-227379047D01*
X288230000Y-227474285D01*
X288277619Y-227521904D01*
X288372857Y-227569523D01*
X288468095Y-227569523D01*
X288610952Y-227521904D01*
X289182380Y-226950476D01*
X289182380Y-227569523D01*
X288182380Y-227902857D02*
X288182380Y-228521904D01*
X288563333Y-228188571D01*
X288563333Y-228331428D01*
X288610952Y-228426666D01*
X288658571Y-228474285D01*
X288753809Y-228521904D01*
X288991904Y-228521904D01*
X289087142Y-228474285D01*
X289134761Y-228426666D01*
X289182380Y-228331428D01*
X289182380Y-228045714D01*
X289134761Y-227950476D01*
X289087142Y-227902857D01*
%TO.C,R39*%
X348876857Y-116826380D02*
X349210190Y-116350190D01*
X349448285Y-116826380D02*
X349448285Y-115826380D01*
X349067333Y-115826380D01*
X348972095Y-115874000D01*
X348924476Y-115921619D01*
X348876857Y-116016857D01*
X348876857Y-116159714D01*
X348924476Y-116254952D01*
X348972095Y-116302571D01*
X349067333Y-116350190D01*
X349448285Y-116350190D01*
X348543523Y-115826380D02*
X347924476Y-115826380D01*
X348257809Y-116207333D01*
X348114952Y-116207333D01*
X348019714Y-116254952D01*
X347972095Y-116302571D01*
X347924476Y-116397809D01*
X347924476Y-116635904D01*
X347972095Y-116731142D01*
X348019714Y-116778761D01*
X348114952Y-116826380D01*
X348400666Y-116826380D01*
X348495904Y-116778761D01*
X348543523Y-116731142D01*
X347448285Y-116826380D02*
X347257809Y-116826380D01*
X347162571Y-116778761D01*
X347114952Y-116731142D01*
X347019714Y-116588285D01*
X346972095Y-116397809D01*
X346972095Y-116016857D01*
X347019714Y-115921619D01*
X347067333Y-115874000D01*
X347162571Y-115826380D01*
X347353047Y-115826380D01*
X347448285Y-115874000D01*
X347495904Y-115921619D01*
X347543523Y-116016857D01*
X347543523Y-116254952D01*
X347495904Y-116350190D01*
X347448285Y-116397809D01*
X347353047Y-116445428D01*
X347162571Y-116445428D01*
X347067333Y-116397809D01*
X347019714Y-116350190D01*
X346972095Y-116254952D01*
D12*
%TO.C,R1*%
X265912936Y-169016000D02*
X267367064Y-169016000D01*
X265912936Y-170836000D02*
X267367064Y-170836000D01*
%TO.C,R52*%
X359672936Y-88498000D02*
X361127064Y-88498000D01*
X359672936Y-90318000D02*
X361127064Y-90318000D01*
%TO.C,R11*%
X139178000Y-88955064D02*
X139178000Y-87500936D01*
X140998000Y-88955064D02*
X140998000Y-87500936D01*
%TO.C,R21*%
X300272936Y-133964000D02*
X301727064Y-133964000D01*
X300272936Y-135784000D02*
X301727064Y-135784000D01*
%TO.C,R25*%
X392464936Y-294788000D02*
X393919064Y-294788000D01*
X392464936Y-292968000D02*
X393919064Y-292968000D01*
%TO.C,R50*%
X359672936Y-100224000D02*
X361127064Y-100224000D01*
X359672936Y-98404000D02*
X361127064Y-98404000D01*
%TO.C,NPR1*%
X145427064Y-152330000D02*
X143972936Y-152330000D01*
X145427064Y-154150000D02*
X143972936Y-154150000D01*
%TO.C,R26*%
X392353936Y-264684000D02*
X393808064Y-264684000D01*
X392353936Y-262864000D02*
X393808064Y-262864000D01*
%TO.C,R34*%
X334272936Y-150770000D02*
X335727064Y-150770000D01*
X334272936Y-148950000D02*
X335727064Y-148950000D01*
%TO.C,R14*%
X300272936Y-170836000D02*
X301727064Y-170836000D01*
X300272936Y-169016000D02*
X301727064Y-169016000D01*
%TO.C,R37*%
X334298936Y-135784000D02*
X335753064Y-135784000D01*
X334298936Y-133964000D02*
X335753064Y-133964000D01*
%TO.C,R43*%
X347506936Y-93578000D02*
X348961064Y-93578000D01*
X347506936Y-95398000D02*
X348961064Y-95398000D01*
%TO.C,R45*%
X347506936Y-83672000D02*
X348961064Y-83672000D01*
X347506936Y-85492000D02*
X348961064Y-85492000D01*
%TO.C,R55*%
X444400000Y-272717064D02*
X444400000Y-271262936D01*
X442580000Y-272717064D02*
X442580000Y-271262936D01*
%TO.C,R38*%
X347506936Y-120544000D02*
X348961064Y-120544000D01*
X347506936Y-118724000D02*
X348961064Y-118724000D01*
%TO.C,R41*%
X347506936Y-103484000D02*
X348961064Y-103484000D01*
X347506936Y-105304000D02*
X348961064Y-105304000D01*
%TO.C,R7*%
X265858936Y-139120000D02*
X267313064Y-139120000D01*
X265858936Y-140940000D02*
X267313064Y-140940000D01*
%TO.C,R4*%
X265788936Y-155910000D02*
X267243064Y-155910000D01*
X265788936Y-154090000D02*
X267243064Y-154090000D01*
%TO.C,R32*%
X334272936Y-160930000D02*
X335727064Y-160930000D01*
X334272936Y-159110000D02*
X335727064Y-159110000D01*
%TO.C,R48*%
X359724936Y-108564000D02*
X361179064Y-108564000D01*
X359724936Y-110384000D02*
X361179064Y-110384000D01*
%TO.C,R27*%
X390196000Y-87378936D02*
X390196000Y-88833064D01*
X388376000Y-87378936D02*
X388376000Y-88833064D01*
%TO.C,R18*%
X300272936Y-148950000D02*
X301727064Y-148950000D01*
X300272936Y-150770000D02*
X301727064Y-150770000D01*
%TO.C,R22*%
X255376000Y-228057064D02*
X255376000Y-226602936D01*
X257196000Y-228057064D02*
X257196000Y-226602936D01*
%TO.C,R13*%
X221982000Y-88955064D02*
X221982000Y-87500936D01*
X223802000Y-88955064D02*
X223802000Y-87500936D01*
%TO.C,R42*%
X347506936Y-100224000D02*
X348961064Y-100224000D01*
X347506936Y-98404000D02*
X348961064Y-98404000D01*
%TO.C,R17*%
X300272936Y-155850000D02*
X301727064Y-155850000D01*
X300272936Y-154030000D02*
X301727064Y-154030000D01*
%TO.C,R40*%
X347506936Y-110384000D02*
X348961064Y-110384000D01*
X347506936Y-108564000D02*
X348961064Y-108564000D01*
%TO.C,R44*%
X347506936Y-90572000D02*
X348961064Y-90572000D01*
X347506936Y-88752000D02*
X348961064Y-88752000D01*
%TO.C,R19*%
X300262936Y-144124000D02*
X301717064Y-144124000D01*
X300262936Y-145944000D02*
X301717064Y-145944000D01*
%TO.C,R20*%
X300272936Y-139044000D02*
X301727064Y-139044000D01*
X300272936Y-140864000D02*
X301727064Y-140864000D01*
%TO.C,R54*%
X192745363Y-270978840D02*
X192745363Y-272432968D01*
X194565363Y-270978840D02*
X194565363Y-272432968D01*
%TO.C,R31*%
X334272936Y-165756000D02*
X335727064Y-165756000D01*
X334272936Y-163936000D02*
X335727064Y-163936000D01*
%TO.C,R33*%
X334272936Y-155850000D02*
X335727064Y-155850000D01*
X334272936Y-154030000D02*
X335727064Y-154030000D01*
%TO.C,R49*%
X359672936Y-105304000D02*
X361127064Y-105304000D01*
X359672936Y-103484000D02*
X361127064Y-103484000D01*
%TO.C,R3*%
X265838936Y-160950000D02*
X267293064Y-160950000D01*
X265838936Y-159130000D02*
X267293064Y-159130000D01*
%TO.C,R46*%
X359724936Y-118724000D02*
X361179064Y-118724000D01*
X359724936Y-120544000D02*
X361179064Y-120544000D01*
%TO.C,R16*%
X300272936Y-159110000D02*
X301727064Y-159110000D01*
X300272936Y-160930000D02*
X301727064Y-160930000D01*
%TO.C,R5*%
X265758936Y-150920000D02*
X267213064Y-150920000D01*
X265758936Y-149100000D02*
X267213064Y-149100000D01*
%TO.C,R2*%
X265888936Y-165920000D02*
X267343064Y-165920000D01*
X265888936Y-164100000D02*
X267343064Y-164100000D01*
%TO.C,R53*%
X359672936Y-83672000D02*
X361127064Y-83672000D01*
X359672936Y-85492000D02*
X361127064Y-85492000D01*
%TO.C,R30*%
X334272936Y-169016000D02*
X335727064Y-169016000D01*
X334272936Y-170836000D02*
X335727064Y-170836000D01*
%TO.C,R6*%
X265788936Y-145830000D02*
X267243064Y-145830000D01*
X265788936Y-144010000D02*
X267243064Y-144010000D01*
%TO.C,R8*%
X265718936Y-135870000D02*
X267173064Y-135870000D01*
X265718936Y-134050000D02*
X267173064Y-134050000D01*
%TO.C,R29*%
X472746000Y-87632936D02*
X472746000Y-89087064D01*
X470926000Y-87632936D02*
X470926000Y-89087064D01*
%TO.C,R24*%
X323702000Y-228565064D02*
X323702000Y-227110936D01*
X325522000Y-228565064D02*
X325522000Y-227110936D01*
%TO.C,R15*%
X300272936Y-164190000D02*
X301727064Y-164190000D01*
X300272936Y-166010000D02*
X301727064Y-166010000D01*
%TO.C,R36*%
X334298936Y-140610000D02*
X335753064Y-140610000D01*
X334298936Y-138790000D02*
X335753064Y-138790000D01*
%TO.C,R28*%
X431852000Y-87378936D02*
X431852000Y-88833064D01*
X430032000Y-87378936D02*
X430032000Y-88833064D01*
%TO.C,R9*%
X142528936Y-291952000D02*
X143983064Y-291952000D01*
X142528936Y-293772000D02*
X143983064Y-293772000D01*
%TO.C,R35*%
X334272936Y-143870000D02*
X335727064Y-143870000D01*
X334272936Y-145690000D02*
X335727064Y-145690000D01*
%TO.C,R12*%
X181088000Y-88955064D02*
X181088000Y-87500936D01*
X182908000Y-88955064D02*
X182908000Y-87500936D01*
%TO.C,R10*%
X142782936Y-264054000D02*
X144237064Y-264054000D01*
X142782936Y-262234000D02*
X144237064Y-262234000D01*
%TO.C,R51*%
X359672936Y-95398000D02*
X361127064Y-95398000D01*
X359672936Y-93578000D02*
X361127064Y-93578000D01*
%TO.C,R47*%
X359724936Y-113644000D02*
X361179064Y-113644000D01*
X359724936Y-115464000D02*
X361179064Y-115464000D01*
%TO.C,R23*%
X289640000Y-226532936D02*
X289640000Y-227987064D01*
X291460000Y-226532936D02*
X291460000Y-227987064D01*
%TO.C,R39*%
X347506936Y-115464000D02*
X348961064Y-115464000D01*
X347506936Y-113644000D02*
X348961064Y-113644000D01*
%TD*%
%LPC*%
D13*
%TO.C,XA1*%
X399957500Y-74315000D03*
X399957500Y-81935000D03*
X399957500Y-84475000D03*
X448217500Y-140355000D03*
X448217500Y-142895000D03*
X399957500Y-97175000D03*
X399957500Y-99715000D03*
X399957500Y-102255000D03*
X399957500Y-104795000D03*
X399957500Y-107335000D03*
X399957500Y-109875000D03*
X399957500Y-112415000D03*
X399957500Y-114955000D03*
X399957500Y-120035000D03*
X399957500Y-122575000D03*
X399957500Y-125115000D03*
X399957500Y-127655000D03*
X399957500Y-130195000D03*
X399957500Y-132735000D03*
X399957500Y-135275000D03*
X399957500Y-137815000D03*
X448217500Y-70251000D03*
X448217500Y-109875000D03*
X448217500Y-107335000D03*
X448217500Y-104795000D03*
X448217500Y-102255000D03*
X448217500Y-99715000D03*
X448217500Y-97175000D03*
X448217500Y-94635000D03*
X448217500Y-92095000D03*
X448217500Y-88031000D03*
X448217500Y-85491000D03*
X448217500Y-82951000D03*
X448217500Y-80411000D03*
X448217500Y-77871000D03*
X448217500Y-75331000D03*
X448217500Y-114955000D03*
X448217500Y-117495000D03*
X448217500Y-120035000D03*
X448217500Y-122575000D03*
X448217500Y-125115000D03*
X448217500Y-127655000D03*
X448217500Y-130195000D03*
X448217500Y-132735000D03*
X445677500Y-140355000D03*
X445677500Y-142895000D03*
X443137500Y-140355000D03*
X443137500Y-142895000D03*
X440597500Y-140355000D03*
X440597500Y-142895000D03*
X438057500Y-140355000D03*
X438057500Y-142895000D03*
X435517500Y-140355000D03*
X435517500Y-142895000D03*
X432977500Y-140355000D03*
X432977500Y-142895000D03*
X430437500Y-140355000D03*
X430437500Y-142895000D03*
X427897500Y-140355000D03*
X427897500Y-142895000D03*
X425357500Y-140355000D03*
X425357500Y-142895000D03*
X422817500Y-140355000D03*
X422817500Y-142895000D03*
X420277500Y-140355000D03*
X420277500Y-142895000D03*
X417737500Y-140355000D03*
X417737500Y-142895000D03*
X415197500Y-140355000D03*
X415197500Y-142895000D03*
X412657500Y-140355000D03*
X412657500Y-142895000D03*
X410117500Y-140355000D03*
X410117500Y-142895000D03*
X407577500Y-140355000D03*
X407577500Y-142895000D03*
X448217500Y-72791000D03*
X399957500Y-87015000D03*
X399957500Y-89555000D03*
X405037500Y-140355000D03*
X405037500Y-142895000D03*
X399957500Y-76855000D03*
X399957500Y-79395000D03*
X448217500Y-65171000D03*
X448217500Y-67711000D03*
X399957500Y-92095000D03*
%TD*%
D14*
%TO.C,D17*%
X296535000Y-154950000D03*
D15*
X293995000Y-154950000D03*
%TD*%
D16*
%TO.C,SW44*%
X428868839Y-274080000D03*
X435368839Y-274080000D03*
X435368839Y-269580000D03*
X428868839Y-269580000D03*
%TD*%
%TO.C,SW19*%
X179570000Y-244690000D03*
X179570000Y-251190000D03*
X184070000Y-244690000D03*
X184070000Y-251190000D03*
%TD*%
%TO.C,RV1*%
X249000000Y-285500000D03*
X249000000Y-252500000D03*
D17*
X245190000Y-241568000D03*
X250270000Y-241568000D03*
X247730000Y-241568000D03*
D18*
X252810000Y-241568000D03*
D17*
X250380000Y-296432000D03*
X245300000Y-296432000D03*
%TD*%
D14*
%TO.C,D14*%
X296530000Y-169960000D03*
D15*
X293990000Y-169960000D03*
%TD*%
D19*
%TO.C,REF\u002A\u002A*%
X127700000Y-295620000D03*
%TD*%
D16*
%TO.C,SW8*%
X146400000Y-251010000D03*
X139900000Y-251010000D03*
X139900000Y-255510000D03*
X146400000Y-255510000D03*
%TD*%
D14*
%TO.C,D3*%
X262245000Y-159990000D03*
D15*
X259705000Y-159990000D03*
%TD*%
D20*
%TO.C,REF\u002A\u002A*%
X473000000Y-57000000D03*
D21*
X473000000Y-57000000D03*
%TD*%
D16*
%TO.C,SW21*%
X352030000Y-211390000D03*
X345530000Y-211390000D03*
X345530000Y-206890000D03*
X352030000Y-206890000D03*
%TD*%
D22*
%TO.C,REF\u002A\u002A*%
X149520000Y-162090000D03*
%TD*%
D16*
%TO.C,SW14*%
X316880000Y-225270000D03*
X310380000Y-225270000D03*
X310380000Y-229770000D03*
X316880000Y-229770000D03*
%TD*%
D23*
%TO.C,RV20*%
X136350000Y-68470000D03*
X127550000Y-68470000D03*
D15*
X134450000Y-75470000D03*
X131950000Y-75470000D03*
X129450000Y-75470000D03*
%TD*%
D23*
%TO.C,RV22*%
X210460000Y-68460000D03*
X219260000Y-68460000D03*
D15*
X217360000Y-75460000D03*
X214860000Y-75460000D03*
X212360000Y-75460000D03*
%TD*%
D24*
%TO.C,TB1*%
X170390000Y-212180000D03*
X172930000Y-212180000D03*
X175470000Y-212180000D03*
X178010000Y-212180000D03*
%TD*%
D19*
%TO.C,REF\u002A\u002A*%
X377670000Y-295600000D03*
%TD*%
D16*
%TO.C,SW33*%
X169090000Y-85140000D03*
X169090000Y-91640000D03*
X173590000Y-85140000D03*
X173590000Y-91640000D03*
%TD*%
%TO.C,SW25*%
X433840000Y-237250000D03*
X433840000Y-230750000D03*
X429340000Y-237250000D03*
X429340000Y-230750000D03*
%TD*%
%TO.C,RV7*%
X283080000Y-252570000D03*
X283080000Y-285570000D03*
D17*
X284350000Y-241638000D03*
X279270000Y-241638000D03*
D18*
X286890000Y-241638000D03*
D17*
X281810000Y-241638000D03*
X279380000Y-296502000D03*
X284460000Y-296502000D03*
%TD*%
D14*
%TO.C,D38*%
X344265000Y-119500000D03*
D15*
X341725000Y-119500000D03*
%TD*%
D14*
%TO.C,D22*%
X252910000Y-228735000D03*
D15*
X252910000Y-226195000D03*
%TD*%
D14*
%TO.C,D54*%
X189685363Y-270450904D03*
D15*
X189685363Y-272990904D03*
%TD*%
D19*
%TO.C,REF\u002A\u002A*%
X132000000Y-237430000D03*
%TD*%
D16*
%TO.C,SW12*%
X181662000Y-296708000D03*
X188162000Y-296708000D03*
X181662000Y-301208000D03*
X188162000Y-301208000D03*
%TD*%
D14*
%TO.C,D46*%
X356255000Y-119510000D03*
D15*
X353715000Y-119510000D03*
%TD*%
D23*
%TO.C,RV8*%
X287400000Y-205550000D03*
X278600000Y-205550000D03*
D15*
X285500000Y-212550000D03*
X283000000Y-212550000D03*
X280500000Y-212550000D03*
%TD*%
D23*
%TO.C,RV12*%
X278610000Y-68440000D03*
X287410000Y-68440000D03*
D15*
X285510000Y-75440000D03*
X283010000Y-75440000D03*
X280510000Y-75440000D03*
%TD*%
D14*
%TO.C,D9*%
X141765000Y-289150000D03*
D15*
X144305000Y-289150000D03*
%TD*%
D14*
%TO.C,D31*%
X330585000Y-164880000D03*
D15*
X328045000Y-164880000D03*
%TD*%
D14*
%TO.C,D1*%
X262265000Y-170020000D03*
D15*
X259725000Y-170020000D03*
%TD*%
D14*
%TO.C,D25*%
X391675000Y-289630000D03*
D15*
X394215000Y-289630000D03*
%TD*%
D14*
%TO.C,D37*%
X330505000Y-134930000D03*
D15*
X327965000Y-134930000D03*
%TD*%
D14*
%TO.C,D49*%
X356185000Y-104450000D03*
D15*
X353645000Y-104450000D03*
%TD*%
D16*
%TO.C,RV23*%
X458100000Y-241720000D03*
X458100000Y-292220000D03*
D17*
X459370000Y-232220000D03*
X454290000Y-232220000D03*
D18*
X461910000Y-232220000D03*
D17*
X456830000Y-232220000D03*
X459400000Y-303120000D03*
X454320000Y-303120000D03*
%TD*%
D22*
%TO.C,REF\u002A\u002A*%
X211980000Y-174570000D03*
%TD*%
D16*
%TO.C,SW4*%
X396260000Y-280960000D03*
X389760000Y-280960000D03*
X396260000Y-285460000D03*
X389760000Y-285460000D03*
%TD*%
%TO.C,SW41*%
X159780000Y-117280000D03*
X159780000Y-110780000D03*
X164280000Y-110780000D03*
X164280000Y-117280000D03*
%TD*%
D14*
%TO.C,D11*%
X135900000Y-89475000D03*
D15*
X135900000Y-86935000D03*
%TD*%
D23*
%TO.C,RV11*%
X278590000Y-102400000D03*
X287390000Y-102400000D03*
D15*
X285490000Y-109400000D03*
X282990000Y-109400000D03*
X280490000Y-109400000D03*
%TD*%
D14*
%TO.C,D41*%
X344225000Y-104500000D03*
D15*
X341685000Y-104500000D03*
%TD*%
D14*
%TO.C,D16*%
X296575000Y-159970000D03*
D15*
X294035000Y-159970000D03*
%TD*%
D25*
%TO.C,SW26*%
X421490000Y-121550000D03*
D16*
X426490000Y-121550000D03*
X423990000Y-121550000D03*
D22*
X429590000Y-114050000D03*
X418390000Y-114050000D03*
D16*
X426490000Y-107050000D03*
X421490000Y-107050000D03*
%TD*%
D22*
%TO.C,REF\u002A\u002A*%
X186980000Y-174580000D03*
%TD*%
D14*
%TO.C,D55*%
X439050000Y-273305000D03*
D15*
X439050000Y-270765000D03*
%TD*%
D14*
%TO.C,D27*%
X386004000Y-86583000D03*
D15*
X386004000Y-89123000D03*
%TD*%
D22*
%TO.C,REF\u002A\u002A*%
X400050000Y-162120000D03*
%TD*%
D14*
%TO.C,D4*%
X262285000Y-155000000D03*
D15*
X259745000Y-155000000D03*
%TD*%
D14*
%TO.C,D30*%
X330535000Y-169890000D03*
D15*
X327995000Y-169890000D03*
%TD*%
D22*
%TO.C,REF\u002A\u002A*%
X387560000Y-174620000D03*
%TD*%
D20*
%TO.C,REF\u002A\u002A*%
X125000000Y-57000000D03*
D21*
X125000000Y-57000000D03*
%TD*%
D14*
%TO.C,D21*%
X296485000Y-134950000D03*
D15*
X293945000Y-134950000D03*
%TD*%
D16*
%TO.C,SW13*%
X438352000Y-296708000D03*
X431852000Y-296708000D03*
X438352000Y-301208000D03*
X431852000Y-301208000D03*
%TD*%
D19*
%TO.C,REF\u002A\u002A*%
X381960000Y-237410000D03*
%TD*%
D14*
%TO.C,D50*%
X356225000Y-99490000D03*
D15*
X353685000Y-99490000D03*
%TD*%
D16*
%TO.C,SW3*%
X139860000Y-281010000D03*
X146360000Y-281010000D03*
X146360000Y-285510000D03*
X139860000Y-285510000D03*
%TD*%
%TO.C,SW34*%
X423334000Y-91458000D03*
X423334000Y-84958000D03*
X418834000Y-91458000D03*
X418834000Y-84958000D03*
%TD*%
D22*
%TO.C,REF\u002A\u002A*%
X462510000Y-174590000D03*
%TD*%
D16*
%TO.C,SW43*%
X178850000Y-269550000D03*
X185350000Y-269550000D03*
X185350000Y-274050000D03*
X178850000Y-274050000D03*
%TD*%
D23*
%TO.C,RV24*%
X386390000Y-68380000D03*
X377590000Y-68380000D03*
D15*
X384490000Y-75380000D03*
X381990000Y-75380000D03*
X379490000Y-75380000D03*
%TD*%
D14*
%TO.C,D12*%
X178060000Y-89625000D03*
D15*
X178060000Y-87085000D03*
%TD*%
D23*
%TO.C,RV5*%
X253390000Y-102380000D03*
X244590000Y-102380000D03*
D15*
X251490000Y-109380000D03*
X248990000Y-109380000D03*
X246490000Y-109380000D03*
%TD*%
D23*
%TO.C,RV17*%
X321400000Y-102420000D03*
X312600000Y-102420000D03*
D15*
X319500000Y-109420000D03*
X317000000Y-109420000D03*
X314500000Y-109420000D03*
%TD*%
D14*
%TO.C,D8*%
X262245000Y-135010000D03*
D15*
X259705000Y-135010000D03*
%TD*%
D14*
%TO.C,D44*%
X344210000Y-89520000D03*
D15*
X341670000Y-89520000D03*
%TD*%
D14*
%TO.C,D48*%
X356225000Y-109500000D03*
D15*
X353685000Y-109500000D03*
%TD*%
D14*
%TO.C,D35*%
X330535000Y-144890000D03*
D15*
X327995000Y-144890000D03*
%TD*%
D14*
%TO.C,D13*%
X218910000Y-89545000D03*
D15*
X218910000Y-87005000D03*
%TD*%
D22*
%TO.C,REF\u002A\u002A*%
X450000000Y-162100000D03*
%TD*%
D16*
%TO.C,SW9*%
X396380000Y-251080000D03*
X389880000Y-251080000D03*
X389880000Y-255580000D03*
X396380000Y-255580000D03*
%TD*%
D23*
%TO.C,RV25*%
X428410000Y-68390000D03*
X419610000Y-68390000D03*
D15*
X426510000Y-75390000D03*
X424010000Y-75390000D03*
X421510000Y-75390000D03*
%TD*%
D16*
%TO.C,SW36*%
X209870000Y-91680000D03*
X209870000Y-85180000D03*
X214370000Y-85180000D03*
X214370000Y-91680000D03*
%TD*%
D14*
%TO.C,D20*%
X296435000Y-139960000D03*
D15*
X293895000Y-139960000D03*
%TD*%
D23*
%TO.C,RV10*%
X278600000Y-136430000D03*
X287400000Y-136430000D03*
D15*
X285500000Y-143430000D03*
X283000000Y-143430000D03*
X280500000Y-143430000D03*
%TD*%
D16*
%TO.C,SW42*%
X409840000Y-117230000D03*
X409840000Y-110730000D03*
X414340000Y-117230000D03*
X414340000Y-110730000D03*
%TD*%
D14*
%TO.C,D53*%
X356195000Y-84490000D03*
D15*
X353655000Y-84490000D03*
%TD*%
D16*
%TO.C,RV13*%
X316970000Y-285450000D03*
X316970000Y-252450000D03*
D17*
X318240000Y-241518000D03*
X313160000Y-241518000D03*
X315700000Y-241518000D03*
D18*
X320780000Y-241518000D03*
D17*
X318350000Y-296382000D03*
X313270000Y-296382000D03*
%TD*%
D14*
%TO.C,D43*%
X344260000Y-94470000D03*
D15*
X341720000Y-94470000D03*
%TD*%
D23*
%TO.C,RV18*%
X312610000Y-68380000D03*
X321410000Y-68380000D03*
D15*
X319510000Y-75380000D03*
X317010000Y-75380000D03*
X314510000Y-75380000D03*
%TD*%
D16*
%TO.C,SW30*%
X377130000Y-85110000D03*
X377130000Y-91610000D03*
X381630000Y-85110000D03*
X381630000Y-91610000D03*
%TD*%
D22*
%TO.C,REF\u002A\u002A*%
X137030000Y-174600000D03*
%TD*%
D23*
%TO.C,RV9*%
X287370000Y-170460000D03*
X278570000Y-170460000D03*
D15*
X285470000Y-177460000D03*
X282970000Y-177460000D03*
X280470000Y-177460000D03*
%TD*%
D16*
%TO.C,SW37*%
X459824000Y-91528000D03*
X459824000Y-85028000D03*
X464324000Y-85028000D03*
X464324000Y-91528000D03*
%TD*%
D22*
%TO.C,REF\u002A\u002A*%
X162020000Y-174580000D03*
%TD*%
D23*
%TO.C,RV4*%
X253350000Y-136330000D03*
X244550000Y-136330000D03*
D15*
X251450000Y-143330000D03*
X248950000Y-143330000D03*
X246450000Y-143330000D03*
%TD*%
D19*
%TO.C,REF\u002A\u002A*%
X357790000Y-191260000D03*
%TD*%
D14*
%TO.C,D26*%
X391663000Y-259842000D03*
D15*
X394203000Y-259842000D03*
%TD*%
D16*
%TO.C,SW39*%
X188270000Y-110770000D03*
X188270000Y-117270000D03*
X183770000Y-110770000D03*
X183770000Y-117270000D03*
%TD*%
D22*
%TO.C,REF\u002A\u002A*%
X412550000Y-174620000D03*
%TD*%
D14*
%TO.C,D32*%
X330555000Y-159890000D03*
D15*
X328015000Y-159890000D03*
%TD*%
D21*
%TO.C,REF\u002A\u002A*%
X125000000Y-305000000D03*
D20*
X125000000Y-305000000D03*
%TD*%
D22*
%TO.C,REF\u002A\u002A*%
X400060000Y-187090000D03*
%TD*%
D16*
%TO.C,RV19*%
X208170000Y-292300000D03*
X208170000Y-241800000D03*
D17*
X209440000Y-232300000D03*
X204360000Y-232300000D03*
X206900000Y-232300000D03*
D18*
X211980000Y-232300000D03*
D17*
X209470000Y-303200000D03*
X204390000Y-303200000D03*
%TD*%
D23*
%TO.C,RV14*%
X321400000Y-205450000D03*
X312600000Y-205450000D03*
D15*
X319500000Y-212450000D03*
X317000000Y-212450000D03*
X314500000Y-212450000D03*
%TD*%
D20*
%TO.C,REF\u002A\u002A*%
X473000000Y-305000000D03*
D21*
X473000000Y-305000000D03*
%TD*%
D23*
%TO.C,RV28*%
X344570000Y-251400000D03*
X353370000Y-251400000D03*
D15*
X351470000Y-258400000D03*
X348970000Y-258400000D03*
X346470000Y-258400000D03*
%TD*%
D14*
%TO.C,D10*%
X141925000Y-259090000D03*
D15*
X144465000Y-259090000D03*
%TD*%
D22*
%TO.C,REF\u002A\u002A*%
X437510000Y-174610000D03*
%TD*%
D14*
%TO.C,D29*%
X468564000Y-86883000D03*
D15*
X468564000Y-89423000D03*
%TD*%
D14*
%TO.C,D23*%
X286940000Y-228735000D03*
D15*
X286940000Y-226195000D03*
%TD*%
D14*
%TO.C,D6*%
X262270000Y-145010000D03*
D15*
X259730000Y-145010000D03*
%TD*%
D23*
%TO.C,RV27*%
X344610000Y-284440000D03*
X353410000Y-284440000D03*
D15*
X351510000Y-291440000D03*
X349010000Y-291440000D03*
X346510000Y-291440000D03*
%TD*%
D14*
%TO.C,D24*%
X321080000Y-228915000D03*
D15*
X321080000Y-226375000D03*
%TD*%
D23*
%TO.C,RV6*%
X253360000Y-68370000D03*
X244560000Y-68370000D03*
D15*
X251460000Y-75370000D03*
X248960000Y-75370000D03*
X246460000Y-75370000D03*
%TD*%
D14*
%TO.C,D33*%
X330555000Y-154880000D03*
D15*
X328015000Y-154880000D03*
%TD*%
D14*
%TO.C,D47*%
X356195000Y-114480000D03*
D15*
X353655000Y-114480000D03*
%TD*%
D23*
%TO.C,RV29*%
X344600000Y-136460000D03*
X353400000Y-136460000D03*
D15*
X351500000Y-143460000D03*
X349000000Y-143460000D03*
X346500000Y-143460000D03*
%TD*%
D14*
%TO.C,D36*%
X330485000Y-139860000D03*
D15*
X327945000Y-139860000D03*
%TD*%
D14*
%TO.C,D34*%
X330535000Y-149870000D03*
D15*
X327995000Y-149870000D03*
%TD*%
D14*
%TO.C,D18*%
X296555000Y-149950000D03*
D15*
X294015000Y-149950000D03*
%TD*%
D22*
%TO.C,REF\u002A\u002A*%
X199470000Y-162080000D03*
%TD*%
D14*
%TO.C,D15*%
X296575000Y-164990000D03*
D15*
X294035000Y-164990000D03*
%TD*%
D16*
%TO.C,SW10*%
X282880000Y-225270000D03*
X276380000Y-225270000D03*
X282880000Y-229770000D03*
X276380000Y-229770000D03*
%TD*%
D23*
%TO.C,RV15*%
X312700000Y-170400000D03*
X321500000Y-170400000D03*
D15*
X319600000Y-177400000D03*
X317100000Y-177400000D03*
X314600000Y-177400000D03*
%TD*%
D24*
%TO.C,TB2*%
X421390000Y-212180000D03*
X423930000Y-212180000D03*
X426470000Y-212180000D03*
X429010000Y-212180000D03*
%TD*%
D23*
%TO.C,RV21*%
X169570000Y-68480000D03*
X178370000Y-68480000D03*
D15*
X176470000Y-75480000D03*
X173970000Y-75480000D03*
X171470000Y-75480000D03*
%TD*%
D14*
%TO.C,D40*%
X344305000Y-109520000D03*
D15*
X341765000Y-109520000D03*
%TD*%
D16*
%TO.C,SW20*%
X429320000Y-251200000D03*
X429320000Y-244700000D03*
X433820000Y-244700000D03*
X433820000Y-251200000D03*
%TD*%
D14*
%TO.C,D7*%
X262245000Y-140010000D03*
D15*
X259705000Y-140010000D03*
%TD*%
D14*
%TO.C,D51*%
X356225000Y-94480000D03*
D15*
X353685000Y-94480000D03*
%TD*%
D14*
%TO.C,D39*%
X344275000Y-114460000D03*
D15*
X341735000Y-114460000D03*
%TD*%
D19*
%TO.C,REF\u002A\u002A*%
X358650000Y-216370000D03*
%TD*%
D23*
%TO.C,RV2*%
X253410000Y-205350000D03*
X244610000Y-205350000D03*
D15*
X251510000Y-212350000D03*
X249010000Y-212350000D03*
X246510000Y-212350000D03*
%TD*%
D14*
%TO.C,D19*%
X296495000Y-144960000D03*
D15*
X293955000Y-144960000D03*
%TD*%
D23*
%TO.C,RV16*%
X312590000Y-136480000D03*
X321390000Y-136480000D03*
D15*
X319490000Y-143480000D03*
X316990000Y-143480000D03*
X314490000Y-143480000D03*
%TD*%
D14*
%TO.C,D42*%
X344255000Y-99490000D03*
D15*
X341715000Y-99490000D03*
%TD*%
D14*
%TO.C,D5*%
X262305000Y-150000000D03*
D15*
X259765000Y-150000000D03*
%TD*%
D14*
%TO.C,D28*%
X427554000Y-86928000D03*
D15*
X427554000Y-89468000D03*
%TD*%
D16*
%TO.C,SW40*%
X438050000Y-117270000D03*
X438050000Y-110770000D03*
X433550000Y-117270000D03*
X433550000Y-110770000D03*
%TD*%
D14*
%TO.C,D52*%
X356165000Y-89470000D03*
D15*
X353625000Y-89470000D03*
%TD*%
D25*
%TO.C,SW16*%
X176500000Y-106530000D03*
D16*
X171500000Y-106530000D03*
X174000000Y-106530000D03*
D22*
X179600000Y-114030000D03*
X168400000Y-114030000D03*
D16*
X171500000Y-121030000D03*
X176500000Y-121030000D03*
%TD*%
D22*
%TO.C,REF\u002A\u002A*%
X149520000Y-187070000D03*
%TD*%
D14*
%TO.C,D2*%
X262225000Y-165010000D03*
D15*
X259685000Y-165010000D03*
%TD*%
D16*
%TO.C,SW24*%
X179600000Y-230750000D03*
X179600000Y-237250000D03*
X184100000Y-230750000D03*
X184100000Y-237250000D03*
%TD*%
D22*
%TO.C,REF\u002A\u002A*%
X450020000Y-187090000D03*
%TD*%
D16*
%TO.C,SW5*%
X242370000Y-225220000D03*
X248870000Y-225220000D03*
X248870000Y-229720000D03*
X242370000Y-229720000D03*
%TD*%
D22*
%TO.C,REF\u002A\u002A*%
X199490000Y-187060000D03*
%TD*%
D14*
%TO.C,D45*%
X344205000Y-84520000D03*
D15*
X341665000Y-84520000D03*
%TD*%
D16*
%TO.C,SW29*%
X127080000Y-85150000D03*
X127080000Y-91650000D03*
X131580000Y-85150000D03*
X131580000Y-91650000D03*
%TD*%
D23*
%TO.C,RV3*%
X253380000Y-170420000D03*
X244580000Y-170420000D03*
D15*
X251480000Y-177420000D03*
X248980000Y-177420000D03*
X246480000Y-177420000D03*
%TD*%
D23*
%TO.C,RV26*%
X460570000Y-68330000D03*
X469370000Y-68330000D03*
D15*
X467470000Y-75330000D03*
X464970000Y-75330000D03*
X462470000Y-75330000D03*
%TD*%
D26*
%TO.C,R1*%
X265090000Y-169926000D03*
X268190000Y-169926000D03*
%TD*%
%TO.C,R52*%
X358850000Y-89408000D03*
X361950000Y-89408000D03*
%TD*%
D27*
%TO.C,R11*%
X140088000Y-89778000D03*
X140088000Y-86678000D03*
%TD*%
D26*
%TO.C,R21*%
X299450000Y-134874000D03*
X302550000Y-134874000D03*
%TD*%
%TO.C,R25*%
X391642000Y-293878000D03*
X394742000Y-293878000D03*
%TD*%
%TO.C,R50*%
X358850000Y-99314000D03*
X361950000Y-99314000D03*
%TD*%
D28*
%TO.C,NPR1*%
X146250000Y-153240000D03*
X143150000Y-153240000D03*
%TD*%
D26*
%TO.C,R26*%
X391531000Y-263774000D03*
X394631000Y-263774000D03*
%TD*%
%TO.C,R34*%
X333450000Y-149860000D03*
X336550000Y-149860000D03*
%TD*%
%TO.C,R14*%
X299450000Y-169926000D03*
X302550000Y-169926000D03*
%TD*%
%TO.C,R37*%
X333476000Y-134874000D03*
X336576000Y-134874000D03*
%TD*%
%TO.C,R43*%
X346684000Y-94488000D03*
X349784000Y-94488000D03*
%TD*%
%TO.C,R45*%
X346684000Y-84582000D03*
X349784000Y-84582000D03*
%TD*%
D27*
%TO.C,R55*%
X443490000Y-273540000D03*
X443490000Y-270440000D03*
%TD*%
D26*
%TO.C,R38*%
X346684000Y-119634000D03*
X349784000Y-119634000D03*
%TD*%
%TO.C,R41*%
X346684000Y-104394000D03*
X349784000Y-104394000D03*
%TD*%
%TO.C,R7*%
X265036000Y-140030000D03*
X268136000Y-140030000D03*
%TD*%
%TO.C,R4*%
X264966000Y-155000000D03*
X268066000Y-155000000D03*
%TD*%
%TO.C,R32*%
X333450000Y-160020000D03*
X336550000Y-160020000D03*
%TD*%
%TO.C,R48*%
X358902000Y-109474000D03*
X362002000Y-109474000D03*
%TD*%
D29*
%TO.C,R27*%
X389286000Y-86556000D03*
X389286000Y-89656000D03*
%TD*%
D26*
%TO.C,R18*%
X299450000Y-149860000D03*
X302550000Y-149860000D03*
%TD*%
D27*
%TO.C,R22*%
X256286000Y-228880000D03*
X256286000Y-225780000D03*
%TD*%
%TO.C,R13*%
X222892000Y-89778000D03*
X222892000Y-86678000D03*
%TD*%
D26*
%TO.C,R42*%
X346684000Y-99314000D03*
X349784000Y-99314000D03*
%TD*%
%TO.C,R17*%
X299450000Y-154940000D03*
X302550000Y-154940000D03*
%TD*%
%TO.C,R40*%
X346684000Y-109474000D03*
X349784000Y-109474000D03*
%TD*%
%TO.C,R44*%
X346684000Y-89662000D03*
X349784000Y-89662000D03*
%TD*%
%TO.C,R19*%
X299440000Y-145034000D03*
X302540000Y-145034000D03*
%TD*%
%TO.C,R20*%
X299450000Y-139954000D03*
X302550000Y-139954000D03*
%TD*%
D29*
%TO.C,R54*%
X193655363Y-270155904D03*
X193655363Y-273255904D03*
%TD*%
D26*
%TO.C,R31*%
X333450000Y-164846000D03*
X336550000Y-164846000D03*
%TD*%
%TO.C,R33*%
X333450000Y-154940000D03*
X336550000Y-154940000D03*
%TD*%
%TO.C,R49*%
X358850000Y-104394000D03*
X361950000Y-104394000D03*
%TD*%
%TO.C,R3*%
X265016000Y-160040000D03*
X268116000Y-160040000D03*
%TD*%
%TO.C,R46*%
X358902000Y-119634000D03*
X362002000Y-119634000D03*
%TD*%
%TO.C,R16*%
X299450000Y-160020000D03*
X302550000Y-160020000D03*
%TD*%
%TO.C,R5*%
X264936000Y-150010000D03*
X268036000Y-150010000D03*
%TD*%
%TO.C,R2*%
X265066000Y-165010000D03*
X268166000Y-165010000D03*
%TD*%
%TO.C,R53*%
X358850000Y-84582000D03*
X361950000Y-84582000D03*
%TD*%
%TO.C,R30*%
X333450000Y-169926000D03*
X336550000Y-169926000D03*
%TD*%
%TO.C,R6*%
X264966000Y-144920000D03*
X268066000Y-144920000D03*
%TD*%
%TO.C,R8*%
X264896000Y-134960000D03*
X267996000Y-134960000D03*
%TD*%
D29*
%TO.C,R29*%
X471836000Y-86810000D03*
X471836000Y-89910000D03*
%TD*%
D27*
%TO.C,R24*%
X324612000Y-229388000D03*
X324612000Y-226288000D03*
%TD*%
D26*
%TO.C,R15*%
X299450000Y-165100000D03*
X302550000Y-165100000D03*
%TD*%
%TO.C,R36*%
X333476000Y-139700000D03*
X336576000Y-139700000D03*
%TD*%
D29*
%TO.C,R28*%
X430942000Y-86556000D03*
X430942000Y-89656000D03*
%TD*%
D26*
%TO.C,R9*%
X141706000Y-292862000D03*
X144806000Y-292862000D03*
%TD*%
%TO.C,R35*%
X333450000Y-144780000D03*
X336550000Y-144780000D03*
%TD*%
D27*
%TO.C,R12*%
X181998000Y-89778000D03*
X181998000Y-86678000D03*
%TD*%
D26*
%TO.C,R10*%
X141960000Y-263144000D03*
X145060000Y-263144000D03*
%TD*%
%TO.C,R51*%
X358850000Y-94488000D03*
X361950000Y-94488000D03*
%TD*%
%TO.C,R47*%
X358902000Y-114554000D03*
X362002000Y-114554000D03*
%TD*%
D29*
%TO.C,R23*%
X290550000Y-225710000D03*
X290550000Y-228810000D03*
%TD*%
D26*
%TO.C,R39*%
X346684000Y-114554000D03*
X349784000Y-114554000D03*
%TD*%
M02*
