  0
SECTION
  2
HEADER
  9
$ANGBASE
  50
0.0
  9
$ANGDIR
  70
1
  9
$MEASUREMENT
  70
1
  0
ENDSEC
  0
SECTION
  2
TABLES
  0
TABLE
  2
LTYPE
  70
4
  0
LTYPE
  5
40F
  2
CONTINUOUS
  70
0
  3
Solid line
  72
65
  73
0
  40
0.0
  0
LTYPE
  5
410
  2
DASHDOT
 70
0
  3
Dash Dot ____ _ ____ _
 72
65
 73
4
 40
2.0
 49
1.25
 49
-0.25
 49
0.25
 49
-0.25
  0
LTYPE
  5
411
  2
DASHED
 70
0
  3
Dashed __ __ __ __ __
 72
65
 73
2
 40
0.75
 49
0.5
 49
-0.25
  0
LTYPE
  5
43B
  2
DOTTED
 70
0
  3
Dotted .  .  .  .
 72
65
 73
2
 40
0.2
 49
0.0
 49
-0.2
  0
ENDTAB
  0
TABLE
  2
STYLE
  70
4
  0
STYLE
  2
KICAD
  70
0
  40
0
  41
1
  42
1
  50
0
  71
0
  3
isocp.shx
  0
STYLE
  2
KICADB
  70
0
  40
0
  41
1
  42
1
  50
0
  71
0
  3
isocp.shx
  0
STYLE
  2
KICADI
  70
0
  40
0
  41
1
  42
1
  50
15
  71
0
  3
isocp.shx
  0
STYLE
  2
KICADBI
  70
0
  40
0
  41
1
  42
1
  50
15
  71
0
  3
isocp.shx
  0
ENDTAB
  0
TABLE
  2
LAYER
  70
1
  0
LAYER
  2
BLACK
  70
0
  62
7
  6
CONTINUOUS
  0
ENDTAB
  0
ENDSEC
  0
SECTION
  2
ENTITIES
0
LINE
8
BLACK
6
CONTINUOUS
10
222.82
20
118.55
11
237.81
21
118.55
0
LINE
8
BLACK
6
CONTINUOUS
10
237.81
20
118.55
11
237.81
21
100.57
0
LINE
8
BLACK
6
CONTINUOUS
10
237.81
20
100.57
11
222.82
21
100.57
0
LINE
8
BLACK
6
CONTINUOUS
10
222.82
20
100.57
11
222.82
21
118.55
0
CIRCLE
8
BLACK
10
285.904
20
170.956
40
0.5
0
CIRCLE
8
BLACK
10
12.96
20
242.94
40
0.5
0
CIRCLE
8
BLACK
10
329.084
20
223.28
40
0.5
0
CIRCLE
8
BLACK
10
301.144
20
168.416
40
0.5
0
CIRCLE
8
BLACK
10
280.824
20
229.376
40
0.5
0
CIRCLE
8
BLACK
10
222.75
20
145.69
40
1.5
0
CIRCLE
8
BLACK
10
329.084
20
183.656
40
0.5
0
CIRCLE
8
BLACK
10
238.71
20
177.26
40
1.5
0
CIRCLE
8
BLACK
10
298.604
20
170.956
40
0.5
0
CIRCLE
8
BLACK
10
305
20
243.02
40
0.5
0
CIRCLE
8
BLACK
10
288.444
20
170.956
40
0.5
0
CIRCLE
8
BLACK
10
329.084
20
168.416
40
0.5
0
LINE
8
BLACK
6
CONTINUOUS
10
58
20
58
11
74
21
58
0
CIRCLE
8
BLACK
10
324.004
20
168.416
40
0.5
0
CIRCLE
8
BLACK
10
148.68
20
158.89
40
1.5
0
CIRCLE
8
BLACK
10
280.824
20
206.244
40
0.5
0
CIRCLE
8
BLACK
10
303.684
20
168.416
40
0.5
0
CIRCLE
8
BLACK
10
329.084
20
178.576
40
0.5
0
CIRCLE
8
BLACK
10
222.75
20
141.18
40
1.5
0
CIRCLE
8
BLACK
10
280.824
20
221.756
40
0.5
0
LINE
8
BLACK
6
CONTINUOUS
10
0
20
260
11
360
21
260
0
CIRCLE
8
BLACK
10
280.824
20
196.084
40
0.5
0
CIRCLE
8
BLACK
10
329.084
20
230.9
40
0.5
0
CIRCLE
8
BLACK
10
280.824
20
186.196
40
0.5
0
CIRCLE
8
BLACK
10
290.984
20
168.416
40
0.5
0
CIRCLE
8
BLACK
10
306.24
20
201.32
40
0.5
0
CIRCLE
8
BLACK
10
280.824
20
208.784
40
0.5
0
CIRCLE
8
BLACK
10
324.004
20
170.956
40
0.5
0
CIRCLE
8
BLACK
10
222.76
20
204.26
40
1.5
0
CIRCLE
8
BLACK
10
321.464
20
168.416
40
0.5
0
CIRCLE
8
BLACK
10
280.824
20
183.656
40
0.5
0
CIRCLE
8
BLACK
10
268.552
20
136.38
40
1.6
0
LINE
8
BLACK
6
CONTINUOUS
10
316.345
20
163.272
11
282.175
21
163.272
0
CIRCLE
8
BLACK
10
329.084
20
225.82
40
0.5
0
CIRCLE
8
BLACK
10
293.524
20
170.956
40
0.5
0
LINE
8
BLACK
6
CONTINUOUS
10
236.219
20
139.575
11
236.219
21
139.067
0
CIRCLE
8
BLACK
10
326.544
20
170.956
40
0.5
0
CIRCLE
8
BLACK
10
230.01
20
226.69
40
7
0
CIRCLE
8
BLACK
10
296.064
20
168.416
40
0.5
0
CIRCLE
8
BLACK
10
286.59
20
259.25
40
1.65
0
LINE
8
BLACK
6
CONTINUOUS
10
324
20
7
11
324
21
17
0
LINE
8
BLACK
6
CONTINUOUS
10
356
20
111.416
11
356
21
161.416
0
CIRCLE
8
BLACK
10
329.084
20
193.816
40
0.5
0
LINE
8
BLACK
6
CONTINUOUS
10
308.02
20
44.3735
11
308.02
21
34.3735
0
CIRCLE
8
BLACK
10
117.52
20
203.83
40
1.5
0
CIRCLE
8
BLACK
10
280.824
20
250.966
40
1.6
0
CIRCLE
8
BLACK
10
280.824
20
224.296
40
0.5
0
CIRCLE
8
BLACK
10
329.084
20
230.9
40
0.5
0
CIRCLE
8
BLACK
10
308.764
20
168.416
40
0.5
0
LINE
8
BLACK
6
CONTINUOUS
10
62.88
20
217.59
11
62.88
21
227.59
0
LINE
8
BLACK
6
CONTINUOUS
10
58
20
17
11
58
21
7
0
LINE
8
BLACK
6
CONTINUOUS
10
308
20
68
11
308
21
58
0
LINE
8
BLACK
6
CONTINUOUS
10
324
20
58
11
324
21
68
0
LINE
8
BLACK
6
CONTINUOUS
10
105.524
20
161.416
11
5.524
21
161.416
0
CIRCLE
8
BLACK
10
148.68
20
199.38
40
1.5
0
CIRCLE
8
BLACK
10
293.524
20
170.956
40
0.5
0
LINE
8
BLACK
6
CONTINUOUS
10
74
20
82
11
58
21
82
0
CIRCLE
8
BLACK
10
317.64
20
256.42
40
0.475
0
CIRCLE
8
BLACK
10
308.764
20
168.416
40
0.5
0
CIRCLE
8
BLACK
10
329.084
20
196.356
40
0.5
0
LINE
8
BLACK
6
CONTINUOUS
10
120.871
20
84.8472
11
120.871
21
77.8472
0
LINE
8
BLACK
6
CONTINUOUS
10
278.417
20
264.727
11
331.582
21
264.727
0
CIRCLE
8
BLACK
10
290.984
20
170.956
40
0.5
0
CIRCLE
8
BLACK
10
280.824
20
229.376
40
0.5
0
CIRCLE
8
BLACK
10
303.7
20
198.78
40
0.5
0
CIRCLE
8
BLACK
10
293.524
20
168.416
40
0.5
0
CIRCLE
8
BLACK
10
281.613
20
256.243
40
1.65
0
CIRCLE
8
BLACK
10
293.524
20
168.416
40
0.5
0
CIRCLE
8
BLACK
10
280.824
20
226.836
40
0.5
0
CIRCLE
8
BLACK
10
322.38
20
261.13
40
1.1
0
CIRCLE
8
BLACK
10
222.76
20
172.64
40
1.5
0
CIRCLE
8
BLACK
10
222.79
20
177.16
40
1.5
0
CIRCLE
8
BLACK
10
329.084
20
223.28
40
0.5
0
CIRCLE
8
BLACK
10
280.824
20
178.576
40
0.5
0
CIRCLE
8
BLACK
10
280.824
20
176.036
40
0.5
0
CIRCLE
8
BLACK
10
280.824
20
178.576
40
0.5
0
CIRCLE
8
BLACK
10
280.824
20
173.496
40
0.5
0
CIRCLE
8
BLACK
10
238.69
20
204.28
40
1.5
0
CIRCLE
8
BLACK
10
329.084
20
183.656
40
0.5
0
CIRCLE
8
BLACK
10
164
20
175
40
0.5
0
CIRCLE
8
BLACK
10
298.604
20
168.416
40
0.5
0
LINE
8
BLACK
6
CONTINUOUS
10
282.175
20
163.272
11
279.678
21
165.809
0
CIRCLE
8
BLACK
10
329.084
20
214.136
40
0.5
0
CIRCLE
8
BLACK
10
303.684
20
168.416
40
0.5
0
CIRCLE
8
BLACK
10
263
20
243.02
40
0.5
0
LINE
8
BLACK
6
CONTINUOUS
10
308
20
58
11
324
21
58
0
CIRCLE
8
BLACK
10
281.048
20
148.882
40
1.6
0
CIRCLE
8
BLACK
10
329.084
20
235.98
40
0.5
0
LINE
8
BLACK
6
CONTINUOUS
10
193.42
20
5.18621
11
202.42
21
5.18621
0
CIRCLE
8
BLACK
10
303.7
20
198.78
40
0.5
0
LINE
8
BLACK
6
CONTINUOUS
10
125.42
20
5.18621
11
134.42
21
5.18621
0
CIRCLE
8
BLACK
10
313.844
20
170.956
40
0.5
0
CIRCLE
8
BLACK
10
280.824
20
183.656
40
0.5
0
LINE
8
BLACK
6
CONTINUOUS
10
256
20
86.416
11
356
21
86.416
0
CIRCLE
8
BLACK
10
280.824
20
196.084
40
0.5
0
CIRCLE
8
BLACK
10
329.084
20
241.06
40
0.5
0
LINE
8
BLACK
6
CONTINUOUS
10
334
20
7
11
344
21
7
0
CIRCLE
8
BLACK
10
238.68
20
168.27
40
1.5
0
CIRCLE
8
BLACK
10
316.384
20
168.416
40
0.5
0
CIRCLE
8
BLACK
10
308.78
20
201.32
40
0.5
0
LINE
8
BLACK
6
CONTINUOUS
10
58
20
82
11
58
21
72
0
LINE
8
BLACK
6
CONTINUOUS
10
172.903
20
77.8434
11
172.903
21
84.8434
0
LINE
8
BLACK
6
CONTINUOUS
10
308
20
82
11
308
21
72
0
CIRCLE
8
BLACK
10
286.59
20
253.25
40
1.65
0
CIRCLE
8
BLACK
10
280.824
20
213.864
40
0.5
0
CIRCLE
8
BLACK
10
316.384
20
170.956
40
0.5
0
CIRCLE
8
BLACK
10
310.38
20
261.13
40
1.1
0
CIRCLE
8
BLACK
10
329.084
20
178.576
40
0.5
0
CIRCLE
8
BLACK
10
329.084
20
225.82
40
0.5
0
CIRCLE
8
BLACK
10
329.084
20
219.216
40
0.5
0
CIRCLE
8
BLACK
10
280.824
20
231.916
40
0.5
0
CIRCLE
8
BLACK
10
326.544
20
170.956
40
0.5
0
CIRCLE
8
BLACK
10
130
20
175
40
0.5
0
LINE
8
BLACK
6
CONTINUOUS
10
324
20
58
11
324
21
68
0
LINE
8
BLACK
6
CONTINUOUS
10
316.345
20
163.272
11
282.175
21
163.272
0
CIRCLE
8
BLACK
10
280.824
20
191.276
40
0.5
0
CIRCLE
8
BLACK
10
148.67
20
190.39
40
1.5
0
CIRCLE
8
BLACK
10
317.64
20
258.42
40
0.475
0
CIRCLE
8
BLACK
10
326.544
20
168.416
40
0.5
0
CIRCLE
8
BLACK
10
324.004
20
168.416
40
0.5
0
CIRCLE
8
BLACK
10
305
20
243.02
40
7
0
CIRCLE
8
BLACK
10
280.824
20
188.736
40
0.5
0
CIRCLE
8
BLACK
10
318.924
20
170.956
40
0.5
0
CIRCLE
8
BLACK
10
285.9
20
198.9
40
1.6
0
LINE
8
BLACK
6
CONTINUOUS
10
312.904
20
217.712
11
312.904
21
227.712
0
CIRCLE
8
BLACK
10
329.084
20
170.956
40
0.5
0
LINE
8
BLACK
6
CONTINUOUS
10
193.42
20
65.1862
11
193.42
21
5.18621
0
LINE
8
BLACK
6
CONTINUOUS
10
159.42
20
5.18621
11
168.42
21
5.18621
0
LINE
8
BLACK
6
CONTINUOUS
10
278.417
20
165.809
11
278.417
21
264.727
0
CIRCLE
8
BLACK
10
317.64
20
256.42
40
0.475
0
CIRCLE
8
BLACK
10
117.51
20
185.83
40
1.5
0
CIRCLE
8
BLACK
10
326.544
20
170.956
40
0.5
0
LINE
8
BLACK
6
CONTINUOUS
10
0
20
0
11
360
21
0
0
CIRCLE
8
BLACK
10
95.96
20
242.94
40
7
0
CIRCLE
8
BLACK
10
280.824
20
186.196
40
0.5
0
CIRCLE
8
BLACK
10
285.9
20
198.9
40
1.6
0
CIRCLE
8
BLACK
10
238.69
20
150.35
40
1.5
0
LINE
8
BLACK
6
CONTINUOUS
10
324
20
72
11
324
21
82
0
CIRCLE
8
BLACK
10
317.64
20
256.42
40
0.475
0
CIRCLE
8
BLACK
10
329.084
20
209.056
40
0.5
0
LINE
8
BLACK
6
CONTINUOUS
10
58
20
7
11
74
21
7
0
CIRCLE
8
BLACK
10
329.084
20
188.736
40
0.5
0
CIRCLE
8
BLACK
10
329.084
20
223.28
40
0.5
0
CIRCLE
8
BLACK
10
329.084
20
241.06
40
0.5
0
CIRCLE
8
BLACK
10
329.084
20
168.416
40
0.5
0
CIRCLE
8
BLACK
10
280.824
20
203.704
40
0.5
0
CIRCLE
8
BLACK
10
326.544
20
168.416
40
0.5
0
CIRCLE
8
BLACK
10
316.384
20
170.956
40
0.5
0
CIRCLE
8
BLACK
10
130
20
141
40
0.5
0
CIRCLE
8
BLACK
10
238.68
20
195.28
40
1.5
0
CIRCLE
8
BLACK
10
222.75
20
163.68
40
1.5
0
CIRCLE
8
BLACK
10
280.824
20
224.296
40
0.5
0
CIRCLE
8
BLACK
10
288.444
20
170.956
40
0.5
0
CIRCLE
8
BLACK
10
164
20
141
40
0.5
0
CIRCLE
8
BLACK
10
290.984
20
170.956
40
0.5
0
CIRCLE
8
BLACK
10
296.064
20
168.416
40
0.5
0
LINE
8
BLACK
6
CONTINUOUS
10
278.417
20
165.809
11
278.417
21
264.727
0
CIRCLE
8
BLACK
10
286.59
20
253.25
40
1.65
0
LINE
8
BLACK
6
CONTINUOUS
10
105.524
20
106.416
11
5.524
21
106.416
0
CIRCLE
8
BLACK
10
317.64
20
256.42
40
0.475
0
LINE
8
BLACK
6
CONTINUOUS
10
74
20
44.12
11
58
21
44.12
0
CIRCLE
8
BLACK
10
315.14
20
258.42
40
0.475
0
LINE
8
BLACK
6
CONTINUOUS
10
58
20
34.12
11
74
21
34.12
0
CIRCLE
8
BLACK
10
329.084
20
219.216
40
0.5
0
LINE
8
BLACK
6
CONTINUOUS
10
256
20
106.416
11
256
21
86.416
0
CIRCLE
8
BLACK
10
324.004
20
170.956
40
0.5
0
CIRCLE
8
BLACK
10
308.78
20
201.32
40
0.5
0
CIRCLE
8
BLACK
10
311.304
20
168.416
40
0.5
0
CIRCLE
8
BLACK
10
117.51
20
190.33
40
1.5
0
LINE
8
BLACK
6
CONTINUOUS
10
74
20
34.12
11
74
21
44.12
0
CIRCLE
8
BLACK
10
182.61
20
172.37
40
1.5
0
CIRCLE
8
BLACK
10
329.084
20
178.576
40
0.5
0
LINE
8
BLACK
6
CONTINUOUS
10
0
20
0
11
0
21
260
0
CIRCLE
8
BLACK
10
317.64
20
258.42
40
0.475
0
CIRCLE
8
BLACK
10
329.084
20
241.06
40
0.5
0
CIRCLE
8
BLACK
10
280.824
20
231.916
40
0.5
0
CIRCLE
8
BLACK
10
164
20
243
40
7
0
CIRCLE
8
BLACK
10
311.304
20
170.956
40
0.5
0
CIRCLE
8
BLACK
10
329.084
20
235.98
40
0.5
0
CIRCLE
8
BLACK
10
303.684
20
168.416
40
0.5
0
CIRCLE
8
BLACK
10
230
20
60
40
7
0
CIRCLE
8
BLACK
10
286.59
20
253.25
40
1.65
0
CIRCLE
8
BLACK
10
198
20
106
40
9
0
CIRCLE
8
BLACK
10
306.24
20
201.32
40
0.5
0
CIRCLE
8
BLACK
10
329.084
20
233.44
40
0.5
0
CIRCLE
8
BLACK
10
280.824
20
221.756
40
0.5
0
LINE
8
BLACK
6
CONTINUOUS
10
168.42
20
5.18621
11
168.42
21
65.1862
0
CIRCLE
8
BLACK
10
324.004
20
170.956
40
0.5
0
CIRCLE
8
BLACK
10
117.5
20
140.83
40
1.5
0
CIRCLE
8
BLACK
10
281.613
20
256.243
40
1.65
0
LINE
8
BLACK
6
CONTINUOUS
10
220.293
20
139.372
11
220.293
21
138.966
0
CIRCLE
8
BLACK
10
306.224
20
170.956
40
0.5
0
CIRCLE
8
BLACK
10
308.78
20
201.32
40
0.5
0
LINE
8
BLACK
6
CONTINUOUS
10
318.882
20
165.809
11
316.345
21
163.272
0
CIRCLE
8
BLACK
10
280.824
20
191.276
40
0.5
0
CIRCLE
8
BLACK
10
280.824
20
191.276
40
0.5
0
CIRCLE
8
BLACK
10
117.51
20
167.82
40
1.5
0
LINE
8
BLACK
6
CONTINUOUS
10
334
20
82
11
334
21
7
0
LINE
8
BLACK
6
CONTINUOUS
10
5.524
20
86.416
11
105.524
21
86.416
0
LINE
8
BLACK
6
CONTINUOUS
10
308
20
7
11
324
21
7
0
LINE
8
BLACK
6
CONTINUOUS
10
318.882
20
165.809
11
316.345
21
163.272
0
CIRCLE
8
BLACK
10
329.084
20
174.766
40
1.6
0
CIRCLE
8
BLACK
10
303.7
20
201.32
40
0.5
0
CIRCLE
8
BLACK
10
280.824
20
191.276
40
0.5
0
CIRCLE
8
BLACK
10
329.084
20
168.416
40
0.5
0
LINE
8
BLACK
6
CONTINUOUS
10
4.95
20
217.5
11
20.95
21
217.5
0
CIRCLE
8
BLACK
10
321.464
20
168.416
40
0.5
0
CIRCLE
8
BLACK
10
329.084
20
214.136
40
0.5
0
CIRCLE
8
BLACK
10
321.464
20
170.956
40
0.5
0
CIRCLE
8
BLACK
10
280.824
20
221.756
40
0.5
0
CIRCLE
8
BLACK
10
285.904
20
168.416
40
0.5
0
CIRCLE
8
BLACK
10
296.064
20
170.956
40
0.5
0
CIRCLE
8
BLACK
10
117.51
20
194.83
40
1.5
0
LINE
8
BLACK
6
CONTINUOUS
10
94
20
82
11
84
21
82
0
LINE
8
BLACK
6
CONTINUOUS
10
324.02
20
34.3735
11
324.02
21
44.3735
0
LINE
8
BLACK
6
CONTINUOUS
10
331.582
20
168.309
11
329.082
21
165.809
0
CIRCLE
8
BLACK
10
222.76
20
186.18
40
1.5
0
CIRCLE
8
BLACK
10
222.76
20
154.67
40
1.5
0
CIRCLE
8
BLACK
10
288.444
20
170.956
40
0.5
0
CIRCLE
8
BLACK
10
198
20
209
40
0.5
0
LINE
8
BLACK
6
CONTINUOUS
10
279.678
20
165.809
11
278.417
21
165.809
0
LINE
8
BLACK
6
CONTINUOUS
10
318.882
20
165.809
11
316.345
21
163.272
0
CIRCLE
8
BLACK
10
117.52
20
199.32
40
1.5
0
CIRCLE
8
BLACK
10
238.67
20
163.78
40
1.5
0
LINE
8
BLACK
6
CONTINUOUS
10
94
20
7
11
94
21
82
0
CIRCLE
8
BLACK
10
280.824
20
208.784
40
0.5
0
CIRCLE
8
BLACK
10
311.304
20
170.956
40
0.5
0
CIRCLE
8
BLACK
10
298.604
20
168.416
40
0.5
0
CIRCLE
8
BLACK
10
329.084
20
188.736
40
0.5
0
LINE
8
BLACK
6
CONTINUOUS
10
138.871
20
84.8472
11
120.871
21
84.8472
0
CIRCLE
8
BLACK
10
321.464
20
168.416
40
0.5
0
CIRCLE
8
BLACK
10
293.524
20
170.956
40
0.5
0
LINE
8
BLACK
6
CONTINUOUS
10
138.871
20
77.8472
11
138.871
21
84.8472
0
CIRCLE
8
BLACK
10
313.844
20
170.956
40
0.5
0
CIRCLE
8
BLACK
10
308.764
20
170.956
40
0.5
0
CIRCLE
8
BLACK
10
306.224
20
170.956
40
0.5
0
CIRCLE
8
BLACK
10
164
20
209
40
0.5
0
CIRCLE
8
BLACK
10
329.084
20
181.116
40
0.5
0
CIRCLE
8
BLACK
10
329.084
20
193.816
40
0.5
0
CIRCLE
8
BLACK
10
321.464
20
170.956
40
0.5
0
CIRCLE
8
BLACK
10
331.004
20
148.896
40
1.6
0
CIRCLE
8
BLACK
10
303.684
20
170.956
40
0.5
0
CIRCLE
8
BLACK
10
198
20
175
40
0.5
0
LINE
8
BLACK
6
CONTINUOUS
10
103.88
20
217.59
11
103.88
21
227.59
0
CIRCLE
8
BLACK
10
329.084
20
186.196
40
0.5
0
CIRCLE
8
BLACK
10
293.524
20
168.416
40
0.5
0
CIRCLE
8
BLACK
10
329.084
20
228.36
40
0.5
0
LINE
8
BLACK
6
CONTINUOUS
10
159.42
20
65.1862
11
159.42
21
5.18621
0
CIRCLE
8
BLACK
10
326.544
20
170.956
40
0.5
0
CIRCLE
8
BLACK
10
182.61
20
194.91
40
1.5
0
CIRCLE
8
BLACK
10
329.084
20
170.956
40
0.5
0
CIRCLE
8
BLACK
10
286.59
20
259.25
40
1.65
0
CIRCLE
8
BLACK
10
329.084
20
181.116
40
0.5
0
CIRCLE
8
BLACK
10
329.084
20
201.436
40
0.5
0
CIRCLE
8
BLACK
10
329.084
20
209.056
40
0.5
0
LINE
8
BLACK
6
CONTINUOUS
10
87.95
20
217.5
11
103.95
21
217.5
0
LINE
8
BLACK
6
CONTINUOUS
10
308
20
58
11
324
21
58
0
CIRCLE
8
BLACK
10
280.824
20
201.164
40
0.5
0
CIRCLE
8
BLACK
10
329.084
20
201.436
40
0.5
0
CIRCLE
8
BLACK
10
308.764
20
170.956
40
0.5
0
LINE
8
BLACK
6
CONTINUOUS
10
356
20
106.416
11
256
21
106.416
0
CIRCLE
8
BLACK
10
280.82
20
168.42
40
1.6
0
LINE
8
BLACK
6
CONTINUOUS
10
154.903
20
77.8434
11
172.903
21
77.8434
0
LINE
8
BLACK
6
CONTINUOUS
10
296.904
20
217.712
11
312.904
21
217.712
0
CIRCLE
8
BLACK
10
296.064
20
170.956
40
0.5
0
CIRCLE
8
BLACK
10
24.05
20
27.5
40
12.5055
0
LINE
8
BLACK
6
CONTINUOUS
10
308
20
72
11
324
21
72
0
CIRCLE
8
BLACK
10
238.69
20
199.77
40
1.5
0
LINE
8
BLACK
6
CONTINUOUS
10
356
20
161.416
11
256
21
161.416
0
CIRCLE
8
BLACK
10
310.38
20
261.13
40
1.1
0
CIRCLE
8
BLACK
10
280.824
20
198.624
40
0.5
0
CIRCLE
8
BLACK
10
329.084
20
238.52
40
0.5
0
CIRCLE
8
BLACK
10
280.824
20
211.324
40
0.5
0
CIRCLE
8
BLACK
10
329.084
20
181.116
40
0.5
0
CIRCLE
8
BLACK
10
329.084
20
241.06
40
0.5
0
CIRCLE
8
BLACK
10
329.084
20
201.436
40
0.5
0
LINE
8
BLACK
6
CONTINUOUS
10
154.903
20
84.8434
11
154.903
21
77.8434
0
CIRCLE
8
BLACK
10
296.064
20
170.956
40
0.5
0
LINE
8
BLACK
6
CONTINUOUS
10
331.582
20
168.309
11
329.082
21
165.809
0
CIRCLE
8
BLACK
10
280.824
20
183.656
40
0.5
0
CIRCLE
8
BLACK
10
280.824
20
226.836
40
0.5
0
CIRCLE
8
BLACK
10
182.61
20
190.41
40
1.5
0
CIRCLE
8
BLACK
10
280.824
20
198.624
40
0.5
0
CIRCLE
8
BLACK
10
329.084
20
228.36
40
0.5
0
CIRCLE
8
BLACK
10
306.224
20
168.416
40
0.5
0
CIRCLE
8
BLACK
10
280.824
20
176.036
40
0.5
0
LINE
8
BLACK
6
CONTINUOUS
10
308.02
20
34.3735
11
324.02
21
34.3735
0
CIRCLE
8
BLACK
10
164
20
106
40
9
0
CIRCLE
8
BLACK
10
329.084
20
216.676
40
0.5
0
LINE
8
BLACK
6
CONTINUOUS
10
62.88
20
227.59
11
46.88
21
227.59
0
CIRCLE
8
BLACK
10
346
20
243.02
40
7
0
CIRCLE
8
BLACK
10
222.76
20
181.64
40
1.5
0
CIRCLE
8
BLACK
10
322.38
20
261.13
40
1.1
0
LINE
8
BLACK
6
CONTINUOUS
10
58
20
72
11
74
21
72
0
CIRCLE
8
BLACK
10
148.67
20
154.38
40
1.5
0
CIRCLE
8
BLACK
10
238.67
20
145.79
40
1.5
0
LINE
8
BLACK
6
CONTINUOUS
10
74
20
72
11
74
21
82
0
CIRCLE
8
BLACK
10
329.084
20
249.696
40
1.6
0
CIRCLE
8
BLACK
10
329.084
20
233.44
40
0.5
0
CIRCLE
8
BLACK
10
329.084
20
206.516
40
0.5
0
LINE
8
BLACK
6
CONTINUOUS
10
278.417
20
264.727
11
331.582
21
264.727
0
CIRCLE
8
BLACK
10
222.76
20
190.68
40
1.5
0
CIRCLE
8
BLACK
10
80.476
20
148.924
40
1.6
0
CIRCLE
8
BLACK
10
280.824
20
221.756
40
0.5
0
CIRCLE
8
BLACK
10
318.924
20
168.416
40
0.5
0
LINE
8
BLACK
6
CONTINUOUS
10
329.082
20
165.809
11
318.882
21
165.809
0
LINE
8
BLACK
6
CONTINUOUS
10
256
20
111.416
11
356
21
111.416
0
LINE
8
BLACK
6
CONTINUOUS
10
134.42
20
5.18621
11
134.42
21
65.1862
0
CIRCLE
8
BLACK
10
280.824
20
173.496
40
0.5
0
CIRCLE
8
BLACK
10
285.904
20
168.416
40
0.5
0
CIRCLE
8
BLACK
10
148.67
20
185.89
40
1.5
0
LINE
8
BLACK
6
CONTINUOUS
10
236.219
20
139.067
11
241.045
21
139.067
0
CIRCLE
8
BLACK
10
280.824
20
213.864
40
0.5
0
CIRCLE
8
BLACK
10
117.54
20
176.81
40
1.5
0
CIRCLE
8
BLACK
10
293.524
20
168.416
40
0.5
0
LINE
8
BLACK
6
CONTINUOUS
10
279.678
20
165.809
11
278.417
21
165.809
0
CIRCLE
8
BLACK
10
326.544
20
168.416
40
0.5
0
CIRCLE
8
BLACK
10
315.14
20
256.42
40
0.475
0
CIRCLE
8
BLACK
10
182.62
20
158.91
40
1.5
0
CIRCLE
8
BLACK
10
280.824
20
186.196
40
0.5
0
CIRCLE
8
BLACK
10
329.084
20
249.696
40
1.6
0
CIRCLE
8
BLACK
10
329.084
20
219.216
40
0.5
0
CIRCLE
8
BLACK
10
303.684
20
170.956
40
0.5
0
CIRCLE
8
BLACK
10
346
20
243.02
40
0.5
0
CIRCLE
8
BLACK
10
280.824
20
211.324
40
0.5
0
CIRCLE
8
BLACK
10
324.004
20
168.416
40
0.5
0
CIRCLE
8
BLACK
10
286.59
20
253.25
40
1.65
0
CIRCLE
8
BLACK
10
329.084
20
230.9
40
0.5
0
CIRCLE
8
BLACK
10
182.6
20
140.91
40
1.5
0
CIRCLE
8
BLACK
10
182.6
20
163.41
40
1.5
0
CIRCLE
8
BLACK
10
301.144
20
170.956
40
0.5
0
LINE
8
BLACK
6
CONTINUOUS
10
278.417
20
264.727
11
331.582
21
264.727
0
CIRCLE
8
BLACK
10
306.24
20
198.78
40
0.5
0
CIRCLE
8
BLACK
10
222.77
20
150.25
40
1.5
0
CIRCLE
8
BLACK
10
130
20
243
40
0.5
0
CIRCLE
8
BLACK
10
329.084
20
206.516
40
0.5
0
CIRCLE
8
BLACK
10
317.64
20
258.42
40
0.475
0
CIRCLE
8
BLACK
10
286.59
20
259.25
40
1.65
0
CIRCLE
8
BLACK
10
182.6
20
145.42
40
1.5
0
CIRCLE
8
BLACK
10
280.824
20
178.576
40
0.5
0
LINE
8
BLACK
6
CONTINUOUS
10
329.082
20
165.809
11
318.882
21
165.809
0
CIRCLE
8
BLACK
10
280.824
20
203.704
40
0.5
0
CIRCLE
8
BLACK
10
329.084
20
193.816
40
0.5
0
CIRCLE
8
BLACK
10
238.68
20
181.74
40
1.5
0
LINE
8
BLACK
6
CONTINUOUS
10
254.904
20
217.712
11
270.904
21
217.712
0
CIRCLE
8
BLACK
10
329.084
20
191.276
40
0.5
0
LINE
8
BLACK
6
CONTINUOUS
10
46.95
20
217.5
11
62.95
21
217.5
0
CIRCLE
8
BLACK
10
280.824
20
203.704
40
0.5
0
CIRCLE
8
BLACK
10
329.084
20
216.676
40
0.5
0
LINE
8
BLACK
6
CONTINUOUS
10
281.75
20
201.93
11
299.05
21
201.93
0
LINE
8
BLACK
6
CONTINUOUS
10
299.05
20
201.93
11
299.05
21
191.92
0
LINE
8
BLACK
6
CONTINUOUS
10
299.05
20
191.92
11
281.75
21
191.92
0
LINE
8
BLACK
6
CONTINUOUS
10
281.75
20
191.92
11
281.75
21
201.93
0
LINE
8
BLACK
6
CONTINUOUS
10
308
20
68
11
308
21
58
0
CIRCLE
8
BLACK
10
306.224
20
168.416
40
0.5
0
CIRCLE
8
BLACK
10
117.5
20
145.34
40
1.5
0
CIRCLE
8
BLACK
10
301.144
20
170.956
40
0.5
0
CIRCLE
8
BLACK
10
316.384
20
170.956
40
0.5
0
LINE
8
BLACK
6
CONTINUOUS
10
278.417
20
264.727
11
331.582
21
264.727
0
CIRCLE
8
BLACK
10
313.844
20
170.956
40
0.5
0
LINE
8
BLACK
6
CONTINUOUS
10
279.678
20
165.809
11
278.417
21
165.809
0
CIRCLE
8
BLACK
10
329.084
20
206.516
40
0.5
0
LINE
8
BLACK
6
CONTINUOUS
10
282.175
20
163.272
11
279.678
21
165.809
0
LINE
8
BLACK
6
CONTINUOUS
10
256
20
161.416
11
256
21
111.416
0
LINE
8
BLACK
6
CONTINUOUS
10
5.524
20
161.416
11
5.524
21
111.416
0
CIRCLE
8
BLACK
10
198
20
141
40
0.5
0
CIRCLE
8
BLACK
10
280.82
20
168.42
40
1.6
0
CIRCLE
8
BLACK
10
329.084
20
211.596
40
0.5
0
LINE
8
BLACK
6
CONTINUOUS
10
4.88
20
227.59
11
4.88
21
217.59
0
CIRCLE
8
BLACK
10
280.824
20
229.376
40
0.5
0
CIRCLE
8
BLACK
10
329.084
20
238.52
40
0.5
0
CIRCLE
8
BLACK
10
148.67
20
149.85
40
1.5
0
CIRCLE
8
BLACK
10
280.824
20
198.624
40
0.5
0
LINE
8
BLACK
6
CONTINUOUS
10
278.417
20
165.809
11
278.417
21
264.727
0
CIRCLE
8
BLACK
10
130
20
106
40
0.5
0
CIRCLE
8
BLACK
10
280.824
20
219.216
40
0.5
0
CIRCLE
8
BLACK
10
148.65
20
145.37
40
1.5
0
CIRCLE
8
BLACK
10
298.604
20
170.956
40
0.5
0
CIRCLE
8
BLACK
10
130
20
141
40
7
0
CIRCLE
8
BLACK
10
315.14
20
256.42
40
0.475
0
LINE
8
BLACK
6
CONTINUOUS
10
254.904
20
227.712
11
254.904
21
217.712
0
CIRCLE
8
BLACK
10
329.084
20
223.28
40
0.5
0
CIRCLE
8
BLACK
10
80.486
20
123.944
40
1.6
0
CIRCLE
8
BLACK
10
317.64
20
258.42
40
0.475
0
LINE
8
BLACK
6
CONTINUOUS
10
134.42
20
65.1862
11
125.42
21
65.1862
0
CIRCLE
8
BLACK
10
321.464
20
170.956
40
0.5
0
CIRCLE
8
BLACK
10
343.504
20
136.406
40
1.6
0
CIRCLE
8
BLACK
10
280.824
20
186.196
40
0.5
0
CIRCLE
8
BLACK
10
329.084
20
211.596
40
0.5
0
LINE
8
BLACK
6
CONTINUOUS
10
331.582
20
264.727
11
331.582
21
168.309
0
CIRCLE
8
BLACK
10
313.844
20
168.416
40
0.5
0
CIRCLE
8
BLACK
10
92.976
20
136.434
40
1.6
0
CIRCLE
8
BLACK
10
329.084
20
170.956
40
0.5
0
CIRCLE
8
BLACK
10
222.76
20
168.17
40
1.5
0
CIRCLE
8
BLACK
10
308.78
20
201.32
40
0.5
0
CIRCLE
8
BLACK
10
329.084
20
191.276
40
0.5
0
LINE
8
BLACK
6
CONTINUOUS
10
241.045
20
139.067
11
241.045
21
139.499
0
CIRCLE
8
BLACK
10
329.084
20
209.056
40
0.5
0
CIRCLE
8
BLACK
10
280.824
20
196.084
40
0.5
0
LINE
8
BLACK
6
CONTINUOUS
10
324
20
17
11
308
21
17
0
CIRCLE
8
BLACK
10
315.14
20
258.42
40
0.475
0
LINE
8
BLACK
6
CONTINUOUS
10
5.524
20
161.416
11
5.524
21
111.416
0
CIRCLE
8
BLACK
10
182.62
20
199.4
40
1.5
0
CIRCLE
8
BLACK
10
148.66
20
140.89
40
1.5
0
LINE
8
BLACK
6
CONTINUOUS
10
202.42
20
65.1862
11
193.42
21
65.1862
0
LINE
8
BLACK
6
CONTINUOUS
10
270.904
20
227.712
11
254.904
21
227.712
0
LINE
8
BLACK
6
CONTINUOUS
10
188.89
20
84.8289
11
188.89
21
77.8289
0
LINE
8
BLACK
6
CONTINUOUS
10
279.678
20
165.809
11
278.417
21
165.809
0
CIRCLE
8
BLACK
10
290.984
20
168.416
40
0.5
0
CIRCLE
8
BLACK
10
148.66
20
163.39
40
1.5
0
CIRCLE
8
BLACK
10
316.384
20
168.416
40
0.5
0
CIRCLE
8
BLACK
10
296.064
20
170.956
40
0.5
0
CIRCLE
8
BLACK
10
274
20
27.52
40
12.501
0
CIRCLE
8
BLACK
10
281.058
20
123.902
40
1.6
0
CIRCLE
8
BLACK
10
148.67
20
194.89
40
1.5
0
CIRCLE
8
BLACK
10
329.084
20
249.696
40
1.6
0
CIRCLE
8
BLACK
10
311.304
20
168.416
40
0.5
0
LINE
8
BLACK
6
CONTINUOUS
10
84
20
82
11
84
21
7
0
CIRCLE
8
BLACK
10
318.508
20
136.394
40
1.6
0
LINE
8
BLACK
6
CONTINUOUS
10
5.524
20
111.416
11
105.524
21
111.416
0
CIRCLE
8
BLACK
10
301.144
20
168.416
40
0.5
0
CIRCLE
8
BLACK
10
316.384
20
168.416
40
0.5
0
CIRCLE
8
BLACK
10
198
20
106
40
0.5
0
CIRCLE
8
BLACK
10
148.67
20
181.35
40
1.5
0
CIRCLE
8
BLACK
10
148.68
20
203.89
40
1.5
0
CIRCLE
8
BLACK
10
301.144
20
170.956
40
0.5
0
CIRCLE
8
BLACK
10
285.904
20
170.956
40
0.5
0
CIRCLE
8
BLACK
10
329.084
20
183.656
40
0.5
0
LINE
8
BLACK
6
CONTINUOUS
10
31.79
20
201.97
11
49.08
21
201.97
0
LINE
8
BLACK
6
CONTINUOUS
10
49.08
20
201.97
11
49.08
21
191.97
0
LINE
8
BLACK
6
CONTINUOUS
10
49.08
20
191.97
11
31.79
21
191.97
0
LINE
8
BLACK
6
CONTINUOUS
10
31.79
20
191.97
11
31.79
21
201.97
0
CIRCLE
8
BLACK
10
303.684
20
168.416
40
0.5
0
CIRCLE
8
BLACK
10
308.764
20
170.956
40
0.5
0
LINE
8
BLACK
6
CONTINUOUS
10
324
20
68
11
308
21
68
0
CIRCLE
8
BLACK
10
306.24
20
198.78
40
0.5
0
CIRCLE
8
BLACK
10
329.084
20
174.766
40
1.6
0
CIRCLE
8
BLACK
10
318.924
20
168.416
40
0.5
0
LINE
8
BLACK
6
CONTINUOUS
10
329.082
20
165.809
11
318.882
21
165.809
0
LINE
8
BLACK
6
CONTINUOUS
10
46.88
20
227.59
11
46.88
21
217.59
0
CIRCLE
8
BLACK
10
329.084
20
181.116
40
0.5
0
CIRCLE
8
BLACK
10
329.084
20
238.52
40
0.5
0
LINE
8
BLACK
6
CONTINUOUS
10
312.904
20
227.712
11
296.904
21
227.712
0
CIRCLE
8
BLACK
10
288.444
20
168.416
40
0.5
0
CIRCLE
8
BLACK
10
329.084
20
216.676
40
0.5
0
CIRCLE
8
BLACK
10
290.984
20
168.416
40
0.5
0
CIRCLE
8
BLACK
10
308.764
20
170.956
40
0.5
0
CIRCLE
8
BLACK
10
329.084
20
201.436
40
0.5
0
CIRCLE
8
BLACK
10
280.824
20
219.216
40
0.5
0
LINE
8
BLACK
6
CONTINUOUS
10
206.89
20
77.8289
11
206.89
21
84.8289
0
LINE
8
BLACK
6
CONTINUOUS
10
105.524
20
86.416
11
105.524
21
106.416
0
CIRCLE
8
BLACK
10
308.78
20
198.78
40
0.5
0
CIRCLE
8
BLACK
10
182.61
20
185.91
40
1.5
0
CIRCLE
8
BLACK
10
313.844
20
168.416
40
0.5
0
LINE
8
BLACK
6
CONTINUOUS
10
331.582
20
264.727
11
331.582
21
168.309
0
LINE
8
BLACK
6
CONTINUOUS
10
225.145
20
138.966
11
225.145
21
139.423
0
LINE
8
BLACK
6
CONTINUOUS
10
356
20
161.416
11
256
21
161.416
0
CIRCLE
8
BLACK
10
322.38
20
261.13
40
1.1
0
CIRCLE
8
BLACK
10
238.63
20
141.31
40
1.5
0
CIRCLE
8
BLACK
10
303.7
20
198.78
40
0.5
0
CIRCLE
8
BLACK
10
164
20
209
40
7
0
LINE
8
BLACK
6
CONTINUOUS
10
84
20
7
11
94
21
7
0
CIRCLE
8
BLACK
10
280.824
20
206.244
40
0.5
0
CIRCLE
8
BLACK
10
280.824
20
250.966
40
1.6
0
CIRCLE
8
BLACK
10
308.78
20
198.78
40
0.5
0
CIRCLE
8
BLACK
10
306.24
20
198.78
40
0.5
0
LINE
8
BLACK
6
CONTINUOUS
10
87.88
20
227.59
11
87.88
21
217.59
0
LINE
8
BLACK
6
CONTINUOUS
10
256
20
111.416
11
356
21
111.416
0
CIRCLE
8
BLACK
10
329.084
20
219.216
40
0.5
0
CIRCLE
8
BLACK
10
303.7
20
201.32
40
0.5
0
LINE
8
BLACK
6
CONTINUOUS
10
331.582
20
168.309
11
329.082
21
165.809
0
CIRCLE
8
BLACK
10
285.904
20
168.416
40
0.5
0
CIRCLE
8
BLACK
10
329.084
20
186.196
40
0.5
0
CIRCLE
8
BLACK
10
306.224
20
170.956
40
0.5
0
CIRCLE
8
BLACK
10
222.77
20
159.18
40
1.5
0
CIRCLE
8
BLACK
10
24
20
57.52
40
12.5022
0
CIRCLE
8
BLACK
10
329.084
20
230.9
40
0.5
0
CIRCLE
8
BLACK
10
280.824
20
181.116
40
0.5
0
CIRCLE
8
BLACK
10
329.084
20
228.36
40
0.5
0
CIRCLE
8
BLACK
10
329.084
20
203.976
40
0.5
0
CIRCLE
8
BLACK
10
331.014
20
123.916
40
1.6
0
LINE
8
BLACK
6
CONTINUOUS
10
356
20
111.416
11
356
21
161.416
0
CIRCLE
8
BLACK
10
182.61
20
167.9
40
1.5
0
LINE
8
BLACK
6
CONTINUOUS
10
74
20
7
11
74
21
17
0
CIRCLE
8
BLACK
10
280.824
20
176.036
40
0.5
0
LINE
8
BLACK
6
CONTINUOUS
10
360
20
0
11
360
21
260
0
CIRCLE
8
BLACK
10
321.464
20
170.956
40
0.5
0
CIRCLE
8
BLACK
10
280.824
20
231.916
40
0.5
0
CIRCLE
8
BLACK
10
329.084
20
214.136
40
0.5
0
CIRCLE
8
BLACK
10
290.984
20
170.956
40
0.5
0
CIRCLE
8
BLACK
10
198
20
209
40
7
0
CIRCLE
8
BLACK
10
316.384
20
168.416
40
0.5
0
LINE
8
BLACK
6
CONTINUOUS
10
278.417
20
165.809
11
278.417
21
264.727
0
LINE
8
BLACK
6
CONTINUOUS
10
282.175
20
163.272
11
279.678
21
165.809
0
CIRCLE
8
BLACK
10
324.004
20
168.416
40
0.5
0
LINE
8
BLACK
6
CONTINUOUS
10
172.903
20
84.8434
11
154.903
21
84.8434
0
CIRCLE
8
BLACK
10
306.224
20
170.956
40
0.5
0
CIRCLE
8
BLACK
10
164
20
243
40
0.5
0
CIRCLE
8
BLACK
10
329.084
20
174.766
40
1.6
0
CIRCLE
8
BLACK
10
329.084
20
186.196
40
0.5
0
CIRCLE
8
BLACK
10
286.59
20
259.25
40
1.65
0
CIRCLE
8
BLACK
10
329.084
20
233.44
40
0.5
0
CIRCLE
8
BLACK
10
263
20
243.02
40
7
0
CIRCLE
8
BLACK
10
198
20
243
40
0.5
0
CIRCLE
8
BLACK
10
303.684
20
170.956
40
0.5
0
CIRCLE
8
BLACK
10
280.824
20
250.966
40
1.6
0
LINE
8
BLACK
6
CONTINUOUS
10
331.582
20
264.727
11
331.582
21
168.309
0
LINE
8
BLACK
6
CONTINUOUS
10
316.345
20
163.272
11
282.175
21
163.272
0
CIRCLE
8
BLACK
10
311.304
20
168.416
40
0.5
0
CIRCLE
8
BLACK
10
308.764
20
168.416
40
0.5
0
CIRCLE
8
BLACK
10
182.62
20
203.91
40
1.5
0
CIRCLE
8
BLACK
10
318.924
20
170.956
40
0.5
0
CIRCLE
8
BLACK
10
324.004
20
170.956
40
0.5
0
CIRCLE
8
BLACK
10
117.51
20
181.29
40
1.5
0
CIRCLE
8
BLACK
10
164
20
175
40
7
0
LINE
8
BLACK
6
CONTINUOUS
10
120.871
20
77.8472
11
138.871
21
77.8472
0
CIRCLE
8
BLACK
10
30.52
20
148.91
40
1.6
0
CIRCLE
8
BLACK
10
117.52
20
158.83
40
1.5
0
LINE
8
BLACK
6
CONTINUOUS
10
168.42
20
65.1862
11
159.42
21
65.1862
0
CIRCLE
8
BLACK
10
303.7
20
201.32
40
0.5
0
CIRCLE
8
BLACK
10
281.613
20
256.243
40
1.65
0
CIRCLE
8
BLACK
10
313.844
20
198.9
40
1.6
0
CIRCLE
8
BLACK
10
280.824
20
196.084
40
0.5
0
LINE
8
BLACK
6
CONTINUOUS
10
356
20
86.416
11
356
21
106.416
0
CIRCLE
8
BLACK
10
329.084
20
188.736
40
0.5
0
LINE
8
BLACK
6
CONTINUOUS
10
324
20
82
11
308
21
82
0
LINE
8
BLACK
6
CONTINUOUS
10
125.42
20
65.1862
11
125.42
21
5.18621
0
CIRCLE
8
BLACK
10
238.68
20
154.77
40
1.5
0
CIRCLE
8
BLACK
10
322.38
20
261.13
40
1.1
0
LINE
8
BLACK
6
CONTINUOUS
10
61.08
20
201.97
11
78.38
21
201.97
0
LINE
8
BLACK
6
CONTINUOUS
10
78.38
20
201.97
11
78.38
21
191.97
0
LINE
8
BLACK
6
CONTINUOUS
10
78.38
20
191.97
11
61.08
21
191.97
0
LINE
8
BLACK
6
CONTINUOUS
10
61.08
20
191.97
11
61.08
21
201.97
0
CIRCLE
8
BLACK
10
280.824
20
188.736
40
0.5
0
CIRCLE
8
BLACK
10
313.844
20
168.416
40
0.5
0
CIRCLE
8
BLACK
10
329.084
20
196.356
40
0.5
0
LINE
8
BLACK
6
CONTINUOUS
10
256
20
161.416
11
256
21
111.416
0
CIRCLE
8
BLACK
10
285.904
20
168.416
40
0.5
0
CIRCLE
8
BLACK
10
329.084
20
211.596
40
0.5
0
CIRCLE
8
BLACK
10
117.51
20
172.29
40
1.5
0
CIRCLE
8
BLACK
10
238.68
20
172.74
40
1.5
0
CIRCLE
8
BLACK
10
288.444
20
168.416
40
0.5
0
CIRCLE
8
BLACK
10
329.084
20
249.696
40
1.6
0
CIRCLE
8
BLACK
10
30.53
20
123.93
40
1.6
0
CIRCLE
8
BLACK
10
298.604
20
170.956
40
0.5
0
CIRCLE
8
BLACK
10
280.82
20
168.42
40
1.6
0
CIRCLE
8
BLACK
10
329.084
20
211.596
40
0.5
0
CIRCLE
8
BLACK
10
329.084
20
193.816
40
0.5
0
CIRCLE
8
BLACK
10
54.96
20
242.94
40
7
0
CIRCLE
8
BLACK
10
198
20
243
40
7
0
CIRCLE
8
BLACK
10
280.824
20
224.296
40
0.5
0
CIRCLE
8
BLACK
10
280.824
20
201.164
40
0.5
0
CIRCLE
8
BLACK
10
306.24
20
201.32
40
0.5
0
CIRCLE
8
BLACK
10
55
20
196.97
40
4.00562
0
CIRCLE
8
BLACK
10
306.24
20
201.32
40
0.5
0
CIRCLE
8
BLACK
10
293.548
20
136.392
40
1.6
0
CIRCLE
8
BLACK
10
306.224
20
168.416
40
0.5
0
CIRCLE
8
BLACK
10
288.444
20
170.956
40
0.5
0
LINE
8
BLACK
6
CONTINUOUS
10
58
20
44.12
11
58
21
34.12
0
LINE
8
BLACK
6
CONTINUOUS
10
282.175
20
163.272
11
279.678
21
165.809
0
CIRCLE
8
BLACK
10
222.76
20
195.18
40
1.5
0
CIRCLE
8
BLACK
10
329.084
20
186.196
40
0.5
0
CIRCLE
8
BLACK
10
280.824
20
183.656
40
0.5
0
CIRCLE
8
BLACK
10
280.82
20
168.42
40
1.6
0
CIRCLE
8
BLACK
10
285.904
20
170.956
40
0.5
0
CIRCLE
8
BLACK
10
280.824
20
181.116
40
0.5
0
CIRCLE
8
BLACK
10
148.7
20
176.87
40
1.5
0
CIRCLE
8
BLACK
10
329.084
20
214.136
40
0.5
0
CIRCLE
8
BLACK
10
329.084
20
178.576
40
0.5
0
CIRCLE
8
BLACK
10
304.99
20
196.95
40
4.00425
0
LINE
8
BLACK
6
CONTINUOUS
10
220.293
20
138.966
11
225.145
21
138.966
0
CIRCLE
8
BLACK
10
285.9
20
198.9
40
1.6
0
CIRCLE
8
BLACK
10
18.024
20
136.408
40
1.6
0
CIRCLE
8
BLACK
10
280.824
20
178.576
40
0.5
0
CIRCLE
8
BLACK
10
303.684
20
170.956
40
0.5
0
CIRCLE
8
BLACK
10
318.924
20
168.416
40
0.5
0
CIRCLE
8
BLACK
10
280.824
20
206.244
40
0.5
0
CIRCLE
8
BLACK
10
280.824
20
188.736
40
0.5
0
LINE
8
BLACK
6
CONTINUOUS
10
311.05
20
201.91
11
328.35
21
201.91
0
LINE
8
BLACK
6
CONTINUOUS
10
328.35
20
201.91
11
328.35
21
191.92
0
LINE
8
BLACK
6
CONTINUOUS
10
328.35
20
191.92
11
311.05
21
191.92
0
LINE
8
BLACK
6
CONTINUOUS
10
311.05
20
191.92
11
311.05
21
201.91
0
CIRCLE
8
BLACK
10
296.064
20
168.416
40
0.5
0
CIRCLE
8
BLACK
10
117.52
20
149.9
40
1.5
0
CIRCLE
8
BLACK
10
130
20
209
40
7
0
LINE
8
BLACK
6
CONTINUOUS
10
105.524
20
111.416
11
105.524
21
161.416
0
CIRCLE
8
BLACK
10
326.544
20
168.416
40
0.5
0
CIRCLE
8
BLACK
10
230
20
27
40
7
0
CIRCLE
8
BLACK
10
315.14
20
258.42
40
0.475
0
CIRCLE
8
BLACK
10
280.824
20
250.966
40
1.6
0
LINE
8
BLACK
6
CONTINUOUS
10
329.082
20
165.809
11
318.882
21
165.809
0
CIRCLE
8
BLACK
10
182.61
20
181.37
40
1.5
0
CIRCLE
8
BLACK
10
280.824
20
173.496
40
0.5
0
CIRCLE
8
BLACK
10
288.444
20
168.416
40
0.5
0
CIRCLE
8
BLACK
10
130
20
243
40
7
0
CIRCLE
8
BLACK
10
280.824
20
173.496
40
0.5
0
CIRCLE
8
BLACK
10
280.824
20
231.916
40
0.5
0
CIRCLE
8
BLACK
10
285.904
20
170.956
40
0.5
0
CIRCLE
8
BLACK
10
95.96
20
242.94
40
0.5
0
CIRCLE
8
BLACK
10
301.144
20
168.416
40
0.5
0
LINE
8
BLACK
6
CONTINUOUS
10
58
20
68
11
58
21
58
0
LINE
8
BLACK
6
CONTINUOUS
10
308
20
17
11
308
21
7
0
CIRCLE
8
BLACK
10
308.78
20
198.78
40
0.5
0
CIRCLE
8
BLACK
10
301.144
20
168.416
40
0.5
0
CIRCLE
8
BLACK
10
182.64
20
176.89
40
1.5
0
CIRCLE
8
BLACK
10
280.824
20
226.836
40
0.5
0
CIRCLE
8
BLACK
10
329.084
20
191.276
40
0.5
0
CIRCLE
8
BLACK
10
329.084
20
225.82
40
0.5
0
LINE
8
BLACK
6
CONTINUOUS
10
105.524
20
111.416
11
105.524
21
161.416
0
CIRCLE
8
BLACK
10
182.62
20
149.98
40
1.5
0
CIRCLE
8
BLACK
10
329.084
20
183.656
40
0.5
0
CIRCLE
8
BLACK
10
117.51
20
154.32
40
1.5
0
CIRCLE
8
BLACK
10
329.084
20
174.766
40
1.6
0
CIRCLE
8
BLACK
10
313.844
20
168.416
40
0.5
0
CIRCLE
8
BLACK
10
280.824
20
219.216
40
0.5
0
CIRCLE
8
BLACK
10
329.084
20
203.976
40
0.5
0
CIRCLE
8
BLACK
10
329.084
20
203.976
40
0.5
0
LINE
8
BLACK
6
CONTINUOUS
10
331.582
20
168.309
11
329.082
21
165.809
0
LINE
8
BLACK
6
CONTINUOUS
10
5.524
20
106.416
11
5.524
21
86.416
0
CIRCLE
8
BLACK
10
298.604
20
168.416
40
0.5
0
CIRCLE
8
BLACK
10
54.96
20
242.94
40
0.5
0
CIRCLE
8
BLACK
10
130
20
209
40
0.5
0
CIRCLE
8
BLACK
10
280.824
20
181.116
40
0.5
0
LINE
8
BLACK
6
CONTINUOUS
10
20.88
20
217.59
11
20.88
21
227.59
0
LINE
8
BLACK
6
CONTINUOUS
10
324.02
20
44.3735
11
308.02
21
44.3735
0
CIRCLE
8
BLACK
10
67.98
20
136.422
40
1.6
0
CIRCLE
8
BLACK
10
198
20
141
40
7
0
CIRCLE
8
BLACK
10
298.604
20
168.416
40
0.5
0
CIRCLE
8
BLACK
10
288.444
20
168.416
40
0.5
0
CIRCLE
8
BLACK
10
329.084
20
209.056
40
0.5
0
LINE
8
BLACK
6
CONTINUOUS
10
188.89
20
77.8289
11
206.89
21
77.8289
0
CIRCLE
8
BLACK
10
280.824
20
219.216
40
0.5
0
LINE
8
BLACK
6
CONTINUOUS
10
202.42
20
5.18621
11
202.42
21
65.1862
0
CIRCLE
8
BLACK
10
329.084
20
168.416
40
0.5
0
CIRCLE
8
BLACK
10
280.824
20
213.864
40
0.5
0
CIRCLE
8
BLACK
10
130
20
175
40
7
0
CIRCLE
8
BLACK
10
329.084
20
228.36
40
0.5
0
CIRCLE
8
BLACK
10
280.824
20
176.036
40
0.5
0
CIRCLE
8
BLACK
10
303.7
20
198.78
40
0.5
0
CIRCLE
8
BLACK
10
280.824
20
206.244
40
0.5
0
CIRCLE
8
BLACK
10
280.824
20
229.376
40
0.5
0
CIRCLE
8
BLACK
10
318.924
20
170.956
40
0.5
0
LINE
8
BLACK
6
CONTINUOUS
10
105.524
20
161.416
11
5.524
21
161.416
0
CIRCLE
8
BLACK
10
130
20
106
40
9
0
CIRCLE
8
BLACK
10
296.064
20
168.416
40
0.5
0
CIRCLE
8
BLACK
10
329.084
20
170.956
40
0.5
0
CIRCLE
8
BLACK
10
290.984
20
170.956
40
0.5
0
CIRCLE
8
BLACK
10
198
20
175
40
7
0
LINE
8
BLACK
6
CONTINUOUS
10
318.882
20
165.809
11
316.345
21
163.272
0
CIRCLE
8
BLACK
10
313.844
20
170.956
40
0.5
0
CIRCLE
8
BLACK
10
315.14
20
256.42
40
0.475
0
CIRCLE
8
BLACK
10
311.304
20
170.956
40
0.5
0
CIRCLE
8
BLACK
10
148.67
20
172.35
40
1.5
0
CIRCLE
8
BLACK
10
306.224
20
168.416
40
0.5
0
CIRCLE
8
BLACK
10
310.38
20
261.13
40
1.1
0
CIRCLE
8
BLACK
10
329.084
20
216.676
40
0.5
0
CIRCLE
8
BLACK
10
280.824
20
213.864
40
0.5
0
CIRCLE
8
BLACK
10
310.38
20
261.13
40
1.1
0
CIRCLE
8
BLACK
10
280.824
20
224.296
40
0.5
0
CIRCLE
8
BLACK
10
238.68
20
186.28
40
1.5
0
CIRCLE
8
BLACK
10
316.384
20
170.956
40
0.5
0
CIRCLE
8
BLACK
10
280.824
20
188.736
40
0.5
0
CIRCLE
8
BLACK
10
329.084
20
225.82
40
0.5
0
CIRCLE
8
BLACK
10
329.084
20
235.98
40
0.5
0
CIRCLE
8
BLACK
10
280.824
20
203.704
40
0.5
0
CIRCLE
8
BLACK
10
311.304
20
170.956
40
0.5
0
LINE
8
BLACK
6
CONTINUOUS
10
324
20
68
11
308
21
68
0
CIRCLE
8
BLACK
10
280.824
20
208.784
40
0.5
0
LINE
8
BLACK
6
CONTINUOUS
10
5.524
20
111.416
11
105.524
21
111.416
0
CIRCLE
8
BLACK
10
318.924
20
168.416
40
0.5
0
LINE
8
BLACK
6
CONTINUOUS
10
344
20
7
11
344
21
82
0
CIRCLE
8
BLACK
10
318.924
20
170.956
40
0.5
0
CIRCLE
8
BLACK
10
329.084
20
238.52
40
0.5
0
CIRCLE
8
BLACK
10
148.67
20
167.88
40
1.5
0
CIRCLE
8
BLACK
10
329.084
20
233.44
40
0.5
0
CIRCLE
8
BLACK
10
43.02
20
136.42
40
1.6
0
CIRCLE
8
BLACK
10
329.084
20
196.356
40
0.5
0
LINE
8
BLACK
6
CONTINUOUS
10
344
20
82
11
334
21
82
0
CIRCLE
8
BLACK
10
308.764
20
168.416
40
0.5
0
CIRCLE
8
BLACK
10
280.824
20
201.164
40
0.5
0
LINE
8
BLACK
6
CONTINUOUS
10
20.88
20
227.59
11
4.88
21
227.59
0
CIRCLE
8
BLACK
10
311.304
20
168.416
40
0.5
0
LINE
8
BLACK
6
CONTINUOUS
10
74
20
17
11
58
21
17
0
CIRCLE
8
BLACK
10
280.824
20
211.324
40
0.5
0
CIRCLE
8
BLACK
10
273.97
20
57.48
40
12.5015
0
CIRCLE
8
BLACK
10
238.69
20
159.28
40
1.5
0
CIRCLE
8
BLACK
10
329.084
20
206.516
40
0.5
0
CIRCLE
8
BLACK
10
280.824
20
226.836
40
0.5
0
LINE
8
BLACK
6
CONTINUOUS
10
316.345
20
163.272
11
282.175
21
163.272
0
LINE
8
BLACK
6
CONTINUOUS
10
103.88
20
227.59
11
87.88
21
227.59
0
CIRCLE
8
BLACK
10
329.084
20
203.976
40
0.5
0
CIRCLE
8
BLACK
10
303.7
20
201.32
40
0.5
0
CIRCLE
8
BLACK
10
290.984
20
168.416
40
0.5
0
CIRCLE
8
BLACK
10
238.68
20
190.78
40
1.5
0
CIRCLE
8
BLACK
10
280.824
20
208.784
40
0.5
0
CIRCLE
8
BLACK
10
164
20
106
40
0.5
0
CIRCLE
8
BLACK
10
182.61
20
154.4
40
1.5
0
LINE
8
BLACK
6
CONTINUOUS
10
296.904
20
227.712
11
296.904
21
217.712
0
LINE
8
BLACK
6
CONTINUOUS
10
270.904
20
217.712
11
270.904
21
227.712
0
CIRCLE
8
BLACK
10
280.824
20
181.116
40
0.5
0
LINE
8
BLACK
6
CONTINUOUS
10
206.89
20
84.8289
11
188.89
21
84.8289
0
CIRCLE
8
BLACK
10
280.824
20
211.324
40
0.5
0
CIRCLE
8
BLACK
10
222.77
20
199.67
40
1.5
0
LINE
8
BLACK
6
CONTINUOUS
10
74
20
68
11
58
21
68
0
CIRCLE
8
BLACK
10
315.14
20
256.42
40
0.475
0
CIRCLE
8
BLACK
10
298.604
20
170.956
40
0.5
0
CIRCLE
8
BLACK
10
315.14
20
258.42
40
0.475
0
CIRCLE
8
BLACK
10
280.824
20
198.624
40
0.5
0
CIRCLE
8
BLACK
10
164
20
141
40
7
0
CIRCLE
8
BLACK
10
285.9
20
198.9
40
1.6
0
CIRCLE
8
BLACK
10
329.084
20
188.736
40
0.5
0
CIRCLE
8
BLACK
10
308.78
20
198.78
40
0.5
0
CIRCLE
8
BLACK
10
301.144
20
170.956
40
0.5
0
CIRCLE
8
BLACK
10
329.084
20
235.98
40
0.5
0
CIRCLE
8
BLACK
10
12.96
20
242.94
40
7
0
CIRCLE
8
BLACK
10
293.524
20
170.956
40
0.5
0
CIRCLE
8
BLACK
10
329.084
20
191.276
40
0.5
0
CIRCLE
8
BLACK
10
280.824
20
201.164
40
0.5
0
LINE
8
BLACK
6
CONTINUOUS
10
337.92
20
227.712
11
353.92
21
227.712
0
LINE
8
BLACK
6
CONTINUOUS
10
353.92
20
227.712
11
353.92
21
217.712
0
LINE
8
BLACK
6
CONTINUOUS
10
353.92
20
217.712
11
337.92
21
217.712
0
LINE
8
BLACK
6
CONTINUOUS
10
337.92
20
217.712
11
337.92
21
227.712
0
LINE
8
BLACK
6
CONTINUOUS
10
331.582
20
264.727
11
331.582
21
168.309
0
CIRCLE
8
BLACK
10
117.5
20
163.33
40
1.5
0
CIRCLE
8
BLACK
10
306.24
20
198.78
40
0.5
0
LINE
8
BLACK
6
CONTINUOUS
10
74
20
58
11
74
21
68
0
CIRCLE
8
BLACK
10
281.613
20
256.243
40
1.65
0
CIRCLE
8
BLACK
10
329.084
20
196.356
40
0.5
0
CIRCLE
8
BLACK
10
321.464
20
168.416
40
0.5
0
LINE
8
BLACK
6
CONTINUOUS
10
360
20
0
11
0
21
0
0
LINE
8
BLACK
6
CONTINUOUS
10
0
20
0
11
0
21
260
0
LINE
8
BLACK
6
CONTINUOUS
10
360
20
260
11
360
21
0
0
LINE
8
BLACK
6
CONTINUOUS
10
0
20
260
11
360
21
260
0
LINE
8
BLACK
6
CONTINUOUS
10
298.552
20
134.126
11
298.552
21
139.126
0
LINE
8
BLACK
6
CONTINUOUS
10
298.552
20
139.126
11
300.266
21
139.126
0
LINE
8
BLACK
6
CONTINUOUS
10
300.266
20
139.126
11
300.695
21
138.888
0
LINE
8
BLACK
6
CONTINUOUS
10
300.695
20
138.888
11
300.909
21
138.65
0
LINE
8
BLACK
6
CONTINUOUS
10
300.909
20
138.65
11
301.123
21
138.174
0
LINE
8
BLACK
6
CONTINUOUS
10
301.123
20
138.174
11
301.123
21
137.459
0
LINE
8
BLACK
6
CONTINUOUS
10
301.123
20
137.459
11
300.909
21
136.983
0
LINE
8
BLACK
6
CONTINUOUS
10
300.909
20
136.983
11
300.695
21
136.745
0
LINE
8
BLACK
6
CONTINUOUS
10
300.695
20
136.745
11
300.266
21
136.507
0
LINE
8
BLACK
6
CONTINUOUS
10
300.266
20
136.507
11
298.552
21
136.507
0
LINE
8
BLACK
6
CONTINUOUS
10
302.838
20
135.555
11
304.981
21
135.555
0
LINE
8
BLACK
6
CONTINUOUS
10
302.409
20
134.126
11
303.909
21
139.126
0
LINE
8
BLACK
6
CONTINUOUS
10
303.909
20
139.126
11
305.409
21
134.126
0
LINE
8
BLACK
6
CONTINUOUS
10
306.909
20
134.126
11
306.909
21
139.126
0
LINE
8
BLACK
6
CONTINUOUS
10
306.909
20
139.126
11
307.981
21
139.126
0
LINE
8
BLACK
6
CONTINUOUS
10
307.981
20
139.126
11
308.623
21
138.888
0
LINE
8
BLACK
6
CONTINUOUS
10
308.623
20
138.888
11
309.052
21
138.412
0
LINE
8
BLACK
6
CONTINUOUS
10
309.052
20
138.412
11
309.266
21
137.936
0
LINE
8
BLACK
6
CONTINUOUS
10
309.266
20
137.936
11
309.481
21
136.983
0
LINE
8
BLACK
6
CONTINUOUS
10
309.481
20
136.983
11
309.481
21
136.269
0
LINE
8
BLACK
6
CONTINUOUS
10
309.481
20
136.269
11
309.266
21
135.317
0
LINE
8
BLACK
6
CONTINUOUS
10
309.266
20
135.317
11
309.052
21
134.84
0
LINE
8
BLACK
6
CONTINUOUS
10
309.052
20
134.84
11
308.623
21
134.364
0
LINE
8
BLACK
6
CONTINUOUS
10
308.623
20
134.364
11
307.981
21
134.126
0
LINE
8
BLACK
6
CONTINUOUS
10
307.981
20
134.126
11
306.909
21
134.126
0
LINE
8
BLACK
6
CONTINUOUS
10
311.195
20
134.364
11
311.838
21
134.126
0
LINE
8
BLACK
6
CONTINUOUS
10
311.838
20
134.126
11
312.909
21
134.126
0
LINE
8
BLACK
6
CONTINUOUS
10
312.909
20
134.126
11
313.338
21
134.364
0
LINE
8
BLACK
6
CONTINUOUS
10
313.338
20
134.364
11
313.552
21
134.602
0
LINE
8
BLACK
6
CONTINUOUS
10
313.552
20
134.602
11
313.766
21
135.078
0
LINE
8
BLACK
6
CONTINUOUS
10
313.766
20
135.078
11
313.766
21
135.555
0
LINE
8
BLACK
6
CONTINUOUS
10
313.766
20
135.555
11
313.552
21
136.031
0
LINE
8
BLACK
6
CONTINUOUS
10
313.552
20
136.031
11
313.338
21
136.269
0
LINE
8
BLACK
6
CONTINUOUS
10
313.338
20
136.269
11
312.909
21
136.507
0
LINE
8
BLACK
6
CONTINUOUS
10
312.909
20
136.507
11
312.052
21
136.745
0
LINE
8
BLACK
6
CONTINUOUS
10
312.052
20
136.745
11
311.623
21
136.983
0
LINE
8
BLACK
6
CONTINUOUS
10
311.623
20
136.983
11
311.409
21
137.221
0
LINE
8
BLACK
6
CONTINUOUS
10
311.409
20
137.221
11
311.195
21
137.698
0
LINE
8
BLACK
6
CONTINUOUS
10
311.195
20
137.698
11
311.195
21
138.174
0
LINE
8
BLACK
6
CONTINUOUS
10
311.195
20
138.174
11
311.409
21
138.65
0
LINE
8
BLACK
6
CONTINUOUS
10
311.409
20
138.65
11
311.623
21
138.888
0
LINE
8
BLACK
6
CONTINUOUS
10
311.623
20
138.888
11
312.052
21
139.126
0
LINE
8
BLACK
6
CONTINUOUS
10
312.052
20
139.126
11
313.123
21
139.126
0
LINE
8
BLACK
6
CONTINUOUS
10
313.123
20
139.126
11
313.766
21
138.888
0
LINE
8
BLACK
6
CONTINUOUS
10
298.5
20
134.154
11
298.5
21
139.154
0
LINE
8
BLACK
6
CONTINUOUS
10
298.5
20
139.154
11
300.214
21
139.154
0
LINE
8
BLACK
6
CONTINUOUS
10
300.214
20
139.154
11
300.643
21
138.916
0
LINE
8
BLACK
6
CONTINUOUS
10
300.643
20
138.916
11
300.857
21
138.678
0
LINE
8
BLACK
6
CONTINUOUS
10
300.857
20
138.678
11
301.071
21
138.202
0
LINE
8
BLACK
6
CONTINUOUS
10
301.071
20
138.202
11
301.071
21
137.487
0
LINE
8
BLACK
6
CONTINUOUS
10
301.071
20
137.487
11
300.857
21
137.011
0
LINE
8
BLACK
6
CONTINUOUS
10
300.857
20
137.011
11
300.643
21
136.773
0
LINE
8
BLACK
6
CONTINUOUS
10
300.643
20
136.773
11
300.214
21
136.535
0
LINE
8
BLACK
6
CONTINUOUS
10
300.214
20
136.535
11
298.5
21
136.535
0
LINE
8
BLACK
6
CONTINUOUS
10
302.786
20
135.583
11
304.929
21
135.583
0
LINE
8
BLACK
6
CONTINUOUS
10
302.357
20
134.154
11
303.857
21
139.154
0
LINE
8
BLACK
6
CONTINUOUS
10
303.857
20
139.154
11
305.357
21
134.154
0
LINE
8
BLACK
6
CONTINUOUS
10
306.857
20
134.154
11
306.857
21
139.154
0
LINE
8
BLACK
6
CONTINUOUS
10
306.857
20
139.154
11
307.929
21
139.154
0
LINE
8
BLACK
6
CONTINUOUS
10
307.929
20
139.154
11
308.571
21
138.916
0
LINE
8
BLACK
6
CONTINUOUS
10
308.571
20
138.916
11
309
21
138.44
0
LINE
8
BLACK
6
CONTINUOUS
10
309
20
138.44
11
309.214
21
137.964
0
LINE
8
BLACK
6
CONTINUOUS
10
309.214
20
137.964
11
309.429
21
137.011
0
LINE
8
BLACK
6
CONTINUOUS
10
309.429
20
137.011
11
309.429
21
136.297
0
LINE
8
BLACK
6
CONTINUOUS
10
309.429
20
136.297
11
309.214
21
135.345
0
LINE
8
BLACK
6
CONTINUOUS
10
309.214
20
135.345
11
309
21
134.868
0
LINE
8
BLACK
6
CONTINUOUS
10
309
20
134.868
11
308.571
21
134.392
0
LINE
8
BLACK
6
CONTINUOUS
10
308.571
20
134.392
11
307.929
21
134.154
0
LINE
8
BLACK
6
CONTINUOUS
10
307.929
20
134.154
11
306.857
21
134.154
0
LINE
8
BLACK
6
CONTINUOUS
10
311.143
20
134.392
11
311.786
21
134.154
0
LINE
8
BLACK
6
CONTINUOUS
10
311.786
20
134.154
11
312.857
21
134.154
0
LINE
8
BLACK
6
CONTINUOUS
10
312.857
20
134.154
11
313.286
21
134.392
0
LINE
8
BLACK
6
CONTINUOUS
10
313.286
20
134.392
11
313.5
21
134.63
0
LINE
8
BLACK
6
CONTINUOUS
10
313.5
20
134.63
11
313.714
21
135.106
0
LINE
8
BLACK
6
CONTINUOUS
10
313.714
20
135.106
11
313.714
21
135.583
0
LINE
8
BLACK
6
CONTINUOUS
10
313.714
20
135.583
11
313.5
21
136.059
0
LINE
8
BLACK
6
CONTINUOUS
10
313.5
20
136.059
11
313.286
21
136.297
0
LINE
8
BLACK
6
CONTINUOUS
10
313.286
20
136.297
11
312.857
21
136.535
0
LINE
8
BLACK
6
CONTINUOUS
10
312.857
20
136.535
11
312
21
136.773
0
LINE
8
BLACK
6
CONTINUOUS
10
312
20
136.773
11
311.571
21
137.011
0
LINE
8
BLACK
6
CONTINUOUS
10
311.571
20
137.011
11
311.357
21
137.249
0
LINE
8
BLACK
6
CONTINUOUS
10
311.357
20
137.249
11
311.143
21
137.726
0
LINE
8
BLACK
6
CONTINUOUS
10
311.143
20
137.726
11
311.143
21
138.202
0
LINE
8
BLACK
6
CONTINUOUS
10
311.143
20
138.202
11
311.357
21
138.678
0
LINE
8
BLACK
6
CONTINUOUS
10
311.357
20
138.678
11
311.571
21
138.916
0
LINE
8
BLACK
6
CONTINUOUS
10
311.571
20
138.916
11
312
21
139.154
0
LINE
8
BLACK
6
CONTINUOUS
10
312
20
139.154
11
313.071
21
139.154
0
LINE
8
BLACK
6
CONTINUOUS
10
313.071
20
139.154
11
313.714
21
138.916
0
LINE
8
BLACK
6
CONTINUOUS
10
298.552
20
134.126
11
298.552
21
139.126
0
LINE
8
BLACK
6
CONTINUOUS
10
298.552
20
139.126
11
300.266
21
139.126
0
LINE
8
BLACK
6
CONTINUOUS
10
300.266
20
139.126
11
300.695
21
138.888
0
LINE
8
BLACK
6
CONTINUOUS
10
300.695
20
138.888
11
300.909
21
138.65
0
LINE
8
BLACK
6
CONTINUOUS
10
300.909
20
138.65
11
301.123
21
138.174
0
LINE
8
BLACK
6
CONTINUOUS
10
301.123
20
138.174
11
301.123
21
137.459
0
LINE
8
BLACK
6
CONTINUOUS
10
301.123
20
137.459
11
300.909
21
136.983
0
LINE
8
BLACK
6
CONTINUOUS
10
300.909
20
136.983
11
300.695
21
136.745
0
LINE
8
BLACK
6
CONTINUOUS
10
300.695
20
136.745
11
300.266
21
136.507
0
LINE
8
BLACK
6
CONTINUOUS
10
300.266
20
136.507
11
298.552
21
136.507
0
LINE
8
BLACK
6
CONTINUOUS
10
302.838
20
135.555
11
304.981
21
135.555
0
LINE
8
BLACK
6
CONTINUOUS
10
302.409
20
134.126
11
303.909
21
139.126
0
LINE
8
BLACK
6
CONTINUOUS
10
303.909
20
139.126
11
305.409
21
134.126
0
LINE
8
BLACK
6
CONTINUOUS
10
306.909
20
134.126
11
306.909
21
139.126
0
LINE
8
BLACK
6
CONTINUOUS
10
306.909
20
139.126
11
307.981
21
139.126
0
LINE
8
BLACK
6
CONTINUOUS
10
307.981
20
139.126
11
308.623
21
138.888
0
LINE
8
BLACK
6
CONTINUOUS
10
308.623
20
138.888
11
309.052
21
138.412
0
LINE
8
BLACK
6
CONTINUOUS
10
309.052
20
138.412
11
309.266
21
137.936
0
LINE
8
BLACK
6
CONTINUOUS
10
309.266
20
137.936
11
309.481
21
136.983
0
LINE
8
BLACK
6
CONTINUOUS
10
309.481
20
136.983
11
309.481
21
136.269
0
LINE
8
BLACK
6
CONTINUOUS
10
309.481
20
136.269
11
309.266
21
135.317
0
LINE
8
BLACK
6
CONTINUOUS
10
309.266
20
135.317
11
309.052
21
134.84
0
LINE
8
BLACK
6
CONTINUOUS
10
309.052
20
134.84
11
308.623
21
134.364
0
LINE
8
BLACK
6
CONTINUOUS
10
308.623
20
134.364
11
307.981
21
134.126
0
LINE
8
BLACK
6
CONTINUOUS
10
307.981
20
134.126
11
306.909
21
134.126
0
LINE
8
BLACK
6
CONTINUOUS
10
311.195
20
134.364
11
311.838
21
134.126
0
LINE
8
BLACK
6
CONTINUOUS
10
311.838
20
134.126
11
312.909
21
134.126
0
LINE
8
BLACK
6
CONTINUOUS
10
312.909
20
134.126
11
313.338
21
134.364
0
LINE
8
BLACK
6
CONTINUOUS
10
313.338
20
134.364
11
313.552
21
134.602
0
LINE
8
BLACK
6
CONTINUOUS
10
313.552
20
134.602
11
313.766
21
135.078
0
LINE
8
BLACK
6
CONTINUOUS
10
313.766
20
135.078
11
313.766
21
135.555
0
LINE
8
BLACK
6
CONTINUOUS
10
313.766
20
135.555
11
313.552
21
136.031
0
LINE
8
BLACK
6
CONTINUOUS
10
313.552
20
136.031
11
313.338
21
136.269
0
LINE
8
BLACK
6
CONTINUOUS
10
313.338
20
136.269
11
312.909
21
136.507
0
LINE
8
BLACK
6
CONTINUOUS
10
312.909
20
136.507
11
312.052
21
136.745
0
LINE
8
BLACK
6
CONTINUOUS
10
312.052
20
136.745
11
311.623
21
136.983
0
LINE
8
BLACK
6
CONTINUOUS
10
311.623
20
136.983
11
311.409
21
137.221
0
LINE
8
BLACK
6
CONTINUOUS
10
311.409
20
137.221
11
311.195
21
137.698
0
LINE
8
BLACK
6
CONTINUOUS
10
311.195
20
137.698
11
311.195
21
138.174
0
LINE
8
BLACK
6
CONTINUOUS
10
311.195
20
138.174
11
311.409
21
138.65
0
LINE
8
BLACK
6
CONTINUOUS
10
311.409
20
138.65
11
311.623
21
138.888
0
LINE
8
BLACK
6
CONTINUOUS
10
311.623
20
138.888
11
312.052
21
139.126
0
LINE
8
BLACK
6
CONTINUOUS
10
312.052
20
139.126
11
313.123
21
139.126
0
LINE
8
BLACK
6
CONTINUOUS
10
313.123
20
139.126
11
313.766
21
138.888
0
LINE
8
BLACK
6
CONTINUOUS
10
298.5
20
134.154
11
298.5
21
139.154
0
LINE
8
BLACK
6
CONTINUOUS
10
298.5
20
139.154
11
300.214
21
139.154
0
LINE
8
BLACK
6
CONTINUOUS
10
300.214
20
139.154
11
300.643
21
138.916
0
LINE
8
BLACK
6
CONTINUOUS
10
300.643
20
138.916
11
300.857
21
138.678
0
LINE
8
BLACK
6
CONTINUOUS
10
300.857
20
138.678
11
301.071
21
138.202
0
LINE
8
BLACK
6
CONTINUOUS
10
301.071
20
138.202
11
301.071
21
137.487
0
LINE
8
BLACK
6
CONTINUOUS
10
301.071
20
137.487
11
300.857
21
137.011
0
LINE
8
BLACK
6
CONTINUOUS
10
300.857
20
137.011
11
300.643
21
136.773
0
LINE
8
BLACK
6
CONTINUOUS
10
300.643
20
136.773
11
300.214
21
136.535
0
LINE
8
BLACK
6
CONTINUOUS
10
300.214
20
136.535
11
298.5
21
136.535
0
LINE
8
BLACK
6
CONTINUOUS
10
302.786
20
135.583
11
304.929
21
135.583
0
LINE
8
BLACK
6
CONTINUOUS
10
302.357
20
134.154
11
303.857
21
139.154
0
LINE
8
BLACK
6
CONTINUOUS
10
303.857
20
139.154
11
305.357
21
134.154
0
LINE
8
BLACK
6
CONTINUOUS
10
306.857
20
134.154
11
306.857
21
139.154
0
LINE
8
BLACK
6
CONTINUOUS
10
306.857
20
139.154
11
307.929
21
139.154
0
LINE
8
BLACK
6
CONTINUOUS
10
307.929
20
139.154
11
308.571
21
138.916
0
LINE
8
BLACK
6
CONTINUOUS
10
308.571
20
138.916
11
309
21
138.44
0
LINE
8
BLACK
6
CONTINUOUS
10
309
20
138.44
11
309.214
21
137.964
0
LINE
8
BLACK
6
CONTINUOUS
10
309.214
20
137.964
11
309.429
21
137.011
0
LINE
8
BLACK
6
CONTINUOUS
10
309.429
20
137.011
11
309.429
21
136.297
0
LINE
8
BLACK
6
CONTINUOUS
10
309.429
20
136.297
11
309.214
21
135.345
0
LINE
8
BLACK
6
CONTINUOUS
10
309.214
20
135.345
11
309
21
134.868
0
LINE
8
BLACK
6
CONTINUOUS
10
309
20
134.868
11
308.571
21
134.392
0
LINE
8
BLACK
6
CONTINUOUS
10
308.571
20
134.392
11
307.929
21
134.154
0
LINE
8
BLACK
6
CONTINUOUS
10
307.929
20
134.154
11
306.857
21
134.154
0
LINE
8
BLACK
6
CONTINUOUS
10
311.143
20
134.392
11
311.786
21
134.154
0
LINE
8
BLACK
6
CONTINUOUS
10
311.786
20
134.154
11
312.857
21
134.154
0
LINE
8
BLACK
6
CONTINUOUS
10
312.857
20
134.154
11
313.286
21
134.392
0
LINE
8
BLACK
6
CONTINUOUS
10
313.286
20
134.392
11
313.5
21
134.63
0
LINE
8
BLACK
6
CONTINUOUS
10
313.5
20
134.63
11
313.714
21
135.106
0
LINE
8
BLACK
6
CONTINUOUS
10
313.714
20
135.106
11
313.714
21
135.583
0
LINE
8
BLACK
6
CONTINUOUS
10
313.714
20
135.583
11
313.5
21
136.059
0
LINE
8
BLACK
6
CONTINUOUS
10
313.5
20
136.059
11
313.286
21
136.297
0
LINE
8
BLACK
6
CONTINUOUS
10
313.286
20
136.297
11
312.857
21
136.535
0
LINE
8
BLACK
6
CONTINUOUS
10
312.857
20
136.535
11
312
21
136.773
0
LINE
8
BLACK
6
CONTINUOUS
10
312
20
136.773
11
311.571
21
137.011
0
LINE
8
BLACK
6
CONTINUOUS
10
311.571
20
137.011
11
311.357
21
137.249
0
LINE
8
BLACK
6
CONTINUOUS
10
311.357
20
137.249
11
311.143
21
137.726
0
LINE
8
BLACK
6
CONTINUOUS
10
311.143
20
137.726
11
311.143
21
138.202
0
LINE
8
BLACK
6
CONTINUOUS
10
311.143
20
138.202
11
311.357
21
138.678
0
LINE
8
BLACK
6
CONTINUOUS
10
311.357
20
138.678
11
311.571
21
138.916
0
LINE
8
BLACK
6
CONTINUOUS
10
311.571
20
138.916
11
312
21
139.154
0
LINE
8
BLACK
6
CONTINUOUS
10
312
20
139.154
11
313.071
21
139.154
0
LINE
8
BLACK
6
CONTINUOUS
10
313.071
20
139.154
11
313.714
21
138.916
0
LINE
8
BLACK
6
CONTINUOUS
10
297.193
20
98.0589
11
298.736
21
98.0589
0
LINE
8
BLACK
6
CONTINUOUS
10
297.964
20
95.0589
11
297.964
21
98.0589
0
LINE
8
BLACK
6
CONTINUOUS
10
301.179
20
95.0589
11
300.279
21
96.4874
0
LINE
8
BLACK
6
CONTINUOUS
10
299.636
20
95.0589
11
299.636
21
98.0589
0
LINE
8
BLACK
6
CONTINUOUS
10
299.636
20
98.0589
11
300.664
21
98.0589
0
LINE
8
BLACK
6
CONTINUOUS
10
300.664
20
98.0589
11
300.921
21
97.916
0
LINE
8
BLACK
6
CONTINUOUS
10
300.921
20
97.916
11
301.05
21
97.7731
0
LINE
8
BLACK
6
CONTINUOUS
10
301.05
20
97.7731
11
301.179
21
97.4874
0
LINE
8
BLACK
6
CONTINUOUS
10
301.179
20
97.4874
11
301.179
21
97.0589
0
LINE
8
BLACK
6
CONTINUOUS
10
301.179
20
97.0589
11
301.05
21
96.7731
0
LINE
8
BLACK
6
CONTINUOUS
10
301.05
20
96.7731
11
300.921
21
96.6303
0
LINE
8
BLACK
6
CONTINUOUS
10
300.921
20
96.6303
11
300.664
21
96.4874
0
LINE
8
BLACK
6
CONTINUOUS
10
300.664
20
96.4874
11
299.636
21
96.4874
0
LINE
8
BLACK
6
CONTINUOUS
10
302.336
20
95.0589
11
302.336
21
98.0589
0
LINE
8
BLACK
6
CONTINUOUS
10
304.907
20
95.0589
11
303.621
21
95.0589
0
LINE
8
BLACK
6
CONTINUOUS
10
303.621
20
95.0589
11
303.621
21
98.0589
0
LINE
8
BLACK
6
CONTINUOUS
10
307.093
20
95.0589
11
305.807
21
95.0589
0
LINE
8
BLACK
6
CONTINUOUS
10
305.807
20
95.0589
11
305.807
21
98.0589
0
LINE
8
BLACK
6
CONTINUOUS
10
308.893
20
96.6303
11
309.279
21
96.4874
0
LINE
8
BLACK
6
CONTINUOUS
10
309.279
20
96.4874
11
309.407
21
96.3446
0
LINE
8
BLACK
6
CONTINUOUS
10
309.407
20
96.3446
11
309.536
21
96.0589
0
LINE
8
BLACK
6
CONTINUOUS
10
309.536
20
96.0589
11
309.536
21
95.6303
0
LINE
8
BLACK
6
CONTINUOUS
10
309.536
20
95.6303
11
309.407
21
95.3446
0
LINE
8
BLACK
6
CONTINUOUS
10
309.407
20
95.3446
11
309.279
21
95.2017
0
LINE
8
BLACK
6
CONTINUOUS
10
309.279
20
95.2017
11
309.021
21
95.0589
0
LINE
8
BLACK
6
CONTINUOUS
10
309.021
20
95.0589
11
307.993
21
95.0589
0
LINE
8
BLACK
6
CONTINUOUS
10
307.993
20
95.0589
11
307.993
21
98.0589
0
LINE
8
BLACK
6
CONTINUOUS
10
307.993
20
98.0589
11
308.893
21
98.0589
0
LINE
8
BLACK
6
CONTINUOUS
10
308.893
20
98.0589
11
309.15
21
97.916
0
LINE
8
BLACK
6
CONTINUOUS
10
309.15
20
97.916
11
309.279
21
97.7731
0
LINE
8
BLACK
6
CONTINUOUS
10
309.279
20
97.7731
11
309.407
21
97.4874
0
LINE
8
BLACK
6
CONTINUOUS
10
309.407
20
97.4874
11
309.407
21
97.2017
0
LINE
8
BLACK
6
CONTINUOUS
10
309.407
20
97.2017
11
309.279
21
96.916
0
LINE
8
BLACK
6
CONTINUOUS
10
309.279
20
96.916
11
309.15
21
96.7731
0
LINE
8
BLACK
6
CONTINUOUS
10
309.15
20
96.7731
11
308.893
21
96.6303
0
LINE
8
BLACK
6
CONTINUOUS
10
308.893
20
96.6303
11
307.993
21
96.6303
0
LINE
8
BLACK
6
CONTINUOUS
10
310.564
20
95.916
11
311.85
21
95.916
0
LINE
8
BLACK
6
CONTINUOUS
10
310.307
20
95.0589
11
311.207
21
98.0589
0
LINE
8
BLACK
6
CONTINUOUS
10
311.207
20
98.0589
11
312.107
21
95.0589
0
LINE
8
BLACK
6
CONTINUOUS
10
314.55
20
95.0589
11
313.65
21
96.4874
0
LINE
8
BLACK
6
CONTINUOUS
10
313.007
20
95.0589
11
313.007
21
98.0589
0
LINE
8
BLACK
6
CONTINUOUS
10
313.007
20
98.0589
11
314.036
21
98.0589
0
LINE
8
BLACK
6
CONTINUOUS
10
314.036
20
98.0589
11
314.293
21
97.916
0
LINE
8
BLACK
6
CONTINUOUS
10
314.293
20
97.916
11
314.421
21
97.7731
0
LINE
8
BLACK
6
CONTINUOUS
10
314.421
20
97.7731
11
314.55
21
97.4874
0
LINE
8
BLACK
6
CONTINUOUS
10
314.55
20
97.4874
11
314.55
21
97.0589
0
LINE
8
BLACK
6
CONTINUOUS
10
314.55
20
97.0589
11
314.421
21
96.7731
0
LINE
8
BLACK
6
CONTINUOUS
10
314.421
20
96.7731
11
314.293
21
96.6303
0
LINE
8
BLACK
6
CONTINUOUS
10
314.293
20
96.6303
11
314.036
21
96.4874
0
LINE
8
BLACK
6
CONTINUOUS
10
314.036
20
96.4874
11
313.007
21
96.4874
0
LINE
8
BLACK
6
CONTINUOUS
10
46.7169
20
98.0589
11
48.2597
21
98.0589
0
LINE
8
BLACK
6
CONTINUOUS
10
47.4883
20
95.0589
11
47.4883
21
98.0589
0
LINE
8
BLACK
6
CONTINUOUS
10
50.7026
20
95.0589
11
49.8026
21
96.4874
0
LINE
8
BLACK
6
CONTINUOUS
10
49.1597
20
95.0589
11
49.1597
21
98.0589
0
LINE
8
BLACK
6
CONTINUOUS
10
49.1597
20
98.0589
11
50.1883
21
98.0589
0
LINE
8
BLACK
6
CONTINUOUS
10
50.1883
20
98.0589
11
50.4454
21
97.916
0
LINE
8
BLACK
6
CONTINUOUS
10
50.4454
20
97.916
11
50.574
21
97.7731
0
LINE
8
BLACK
6
CONTINUOUS
10
50.574
20
97.7731
11
50.7026
21
97.4874
0
LINE
8
BLACK
6
CONTINUOUS
10
50.7026
20
97.4874
11
50.7026
21
97.0589
0
LINE
8
BLACK
6
CONTINUOUS
10
50.7026
20
97.0589
11
50.574
21
96.7731
0
LINE
8
BLACK
6
CONTINUOUS
10
50.574
20
96.7731
11
50.4454
21
96.6303
0
LINE
8
BLACK
6
CONTINUOUS
10
50.4454
20
96.6303
11
50.1883
21
96.4874
0
LINE
8
BLACK
6
CONTINUOUS
10
50.1883
20
96.4874
11
49.1597
21
96.4874
0
LINE
8
BLACK
6
CONTINUOUS
10
51.8597
20
95.0589
11
51.8597
21
98.0589
0
LINE
8
BLACK
6
CONTINUOUS
10
54.4311
20
95.0589
11
53.1454
21
95.0589
0
LINE
8
BLACK
6
CONTINUOUS
10
53.1454
20
95.0589
11
53.1454
21
98.0589
0
LINE
8
BLACK
6
CONTINUOUS
10
56.6169
20
95.0589
11
55.3311
21
95.0589
0
LINE
8
BLACK
6
CONTINUOUS
10
55.3311
20
95.0589
11
55.3311
21
98.0589
0
LINE
8
BLACK
6
CONTINUOUS
10
58.4169
20
96.6303
11
58.8026
21
96.4874
0
LINE
8
BLACK
6
CONTINUOUS
10
58.8026
20
96.4874
11
58.9311
21
96.3446
0
LINE
8
BLACK
6
CONTINUOUS
10
58.9311
20
96.3446
11
59.0597
21
96.0589
0
LINE
8
BLACK
6
CONTINUOUS
10
59.0597
20
96.0589
11
59.0597
21
95.6303
0
LINE
8
BLACK
6
CONTINUOUS
10
59.0597
20
95.6303
11
58.9311
21
95.3446
0
LINE
8
BLACK
6
CONTINUOUS
10
58.9311
20
95.3446
11
58.8026
21
95.2017
0
LINE
8
BLACK
6
CONTINUOUS
10
58.8026
20
95.2017
11
58.5454
21
95.0589
0
LINE
8
BLACK
6
CONTINUOUS
10
58.5454
20
95.0589
11
57.5169
21
95.0589
0
LINE
8
BLACK
6
CONTINUOUS
10
57.5169
20
95.0589
11
57.5169
21
98.0589
0
LINE
8
BLACK
6
CONTINUOUS
10
57.5169
20
98.0589
11
58.4169
21
98.0589
0
LINE
8
BLACK
6
CONTINUOUS
10
58.4169
20
98.0589
11
58.674
21
97.916
0
LINE
8
BLACK
6
CONTINUOUS
10
58.674
20
97.916
11
58.8026
21
97.7731
0
LINE
8
BLACK
6
CONTINUOUS
10
58.8026
20
97.7731
11
58.9311
21
97.4874
0
LINE
8
BLACK
6
CONTINUOUS
10
58.9311
20
97.4874
11
58.9311
21
97.2017
0
LINE
8
BLACK
6
CONTINUOUS
10
58.9311
20
97.2017
11
58.8026
21
96.916
0
LINE
8
BLACK
6
CONTINUOUS
10
58.8026
20
96.916
11
58.674
21
96.7731
0
LINE
8
BLACK
6
CONTINUOUS
10
58.674
20
96.7731
11
58.4169
21
96.6303
0
LINE
8
BLACK
6
CONTINUOUS
10
58.4169
20
96.6303
11
57.5169
21
96.6303
0
LINE
8
BLACK
6
CONTINUOUS
10
60.0883
20
95.916
11
61.374
21
95.916
0
LINE
8
BLACK
6
CONTINUOUS
10
59.8311
20
95.0589
11
60.7311
21
98.0589
0
LINE
8
BLACK
6
CONTINUOUS
10
60.7311
20
98.0589
11
61.6311
21
95.0589
0
LINE
8
BLACK
6
CONTINUOUS
10
64.074
20
95.0589
11
63.174
21
96.4874
0
LINE
8
BLACK
6
CONTINUOUS
10
62.5311
20
95.0589
11
62.5311
21
98.0589
0
LINE
8
BLACK
6
CONTINUOUS
10
62.5311
20
98.0589
11
63.5597
21
98.0589
0
LINE
8
BLACK
6
CONTINUOUS
10
63.5597
20
98.0589
11
63.8169
21
97.916
0
LINE
8
BLACK
6
CONTINUOUS
10
63.8169
20
97.916
11
63.9454
21
97.7731
0
LINE
8
BLACK
6
CONTINUOUS
10
63.9454
20
97.7731
11
64.074
21
97.4874
0
LINE
8
BLACK
6
CONTINUOUS
10
64.074
20
97.4874
11
64.074
21
97.0589
0
LINE
8
BLACK
6
CONTINUOUS
10
64.074
20
97.0589
11
63.9454
21
96.7731
0
LINE
8
BLACK
6
CONTINUOUS
10
63.9454
20
96.7731
11
63.8169
21
96.6303
0
LINE
8
BLACK
6
CONTINUOUS
10
63.8169
20
96.6303
11
63.5597
21
96.4874
0
LINE
8
BLACK
6
CONTINUOUS
10
63.5597
20
96.4874
11
62.5311
21
96.4874
0
LINE
8
BLACK
6
CONTINUOUS
10
48.024
20
134.154
11
48.024
21
139.154
0
LINE
8
BLACK
6
CONTINUOUS
10
48.024
20
139.154
11
49.7383
21
139.154
0
LINE
8
BLACK
6
CONTINUOUS
10
49.7383
20
139.154
11
50.1669
21
138.916
0
LINE
8
BLACK
6
CONTINUOUS
10
50.1669
20
138.916
11
50.3811
21
138.678
0
LINE
8
BLACK
6
CONTINUOUS
10
50.3811
20
138.678
11
50.5954
21
138.202
0
LINE
8
BLACK
6
CONTINUOUS
10
50.5954
20
138.202
11
50.5954
21
137.487
0
LINE
8
BLACK
6
CONTINUOUS
10
50.5954
20
137.487
11
50.3811
21
137.011
0
LINE
8
BLACK
6
CONTINUOUS
10
50.3811
20
137.011
11
50.1669
21
136.773
0
LINE
8
BLACK
6
CONTINUOUS
10
50.1669
20
136.773
11
49.7383
21
136.535
0
LINE
8
BLACK
6
CONTINUOUS
10
49.7383
20
136.535
11
48.024
21
136.535
0
LINE
8
BLACK
6
CONTINUOUS
10
52.3097
20
135.583
11
54.4526
21
135.583
0
LINE
8
BLACK
6
CONTINUOUS
10
51.8811
20
134.154
11
53.3811
21
139.154
0
LINE
8
BLACK
6
CONTINUOUS
10
53.3811
20
139.154
11
54.8811
21
134.154
0
LINE
8
BLACK
6
CONTINUOUS
10
56.3811
20
134.154
11
56.3811
21
139.154
0
LINE
8
BLACK
6
CONTINUOUS
10
56.3811
20
139.154
11
57.4526
21
139.154
0
LINE
8
BLACK
6
CONTINUOUS
10
57.4526
20
139.154
11
58.0954
21
138.916
0
LINE
8
BLACK
6
CONTINUOUS
10
58.0954
20
138.916
11
58.524
21
138.44
0
LINE
8
BLACK
6
CONTINUOUS
10
58.524
20
138.44
11
58.7383
21
137.964
0
LINE
8
BLACK
6
CONTINUOUS
10
58.7383
20
137.964
11
58.9526
21
137.011
0
LINE
8
BLACK
6
CONTINUOUS
10
58.9526
20
137.011
11
58.9526
21
136.297
0
LINE
8
BLACK
6
CONTINUOUS
10
58.9526
20
136.297
11
58.7383
21
135.345
0
LINE
8
BLACK
6
CONTINUOUS
10
58.7383
20
135.345
11
58.524
21
134.868
0
LINE
8
BLACK
6
CONTINUOUS
10
58.524
20
134.868
11
58.0954
21
134.392
0
LINE
8
BLACK
6
CONTINUOUS
10
58.0954
20
134.392
11
57.4526
21
134.154
0
LINE
8
BLACK
6
CONTINUOUS
10
57.4526
20
134.154
11
56.3811
21
134.154
0
LINE
8
BLACK
6
CONTINUOUS
10
60.6669
20
134.392
11
61.3097
21
134.154
0
LINE
8
BLACK
6
CONTINUOUS
10
61.3097
20
134.154
11
62.3811
21
134.154
0
LINE
8
BLACK
6
CONTINUOUS
10
62.3811
20
134.154
11
62.8097
21
134.392
0
LINE
8
BLACK
6
CONTINUOUS
10
62.8097
20
134.392
11
63.024
21
134.63
0
LINE
8
BLACK
6
CONTINUOUS
10
63.024
20
134.63
11
63.2383
21
135.106
0
LINE
8
BLACK
6
CONTINUOUS
10
63.2383
20
135.106
11
63.2383
21
135.583
0
LINE
8
BLACK
6
CONTINUOUS
10
63.2383
20
135.583
11
63.024
21
136.059
0
LINE
8
BLACK
6
CONTINUOUS
10
63.024
20
136.059
11
62.8097
21
136.297
0
LINE
8
BLACK
6
CONTINUOUS
10
62.8097
20
136.297
11
62.3811
21
136.535
0
LINE
8
BLACK
6
CONTINUOUS
10
62.3811
20
136.535
11
61.524
21
136.773
0
LINE
8
BLACK
6
CONTINUOUS
10
61.524
20
136.773
11
61.0954
21
137.011
0
LINE
8
BLACK
6
CONTINUOUS
10
61.0954
20
137.011
11
60.8811
21
137.249
0
LINE
8
BLACK
6
CONTINUOUS
10
60.8811
20
137.249
11
60.6669
21
137.726
0
LINE
8
BLACK
6
CONTINUOUS
10
60.6669
20
137.726
11
60.6669
21
138.202
0
LINE
8
BLACK
6
CONTINUOUS
10
60.6669
20
138.202
11
60.8811
21
138.678
0
LINE
8
BLACK
6
CONTINUOUS
10
60.8811
20
138.678
11
61.0954
21
138.916
0
LINE
8
BLACK
6
CONTINUOUS
10
61.0954
20
138.916
11
61.524
21
139.154
0
LINE
8
BLACK
6
CONTINUOUS
10
61.524
20
139.154
11
62.5954
21
139.154
0
LINE
8
BLACK
6
CONTINUOUS
10
62.5954
20
139.154
11
63.2383
21
138.916
0
LINE
8
BLACK
6
CONTINUOUS
10
48.024
20
134.154
11
48.024
21
139.154
0
LINE
8
BLACK
6
CONTINUOUS
10
48.024
20
139.154
11
49.7383
21
139.154
0
LINE
8
BLACK
6
CONTINUOUS
10
49.7383
20
139.154
11
50.1669
21
138.916
0
LINE
8
BLACK
6
CONTINUOUS
10
50.1669
20
138.916
11
50.3811
21
138.678
0
LINE
8
BLACK
6
CONTINUOUS
10
50.3811
20
138.678
11
50.5954
21
138.202
0
LINE
8
BLACK
6
CONTINUOUS
10
50.5954
20
138.202
11
50.5954
21
137.487
0
LINE
8
BLACK
6
CONTINUOUS
10
50.5954
20
137.487
11
50.3811
21
137.011
0
LINE
8
BLACK
6
CONTINUOUS
10
50.3811
20
137.011
11
50.1669
21
136.773
0
LINE
8
BLACK
6
CONTINUOUS
10
50.1669
20
136.773
11
49.7383
21
136.535
0
LINE
8
BLACK
6
CONTINUOUS
10
49.7383
20
136.535
11
48.024
21
136.535
0
LINE
8
BLACK
6
CONTINUOUS
10
52.3097
20
135.583
11
54.4526
21
135.583
0
LINE
8
BLACK
6
CONTINUOUS
10
51.8811
20
134.154
11
53.3811
21
139.154
0
LINE
8
BLACK
6
CONTINUOUS
10
53.3811
20
139.154
11
54.8811
21
134.154
0
LINE
8
BLACK
6
CONTINUOUS
10
56.3811
20
134.154
11
56.3811
21
139.154
0
LINE
8
BLACK
6
CONTINUOUS
10
56.3811
20
139.154
11
57.4526
21
139.154
0
LINE
8
BLACK
6
CONTINUOUS
10
57.4526
20
139.154
11
58.0954
21
138.916
0
LINE
8
BLACK
6
CONTINUOUS
10
58.0954
20
138.916
11
58.524
21
138.44
0
LINE
8
BLACK
6
CONTINUOUS
10
58.524
20
138.44
11
58.7383
21
137.964
0
LINE
8
BLACK
6
CONTINUOUS
10
58.7383
20
137.964
11
58.9526
21
137.011
0
LINE
8
BLACK
6
CONTINUOUS
10
58.9526
20
137.011
11
58.9526
21
136.297
0
LINE
8
BLACK
6
CONTINUOUS
10
58.9526
20
136.297
11
58.7383
21
135.345
0
LINE
8
BLACK
6
CONTINUOUS
10
58.7383
20
135.345
11
58.524
21
134.868
0
LINE
8
BLACK
6
CONTINUOUS
10
58.524
20
134.868
11
58.0954
21
134.392
0
LINE
8
BLACK
6
CONTINUOUS
10
58.0954
20
134.392
11
57.4526
21
134.154
0
LINE
8
BLACK
6
CONTINUOUS
10
57.4526
20
134.154
11
56.3811
21
134.154
0
LINE
8
BLACK
6
CONTINUOUS
10
60.6669
20
134.392
11
61.3097
21
134.154
0
LINE
8
BLACK
6
CONTINUOUS
10
61.3097
20
134.154
11
62.3811
21
134.154
0
LINE
8
BLACK
6
CONTINUOUS
10
62.3811
20
134.154
11
62.8097
21
134.392
0
LINE
8
BLACK
6
CONTINUOUS
10
62.8097
20
134.392
11
63.024
21
134.63
0
LINE
8
BLACK
6
CONTINUOUS
10
63.024
20
134.63
11
63.2383
21
135.106
0
LINE
8
BLACK
6
CONTINUOUS
10
63.2383
20
135.106
11
63.2383
21
135.583
0
LINE
8
BLACK
6
CONTINUOUS
10
63.2383
20
135.583
11
63.024
21
136.059
0
LINE
8
BLACK
6
CONTINUOUS
10
63.024
20
136.059
11
62.8097
21
136.297
0
LINE
8
BLACK
6
CONTINUOUS
10
62.8097
20
136.297
11
62.3811
21
136.535
0
LINE
8
BLACK
6
CONTINUOUS
10
62.3811
20
136.535
11
61.524
21
136.773
0
LINE
8
BLACK
6
CONTINUOUS
10
61.524
20
136.773
11
61.0954
21
137.011
0
LINE
8
BLACK
6
CONTINUOUS
10
61.0954
20
137.011
11
60.8811
21
137.249
0
LINE
8
BLACK
6
CONTINUOUS
10
60.8811
20
137.249
11
60.6669
21
137.726
0
LINE
8
BLACK
6
CONTINUOUS
10
60.6669
20
137.726
11
60.6669
21
138.202
0
LINE
8
BLACK
6
CONTINUOUS
10
60.6669
20
138.202
11
60.8811
21
138.678
0
LINE
8
BLACK
6
CONTINUOUS
10
60.8811
20
138.678
11
61.0954
21
138.916
0
LINE
8
BLACK
6
CONTINUOUS
10
61.0954
20
138.916
11
61.524
21
139.154
0
LINE
8
BLACK
6
CONTINUOUS
10
61.524
20
139.154
11
62.5954
21
139.154
0
LINE
8
BLACK
6
CONTINUOUS
10
62.5954
20
139.154
11
63.2383
21
138.916
  0
ENDSEC
  0
EOF
