  0
SECTION
  2
HEADER
  9
$ANGBASE
  50
0.0
  9
$ANGDIR
  70
1
  9
$MEASUREMENT
  70
1
  0
ENDSEC
  0
SECTION
  2
TABLES
  0
TABLE
  2
LTYPE
  70
4
  0
LTYPE
  5
40F
  2
CONTINUOUS
  70
0
  3
Solid line
  72
65
  73
0
  40
0.0
  0
LTYPE
  5
410
  2
DASHDOT
 70
0
  3
Dash Dot ____ _ ____ _
 72
65
 73
4
 40
2.0
 49
1.25
 49
-0.25
 49
0.25
 49
-0.25
  0
LTYPE
  5
411
  2
DASHED
 70
0
  3
Dashed __ __ __ __ __
 72
65
 73
2
 40
0.75
 49
0.5
 49
-0.25
  0
LTYPE
  5
43B
  2
DOTTED
 70
0
  3
Dotted .  .  .  .
 72
65
 73
2
 40
0.2
 49
0.0
 49
-0.2
  0
ENDTAB
  0
TABLE
  2
STYLE
  70
4
  0
STYLE
  2
KICAD
  70
0
  40
0
  41
1
  42
1
  50
0
  71
0
  3
isocp.shx
  0
STYLE
  2
KICADB
  70
0
  40
0
  41
1
  42
1
  50
0
  71
0
  3
isocp.shx
  0
STYLE
  2
KICADI
  70
0
  40
0
  41
1
  42
1
  50
15
  71
0
  3
isocp.shx
  0
STYLE
  2
KICADBI
  70
0
  40
0
  41
1
  42
1
  50
15
  71
0
  3
isocp.shx
  0
ENDTAB
  0
TABLE
  2
LAYER
  70
1
  0
LAYER
  2
BLACK
  70
0
  62
7
  6
CONTINUOUS
  0
ENDTAB
  0
ENDSEC
  0
SECTION
  2
ENTITIES
0
LINE
8
BLACK
6
CONTINUOUS
10
479
20
-311
11
119
21
-311
0
LINE
8
BLACK
6
CONTINUOUS
10
119
20
-311
11
119
21
-51
0
LINE
8
BLACK
6
CONTINUOUS
10
479
20
-51
11
479
21
-311
0
LINE
8
BLACK
6
CONTINUOUS
10
119
20
-51
11
479
21
-51
0
LINE
8
BLACK
6
CONTINUOUS
10
266.807
20
-172.198
11
267.14
21
-171.722
0
LINE
8
BLACK
6
CONTINUOUS
10
267.378
20
-172.198
11
267.378
21
-171.198
0
LINE
8
BLACK
6
CONTINUOUS
10
267.378
20
-171.198
11
266.997
21
-171.198
0
LINE
8
BLACK
6
CONTINUOUS
10
266.997
20
-171.198
11
266.902
21
-171.246
0
LINE
8
BLACK
6
CONTINUOUS
10
266.902
20
-171.246
11
266.854
21
-171.294
0
LINE
8
BLACK
6
CONTINUOUS
10
266.854
20
-171.294
11
266.807
21
-171.389
0
LINE
8
BLACK
6
CONTINUOUS
10
266.807
20
-171.389
11
266.807
21
-171.532
0
LINE
8
BLACK
6
CONTINUOUS
10
266.807
20
-171.532
11
266.854
21
-171.627
0
LINE
8
BLACK
6
CONTINUOUS
10
266.854
20
-171.627
11
266.902
21
-171.675
0
LINE
8
BLACK
6
CONTINUOUS
10
266.902
20
-171.675
11
266.997
21
-171.722
0
LINE
8
BLACK
6
CONTINUOUS
10
266.997
20
-171.722
11
267.378
21
-171.722
0
LINE
8
BLACK
6
CONTINUOUS
10
265.854
20
-172.198
11
266.426
21
-172.198
0
LINE
8
BLACK
6
CONTINUOUS
10
266.14
20
-172.198
11
266.14
21
-171.198
0
LINE
8
BLACK
6
CONTINUOUS
10
266.14
20
-171.198
11
266.235
21
-171.341
0
LINE
8
BLACK
6
CONTINUOUS
10
266.235
20
-171.341
11
266.33
21
-171.436
0
LINE
8
BLACK
6
CONTINUOUS
10
266.33
20
-171.436
11
266.426
21
-171.484
0
LINE
8
BLACK
6
CONTINUOUS
10
361.043
20
-91.6804
11
361.376
21
-91.2042
0
LINE
8
BLACK
6
CONTINUOUS
10
361.614
20
-91.6804
11
361.614
21
-90.6804
0
LINE
8
BLACK
6
CONTINUOUS
10
361.614
20
-90.6804
11
361.233
21
-90.6804
0
LINE
8
BLACK
6
CONTINUOUS
10
361.233
20
-90.6804
11
361.138
21
-90.728
0
LINE
8
BLACK
6
CONTINUOUS
10
361.138
20
-90.728
11
361.09
21
-90.7756
0
LINE
8
BLACK
6
CONTINUOUS
10
361.09
20
-90.7756
11
361.043
21
-90.8709
0
LINE
8
BLACK
6
CONTINUOUS
10
361.043
20
-90.8709
11
361.043
21
-91.0137
0
LINE
8
BLACK
6
CONTINUOUS
10
361.043
20
-91.0137
11
361.09
21
-91.109
0
LINE
8
BLACK
6
CONTINUOUS
10
361.09
20
-91.109
11
361.138
21
-91.1566
0
LINE
8
BLACK
6
CONTINUOUS
10
361.138
20
-91.1566
11
361.233
21
-91.2042
0
LINE
8
BLACK
6
CONTINUOUS
10
361.233
20
-91.2042
11
361.614
21
-91.2042
0
LINE
8
BLACK
6
CONTINUOUS
10
360.138
20
-90.6804
11
360.614
21
-90.6804
0
LINE
8
BLACK
6
CONTINUOUS
10
360.614
20
-90.6804
11
360.662
21
-91.1566
0
LINE
8
BLACK
6
CONTINUOUS
10
360.662
20
-91.1566
11
360.614
21
-91.109
0
LINE
8
BLACK
6
CONTINUOUS
10
360.614
20
-91.109
11
360.519
21
-91.0613
0
LINE
8
BLACK
6
CONTINUOUS
10
360.519
20
-91.0613
11
360.281
21
-91.0613
0
LINE
8
BLACK
6
CONTINUOUS
10
360.281
20
-91.0613
11
360.186
21
-91.109
0
LINE
8
BLACK
6
CONTINUOUS
10
360.186
20
-91.109
11
360.138
21
-91.1566
0
LINE
8
BLACK
6
CONTINUOUS
10
360.138
20
-91.1566
11
360.09
21
-91.2518
0
LINE
8
BLACK
6
CONTINUOUS
10
360.09
20
-91.2518
11
360.09
21
-91.4899
0
LINE
8
BLACK
6
CONTINUOUS
10
360.09
20
-91.4899
11
360.138
21
-91.5851
0
LINE
8
BLACK
6
CONTINUOUS
10
360.138
20
-91.5851
11
360.186
21
-91.6328
0
LINE
8
BLACK
6
CONTINUOUS
10
360.186
20
-91.6328
11
360.281
21
-91.6804
0
LINE
8
BLACK
6
CONTINUOUS
10
360.281
20
-91.6804
11
360.519
21
-91.6804
0
LINE
8
BLACK
6
CONTINUOUS
10
360.519
20
-91.6804
11
360.614
21
-91.6328
0
LINE
8
BLACK
6
CONTINUOUS
10
360.614
20
-91.6328
11
360.662
21
-91.5851
0
LINE
8
BLACK
6
CONTINUOUS
10
359.71
20
-90.7756
11
359.662
21
-90.728
0
LINE
8
BLACK
6
CONTINUOUS
10
359.662
20
-90.728
11
359.567
21
-90.6804
0
LINE
8
BLACK
6
CONTINUOUS
10
359.567
20
-90.6804
11
359.329
21
-90.6804
0
LINE
8
BLACK
6
CONTINUOUS
10
359.329
20
-90.6804
11
359.233
21
-90.728
0
LINE
8
BLACK
6
CONTINUOUS
10
359.233
20
-90.728
11
359.186
21
-90.7756
0
LINE
8
BLACK
6
CONTINUOUS
10
359.186
20
-90.7756
11
359.138
21
-90.8709
0
LINE
8
BLACK
6
CONTINUOUS
10
359.138
20
-90.8709
11
359.138
21
-90.9661
0
LINE
8
BLACK
6
CONTINUOUS
10
359.138
20
-90.9661
11
359.186
21
-91.109
0
LINE
8
BLACK
6
CONTINUOUS
10
359.186
20
-91.109
11
359.757
21
-91.6804
0
LINE
8
BLACK
6
CONTINUOUS
10
359.757
20
-91.6804
11
359.138
21
-91.6804
0
LINE
8
BLACK
6
CONTINUOUS
10
142.36
20
-87.5851
11
141.884
21
-87.2518
0
LINE
8
BLACK
6
CONTINUOUS
10
142.36
20
-87.0137
11
141.36
21
-87.0137
0
LINE
8
BLACK
6
CONTINUOUS
10
141.36
20
-87.0137
11
141.36
21
-87.3947
0
LINE
8
BLACK
6
CONTINUOUS
10
141.36
20
-87.3947
11
141.408
21
-87.4899
0
LINE
8
BLACK
6
CONTINUOUS
10
141.408
20
-87.4899
11
141.456
21
-87.5375
0
LINE
8
BLACK
6
CONTINUOUS
10
141.456
20
-87.5375
11
141.551
21
-87.5851
0
LINE
8
BLACK
6
CONTINUOUS
10
141.551
20
-87.5851
11
141.694
21
-87.5851
0
LINE
8
BLACK
6
CONTINUOUS
10
141.694
20
-87.5851
11
141.789
21
-87.5375
0
LINE
8
BLACK
6
CONTINUOUS
10
141.789
20
-87.5375
11
141.837
21
-87.4899
0
LINE
8
BLACK
6
CONTINUOUS
10
141.837
20
-87.4899
11
141.884
21
-87.3947
0
LINE
8
BLACK
6
CONTINUOUS
10
141.884
20
-87.3947
11
141.884
21
-87.0137
0
LINE
8
BLACK
6
CONTINUOUS
10
142.36
20
-88.5375
11
142.36
21
-87.9661
0
LINE
8
BLACK
6
CONTINUOUS
10
142.36
20
-88.2518
11
141.36
21
-88.2518
0
LINE
8
BLACK
6
CONTINUOUS
10
141.36
20
-88.2518
11
141.503
21
-88.1566
0
LINE
8
BLACK
6
CONTINUOUS
10
141.503
20
-88.1566
11
141.598
21
-88.0613
0
LINE
8
BLACK
6
CONTINUOUS
10
141.598
20
-88.0613
11
141.646
21
-87.9661
0
LINE
8
BLACK
6
CONTINUOUS
10
142.36
20
-89.4899
11
142.36
21
-88.9185
0
LINE
8
BLACK
6
CONTINUOUS
10
142.36
20
-89.2042
11
141.36
21
-89.2042
0
LINE
8
BLACK
6
CONTINUOUS
10
141.36
20
-89.2042
11
141.503
21
-89.109
0
LINE
8
BLACK
6
CONTINUOUS
10
141.503
20
-89.109
11
141.598
21
-89.0137
0
LINE
8
BLACK
6
CONTINUOUS
10
141.598
20
-89.0137
11
141.646
21
-88.9185
0
LINE
8
BLACK
6
CONTINUOUS
10
301.643
20
-137.146
11
301.976
21
-136.67
0
LINE
8
BLACK
6
CONTINUOUS
10
302.214
20
-137.146
11
302.214
21
-136.146
0
LINE
8
BLACK
6
CONTINUOUS
10
302.214
20
-136.146
11
301.833
21
-136.146
0
LINE
8
BLACK
6
CONTINUOUS
10
301.833
20
-136.146
11
301.738
21
-136.194
0
LINE
8
BLACK
6
CONTINUOUS
10
301.738
20
-136.194
11
301.69
21
-136.242
0
LINE
8
BLACK
6
CONTINUOUS
10
301.69
20
-136.242
11
301.643
21
-136.337
0
LINE
8
BLACK
6
CONTINUOUS
10
301.643
20
-136.337
11
301.643
21
-136.48
0
LINE
8
BLACK
6
CONTINUOUS
10
301.643
20
-136.48
11
301.69
21
-136.575
0
LINE
8
BLACK
6
CONTINUOUS
10
301.69
20
-136.575
11
301.738
21
-136.623
0
LINE
8
BLACK
6
CONTINUOUS
10
301.738
20
-136.623
11
301.833
21
-136.67
0
LINE
8
BLACK
6
CONTINUOUS
10
301.833
20
-136.67
11
302.214
21
-136.67
0
LINE
8
BLACK
6
CONTINUOUS
10
301.262
20
-136.242
11
301.214
21
-136.194
0
LINE
8
BLACK
6
CONTINUOUS
10
301.214
20
-136.194
11
301.119
21
-136.146
0
LINE
8
BLACK
6
CONTINUOUS
10
301.119
20
-136.146
11
300.881
21
-136.146
0
LINE
8
BLACK
6
CONTINUOUS
10
300.881
20
-136.146
11
300.786
21
-136.194
0
LINE
8
BLACK
6
CONTINUOUS
10
300.786
20
-136.194
11
300.738
21
-136.242
0
LINE
8
BLACK
6
CONTINUOUS
10
300.738
20
-136.242
11
300.69
21
-136.337
0
LINE
8
BLACK
6
CONTINUOUS
10
300.69
20
-136.337
11
300.69
21
-136.432
0
LINE
8
BLACK
6
CONTINUOUS
10
300.69
20
-136.432
11
300.738
21
-136.575
0
LINE
8
BLACK
6
CONTINUOUS
10
300.738
20
-136.575
11
301.31
21
-137.146
0
LINE
8
BLACK
6
CONTINUOUS
10
301.31
20
-137.146
11
300.69
21
-137.146
0
LINE
8
BLACK
6
CONTINUOUS
10
299.738
20
-137.146
11
300.31
21
-137.146
0
LINE
8
BLACK
6
CONTINUOUS
10
300.024
20
-137.146
11
300.024
21
-136.146
0
LINE
8
BLACK
6
CONTINUOUS
10
300.024
20
-136.146
11
300.119
21
-136.289
0
LINE
8
BLACK
6
CONTINUOUS
10
300.119
20
-136.289
11
300.214
21
-136.384
0
LINE
8
BLACK
6
CONTINUOUS
10
300.214
20
-136.384
11
300.31
21
-136.432
0
LINE
8
BLACK
6
CONTINUOUS
10
393.835
20
-296.15
11
394.168
21
-295.674
0
LINE
8
BLACK
6
CONTINUOUS
10
394.406
20
-296.15
11
394.406
21
-295.15
0
LINE
8
BLACK
6
CONTINUOUS
10
394.406
20
-295.15
11
394.025
21
-295.15
0
LINE
8
BLACK
6
CONTINUOUS
10
394.025
20
-295.15
11
393.93
21
-295.198
0
LINE
8
BLACK
6
CONTINUOUS
10
393.93
20
-295.198
11
393.882
21
-295.246
0
LINE
8
BLACK
6
CONTINUOUS
10
393.882
20
-295.246
11
393.835
21
-295.341
0
LINE
8
BLACK
6
CONTINUOUS
10
393.835
20
-295.341
11
393.835
21
-295.484
0
LINE
8
BLACK
6
CONTINUOUS
10
393.835
20
-295.484
11
393.882
21
-295.579
0
LINE
8
BLACK
6
CONTINUOUS
10
393.882
20
-295.579
11
393.93
21
-295.627
0
LINE
8
BLACK
6
CONTINUOUS
10
393.93
20
-295.627
11
394.025
21
-295.674
0
LINE
8
BLACK
6
CONTINUOUS
10
394.025
20
-295.674
11
394.406
21
-295.674
0
LINE
8
BLACK
6
CONTINUOUS
10
393.454
20
-295.246
11
393.406
21
-295.198
0
LINE
8
BLACK
6
CONTINUOUS
10
393.406
20
-295.198
11
393.311
21
-295.15
0
LINE
8
BLACK
6
CONTINUOUS
10
393.311
20
-295.15
11
393.073
21
-295.15
0
LINE
8
BLACK
6
CONTINUOUS
10
393.073
20
-295.15
11
392.978
21
-295.198
0
LINE
8
BLACK
6
CONTINUOUS
10
392.978
20
-295.198
11
392.93
21
-295.246
0
LINE
8
BLACK
6
CONTINUOUS
10
392.93
20
-295.246
11
392.882
21
-295.341
0
LINE
8
BLACK
6
CONTINUOUS
10
392.882
20
-295.341
11
392.882
21
-295.436
0
LINE
8
BLACK
6
CONTINUOUS
10
392.882
20
-295.436
11
392.93
21
-295.579
0
LINE
8
BLACK
6
CONTINUOUS
10
392.93
20
-295.579
11
393.502
21
-296.15
0
LINE
8
BLACK
6
CONTINUOUS
10
393.502
20
-296.15
11
392.882
21
-296.15
0
LINE
8
BLACK
6
CONTINUOUS
10
391.978
20
-295.15
11
392.454
21
-295.15
0
LINE
8
BLACK
6
CONTINUOUS
10
392.454
20
-295.15
11
392.502
21
-295.627
0
LINE
8
BLACK
6
CONTINUOUS
10
392.502
20
-295.627
11
392.454
21
-295.579
0
LINE
8
BLACK
6
CONTINUOUS
10
392.454
20
-295.579
11
392.359
21
-295.531
0
LINE
8
BLACK
6
CONTINUOUS
10
392.359
20
-295.531
11
392.121
21
-295.531
0
LINE
8
BLACK
6
CONTINUOUS
10
392.121
20
-295.531
11
392.025
21
-295.579
0
LINE
8
BLACK
6
CONTINUOUS
10
392.025
20
-295.579
11
391.978
21
-295.627
0
LINE
8
BLACK
6
CONTINUOUS
10
391.978
20
-295.627
11
391.93
21
-295.722
0
LINE
8
BLACK
6
CONTINUOUS
10
391.93
20
-295.722
11
391.93
21
-295.96
0
LINE
8
BLACK
6
CONTINUOUS
10
391.93
20
-295.96
11
391.978
21
-296.055
0
LINE
8
BLACK
6
CONTINUOUS
10
391.978
20
-296.055
11
392.025
21
-296.103
0
LINE
8
BLACK
6
CONTINUOUS
10
392.025
20
-296.103
11
392.121
21
-296.15
0
LINE
8
BLACK
6
CONTINUOUS
10
392.121
20
-296.15
11
392.359
21
-296.15
0
LINE
8
BLACK
6
CONTINUOUS
10
392.359
20
-296.15
11
392.454
21
-296.103
0
LINE
8
BLACK
6
CONTINUOUS
10
392.454
20
-296.103
11
392.502
21
-296.055
0
LINE
8
BLACK
6
CONTINUOUS
10
361.043
20
-101.586
11
361.376
21
-101.11
0
LINE
8
BLACK
6
CONTINUOUS
10
361.614
20
-101.586
11
361.614
21
-100.586
0
LINE
8
BLACK
6
CONTINUOUS
10
361.614
20
-100.586
11
361.233
21
-100.586
0
LINE
8
BLACK
6
CONTINUOUS
10
361.233
20
-100.586
11
361.138
21
-100.634
0
LINE
8
BLACK
6
CONTINUOUS
10
361.138
20
-100.634
11
361.09
21
-100.682
0
LINE
8
BLACK
6
CONTINUOUS
10
361.09
20
-100.682
11
361.043
21
-100.777
0
LINE
8
BLACK
6
CONTINUOUS
10
361.043
20
-100.777
11
361.043
21
-100.92
0
LINE
8
BLACK
6
CONTINUOUS
10
361.043
20
-100.92
11
361.09
21
-101.015
0
LINE
8
BLACK
6
CONTINUOUS
10
361.09
20
-101.015
11
361.138
21
-101.063
0
LINE
8
BLACK
6
CONTINUOUS
10
361.138
20
-101.063
11
361.233
21
-101.11
0
LINE
8
BLACK
6
CONTINUOUS
10
361.233
20
-101.11
11
361.614
21
-101.11
0
LINE
8
BLACK
6
CONTINUOUS
10
360.138
20
-100.586
11
360.614
21
-100.586
0
LINE
8
BLACK
6
CONTINUOUS
10
360.614
20
-100.586
11
360.662
21
-101.063
0
LINE
8
BLACK
6
CONTINUOUS
10
360.662
20
-101.063
11
360.614
21
-101.015
0
LINE
8
BLACK
6
CONTINUOUS
10
360.614
20
-101.015
11
360.519
21
-100.967
0
LINE
8
BLACK
6
CONTINUOUS
10
360.519
20
-100.967
11
360.281
21
-100.967
0
LINE
8
BLACK
6
CONTINUOUS
10
360.281
20
-100.967
11
360.186
21
-101.015
0
LINE
8
BLACK
6
CONTINUOUS
10
360.186
20
-101.015
11
360.138
21
-101.063
0
LINE
8
BLACK
6
CONTINUOUS
10
360.138
20
-101.063
11
360.09
21
-101.158
0
LINE
8
BLACK
6
CONTINUOUS
10
360.09
20
-101.158
11
360.09
21
-101.396
0
LINE
8
BLACK
6
CONTINUOUS
10
360.09
20
-101.396
11
360.138
21
-101.491
0
LINE
8
BLACK
6
CONTINUOUS
10
360.138
20
-101.491
11
360.186
21
-101.539
0
LINE
8
BLACK
6
CONTINUOUS
10
360.186
20
-101.539
11
360.281
21
-101.586
0
LINE
8
BLACK
6
CONTINUOUS
10
360.281
20
-101.586
11
360.519
21
-101.586
0
LINE
8
BLACK
6
CONTINUOUS
10
360.519
20
-101.586
11
360.614
21
-101.539
0
LINE
8
BLACK
6
CONTINUOUS
10
360.614
20
-101.539
11
360.662
21
-101.491
0
LINE
8
BLACK
6
CONTINUOUS
10
359.471
20
-100.586
11
359.376
21
-100.586
0
LINE
8
BLACK
6
CONTINUOUS
10
359.376
20
-100.586
11
359.281
21
-100.634
0
LINE
8
BLACK
6
CONTINUOUS
10
359.281
20
-100.634
11
359.233
21
-100.682
0
LINE
8
BLACK
6
CONTINUOUS
10
359.233
20
-100.682
11
359.186
21
-100.777
0
LINE
8
BLACK
6
CONTINUOUS
10
359.186
20
-100.777
11
359.138
21
-100.967
0
LINE
8
BLACK
6
CONTINUOUS
10
359.138
20
-100.967
11
359.138
21
-101.205
0
LINE
8
BLACK
6
CONTINUOUS
10
359.138
20
-101.205
11
359.186
21
-101.396
0
LINE
8
BLACK
6
CONTINUOUS
10
359.186
20
-101.396
11
359.233
21
-101.491
0
LINE
8
BLACK
6
CONTINUOUS
10
359.233
20
-101.491
11
359.281
21
-101.539
0
LINE
8
BLACK
6
CONTINUOUS
10
359.281
20
-101.539
11
359.376
21
-101.586
0
LINE
8
BLACK
6
CONTINUOUS
10
359.376
20
-101.586
11
359.471
21
-101.586
0
LINE
8
BLACK
6
CONTINUOUS
10
359.471
20
-101.586
11
359.567
21
-101.539
0
LINE
8
BLACK
6
CONTINUOUS
10
359.567
20
-101.539
11
359.614
21
-101.491
0
LINE
8
BLACK
6
CONTINUOUS
10
359.614
20
-101.491
11
359.662
21
-101.396
0
LINE
8
BLACK
6
CONTINUOUS
10
359.662
20
-101.396
11
359.71
21
-101.205
0
LINE
8
BLACK
6
CONTINUOUS
10
359.71
20
-101.205
11
359.71
21
-100.967
0
LINE
8
BLACK
6
CONTINUOUS
10
359.71
20
-100.967
11
359.662
21
-100.777
0
LINE
8
BLACK
6
CONTINUOUS
10
359.662
20
-100.777
11
359.614
21
-100.682
0
LINE
8
BLACK
6
CONTINUOUS
10
359.614
20
-100.682
11
359.567
21
-100.634
0
LINE
8
BLACK
6
CONTINUOUS
10
359.567
20
-100.634
11
359.471
21
-100.586
0
LINE
8
BLACK
6
CONTINUOUS
10
146.462
20
-151.872
11
146.462
21
-150.872
0
LINE
8
BLACK
6
CONTINUOUS
10
146.462
20
-150.872
11
145.89
21
-151.872
0
LINE
8
BLACK
6
CONTINUOUS
10
145.89
20
-151.872
11
145.89
21
-150.872
0
LINE
8
BLACK
6
CONTINUOUS
10
145.414
20
-151.872
11
145.414
21
-150.872
0
LINE
8
BLACK
6
CONTINUOUS
10
145.414
20
-150.872
11
145.033
21
-150.872
0
LINE
8
BLACK
6
CONTINUOUS
10
145.033
20
-150.872
11
144.938
21
-150.92
0
LINE
8
BLACK
6
CONTINUOUS
10
144.938
20
-150.92
11
144.89
21
-150.968
0
LINE
8
BLACK
6
CONTINUOUS
10
144.89
20
-150.968
11
144.843
21
-151.063
0
LINE
8
BLACK
6
CONTINUOUS
10
144.843
20
-151.063
11
144.843
21
-151.206
0
LINE
8
BLACK
6
CONTINUOUS
10
144.843
20
-151.206
11
144.89
21
-151.301
0
LINE
8
BLACK
6
CONTINUOUS
10
144.89
20
-151.301
11
144.938
21
-151.349
0
LINE
8
BLACK
6
CONTINUOUS
10
144.938
20
-151.349
11
145.033
21
-151.396
0
LINE
8
BLACK
6
CONTINUOUS
10
145.033
20
-151.396
11
145.414
21
-151.396
0
LINE
8
BLACK
6
CONTINUOUS
10
143.843
20
-151.872
11
144.176
21
-151.396
0
LINE
8
BLACK
6
CONTINUOUS
10
144.414
20
-151.872
11
144.414
21
-150.872
0
LINE
8
BLACK
6
CONTINUOUS
10
144.414
20
-150.872
11
144.033
21
-150.872
0
LINE
8
BLACK
6
CONTINUOUS
10
144.033
20
-150.872
11
143.938
21
-150.92
0
LINE
8
BLACK
6
CONTINUOUS
10
143.938
20
-150.92
11
143.89
21
-150.968
0
LINE
8
BLACK
6
CONTINUOUS
10
143.89
20
-150.968
11
143.843
21
-151.063
0
LINE
8
BLACK
6
CONTINUOUS
10
143.843
20
-151.063
11
143.843
21
-151.206
0
LINE
8
BLACK
6
CONTINUOUS
10
143.843
20
-151.206
11
143.89
21
-151.301
0
LINE
8
BLACK
6
CONTINUOUS
10
143.89
20
-151.301
11
143.938
21
-151.349
0
LINE
8
BLACK
6
CONTINUOUS
10
143.938
20
-151.349
11
144.033
21
-151.396
0
LINE
8
BLACK
6
CONTINUOUS
10
144.033
20
-151.396
11
144.414
21
-151.396
0
LINE
8
BLACK
6
CONTINUOUS
10
142.89
20
-151.872
11
143.462
21
-151.872
0
LINE
8
BLACK
6
CONTINUOUS
10
143.176
20
-151.872
11
143.176
21
-150.872
0
LINE
8
BLACK
6
CONTINUOUS
10
143.176
20
-150.872
11
143.271
21
-151.015
0
LINE
8
BLACK
6
CONTINUOUS
10
143.271
20
-151.015
11
143.367
21
-151.11
0
LINE
8
BLACK
6
CONTINUOUS
10
143.367
20
-151.11
11
143.462
21
-151.158
0
LINE
8
BLACK
6
CONTINUOUS
10
393.724
20
-266.046
11
394.057
21
-265.57
0
LINE
8
BLACK
6
CONTINUOUS
10
394.295
20
-266.046
11
394.295
21
-265.046
0
LINE
8
BLACK
6
CONTINUOUS
10
394.295
20
-265.046
11
393.914
21
-265.046
0
LINE
8
BLACK
6
CONTINUOUS
10
393.914
20
-265.046
11
393.819
21
-265.094
0
LINE
8
BLACK
6
CONTINUOUS
10
393.819
20
-265.094
11
393.771
21
-265.142
0
LINE
8
BLACK
6
CONTINUOUS
10
393.771
20
-265.142
11
393.724
21
-265.237
0
LINE
8
BLACK
6
CONTINUOUS
10
393.724
20
-265.237
11
393.724
21
-265.38
0
LINE
8
BLACK
6
CONTINUOUS
10
393.724
20
-265.38
11
393.771
21
-265.475
0
LINE
8
BLACK
6
CONTINUOUS
10
393.771
20
-265.475
11
393.819
21
-265.523
0
LINE
8
BLACK
6
CONTINUOUS
10
393.819
20
-265.523
11
393.914
21
-265.57
0
LINE
8
BLACK
6
CONTINUOUS
10
393.914
20
-265.57
11
394.295
21
-265.57
0
LINE
8
BLACK
6
CONTINUOUS
10
393.343
20
-265.142
11
393.295
21
-265.094
0
LINE
8
BLACK
6
CONTINUOUS
10
393.295
20
-265.094
11
393.2
21
-265.046
0
LINE
8
BLACK
6
CONTINUOUS
10
393.2
20
-265.046
11
392.962
21
-265.046
0
LINE
8
BLACK
6
CONTINUOUS
10
392.962
20
-265.046
11
392.867
21
-265.094
0
LINE
8
BLACK
6
CONTINUOUS
10
392.867
20
-265.094
11
392.819
21
-265.142
0
LINE
8
BLACK
6
CONTINUOUS
10
392.819
20
-265.142
11
392.771
21
-265.237
0
LINE
8
BLACK
6
CONTINUOUS
10
392.771
20
-265.237
11
392.771
21
-265.332
0
LINE
8
BLACK
6
CONTINUOUS
10
392.771
20
-265.332
11
392.819
21
-265.475
0
LINE
8
BLACK
6
CONTINUOUS
10
392.819
20
-265.475
11
393.391
21
-266.046
0
LINE
8
BLACK
6
CONTINUOUS
10
393.391
20
-266.046
11
392.771
21
-266.046
0
LINE
8
BLACK
6
CONTINUOUS
10
391.914
20
-265.046
11
392.105
21
-265.046
0
LINE
8
BLACK
6
CONTINUOUS
10
392.105
20
-265.046
11
392.2
21
-265.094
0
LINE
8
BLACK
6
CONTINUOUS
10
392.2
20
-265.094
11
392.248
21
-265.142
0
LINE
8
BLACK
6
CONTINUOUS
10
392.248
20
-265.142
11
392.343
21
-265.284
0
LINE
8
BLACK
6
CONTINUOUS
10
392.343
20
-265.284
11
392.391
21
-265.475
0
LINE
8
BLACK
6
CONTINUOUS
10
392.391
20
-265.475
11
392.391
21
-265.856
0
LINE
8
BLACK
6
CONTINUOUS
10
392.391
20
-265.856
11
392.343
21
-265.951
0
LINE
8
BLACK
6
CONTINUOUS
10
392.343
20
-265.951
11
392.295
21
-265.999
0
LINE
8
BLACK
6
CONTINUOUS
10
392.295
20
-265.999
11
392.2
21
-266.046
0
LINE
8
BLACK
6
CONTINUOUS
10
392.2
20
-266.046
11
392.01
21
-266.046
0
LINE
8
BLACK
6
CONTINUOUS
10
392.01
20
-266.046
11
391.914
21
-265.999
0
LINE
8
BLACK
6
CONTINUOUS
10
391.914
20
-265.999
11
391.867
21
-265.951
0
LINE
8
BLACK
6
CONTINUOUS
10
391.867
20
-265.951
11
391.819
21
-265.856
0
LINE
8
BLACK
6
CONTINUOUS
10
391.819
20
-265.856
11
391.819
21
-265.618
0
LINE
8
BLACK
6
CONTINUOUS
10
391.819
20
-265.618
11
391.867
21
-265.523
0
LINE
8
BLACK
6
CONTINUOUS
10
391.867
20
-265.523
11
391.914
21
-265.475
0
LINE
8
BLACK
6
CONTINUOUS
10
391.914
20
-265.475
11
392.01
21
-265.427
0
LINE
8
BLACK
6
CONTINUOUS
10
392.01
20
-265.427
11
392.2
21
-265.427
0
LINE
8
BLACK
6
CONTINUOUS
10
392.2
20
-265.427
11
392.295
21
-265.475
0
LINE
8
BLACK
6
CONTINUOUS
10
392.295
20
-265.475
11
392.343
21
-265.523
0
LINE
8
BLACK
6
CONTINUOUS
10
392.343
20
-265.523
11
392.391
21
-265.618
0
LINE
8
BLACK
6
CONTINUOUS
10
335.643
20
-152.132
11
335.976
21
-151.656
0
LINE
8
BLACK
6
CONTINUOUS
10
336.214
20
-152.132
11
336.214
21
-151.132
0
LINE
8
BLACK
6
CONTINUOUS
10
336.214
20
-151.132
11
335.833
21
-151.132
0
LINE
8
BLACK
6
CONTINUOUS
10
335.833
20
-151.132
11
335.738
21
-151.18
0
LINE
8
BLACK
6
CONTINUOUS
10
335.738
20
-151.18
11
335.69
21
-151.228
0
LINE
8
BLACK
6
CONTINUOUS
10
335.69
20
-151.228
11
335.643
21
-151.323
0
LINE
8
BLACK
6
CONTINUOUS
10
335.643
20
-151.323
11
335.643
21
-151.466
0
LINE
8
BLACK
6
CONTINUOUS
10
335.643
20
-151.466
11
335.69
21
-151.561
0
LINE
8
BLACK
6
CONTINUOUS
10
335.69
20
-151.561
11
335.738
21
-151.609
0
LINE
8
BLACK
6
CONTINUOUS
10
335.738
20
-151.609
11
335.833
21
-151.656
0
LINE
8
BLACK
6
CONTINUOUS
10
335.833
20
-151.656
11
336.214
21
-151.656
0
LINE
8
BLACK
6
CONTINUOUS
10
335.31
20
-151.132
11
334.69
21
-151.132
0
LINE
8
BLACK
6
CONTINUOUS
10
334.69
20
-151.132
11
335.024
21
-151.513
0
LINE
8
BLACK
6
CONTINUOUS
10
335.024
20
-151.513
11
334.881
21
-151.513
0
LINE
8
BLACK
6
CONTINUOUS
10
334.881
20
-151.513
11
334.786
21
-151.561
0
LINE
8
BLACK
6
CONTINUOUS
10
334.786
20
-151.561
11
334.738
21
-151.609
0
LINE
8
BLACK
6
CONTINUOUS
10
334.738
20
-151.609
11
334.69
21
-151.704
0
LINE
8
BLACK
6
CONTINUOUS
10
334.69
20
-151.704
11
334.69
21
-151.942
0
LINE
8
BLACK
6
CONTINUOUS
10
334.69
20
-151.942
11
334.738
21
-152.037
0
LINE
8
BLACK
6
CONTINUOUS
10
334.738
20
-152.037
11
334.786
21
-152.085
0
LINE
8
BLACK
6
CONTINUOUS
10
334.786
20
-152.085
11
334.881
21
-152.132
0
LINE
8
BLACK
6
CONTINUOUS
10
334.881
20
-152.132
11
335.167
21
-152.132
0
LINE
8
BLACK
6
CONTINUOUS
10
335.167
20
-152.132
11
335.262
21
-152.085
0
LINE
8
BLACK
6
CONTINUOUS
10
335.262
20
-152.085
11
335.31
21
-152.037
0
LINE
8
BLACK
6
CONTINUOUS
10
333.833
20
-151.466
11
333.833
21
-152.132
0
LINE
8
BLACK
6
CONTINUOUS
10
334.071
20
-151.085
11
334.31
21
-151.799
0
LINE
8
BLACK
6
CONTINUOUS
10
334.31
20
-151.799
11
333.69
21
-151.799
0
LINE
8
BLACK
6
CONTINUOUS
10
301.643
20
-172.198
11
301.976
21
-171.722
0
LINE
8
BLACK
6
CONTINUOUS
10
302.214
20
-172.198
11
302.214
21
-171.198
0
LINE
8
BLACK
6
CONTINUOUS
10
302.214
20
-171.198
11
301.833
21
-171.198
0
LINE
8
BLACK
6
CONTINUOUS
10
301.833
20
-171.198
11
301.738
21
-171.246
0
LINE
8
BLACK
6
CONTINUOUS
10
301.738
20
-171.246
11
301.69
21
-171.294
0
LINE
8
BLACK
6
CONTINUOUS
10
301.69
20
-171.294
11
301.643
21
-171.389
0
LINE
8
BLACK
6
CONTINUOUS
10
301.643
20
-171.389
11
301.643
21
-171.532
0
LINE
8
BLACK
6
CONTINUOUS
10
301.643
20
-171.532
11
301.69
21
-171.627
0
LINE
8
BLACK
6
CONTINUOUS
10
301.69
20
-171.627
11
301.738
21
-171.675
0
LINE
8
BLACK
6
CONTINUOUS
10
301.738
20
-171.675
11
301.833
21
-171.722
0
LINE
8
BLACK
6
CONTINUOUS
10
301.833
20
-171.722
11
302.214
21
-171.722
0
LINE
8
BLACK
6
CONTINUOUS
10
300.69
20
-172.198
11
301.262
21
-172.198
0
LINE
8
BLACK
6
CONTINUOUS
10
300.976
20
-172.198
11
300.976
21
-171.198
0
LINE
8
BLACK
6
CONTINUOUS
10
300.976
20
-171.198
11
301.071
21
-171.341
0
LINE
8
BLACK
6
CONTINUOUS
10
301.071
20
-171.341
11
301.167
21
-171.436
0
LINE
8
BLACK
6
CONTINUOUS
10
301.167
20
-171.436
11
301.262
21
-171.484
0
LINE
8
BLACK
6
CONTINUOUS
10
299.833
20
-171.532
11
299.833
21
-172.198
0
LINE
8
BLACK
6
CONTINUOUS
10
300.071
20
-171.151
11
300.31
21
-171.865
0
LINE
8
BLACK
6
CONTINUOUS
10
300.31
20
-171.865
11
299.69
21
-171.865
0
LINE
8
BLACK
6
CONTINUOUS
10
335.669
20
-137.146
11
336.002
21
-136.67
0
LINE
8
BLACK
6
CONTINUOUS
10
336.24
20
-137.146
11
336.24
21
-136.146
0
LINE
8
BLACK
6
CONTINUOUS
10
336.24
20
-136.146
11
335.859
21
-136.146
0
LINE
8
BLACK
6
CONTINUOUS
10
335.859
20
-136.146
11
335.764
21
-136.194
0
LINE
8
BLACK
6
CONTINUOUS
10
335.764
20
-136.194
11
335.716
21
-136.242
0
LINE
8
BLACK
6
CONTINUOUS
10
335.716
20
-136.242
11
335.669
21
-136.337
0
LINE
8
BLACK
6
CONTINUOUS
10
335.669
20
-136.337
11
335.669
21
-136.48
0
LINE
8
BLACK
6
CONTINUOUS
10
335.669
20
-136.48
11
335.716
21
-136.575
0
LINE
8
BLACK
6
CONTINUOUS
10
335.716
20
-136.575
11
335.764
21
-136.623
0
LINE
8
BLACK
6
CONTINUOUS
10
335.764
20
-136.623
11
335.859
21
-136.67
0
LINE
8
BLACK
6
CONTINUOUS
10
335.859
20
-136.67
11
336.24
21
-136.67
0
LINE
8
BLACK
6
CONTINUOUS
10
335.336
20
-136.146
11
334.716
21
-136.146
0
LINE
8
BLACK
6
CONTINUOUS
10
334.716
20
-136.146
11
335.05
21
-136.527
0
LINE
8
BLACK
6
CONTINUOUS
10
335.05
20
-136.527
11
334.907
21
-136.527
0
LINE
8
BLACK
6
CONTINUOUS
10
334.907
20
-136.527
11
334.812
21
-136.575
0
LINE
8
BLACK
6
CONTINUOUS
10
334.812
20
-136.575
11
334.764
21
-136.623
0
LINE
8
BLACK
6
CONTINUOUS
10
334.764
20
-136.623
11
334.716
21
-136.718
0
LINE
8
BLACK
6
CONTINUOUS
10
334.716
20
-136.718
11
334.716
21
-136.956
0
LINE
8
BLACK
6
CONTINUOUS
10
334.716
20
-136.956
11
334.764
21
-137.051
0
LINE
8
BLACK
6
CONTINUOUS
10
334.764
20
-137.051
11
334.812
21
-137.099
0
LINE
8
BLACK
6
CONTINUOUS
10
334.812
20
-137.099
11
334.907
21
-137.146
0
LINE
8
BLACK
6
CONTINUOUS
10
334.907
20
-137.146
11
335.193
21
-137.146
0
LINE
8
BLACK
6
CONTINUOUS
10
335.193
20
-137.146
11
335.288
21
-137.099
0
LINE
8
BLACK
6
CONTINUOUS
10
335.288
20
-137.099
11
335.336
21
-137.051
0
LINE
8
BLACK
6
CONTINUOUS
10
334.383
20
-136.146
11
333.716
21
-136.146
0
LINE
8
BLACK
6
CONTINUOUS
10
333.716
20
-136.146
11
334.145
21
-137.146
0
LINE
8
BLACK
6
CONTINUOUS
10
348.877
20
-96.7604
11
349.21
21
-96.2842
0
LINE
8
BLACK
6
CONTINUOUS
10
349.448
20
-96.7604
11
349.448
21
-95.7604
0
LINE
8
BLACK
6
CONTINUOUS
10
349.448
20
-95.7604
11
349.067
21
-95.7604
0
LINE
8
BLACK
6
CONTINUOUS
10
349.067
20
-95.7604
11
348.972
21
-95.808
0
LINE
8
BLACK
6
CONTINUOUS
10
348.972
20
-95.808
11
348.924
21
-95.8556
0
LINE
8
BLACK
6
CONTINUOUS
10
348.924
20
-95.8556
11
348.877
21
-95.9509
0
LINE
8
BLACK
6
CONTINUOUS
10
348.877
20
-95.9509
11
348.877
21
-96.0937
0
LINE
8
BLACK
6
CONTINUOUS
10
348.877
20
-96.0937
11
348.924
21
-96.189
0
LINE
8
BLACK
6
CONTINUOUS
10
348.924
20
-96.189
11
348.972
21
-96.2366
0
LINE
8
BLACK
6
CONTINUOUS
10
348.972
20
-96.2366
11
349.067
21
-96.2842
0
LINE
8
BLACK
6
CONTINUOUS
10
349.067
20
-96.2842
11
349.448
21
-96.2842
0
LINE
8
BLACK
6
CONTINUOUS
10
348.02
20
-96.0937
11
348.02
21
-96.7604
0
LINE
8
BLACK
6
CONTINUOUS
10
348.258
20
-95.7128
11
348.496
21
-96.427
0
LINE
8
BLACK
6
CONTINUOUS
10
348.496
20
-96.427
11
347.877
21
-96.427
0
LINE
8
BLACK
6
CONTINUOUS
10
347.591
20
-95.7604
11
346.972
21
-95.7604
0
LINE
8
BLACK
6
CONTINUOUS
10
346.972
20
-95.7604
11
347.305
21
-96.1413
0
LINE
8
BLACK
6
CONTINUOUS
10
347.305
20
-96.1413
11
347.163
21
-96.1413
0
LINE
8
BLACK
6
CONTINUOUS
10
347.163
20
-96.1413
11
347.067
21
-96.189
0
LINE
8
BLACK
6
CONTINUOUS
10
347.067
20
-96.189
11
347.02
21
-96.2366
0
LINE
8
BLACK
6
CONTINUOUS
10
347.02
20
-96.2366
11
346.972
21
-96.3318
0
LINE
8
BLACK
6
CONTINUOUS
10
346.972
20
-96.3318
11
346.972
21
-96.5699
0
LINE
8
BLACK
6
CONTINUOUS
10
346.972
20
-96.5699
11
347.02
21
-96.6651
0
LINE
8
BLACK
6
CONTINUOUS
10
347.02
20
-96.6651
11
347.067
21
-96.7128
0
LINE
8
BLACK
6
CONTINUOUS
10
347.067
20
-96.7128
11
347.163
21
-96.7604
0
LINE
8
BLACK
6
CONTINUOUS
10
347.163
20
-96.7604
11
347.448
21
-96.7604
0
LINE
8
BLACK
6
CONTINUOUS
10
347.448
20
-96.7604
11
347.544
21
-96.7128
0
LINE
8
BLACK
6
CONTINUOUS
10
347.544
20
-96.7128
11
347.591
21
-96.6651
0
LINE
8
BLACK
6
CONTINUOUS
10
348.877
20
-86.8544
11
349.21
21
-86.3782
0
LINE
8
BLACK
6
CONTINUOUS
10
349.448
20
-86.8544
11
349.448
21
-85.8544
0
LINE
8
BLACK
6
CONTINUOUS
10
349.448
20
-85.8544
11
349.067
21
-85.8544
0
LINE
8
BLACK
6
CONTINUOUS
10
349.067
20
-85.8544
11
348.972
21
-85.902
0
LINE
8
BLACK
6
CONTINUOUS
10
348.972
20
-85.902
11
348.924
21
-85.9496
0
LINE
8
BLACK
6
CONTINUOUS
10
348.924
20
-85.9496
11
348.877
21
-86.0449
0
LINE
8
BLACK
6
CONTINUOUS
10
348.877
20
-86.0449
11
348.877
21
-86.1877
0
LINE
8
BLACK
6
CONTINUOUS
10
348.877
20
-86.1877
11
348.924
21
-86.283
0
LINE
8
BLACK
6
CONTINUOUS
10
348.924
20
-86.283
11
348.972
21
-86.3306
0
LINE
8
BLACK
6
CONTINUOUS
10
348.972
20
-86.3306
11
349.067
21
-86.3782
0
LINE
8
BLACK
6
CONTINUOUS
10
349.067
20
-86.3782
11
349.448
21
-86.3782
0
LINE
8
BLACK
6
CONTINUOUS
10
348.02
20
-86.1877
11
348.02
21
-86.8544
0
LINE
8
BLACK
6
CONTINUOUS
10
348.258
20
-85.8068
11
348.496
21
-86.521
0
LINE
8
BLACK
6
CONTINUOUS
10
348.496
20
-86.521
11
347.877
21
-86.521
0
LINE
8
BLACK
6
CONTINUOUS
10
347.02
20
-85.8544
11
347.496
21
-85.8544
0
LINE
8
BLACK
6
CONTINUOUS
10
347.496
20
-85.8544
11
347.544
21
-86.3306
0
LINE
8
BLACK
6
CONTINUOUS
10
347.544
20
-86.3306
11
347.496
21
-86.283
0
LINE
8
BLACK
6
CONTINUOUS
10
347.496
20
-86.283
11
347.401
21
-86.2353
0
LINE
8
BLACK
6
CONTINUOUS
10
347.401
20
-86.2353
11
347.163
21
-86.2353
0
LINE
8
BLACK
6
CONTINUOUS
10
347.163
20
-86.2353
11
347.067
21
-86.283
0
LINE
8
BLACK
6
CONTINUOUS
10
347.067
20
-86.283
11
347.02
21
-86.3306
0
LINE
8
BLACK
6
CONTINUOUS
10
347.02
20
-86.3306
11
346.972
21
-86.4258
0
LINE
8
BLACK
6
CONTINUOUS
10
346.972
20
-86.4258
11
346.972
21
-86.6639
0
LINE
8
BLACK
6
CONTINUOUS
10
346.972
20
-86.6639
11
347.02
21
-86.7591
0
LINE
8
BLACK
6
CONTINUOUS
10
347.02
20
-86.7591
11
347.067
21
-86.8068
0
LINE
8
BLACK
6
CONTINUOUS
10
347.067
20
-86.8068
11
347.163
21
-86.8544
0
LINE
8
BLACK
6
CONTINUOUS
10
347.163
20
-86.8544
11
347.401
21
-86.8544
0
LINE
8
BLACK
6
CONTINUOUS
10
347.401
20
-86.8544
11
347.496
21
-86.8068
0
LINE
8
BLACK
6
CONTINUOUS
10
347.496
20
-86.8068
11
347.544
21
-86.7591
0
LINE
8
BLACK
6
CONTINUOUS
10
445.762
20
-271.347
11
445.286
21
-271.014
0
LINE
8
BLACK
6
CONTINUOUS
10
445.762
20
-270.776
11
444.762
21
-270.776
0
LINE
8
BLACK
6
CONTINUOUS
10
444.762
20
-270.776
11
444.762
21
-271.157
0
LINE
8
BLACK
6
CONTINUOUS
10
444.762
20
-271.157
11
444.81
21
-271.252
0
LINE
8
BLACK
6
CONTINUOUS
10
444.81
20
-271.252
11
444.858
21
-271.3
0
LINE
8
BLACK
6
CONTINUOUS
10
444.858
20
-271.3
11
444.953
21
-271.347
0
LINE
8
BLACK
6
CONTINUOUS
10
444.953
20
-271.347
11
445.096
21
-271.347
0
LINE
8
BLACK
6
CONTINUOUS
10
445.096
20
-271.347
11
445.191
21
-271.3
0
LINE
8
BLACK
6
CONTINUOUS
10
445.191
20
-271.3
11
445.239
21
-271.252
0
LINE
8
BLACK
6
CONTINUOUS
10
445.239
20
-271.252
11
445.286
21
-271.157
0
LINE
8
BLACK
6
CONTINUOUS
10
445.286
20
-271.157
11
445.286
21
-270.776
0
LINE
8
BLACK
6
CONTINUOUS
10
444.762
20
-272.252
11
444.762
21
-271.776
0
LINE
8
BLACK
6
CONTINUOUS
10
444.762
20
-271.776
11
445.239
21
-271.728
0
LINE
8
BLACK
6
CONTINUOUS
10
445.239
20
-271.728
11
445.191
21
-271.776
0
LINE
8
BLACK
6
CONTINUOUS
10
445.191
20
-271.776
11
445.143
21
-271.871
0
LINE
8
BLACK
6
CONTINUOUS
10
445.143
20
-271.871
11
445.143
21
-272.109
0
LINE
8
BLACK
6
CONTINUOUS
10
445.143
20
-272.109
11
445.191
21
-272.204
0
LINE
8
BLACK
6
CONTINUOUS
10
445.191
20
-272.204
11
445.239
21
-272.252
0
LINE
8
BLACK
6
CONTINUOUS
10
445.239
20
-272.252
11
445.334
21
-272.3
0
LINE
8
BLACK
6
CONTINUOUS
10
445.334
20
-272.3
11
445.572
21
-272.3
0
LINE
8
BLACK
6
CONTINUOUS
10
445.572
20
-272.3
11
445.667
21
-272.252
0
LINE
8
BLACK
6
CONTINUOUS
10
445.667
20
-272.252
11
445.715
21
-272.204
0
LINE
8
BLACK
6
CONTINUOUS
10
445.715
20
-272.204
11
445.762
21
-272.109
0
LINE
8
BLACK
6
CONTINUOUS
10
445.762
20
-272.109
11
445.762
21
-271.871
0
LINE
8
BLACK
6
CONTINUOUS
10
445.762
20
-271.871
11
445.715
21
-271.776
0
LINE
8
BLACK
6
CONTINUOUS
10
445.715
20
-271.776
11
445.667
21
-271.728
0
LINE
8
BLACK
6
CONTINUOUS
10
444.762
20
-273.204
11
444.762
21
-272.728
0
LINE
8
BLACK
6
CONTINUOUS
10
444.762
20
-272.728
11
445.239
21
-272.68
0
LINE
8
BLACK
6
CONTINUOUS
10
445.239
20
-272.68
11
445.191
21
-272.728
0
LINE
8
BLACK
6
CONTINUOUS
10
445.191
20
-272.728
11
445.143
21
-272.823
0
LINE
8
BLACK
6
CONTINUOUS
10
445.143
20
-272.823
11
445.143
21
-273.061
0
LINE
8
BLACK
6
CONTINUOUS
10
445.143
20
-273.061
11
445.191
21
-273.157
0
LINE
8
BLACK
6
CONTINUOUS
10
445.191
20
-273.157
11
445.239
21
-273.204
0
LINE
8
BLACK
6
CONTINUOUS
10
445.239
20
-273.204
11
445.334
21
-273.252
0
LINE
8
BLACK
6
CONTINUOUS
10
445.334
20
-273.252
11
445.572
21
-273.252
0
LINE
8
BLACK
6
CONTINUOUS
10
445.572
20
-273.252
11
445.667
21
-273.204
0
LINE
8
BLACK
6
CONTINUOUS
10
445.667
20
-273.204
11
445.715
21
-273.157
0
LINE
8
BLACK
6
CONTINUOUS
10
445.715
20
-273.157
11
445.762
21
-273.061
0
LINE
8
BLACK
6
CONTINUOUS
10
445.762
20
-273.061
11
445.762
21
-272.823
0
LINE
8
BLACK
6
CONTINUOUS
10
445.762
20
-272.823
11
445.715
21
-272.728
0
LINE
8
BLACK
6
CONTINUOUS
10
445.715
20
-272.728
11
445.667
21
-272.68
0
LINE
8
BLACK
6
CONTINUOUS
10
348.877
20
-121.906
11
349.21
21
-121.43
0
LINE
8
BLACK
6
CONTINUOUS
10
349.448
20
-121.906
11
349.448
21
-120.906
0
LINE
8
BLACK
6
CONTINUOUS
10
349.448
20
-120.906
11
349.067
21
-120.906
0
LINE
8
BLACK
6
CONTINUOUS
10
349.067
20
-120.906
11
348.972
21
-120.954
0
LINE
8
BLACK
6
CONTINUOUS
10
348.972
20
-120.954
11
348.924
21
-121.002
0
LINE
8
BLACK
6
CONTINUOUS
10
348.924
20
-121.002
11
348.877
21
-121.097
0
LINE
8
BLACK
6
CONTINUOUS
10
348.877
20
-121.097
11
348.877
21
-121.24
0
LINE
8
BLACK
6
CONTINUOUS
10
348.877
20
-121.24
11
348.924
21
-121.335
0
LINE
8
BLACK
6
CONTINUOUS
10
348.924
20
-121.335
11
348.972
21
-121.383
0
LINE
8
BLACK
6
CONTINUOUS
10
348.972
20
-121.383
11
349.067
21
-121.43
0
LINE
8
BLACK
6
CONTINUOUS
10
349.067
20
-121.43
11
349.448
21
-121.43
0
LINE
8
BLACK
6
CONTINUOUS
10
348.544
20
-120.906
11
347.924
21
-120.906
0
LINE
8
BLACK
6
CONTINUOUS
10
347.924
20
-120.906
11
348.258
21
-121.287
0
LINE
8
BLACK
6
CONTINUOUS
10
348.258
20
-121.287
11
348.115
21
-121.287
0
LINE
8
BLACK
6
CONTINUOUS
10
348.115
20
-121.287
11
348.02
21
-121.335
0
LINE
8
BLACK
6
CONTINUOUS
10
348.02
20
-121.335
11
347.972
21
-121.383
0
LINE
8
BLACK
6
CONTINUOUS
10
347.972
20
-121.383
11
347.924
21
-121.478
0
LINE
8
BLACK
6
CONTINUOUS
10
347.924
20
-121.478
11
347.924
21
-121.716
0
LINE
8
BLACK
6
CONTINUOUS
10
347.924
20
-121.716
11
347.972
21
-121.811
0
LINE
8
BLACK
6
CONTINUOUS
10
347.972
20
-121.811
11
348.02
21
-121.859
0
LINE
8
BLACK
6
CONTINUOUS
10
348.02
20
-121.859
11
348.115
21
-121.906
0
LINE
8
BLACK
6
CONTINUOUS
10
348.115
20
-121.906
11
348.401
21
-121.906
0
LINE
8
BLACK
6
CONTINUOUS
10
348.401
20
-121.906
11
348.496
21
-121.859
0
LINE
8
BLACK
6
CONTINUOUS
10
348.496
20
-121.859
11
348.544
21
-121.811
0
LINE
8
BLACK
6
CONTINUOUS
10
347.353
20
-121.335
11
347.448
21
-121.287
0
LINE
8
BLACK
6
CONTINUOUS
10
347.448
20
-121.287
11
347.496
21
-121.24
0
LINE
8
BLACK
6
CONTINUOUS
10
347.496
20
-121.24
11
347.544
21
-121.144
0
LINE
8
BLACK
6
CONTINUOUS
10
347.544
20
-121.144
11
347.544
21
-121.097
0
LINE
8
BLACK
6
CONTINUOUS
10
347.544
20
-121.097
11
347.496
21
-121.002
0
LINE
8
BLACK
6
CONTINUOUS
10
347.496
20
-121.002
11
347.448
21
-120.954
0
LINE
8
BLACK
6
CONTINUOUS
10
347.448
20
-120.954
11
347.353
21
-120.906
0
LINE
8
BLACK
6
CONTINUOUS
10
347.353
20
-120.906
11
347.163
21
-120.906
0
LINE
8
BLACK
6
CONTINUOUS
10
347.163
20
-120.906
11
347.067
21
-120.954
0
LINE
8
BLACK
6
CONTINUOUS
10
347.067
20
-120.954
11
347.02
21
-121.002
0
LINE
8
BLACK
6
CONTINUOUS
10
347.02
20
-121.002
11
346.972
21
-121.097
0
LINE
8
BLACK
6
CONTINUOUS
10
346.972
20
-121.097
11
346.972
21
-121.144
0
LINE
8
BLACK
6
CONTINUOUS
10
346.972
20
-121.144
11
347.02
21
-121.24
0
LINE
8
BLACK
6
CONTINUOUS
10
347.02
20
-121.24
11
347.067
21
-121.287
0
LINE
8
BLACK
6
CONTINUOUS
10
347.067
20
-121.287
11
347.163
21
-121.335
0
LINE
8
BLACK
6
CONTINUOUS
10
347.163
20
-121.335
11
347.353
21
-121.335
0
LINE
8
BLACK
6
CONTINUOUS
10
347.353
20
-121.335
11
347.448
21
-121.383
0
LINE
8
BLACK
6
CONTINUOUS
10
347.448
20
-121.383
11
347.496
21
-121.43
0
LINE
8
BLACK
6
CONTINUOUS
10
347.496
20
-121.43
11
347.544
21
-121.525
0
LINE
8
BLACK
6
CONTINUOUS
10
347.544
20
-121.525
11
347.544
21
-121.716
0
LINE
8
BLACK
6
CONTINUOUS
10
347.544
20
-121.716
11
347.496
21
-121.811
0
LINE
8
BLACK
6
CONTINUOUS
10
347.496
20
-121.811
11
347.448
21
-121.859
0
LINE
8
BLACK
6
CONTINUOUS
10
347.448
20
-121.859
11
347.353
21
-121.906
0
LINE
8
BLACK
6
CONTINUOUS
10
347.353
20
-121.906
11
347.163
21
-121.906
0
LINE
8
BLACK
6
CONTINUOUS
10
347.163
20
-121.906
11
347.067
21
-121.859
0
LINE
8
BLACK
6
CONTINUOUS
10
347.067
20
-121.859
11
347.02
21
-121.811
0
LINE
8
BLACK
6
CONTINUOUS
10
347.02
20
-121.811
11
346.972
21
-121.716
0
LINE
8
BLACK
6
CONTINUOUS
10
346.972
20
-121.716
11
346.972
21
-121.525
0
LINE
8
BLACK
6
CONTINUOUS
10
346.972
20
-121.525
11
347.02
21
-121.43
0
LINE
8
BLACK
6
CONTINUOUS
10
347.02
20
-121.43
11
347.067
21
-121.383
0
LINE
8
BLACK
6
CONTINUOUS
10
347.067
20
-121.383
11
347.163
21
-121.335
0
LINE
8
BLACK
6
CONTINUOUS
10
348.877
20
-106.666
11
349.21
21
-106.19
0
LINE
8
BLACK
6
CONTINUOUS
10
349.448
20
-106.666
11
349.448
21
-105.666
0
LINE
8
BLACK
6
CONTINUOUS
10
349.448
20
-105.666
11
349.067
21
-105.666
0
LINE
8
BLACK
6
CONTINUOUS
10
349.067
20
-105.666
11
348.972
21
-105.714
0
LINE
8
BLACK
6
CONTINUOUS
10
348.972
20
-105.714
11
348.924
21
-105.762
0
LINE
8
BLACK
6
CONTINUOUS
10
348.924
20
-105.762
11
348.877
21
-105.857
0
LINE
8
BLACK
6
CONTINUOUS
10
348.877
20
-105.857
11
348.877
21
-106
0
LINE
8
BLACK
6
CONTINUOUS
10
348.877
20
-106
11
348.924
21
-106.095
0
LINE
8
BLACK
6
CONTINUOUS
10
348.924
20
-106.095
11
348.972
21
-106.143
0
LINE
8
BLACK
6
CONTINUOUS
10
348.972
20
-106.143
11
349.067
21
-106.19
0
LINE
8
BLACK
6
CONTINUOUS
10
349.067
20
-106.19
11
349.448
21
-106.19
0
LINE
8
BLACK
6
CONTINUOUS
10
348.02
20
-106
11
348.02
21
-106.666
0
LINE
8
BLACK
6
CONTINUOUS
10
348.258
20
-105.619
11
348.496
21
-106.333
0
LINE
8
BLACK
6
CONTINUOUS
10
348.496
20
-106.333
11
347.877
21
-106.333
0
LINE
8
BLACK
6
CONTINUOUS
10
346.972
20
-106.666
11
347.544
21
-106.666
0
LINE
8
BLACK
6
CONTINUOUS
10
347.258
20
-106.666
11
347.258
21
-105.666
0
LINE
8
BLACK
6
CONTINUOUS
10
347.258
20
-105.666
11
347.353
21
-105.809
0
LINE
8
BLACK
6
CONTINUOUS
10
347.353
20
-105.809
11
347.448
21
-105.904
0
LINE
8
BLACK
6
CONTINUOUS
10
347.448
20
-105.904
11
347.544
21
-105.952
0
LINE
8
BLACK
6
CONTINUOUS
10
266.753
20
-142.302
11
267.086
21
-141.826
0
LINE
8
BLACK
6
CONTINUOUS
10
267.324
20
-142.302
11
267.324
21
-141.302
0
LINE
8
BLACK
6
CONTINUOUS
10
267.324
20
-141.302
11
266.943
21
-141.302
0
LINE
8
BLACK
6
CONTINUOUS
10
266.943
20
-141.302
11
266.848
21
-141.35
0
LINE
8
BLACK
6
CONTINUOUS
10
266.848
20
-141.35
11
266.8
21
-141.398
0
LINE
8
BLACK
6
CONTINUOUS
10
266.8
20
-141.398
11
266.753
21
-141.493
0
LINE
8
BLACK
6
CONTINUOUS
10
266.753
20
-141.493
11
266.753
21
-141.636
0
LINE
8
BLACK
6
CONTINUOUS
10
266.753
20
-141.636
11
266.8
21
-141.731
0
LINE
8
BLACK
6
CONTINUOUS
10
266.8
20
-141.731
11
266.848
21
-141.779
0
LINE
8
BLACK
6
CONTINUOUS
10
266.848
20
-141.779
11
266.943
21
-141.826
0
LINE
8
BLACK
6
CONTINUOUS
10
266.943
20
-141.826
11
267.324
21
-141.826
0
LINE
8
BLACK
6
CONTINUOUS
10
266.419
20
-141.302
11
265.753
21
-141.302
0
LINE
8
BLACK
6
CONTINUOUS
10
265.753
20
-141.302
11
266.181
21
-142.302
0
LINE
8
BLACK
6
CONTINUOUS
10
266.683
20
-157.272
11
267.016
21
-156.796
0
LINE
8
BLACK
6
CONTINUOUS
10
267.254
20
-157.272
11
267.254
21
-156.272
0
LINE
8
BLACK
6
CONTINUOUS
10
267.254
20
-156.272
11
266.873
21
-156.272
0
LINE
8
BLACK
6
CONTINUOUS
10
266.873
20
-156.272
11
266.778
21
-156.32
0
LINE
8
BLACK
6
CONTINUOUS
10
266.778
20
-156.32
11
266.73
21
-156.368
0
LINE
8
BLACK
6
CONTINUOUS
10
266.73
20
-156.368
11
266.683
21
-156.463
0
LINE
8
BLACK
6
CONTINUOUS
10
266.683
20
-156.463
11
266.683
21
-156.606
0
LINE
8
BLACK
6
CONTINUOUS
10
266.683
20
-156.606
11
266.73
21
-156.701
0
LINE
8
BLACK
6
CONTINUOUS
10
266.73
20
-156.701
11
266.778
21
-156.749
0
LINE
8
BLACK
6
CONTINUOUS
10
266.778
20
-156.749
11
266.873
21
-156.796
0
LINE
8
BLACK
6
CONTINUOUS
10
266.873
20
-156.796
11
267.254
21
-156.796
0
LINE
8
BLACK
6
CONTINUOUS
10
265.826
20
-156.606
11
265.826
21
-157.272
0
LINE
8
BLACK
6
CONTINUOUS
10
266.064
20
-156.225
11
266.302
21
-156.939
0
LINE
8
BLACK
6
CONTINUOUS
10
266.302
20
-156.939
11
265.683
21
-156.939
0
LINE
8
BLACK
6
CONTINUOUS
10
335.643
20
-162.292
11
335.976
21
-161.816
0
LINE
8
BLACK
6
CONTINUOUS
10
336.214
20
-162.292
11
336.214
21
-161.292
0
LINE
8
BLACK
6
CONTINUOUS
10
336.214
20
-161.292
11
335.833
21
-161.292
0
LINE
8
BLACK
6
CONTINUOUS
10
335.833
20
-161.292
11
335.738
21
-161.34
0
LINE
8
BLACK
6
CONTINUOUS
10
335.738
20
-161.34
11
335.69
21
-161.388
0
LINE
8
BLACK
6
CONTINUOUS
10
335.69
20
-161.388
11
335.643
21
-161.483
0
LINE
8
BLACK
6
CONTINUOUS
10
335.643
20
-161.483
11
335.643
21
-161.626
0
LINE
8
BLACK
6
CONTINUOUS
10
335.643
20
-161.626
11
335.69
21
-161.721
0
LINE
8
BLACK
6
CONTINUOUS
10
335.69
20
-161.721
11
335.738
21
-161.769
0
LINE
8
BLACK
6
CONTINUOUS
10
335.738
20
-161.769
11
335.833
21
-161.816
0
LINE
8
BLACK
6
CONTINUOUS
10
335.833
20
-161.816
11
336.214
21
-161.816
0
LINE
8
BLACK
6
CONTINUOUS
10
335.31
20
-161.292
11
334.69
21
-161.292
0
LINE
8
BLACK
6
CONTINUOUS
10
334.69
20
-161.292
11
335.024
21
-161.673
0
LINE
8
BLACK
6
CONTINUOUS
10
335.024
20
-161.673
11
334.881
21
-161.673
0
LINE
8
BLACK
6
CONTINUOUS
10
334.881
20
-161.673
11
334.786
21
-161.721
0
LINE
8
BLACK
6
CONTINUOUS
10
334.786
20
-161.721
11
334.738
21
-161.769
0
LINE
8
BLACK
6
CONTINUOUS
10
334.738
20
-161.769
11
334.69
21
-161.864
0
LINE
8
BLACK
6
CONTINUOUS
10
334.69
20
-161.864
11
334.69
21
-162.102
0
LINE
8
BLACK
6
CONTINUOUS
10
334.69
20
-162.102
11
334.738
21
-162.197
0
LINE
8
BLACK
6
CONTINUOUS
10
334.738
20
-162.197
11
334.786
21
-162.245
0
LINE
8
BLACK
6
CONTINUOUS
10
334.786
20
-162.245
11
334.881
21
-162.292
0
LINE
8
BLACK
6
CONTINUOUS
10
334.881
20
-162.292
11
335.167
21
-162.292
0
LINE
8
BLACK
6
CONTINUOUS
10
335.167
20
-162.292
11
335.262
21
-162.245
0
LINE
8
BLACK
6
CONTINUOUS
10
335.262
20
-162.245
11
335.31
21
-162.197
0
LINE
8
BLACK
6
CONTINUOUS
10
334.31
20
-161.388
11
334.262
21
-161.34
0
LINE
8
BLACK
6
CONTINUOUS
10
334.262
20
-161.34
11
334.167
21
-161.292
0
LINE
8
BLACK
6
CONTINUOUS
10
334.167
20
-161.292
11
333.929
21
-161.292
0
LINE
8
BLACK
6
CONTINUOUS
10
333.929
20
-161.292
11
333.833
21
-161.34
0
LINE
8
BLACK
6
CONTINUOUS
10
333.833
20
-161.34
11
333.786
21
-161.388
0
LINE
8
BLACK
6
CONTINUOUS
10
333.786
20
-161.388
11
333.738
21
-161.483
0
LINE
8
BLACK
6
CONTINUOUS
10
333.738
20
-161.483
11
333.738
21
-161.578
0
LINE
8
BLACK
6
CONTINUOUS
10
333.738
20
-161.578
11
333.786
21
-161.721
0
LINE
8
BLACK
6
CONTINUOUS
10
333.786
20
-161.721
11
334.357
21
-162.292
0
LINE
8
BLACK
6
CONTINUOUS
10
334.357
20
-162.292
11
333.738
21
-162.292
0
LINE
8
BLACK
6
CONTINUOUS
10
361.095
20
-111.746
11
361.428
21
-111.27
0
LINE
8
BLACK
6
CONTINUOUS
10
361.666
20
-111.746
11
361.666
21
-110.746
0
LINE
8
BLACK
6
CONTINUOUS
10
361.666
20
-110.746
11
361.285
21
-110.746
0
LINE
8
BLACK
6
CONTINUOUS
10
361.285
20
-110.746
11
361.19
21
-110.794
0
LINE
8
BLACK
6
CONTINUOUS
10
361.19
20
-110.794
11
361.142
21
-110.842
0
LINE
8
BLACK
6
CONTINUOUS
10
361.142
20
-110.842
11
361.095
21
-110.937
0
LINE
8
BLACK
6
CONTINUOUS
10
361.095
20
-110.937
11
361.095
21
-111.08
0
LINE
8
BLACK
6
CONTINUOUS
10
361.095
20
-111.08
11
361.142
21
-111.175
0
LINE
8
BLACK
6
CONTINUOUS
10
361.142
20
-111.175
11
361.19
21
-111.223
0
LINE
8
BLACK
6
CONTINUOUS
10
361.19
20
-111.223
11
361.285
21
-111.27
0
LINE
8
BLACK
6
CONTINUOUS
10
361.285
20
-111.27
11
361.666
21
-111.27
0
LINE
8
BLACK
6
CONTINUOUS
10
360.238
20
-111.08
11
360.238
21
-111.746
0
LINE
8
BLACK
6
CONTINUOUS
10
360.476
20
-110.699
11
360.714
21
-111.413
0
LINE
8
BLACK
6
CONTINUOUS
10
360.714
20
-111.413
11
360.095
21
-111.413
0
LINE
8
BLACK
6
CONTINUOUS
10
359.571
20
-111.175
11
359.666
21
-111.127
0
LINE
8
BLACK
6
CONTINUOUS
10
359.666
20
-111.127
11
359.714
21
-111.08
0
LINE
8
BLACK
6
CONTINUOUS
10
359.714
20
-111.08
11
359.762
21
-110.984
0
LINE
8
BLACK
6
CONTINUOUS
10
359.762
20
-110.984
11
359.762
21
-110.937
0
LINE
8
BLACK
6
CONTINUOUS
10
359.762
20
-110.937
11
359.714
21
-110.842
0
LINE
8
BLACK
6
CONTINUOUS
10
359.714
20
-110.842
11
359.666
21
-110.794
0
LINE
8
BLACK
6
CONTINUOUS
10
359.666
20
-110.794
11
359.571
21
-110.746
0
LINE
8
BLACK
6
CONTINUOUS
10
359.571
20
-110.746
11
359.381
21
-110.746
0
LINE
8
BLACK
6
CONTINUOUS
10
359.381
20
-110.746
11
359.285
21
-110.794
0
LINE
8
BLACK
6
CONTINUOUS
10
359.285
20
-110.794
11
359.238
21
-110.842
0
LINE
8
BLACK
6
CONTINUOUS
10
359.238
20
-110.842
11
359.19
21
-110.937
0
LINE
8
BLACK
6
CONTINUOUS
10
359.19
20
-110.937
11
359.19
21
-110.984
0
LINE
8
BLACK
6
CONTINUOUS
10
359.19
20
-110.984
11
359.238
21
-111.08
0
LINE
8
BLACK
6
CONTINUOUS
10
359.238
20
-111.08
11
359.285
21
-111.127
0
LINE
8
BLACK
6
CONTINUOUS
10
359.285
20
-111.127
11
359.381
21
-111.175
0
LINE
8
BLACK
6
CONTINUOUS
10
359.381
20
-111.175
11
359.571
21
-111.175
0
LINE
8
BLACK
6
CONTINUOUS
10
359.571
20
-111.175
11
359.666
21
-111.223
0
LINE
8
BLACK
6
CONTINUOUS
10
359.666
20
-111.223
11
359.714
21
-111.27
0
LINE
8
BLACK
6
CONTINUOUS
10
359.714
20
-111.27
11
359.762
21
-111.365
0
LINE
8
BLACK
6
CONTINUOUS
10
359.762
20
-111.365
11
359.762
21
-111.556
0
LINE
8
BLACK
6
CONTINUOUS
10
359.762
20
-111.556
11
359.714
21
-111.651
0
LINE
8
BLACK
6
CONTINUOUS
10
359.714
20
-111.651
11
359.666
21
-111.699
0
LINE
8
BLACK
6
CONTINUOUS
10
359.666
20
-111.699
11
359.571
21
-111.746
0
LINE
8
BLACK
6
CONTINUOUS
10
359.571
20
-111.746
11
359.381
21
-111.746
0
LINE
8
BLACK
6
CONTINUOUS
10
359.381
20
-111.746
11
359.285
21
-111.699
0
LINE
8
BLACK
6
CONTINUOUS
10
359.285
20
-111.699
11
359.238
21
-111.651
0
LINE
8
BLACK
6
CONTINUOUS
10
359.238
20
-111.651
11
359.19
21
-111.556
0
LINE
8
BLACK
6
CONTINUOUS
10
359.19
20
-111.556
11
359.19
21
-111.365
0
LINE
8
BLACK
6
CONTINUOUS
10
359.19
20
-111.365
11
359.238
21
-111.27
0
LINE
8
BLACK
6
CONTINUOUS
10
359.238
20
-111.27
11
359.285
21
-111.223
0
LINE
8
BLACK
6
CONTINUOUS
10
359.285
20
-111.223
11
359.381
21
-111.175
0
LINE
8
BLACK
6
CONTINUOUS
10
387.918
20
-87.4631
11
387.442
21
-87.1298
0
LINE
8
BLACK
6
CONTINUOUS
10
387.918
20
-86.8917
11
386.918
21
-86.8917
0
LINE
8
BLACK
6
CONTINUOUS
10
386.918
20
-86.8917
11
386.918
21
-87.2727
0
LINE
8
BLACK
6
CONTINUOUS
10
386.918
20
-87.2727
11
386.966
21
-87.3679
0
LINE
8
BLACK
6
CONTINUOUS
10
386.966
20
-87.3679
11
387.014
21
-87.4155
0
LINE
8
BLACK
6
CONTINUOUS
10
387.014
20
-87.4155
11
387.109
21
-87.4631
0
LINE
8
BLACK
6
CONTINUOUS
10
387.109
20
-87.4631
11
387.252
21
-87.4631
0
LINE
8
BLACK
6
CONTINUOUS
10
387.252
20
-87.4631
11
387.347
21
-87.4155
0
LINE
8
BLACK
6
CONTINUOUS
10
387.347
20
-87.4155
11
387.395
21
-87.3679
0
LINE
8
BLACK
6
CONTINUOUS
10
387.395
20
-87.3679
11
387.442
21
-87.2727
0
LINE
8
BLACK
6
CONTINUOUS
10
387.442
20
-87.2727
11
387.442
21
-86.8917
0
LINE
8
BLACK
6
CONTINUOUS
10
387.014
20
-87.8441
11
386.966
21
-87.8917
0
LINE
8
BLACK
6
CONTINUOUS
10
386.966
20
-87.8917
11
386.918
21
-87.987
0
LINE
8
BLACK
6
CONTINUOUS
10
386.918
20
-87.987
11
386.918
21
-88.225
0
LINE
8
BLACK
6
CONTINUOUS
10
386.918
20
-88.225
11
386.966
21
-88.3203
0
LINE
8
BLACK
6
CONTINUOUS
10
386.966
20
-88.3203
11
387.014
21
-88.3679
0
LINE
8
BLACK
6
CONTINUOUS
10
387.014
20
-88.3679
11
387.109
21
-88.4155
0
LINE
8
BLACK
6
CONTINUOUS
10
387.109
20
-88.4155
11
387.204
21
-88.4155
0
LINE
8
BLACK
6
CONTINUOUS
10
387.204
20
-88.4155
11
387.347
21
-88.3679
0
LINE
8
BLACK
6
CONTINUOUS
10
387.347
20
-88.3679
11
387.918
21
-87.7965
0
LINE
8
BLACK
6
CONTINUOUS
10
387.918
20
-87.7965
11
387.918
21
-88.4155
0
LINE
8
BLACK
6
CONTINUOUS
10
386.918
20
-88.7489
11
386.918
21
-89.4155
0
LINE
8
BLACK
6
CONTINUOUS
10
386.918
20
-89.4155
11
387.918
21
-88.987
0
LINE
8
BLACK
6
CONTINUOUS
10
301.643
20
-152.132
11
301.976
21
-151.656
0
LINE
8
BLACK
6
CONTINUOUS
10
302.214
20
-152.132
11
302.214
21
-151.132
0
LINE
8
BLACK
6
CONTINUOUS
10
302.214
20
-151.132
11
301.833
21
-151.132
0
LINE
8
BLACK
6
CONTINUOUS
10
301.833
20
-151.132
11
301.738
21
-151.18
0
LINE
8
BLACK
6
CONTINUOUS
10
301.738
20
-151.18
11
301.69
21
-151.228
0
LINE
8
BLACK
6
CONTINUOUS
10
301.69
20
-151.228
11
301.643
21
-151.323
0
LINE
8
BLACK
6
CONTINUOUS
10
301.643
20
-151.323
11
301.643
21
-151.466
0
LINE
8
BLACK
6
CONTINUOUS
10
301.643
20
-151.466
11
301.69
21
-151.561
0
LINE
8
BLACK
6
CONTINUOUS
10
301.69
20
-151.561
11
301.738
21
-151.609
0
LINE
8
BLACK
6
CONTINUOUS
10
301.738
20
-151.609
11
301.833
21
-151.656
0
LINE
8
BLACK
6
CONTINUOUS
10
301.833
20
-151.656
11
302.214
21
-151.656
0
LINE
8
BLACK
6
CONTINUOUS
10
300.69
20
-152.132
11
301.262
21
-152.132
0
LINE
8
BLACK
6
CONTINUOUS
10
300.976
20
-152.132
11
300.976
21
-151.132
0
LINE
8
BLACK
6
CONTINUOUS
10
300.976
20
-151.132
11
301.071
21
-151.275
0
LINE
8
BLACK
6
CONTINUOUS
10
301.071
20
-151.275
11
301.167
21
-151.37
0
LINE
8
BLACK
6
CONTINUOUS
10
301.167
20
-151.37
11
301.262
21
-151.418
0
LINE
8
BLACK
6
CONTINUOUS
10
300.119
20
-151.561
11
300.214
21
-151.513
0
LINE
8
BLACK
6
CONTINUOUS
10
300.214
20
-151.513
11
300.262
21
-151.466
0
LINE
8
BLACK
6
CONTINUOUS
10
300.262
20
-151.466
11
300.31
21
-151.37
0
LINE
8
BLACK
6
CONTINUOUS
10
300.31
20
-151.37
11
300.31
21
-151.323
0
LINE
8
BLACK
6
CONTINUOUS
10
300.31
20
-151.323
11
300.262
21
-151.228
0
LINE
8
BLACK
6
CONTINUOUS
10
300.262
20
-151.228
11
300.214
21
-151.18
0
LINE
8
BLACK
6
CONTINUOUS
10
300.214
20
-151.18
11
300.119
21
-151.132
0
LINE
8
BLACK
6
CONTINUOUS
10
300.119
20
-151.132
11
299.929
21
-151.132
0
LINE
8
BLACK
6
CONTINUOUS
10
299.929
20
-151.132
11
299.833
21
-151.18
0
LINE
8
BLACK
6
CONTINUOUS
10
299.833
20
-151.18
11
299.786
21
-151.228
0
LINE
8
BLACK
6
CONTINUOUS
10
299.786
20
-151.228
11
299.738
21
-151.323
0
LINE
8
BLACK
6
CONTINUOUS
10
299.738
20
-151.323
11
299.738
21
-151.37
0
LINE
8
BLACK
6
CONTINUOUS
10
299.738
20
-151.37
11
299.786
21
-151.466
0
LINE
8
BLACK
6
CONTINUOUS
10
299.786
20
-151.466
11
299.833
21
-151.513
0
LINE
8
BLACK
6
CONTINUOUS
10
299.833
20
-151.513
11
299.929
21
-151.561
0
LINE
8
BLACK
6
CONTINUOUS
10
299.929
20
-151.561
11
300.119
21
-151.561
0
LINE
8
BLACK
6
CONTINUOUS
10
300.119
20
-151.561
11
300.214
21
-151.609
0
LINE
8
BLACK
6
CONTINUOUS
10
300.214
20
-151.609
11
300.262
21
-151.656
0
LINE
8
BLACK
6
CONTINUOUS
10
300.262
20
-151.656
11
300.31
21
-151.751
0
LINE
8
BLACK
6
CONTINUOUS
10
300.31
20
-151.751
11
300.31
21
-151.942
0
LINE
8
BLACK
6
CONTINUOUS
10
300.31
20
-151.942
11
300.262
21
-152.037
0
LINE
8
BLACK
6
CONTINUOUS
10
300.262
20
-152.037
11
300.214
21
-152.085
0
LINE
8
BLACK
6
CONTINUOUS
10
300.214
20
-152.085
11
300.119
21
-152.132
0
LINE
8
BLACK
6
CONTINUOUS
10
300.119
20
-152.132
11
299.929
21
-152.132
0
LINE
8
BLACK
6
CONTINUOUS
10
299.929
20
-152.132
11
299.833
21
-152.085
0
LINE
8
BLACK
6
CONTINUOUS
10
299.833
20
-152.085
11
299.786
21
-152.037
0
LINE
8
BLACK
6
CONTINUOUS
10
299.786
20
-152.037
11
299.738
21
-151.942
0
LINE
8
BLACK
6
CONTINUOUS
10
299.738
20
-151.942
11
299.738
21
-151.751
0
LINE
8
BLACK
6
CONTINUOUS
10
299.738
20
-151.751
11
299.786
21
-151.656
0
LINE
8
BLACK
6
CONTINUOUS
10
299.786
20
-151.656
11
299.833
21
-151.609
0
LINE
8
BLACK
6
CONTINUOUS
10
299.833
20
-151.609
11
299.929
21
-151.561
0
LINE
8
BLACK
6
CONTINUOUS
10
258.558
20
-226.687
11
258.082
21
-226.354
0
LINE
8
BLACK
6
CONTINUOUS
10
258.558
20
-226.116
11
257.558
21
-226.116
0
LINE
8
BLACK
6
CONTINUOUS
10
257.558
20
-226.116
11
257.558
21
-226.497
0
LINE
8
BLACK
6
CONTINUOUS
10
257.558
20
-226.497
11
257.606
21
-226.592
0
LINE
8
BLACK
6
CONTINUOUS
10
257.606
20
-226.592
11
257.654
21
-226.64
0
LINE
8
BLACK
6
CONTINUOUS
10
257.654
20
-226.64
11
257.749
21
-226.687
0
LINE
8
BLACK
6
CONTINUOUS
10
257.749
20
-226.687
11
257.892
21
-226.687
0
LINE
8
BLACK
6
CONTINUOUS
10
257.892
20
-226.687
11
257.987
21
-226.64
0
LINE
8
BLACK
6
CONTINUOUS
10
257.987
20
-226.64
11
258.035
21
-226.592
0
LINE
8
BLACK
6
CONTINUOUS
10
258.035
20
-226.592
11
258.082
21
-226.497
0
LINE
8
BLACK
6
CONTINUOUS
10
258.082
20
-226.497
11
258.082
21
-226.116
0
LINE
8
BLACK
6
CONTINUOUS
10
257.654
20
-227.068
11
257.606
21
-227.116
0
LINE
8
BLACK
6
CONTINUOUS
10
257.606
20
-227.116
11
257.558
21
-227.211
0
LINE
8
BLACK
6
CONTINUOUS
10
257.558
20
-227.211
11
257.558
21
-227.449
0
LINE
8
BLACK
6
CONTINUOUS
10
257.558
20
-227.449
11
257.606
21
-227.544
0
LINE
8
BLACK
6
CONTINUOUS
10
257.606
20
-227.544
11
257.654
21
-227.592
0
LINE
8
BLACK
6
CONTINUOUS
10
257.654
20
-227.592
11
257.749
21
-227.64
0
LINE
8
BLACK
6
CONTINUOUS
10
257.749
20
-227.64
11
257.844
21
-227.64
0
LINE
8
BLACK
6
CONTINUOUS
10
257.844
20
-227.64
11
257.987
21
-227.592
0
LINE
8
BLACK
6
CONTINUOUS
10
257.987
20
-227.592
11
258.558
21
-227.02
0
LINE
8
BLACK
6
CONTINUOUS
10
258.558
20
-227.02
11
258.558
21
-227.64
0
LINE
8
BLACK
6
CONTINUOUS
10
257.654
20
-228.02
11
257.606
21
-228.068
0
LINE
8
BLACK
6
CONTINUOUS
10
257.606
20
-228.068
11
257.558
21
-228.163
0
LINE
8
BLACK
6
CONTINUOUS
10
257.558
20
-228.163
11
257.558
21
-228.401
0
LINE
8
BLACK
6
CONTINUOUS
10
257.558
20
-228.401
11
257.606
21
-228.497
0
LINE
8
BLACK
6
CONTINUOUS
10
257.606
20
-228.497
11
257.654
21
-228.544
0
LINE
8
BLACK
6
CONTINUOUS
10
257.654
20
-228.544
11
257.749
21
-228.592
0
LINE
8
BLACK
6
CONTINUOUS
10
257.749
20
-228.592
11
257.844
21
-228.592
0
LINE
8
BLACK
6
CONTINUOUS
10
257.844
20
-228.592
11
257.987
21
-228.544
0
LINE
8
BLACK
6
CONTINUOUS
10
257.987
20
-228.544
11
258.558
21
-227.973
0
LINE
8
BLACK
6
CONTINUOUS
10
258.558
20
-227.973
11
258.558
21
-228.592
0
LINE
8
BLACK
6
CONTINUOUS
10
225.164
20
-87.5851
11
224.688
21
-87.2518
0
LINE
8
BLACK
6
CONTINUOUS
10
225.164
20
-87.0137
11
224.164
21
-87.0137
0
LINE
8
BLACK
6
CONTINUOUS
10
224.164
20
-87.0137
11
224.164
21
-87.3947
0
LINE
8
BLACK
6
CONTINUOUS
10
224.164
20
-87.3947
11
224.212
21
-87.4899
0
LINE
8
BLACK
6
CONTINUOUS
10
224.212
20
-87.4899
11
224.26
21
-87.5375
0
LINE
8
BLACK
6
CONTINUOUS
10
224.26
20
-87.5375
11
224.355
21
-87.5851
0
LINE
8
BLACK
6
CONTINUOUS
10
224.355
20
-87.5851
11
224.498
21
-87.5851
0
LINE
8
BLACK
6
CONTINUOUS
10
224.498
20
-87.5851
11
224.593
21
-87.5375
0
LINE
8
BLACK
6
CONTINUOUS
10
224.593
20
-87.5375
11
224.641
21
-87.4899
0
LINE
8
BLACK
6
CONTINUOUS
10
224.641
20
-87.4899
11
224.688
21
-87.3947
0
LINE
8
BLACK
6
CONTINUOUS
10
224.688
20
-87.3947
11
224.688
21
-87.0137
0
LINE
8
BLACK
6
CONTINUOUS
10
225.164
20
-88.5375
11
225.164
21
-87.9661
0
LINE
8
BLACK
6
CONTINUOUS
10
225.164
20
-88.2518
11
224.164
21
-88.2518
0
LINE
8
BLACK
6
CONTINUOUS
10
224.164
20
-88.2518
11
224.307
21
-88.1566
0
LINE
8
BLACK
6
CONTINUOUS
10
224.307
20
-88.1566
11
224.402
21
-88.0613
0
LINE
8
BLACK
6
CONTINUOUS
10
224.402
20
-88.0613
11
224.45
21
-87.9661
0
LINE
8
BLACK
6
CONTINUOUS
10
224.164
20
-88.8709
11
224.164
21
-89.4899
0
LINE
8
BLACK
6
CONTINUOUS
10
224.164
20
-89.4899
11
224.545
21
-89.1566
0
LINE
8
BLACK
6
CONTINUOUS
10
224.545
20
-89.1566
11
224.545
21
-89.2994
0
LINE
8
BLACK
6
CONTINUOUS
10
224.545
20
-89.2994
11
224.593
21
-89.3947
0
LINE
8
BLACK
6
CONTINUOUS
10
224.593
20
-89.3947
11
224.641
21
-89.4423
0
LINE
8
BLACK
6
CONTINUOUS
10
224.641
20
-89.4423
11
224.736
21
-89.4899
0
LINE
8
BLACK
6
CONTINUOUS
10
224.736
20
-89.4899
11
224.974
21
-89.4899
0
LINE
8
BLACK
6
CONTINUOUS
10
224.974
20
-89.4899
11
225.069
21
-89.4423
0
LINE
8
BLACK
6
CONTINUOUS
10
225.069
20
-89.4423
11
225.117
21
-89.3947
0
LINE
8
BLACK
6
CONTINUOUS
10
225.117
20
-89.3947
11
225.164
21
-89.2994
0
LINE
8
BLACK
6
CONTINUOUS
10
225.164
20
-89.2994
11
225.164
21
-89.0137
0
LINE
8
BLACK
6
CONTINUOUS
10
225.164
20
-89.0137
11
225.117
21
-88.9185
0
LINE
8
BLACK
6
CONTINUOUS
10
225.117
20
-88.9185
11
225.069
21
-88.8709
0
LINE
8
BLACK
6
CONTINUOUS
10
348.877
20
-101.586
11
349.21
21
-101.11
0
LINE
8
BLACK
6
CONTINUOUS
10
349.448
20
-101.586
11
349.448
21
-100.586
0
LINE
8
BLACK
6
CONTINUOUS
10
349.448
20
-100.586
11
349.067
21
-100.586
0
LINE
8
BLACK
6
CONTINUOUS
10
349.067
20
-100.586
11
348.972
21
-100.634
0
LINE
8
BLACK
6
CONTINUOUS
10
348.972
20
-100.634
11
348.924
21
-100.682
0
LINE
8
BLACK
6
CONTINUOUS
10
348.924
20
-100.682
11
348.877
21
-100.777
0
LINE
8
BLACK
6
CONTINUOUS
10
348.877
20
-100.777
11
348.877
21
-100.92
0
LINE
8
BLACK
6
CONTINUOUS
10
348.877
20
-100.92
11
348.924
21
-101.015
0
LINE
8
BLACK
6
CONTINUOUS
10
348.924
20
-101.015
11
348.972
21
-101.063
0
LINE
8
BLACK
6
CONTINUOUS
10
348.972
20
-101.063
11
349.067
21
-101.11
0
LINE
8
BLACK
6
CONTINUOUS
10
349.067
20
-101.11
11
349.448
21
-101.11
0
LINE
8
BLACK
6
CONTINUOUS
10
348.02
20
-100.92
11
348.02
21
-101.586
0
LINE
8
BLACK
6
CONTINUOUS
10
348.258
20
-100.539
11
348.496
21
-101.253
0
LINE
8
BLACK
6
CONTINUOUS
10
348.496
20
-101.253
11
347.877
21
-101.253
0
LINE
8
BLACK
6
CONTINUOUS
10
347.544
20
-100.682
11
347.496
21
-100.634
0
LINE
8
BLACK
6
CONTINUOUS
10
347.496
20
-100.634
11
347.401
21
-100.586
0
LINE
8
BLACK
6
CONTINUOUS
10
347.401
20
-100.586
11
347.163
21
-100.586
0
LINE
8
BLACK
6
CONTINUOUS
10
347.163
20
-100.586
11
347.067
21
-100.634
0
LINE
8
BLACK
6
CONTINUOUS
10
347.067
20
-100.634
11
347.02
21
-100.682
0
LINE
8
BLACK
6
CONTINUOUS
10
347.02
20
-100.682
11
346.972
21
-100.777
0
LINE
8
BLACK
6
CONTINUOUS
10
346.972
20
-100.777
11
346.972
21
-100.872
0
LINE
8
BLACK
6
CONTINUOUS
10
346.972
20
-100.872
11
347.02
21
-101.015
0
LINE
8
BLACK
6
CONTINUOUS
10
347.02
20
-101.015
11
347.591
21
-101.586
0
LINE
8
BLACK
6
CONTINUOUS
10
347.591
20
-101.586
11
346.972
21
-101.586
0
LINE
8
BLACK
6
CONTINUOUS
10
301.643
20
-157.212
11
301.976
21
-156.736
0
LINE
8
BLACK
6
CONTINUOUS
10
302.214
20
-157.212
11
302.214
21
-156.212
0
LINE
8
BLACK
6
CONTINUOUS
10
302.214
20
-156.212
11
301.833
21
-156.212
0
LINE
8
BLACK
6
CONTINUOUS
10
301.833
20
-156.212
11
301.738
21
-156.26
0
LINE
8
BLACK
6
CONTINUOUS
10
301.738
20
-156.26
11
301.69
21
-156.308
0
LINE
8
BLACK
6
CONTINUOUS
10
301.69
20
-156.308
11
301.643
21
-156.403
0
LINE
8
BLACK
6
CONTINUOUS
10
301.643
20
-156.403
11
301.643
21
-156.546
0
LINE
8
BLACK
6
CONTINUOUS
10
301.643
20
-156.546
11
301.69
21
-156.641
0
LINE
8
BLACK
6
CONTINUOUS
10
301.69
20
-156.641
11
301.738
21
-156.689
0
LINE
8
BLACK
6
CONTINUOUS
10
301.738
20
-156.689
11
301.833
21
-156.736
0
LINE
8
BLACK
6
CONTINUOUS
10
301.833
20
-156.736
11
302.214
21
-156.736
0
LINE
8
BLACK
6
CONTINUOUS
10
300.69
20
-157.212
11
301.262
21
-157.212
0
LINE
8
BLACK
6
CONTINUOUS
10
300.976
20
-157.212
11
300.976
21
-156.212
0
LINE
8
BLACK
6
CONTINUOUS
10
300.976
20
-156.212
11
301.071
21
-156.355
0
LINE
8
BLACK
6
CONTINUOUS
10
301.071
20
-156.355
11
301.167
21
-156.45
0
LINE
8
BLACK
6
CONTINUOUS
10
301.167
20
-156.45
11
301.262
21
-156.498
0
LINE
8
BLACK
6
CONTINUOUS
10
300.357
20
-156.212
11
299.69
21
-156.212
0
LINE
8
BLACK
6
CONTINUOUS
10
299.69
20
-156.212
11
300.119
21
-157.212
0
LINE
8
BLACK
6
CONTINUOUS
10
348.877
20
-111.746
11
349.21
21
-111.27
0
LINE
8
BLACK
6
CONTINUOUS
10
349.448
20
-111.746
11
349.448
21
-110.746
0
LINE
8
BLACK
6
CONTINUOUS
10
349.448
20
-110.746
11
349.067
21
-110.746
0
LINE
8
BLACK
6
CONTINUOUS
10
349.067
20
-110.746
11
348.972
21
-110.794
0
LINE
8
BLACK
6
CONTINUOUS
10
348.972
20
-110.794
11
348.924
21
-110.842
0
LINE
8
BLACK
6
CONTINUOUS
10
348.924
20
-110.842
11
348.877
21
-110.937
0
LINE
8
BLACK
6
CONTINUOUS
10
348.877
20
-110.937
11
348.877
21
-111.08
0
LINE
8
BLACK
6
CONTINUOUS
10
348.877
20
-111.08
11
348.924
21
-111.175
0
LINE
8
BLACK
6
CONTINUOUS
10
348.924
20
-111.175
11
348.972
21
-111.223
0
LINE
8
BLACK
6
CONTINUOUS
10
348.972
20
-111.223
11
349.067
21
-111.27
0
LINE
8
BLACK
6
CONTINUOUS
10
349.067
20
-111.27
11
349.448
21
-111.27
0
LINE
8
BLACK
6
CONTINUOUS
10
348.02
20
-111.08
11
348.02
21
-111.746
0
LINE
8
BLACK
6
CONTINUOUS
10
348.258
20
-110.699
11
348.496
21
-111.413
0
LINE
8
BLACK
6
CONTINUOUS
10
348.496
20
-111.413
11
347.877
21
-111.413
0
LINE
8
BLACK
6
CONTINUOUS
10
347.305
20
-110.746
11
347.21
21
-110.746
0
LINE
8
BLACK
6
CONTINUOUS
10
347.21
20
-110.746
11
347.115
21
-110.794
0
LINE
8
BLACK
6
CONTINUOUS
10
347.115
20
-110.794
11
347.067
21
-110.842
0
LINE
8
BLACK
6
CONTINUOUS
10
347.067
20
-110.842
11
347.02
21
-110.937
0
LINE
8
BLACK
6
CONTINUOUS
10
347.02
20
-110.937
11
346.972
21
-111.127
0
LINE
8
BLACK
6
CONTINUOUS
10
346.972
20
-111.127
11
346.972
21
-111.365
0
LINE
8
BLACK
6
CONTINUOUS
10
346.972
20
-111.365
11
347.02
21
-111.556
0
LINE
8
BLACK
6
CONTINUOUS
10
347.02
20
-111.556
11
347.067
21
-111.651
0
LINE
8
BLACK
6
CONTINUOUS
10
347.067
20
-111.651
11
347.115
21
-111.699
0
LINE
8
BLACK
6
CONTINUOUS
10
347.115
20
-111.699
11
347.21
21
-111.746
0
LINE
8
BLACK
6
CONTINUOUS
10
347.21
20
-111.746
11
347.305
21
-111.746
0
LINE
8
BLACK
6
CONTINUOUS
10
347.305
20
-111.746
11
347.401
21
-111.699
0
LINE
8
BLACK
6
CONTINUOUS
10
347.401
20
-111.699
11
347.448
21
-111.651
0
LINE
8
BLACK
6
CONTINUOUS
10
347.448
20
-111.651
11
347.496
21
-111.556
0
LINE
8
BLACK
6
CONTINUOUS
10
347.496
20
-111.556
11
347.544
21
-111.365
0
LINE
8
BLACK
6
CONTINUOUS
10
347.544
20
-111.365
11
347.544
21
-111.127
0
LINE
8
BLACK
6
CONTINUOUS
10
347.544
20
-111.127
11
347.496
21
-110.937
0
LINE
8
BLACK
6
CONTINUOUS
10
347.496
20
-110.937
11
347.448
21
-110.842
0
LINE
8
BLACK
6
CONTINUOUS
10
347.448
20
-110.842
11
347.401
21
-110.794
0
LINE
8
BLACK
6
CONTINUOUS
10
347.401
20
-110.794
11
347.305
21
-110.746
0
LINE
8
BLACK
6
CONTINUOUS
10
348.877
20
-91.9344
11
349.21
21
-91.4582
0
LINE
8
BLACK
6
CONTINUOUS
10
349.448
20
-91.9344
11
349.448
21
-90.9344
0
LINE
8
BLACK
6
CONTINUOUS
10
349.448
20
-90.9344
11
349.067
21
-90.9344
0
LINE
8
BLACK
6
CONTINUOUS
10
349.067
20
-90.9344
11
348.972
21
-90.982
0
LINE
8
BLACK
6
CONTINUOUS
10
348.972
20
-90.982
11
348.924
21
-91.0296
0
LINE
8
BLACK
6
CONTINUOUS
10
348.924
20
-91.0296
11
348.877
21
-91.1249
0
LINE
8
BLACK
6
CONTINUOUS
10
348.877
20
-91.1249
11
348.877
21
-91.2677
0
LINE
8
BLACK
6
CONTINUOUS
10
348.877
20
-91.2677
11
348.924
21
-91.363
0
LINE
8
BLACK
6
CONTINUOUS
10
348.924
20
-91.363
11
348.972
21
-91.4106
0
LINE
8
BLACK
6
CONTINUOUS
10
348.972
20
-91.4106
11
349.067
21
-91.4582
0
LINE
8
BLACK
6
CONTINUOUS
10
349.067
20
-91.4582
11
349.448
21
-91.4582
0
LINE
8
BLACK
6
CONTINUOUS
10
348.02
20
-91.2677
11
348.02
21
-91.9344
0
LINE
8
BLACK
6
CONTINUOUS
10
348.258
20
-90.8868
11
348.496
21
-91.601
0
LINE
8
BLACK
6
CONTINUOUS
10
348.496
20
-91.601
11
347.877
21
-91.601
0
LINE
8
BLACK
6
CONTINUOUS
10
347.067
20
-91.2677
11
347.067
21
-91.9344
0
LINE
8
BLACK
6
CONTINUOUS
10
347.305
20
-90.8868
11
347.544
21
-91.601
0
LINE
8
BLACK
6
CONTINUOUS
10
347.544
20
-91.601
11
346.924
21
-91.601
0
LINE
8
BLACK
6
CONTINUOUS
10
301.633
20
-147.306
11
301.966
21
-146.83
0
LINE
8
BLACK
6
CONTINUOUS
10
302.204
20
-147.306
11
302.204
21
-146.306
0
LINE
8
BLACK
6
CONTINUOUS
10
302.204
20
-146.306
11
301.823
21
-146.306
0
LINE
8
BLACK
6
CONTINUOUS
10
301.823
20
-146.306
11
301.728
21
-146.354
0
LINE
8
BLACK
6
CONTINUOUS
10
301.728
20
-146.354
11
301.68
21
-146.402
0
LINE
8
BLACK
6
CONTINUOUS
10
301.68
20
-146.402
11
301.633
21
-146.497
0
LINE
8
BLACK
6
CONTINUOUS
10
301.633
20
-146.497
11
301.633
21
-146.64
0
LINE
8
BLACK
6
CONTINUOUS
10
301.633
20
-146.64
11
301.68
21
-146.735
0
LINE
8
BLACK
6
CONTINUOUS
10
301.68
20
-146.735
11
301.728
21
-146.783
0
LINE
8
BLACK
6
CONTINUOUS
10
301.728
20
-146.783
11
301.823
21
-146.83
0
LINE
8
BLACK
6
CONTINUOUS
10
301.823
20
-146.83
11
302.204
21
-146.83
0
LINE
8
BLACK
6
CONTINUOUS
10
300.68
20
-147.306
11
301.252
21
-147.306
0
LINE
8
BLACK
6
CONTINUOUS
10
300.966
20
-147.306
11
300.966
21
-146.306
0
LINE
8
BLACK
6
CONTINUOUS
10
300.966
20
-146.306
11
301.061
21
-146.449
0
LINE
8
BLACK
6
CONTINUOUS
10
301.061
20
-146.449
11
301.157
21
-146.544
0
LINE
8
BLACK
6
CONTINUOUS
10
301.157
20
-146.544
11
301.252
21
-146.592
0
LINE
8
BLACK
6
CONTINUOUS
10
300.204
20
-147.306
11
300.014
21
-147.306
0
LINE
8
BLACK
6
CONTINUOUS
10
300.014
20
-147.306
11
299.919
21
-147.259
0
LINE
8
BLACK
6
CONTINUOUS
10
299.919
20
-147.259
11
299.871
21
-147.211
0
LINE
8
BLACK
6
CONTINUOUS
10
299.871
20
-147.211
11
299.776
21
-147.068
0
LINE
8
BLACK
6
CONTINUOUS
10
299.776
20
-147.068
11
299.728
21
-146.878
0
LINE
8
BLACK
6
CONTINUOUS
10
299.728
20
-146.878
11
299.728
21
-146.497
0
LINE
8
BLACK
6
CONTINUOUS
10
299.728
20
-146.497
11
299.776
21
-146.402
0
LINE
8
BLACK
6
CONTINUOUS
10
299.776
20
-146.402
11
299.823
21
-146.354
0
LINE
8
BLACK
6
CONTINUOUS
10
299.823
20
-146.354
11
299.919
21
-146.306
0
LINE
8
BLACK
6
CONTINUOUS
10
299.919
20
-146.306
11
300.109
21
-146.306
0
LINE
8
BLACK
6
CONTINUOUS
10
300.109
20
-146.306
11
300.204
21
-146.354
0
LINE
8
BLACK
6
CONTINUOUS
10
300.204
20
-146.354
11
300.252
21
-146.402
0
LINE
8
BLACK
6
CONTINUOUS
10
300.252
20
-146.402
11
300.3
21
-146.497
0
LINE
8
BLACK
6
CONTINUOUS
10
300.3
20
-146.497
11
300.3
21
-146.735
0
LINE
8
BLACK
6
CONTINUOUS
10
300.3
20
-146.735
11
300.252
21
-146.83
0
LINE
8
BLACK
6
CONTINUOUS
10
300.252
20
-146.83
11
300.204
21
-146.878
0
LINE
8
BLACK
6
CONTINUOUS
10
300.204
20
-146.878
11
300.109
21
-146.925
0
LINE
8
BLACK
6
CONTINUOUS
10
300.109
20
-146.925
11
299.919
21
-146.925
0
LINE
8
BLACK
6
CONTINUOUS
10
299.919
20
-146.925
11
299.823
21
-146.878
0
LINE
8
BLACK
6
CONTINUOUS
10
299.823
20
-146.878
11
299.776
21
-146.83
0
LINE
8
BLACK
6
CONTINUOUS
10
299.776
20
-146.83
11
299.728
21
-146.735
0
LINE
8
BLACK
6
CONTINUOUS
10
301.643
20
-142.226
11
301.976
21
-141.75
0
LINE
8
BLACK
6
CONTINUOUS
10
302.214
20
-142.226
11
302.214
21
-141.226
0
LINE
8
BLACK
6
CONTINUOUS
10
302.214
20
-141.226
11
301.833
21
-141.226
0
LINE
8
BLACK
6
CONTINUOUS
10
301.833
20
-141.226
11
301.738
21
-141.274
0
LINE
8
BLACK
6
CONTINUOUS
10
301.738
20
-141.274
11
301.69
21
-141.322
0
LINE
8
BLACK
6
CONTINUOUS
10
301.69
20
-141.322
11
301.643
21
-141.417
0
LINE
8
BLACK
6
CONTINUOUS
10
301.643
20
-141.417
11
301.643
21
-141.56
0
LINE
8
BLACK
6
CONTINUOUS
10
301.643
20
-141.56
11
301.69
21
-141.655
0
LINE
8
BLACK
6
CONTINUOUS
10
301.69
20
-141.655
11
301.738
21
-141.703
0
LINE
8
BLACK
6
CONTINUOUS
10
301.738
20
-141.703
11
301.833
21
-141.75
0
LINE
8
BLACK
6
CONTINUOUS
10
301.833
20
-141.75
11
302.214
21
-141.75
0
LINE
8
BLACK
6
CONTINUOUS
10
301.262
20
-141.322
11
301.214
21
-141.274
0
LINE
8
BLACK
6
CONTINUOUS
10
301.214
20
-141.274
11
301.119
21
-141.226
0
LINE
8
BLACK
6
CONTINUOUS
10
301.119
20
-141.226
11
300.881
21
-141.226
0
LINE
8
BLACK
6
CONTINUOUS
10
300.881
20
-141.226
11
300.786
21
-141.274
0
LINE
8
BLACK
6
CONTINUOUS
10
300.786
20
-141.274
11
300.738
21
-141.322
0
LINE
8
BLACK
6
CONTINUOUS
10
300.738
20
-141.322
11
300.69
21
-141.417
0
LINE
8
BLACK
6
CONTINUOUS
10
300.69
20
-141.417
11
300.69
21
-141.512
0
LINE
8
BLACK
6
CONTINUOUS
10
300.69
20
-141.512
11
300.738
21
-141.655
0
LINE
8
BLACK
6
CONTINUOUS
10
300.738
20
-141.655
11
301.31
21
-142.226
0
LINE
8
BLACK
6
CONTINUOUS
10
301.31
20
-142.226
11
300.69
21
-142.226
0
LINE
8
BLACK
6
CONTINUOUS
10
300.071
20
-141.226
11
299.976
21
-141.226
0
LINE
8
BLACK
6
CONTINUOUS
10
299.976
20
-141.226
11
299.881
21
-141.274
0
LINE
8
BLACK
6
CONTINUOUS
10
299.881
20
-141.274
11
299.833
21
-141.322
0
LINE
8
BLACK
6
CONTINUOUS
10
299.833
20
-141.322
11
299.786
21
-141.417
0
LINE
8
BLACK
6
CONTINUOUS
10
299.786
20
-141.417
11
299.738
21
-141.607
0
LINE
8
BLACK
6
CONTINUOUS
10
299.738
20
-141.607
11
299.738
21
-141.845
0
LINE
8
BLACK
6
CONTINUOUS
10
299.738
20
-141.845
11
299.786
21
-142.036
0
LINE
8
BLACK
6
CONTINUOUS
10
299.786
20
-142.036
11
299.833
21
-142.131
0
LINE
8
BLACK
6
CONTINUOUS
10
299.833
20
-142.131
11
299.881
21
-142.179
0
LINE
8
BLACK
6
CONTINUOUS
10
299.881
20
-142.179
11
299.976
21
-142.226
0
LINE
8
BLACK
6
CONTINUOUS
10
299.976
20
-142.226
11
300.071
21
-142.226
0
LINE
8
BLACK
6
CONTINUOUS
10
300.071
20
-142.226
11
300.167
21
-142.179
0
LINE
8
BLACK
6
CONTINUOUS
10
300.167
20
-142.179
11
300.214
21
-142.131
0
LINE
8
BLACK
6
CONTINUOUS
10
300.214
20
-142.131
11
300.262
21
-142.036
0
LINE
8
BLACK
6
CONTINUOUS
10
300.262
20
-142.036
11
300.31
21
-141.845
0
LINE
8
BLACK
6
CONTINUOUS
10
300.31
20
-141.845
11
300.31
21
-141.607
0
LINE
8
BLACK
6
CONTINUOUS
10
300.31
20
-141.607
11
300.262
21
-141.417
0
LINE
8
BLACK
6
CONTINUOUS
10
300.262
20
-141.417
11
300.214
21
-141.322
0
LINE
8
BLACK
6
CONTINUOUS
10
300.214
20
-141.322
11
300.167
21
-141.274
0
LINE
8
BLACK
6
CONTINUOUS
10
300.167
20
-141.274
11
300.071
21
-141.226
0
LINE
8
BLACK
6
CONTINUOUS
10
192.288
20
-271.063
11
191.812
21
-270.73
0
LINE
8
BLACK
6
CONTINUOUS
10
192.288
20
-270.492
11
191.288
21
-270.492
0
LINE
8
BLACK
6
CONTINUOUS
10
191.288
20
-270.492
11
191.288
21
-270.873
0
LINE
8
BLACK
6
CONTINUOUS
10
191.288
20
-270.873
11
191.335
21
-270.968
0
LINE
8
BLACK
6
CONTINUOUS
10
191.335
20
-270.968
11
191.383
21
-271.015
0
LINE
8
BLACK
6
CONTINUOUS
10
191.383
20
-271.015
11
191.478
21
-271.063
0
LINE
8
BLACK
6
CONTINUOUS
10
191.478
20
-271.063
11
191.621
21
-271.063
0
LINE
8
BLACK
6
CONTINUOUS
10
191.621
20
-271.063
11
191.716
21
-271.015
0
LINE
8
BLACK
6
CONTINUOUS
10
191.716
20
-271.015
11
191.764
21
-270.968
0
LINE
8
BLACK
6
CONTINUOUS
10
191.764
20
-270.968
11
191.812
21
-270.873
0
LINE
8
BLACK
6
CONTINUOUS
10
191.812
20
-270.873
11
191.812
21
-270.492
0
LINE
8
BLACK
6
CONTINUOUS
10
191.288
20
-271.968
11
191.288
21
-271.492
0
LINE
8
BLACK
6
CONTINUOUS
10
191.288
20
-271.492
11
191.764
21
-271.444
0
LINE
8
BLACK
6
CONTINUOUS
10
191.764
20
-271.444
11
191.716
21
-271.492
0
LINE
8
BLACK
6
CONTINUOUS
10
191.716
20
-271.492
11
191.669
21
-271.587
0
LINE
8
BLACK
6
CONTINUOUS
10
191.669
20
-271.587
11
191.669
21
-271.825
0
LINE
8
BLACK
6
CONTINUOUS
10
191.669
20
-271.825
11
191.716
21
-271.92
0
LINE
8
BLACK
6
CONTINUOUS
10
191.716
20
-271.92
11
191.764
21
-271.968
0
LINE
8
BLACK
6
CONTINUOUS
10
191.764
20
-271.968
11
191.859
21
-272.015
0
LINE
8
BLACK
6
CONTINUOUS
10
191.859
20
-272.015
11
192.097
21
-272.015
0
LINE
8
BLACK
6
CONTINUOUS
10
192.097
20
-272.015
11
192.193
21
-271.968
0
LINE
8
BLACK
6
CONTINUOUS
10
192.193
20
-271.968
11
192.24
21
-271.92
0
LINE
8
BLACK
6
CONTINUOUS
10
192.24
20
-271.92
11
192.288
21
-271.825
0
LINE
8
BLACK
6
CONTINUOUS
10
192.288
20
-271.825
11
192.288
21
-271.587
0
LINE
8
BLACK
6
CONTINUOUS
10
192.288
20
-271.587
11
192.24
21
-271.492
0
LINE
8
BLACK
6
CONTINUOUS
10
192.24
20
-271.492
11
192.193
21
-271.444
0
LINE
8
BLACK
6
CONTINUOUS
10
191.621
20
-272.873
11
192.288
21
-272.873
0
LINE
8
BLACK
6
CONTINUOUS
10
191.24
20
-272.634
11
191.954
21
-272.396
0
LINE
8
BLACK
6
CONTINUOUS
10
191.954
20
-272.396
11
191.954
21
-273.015
0
LINE
8
BLACK
6
CONTINUOUS
10
335.643
20
-167.118
11
335.976
21
-166.642
0
LINE
8
BLACK
6
CONTINUOUS
10
336.214
20
-167.118
11
336.214
21
-166.118
0
LINE
8
BLACK
6
CONTINUOUS
10
336.214
20
-166.118
11
335.833
21
-166.118
0
LINE
8
BLACK
6
CONTINUOUS
10
335.833
20
-166.118
11
335.738
21
-166.166
0
LINE
8
BLACK
6
CONTINUOUS
10
335.738
20
-166.166
11
335.69
21
-166.214
0
LINE
8
BLACK
6
CONTINUOUS
10
335.69
20
-166.214
11
335.643
21
-166.309
0
LINE
8
BLACK
6
CONTINUOUS
10
335.643
20
-166.309
11
335.643
21
-166.452
0
LINE
8
BLACK
6
CONTINUOUS
10
335.643
20
-166.452
11
335.69
21
-166.547
0
LINE
8
BLACK
6
CONTINUOUS
10
335.69
20
-166.547
11
335.738
21
-166.595
0
LINE
8
BLACK
6
CONTINUOUS
10
335.738
20
-166.595
11
335.833
21
-166.642
0
LINE
8
BLACK
6
CONTINUOUS
10
335.833
20
-166.642
11
336.214
21
-166.642
0
LINE
8
BLACK
6
CONTINUOUS
10
335.31
20
-166.118
11
334.69
21
-166.118
0
LINE
8
BLACK
6
CONTINUOUS
10
334.69
20
-166.118
11
335.024
21
-166.499
0
LINE
8
BLACK
6
CONTINUOUS
10
335.024
20
-166.499
11
334.881
21
-166.499
0
LINE
8
BLACK
6
CONTINUOUS
10
334.881
20
-166.499
11
334.786
21
-166.547
0
LINE
8
BLACK
6
CONTINUOUS
10
334.786
20
-166.547
11
334.738
21
-166.595
0
LINE
8
BLACK
6
CONTINUOUS
10
334.738
20
-166.595
11
334.69
21
-166.69
0
LINE
8
BLACK
6
CONTINUOUS
10
334.69
20
-166.69
11
334.69
21
-166.928
0
LINE
8
BLACK
6
CONTINUOUS
10
334.69
20
-166.928
11
334.738
21
-167.023
0
LINE
8
BLACK
6
CONTINUOUS
10
334.738
20
-167.023
11
334.786
21
-167.071
0
LINE
8
BLACK
6
CONTINUOUS
10
334.786
20
-167.071
11
334.881
21
-167.118
0
LINE
8
BLACK
6
CONTINUOUS
10
334.881
20
-167.118
11
335.167
21
-167.118
0
LINE
8
BLACK
6
CONTINUOUS
10
335.167
20
-167.118
11
335.262
21
-167.071
0
LINE
8
BLACK
6
CONTINUOUS
10
335.262
20
-167.071
11
335.31
21
-167.023
0
LINE
8
BLACK
6
CONTINUOUS
10
333.738
20
-167.118
11
334.31
21
-167.118
0
LINE
8
BLACK
6
CONTINUOUS
10
334.024
20
-167.118
11
334.024
21
-166.118
0
LINE
8
BLACK
6
CONTINUOUS
10
334.024
20
-166.118
11
334.119
21
-166.261
0
LINE
8
BLACK
6
CONTINUOUS
10
334.119
20
-166.261
11
334.214
21
-166.356
0
LINE
8
BLACK
6
CONTINUOUS
10
334.214
20
-166.356
11
334.31
21
-166.404
0
LINE
8
BLACK
6
CONTINUOUS
10
335.643
20
-157.212
11
335.976
21
-156.736
0
LINE
8
BLACK
6
CONTINUOUS
10
336.214
20
-157.212
11
336.214
21
-156.212
0
LINE
8
BLACK
6
CONTINUOUS
10
336.214
20
-156.212
11
335.833
21
-156.212
0
LINE
8
BLACK
6
CONTINUOUS
10
335.833
20
-156.212
11
335.738
21
-156.26
0
LINE
8
BLACK
6
CONTINUOUS
10
335.738
20
-156.26
11
335.69
21
-156.308
0
LINE
8
BLACK
6
CONTINUOUS
10
335.69
20
-156.308
11
335.643
21
-156.403
0
LINE
8
BLACK
6
CONTINUOUS
10
335.643
20
-156.403
11
335.643
21
-156.546
0
LINE
8
BLACK
6
CONTINUOUS
10
335.643
20
-156.546
11
335.69
21
-156.641
0
LINE
8
BLACK
6
CONTINUOUS
10
335.69
20
-156.641
11
335.738
21
-156.689
0
LINE
8
BLACK
6
CONTINUOUS
10
335.738
20
-156.689
11
335.833
21
-156.736
0
LINE
8
BLACK
6
CONTINUOUS
10
335.833
20
-156.736
11
336.214
21
-156.736
0
LINE
8
BLACK
6
CONTINUOUS
10
335.31
20
-156.212
11
334.69
21
-156.212
0
LINE
8
BLACK
6
CONTINUOUS
10
334.69
20
-156.212
11
335.024
21
-156.593
0
LINE
8
BLACK
6
CONTINUOUS
10
335.024
20
-156.593
11
334.881
21
-156.593
0
LINE
8
BLACK
6
CONTINUOUS
10
334.881
20
-156.593
11
334.786
21
-156.641
0
LINE
8
BLACK
6
CONTINUOUS
10
334.786
20
-156.641
11
334.738
21
-156.689
0
LINE
8
BLACK
6
CONTINUOUS
10
334.738
20
-156.689
11
334.69
21
-156.784
0
LINE
8
BLACK
6
CONTINUOUS
10
334.69
20
-156.784
11
334.69
21
-157.022
0
LINE
8
BLACK
6
CONTINUOUS
10
334.69
20
-157.022
11
334.738
21
-157.117
0
LINE
8
BLACK
6
CONTINUOUS
10
334.738
20
-157.117
11
334.786
21
-157.165
0
LINE
8
BLACK
6
CONTINUOUS
10
334.786
20
-157.165
11
334.881
21
-157.212
0
LINE
8
BLACK
6
CONTINUOUS
10
334.881
20
-157.212
11
335.167
21
-157.212
0
LINE
8
BLACK
6
CONTINUOUS
10
335.167
20
-157.212
11
335.262
21
-157.165
0
LINE
8
BLACK
6
CONTINUOUS
10
335.262
20
-157.165
11
335.31
21
-157.117
0
LINE
8
BLACK
6
CONTINUOUS
10
334.357
20
-156.212
11
333.738
21
-156.212
0
LINE
8
BLACK
6
CONTINUOUS
10
333.738
20
-156.212
11
334.071
21
-156.593
0
LINE
8
BLACK
6
CONTINUOUS
10
334.071
20
-156.593
11
333.929
21
-156.593
0
LINE
8
BLACK
6
CONTINUOUS
10
333.929
20
-156.593
11
333.833
21
-156.641
0
LINE
8
BLACK
6
CONTINUOUS
10
333.833
20
-156.641
11
333.786
21
-156.689
0
LINE
8
BLACK
6
CONTINUOUS
10
333.786
20
-156.689
11
333.738
21
-156.784
0
LINE
8
BLACK
6
CONTINUOUS
10
333.738
20
-156.784
11
333.738
21
-157.022
0
LINE
8
BLACK
6
CONTINUOUS
10
333.738
20
-157.022
11
333.786
21
-157.117
0
LINE
8
BLACK
6
CONTINUOUS
10
333.786
20
-157.117
11
333.833
21
-157.165
0
LINE
8
BLACK
6
CONTINUOUS
10
333.833
20
-157.165
11
333.929
21
-157.212
0
LINE
8
BLACK
6
CONTINUOUS
10
333.929
20
-157.212
11
334.214
21
-157.212
0
LINE
8
BLACK
6
CONTINUOUS
10
334.214
20
-157.212
11
334.31
21
-157.165
0
LINE
8
BLACK
6
CONTINUOUS
10
334.31
20
-157.165
11
334.357
21
-157.117
0
LINE
8
BLACK
6
CONTINUOUS
10
361.043
20
-106.666
11
361.376
21
-106.19
0
LINE
8
BLACK
6
CONTINUOUS
10
361.614
20
-106.666
11
361.614
21
-105.666
0
LINE
8
BLACK
6
CONTINUOUS
10
361.614
20
-105.666
11
361.233
21
-105.666
0
LINE
8
BLACK
6
CONTINUOUS
10
361.233
20
-105.666
11
361.138
21
-105.714
0
LINE
8
BLACK
6
CONTINUOUS
10
361.138
20
-105.714
11
361.09
21
-105.762
0
LINE
8
BLACK
6
CONTINUOUS
10
361.09
20
-105.762
11
361.043
21
-105.857
0
LINE
8
BLACK
6
CONTINUOUS
10
361.043
20
-105.857
11
361.043
21
-106
0
LINE
8
BLACK
6
CONTINUOUS
10
361.043
20
-106
11
361.09
21
-106.095
0
LINE
8
BLACK
6
CONTINUOUS
10
361.09
20
-106.095
11
361.138
21
-106.143
0
LINE
8
BLACK
6
CONTINUOUS
10
361.138
20
-106.143
11
361.233
21
-106.19
0
LINE
8
BLACK
6
CONTINUOUS
10
361.233
20
-106.19
11
361.614
21
-106.19
0
LINE
8
BLACK
6
CONTINUOUS
10
360.186
20
-106
11
360.186
21
-106.666
0
LINE
8
BLACK
6
CONTINUOUS
10
360.424
20
-105.619
11
360.662
21
-106.333
0
LINE
8
BLACK
6
CONTINUOUS
10
360.662
20
-106.333
11
360.043
21
-106.333
0
LINE
8
BLACK
6
CONTINUOUS
10
359.614
20
-106.666
11
359.424
21
-106.666
0
LINE
8
BLACK
6
CONTINUOUS
10
359.424
20
-106.666
11
359.329
21
-106.619
0
LINE
8
BLACK
6
CONTINUOUS
10
359.329
20
-106.619
11
359.281
21
-106.571
0
LINE
8
BLACK
6
CONTINUOUS
10
359.281
20
-106.571
11
359.186
21
-106.428
0
LINE
8
BLACK
6
CONTINUOUS
10
359.186
20
-106.428
11
359.138
21
-106.238
0
LINE
8
BLACK
6
CONTINUOUS
10
359.138
20
-106.238
11
359.138
21
-105.857
0
LINE
8
BLACK
6
CONTINUOUS
10
359.138
20
-105.857
11
359.186
21
-105.762
0
LINE
8
BLACK
6
CONTINUOUS
10
359.186
20
-105.762
11
359.233
21
-105.714
0
LINE
8
BLACK
6
CONTINUOUS
10
359.233
20
-105.714
11
359.329
21
-105.666
0
LINE
8
BLACK
6
CONTINUOUS
10
359.329
20
-105.666
11
359.519
21
-105.666
0
LINE
8
BLACK
6
CONTINUOUS
10
359.519
20
-105.666
11
359.614
21
-105.714
0
LINE
8
BLACK
6
CONTINUOUS
10
359.614
20
-105.714
11
359.662
21
-105.762
0
LINE
8
BLACK
6
CONTINUOUS
10
359.662
20
-105.762
11
359.71
21
-105.857
0
LINE
8
BLACK
6
CONTINUOUS
10
359.71
20
-105.857
11
359.71
21
-106.095
0
LINE
8
BLACK
6
CONTINUOUS
10
359.71
20
-106.095
11
359.662
21
-106.19
0
LINE
8
BLACK
6
CONTINUOUS
10
359.662
20
-106.19
11
359.614
21
-106.238
0
LINE
8
BLACK
6
CONTINUOUS
10
359.614
20
-106.238
11
359.519
21
-106.285
0
LINE
8
BLACK
6
CONTINUOUS
10
359.519
20
-106.285
11
359.329
21
-106.285
0
LINE
8
BLACK
6
CONTINUOUS
10
359.329
20
-106.285
11
359.233
21
-106.238
0
LINE
8
BLACK
6
CONTINUOUS
10
359.233
20
-106.238
11
359.186
21
-106.19
0
LINE
8
BLACK
6
CONTINUOUS
10
359.186
20
-106.19
11
359.138
21
-106.095
0
LINE
8
BLACK
6
CONTINUOUS
10
266.733
20
-162.312
11
267.066
21
-161.836
0
LINE
8
BLACK
6
CONTINUOUS
10
267.304
20
-162.312
11
267.304
21
-161.312
0
LINE
8
BLACK
6
CONTINUOUS
10
267.304
20
-161.312
11
266.923
21
-161.312
0
LINE
8
BLACK
6
CONTINUOUS
10
266.923
20
-161.312
11
266.828
21
-161.36
0
LINE
8
BLACK
6
CONTINUOUS
10
266.828
20
-161.36
11
266.78
21
-161.408
0
LINE
8
BLACK
6
CONTINUOUS
10
266.78
20
-161.408
11
266.733
21
-161.503
0
LINE
8
BLACK
6
CONTINUOUS
10
266.733
20
-161.503
11
266.733
21
-161.646
0
LINE
8
BLACK
6
CONTINUOUS
10
266.733
20
-161.646
11
266.78
21
-161.741
0
LINE
8
BLACK
6
CONTINUOUS
10
266.78
20
-161.741
11
266.828
21
-161.789
0
LINE
8
BLACK
6
CONTINUOUS
10
266.828
20
-161.789
11
266.923
21
-161.836
0
LINE
8
BLACK
6
CONTINUOUS
10
266.923
20
-161.836
11
267.304
21
-161.836
0
LINE
8
BLACK
6
CONTINUOUS
10
266.399
20
-161.312
11
265.78
21
-161.312
0
LINE
8
BLACK
6
CONTINUOUS
10
265.78
20
-161.312
11
266.114
21
-161.693
0
LINE
8
BLACK
6
CONTINUOUS
10
266.114
20
-161.693
11
265.971
21
-161.693
0
LINE
8
BLACK
6
CONTINUOUS
10
265.971
20
-161.693
11
265.876
21
-161.741
0
LINE
8
BLACK
6
CONTINUOUS
10
265.876
20
-161.741
11
265.828
21
-161.789
0
LINE
8
BLACK
6
CONTINUOUS
10
265.828
20
-161.789
11
265.78
21
-161.884
0
LINE
8
BLACK
6
CONTINUOUS
10
265.78
20
-161.884
11
265.78
21
-162.122
0
LINE
8
BLACK
6
CONTINUOUS
10
265.78
20
-162.122
11
265.828
21
-162.217
0
LINE
8
BLACK
6
CONTINUOUS
10
265.828
20
-162.217
11
265.876
21
-162.265
0
LINE
8
BLACK
6
CONTINUOUS
10
265.876
20
-162.265
11
265.971
21
-162.312
0
LINE
8
BLACK
6
CONTINUOUS
10
265.971
20
-162.312
11
266.256
21
-162.312
0
LINE
8
BLACK
6
CONTINUOUS
10
266.256
20
-162.312
11
266.352
21
-162.265
0
LINE
8
BLACK
6
CONTINUOUS
10
266.352
20
-162.265
11
266.399
21
-162.217
0
LINE
8
BLACK
6
CONTINUOUS
10
361.095
20
-121.906
11
361.428
21
-121.43
0
LINE
8
BLACK
6
CONTINUOUS
10
361.666
20
-121.906
11
361.666
21
-120.906
0
LINE
8
BLACK
6
CONTINUOUS
10
361.666
20
-120.906
11
361.285
21
-120.906
0
LINE
8
BLACK
6
CONTINUOUS
10
361.285
20
-120.906
11
361.19
21
-120.954
0
LINE
8
BLACK
6
CONTINUOUS
10
361.19
20
-120.954
11
361.142
21
-121.002
0
LINE
8
BLACK
6
CONTINUOUS
10
361.142
20
-121.002
11
361.095
21
-121.097
0
LINE
8
BLACK
6
CONTINUOUS
10
361.095
20
-121.097
11
361.095
21
-121.24
0
LINE
8
BLACK
6
CONTINUOUS
10
361.095
20
-121.24
11
361.142
21
-121.335
0
LINE
8
BLACK
6
CONTINUOUS
10
361.142
20
-121.335
11
361.19
21
-121.383
0
LINE
8
BLACK
6
CONTINUOUS
10
361.19
20
-121.383
11
361.285
21
-121.43
0
LINE
8
BLACK
6
CONTINUOUS
10
361.285
20
-121.43
11
361.666
21
-121.43
0
LINE
8
BLACK
6
CONTINUOUS
10
360.238
20
-121.24
11
360.238
21
-121.906
0
LINE
8
BLACK
6
CONTINUOUS
10
360.476
20
-120.859
11
360.714
21
-121.573
0
LINE
8
BLACK
6
CONTINUOUS
10
360.714
20
-121.573
11
360.095
21
-121.573
0
LINE
8
BLACK
6
CONTINUOUS
10
359.285
20
-120.906
11
359.476
21
-120.906
0
LINE
8
BLACK
6
CONTINUOUS
10
359.476
20
-120.906
11
359.571
21
-120.954
0
LINE
8
BLACK
6
CONTINUOUS
10
359.571
20
-120.954
11
359.619
21
-121.002
0
LINE
8
BLACK
6
CONTINUOUS
10
359.619
20
-121.002
11
359.714
21
-121.144
0
LINE
8
BLACK
6
CONTINUOUS
10
359.714
20
-121.144
11
359.762
21
-121.335
0
LINE
8
BLACK
6
CONTINUOUS
10
359.762
20
-121.335
11
359.762
21
-121.716
0
LINE
8
BLACK
6
CONTINUOUS
10
359.762
20
-121.716
11
359.714
21
-121.811
0
LINE
8
BLACK
6
CONTINUOUS
10
359.714
20
-121.811
11
359.666
21
-121.859
0
LINE
8
BLACK
6
CONTINUOUS
10
359.666
20
-121.859
11
359.571
21
-121.906
0
LINE
8
BLACK
6
CONTINUOUS
10
359.571
20
-121.906
11
359.381
21
-121.906
0
LINE
8
BLACK
6
CONTINUOUS
10
359.381
20
-121.906
11
359.285
21
-121.859
0
LINE
8
BLACK
6
CONTINUOUS
10
359.285
20
-121.859
11
359.238
21
-121.811
0
LINE
8
BLACK
6
CONTINUOUS
10
359.238
20
-121.811
11
359.19
21
-121.716
0
LINE
8
BLACK
6
CONTINUOUS
10
359.19
20
-121.716
11
359.19
21
-121.478
0
LINE
8
BLACK
6
CONTINUOUS
10
359.19
20
-121.478
11
359.238
21
-121.383
0
LINE
8
BLACK
6
CONTINUOUS
10
359.238
20
-121.383
11
359.285
21
-121.335
0
LINE
8
BLACK
6
CONTINUOUS
10
359.285
20
-121.335
11
359.381
21
-121.287
0
LINE
8
BLACK
6
CONTINUOUS
10
359.381
20
-121.287
11
359.571
21
-121.287
0
LINE
8
BLACK
6
CONTINUOUS
10
359.571
20
-121.287
11
359.666
21
-121.335
0
LINE
8
BLACK
6
CONTINUOUS
10
359.666
20
-121.335
11
359.714
21
-121.383
0
LINE
8
BLACK
6
CONTINUOUS
10
359.714
20
-121.383
11
359.762
21
-121.478
0
LINE
8
BLACK
6
CONTINUOUS
10
301.643
20
-162.292
11
301.976
21
-161.816
0
LINE
8
BLACK
6
CONTINUOUS
10
302.214
20
-162.292
11
302.214
21
-161.292
0
LINE
8
BLACK
6
CONTINUOUS
10
302.214
20
-161.292
11
301.833
21
-161.292
0
LINE
8
BLACK
6
CONTINUOUS
10
301.833
20
-161.292
11
301.738
21
-161.34
0
LINE
8
BLACK
6
CONTINUOUS
10
301.738
20
-161.34
11
301.69
21
-161.388
0
LINE
8
BLACK
6
CONTINUOUS
10
301.69
20
-161.388
11
301.643
21
-161.483
0
LINE
8
BLACK
6
CONTINUOUS
10
301.643
20
-161.483
11
301.643
21
-161.626
0
LINE
8
BLACK
6
CONTINUOUS
10
301.643
20
-161.626
11
301.69
21
-161.721
0
LINE
8
BLACK
6
CONTINUOUS
10
301.69
20
-161.721
11
301.738
21
-161.769
0
LINE
8
BLACK
6
CONTINUOUS
10
301.738
20
-161.769
11
301.833
21
-161.816
0
LINE
8
BLACK
6
CONTINUOUS
10
301.833
20
-161.816
11
302.214
21
-161.816
0
LINE
8
BLACK
6
CONTINUOUS
10
300.69
20
-162.292
11
301.262
21
-162.292
0
LINE
8
BLACK
6
CONTINUOUS
10
300.976
20
-162.292
11
300.976
21
-161.292
0
LINE
8
BLACK
6
CONTINUOUS
10
300.976
20
-161.292
11
301.071
21
-161.435
0
LINE
8
BLACK
6
CONTINUOUS
10
301.071
20
-161.435
11
301.167
21
-161.53
0
LINE
8
BLACK
6
CONTINUOUS
10
301.167
20
-161.53
11
301.262
21
-161.578
0
LINE
8
BLACK
6
CONTINUOUS
10
299.833
20
-161.292
11
300.024
21
-161.292
0
LINE
8
BLACK
6
CONTINUOUS
10
300.024
20
-161.292
11
300.119
21
-161.34
0
LINE
8
BLACK
6
CONTINUOUS
10
300.119
20
-161.34
11
300.167
21
-161.388
0
LINE
8
BLACK
6
CONTINUOUS
10
300.167
20
-161.388
11
300.262
21
-161.53
0
LINE
8
BLACK
6
CONTINUOUS
10
300.262
20
-161.53
11
300.31
21
-161.721
0
LINE
8
BLACK
6
CONTINUOUS
10
300.31
20
-161.721
11
300.31
21
-162.102
0
LINE
8
BLACK
6
CONTINUOUS
10
300.31
20
-162.102
11
300.262
21
-162.197
0
LINE
8
BLACK
6
CONTINUOUS
10
300.262
20
-162.197
11
300.214
21
-162.245
0
LINE
8
BLACK
6
CONTINUOUS
10
300.214
20
-162.245
11
300.119
21
-162.292
0
LINE
8
BLACK
6
CONTINUOUS
10
300.119
20
-162.292
11
299.929
21
-162.292
0
LINE
8
BLACK
6
CONTINUOUS
10
299.929
20
-162.292
11
299.833
21
-162.245
0
LINE
8
BLACK
6
CONTINUOUS
10
299.833
20
-162.245
11
299.786
21
-162.197
0
LINE
8
BLACK
6
CONTINUOUS
10
299.786
20
-162.197
11
299.738
21
-162.102
0
LINE
8
BLACK
6
CONTINUOUS
10
299.738
20
-162.102
11
299.738
21
-161.864
0
LINE
8
BLACK
6
CONTINUOUS
10
299.738
20
-161.864
11
299.786
21
-161.769
0
LINE
8
BLACK
6
CONTINUOUS
10
299.786
20
-161.769
11
299.833
21
-161.721
0
LINE
8
BLACK
6
CONTINUOUS
10
299.833
20
-161.721
11
299.929
21
-161.673
0
LINE
8
BLACK
6
CONTINUOUS
10
299.929
20
-161.673
11
300.119
21
-161.673
0
LINE
8
BLACK
6
CONTINUOUS
10
300.119
20
-161.673
11
300.214
21
-161.721
0
LINE
8
BLACK
6
CONTINUOUS
10
300.214
20
-161.721
11
300.262
21
-161.769
0
LINE
8
BLACK
6
CONTINUOUS
10
300.262
20
-161.769
11
300.31
21
-161.864
0
LINE
8
BLACK
6
CONTINUOUS
10
266.653
20
-152.282
11
266.986
21
-151.806
0
LINE
8
BLACK
6
CONTINUOUS
10
267.224
20
-152.282
11
267.224
21
-151.282
0
LINE
8
BLACK
6
CONTINUOUS
10
267.224
20
-151.282
11
266.843
21
-151.282
0
LINE
8
BLACK
6
CONTINUOUS
10
266.843
20
-151.282
11
266.748
21
-151.33
0
LINE
8
BLACK
6
CONTINUOUS
10
266.748
20
-151.33
11
266.7
21
-151.378
0
LINE
8
BLACK
6
CONTINUOUS
10
266.7
20
-151.378
11
266.653
21
-151.473
0
LINE
8
BLACK
6
CONTINUOUS
10
266.653
20
-151.473
11
266.653
21
-151.616
0
LINE
8
BLACK
6
CONTINUOUS
10
266.653
20
-151.616
11
266.7
21
-151.711
0
LINE
8
BLACK
6
CONTINUOUS
10
266.7
20
-151.711
11
266.748
21
-151.759
0
LINE
8
BLACK
6
CONTINUOUS
10
266.748
20
-151.759
11
266.843
21
-151.806
0
LINE
8
BLACK
6
CONTINUOUS
10
266.843
20
-151.806
11
267.224
21
-151.806
0
LINE
8
BLACK
6
CONTINUOUS
10
265.748
20
-151.282
11
266.224
21
-151.282
0
LINE
8
BLACK
6
CONTINUOUS
10
266.224
20
-151.282
11
266.272
21
-151.759
0
LINE
8
BLACK
6
CONTINUOUS
10
266.272
20
-151.759
11
266.224
21
-151.711
0
LINE
8
BLACK
6
CONTINUOUS
10
266.224
20
-151.711
11
266.129
21
-151.663
0
LINE
8
BLACK
6
CONTINUOUS
10
266.129
20
-151.663
11
265.891
21
-151.663
0
LINE
8
BLACK
6
CONTINUOUS
10
265.891
20
-151.663
11
265.796
21
-151.711
0
LINE
8
BLACK
6
CONTINUOUS
10
265.796
20
-151.711
11
265.748
21
-151.759
0
LINE
8
BLACK
6
CONTINUOUS
10
265.748
20
-151.759
11
265.7
21
-151.854
0
LINE
8
BLACK
6
CONTINUOUS
10
265.7
20
-151.854
11
265.7
21
-152.092
0
LINE
8
BLACK
6
CONTINUOUS
10
265.7
20
-152.092
11
265.748
21
-152.187
0
LINE
8
BLACK
6
CONTINUOUS
10
265.748
20
-152.187
11
265.796
21
-152.235
0
LINE
8
BLACK
6
CONTINUOUS
10
265.796
20
-152.235
11
265.891
21
-152.282
0
LINE
8
BLACK
6
CONTINUOUS
10
265.891
20
-152.282
11
266.129
21
-152.282
0
LINE
8
BLACK
6
CONTINUOUS
10
266.129
20
-152.282
11
266.224
21
-152.235
0
LINE
8
BLACK
6
CONTINUOUS
10
266.224
20
-152.235
11
266.272
21
-152.187
0
LINE
8
BLACK
6
CONTINUOUS
10
266.783
20
-167.282
11
267.116
21
-166.806
0
LINE
8
BLACK
6
CONTINUOUS
10
267.354
20
-167.282
11
267.354
21
-166.282
0
LINE
8
BLACK
6
CONTINUOUS
10
267.354
20
-166.282
11
266.973
21
-166.282
0
LINE
8
BLACK
6
CONTINUOUS
10
266.973
20
-166.282
11
266.878
21
-166.33
0
LINE
8
BLACK
6
CONTINUOUS
10
266.878
20
-166.33
11
266.83
21
-166.378
0
LINE
8
BLACK
6
CONTINUOUS
10
266.83
20
-166.378
11
266.783
21
-166.473
0
LINE
8
BLACK
6
CONTINUOUS
10
266.783
20
-166.473
11
266.783
21
-166.616
0
LINE
8
BLACK
6
CONTINUOUS
10
266.783
20
-166.616
11
266.83
21
-166.711
0
LINE
8
BLACK
6
CONTINUOUS
10
266.83
20
-166.711
11
266.878
21
-166.759
0
LINE
8
BLACK
6
CONTINUOUS
10
266.878
20
-166.759
11
266.973
21
-166.806
0
LINE
8
BLACK
6
CONTINUOUS
10
266.973
20
-166.806
11
267.354
21
-166.806
0
LINE
8
BLACK
6
CONTINUOUS
10
266.402
20
-166.378
11
266.354
21
-166.33
0
LINE
8
BLACK
6
CONTINUOUS
10
266.354
20
-166.33
11
266.259
21
-166.282
0
LINE
8
BLACK
6
CONTINUOUS
10
266.259
20
-166.282
11
266.021
21
-166.282
0
LINE
8
BLACK
6
CONTINUOUS
10
266.021
20
-166.282
11
265.926
21
-166.33
0
LINE
8
BLACK
6
CONTINUOUS
10
265.926
20
-166.33
11
265.878
21
-166.378
0
LINE
8
BLACK
6
CONTINUOUS
10
265.878
20
-166.378
11
265.83
21
-166.473
0
LINE
8
BLACK
6
CONTINUOUS
10
265.83
20
-166.473
11
265.83
21
-166.568
0
LINE
8
BLACK
6
CONTINUOUS
10
265.83
20
-166.568
11
265.878
21
-166.711
0
LINE
8
BLACK
6
CONTINUOUS
10
265.878
20
-166.711
11
266.449
21
-167.282
0
LINE
8
BLACK
6
CONTINUOUS
10
266.449
20
-167.282
11
265.83
21
-167.282
0
LINE
8
BLACK
6
CONTINUOUS
10
361.043
20
-86.8544
11
361.376
21
-86.3782
0
LINE
8
BLACK
6
CONTINUOUS
10
361.614
20
-86.8544
11
361.614
21
-85.8544
0
LINE
8
BLACK
6
CONTINUOUS
10
361.614
20
-85.8544
11
361.233
21
-85.8544
0
LINE
8
BLACK
6
CONTINUOUS
10
361.233
20
-85.8544
11
361.138
21
-85.902
0
LINE
8
BLACK
6
CONTINUOUS
10
361.138
20
-85.902
11
361.09
21
-85.9496
0
LINE
8
BLACK
6
CONTINUOUS
10
361.09
20
-85.9496
11
361.043
21
-86.0449
0
LINE
8
BLACK
6
CONTINUOUS
10
361.043
20
-86.0449
11
361.043
21
-86.1877
0
LINE
8
BLACK
6
CONTINUOUS
10
361.043
20
-86.1877
11
361.09
21
-86.283
0
LINE
8
BLACK
6
CONTINUOUS
10
361.09
20
-86.283
11
361.138
21
-86.3306
0
LINE
8
BLACK
6
CONTINUOUS
10
361.138
20
-86.3306
11
361.233
21
-86.3782
0
LINE
8
BLACK
6
CONTINUOUS
10
361.233
20
-86.3782
11
361.614
21
-86.3782
0
LINE
8
BLACK
6
CONTINUOUS
10
360.138
20
-85.8544
11
360.614
21
-85.8544
0
LINE
8
BLACK
6
CONTINUOUS
10
360.614
20
-85.8544
11
360.662
21
-86.3306
0
LINE
8
BLACK
6
CONTINUOUS
10
360.662
20
-86.3306
11
360.614
21
-86.283
0
LINE
8
BLACK
6
CONTINUOUS
10
360.614
20
-86.283
11
360.519
21
-86.2353
0
LINE
8
BLACK
6
CONTINUOUS
10
360.519
20
-86.2353
11
360.281
21
-86.2353
0
LINE
8
BLACK
6
CONTINUOUS
10
360.281
20
-86.2353
11
360.186
21
-86.283
0
LINE
8
BLACK
6
CONTINUOUS
10
360.186
20
-86.283
11
360.138
21
-86.3306
0
LINE
8
BLACK
6
CONTINUOUS
10
360.138
20
-86.3306
11
360.09
21
-86.4258
0
LINE
8
BLACK
6
CONTINUOUS
10
360.09
20
-86.4258
11
360.09
21
-86.6639
0
LINE
8
BLACK
6
CONTINUOUS
10
360.09
20
-86.6639
11
360.138
21
-86.7591
0
LINE
8
BLACK
6
CONTINUOUS
10
360.138
20
-86.7591
11
360.186
21
-86.8068
0
LINE
8
BLACK
6
CONTINUOUS
10
360.186
20
-86.8068
11
360.281
21
-86.8544
0
LINE
8
BLACK
6
CONTINUOUS
10
360.281
20
-86.8544
11
360.519
21
-86.8544
0
LINE
8
BLACK
6
CONTINUOUS
10
360.519
20
-86.8544
11
360.614
21
-86.8068
0
LINE
8
BLACK
6
CONTINUOUS
10
360.614
20
-86.8068
11
360.662
21
-86.7591
0
LINE
8
BLACK
6
CONTINUOUS
10
359.757
20
-85.8544
11
359.138
21
-85.8544
0
LINE
8
BLACK
6
CONTINUOUS
10
359.138
20
-85.8544
11
359.471
21
-86.2353
0
LINE
8
BLACK
6
CONTINUOUS
10
359.471
20
-86.2353
11
359.329
21
-86.2353
0
LINE
8
BLACK
6
CONTINUOUS
10
359.329
20
-86.2353
11
359.233
21
-86.283
0
LINE
8
BLACK
6
CONTINUOUS
10
359.233
20
-86.283
11
359.186
21
-86.3306
0
LINE
8
BLACK
6
CONTINUOUS
10
359.186
20
-86.3306
11
359.138
21
-86.4258
0
LINE
8
BLACK
6
CONTINUOUS
10
359.138
20
-86.4258
11
359.138
21
-86.6639
0
LINE
8
BLACK
6
CONTINUOUS
10
359.138
20
-86.6639
11
359.186
21
-86.7591
0
LINE
8
BLACK
6
CONTINUOUS
10
359.186
20
-86.7591
11
359.233
21
-86.8068
0
LINE
8
BLACK
6
CONTINUOUS
10
359.233
20
-86.8068
11
359.329
21
-86.8544
0
LINE
8
BLACK
6
CONTINUOUS
10
359.329
20
-86.8544
11
359.614
21
-86.8544
0
LINE
8
BLACK
6
CONTINUOUS
10
359.614
20
-86.8544
11
359.71
21
-86.8068
0
LINE
8
BLACK
6
CONTINUOUS
10
359.71
20
-86.8068
11
359.757
21
-86.7591
0
LINE
8
BLACK
6
CONTINUOUS
10
335.643
20
-172.198
11
335.976
21
-171.722
0
LINE
8
BLACK
6
CONTINUOUS
10
336.214
20
-172.198
11
336.214
21
-171.198
0
LINE
8
BLACK
6
CONTINUOUS
10
336.214
20
-171.198
11
335.833
21
-171.198
0
LINE
8
BLACK
6
CONTINUOUS
10
335.833
20
-171.198
11
335.738
21
-171.246
0
LINE
8
BLACK
6
CONTINUOUS
10
335.738
20
-171.246
11
335.69
21
-171.294
0
LINE
8
BLACK
6
CONTINUOUS
10
335.69
20
-171.294
11
335.643
21
-171.389
0
LINE
8
BLACK
6
CONTINUOUS
10
335.643
20
-171.389
11
335.643
21
-171.532
0
LINE
8
BLACK
6
CONTINUOUS
10
335.643
20
-171.532
11
335.69
21
-171.627
0
LINE
8
BLACK
6
CONTINUOUS
10
335.69
20
-171.627
11
335.738
21
-171.675
0
LINE
8
BLACK
6
CONTINUOUS
10
335.738
20
-171.675
11
335.833
21
-171.722
0
LINE
8
BLACK
6
CONTINUOUS
10
335.833
20
-171.722
11
336.214
21
-171.722
0
LINE
8
BLACK
6
CONTINUOUS
10
335.31
20
-171.198
11
334.69
21
-171.198
0
LINE
8
BLACK
6
CONTINUOUS
10
334.69
20
-171.198
11
335.024
21
-171.579
0
LINE
8
BLACK
6
CONTINUOUS
10
335.024
20
-171.579
11
334.881
21
-171.579
0
LINE
8
BLACK
6
CONTINUOUS
10
334.881
20
-171.579
11
334.786
21
-171.627
0
LINE
8
BLACK
6
CONTINUOUS
10
334.786
20
-171.627
11
334.738
21
-171.675
0
LINE
8
BLACK
6
CONTINUOUS
10
334.738
20
-171.675
11
334.69
21
-171.77
0
LINE
8
BLACK
6
CONTINUOUS
10
334.69
20
-171.77
11
334.69
21
-172.008
0
LINE
8
BLACK
6
CONTINUOUS
10
334.69
20
-172.008
11
334.738
21
-172.103
0
LINE
8
BLACK
6
CONTINUOUS
10
334.738
20
-172.103
11
334.786
21
-172.151
0
LINE
8
BLACK
6
CONTINUOUS
10
334.786
20
-172.151
11
334.881
21
-172.198
0
LINE
8
BLACK
6
CONTINUOUS
10
334.881
20
-172.198
11
335.167
21
-172.198
0
LINE
8
BLACK
6
CONTINUOUS
10
335.167
20
-172.198
11
335.262
21
-172.151
0
LINE
8
BLACK
6
CONTINUOUS
10
335.262
20
-172.151
11
335.31
21
-172.103
0
LINE
8
BLACK
6
CONTINUOUS
10
334.071
20
-171.198
11
333.976
21
-171.198
0
LINE
8
BLACK
6
CONTINUOUS
10
333.976
20
-171.198
11
333.881
21
-171.246
0
LINE
8
BLACK
6
CONTINUOUS
10
333.881
20
-171.246
11
333.833
21
-171.294
0
LINE
8
BLACK
6
CONTINUOUS
10
333.833
20
-171.294
11
333.786
21
-171.389
0
LINE
8
BLACK
6
CONTINUOUS
10
333.786
20
-171.389
11
333.738
21
-171.579
0
LINE
8
BLACK
6
CONTINUOUS
10
333.738
20
-171.579
11
333.738
21
-171.817
0
LINE
8
BLACK
6
CONTINUOUS
10
333.738
20
-171.817
11
333.786
21
-172.008
0
LINE
8
BLACK
6
CONTINUOUS
10
333.786
20
-172.008
11
333.833
21
-172.103
0
LINE
8
BLACK
6
CONTINUOUS
10
333.833
20
-172.103
11
333.881
21
-172.151
0
LINE
8
BLACK
6
CONTINUOUS
10
333.881
20
-172.151
11
333.976
21
-172.198
0
LINE
8
BLACK
6
CONTINUOUS
10
333.976
20
-172.198
11
334.071
21
-172.198
0
LINE
8
BLACK
6
CONTINUOUS
10
334.071
20
-172.198
11
334.167
21
-172.151
0
LINE
8
BLACK
6
CONTINUOUS
10
334.167
20
-172.151
11
334.214
21
-172.103
0
LINE
8
BLACK
6
CONTINUOUS
10
334.214
20
-172.103
11
334.262
21
-172.008
0
LINE
8
BLACK
6
CONTINUOUS
10
334.262
20
-172.008
11
334.31
21
-171.817
0
LINE
8
BLACK
6
CONTINUOUS
10
334.31
20
-171.817
11
334.31
21
-171.579
0
LINE
8
BLACK
6
CONTINUOUS
10
334.31
20
-171.579
11
334.262
21
-171.389
0
LINE
8
BLACK
6
CONTINUOUS
10
334.262
20
-171.389
11
334.214
21
-171.294
0
LINE
8
BLACK
6
CONTINUOUS
10
334.214
20
-171.294
11
334.167
21
-171.246
0
LINE
8
BLACK
6
CONTINUOUS
10
334.167
20
-171.246
11
334.071
21
-171.198
0
LINE
8
BLACK
6
CONTINUOUS
10
266.683
20
-147.192
11
267.016
21
-146.716
0
LINE
8
BLACK
6
CONTINUOUS
10
267.254
20
-147.192
11
267.254
21
-146.192
0
LINE
8
BLACK
6
CONTINUOUS
10
267.254
20
-146.192
11
266.873
21
-146.192
0
LINE
8
BLACK
6
CONTINUOUS
10
266.873
20
-146.192
11
266.778
21
-146.24
0
LINE
8
BLACK
6
CONTINUOUS
10
266.778
20
-146.24
11
266.73
21
-146.288
0
LINE
8
BLACK
6
CONTINUOUS
10
266.73
20
-146.288
11
266.683
21
-146.383
0
LINE
8
BLACK
6
CONTINUOUS
10
266.683
20
-146.383
11
266.683
21
-146.526
0
LINE
8
BLACK
6
CONTINUOUS
10
266.683
20
-146.526
11
266.73
21
-146.621
0
LINE
8
BLACK
6
CONTINUOUS
10
266.73
20
-146.621
11
266.778
21
-146.669
0
LINE
8
BLACK
6
CONTINUOUS
10
266.778
20
-146.669
11
266.873
21
-146.716
0
LINE
8
BLACK
6
CONTINUOUS
10
266.873
20
-146.716
11
267.254
21
-146.716
0
LINE
8
BLACK
6
CONTINUOUS
10
265.826
20
-146.192
11
266.016
21
-146.192
0
LINE
8
BLACK
6
CONTINUOUS
10
266.016
20
-146.192
11
266.111
21
-146.24
0
LINE
8
BLACK
6
CONTINUOUS
10
266.111
20
-146.24
11
266.159
21
-146.288
0
LINE
8
BLACK
6
CONTINUOUS
10
266.159
20
-146.288
11
266.254
21
-146.43
0
LINE
8
BLACK
6
CONTINUOUS
10
266.254
20
-146.43
11
266.302
21
-146.621
0
LINE
8
BLACK
6
CONTINUOUS
10
266.302
20
-146.621
11
266.302
21
-147.002
0
LINE
8
BLACK
6
CONTINUOUS
10
266.302
20
-147.002
11
266.254
21
-147.097
0
LINE
8
BLACK
6
CONTINUOUS
10
266.254
20
-147.097
11
266.206
21
-147.145
0
LINE
8
BLACK
6
CONTINUOUS
10
266.206
20
-147.145
11
266.111
21
-147.192
0
LINE
8
BLACK
6
CONTINUOUS
10
266.111
20
-147.192
11
265.921
21
-147.192
0
LINE
8
BLACK
6
CONTINUOUS
10
265.921
20
-147.192
11
265.826
21
-147.145
0
LINE
8
BLACK
6
CONTINUOUS
10
265.826
20
-147.145
11
265.778
21
-147.097
0
LINE
8
BLACK
6
CONTINUOUS
10
265.778
20
-147.097
11
265.73
21
-147.002
0
LINE
8
BLACK
6
CONTINUOUS
10
265.73
20
-147.002
11
265.73
21
-146.764
0
LINE
8
BLACK
6
CONTINUOUS
10
265.73
20
-146.764
11
265.778
21
-146.669
0
LINE
8
BLACK
6
CONTINUOUS
10
265.778
20
-146.669
11
265.826
21
-146.621
0
LINE
8
BLACK
6
CONTINUOUS
10
265.826
20
-146.621
11
265.921
21
-146.573
0
LINE
8
BLACK
6
CONTINUOUS
10
265.921
20
-146.573
11
266.111
21
-146.573
0
LINE
8
BLACK
6
CONTINUOUS
10
266.111
20
-146.573
11
266.206
21
-146.621
0
LINE
8
BLACK
6
CONTINUOUS
10
266.206
20
-146.621
11
266.254
21
-146.669
0
LINE
8
BLACK
6
CONTINUOUS
10
266.254
20
-146.669
11
266.302
21
-146.764
0
LINE
8
BLACK
6
CONTINUOUS
10
266.613
20
-137.232
11
266.946
21
-136.756
0
LINE
8
BLACK
6
CONTINUOUS
10
267.184
20
-137.232
11
267.184
21
-136.232
0
LINE
8
BLACK
6
CONTINUOUS
10
267.184
20
-136.232
11
266.803
21
-136.232
0
LINE
8
BLACK
6
CONTINUOUS
10
266.803
20
-136.232
11
266.708
21
-136.28
0
LINE
8
BLACK
6
CONTINUOUS
10
266.708
20
-136.28
11
266.66
21
-136.328
0
LINE
8
BLACK
6
CONTINUOUS
10
266.66
20
-136.328
11
266.613
21
-136.423
0
LINE
8
BLACK
6
CONTINUOUS
10
266.613
20
-136.423
11
266.613
21
-136.566
0
LINE
8
BLACK
6
CONTINUOUS
10
266.613
20
-136.566
11
266.66
21
-136.661
0
LINE
8
BLACK
6
CONTINUOUS
10
266.66
20
-136.661
11
266.708
21
-136.709
0
LINE
8
BLACK
6
CONTINUOUS
10
266.708
20
-136.709
11
266.803
21
-136.756
0
LINE
8
BLACK
6
CONTINUOUS
10
266.803
20
-136.756
11
267.184
21
-136.756
0
LINE
8
BLACK
6
CONTINUOUS
10
266.041
20
-136.661
11
266.136
21
-136.613
0
LINE
8
BLACK
6
CONTINUOUS
10
266.136
20
-136.613
11
266.184
21
-136.566
0
LINE
8
BLACK
6
CONTINUOUS
10
266.184
20
-136.566
11
266.232
21
-136.47
0
LINE
8
BLACK
6
CONTINUOUS
10
266.232
20
-136.47
11
266.232
21
-136.423
0
LINE
8
BLACK
6
CONTINUOUS
10
266.232
20
-136.423
11
266.184
21
-136.328
0
LINE
8
BLACK
6
CONTINUOUS
10
266.184
20
-136.328
11
266.136
21
-136.28
0
LINE
8
BLACK
6
CONTINUOUS
10
266.136
20
-136.28
11
266.041
21
-136.232
0
LINE
8
BLACK
6
CONTINUOUS
10
266.041
20
-136.232
11
265.851
21
-136.232
0
LINE
8
BLACK
6
CONTINUOUS
10
265.851
20
-136.232
11
265.756
21
-136.28
0
LINE
8
BLACK
6
CONTINUOUS
10
265.756
20
-136.28
11
265.708
21
-136.328
0
LINE
8
BLACK
6
CONTINUOUS
10
265.708
20
-136.328
11
265.66
21
-136.423
0
LINE
8
BLACK
6
CONTINUOUS
10
265.66
20
-136.423
11
265.66
21
-136.47
0
LINE
8
BLACK
6
CONTINUOUS
10
265.66
20
-136.47
11
265.708
21
-136.566
0
LINE
8
BLACK
6
CONTINUOUS
10
265.708
20
-136.566
11
265.756
21
-136.613
0
LINE
8
BLACK
6
CONTINUOUS
10
265.756
20
-136.613
11
265.851
21
-136.661
0
LINE
8
BLACK
6
CONTINUOUS
10
265.851
20
-136.661
11
266.041
21
-136.661
0
LINE
8
BLACK
6
CONTINUOUS
10
266.041
20
-136.661
11
266.136
21
-136.709
0
LINE
8
BLACK
6
CONTINUOUS
10
266.136
20
-136.709
11
266.184
21
-136.756
0
LINE
8
BLACK
6
CONTINUOUS
10
266.184
20
-136.756
11
266.232
21
-136.851
0
LINE
8
BLACK
6
CONTINUOUS
10
266.232
20
-136.851
11
266.232
21
-137.042
0
LINE
8
BLACK
6
CONTINUOUS
10
266.232
20
-137.042
11
266.184
21
-137.137
0
LINE
8
BLACK
6
CONTINUOUS
10
266.184
20
-137.137
11
266.136
21
-137.185
0
LINE
8
BLACK
6
CONTINUOUS
10
266.136
20
-137.185
11
266.041
21
-137.232
0
LINE
8
BLACK
6
CONTINUOUS
10
266.041
20
-137.232
11
265.851
21
-137.232
0
LINE
8
BLACK
6
CONTINUOUS
10
265.851
20
-137.232
11
265.756
21
-137.185
0
LINE
8
BLACK
6
CONTINUOUS
10
265.756
20
-137.185
11
265.708
21
-137.137
0
LINE
8
BLACK
6
CONTINUOUS
10
265.708
20
-137.137
11
265.66
21
-137.042
0
LINE
8
BLACK
6
CONTINUOUS
10
265.66
20
-137.042
11
265.66
21
-136.851
0
LINE
8
BLACK
6
CONTINUOUS
10
265.66
20
-136.851
11
265.708
21
-136.756
0
LINE
8
BLACK
6
CONTINUOUS
10
265.708
20
-136.756
11
265.756
21
-136.709
0
LINE
8
BLACK
6
CONTINUOUS
10
265.756
20
-136.709
11
265.851
21
-136.661
0
LINE
8
BLACK
6
CONTINUOUS
10
470.468
20
-87.7171
11
469.992
21
-87.3838
0
LINE
8
BLACK
6
CONTINUOUS
10
470.468
20
-87.1457
11
469.468
21
-87.1457
0
LINE
8
BLACK
6
CONTINUOUS
10
469.468
20
-87.1457
11
469.468
21
-87.5267
0
LINE
8
BLACK
6
CONTINUOUS
10
469.468
20
-87.5267
11
469.516
21
-87.6219
0
LINE
8
BLACK
6
CONTINUOUS
10
469.516
20
-87.6219
11
469.564
21
-87.6695
0
LINE
8
BLACK
6
CONTINUOUS
10
469.564
20
-87.6695
11
469.659
21
-87.7171
0
LINE
8
BLACK
6
CONTINUOUS
10
469.659
20
-87.7171
11
469.802
21
-87.7171
0
LINE
8
BLACK
6
CONTINUOUS
10
469.802
20
-87.7171
11
469.897
21
-87.6695
0
LINE
8
BLACK
6
CONTINUOUS
10
469.897
20
-87.6695
11
469.945
21
-87.6219
0
LINE
8
BLACK
6
CONTINUOUS
10
469.945
20
-87.6219
11
469.992
21
-87.5267
0
LINE
8
BLACK
6
CONTINUOUS
10
469.992
20
-87.5267
11
469.992
21
-87.1457
0
LINE
8
BLACK
6
CONTINUOUS
10
469.564
20
-88.0981
11
469.516
21
-88.1457
0
LINE
8
BLACK
6
CONTINUOUS
10
469.516
20
-88.1457
11
469.468
21
-88.241
0
LINE
8
BLACK
6
CONTINUOUS
10
469.468
20
-88.241
11
469.468
21
-88.479
0
LINE
8
BLACK
6
CONTINUOUS
10
469.468
20
-88.479
11
469.516
21
-88.5743
0
LINE
8
BLACK
6
CONTINUOUS
10
469.516
20
-88.5743
11
469.564
21
-88.6219
0
LINE
8
BLACK
6
CONTINUOUS
10
469.564
20
-88.6219
11
469.659
21
-88.6695
0
LINE
8
BLACK
6
CONTINUOUS
10
469.659
20
-88.6695
11
469.754
21
-88.6695
0
LINE
8
BLACK
6
CONTINUOUS
10
469.754
20
-88.6695
11
469.897
21
-88.6219
0
LINE
8
BLACK
6
CONTINUOUS
10
469.897
20
-88.6219
11
470.468
21
-88.0505
0
LINE
8
BLACK
6
CONTINUOUS
10
470.468
20
-88.0505
11
470.468
21
-88.6695
0
LINE
8
BLACK
6
CONTINUOUS
10
470.468
20
-89.1457
11
470.468
21
-89.3362
0
LINE
8
BLACK
6
CONTINUOUS
10
470.468
20
-89.3362
11
470.421
21
-89.4314
0
LINE
8
BLACK
6
CONTINUOUS
10
470.421
20
-89.4314
11
470.373
21
-89.479
0
LINE
8
BLACK
6
CONTINUOUS
10
470.373
20
-89.479
11
470.23
21
-89.5743
0
LINE
8
BLACK
6
CONTINUOUS
10
470.23
20
-89.5743
11
470.04
21
-89.6219
0
LINE
8
BLACK
6
CONTINUOUS
10
470.04
20
-89.6219
11
469.659
21
-89.6219
0
LINE
8
BLACK
6
CONTINUOUS
10
469.659
20
-89.6219
11
469.564
21
-89.5743
0
LINE
8
BLACK
6
CONTINUOUS
10
469.564
20
-89.5743
11
469.516
21
-89.5267
0
LINE
8
BLACK
6
CONTINUOUS
10
469.516
20
-89.5267
11
469.468
21
-89.4314
0
LINE
8
BLACK
6
CONTINUOUS
10
469.468
20
-89.4314
11
469.468
21
-89.241
0
LINE
8
BLACK
6
CONTINUOUS
10
469.468
20
-89.241
11
469.516
21
-89.1457
0
LINE
8
BLACK
6
CONTINUOUS
10
469.516
20
-89.1457
11
469.564
21
-89.0981
0
LINE
8
BLACK
6
CONTINUOUS
10
469.564
20
-89.0981
11
469.659
21
-89.0505
0
LINE
8
BLACK
6
CONTINUOUS
10
469.659
20
-89.0505
11
469.897
21
-89.0505
0
LINE
8
BLACK
6
CONTINUOUS
10
469.897
20
-89.0505
11
469.992
21
-89.0981
0
LINE
8
BLACK
6
CONTINUOUS
10
469.992
20
-89.0981
11
470.04
21
-89.1457
0
LINE
8
BLACK
6
CONTINUOUS
10
470.04
20
-89.1457
11
470.087
21
-89.241
0
LINE
8
BLACK
6
CONTINUOUS
10
470.087
20
-89.241
11
470.087
21
-89.4314
0
LINE
8
BLACK
6
CONTINUOUS
10
470.087
20
-89.4314
11
470.04
21
-89.5267
0
LINE
8
BLACK
6
CONTINUOUS
10
470.04
20
-89.5267
11
469.992
21
-89.5743
0
LINE
8
BLACK
6
CONTINUOUS
10
469.992
20
-89.5743
11
469.897
21
-89.6219
0
LINE
8
BLACK
6
CONTINUOUS
10
326.884
20
-227.195
11
326.408
21
-226.862
0
LINE
8
BLACK
6
CONTINUOUS
10
326.884
20
-226.624
11
325.884
21
-226.624
0
LINE
8
BLACK
6
CONTINUOUS
10
325.884
20
-226.624
11
325.884
21
-227.005
0
LINE
8
BLACK
6
CONTINUOUS
10
325.884
20
-227.005
11
325.932
21
-227.1
0
LINE
8
BLACK
6
CONTINUOUS
10
325.932
20
-227.1
11
325.98
21
-227.148
0
LINE
8
BLACK
6
CONTINUOUS
10
325.98
20
-227.148
11
326.075
21
-227.195
0
LINE
8
BLACK
6
CONTINUOUS
10
326.075
20
-227.195
11
326.218
21
-227.195
0
LINE
8
BLACK
6
CONTINUOUS
10
326.218
20
-227.195
11
326.313
21
-227.148
0
LINE
8
BLACK
6
CONTINUOUS
10
326.313
20
-227.148
11
326.361
21
-227.1
0
LINE
8
BLACK
6
CONTINUOUS
10
326.361
20
-227.1
11
326.408
21
-227.005
0
LINE
8
BLACK
6
CONTINUOUS
10
326.408
20
-227.005
11
326.408
21
-226.624
0
LINE
8
BLACK
6
CONTINUOUS
10
325.98
20
-227.576
11
325.932
21
-227.624
0
LINE
8
BLACK
6
CONTINUOUS
10
325.932
20
-227.624
11
325.884
21
-227.719
0
LINE
8
BLACK
6
CONTINUOUS
10
325.884
20
-227.719
11
325.884
21
-227.957
0
LINE
8
BLACK
6
CONTINUOUS
10
325.884
20
-227.957
11
325.932
21
-228.052
0
LINE
8
BLACK
6
CONTINUOUS
10
325.932
20
-228.052
11
325.98
21
-228.1
0
LINE
8
BLACK
6
CONTINUOUS
10
325.98
20
-228.1
11
326.075
21
-228.148
0
LINE
8
BLACK
6
CONTINUOUS
10
326.075
20
-228.148
11
326.17
21
-228.148
0
LINE
8
BLACK
6
CONTINUOUS
10
326.17
20
-228.148
11
326.313
21
-228.1
0
LINE
8
BLACK
6
CONTINUOUS
10
326.313
20
-228.1
11
326.884
21
-227.528
0
LINE
8
BLACK
6
CONTINUOUS
10
326.884
20
-227.528
11
326.884
21
-228.148
0
LINE
8
BLACK
6
CONTINUOUS
10
326.218
20
-229.005
11
326.884
21
-229.005
0
LINE
8
BLACK
6
CONTINUOUS
10
325.837
20
-228.767
11
326.551
21
-228.528
0
LINE
8
BLACK
6
CONTINUOUS
10
326.551
20
-228.528
11
326.551
21
-229.148
0
LINE
8
BLACK
6
CONTINUOUS
10
301.643
20
-167.372
11
301.976
21
-166.896
0
LINE
8
BLACK
6
CONTINUOUS
10
302.214
20
-167.372
11
302.214
21
-166.372
0
LINE
8
BLACK
6
CONTINUOUS
10
302.214
20
-166.372
11
301.833
21
-166.372
0
LINE
8
BLACK
6
CONTINUOUS
10
301.833
20
-166.372
11
301.738
21
-166.42
0
LINE
8
BLACK
6
CONTINUOUS
10
301.738
20
-166.42
11
301.69
21
-166.468
0
LINE
8
BLACK
6
CONTINUOUS
10
301.69
20
-166.468
11
301.643
21
-166.563
0
LINE
8
BLACK
6
CONTINUOUS
10
301.643
20
-166.563
11
301.643
21
-166.706
0
LINE
8
BLACK
6
CONTINUOUS
10
301.643
20
-166.706
11
301.69
21
-166.801
0
LINE
8
BLACK
6
CONTINUOUS
10
301.69
20
-166.801
11
301.738
21
-166.849
0
LINE
8
BLACK
6
CONTINUOUS
10
301.738
20
-166.849
11
301.833
21
-166.896
0
LINE
8
BLACK
6
CONTINUOUS
10
301.833
20
-166.896
11
302.214
21
-166.896
0
LINE
8
BLACK
6
CONTINUOUS
10
300.69
20
-167.372
11
301.262
21
-167.372
0
LINE
8
BLACK
6
CONTINUOUS
10
300.976
20
-167.372
11
300.976
21
-166.372
0
LINE
8
BLACK
6
CONTINUOUS
10
300.976
20
-166.372
11
301.071
21
-166.515
0
LINE
8
BLACK
6
CONTINUOUS
10
301.071
20
-166.515
11
301.167
21
-166.61
0
LINE
8
BLACK
6
CONTINUOUS
10
301.167
20
-166.61
11
301.262
21
-166.658
0
LINE
8
BLACK
6
CONTINUOUS
10
299.786
20
-166.372
11
300.262
21
-166.372
0
LINE
8
BLACK
6
CONTINUOUS
10
300.262
20
-166.372
11
300.31
21
-166.849
0
LINE
8
BLACK
6
CONTINUOUS
10
300.31
20
-166.849
11
300.262
21
-166.801
0
LINE
8
BLACK
6
CONTINUOUS
10
300.262
20
-166.801
11
300.167
21
-166.753
0
LINE
8
BLACK
6
CONTINUOUS
10
300.167
20
-166.753
11
299.929
21
-166.753
0
LINE
8
BLACK
6
CONTINUOUS
10
299.929
20
-166.753
11
299.833
21
-166.801
0
LINE
8
BLACK
6
CONTINUOUS
10
299.833
20
-166.801
11
299.786
21
-166.849
0
LINE
8
BLACK
6
CONTINUOUS
10
299.786
20
-166.849
11
299.738
21
-166.944
0
LINE
8
BLACK
6
CONTINUOUS
10
299.738
20
-166.944
11
299.738
21
-167.182
0
LINE
8
BLACK
6
CONTINUOUS
10
299.738
20
-167.182
11
299.786
21
-167.277
0
LINE
8
BLACK
6
CONTINUOUS
10
299.786
20
-167.277
11
299.833
21
-167.325
0
LINE
8
BLACK
6
CONTINUOUS
10
299.833
20
-167.325
11
299.929
21
-167.372
0
LINE
8
BLACK
6
CONTINUOUS
10
299.929
20
-167.372
11
300.167
21
-167.372
0
LINE
8
BLACK
6
CONTINUOUS
10
300.167
20
-167.372
11
300.262
21
-167.325
0
LINE
8
BLACK
6
CONTINUOUS
10
300.262
20
-167.325
11
300.31
21
-167.277
0
LINE
8
BLACK
6
CONTINUOUS
10
335.669
20
-141.972
11
336.002
21
-141.496
0
LINE
8
BLACK
6
CONTINUOUS
10
336.24
20
-141.972
11
336.24
21
-140.972
0
LINE
8
BLACK
6
CONTINUOUS
10
336.24
20
-140.972
11
335.859
21
-140.972
0
LINE
8
BLACK
6
CONTINUOUS
10
335.859
20
-140.972
11
335.764
21
-141.02
0
LINE
8
BLACK
6
CONTINUOUS
10
335.764
20
-141.02
11
335.716
21
-141.068
0
LINE
8
BLACK
6
CONTINUOUS
10
335.716
20
-141.068
11
335.669
21
-141.163
0
LINE
8
BLACK
6
CONTINUOUS
10
335.669
20
-141.163
11
335.669
21
-141.306
0
LINE
8
BLACK
6
CONTINUOUS
10
335.669
20
-141.306
11
335.716
21
-141.401
0
LINE
8
BLACK
6
CONTINUOUS
10
335.716
20
-141.401
11
335.764
21
-141.449
0
LINE
8
BLACK
6
CONTINUOUS
10
335.764
20
-141.449
11
335.859
21
-141.496
0
LINE
8
BLACK
6
CONTINUOUS
10
335.859
20
-141.496
11
336.24
21
-141.496
0
LINE
8
BLACK
6
CONTINUOUS
10
335.336
20
-140.972
11
334.716
21
-140.972
0
LINE
8
BLACK
6
CONTINUOUS
10
334.716
20
-140.972
11
335.05
21
-141.353
0
LINE
8
BLACK
6
CONTINUOUS
10
335.05
20
-141.353
11
334.907
21
-141.353
0
LINE
8
BLACK
6
CONTINUOUS
10
334.907
20
-141.353
11
334.812
21
-141.401
0
LINE
8
BLACK
6
CONTINUOUS
10
334.812
20
-141.401
11
334.764
21
-141.449
0
LINE
8
BLACK
6
CONTINUOUS
10
334.764
20
-141.449
11
334.716
21
-141.544
0
LINE
8
BLACK
6
CONTINUOUS
10
334.716
20
-141.544
11
334.716
21
-141.782
0
LINE
8
BLACK
6
CONTINUOUS
10
334.716
20
-141.782
11
334.764
21
-141.877
0
LINE
8
BLACK
6
CONTINUOUS
10
334.764
20
-141.877
11
334.812
21
-141.925
0
LINE
8
BLACK
6
CONTINUOUS
10
334.812
20
-141.925
11
334.907
21
-141.972
0
LINE
8
BLACK
6
CONTINUOUS
10
334.907
20
-141.972
11
335.193
21
-141.972
0
LINE
8
BLACK
6
CONTINUOUS
10
335.193
20
-141.972
11
335.288
21
-141.925
0
LINE
8
BLACK
6
CONTINUOUS
10
335.288
20
-141.925
11
335.336
21
-141.877
0
LINE
8
BLACK
6
CONTINUOUS
10
333.859
20
-140.972
11
334.05
21
-140.972
0
LINE
8
BLACK
6
CONTINUOUS
10
334.05
20
-140.972
11
334.145
21
-141.02
0
LINE
8
BLACK
6
CONTINUOUS
10
334.145
20
-141.02
11
334.193
21
-141.068
0
LINE
8
BLACK
6
CONTINUOUS
10
334.193
20
-141.068
11
334.288
21
-141.21
0
LINE
8
BLACK
6
CONTINUOUS
10
334.288
20
-141.21
11
334.336
21
-141.401
0
LINE
8
BLACK
6
CONTINUOUS
10
334.336
20
-141.401
11
334.336
21
-141.782
0
LINE
8
BLACK
6
CONTINUOUS
10
334.336
20
-141.782
11
334.288
21
-141.877
0
LINE
8
BLACK
6
CONTINUOUS
10
334.288
20
-141.877
11
334.24
21
-141.925
0
LINE
8
BLACK
6
CONTINUOUS
10
334.24
20
-141.925
11
334.145
21
-141.972
0
LINE
8
BLACK
6
CONTINUOUS
10
334.145
20
-141.972
11
333.955
21
-141.972
0
LINE
8
BLACK
6
CONTINUOUS
10
333.955
20
-141.972
11
333.859
21
-141.925
0
LINE
8
BLACK
6
CONTINUOUS
10
333.859
20
-141.925
11
333.812
21
-141.877
0
LINE
8
BLACK
6
CONTINUOUS
10
333.812
20
-141.877
11
333.764
21
-141.782
0
LINE
8
BLACK
6
CONTINUOUS
10
333.764
20
-141.782
11
333.764
21
-141.544
0
LINE
8
BLACK
6
CONTINUOUS
10
333.764
20
-141.544
11
333.812
21
-141.449
0
LINE
8
BLACK
6
CONTINUOUS
10
333.812
20
-141.449
11
333.859
21
-141.401
0
LINE
8
BLACK
6
CONTINUOUS
10
333.859
20
-141.401
11
333.955
21
-141.353
0
LINE
8
BLACK
6
CONTINUOUS
10
333.955
20
-141.353
11
334.145
21
-141.353
0
LINE
8
BLACK
6
CONTINUOUS
10
334.145
20
-141.353
11
334.24
21
-141.401
0
LINE
8
BLACK
6
CONTINUOUS
10
334.24
20
-141.401
11
334.288
21
-141.449
0
LINE
8
BLACK
6
CONTINUOUS
10
334.288
20
-141.449
11
334.336
21
-141.544
0
LINE
8
BLACK
6
CONTINUOUS
10
429.574
20
-87.4631
11
429.098
21
-87.1298
0
LINE
8
BLACK
6
CONTINUOUS
10
429.574
20
-86.8917
11
428.574
21
-86.8917
0
LINE
8
BLACK
6
CONTINUOUS
10
428.574
20
-86.8917
11
428.574
21
-87.2727
0
LINE
8
BLACK
6
CONTINUOUS
10
428.574
20
-87.2727
11
428.622
21
-87.3679
0
LINE
8
BLACK
6
CONTINUOUS
10
428.622
20
-87.3679
11
428.67
21
-87.4155
0
LINE
8
BLACK
6
CONTINUOUS
10
428.67
20
-87.4155
11
428.765
21
-87.4631
0
LINE
8
BLACK
6
CONTINUOUS
10
428.765
20
-87.4631
11
428.908
21
-87.4631
0
LINE
8
BLACK
6
CONTINUOUS
10
428.908
20
-87.4631
11
429.003
21
-87.4155
0
LINE
8
BLACK
6
CONTINUOUS
10
429.003
20
-87.4155
11
429.051
21
-87.3679
0
LINE
8
BLACK
6
CONTINUOUS
10
429.051
20
-87.3679
11
429.098
21
-87.2727
0
LINE
8
BLACK
6
CONTINUOUS
10
429.098
20
-87.2727
11
429.098
21
-86.8917
0
LINE
8
BLACK
6
CONTINUOUS
10
428.67
20
-87.8441
11
428.622
21
-87.8917
0
LINE
8
BLACK
6
CONTINUOUS
10
428.622
20
-87.8917
11
428.574
21
-87.987
0
LINE
8
BLACK
6
CONTINUOUS
10
428.574
20
-87.987
11
428.574
21
-88.225
0
LINE
8
BLACK
6
CONTINUOUS
10
428.574
20
-88.225
11
428.622
21
-88.3203
0
LINE
8
BLACK
6
CONTINUOUS
10
428.622
20
-88.3203
11
428.67
21
-88.3679
0
LINE
8
BLACK
6
CONTINUOUS
10
428.67
20
-88.3679
11
428.765
21
-88.4155
0
LINE
8
BLACK
6
CONTINUOUS
10
428.765
20
-88.4155
11
428.86
21
-88.4155
0
LINE
8
BLACK
6
CONTINUOUS
10
428.86
20
-88.4155
11
429.003
21
-88.3679
0
LINE
8
BLACK
6
CONTINUOUS
10
429.003
20
-88.3679
11
429.574
21
-87.7965
0
LINE
8
BLACK
6
CONTINUOUS
10
429.574
20
-87.7965
11
429.574
21
-88.4155
0
LINE
8
BLACK
6
CONTINUOUS
10
429.003
20
-88.987
11
428.955
21
-88.8917
0
LINE
8
BLACK
6
CONTINUOUS
10
428.955
20
-88.8917
11
428.908
21
-88.8441
0
LINE
8
BLACK
6
CONTINUOUS
10
428.908
20
-88.8441
11
428.812
21
-88.7965
0
LINE
8
BLACK
6
CONTINUOUS
10
428.812
20
-88.7965
11
428.765
21
-88.7965
0
LINE
8
BLACK
6
CONTINUOUS
10
428.765
20
-88.7965
11
428.67
21
-88.8441
0
LINE
8
BLACK
6
CONTINUOUS
10
428.67
20
-88.8441
11
428.622
21
-88.8917
0
LINE
8
BLACK
6
CONTINUOUS
10
428.622
20
-88.8917
11
428.574
21
-88.987
0
LINE
8
BLACK
6
CONTINUOUS
10
428.574
20
-88.987
11
428.574
21
-89.1774
0
LINE
8
BLACK
6
CONTINUOUS
10
428.574
20
-89.1774
11
428.622
21
-89.2727
0
LINE
8
BLACK
6
CONTINUOUS
10
428.622
20
-89.2727
11
428.67
21
-89.3203
0
LINE
8
BLACK
6
CONTINUOUS
10
428.67
20
-89.3203
11
428.765
21
-89.3679
0
LINE
8
BLACK
6
CONTINUOUS
10
428.765
20
-89.3679
11
428.812
21
-89.3679
0
LINE
8
BLACK
6
CONTINUOUS
10
428.812
20
-89.3679
11
428.908
21
-89.3203
0
LINE
8
BLACK
6
CONTINUOUS
10
428.908
20
-89.3203
11
428.955
21
-89.2727
0
LINE
8
BLACK
6
CONTINUOUS
10
428.955
20
-89.2727
11
429.003
21
-89.1774
0
LINE
8
BLACK
6
CONTINUOUS
10
429.003
20
-89.1774
11
429.003
21
-88.987
0
LINE
8
BLACK
6
CONTINUOUS
10
429.003
20
-88.987
11
429.051
21
-88.8917
0
LINE
8
BLACK
6
CONTINUOUS
10
429.051
20
-88.8917
11
429.098
21
-88.8441
0
LINE
8
BLACK
6
CONTINUOUS
10
429.098
20
-88.8441
11
429.193
21
-88.7965
0
LINE
8
BLACK
6
CONTINUOUS
10
429.193
20
-88.7965
11
429.384
21
-88.7965
0
LINE
8
BLACK
6
CONTINUOUS
10
429.384
20
-88.7965
11
429.479
21
-88.8441
0
LINE
8
BLACK
6
CONTINUOUS
10
429.479
20
-88.8441
11
429.527
21
-88.8917
0
LINE
8
BLACK
6
CONTINUOUS
10
429.527
20
-88.8917
11
429.574
21
-88.987
0
LINE
8
BLACK
6
CONTINUOUS
10
429.574
20
-88.987
11
429.574
21
-89.1774
0
LINE
8
BLACK
6
CONTINUOUS
10
429.574
20
-89.1774
11
429.527
21
-89.2727
0
LINE
8
BLACK
6
CONTINUOUS
10
429.527
20
-89.2727
11
429.479
21
-89.3203
0
LINE
8
BLACK
6
CONTINUOUS
10
429.479
20
-89.3203
11
429.384
21
-89.3679
0
LINE
8
BLACK
6
CONTINUOUS
10
429.384
20
-89.3679
11
429.193
21
-89.3679
0
LINE
8
BLACK
6
CONTINUOUS
10
429.193
20
-89.3679
11
429.098
21
-89.3203
0
LINE
8
BLACK
6
CONTINUOUS
10
429.098
20
-89.3203
11
429.051
21
-89.2727
0
LINE
8
BLACK
6
CONTINUOUS
10
429.051
20
-89.2727
11
429.003
21
-89.1774
0
LINE
8
BLACK
6
CONTINUOUS
10
143.423
20
-295.134
11
143.756
21
-294.658
0
LINE
8
BLACK
6
CONTINUOUS
10
143.994
20
-295.134
11
143.994
21
-294.134
0
LINE
8
BLACK
6
CONTINUOUS
10
143.994
20
-294.134
11
143.613
21
-294.134
0
LINE
8
BLACK
6
CONTINUOUS
10
143.613
20
-294.134
11
143.518
21
-294.182
0
LINE
8
BLACK
6
CONTINUOUS
10
143.518
20
-294.182
11
143.47
21
-294.23
0
LINE
8
BLACK
6
CONTINUOUS
10
143.47
20
-294.23
11
143.423
21
-294.325
0
LINE
8
BLACK
6
CONTINUOUS
10
143.423
20
-294.325
11
143.423
21
-294.468
0
LINE
8
BLACK
6
CONTINUOUS
10
143.423
20
-294.468
11
143.47
21
-294.563
0
LINE
8
BLACK
6
CONTINUOUS
10
143.47
20
-294.563
11
143.518
21
-294.611
0
LINE
8
BLACK
6
CONTINUOUS
10
143.518
20
-294.611
11
143.613
21
-294.658
0
LINE
8
BLACK
6
CONTINUOUS
10
143.613
20
-294.658
11
143.994
21
-294.658
0
LINE
8
BLACK
6
CONTINUOUS
10
142.946
20
-295.134
11
142.756
21
-295.134
0
LINE
8
BLACK
6
CONTINUOUS
10
142.756
20
-295.134
11
142.661
21
-295.087
0
LINE
8
BLACK
6
CONTINUOUS
10
142.661
20
-295.087
11
142.613
21
-295.039
0
LINE
8
BLACK
6
CONTINUOUS
10
142.613
20
-295.039
11
142.518
21
-294.896
0
LINE
8
BLACK
6
CONTINUOUS
10
142.518
20
-294.896
11
142.47
21
-294.706
0
LINE
8
BLACK
6
CONTINUOUS
10
142.47
20
-294.706
11
142.47
21
-294.325
0
LINE
8
BLACK
6
CONTINUOUS
10
142.47
20
-294.325
11
142.518
21
-294.23
0
LINE
8
BLACK
6
CONTINUOUS
10
142.518
20
-294.23
11
142.566
21
-294.182
0
LINE
8
BLACK
6
CONTINUOUS
10
142.566
20
-294.182
11
142.661
21
-294.134
0
LINE
8
BLACK
6
CONTINUOUS
10
142.661
20
-294.134
11
142.851
21
-294.134
0
LINE
8
BLACK
6
CONTINUOUS
10
142.851
20
-294.134
11
142.946
21
-294.182
0
LINE
8
BLACK
6
CONTINUOUS
10
142.946
20
-294.182
11
142.994
21
-294.23
0
LINE
8
BLACK
6
CONTINUOUS
10
142.994
20
-294.23
11
143.042
21
-294.325
0
LINE
8
BLACK
6
CONTINUOUS
10
143.042
20
-294.325
11
143.042
21
-294.563
0
LINE
8
BLACK
6
CONTINUOUS
10
143.042
20
-294.563
11
142.994
21
-294.658
0
LINE
8
BLACK
6
CONTINUOUS
10
142.994
20
-294.658
11
142.946
21
-294.706
0
LINE
8
BLACK
6
CONTINUOUS
10
142.946
20
-294.706
11
142.851
21
-294.753
0
LINE
8
BLACK
6
CONTINUOUS
10
142.851
20
-294.753
11
142.661
21
-294.753
0
LINE
8
BLACK
6
CONTINUOUS
10
142.661
20
-294.753
11
142.566
21
-294.706
0
LINE
8
BLACK
6
CONTINUOUS
10
142.566
20
-294.706
11
142.518
21
-294.658
0
LINE
8
BLACK
6
CONTINUOUS
10
142.518
20
-294.658
11
142.47
21
-294.563
0
LINE
8
BLACK
6
CONTINUOUS
10
335.643
20
-147.052
11
335.976
21
-146.576
0
LINE
8
BLACK
6
CONTINUOUS
10
336.214
20
-147.052
11
336.214
21
-146.052
0
LINE
8
BLACK
6
CONTINUOUS
10
336.214
20
-146.052
11
335.833
21
-146.052
0
LINE
8
BLACK
6
CONTINUOUS
10
335.833
20
-146.052
11
335.738
21
-146.1
0
LINE
8
BLACK
6
CONTINUOUS
10
335.738
20
-146.1
11
335.69
21
-146.148
0
LINE
8
BLACK
6
CONTINUOUS
10
335.69
20
-146.148
11
335.643
21
-146.243
0
LINE
8
BLACK
6
CONTINUOUS
10
335.643
20
-146.243
11
335.643
21
-146.386
0
LINE
8
BLACK
6
CONTINUOUS
10
335.643
20
-146.386
11
335.69
21
-146.481
0
LINE
8
BLACK
6
CONTINUOUS
10
335.69
20
-146.481
11
335.738
21
-146.529
0
LINE
8
BLACK
6
CONTINUOUS
10
335.738
20
-146.529
11
335.833
21
-146.576
0
LINE
8
BLACK
6
CONTINUOUS
10
335.833
20
-146.576
11
336.214
21
-146.576
0
LINE
8
BLACK
6
CONTINUOUS
10
335.31
20
-146.052
11
334.69
21
-146.052
0
LINE
8
BLACK
6
CONTINUOUS
10
334.69
20
-146.052
11
335.024
21
-146.433
0
LINE
8
BLACK
6
CONTINUOUS
10
335.024
20
-146.433
11
334.881
21
-146.433
0
LINE
8
BLACK
6
CONTINUOUS
10
334.881
20
-146.433
11
334.786
21
-146.481
0
LINE
8
BLACK
6
CONTINUOUS
10
334.786
20
-146.481
11
334.738
21
-146.529
0
LINE
8
BLACK
6
CONTINUOUS
10
334.738
20
-146.529
11
334.69
21
-146.624
0
LINE
8
BLACK
6
CONTINUOUS
10
334.69
20
-146.624
11
334.69
21
-146.862
0
LINE
8
BLACK
6
CONTINUOUS
10
334.69
20
-146.862
11
334.738
21
-146.957
0
LINE
8
BLACK
6
CONTINUOUS
10
334.738
20
-146.957
11
334.786
21
-147.005
0
LINE
8
BLACK
6
CONTINUOUS
10
334.786
20
-147.005
11
334.881
21
-147.052
0
LINE
8
BLACK
6
CONTINUOUS
10
334.881
20
-147.052
11
335.167
21
-147.052
0
LINE
8
BLACK
6
CONTINUOUS
10
335.167
20
-147.052
11
335.262
21
-147.005
0
LINE
8
BLACK
6
CONTINUOUS
10
335.262
20
-147.005
11
335.31
21
-146.957
0
LINE
8
BLACK
6
CONTINUOUS
10
333.786
20
-146.052
11
334.262
21
-146.052
0
LINE
8
BLACK
6
CONTINUOUS
10
334.262
20
-146.052
11
334.31
21
-146.529
0
LINE
8
BLACK
6
CONTINUOUS
10
334.31
20
-146.529
11
334.262
21
-146.481
0
LINE
8
BLACK
6
CONTINUOUS
10
334.262
20
-146.481
11
334.167
21
-146.433
0
LINE
8
BLACK
6
CONTINUOUS
10
334.167
20
-146.433
11
333.929
21
-146.433
0
LINE
8
BLACK
6
CONTINUOUS
10
333.929
20
-146.433
11
333.833
21
-146.481
0
LINE
8
BLACK
6
CONTINUOUS
10
333.833
20
-146.481
11
333.786
21
-146.529
0
LINE
8
BLACK
6
CONTINUOUS
10
333.786
20
-146.529
11
333.738
21
-146.624
0
LINE
8
BLACK
6
CONTINUOUS
10
333.738
20
-146.624
11
333.738
21
-146.862
0
LINE
8
BLACK
6
CONTINUOUS
10
333.738
20
-146.862
11
333.786
21
-146.957
0
LINE
8
BLACK
6
CONTINUOUS
10
333.786
20
-146.957
11
333.833
21
-147.005
0
LINE
8
BLACK
6
CONTINUOUS
10
333.833
20
-147.005
11
333.929
21
-147.052
0
LINE
8
BLACK
6
CONTINUOUS
10
333.929
20
-147.052
11
334.167
21
-147.052
0
LINE
8
BLACK
6
CONTINUOUS
10
334.167
20
-147.052
11
334.262
21
-147.005
0
LINE
8
BLACK
6
CONTINUOUS
10
334.262
20
-147.005
11
334.31
21
-146.957
0
LINE
8
BLACK
6
CONTINUOUS
10
184.27
20
-87.5851
11
183.794
21
-87.2518
0
LINE
8
BLACK
6
CONTINUOUS
10
184.27
20
-87.0137
11
183.27
21
-87.0137
0
LINE
8
BLACK
6
CONTINUOUS
10
183.27
20
-87.0137
11
183.27
21
-87.3947
0
LINE
8
BLACK
6
CONTINUOUS
10
183.27
20
-87.3947
11
183.318
21
-87.4899
0
LINE
8
BLACK
6
CONTINUOUS
10
183.318
20
-87.4899
11
183.366
21
-87.5375
0
LINE
8
BLACK
6
CONTINUOUS
10
183.366
20
-87.5375
11
183.461
21
-87.5851
0
LINE
8
BLACK
6
CONTINUOUS
10
183.461
20
-87.5851
11
183.604
21
-87.5851
0
LINE
8
BLACK
6
CONTINUOUS
10
183.604
20
-87.5851
11
183.699
21
-87.5375
0
LINE
8
BLACK
6
CONTINUOUS
10
183.699
20
-87.5375
11
183.747
21
-87.4899
0
LINE
8
BLACK
6
CONTINUOUS
10
183.747
20
-87.4899
11
183.794
21
-87.3947
0
LINE
8
BLACK
6
CONTINUOUS
10
183.794
20
-87.3947
11
183.794
21
-87.0137
0
LINE
8
BLACK
6
CONTINUOUS
10
184.27
20
-88.5375
11
184.27
21
-87.9661
0
LINE
8
BLACK
6
CONTINUOUS
10
184.27
20
-88.2518
11
183.27
21
-88.2518
0
LINE
8
BLACK
6
CONTINUOUS
10
183.27
20
-88.2518
11
183.413
21
-88.1566
0
LINE
8
BLACK
6
CONTINUOUS
10
183.413
20
-88.1566
11
183.508
21
-88.0613
0
LINE
8
BLACK
6
CONTINUOUS
10
183.508
20
-88.0613
11
183.556
21
-87.9661
0
LINE
8
BLACK
6
CONTINUOUS
10
183.366
20
-88.9185
11
183.318
21
-88.9661
0
LINE
8
BLACK
6
CONTINUOUS
10
183.318
20
-88.9661
11
183.27
21
-89.0613
0
LINE
8
BLACK
6
CONTINUOUS
10
183.27
20
-89.0613
11
183.27
21
-89.2994
0
LINE
8
BLACK
6
CONTINUOUS
10
183.27
20
-89.2994
11
183.318
21
-89.3947
0
LINE
8
BLACK
6
CONTINUOUS
10
183.318
20
-89.3947
11
183.366
21
-89.4423
0
LINE
8
BLACK
6
CONTINUOUS
10
183.366
20
-89.4423
11
183.461
21
-89.4899
0
LINE
8
BLACK
6
CONTINUOUS
10
183.461
20
-89.4899
11
183.556
21
-89.4899
0
LINE
8
BLACK
6
CONTINUOUS
10
183.556
20
-89.4899
11
183.699
21
-89.4423
0
LINE
8
BLACK
6
CONTINUOUS
10
183.699
20
-89.4423
11
184.27
21
-88.8709
0
LINE
8
BLACK
6
CONTINUOUS
10
184.27
20
-88.8709
11
184.27
21
-89.4899
0
LINE
8
BLACK
6
CONTINUOUS
10
144.153
20
-265.416
11
144.486
21
-264.94
0
LINE
8
BLACK
6
CONTINUOUS
10
144.724
20
-265.416
11
144.724
21
-264.416
0
LINE
8
BLACK
6
CONTINUOUS
10
144.724
20
-264.416
11
144.343
21
-264.416
0
LINE
8
BLACK
6
CONTINUOUS
10
144.343
20
-264.416
11
144.248
21
-264.464
0
LINE
8
BLACK
6
CONTINUOUS
10
144.248
20
-264.464
11
144.2
21
-264.512
0
LINE
8
BLACK
6
CONTINUOUS
10
144.2
20
-264.512
11
144.153
21
-264.607
0
LINE
8
BLACK
6
CONTINUOUS
10
144.153
20
-264.607
11
144.153
21
-264.75
0
LINE
8
BLACK
6
CONTINUOUS
10
144.153
20
-264.75
11
144.2
21
-264.845
0
LINE
8
BLACK
6
CONTINUOUS
10
144.2
20
-264.845
11
144.248
21
-264.893
0
LINE
8
BLACK
6
CONTINUOUS
10
144.248
20
-264.893
11
144.343
21
-264.94
0
LINE
8
BLACK
6
CONTINUOUS
10
144.343
20
-264.94
11
144.724
21
-264.94
0
LINE
8
BLACK
6
CONTINUOUS
10
143.2
20
-265.416
11
143.772
21
-265.416
0
LINE
8
BLACK
6
CONTINUOUS
10
143.486
20
-265.416
11
143.486
21
-264.416
0
LINE
8
BLACK
6
CONTINUOUS
10
143.486
20
-264.416
11
143.581
21
-264.559
0
LINE
8
BLACK
6
CONTINUOUS
10
143.581
20
-264.559
11
143.677
21
-264.654
0
LINE
8
BLACK
6
CONTINUOUS
10
143.677
20
-264.654
11
143.772
21
-264.702
0
LINE
8
BLACK
6
CONTINUOUS
10
142.581
20
-264.416
11
142.486
21
-264.416
0
LINE
8
BLACK
6
CONTINUOUS
10
142.486
20
-264.416
11
142.391
21
-264.464
0
LINE
8
BLACK
6
CONTINUOUS
10
142.391
20
-264.464
11
142.343
21
-264.512
0
LINE
8
BLACK
6
CONTINUOUS
10
142.343
20
-264.512
11
142.296
21
-264.607
0
LINE
8
BLACK
6
CONTINUOUS
10
142.296
20
-264.607
11
142.248
21
-264.797
0
LINE
8
BLACK
6
CONTINUOUS
10
142.248
20
-264.797
11
142.248
21
-265.035
0
LINE
8
BLACK
6
CONTINUOUS
10
142.248
20
-265.035
11
142.296
21
-265.226
0
LINE
8
BLACK
6
CONTINUOUS
10
142.296
20
-265.226
11
142.343
21
-265.321
0
LINE
8
BLACK
6
CONTINUOUS
10
142.343
20
-265.321
11
142.391
21
-265.369
0
LINE
8
BLACK
6
CONTINUOUS
10
142.391
20
-265.369
11
142.486
21
-265.416
0
LINE
8
BLACK
6
CONTINUOUS
10
142.486
20
-265.416
11
142.581
21
-265.416
0
LINE
8
BLACK
6
CONTINUOUS
10
142.581
20
-265.416
11
142.677
21
-265.369
0
LINE
8
BLACK
6
CONTINUOUS
10
142.677
20
-265.369
11
142.724
21
-265.321
0
LINE
8
BLACK
6
CONTINUOUS
10
142.724
20
-265.321
11
142.772
21
-265.226
0
LINE
8
BLACK
6
CONTINUOUS
10
142.772
20
-265.226
11
142.82
21
-265.035
0
LINE
8
BLACK
6
CONTINUOUS
10
142.82
20
-265.035
11
142.82
21
-264.797
0
LINE
8
BLACK
6
CONTINUOUS
10
142.82
20
-264.797
11
142.772
21
-264.607
0
LINE
8
BLACK
6
CONTINUOUS
10
142.772
20
-264.607
11
142.724
21
-264.512
0
LINE
8
BLACK
6
CONTINUOUS
10
142.724
20
-264.512
11
142.677
21
-264.464
0
LINE
8
BLACK
6
CONTINUOUS
10
142.677
20
-264.464
11
142.581
21
-264.416
0
LINE
8
BLACK
6
CONTINUOUS
10
361.043
20
-96.7604
11
361.376
21
-96.2842
0
LINE
8
BLACK
6
CONTINUOUS
10
361.614
20
-96.7604
11
361.614
21
-95.7604
0
LINE
8
BLACK
6
CONTINUOUS
10
361.614
20
-95.7604
11
361.233
21
-95.7604
0
LINE
8
BLACK
6
CONTINUOUS
10
361.233
20
-95.7604
11
361.138
21
-95.808
0
LINE
8
BLACK
6
CONTINUOUS
10
361.138
20
-95.808
11
361.09
21
-95.8556
0
LINE
8
BLACK
6
CONTINUOUS
10
361.09
20
-95.8556
11
361.043
21
-95.9509
0
LINE
8
BLACK
6
CONTINUOUS
10
361.043
20
-95.9509
11
361.043
21
-96.0937
0
LINE
8
BLACK
6
CONTINUOUS
10
361.043
20
-96.0937
11
361.09
21
-96.189
0
LINE
8
BLACK
6
CONTINUOUS
10
361.09
20
-96.189
11
361.138
21
-96.2366
0
LINE
8
BLACK
6
CONTINUOUS
10
361.138
20
-96.2366
11
361.233
21
-96.2842
0
LINE
8
BLACK
6
CONTINUOUS
10
361.233
20
-96.2842
11
361.614
21
-96.2842
0
LINE
8
BLACK
6
CONTINUOUS
10
360.138
20
-95.7604
11
360.614
21
-95.7604
0
LINE
8
BLACK
6
CONTINUOUS
10
360.614
20
-95.7604
11
360.662
21
-96.2366
0
LINE
8
BLACK
6
CONTINUOUS
10
360.662
20
-96.2366
11
360.614
21
-96.189
0
LINE
8
BLACK
6
CONTINUOUS
10
360.614
20
-96.189
11
360.519
21
-96.1413
0
LINE
8
BLACK
6
CONTINUOUS
10
360.519
20
-96.1413
11
360.281
21
-96.1413
0
LINE
8
BLACK
6
CONTINUOUS
10
360.281
20
-96.1413
11
360.186
21
-96.189
0
LINE
8
BLACK
6
CONTINUOUS
10
360.186
20
-96.189
11
360.138
21
-96.2366
0
LINE
8
BLACK
6
CONTINUOUS
10
360.138
20
-96.2366
11
360.09
21
-96.3318
0
LINE
8
BLACK
6
CONTINUOUS
10
360.09
20
-96.3318
11
360.09
21
-96.5699
0
LINE
8
BLACK
6
CONTINUOUS
10
360.09
20
-96.5699
11
360.138
21
-96.6651
0
LINE
8
BLACK
6
CONTINUOUS
10
360.138
20
-96.6651
11
360.186
21
-96.7128
0
LINE
8
BLACK
6
CONTINUOUS
10
360.186
20
-96.7128
11
360.281
21
-96.7604
0
LINE
8
BLACK
6
CONTINUOUS
10
360.281
20
-96.7604
11
360.519
21
-96.7604
0
LINE
8
BLACK
6
CONTINUOUS
10
360.519
20
-96.7604
11
360.614
21
-96.7128
0
LINE
8
BLACK
6
CONTINUOUS
10
360.614
20
-96.7128
11
360.662
21
-96.6651
0
LINE
8
BLACK
6
CONTINUOUS
10
359.138
20
-96.7604
11
359.71
21
-96.7604
0
LINE
8
BLACK
6
CONTINUOUS
10
359.424
20
-96.7604
11
359.424
21
-95.7604
0
LINE
8
BLACK
6
CONTINUOUS
10
359.424
20
-95.7604
11
359.519
21
-95.9032
0
LINE
8
BLACK
6
CONTINUOUS
10
359.519
20
-95.9032
11
359.614
21
-95.9985
0
LINE
8
BLACK
6
CONTINUOUS
10
359.614
20
-95.9985
11
359.71
21
-96.0461
0
LINE
8
BLACK
6
CONTINUOUS
10
361.095
20
-116.826
11
361.428
21
-116.35
0
LINE
8
BLACK
6
CONTINUOUS
10
361.666
20
-116.826
11
361.666
21
-115.826
0
LINE
8
BLACK
6
CONTINUOUS
10
361.666
20
-115.826
11
361.285
21
-115.826
0
LINE
8
BLACK
6
CONTINUOUS
10
361.285
20
-115.826
11
361.19
21
-115.874
0
LINE
8
BLACK
6
CONTINUOUS
10
361.19
20
-115.874
11
361.142
21
-115.922
0
LINE
8
BLACK
6
CONTINUOUS
10
361.142
20
-115.922
11
361.095
21
-116.017
0
LINE
8
BLACK
6
CONTINUOUS
10
361.095
20
-116.017
11
361.095
21
-116.16
0
LINE
8
BLACK
6
CONTINUOUS
10
361.095
20
-116.16
11
361.142
21
-116.255
0
LINE
8
BLACK
6
CONTINUOUS
10
361.142
20
-116.255
11
361.19
21
-116.303
0
LINE
8
BLACK
6
CONTINUOUS
10
361.19
20
-116.303
11
361.285
21
-116.35
0
LINE
8
BLACK
6
CONTINUOUS
10
361.285
20
-116.35
11
361.666
21
-116.35
0
LINE
8
BLACK
6
CONTINUOUS
10
360.238
20
-116.16
11
360.238
21
-116.826
0
LINE
8
BLACK
6
CONTINUOUS
10
360.476
20
-115.779
11
360.714
21
-116.493
0
LINE
8
BLACK
6
CONTINUOUS
10
360.714
20
-116.493
11
360.095
21
-116.493
0
LINE
8
BLACK
6
CONTINUOUS
10
359.809
20
-115.826
11
359.142
21
-115.826
0
LINE
8
BLACK
6
CONTINUOUS
10
359.142
20
-115.826
11
359.571
21
-116.826
0
LINE
8
BLACK
6
CONTINUOUS
10
289.182
20
-226.617
11
288.706
21
-226.284
0
LINE
8
BLACK
6
CONTINUOUS
10
289.182
20
-226.046
11
288.182
21
-226.046
0
LINE
8
BLACK
6
CONTINUOUS
10
288.182
20
-226.046
11
288.182
21
-226.427
0
LINE
8
BLACK
6
CONTINUOUS
10
288.182
20
-226.427
11
288.23
21
-226.522
0
LINE
8
BLACK
6
CONTINUOUS
10
288.23
20
-226.522
11
288.278
21
-226.57
0
LINE
8
BLACK
6
CONTINUOUS
10
288.278
20
-226.57
11
288.373
21
-226.617
0
LINE
8
BLACK
6
CONTINUOUS
10
288.373
20
-226.617
11
288.516
21
-226.617
0
LINE
8
BLACK
6
CONTINUOUS
10
288.516
20
-226.617
11
288.611
21
-226.57
0
LINE
8
BLACK
6
CONTINUOUS
10
288.611
20
-226.57
11
288.659
21
-226.522
0
LINE
8
BLACK
6
CONTINUOUS
10
288.659
20
-226.522
11
288.706
21
-226.427
0
LINE
8
BLACK
6
CONTINUOUS
10
288.706
20
-226.427
11
288.706
21
-226.046
0
LINE
8
BLACK
6
CONTINUOUS
10
288.278
20
-226.998
11
288.23
21
-227.046
0
LINE
8
BLACK
6
CONTINUOUS
10
288.23
20
-227.046
11
288.182
21
-227.141
0
LINE
8
BLACK
6
CONTINUOUS
10
288.182
20
-227.141
11
288.182
21
-227.379
0
LINE
8
BLACK
6
CONTINUOUS
10
288.182
20
-227.379
11
288.23
21
-227.474
0
LINE
8
BLACK
6
CONTINUOUS
10
288.23
20
-227.474
11
288.278
21
-227.522
0
LINE
8
BLACK
6
CONTINUOUS
10
288.278
20
-227.522
11
288.373
21
-227.57
0
LINE
8
BLACK
6
CONTINUOUS
10
288.373
20
-227.57
11
288.468
21
-227.57
0
LINE
8
BLACK
6
CONTINUOUS
10
288.468
20
-227.57
11
288.611
21
-227.522
0
LINE
8
BLACK
6
CONTINUOUS
10
288.611
20
-227.522
11
289.182
21
-226.95
0
LINE
8
BLACK
6
CONTINUOUS
10
289.182
20
-226.95
11
289.182
21
-227.57
0
LINE
8
BLACK
6
CONTINUOUS
10
288.182
20
-227.903
11
288.182
21
-228.522
0
LINE
8
BLACK
6
CONTINUOUS
10
288.182
20
-228.522
11
288.563
21
-228.189
0
LINE
8
BLACK
6
CONTINUOUS
10
288.563
20
-228.189
11
288.563
21
-228.331
0
LINE
8
BLACK
6
CONTINUOUS
10
288.563
20
-228.331
11
288.611
21
-228.427
0
LINE
8
BLACK
6
CONTINUOUS
10
288.611
20
-228.427
11
288.659
21
-228.474
0
LINE
8
BLACK
6
CONTINUOUS
10
288.659
20
-228.474
11
288.754
21
-228.522
0
LINE
8
BLACK
6
CONTINUOUS
10
288.754
20
-228.522
11
288.992
21
-228.522
0
LINE
8
BLACK
6
CONTINUOUS
10
288.992
20
-228.522
11
289.087
21
-228.474
0
LINE
8
BLACK
6
CONTINUOUS
10
289.087
20
-228.474
11
289.135
21
-228.427
0
LINE
8
BLACK
6
CONTINUOUS
10
289.135
20
-228.427
11
289.182
21
-228.331
0
LINE
8
BLACK
6
CONTINUOUS
10
289.182
20
-228.331
11
289.182
21
-228.046
0
LINE
8
BLACK
6
CONTINUOUS
10
289.182
20
-228.046
11
289.135
21
-227.95
0
LINE
8
BLACK
6
CONTINUOUS
10
289.135
20
-227.95
11
289.087
21
-227.903
0
LINE
8
BLACK
6
CONTINUOUS
10
348.877
20
-116.826
11
349.21
21
-116.35
0
LINE
8
BLACK
6
CONTINUOUS
10
349.448
20
-116.826
11
349.448
21
-115.826
0
LINE
8
BLACK
6
CONTINUOUS
10
349.448
20
-115.826
11
349.067
21
-115.826
0
LINE
8
BLACK
6
CONTINUOUS
10
349.067
20
-115.826
11
348.972
21
-115.874
0
LINE
8
BLACK
6
CONTINUOUS
10
348.972
20
-115.874
11
348.924
21
-115.922
0
LINE
8
BLACK
6
CONTINUOUS
10
348.924
20
-115.922
11
348.877
21
-116.017
0
LINE
8
BLACK
6
CONTINUOUS
10
348.877
20
-116.017
11
348.877
21
-116.16
0
LINE
8
BLACK
6
CONTINUOUS
10
348.877
20
-116.16
11
348.924
21
-116.255
0
LINE
8
BLACK
6
CONTINUOUS
10
348.924
20
-116.255
11
348.972
21
-116.303
0
LINE
8
BLACK
6
CONTINUOUS
10
348.972
20
-116.303
11
349.067
21
-116.35
0
LINE
8
BLACK
6
CONTINUOUS
10
349.067
20
-116.35
11
349.448
21
-116.35
0
LINE
8
BLACK
6
CONTINUOUS
10
348.544
20
-115.826
11
347.924
21
-115.826
0
LINE
8
BLACK
6
CONTINUOUS
10
347.924
20
-115.826
11
348.258
21
-116.207
0
LINE
8
BLACK
6
CONTINUOUS
10
348.258
20
-116.207
11
348.115
21
-116.207
0
LINE
8
BLACK
6
CONTINUOUS
10
348.115
20
-116.207
11
348.02
21
-116.255
0
LINE
8
BLACK
6
CONTINUOUS
10
348.02
20
-116.255
11
347.972
21
-116.303
0
LINE
8
BLACK
6
CONTINUOUS
10
347.972
20
-116.303
11
347.924
21
-116.398
0
LINE
8
BLACK
6
CONTINUOUS
10
347.924
20
-116.398
11
347.924
21
-116.636
0
LINE
8
BLACK
6
CONTINUOUS
10
347.924
20
-116.636
11
347.972
21
-116.731
0
LINE
8
BLACK
6
CONTINUOUS
10
347.972
20
-116.731
11
348.02
21
-116.779
0
LINE
8
BLACK
6
CONTINUOUS
10
348.02
20
-116.779
11
348.115
21
-116.826
0
LINE
8
BLACK
6
CONTINUOUS
10
348.115
20
-116.826
11
348.401
21
-116.826
0
LINE
8
BLACK
6
CONTINUOUS
10
348.401
20
-116.826
11
348.496
21
-116.779
0
LINE
8
BLACK
6
CONTINUOUS
10
348.496
20
-116.779
11
348.544
21
-116.731
0
LINE
8
BLACK
6
CONTINUOUS
10
347.448
20
-116.826
11
347.258
21
-116.826
0
LINE
8
BLACK
6
CONTINUOUS
10
347.258
20
-116.826
11
347.163
21
-116.779
0
LINE
8
BLACK
6
CONTINUOUS
10
347.163
20
-116.779
11
347.115
21
-116.731
0
LINE
8
BLACK
6
CONTINUOUS
10
347.115
20
-116.731
11
347.02
21
-116.588
0
LINE
8
BLACK
6
CONTINUOUS
10
347.02
20
-116.588
11
346.972
21
-116.398
0
LINE
8
BLACK
6
CONTINUOUS
10
346.972
20
-116.398
11
346.972
21
-116.017
0
LINE
8
BLACK
6
CONTINUOUS
10
346.972
20
-116.017
11
347.02
21
-115.922
0
LINE
8
BLACK
6
CONTINUOUS
10
347.02
20
-115.922
11
347.067
21
-115.874
0
LINE
8
BLACK
6
CONTINUOUS
10
347.067
20
-115.874
11
347.163
21
-115.826
0
LINE
8
BLACK
6
CONTINUOUS
10
347.163
20
-115.826
11
347.353
21
-115.826
0
LINE
8
BLACK
6
CONTINUOUS
10
347.353
20
-115.826
11
347.448
21
-115.874
0
LINE
8
BLACK
6
CONTINUOUS
10
347.448
20
-115.874
11
347.496
21
-115.922
0
LINE
8
BLACK
6
CONTINUOUS
10
347.496
20
-115.922
11
347.544
21
-116.017
0
LINE
8
BLACK
6
CONTINUOUS
10
347.544
20
-116.017
11
347.544
21
-116.255
0
LINE
8
BLACK
6
CONTINUOUS
10
347.544
20
-116.255
11
347.496
21
-116.35
0
LINE
8
BLACK
6
CONTINUOUS
10
347.496
20
-116.35
11
347.448
21
-116.398
0
LINE
8
BLACK
6
CONTINUOUS
10
347.448
20
-116.398
11
347.353
21
-116.445
0
LINE
8
BLACK
6
CONTINUOUS
10
347.353
20
-116.445
11
347.163
21
-116.445
0
LINE
8
BLACK
6
CONTINUOUS
10
347.163
20
-116.445
11
347.067
21
-116.398
0
LINE
8
BLACK
6
CONTINUOUS
10
347.067
20
-116.398
11
347.02
21
-116.35
0
LINE
8
BLACK
6
CONTINUOUS
10
347.02
20
-116.35
11
346.972
21
-116.255
0
LINE
8
BLACK
6
CONTINUOUS
10
265.913
20
-169.016
11
267.367
21
-169.016
0
LINE
8
BLACK
6
CONTINUOUS
10
265.913
20
-170.836
11
267.367
21
-170.836
0
LINE
8
BLACK
6
CONTINUOUS
10
359.673
20
-88.498
11
361.127
21
-88.498
0
LINE
8
BLACK
6
CONTINUOUS
10
359.673
20
-90.318
11
361.127
21
-90.318
0
LINE
8
BLACK
6
CONTINUOUS
10
139.178
20
-88.9551
11
139.178
21
-87.5009
0
LINE
8
BLACK
6
CONTINUOUS
10
140.998
20
-88.9551
11
140.998
21
-87.5009
0
LINE
8
BLACK
6
CONTINUOUS
10
300.273
20
-133.964
11
301.727
21
-133.964
0
LINE
8
BLACK
6
CONTINUOUS
10
300.273
20
-135.784
11
301.727
21
-135.784
0
LINE
8
BLACK
6
CONTINUOUS
10
392.465
20
-294.788
11
393.919
21
-294.788
0
LINE
8
BLACK
6
CONTINUOUS
10
392.465
20
-292.968
11
393.919
21
-292.968
0
LINE
8
BLACK
6
CONTINUOUS
10
359.673
20
-100.224
11
361.127
21
-100.224
0
LINE
8
BLACK
6
CONTINUOUS
10
359.673
20
-98.404
11
361.127
21
-98.404
0
LINE
8
BLACK
6
CONTINUOUS
10
145.427
20
-152.33
11
143.973
21
-152.33
0
LINE
8
BLACK
6
CONTINUOUS
10
145.427
20
-154.15
11
143.973
21
-154.15
0
LINE
8
BLACK
6
CONTINUOUS
10
392.354
20
-264.684
11
393.808
21
-264.684
0
LINE
8
BLACK
6
CONTINUOUS
10
392.354
20
-262.864
11
393.808
21
-262.864
0
LINE
8
BLACK
6
CONTINUOUS
10
334.273
20
-150.77
11
335.727
21
-150.77
0
LINE
8
BLACK
6
CONTINUOUS
10
334.273
20
-148.95
11
335.727
21
-148.95
0
LINE
8
BLACK
6
CONTINUOUS
10
300.273
20
-170.836
11
301.727
21
-170.836
0
LINE
8
BLACK
6
CONTINUOUS
10
300.273
20
-169.016
11
301.727
21
-169.016
0
LINE
8
BLACK
6
CONTINUOUS
10
334.299
20
-135.784
11
335.753
21
-135.784
0
LINE
8
BLACK
6
CONTINUOUS
10
334.299
20
-133.964
11
335.753
21
-133.964
0
LINE
8
BLACK
6
CONTINUOUS
10
347.507
20
-93.578
11
348.961
21
-93.578
0
LINE
8
BLACK
6
CONTINUOUS
10
347.507
20
-95.398
11
348.961
21
-95.398
0
LINE
8
BLACK
6
CONTINUOUS
10
347.507
20
-83.672
11
348.961
21
-83.672
0
LINE
8
BLACK
6
CONTINUOUS
10
347.507
20
-85.492
11
348.961
21
-85.492
0
LINE
8
BLACK
6
CONTINUOUS
10
444.4
20
-272.717
11
444.4
21
-271.263
0
LINE
8
BLACK
6
CONTINUOUS
10
442.58
20
-272.717
11
442.58
21
-271.263
0
LINE
8
BLACK
6
CONTINUOUS
10
347.507
20
-120.544
11
348.961
21
-120.544
0
LINE
8
BLACK
6
CONTINUOUS
10
347.507
20
-118.724
11
348.961
21
-118.724
0
LINE
8
BLACK
6
CONTINUOUS
10
347.507
20
-103.484
11
348.961
21
-103.484
0
LINE
8
BLACK
6
CONTINUOUS
10
347.507
20
-105.304
11
348.961
21
-105.304
0
LINE
8
BLACK
6
CONTINUOUS
10
265.859
20
-139.12
11
267.313
21
-139.12
0
LINE
8
BLACK
6
CONTINUOUS
10
265.859
20
-140.94
11
267.313
21
-140.94
0
LINE
8
BLACK
6
CONTINUOUS
10
265.789
20
-155.91
11
267.243
21
-155.91
0
LINE
8
BLACK
6
CONTINUOUS
10
265.789
20
-154.09
11
267.243
21
-154.09
0
LINE
8
BLACK
6
CONTINUOUS
10
334.273
20
-160.93
11
335.727
21
-160.93
0
LINE
8
BLACK
6
CONTINUOUS
10
334.273
20
-159.11
11
335.727
21
-159.11
0
LINE
8
BLACK
6
CONTINUOUS
10
359.725
20
-108.564
11
361.179
21
-108.564
0
LINE
8
BLACK
6
CONTINUOUS
10
359.725
20
-110.384
11
361.179
21
-110.384
0
LINE
8
BLACK
6
CONTINUOUS
10
390.196
20
-87.3789
11
390.196
21
-88.8331
0
LINE
8
BLACK
6
CONTINUOUS
10
388.376
20
-87.3789
11
388.376
21
-88.8331
0
LINE
8
BLACK
6
CONTINUOUS
10
300.273
20
-148.95
11
301.727
21
-148.95
0
LINE
8
BLACK
6
CONTINUOUS
10
300.273
20
-150.77
11
301.727
21
-150.77
0
LINE
8
BLACK
6
CONTINUOUS
10
255.376
20
-228.057
11
255.376
21
-226.603
0
LINE
8
BLACK
6
CONTINUOUS
10
257.196
20
-228.057
11
257.196
21
-226.603
0
LINE
8
BLACK
6
CONTINUOUS
10
221.982
20
-88.9551
11
221.982
21
-87.5009
0
LINE
8
BLACK
6
CONTINUOUS
10
223.802
20
-88.9551
11
223.802
21
-87.5009
0
LINE
8
BLACK
6
CONTINUOUS
10
347.507
20
-100.224
11
348.961
21
-100.224
0
LINE
8
BLACK
6
CONTINUOUS
10
347.507
20
-98.404
11
348.961
21
-98.404
0
LINE
8
BLACK
6
CONTINUOUS
10
300.273
20
-155.85
11
301.727
21
-155.85
0
LINE
8
BLACK
6
CONTINUOUS
10
300.273
20
-154.03
11
301.727
21
-154.03
0
LINE
8
BLACK
6
CONTINUOUS
10
347.507
20
-110.384
11
348.961
21
-110.384
0
LINE
8
BLACK
6
CONTINUOUS
10
347.507
20
-108.564
11
348.961
21
-108.564
0
LINE
8
BLACK
6
CONTINUOUS
10
347.507
20
-90.572
11
348.961
21
-90.572
0
LINE
8
BLACK
6
CONTINUOUS
10
347.507
20
-88.752
11
348.961
21
-88.752
0
LINE
8
BLACK
6
CONTINUOUS
10
300.263
20
-144.124
11
301.717
21
-144.124
0
LINE
8
BLACK
6
CONTINUOUS
10
300.263
20
-145.944
11
301.717
21
-145.944
0
LINE
8
BLACK
6
CONTINUOUS
10
300.273
20
-139.044
11
301.727
21
-139.044
0
LINE
8
BLACK
6
CONTINUOUS
10
300.273
20
-140.864
11
301.727
21
-140.864
0
LINE
8
BLACK
6
CONTINUOUS
10
192.745
20
-270.979
11
192.745
21
-272.433
0
LINE
8
BLACK
6
CONTINUOUS
10
194.565
20
-270.979
11
194.565
21
-272.433
0
LINE
8
BLACK
6
CONTINUOUS
10
334.273
20
-165.756
11
335.727
21
-165.756
0
LINE
8
BLACK
6
CONTINUOUS
10
334.273
20
-163.936
11
335.727
21
-163.936
0
LINE
8
BLACK
6
CONTINUOUS
10
334.273
20
-155.85
11
335.727
21
-155.85
0
LINE
8
BLACK
6
CONTINUOUS
10
334.273
20
-154.03
11
335.727
21
-154.03
0
LINE
8
BLACK
6
CONTINUOUS
10
359.673
20
-105.304
11
361.127
21
-105.304
0
LINE
8
BLACK
6
CONTINUOUS
10
359.673
20
-103.484
11
361.127
21
-103.484
0
LINE
8
BLACK
6
CONTINUOUS
10
265.839
20
-160.95
11
267.293
21
-160.95
0
LINE
8
BLACK
6
CONTINUOUS
10
265.839
20
-159.13
11
267.293
21
-159.13
0
LINE
8
BLACK
6
CONTINUOUS
10
359.725
20
-118.724
11
361.179
21
-118.724
0
LINE
8
BLACK
6
CONTINUOUS
10
359.725
20
-120.544
11
361.179
21
-120.544
0
LINE
8
BLACK
6
CONTINUOUS
10
300.273
20
-159.11
11
301.727
21
-159.11
0
LINE
8
BLACK
6
CONTINUOUS
10
300.273
20
-160.93
11
301.727
21
-160.93
0
LINE
8
BLACK
6
CONTINUOUS
10
265.759
20
-150.92
11
267.213
21
-150.92
0
LINE
8
BLACK
6
CONTINUOUS
10
265.759
20
-149.1
11
267.213
21
-149.1
0
LINE
8
BLACK
6
CONTINUOUS
10
265.889
20
-165.92
11
267.343
21
-165.92
0
LINE
8
BLACK
6
CONTINUOUS
10
265.889
20
-164.1
11
267.343
21
-164.1
0
LINE
8
BLACK
6
CONTINUOUS
10
359.673
20
-83.672
11
361.127
21
-83.672
0
LINE
8
BLACK
6
CONTINUOUS
10
359.673
20
-85.492
11
361.127
21
-85.492
0
LINE
8
BLACK
6
CONTINUOUS
10
334.273
20
-169.016
11
335.727
21
-169.016
0
LINE
8
BLACK
6
CONTINUOUS
10
334.273
20
-170.836
11
335.727
21
-170.836
0
LINE
8
BLACK
6
CONTINUOUS
10
265.789
20
-145.83
11
267.243
21
-145.83
0
LINE
8
BLACK
6
CONTINUOUS
10
265.789
20
-144.01
11
267.243
21
-144.01
0
LINE
8
BLACK
6
CONTINUOUS
10
265.719
20
-135.87
11
267.173
21
-135.87
0
LINE
8
BLACK
6
CONTINUOUS
10
265.719
20
-134.05
11
267.173
21
-134.05
0
LINE
8
BLACK
6
CONTINUOUS
10
472.746
20
-87.6329
11
472.746
21
-89.0871
0
LINE
8
BLACK
6
CONTINUOUS
10
470.926
20
-87.6329
11
470.926
21
-89.0871
0
LINE
8
BLACK
6
CONTINUOUS
10
323.702
20
-228.565
11
323.702
21
-227.111
0
LINE
8
BLACK
6
CONTINUOUS
10
325.522
20
-228.565
11
325.522
21
-227.111
0
LINE
8
BLACK
6
CONTINUOUS
10
300.273
20
-164.19
11
301.727
21
-164.19
0
LINE
8
BLACK
6
CONTINUOUS
10
300.273
20
-166.01
11
301.727
21
-166.01
0
LINE
8
BLACK
6
CONTINUOUS
10
334.299
20
-140.61
11
335.753
21
-140.61
0
LINE
8
BLACK
6
CONTINUOUS
10
334.299
20
-138.79
11
335.753
21
-138.79
0
LINE
8
BLACK
6
CONTINUOUS
10
431.852
20
-87.3789
11
431.852
21
-88.8331
0
LINE
8
BLACK
6
CONTINUOUS
10
430.032
20
-87.3789
11
430.032
21
-88.8331
0
LINE
8
BLACK
6
CONTINUOUS
10
142.529
20
-291.952
11
143.983
21
-291.952
0
LINE
8
BLACK
6
CONTINUOUS
10
142.529
20
-293.772
11
143.983
21
-293.772
0
LINE
8
BLACK
6
CONTINUOUS
10
334.273
20
-143.87
11
335.727
21
-143.87
0
LINE
8
BLACK
6
CONTINUOUS
10
334.273
20
-145.69
11
335.727
21
-145.69
0
LINE
8
BLACK
6
CONTINUOUS
10
181.088
20
-88.9551
11
181.088
21
-87.5009
0
LINE
8
BLACK
6
CONTINUOUS
10
182.908
20
-88.9551
11
182.908
21
-87.5009
0
LINE
8
BLACK
6
CONTINUOUS
10
142.783
20
-264.054
11
144.237
21
-264.054
0
LINE
8
BLACK
6
CONTINUOUS
10
142.783
20
-262.234
11
144.237
21
-262.234
0
LINE
8
BLACK
6
CONTINUOUS
10
359.673
20
-95.398
11
361.127
21
-95.398
0
LINE
8
BLACK
6
CONTINUOUS
10
359.673
20
-93.578
11
361.127
21
-93.578
0
LINE
8
BLACK
6
CONTINUOUS
10
359.725
20
-113.644
11
361.179
21
-113.644
0
LINE
8
BLACK
6
CONTINUOUS
10
359.725
20
-115.464
11
361.179
21
-115.464
0
LINE
8
BLACK
6
CONTINUOUS
10
289.64
20
-226.533
11
289.64
21
-227.987
0
LINE
8
BLACK
6
CONTINUOUS
10
291.46
20
-226.533
11
291.46
21
-227.987
0
LINE
8
BLACK
6
CONTINUOUS
10
347.507
20
-115.464
11
348.961
21
-115.464
0
LINE
8
BLACK
6
CONTINUOUS
10
347.507
20
-113.644
11
348.961
21
-113.644
  0
ENDSEC
  0
EOF
