  0
SECTION
  2
HEADER
  9
$ANGBASE
  50
0.0
  9
$ANGDIR
  70
1
  9
$MEASUREMENT
  70
1
  0
ENDSEC
  0
SECTION
  2
TABLES
  0
TABLE
  2
LTYPE
  70
4
  0
LTYPE
  5
40F
  2
CONTINUOUS
  70
0
  3
Solid line
  72
65
  73
0
  40
0.0
  0
LTYPE
  5
410
  2
DASHDOT
 70
0
  3
Dash Dot ____ _ ____ _
 72
65
 73
4
 40
2.0
 49
1.25
 49
-0.25
 49
0.25
 49
-0.25
  0
LTYPE
  5
411
  2
DASHED
 70
0
  3
Dashed __ __ __ __ __
 72
65
 73
2
 40
0.75
 49
0.5
 49
-0.25
  0
LTYPE
  5
43B
  2
DOTTED
 70
0
  3
Dotted .  .  .  .
 72
65
 73
2
 40
0.2
 49
0.0
 49
-0.2
  0
ENDTAB
  0
TABLE
  2
STYLE
  70
4
  0
STYLE
  2
KICAD
  70
0
  40
0
  41
1
  42
1
  50
0
  71
0
  3
isocp.shx
  0
STYLE
  2
KICADB
  70
0
  40
0
  41
1
  42
1
  50
0
  71
0
  3
isocp.shx
  0
STYLE
  2
KICADI
  70
0
  40
0
  41
1
  42
1
  50
15
  71
0
  3
isocp.shx
  0
STYLE
  2
KICADBI
  70
0
  40
0
  41
1
  42
1
  50
15
  71
0
  3
isocp.shx
  0
ENDTAB
  0
TABLE
  2
LAYER
  70
1
  0
LAYER
  2
BLACK
  70
0
  62
7
  6
CONTINUOUS
  0
ENDTAB
  0
ENDSEC
  0
SECTION
  2
ENTITIES
0
CIRCLE
8
BLACK
10
404.904
20
-140.044
40
0.5
0
CIRCLE
8
BLACK
10
131.96
20
-68.06
40
0.5
0
CIRCLE
8
BLACK
10
448.084
20
-87.72
40
0.5
0
CIRCLE
8
BLACK
10
420.144
20
-142.584
40
0.5
0
CIRCLE
8
BLACK
10
399.824
20
-81.624
40
0.5
0
CIRCLE
8
BLACK
10
448.084
20
-127.344
40
0.5
0
CIRCLE
8
BLACK
10
417.604
20
-140.044
40
0.5
0
CIRCLE
8
BLACK
10
424
20
-67.98
40
0.5
0
CIRCLE
8
BLACK
10
407.444
20
-140.044
40
0.5
0
CIRCLE
8
BLACK
10
448.084
20
-142.584
40
0.5
0
LINE
8
BLACK
6
CONTINUOUS
10
177
20
-253
11
193
21
-253
0
CIRCLE
8
BLACK
10
443.004
20
-142.584
40
0.5
0
CIRCLE
8
BLACK
10
399.824
20
-104.756
40
0.5
0
CIRCLE
8
BLACK
10
422.684
20
-142.584
40
0.5
0
CIRCLE
8
BLACK
10
448.084
20
-132.424
40
0.5
0
CIRCLE
8
BLACK
10
399.824
20
-89.244
40
0.5
0
LINE
8
BLACK
6
CONTINUOUS
10
119
20
-51
11
479
21
-51
0
CIRCLE
8
BLACK
10
399.824
20
-114.916
40
0.5
0
CIRCLE
8
BLACK
10
448.084
20
-80.1
40
0.5
0
CIRCLE
8
BLACK
10
399.824
20
-124.804
40
0.5
0
CIRCLE
8
BLACK
10
409.984
20
-142.584
40
0.5
0
CIRCLE
8
BLACK
10
425.24
20
-109.68
40
0.5
0
CIRCLE
8
BLACK
10
399.824
20
-102.216
40
0.5
0
CIRCLE
8
BLACK
10
443.004
20
-140.044
40
0.5
0
CIRCLE
8
BLACK
10
261
20
-145
40
1.5
0
CIRCLE
8
BLACK
10
440.464
20
-142.584
40
0.5
0
CIRCLE
8
BLACK
10
399.824
20
-127.344
40
0.5
0
CIRCLE
8
BLACK
10
295.269
20
-149.96
40
1.5
0
CIRCLE
8
BLACK
10
387.552
20
-174.62
40
1.6
0
CIRCLE
8
BLACK
10
329.293
20
-154.897
40
1.5
0
LINE
8
BLACK
6
CONTINUOUS
10
435.345
20
-147.727
11
401.175
21
-147.727
0
CIRCLE
8
BLACK
10
448.084
20
-85.18
40
0.5
0
CIRCLE
8
BLACK
10
412.524
20
-140.044
40
0.5
0
CIRCLE
8
BLACK
10
445.544
20
-140.044
40
0.5
0
CIRCLE
8
BLACK
10
349
20
-136
40
7
0
CIRCLE
8
BLACK
10
415.064
20
-142.584
40
0.5
0
CIRCLE
8
BLACK
10
405.59
20
-51.75
40
1.65
0
LINE
8
BLACK
6
CONTINUOUS
10
443
20
-304
11
443
21
-294
0
CIRCLE
8
BLACK
10
295.269
20
-144.96
40
1.5
0
LINE
8
BLACK
6
CONTINUOUS
10
475
20
-199.584
11
475
21
-149.584
0
CIRCLE
8
BLACK
10
448.084
20
-117.184
40
0.5
0
CIRCLE
8
BLACK
10
329.293
20
-139.897
40
1.5
0
LINE
8
BLACK
6
CONTINUOUS
10
427.02
20
-266.627
11
427.02
21
-276.627
0
CIRCLE
8
BLACK
10
399.824
20
-60.034
40
1.6
0
CIRCLE
8
BLACK
10
399.824
20
-86.704
40
0.5
0
CIRCLE
8
BLACK
10
448.084
20
-80.1
40
0.5
0
CIRCLE
8
BLACK
10
427.764
20
-142.584
40
0.5
0
LINE
8
BLACK
6
CONTINUOUS
10
181.88
20
-93.41
11
181.88
21
-83.41
0
LINE
8
BLACK
6
CONTINUOUS
10
177
20
-294
11
177
21
-304
0
LINE
8
BLACK
6
CONTINUOUS
10
427
20
-243
11
427
21
-253
0
LINE
8
BLACK
6
CONTINUOUS
10
443
20
-253
11
443
21
-243
0
LINE
8
BLACK
6
CONTINUOUS
10
224.524
20
-149.584
11
124.524
21
-149.584
0
CIRCLE
8
BLACK
10
412.524
20
-140.044
40
0.5
0
LINE
8
BLACK
6
CONTINUOUS
10
193
20
-229
11
177
21
-229
0
CIRCLE
8
BLACK
10
436.64
20
-54.58
40
0.475
0
CIRCLE
8
BLACK
10
427.764
20
-142.584
40
0.5
0
CIRCLE
8
BLACK
10
448.084
20
-114.644
40
0.5
0
LINE
8
BLACK
6
CONTINUOUS
10
240
20
-224
11
240
21
-231
0
LINE
8
BLACK
6
CONTINUOUS
10
397.417
20
-46.2725
11
450.582
21
-46.2725
0
CIRCLE
8
BLACK
10
409.984
20
-140.044
40
0.5
0
CIRCLE
8
BLACK
10
399.824
20
-81.624
40
0.5
0
CIRCLE
8
BLACK
10
422.7
20
-112.22
40
0.5
0
CIRCLE
8
BLACK
10
412.524
20
-142.584
40
0.5
0
CIRCLE
8
BLACK
10
400.613
20
-54.7566
40
1.65
0
CIRCLE
8
BLACK
10
412.524
20
-142.584
40
0.5
0
CIRCLE
8
BLACK
10
399.824
20
-84.164
40
0.5
0
CIRCLE
8
BLACK
10
441.38
20
-49.87
40
1.1
0
CIRCLE
8
BLACK
10
448.084
20
-87.72
40
0.5
0
CIRCLE
8
BLACK
10
399.824
20
-132.424
40
0.5
0
CIRCLE
8
BLACK
10
399.824
20
-134.964
40
0.5
0
CIRCLE
8
BLACK
10
399.824
20
-132.424
40
0.5
0
CIRCLE
8
BLACK
10
399.824
20
-137.504
40
0.5
0
CIRCLE
8
BLACK
10
448.084
20
-127.344
40
0.5
0
CIRCLE
8
BLACK
10
355
20
-104.5
40
1.5
0
CIRCLE
8
BLACK
10
283
20
-136
40
0.5
0
CIRCLE
8
BLACK
10
417.604
20
-142.584
40
0.5
0
LINE
8
BLACK
6
CONTINUOUS
10
401.175
20
-147.727
11
398.678
21
-145.191
0
CIRCLE
8
BLACK
10
448.084
20
-96.864
40
0.5
0
CIRCLE
8
BLACK
10
422.684
20
-142.584
40
0.5
0
CIRCLE
8
BLACK
10
382
20
-67.98
40
0.5
0
LINE
8
BLACK
6
CONTINUOUS
10
427
20
-253
11
443
21
-253
0
CIRCLE
8
BLACK
10
400.048
20
-162.118
40
1.6
0
CIRCLE
8
BLACK
10
448.084
20
-75.02
40
0.5
0
LINE
8
BLACK
6
CONTINUOUS
10
312.5
20
-299
11
321.5
21
-299
0
CIRCLE
8
BLACK
10
422.7
20
-112.22
40
0.5
0
LINE
8
BLACK
6
CONTINUOUS
10
244.5
20
-299
11
253.5
21
-299
0
CIRCLE
8
BLACK
10
432.844
20
-140.044
40
0.5
0
CIRCLE
8
BLACK
10
399.824
20
-127.344
40
0.5
0
LINE
8
BLACK
6
CONTINUOUS
10
375
20
-224.584
11
475
21
-224.584
0
CIRCLE
8
BLACK
10
399.824
20
-114.916
40
0.5
0
CIRCLE
8
BLACK
10
448.084
20
-69.94
40
0.5
0
LINE
8
BLACK
6
CONTINUOUS
10
453
20
-304
11
463
21
-304
0
CIRCLE
8
BLACK
10
435.384
20
-142.584
40
0.5
0
CIRCLE
8
BLACK
10
427.78
20
-109.68
40
0.5
0
LINE
8
BLACK
6
CONTINUOUS
10
177
20
-229
11
177
21
-239
0
LINE
8
BLACK
6
CONTINUOUS
10
292.032
20
-231.004
11
292.032
21
-224.004
0
LINE
8
BLACK
6
CONTINUOUS
10
427
20
-229
11
427
21
-239
0
CIRCLE
8
BLACK
10
405.59
20
-57.75
40
1.65
0
CIRCLE
8
BLACK
10
399.824
20
-97.136
40
0.5
0
CIRCLE
8
BLACK
10
435.384
20
-140.044
40
0.5
0
CIRCLE
8
BLACK
10
429.38
20
-49.87
40
1.1
0
CIRCLE
8
BLACK
10
448.084
20
-132.424
40
0.5
0
CIRCLE
8
BLACK
10
448.084
20
-85.18
40
0.5
0
CIRCLE
8
BLACK
10
261
20
-165
40
1.5
0
CIRCLE
8
BLACK
10
448.084
20
-91.784
40
0.5
0
CIRCLE
8
BLACK
10
399.824
20
-79.084
40
0.5
0
CIRCLE
8
BLACK
10
445.544
20
-140.044
40
0.5
0
CIRCLE
8
BLACK
10
249
20
-136
40
0.5
0
LINE
8
BLACK
6
CONTINUOUS
10
443
20
-253
11
443
21
-243
0
LINE
8
BLACK
6
CONTINUOUS
10
435.345
20
-147.727
11
401.175
21
-147.727
0
CIRCLE
8
BLACK
10
399.824
20
-119.724
40
0.5
0
CIRCLE
8
BLACK
10
436.64
20
-52.58
40
0.475
0
CIRCLE
8
BLACK
10
445.544
20
-142.584
40
0.5
0
CIRCLE
8
BLACK
10
443.004
20
-142.584
40
0.5
0
CIRCLE
8
BLACK
10
424
20
-67.98
40
7
0
CIRCLE
8
BLACK
10
261
20
-160
40
1.5
0
CIRCLE
8
BLACK
10
399.824
20
-122.264
40
0.5
0
CIRCLE
8
BLACK
10
437.924
20
-140.044
40
0.5
0
CIRCLE
8
BLACK
10
404.9
20
-112.1
40
1.6
0
LINE
8
BLACK
6
CONTINUOUS
10
431.904
20
-93.288
11
431.904
21
-83.288
0
CIRCLE
8
BLACK
10
448.084
20
-140.044
40
0.5
0
LINE
8
BLACK
6
CONTINUOUS
10
312.5
20
-239
11
312.5
21
-299
0
LINE
8
BLACK
6
CONTINUOUS
10
278.5
20
-299
11
287.5
21
-299
0
LINE
8
BLACK
6
CONTINUOUS
10
397.417
20
-145.19
11
397.417
21
-46.2725
0
CIRCLE
8
BLACK
10
436.64
20
-54.58
40
0.475
0
CIRCLE
8
BLACK
10
445.544
20
-140.044
40
0.5
0
LINE
8
BLACK
6
CONTINUOUS
10
119
20
-311
11
479
21
-311
0
CIRCLE
8
BLACK
10
329.293
20
-159.897
40
1.5
0
CIRCLE
8
BLACK
10
214.96
20
-68.06
40
7
0
CIRCLE
8
BLACK
10
399.824
20
-124.804
40
0.5
0
CIRCLE
8
BLACK
10
404.9
20
-112.1
40
1.6
0
LINE
8
BLACK
6
CONTINUOUS
10
443
20
-239
11
443
21
-229
0
CIRCLE
8
BLACK
10
436.64
20
-54.58
40
0.475
0
CIRCLE
8
BLACK
10
448.084
20
-101.944
40
0.5
0
LINE
8
BLACK
6
CONTINUOUS
10
177
20
-304
11
193
21
-304
0
CIRCLE
8
BLACK
10
448.084
20
-122.264
40
0.5
0
CIRCLE
8
BLACK
10
448.084
20
-87.72
40
0.5
0
CIRCLE
8
BLACK
10
448.084
20
-69.94
40
0.5
0
CIRCLE
8
BLACK
10
448.084
20
-142.584
40
0.5
0
CIRCLE
8
BLACK
10
399.824
20
-107.296
40
0.5
0
CIRCLE
8
BLACK
10
261
20
-150
40
1.5
0
CIRCLE
8
BLACK
10
445.544
20
-142.584
40
0.5
0
CIRCLE
8
BLACK
10
435.384
20
-140.044
40
0.5
0
CIRCLE
8
BLACK
10
249
20
-170
40
0.5
0
CIRCLE
8
BLACK
10
399.824
20
-86.704
40
0.5
0
CIRCLE
8
BLACK
10
407.444
20
-140.044
40
0.5
0
CIRCLE
8
BLACK
10
343
20
-109.5
40
1.5
0
CIRCLE
8
BLACK
10
283
20
-170
40
0.5
0
CIRCLE
8
BLACK
10
409.984
20
-140.044
40
0.5
0
CIRCLE
8
BLACK
10
415.064
20
-142.584
40
0.5
0
LINE
8
BLACK
6
CONTINUOUS
10
397.417
20
-145.19
11
397.417
21
-46.2725
0
CIRCLE
8
BLACK
10
405.59
20
-57.75
40
1.65
0
LINE
8
BLACK
6
CONTINUOUS
10
224.524
20
-204.584
11
124.524
21
-204.584
0
CIRCLE
8
BLACK
10
436.64
20
-54.58
40
0.475
0
LINE
8
BLACK
6
CONTINUOUS
10
193
20
-266.88
11
177
21
-266.88
0
CIRCLE
8
BLACK
10
434.14
20
-52.58
40
0.475
0
LINE
8
BLACK
6
CONTINUOUS
10
177
20
-276.88
11
193
21
-276.88
0
CIRCLE
8
BLACK
10
448.084
20
-91.784
40
0.5
0
LINE
8
BLACK
6
CONTINUOUS
10
375
20
-204.584
11
375
21
-224.584
0
CIRCLE
8
BLACK
10
443.004
20
-140.044
40
0.5
0
CIRCLE
8
BLACK
10
427.78
20
-109.68
40
0.5
0
CIRCLE
8
BLACK
10
430.304
20
-142.584
40
0.5
0
CIRCLE
8
BLACK
10
343
20
-84.5
40
1.5
0
LINE
8
BLACK
6
CONTINUOUS
10
193
20
-276.88
11
193
21
-266.88
0
CIRCLE
8
BLACK
10
355
20
-109.5
40
1.5
0
CIRCLE
8
BLACK
10
448.084
20
-132.424
40
0.5
0
LINE
8
BLACK
6
CONTINUOUS
10
119
20
-311
11
119
21
-51
0
CIRCLE
8
BLACK
10
436.64
20
-52.58
40
0.475
0
CIRCLE
8
BLACK
10
448.084
20
-69.94
40
0.5
0
CIRCLE
8
BLACK
10
399.824
20
-79.084
40
0.5
0
CIRCLE
8
BLACK
10
283
20
-68
40
7
0
CIRCLE
8
BLACK
10
430.304
20
-140.044
40
0.5
0
CIRCLE
8
BLACK
10
448.084
20
-75.02
40
0.5
0
CIRCLE
8
BLACK
10
422.684
20
-142.584
40
0.5
0
CIRCLE
8
BLACK
10
349
20
-251
40
7
0
CIRCLE
8
BLACK
10
405.59
20
-57.75
40
1.65
0
CIRCLE
8
BLACK
10
317
20
-205
40
9
0
CIRCLE
8
BLACK
10
425.24
20
-109.68
40
0.5
0
CIRCLE
8
BLACK
10
448.084
20
-77.56
40
0.5
0
CIRCLE
8
BLACK
10
399.824
20
-89.244
40
0.5
0
LINE
8
BLACK
6
CONTINUOUS
10
287.5
20
-299
11
287.5
21
-239
0
CIRCLE
8
BLACK
10
443.004
20
-140.044
40
0.5
0
CIRCLE
8
BLACK
10
400.613
20
-54.7566
40
1.65
0
CIRCLE
8
BLACK
10
425.224
20
-140.044
40
0.5
0
CIRCLE
8
BLACK
10
427.78
20
-109.68
40
0.5
0
LINE
8
BLACK
6
CONTINUOUS
10
437.882
20
-145.191
11
435.345
21
-147.727
0
CIRCLE
8
BLACK
10
399.824
20
-119.724
40
0.5
0
CIRCLE
8
BLACK
10
399.824
20
-119.724
40
0.5
0
CIRCLE
8
BLACK
10
343
20
-119.5
40
1.5
0
CIRCLE
8
BLACK
10
295.269
20
-169.96
40
1.5
0
LINE
8
BLACK
6
CONTINUOUS
10
453
20
-229
11
453
21
-304
0
LINE
8
BLACK
6
CONTINUOUS
10
124.524
20
-224.584
11
224.524
21
-224.584
0
LINE
8
BLACK
6
CONTINUOUS
10
427
20
-304
11
443
21
-304
0
LINE
8
BLACK
6
CONTINUOUS
10
437.882
20
-145.191
11
435.345
21
-147.727
0
CIRCLE
8
BLACK
10
448.084
20
-136.234
40
1.6
0
CIRCLE
8
BLACK
10
355
20
-114.5
40
1.5
0
CIRCLE
8
BLACK
10
422.7
20
-109.68
40
0.5
0
CIRCLE
8
BLACK
10
399.824
20
-119.724
40
0.5
0
CIRCLE
8
BLACK
10
329.293
20
-169.897
40
1.5
0
CIRCLE
8
BLACK
10
448.084
20
-142.584
40
0.5
0
LINE
8
BLACK
6
CONTINUOUS
10
123.95
20
-93.5
11
139.95
21
-93.5
0
CIRCLE
8
BLACK
10
440.464
20
-142.584
40
0.5
0
CIRCLE
8
BLACK
10
448.084
20
-96.864
40
0.5
0
CIRCLE
8
BLACK
10
440.464
20
-140.044
40
0.5
0
CIRCLE
8
BLACK
10
399.824
20
-89.244
40
0.5
0
CIRCLE
8
BLACK
10
404.904
20
-142.584
40
0.5
0
CIRCLE
8
BLACK
10
415.064
20
-140.044
40
0.5
0
LINE
8
BLACK
6
CONTINUOUS
10
213
20
-229
11
203
21
-229
0
LINE
8
BLACK
6
CONTINUOUS
10
443.02
20
-276.627
11
443.02
21
-266.627
0
LINE
8
BLACK
6
CONTINUOUS
10
450.582
20
-142.691
11
448.082
21
-145.191
0
CIRCLE
8
BLACK
10
407.444
20
-140.044
40
0.5
0
CIRCLE
8
BLACK
10
317
20
-102
40
0.5
0
CIRCLE
8
BLACK
10
261
20
-135
40
1.5
0
LINE
8
BLACK
6
CONTINUOUS
10
398.678
20
-145.191
11
397.417
21
-145.19
0
LINE
8
BLACK
6
CONTINUOUS
10
437.882
20
-145.191
11
435.345
21
-147.727
0
LINE
8
BLACK
6
CONTINUOUS
10
213
20
-304
11
213
21
-229
0
CIRCLE
8
BLACK
10
399.824
20
-102.216
40
0.5
0
CIRCLE
8
BLACK
10
430.304
20
-140.044
40
0.5
0
CIRCLE
8
BLACK
10
417.604
20
-142.584
40
0.5
0
CIRCLE
8
BLACK
10
295.269
20
-154.96
40
1.5
0
CIRCLE
8
BLACK
10
448.084
20
-122.264
40
0.5
0
LINE
8
BLACK
6
CONTINUOUS
10
258
20
-224
11
240
21
-224
0
CIRCLE
8
BLACK
10
440.464
20
-142.584
40
0.5
0
CIRCLE
8
BLACK
10
412.524
20
-140.044
40
0.5
0
LINE
8
BLACK
6
CONTINUOUS
10
258
20
-231
11
258
21
-224
0
CIRCLE
8
BLACK
10
329.293
20
-164.897
40
1.5
0
CIRCLE
8
BLACK
10
432.844
20
-140.044
40
0.5
0
CIRCLE
8
BLACK
10
427.764
20
-140.044
40
0.5
0
CIRCLE
8
BLACK
10
425.224
20
-140.044
40
0.5
0
CIRCLE
8
BLACK
10
283
20
-102
40
0.5
0
CIRCLE
8
BLACK
10
448.084
20
-129.884
40
0.5
0
CIRCLE
8
BLACK
10
448.084
20
-117.184
40
0.5
0
CIRCLE
8
BLACK
10
440.464
20
-140.044
40
0.5
0
CIRCLE
8
BLACK
10
450.004
20
-162.104
40
1.6
0
CIRCLE
8
BLACK
10
355
20
-94.5
40
1.5
0
CIRCLE
8
BLACK
10
422.684
20
-140.044
40
0.5
0
CIRCLE
8
BLACK
10
317
20
-136
40
0.5
0
LINE
8
BLACK
6
CONTINUOUS
10
222.88
20
-93.41
11
222.88
21
-83.41
0
CIRCLE
8
BLACK
10
448.084
20
-124.804
40
0.5
0
CIRCLE
8
BLACK
10
412.524
20
-142.584
40
0.5
0
CIRCLE
8
BLACK
10
448.084
20
-82.64
40
0.5
0
LINE
8
BLACK
6
CONTINUOUS
10
278.5
20
-239
11
278.5
21
-299
0
CIRCLE
8
BLACK
10
445.544
20
-140.044
40
0.5
0
CIRCLE
8
BLACK
10
448.084
20
-140.044
40
0.5
0
CIRCLE
8
BLACK
10
405.59
20
-51.75
40
1.65
0
CIRCLE
8
BLACK
10
448.084
20
-129.884
40
0.5
0
CIRCLE
8
BLACK
10
448.084
20
-109.564
40
0.5
0
CIRCLE
8
BLACK
10
448.084
20
-101.944
40
0.5
0
LINE
8
BLACK
6
CONTINUOUS
10
206.95
20
-93.5
11
222.95
21
-93.5
0
LINE
8
BLACK
6
CONTINUOUS
10
427
20
-253
11
443
21
-253
0
CIRCLE
8
BLACK
10
399.824
20
-109.836
40
0.5
0
CIRCLE
8
BLACK
10
448.084
20
-109.564
40
0.5
0
CIRCLE
8
BLACK
10
427.764
20
-140.044
40
0.5
0
LINE
8
BLACK
6
CONTINUOUS
10
475
20
-204.584
11
375
21
-204.584
0
CIRCLE
8
BLACK
10
399.82
20
-142.58
40
1.6
0
LINE
8
BLACK
6
CONTINUOUS
10
274.032
20
-231.004
11
292.032
21
-231.004
0
LINE
8
BLACK
6
CONTINUOUS
10
415.904
20
-93.288
11
431.904
21
-93.288
0
CIRCLE
8
BLACK
10
415.064
20
-140.044
40
0.5
0
LINE
8
BLACK
6
CONTINUOUS
10
427
20
-239
11
443
21
-239
0
LINE
8
BLACK
6
CONTINUOUS
10
475
20
-149.584
11
375
21
-149.584
0
CIRCLE
8
BLACK
10
429.38
20
-49.87
40
1.1
0
CIRCLE
8
BLACK
10
355
20
-84.5
40
1.5
0
CIRCLE
8
BLACK
10
399.824
20
-112.376
40
0.5
0
CIRCLE
8
BLACK
10
448.084
20
-72.48
40
0.5
0
CIRCLE
8
BLACK
10
399.824
20
-99.676
40
0.5
0
CIRCLE
8
BLACK
10
448.084
20
-129.884
40
0.5
0
CIRCLE
8
BLACK
10
448.084
20
-69.94
40
0.5
0
CIRCLE
8
BLACK
10
448.084
20
-109.564
40
0.5
0
LINE
8
BLACK
6
CONTINUOUS
10
274.032
20
-224.004
11
274.032
21
-231.004
0
CIRCLE
8
BLACK
10
415.064
20
-140.044
40
0.5
0
LINE
8
BLACK
6
CONTINUOUS
10
450.582
20
-142.691
11
448.082
21
-145.191
0
CIRCLE
8
BLACK
10
399.824
20
-127.344
40
0.5
0
CIRCLE
8
BLACK
10
399.824
20
-84.164
40
0.5
0
CIRCLE
8
BLACK
10
399.824
20
-112.376
40
0.5
0
CIRCLE
8
BLACK
10
448.084
20
-82.64
40
0.5
0
CIRCLE
8
BLACK
10
425.224
20
-142.584
40
0.5
0
CIRCLE
8
BLACK
10
399.824
20
-134.964
40
0.5
0
LINE
8
BLACK
6
CONTINUOUS
10
427.02
20
-276.627
11
443.02
21
-276.627
0
CIRCLE
8
BLACK
10
283
20
-205
40
9
0
CIRCLE
8
BLACK
10
448.084
20
-94.324
40
0.5
0
LINE
8
BLACK
6
CONTINUOUS
10
181.88
20
-83.41
11
165.88
21
-83.41
0
CIRCLE
8
BLACK
10
465
20
-67.98
40
7
0
CIRCLE
8
BLACK
10
441.38
20
-49.87
40
1.1
0
LINE
8
BLACK
6
CONTINUOUS
10
177
20
-239
11
193
21
-239
0
LINE
8
BLACK
6
CONTINUOUS
10
193
20
-239
11
193
21
-229
0
CIRCLE
8
BLACK
10
448.084
20
-61.3036
40
1.6
0
CIRCLE
8
BLACK
10
448.084
20
-77.56
40
0.5
0
CIRCLE
8
BLACK
10
448.084
20
-104.484
40
0.5
0
LINE
8
BLACK
6
CONTINUOUS
10
397.417
20
-46.2725
11
450.582
21
-46.2725
0
CIRCLE
8
BLACK
10
199.476
20
-162.076
40
1.6
0
CIRCLE
8
BLACK
10
399.824
20
-89.244
40
0.5
0
CIRCLE
8
BLACK
10
437.924
20
-142.584
40
0.5
0
LINE
8
BLACK
6
CONTINUOUS
10
448.082
20
-145.191
11
437.882
21
-145.191
0
LINE
8
BLACK
6
CONTINUOUS
10
375
20
-199.584
11
475
21
-199.584
0
LINE
8
BLACK
6
CONTINUOUS
10
253.5
20
-299
11
253.5
21
-239
0
CIRCLE
8
BLACK
10
399.824
20
-137.504
40
0.5
0
CIRCLE
8
BLACK
10
404.904
20
-142.584
40
0.5
0
CIRCLE
8
BLACK
10
399.824
20
-97.136
40
0.5
0
CIRCLE
8
BLACK
10
412.524
20
-142.584
40
0.5
0
CIRCLE
8
BLACK
10
343
20
-99.5
40
1.5
0
LINE
8
BLACK
6
CONTINUOUS
10
398.678
20
-145.191
11
397.417
21
-145.19
0
CIRCLE
8
BLACK
10
445.544
20
-142.584
40
0.5
0
CIRCLE
8
BLACK
10
434.14
20
-54.58
40
0.475
0
CIRCLE
8
BLACK
10
399.824
20
-124.804
40
0.5
0
CIRCLE
8
BLACK
10
448.084
20
-61.3036
40
1.6
0
CIRCLE
8
BLACK
10
448.084
20
-91.784
40
0.5
0
CIRCLE
8
BLACK
10
422.684
20
-140.044
40
0.5
0
CIRCLE
8
BLACK
10
465
20
-67.98
40
0.5
0
CIRCLE
8
BLACK
10
399.824
20
-99.676
40
0.5
0
CIRCLE
8
BLACK
10
443.004
20
-142.584
40
0.5
0
CIRCLE
8
BLACK
10
405.59
20
-57.75
40
1.65
0
CIRCLE
8
BLACK
10
448.084
20
-80.1
40
0.5
0
CIRCLE
8
BLACK
10
420.144
20
-140.044
40
0.5
0
LINE
8
BLACK
6
CONTINUOUS
10
397.417
20
-46.2725
11
450.582
21
-46.2725
0
CIRCLE
8
BLACK
10
425.24
20
-112.22
40
0.5
0
CIRCLE
8
BLACK
10
249
20
-68
40
0.5
0
CIRCLE
8
BLACK
10
448.084
20
-104.484
40
0.5
0
CIRCLE
8
BLACK
10
436.64
20
-52.58
40
0.475
0
CIRCLE
8
BLACK
10
405.59
20
-51.75
40
1.65
0
CIRCLE
8
BLACK
10
432.844
20
-112.1
40
1.6
0
CIRCLE
8
BLACK
10
399.824
20
-132.424
40
0.5
0
LINE
8
BLACK
6
CONTINUOUS
10
448.082
20
-145.191
11
437.882
21
-145.191
0
CIRCLE
8
BLACK
10
399.824
20
-107.296
40
0.5
0
CIRCLE
8
BLACK
10
448.084
20
-117.184
40
0.5
0
LINE
8
BLACK
6
CONTINUOUS
10
373.904
20
-93.288
11
389.904
21
-93.288
0
CIRCLE
8
BLACK
10
448.084
20
-119.724
40
0.5
0
ARC
8
BLACK
10
174
20
-114
40
0.5
50
180
51
360
0
LINE
8
BLACK
6
CONTINUOUS
10
165.95
20
-93.5
11
181.95
21
-93.5
0
CIRCLE
8
BLACK
10
343
20
-114.5
40
1.5
0
CIRCLE
8
BLACK
10
399.824
20
-107.296
40
0.5
0
CIRCLE
8
BLACK
10
448.084
20
-94.324
40
0.5
0
ARC
8
BLACK
10
174
20
-114
40
8
50
-0
51
180
0
LINE
8
BLACK
6
CONTINUOUS
10
427
20
-243
11
427
21
-253
0
CIRCLE
8
BLACK
10
425.224
20
-142.584
40
0.5
0
CIRCLE
8
BLACK
10
420.144
20
-140.044
40
0.5
0
CIRCLE
8
BLACK
10
435.384
20
-140.044
40
0.5
0
LINE
8
BLACK
6
CONTINUOUS
10
397.417
20
-46.2725
11
450.582
21
-46.2725
0
CIRCLE
8
BLACK
10
432.844
20
-140.044
40
0.5
0
LINE
8
BLACK
6
CONTINUOUS
10
398.678
20
-145.191
11
397.417
21
-145.19
0
CIRCLE
8
BLACK
10
295.269
20
-139.96
40
1.5
0
CIRCLE
8
BLACK
10
448.084
20
-104.484
40
0.5
0
LINE
8
BLACK
6
CONTINUOUS
10
401.175
20
-147.727
11
398.678
21
-145.191
0
LINE
8
BLACK
6
CONTINUOUS
10
375
20
-149.584
11
375
21
-199.584
0
LINE
8
BLACK
6
CONTINUOUS
10
124.524
20
-149.584
11
124.524
21
-199.584
0
CIRCLE
8
BLACK
10
317
20
-170
40
0.5
0
CIRCLE
8
BLACK
10
399.82
20
-142.58
40
1.6
0
CIRCLE
8
BLACK
10
448.084
20
-99.404
40
0.5
0
LINE
8
BLACK
6
CONTINUOUS
10
123.88
20
-83.41
11
123.88
21
-93.41
0
CIRCLE
8
BLACK
10
399.824
20
-81.624
40
0.5
0
CIRCLE
8
BLACK
10
448.084
20
-72.48
40
0.5
0
CIRCLE
8
BLACK
10
399.824
20
-112.376
40
0.5
0
LINE
8
BLACK
6
CONTINUOUS
10
397.417
20
-145.19
11
397.417
21
-46.2725
0
CIRCLE
8
BLACK
10
249
20
-205
40
0.5
0
CIRCLE
8
BLACK
10
399.824
20
-91.784
40
0.5
0
CIRCLE
8
BLACK
10
417.604
20
-140.044
40
0.5
0
CIRCLE
8
BLACK
10
249
20
-170
40
7
0
CIRCLE
8
BLACK
10
434.14
20
-54.58
40
0.475
0
LINE
8
BLACK
6
CONTINUOUS
10
373.904
20
-83.288
11
373.904
21
-93.288
0
CIRCLE
8
BLACK
10
448.084
20
-87.72
40
0.5
0
CIRCLE
8
BLACK
10
199.486
20
-187.056
40
1.6
0
CIRCLE
8
BLACK
10
436.64
20
-52.58
40
0.475
0
LINE
8
BLACK
6
CONTINUOUS
10
253.5
20
-239
11
244.5
21
-239
0
CIRCLE
8
BLACK
10
440.464
20
-140.044
40
0.5
0
CIRCLE
8
BLACK
10
462.504
20
-174.594
40
1.6
0
CIRCLE
8
BLACK
10
399.824
20
-124.804
40
0.5
0
CIRCLE
8
BLACK
10
448.084
20
-99.404
40
0.5
0
LINE
8
BLACK
6
CONTINUOUS
10
450.582
20
-46.2725
11
450.582
21
-142.691
0
CIRCLE
8
BLACK
10
432.844
20
-142.584
40
0.5
0
CIRCLE
8
BLACK
10
211.976
20
-174.566
40
1.6
0
CIRCLE
8
BLACK
10
448.084
20
-140.044
40
0.5
0
CIRCLE
8
BLACK
10
427.78
20
-109.68
40
0.5
0
CIRCLE
8
BLACK
10
448.084
20
-119.724
40
0.5
0
CIRCLE
8
BLACK
10
355
20
-89.5
40
1.5
0
CIRCLE
8
BLACK
10
448.084
20
-101.944
40
0.5
0
CIRCLE
8
BLACK
10
399.824
20
-114.916
40
0.5
0
LINE
8
BLACK
6
CONTINUOUS
10
443
20
-294
11
427
21
-294
0
CIRCLE
8
BLACK
10
434.14
20
-52.58
40
0.475
0
CIRCLE
8
BLACK
10
355
20
-119.5
40
1.5
0
LINE
8
BLACK
6
CONTINUOUS
10
472.904
20
-93.288
11
472.904
21
-83.288
0
LINE
8
BLACK
6
CONTINUOUS
10
124.524
20
-149.584
11
124.524
21
-199.584
0
ARC
8
BLACK
10
174
20
-114
40
0.5
50
-0
51
180
0
LINE
8
BLACK
6
CONTINUOUS
10
321.5
20
-239
11
312.5
21
-239
0
LINE
8
BLACK
6
CONTINUOUS
10
389.904
20
-83.288
11
373.904
21
-83.288
0
LINE
8
BLACK
6
CONTINUOUS
10
308.019
20
-224.018
11
308.019
21
-231.018
0
LINE
8
BLACK
6
CONTINUOUS
10
398.678
20
-145.191
11
397.417
21
-145.19
0
CIRCLE
8
BLACK
10
409.984
20
-142.584
40
0.5
0
CIRCLE
8
BLACK
10
435.384
20
-142.584
40
0.5
0
CIRCLE
8
BLACK
10
415.064
20
-140.044
40
0.5
0
CIRCLE
8
BLACK
10
400.058
20
-187.098
40
1.6
0
CIRCLE
8
BLACK
10
448.084
20
-61.3036
40
1.6
0
CIRCLE
8
BLACK
10
430.304
20
-142.584
40
0.5
0
LINE
8
BLACK
6
CONTINUOUS
10
203
20
-229
11
203
21
-304
0
CIRCLE
8
BLACK
10
437.508
20
-174.606
40
1.6
0
LINE
8
BLACK
6
CONTINUOUS
10
124.524
20
-199.584
11
224.524
21
-199.584
0
CIRCLE
8
BLACK
10
420.144
20
-142.584
40
0.5
0
CIRCLE
8
BLACK
10
435.384
20
-142.584
40
0.5
0
CIRCLE
8
BLACK
10
317
20
-205
40
0.5
0
CIRCLE
8
BLACK
10
420.144
20
-140.044
40
0.5
0
CIRCLE
8
BLACK
10
404.904
20
-140.044
40
0.5
0
CIRCLE
8
BLACK
10
343
20
-89.5
40
1.5
0
CIRCLE
8
BLACK
10
448.084
20
-127.344
40
0.5
0
CIRCLE
8
BLACK
10
422.684
20
-142.584
40
0.5
0
CIRCLE
8
BLACK
10
427.764
20
-140.044
40
0.5
0
LINE
8
BLACK
6
CONTINUOUS
10
443
20
-243
11
427
21
-243
0
CIRCLE
8
BLACK
10
425.24
20
-112.22
40
0.5
0
CIRCLE
8
BLACK
10
448.084
20
-136.234
40
1.6
0
CIRCLE
8
BLACK
10
437.924
20
-142.584
40
0.5
0
LINE
8
BLACK
6
CONTINUOUS
10
448.082
20
-145.191
11
437.882
21
-145.191
0
LINE
8
BLACK
6
CONTINUOUS
10
165.88
20
-83.41
11
165.88
21
-93.41
0
CIRCLE
8
BLACK
10
448.084
20
-129.884
40
0.5
0
CIRCLE
8
BLACK
10
329.293
20
-149.897
40
1.5
0
CIRCLE
8
BLACK
10
448.084
20
-72.48
40
0.5
0
LINE
8
BLACK
6
CONTINUOUS
10
431.904
20
-83.288
11
415.904
21
-83.288
0
CIRCLE
8
BLACK
10
407.444
20
-142.584
40
0.5
0
CIRCLE
8
BLACK
10
448.084
20
-94.324
40
0.5
0
CIRCLE
8
BLACK
10
409.984
20
-142.584
40
0.5
0
CIRCLE
8
BLACK
10
427.764
20
-140.044
40
0.5
0
CIRCLE
8
BLACK
10
448.084
20
-109.564
40
0.5
0
CIRCLE
8
BLACK
10
399.824
20
-91.784
40
0.5
0
LINE
8
BLACK
6
CONTINUOUS
10
326.019
20
-231.018
11
326.019
21
-224.018
0
LINE
8
BLACK
6
CONTINUOUS
10
224.524
20
-224.584
11
224.524
21
-204.584
0
ARC
8
BLACK
10
424
20
-114
40
8
50
180
51
360
0
CIRCLE
8
BLACK
10
427.78
20
-112.22
40
0.5
0
CIRCLE
8
BLACK
10
432.844
20
-142.584
40
0.5
0
CIRCLE
8
BLACK
10
329.293
20
-144.897
40
1.5
0
LINE
8
BLACK
6
CONTINUOUS
10
450.582
20
-46.2725
11
450.582
21
-142.691
0
LINE
8
BLACK
6
CONTINUOUS
10
475
20
-149.584
11
375
21
-149.584
0
CIRCLE
8
BLACK
10
441.38
20
-49.87
40
1.1
0
CIRCLE
8
BLACK
10
422.7
20
-112.22
40
0.5
0
CIRCLE
8
BLACK
10
283
20
-102
40
7
0
LINE
8
BLACK
6
CONTINUOUS
10
203
20
-304
11
213
21
-304
0
CIRCLE
8
BLACK
10
432.844
20
-112.1
40
1.6
0
CIRCLE
8
BLACK
10
399.824
20
-104.756
40
0.5
0
CIRCLE
8
BLACK
10
399.824
20
-60.034
40
1.6
0
CIRCLE
8
BLACK
10
427.78
20
-112.22
40
0.5
0
CIRCLE
8
BLACK
10
425.24
20
-112.22
40
0.5
0
LINE
8
BLACK
6
CONTINUOUS
10
206.88
20
-83.41
11
206.88
21
-93.41
0
LINE
8
BLACK
6
CONTINUOUS
10
375
20
-199.584
11
475
21
-199.584
0
CIRCLE
8
BLACK
10
448.084
20
-91.784
40
0.5
0
CIRCLE
8
BLACK
10
422.7
20
-109.68
40
0.5
0
LINE
8
BLACK
6
CONTINUOUS
10
450.582
20
-142.691
11
448.082
21
-145.191
0
CIRCLE
8
BLACK
10
404.904
20
-142.584
40
0.5
0
CIRCLE
8
BLACK
10
448.084
20
-124.804
40
0.5
0
CIRCLE
8
BLACK
10
425.224
20
-140.044
40
0.5
0
CIRCLE
8
BLACK
10
448.084
20
-80.1
40
0.5
0
CIRCLE
8
BLACK
10
399.824
20
-129.884
40
0.5
0
CIRCLE
8
BLACK
10
448.084
20
-82.64
40
0.5
0
CIRCLE
8
BLACK
10
448.084
20
-107.024
40
0.5
0
CIRCLE
8
BLACK
10
450.014
20
-187.084
40
1.6
0
LINE
8
BLACK
6
CONTINUOUS
10
475
20
-199.584
11
475
21
-149.584
0
LINE
8
BLACK
6
CONTINUOUS
10
193
20
-304
11
193
21
-294
0
CIRCLE
8
BLACK
10
399.824
20
-134.964
40
0.5
0
ARC
8
BLACK
10
174
20
-114
40
8
50
180
51
360
0
LINE
8
BLACK
6
CONTINUOUS
10
479
20
-311
11
479
21
-51
0
CIRCLE
8
BLACK
10
440.464
20
-140.044
40
0.5
0
CIRCLE
8
BLACK
10
399.824
20
-79.084
40
0.5
0
CIRCLE
8
BLACK
10
432.844
20
-112.1
40
1.6
0
CIRCLE
8
BLACK
10
448.084
20
-96.864
40
0.5
0
CIRCLE
8
BLACK
10
409.984
20
-140.044
40
0.5
0
CIRCLE
8
BLACK
10
317
20
-102
40
7
0
CIRCLE
8
BLACK
10
435.384
20
-142.584
40
0.5
0
LINE
8
BLACK
6
CONTINUOUS
10
397.417
20
-145.19
11
397.417
21
-46.2725
0
LINE
8
BLACK
6
CONTINUOUS
10
401.175
20
-147.727
11
398.678
21
-145.191
0
CIRCLE
8
BLACK
10
443.004
20
-142.584
40
0.5
0
LINE
8
BLACK
6
CONTINUOUS
10
292.032
20
-224.004
11
274.032
21
-224.004
0
CIRCLE
8
BLACK
10
425.224
20
-140.044
40
0.5
0
CIRCLE
8
BLACK
10
283
20
-68
40
0.5
0
CIRCLE
8
BLACK
10
448.084
20
-136.234
40
1.6
0
CIRCLE
8
BLACK
10
448.084
20
-124.804
40
0.5
0
CIRCLE
8
BLACK
10
405.59
20
-51.75
40
1.65
0
CIRCLE
8
BLACK
10
448.084
20
-77.56
40
0.5
0
CIRCLE
8
BLACK
10
382
20
-67.98
40
7
0
CIRCLE
8
BLACK
10
317
20
-68
40
0.5
0
CIRCLE
8
BLACK
10
422.684
20
-140.044
40
0.5
0
CIRCLE
8
BLACK
10
399.824
20
-60.034
40
1.6
0
LINE
8
BLACK
6
CONTINUOUS
10
450.582
20
-46.2725
11
450.582
21
-142.691
0
LINE
8
BLACK
6
CONTINUOUS
10
435.345
20
-147.727
11
401.175
21
-147.727
0
CIRCLE
8
BLACK
10
430.304
20
-142.584
40
0.5
0
CIRCLE
8
BLACK
10
427.764
20
-142.584
40
0.5
0
CIRCLE
8
BLACK
10
437.924
20
-140.044
40
0.5
0
CIRCLE
8
BLACK
10
443.004
20
-140.044
40
0.5
0
CIRCLE
8
BLACK
10
283
20
-136
40
7
0
LINE
8
BLACK
6
CONTINUOUS
10
240
20
-231
11
258
21
-231
0
CIRCLE
8
BLACK
10
149.52
20
-162.09
40
1.6
0
LINE
8
BLACK
6
CONTINUOUS
10
287.5
20
-239
11
278.5
21
-239
0
CIRCLE
8
BLACK
10
422.7
20
-109.68
40
0.5
0
CIRCLE
8
BLACK
10
400.613
20
-54.7566
40
1.65
0
CIRCLE
8
BLACK
10
432.844
20
-112.1
40
1.6
0
CIRCLE
8
BLACK
10
399.824
20
-114.916
40
0.5
0
LINE
8
BLACK
6
CONTINUOUS
10
475
20
-224.584
11
475
21
-204.584
0
CIRCLE
8
BLACK
10
355
20
-99.5
40
1.5
0
CIRCLE
8
BLACK
10
448.084
20
-122.264
40
0.5
0
LINE
8
BLACK
6
CONTINUOUS
10
443
20
-229
11
427
21
-229
0
LINE
8
BLACK
6
CONTINUOUS
10
244.5
20
-239
11
244.5
21
-299
0
CIRCLE
8
BLACK
10
441.38
20
-49.87
40
1.1
0
CIRCLE
8
BLACK
10
399.824
20
-122.264
40
0.5
0
CIRCLE
8
BLACK
10
432.844
20
-142.584
40
0.5
0
LINE
8
BLACK
6
CONTINUOUS
10
456.904
20
-93.288
11
472.904
21
-93.288
0
CIRCLE
8
BLACK
10
448.084
20
-114.644
40
0.5
0
LINE
8
BLACK
6
CONTINUOUS
10
456.904
20
-83.288
11
456.904
21
-93.288
0
LINE
8
BLACK
6
CONTINUOUS
10
375
20
-149.584
11
375
21
-199.584
0
CIRCLE
8
BLACK
10
404.904
20
-142.584
40
0.5
0
CIRCLE
8
BLACK
10
448.084
20
-99.404
40
0.5
0
CIRCLE
8
BLACK
10
407.444
20
-142.584
40
0.5
0
CIRCLE
8
BLACK
10
448.084
20
-61.3036
40
1.6
0
CIRCLE
8
BLACK
10
149.53
20
-187.07
40
1.6
0
ARC
8
BLACK
10
424
20
-114
40
0.5
50
-0
51
180
0
CIRCLE
8
BLACK
10
343
20
-104.5
40
1.5
0
CIRCLE
8
BLACK
10
417.604
20
-140.044
40
0.5
0
CIRCLE
8
BLACK
10
399.82
20
-142.58
40
1.6
0
CIRCLE
8
BLACK
10
448.084
20
-99.404
40
0.5
0
CIRCLE
8
BLACK
10
448.084
20
-117.184
40
0.5
0
CIRCLE
8
BLACK
10
173.96
20
-68.06
40
7
0
CIRCLE
8
BLACK
10
317
20
-68
40
7
0
CIRCLE
8
BLACK
10
399.824
20
-86.704
40
0.5
0
CIRCLE
8
BLACK
10
399.824
20
-109.836
40
0.5
0
CIRCLE
8
BLACK
10
425.24
20
-109.68
40
0.5
0
CIRCLE
8
BLACK
10
425.24
20
-109.68
40
0.5
0
CIRCLE
8
BLACK
10
412.548
20
-174.608
40
1.6
0
CIRCLE
8
BLACK
10
425.224
20
-142.584
40
0.5
0
CIRCLE
8
BLACK
10
407.444
20
-140.044
40
0.5
0
LINE
8
BLACK
6
CONTINUOUS
10
177
20
-266.88
11
177
21
-276.88
0
LINE
8
BLACK
6
CONTINUOUS
10
401.175
20
-147.727
11
398.678
21
-145.191
0
CIRCLE
8
BLACK
10
448.084
20
-124.804
40
0.5
0
CIRCLE
8
BLACK
10
399.824
20
-127.344
40
0.5
0
CIRCLE
8
BLACK
10
399.82
20
-142.58
40
1.6
0
CIRCLE
8
BLACK
10
343
20
-94.5
40
1.5
0
CIRCLE
8
BLACK
10
404.904
20
-140.044
40
0.5
0
CIRCLE
8
BLACK
10
399.824
20
-129.884
40
0.5
0
CIRCLE
8
BLACK
10
448.084
20
-96.864
40
0.5
0
CIRCLE
8
BLACK
10
448.084
20
-132.424
40
0.5
0
CIRCLE
8
BLACK
10
404.9
20
-112.1
40
1.6
0
CIRCLE
8
BLACK
10
137.024
20
-174.592
40
1.6
0
CIRCLE
8
BLACK
10
399.824
20
-132.424
40
0.5
0
CIRCLE
8
BLACK
10
422.684
20
-140.044
40
0.5
0
CIRCLE
8
BLACK
10
437.924
20
-142.584
40
0.5
0
CIRCLE
8
BLACK
10
399.824
20
-104.756
40
0.5
0
CIRCLE
8
BLACK
10
399.824
20
-122.264
40
0.5
0
CIRCLE
8
BLACK
10
415.064
20
-142.584
40
0.5
0
CIRCLE
8
BLACK
10
249
20
-102
40
7
0
CIRCLE
8
BLACK
10
295.269
20
-164.96
40
1.5
0
LINE
8
BLACK
6
CONTINUOUS
10
224.524
20
-199.584
11
224.524
21
-149.584
0
CIRCLE
8
BLACK
10
445.544
20
-142.584
40
0.5
0
CIRCLE
8
BLACK
10
349
20
-284
40
7
0
CIRCLE
8
BLACK
10
434.14
20
-52.58
40
0.475
0
CIRCLE
8
BLACK
10
399.824
20
-60.034
40
1.6
0
LINE
8
BLACK
6
CONTINUOUS
10
448.082
20
-145.191
11
437.882
21
-145.191
0
CIRCLE
8
BLACK
10
399.824
20
-137.504
40
0.5
0
CIRCLE
8
BLACK
10
407.444
20
-142.584
40
0.5
0
CIRCLE
8
BLACK
10
249
20
-68
40
7
0
CIRCLE
8
BLACK
10
399.824
20
-137.504
40
0.5
0
CIRCLE
8
BLACK
10
399.824
20
-79.084
40
0.5
0
CIRCLE
8
BLACK
10
404.904
20
-140.044
40
0.5
0
CIRCLE
8
BLACK
10
214.96
20
-68.06
40
0.5
0
CIRCLE
8
BLACK
10
420.144
20
-142.584
40
0.5
0
LINE
8
BLACK
6
CONTINUOUS
10
177
20
-243
11
177
21
-253
0
LINE
8
BLACK
6
CONTINUOUS
10
427
20
-294
11
427
21
-304
0
CIRCLE
8
BLACK
10
427.78
20
-112.22
40
0.5
0
CIRCLE
8
BLACK
10
420.144
20
-142.584
40
0.5
0
CIRCLE
8
BLACK
10
399.824
20
-84.164
40
0.5
0
CIRCLE
8
BLACK
10
448.084
20
-119.724
40
0.5
0
CIRCLE
8
BLACK
10
448.084
20
-85.18
40
0.5
0
LINE
8
BLACK
6
CONTINUOUS
10
224.524
20
-199.584
11
224.524
21
-149.584
0
CIRCLE
8
BLACK
10
448.084
20
-127.344
40
0.5
0
CIRCLE
8
BLACK
10
448.084
20
-136.234
40
1.6
0
CIRCLE
8
BLACK
10
432.844
20
-142.584
40
0.5
0
CIRCLE
8
BLACK
10
399.824
20
-91.784
40
0.5
0
CIRCLE
8
BLACK
10
448.084
20
-107.024
40
0.5
0
CIRCLE
8
BLACK
10
448.084
20
-107.024
40
0.5
0
LINE
8
BLACK
6
CONTINUOUS
10
450.582
20
-142.691
11
448.082
21
-145.191
0
CIRCLE
8
BLACK
10
261
20
-155
40
1.5
0
LINE
8
BLACK
6
CONTINUOUS
10
124.524
20
-204.584
11
124.524
21
-224.584
0
CIRCLE
8
BLACK
10
417.604
20
-142.584
40
0.5
0
CIRCLE
8
BLACK
10
173.96
20
-68.06
40
0.5
0
CIRCLE
8
BLACK
10
249
20
-102
40
0.5
0
CIRCLE
8
BLACK
10
399.824
20
-129.884
40
0.5
0
LINE
8
BLACK
6
CONTINUOUS
10
139.88
20
-93.41
11
139.88
21
-83.41
0
LINE
8
BLACK
6
CONTINUOUS
10
443.02
20
-266.627
11
427.02
21
-266.627
0
CIRCLE
8
BLACK
10
186.98
20
-174.578
40
1.6
0
CIRCLE
8
BLACK
10
317
20
-170
40
7
0
CIRCLE
8
BLACK
10
417.604
20
-142.584
40
0.5
0
CIRCLE
8
BLACK
10
295.269
20
-134.96
40
1.5
0
CIRCLE
8
BLACK
10
407.444
20
-142.584
40
0.5
0
CIRCLE
8
BLACK
10
448.084
20
-101.944
40
0.5
0
LINE
8
BLACK
6
CONTINUOUS
10
308.019
20
-231.018
11
326.019
21
-231.018
0
CIRCLE
8
BLACK
10
399.824
20
-91.784
40
0.5
0
LINE
8
BLACK
6
CONTINUOUS
10
321.5
20
-299
11
321.5
21
-239
0
CIRCLE
8
BLACK
10
448.084
20
-142.584
40
0.5
0
CIRCLE
8
BLACK
10
399.824
20
-97.136
40
0.5
0
CIRCLE
8
BLACK
10
249
20
-136
40
7
0
CIRCLE
8
BLACK
10
448.084
20
-82.64
40
0.5
0
CIRCLE
8
BLACK
10
399.824
20
-134.964
40
0.5
0
CIRCLE
8
BLACK
10
422.7
20
-112.22
40
0.5
0
CIRCLE
8
BLACK
10
399.824
20
-104.756
40
0.5
0
CIRCLE
8
BLACK
10
399.824
20
-81.624
40
0.5
0
CIRCLE
8
BLACK
10
437.924
20
-140.044
40
0.5
0
LINE
8
BLACK
6
CONTINUOUS
10
224.524
20
-149.584
11
124.524
21
-149.584
0
CIRCLE
8
BLACK
10
249
20
-205
40
9
0
CIRCLE
8
BLACK
10
415.064
20
-142.584
40
0.5
0
CIRCLE
8
BLACK
10
448.084
20
-140.044
40
0.5
0
CIRCLE
8
BLACK
10
409.984
20
-140.044
40
0.5
0
ARC
8
BLACK
10
424
20
-114
40
0.5
50
180
51
360
0
CIRCLE
8
BLACK
10
317
20
-136
40
7
0
LINE
8
BLACK
6
CONTINUOUS
10
437.882
20
-145.191
11
435.345
21
-147.727
0
CIRCLE
8
BLACK
10
432.844
20
-140.044
40
0.5
0
CIRCLE
8
BLACK
10
434.14
20
-54.58
40
0.475
0
CIRCLE
8
BLACK
10
430.304
20
-140.044
40
0.5
0
CIRCLE
8
BLACK
10
425.224
20
-142.584
40
0.5
0
CIRCLE
8
BLACK
10
429.38
20
-49.87
40
1.1
0
CIRCLE
8
BLACK
10
448.084
20
-94.324
40
0.5
0
CIRCLE
8
BLACK
10
399.824
20
-97.136
40
0.5
0
CIRCLE
8
BLACK
10
429.38
20
-49.87
40
1.1
0
CIRCLE
8
BLACK
10
399.824
20
-86.704
40
0.5
0
CIRCLE
8
BLACK
10
435.384
20
-140.044
40
0.5
0
CIRCLE
8
BLACK
10
399.824
20
-122.264
40
0.5
0
CIRCLE
8
BLACK
10
448.084
20
-85.18
40
0.5
0
CIRCLE
8
BLACK
10
448.084
20
-75.02
40
0.5
0
CIRCLE
8
BLACK
10
399.824
20
-107.296
40
0.5
0
CIRCLE
8
BLACK
10
430.304
20
-140.044
40
0.5
0
LINE
8
BLACK
6
CONTINUOUS
10
443
20
-243
11
427
21
-243
0
CIRCLE
8
BLACK
10
399.824
20
-102.216
40
0.5
0
LINE
8
BLACK
6
CONTINUOUS
10
124.524
20
-199.584
11
224.524
21
-199.584
0
CIRCLE
8
BLACK
10
437.924
20
-142.584
40
0.5
0
LINE
8
BLACK
6
CONTINUOUS
10
463
20
-304
11
463
21
-229
0
CIRCLE
8
BLACK
10
437.924
20
-140.044
40
0.5
0
CIRCLE
8
BLACK
10
448.084
20
-72.48
40
0.5
0
CIRCLE
8
BLACK
10
448.084
20
-77.56
40
0.5
0
CIRCLE
8
BLACK
10
162.02
20
-174.58
40
1.6
0
CIRCLE
8
BLACK
10
448.084
20
-114.644
40
0.5
0
LINE
8
BLACK
6
CONTINUOUS
10
463
20
-229
11
453
21
-229
0
CIRCLE
8
BLACK
10
427.764
20
-142.584
40
0.5
0
CIRCLE
8
BLACK
10
399.824
20
-109.836
40
0.5
0
LINE
8
BLACK
6
CONTINUOUS
10
139.88
20
-83.41
11
123.88
21
-83.41
0
CIRCLE
8
BLACK
10
430.304
20
-142.584
40
0.5
0
LINE
8
BLACK
6
CONTINUOUS
10
193
20
-294
11
177
21
-294
0
CIRCLE
8
BLACK
10
399.824
20
-99.676
40
0.5
0
CIRCLE
8
BLACK
10
448.084
20
-104.484
40
0.5
0
CIRCLE
8
BLACK
10
399.824
20
-84.164
40
0.5
0
CIRCLE
8
BLACK
10
261
20
-170
40
1.5
0
LINE
8
BLACK
6
CONTINUOUS
10
435.345
20
-147.727
11
401.175
21
-147.727
0
LINE
8
BLACK
6
CONTINUOUS
10
222.88
20
-83.41
11
206.88
21
-83.41
0
CIRCLE
8
BLACK
10
448.084
20
-107.024
40
0.5
0
CIRCLE
8
BLACK
10
422.7
20
-109.68
40
0.5
0
CIRCLE
8
BLACK
10
409.984
20
-142.584
40
0.5
0
CIRCLE
8
BLACK
10
295.269
20
-159.96
40
1.5
0
CIRCLE
8
BLACK
10
399.824
20
-102.216
40
0.5
0
CIRCLE
8
BLACK
10
283
20
-205
40
0.5
0
LINE
8
BLACK
6
CONTINUOUS
10
415.904
20
-83.288
11
415.904
21
-93.288
0
LINE
8
BLACK
6
CONTINUOUS
10
389.904
20
-93.288
11
389.904
21
-83.288
0
CIRCLE
8
BLACK
10
399.824
20
-129.884
40
0.5
0
LINE
8
BLACK
6
CONTINUOUS
10
326.019
20
-224.018
11
308.019
21
-224.018
0
CIRCLE
8
BLACK
10
399.824
20
-99.676
40
0.5
0
LINE
8
BLACK
6
CONTINUOUS
10
193
20
-243
11
177
21
-243
0
CIRCLE
8
BLACK
10
261
20
-140
40
1.5
0
CIRCLE
8
BLACK
10
434.14
20
-54.58
40
0.475
0
CIRCLE
8
BLACK
10
417.604
20
-140.044
40
0.5
0
CIRCLE
8
BLACK
10
434.14
20
-52.58
40
0.475
0
CIRCLE
8
BLACK
10
399.824
20
-112.376
40
0.5
0
CIRCLE
8
BLACK
10
283
20
-170
40
7
0
CIRCLE
8
BLACK
10
404.9
20
-112.1
40
1.6
0
CIRCLE
8
BLACK
10
448.084
20
-122.264
40
0.5
0
CIRCLE
8
BLACK
10
427.78
20
-112.22
40
0.5
0
CIRCLE
8
BLACK
10
420.144
20
-140.044
40
0.5
0
CIRCLE
8
BLACK
10
448.084
20
-75.02
40
0.5
0
CIRCLE
8
BLACK
10
131.96
20
-68.06
40
7
0
CIRCLE
8
BLACK
10
412.524
20
-140.044
40
0.5
0
CIRCLE
8
BLACK
10
448.084
20
-119.724
40
0.5
0
CIRCLE
8
BLACK
10
399.824
20
-109.836
40
0.5
0
ARC
8
BLACK
10
424
20
-114
40
8
50
-0
51
180
0
LINE
8
BLACK
6
CONTINUOUS
10
450.582
20
-46.2725
11
450.582
21
-142.691
0
CIRCLE
8
BLACK
10
329.293
20
-134.897
40
1.5
0
CIRCLE
8
BLACK
10
425.24
20
-112.22
40
0.5
0
LINE
8
BLACK
6
CONTINUOUS
10
193
20
-253
11
193
21
-243
0
CIRCLE
8
BLACK
10
400.613
20
-54.7566
40
1.65
0
CIRCLE
8
BLACK
10
448.084
20
-114.644
40
0.5
0
CIRCLE
8
BLACK
10
440.464
20
-142.584
40
0.5
0
LINE
8
BLACK
6
CONTINUOUS
10
479
20
-311
11
119
21
-311
0
LINE
8
BLACK
6
CONTINUOUS
10
119
20
-311
11
119
21
-51
0
LINE
8
BLACK
6
CONTINUOUS
10
479
20
-51
11
479
21
-311
0
LINE
8
BLACK
6
CONTINUOUS
10
119
20
-51
11
479
21
-51
0
LINE
8
BLACK
6
CONTINUOUS
10
417.552
20
-176.874
11
417.552
21
-171.874
0
LINE
8
BLACK
6
CONTINUOUS
10
417.552
20
-171.874
11
419.266
21
-171.874
0
LINE
8
BLACK
6
CONTINUOUS
10
419.266
20
-171.874
11
419.695
21
-172.112
0
LINE
8
BLACK
6
CONTINUOUS
10
419.695
20
-172.112
11
419.909
21
-172.35
0
LINE
8
BLACK
6
CONTINUOUS
10
419.909
20
-172.35
11
420.123
21
-172.826
0
LINE
8
BLACK
6
CONTINUOUS
10
420.123
20
-172.826
11
420.123
21
-173.541
0
LINE
8
BLACK
6
CONTINUOUS
10
420.123
20
-173.541
11
419.909
21
-174.017
0
LINE
8
BLACK
6
CONTINUOUS
10
419.909
20
-174.017
11
419.695
21
-174.255
0
LINE
8
BLACK
6
CONTINUOUS
10
419.695
20
-174.255
11
419.266
21
-174.493
0
LINE
8
BLACK
6
CONTINUOUS
10
419.266
20
-174.493
11
417.552
21
-174.493
0
LINE
8
BLACK
6
CONTINUOUS
10
421.838
20
-175.445
11
423.981
21
-175.445
0
LINE
8
BLACK
6
CONTINUOUS
10
421.409
20
-176.874
11
422.909
21
-171.874
0
LINE
8
BLACK
6
CONTINUOUS
10
422.909
20
-171.874
11
424.409
21
-176.874
0
LINE
8
BLACK
6
CONTINUOUS
10
425.909
20
-176.874
11
425.909
21
-171.874
0
LINE
8
BLACK
6
CONTINUOUS
10
425.909
20
-171.874
11
426.981
21
-171.874
0
LINE
8
BLACK
6
CONTINUOUS
10
426.981
20
-171.874
11
427.623
21
-172.112
0
LINE
8
BLACK
6
CONTINUOUS
10
427.623
20
-172.112
11
428.052
21
-172.588
0
LINE
8
BLACK
6
CONTINUOUS
10
428.052
20
-172.588
11
428.266
21
-173.064
0
LINE
8
BLACK
6
CONTINUOUS
10
428.266
20
-173.064
11
428.481
21
-174.017
0
LINE
8
BLACK
6
CONTINUOUS
10
428.481
20
-174.017
11
428.481
21
-174.731
0
LINE
8
BLACK
6
CONTINUOUS
10
428.481
20
-174.731
11
428.266
21
-175.683
0
LINE
8
BLACK
6
CONTINUOUS
10
428.266
20
-175.683
11
428.052
21
-176.16
0
LINE
8
BLACK
6
CONTINUOUS
10
428.052
20
-176.16
11
427.623
21
-176.636
0
LINE
8
BLACK
6
CONTINUOUS
10
427.623
20
-176.636
11
426.981
21
-176.874
0
LINE
8
BLACK
6
CONTINUOUS
10
426.981
20
-176.874
11
425.909
21
-176.874
0
LINE
8
BLACK
6
CONTINUOUS
10
430.195
20
-176.636
11
430.838
21
-176.874
0
LINE
8
BLACK
6
CONTINUOUS
10
430.838
20
-176.874
11
431.909
21
-176.874
0
LINE
8
BLACK
6
CONTINUOUS
10
431.909
20
-176.874
11
432.338
21
-176.636
0
LINE
8
BLACK
6
CONTINUOUS
10
432.338
20
-176.636
11
432.552
21
-176.398
0
LINE
8
BLACK
6
CONTINUOUS
10
432.552
20
-176.398
11
432.766
21
-175.922
0
LINE
8
BLACK
6
CONTINUOUS
10
432.766
20
-175.922
11
432.766
21
-175.445
0
LINE
8
BLACK
6
CONTINUOUS
10
432.766
20
-175.445
11
432.552
21
-174.969
0
LINE
8
BLACK
6
CONTINUOUS
10
432.552
20
-174.969
11
432.338
21
-174.731
0
LINE
8
BLACK
6
CONTINUOUS
10
432.338
20
-174.731
11
431.909
21
-174.493
0
LINE
8
BLACK
6
CONTINUOUS
10
431.909
20
-174.493
11
431.052
21
-174.255
0
LINE
8
BLACK
6
CONTINUOUS
10
431.052
20
-174.255
11
430.623
21
-174.017
0
LINE
8
BLACK
6
CONTINUOUS
10
430.623
20
-174.017
11
430.409
21
-173.779
0
LINE
8
BLACK
6
CONTINUOUS
10
430.409
20
-173.779
11
430.195
21
-173.302
0
LINE
8
BLACK
6
CONTINUOUS
10
430.195
20
-173.302
11
430.195
21
-172.826
0
LINE
8
BLACK
6
CONTINUOUS
10
430.195
20
-172.826
11
430.409
21
-172.35
0
LINE
8
BLACK
6
CONTINUOUS
10
430.409
20
-172.35
11
430.623
21
-172.112
0
LINE
8
BLACK
6
CONTINUOUS
10
430.623
20
-172.112
11
431.052
21
-171.874
0
LINE
8
BLACK
6
CONTINUOUS
10
431.052
20
-171.874
11
432.123
21
-171.874
0
LINE
8
BLACK
6
CONTINUOUS
10
432.123
20
-171.874
11
432.766
21
-172.112
0
LINE
8
BLACK
6
CONTINUOUS
10
417.5
20
-176.846
11
417.5
21
-171.846
0
LINE
8
BLACK
6
CONTINUOUS
10
417.5
20
-171.846
11
419.214
21
-171.846
0
LINE
8
BLACK
6
CONTINUOUS
10
419.214
20
-171.846
11
419.643
21
-172.084
0
LINE
8
BLACK
6
CONTINUOUS
10
419.643
20
-172.084
11
419.857
21
-172.322
0
LINE
8
BLACK
6
CONTINUOUS
10
419.857
20
-172.322
11
420.071
21
-172.798
0
LINE
8
BLACK
6
CONTINUOUS
10
420.071
20
-172.798
11
420.071
21
-173.513
0
LINE
8
BLACK
6
CONTINUOUS
10
420.071
20
-173.513
11
419.857
21
-173.989
0
LINE
8
BLACK
6
CONTINUOUS
10
419.857
20
-173.989
11
419.643
21
-174.227
0
LINE
8
BLACK
6
CONTINUOUS
10
419.643
20
-174.227
11
419.214
21
-174.465
0
LINE
8
BLACK
6
CONTINUOUS
10
419.214
20
-174.465
11
417.5
21
-174.465
0
LINE
8
BLACK
6
CONTINUOUS
10
421.786
20
-175.417
11
423.929
21
-175.417
0
LINE
8
BLACK
6
CONTINUOUS
10
421.357
20
-176.846
11
422.857
21
-171.846
0
LINE
8
BLACK
6
CONTINUOUS
10
422.857
20
-171.846
11
424.357
21
-176.846
0
LINE
8
BLACK
6
CONTINUOUS
10
425.857
20
-176.846
11
425.857
21
-171.846
0
LINE
8
BLACK
6
CONTINUOUS
10
425.857
20
-171.846
11
426.929
21
-171.846
0
LINE
8
BLACK
6
CONTINUOUS
10
426.929
20
-171.846
11
427.571
21
-172.084
0
LINE
8
BLACK
6
CONTINUOUS
10
427.571
20
-172.084
11
428
21
-172.56
0
LINE
8
BLACK
6
CONTINUOUS
10
428
20
-172.56
11
428.214
21
-173.036
0
LINE
8
BLACK
6
CONTINUOUS
10
428.214
20
-173.036
11
428.429
21
-173.989
0
LINE
8
BLACK
6
CONTINUOUS
10
428.429
20
-173.989
11
428.429
21
-174.703
0
LINE
8
BLACK
6
CONTINUOUS
10
428.429
20
-174.703
11
428.214
21
-175.655
0
LINE
8
BLACK
6
CONTINUOUS
10
428.214
20
-175.655
11
428
21
-176.132
0
LINE
8
BLACK
6
CONTINUOUS
10
428
20
-176.132
11
427.571
21
-176.608
0
LINE
8
BLACK
6
CONTINUOUS
10
427.571
20
-176.608
11
426.929
21
-176.846
0
LINE
8
BLACK
6
CONTINUOUS
10
426.929
20
-176.846
11
425.857
21
-176.846
0
LINE
8
BLACK
6
CONTINUOUS
10
430.143
20
-176.608
11
430.786
21
-176.846
0
LINE
8
BLACK
6
CONTINUOUS
10
430.786
20
-176.846
11
431.857
21
-176.846
0
LINE
8
BLACK
6
CONTINUOUS
10
431.857
20
-176.846
11
432.286
21
-176.608
0
LINE
8
BLACK
6
CONTINUOUS
10
432.286
20
-176.608
11
432.5
21
-176.37
0
LINE
8
BLACK
6
CONTINUOUS
10
432.5
20
-176.37
11
432.714
21
-175.894
0
LINE
8
BLACK
6
CONTINUOUS
10
432.714
20
-175.894
11
432.714
21
-175.417
0
LINE
8
BLACK
6
CONTINUOUS
10
432.714
20
-175.417
11
432.5
21
-174.941
0
LINE
8
BLACK
6
CONTINUOUS
10
432.5
20
-174.941
11
432.286
21
-174.703
0
LINE
8
BLACK
6
CONTINUOUS
10
432.286
20
-174.703
11
431.857
21
-174.465
0
LINE
8
BLACK
6
CONTINUOUS
10
431.857
20
-174.465
11
431
21
-174.227
0
LINE
8
BLACK
6
CONTINUOUS
10
431
20
-174.227
11
430.571
21
-173.989
0
LINE
8
BLACK
6
CONTINUOUS
10
430.571
20
-173.989
11
430.357
21
-173.751
0
LINE
8
BLACK
6
CONTINUOUS
10
430.357
20
-173.751
11
430.143
21
-173.274
0
LINE
8
BLACK
6
CONTINUOUS
10
430.143
20
-173.274
11
430.143
21
-172.798
0
LINE
8
BLACK
6
CONTINUOUS
10
430.143
20
-172.798
11
430.357
21
-172.322
0
LINE
8
BLACK
6
CONTINUOUS
10
430.357
20
-172.322
11
430.571
21
-172.084
0
LINE
8
BLACK
6
CONTINUOUS
10
430.571
20
-172.084
11
431
21
-171.846
0
LINE
8
BLACK
6
CONTINUOUS
10
431
20
-171.846
11
432.071
21
-171.846
0
LINE
8
BLACK
6
CONTINUOUS
10
432.071
20
-171.846
11
432.714
21
-172.084
0
LINE
8
BLACK
6
CONTINUOUS
10
417.552
20
-176.874
11
417.552
21
-171.874
0
LINE
8
BLACK
6
CONTINUOUS
10
417.552
20
-171.874
11
419.266
21
-171.874
0
LINE
8
BLACK
6
CONTINUOUS
10
419.266
20
-171.874
11
419.695
21
-172.112
0
LINE
8
BLACK
6
CONTINUOUS
10
419.695
20
-172.112
11
419.909
21
-172.35
0
LINE
8
BLACK
6
CONTINUOUS
10
419.909
20
-172.35
11
420.123
21
-172.826
0
LINE
8
BLACK
6
CONTINUOUS
10
420.123
20
-172.826
11
420.123
21
-173.541
0
LINE
8
BLACK
6
CONTINUOUS
10
420.123
20
-173.541
11
419.909
21
-174.017
0
LINE
8
BLACK
6
CONTINUOUS
10
419.909
20
-174.017
11
419.695
21
-174.255
0
LINE
8
BLACK
6
CONTINUOUS
10
419.695
20
-174.255
11
419.266
21
-174.493
0
LINE
8
BLACK
6
CONTINUOUS
10
419.266
20
-174.493
11
417.552
21
-174.493
0
LINE
8
BLACK
6
CONTINUOUS
10
421.838
20
-175.445
11
423.981
21
-175.445
0
LINE
8
BLACK
6
CONTINUOUS
10
421.409
20
-176.874
11
422.909
21
-171.874
0
LINE
8
BLACK
6
CONTINUOUS
10
422.909
20
-171.874
11
424.409
21
-176.874
0
LINE
8
BLACK
6
CONTINUOUS
10
425.909
20
-176.874
11
425.909
21
-171.874
0
LINE
8
BLACK
6
CONTINUOUS
10
425.909
20
-171.874
11
426.981
21
-171.874
0
LINE
8
BLACK
6
CONTINUOUS
10
426.981
20
-171.874
11
427.623
21
-172.112
0
LINE
8
BLACK
6
CONTINUOUS
10
427.623
20
-172.112
11
428.052
21
-172.588
0
LINE
8
BLACK
6
CONTINUOUS
10
428.052
20
-172.588
11
428.266
21
-173.064
0
LINE
8
BLACK
6
CONTINUOUS
10
428.266
20
-173.064
11
428.481
21
-174.017
0
LINE
8
BLACK
6
CONTINUOUS
10
428.481
20
-174.017
11
428.481
21
-174.731
0
LINE
8
BLACK
6
CONTINUOUS
10
428.481
20
-174.731
11
428.266
21
-175.683
0
LINE
8
BLACK
6
CONTINUOUS
10
428.266
20
-175.683
11
428.052
21
-176.16
0
LINE
8
BLACK
6
CONTINUOUS
10
428.052
20
-176.16
11
427.623
21
-176.636
0
LINE
8
BLACK
6
CONTINUOUS
10
427.623
20
-176.636
11
426.981
21
-176.874
0
LINE
8
BLACK
6
CONTINUOUS
10
426.981
20
-176.874
11
425.909
21
-176.874
0
LINE
8
BLACK
6
CONTINUOUS
10
430.195
20
-176.636
11
430.838
21
-176.874
0
LINE
8
BLACK
6
CONTINUOUS
10
430.838
20
-176.874
11
431.909
21
-176.874
0
LINE
8
BLACK
6
CONTINUOUS
10
431.909
20
-176.874
11
432.338
21
-176.636
0
LINE
8
BLACK
6
CONTINUOUS
10
432.338
20
-176.636
11
432.552
21
-176.398
0
LINE
8
BLACK
6
CONTINUOUS
10
432.552
20
-176.398
11
432.766
21
-175.922
0
LINE
8
BLACK
6
CONTINUOUS
10
432.766
20
-175.922
11
432.766
21
-175.445
0
LINE
8
BLACK
6
CONTINUOUS
10
432.766
20
-175.445
11
432.552
21
-174.969
0
LINE
8
BLACK
6
CONTINUOUS
10
432.552
20
-174.969
11
432.338
21
-174.731
0
LINE
8
BLACK
6
CONTINUOUS
10
432.338
20
-174.731
11
431.909
21
-174.493
0
LINE
8
BLACK
6
CONTINUOUS
10
431.909
20
-174.493
11
431.052
21
-174.255
0
LINE
8
BLACK
6
CONTINUOUS
10
431.052
20
-174.255
11
430.623
21
-174.017
0
LINE
8
BLACK
6
CONTINUOUS
10
430.623
20
-174.017
11
430.409
21
-173.779
0
LINE
8
BLACK
6
CONTINUOUS
10
430.409
20
-173.779
11
430.195
21
-173.302
0
LINE
8
BLACK
6
CONTINUOUS
10
430.195
20
-173.302
11
430.195
21
-172.826
0
LINE
8
BLACK
6
CONTINUOUS
10
430.195
20
-172.826
11
430.409
21
-172.35
0
LINE
8
BLACK
6
CONTINUOUS
10
430.409
20
-172.35
11
430.623
21
-172.112
0
LINE
8
BLACK
6
CONTINUOUS
10
430.623
20
-172.112
11
431.052
21
-171.874
0
LINE
8
BLACK
6
CONTINUOUS
10
431.052
20
-171.874
11
432.123
21
-171.874
0
LINE
8
BLACK
6
CONTINUOUS
10
432.123
20
-171.874
11
432.766
21
-172.112
0
LINE
8
BLACK
6
CONTINUOUS
10
417.5
20
-176.846
11
417.5
21
-171.846
0
LINE
8
BLACK
6
CONTINUOUS
10
417.5
20
-171.846
11
419.214
21
-171.846
0
LINE
8
BLACK
6
CONTINUOUS
10
419.214
20
-171.846
11
419.643
21
-172.084
0
LINE
8
BLACK
6
CONTINUOUS
10
419.643
20
-172.084
11
419.857
21
-172.322
0
LINE
8
BLACK
6
CONTINUOUS
10
419.857
20
-172.322
11
420.071
21
-172.798
0
LINE
8
BLACK
6
CONTINUOUS
10
420.071
20
-172.798
11
420.071
21
-173.513
0
LINE
8
BLACK
6
CONTINUOUS
10
420.071
20
-173.513
11
419.857
21
-173.989
0
LINE
8
BLACK
6
CONTINUOUS
10
419.857
20
-173.989
11
419.643
21
-174.227
0
LINE
8
BLACK
6
CONTINUOUS
10
419.643
20
-174.227
11
419.214
21
-174.465
0
LINE
8
BLACK
6
CONTINUOUS
10
419.214
20
-174.465
11
417.5
21
-174.465
0
LINE
8
BLACK
6
CONTINUOUS
10
421.786
20
-175.417
11
423.929
21
-175.417
0
LINE
8
BLACK
6
CONTINUOUS
10
421.357
20
-176.846
11
422.857
21
-171.846
0
LINE
8
BLACK
6
CONTINUOUS
10
422.857
20
-171.846
11
424.357
21
-176.846
0
LINE
8
BLACK
6
CONTINUOUS
10
425.857
20
-176.846
11
425.857
21
-171.846
0
LINE
8
BLACK
6
CONTINUOUS
10
425.857
20
-171.846
11
426.929
21
-171.846
0
LINE
8
BLACK
6
CONTINUOUS
10
426.929
20
-171.846
11
427.571
21
-172.084
0
LINE
8
BLACK
6
CONTINUOUS
10
427.571
20
-172.084
11
428
21
-172.56
0
LINE
8
BLACK
6
CONTINUOUS
10
428
20
-172.56
11
428.214
21
-173.036
0
LINE
8
BLACK
6
CONTINUOUS
10
428.214
20
-173.036
11
428.429
21
-173.989
0
LINE
8
BLACK
6
CONTINUOUS
10
428.429
20
-173.989
11
428.429
21
-174.703
0
LINE
8
BLACK
6
CONTINUOUS
10
428.429
20
-174.703
11
428.214
21
-175.655
0
LINE
8
BLACK
6
CONTINUOUS
10
428.214
20
-175.655
11
428
21
-176.132
0
LINE
8
BLACK
6
CONTINUOUS
10
428
20
-176.132
11
427.571
21
-176.608
0
LINE
8
BLACK
6
CONTINUOUS
10
427.571
20
-176.608
11
426.929
21
-176.846
0
LINE
8
BLACK
6
CONTINUOUS
10
426.929
20
-176.846
11
425.857
21
-176.846
0
LINE
8
BLACK
6
CONTINUOUS
10
430.143
20
-176.608
11
430.786
21
-176.846
0
LINE
8
BLACK
6
CONTINUOUS
10
430.786
20
-176.846
11
431.857
21
-176.846
0
LINE
8
BLACK
6
CONTINUOUS
10
431.857
20
-176.846
11
432.286
21
-176.608
0
LINE
8
BLACK
6
CONTINUOUS
10
432.286
20
-176.608
11
432.5
21
-176.37
0
LINE
8
BLACK
6
CONTINUOUS
10
432.5
20
-176.37
11
432.714
21
-175.894
0
LINE
8
BLACK
6
CONTINUOUS
10
432.714
20
-175.894
11
432.714
21
-175.417
0
LINE
8
BLACK
6
CONTINUOUS
10
432.714
20
-175.417
11
432.5
21
-174.941
0
LINE
8
BLACK
6
CONTINUOUS
10
432.5
20
-174.941
11
432.286
21
-174.703
0
LINE
8
BLACK
6
CONTINUOUS
10
432.286
20
-174.703
11
431.857
21
-174.465
0
LINE
8
BLACK
6
CONTINUOUS
10
431.857
20
-174.465
11
431
21
-174.227
0
LINE
8
BLACK
6
CONTINUOUS
10
431
20
-174.227
11
430.571
21
-173.989
0
LINE
8
BLACK
6
CONTINUOUS
10
430.571
20
-173.989
11
430.357
21
-173.751
0
LINE
8
BLACK
6
CONTINUOUS
10
430.357
20
-173.751
11
430.143
21
-173.274
0
LINE
8
BLACK
6
CONTINUOUS
10
430.143
20
-173.274
11
430.143
21
-172.798
0
LINE
8
BLACK
6
CONTINUOUS
10
430.143
20
-172.798
11
430.357
21
-172.322
0
LINE
8
BLACK
6
CONTINUOUS
10
430.357
20
-172.322
11
430.571
21
-172.084
0
LINE
8
BLACK
6
CONTINUOUS
10
430.571
20
-172.084
11
431
21
-171.846
0
LINE
8
BLACK
6
CONTINUOUS
10
431
20
-171.846
11
432.071
21
-171.846
0
LINE
8
BLACK
6
CONTINUOUS
10
432.071
20
-171.846
11
432.714
21
-172.084
0
LINE
8
BLACK
6
CONTINUOUS
10
416.193
20
-212.941
11
417.736
21
-212.941
0
LINE
8
BLACK
6
CONTINUOUS
10
416.964
20
-215.941
11
416.964
21
-212.941
0
LINE
8
BLACK
6
CONTINUOUS
10
420.179
20
-215.941
11
419.279
21
-214.513
0
LINE
8
BLACK
6
CONTINUOUS
10
418.636
20
-215.941
11
418.636
21
-212.941
0
LINE
8
BLACK
6
CONTINUOUS
10
418.636
20
-212.941
11
419.664
21
-212.941
0
LINE
8
BLACK
6
CONTINUOUS
10
419.664
20
-212.941
11
419.921
21
-213.084
0
LINE
8
BLACK
6
CONTINUOUS
10
419.921
20
-213.084
11
420.05
21
-213.227
0
LINE
8
BLACK
6
CONTINUOUS
10
420.05
20
-213.227
11
420.179
21
-213.513
0
LINE
8
BLACK
6
CONTINUOUS
10
420.179
20
-213.513
11
420.179
21
-213.941
0
LINE
8
BLACK
6
CONTINUOUS
10
420.179
20
-213.941
11
420.05
21
-214.227
0
LINE
8
BLACK
6
CONTINUOUS
10
420.05
20
-214.227
11
419.921
21
-214.37
0
LINE
8
BLACK
6
CONTINUOUS
10
419.921
20
-214.37
11
419.664
21
-214.513
0
LINE
8
BLACK
6
CONTINUOUS
10
419.664
20
-214.513
11
418.636
21
-214.513
0
LINE
8
BLACK
6
CONTINUOUS
10
421.336
20
-215.941
11
421.336
21
-212.941
0
LINE
8
BLACK
6
CONTINUOUS
10
423.907
20
-215.941
11
422.621
21
-215.941
0
LINE
8
BLACK
6
CONTINUOUS
10
422.621
20
-215.941
11
422.621
21
-212.941
0
LINE
8
BLACK
6
CONTINUOUS
10
426.093
20
-215.941
11
424.807
21
-215.941
0
LINE
8
BLACK
6
CONTINUOUS
10
424.807
20
-215.941
11
424.807
21
-212.941
0
LINE
8
BLACK
6
CONTINUOUS
10
427.893
20
-214.37
11
428.279
21
-214.513
0
LINE
8
BLACK
6
CONTINUOUS
10
428.279
20
-214.513
11
428.407
21
-214.655
0
LINE
8
BLACK
6
CONTINUOUS
10
428.407
20
-214.655
11
428.536
21
-214.941
0
LINE
8
BLACK
6
CONTINUOUS
10
428.536
20
-214.941
11
428.536
21
-215.37
0
LINE
8
BLACK
6
CONTINUOUS
10
428.536
20
-215.37
11
428.407
21
-215.655
0
LINE
8
BLACK
6
CONTINUOUS
10
428.407
20
-215.655
11
428.279
21
-215.798
0
LINE
8
BLACK
6
CONTINUOUS
10
428.279
20
-215.798
11
428.021
21
-215.941
0
LINE
8
BLACK
6
CONTINUOUS
10
428.021
20
-215.941
11
426.993
21
-215.941
0
LINE
8
BLACK
6
CONTINUOUS
10
426.993
20
-215.941
11
426.993
21
-212.941
0
LINE
8
BLACK
6
CONTINUOUS
10
426.993
20
-212.941
11
427.893
21
-212.941
0
LINE
8
BLACK
6
CONTINUOUS
10
427.893
20
-212.941
11
428.15
21
-213.084
0
LINE
8
BLACK
6
CONTINUOUS
10
428.15
20
-213.084
11
428.279
21
-213.227
0
LINE
8
BLACK
6
CONTINUOUS
10
428.279
20
-213.227
11
428.407
21
-213.513
0
LINE
8
BLACK
6
CONTINUOUS
10
428.407
20
-213.513
11
428.407
21
-213.798
0
LINE
8
BLACK
6
CONTINUOUS
10
428.407
20
-213.798
11
428.279
21
-214.084
0
LINE
8
BLACK
6
CONTINUOUS
10
428.279
20
-214.084
11
428.15
21
-214.227
0
LINE
8
BLACK
6
CONTINUOUS
10
428.15
20
-214.227
11
427.893
21
-214.37
0
LINE
8
BLACK
6
CONTINUOUS
10
427.893
20
-214.37
11
426.993
21
-214.37
0
LINE
8
BLACK
6
CONTINUOUS
10
429.564
20
-215.084
11
430.85
21
-215.084
0
LINE
8
BLACK
6
CONTINUOUS
10
429.307
20
-215.941
11
430.207
21
-212.941
0
LINE
8
BLACK
6
CONTINUOUS
10
430.207
20
-212.941
11
431.107
21
-215.941
0
LINE
8
BLACK
6
CONTINUOUS
10
433.55
20
-215.941
11
432.65
21
-214.513
0
LINE
8
BLACK
6
CONTINUOUS
10
432.007
20
-215.941
11
432.007
21
-212.941
0
LINE
8
BLACK
6
CONTINUOUS
10
432.007
20
-212.941
11
433.036
21
-212.941
0
LINE
8
BLACK
6
CONTINUOUS
10
433.036
20
-212.941
11
433.293
21
-213.084
0
LINE
8
BLACK
6
CONTINUOUS
10
433.293
20
-213.084
11
433.421
21
-213.227
0
LINE
8
BLACK
6
CONTINUOUS
10
433.421
20
-213.227
11
433.55
21
-213.513
0
LINE
8
BLACK
6
CONTINUOUS
10
433.55
20
-213.513
11
433.55
21
-213.941
0
LINE
8
BLACK
6
CONTINUOUS
10
433.55
20
-213.941
11
433.421
21
-214.227
0
LINE
8
BLACK
6
CONTINUOUS
10
433.421
20
-214.227
11
433.293
21
-214.37
0
LINE
8
BLACK
6
CONTINUOUS
10
433.293
20
-214.37
11
433.036
21
-214.513
0
LINE
8
BLACK
6
CONTINUOUS
10
433.036
20
-214.513
11
432.007
21
-214.513
0
LINE
8
BLACK
6
CONTINUOUS
10
165.717
20
-212.941
11
167.26
21
-212.941
0
LINE
8
BLACK
6
CONTINUOUS
10
166.488
20
-215.941
11
166.488
21
-212.941
0
LINE
8
BLACK
6
CONTINUOUS
10
169.703
20
-215.941
11
168.803
21
-214.513
0
LINE
8
BLACK
6
CONTINUOUS
10
168.16
20
-215.941
11
168.16
21
-212.941
0
LINE
8
BLACK
6
CONTINUOUS
10
168.16
20
-212.941
11
169.188
21
-212.941
0
LINE
8
BLACK
6
CONTINUOUS
10
169.188
20
-212.941
11
169.445
21
-213.084
0
LINE
8
BLACK
6
CONTINUOUS
10
169.445
20
-213.084
11
169.574
21
-213.227
0
LINE
8
BLACK
6
CONTINUOUS
10
169.574
20
-213.227
11
169.703
21
-213.513
0
LINE
8
BLACK
6
CONTINUOUS
10
169.703
20
-213.513
11
169.703
21
-213.941
0
LINE
8
BLACK
6
CONTINUOUS
10
169.703
20
-213.941
11
169.574
21
-214.227
0
LINE
8
BLACK
6
CONTINUOUS
10
169.574
20
-214.227
11
169.445
21
-214.37
0
LINE
8
BLACK
6
CONTINUOUS
10
169.445
20
-214.37
11
169.188
21
-214.513
0
LINE
8
BLACK
6
CONTINUOUS
10
169.188
20
-214.513
11
168.16
21
-214.513
0
LINE
8
BLACK
6
CONTINUOUS
10
170.86
20
-215.941
11
170.86
21
-212.941
0
LINE
8
BLACK
6
CONTINUOUS
10
173.431
20
-215.941
11
172.145
21
-215.941
0
LINE
8
BLACK
6
CONTINUOUS
10
172.145
20
-215.941
11
172.145
21
-212.941
0
LINE
8
BLACK
6
CONTINUOUS
10
175.617
20
-215.941
11
174.331
21
-215.941
0
LINE
8
BLACK
6
CONTINUOUS
10
174.331
20
-215.941
11
174.331
21
-212.941
0
LINE
8
BLACK
6
CONTINUOUS
10
177.417
20
-214.37
11
177.803
21
-214.513
0
LINE
8
BLACK
6
CONTINUOUS
10
177.803
20
-214.513
11
177.931
21
-214.655
0
LINE
8
BLACK
6
CONTINUOUS
10
177.931
20
-214.655
11
178.06
21
-214.941
0
LINE
8
BLACK
6
CONTINUOUS
10
178.06
20
-214.941
11
178.06
21
-215.37
0
LINE
8
BLACK
6
CONTINUOUS
10
178.06
20
-215.37
11
177.931
21
-215.655
0
LINE
8
BLACK
6
CONTINUOUS
10
177.931
20
-215.655
11
177.803
21
-215.798
0
LINE
8
BLACK
6
CONTINUOUS
10
177.803
20
-215.798
11
177.545
21
-215.941
0
LINE
8
BLACK
6
CONTINUOUS
10
177.545
20
-215.941
11
176.517
21
-215.941
0
LINE
8
BLACK
6
CONTINUOUS
10
176.517
20
-215.941
11
176.517
21
-212.941
0
LINE
8
BLACK
6
CONTINUOUS
10
176.517
20
-212.941
11
177.417
21
-212.941
0
LINE
8
BLACK
6
CONTINUOUS
10
177.417
20
-212.941
11
177.674
21
-213.084
0
LINE
8
BLACK
6
CONTINUOUS
10
177.674
20
-213.084
11
177.803
21
-213.227
0
LINE
8
BLACK
6
CONTINUOUS
10
177.803
20
-213.227
11
177.931
21
-213.513
0
LINE
8
BLACK
6
CONTINUOUS
10
177.931
20
-213.513
11
177.931
21
-213.798
0
LINE
8
BLACK
6
CONTINUOUS
10
177.931
20
-213.798
11
177.803
21
-214.084
0
LINE
8
BLACK
6
CONTINUOUS
10
177.803
20
-214.084
11
177.674
21
-214.227
0
LINE
8
BLACK
6
CONTINUOUS
10
177.674
20
-214.227
11
177.417
21
-214.37
0
LINE
8
BLACK
6
CONTINUOUS
10
177.417
20
-214.37
11
176.517
21
-214.37
0
LINE
8
BLACK
6
CONTINUOUS
10
179.088
20
-215.084
11
180.374
21
-215.084
0
LINE
8
BLACK
6
CONTINUOUS
10
178.831
20
-215.941
11
179.731
21
-212.941
0
LINE
8
BLACK
6
CONTINUOUS
10
179.731
20
-212.941
11
180.631
21
-215.941
0
LINE
8
BLACK
6
CONTINUOUS
10
183.074
20
-215.941
11
182.174
21
-214.513
0
LINE
8
BLACK
6
CONTINUOUS
10
181.531
20
-215.941
11
181.531
21
-212.941
0
LINE
8
BLACK
6
CONTINUOUS
10
181.531
20
-212.941
11
182.56
21
-212.941
0
LINE
8
BLACK
6
CONTINUOUS
10
182.56
20
-212.941
11
182.817
21
-213.084
0
LINE
8
BLACK
6
CONTINUOUS
10
182.817
20
-213.084
11
182.945
21
-213.227
0
LINE
8
BLACK
6
CONTINUOUS
10
182.945
20
-213.227
11
183.074
21
-213.513
0
LINE
8
BLACK
6
CONTINUOUS
10
183.074
20
-213.513
11
183.074
21
-213.941
0
LINE
8
BLACK
6
CONTINUOUS
10
183.074
20
-213.941
11
182.945
21
-214.227
0
LINE
8
BLACK
6
CONTINUOUS
10
182.945
20
-214.227
11
182.817
21
-214.37
0
LINE
8
BLACK
6
CONTINUOUS
10
182.817
20
-214.37
11
182.56
21
-214.513
0
LINE
8
BLACK
6
CONTINUOUS
10
182.56
20
-214.513
11
181.531
21
-214.513
0
LINE
8
BLACK
6
CONTINUOUS
10
167.024
20
-176.846
11
167.024
21
-171.846
0
LINE
8
BLACK
6
CONTINUOUS
10
167.024
20
-171.846
11
168.738
21
-171.846
0
LINE
8
BLACK
6
CONTINUOUS
10
168.738
20
-171.846
11
169.167
21
-172.084
0
LINE
8
BLACK
6
CONTINUOUS
10
169.167
20
-172.084
11
169.381
21
-172.322
0
LINE
8
BLACK
6
CONTINUOUS
10
169.381
20
-172.322
11
169.595
21
-172.798
0
LINE
8
BLACK
6
CONTINUOUS
10
169.595
20
-172.798
11
169.595
21
-173.513
0
LINE
8
BLACK
6
CONTINUOUS
10
169.595
20
-173.513
11
169.381
21
-173.989
0
LINE
8
BLACK
6
CONTINUOUS
10
169.381
20
-173.989
11
169.167
21
-174.227
0
LINE
8
BLACK
6
CONTINUOUS
10
169.167
20
-174.227
11
168.738
21
-174.465
0
LINE
8
BLACK
6
CONTINUOUS
10
168.738
20
-174.465
11
167.024
21
-174.465
0
LINE
8
BLACK
6
CONTINUOUS
10
171.31
20
-175.417
11
173.453
21
-175.417
0
LINE
8
BLACK
6
CONTINUOUS
10
170.881
20
-176.846
11
172.381
21
-171.846
0
LINE
8
BLACK
6
CONTINUOUS
10
172.381
20
-171.846
11
173.881
21
-176.846
0
LINE
8
BLACK
6
CONTINUOUS
10
175.381
20
-176.846
11
175.381
21
-171.846
0
LINE
8
BLACK
6
CONTINUOUS
10
175.381
20
-171.846
11
176.453
21
-171.846
0
LINE
8
BLACK
6
CONTINUOUS
10
176.453
20
-171.846
11
177.095
21
-172.084
0
LINE
8
BLACK
6
CONTINUOUS
10
177.095
20
-172.084
11
177.524
21
-172.56
0
LINE
8
BLACK
6
CONTINUOUS
10
177.524
20
-172.56
11
177.738
21
-173.036
0
LINE
8
BLACK
6
CONTINUOUS
10
177.738
20
-173.036
11
177.953
21
-173.989
0
LINE
8
BLACK
6
CONTINUOUS
10
177.953
20
-173.989
11
177.953
21
-174.703
0
LINE
8
BLACK
6
CONTINUOUS
10
177.953
20
-174.703
11
177.738
21
-175.655
0
LINE
8
BLACK
6
CONTINUOUS
10
177.738
20
-175.655
11
177.524
21
-176.132
0
LINE
8
BLACK
6
CONTINUOUS
10
177.524
20
-176.132
11
177.095
21
-176.608
0
LINE
8
BLACK
6
CONTINUOUS
10
177.095
20
-176.608
11
176.453
21
-176.846
0
LINE
8
BLACK
6
CONTINUOUS
10
176.453
20
-176.846
11
175.381
21
-176.846
0
LINE
8
BLACK
6
CONTINUOUS
10
179.667
20
-176.608
11
180.31
21
-176.846
0
LINE
8
BLACK
6
CONTINUOUS
10
180.31
20
-176.846
11
181.381
21
-176.846
0
LINE
8
BLACK
6
CONTINUOUS
10
181.381
20
-176.846
11
181.81
21
-176.608
0
LINE
8
BLACK
6
CONTINUOUS
10
181.81
20
-176.608
11
182.024
21
-176.37
0
LINE
8
BLACK
6
CONTINUOUS
10
182.024
20
-176.37
11
182.238
21
-175.894
0
LINE
8
BLACK
6
CONTINUOUS
10
182.238
20
-175.894
11
182.238
21
-175.417
0
LINE
8
BLACK
6
CONTINUOUS
10
182.238
20
-175.417
11
182.024
21
-174.941
0
LINE
8
BLACK
6
CONTINUOUS
10
182.024
20
-174.941
11
181.81
21
-174.703
0
LINE
8
BLACK
6
CONTINUOUS
10
181.81
20
-174.703
11
181.381
21
-174.465
0
LINE
8
BLACK
6
CONTINUOUS
10
181.381
20
-174.465
11
180.524
21
-174.227
0
LINE
8
BLACK
6
CONTINUOUS
10
180.524
20
-174.227
11
180.095
21
-173.989
0
LINE
8
BLACK
6
CONTINUOUS
10
180.095
20
-173.989
11
179.881
21
-173.751
0
LINE
8
BLACK
6
CONTINUOUS
10
179.881
20
-173.751
11
179.667
21
-173.274
0
LINE
8
BLACK
6
CONTINUOUS
10
179.667
20
-173.274
11
179.667
21
-172.798
0
LINE
8
BLACK
6
CONTINUOUS
10
179.667
20
-172.798
11
179.881
21
-172.322
0
LINE
8
BLACK
6
CONTINUOUS
10
179.881
20
-172.322
11
180.095
21
-172.084
0
LINE
8
BLACK
6
CONTINUOUS
10
180.095
20
-172.084
11
180.524
21
-171.846
0
LINE
8
BLACK
6
CONTINUOUS
10
180.524
20
-171.846
11
181.595
21
-171.846
0
LINE
8
BLACK
6
CONTINUOUS
10
181.595
20
-171.846
11
182.238
21
-172.084
0
LINE
8
BLACK
6
CONTINUOUS
10
167.024
20
-176.846
11
167.024
21
-171.846
0
LINE
8
BLACK
6
CONTINUOUS
10
167.024
20
-171.846
11
168.738
21
-171.846
0
LINE
8
BLACK
6
CONTINUOUS
10
168.738
20
-171.846
11
169.167
21
-172.084
0
LINE
8
BLACK
6
CONTINUOUS
10
169.167
20
-172.084
11
169.381
21
-172.322
0
LINE
8
BLACK
6
CONTINUOUS
10
169.381
20
-172.322
11
169.595
21
-172.798
0
LINE
8
BLACK
6
CONTINUOUS
10
169.595
20
-172.798
11
169.595
21
-173.513
0
LINE
8
BLACK
6
CONTINUOUS
10
169.595
20
-173.513
11
169.381
21
-173.989
0
LINE
8
BLACK
6
CONTINUOUS
10
169.381
20
-173.989
11
169.167
21
-174.227
0
LINE
8
BLACK
6
CONTINUOUS
10
169.167
20
-174.227
11
168.738
21
-174.465
0
LINE
8
BLACK
6
CONTINUOUS
10
168.738
20
-174.465
11
167.024
21
-174.465
0
LINE
8
BLACK
6
CONTINUOUS
10
171.31
20
-175.417
11
173.453
21
-175.417
0
LINE
8
BLACK
6
CONTINUOUS
10
170.881
20
-176.846
11
172.381
21
-171.846
0
LINE
8
BLACK
6
CONTINUOUS
10
172.381
20
-171.846
11
173.881
21
-176.846
0
LINE
8
BLACK
6
CONTINUOUS
10
175.381
20
-176.846
11
175.381
21
-171.846
0
LINE
8
BLACK
6
CONTINUOUS
10
175.381
20
-171.846
11
176.453
21
-171.846
0
LINE
8
BLACK
6
CONTINUOUS
10
176.453
20
-171.846
11
177.095
21
-172.084
0
LINE
8
BLACK
6
CONTINUOUS
10
177.095
20
-172.084
11
177.524
21
-172.56
0
LINE
8
BLACK
6
CONTINUOUS
10
177.524
20
-172.56
11
177.738
21
-173.036
0
LINE
8
BLACK
6
CONTINUOUS
10
177.738
20
-173.036
11
177.953
21
-173.989
0
LINE
8
BLACK
6
CONTINUOUS
10
177.953
20
-173.989
11
177.953
21
-174.703
0
LINE
8
BLACK
6
CONTINUOUS
10
177.953
20
-174.703
11
177.738
21
-175.655
0
LINE
8
BLACK
6
CONTINUOUS
10
177.738
20
-175.655
11
177.524
21
-176.132
0
LINE
8
BLACK
6
CONTINUOUS
10
177.524
20
-176.132
11
177.095
21
-176.608
0
LINE
8
BLACK
6
CONTINUOUS
10
177.095
20
-176.608
11
176.453
21
-176.846
0
LINE
8
BLACK
6
CONTINUOUS
10
176.453
20
-176.846
11
175.381
21
-176.846
0
LINE
8
BLACK
6
CONTINUOUS
10
179.667
20
-176.608
11
180.31
21
-176.846
0
LINE
8
BLACK
6
CONTINUOUS
10
180.31
20
-176.846
11
181.381
21
-176.846
0
LINE
8
BLACK
6
CONTINUOUS
10
181.381
20
-176.846
11
181.81
21
-176.608
0
LINE
8
BLACK
6
CONTINUOUS
10
181.81
20
-176.608
11
182.024
21
-176.37
0
LINE
8
BLACK
6
CONTINUOUS
10
182.024
20
-176.37
11
182.238
21
-175.894
0
LINE
8
BLACK
6
CONTINUOUS
10
182.238
20
-175.894
11
182.238
21
-175.417
0
LINE
8
BLACK
6
CONTINUOUS
10
182.238
20
-175.417
11
182.024
21
-174.941
0
LINE
8
BLACK
6
CONTINUOUS
10
182.024
20
-174.941
11
181.81
21
-174.703
0
LINE
8
BLACK
6
CONTINUOUS
10
181.81
20
-174.703
11
181.381
21
-174.465
0
LINE
8
BLACK
6
CONTINUOUS
10
181.381
20
-174.465
11
180.524
21
-174.227
0
LINE
8
BLACK
6
CONTINUOUS
10
180.524
20
-174.227
11
180.095
21
-173.989
0
LINE
8
BLACK
6
CONTINUOUS
10
180.095
20
-173.989
11
179.881
21
-173.751
0
LINE
8
BLACK
6
CONTINUOUS
10
179.881
20
-173.751
11
179.667
21
-173.274
0
LINE
8
BLACK
6
CONTINUOUS
10
179.667
20
-173.274
11
179.667
21
-172.798
0
LINE
8
BLACK
6
CONTINUOUS
10
179.667
20
-172.798
11
179.881
21
-172.322
0
LINE
8
BLACK
6
CONTINUOUS
10
179.881
20
-172.322
11
180.095
21
-172.084
0
LINE
8
BLACK
6
CONTINUOUS
10
180.095
20
-172.084
11
180.524
21
-171.846
0
LINE
8
BLACK
6
CONTINUOUS
10
180.524
20
-171.846
11
181.595
21
-171.846
0
LINE
8
BLACK
6
CONTINUOUS
10
181.595
20
-171.846
11
182.238
21
-172.084
  0
ENDSEC
  0
EOF
