  0
SECTION
  2
HEADER
  9
$ANGBASE
  50
0.0
  9
$ANGDIR
  70
1
  9
$MEASUREMENT
  70
1
  0
ENDSEC
  0
SECTION
  2
TABLES
  0
TABLE
  2
LTYPE
  70
4
  0
LTYPE
  5
40F
  2
CONTINUOUS
  70
0
  3
Solid line
  72
65
  73
0
  40
0.0
  0
LTYPE
  5
410
  2
DASHDOT
 70
0
  3
Dash Dot ____ _ ____ _
 72
65
 73
4
 40
2.0
 49
1.25
 49
-0.25
 49
0.25
 49
-0.25
  0
LTYPE
  5
411
  2
DASHED
 70
0
  3
Dashed __ __ __ __ __
 72
65
 73
2
 40
0.75
 49
0.5
 49
-0.25
  0
LTYPE
  5
43B
  2
DOTTED
 70
0
  3
Dotted .  .  .  .
 72
65
 73
2
 40
0.2
 49
0.0
 49
-0.2
  0
ENDTAB
  0
TABLE
  2
STYLE
  70
4
  0
STYLE
  2
KICAD
  70
0
  40
0
  41
1
  42
1
  50
0
  71
0
  3
isocp.shx
  0
STYLE
  2
KICADB
  70
0
  40
0
  41
1
  42
1
  50
0
  71
0
  3
isocp.shx
  0
STYLE
  2
KICADI
  70
0
  40
0
  41
1
  42
1
  50
15
  71
0
  3
isocp.shx
  0
STYLE
  2
KICADBI
  70
0
  40
0
  41
1
  42
1
  50
15
  71
0
  3
isocp.shx
  0
ENDTAB
  0
TABLE
  2
LAYER
  70
1
  0
LAYER
  2
BLACK
  70
0
  62
7
  6
CONTINUOUS
  0
ENDTAB
  0
ENDSEC
  0
SECTION
  2
ENTITIES
0
LINE
8
BLACK
6
CONTINUOUS
10
479.01
20
-50.9267
11
479.013
21
-50.9261
0
LINE
8
BLACK
6
CONTINUOUS
10
479.013
20
-50.9261
11
479.016
21
-50.9278
0
LINE
8
BLACK
6
CONTINUOUS
10
479.016
20
-50.9278
11
479.026
21
-50.9295
0
LINE
8
BLACK
6
CONTINUOUS
10
479.026
20
-50.9295
11
479.041
21
-50.942
0
LINE
8
BLACK
6
CONTINUOUS
10
479.041
20
-50.942
11
479.057
21
-50.9518
0
LINE
8
BLACK
6
CONTINUOUS
10
479.057
20
-50.9518
11
479.06
21
-50.9581
0
LINE
8
BLACK
6
CONTINUOUS
10
479.06
20
-50.9581
11
479.065
21
-50.9625
0
LINE
8
BLACK
6
CONTINUOUS
10
479.065
20
-50.9625
11
479.068
21
-50.9817
0
LINE
8
BLACK
6
CONTINUOUS
10
479.068
20
-50.9817
11
479.075
21
-51
0
LINE
8
BLACK
6
CONTINUOUS
10
479.075
20
-51
11
479.075
21
-311
0
LINE
8
BLACK
6
CONTINUOUS
10
479.075
20
-311
11
479.073
21
-311.01
0
LINE
8
BLACK
6
CONTINUOUS
10
479.073
20
-311.01
11
479.074
21
-311.013
0
LINE
8
BLACK
6
CONTINUOUS
10
479.074
20
-311.013
11
479.072
21
-311.016
0
LINE
8
BLACK
6
CONTINUOUS
10
479.072
20
-311.016
11
479.07
21
-311.026
0
LINE
8
BLACK
6
CONTINUOUS
10
479.07
20
-311.026
11
479.058
21
-311.041
0
LINE
8
BLACK
6
CONTINUOUS
10
479.058
20
-311.041
11
479.048
21
-311.057
0
LINE
8
BLACK
6
CONTINUOUS
10
479.048
20
-311.057
11
479.042
21
-311.06
0
LINE
8
BLACK
6
CONTINUOUS
10
479.042
20
-311.06
11
479.037
21
-311.065
0
LINE
8
BLACK
6
CONTINUOUS
10
479.037
20
-311.065
11
479.018
21
-311.068
0
LINE
8
BLACK
6
CONTINUOUS
10
479.018
20
-311.068
11
479
21
-311.075
0
LINE
8
BLACK
6
CONTINUOUS
10
479
20
-311.075
11
119
21
-311.075
0
LINE
8
BLACK
6
CONTINUOUS
10
119
20
-311.075
11
118.99
21
-311.073
0
LINE
8
BLACK
6
CONTINUOUS
10
118.99
20
-311.073
11
118.987
21
-311.074
0
LINE
8
BLACK
6
CONTINUOUS
10
118.987
20
-311.074
11
118.984
21
-311.072
0
LINE
8
BLACK
6
CONTINUOUS
10
118.984
20
-311.072
11
118.974
21
-311.07
0
LINE
8
BLACK
6
CONTINUOUS
10
118.974
20
-311.07
11
118.959
21
-311.058
0
LINE
8
BLACK
6
CONTINUOUS
10
118.959
20
-311.058
11
118.943
21
-311.048
0
LINE
8
BLACK
6
CONTINUOUS
10
118.943
20
-311.048
11
118.94
21
-311.042
0
LINE
8
BLACK
6
CONTINUOUS
10
118.94
20
-311.042
11
118.935
21
-311.037
0
LINE
8
BLACK
6
CONTINUOUS
10
118.935
20
-311.037
11
118.932
21
-311.018
0
LINE
8
BLACK
6
CONTINUOUS
10
118.932
20
-311.018
11
118.925
21
-311
0
LINE
8
BLACK
6
CONTINUOUS
10
118.925
20
-311
11
118.925
21
-51
0
LINE
8
BLACK
6
CONTINUOUS
10
118.925
20
-51
11
118.927
21
-50.9903
0
LINE
8
BLACK
6
CONTINUOUS
10
118.927
20
-50.9903
11
118.926
21
-50.987
0
LINE
8
BLACK
6
CONTINUOUS
10
118.926
20
-50.987
11
118.928
21
-50.9841
0
LINE
8
BLACK
6
CONTINUOUS
10
118.928
20
-50.9841
11
118.93
21
-50.9743
0
LINE
8
BLACK
6
CONTINUOUS
10
118.93
20
-50.9743
11
118.942
21
-50.9594
0
LINE
8
BLACK
6
CONTINUOUS
10
118.942
20
-50.9594
11
118.952
21
-50.9425
0
LINE
8
BLACK
6
CONTINUOUS
10
118.952
20
-50.9425
11
118.958
21
-50.9402
0
LINE
8
BLACK
6
CONTINUOUS
10
118.958
20
-50.9402
11
118.962
21
-50.935
0
LINE
8
BLACK
6
CONTINUOUS
10
118.962
20
-50.935
11
118.982
21
-50.9317
0
LINE
8
BLACK
6
CONTINUOUS
10
118.982
20
-50.9317
11
119
21
-50.925
0
LINE
8
BLACK
6
CONTINUOUS
10
119
20
-50.925
11
479
21
-50.925
0
LINE
8
BLACK
6
CONTINUOUS
10
479
20
-50.925
11
479.01
21
-50.9267
0
LINE
8
BLACK
6
CONTINUOUS
10
119.075
20
-51.075
11
119.075
21
-310.925
0
LINE
8
BLACK
6
CONTINUOUS
10
119.075
20
-310.925
11
478.925
21
-310.925
0
LINE
8
BLACK
6
CONTINUOUS
10
478.925
20
-310.925
11
478.925
21
-51.075
0
LINE
8
BLACK
6
CONTINUOUS
10
478.925
20
-51.075
11
119.075
21
-51.075
  0
ENDSEC
  0
EOF
