  0
SECTION
  2
HEADER
  9
$ANGBASE
  50
0.0
  9
$ANGDIR
  70
1
  9
$MEASUREMENT
  70
1
  0
ENDSEC
  0
SECTION
  2
TABLES
  0
TABLE
  2
LTYPE
  70
4
  0
LTYPE
  5
40F
  2
CONTINUOUS
  70
0
  3
Solid line
  72
65
  73
0
  40
0.0
  0
LTYPE
  5
410
  2
DASHDOT
 70
0
  3
Dash Dot ____ _ ____ _
 72
65
 73
4
 40
2.0
 49
1.25
 49
-0.25
 49
0.25
 49
-0.25
  0
LTYPE
  5
411
  2
DASHED
 70
0
  3
Dashed __ __ __ __ __
 72
65
 73
2
 40
0.75
 49
0.5
 49
-0.25
  0
LTYPE
  5
43B
  2
DOTTED
 70
0
  3
Dotted .  .  .  .
 72
65
 73
2
 40
0.2
 49
0.0
 49
-0.2
  0
ENDTAB
  0
TABLE
  2
STYLE
  70
4
  0
STYLE
  2
KICAD
  70
0
  40
0
  41
1
  42
1
  50
0
  71
0
  3
isocp.shx
  0
STYLE
  2
KICADB
  70
0
  40
0
  41
1
  42
1
  50
0
  71
0
  3
isocp.shx
  0
STYLE
  2
KICADI
  70
0
  40
0
  41
1
  42
1
  50
15
  71
0
  3
isocp.shx
  0
STYLE
  2
KICADBI
  70
0
  40
0
  41
1
  42
1
  50
15
  71
0
  3
isocp.shx
  0
ENDTAB
  0
TABLE
  2
LAYER
  70
1
  0
LAYER
  2
BLACK
  70
0
  62
7
  6
CONTINUOUS
  0
ENDTAB
  0
ENDSEC
  0
SECTION
  2
ENTITIES
0
LINE
8
BLACK
6
CONTINUOUS
10
474.004
20
-375.989
11
474.004
21
-407.989
0
LINE
8
BLACK
6
CONTINUOUS
10
474.004
20
-407.989
11
582.004
21
-407.989
0
LINE
8
BLACK
6
CONTINUOUS
10
582.004
20
-407.989
11
582.004
21
-375.989
0
LINE
8
BLACK
6
CONTINUOUS
10
582.004
20
-375.989
11
474.004
21
-375.989
0
LINE
8
BLACK
6
CONTINUOUS
10
10
20
-10
11
10
21
-409.989
0
LINE
8
BLACK
6
CONTINUOUS
10
10
20
-409.989
11
584.004
21
-409.989
0
LINE
8
BLACK
6
CONTINUOUS
10
584.004
20
-409.989
11
584.004
21
-10
0
LINE
8
BLACK
6
CONTINUOUS
10
584.004
20
-10
11
10
21
-10
0
LINE
8
BLACK
6
CONTINUOUS
10
12
20
-12
11
12
21
-407.989
0
LINE
8
BLACK
6
CONTINUOUS
10
12
20
-407.989
11
582.004
21
-407.989
0
LINE
8
BLACK
6
CONTINUOUS
10
582.004
20
-407.989
11
582.004
21
-12
0
LINE
8
BLACK
6
CONTINUOUS
10
582.004
20
-12
11
12
21
-12
0
LINE
8
BLACK
6
CONTINUOUS
10
60
20
-12
11
60
21
-10
0
LINE
8
BLACK
6
CONTINUOUS
10
110
20
-12
11
110
21
-10
0
LINE
8
BLACK
6
CONTINUOUS
10
160
20
-12
11
160
21
-10
0
LINE
8
BLACK
6
CONTINUOUS
10
210
20
-12
11
210
21
-10
0
LINE
8
BLACK
6
CONTINUOUS
10
260
20
-12
11
260
21
-10
0
LINE
8
BLACK
6
CONTINUOUS
10
310
20
-12
11
310
21
-10
0
LINE
8
BLACK
6
CONTINUOUS
10
360
20
-12
11
360
21
-10
0
LINE
8
BLACK
6
CONTINUOUS
10
410
20
-12
11
410
21
-10
0
LINE
8
BLACK
6
CONTINUOUS
10
460
20
-12
11
460
21
-10
0
LINE
8
BLACK
6
CONTINUOUS
10
510
20
-12
11
510
21
-10
0
LINE
8
BLACK
6
CONTINUOUS
10
560
20
-12
11
560
21
-10
0
LINE
8
BLACK
6
CONTINUOUS
10
36.0655
20
-11.5881
11
35.3226
21
-11.5881
0
LINE
8
BLACK
6
CONTINUOUS
10
35.694
20
-11.5881
11
35.694
21
-10.2881
0
LINE
8
BLACK
6
CONTINUOUS
10
35.694
20
-10.2881
11
35.5702
21
-10.4738
0
LINE
8
BLACK
6
CONTINUOUS
10
35.5702
20
-10.4738
11
35.4464
21
-10.5976
0
LINE
8
BLACK
6
CONTINUOUS
10
35.4464
20
-10.5976
11
35.3226
21
-10.6595
0
LINE
8
BLACK
6
CONTINUOUS
10
85.3226
20
-10.4119
11
85.3845
21
-10.35
0
LINE
8
BLACK
6
CONTINUOUS
10
85.3845
20
-10.35
11
85.5083
21
-10.2881
0
LINE
8
BLACK
6
CONTINUOUS
10
85.5083
20
-10.2881
11
85.8179
21
-10.2881
0
LINE
8
BLACK
6
CONTINUOUS
10
85.8179
20
-10.2881
11
85.9417
21
-10.35
0
LINE
8
BLACK
6
CONTINUOUS
10
85.9417
20
-10.35
11
86.0036
21
-10.4119
0
LINE
8
BLACK
6
CONTINUOUS
10
86.0036
20
-10.4119
11
86.0655
21
-10.5357
0
LINE
8
BLACK
6
CONTINUOUS
10
86.0655
20
-10.5357
11
86.0655
21
-10.6595
0
LINE
8
BLACK
6
CONTINUOUS
10
86.0655
20
-10.6595
11
86.0036
21
-10.8452
0
LINE
8
BLACK
6
CONTINUOUS
10
86.0036
20
-10.8452
11
85.2607
21
-11.5881
0
LINE
8
BLACK
6
CONTINUOUS
10
85.2607
20
-11.5881
11
86.0655
21
-11.5881
0
LINE
8
BLACK
6
CONTINUOUS
10
135.261
20
-10.2881
11
136.065
21
-10.2881
0
LINE
8
BLACK
6
CONTINUOUS
10
136.065
20
-10.2881
11
135.632
21
-10.7833
0
LINE
8
BLACK
6
CONTINUOUS
10
135.632
20
-10.7833
11
135.818
21
-10.7833
0
LINE
8
BLACK
6
CONTINUOUS
10
135.818
20
-10.7833
11
135.942
21
-10.8452
0
LINE
8
BLACK
6
CONTINUOUS
10
135.942
20
-10.8452
11
136.004
21
-10.9071
0
LINE
8
BLACK
6
CONTINUOUS
10
136.004
20
-10.9071
11
136.065
21
-11.031
0
LINE
8
BLACK
6
CONTINUOUS
10
136.065
20
-11.031
11
136.065
21
-11.3405
0
LINE
8
BLACK
6
CONTINUOUS
10
136.065
20
-11.3405
11
136.004
21
-11.4643
0
LINE
8
BLACK
6
CONTINUOUS
10
136.004
20
-11.4643
11
135.942
21
-11.5262
0
LINE
8
BLACK
6
CONTINUOUS
10
135.942
20
-11.5262
11
135.818
21
-11.5881
0
LINE
8
BLACK
6
CONTINUOUS
10
135.818
20
-11.5881
11
135.446
21
-11.5881
0
LINE
8
BLACK
6
CONTINUOUS
10
135.446
20
-11.5881
11
135.323
21
-11.5262
0
LINE
8
BLACK
6
CONTINUOUS
10
135.323
20
-11.5262
11
135.261
21
-11.4643
0
LINE
8
BLACK
6
CONTINUOUS
10
185.942
20
-10.7214
11
185.942
21
-11.5881
0
LINE
8
BLACK
6
CONTINUOUS
10
185.632
20
-10.2262
11
185.323
21
-11.1548
0
LINE
8
BLACK
6
CONTINUOUS
10
185.323
20
-11.1548
11
186.127
21
-11.1548
0
LINE
8
BLACK
6
CONTINUOUS
10
236.004
20
-10.2881
11
235.385
21
-10.2881
0
LINE
8
BLACK
6
CONTINUOUS
10
235.385
20
-10.2881
11
235.323
21
-10.9071
0
LINE
8
BLACK
6
CONTINUOUS
10
235.323
20
-10.9071
11
235.385
21
-10.8452
0
LINE
8
BLACK
6
CONTINUOUS
10
235.385
20
-10.8452
11
235.508
21
-10.7833
0
LINE
8
BLACK
6
CONTINUOUS
10
235.508
20
-10.7833
11
235.818
21
-10.7833
0
LINE
8
BLACK
6
CONTINUOUS
10
235.818
20
-10.7833
11
235.942
21
-10.8452
0
LINE
8
BLACK
6
CONTINUOUS
10
235.942
20
-10.8452
11
236.004
21
-10.9071
0
LINE
8
BLACK
6
CONTINUOUS
10
236.004
20
-10.9071
11
236.065
21
-11.031
0
LINE
8
BLACK
6
CONTINUOUS
10
236.065
20
-11.031
11
236.065
21
-11.3405
0
LINE
8
BLACK
6
CONTINUOUS
10
236.065
20
-11.3405
11
236.004
21
-11.4643
0
LINE
8
BLACK
6
CONTINUOUS
10
236.004
20
-11.4643
11
235.942
21
-11.5262
0
LINE
8
BLACK
6
CONTINUOUS
10
235.942
20
-11.5262
11
235.818
21
-11.5881
0
LINE
8
BLACK
6
CONTINUOUS
10
235.818
20
-11.5881
11
235.508
21
-11.5881
0
LINE
8
BLACK
6
CONTINUOUS
10
235.508
20
-11.5881
11
235.385
21
-11.5262
0
LINE
8
BLACK
6
CONTINUOUS
10
235.385
20
-11.5262
11
235.323
21
-11.4643
0
LINE
8
BLACK
6
CONTINUOUS
10
285.942
20
-10.2881
11
285.694
21
-10.2881
0
LINE
8
BLACK
6
CONTINUOUS
10
285.694
20
-10.2881
11
285.57
21
-10.35
0
LINE
8
BLACK
6
CONTINUOUS
10
285.57
20
-10.35
11
285.508
21
-10.4119
0
LINE
8
BLACK
6
CONTINUOUS
10
285.508
20
-10.4119
11
285.385
21
-10.5976
0
LINE
8
BLACK
6
CONTINUOUS
10
285.385
20
-10.5976
11
285.323
21
-10.8452
0
LINE
8
BLACK
6
CONTINUOUS
10
285.323
20
-10.8452
11
285.323
21
-11.3405
0
LINE
8
BLACK
6
CONTINUOUS
10
285.323
20
-11.3405
11
285.385
21
-11.4643
0
LINE
8
BLACK
6
CONTINUOUS
10
285.385
20
-11.4643
11
285.446
21
-11.5262
0
LINE
8
BLACK
6
CONTINUOUS
10
285.446
20
-11.5262
11
285.57
21
-11.5881
0
LINE
8
BLACK
6
CONTINUOUS
10
285.57
20
-11.5881
11
285.818
21
-11.5881
0
LINE
8
BLACK
6
CONTINUOUS
10
285.818
20
-11.5881
11
285.942
21
-11.5262
0
LINE
8
BLACK
6
CONTINUOUS
10
285.942
20
-11.5262
11
286.004
21
-11.4643
0
LINE
8
BLACK
6
CONTINUOUS
10
286.004
20
-11.4643
11
286.065
21
-11.3405
0
LINE
8
BLACK
6
CONTINUOUS
10
286.065
20
-11.3405
11
286.065
21
-11.031
0
LINE
8
BLACK
6
CONTINUOUS
10
286.065
20
-11.031
11
286.004
21
-10.9071
0
LINE
8
BLACK
6
CONTINUOUS
10
286.004
20
-10.9071
11
285.942
21
-10.8452
0
LINE
8
BLACK
6
CONTINUOUS
10
285.942
20
-10.8452
11
285.818
21
-10.7833
0
LINE
8
BLACK
6
CONTINUOUS
10
285.818
20
-10.7833
11
285.57
21
-10.7833
0
LINE
8
BLACK
6
CONTINUOUS
10
285.57
20
-10.7833
11
285.446
21
-10.8452
0
LINE
8
BLACK
6
CONTINUOUS
10
285.446
20
-10.8452
11
285.385
21
-10.9071
0
LINE
8
BLACK
6
CONTINUOUS
10
285.385
20
-10.9071
11
285.323
21
-11.031
0
LINE
8
BLACK
6
CONTINUOUS
10
335.261
20
-10.2881
11
336.127
21
-10.2881
0
LINE
8
BLACK
6
CONTINUOUS
10
336.127
20
-10.2881
11
335.57
21
-11.5881
0
LINE
8
BLACK
6
CONTINUOUS
10
385.57
20
-10.8452
11
385.446
21
-10.7833
0
LINE
8
BLACK
6
CONTINUOUS
10
385.446
20
-10.7833
11
385.385
21
-10.7214
0
LINE
8
BLACK
6
CONTINUOUS
10
385.385
20
-10.7214
11
385.323
21
-10.5976
0
LINE
8
BLACK
6
CONTINUOUS
10
385.323
20
-10.5976
11
385.323
21
-10.5357
0
LINE
8
BLACK
6
CONTINUOUS
10
385.323
20
-10.5357
11
385.385
21
-10.4119
0
LINE
8
BLACK
6
CONTINUOUS
10
385.385
20
-10.4119
11
385.446
21
-10.35
0
LINE
8
BLACK
6
CONTINUOUS
10
385.446
20
-10.35
11
385.57
21
-10.2881
0
LINE
8
BLACK
6
CONTINUOUS
10
385.57
20
-10.2881
11
385.818
21
-10.2881
0
LINE
8
BLACK
6
CONTINUOUS
10
385.818
20
-10.2881
11
385.942
21
-10.35
0
LINE
8
BLACK
6
CONTINUOUS
10
385.942
20
-10.35
11
386.004
21
-10.4119
0
LINE
8
BLACK
6
CONTINUOUS
10
386.004
20
-10.4119
11
386.065
21
-10.5357
0
LINE
8
BLACK
6
CONTINUOUS
10
386.065
20
-10.5357
11
386.065
21
-10.5976
0
LINE
8
BLACK
6
CONTINUOUS
10
386.065
20
-10.5976
11
386.004
21
-10.7214
0
LINE
8
BLACK
6
CONTINUOUS
10
386.004
20
-10.7214
11
385.942
21
-10.7833
0
LINE
8
BLACK
6
CONTINUOUS
10
385.942
20
-10.7833
11
385.818
21
-10.8452
0
LINE
8
BLACK
6
CONTINUOUS
10
385.818
20
-10.8452
11
385.57
21
-10.8452
0
LINE
8
BLACK
6
CONTINUOUS
10
385.57
20
-10.8452
11
385.446
21
-10.9071
0
LINE
8
BLACK
6
CONTINUOUS
10
385.446
20
-10.9071
11
385.385
21
-10.969
0
LINE
8
BLACK
6
CONTINUOUS
10
385.385
20
-10.969
11
385.323
21
-11.0929
0
LINE
8
BLACK
6
CONTINUOUS
10
385.323
20
-11.0929
11
385.323
21
-11.3405
0
LINE
8
BLACK
6
CONTINUOUS
10
385.323
20
-11.3405
11
385.385
21
-11.4643
0
LINE
8
BLACK
6
CONTINUOUS
10
385.385
20
-11.4643
11
385.446
21
-11.5262
0
LINE
8
BLACK
6
CONTINUOUS
10
385.446
20
-11.5262
11
385.57
21
-11.5881
0
LINE
8
BLACK
6
CONTINUOUS
10
385.57
20
-11.5881
11
385.818
21
-11.5881
0
LINE
8
BLACK
6
CONTINUOUS
10
385.818
20
-11.5881
11
385.942
21
-11.5262
0
LINE
8
BLACK
6
CONTINUOUS
10
385.942
20
-11.5262
11
386.004
21
-11.4643
0
LINE
8
BLACK
6
CONTINUOUS
10
386.004
20
-11.4643
11
386.065
21
-11.3405
0
LINE
8
BLACK
6
CONTINUOUS
10
386.065
20
-11.3405
11
386.065
21
-11.0929
0
LINE
8
BLACK
6
CONTINUOUS
10
386.065
20
-11.0929
11
386.004
21
-10.969
0
LINE
8
BLACK
6
CONTINUOUS
10
386.004
20
-10.969
11
385.942
21
-10.9071
0
LINE
8
BLACK
6
CONTINUOUS
10
385.942
20
-10.9071
11
385.818
21
-10.8452
0
LINE
8
BLACK
6
CONTINUOUS
10
435.446
20
-11.5881
11
435.694
21
-11.5881
0
LINE
8
BLACK
6
CONTINUOUS
10
435.694
20
-11.5881
11
435.818
21
-11.5262
0
LINE
8
BLACK
6
CONTINUOUS
10
435.818
20
-11.5262
11
435.88
21
-11.4643
0
LINE
8
BLACK
6
CONTINUOUS
10
435.88
20
-11.4643
11
436.004
21
-11.2786
0
LINE
8
BLACK
6
CONTINUOUS
10
436.004
20
-11.2786
11
436.065
21
-11.031
0
LINE
8
BLACK
6
CONTINUOUS
10
436.065
20
-11.031
11
436.065
21
-10.5357
0
LINE
8
BLACK
6
CONTINUOUS
10
436.065
20
-10.5357
11
436.004
21
-10.4119
0
LINE
8
BLACK
6
CONTINUOUS
10
436.004
20
-10.4119
11
435.942
21
-10.35
0
LINE
8
BLACK
6
CONTINUOUS
10
435.942
20
-10.35
11
435.818
21
-10.2881
0
LINE
8
BLACK
6
CONTINUOUS
10
435.818
20
-10.2881
11
435.57
21
-10.2881
0
LINE
8
BLACK
6
CONTINUOUS
10
435.57
20
-10.2881
11
435.446
21
-10.35
0
LINE
8
BLACK
6
CONTINUOUS
10
435.446
20
-10.35
11
435.385
21
-10.4119
0
LINE
8
BLACK
6
CONTINUOUS
10
435.385
20
-10.4119
11
435.323
21
-10.5357
0
LINE
8
BLACK
6
CONTINUOUS
10
435.323
20
-10.5357
11
435.323
21
-10.8452
0
LINE
8
BLACK
6
CONTINUOUS
10
435.323
20
-10.8452
11
435.385
21
-10.969
0
LINE
8
BLACK
6
CONTINUOUS
10
435.385
20
-10.969
11
435.446
21
-11.031
0
LINE
8
BLACK
6
CONTINUOUS
10
435.446
20
-11.031
11
435.57
21
-11.0929
0
LINE
8
BLACK
6
CONTINUOUS
10
435.57
20
-11.0929
11
435.818
21
-11.0929
0
LINE
8
BLACK
6
CONTINUOUS
10
435.818
20
-11.0929
11
435.942
21
-11.031
0
LINE
8
BLACK
6
CONTINUOUS
10
435.942
20
-11.031
11
436.004
21
-10.969
0
LINE
8
BLACK
6
CONTINUOUS
10
436.004
20
-10.969
11
436.065
21
-10.8452
0
LINE
8
BLACK
6
CONTINUOUS
10
486.065
20
-11.5881
11
485.323
21
-11.5881
0
LINE
8
BLACK
6
CONTINUOUS
10
485.694
20
-11.5881
11
485.694
21
-10.2881
0
LINE
8
BLACK
6
CONTINUOUS
10
485.694
20
-10.2881
11
485.57
21
-10.4738
0
LINE
8
BLACK
6
CONTINUOUS
10
485.57
20
-10.4738
11
485.446
21
-10.5976
0
LINE
8
BLACK
6
CONTINUOUS
10
485.446
20
-10.5976
11
485.323
21
-10.6595
0
LINE
8
BLACK
6
CONTINUOUS
10
486.87
20
-10.2881
11
486.994
21
-10.2881
0
LINE
8
BLACK
6
CONTINUOUS
10
486.994
20
-10.2881
11
487.118
21
-10.35
0
LINE
8
BLACK
6
CONTINUOUS
10
487.118
20
-10.35
11
487.18
21
-10.4119
0
LINE
8
BLACK
6
CONTINUOUS
10
487.18
20
-10.4119
11
487.242
21
-10.5357
0
LINE
8
BLACK
6
CONTINUOUS
10
487.242
20
-10.5357
11
487.304
21
-10.7833
0
LINE
8
BLACK
6
CONTINUOUS
10
487.304
20
-10.7833
11
487.304
21
-11.0929
0
LINE
8
BLACK
6
CONTINUOUS
10
487.304
20
-11.0929
11
487.242
21
-11.3405
0
LINE
8
BLACK
6
CONTINUOUS
10
487.242
20
-11.3405
11
487.18
21
-11.4643
0
LINE
8
BLACK
6
CONTINUOUS
10
487.18
20
-11.4643
11
487.118
21
-11.5262
0
LINE
8
BLACK
6
CONTINUOUS
10
487.118
20
-11.5262
11
486.994
21
-11.5881
0
LINE
8
BLACK
6
CONTINUOUS
10
486.994
20
-11.5881
11
486.87
21
-11.5881
0
LINE
8
BLACK
6
CONTINUOUS
10
486.87
20
-11.5881
11
486.746
21
-11.5262
0
LINE
8
BLACK
6
CONTINUOUS
10
486.746
20
-11.5262
11
486.685
21
-11.4643
0
LINE
8
BLACK
6
CONTINUOUS
10
486.685
20
-11.4643
11
486.623
21
-11.3405
0
LINE
8
BLACK
6
CONTINUOUS
10
486.623
20
-11.3405
11
486.561
21
-11.0929
0
LINE
8
BLACK
6
CONTINUOUS
10
486.561
20
-11.0929
11
486.561
21
-10.7833
0
LINE
8
BLACK
6
CONTINUOUS
10
486.561
20
-10.7833
11
486.623
21
-10.5357
0
LINE
8
BLACK
6
CONTINUOUS
10
486.623
20
-10.5357
11
486.685
21
-10.4119
0
LINE
8
BLACK
6
CONTINUOUS
10
486.685
20
-10.4119
11
486.746
21
-10.35
0
LINE
8
BLACK
6
CONTINUOUS
10
486.746
20
-10.35
11
486.87
21
-10.2881
0
LINE
8
BLACK
6
CONTINUOUS
10
536.065
20
-11.5881
11
535.323
21
-11.5881
0
LINE
8
BLACK
6
CONTINUOUS
10
535.694
20
-11.5881
11
535.694
21
-10.2881
0
LINE
8
BLACK
6
CONTINUOUS
10
535.694
20
-10.2881
11
535.57
21
-10.4738
0
LINE
8
BLACK
6
CONTINUOUS
10
535.57
20
-10.4738
11
535.446
21
-10.5976
0
LINE
8
BLACK
6
CONTINUOUS
10
535.446
20
-10.5976
11
535.323
21
-10.6595
0
LINE
8
BLACK
6
CONTINUOUS
10
537.304
20
-11.5881
11
536.561
21
-11.5881
0
LINE
8
BLACK
6
CONTINUOUS
10
536.932
20
-11.5881
11
536.932
21
-10.2881
0
LINE
8
BLACK
6
CONTINUOUS
10
536.932
20
-10.2881
11
536.808
21
-10.4738
0
LINE
8
BLACK
6
CONTINUOUS
10
536.808
20
-10.4738
11
536.685
21
-10.5976
0
LINE
8
BLACK
6
CONTINUOUS
10
536.685
20
-10.5976
11
536.561
21
-10.6595
0
LINE
8
BLACK
6
CONTINUOUS
10
60
20
-407.989
11
60
21
-409.989
0
LINE
8
BLACK
6
CONTINUOUS
10
110
20
-407.989
11
110
21
-409.989
0
LINE
8
BLACK
6
CONTINUOUS
10
160
20
-407.989
11
160
21
-409.989
0
LINE
8
BLACK
6
CONTINUOUS
10
210
20
-407.989
11
210
21
-409.989
0
LINE
8
BLACK
6
CONTINUOUS
10
260
20
-407.989
11
260
21
-409.989
0
LINE
8
BLACK
6
CONTINUOUS
10
310
20
-407.989
11
310
21
-409.989
0
LINE
8
BLACK
6
CONTINUOUS
10
360
20
-407.989
11
360
21
-409.989
0
LINE
8
BLACK
6
CONTINUOUS
10
410
20
-407.989
11
410
21
-409.989
0
LINE
8
BLACK
6
CONTINUOUS
10
460
20
-407.989
11
460
21
-409.989
0
LINE
8
BLACK
6
CONTINUOUS
10
510
20
-407.989
11
510
21
-409.989
0
LINE
8
BLACK
6
CONTINUOUS
10
560
20
-407.989
11
560
21
-409.989
0
LINE
8
BLACK
6
CONTINUOUS
10
36.0655
20
-409.577
11
35.3226
21
-409.577
0
LINE
8
BLACK
6
CONTINUOUS
10
35.694
20
-409.577
11
35.694
21
-408.277
0
LINE
8
BLACK
6
CONTINUOUS
10
35.694
20
-408.277
11
35.5702
21
-408.463
0
LINE
8
BLACK
6
CONTINUOUS
10
35.5702
20
-408.463
11
35.4464
21
-408.587
0
LINE
8
BLACK
6
CONTINUOUS
10
35.4464
20
-408.587
11
35.3226
21
-408.649
0
LINE
8
BLACK
6
CONTINUOUS
10
85.3226
20
-408.401
11
85.3845
21
-408.339
0
LINE
8
BLACK
6
CONTINUOUS
10
85.3845
20
-408.339
11
85.5083
21
-408.277
0
LINE
8
BLACK
6
CONTINUOUS
10
85.5083
20
-408.277
11
85.8179
21
-408.277
0
LINE
8
BLACK
6
CONTINUOUS
10
85.8179
20
-408.277
11
85.9417
21
-408.339
0
LINE
8
BLACK
6
CONTINUOUS
10
85.9417
20
-408.339
11
86.0036
21
-408.401
0
LINE
8
BLACK
6
CONTINUOUS
10
86.0036
20
-408.401
11
86.0655
21
-408.525
0
LINE
8
BLACK
6
CONTINUOUS
10
86.0655
20
-408.525
11
86.0655
21
-408.649
0
LINE
8
BLACK
6
CONTINUOUS
10
86.0655
20
-408.649
11
86.0036
21
-408.834
0
LINE
8
BLACK
6
CONTINUOUS
10
86.0036
20
-408.834
11
85.2607
21
-409.577
0
LINE
8
BLACK
6
CONTINUOUS
10
85.2607
20
-409.577
11
86.0655
21
-409.577
0
LINE
8
BLACK
6
CONTINUOUS
10
135.261
20
-408.277
11
136.065
21
-408.277
0
LINE
8
BLACK
6
CONTINUOUS
10
136.065
20
-408.277
11
135.632
21
-408.772
0
LINE
8
BLACK
6
CONTINUOUS
10
135.632
20
-408.772
11
135.818
21
-408.772
0
LINE
8
BLACK
6
CONTINUOUS
10
135.818
20
-408.772
11
135.942
21
-408.834
0
LINE
8
BLACK
6
CONTINUOUS
10
135.942
20
-408.834
11
136.004
21
-408.896
0
LINE
8
BLACK
6
CONTINUOUS
10
136.004
20
-408.896
11
136.065
21
-409.02
0
LINE
8
BLACK
6
CONTINUOUS
10
136.065
20
-409.02
11
136.065
21
-409.329
0
LINE
8
BLACK
6
CONTINUOUS
10
136.065
20
-409.329
11
136.004
21
-409.453
0
LINE
8
BLACK
6
CONTINUOUS
10
136.004
20
-409.453
11
135.942
21
-409.515
0
LINE
8
BLACK
6
CONTINUOUS
10
135.942
20
-409.515
11
135.818
21
-409.577
0
LINE
8
BLACK
6
CONTINUOUS
10
135.818
20
-409.577
11
135.446
21
-409.577
0
LINE
8
BLACK
6
CONTINUOUS
10
135.446
20
-409.577
11
135.323
21
-409.515
0
LINE
8
BLACK
6
CONTINUOUS
10
135.323
20
-409.515
11
135.261
21
-409.453
0
LINE
8
BLACK
6
CONTINUOUS
10
185.942
20
-408.71
11
185.942
21
-409.577
0
LINE
8
BLACK
6
CONTINUOUS
10
185.632
20
-408.215
11
185.323
21
-409.144
0
LINE
8
BLACK
6
CONTINUOUS
10
185.323
20
-409.144
11
186.127
21
-409.144
0
LINE
8
BLACK
6
CONTINUOUS
10
236.004
20
-408.277
11
235.385
21
-408.277
0
LINE
8
BLACK
6
CONTINUOUS
10
235.385
20
-408.277
11
235.323
21
-408.896
0
LINE
8
BLACK
6
CONTINUOUS
10
235.323
20
-408.896
11
235.385
21
-408.834
0
LINE
8
BLACK
6
CONTINUOUS
10
235.385
20
-408.834
11
235.508
21
-408.772
0
LINE
8
BLACK
6
CONTINUOUS
10
235.508
20
-408.772
11
235.818
21
-408.772
0
LINE
8
BLACK
6
CONTINUOUS
10
235.818
20
-408.772
11
235.942
21
-408.834
0
LINE
8
BLACK
6
CONTINUOUS
10
235.942
20
-408.834
11
236.004
21
-408.896
0
LINE
8
BLACK
6
CONTINUOUS
10
236.004
20
-408.896
11
236.065
21
-409.02
0
LINE
8
BLACK
6
CONTINUOUS
10
236.065
20
-409.02
11
236.065
21
-409.329
0
LINE
8
BLACK
6
CONTINUOUS
10
236.065
20
-409.329
11
236.004
21
-409.453
0
LINE
8
BLACK
6
CONTINUOUS
10
236.004
20
-409.453
11
235.942
21
-409.515
0
LINE
8
BLACK
6
CONTINUOUS
10
235.942
20
-409.515
11
235.818
21
-409.577
0
LINE
8
BLACK
6
CONTINUOUS
10
235.818
20
-409.577
11
235.508
21
-409.577
0
LINE
8
BLACK
6
CONTINUOUS
10
235.508
20
-409.577
11
235.385
21
-409.515
0
LINE
8
BLACK
6
CONTINUOUS
10
235.385
20
-409.515
11
235.323
21
-409.453
0
LINE
8
BLACK
6
CONTINUOUS
10
285.942
20
-408.277
11
285.694
21
-408.277
0
LINE
8
BLACK
6
CONTINUOUS
10
285.694
20
-408.277
11
285.57
21
-408.339
0
LINE
8
BLACK
6
CONTINUOUS
10
285.57
20
-408.339
11
285.508
21
-408.401
0
LINE
8
BLACK
6
CONTINUOUS
10
285.508
20
-408.401
11
285.385
21
-408.587
0
LINE
8
BLACK
6
CONTINUOUS
10
285.385
20
-408.587
11
285.323
21
-408.834
0
LINE
8
BLACK
6
CONTINUOUS
10
285.323
20
-408.834
11
285.323
21
-409.329
0
LINE
8
BLACK
6
CONTINUOUS
10
285.323
20
-409.329
11
285.385
21
-409.453
0
LINE
8
BLACK
6
CONTINUOUS
10
285.385
20
-409.453
11
285.446
21
-409.515
0
LINE
8
BLACK
6
CONTINUOUS
10
285.446
20
-409.515
11
285.57
21
-409.577
0
LINE
8
BLACK
6
CONTINUOUS
10
285.57
20
-409.577
11
285.818
21
-409.577
0
LINE
8
BLACK
6
CONTINUOUS
10
285.818
20
-409.577
11
285.942
21
-409.515
0
LINE
8
BLACK
6
CONTINUOUS
10
285.942
20
-409.515
11
286.004
21
-409.453
0
LINE
8
BLACK
6
CONTINUOUS
10
286.004
20
-409.453
11
286.065
21
-409.329
0
LINE
8
BLACK
6
CONTINUOUS
10
286.065
20
-409.329
11
286.065
21
-409.02
0
LINE
8
BLACK
6
CONTINUOUS
10
286.065
20
-409.02
11
286.004
21
-408.896
0
LINE
8
BLACK
6
CONTINUOUS
10
286.004
20
-408.896
11
285.942
21
-408.834
0
LINE
8
BLACK
6
CONTINUOUS
10
285.942
20
-408.834
11
285.818
21
-408.772
0
LINE
8
BLACK
6
CONTINUOUS
10
285.818
20
-408.772
11
285.57
21
-408.772
0
LINE
8
BLACK
6
CONTINUOUS
10
285.57
20
-408.772
11
285.446
21
-408.834
0
LINE
8
BLACK
6
CONTINUOUS
10
285.446
20
-408.834
11
285.385
21
-408.896
0
LINE
8
BLACK
6
CONTINUOUS
10
285.385
20
-408.896
11
285.323
21
-409.02
0
LINE
8
BLACK
6
CONTINUOUS
10
335.261
20
-408.277
11
336.127
21
-408.277
0
LINE
8
BLACK
6
CONTINUOUS
10
336.127
20
-408.277
11
335.57
21
-409.577
0
LINE
8
BLACK
6
CONTINUOUS
10
385.57
20
-408.834
11
385.446
21
-408.772
0
LINE
8
BLACK
6
CONTINUOUS
10
385.446
20
-408.772
11
385.385
21
-408.71
0
LINE
8
BLACK
6
CONTINUOUS
10
385.385
20
-408.71
11
385.323
21
-408.587
0
LINE
8
BLACK
6
CONTINUOUS
10
385.323
20
-408.587
11
385.323
21
-408.525
0
LINE
8
BLACK
6
CONTINUOUS
10
385.323
20
-408.525
11
385.385
21
-408.401
0
LINE
8
BLACK
6
CONTINUOUS
10
385.385
20
-408.401
11
385.446
21
-408.339
0
LINE
8
BLACK
6
CONTINUOUS
10
385.446
20
-408.339
11
385.57
21
-408.277
0
LINE
8
BLACK
6
CONTINUOUS
10
385.57
20
-408.277
11
385.818
21
-408.277
0
LINE
8
BLACK
6
CONTINUOUS
10
385.818
20
-408.277
11
385.942
21
-408.339
0
LINE
8
BLACK
6
CONTINUOUS
10
385.942
20
-408.339
11
386.004
21
-408.401
0
LINE
8
BLACK
6
CONTINUOUS
10
386.004
20
-408.401
11
386.065
21
-408.525
0
LINE
8
BLACK
6
CONTINUOUS
10
386.065
20
-408.525
11
386.065
21
-408.587
0
LINE
8
BLACK
6
CONTINUOUS
10
386.065
20
-408.587
11
386.004
21
-408.71
0
LINE
8
BLACK
6
CONTINUOUS
10
386.004
20
-408.71
11
385.942
21
-408.772
0
LINE
8
BLACK
6
CONTINUOUS
10
385.942
20
-408.772
11
385.818
21
-408.834
0
LINE
8
BLACK
6
CONTINUOUS
10
385.818
20
-408.834
11
385.57
21
-408.834
0
LINE
8
BLACK
6
CONTINUOUS
10
385.57
20
-408.834
11
385.446
21
-408.896
0
LINE
8
BLACK
6
CONTINUOUS
10
385.446
20
-408.896
11
385.385
21
-408.958
0
LINE
8
BLACK
6
CONTINUOUS
10
385.385
20
-408.958
11
385.323
21
-409.082
0
LINE
8
BLACK
6
CONTINUOUS
10
385.323
20
-409.082
11
385.323
21
-409.329
0
LINE
8
BLACK
6
CONTINUOUS
10
385.323
20
-409.329
11
385.385
21
-409.453
0
LINE
8
BLACK
6
CONTINUOUS
10
385.385
20
-409.453
11
385.446
21
-409.515
0
LINE
8
BLACK
6
CONTINUOUS
10
385.446
20
-409.515
11
385.57
21
-409.577
0
LINE
8
BLACK
6
CONTINUOUS
10
385.57
20
-409.577
11
385.818
21
-409.577
0
LINE
8
BLACK
6
CONTINUOUS
10
385.818
20
-409.577
11
385.942
21
-409.515
0
LINE
8
BLACK
6
CONTINUOUS
10
385.942
20
-409.515
11
386.004
21
-409.453
0
LINE
8
BLACK
6
CONTINUOUS
10
386.004
20
-409.453
11
386.065
21
-409.329
0
LINE
8
BLACK
6
CONTINUOUS
10
386.065
20
-409.329
11
386.065
21
-409.082
0
LINE
8
BLACK
6
CONTINUOUS
10
386.065
20
-409.082
11
386.004
21
-408.958
0
LINE
8
BLACK
6
CONTINUOUS
10
386.004
20
-408.958
11
385.942
21
-408.896
0
LINE
8
BLACK
6
CONTINUOUS
10
385.942
20
-408.896
11
385.818
21
-408.834
0
LINE
8
BLACK
6
CONTINUOUS
10
435.446
20
-409.577
11
435.694
21
-409.577
0
LINE
8
BLACK
6
CONTINUOUS
10
435.694
20
-409.577
11
435.818
21
-409.515
0
LINE
8
BLACK
6
CONTINUOUS
10
435.818
20
-409.515
11
435.88
21
-409.453
0
LINE
8
BLACK
6
CONTINUOUS
10
435.88
20
-409.453
11
436.004
21
-409.268
0
LINE
8
BLACK
6
CONTINUOUS
10
436.004
20
-409.268
11
436.065
21
-409.02
0
LINE
8
BLACK
6
CONTINUOUS
10
436.065
20
-409.02
11
436.065
21
-408.525
0
LINE
8
BLACK
6
CONTINUOUS
10
436.065
20
-408.525
11
436.004
21
-408.401
0
LINE
8
BLACK
6
CONTINUOUS
10
436.004
20
-408.401
11
435.942
21
-408.339
0
LINE
8
BLACK
6
CONTINUOUS
10
435.942
20
-408.339
11
435.818
21
-408.277
0
LINE
8
BLACK
6
CONTINUOUS
10
435.818
20
-408.277
11
435.57
21
-408.277
0
LINE
8
BLACK
6
CONTINUOUS
10
435.57
20
-408.277
11
435.446
21
-408.339
0
LINE
8
BLACK
6
CONTINUOUS
10
435.446
20
-408.339
11
435.385
21
-408.401
0
LINE
8
BLACK
6
CONTINUOUS
10
435.385
20
-408.401
11
435.323
21
-408.525
0
LINE
8
BLACK
6
CONTINUOUS
10
435.323
20
-408.525
11
435.323
21
-408.834
0
LINE
8
BLACK
6
CONTINUOUS
10
435.323
20
-408.834
11
435.385
21
-408.958
0
LINE
8
BLACK
6
CONTINUOUS
10
435.385
20
-408.958
11
435.446
21
-409.02
0
LINE
8
BLACK
6
CONTINUOUS
10
435.446
20
-409.02
11
435.57
21
-409.082
0
LINE
8
BLACK
6
CONTINUOUS
10
435.57
20
-409.082
11
435.818
21
-409.082
0
LINE
8
BLACK
6
CONTINUOUS
10
435.818
20
-409.082
11
435.942
21
-409.02
0
LINE
8
BLACK
6
CONTINUOUS
10
435.942
20
-409.02
11
436.004
21
-408.958
0
LINE
8
BLACK
6
CONTINUOUS
10
436.004
20
-408.958
11
436.065
21
-408.834
0
LINE
8
BLACK
6
CONTINUOUS
10
486.065
20
-409.577
11
485.323
21
-409.577
0
LINE
8
BLACK
6
CONTINUOUS
10
485.694
20
-409.577
11
485.694
21
-408.277
0
LINE
8
BLACK
6
CONTINUOUS
10
485.694
20
-408.277
11
485.57
21
-408.463
0
LINE
8
BLACK
6
CONTINUOUS
10
485.57
20
-408.463
11
485.446
21
-408.587
0
LINE
8
BLACK
6
CONTINUOUS
10
485.446
20
-408.587
11
485.323
21
-408.649
0
LINE
8
BLACK
6
CONTINUOUS
10
486.87
20
-408.277
11
486.994
21
-408.277
0
LINE
8
BLACK
6
CONTINUOUS
10
486.994
20
-408.277
11
487.118
21
-408.339
0
LINE
8
BLACK
6
CONTINUOUS
10
487.118
20
-408.339
11
487.18
21
-408.401
0
LINE
8
BLACK
6
CONTINUOUS
10
487.18
20
-408.401
11
487.242
21
-408.525
0
LINE
8
BLACK
6
CONTINUOUS
10
487.242
20
-408.525
11
487.304
21
-408.772
0
LINE
8
BLACK
6
CONTINUOUS
10
487.304
20
-408.772
11
487.304
21
-409.082
0
LINE
8
BLACK
6
CONTINUOUS
10
487.304
20
-409.082
11
487.242
21
-409.329
0
LINE
8
BLACK
6
CONTINUOUS
10
487.242
20
-409.329
11
487.18
21
-409.453
0
LINE
8
BLACK
6
CONTINUOUS
10
487.18
20
-409.453
11
487.118
21
-409.515
0
LINE
8
BLACK
6
CONTINUOUS
10
487.118
20
-409.515
11
486.994
21
-409.577
0
LINE
8
BLACK
6
CONTINUOUS
10
486.994
20
-409.577
11
486.87
21
-409.577
0
LINE
8
BLACK
6
CONTINUOUS
10
486.87
20
-409.577
11
486.746
21
-409.515
0
LINE
8
BLACK
6
CONTINUOUS
10
486.746
20
-409.515
11
486.685
21
-409.453
0
LINE
8
BLACK
6
CONTINUOUS
10
486.685
20
-409.453
11
486.623
21
-409.329
0
LINE
8
BLACK
6
CONTINUOUS
10
486.623
20
-409.329
11
486.561
21
-409.082
0
LINE
8
BLACK
6
CONTINUOUS
10
486.561
20
-409.082
11
486.561
21
-408.772
0
LINE
8
BLACK
6
CONTINUOUS
10
486.561
20
-408.772
11
486.623
21
-408.525
0
LINE
8
BLACK
6
CONTINUOUS
10
486.623
20
-408.525
11
486.685
21
-408.401
0
LINE
8
BLACK
6
CONTINUOUS
10
486.685
20
-408.401
11
486.746
21
-408.339
0
LINE
8
BLACK
6
CONTINUOUS
10
486.746
20
-408.339
11
486.87
21
-408.277
0
LINE
8
BLACK
6
CONTINUOUS
10
536.065
20
-409.577
11
535.323
21
-409.577
0
LINE
8
BLACK
6
CONTINUOUS
10
535.694
20
-409.577
11
535.694
21
-408.277
0
LINE
8
BLACK
6
CONTINUOUS
10
535.694
20
-408.277
11
535.57
21
-408.463
0
LINE
8
BLACK
6
CONTINUOUS
10
535.57
20
-408.463
11
535.446
21
-408.587
0
LINE
8
BLACK
6
CONTINUOUS
10
535.446
20
-408.587
11
535.323
21
-408.649
0
LINE
8
BLACK
6
CONTINUOUS
10
537.304
20
-409.577
11
536.561
21
-409.577
0
LINE
8
BLACK
6
CONTINUOUS
10
536.932
20
-409.577
11
536.932
21
-408.277
0
LINE
8
BLACK
6
CONTINUOUS
10
536.932
20
-408.277
11
536.808
21
-408.463
0
LINE
8
BLACK
6
CONTINUOUS
10
536.808
20
-408.463
11
536.685
21
-408.587
0
LINE
8
BLACK
6
CONTINUOUS
10
536.685
20
-408.587
11
536.561
21
-408.649
0
LINE
8
BLACK
6
CONTINUOUS
10
10
20
-60
11
12
21
-60
0
LINE
8
BLACK
6
CONTINUOUS
10
10
20
-110
11
12
21
-110
0
LINE
8
BLACK
6
CONTINUOUS
10
10
20
-160
11
12
21
-160
0
LINE
8
BLACK
6
CONTINUOUS
10
10
20
-210
11
12
21
-210
0
LINE
8
BLACK
6
CONTINUOUS
10
10
20
-260
11
12
21
-260
0
LINE
8
BLACK
6
CONTINUOUS
10
10
20
-310
11
12
21
-310
0
LINE
8
BLACK
6
CONTINUOUS
10
10
20
-360
11
12
21
-360
0
LINE
8
BLACK
6
CONTINUOUS
10
10.6905
20
-35.2167
11
11.3095
21
-35.2167
0
LINE
8
BLACK
6
CONTINUOUS
10
10.5667
20
-35.5881
11
11
21
-34.2881
0
LINE
8
BLACK
6
CONTINUOUS
10
11
20
-34.2881
11
11.4333
21
-35.5881
0
LINE
8
BLACK
6
CONTINUOUS
10
11.0929
20
-84.9071
11
11.2786
21
-84.969
0
LINE
8
BLACK
6
CONTINUOUS
10
11.2786
20
-84.969
11
11.3405
21
-85.031
0
LINE
8
BLACK
6
CONTINUOUS
10
11.3405
20
-85.031
11
11.4024
21
-85.1548
0
LINE
8
BLACK
6
CONTINUOUS
10
11.4024
20
-85.1548
11
11.4024
21
-85.3405
0
LINE
8
BLACK
6
CONTINUOUS
10
11.4024
20
-85.3405
11
11.3405
21
-85.4643
0
LINE
8
BLACK
6
CONTINUOUS
10
11.3405
20
-85.4643
11
11.2786
21
-85.5262
0
LINE
8
BLACK
6
CONTINUOUS
10
11.2786
20
-85.5262
11
11.1548
21
-85.5881
0
LINE
8
BLACK
6
CONTINUOUS
10
11.1548
20
-85.5881
11
10.6595
21
-85.5881
0
LINE
8
BLACK
6
CONTINUOUS
10
10.6595
20
-85.5881
11
10.6595
21
-84.2881
0
LINE
8
BLACK
6
CONTINUOUS
10
10.6595
20
-84.2881
11
11.0929
21
-84.2881
0
LINE
8
BLACK
6
CONTINUOUS
10
11.0929
20
-84.2881
11
11.2167
21
-84.35
0
LINE
8
BLACK
6
CONTINUOUS
10
11.2167
20
-84.35
11
11.2786
21
-84.4119
0
LINE
8
BLACK
6
CONTINUOUS
10
11.2786
20
-84.4119
11
11.3405
21
-84.5357
0
LINE
8
BLACK
6
CONTINUOUS
10
11.3405
20
-84.5357
11
11.3405
21
-84.6595
0
LINE
8
BLACK
6
CONTINUOUS
10
11.3405
20
-84.6595
11
11.2786
21
-84.7833
0
LINE
8
BLACK
6
CONTINUOUS
10
11.2786
20
-84.7833
11
11.2167
21
-84.8452
0
LINE
8
BLACK
6
CONTINUOUS
10
11.2167
20
-84.8452
11
11.0929
21
-84.9071
0
LINE
8
BLACK
6
CONTINUOUS
10
11.0929
20
-84.9071
11
10.6595
21
-84.9071
0
LINE
8
BLACK
6
CONTINUOUS
10
11.4024
20
-135.464
11
11.3405
21
-135.526
0
LINE
8
BLACK
6
CONTINUOUS
10
11.3405
20
-135.526
11
11.1548
21
-135.588
0
LINE
8
BLACK
6
CONTINUOUS
10
11.1548
20
-135.588
11
11.031
21
-135.588
0
LINE
8
BLACK
6
CONTINUOUS
10
11.031
20
-135.588
11
10.8452
21
-135.526
0
LINE
8
BLACK
6
CONTINUOUS
10
10.8452
20
-135.526
11
10.7214
21
-135.402
0
LINE
8
BLACK
6
CONTINUOUS
10
10.7214
20
-135.402
11
10.6595
21
-135.279
0
LINE
8
BLACK
6
CONTINUOUS
10
10.6595
20
-135.279
11
10.5976
21
-135.031
0
LINE
8
BLACK
6
CONTINUOUS
10
10.5976
20
-135.031
11
10.5976
21
-134.845
0
LINE
8
BLACK
6
CONTINUOUS
10
10.5976
20
-134.845
11
10.6595
21
-134.598
0
LINE
8
BLACK
6
CONTINUOUS
10
10.6595
20
-134.598
11
10.7214
21
-134.474
0
LINE
8
BLACK
6
CONTINUOUS
10
10.7214
20
-134.474
11
10.8452
21
-134.35
0
LINE
8
BLACK
6
CONTINUOUS
10
10.8452
20
-134.35
11
11.031
21
-134.288
0
LINE
8
BLACK
6
CONTINUOUS
10
11.031
20
-134.288
11
11.1548
21
-134.288
0
LINE
8
BLACK
6
CONTINUOUS
10
11.1548
20
-134.288
11
11.3405
21
-134.35
0
LINE
8
BLACK
6
CONTINUOUS
10
11.3405
20
-134.35
11
11.4024
21
-134.412
0
LINE
8
BLACK
6
CONTINUOUS
10
10.6595
20
-185.588
11
10.6595
21
-184.288
0
LINE
8
BLACK
6
CONTINUOUS
10
10.6595
20
-184.288
11
10.969
21
-184.288
0
LINE
8
BLACK
6
CONTINUOUS
10
10.969
20
-184.288
11
11.1548
21
-184.35
0
LINE
8
BLACK
6
CONTINUOUS
10
11.1548
20
-184.35
11
11.2786
21
-184.474
0
LINE
8
BLACK
6
CONTINUOUS
10
11.2786
20
-184.474
11
11.3405
21
-184.598
0
LINE
8
BLACK
6
CONTINUOUS
10
11.3405
20
-184.598
11
11.4024
21
-184.845
0
LINE
8
BLACK
6
CONTINUOUS
10
11.4024
20
-184.845
11
11.4024
21
-185.031
0
LINE
8
BLACK
6
CONTINUOUS
10
11.4024
20
-185.031
11
11.3405
21
-185.279
0
LINE
8
BLACK
6
CONTINUOUS
10
11.3405
20
-185.279
11
11.2786
21
-185.402
0
LINE
8
BLACK
6
CONTINUOUS
10
11.2786
20
-185.402
11
11.1548
21
-185.526
0
LINE
8
BLACK
6
CONTINUOUS
10
11.1548
20
-185.526
11
10.969
21
-185.588
0
LINE
8
BLACK
6
CONTINUOUS
10
10.969
20
-185.588
11
10.6595
21
-185.588
0
LINE
8
BLACK
6
CONTINUOUS
10
10.7214
20
-234.907
11
11.1548
21
-234.907
0
LINE
8
BLACK
6
CONTINUOUS
10
11.3405
20
-235.588
11
10.7214
21
-235.588
0
LINE
8
BLACK
6
CONTINUOUS
10
10.7214
20
-235.588
11
10.7214
21
-234.288
0
LINE
8
BLACK
6
CONTINUOUS
10
10.7214
20
-234.288
11
11.3405
21
-234.288
0
LINE
8
BLACK
6
CONTINUOUS
10
11.1857
20
-284.907
11
10.7524
21
-284.907
0
LINE
8
BLACK
6
CONTINUOUS
10
10.7524
20
-285.588
11
10.7524
21
-284.288
0
LINE
8
BLACK
6
CONTINUOUS
10
10.7524
20
-284.288
11
11.3714
21
-284.288
0
LINE
8
BLACK
6
CONTINUOUS
10
11.3405
20
-334.35
11
11.2167
21
-334.288
0
LINE
8
BLACK
6
CONTINUOUS
10
11.2167
20
-334.288
11
11.031
21
-334.288
0
LINE
8
BLACK
6
CONTINUOUS
10
11.031
20
-334.288
11
10.8452
21
-334.35
0
LINE
8
BLACK
6
CONTINUOUS
10
10.8452
20
-334.35
11
10.7214
21
-334.474
0
LINE
8
BLACK
6
CONTINUOUS
10
10.7214
20
-334.474
11
10.6595
21
-334.598
0
LINE
8
BLACK
6
CONTINUOUS
10
10.6595
20
-334.598
11
10.5976
21
-334.845
0
LINE
8
BLACK
6
CONTINUOUS
10
10.5976
20
-334.845
11
10.5976
21
-335.031
0
LINE
8
BLACK
6
CONTINUOUS
10
10.5976
20
-335.031
11
10.6595
21
-335.279
0
LINE
8
BLACK
6
CONTINUOUS
10
10.6595
20
-335.279
11
10.7214
21
-335.402
0
LINE
8
BLACK
6
CONTINUOUS
10
10.7214
20
-335.402
11
10.8452
21
-335.526
0
LINE
8
BLACK
6
CONTINUOUS
10
10.8452
20
-335.526
11
11.031
21
-335.588
0
LINE
8
BLACK
6
CONTINUOUS
10
11.031
20
-335.588
11
11.1548
21
-335.588
0
LINE
8
BLACK
6
CONTINUOUS
10
11.1548
20
-335.588
11
11.3405
21
-335.526
0
LINE
8
BLACK
6
CONTINUOUS
10
11.3405
20
-335.526
11
11.4024
21
-335.464
0
LINE
8
BLACK
6
CONTINUOUS
10
11.4024
20
-335.464
11
11.4024
21
-335.031
0
LINE
8
BLACK
6
CONTINUOUS
10
11.4024
20
-335.031
11
11.1548
21
-335.031
0
LINE
8
BLACK
6
CONTINUOUS
10
10.6286
20
-385.588
11
10.6286
21
-384.288
0
LINE
8
BLACK
6
CONTINUOUS
10
10.6286
20
-384.907
11
11.3714
21
-384.907
0
LINE
8
BLACK
6
CONTINUOUS
10
11.3714
20
-385.588
11
11.3714
21
-384.288
0
LINE
8
BLACK
6
CONTINUOUS
10
584.004
20
-60
11
582.004
21
-60
0
LINE
8
BLACK
6
CONTINUOUS
10
584.004
20
-110
11
582.004
21
-110
0
LINE
8
BLACK
6
CONTINUOUS
10
584.004
20
-160
11
582.004
21
-160
0
LINE
8
BLACK
6
CONTINUOUS
10
584.004
20
-210
11
582.004
21
-210
0
LINE
8
BLACK
6
CONTINUOUS
10
584.004
20
-260
11
582.004
21
-260
0
LINE
8
BLACK
6
CONTINUOUS
10
584.004
20
-310
11
582.004
21
-310
0
LINE
8
BLACK
6
CONTINUOUS
10
584.004
20
-360
11
582.004
21
-360
0
LINE
8
BLACK
6
CONTINUOUS
10
582.695
20
-35.2167
11
583.314
21
-35.2167
0
LINE
8
BLACK
6
CONTINUOUS
10
582.571
20
-35.5881
11
583.004
21
-34.2881
0
LINE
8
BLACK
6
CONTINUOUS
10
583.004
20
-34.2881
11
583.438
21
-35.5881
0
LINE
8
BLACK
6
CONTINUOUS
10
583.097
20
-84.9071
11
583.283
21
-84.969
0
LINE
8
BLACK
6
CONTINUOUS
10
583.283
20
-84.969
11
583.345
21
-85.031
0
LINE
8
BLACK
6
CONTINUOUS
10
583.345
20
-85.031
11
583.407
21
-85.1548
0
LINE
8
BLACK
6
CONTINUOUS
10
583.407
20
-85.1548
11
583.407
21
-85.3405
0
LINE
8
BLACK
6
CONTINUOUS
10
583.407
20
-85.3405
11
583.345
21
-85.4643
0
LINE
8
BLACK
6
CONTINUOUS
10
583.345
20
-85.4643
11
583.283
21
-85.5262
0
LINE
8
BLACK
6
CONTINUOUS
10
583.283
20
-85.5262
11
583.159
21
-85.5881
0
LINE
8
BLACK
6
CONTINUOUS
10
583.159
20
-85.5881
11
582.664
21
-85.5881
0
LINE
8
BLACK
6
CONTINUOUS
10
582.664
20
-85.5881
11
582.664
21
-84.2881
0
LINE
8
BLACK
6
CONTINUOUS
10
582.664
20
-84.2881
11
583.097
21
-84.2881
0
LINE
8
BLACK
6
CONTINUOUS
10
583.097
20
-84.2881
11
583.221
21
-84.35
0
LINE
8
BLACK
6
CONTINUOUS
10
583.221
20
-84.35
11
583.283
21
-84.4119
0
LINE
8
BLACK
6
CONTINUOUS
10
583.283
20
-84.4119
11
583.345
21
-84.5357
0
LINE
8
BLACK
6
CONTINUOUS
10
583.345
20
-84.5357
11
583.345
21
-84.6595
0
LINE
8
BLACK
6
CONTINUOUS
10
583.345
20
-84.6595
11
583.283
21
-84.7833
0
LINE
8
BLACK
6
CONTINUOUS
10
583.283
20
-84.7833
11
583.221
21
-84.8452
0
LINE
8
BLACK
6
CONTINUOUS
10
583.221
20
-84.8452
11
583.097
21
-84.9071
0
LINE
8
BLACK
6
CONTINUOUS
10
583.097
20
-84.9071
11
582.664
21
-84.9071
0
LINE
8
BLACK
6
CONTINUOUS
10
583.407
20
-135.464
11
583.345
21
-135.526
0
LINE
8
BLACK
6
CONTINUOUS
10
583.345
20
-135.526
11
583.159
21
-135.588
0
LINE
8
BLACK
6
CONTINUOUS
10
583.159
20
-135.588
11
583.035
21
-135.588
0
LINE
8
BLACK
6
CONTINUOUS
10
583.035
20
-135.588
11
582.85
21
-135.526
0
LINE
8
BLACK
6
CONTINUOUS
10
582.85
20
-135.526
11
582.726
21
-135.402
0
LINE
8
BLACK
6
CONTINUOUS
10
582.726
20
-135.402
11
582.664
21
-135.279
0
LINE
8
BLACK
6
CONTINUOUS
10
582.664
20
-135.279
11
582.602
21
-135.031
0
LINE
8
BLACK
6
CONTINUOUS
10
582.602
20
-135.031
11
582.602
21
-134.845
0
LINE
8
BLACK
6
CONTINUOUS
10
582.602
20
-134.845
11
582.664
21
-134.598
0
LINE
8
BLACK
6
CONTINUOUS
10
582.664
20
-134.598
11
582.726
21
-134.474
0
LINE
8
BLACK
6
CONTINUOUS
10
582.726
20
-134.474
11
582.85
21
-134.35
0
LINE
8
BLACK
6
CONTINUOUS
10
582.85
20
-134.35
11
583.035
21
-134.288
0
LINE
8
BLACK
6
CONTINUOUS
10
583.035
20
-134.288
11
583.159
21
-134.288
0
LINE
8
BLACK
6
CONTINUOUS
10
583.159
20
-134.288
11
583.345
21
-134.35
0
LINE
8
BLACK
6
CONTINUOUS
10
583.345
20
-134.35
11
583.407
21
-134.412
0
LINE
8
BLACK
6
CONTINUOUS
10
582.664
20
-185.588
11
582.664
21
-184.288
0
LINE
8
BLACK
6
CONTINUOUS
10
582.664
20
-184.288
11
582.973
21
-184.288
0
LINE
8
BLACK
6
CONTINUOUS
10
582.973
20
-184.288
11
583.159
21
-184.35
0
LINE
8
BLACK
6
CONTINUOUS
10
583.159
20
-184.35
11
583.283
21
-184.474
0
LINE
8
BLACK
6
CONTINUOUS
10
583.283
20
-184.474
11
583.345
21
-184.598
0
LINE
8
BLACK
6
CONTINUOUS
10
583.345
20
-184.598
11
583.407
21
-184.845
0
LINE
8
BLACK
6
CONTINUOUS
10
583.407
20
-184.845
11
583.407
21
-185.031
0
LINE
8
BLACK
6
CONTINUOUS
10
583.407
20
-185.031
11
583.345
21
-185.279
0
LINE
8
BLACK
6
CONTINUOUS
10
583.345
20
-185.279
11
583.283
21
-185.402
0
LINE
8
BLACK
6
CONTINUOUS
10
583.283
20
-185.402
11
583.159
21
-185.526
0
LINE
8
BLACK
6
CONTINUOUS
10
583.159
20
-185.526
11
582.973
21
-185.588
0
LINE
8
BLACK
6
CONTINUOUS
10
582.973
20
-185.588
11
582.664
21
-185.588
0
LINE
8
BLACK
6
CONTINUOUS
10
582.726
20
-234.907
11
583.159
21
-234.907
0
LINE
8
BLACK
6
CONTINUOUS
10
583.345
20
-235.588
11
582.726
21
-235.588
0
LINE
8
BLACK
6
CONTINUOUS
10
582.726
20
-235.588
11
582.726
21
-234.288
0
LINE
8
BLACK
6
CONTINUOUS
10
582.726
20
-234.288
11
583.345
21
-234.288
0
LINE
8
BLACK
6
CONTINUOUS
10
583.19
20
-284.907
11
582.757
21
-284.907
0
LINE
8
BLACK
6
CONTINUOUS
10
582.757
20
-285.588
11
582.757
21
-284.288
0
LINE
8
BLACK
6
CONTINUOUS
10
582.757
20
-284.288
11
583.376
21
-284.288
0
LINE
8
BLACK
6
CONTINUOUS
10
583.345
20
-334.35
11
583.221
21
-334.288
0
LINE
8
BLACK
6
CONTINUOUS
10
583.221
20
-334.288
11
583.035
21
-334.288
0
LINE
8
BLACK
6
CONTINUOUS
10
583.035
20
-334.288
11
582.85
21
-334.35
0
LINE
8
BLACK
6
CONTINUOUS
10
582.85
20
-334.35
11
582.726
21
-334.474
0
LINE
8
BLACK
6
CONTINUOUS
10
582.726
20
-334.474
11
582.664
21
-334.598
0
LINE
8
BLACK
6
CONTINUOUS
10
582.664
20
-334.598
11
582.602
21
-334.845
0
LINE
8
BLACK
6
CONTINUOUS
10
582.602
20
-334.845
11
582.602
21
-335.031
0
LINE
8
BLACK
6
CONTINUOUS
10
582.602
20
-335.031
11
582.664
21
-335.279
0
LINE
8
BLACK
6
CONTINUOUS
10
582.664
20
-335.279
11
582.726
21
-335.402
0
LINE
8
BLACK
6
CONTINUOUS
10
582.726
20
-335.402
11
582.85
21
-335.526
0
LINE
8
BLACK
6
CONTINUOUS
10
582.85
20
-335.526
11
583.035
21
-335.588
0
LINE
8
BLACK
6
CONTINUOUS
10
583.035
20
-335.588
11
583.159
21
-335.588
0
LINE
8
BLACK
6
CONTINUOUS
10
583.159
20
-335.588
11
583.345
21
-335.526
0
LINE
8
BLACK
6
CONTINUOUS
10
583.345
20
-335.526
11
583.407
21
-335.464
0
LINE
8
BLACK
6
CONTINUOUS
10
583.407
20
-335.464
11
583.407
21
-335.031
0
LINE
8
BLACK
6
CONTINUOUS
10
583.407
20
-335.031
11
583.159
21
-335.031
0
LINE
8
BLACK
6
CONTINUOUS
10
582.633
20
-385.588
11
582.633
21
-384.288
0
LINE
8
BLACK
6
CONTINUOUS
10
582.633
20
-384.907
11
583.376
21
-384.907
0
LINE
8
BLACK
6
CONTINUOUS
10
583.376
20
-385.588
11
583.376
21
-384.288
0
LINE
8
BLACK
6
CONTINUOUS
10
497.437
20
-403.768
11
497.437
21
-402.268
0
LINE
8
BLACK
6
CONTINUOUS
10
497.437
20
-402.268
11
497.794
21
-402.268
0
LINE
8
BLACK
6
CONTINUOUS
10
497.794
20
-402.268
11
498.008
21
-402.339
0
LINE
8
BLACK
6
CONTINUOUS
10
498.008
20
-402.339
11
498.151
21
-402.482
0
LINE
8
BLACK
6
CONTINUOUS
10
498.151
20
-402.482
11
498.222
21
-402.625
0
LINE
8
BLACK
6
CONTINUOUS
10
498.222
20
-402.625
11
498.294
21
-402.91
0
LINE
8
BLACK
6
CONTINUOUS
10
498.294
20
-402.91
11
498.294
21
-403.125
0
LINE
8
BLACK
6
CONTINUOUS
10
498.294
20
-403.125
11
498.222
21
-403.41
0
LINE
8
BLACK
6
CONTINUOUS
10
498.222
20
-403.41
11
498.151
21
-403.553
0
LINE
8
BLACK
6
CONTINUOUS
10
498.151
20
-403.553
11
498.008
21
-403.696
0
LINE
8
BLACK
6
CONTINUOUS
10
498.008
20
-403.696
11
497.794
21
-403.768
0
LINE
8
BLACK
6
CONTINUOUS
10
497.794
20
-403.768
11
497.437
21
-403.768
0
LINE
8
BLACK
6
CONTINUOUS
10
499.579
20
-403.768
11
499.579
21
-402.982
0
LINE
8
BLACK
6
CONTINUOUS
10
499.579
20
-402.982
11
499.508
21
-402.839
0
LINE
8
BLACK
6
CONTINUOUS
10
499.508
20
-402.839
11
499.365
21
-402.768
0
LINE
8
BLACK
6
CONTINUOUS
10
499.365
20
-402.768
11
499.079
21
-402.768
0
LINE
8
BLACK
6
CONTINUOUS
10
499.079
20
-402.768
11
498.937
21
-402.839
0
LINE
8
BLACK
6
CONTINUOUS
10
499.579
20
-403.696
11
499.437
21
-403.768
0
LINE
8
BLACK
6
CONTINUOUS
10
499.437
20
-403.768
11
499.079
21
-403.768
0
LINE
8
BLACK
6
CONTINUOUS
10
499.079
20
-403.768
11
498.937
21
-403.696
0
LINE
8
BLACK
6
CONTINUOUS
10
498.937
20
-403.696
11
498.865
21
-403.553
0
LINE
8
BLACK
6
CONTINUOUS
10
498.865
20
-403.553
11
498.865
21
-403.41
0
LINE
8
BLACK
6
CONTINUOUS
10
498.865
20
-403.41
11
498.937
21
-403.268
0
LINE
8
BLACK
6
CONTINUOUS
10
498.937
20
-403.268
11
499.079
21
-403.196
0
LINE
8
BLACK
6
CONTINUOUS
10
499.079
20
-403.196
11
499.437
21
-403.196
0
LINE
8
BLACK
6
CONTINUOUS
10
499.437
20
-403.196
11
499.579
21
-403.125
0
LINE
8
BLACK
6
CONTINUOUS
10
500.079
20
-402.768
11
500.651
21
-402.768
0
LINE
8
BLACK
6
CONTINUOUS
10
500.294
20
-402.268
11
500.294
21
-403.553
0
LINE
8
BLACK
6
CONTINUOUS
10
500.294
20
-403.553
11
500.365
21
-403.696
0
LINE
8
BLACK
6
CONTINUOUS
10
500.365
20
-403.696
11
500.508
21
-403.768
0
LINE
8
BLACK
6
CONTINUOUS
10
500.508
20
-403.768
11
500.651
21
-403.768
0
LINE
8
BLACK
6
CONTINUOUS
10
501.722
20
-403.696
11
501.579
21
-403.768
0
LINE
8
BLACK
6
CONTINUOUS
10
501.579
20
-403.768
11
501.294
21
-403.768
0
LINE
8
BLACK
6
CONTINUOUS
10
501.294
20
-403.768
11
501.151
21
-403.696
0
LINE
8
BLACK
6
CONTINUOUS
10
501.151
20
-403.696
11
501.079
21
-403.553
0
LINE
8
BLACK
6
CONTINUOUS
10
501.079
20
-403.553
11
501.079
21
-402.982
0
LINE
8
BLACK
6
CONTINUOUS
10
501.079
20
-402.982
11
501.151
21
-402.839
0
LINE
8
BLACK
6
CONTINUOUS
10
501.151
20
-402.839
11
501.294
21
-402.768
0
LINE
8
BLACK
6
CONTINUOUS
10
501.294
20
-402.768
11
501.579
21
-402.768
0
LINE
8
BLACK
6
CONTINUOUS
10
501.579
20
-402.768
11
501.722
21
-402.839
0
LINE
8
BLACK
6
CONTINUOUS
10
501.722
20
-402.839
11
501.794
21
-402.982
0
LINE
8
BLACK
6
CONTINUOUS
10
501.794
20
-402.982
11
501.794
21
-403.125
0
LINE
8
BLACK
6
CONTINUOUS
10
501.794
20
-403.125
11
501.079
21
-403.268
0
LINE
8
BLACK
6
CONTINUOUS
10
502.437
20
-403.625
11
502.508
21
-403.696
0
LINE
8
BLACK
6
CONTINUOUS
10
502.508
20
-403.696
11
502.437
21
-403.768
0
LINE
8
BLACK
6
CONTINUOUS
10
502.437
20
-403.768
11
502.365
21
-403.696
0
LINE
8
BLACK
6
CONTINUOUS
10
502.365
20
-403.696
11
502.437
21
-403.625
0
LINE
8
BLACK
6
CONTINUOUS
10
502.437
20
-403.625
11
502.437
21
-403.768
0
LINE
8
BLACK
6
CONTINUOUS
10
502.437
20
-402.839
11
502.508
21
-402.91
0
LINE
8
BLACK
6
CONTINUOUS
10
502.508
20
-402.91
11
502.437
21
-402.982
0
LINE
8
BLACK
6
CONTINUOUS
10
502.437
20
-402.982
11
502.365
21
-402.91
0
LINE
8
BLACK
6
CONTINUOUS
10
502.365
20
-402.91
11
502.437
21
-402.839
0
LINE
8
BLACK
6
CONTINUOUS
10
502.437
20
-402.839
11
502.437
21
-402.982
0
LINE
8
BLACK
6
CONTINUOUS
10
474.004
20
-404.489
11
582.004
21
-404.489
0
LINE
8
BLACK
6
CONTINUOUS
10
475.437
20
-406.568
11
475.437
21
-405.068
0
LINE
8
BLACK
6
CONTINUOUS
10
476.294
20
-406.568
11
475.651
21
-405.71
0
LINE
8
BLACK
6
CONTINUOUS
10
476.294
20
-405.068
11
475.437
21
-405.925
0
LINE
8
BLACK
6
CONTINUOUS
10
476.937
20
-406.568
11
476.937
21
-405.568
0
LINE
8
BLACK
6
CONTINUOUS
10
476.937
20
-405.068
11
476.865
21
-405.139
0
LINE
8
BLACK
6
CONTINUOUS
10
476.865
20
-405.139
11
476.937
21
-405.21
0
LINE
8
BLACK
6
CONTINUOUS
10
476.937
20
-405.21
11
477.008
21
-405.139
0
LINE
8
BLACK
6
CONTINUOUS
10
477.008
20
-405.139
11
476.937
21
-405.068
0
LINE
8
BLACK
6
CONTINUOUS
10
476.937
20
-405.068
11
476.937
21
-405.21
0
LINE
8
BLACK
6
CONTINUOUS
10
478.508
20
-406.425
11
478.437
21
-406.496
0
LINE
8
BLACK
6
CONTINUOUS
10
478.437
20
-406.496
11
478.222
21
-406.568
0
LINE
8
BLACK
6
CONTINUOUS
10
478.222
20
-406.568
11
478.079
21
-406.568
0
LINE
8
BLACK
6
CONTINUOUS
10
478.079
20
-406.568
11
477.865
21
-406.496
0
LINE
8
BLACK
6
CONTINUOUS
10
477.865
20
-406.496
11
477.722
21
-406.353
0
LINE
8
BLACK
6
CONTINUOUS
10
477.722
20
-406.353
11
477.651
21
-406.21
0
LINE
8
BLACK
6
CONTINUOUS
10
477.651
20
-406.21
11
477.579
21
-405.925
0
LINE
8
BLACK
6
CONTINUOUS
10
477.579
20
-405.925
11
477.579
21
-405.71
0
LINE
8
BLACK
6
CONTINUOUS
10
477.579
20
-405.71
11
477.651
21
-405.425
0
LINE
8
BLACK
6
CONTINUOUS
10
477.651
20
-405.425
11
477.722
21
-405.282
0
LINE
8
BLACK
6
CONTINUOUS
10
477.722
20
-405.282
11
477.865
21
-405.139
0
LINE
8
BLACK
6
CONTINUOUS
10
477.865
20
-405.139
11
478.079
21
-405.068
0
LINE
8
BLACK
6
CONTINUOUS
10
478.079
20
-405.068
11
478.222
21
-405.068
0
LINE
8
BLACK
6
CONTINUOUS
10
478.222
20
-405.068
11
478.437
21
-405.139
0
LINE
8
BLACK
6
CONTINUOUS
10
478.437
20
-405.139
11
478.508
21
-405.21
0
LINE
8
BLACK
6
CONTINUOUS
10
479.794
20
-406.568
11
479.794
21
-405.782
0
LINE
8
BLACK
6
CONTINUOUS
10
479.794
20
-405.782
11
479.722
21
-405.639
0
LINE
8
BLACK
6
CONTINUOUS
10
479.722
20
-405.639
11
479.579
21
-405.568
0
LINE
8
BLACK
6
CONTINUOUS
10
479.579
20
-405.568
11
479.294
21
-405.568
0
LINE
8
BLACK
6
CONTINUOUS
10
479.294
20
-405.568
11
479.151
21
-405.639
0
LINE
8
BLACK
6
CONTINUOUS
10
479.794
20
-406.496
11
479.651
21
-406.568
0
LINE
8
BLACK
6
CONTINUOUS
10
479.651
20
-406.568
11
479.294
21
-406.568
0
LINE
8
BLACK
6
CONTINUOUS
10
479.294
20
-406.568
11
479.151
21
-406.496
0
LINE
8
BLACK
6
CONTINUOUS
10
479.151
20
-406.496
11
479.079
21
-406.353
0
LINE
8
BLACK
6
CONTINUOUS
10
479.079
20
-406.353
11
479.079
21
-406.21
0
LINE
8
BLACK
6
CONTINUOUS
10
479.079
20
-406.21
11
479.151
21
-406.068
0
LINE
8
BLACK
6
CONTINUOUS
10
479.151
20
-406.068
11
479.294
21
-405.996
0
LINE
8
BLACK
6
CONTINUOUS
10
479.294
20
-405.996
11
479.651
21
-405.996
0
LINE
8
BLACK
6
CONTINUOUS
10
479.651
20
-405.996
11
479.794
21
-405.925
0
LINE
8
BLACK
6
CONTINUOUS
10
481.151
20
-406.568
11
481.151
21
-405.068
0
LINE
8
BLACK
6
CONTINUOUS
10
481.151
20
-406.496
11
481.008
21
-406.568
0
LINE
8
BLACK
6
CONTINUOUS
10
481.008
20
-406.568
11
480.722
21
-406.568
0
LINE
8
BLACK
6
CONTINUOUS
10
480.722
20
-406.568
11
480.579
21
-406.496
0
LINE
8
BLACK
6
CONTINUOUS
10
480.579
20
-406.496
11
480.508
21
-406.425
0
LINE
8
BLACK
6
CONTINUOUS
10
480.508
20
-406.425
11
480.437
21
-406.282
0
LINE
8
BLACK
6
CONTINUOUS
10
480.437
20
-406.282
11
480.437
21
-405.853
0
LINE
8
BLACK
6
CONTINUOUS
10
480.437
20
-405.853
11
480.508
21
-405.71
0
LINE
8
BLACK
6
CONTINUOUS
10
480.508
20
-405.71
11
480.579
21
-405.639
0
LINE
8
BLACK
6
CONTINUOUS
10
480.579
20
-405.639
11
480.722
21
-405.568
0
LINE
8
BLACK
6
CONTINUOUS
10
480.722
20
-405.568
11
481.008
21
-405.568
0
LINE
8
BLACK
6
CONTINUOUS
10
481.008
20
-405.568
11
481.151
21
-405.639
0
LINE
8
BLACK
6
CONTINUOUS
10
483.008
20
-405.782
11
483.508
21
-405.782
0
LINE
8
BLACK
6
CONTINUOUS
10
483.722
20
-406.568
11
483.008
21
-406.568
0
LINE
8
BLACK
6
CONTINUOUS
10
483.008
20
-406.568
11
483.008
21
-405.068
0
LINE
8
BLACK
6
CONTINUOUS
10
483.008
20
-405.068
11
483.722
21
-405.068
0
LINE
8
BLACK
6
CONTINUOUS
10
484.365
20
-406.425
11
484.437
21
-406.496
0
LINE
8
BLACK
6
CONTINUOUS
10
484.437
20
-406.496
11
484.365
21
-406.568
0
LINE
8
BLACK
6
CONTINUOUS
10
484.365
20
-406.568
11
484.294
21
-406.496
0
LINE
8
BLACK
6
CONTINUOUS
10
484.294
20
-406.496
11
484.365
21
-406.425
0
LINE
8
BLACK
6
CONTINUOUS
10
484.365
20
-406.425
11
484.365
21
-406.568
0
LINE
8
BLACK
6
CONTINUOUS
10
485.079
20
-406.568
11
485.079
21
-405.068
0
LINE
8
BLACK
6
CONTINUOUS
10
485.079
20
-405.068
11
485.437
21
-405.068
0
LINE
8
BLACK
6
CONTINUOUS
10
485.437
20
-405.068
11
485.651
21
-405.139
0
LINE
8
BLACK
6
CONTINUOUS
10
485.651
20
-405.139
11
485.794
21
-405.282
0
LINE
8
BLACK
6
CONTINUOUS
10
485.794
20
-405.282
11
485.865
21
-405.425
0
LINE
8
BLACK
6
CONTINUOUS
10
485.865
20
-405.425
11
485.937
21
-405.71
0
LINE
8
BLACK
6
CONTINUOUS
10
485.937
20
-405.71
11
485.937
21
-405.925
0
LINE
8
BLACK
6
CONTINUOUS
10
485.937
20
-405.925
11
485.865
21
-406.21
0
LINE
8
BLACK
6
CONTINUOUS
10
485.865
20
-406.21
11
485.794
21
-406.353
0
LINE
8
BLACK
6
CONTINUOUS
10
485.794
20
-406.353
11
485.651
21
-406.496
0
LINE
8
BLACK
6
CONTINUOUS
10
485.651
20
-406.496
11
485.437
21
-406.568
0
LINE
8
BLACK
6
CONTINUOUS
10
485.437
20
-406.568
11
485.079
21
-406.568
0
LINE
8
BLACK
6
CONTINUOUS
10
486.579
20
-406.425
11
486.651
21
-406.496
0
LINE
8
BLACK
6
CONTINUOUS
10
486.651
20
-406.496
11
486.579
21
-406.568
0
LINE
8
BLACK
6
CONTINUOUS
10
486.579
20
-406.568
11
486.508
21
-406.496
0
LINE
8
BLACK
6
CONTINUOUS
10
486.508
20
-406.496
11
486.579
21
-406.425
0
LINE
8
BLACK
6
CONTINUOUS
10
486.579
20
-406.425
11
486.579
21
-406.568
0
LINE
8
BLACK
6
CONTINUOUS
10
487.222
20
-406.139
11
487.937
21
-406.139
0
LINE
8
BLACK
6
CONTINUOUS
10
487.079
20
-406.568
11
487.579
21
-405.068
0
LINE
8
BLACK
6
CONTINUOUS
10
487.579
20
-405.068
11
488.079
21
-406.568
0
LINE
8
BLACK
6
CONTINUOUS
10
488.579
20
-406.425
11
488.651
21
-406.496
0
LINE
8
BLACK
6
CONTINUOUS
10
488.651
20
-406.496
11
488.579
21
-406.568
0
LINE
8
BLACK
6
CONTINUOUS
10
488.579
20
-406.568
11
488.508
21
-406.496
0
LINE
8
BLACK
6
CONTINUOUS
10
488.508
20
-406.496
11
488.579
21
-406.425
0
LINE
8
BLACK
6
CONTINUOUS
10
488.579
20
-406.425
11
488.579
21
-406.568
0
LINE
8
BLACK
6
CONTINUOUS
10
491.579
20
-406.568
11
491.579
21
-405.068
0
LINE
8
BLACK
6
CONTINUOUS
10
491.722
20
-405.996
11
492.151
21
-406.568
0
LINE
8
BLACK
6
CONTINUOUS
10
492.151
20
-405.568
11
491.579
21
-406.139
0
LINE
8
BLACK
6
CONTINUOUS
10
492.794
20
-406.568
11
492.794
21
-405.568
0
LINE
8
BLACK
6
CONTINUOUS
10
492.794
20
-405.068
11
492.722
21
-405.139
0
LINE
8
BLACK
6
CONTINUOUS
10
492.722
20
-405.139
11
492.794
21
-405.21
0
LINE
8
BLACK
6
CONTINUOUS
10
492.794
20
-405.21
11
492.865
21
-405.139
0
LINE
8
BLACK
6
CONTINUOUS
10
492.865
20
-405.139
11
492.794
21
-405.068
0
LINE
8
BLACK
6
CONTINUOUS
10
492.794
20
-405.068
11
492.794
21
-405.21
0
LINE
8
BLACK
6
CONTINUOUS
10
494.151
20
-406.496
11
494.008
21
-406.568
0
LINE
8
BLACK
6
CONTINUOUS
10
494.008
20
-406.568
11
493.722
21
-406.568
0
LINE
8
BLACK
6
CONTINUOUS
10
493.722
20
-406.568
11
493.579
21
-406.496
0
LINE
8
BLACK
6
CONTINUOUS
10
493.579
20
-406.496
11
493.508
21
-406.425
0
LINE
8
BLACK
6
CONTINUOUS
10
493.508
20
-406.425
11
493.437
21
-406.282
0
LINE
8
BLACK
6
CONTINUOUS
10
493.437
20
-406.282
11
493.437
21
-405.853
0
LINE
8
BLACK
6
CONTINUOUS
10
493.437
20
-405.853
11
493.508
21
-405.71
0
LINE
8
BLACK
6
CONTINUOUS
10
493.508
20
-405.71
11
493.579
21
-405.639
0
LINE
8
BLACK
6
CONTINUOUS
10
493.579
20
-405.639
11
493.722
21
-405.568
0
LINE
8
BLACK
6
CONTINUOUS
10
493.722
20
-405.568
11
494.008
21
-405.568
0
LINE
8
BLACK
6
CONTINUOUS
10
494.008
20
-405.568
11
494.151
21
-405.639
0
LINE
8
BLACK
6
CONTINUOUS
10
495.437
20
-406.568
11
495.437
21
-405.782
0
LINE
8
BLACK
6
CONTINUOUS
10
495.437
20
-405.782
11
495.365
21
-405.639
0
LINE
8
BLACK
6
CONTINUOUS
10
495.365
20
-405.639
11
495.222
21
-405.568
0
LINE
8
BLACK
6
CONTINUOUS
10
495.222
20
-405.568
11
494.937
21
-405.568
0
LINE
8
BLACK
6
CONTINUOUS
10
494.937
20
-405.568
11
494.794
21
-405.639
0
LINE
8
BLACK
6
CONTINUOUS
10
495.437
20
-406.496
11
495.294
21
-406.568
0
LINE
8
BLACK
6
CONTINUOUS
10
495.294
20
-406.568
11
494.937
21
-406.568
0
LINE
8
BLACK
6
CONTINUOUS
10
494.937
20
-406.568
11
494.794
21
-406.496
0
LINE
8
BLACK
6
CONTINUOUS
10
494.794
20
-406.496
11
494.722
21
-406.353
0
LINE
8
BLACK
6
CONTINUOUS
10
494.722
20
-406.353
11
494.722
21
-406.21
0
LINE
8
BLACK
6
CONTINUOUS
10
494.722
20
-406.21
11
494.794
21
-406.068
0
LINE
8
BLACK
6
CONTINUOUS
10
494.794
20
-406.068
11
494.937
21
-405.996
0
LINE
8
BLACK
6
CONTINUOUS
10
494.937
20
-405.996
11
495.294
21
-405.996
0
LINE
8
BLACK
6
CONTINUOUS
10
495.294
20
-405.996
11
495.437
21
-405.925
0
LINE
8
BLACK
6
CONTINUOUS
10
496.794
20
-406.568
11
496.794
21
-405.068
0
LINE
8
BLACK
6
CONTINUOUS
10
496.794
20
-406.496
11
496.651
21
-406.568
0
LINE
8
BLACK
6
CONTINUOUS
10
496.651
20
-406.568
11
496.365
21
-406.568
0
LINE
8
BLACK
6
CONTINUOUS
10
496.365
20
-406.568
11
496.222
21
-406.496
0
LINE
8
BLACK
6
CONTINUOUS
10
496.222
20
-406.496
11
496.151
21
-406.425
0
LINE
8
BLACK
6
CONTINUOUS
10
496.151
20
-406.425
11
496.079
21
-406.282
0
LINE
8
BLACK
6
CONTINUOUS
10
496.079
20
-406.282
11
496.079
21
-405.853
0
LINE
8
BLACK
6
CONTINUOUS
10
496.079
20
-405.853
11
496.151
21
-405.71
0
LINE
8
BLACK
6
CONTINUOUS
10
496.151
20
-405.71
11
496.222
21
-405.639
0
LINE
8
BLACK
6
CONTINUOUS
10
496.222
20
-405.639
11
496.365
21
-405.568
0
LINE
8
BLACK
6
CONTINUOUS
10
496.365
20
-405.568
11
496.651
21
-405.568
0
LINE
8
BLACK
6
CONTINUOUS
10
496.651
20
-405.568
11
496.794
21
-405.639
0
LINE
8
BLACK
6
CONTINUOUS
10
499.365
20
-405.068
11
498.651
21
-405.068
0
LINE
8
BLACK
6
CONTINUOUS
10
498.651
20
-405.068
11
498.579
21
-405.782
0
LINE
8
BLACK
6
CONTINUOUS
10
498.579
20
-405.782
11
498.651
21
-405.71
0
LINE
8
BLACK
6
CONTINUOUS
10
498.651
20
-405.71
11
498.794
21
-405.639
0
LINE
8
BLACK
6
CONTINUOUS
10
498.794
20
-405.639
11
499.151
21
-405.639
0
LINE
8
BLACK
6
CONTINUOUS
10
499.151
20
-405.639
11
499.294
21
-405.71
0
LINE
8
BLACK
6
CONTINUOUS
10
499.294
20
-405.71
11
499.365
21
-405.782
0
LINE
8
BLACK
6
CONTINUOUS
10
499.365
20
-405.782
11
499.437
21
-405.925
0
LINE
8
BLACK
6
CONTINUOUS
10
499.437
20
-405.925
11
499.437
21
-406.282
0
LINE
8
BLACK
6
CONTINUOUS
10
499.437
20
-406.282
11
499.365
21
-406.425
0
LINE
8
BLACK
6
CONTINUOUS
10
499.365
20
-406.425
11
499.294
21
-406.496
0
LINE
8
BLACK
6
CONTINUOUS
10
499.294
20
-406.496
11
499.151
21
-406.568
0
LINE
8
BLACK
6
CONTINUOUS
10
499.151
20
-406.568
11
498.794
21
-406.568
0
LINE
8
BLACK
6
CONTINUOUS
10
498.794
20
-406.568
11
498.651
21
-406.496
0
LINE
8
BLACK
6
CONTINUOUS
10
498.651
20
-406.496
11
498.579
21
-406.425
0
LINE
8
BLACK
6
CONTINUOUS
10
500.079
20
-406.425
11
500.151
21
-406.496
0
LINE
8
BLACK
6
CONTINUOUS
10
500.151
20
-406.496
11
500.079
21
-406.568
0
LINE
8
BLACK
6
CONTINUOUS
10
500.079
20
-406.568
11
500.008
21
-406.496
0
LINE
8
BLACK
6
CONTINUOUS
10
500.008
20
-406.496
11
500.079
21
-406.425
0
LINE
8
BLACK
6
CONTINUOUS
10
500.079
20
-406.425
11
500.079
21
-406.568
0
LINE
8
BLACK
6
CONTINUOUS
10
500.865
20
-406.568
11
501.151
21
-406.568
0
LINE
8
BLACK
6
CONTINUOUS
10
501.151
20
-406.568
11
501.294
21
-406.496
0
LINE
8
BLACK
6
CONTINUOUS
10
501.294
20
-406.496
11
501.365
21
-406.425
0
LINE
8
BLACK
6
CONTINUOUS
10
501.365
20
-406.425
11
501.508
21
-406.21
0
LINE
8
BLACK
6
CONTINUOUS
10
501.508
20
-406.21
11
501.579
21
-405.925
0
LINE
8
BLACK
6
CONTINUOUS
10
501.579
20
-405.925
11
501.579
21
-405.353
0
LINE
8
BLACK
6
CONTINUOUS
10
501.579
20
-405.353
11
501.508
21
-405.21
0
LINE
8
BLACK
6
CONTINUOUS
10
501.508
20
-405.21
11
501.437
21
-405.139
0
LINE
8
BLACK
6
CONTINUOUS
10
501.437
20
-405.139
11
501.294
21
-405.068
0
LINE
8
BLACK
6
CONTINUOUS
10
501.294
20
-405.068
11
501.008
21
-405.068
0
LINE
8
BLACK
6
CONTINUOUS
10
501.008
20
-405.068
11
500.865
21
-405.139
0
LINE
8
BLACK
6
CONTINUOUS
10
500.865
20
-405.139
11
500.794
21
-405.21
0
LINE
8
BLACK
6
CONTINUOUS
10
500.794
20
-405.21
11
500.722
21
-405.353
0
LINE
8
BLACK
6
CONTINUOUS
10
500.722
20
-405.353
11
500.722
21
-405.71
0
LINE
8
BLACK
6
CONTINUOUS
10
500.722
20
-405.71
11
500.794
21
-405.853
0
LINE
8
BLACK
6
CONTINUOUS
10
500.794
20
-405.853
11
500.865
21
-405.925
0
LINE
8
BLACK
6
CONTINUOUS
10
500.865
20
-405.925
11
501.008
21
-405.996
0
LINE
8
BLACK
6
CONTINUOUS
10
501.008
20
-405.996
11
501.294
21
-405.996
0
LINE
8
BLACK
6
CONTINUOUS
10
501.294
20
-405.996
11
501.437
21
-405.925
0
LINE
8
BLACK
6
CONTINUOUS
10
501.437
20
-405.925
11
501.508
21
-405.853
0
LINE
8
BLACK
6
CONTINUOUS
10
501.508
20
-405.853
11
501.579
21
-405.71
0
LINE
8
BLACK
6
CONTINUOUS
10
502.294
20
-406.568
11
502.579
21
-406.568
0
LINE
8
BLACK
6
CONTINUOUS
10
502.579
20
-406.568
11
502.722
21
-406.496
0
LINE
8
BLACK
6
CONTINUOUS
10
502.722
20
-406.496
11
502.794
21
-406.425
0
LINE
8
BLACK
6
CONTINUOUS
10
502.794
20
-406.425
11
502.937
21
-406.21
0
LINE
8
BLACK
6
CONTINUOUS
10
502.937
20
-406.21
11
503.008
21
-405.925
0
LINE
8
BLACK
6
CONTINUOUS
10
503.008
20
-405.925
11
503.008
21
-405.353
0
LINE
8
BLACK
6
CONTINUOUS
10
503.008
20
-405.353
11
502.937
21
-405.21
0
LINE
8
BLACK
6
CONTINUOUS
10
502.937
20
-405.21
11
502.865
21
-405.139
0
LINE
8
BLACK
6
CONTINUOUS
10
502.865
20
-405.139
11
502.722
21
-405.068
0
LINE
8
BLACK
6
CONTINUOUS
10
502.722
20
-405.068
11
502.437
21
-405.068
0
LINE
8
BLACK
6
CONTINUOUS
10
502.437
20
-405.068
11
502.294
21
-405.139
0
LINE
8
BLACK
6
CONTINUOUS
10
502.294
20
-405.139
11
502.222
21
-405.21
0
LINE
8
BLACK
6
CONTINUOUS
10
502.222
20
-405.21
11
502.151
21
-405.353
0
LINE
8
BLACK
6
CONTINUOUS
10
502.151
20
-405.353
11
502.151
21
-405.71
0
LINE
8
BLACK
6
CONTINUOUS
10
502.151
20
-405.71
11
502.222
21
-405.853
0
LINE
8
BLACK
6
CONTINUOUS
10
502.222
20
-405.853
11
502.294
21
-405.925
0
LINE
8
BLACK
6
CONTINUOUS
10
502.294
20
-405.925
11
502.437
21
-405.996
0
LINE
8
BLACK
6
CONTINUOUS
10
502.437
20
-405.996
11
502.722
21
-405.996
0
LINE
8
BLACK
6
CONTINUOUS
10
502.722
20
-405.996
11
502.865
21
-405.925
0
LINE
8
BLACK
6
CONTINUOUS
10
502.865
20
-405.925
11
502.937
21
-405.853
0
LINE
8
BLACK
6
CONTINUOUS
10
502.937
20
-405.853
11
503.008
21
-405.71
0
LINE
8
BLACK
6
CONTINUOUS
10
503.651
20
-406.425
11
503.722
21
-406.496
0
LINE
8
BLACK
6
CONTINUOUS
10
503.722
20
-406.496
11
503.651
21
-406.568
0
LINE
8
BLACK
6
CONTINUOUS
10
503.651
20
-406.568
11
503.579
21
-406.496
0
LINE
8
BLACK
6
CONTINUOUS
10
503.579
20
-406.496
11
503.651
21
-406.425
0
LINE
8
BLACK
6
CONTINUOUS
10
503.651
20
-406.425
11
503.651
21
-406.568
0
LINE
8
BLACK
6
CONTINUOUS
10
504.651
20
-405.068
11
504.794
21
-405.068
0
LINE
8
BLACK
6
CONTINUOUS
10
504.794
20
-405.068
11
504.937
21
-405.139
0
LINE
8
BLACK
6
CONTINUOUS
10
504.937
20
-405.139
11
505.008
21
-405.21
0
LINE
8
BLACK
6
CONTINUOUS
10
505.008
20
-405.21
11
505.079
21
-405.353
0
LINE
8
BLACK
6
CONTINUOUS
10
505.079
20
-405.353
11
505.151
21
-405.639
0
LINE
8
BLACK
6
CONTINUOUS
10
505.151
20
-405.639
11
505.151
21
-405.996
0
LINE
8
BLACK
6
CONTINUOUS
10
505.151
20
-405.996
11
505.079
21
-406.282
0
LINE
8
BLACK
6
CONTINUOUS
10
505.079
20
-406.282
11
505.008
21
-406.425
0
LINE
8
BLACK
6
CONTINUOUS
10
505.008
20
-406.425
11
504.937
21
-406.496
0
LINE
8
BLACK
6
CONTINUOUS
10
504.937
20
-406.496
11
504.794
21
-406.568
0
LINE
8
BLACK
6
CONTINUOUS
10
504.794
20
-406.568
11
504.651
21
-406.568
0
LINE
8
BLACK
6
CONTINUOUS
10
504.651
20
-406.568
11
504.508
21
-406.496
0
LINE
8
BLACK
6
CONTINUOUS
10
504.508
20
-406.496
11
504.437
21
-406.425
0
LINE
8
BLACK
6
CONTINUOUS
10
504.437
20
-406.425
11
504.365
21
-406.282
0
LINE
8
BLACK
6
CONTINUOUS
10
504.365
20
-406.282
11
504.294
21
-405.996
0
LINE
8
BLACK
6
CONTINUOUS
10
504.294
20
-405.996
11
504.294
21
-405.639
0
LINE
8
BLACK
6
CONTINUOUS
10
504.294
20
-405.639
11
504.365
21
-405.353
0
LINE
8
BLACK
6
CONTINUOUS
10
504.365
20
-405.353
11
504.437
21
-405.21
0
LINE
8
BLACK
6
CONTINUOUS
10
504.437
20
-405.21
11
504.508
21
-405.139
0
LINE
8
BLACK
6
CONTINUOUS
10
504.508
20
-405.139
11
504.651
21
-405.068
0
LINE
8
BLACK
6
CONTINUOUS
10
505.794
20
-405.996
11
506.937
21
-405.996
0
LINE
8
BLACK
6
CONTINUOUS
10
508.294
20
-405.568
11
508.294
21
-406.568
0
LINE
8
BLACK
6
CONTINUOUS
10
507.651
20
-405.568
11
507.651
21
-406.353
0
LINE
8
BLACK
6
CONTINUOUS
10
507.651
20
-406.353
11
507.722
21
-406.496
0
LINE
8
BLACK
6
CONTINUOUS
10
507.722
20
-406.496
11
507.865
21
-406.568
0
LINE
8
BLACK
6
CONTINUOUS
10
507.865
20
-406.568
11
508.079
21
-406.568
0
LINE
8
BLACK
6
CONTINUOUS
10
508.079
20
-406.568
11
508.222
21
-406.496
0
LINE
8
BLACK
6
CONTINUOUS
10
508.222
20
-406.496
11
508.294
21
-406.425
0
LINE
8
BLACK
6
CONTINUOUS
10
509.008
20
-405.568
11
509.008
21
-406.568
0
LINE
8
BLACK
6
CONTINUOUS
10
509.008
20
-405.71
11
509.079
21
-405.639
0
LINE
8
BLACK
6
CONTINUOUS
10
509.079
20
-405.639
11
509.222
21
-405.568
0
LINE
8
BLACK
6
CONTINUOUS
10
509.222
20
-405.568
11
509.437
21
-405.568
0
LINE
8
BLACK
6
CONTINUOUS
10
509.437
20
-405.568
11
509.579
21
-405.639
0
LINE
8
BLACK
6
CONTINUOUS
10
509.579
20
-405.639
11
509.651
21
-405.782
0
LINE
8
BLACK
6
CONTINUOUS
10
509.651
20
-405.782
11
509.651
21
-406.568
0
LINE
8
BLACK
6
CONTINUOUS
10
510.365
20
-406.568
11
510.365
21
-405.068
0
LINE
8
BLACK
6
CONTINUOUS
10
510.508
20
-405.996
11
510.937
21
-406.568
0
LINE
8
BLACK
6
CONTINUOUS
10
510.937
20
-405.568
11
510.365
21
-406.139
0
LINE
8
BLACK
6
CONTINUOUS
10
511.579
20
-405.568
11
511.579
21
-406.568
0
LINE
8
BLACK
6
CONTINUOUS
10
511.579
20
-405.71
11
511.651
21
-405.639
0
LINE
8
BLACK
6
CONTINUOUS
10
511.651
20
-405.639
11
511.794
21
-405.568
0
LINE
8
BLACK
6
CONTINUOUS
10
511.794
20
-405.568
11
512.008
21
-405.568
0
LINE
8
BLACK
6
CONTINUOUS
10
512.008
20
-405.568
11
512.151
21
-405.639
0
LINE
8
BLACK
6
CONTINUOUS
10
512.151
20
-405.639
11
512.222
21
-405.782
0
LINE
8
BLACK
6
CONTINUOUS
10
512.222
20
-405.782
11
512.222
21
-406.568
0
LINE
8
BLACK
6
CONTINUOUS
10
513.151
20
-406.568
11
513.008
21
-406.496
0
LINE
8
BLACK
6
CONTINUOUS
10
513.008
20
-406.496
11
512.937
21
-406.425
0
LINE
8
BLACK
6
CONTINUOUS
10
512.937
20
-406.425
11
512.865
21
-406.282
0
LINE
8
BLACK
6
CONTINUOUS
10
512.865
20
-406.282
11
512.865
21
-405.853
0
LINE
8
BLACK
6
CONTINUOUS
10
512.865
20
-405.853
11
512.937
21
-405.71
0
LINE
8
BLACK
6
CONTINUOUS
10
512.937
20
-405.71
11
513.008
21
-405.639
0
LINE
8
BLACK
6
CONTINUOUS
10
513.008
20
-405.639
11
513.151
21
-405.568
0
LINE
8
BLACK
6
CONTINUOUS
10
513.151
20
-405.568
11
513.365
21
-405.568
0
LINE
8
BLACK
6
CONTINUOUS
10
513.365
20
-405.568
11
513.508
21
-405.639
0
LINE
8
BLACK
6
CONTINUOUS
10
513.508
20
-405.639
11
513.579
21
-405.71
0
LINE
8
BLACK
6
CONTINUOUS
10
513.579
20
-405.71
11
513.651
21
-405.853
0
LINE
8
BLACK
6
CONTINUOUS
10
513.651
20
-405.853
11
513.651
21
-406.282
0
LINE
8
BLACK
6
CONTINUOUS
10
513.651
20
-406.282
11
513.579
21
-406.425
0
LINE
8
BLACK
6
CONTINUOUS
10
513.579
20
-406.425
11
513.508
21
-406.496
0
LINE
8
BLACK
6
CONTINUOUS
10
513.508
20
-406.496
11
513.365
21
-406.568
0
LINE
8
BLACK
6
CONTINUOUS
10
513.365
20
-406.568
11
513.151
21
-406.568
0
LINE
8
BLACK
6
CONTINUOUS
10
514.151
20
-405.568
11
514.437
21
-406.568
0
LINE
8
BLACK
6
CONTINUOUS
10
514.437
20
-406.568
11
514.722
21
-405.853
0
LINE
8
BLACK
6
CONTINUOUS
10
514.722
20
-405.853
11
515.008
21
-406.568
0
LINE
8
BLACK
6
CONTINUOUS
10
515.008
20
-406.568
11
515.294
21
-405.568
0
LINE
8
BLACK
6
CONTINUOUS
10
515.865
20
-405.568
11
515.865
21
-406.568
0
LINE
8
BLACK
6
CONTINUOUS
10
515.865
20
-405.71
11
515.937
21
-405.639
0
LINE
8
BLACK
6
CONTINUOUS
10
515.937
20
-405.639
11
516.079
21
-405.568
0
LINE
8
BLACK
6
CONTINUOUS
10
516.079
20
-405.568
11
516.294
21
-405.568
0
LINE
8
BLACK
6
CONTINUOUS
10
516.294
20
-405.568
11
516.437
21
-405.639
0
LINE
8
BLACK
6
CONTINUOUS
10
516.437
20
-405.639
11
516.508
21
-405.782
0
LINE
8
BLACK
6
CONTINUOUS
10
516.508
20
-405.782
11
516.508
21
-406.568
0
LINE
8
BLACK
6
CONTINUOUS
10
517.222
20
-405.996
11
518.365
21
-405.996
0
LINE
8
BLACK
6
CONTINUOUS
10
519.151
20
-406.568
11
519.437
21
-406.568
0
LINE
8
BLACK
6
CONTINUOUS
10
519.437
20
-406.568
11
519.579
21
-406.496
0
LINE
8
BLACK
6
CONTINUOUS
10
519.579
20
-406.496
11
519.651
21
-406.425
0
LINE
8
BLACK
6
CONTINUOUS
10
519.651
20
-406.425
11
519.794
21
-406.21
0
LINE
8
BLACK
6
CONTINUOUS
10
519.794
20
-406.21
11
519.865
21
-405.925
0
LINE
8
BLACK
6
CONTINUOUS
10
519.865
20
-405.925
11
519.865
21
-405.353
0
LINE
8
BLACK
6
CONTINUOUS
10
519.865
20
-405.353
11
519.794
21
-405.21
0
LINE
8
BLACK
6
CONTINUOUS
10
519.794
20
-405.21
11
519.722
21
-405.139
0
LINE
8
BLACK
6
CONTINUOUS
10
519.722
20
-405.139
11
519.579
21
-405.068
0
LINE
8
BLACK
6
CONTINUOUS
10
519.579
20
-405.068
11
519.294
21
-405.068
0
LINE
8
BLACK
6
CONTINUOUS
10
519.294
20
-405.068
11
519.151
21
-405.139
0
LINE
8
BLACK
6
CONTINUOUS
10
519.151
20
-405.139
11
519.079
21
-405.21
0
LINE
8
BLACK
6
CONTINUOUS
10
519.079
20
-405.21
11
519.008
21
-405.353
0
LINE
8
BLACK
6
CONTINUOUS
10
519.008
20
-405.353
11
519.008
21
-405.71
0
LINE
8
BLACK
6
CONTINUOUS
10
519.008
20
-405.71
11
519.079
21
-405.853
0
LINE
8
BLACK
6
CONTINUOUS
10
519.079
20
-405.853
11
519.151
21
-405.925
0
LINE
8
BLACK
6
CONTINUOUS
10
519.151
20
-405.925
11
519.294
21
-405.996
0
LINE
8
BLACK
6
CONTINUOUS
10
519.294
20
-405.996
11
519.579
21
-405.996
0
LINE
8
BLACK
6
CONTINUOUS
10
519.579
20
-405.996
11
519.722
21
-405.925
0
LINE
8
BLACK
6
CONTINUOUS
10
519.722
20
-405.925
11
519.794
21
-405.853
0
LINE
8
BLACK
6
CONTINUOUS
10
519.794
20
-405.853
11
519.865
21
-405.71
0
LINE
8
BLACK
6
CONTINUOUS
10
520.508
20
-406.568
11
520.508
21
-405.068
0
LINE
8
BLACK
6
CONTINUOUS
10
520.508
20
-405.639
11
520.651
21
-405.568
0
LINE
8
BLACK
6
CONTINUOUS
10
520.651
20
-405.568
11
520.937
21
-405.568
0
LINE
8
BLACK
6
CONTINUOUS
10
520.937
20
-405.568
11
521.079
21
-405.639
0
LINE
8
BLACK
6
CONTINUOUS
10
521.079
20
-405.639
11
521.151
21
-405.71
0
LINE
8
BLACK
6
CONTINUOUS
10
521.151
20
-405.71
11
521.222
21
-405.853
0
LINE
8
BLACK
6
CONTINUOUS
10
521.222
20
-405.853
11
521.222
21
-406.282
0
LINE
8
BLACK
6
CONTINUOUS
10
521.222
20
-406.282
11
521.151
21
-406.425
0
LINE
8
BLACK
6
CONTINUOUS
10
521.151
20
-406.425
11
521.079
21
-406.496
0
LINE
8
BLACK
6
CONTINUOUS
10
521.079
20
-406.496
11
520.937
21
-406.568
0
LINE
8
BLACK
6
CONTINUOUS
10
520.937
20
-406.568
11
520.651
21
-406.568
0
LINE
8
BLACK
6
CONTINUOUS
10
520.651
20
-406.568
11
520.508
21
-406.496
0
LINE
8
BLACK
6
CONTINUOUS
10
522.651
20
-406.568
11
521.794
21
-406.568
0
LINE
8
BLACK
6
CONTINUOUS
10
522.222
20
-406.568
11
522.222
21
-405.068
0
LINE
8
BLACK
6
CONTINUOUS
10
522.222
20
-405.068
11
522.079
21
-405.282
0
LINE
8
BLACK
6
CONTINUOUS
10
522.079
20
-405.282
11
521.937
21
-405.425
0
LINE
8
BLACK
6
CONTINUOUS
10
521.937
20
-405.425
11
521.794
21
-405.496
0
LINE
8
BLACK
6
CONTINUOUS
10
523.508
20
-405.71
11
523.365
21
-405.639
0
LINE
8
BLACK
6
CONTINUOUS
10
523.365
20
-405.639
11
523.294
21
-405.568
0
LINE
8
BLACK
6
CONTINUOUS
10
523.294
20
-405.568
11
523.222
21
-405.425
0
LINE
8
BLACK
6
CONTINUOUS
10
523.222
20
-405.425
11
523.222
21
-405.353
0
LINE
8
BLACK
6
CONTINUOUS
10
523.222
20
-405.353
11
523.294
21
-405.21
0
LINE
8
BLACK
6
CONTINUOUS
10
523.294
20
-405.21
11
523.365
21
-405.139
0
LINE
8
BLACK
6
CONTINUOUS
10
523.365
20
-405.139
11
523.508
21
-405.068
0
LINE
8
BLACK
6
CONTINUOUS
10
523.508
20
-405.068
11
523.794
21
-405.068
0
LINE
8
BLACK
6
CONTINUOUS
10
523.794
20
-405.068
11
523.937
21
-405.139
0
LINE
8
BLACK
6
CONTINUOUS
10
523.937
20
-405.139
11
524.008
21
-405.21
0
LINE
8
BLACK
6
CONTINUOUS
10
524.008
20
-405.21
11
524.079
21
-405.353
0
LINE
8
BLACK
6
CONTINUOUS
10
524.079
20
-405.353
11
524.079
21
-405.425
0
LINE
8
BLACK
6
CONTINUOUS
10
524.079
20
-405.425
11
524.008
21
-405.568
0
LINE
8
BLACK
6
CONTINUOUS
10
524.008
20
-405.568
11
523.937
21
-405.639
0
LINE
8
BLACK
6
CONTINUOUS
10
523.937
20
-405.639
11
523.794
21
-405.71
0
LINE
8
BLACK
6
CONTINUOUS
10
523.794
20
-405.71
11
523.508
21
-405.71
0
LINE
8
BLACK
6
CONTINUOUS
10
523.508
20
-405.71
11
523.365
21
-405.782
0
LINE
8
BLACK
6
CONTINUOUS
10
523.365
20
-405.782
11
523.294
21
-405.853
0
LINE
8
BLACK
6
CONTINUOUS
10
523.294
20
-405.853
11
523.222
21
-405.996
0
LINE
8
BLACK
6
CONTINUOUS
10
523.222
20
-405.996
11
523.222
21
-406.282
0
LINE
8
BLACK
6
CONTINUOUS
10
523.222
20
-406.282
11
523.294
21
-406.425
0
LINE
8
BLACK
6
CONTINUOUS
10
523.294
20
-406.425
11
523.365
21
-406.496
0
LINE
8
BLACK
6
CONTINUOUS
10
523.365
20
-406.496
11
523.508
21
-406.568
0
LINE
8
BLACK
6
CONTINUOUS
10
523.508
20
-406.568
11
523.794
21
-406.568
0
LINE
8
BLACK
6
CONTINUOUS
10
523.794
20
-406.568
11
523.937
21
-406.496
0
LINE
8
BLACK
6
CONTINUOUS
10
523.937
20
-406.496
11
524.008
21
-406.425
0
LINE
8
BLACK
6
CONTINUOUS
10
524.008
20
-406.425
11
524.079
21
-406.282
0
LINE
8
BLACK
6
CONTINUOUS
10
524.079
20
-406.282
11
524.079
21
-405.996
0
LINE
8
BLACK
6
CONTINUOUS
10
524.079
20
-405.996
11
524.008
21
-405.853
0
LINE
8
BLACK
6
CONTINUOUS
10
524.008
20
-405.853
11
523.937
21
-405.782
0
LINE
8
BLACK
6
CONTINUOUS
10
523.937
20
-405.782
11
523.794
21
-405.71
0
LINE
8
BLACK
6
CONTINUOUS
10
524.794
20
-406.568
11
525.079
21
-406.568
0
LINE
8
BLACK
6
CONTINUOUS
10
525.079
20
-406.568
11
525.222
21
-406.496
0
LINE
8
BLACK
6
CONTINUOUS
10
525.222
20
-406.496
11
525.294
21
-406.425
0
LINE
8
BLACK
6
CONTINUOUS
10
525.294
20
-406.425
11
525.437
21
-406.21
0
LINE
8
BLACK
6
CONTINUOUS
10
525.437
20
-406.21
11
525.508
21
-405.925
0
LINE
8
BLACK
6
CONTINUOUS
10
525.508
20
-405.925
11
525.508
21
-405.353
0
LINE
8
BLACK
6
CONTINUOUS
10
525.508
20
-405.353
11
525.437
21
-405.21
0
LINE
8
BLACK
6
CONTINUOUS
10
525.437
20
-405.21
11
525.365
21
-405.139
0
LINE
8
BLACK
6
CONTINUOUS
10
525.365
20
-405.139
11
525.222
21
-405.068
0
LINE
8
BLACK
6
CONTINUOUS
10
525.222
20
-405.068
11
524.937
21
-405.068
0
LINE
8
BLACK
6
CONTINUOUS
10
524.937
20
-405.068
11
524.794
21
-405.139
0
LINE
8
BLACK
6
CONTINUOUS
10
524.794
20
-405.139
11
524.722
21
-405.21
0
LINE
8
BLACK
6
CONTINUOUS
10
524.722
20
-405.21
11
524.651
21
-405.353
0
LINE
8
BLACK
6
CONTINUOUS
10
524.651
20
-405.353
11
524.651
21
-405.71
0
LINE
8
BLACK
6
CONTINUOUS
10
524.651
20
-405.71
11
524.722
21
-405.853
0
LINE
8
BLACK
6
CONTINUOUS
10
524.722
20
-405.853
11
524.794
21
-405.925
0
LINE
8
BLACK
6
CONTINUOUS
10
524.794
20
-405.925
11
524.937
21
-405.996
0
LINE
8
BLACK
6
CONTINUOUS
10
524.937
20
-405.996
11
525.222
21
-405.996
0
LINE
8
BLACK
6
CONTINUOUS
10
525.222
20
-405.996
11
525.365
21
-405.925
0
LINE
8
BLACK
6
CONTINUOUS
10
525.365
20
-405.925
11
525.437
21
-405.853
0
LINE
8
BLACK
6
CONTINUOUS
10
525.437
20
-405.853
11
525.508
21
-405.71
0
LINE
8
BLACK
6
CONTINUOUS
10
526.437
20
-405.068
11
526.579
21
-405.068
0
LINE
8
BLACK
6
CONTINUOUS
10
526.579
20
-405.068
11
526.722
21
-405.139
0
LINE
8
BLACK
6
CONTINUOUS
10
526.722
20
-405.139
11
526.794
21
-405.21
0
LINE
8
BLACK
6
CONTINUOUS
10
526.794
20
-405.21
11
526.865
21
-405.353
0
LINE
8
BLACK
6
CONTINUOUS
10
526.865
20
-405.353
11
526.937
21
-405.639
0
LINE
8
BLACK
6
CONTINUOUS
10
526.937
20
-405.639
11
526.937
21
-405.996
0
LINE
8
BLACK
6
CONTINUOUS
10
526.937
20
-405.996
11
526.865
21
-406.282
0
LINE
8
BLACK
6
CONTINUOUS
10
526.865
20
-406.282
11
526.794
21
-406.425
0
LINE
8
BLACK
6
CONTINUOUS
10
526.794
20
-406.425
11
526.722
21
-406.496
0
LINE
8
BLACK
6
CONTINUOUS
10
526.722
20
-406.496
11
526.579
21
-406.568
0
LINE
8
BLACK
6
CONTINUOUS
10
526.579
20
-406.568
11
526.437
21
-406.568
0
LINE
8
BLACK
6
CONTINUOUS
10
526.437
20
-406.568
11
526.294
21
-406.496
0
LINE
8
BLACK
6
CONTINUOUS
10
526.294
20
-406.496
11
526.222
21
-406.425
0
LINE
8
BLACK
6
CONTINUOUS
10
526.222
20
-406.425
11
526.151
21
-406.282
0
LINE
8
BLACK
6
CONTINUOUS
10
526.151
20
-406.282
11
526.079
21
-405.996
0
LINE
8
BLACK
6
CONTINUOUS
10
526.079
20
-405.996
11
526.079
21
-405.639
0
LINE
8
BLACK
6
CONTINUOUS
10
526.079
20
-405.639
11
526.151
21
-405.353
0
LINE
8
BLACK
6
CONTINUOUS
10
526.151
20
-405.353
11
526.222
21
-405.21
0
LINE
8
BLACK
6
CONTINUOUS
10
526.222
20
-405.21
11
526.294
21
-405.139
0
LINE
8
BLACK
6
CONTINUOUS
10
526.294
20
-405.139
11
526.437
21
-405.068
0
LINE
8
BLACK
6
CONTINUOUS
10
528.222
20
-405.068
11
527.937
21
-405.068
0
LINE
8
BLACK
6
CONTINUOUS
10
527.937
20
-405.068
11
527.794
21
-405.139
0
LINE
8
BLACK
6
CONTINUOUS
10
527.794
20
-405.139
11
527.722
21
-405.21
0
LINE
8
BLACK
6
CONTINUOUS
10
527.722
20
-405.21
11
527.579
21
-405.425
0
LINE
8
BLACK
6
CONTINUOUS
10
527.579
20
-405.425
11
527.508
21
-405.71
0
LINE
8
BLACK
6
CONTINUOUS
10
527.508
20
-405.71
11
527.508
21
-406.282
0
LINE
8
BLACK
6
CONTINUOUS
10
527.508
20
-406.282
11
527.579
21
-406.425
0
LINE
8
BLACK
6
CONTINUOUS
10
527.579
20
-406.425
11
527.651
21
-406.496
0
LINE
8
BLACK
6
CONTINUOUS
10
527.651
20
-406.496
11
527.794
21
-406.568
0
LINE
8
BLACK
6
CONTINUOUS
10
527.794
20
-406.568
11
528.079
21
-406.568
0
LINE
8
BLACK
6
CONTINUOUS
10
528.079
20
-406.568
11
528.222
21
-406.496
0
LINE
8
BLACK
6
CONTINUOUS
10
528.222
20
-406.496
11
528.294
21
-406.425
0
LINE
8
BLACK
6
CONTINUOUS
10
528.294
20
-406.425
11
528.365
21
-406.282
0
LINE
8
BLACK
6
CONTINUOUS
10
528.365
20
-406.282
11
528.365
21
-405.925
0
LINE
8
BLACK
6
CONTINUOUS
10
528.365
20
-405.925
11
528.294
21
-405.782
0
LINE
8
BLACK
6
CONTINUOUS
10
528.294
20
-405.782
11
528.222
21
-405.71
0
LINE
8
BLACK
6
CONTINUOUS
10
528.222
20
-405.71
11
528.079
21
-405.639
0
LINE
8
BLACK
6
CONTINUOUS
10
528.079
20
-405.639
11
527.794
21
-405.639
0
LINE
8
BLACK
6
CONTINUOUS
10
527.794
20
-405.639
11
527.651
21
-405.71
0
LINE
8
BLACK
6
CONTINUOUS
10
527.651
20
-405.71
11
527.579
21
-405.782
0
LINE
8
BLACK
6
CONTINUOUS
10
527.579
20
-405.782
11
527.508
21
-405.925
0
LINE
8
BLACK
6
CONTINUOUS
10
529.294
20
-405.068
11
529.437
21
-405.068
0
LINE
8
BLACK
6
CONTINUOUS
10
529.437
20
-405.068
11
529.579
21
-405.139
0
LINE
8
BLACK
6
CONTINUOUS
10
529.579
20
-405.139
11
529.651
21
-405.21
0
LINE
8
BLACK
6
CONTINUOUS
10
529.651
20
-405.21
11
529.722
21
-405.353
0
LINE
8
BLACK
6
CONTINUOUS
10
529.722
20
-405.353
11
529.794
21
-405.639
0
LINE
8
BLACK
6
CONTINUOUS
10
529.794
20
-405.639
11
529.794
21
-405.996
0
LINE
8
BLACK
6
CONTINUOUS
10
529.794
20
-405.996
11
529.722
21
-406.282
0
LINE
8
BLACK
6
CONTINUOUS
10
529.722
20
-406.282
11
529.651
21
-406.425
0
LINE
8
BLACK
6
CONTINUOUS
10
529.651
20
-406.425
11
529.579
21
-406.496
0
LINE
8
BLACK
6
CONTINUOUS
10
529.579
20
-406.496
11
529.437
21
-406.568
0
LINE
8
BLACK
6
CONTINUOUS
10
529.437
20
-406.568
11
529.294
21
-406.568
0
LINE
8
BLACK
6
CONTINUOUS
10
529.294
20
-406.568
11
529.151
21
-406.496
0
LINE
8
BLACK
6
CONTINUOUS
10
529.151
20
-406.496
11
529.079
21
-406.425
0
LINE
8
BLACK
6
CONTINUOUS
10
529.079
20
-406.425
11
529.008
21
-406.282
0
LINE
8
BLACK
6
CONTINUOUS
10
529.008
20
-406.282
11
528.937
21
-405.996
0
LINE
8
BLACK
6
CONTINUOUS
10
528.937
20
-405.996
11
528.937
21
-405.639
0
LINE
8
BLACK
6
CONTINUOUS
10
528.937
20
-405.639
11
529.008
21
-405.353
0
LINE
8
BLACK
6
CONTINUOUS
10
529.008
20
-405.353
11
529.079
21
-405.21
0
LINE
8
BLACK
6
CONTINUOUS
10
529.079
20
-405.21
11
529.151
21
-405.139
0
LINE
8
BLACK
6
CONTINUOUS
10
529.151
20
-405.139
11
529.294
21
-405.068
0
LINE
8
BLACK
6
CONTINUOUS
10
531.079
20
-405.068
11
530.794
21
-405.068
0
LINE
8
BLACK
6
CONTINUOUS
10
530.794
20
-405.068
11
530.651
21
-405.139
0
LINE
8
BLACK
6
CONTINUOUS
10
530.651
20
-405.139
11
530.579
21
-405.21
0
LINE
8
BLACK
6
CONTINUOUS
10
530.579
20
-405.21
11
530.437
21
-405.425
0
LINE
8
BLACK
6
CONTINUOUS
10
530.437
20
-405.425
11
530.365
21
-405.71
0
LINE
8
BLACK
6
CONTINUOUS
10
530.365
20
-405.71
11
530.365
21
-406.282
0
LINE
8
BLACK
6
CONTINUOUS
10
530.365
20
-406.282
11
530.437
21
-406.425
0
LINE
8
BLACK
6
CONTINUOUS
10
530.437
20
-406.425
11
530.508
21
-406.496
0
LINE
8
BLACK
6
CONTINUOUS
10
530.508
20
-406.496
11
530.651
21
-406.568
0
LINE
8
BLACK
6
CONTINUOUS
10
530.651
20
-406.568
11
530.937
21
-406.568
0
LINE
8
BLACK
6
CONTINUOUS
10
530.937
20
-406.568
11
531.079
21
-406.496
0
LINE
8
BLACK
6
CONTINUOUS
10
531.079
20
-406.496
11
531.151
21
-406.425
0
LINE
8
BLACK
6
CONTINUOUS
10
531.151
20
-406.425
11
531.222
21
-406.282
0
LINE
8
BLACK
6
CONTINUOUS
10
531.222
20
-406.282
11
531.222
21
-405.925
0
LINE
8
BLACK
6
CONTINUOUS
10
531.222
20
-405.925
11
531.151
21
-405.782
0
LINE
8
BLACK
6
CONTINUOUS
10
531.151
20
-405.782
11
531.079
21
-405.71
0
LINE
8
BLACK
6
CONTINUOUS
10
531.079
20
-405.71
11
530.937
21
-405.639
0
LINE
8
BLACK
6
CONTINUOUS
10
530.937
20
-405.639
11
530.651
21
-405.639
0
LINE
8
BLACK
6
CONTINUOUS
10
530.651
20
-405.639
11
530.508
21
-405.71
0
LINE
8
BLACK
6
CONTINUOUS
10
530.508
20
-405.71
11
530.437
21
-405.782
0
LINE
8
BLACK
6
CONTINUOUS
10
530.437
20
-405.782
11
530.365
21
-405.925
0
LINE
8
BLACK
6
CONTINUOUS
10
532.508
20
-406.568
11
532.508
21
-405.068
0
LINE
8
BLACK
6
CONTINUOUS
10
532.508
20
-406.496
11
532.365
21
-406.568
0
LINE
8
BLACK
6
CONTINUOUS
10
532.365
20
-406.568
11
532.079
21
-406.568
0
LINE
8
BLACK
6
CONTINUOUS
10
532.079
20
-406.568
11
531.937
21
-406.496
0
LINE
8
BLACK
6
CONTINUOUS
10
531.937
20
-406.496
11
531.865
21
-406.425
0
LINE
8
BLACK
6
CONTINUOUS
10
531.865
20
-406.425
11
531.794
21
-406.282
0
LINE
8
BLACK
6
CONTINUOUS
10
531.794
20
-406.282
11
531.794
21
-405.853
0
LINE
8
BLACK
6
CONTINUOUS
10
531.794
20
-405.853
11
531.865
21
-405.71
0
LINE
8
BLACK
6
CONTINUOUS
10
531.865
20
-405.71
11
531.937
21
-405.639
0
LINE
8
BLACK
6
CONTINUOUS
10
531.937
20
-405.639
11
532.079
21
-405.568
0
LINE
8
BLACK
6
CONTINUOUS
10
532.079
20
-405.568
11
532.365
21
-405.568
0
LINE
8
BLACK
6
CONTINUOUS
10
532.365
20
-405.568
11
532.508
21
-405.639
0
LINE
8
BLACK
6
CONTINUOUS
10
532.865
20
-404.644
11
534.294
21
-404.644
0
LINE
8
BLACK
6
CONTINUOUS
10
534.008
20
-406.568
11
533.151
21
-406.568
0
LINE
8
BLACK
6
CONTINUOUS
10
533.579
20
-406.568
11
533.579
21
-405.068
0
LINE
8
BLACK
6
CONTINUOUS
10
533.579
20
-405.068
11
533.437
21
-405.282
0
LINE
8
BLACK
6
CONTINUOUS
10
533.437
20
-405.282
11
533.294
21
-405.425
0
LINE
8
BLACK
6
CONTINUOUS
10
533.294
20
-405.425
11
533.151
21
-405.496
0
LINE
8
BLACK
6
CONTINUOUS
10
534.294
20
-404.644
11
535.722
21
-404.644
0
LINE
8
BLACK
6
CONTINUOUS
10
534.579
20
-405.21
11
534.651
21
-405.139
0
LINE
8
BLACK
6
CONTINUOUS
10
534.651
20
-405.139
11
534.794
21
-405.068
0
LINE
8
BLACK
6
CONTINUOUS
10
534.794
20
-405.068
11
535.151
21
-405.068
0
LINE
8
BLACK
6
CONTINUOUS
10
535.151
20
-405.068
11
535.294
21
-405.139
0
LINE
8
BLACK
6
CONTINUOUS
10
535.294
20
-405.139
11
535.365
21
-405.21
0
LINE
8
BLACK
6
CONTINUOUS
10
535.365
20
-405.21
11
535.437
21
-405.353
0
LINE
8
BLACK
6
CONTINUOUS
10
535.437
20
-405.353
11
535.437
21
-405.496
0
LINE
8
BLACK
6
CONTINUOUS
10
535.437
20
-405.496
11
535.365
21
-405.71
0
LINE
8
BLACK
6
CONTINUOUS
10
535.365
20
-405.71
11
534.508
21
-406.568
0
LINE
8
BLACK
6
CONTINUOUS
10
534.508
20
-406.568
11
535.437
21
-406.568
0
LINE
8
BLACK
6
CONTINUOUS
10
535.722
20
-404.644
11
537.151
21
-404.644
0
LINE
8
BLACK
6
CONTINUOUS
10
535.937
20
-405.068
11
536.937
21
-405.068
0
LINE
8
BLACK
6
CONTINUOUS
10
536.937
20
-405.068
11
536.294
21
-406.568
0
LINE
8
BLACK
6
CONTINUOUS
10
538.151
20
-405.568
11
538.151
21
-406.568
0
LINE
8
BLACK
6
CONTINUOUS
10
537.508
20
-405.568
11
537.508
21
-406.353
0
LINE
8
BLACK
6
CONTINUOUS
10
537.508
20
-406.353
11
537.579
21
-406.496
0
LINE
8
BLACK
6
CONTINUOUS
10
537.579
20
-406.496
11
537.722
21
-406.568
0
LINE
8
BLACK
6
CONTINUOUS
10
537.722
20
-406.568
11
537.937
21
-406.568
0
LINE
8
BLACK
6
CONTINUOUS
10
537.937
20
-406.568
11
538.079
21
-406.496
0
LINE
8
BLACK
6
CONTINUOUS
10
538.079
20
-406.496
11
538.151
21
-406.425
0
LINE
8
BLACK
6
CONTINUOUS
10
538.865
20
-406.568
11
538.865
21
-405.068
0
LINE
8
BLACK
6
CONTINUOUS
10
538.865
20
-405.639
11
539.008
21
-405.568
0
LINE
8
BLACK
6
CONTINUOUS
10
539.008
20
-405.568
11
539.294
21
-405.568
0
LINE
8
BLACK
6
CONTINUOUS
10
539.294
20
-405.568
11
539.437
21
-405.639
0
LINE
8
BLACK
6
CONTINUOUS
10
539.437
20
-405.639
11
539.508
21
-405.71
0
LINE
8
BLACK
6
CONTINUOUS
10
539.508
20
-405.71
11
539.579
21
-405.853
0
LINE
8
BLACK
6
CONTINUOUS
10
539.579
20
-405.853
11
539.579
21
-406.282
0
LINE
8
BLACK
6
CONTINUOUS
10
539.579
20
-406.282
11
539.508
21
-406.425
0
LINE
8
BLACK
6
CONTINUOUS
10
539.508
20
-406.425
11
539.437
21
-406.496
0
LINE
8
BLACK
6
CONTINUOUS
10
539.437
20
-406.496
11
539.294
21
-406.568
0
LINE
8
BLACK
6
CONTINUOUS
10
539.294
20
-406.568
11
539.008
21
-406.568
0
LINE
8
BLACK
6
CONTINUOUS
10
539.008
20
-406.568
11
538.865
21
-406.496
0
LINE
8
BLACK
6
CONTINUOUS
10
540.865
20
-405.568
11
540.865
21
-406.568
0
LINE
8
BLACK
6
CONTINUOUS
10
540.222
20
-405.568
11
540.222
21
-406.353
0
LINE
8
BLACK
6
CONTINUOUS
10
540.222
20
-406.353
11
540.294
21
-406.496
0
LINE
8
BLACK
6
CONTINUOUS
10
540.294
20
-406.496
11
540.437
21
-406.568
0
LINE
8
BLACK
6
CONTINUOUS
10
540.437
20
-406.568
11
540.651
21
-406.568
0
LINE
8
BLACK
6
CONTINUOUS
10
540.651
20
-406.568
11
540.794
21
-406.496
0
LINE
8
BLACK
6
CONTINUOUS
10
540.794
20
-406.496
11
540.865
21
-406.425
0
LINE
8
BLACK
6
CONTINUOUS
10
541.579
20
-405.568
11
541.579
21
-406.568
0
LINE
8
BLACK
6
CONTINUOUS
10
541.579
20
-405.71
11
541.651
21
-405.639
0
LINE
8
BLACK
6
CONTINUOUS
10
541.651
20
-405.639
11
541.794
21
-405.568
0
LINE
8
BLACK
6
CONTINUOUS
10
541.794
20
-405.568
11
542.008
21
-405.568
0
LINE
8
BLACK
6
CONTINUOUS
10
542.008
20
-405.568
11
542.151
21
-405.639
0
LINE
8
BLACK
6
CONTINUOUS
10
542.151
20
-405.639
11
542.222
21
-405.782
0
LINE
8
BLACK
6
CONTINUOUS
10
542.222
20
-405.782
11
542.222
21
-406.568
0
LINE
8
BLACK
6
CONTINUOUS
10
542.722
20
-405.568
11
543.294
21
-405.568
0
LINE
8
BLACK
6
CONTINUOUS
10
542.937
20
-405.068
11
542.937
21
-406.353
0
LINE
8
BLACK
6
CONTINUOUS
10
542.937
20
-406.353
11
543.008
21
-406.496
0
LINE
8
BLACK
6
CONTINUOUS
10
543.008
20
-406.496
11
543.151
21
-406.568
0
LINE
8
BLACK
6
CONTINUOUS
10
543.151
20
-406.568
11
543.294
21
-406.568
0
LINE
8
BLACK
6
CONTINUOUS
10
544.437
20
-405.568
11
544.437
21
-406.568
0
LINE
8
BLACK
6
CONTINUOUS
10
543.794
20
-405.568
11
543.794
21
-406.353
0
LINE
8
BLACK
6
CONTINUOUS
10
543.794
20
-406.353
11
543.865
21
-406.496
0
LINE
8
BLACK
6
CONTINUOUS
10
543.865
20
-406.496
11
544.008
21
-406.568
0
LINE
8
BLACK
6
CONTINUOUS
10
544.008
20
-406.568
11
544.222
21
-406.568
0
LINE
8
BLACK
6
CONTINUOUS
10
544.222
20
-406.568
11
544.365
21
-406.496
0
LINE
8
BLACK
6
CONTINUOUS
10
544.365
20
-406.496
11
544.437
21
-406.425
0
LINE
8
BLACK
6
CONTINUOUS
10
545.079
20
-405.21
11
545.151
21
-405.139
0
LINE
8
BLACK
6
CONTINUOUS
10
545.151
20
-405.139
11
545.294
21
-405.068
0
LINE
8
BLACK
6
CONTINUOUS
10
545.294
20
-405.068
11
545.651
21
-405.068
0
LINE
8
BLACK
6
CONTINUOUS
10
545.651
20
-405.068
11
545.794
21
-405.139
0
LINE
8
BLACK
6
CONTINUOUS
10
545.794
20
-405.139
11
545.865
21
-405.21
0
LINE
8
BLACK
6
CONTINUOUS
10
545.865
20
-405.21
11
545.937
21
-405.353
0
LINE
8
BLACK
6
CONTINUOUS
10
545.937
20
-405.353
11
545.937
21
-405.496
0
LINE
8
BLACK
6
CONTINUOUS
10
545.937
20
-405.496
11
545.865
21
-405.71
0
LINE
8
BLACK
6
CONTINUOUS
10
545.865
20
-405.71
11
545.008
21
-406.568
0
LINE
8
BLACK
6
CONTINUOUS
10
545.008
20
-406.568
11
545.937
21
-406.568
0
LINE
8
BLACK
6
CONTINUOUS
10
546.865
20
-405.068
11
547.008
21
-405.068
0
LINE
8
BLACK
6
CONTINUOUS
10
547.008
20
-405.068
11
547.151
21
-405.139
0
LINE
8
BLACK
6
CONTINUOUS
10
547.151
20
-405.139
11
547.222
21
-405.21
0
LINE
8
BLACK
6
CONTINUOUS
10
547.222
20
-405.21
11
547.294
21
-405.353
0
LINE
8
BLACK
6
CONTINUOUS
10
547.294
20
-405.353
11
547.365
21
-405.639
0
LINE
8
BLACK
6
CONTINUOUS
10
547.365
20
-405.639
11
547.365
21
-405.996
0
LINE
8
BLACK
6
CONTINUOUS
10
547.365
20
-405.996
11
547.294
21
-406.282
0
LINE
8
BLACK
6
CONTINUOUS
10
547.294
20
-406.282
11
547.222
21
-406.425
0
LINE
8
BLACK
6
CONTINUOUS
10
547.222
20
-406.425
11
547.151
21
-406.496
0
LINE
8
BLACK
6
CONTINUOUS
10
547.151
20
-406.496
11
547.008
21
-406.568
0
LINE
8
BLACK
6
CONTINUOUS
10
547.008
20
-406.568
11
546.865
21
-406.568
0
LINE
8
BLACK
6
CONTINUOUS
10
546.865
20
-406.568
11
546.722
21
-406.496
0
LINE
8
BLACK
6
CONTINUOUS
10
546.722
20
-406.496
11
546.651
21
-406.425
0
LINE
8
BLACK
6
CONTINUOUS
10
546.651
20
-406.425
11
546.579
21
-406.282
0
LINE
8
BLACK
6
CONTINUOUS
10
546.579
20
-406.282
11
546.508
21
-405.996
0
LINE
8
BLACK
6
CONTINUOUS
10
546.508
20
-405.996
11
546.508
21
-405.639
0
LINE
8
BLACK
6
CONTINUOUS
10
546.508
20
-405.639
11
546.579
21
-405.353
0
LINE
8
BLACK
6
CONTINUOUS
10
546.579
20
-405.353
11
546.651
21
-405.21
0
LINE
8
BLACK
6
CONTINUOUS
10
546.651
20
-405.21
11
546.722
21
-405.139
0
LINE
8
BLACK
6
CONTINUOUS
10
546.722
20
-405.139
11
546.865
21
-405.068
0
LINE
8
BLACK
6
CONTINUOUS
10
548.008
20
-406.425
11
548.079
21
-406.496
0
LINE
8
BLACK
6
CONTINUOUS
10
548.079
20
-406.496
11
548.008
21
-406.568
0
LINE
8
BLACK
6
CONTINUOUS
10
548.008
20
-406.568
11
547.937
21
-406.496
0
LINE
8
BLACK
6
CONTINUOUS
10
547.937
20
-406.496
11
548.008
21
-406.425
0
LINE
8
BLACK
6
CONTINUOUS
10
548.008
20
-406.425
11
548.008
21
-406.568
0
LINE
8
BLACK
6
CONTINUOUS
10
549.508
20
-406.568
11
548.651
21
-406.568
0
LINE
8
BLACK
6
CONTINUOUS
10
549.079
20
-406.568
11
549.079
21
-405.068
0
LINE
8
BLACK
6
CONTINUOUS
10
549.079
20
-405.068
11
548.937
21
-405.282
0
LINE
8
BLACK
6
CONTINUOUS
10
548.937
20
-405.282
11
548.794
21
-405.425
0
LINE
8
BLACK
6
CONTINUOUS
10
548.794
20
-405.425
11
548.651
21
-405.496
0
LINE
8
BLACK
6
CONTINUOUS
10
550.437
20
-405.068
11
550.579
21
-405.068
0
LINE
8
BLACK
6
CONTINUOUS
10
550.579
20
-405.068
11
550.722
21
-405.139
0
LINE
8
BLACK
6
CONTINUOUS
10
550.722
20
-405.139
11
550.794
21
-405.21
0
LINE
8
BLACK
6
CONTINUOUS
10
550.794
20
-405.21
11
550.865
21
-405.353
0
LINE
8
BLACK
6
CONTINUOUS
10
550.865
20
-405.353
11
550.937
21
-405.639
0
LINE
8
BLACK
6
CONTINUOUS
10
550.937
20
-405.639
11
550.937
21
-405.996
0
LINE
8
BLACK
6
CONTINUOUS
10
550.937
20
-405.996
11
550.865
21
-406.282
0
LINE
8
BLACK
6
CONTINUOUS
10
550.865
20
-406.282
11
550.794
21
-406.425
0
LINE
8
BLACK
6
CONTINUOUS
10
550.794
20
-406.425
11
550.722
21
-406.496
0
LINE
8
BLACK
6
CONTINUOUS
10
550.722
20
-406.496
11
550.579
21
-406.568
0
LINE
8
BLACK
6
CONTINUOUS
10
550.579
20
-406.568
11
550.437
21
-406.568
0
LINE
8
BLACK
6
CONTINUOUS
10
550.437
20
-406.568
11
550.294
21
-406.496
0
LINE
8
BLACK
6
CONTINUOUS
10
550.294
20
-406.496
11
550.222
21
-406.425
0
LINE
8
BLACK
6
CONTINUOUS
10
550.222
20
-406.425
11
550.151
21
-406.282
0
LINE
8
BLACK
6
CONTINUOUS
10
550.151
20
-406.282
11
550.079
21
-405.996
0
LINE
8
BLACK
6
CONTINUOUS
10
550.079
20
-405.996
11
550.079
21
-405.639
0
LINE
8
BLACK
6
CONTINUOUS
10
550.079
20
-405.639
11
550.151
21
-405.353
0
LINE
8
BLACK
6
CONTINUOUS
10
550.151
20
-405.353
11
550.222
21
-405.21
0
LINE
8
BLACK
6
CONTINUOUS
10
550.222
20
-405.21
11
550.294
21
-405.139
0
LINE
8
BLACK
6
CONTINUOUS
10
550.294
20
-405.139
11
550.437
21
-405.068
0
LINE
8
BLACK
6
CONTINUOUS
10
551.579
20
-406.425
11
551.651
21
-406.496
0
LINE
8
BLACK
6
CONTINUOUS
10
551.651
20
-406.496
11
551.579
21
-406.568
0
LINE
8
BLACK
6
CONTINUOUS
10
551.579
20
-406.568
11
551.508
21
-406.496
0
LINE
8
BLACK
6
CONTINUOUS
10
551.508
20
-406.496
11
551.579
21
-406.425
0
LINE
8
BLACK
6
CONTINUOUS
10
551.579
20
-406.425
11
551.579
21
-406.568
0
LINE
8
BLACK
6
CONTINUOUS
10
553.079
20
-406.568
11
552.222
21
-406.568
0
LINE
8
BLACK
6
CONTINUOUS
10
552.651
20
-406.568
11
552.651
21
-405.068
0
LINE
8
BLACK
6
CONTINUOUS
10
552.651
20
-405.068
11
552.508
21
-405.282
0
LINE
8
BLACK
6
CONTINUOUS
10
552.508
20
-405.282
11
552.365
21
-405.425
0
LINE
8
BLACK
6
CONTINUOUS
10
552.365
20
-405.425
11
552.222
21
-405.496
0
LINE
8
BLACK
6
CONTINUOUS
10
474.004
20
-401.489
11
582.004
21
-401.489
0
LINE
8
BLACK
6
CONTINUOUS
10
561.414
20
-403.768
11
560.914
21
-403.053
0
LINE
8
BLACK
6
CONTINUOUS
10
560.557
20
-403.768
11
560.557
21
-402.268
0
LINE
8
BLACK
6
CONTINUOUS
10
560.557
20
-402.268
11
561.128
21
-402.268
0
LINE
8
BLACK
6
CONTINUOUS
10
561.128
20
-402.268
11
561.271
21
-402.339
0
LINE
8
BLACK
6
CONTINUOUS
10
561.271
20
-402.339
11
561.342
21
-402.41
0
LINE
8
BLACK
6
CONTINUOUS
10
561.342
20
-402.41
11
561.414
21
-402.553
0
LINE
8
BLACK
6
CONTINUOUS
10
561.414
20
-402.553
11
561.414
21
-402.768
0
LINE
8
BLACK
6
CONTINUOUS
10
561.414
20
-402.768
11
561.342
21
-402.91
0
LINE
8
BLACK
6
CONTINUOUS
10
561.342
20
-402.91
11
561.271
21
-402.982
0
LINE
8
BLACK
6
CONTINUOUS
10
561.271
20
-402.982
11
561.128
21
-403.053
0
LINE
8
BLACK
6
CONTINUOUS
10
561.128
20
-403.053
11
560.557
21
-403.053
0
LINE
8
BLACK
6
CONTINUOUS
10
562.628
20
-403.696
11
562.485
21
-403.768
0
LINE
8
BLACK
6
CONTINUOUS
10
562.485
20
-403.768
11
562.199
21
-403.768
0
LINE
8
BLACK
6
CONTINUOUS
10
562.199
20
-403.768
11
562.057
21
-403.696
0
LINE
8
BLACK
6
CONTINUOUS
10
562.057
20
-403.696
11
561.985
21
-403.553
0
LINE
8
BLACK
6
CONTINUOUS
10
561.985
20
-403.553
11
561.985
21
-402.982
0
LINE
8
BLACK
6
CONTINUOUS
10
561.985
20
-402.982
11
562.057
21
-402.839
0
LINE
8
BLACK
6
CONTINUOUS
10
562.057
20
-402.839
11
562.199
21
-402.768
0
LINE
8
BLACK
6
CONTINUOUS
10
562.199
20
-402.768
11
562.485
21
-402.768
0
LINE
8
BLACK
6
CONTINUOUS
10
562.485
20
-402.768
11
562.628
21
-402.839
0
LINE
8
BLACK
6
CONTINUOUS
10
562.628
20
-402.839
11
562.699
21
-402.982
0
LINE
8
BLACK
6
CONTINUOUS
10
562.699
20
-402.982
11
562.699
21
-403.125
0
LINE
8
BLACK
6
CONTINUOUS
10
562.699
20
-403.125
11
561.985
21
-403.268
0
LINE
8
BLACK
6
CONTINUOUS
10
563.199
20
-402.768
11
563.557
21
-403.768
0
LINE
8
BLACK
6
CONTINUOUS
10
563.557
20
-403.768
11
563.914
21
-402.768
0
LINE
8
BLACK
6
CONTINUOUS
10
564.485
20
-403.625
11
564.557
21
-403.696
0
LINE
8
BLACK
6
CONTINUOUS
10
564.557
20
-403.696
11
564.485
21
-403.768
0
LINE
8
BLACK
6
CONTINUOUS
10
564.485
20
-403.768
11
564.414
21
-403.696
0
LINE
8
BLACK
6
CONTINUOUS
10
564.414
20
-403.696
11
564.485
21
-403.625
0
LINE
8
BLACK
6
CONTINUOUS
10
564.485
20
-403.625
11
564.485
21
-403.768
0
LINE
8
BLACK
6
CONTINUOUS
10
564.485
20
-402.839
11
564.557
21
-402.91
0
LINE
8
BLACK
6
CONTINUOUS
10
564.557
20
-402.91
11
564.485
21
-402.982
0
LINE
8
BLACK
6
CONTINUOUS
10
564.485
20
-402.982
11
564.414
21
-402.91
0
LINE
8
BLACK
6
CONTINUOUS
10
564.414
20
-402.91
11
564.485
21
-402.839
0
LINE
8
BLACK
6
CONTINUOUS
10
564.485
20
-402.839
11
564.485
21
-402.982
0
LINE
8
BLACK
6
CONTINUOUS
10
475.365
20
-403.696
11
475.579
21
-403.768
0
LINE
8
BLACK
6
CONTINUOUS
10
475.579
20
-403.768
11
475.937
21
-403.768
0
LINE
8
BLACK
6
CONTINUOUS
10
475.937
20
-403.768
11
476.079
21
-403.696
0
LINE
8
BLACK
6
CONTINUOUS
10
476.079
20
-403.696
11
476.151
21
-403.625
0
LINE
8
BLACK
6
CONTINUOUS
10
476.151
20
-403.625
11
476.222
21
-403.482
0
LINE
8
BLACK
6
CONTINUOUS
10
476.222
20
-403.482
11
476.222
21
-403.339
0
LINE
8
BLACK
6
CONTINUOUS
10
476.222
20
-403.339
11
476.151
21
-403.196
0
LINE
8
BLACK
6
CONTINUOUS
10
476.151
20
-403.196
11
476.079
21
-403.125
0
LINE
8
BLACK
6
CONTINUOUS
10
476.079
20
-403.125
11
475.937
21
-403.053
0
LINE
8
BLACK
6
CONTINUOUS
10
475.937
20
-403.053
11
475.651
21
-402.982
0
LINE
8
BLACK
6
CONTINUOUS
10
475.651
20
-402.982
11
475.508
21
-402.91
0
LINE
8
BLACK
6
CONTINUOUS
10
475.508
20
-402.91
11
475.437
21
-402.839
0
LINE
8
BLACK
6
CONTINUOUS
10
475.437
20
-402.839
11
475.365
21
-402.696
0
LINE
8
BLACK
6
CONTINUOUS
10
475.365
20
-402.696
11
475.365
21
-402.553
0
LINE
8
BLACK
6
CONTINUOUS
10
475.365
20
-402.553
11
475.437
21
-402.41
0
LINE
8
BLACK
6
CONTINUOUS
10
475.437
20
-402.41
11
475.508
21
-402.339
0
LINE
8
BLACK
6
CONTINUOUS
10
475.508
20
-402.339
11
475.651
21
-402.268
0
LINE
8
BLACK
6
CONTINUOUS
10
475.651
20
-402.268
11
476.008
21
-402.268
0
LINE
8
BLACK
6
CONTINUOUS
10
476.008
20
-402.268
11
476.222
21
-402.339
0
LINE
8
BLACK
6
CONTINUOUS
10
476.865
20
-403.768
11
476.865
21
-402.768
0
LINE
8
BLACK
6
CONTINUOUS
10
476.865
20
-402.268
11
476.794
21
-402.339
0
LINE
8
BLACK
6
CONTINUOUS
10
476.794
20
-402.339
11
476.865
21
-402.41
0
LINE
8
BLACK
6
CONTINUOUS
10
476.865
20
-402.41
11
476.937
21
-402.339
0
LINE
8
BLACK
6
CONTINUOUS
10
476.937
20
-402.339
11
476.865
21
-402.268
0
LINE
8
BLACK
6
CONTINUOUS
10
476.865
20
-402.268
11
476.865
21
-402.41
0
LINE
8
BLACK
6
CONTINUOUS
10
477.437
20
-402.768
11
478.222
21
-402.768
0
LINE
8
BLACK
6
CONTINUOUS
10
478.222
20
-402.768
11
477.437
21
-403.768
0
LINE
8
BLACK
6
CONTINUOUS
10
477.437
20
-403.768
11
478.222
21
-403.768
0
LINE
8
BLACK
6
CONTINUOUS
10
479.365
20
-403.696
11
479.222
21
-403.768
0
LINE
8
BLACK
6
CONTINUOUS
10
479.222
20
-403.768
11
478.937
21
-403.768
0
LINE
8
BLACK
6
CONTINUOUS
10
478.937
20
-403.768
11
478.794
21
-403.696
0
LINE
8
BLACK
6
CONTINUOUS
10
478.794
20
-403.696
11
478.722
21
-403.553
0
LINE
8
BLACK
6
CONTINUOUS
10
478.722
20
-403.553
11
478.722
21
-402.982
0
LINE
8
BLACK
6
CONTINUOUS
10
478.722
20
-402.982
11
478.794
21
-402.839
0
LINE
8
BLACK
6
CONTINUOUS
10
478.794
20
-402.839
11
478.937
21
-402.768
0
LINE
8
BLACK
6
CONTINUOUS
10
478.937
20
-402.768
11
479.222
21
-402.768
0
LINE
8
BLACK
6
CONTINUOUS
10
479.222
20
-402.768
11
479.365
21
-402.839
0
LINE
8
BLACK
6
CONTINUOUS
10
479.365
20
-402.839
11
479.437
21
-402.982
0
LINE
8
BLACK
6
CONTINUOUS
10
479.437
20
-402.982
11
479.437
21
-403.125
0
LINE
8
BLACK
6
CONTINUOUS
10
479.437
20
-403.125
11
478.722
21
-403.268
0
LINE
8
BLACK
6
CONTINUOUS
10
480.079
20
-403.625
11
480.151
21
-403.696
0
LINE
8
BLACK
6
CONTINUOUS
10
480.151
20
-403.696
11
480.079
21
-403.768
0
LINE
8
BLACK
6
CONTINUOUS
10
480.079
20
-403.768
11
480.008
21
-403.696
0
LINE
8
BLACK
6
CONTINUOUS
10
480.008
20
-403.696
11
480.079
21
-403.625
0
LINE
8
BLACK
6
CONTINUOUS
10
480.079
20
-403.625
11
480.079
21
-403.768
0
LINE
8
BLACK
6
CONTINUOUS
10
480.079
20
-402.839
11
480.151
21
-402.91
0
LINE
8
BLACK
6
CONTINUOUS
10
480.151
20
-402.91
11
480.079
21
-402.982
0
LINE
8
BLACK
6
CONTINUOUS
10
480.079
20
-402.982
11
480.008
21
-402.91
0
LINE
8
BLACK
6
CONTINUOUS
10
480.008
20
-402.91
11
480.079
21
-402.839
0
LINE
8
BLACK
6
CONTINUOUS
10
480.079
20
-402.839
11
480.079
21
-402.982
0
LINE
8
BLACK
6
CONTINUOUS
10
481.865
20
-403.339
11
482.579
21
-403.339
0
LINE
8
BLACK
6
CONTINUOUS
10
481.722
20
-403.768
11
482.222
21
-402.268
0
LINE
8
BLACK
6
CONTINUOUS
10
482.222
20
-402.268
11
482.722
21
-403.768
0
LINE
8
BLACK
6
CONTINUOUS
10
483.151
20
-402.41
11
483.222
21
-402.339
0
LINE
8
BLACK
6
CONTINUOUS
10
483.222
20
-402.339
11
483.365
21
-402.268
0
LINE
8
BLACK
6
CONTINUOUS
10
483.365
20
-402.268
11
483.722
21
-402.268
0
LINE
8
BLACK
6
CONTINUOUS
10
483.722
20
-402.268
11
483.865
21
-402.339
0
LINE
8
BLACK
6
CONTINUOUS
10
483.865
20
-402.339
11
483.937
21
-402.41
0
LINE
8
BLACK
6
CONTINUOUS
10
483.937
20
-402.41
11
484.008
21
-402.553
0
LINE
8
BLACK
6
CONTINUOUS
10
484.008
20
-402.553
11
484.008
21
-402.696
0
LINE
8
BLACK
6
CONTINUOUS
10
484.008
20
-402.696
11
483.937
21
-402.91
0
LINE
8
BLACK
6
CONTINUOUS
10
483.937
20
-402.91
11
483.079
21
-403.768
0
LINE
8
BLACK
6
CONTINUOUS
10
483.079
20
-403.768
11
484.008
21
-403.768
0
LINE
8
BLACK
6
CONTINUOUS
10
560.437
20
-406.568
11
560.437
21
-405.068
0
LINE
8
BLACK
6
CONTINUOUS
10
561.794
20
-406.568
11
561.794
21
-405.068
0
LINE
8
BLACK
6
CONTINUOUS
10
561.794
20
-406.496
11
561.651
21
-406.568
0
LINE
8
BLACK
6
CONTINUOUS
10
561.651
20
-406.568
11
561.365
21
-406.568
0
LINE
8
BLACK
6
CONTINUOUS
10
561.365
20
-406.568
11
561.222
21
-406.496
0
LINE
8
BLACK
6
CONTINUOUS
10
561.222
20
-406.496
11
561.151
21
-406.425
0
LINE
8
BLACK
6
CONTINUOUS
10
561.151
20
-406.425
11
561.079
21
-406.282
0
LINE
8
BLACK
6
CONTINUOUS
10
561.079
20
-406.282
11
561.079
21
-405.853
0
LINE
8
BLACK
6
CONTINUOUS
10
561.079
20
-405.853
11
561.151
21
-405.71
0
LINE
8
BLACK
6
CONTINUOUS
10
561.151
20
-405.71
11
561.222
21
-405.639
0
LINE
8
BLACK
6
CONTINUOUS
10
561.222
20
-405.639
11
561.365
21
-405.568
0
LINE
8
BLACK
6
CONTINUOUS
10
561.365
20
-405.568
11
561.651
21
-405.568
0
LINE
8
BLACK
6
CONTINUOUS
10
561.651
20
-405.568
11
561.794
21
-405.639
0
LINE
8
BLACK
6
CONTINUOUS
10
562.508
20
-406.425
11
562.579
21
-406.496
0
LINE
8
BLACK
6
CONTINUOUS
10
562.579
20
-406.496
11
562.508
21
-406.568
0
LINE
8
BLACK
6
CONTINUOUS
10
562.508
20
-406.568
11
562.437
21
-406.496
0
LINE
8
BLACK
6
CONTINUOUS
10
562.437
20
-406.496
11
562.508
21
-406.425
0
LINE
8
BLACK
6
CONTINUOUS
10
562.508
20
-406.425
11
562.508
21
-406.568
0
LINE
8
BLACK
6
CONTINUOUS
10
562.508
20
-405.639
11
562.579
21
-405.71
0
LINE
8
BLACK
6
CONTINUOUS
10
562.579
20
-405.71
11
562.508
21
-405.782
0
LINE
8
BLACK
6
CONTINUOUS
10
562.508
20
-405.782
11
562.437
21
-405.71
0
LINE
8
BLACK
6
CONTINUOUS
10
562.437
20
-405.71
11
562.508
21
-405.639
0
LINE
8
BLACK
6
CONTINUOUS
10
562.508
20
-405.639
11
562.508
21
-405.782
0
LINE
8
BLACK
6
CONTINUOUS
10
565.151
20
-406.568
11
564.294
21
-406.568
0
LINE
8
BLACK
6
CONTINUOUS
10
564.722
20
-406.568
11
564.722
21
-405.068
0
LINE
8
BLACK
6
CONTINUOUS
10
564.722
20
-405.068
11
564.579
21
-405.282
0
LINE
8
BLACK
6
CONTINUOUS
10
564.579
20
-405.282
11
564.437
21
-405.425
0
LINE
8
BLACK
6
CONTINUOUS
10
564.437
20
-405.425
11
564.294
21
-405.496
0
LINE
8
BLACK
6
CONTINUOUS
10
566.865
20
-404.996
11
565.579
21
-406.925
0
LINE
8
BLACK
6
CONTINUOUS
10
568.151
20
-406.568
11
567.294
21
-406.568
0
LINE
8
BLACK
6
CONTINUOUS
10
567.722
20
-406.568
11
567.722
21
-405.068
0
LINE
8
BLACK
6
CONTINUOUS
10
567.722
20
-405.068
11
567.579
21
-405.282
0
LINE
8
BLACK
6
CONTINUOUS
10
567.579
20
-405.282
11
567.437
21
-405.425
0
LINE
8
BLACK
6
CONTINUOUS
10
567.437
20
-405.425
11
567.294
21
-405.496
0
LINE
8
BLACK
6
CONTINUOUS
10
474.004
20
-397.489
11
582.004
21
-397.489
0
LINE
8
BLACK
6
CONTINUOUS
10
475.717
20
-398.194
11
476.86
21
-398.194
0
LINE
8
BLACK
6
CONTINUOUS
10
476.038
20
-400.194
11
476.288
21
-398.194
0
LINE
8
BLACK
6
CONTINUOUS
10
477.276
20
-400.194
11
477.443
21
-398.86
0
LINE
8
BLACK
6
CONTINUOUS
10
477.526
20
-398.194
11
477.419
21
-398.289
0
LINE
8
BLACK
6
CONTINUOUS
10
477.419
20
-398.289
11
477.502
21
-398.384
0
LINE
8
BLACK
6
CONTINUOUS
10
477.502
20
-398.384
11
477.61
21
-398.289
0
LINE
8
BLACK
6
CONTINUOUS
10
477.61
20
-398.289
11
477.526
21
-398.194
0
LINE
8
BLACK
6
CONTINUOUS
10
477.526
20
-398.194
11
477.502
21
-398.384
0
LINE
8
BLACK
6
CONTINUOUS
10
478.11
20
-398.86
11
478.872
21
-398.86
0
LINE
8
BLACK
6
CONTINUOUS
10
478.479
20
-398.194
11
478.264
21
-399.908
0
LINE
8
BLACK
6
CONTINUOUS
10
478.264
20
-399.908
11
478.336
21
-400.099
0
LINE
8
BLACK
6
CONTINUOUS
10
478.336
20
-400.099
11
478.514
21
-400.194
0
LINE
8
BLACK
6
CONTINUOUS
10
478.514
20
-400.194
11
478.705
21
-400.194
0
LINE
8
BLACK
6
CONTINUOUS
10
479.657
20
-400.194
11
479.479
21
-400.099
0
LINE
8
BLACK
6
CONTINUOUS
10
479.479
20
-400.099
11
479.407
21
-399.908
0
LINE
8
BLACK
6
CONTINUOUS
10
479.407
20
-399.908
11
479.622
21
-398.194
0
LINE
8
BLACK
6
CONTINUOUS
10
481.193
20
-400.099
11
480.991
21
-400.194
0
LINE
8
BLACK
6
CONTINUOUS
10
480.991
20
-400.194
11
480.61
21
-400.194
0
LINE
8
BLACK
6
CONTINUOUS
10
480.61
20
-400.194
11
480.431
21
-400.099
0
LINE
8
BLACK
6
CONTINUOUS
10
480.431
20
-400.099
11
480.36
21
-399.908
0
LINE
8
BLACK
6
CONTINUOUS
10
480.36
20
-399.908
11
480.455
21
-399.146
0
LINE
8
BLACK
6
CONTINUOUS
10
480.455
20
-399.146
11
480.574
21
-398.956
0
LINE
8
BLACK
6
CONTINUOUS
10
480.574
20
-398.956
11
480.776
21
-398.86
0
LINE
8
BLACK
6
CONTINUOUS
10
480.776
20
-398.86
11
481.157
21
-398.86
0
LINE
8
BLACK
6
CONTINUOUS
10
481.157
20
-398.86
11
481.336
21
-398.956
0
LINE
8
BLACK
6
CONTINUOUS
10
481.336
20
-398.956
11
481.407
21
-399.146
0
LINE
8
BLACK
6
CONTINUOUS
10
481.407
20
-399.146
11
481.383
21
-399.337
0
LINE
8
BLACK
6
CONTINUOUS
10
481.383
20
-399.337
11
480.407
21
-399.527
0
LINE
8
BLACK
6
CONTINUOUS
10
482.157
20
-400.003
11
482.241
21
-400.099
0
LINE
8
BLACK
6
CONTINUOUS
10
482.241
20
-400.099
11
482.133
21
-400.194
0
LINE
8
BLACK
6
CONTINUOUS
10
482.133
20
-400.194
11
482.05
21
-400.099
0
LINE
8
BLACK
6
CONTINUOUS
10
482.05
20
-400.099
11
482.157
21
-400.003
0
LINE
8
BLACK
6
CONTINUOUS
10
482.157
20
-400.003
11
482.133
21
-400.194
0
LINE
8
BLACK
6
CONTINUOUS
10
482.288
20
-398.956
11
482.372
21
-399.051
0
LINE
8
BLACK
6
CONTINUOUS
10
482.372
20
-399.051
11
482.264
21
-399.146
0
LINE
8
BLACK
6
CONTINUOUS
10
482.264
20
-399.146
11
482.181
21
-399.051
0
LINE
8
BLACK
6
CONTINUOUS
10
482.181
20
-399.051
11
482.288
21
-398.956
0
LINE
8
BLACK
6
CONTINUOUS
10
482.288
20
-398.956
11
482.264
21
-399.146
0
LINE
8
BLACK
6
CONTINUOUS
10
475.937
20
-395.582
11
475.437
21
-395.582
0
LINE
8
BLACK
6
CONTINUOUS
10
475.437
20
-396.368
11
475.437
21
-394.868
0
LINE
8
BLACK
6
CONTINUOUS
10
475.437
20
-394.868
11
476.151
21
-394.868
0
LINE
8
BLACK
6
CONTINUOUS
10
476.722
20
-396.368
11
476.722
21
-395.368
0
LINE
8
BLACK
6
CONTINUOUS
10
476.722
20
-394.868
11
476.651
21
-394.939
0
LINE
8
BLACK
6
CONTINUOUS
10
476.651
20
-394.939
11
476.722
21
-395.01
0
LINE
8
BLACK
6
CONTINUOUS
10
476.722
20
-395.01
11
476.794
21
-394.939
0
LINE
8
BLACK
6
CONTINUOUS
10
476.794
20
-394.939
11
476.722
21
-394.868
0
LINE
8
BLACK
6
CONTINUOUS
10
476.722
20
-394.868
11
476.722
21
-395.01
0
LINE
8
BLACK
6
CONTINUOUS
10
477.651
20
-396.368
11
477.508
21
-396.296
0
LINE
8
BLACK
6
CONTINUOUS
10
477.508
20
-396.296
11
477.437
21
-396.153
0
LINE
8
BLACK
6
CONTINUOUS
10
477.437
20
-396.153
11
477.437
21
-394.868
0
LINE
8
BLACK
6
CONTINUOUS
10
478.794
20
-396.296
11
478.651
21
-396.368
0
LINE
8
BLACK
6
CONTINUOUS
10
478.651
20
-396.368
11
478.365
21
-396.368
0
LINE
8
BLACK
6
CONTINUOUS
10
478.365
20
-396.368
11
478.222
21
-396.296
0
LINE
8
BLACK
6
CONTINUOUS
10
478.222
20
-396.296
11
478.151
21
-396.153
0
LINE
8
BLACK
6
CONTINUOUS
10
478.151
20
-396.153
11
478.151
21
-395.582
0
LINE
8
BLACK
6
CONTINUOUS
10
478.151
20
-395.582
11
478.222
21
-395.439
0
LINE
8
BLACK
6
CONTINUOUS
10
478.222
20
-395.439
11
478.365
21
-395.368
0
LINE
8
BLACK
6
CONTINUOUS
10
478.365
20
-395.368
11
478.651
21
-395.368
0
LINE
8
BLACK
6
CONTINUOUS
10
478.651
20
-395.368
11
478.794
21
-395.439
0
LINE
8
BLACK
6
CONTINUOUS
10
478.794
20
-395.439
11
478.865
21
-395.582
0
LINE
8
BLACK
6
CONTINUOUS
10
478.865
20
-395.582
11
478.865
21
-395.725
0
LINE
8
BLACK
6
CONTINUOUS
10
478.865
20
-395.725
11
478.151
21
-395.868
0
LINE
8
BLACK
6
CONTINUOUS
10
479.508
20
-396.225
11
479.579
21
-396.296
0
LINE
8
BLACK
6
CONTINUOUS
10
479.579
20
-396.296
11
479.508
21
-396.368
0
LINE
8
BLACK
6
CONTINUOUS
10
479.508
20
-396.368
11
479.437
21
-396.296
0
LINE
8
BLACK
6
CONTINUOUS
10
479.437
20
-396.296
11
479.508
21
-396.225
0
LINE
8
BLACK
6
CONTINUOUS
10
479.508
20
-396.225
11
479.508
21
-396.368
0
LINE
8
BLACK
6
CONTINUOUS
10
479.508
20
-395.439
11
479.579
21
-395.51
0
LINE
8
BLACK
6
CONTINUOUS
10
479.579
20
-395.51
11
479.508
21
-395.582
0
LINE
8
BLACK
6
CONTINUOUS
10
479.508
20
-395.582
11
479.437
21
-395.51
0
LINE
8
BLACK
6
CONTINUOUS
10
479.437
20
-395.51
11
479.508
21
-395.439
0
LINE
8
BLACK
6
CONTINUOUS
10
479.508
20
-395.439
11
479.508
21
-395.582
0
LINE
8
BLACK
6
CONTINUOUS
10
481.151
20
-394.868
11
482.008
21
-394.868
0
LINE
8
BLACK
6
CONTINUOUS
10
481.579
20
-396.368
11
481.579
21
-394.868
0
LINE
8
BLACK
6
CONTINUOUS
10
482.508
20
-396.368
11
482.508
21
-395.368
0
LINE
8
BLACK
6
CONTINUOUS
10
482.508
20
-395.653
11
482.579
21
-395.51
0
LINE
8
BLACK
6
CONTINUOUS
10
482.579
20
-395.51
11
482.651
21
-395.439
0
LINE
8
BLACK
6
CONTINUOUS
10
482.651
20
-395.439
11
482.794
21
-395.368
0
LINE
8
BLACK
6
CONTINUOUS
10
482.794
20
-395.368
11
482.937
21
-395.368
0
LINE
8
BLACK
6
CONTINUOUS
10
484.079
20
-396.368
11
484.079
21
-395.582
0
LINE
8
BLACK
6
CONTINUOUS
10
484.079
20
-395.582
11
484.008
21
-395.439
0
LINE
8
BLACK
6
CONTINUOUS
10
484.008
20
-395.439
11
483.865
21
-395.368
0
LINE
8
BLACK
6
CONTINUOUS
10
483.865
20
-395.368
11
483.579
21
-395.368
0
LINE
8
BLACK
6
CONTINUOUS
10
483.579
20
-395.368
11
483.437
21
-395.439
0
LINE
8
BLACK
6
CONTINUOUS
10
484.079
20
-396.296
11
483.937
21
-396.368
0
LINE
8
BLACK
6
CONTINUOUS
10
483.937
20
-396.368
11
483.579
21
-396.368
0
LINE
8
BLACK
6
CONTINUOUS
10
483.579
20
-396.368
11
483.437
21
-396.296
0
LINE
8
BLACK
6
CONTINUOUS
10
483.437
20
-396.296
11
483.365
21
-396.153
0
LINE
8
BLACK
6
CONTINUOUS
10
483.365
20
-396.153
11
483.365
21
-396.01
0
LINE
8
BLACK
6
CONTINUOUS
10
483.365
20
-396.01
11
483.437
21
-395.868
0
LINE
8
BLACK
6
CONTINUOUS
10
483.437
20
-395.868
11
483.579
21
-395.796
0
LINE
8
BLACK
6
CONTINUOUS
10
483.579
20
-395.796
11
483.937
21
-395.796
0
LINE
8
BLACK
6
CONTINUOUS
10
483.937
20
-395.796
11
484.079
21
-395.725
0
LINE
8
BLACK
6
CONTINUOUS
10
484.794
20
-396.368
11
484.794
21
-394.868
0
LINE
8
BLACK
6
CONTINUOUS
10
484.937
20
-395.796
11
485.365
21
-396.368
0
LINE
8
BLACK
6
CONTINUOUS
10
485.365
20
-395.368
11
484.794
21
-395.939
0
LINE
8
BLACK
6
CONTINUOUS
10
485.794
20
-395.368
11
486.365
21
-395.368
0
LINE
8
BLACK
6
CONTINUOUS
10
486.008
20
-394.868
11
486.008
21
-396.153
0
LINE
8
BLACK
6
CONTINUOUS
10
486.008
20
-396.153
11
486.079
21
-396.296
0
LINE
8
BLACK
6
CONTINUOUS
10
486.079
20
-396.296
11
486.222
21
-396.368
0
LINE
8
BLACK
6
CONTINUOUS
10
486.222
20
-396.368
11
486.365
21
-396.368
0
LINE
8
BLACK
6
CONTINUOUS
10
487.079
20
-396.368
11
486.937
21
-396.296
0
LINE
8
BLACK
6
CONTINUOUS
10
486.937
20
-396.296
11
486.865
21
-396.225
0
LINE
8
BLACK
6
CONTINUOUS
10
486.865
20
-396.225
11
486.794
21
-396.082
0
LINE
8
BLACK
6
CONTINUOUS
10
486.794
20
-396.082
11
486.794
21
-395.653
0
LINE
8
BLACK
6
CONTINUOUS
10
486.794
20
-395.653
11
486.865
21
-395.51
0
LINE
8
BLACK
6
CONTINUOUS
10
486.865
20
-395.51
11
486.937
21
-395.439
0
LINE
8
BLACK
6
CONTINUOUS
10
486.937
20
-395.439
11
487.079
21
-395.368
0
LINE
8
BLACK
6
CONTINUOUS
10
487.079
20
-395.368
11
487.294
21
-395.368
0
LINE
8
BLACK
6
CONTINUOUS
10
487.294
20
-395.368
11
487.437
21
-395.439
0
LINE
8
BLACK
6
CONTINUOUS
10
487.437
20
-395.439
11
487.508
21
-395.51
0
LINE
8
BLACK
6
CONTINUOUS
10
487.508
20
-395.51
11
487.579
21
-395.653
0
LINE
8
BLACK
6
CONTINUOUS
10
487.579
20
-395.653
11
487.579
21
-396.082
0
LINE
8
BLACK
6
CONTINUOUS
10
487.579
20
-396.082
11
487.508
21
-396.225
0
LINE
8
BLACK
6
CONTINUOUS
10
487.508
20
-396.225
11
487.437
21
-396.296
0
LINE
8
BLACK
6
CONTINUOUS
10
487.437
20
-396.296
11
487.294
21
-396.368
0
LINE
8
BLACK
6
CONTINUOUS
10
487.294
20
-396.368
11
487.079
21
-396.368
0
LINE
8
BLACK
6
CONTINUOUS
10
488.222
20
-396.368
11
488.222
21
-395.368
0
LINE
8
BLACK
6
CONTINUOUS
10
488.222
20
-395.653
11
488.294
21
-395.51
0
LINE
8
BLACK
6
CONTINUOUS
10
488.294
20
-395.51
11
488.365
21
-395.439
0
LINE
8
BLACK
6
CONTINUOUS
10
488.365
20
-395.439
11
488.508
21
-395.368
0
LINE
8
BLACK
6
CONTINUOUS
10
488.508
20
-395.368
11
488.651
21
-395.368
0
LINE
8
BLACK
6
CONTINUOUS
10
489.151
20
-396.368
11
489.151
21
-395.368
0
LINE
8
BLACK
6
CONTINUOUS
10
489.151
20
-394.868
11
489.079
21
-394.939
0
LINE
8
BLACK
6
CONTINUOUS
10
489.079
20
-394.939
11
489.151
21
-395.01
0
LINE
8
BLACK
6
CONTINUOUS
10
489.151
20
-395.01
11
489.222
21
-394.939
0
LINE
8
BLACK
6
CONTINUOUS
10
489.222
20
-394.939
11
489.151
21
-394.868
0
LINE
8
BLACK
6
CONTINUOUS
10
489.151
20
-394.868
11
489.151
21
-395.01
0
LINE
8
BLACK
6
CONTINUOUS
10
489.865
20
-395.368
11
489.865
21
-396.368
0
LINE
8
BLACK
6
CONTINUOUS
10
489.865
20
-395.51
11
489.937
21
-395.439
0
LINE
8
BLACK
6
CONTINUOUS
10
489.937
20
-395.439
11
490.079
21
-395.368
0
LINE
8
BLACK
6
CONTINUOUS
10
490.079
20
-395.368
11
490.294
21
-395.368
0
LINE
8
BLACK
6
CONTINUOUS
10
490.294
20
-395.368
11
490.437
21
-395.439
0
LINE
8
BLACK
6
CONTINUOUS
10
490.437
20
-395.439
11
490.508
21
-395.582
0
LINE
8
BLACK
6
CONTINUOUS
10
490.508
20
-395.582
11
490.508
21
-396.368
0
LINE
8
BLACK
6
CONTINUOUS
10
491.437
20
-396.368
11
491.294
21
-396.296
0
LINE
8
BLACK
6
CONTINUOUS
10
491.294
20
-396.296
11
491.222
21
-396.225
0
LINE
8
BLACK
6
CONTINUOUS
10
491.222
20
-396.225
11
491.151
21
-396.082
0
LINE
8
BLACK
6
CONTINUOUS
10
491.151
20
-396.082
11
491.151
21
-395.653
0
LINE
8
BLACK
6
CONTINUOUS
10
491.151
20
-395.653
11
491.222
21
-395.51
0
LINE
8
BLACK
6
CONTINUOUS
10
491.222
20
-395.51
11
491.294
21
-395.439
0
LINE
8
BLACK
6
CONTINUOUS
10
491.294
20
-395.439
11
491.437
21
-395.368
0
LINE
8
BLACK
6
CONTINUOUS
10
491.437
20
-395.368
11
491.651
21
-395.368
0
LINE
8
BLACK
6
CONTINUOUS
10
491.651
20
-395.368
11
491.794
21
-395.439
0
LINE
8
BLACK
6
CONTINUOUS
10
491.794
20
-395.439
11
491.865
21
-395.51
0
LINE
8
BLACK
6
CONTINUOUS
10
491.865
20
-395.51
11
491.937
21
-395.653
0
LINE
8
BLACK
6
CONTINUOUS
10
491.937
20
-395.653
11
491.937
21
-396.082
0
LINE
8
BLACK
6
CONTINUOUS
10
491.937
20
-396.082
11
491.865
21
-396.225
0
LINE
8
BLACK
6
CONTINUOUS
10
491.865
20
-396.225
11
491.794
21
-396.296
0
LINE
8
BLACK
6
CONTINUOUS
10
491.794
20
-396.296
11
491.651
21
-396.368
0
LINE
8
BLACK
6
CONTINUOUS
10
491.651
20
-396.368
11
491.437
21
-396.368
0
LINE
8
BLACK
6
CONTINUOUS
10
492.579
20
-396.225
11
492.651
21
-396.296
0
LINE
8
BLACK
6
CONTINUOUS
10
492.651
20
-396.296
11
492.579
21
-396.368
0
LINE
8
BLACK
6
CONTINUOUS
10
492.579
20
-396.368
11
492.508
21
-396.296
0
LINE
8
BLACK
6
CONTINUOUS
10
492.508
20
-396.296
11
492.579
21
-396.225
0
LINE
8
BLACK
6
CONTINUOUS
10
492.579
20
-396.225
11
492.579
21
-396.368
0
LINE
8
BLACK
6
CONTINUOUS
10
493.294
20
-396.368
11
493.294
21
-394.868
0
LINE
8
BLACK
6
CONTINUOUS
10
493.437
20
-395.796
11
493.865
21
-396.368
0
LINE
8
BLACK
6
CONTINUOUS
10
493.865
20
-395.368
11
493.294
21
-395.939
0
LINE
8
BLACK
6
CONTINUOUS
10
494.508
20
-396.368
11
494.508
21
-395.368
0
LINE
8
BLACK
6
CONTINUOUS
10
494.508
20
-394.868
11
494.437
21
-394.939
0
LINE
8
BLACK
6
CONTINUOUS
10
494.437
20
-394.939
11
494.508
21
-395.01
0
LINE
8
BLACK
6
CONTINUOUS
10
494.508
20
-395.01
11
494.579
21
-394.939
0
LINE
8
BLACK
6
CONTINUOUS
10
494.579
20
-394.939
11
494.508
21
-394.868
0
LINE
8
BLACK
6
CONTINUOUS
10
494.508
20
-394.868
11
494.508
21
-395.01
0
LINE
8
BLACK
6
CONTINUOUS
10
495.865
20
-396.296
11
495.722
21
-396.368
0
LINE
8
BLACK
6
CONTINUOUS
10
495.722
20
-396.368
11
495.437
21
-396.368
0
LINE
8
BLACK
6
CONTINUOUS
10
495.437
20
-396.368
11
495.294
21
-396.296
0
LINE
8
BLACK
6
CONTINUOUS
10
495.294
20
-396.296
11
495.222
21
-396.225
0
LINE
8
BLACK
6
CONTINUOUS
10
495.222
20
-396.225
11
495.151
21
-396.082
0
LINE
8
BLACK
6
CONTINUOUS
10
495.151
20
-396.082
11
495.151
21
-395.653
0
LINE
8
BLACK
6
CONTINUOUS
10
495.151
20
-395.653
11
495.222
21
-395.51
0
LINE
8
BLACK
6
CONTINUOUS
10
495.222
20
-395.51
11
495.294
21
-395.439
0
LINE
8
BLACK
6
CONTINUOUS
10
495.294
20
-395.439
11
495.437
21
-395.368
0
LINE
8
BLACK
6
CONTINUOUS
10
495.437
20
-395.368
11
495.722
21
-395.368
0
LINE
8
BLACK
6
CONTINUOUS
10
495.722
20
-395.368
11
495.865
21
-395.439
0
LINE
8
BLACK
6
CONTINUOUS
10
497.151
20
-396.368
11
497.151
21
-395.582
0
LINE
8
BLACK
6
CONTINUOUS
10
497.151
20
-395.582
11
497.079
21
-395.439
0
LINE
8
BLACK
6
CONTINUOUS
10
497.079
20
-395.439
11
496.937
21
-395.368
0
LINE
8
BLACK
6
CONTINUOUS
10
496.937
20
-395.368
11
496.651
21
-395.368
0
LINE
8
BLACK
6
CONTINUOUS
10
496.651
20
-395.368
11
496.508
21
-395.439
0
LINE
8
BLACK
6
CONTINUOUS
10
497.151
20
-396.296
11
497.008
21
-396.368
0
LINE
8
BLACK
6
CONTINUOUS
10
497.008
20
-396.368
11
496.651
21
-396.368
0
LINE
8
BLACK
6
CONTINUOUS
10
496.651
20
-396.368
11
496.508
21
-396.296
0
LINE
8
BLACK
6
CONTINUOUS
10
496.508
20
-396.296
11
496.437
21
-396.153
0
LINE
8
BLACK
6
CONTINUOUS
10
496.437
20
-396.153
11
496.437
21
-396.01
0
LINE
8
BLACK
6
CONTINUOUS
10
496.437
20
-396.01
11
496.508
21
-395.868
0
LINE
8
BLACK
6
CONTINUOUS
10
496.508
20
-395.868
11
496.651
21
-395.796
0
LINE
8
BLACK
6
CONTINUOUS
10
496.651
20
-395.796
11
497.008
21
-395.796
0
LINE
8
BLACK
6
CONTINUOUS
10
497.008
20
-395.796
11
497.151
21
-395.725
0
LINE
8
BLACK
6
CONTINUOUS
10
498.508
20
-396.368
11
498.508
21
-394.868
0
LINE
8
BLACK
6
CONTINUOUS
10
498.508
20
-396.296
11
498.365
21
-396.368
0
LINE
8
BLACK
6
CONTINUOUS
10
498.365
20
-396.368
11
498.079
21
-396.368
0
LINE
8
BLACK
6
CONTINUOUS
10
498.079
20
-396.368
11
497.937
21
-396.296
0
LINE
8
BLACK
6
CONTINUOUS
10
497.937
20
-396.296
11
497.865
21
-396.225
0
LINE
8
BLACK
6
CONTINUOUS
10
497.865
20
-396.225
11
497.794
21
-396.082
0
LINE
8
BLACK
6
CONTINUOUS
10
497.794
20
-396.082
11
497.794
21
-395.653
0
LINE
8
BLACK
6
CONTINUOUS
10
497.794
20
-395.653
11
497.865
21
-395.51
0
LINE
8
BLACK
6
CONTINUOUS
10
497.865
20
-395.51
11
497.937
21
-395.439
0
LINE
8
BLACK
6
CONTINUOUS
10
497.937
20
-395.439
11
498.079
21
-395.368
0
LINE
8
BLACK
6
CONTINUOUS
10
498.079
20
-395.368
11
498.365
21
-395.368
0
LINE
8
BLACK
6
CONTINUOUS
10
498.365
20
-395.368
11
498.508
21
-395.439
0
LINE
8
BLACK
6
CONTINUOUS
10
498.865
20
-396.51
11
500.008
21
-396.51
0
LINE
8
BLACK
6
CONTINUOUS
10
500.365
20
-395.368
11
500.365
21
-396.868
0
LINE
8
BLACK
6
CONTINUOUS
10
500.365
20
-395.439
11
500.508
21
-395.368
0
LINE
8
BLACK
6
CONTINUOUS
10
500.508
20
-395.368
11
500.794
21
-395.368
0
LINE
8
BLACK
6
CONTINUOUS
10
500.794
20
-395.368
11
500.937
21
-395.439
0
LINE
8
BLACK
6
CONTINUOUS
10
500.937
20
-395.439
11
501.008
21
-395.51
0
LINE
8
BLACK
6
CONTINUOUS
10
501.008
20
-395.51
11
501.079
21
-395.653
0
LINE
8
BLACK
6
CONTINUOUS
10
501.079
20
-395.653
11
501.079
21
-396.082
0
LINE
8
BLACK
6
CONTINUOUS
10
501.079
20
-396.082
11
501.008
21
-396.225
0
LINE
8
BLACK
6
CONTINUOUS
10
501.008
20
-396.225
11
500.937
21
-396.296
0
LINE
8
BLACK
6
CONTINUOUS
10
500.937
20
-396.296
11
500.794
21
-396.368
0
LINE
8
BLACK
6
CONTINUOUS
10
500.794
20
-396.368
11
500.508
21
-396.368
0
LINE
8
BLACK
6
CONTINUOUS
10
500.508
20
-396.368
11
500.365
21
-396.296
0
LINE
8
BLACK
6
CONTINUOUS
10
502.365
20
-396.296
11
502.222
21
-396.368
0
LINE
8
BLACK
6
CONTINUOUS
10
502.222
20
-396.368
11
501.937
21
-396.368
0
LINE
8
BLACK
6
CONTINUOUS
10
501.937
20
-396.368
11
501.794
21
-396.296
0
LINE
8
BLACK
6
CONTINUOUS
10
501.794
20
-396.296
11
501.722
21
-396.225
0
LINE
8
BLACK
6
CONTINUOUS
10
501.722
20
-396.225
11
501.651
21
-396.082
0
LINE
8
BLACK
6
CONTINUOUS
10
501.651
20
-396.082
11
501.651
21
-395.653
0
LINE
8
BLACK
6
CONTINUOUS
10
501.651
20
-395.653
11
501.722
21
-395.51
0
LINE
8
BLACK
6
CONTINUOUS
10
501.722
20
-395.51
11
501.794
21
-395.439
0
LINE
8
BLACK
6
CONTINUOUS
10
501.794
20
-395.439
11
501.937
21
-395.368
0
LINE
8
BLACK
6
CONTINUOUS
10
501.937
20
-395.368
11
502.222
21
-395.368
0
LINE
8
BLACK
6
CONTINUOUS
10
502.222
20
-395.368
11
502.365
21
-395.439
0
LINE
8
BLACK
6
CONTINUOUS
10
503.008
20
-396.368
11
503.008
21
-394.868
0
LINE
8
BLACK
6
CONTINUOUS
10
503.008
20
-395.439
11
503.151
21
-395.368
0
LINE
8
BLACK
6
CONTINUOUS
10
503.151
20
-395.368
11
503.437
21
-395.368
0
LINE
8
BLACK
6
CONTINUOUS
10
503.437
20
-395.368
11
503.579
21
-395.439
0
LINE
8
BLACK
6
CONTINUOUS
10
503.579
20
-395.439
11
503.651
21
-395.51
0
LINE
8
BLACK
6
CONTINUOUS
10
503.651
20
-395.51
11
503.722
21
-395.653
0
LINE
8
BLACK
6
CONTINUOUS
10
503.722
20
-395.653
11
503.722
21
-396.082
0
LINE
8
BLACK
6
CONTINUOUS
10
503.722
20
-396.082
11
503.651
21
-396.225
0
LINE
8
BLACK
6
CONTINUOUS
10
503.651
20
-396.225
11
503.579
21
-396.296
0
LINE
8
BLACK
6
CONTINUOUS
10
503.579
20
-396.296
11
503.437
21
-396.368
0
LINE
8
BLACK
6
CONTINUOUS
10
503.437
20
-396.368
11
503.151
21
-396.368
0
LINE
8
BLACK
6
CONTINUOUS
10
503.151
20
-396.368
11
503.008
21
-396.296
0
LINE
8
BLACK
6
CONTINUOUS
10
474.004
20
-391.489
11
582.004
21
-391.489
0
LINE
8
BLACK
6
CONTINUOUS
10
475.365
20
-393.596
11
475.579
21
-393.668
0
LINE
8
BLACK
6
CONTINUOUS
10
475.579
20
-393.668
11
475.937
21
-393.668
0
LINE
8
BLACK
6
CONTINUOUS
10
475.937
20
-393.668
11
476.079
21
-393.596
0
LINE
8
BLACK
6
CONTINUOUS
10
476.079
20
-393.596
11
476.151
21
-393.525
0
LINE
8
BLACK
6
CONTINUOUS
10
476.151
20
-393.525
11
476.222
21
-393.382
0
LINE
8
BLACK
6
CONTINUOUS
10
476.222
20
-393.382
11
476.222
21
-393.239
0
LINE
8
BLACK
6
CONTINUOUS
10
476.222
20
-393.239
11
476.151
21
-393.096
0
LINE
8
BLACK
6
CONTINUOUS
10
476.151
20
-393.096
11
476.079
21
-393.025
0
LINE
8
BLACK
6
CONTINUOUS
10
476.079
20
-393.025
11
475.937
21
-392.953
0
LINE
8
BLACK
6
CONTINUOUS
10
475.937
20
-392.953
11
475.651
21
-392.882
0
LINE
8
BLACK
6
CONTINUOUS
10
475.651
20
-392.882
11
475.508
21
-392.81
0
LINE
8
BLACK
6
CONTINUOUS
10
475.508
20
-392.81
11
475.437
21
-392.739
0
LINE
8
BLACK
6
CONTINUOUS
10
475.437
20
-392.739
11
475.365
21
-392.596
0
LINE
8
BLACK
6
CONTINUOUS
10
475.365
20
-392.596
11
475.365
21
-392.453
0
LINE
8
BLACK
6
CONTINUOUS
10
475.365
20
-392.453
11
475.437
21
-392.31
0
LINE
8
BLACK
6
CONTINUOUS
10
475.437
20
-392.31
11
475.508
21
-392.239
0
LINE
8
BLACK
6
CONTINUOUS
10
475.508
20
-392.239
11
475.651
21
-392.168
0
LINE
8
BLACK
6
CONTINUOUS
10
475.651
20
-392.168
11
476.008
21
-392.168
0
LINE
8
BLACK
6
CONTINUOUS
10
476.008
20
-392.168
11
476.222
21
-392.239
0
LINE
8
BLACK
6
CONTINUOUS
10
476.865
20
-393.668
11
476.865
21
-392.168
0
LINE
8
BLACK
6
CONTINUOUS
10
477.508
20
-393.668
11
477.508
21
-392.882
0
LINE
8
BLACK
6
CONTINUOUS
10
477.508
20
-392.882
11
477.437
21
-392.739
0
LINE
8
BLACK
6
CONTINUOUS
10
477.437
20
-392.739
11
477.294
21
-392.668
0
LINE
8
BLACK
6
CONTINUOUS
10
477.294
20
-392.668
11
477.079
21
-392.668
0
LINE
8
BLACK
6
CONTINUOUS
10
477.079
20
-392.668
11
476.937
21
-392.739
0
LINE
8
BLACK
6
CONTINUOUS
10
476.937
20
-392.739
11
476.865
21
-392.81
0
LINE
8
BLACK
6
CONTINUOUS
10
478.794
20
-393.596
11
478.651
21
-393.668
0
LINE
8
BLACK
6
CONTINUOUS
10
478.651
20
-393.668
11
478.365
21
-393.668
0
LINE
8
BLACK
6
CONTINUOUS
10
478.365
20
-393.668
11
478.222
21
-393.596
0
LINE
8
BLACK
6
CONTINUOUS
10
478.222
20
-393.596
11
478.151
21
-393.453
0
LINE
8
BLACK
6
CONTINUOUS
10
478.151
20
-393.453
11
478.151
21
-392.882
0
LINE
8
BLACK
6
CONTINUOUS
10
478.151
20
-392.882
11
478.222
21
-392.739
0
LINE
8
BLACK
6
CONTINUOUS
10
478.222
20
-392.739
11
478.365
21
-392.668
0
LINE
8
BLACK
6
CONTINUOUS
10
478.365
20
-392.668
11
478.651
21
-392.668
0
LINE
8
BLACK
6
CONTINUOUS
10
478.651
20
-392.668
11
478.794
21
-392.739
0
LINE
8
BLACK
6
CONTINUOUS
10
478.794
20
-392.739
11
478.865
21
-392.882
0
LINE
8
BLACK
6
CONTINUOUS
10
478.865
20
-392.882
11
478.865
21
-393.025
0
LINE
8
BLACK
6
CONTINUOUS
10
478.865
20
-393.025
11
478.151
21
-393.168
0
LINE
8
BLACK
6
CONTINUOUS
10
480.079
20
-393.596
11
479.937
21
-393.668
0
LINE
8
BLACK
6
CONTINUOUS
10
479.937
20
-393.668
11
479.651
21
-393.668
0
LINE
8
BLACK
6
CONTINUOUS
10
479.651
20
-393.668
11
479.508
21
-393.596
0
LINE
8
BLACK
6
CONTINUOUS
10
479.508
20
-393.596
11
479.437
21
-393.453
0
LINE
8
BLACK
6
CONTINUOUS
10
479.437
20
-393.453
11
479.437
21
-392.882
0
LINE
8
BLACK
6
CONTINUOUS
10
479.437
20
-392.882
11
479.508
21
-392.739
0
LINE
8
BLACK
6
CONTINUOUS
10
479.508
20
-392.739
11
479.651
21
-392.668
0
LINE
8
BLACK
6
CONTINUOUS
10
479.651
20
-392.668
11
479.937
21
-392.668
0
LINE
8
BLACK
6
CONTINUOUS
10
479.937
20
-392.668
11
480.079
21
-392.739
0
LINE
8
BLACK
6
CONTINUOUS
10
480.079
20
-392.739
11
480.151
21
-392.882
0
LINE
8
BLACK
6
CONTINUOUS
10
480.151
20
-392.882
11
480.151
21
-393.025
0
LINE
8
BLACK
6
CONTINUOUS
10
480.151
20
-393.025
11
479.437
21
-393.168
0
LINE
8
BLACK
6
CONTINUOUS
10
480.579
20
-392.668
11
481.151
21
-392.668
0
LINE
8
BLACK
6
CONTINUOUS
10
480.794
20
-392.168
11
480.794
21
-393.453
0
LINE
8
BLACK
6
CONTINUOUS
10
480.794
20
-393.453
11
480.865
21
-393.596
0
LINE
8
BLACK
6
CONTINUOUS
10
480.865
20
-393.596
11
481.008
21
-393.668
0
LINE
8
BLACK
6
CONTINUOUS
10
481.008
20
-393.668
11
481.151
21
-393.668
0
LINE
8
BLACK
6
CONTINUOUS
10
481.651
20
-393.525
11
481.722
21
-393.596
0
LINE
8
BLACK
6
CONTINUOUS
10
481.722
20
-393.596
11
481.651
21
-393.668
0
LINE
8
BLACK
6
CONTINUOUS
10
481.651
20
-393.668
11
481.579
21
-393.596
0
LINE
8
BLACK
6
CONTINUOUS
10
481.579
20
-393.596
11
481.651
21
-393.525
0
LINE
8
BLACK
6
CONTINUOUS
10
481.651
20
-393.525
11
481.651
21
-393.668
0
LINE
8
BLACK
6
CONTINUOUS
10
481.651
20
-392.739
11
481.722
21
-392.81
0
LINE
8
BLACK
6
CONTINUOUS
10
481.722
20
-392.81
11
481.651
21
-392.882
0
LINE
8
BLACK
6
CONTINUOUS
10
481.651
20
-392.882
11
481.579
21
-392.81
0
LINE
8
BLACK
6
CONTINUOUS
10
481.579
20
-392.81
11
481.651
21
-392.739
0
LINE
8
BLACK
6
CONTINUOUS
10
481.651
20
-392.739
11
481.651
21
-392.882
0
LINE
8
BLACK
6
CONTINUOUS
10
494.004
20
-401.489
11
494.004
21
-404.489
0
LINE
8
BLACK
6
CONTINUOUS
10
558.004
20
-401.489
11
558.004
21
-407.989
0
LINE
8
BLACK
6
CONTINUOUS
10
423.017
20
-53.7995
11
423.02
21
-53.7989
0
LINE
8
BLACK
6
CONTINUOUS
10
423.02
20
-53.7989
11
423.023
21
-53.8006
0
LINE
8
BLACK
6
CONTINUOUS
10
423.023
20
-53.8006
11
423.033
21
-53.8023
0
LINE
8
BLACK
6
CONTINUOUS
10
423.033
20
-53.8023
11
423.048
21
-53.8148
0
LINE
8
BLACK
6
CONTINUOUS
10
423.048
20
-53.8148
11
423.065
21
-53.8246
0
LINE
8
BLACK
6
CONTINUOUS
10
423.065
20
-53.8246
11
423.067
21
-53.8309
0
LINE
8
BLACK
6
CONTINUOUS
10
423.067
20
-53.8309
11
423.072
21
-53.8353
0
LINE
8
BLACK
6
CONTINUOUS
10
423.072
20
-53.8353
11
423.076
21
-53.8545
0
LINE
8
BLACK
6
CONTINUOUS
10
423.076
20
-53.8545
11
423.082
21
-53.8728
0
LINE
8
BLACK
6
CONTINUOUS
10
423.082
20
-53.8728
11
423.082
21
-353.873
0
LINE
8
BLACK
6
CONTINUOUS
10
423.082
20
-353.873
11
423.08
21
-353.883
0
LINE
8
BLACK
6
CONTINUOUS
10
423.08
20
-353.883
11
423.081
21
-353.886
0
LINE
8
BLACK
6
CONTINUOUS
10
423.081
20
-353.886
11
423.079
21
-353.889
0
LINE
8
BLACK
6
CONTINUOUS
10
423.079
20
-353.889
11
423.078
21
-353.898
0
LINE
8
BLACK
6
CONTINUOUS
10
423.078
20
-353.898
11
423.065
21
-353.913
0
LINE
8
BLACK
6
CONTINUOUS
10
423.065
20
-353.913
11
423.055
21
-353.93
0
LINE
8
BLACK
6
CONTINUOUS
10
423.055
20
-353.93
11
423.049
21
-353.933
0
LINE
8
BLACK
6
CONTINUOUS
10
423.049
20
-353.933
11
423.045
21
-353.938
0
LINE
8
BLACK
6
CONTINUOUS
10
423.045
20
-353.938
11
423.026
21
-353.941
0
LINE
8
BLACK
6
CONTINUOUS
10
423.026
20
-353.941
11
423.007
21
-353.948
0
LINE
8
BLACK
6
CONTINUOUS
10
423.007
20
-353.948
11
83.0072
21
-353.948
0
LINE
8
BLACK
6
CONTINUOUS
10
83.0072
20
-353.948
11
82.9975
21
-353.946
0
LINE
8
BLACK
6
CONTINUOUS
10
82.9975
20
-353.946
11
82.9942
21
-353.947
0
LINE
8
BLACK
6
CONTINUOUS
10
82.9942
20
-353.947
11
82.9913
21
-353.945
0
LINE
8
BLACK
6
CONTINUOUS
10
82.9913
20
-353.945
11
82.9815
21
-353.943
0
LINE
8
BLACK
6
CONTINUOUS
10
82.9815
20
-353.943
11
82.9666
21
-353.931
0
LINE
8
BLACK
6
CONTINUOUS
10
82.9666
20
-353.931
11
82.9497
21
-353.921
0
LINE
8
BLACK
6
CONTINUOUS
10
82.9497
20
-353.921
11
82.9474
21
-353.915
0
LINE
8
BLACK
6
CONTINUOUS
10
82.9474
20
-353.915
11
82.9422
21
-353.91
0
LINE
8
BLACK
6
CONTINUOUS
10
82.9422
20
-353.91
11
82.9389
21
-353.891
0
LINE
8
BLACK
6
CONTINUOUS
10
82.9389
20
-353.891
11
82.9322
21
-353.873
0
LINE
8
BLACK
6
CONTINUOUS
10
82.9322
20
-353.873
11
82.9322
21
-53.8728
0
LINE
8
BLACK
6
CONTINUOUS
10
82.9322
20
-53.8728
11
82.9339
21
-53.8631
0
LINE
8
BLACK
6
CONTINUOUS
10
82.9339
20
-53.8631
11
82.9333
21
-53.8598
0
LINE
8
BLACK
6
CONTINUOUS
10
82.9333
20
-53.8598
11
82.935
21
-53.8569
0
LINE
8
BLACK
6
CONTINUOUS
10
82.935
20
-53.8569
11
82.9367
21
-53.8471
0
LINE
8
BLACK
6
CONTINUOUS
10
82.9367
20
-53.8471
11
82.9492
21
-53.8322
0
LINE
8
BLACK
6
CONTINUOUS
10
82.9492
20
-53.8322
11
82.959
21
-53.8153
0
LINE
8
BLACK
6
CONTINUOUS
10
82.959
20
-53.8153
11
82.9654
21
-53.813
0
LINE
8
BLACK
6
CONTINUOUS
10
82.9654
20
-53.813
11
82.9697
21
-53.8078
0
LINE
8
BLACK
6
CONTINUOUS
10
82.9697
20
-53.8078
11
82.9889
21
-53.8045
0
LINE
8
BLACK
6
CONTINUOUS
10
82.9889
20
-53.8045
11
83.0072
21
-53.7978
0
LINE
8
BLACK
6
CONTINUOUS
10
83.0072
20
-53.7978
11
423.007
21
-53.7978
0
LINE
8
BLACK
6
CONTINUOUS
10
423.007
20
-53.7978
11
423.017
21
-53.7995
0
LINE
8
BLACK
6
CONTINUOUS
10
83.0822
20
-353.798
11
422.932
21
-353.798
0
LINE
8
BLACK
6
CONTINUOUS
10
422.932
20
-353.798
11
422.932
21
-53.9478
0
LINE
8
BLACK
6
CONTINUOUS
10
422.932
20
-53.9478
11
83.0822
21
-53.9478
0
LINE
8
BLACK
6
CONTINUOUS
10
83.0822
20
-53.9478
11
83.0822
21
-353.798
  0
ENDSEC
  0
EOF
