%TF.GenerationSoftware,KiCad,Pcbnew,5.99.0-unknown-91e456113f~131~ubuntu20.04.1*%
%TF.CreationDate,2021-09-21T13:44:59+02:00*%
%TF.ProjectId,Mixduino,4d697864-7569-46e6-9f2e-6b696361645f,rev?*%
%TF.SameCoordinates,Original*%
%TF.FileFunction,Paste,Bot*%
%TF.FilePolarity,Positive*%
%FSLAX46Y46*%
G04 Gerber Fmt 4.6, Leading zero omitted, Abs format (unit mm)*
G04 Created by KiCad (PCBNEW 5.99.0-unknown-91e456113f~131~ubuntu20.04.1) date 2021-09-21 13:44:59*
%MOMM*%
%LPD*%
G01*
G04 APERTURE LIST*
G04 Aperture macros list*
%AMRoundRect*
0 Rectangle with rounded corners*
0 $1 Rounding radius*
0 $2 $3 $4 $5 $6 $7 $8 $9 X,Y pos of 4 corners*
0 Add a 4 corners polygon primitive as box body*
4,1,4,$2,$3,$4,$5,$6,$7,$8,$9,$2,$3,0*
0 Add four circle primitives for the rounded corners*
1,1,$1+$1,$2,$3*
1,1,$1+$1,$4,$5*
1,1,$1+$1,$6,$7*
1,1,$1+$1,$8,$9*
0 Add four rect primitives between the rounded corners*
20,1,$1+$1,$2,$3,$4,$5,0*
20,1,$1+$1,$4,$5,$6,$7,0*
20,1,$1+$1,$6,$7,$8,$9,0*
20,1,$1+$1,$8,$9,$2,$3,0*%
G04 Aperture macros list end*
%TA.AperFunction,Profile*%
%ADD10C,0.150000*%
%TD*%
%ADD11RoundRect,0.250000X-0.400000X-0.625000X0.400000X-0.625000X0.400000X0.625000X-0.400000X0.625000X0*%
%ADD12R,1.900000X0.800000*%
%ADD13RoundRect,0.250000X0.400000X0.625000X-0.400000X0.625000X-0.400000X-0.625000X0.400000X-0.625000X0*%
%ADD14RoundRect,0.150000X0.150000X-0.875000X0.150000X0.875000X-0.150000X0.875000X-0.150000X-0.875000X0*%
%ADD15RoundRect,0.250000X0.625000X-0.400000X0.625000X0.400000X-0.625000X0.400000X-0.625000X-0.400000X0*%
%ADD16RoundRect,0.150000X0.725000X0.150000X-0.725000X0.150000X-0.725000X-0.150000X0.725000X-0.150000X0*%
%ADD17RoundRect,0.150000X0.875000X0.150000X-0.875000X0.150000X-0.875000X-0.150000X0.875000X-0.150000X0*%
G04 APERTURE END LIST*
D10*
X479000000Y-311000000D02*
X119000000Y-311000000D01*
X119000000Y-311000000D02*
X119000000Y-51000000D01*
X479000000Y-51000000D02*
X479000000Y-311000000D01*
X119000000Y-51000000D02*
X479000000Y-51000000D01*
D11*
%TO.C,R15*%
X158750000Y-283300000D03*
X161850000Y-283300000D03*
%TD*%
D12*
%TO.C,Q3*%
X403500000Y-252750000D03*
X403500000Y-254650000D03*
X400500000Y-253700000D03*
%TD*%
D13*
%TO.C,NPR1*%
X146050000Y-153162000D03*
X142950000Y-153162000D03*
%TD*%
D12*
%TO.C,Q2*%
X155400000Y-283650000D03*
X155400000Y-285550000D03*
X152400000Y-284600000D03*
%TD*%
D14*
%TO.C,IC-MPLEX-2*%
X431385000Y-216350000D03*
X430115000Y-216350000D03*
X428845000Y-216350000D03*
X427575000Y-216350000D03*
X426305000Y-216350000D03*
X425035000Y-216350000D03*
X423765000Y-216350000D03*
X422495000Y-216350000D03*
X421225000Y-216350000D03*
X419955000Y-216350000D03*
X418685000Y-216350000D03*
X417415000Y-216350000D03*
X417415000Y-207050000D03*
X418685000Y-207050000D03*
X419955000Y-207050000D03*
X421225000Y-207050000D03*
X422495000Y-207050000D03*
X423765000Y-207050000D03*
X425035000Y-207050000D03*
X426305000Y-207050000D03*
X427575000Y-207050000D03*
X428845000Y-207050000D03*
X430115000Y-207050000D03*
X431385000Y-207050000D03*
%TD*%
D15*
%TO.C,R22*%
X393000000Y-255150000D03*
X393000000Y-252050000D03*
%TD*%
D16*
%TO.C,U5*%
X292244600Y-117315600D03*
X292244600Y-118585600D03*
X292244600Y-119855600D03*
X292244600Y-121125600D03*
X292244600Y-122395600D03*
X292244600Y-123665600D03*
X292244600Y-124935600D03*
X292244600Y-126205600D03*
X287094600Y-126205600D03*
X287094600Y-124935600D03*
X287094600Y-123665600D03*
X287094600Y-122395600D03*
X287094600Y-121125600D03*
X287094600Y-119855600D03*
X287094600Y-118585600D03*
X287094600Y-117315600D03*
%TD*%
%TO.C,U1*%
X222589800Y-117678200D03*
X222589800Y-118948200D03*
X222589800Y-120218200D03*
X222589800Y-121488200D03*
X222589800Y-122758200D03*
X222589800Y-124028200D03*
X222589800Y-125298200D03*
X222589800Y-126568200D03*
X217439800Y-126568200D03*
X217439800Y-125298200D03*
X217439800Y-124028200D03*
X217439800Y-122758200D03*
X217439800Y-121488200D03*
X217439800Y-120218200D03*
X217439800Y-118948200D03*
X217439800Y-117678200D03*
%TD*%
%TO.C,U2*%
X222589800Y-150378200D03*
X222589800Y-151648200D03*
X222589800Y-152918200D03*
X222589800Y-154188200D03*
X222589800Y-155458200D03*
X222589800Y-156728200D03*
X222589800Y-157998200D03*
X222589800Y-159268200D03*
X217439800Y-159268200D03*
X217439800Y-157998200D03*
X217439800Y-156728200D03*
X217439800Y-155458200D03*
X217439800Y-154188200D03*
X217439800Y-152918200D03*
X217439800Y-151648200D03*
X217439800Y-150378200D03*
%TD*%
D11*
%TO.C,R14*%
X406650000Y-281900000D03*
X409750000Y-281900000D03*
%TD*%
D12*
%TO.C,Q4*%
X153900000Y-253950000D03*
X153900000Y-255850000D03*
X150900000Y-254900000D03*
%TD*%
D16*
%TO.C,U7*%
X334426000Y-117348000D03*
X334426000Y-118618000D03*
X334426000Y-119888000D03*
X334426000Y-121158000D03*
X334426000Y-122428000D03*
X334426000Y-123698000D03*
X334426000Y-124968000D03*
X334426000Y-126238000D03*
X329276000Y-126238000D03*
X329276000Y-124968000D03*
X329276000Y-123698000D03*
X329276000Y-122428000D03*
X329276000Y-121158000D03*
X329276000Y-119888000D03*
X329276000Y-118618000D03*
X329276000Y-117348000D03*
%TD*%
D13*
%TO.C,R18*%
X410550000Y-257000000D03*
X407450000Y-257000000D03*
%TD*%
%TO.C,R12*%
X409850000Y-287600000D03*
X406750000Y-287600000D03*
%TD*%
D16*
%TO.C,U9*%
X352383800Y-117729000D03*
X352383800Y-118999000D03*
X352383800Y-120269000D03*
X352383800Y-121539000D03*
X352383800Y-122809000D03*
X352383800Y-124079000D03*
X352383800Y-125349000D03*
X352383800Y-126619000D03*
X347233800Y-126619000D03*
X347233800Y-125349000D03*
X347233800Y-124079000D03*
X347233800Y-122809000D03*
X347233800Y-121539000D03*
X347233800Y-120269000D03*
X347233800Y-118999000D03*
X347233800Y-117729000D03*
%TD*%
D17*
%TO.C,IC-MPLEX-4*%
X304250000Y-206515000D03*
X304250000Y-207785000D03*
X304250000Y-209055000D03*
X304250000Y-210325000D03*
X304250000Y-211595000D03*
X304250000Y-212865000D03*
X304250000Y-214135000D03*
X304250000Y-215405000D03*
X304250000Y-216675000D03*
X304250000Y-217945000D03*
X304250000Y-219215000D03*
X304250000Y-220485000D03*
X294950000Y-220485000D03*
X294950000Y-219215000D03*
X294950000Y-217945000D03*
X294950000Y-216675000D03*
X294950000Y-215405000D03*
X294950000Y-214135000D03*
X294950000Y-212865000D03*
X294950000Y-211595000D03*
X294950000Y-210325000D03*
X294950000Y-209055000D03*
X294950000Y-207785000D03*
X294950000Y-206515000D03*
%TD*%
D13*
%TO.C,R19*%
X159650000Y-256700000D03*
X156550000Y-256700000D03*
%TD*%
D16*
%TO.C,U6*%
X292744600Y-150215600D03*
X292744600Y-151485600D03*
X292744600Y-152755600D03*
X292744600Y-154025600D03*
X292744600Y-155295600D03*
X292744600Y-156565600D03*
X292744600Y-157835600D03*
X292744600Y-159105600D03*
X287594600Y-159105600D03*
X287594600Y-157835600D03*
X287594600Y-156565600D03*
X287594600Y-155295600D03*
X287594600Y-154025600D03*
X287594600Y-152755600D03*
X287594600Y-151485600D03*
X287594600Y-150215600D03*
%TD*%
D11*
%TO.C,R17*%
X141650000Y-283300000D03*
X144750000Y-283300000D03*
%TD*%
D16*
%TO.C,U4*%
X257514800Y-150368000D03*
X257514800Y-151638000D03*
X257514800Y-152908000D03*
X257514800Y-154178000D03*
X257514800Y-155448000D03*
X257514800Y-156718000D03*
X257514800Y-157988000D03*
X257514800Y-159258000D03*
X252364800Y-159258000D03*
X252364800Y-157988000D03*
X252364800Y-156718000D03*
X252364800Y-155448000D03*
X252364800Y-154178000D03*
X252364800Y-152908000D03*
X252364800Y-151638000D03*
X252364800Y-150368000D03*
%TD*%
D12*
%TO.C,Q1*%
X403200000Y-284550000D03*
X403200000Y-286450000D03*
X400200000Y-285500000D03*
%TD*%
D17*
%TO.C,IC-MPLEX-1*%
X305550000Y-83715000D03*
X305550000Y-84985000D03*
X305550000Y-86255000D03*
X305550000Y-87525000D03*
X305550000Y-88795000D03*
X305550000Y-90065000D03*
X305550000Y-91335000D03*
X305550000Y-92605000D03*
X305550000Y-93875000D03*
X305550000Y-95145000D03*
X305550000Y-96415000D03*
X305550000Y-97685000D03*
X296250000Y-97685000D03*
X296250000Y-96415000D03*
X296250000Y-95145000D03*
X296250000Y-93875000D03*
X296250000Y-92605000D03*
X296250000Y-91335000D03*
X296250000Y-90065000D03*
X296250000Y-88795000D03*
X296250000Y-87525000D03*
X296250000Y-86255000D03*
X296250000Y-84985000D03*
X296250000Y-83715000D03*
%TD*%
D11*
%TO.C,R21*%
X156650000Y-253100000D03*
X159750000Y-253100000D03*
%TD*%
%TO.C,R20*%
X407350000Y-251700000D03*
X410450000Y-251700000D03*
%TD*%
D16*
%TO.C,U10*%
X351571000Y-150266400D03*
X351571000Y-151536400D03*
X351571000Y-152806400D03*
X351571000Y-154076400D03*
X351571000Y-155346400D03*
X351571000Y-156616400D03*
X351571000Y-157886400D03*
X351571000Y-159156400D03*
X346421000Y-159156400D03*
X346421000Y-157886400D03*
X346421000Y-156616400D03*
X346421000Y-155346400D03*
X346421000Y-154076400D03*
X346421000Y-152806400D03*
X346421000Y-151536400D03*
X346421000Y-150266400D03*
%TD*%
%TO.C,U8*%
X334701000Y-150113000D03*
X334701000Y-151383000D03*
X334701000Y-152653000D03*
X334701000Y-153923000D03*
X334701000Y-155193000D03*
X334701000Y-156463000D03*
X334701000Y-157733000D03*
X334701000Y-159003000D03*
X329551000Y-159003000D03*
X329551000Y-157733000D03*
X329551000Y-156463000D03*
X329551000Y-155193000D03*
X329551000Y-153923000D03*
X329551000Y-152653000D03*
X329551000Y-151383000D03*
X329551000Y-150113000D03*
%TD*%
D14*
%TO.C,IC-MPLEX-3*%
X180785000Y-217550000D03*
X179515000Y-217550000D03*
X178245000Y-217550000D03*
X176975000Y-217550000D03*
X175705000Y-217550000D03*
X174435000Y-217550000D03*
X173165000Y-217550000D03*
X171895000Y-217550000D03*
X170625000Y-217550000D03*
X169355000Y-217550000D03*
X168085000Y-217550000D03*
X166815000Y-217550000D03*
X166815000Y-208250000D03*
X168085000Y-208250000D03*
X169355000Y-208250000D03*
X170625000Y-208250000D03*
X171895000Y-208250000D03*
X173165000Y-208250000D03*
X174435000Y-208250000D03*
X175705000Y-208250000D03*
X176975000Y-208250000D03*
X178245000Y-208250000D03*
X179515000Y-208250000D03*
X180785000Y-208250000D03*
%TD*%
D11*
%TO.C,R23*%
X141250000Y-253400000D03*
X144350000Y-253400000D03*
%TD*%
D13*
%TO.C,R13*%
X161798600Y-286334200D03*
X158698600Y-286334200D03*
%TD*%
D16*
%TO.C,U3*%
X257311600Y-118237000D03*
X257311600Y-119507000D03*
X257311600Y-120777000D03*
X257311600Y-122047000D03*
X257311600Y-123317000D03*
X257311600Y-124587000D03*
X257311600Y-125857000D03*
X257311600Y-127127000D03*
X252161600Y-127127000D03*
X252161600Y-125857000D03*
X252161600Y-124587000D03*
X252161600Y-123317000D03*
X252161600Y-122047000D03*
X252161600Y-120777000D03*
X252161600Y-119507000D03*
X252161600Y-118237000D03*
%TD*%
D13*
%TO.C,R16*%
X394550000Y-283600000D03*
X391450000Y-283600000D03*
%TD*%
M02*
