%FSLAX45Y45*%
G04 Gerber Fmt 4.5, Leading zero omitted, Abs format (unit mm)*
G04 Created by KiCad (PCBNEW (5.99.0-11071-g7fde05e8ee)) date 2021-09-26 21:53:00*
%MOMM*%
%LPD*%
G01*
G04 APERTURE LIST*
%TA.AperFunction,Profile*%
%ADD10C,0.150000*%
%TD*%
%ADD11C,0.200000*%
%ADD12C,0.063500*%
%ADD13C,0.090000*%
%ADD14C,0.095000*%
%ADD15C,0.100000*%
%ADD16C,0.101600*%
%ADD17C,0.150000*%
%ADD18C,0.260000*%
%ADD19C,0.320000*%
G04 APERTURE END LIST*
D10*
X47900000Y-31100000D02*
X11900000Y-31100000D01*
X11900000Y-31100000D02*
X11900000Y-5100000D01*
X47900000Y-5100000D02*
X47900000Y-31100000D01*
X11900000Y-5100000D02*
X47900000Y-5100000D01*
D11*
D12*
X12807950Y-16170910D02*
X12871450Y-16234410D01*
X12871450Y-16170910D02*
X12807950Y-16234410D01*
X12879070Y-19404330D02*
X12942570Y-19467830D01*
X12942570Y-19404330D02*
X12879070Y-19467830D01*
X13201250Y-17324250D02*
X13264750Y-17387750D01*
X13264750Y-17324250D02*
X13201250Y-17387750D01*
X13220250Y-16906250D02*
X13283750Y-16969750D01*
X13283750Y-16906250D02*
X13220250Y-16969750D01*
X13606250Y-18472250D02*
X13669750Y-18535750D01*
X13669750Y-18472250D02*
X13606250Y-18535750D01*
X13625250Y-16020250D02*
X13688750Y-16083750D01*
X13688750Y-16020250D02*
X13625250Y-16083750D01*
X13643610Y-16513810D02*
X13707110Y-16577310D01*
X13707110Y-16513810D02*
X13643610Y-16577310D01*
X13669010Y-19043650D02*
X13732510Y-19107150D01*
X13732510Y-19043650D02*
X13669010Y-19107150D01*
X13674250Y-18670250D02*
X13737750Y-18733750D01*
X13737750Y-18670250D02*
X13674250Y-18733750D01*
X13721250Y-16178250D02*
X13784750Y-16241750D01*
X13784750Y-16178250D02*
X13721250Y-16241750D01*
X13724890Y-15850870D02*
X13788390Y-15914370D01*
X13788390Y-15850870D02*
X13724890Y-15914370D01*
X13727430Y-22086570D02*
X13790930Y-22150070D01*
X13790930Y-22086570D02*
X13727430Y-22150070D01*
X13760450Y-18337530D02*
X13823950Y-18401030D01*
X13823950Y-18337530D02*
X13760450Y-18401030D01*
X13806170Y-25850850D02*
X13869670Y-25914350D01*
X13869670Y-25850850D02*
X13806170Y-25914350D01*
X14433550Y-28723590D02*
X14497050Y-28787090D01*
X14497050Y-28723590D02*
X14433550Y-28787090D01*
X14436090Y-25822910D02*
X14499590Y-25886410D01*
X14499590Y-25822910D02*
X14436090Y-25886410D01*
X14535250Y-15588250D02*
X14598750Y-15651750D01*
X14598750Y-15588250D02*
X14535250Y-15651750D01*
X14588490Y-13247370D02*
X14651990Y-13310870D01*
X14651990Y-13247370D02*
X14588490Y-13310870D01*
X14592250Y-18108250D02*
X14655750Y-18171750D01*
X14655750Y-18108250D02*
X14592250Y-18171750D01*
X14908530Y-28832810D02*
X14972030Y-28896310D01*
X14972030Y-28832810D02*
X14908530Y-28896310D01*
X15058390Y-25213310D02*
X15121890Y-25276810D01*
X15121890Y-25213310D02*
X15058390Y-25276810D01*
X15146250Y-25778250D02*
X15209750Y-25841750D01*
X15209750Y-25778250D02*
X15146250Y-25841750D01*
X15167610Y-28197810D02*
X15231110Y-28261310D01*
X15231110Y-28197810D02*
X15167610Y-28261310D01*
X15201250Y-28686250D02*
X15264750Y-28749750D01*
X15264750Y-28686250D02*
X15201250Y-28749750D01*
X15269210Y-5736590D02*
X15332710Y-5800090D01*
X15332710Y-5736590D02*
X15269210Y-5800090D01*
X15340330Y-19216370D02*
X15403830Y-19279870D01*
X15403830Y-19216370D02*
X15340330Y-19279870D01*
X15401290Y-5645150D02*
X15464790Y-5708650D01*
X15464790Y-5645150D02*
X15401290Y-5708650D01*
X15510510Y-5975350D02*
X15574010Y-6038850D01*
X15574010Y-5975350D02*
X15510510Y-6038850D01*
X15619730Y-5853430D02*
X15683230Y-5916930D01*
X15683230Y-5853430D02*
X15619730Y-5916930D01*
X15942310Y-23849330D02*
X16005810Y-23912830D01*
X16005810Y-23849330D02*
X15942310Y-23912830D01*
X16005902Y-9337090D02*
X16069402Y-9400590D01*
X16069402Y-9337090D02*
X16005902Y-9400590D01*
X16115030Y-9277350D02*
X16178530Y-9340850D01*
X16178530Y-9277350D02*
X16115030Y-9340850D01*
X16132810Y-19041110D02*
X16196310Y-19104610D01*
X16196310Y-19041110D02*
X16132810Y-19104610D01*
X16138250Y-18508250D02*
X16201750Y-18571750D01*
X16201750Y-18508250D02*
X16138250Y-18571750D01*
X16145250Y-16054250D02*
X16208750Y-16117750D01*
X16208750Y-16054250D02*
X16145250Y-16117750D01*
X16153130Y-27341830D02*
X16216630Y-27405330D01*
X16216630Y-27341830D02*
X16153130Y-27405330D01*
X16193770Y-15843250D02*
X16257270Y-15906750D01*
X16257270Y-15843250D02*
X16193770Y-15906750D01*
X16197250Y-18673250D02*
X16260750Y-18736750D01*
X16260750Y-18673250D02*
X16197250Y-18736750D01*
X16211550Y-16551910D02*
X16275050Y-16615410D01*
X16275050Y-16551910D02*
X16211550Y-16615410D01*
X16211550Y-18327370D02*
X16275050Y-18390870D01*
X16275050Y-18327370D02*
X16211550Y-18390870D01*
X16257270Y-9432290D02*
X16320770Y-9495790D01*
X16320770Y-9432290D02*
X16257270Y-9495790D01*
X16268250Y-16235250D02*
X16331750Y-16298750D01*
X16331750Y-16235250D02*
X16268250Y-16298750D01*
X16283040Y-22010371D02*
X16346540Y-22073871D01*
X16346540Y-22010371D02*
X16283040Y-22073871D01*
X16290290Y-9569450D02*
X16353790Y-9632950D01*
X16353790Y-9569450D02*
X16290290Y-9632950D01*
X16503650Y-9569450D02*
X16567150Y-9632950D01*
X16567150Y-9569450D02*
X16503650Y-9632950D01*
X16541750Y-9432290D02*
X16605250Y-9495790D01*
X16605250Y-9432290D02*
X16541750Y-9495790D01*
X16610330Y-5759450D02*
X16673830Y-5822950D01*
X16673830Y-5759450D02*
X16610330Y-5822950D01*
X16653250Y-21447250D02*
X16716750Y-21510750D01*
X16716750Y-21447250D02*
X16653250Y-21510750D01*
X16900250Y-9019250D02*
X16963750Y-9082750D01*
X16963750Y-9019250D02*
X16900250Y-9082750D01*
X16917250Y-21036250D02*
X16980750Y-21099750D01*
X16980750Y-21036250D02*
X16917250Y-21099750D01*
X16998950Y-5756910D02*
X17062450Y-5820410D01*
X17062450Y-5756910D02*
X16998950Y-5820410D01*
X17062450Y-7791450D02*
X17125950Y-7854950D01*
X17125950Y-7791450D02*
X17062450Y-7854950D01*
X17062450Y-14319250D02*
X17125950Y-14382750D01*
X17125950Y-14319250D02*
X17062450Y-14382750D01*
X17098250Y-18178250D02*
X17161750Y-18241750D01*
X17161750Y-18178250D02*
X17098250Y-18241750D01*
X17151250Y-15641250D02*
X17214750Y-15704750D01*
X17214750Y-15641250D02*
X17151250Y-15704750D01*
X17208250Y-19236250D02*
X17271750Y-19299750D01*
X17271750Y-19236250D02*
X17208250Y-19299750D01*
X17410430Y-18492470D02*
X17473930Y-18555970D01*
X17473930Y-18492470D02*
X17410430Y-18555970D01*
X17416250Y-9244250D02*
X17479750Y-9307750D01*
X17479750Y-9244250D02*
X17416250Y-9307750D01*
X17538562Y-22430878D02*
X17602062Y-22494378D01*
X17602062Y-22430878D02*
X17538562Y-22494378D01*
X17598390Y-18482310D02*
X17661890Y-18545810D01*
X17661890Y-18482310D02*
X17598390Y-18545810D01*
X17628870Y-9295130D02*
X17692370Y-9358630D01*
X17692370Y-9295130D02*
X17628870Y-9358630D01*
X17628870Y-9569450D02*
X17692370Y-9632950D01*
X17692370Y-9569450D02*
X17628870Y-9632950D01*
X17666970Y-18677890D02*
X17730470Y-18741390D01*
X17730470Y-18677890D02*
X17666970Y-18741390D01*
X17679539Y-22496520D02*
X17743039Y-22560020D01*
X17743039Y-22496520D02*
X17679539Y-22560020D01*
X17793970Y-22010370D02*
X17857470Y-22073870D01*
X17857470Y-22010370D02*
X17793970Y-22073870D01*
X17875250Y-13684250D02*
X17938750Y-13747750D01*
X17938750Y-13684250D02*
X17875250Y-13747750D01*
X17893030Y-9544050D02*
X17956530Y-9607550D01*
X17956530Y-9544050D02*
X17893030Y-9607550D01*
X17898110Y-9241790D02*
X17961610Y-9305290D01*
X17961610Y-9241790D02*
X17898110Y-9305290D01*
X17915250Y-14038250D02*
X17978750Y-14101750D01*
X17978750Y-14038250D02*
X17915250Y-14101750D01*
X17925288Y-22093670D02*
X17988788Y-22157170D01*
X17988788Y-22093670D02*
X17925288Y-22157170D01*
X18020250Y-19316250D02*
X18083750Y-19379750D01*
X18083750Y-19316250D02*
X18020250Y-19379750D01*
X18206250Y-19832250D02*
X18269750Y-19895750D01*
X18269750Y-19832250D02*
X18206250Y-19895750D01*
X18317210Y-9257030D02*
X18380710Y-9320530D01*
X18380710Y-9257030D02*
X18317210Y-9320530D01*
X18319750Y-9561830D02*
X18383250Y-9625330D01*
X18383250Y-9561830D02*
X18319750Y-9625330D01*
X18617250Y-18530250D02*
X18680750Y-18593750D01*
X18680750Y-18530250D02*
X18617250Y-18593750D01*
X18634710Y-19056350D02*
X18698210Y-19119850D01*
X18698210Y-19056350D02*
X18634710Y-19119850D01*
X18654250Y-10668250D02*
X18717750Y-10731750D01*
X18717750Y-10668250D02*
X18654250Y-10731750D01*
X18657250Y-16008250D02*
X18720750Y-16071750D01*
X18720750Y-16008250D02*
X18657250Y-16071750D01*
X18708227Y-16555864D02*
X18771727Y-16619364D01*
X18771727Y-16555864D02*
X18708227Y-16619364D01*
X18718250Y-18686250D02*
X18781750Y-18749750D01*
X18781750Y-18686250D02*
X18718250Y-18749750D01*
X18749010Y-15833090D02*
X18812510Y-15896590D01*
X18812510Y-15833090D02*
X18749010Y-15896590D01*
X18754090Y-18360390D02*
X18817590Y-18423890D01*
X18817590Y-18360390D02*
X18754090Y-18423890D01*
X18754090Y-22089110D02*
X18817590Y-22152610D01*
X18817590Y-22089110D02*
X18754090Y-22152610D01*
X18754090Y-22447250D02*
X18817590Y-22510750D01*
X18817590Y-22447250D02*
X18754090Y-22510750D01*
X18767250Y-16193250D02*
X18830750Y-16256750D01*
X18830750Y-16193250D02*
X18767250Y-16256750D01*
X19163030Y-30097730D02*
X19226530Y-30161230D01*
X19226530Y-30097730D02*
X19163030Y-30161230D01*
X19389090Y-22746970D02*
X19452590Y-22810470D01*
X19452590Y-22746970D02*
X19389090Y-22810470D01*
X19389090Y-23072090D02*
X19452590Y-23135590D01*
X19452590Y-23072090D02*
X19389090Y-23135590D01*
X19444250Y-18131050D02*
X19507750Y-18194550D01*
X19507750Y-18131050D02*
X19444250Y-18194550D01*
X19538250Y-15639250D02*
X19601750Y-15702750D01*
X19601750Y-15639250D02*
X19538250Y-15702750D01*
X19582130Y-22607270D02*
X19645630Y-22670770D01*
X19645630Y-22607270D02*
X19582130Y-22670770D01*
X19582130Y-23067010D02*
X19645630Y-23130510D01*
X19645630Y-23067010D02*
X19582130Y-23130510D01*
X19582130Y-27562810D02*
X19645630Y-27626310D01*
X19645630Y-27562810D02*
X19582130Y-27626310D01*
X19604990Y-18449290D02*
X19668490Y-18512790D01*
X19668490Y-18449290D02*
X19604990Y-18512790D01*
X19871690Y-19180810D02*
X19935190Y-19244310D01*
X19935190Y-19180810D02*
X19871690Y-19244310D01*
X20313650Y-13783310D02*
X20377150Y-13846810D01*
X20377150Y-13783310D02*
X20313650Y-13846810D01*
X20365850Y-13898750D02*
X20429350Y-13962250D01*
X20429350Y-13898750D02*
X20365850Y-13962250D01*
X20405250Y-22477250D02*
X20468750Y-22540750D01*
X20468750Y-22477250D02*
X20405250Y-22540750D01*
X20438110Y-13676630D02*
X20501610Y-13740130D01*
X20501610Y-13676630D02*
X20438110Y-13740130D01*
X20631150Y-13783310D02*
X20694650Y-13846810D01*
X20694650Y-13783310D02*
X20631150Y-13846810D01*
X20732750Y-13676630D02*
X20796250Y-13740130D01*
X20796250Y-13676630D02*
X20732750Y-13740130D01*
X21055330Y-19587210D02*
X21118830Y-19650710D01*
X21118830Y-19587210D02*
X21055330Y-19650710D01*
X21093430Y-12089130D02*
X21156930Y-12152630D01*
X21156930Y-12089130D02*
X21093430Y-12152630D01*
X21130250Y-16014250D02*
X21193750Y-16077750D01*
X21193750Y-16014250D02*
X21130250Y-16077750D01*
X21130250Y-18510250D02*
X21193750Y-18573750D01*
X21193750Y-18510250D02*
X21130250Y-18573750D01*
X21162010Y-19008090D02*
X21225510Y-19071590D01*
X21225510Y-19008090D02*
X21162010Y-19071590D01*
X21167090Y-15817850D02*
X21230590Y-15881350D01*
X21230590Y-15817850D02*
X21167090Y-15881350D01*
X21175930Y-11535410D02*
X21239430Y-11598910D01*
X21239430Y-11535410D02*
X21175930Y-11598910D01*
X21216250Y-16196250D02*
X21279750Y-16259750D01*
X21279750Y-16196250D02*
X21216250Y-16259750D01*
X21222970Y-16523970D02*
X21286470Y-16587470D01*
X21286470Y-16523970D02*
X21222970Y-16587470D01*
X21249775Y-18325050D02*
X21313275Y-18388550D01*
X21313275Y-18325050D02*
X21249775Y-18388550D01*
X21262250Y-18684250D02*
X21325750Y-18747750D01*
X21325750Y-18684250D02*
X21262250Y-18747750D01*
X21736043Y-9533883D02*
X21799543Y-9597383D01*
X21799543Y-9533883D02*
X21736043Y-9597383D01*
X21893530Y-12371070D02*
X21957030Y-12434570D01*
X21957030Y-12371070D02*
X21893530Y-12434570D01*
X21939250Y-9328150D02*
X22002750Y-9391650D01*
X22002750Y-9328150D02*
X21939250Y-9391650D01*
X21985430Y-15895070D02*
X22048930Y-15958570D01*
X22048930Y-15895070D02*
X21985430Y-15958570D01*
X22103250Y-18378250D02*
X22166750Y-18441750D01*
X22166750Y-18378250D02*
X22103250Y-18441750D01*
X22432250Y-12831250D02*
X22495750Y-12894750D01*
X22495750Y-12831250D02*
X22432250Y-12894750D01*
X22976250Y-22750250D02*
X23039750Y-22813750D01*
X23039750Y-22750250D02*
X22976250Y-22813750D01*
X23030250Y-22428250D02*
X23093750Y-22491750D01*
X23093750Y-22428250D02*
X23030250Y-22491750D01*
X23031250Y-22118250D02*
X23094750Y-22181750D01*
X23094750Y-22118250D02*
X23031250Y-22181750D01*
X23058393Y-22656813D02*
X23121893Y-22720313D01*
X23121893Y-22656813D02*
X23058393Y-22720313D01*
X23153370Y-12261850D02*
X23216870Y-12325350D01*
X23216870Y-12261850D02*
X23153370Y-12325350D01*
X23352250Y-23590250D02*
X23415750Y-23653750D01*
X23415750Y-23590250D02*
X23352250Y-23653750D01*
X23441250Y-23691250D02*
X23504750Y-23754750D01*
X23504750Y-23691250D02*
X23441250Y-23754750D01*
X23445250Y-23910250D02*
X23508750Y-23973750D01*
X23508750Y-23910250D02*
X23445250Y-23973750D01*
X23576250Y-23907250D02*
X23639750Y-23970750D01*
X23639750Y-23907250D02*
X23576250Y-23970750D01*
X23770250Y-21842250D02*
X23833750Y-21905750D01*
X23833750Y-21842250D02*
X23770250Y-21905750D01*
X23823930Y-22821640D02*
X23887430Y-22885140D01*
X23887430Y-22821640D02*
X23823930Y-22885140D01*
X24494490Y-22204420D02*
X24557990Y-22267920D01*
X24557990Y-22204420D02*
X24494490Y-22267920D01*
X24494490Y-22472650D02*
X24557990Y-22536150D01*
X24557990Y-22472650D02*
X24494490Y-22536150D01*
X24591010Y-15043150D02*
X24654510Y-15106650D01*
X24654510Y-15043150D02*
X24591010Y-15106650D01*
X24657050Y-12490450D02*
X24720550Y-12553950D01*
X24720550Y-12490450D02*
X24657050Y-12553950D01*
X24707850Y-12134850D02*
X24771350Y-12198350D01*
X24771350Y-12134850D02*
X24707850Y-12198350D01*
X24939976Y-12577344D02*
X25003476Y-12640844D01*
X25003476Y-12577344D02*
X24939976Y-12640844D01*
X24946610Y-12297410D02*
X25010110Y-12360910D01*
X25010110Y-12297410D02*
X24946610Y-12360910D01*
X25007570Y-15111730D02*
X25071070Y-15175230D01*
X25071070Y-15111730D02*
X25007570Y-15175230D01*
X25310250Y-23652250D02*
X25373750Y-23715750D01*
X25373750Y-23652250D02*
X25310250Y-23715750D01*
X25360630Y-12426950D02*
X25424130Y-12490450D01*
X25424130Y-12426950D02*
X25360630Y-12490450D01*
X25391250Y-12184250D02*
X25454750Y-12247750D01*
X25454750Y-12184250D02*
X25391250Y-12247750D01*
X25471913Y-14412196D02*
X25535413Y-14475696D01*
X25535413Y-14412196D02*
X25471913Y-14475696D01*
X25627330Y-8883650D02*
X25690830Y-8947150D01*
X25690830Y-8883650D02*
X25627330Y-8947150D01*
X25640030Y-8713470D02*
X25703530Y-8776970D01*
X25703530Y-8713470D02*
X25640030Y-8776970D01*
X25800892Y-8501808D02*
X25864392Y-8565308D01*
X25864392Y-8501808D02*
X25800892Y-8565308D01*
X25807670Y-8665210D02*
X25871170Y-8728710D01*
X25871170Y-8665210D02*
X25807670Y-8728710D01*
X25965250Y-15991250D02*
X26028750Y-16054750D01*
X26028750Y-15991250D02*
X25965250Y-16054750D01*
X26376250Y-22785250D02*
X26439750Y-22848750D01*
X26439750Y-22785250D02*
X26376250Y-22848750D01*
X26379250Y-22345250D02*
X26442750Y-22408750D01*
X26442750Y-22345250D02*
X26379250Y-22408750D01*
X26534110Y-12256770D02*
X26597610Y-12320270D01*
X26597610Y-12256770D02*
X26534110Y-12320270D01*
X27255470Y-22932390D02*
X27318970Y-22995890D01*
X27318970Y-22932390D02*
X27255470Y-22995890D01*
X27603450Y-13887450D02*
X27666950Y-13950950D01*
X27666950Y-13887450D02*
X27603450Y-13950950D01*
X27603450Y-14268450D02*
X27666950Y-14331950D01*
X27666950Y-14268450D02*
X27603450Y-14331950D01*
X27688250Y-12043250D02*
X27751750Y-12106750D01*
X27751750Y-12043250D02*
X27688250Y-12106750D01*
X28060650Y-12465050D02*
X28124150Y-12528550D01*
X28124150Y-12465050D02*
X28060650Y-12528550D01*
X28102250Y-21698250D02*
X28165750Y-21761750D01*
X28165750Y-21698250D02*
X28102250Y-21761750D01*
X28270250Y-15141250D02*
X28333750Y-15204750D01*
X28333750Y-15141250D02*
X28270250Y-15204750D01*
X28365450Y-11964670D02*
X28428950Y-12028170D01*
X28428950Y-11964670D02*
X28365450Y-12028170D01*
X28574250Y-22569250D02*
X28637750Y-22632750D01*
X28637750Y-22569250D02*
X28574250Y-22632750D01*
X28578250Y-22326250D02*
X28641750Y-22389750D01*
X28641750Y-22326250D02*
X28578250Y-22389750D01*
X28715970Y-9241790D02*
X28779470Y-9305290D01*
X28779470Y-9241790D02*
X28715970Y-9305290D01*
X28787090Y-12952730D02*
X28850590Y-13016230D01*
X28850590Y-12952730D02*
X28787090Y-13016230D01*
X28835350Y-12335510D02*
X28898850Y-12399010D01*
X28898850Y-12335510D02*
X28835350Y-12399010D01*
X28896903Y-11650303D02*
X28960403Y-11713803D01*
X28960403Y-11650303D02*
X28896903Y-11713803D01*
X28964890Y-9312910D02*
X29028390Y-9376410D01*
X29028390Y-9312910D02*
X28964890Y-9376410D01*
X29024250Y-21764250D02*
X29087750Y-21827750D01*
X29087750Y-21764250D02*
X29024250Y-21827750D01*
X29063902Y-14357398D02*
X29127402Y-14420898D01*
X29127402Y-14357398D02*
X29063902Y-14420898D01*
X29104590Y-13181330D02*
X29168090Y-13244830D01*
X29168090Y-13181330D02*
X29104590Y-13244830D01*
X29109670Y-12955270D02*
X29173170Y-13018770D01*
X29173170Y-12955270D02*
X29109670Y-13018770D01*
X29149635Y-21765697D02*
X29213135Y-21829197D01*
X29213135Y-21765697D02*
X29149635Y-21829197D01*
X29213810Y-14298930D02*
X29277310Y-14362430D01*
X29277310Y-14298930D02*
X29213810Y-14362430D01*
X29267250Y-21806250D02*
X29330750Y-21869750D01*
X29330750Y-21806250D02*
X29267250Y-21869750D01*
X29349250Y-12730250D02*
X29412750Y-12793750D01*
X29412750Y-12730250D02*
X29349250Y-12793750D01*
X29459250Y-22464250D02*
X29522750Y-22527750D01*
X29522750Y-22464250D02*
X29459250Y-22527750D01*
X29470250Y-16007250D02*
X29533750Y-16070750D01*
X29533750Y-16007250D02*
X29470250Y-16070750D01*
X29612250Y-22666250D02*
X29675750Y-22729750D01*
X29675750Y-22666250D02*
X29612250Y-22729750D01*
X29727450Y-22017990D02*
X29790950Y-22081490D01*
X29790950Y-22017990D02*
X29727450Y-22081490D01*
X29766250Y-21639250D02*
X29829750Y-21702750D01*
X29829750Y-21639250D02*
X29766250Y-21702750D01*
X29876750Y-9170670D02*
X29940250Y-9234170D01*
X29940250Y-9170670D02*
X29876750Y-9234170D01*
X29889250Y-21509250D02*
X29952750Y-21572750D01*
X29952750Y-21509250D02*
X29889250Y-21572750D01*
X29897070Y-21890990D02*
X29960570Y-21954490D01*
X29960570Y-21890990D02*
X29897070Y-21954490D01*
X29902150Y-8721090D02*
X29965650Y-8784590D01*
X29965650Y-8721090D02*
X29902150Y-8784590D01*
X29950410Y-12259310D02*
X30013910Y-12322810D01*
X30013910Y-12259310D02*
X29950410Y-12322810D01*
X29975250Y-18172250D02*
X30038750Y-18235750D01*
X30038750Y-18172250D02*
X29975250Y-18235750D01*
X29993590Y-9312910D02*
X30057090Y-9376410D01*
X30057090Y-9312910D02*
X29993590Y-9376410D01*
X29996250Y-20943250D02*
X30059750Y-21006750D01*
X30059750Y-20943250D02*
X29996250Y-21006750D01*
X30067295Y-20807453D02*
X30130795Y-20870953D01*
X30130795Y-20807453D02*
X30067295Y-20870953D01*
X30103854Y-21859014D02*
X30167354Y-21922514D01*
X30167354Y-21859014D02*
X30103854Y-21922514D01*
X30105350Y-22180550D02*
X30168850Y-22244050D01*
X30168850Y-22180550D02*
X30105350Y-22244050D01*
X30173250Y-20742250D02*
X30236750Y-20805750D01*
X30236750Y-20742250D02*
X30173250Y-20805750D01*
X30496250Y-23674250D02*
X30559750Y-23737750D01*
X30559750Y-23674250D02*
X30496250Y-23737750D01*
X30631250Y-23677250D02*
X30694750Y-23740750D01*
X30694750Y-23677250D02*
X30631250Y-23740750D01*
X30810250Y-22095250D02*
X30873750Y-22158750D01*
X30873750Y-22095250D02*
X30810250Y-22158750D01*
X30923250Y-8254250D02*
X30986750Y-8317750D01*
X30986750Y-8254250D02*
X30923250Y-8317750D01*
X31014670Y-9432290D02*
X31078170Y-9495790D01*
X31078170Y-9432290D02*
X31014670Y-9495790D01*
X31017210Y-21649690D02*
X31080710Y-21713190D01*
X31080710Y-21649690D02*
X31017210Y-21713190D01*
X31025243Y-21494387D02*
X31088743Y-21557887D01*
X31088743Y-21494387D02*
X31025243Y-21557887D01*
X31027370Y-9626557D02*
X31090870Y-9690057D01*
X31090870Y-9626557D02*
X31027370Y-9690057D01*
X31078170Y-8371550D02*
X31141670Y-8435050D01*
X31141670Y-8371550D02*
X31078170Y-8435050D01*
X31078170Y-8723630D02*
X31141670Y-8787130D01*
X31141670Y-8723630D02*
X31078170Y-8787130D01*
X31121343Y-9531357D02*
X31184843Y-9594857D01*
X31184843Y-9531357D02*
X31121343Y-9594857D01*
X31290267Y-9431013D02*
X31353767Y-9494513D01*
X31353767Y-9431013D02*
X31290267Y-9494513D01*
X31390597Y-9531343D02*
X31454097Y-9594843D01*
X31454097Y-9531343D02*
X31390597Y-9594843D01*
X31487110Y-9617710D02*
X31550610Y-9681210D01*
X31550610Y-9617710D02*
X31487110Y-9681210D01*
X31667250Y-18322250D02*
X31730750Y-18385750D01*
X31730750Y-18322250D02*
X31667250Y-18385750D01*
X31672250Y-15166250D02*
X31735750Y-15229750D01*
X31735750Y-15166250D02*
X31672250Y-15229750D01*
X31832250Y-13831250D02*
X31895750Y-13894750D01*
X31895750Y-13831250D02*
X31832250Y-13894750D01*
X32228790Y-12137390D02*
X32292290Y-12200890D01*
X32292290Y-12137390D02*
X32228790Y-12200890D01*
X32228790Y-12513310D02*
X32292290Y-12576810D01*
X32292290Y-12513310D02*
X32228790Y-12576810D01*
X32378250Y-18190250D02*
X32441750Y-18253750D01*
X32441750Y-18190250D02*
X32378250Y-18253750D01*
X32388250Y-12529250D02*
X32451750Y-12592750D01*
X32451750Y-12529250D02*
X32388250Y-12592750D01*
X32503110Y-12988290D02*
X32566610Y-13051790D01*
X32566610Y-12988290D02*
X32503110Y-13051790D01*
X32558990Y-12119610D02*
X32622490Y-12183110D01*
X32622490Y-12119610D02*
X32558990Y-12183110D01*
X32565250Y-18186250D02*
X32628750Y-18249750D01*
X32628750Y-18186250D02*
X32565250Y-18249750D01*
X32635190Y-12744450D02*
X32698690Y-12807950D01*
X32698690Y-12744450D02*
X32635190Y-12807950D01*
X32635190Y-13097510D02*
X32698690Y-13161010D01*
X32698690Y-13097510D02*
X32635190Y-13161010D01*
X32667250Y-11703250D02*
X32730750Y-11766750D01*
X32730750Y-11703250D02*
X32667250Y-11766750D01*
X32684250Y-12467250D02*
X32747750Y-12530750D01*
X32747750Y-12467250D02*
X32684250Y-12530750D01*
X32791250Y-14328250D02*
X32854750Y-14391750D01*
X32854750Y-14328250D02*
X32791250Y-14391750D01*
X32977250Y-16311250D02*
X33040750Y-16374750D01*
X33040750Y-16311250D02*
X32977250Y-16374750D01*
X32995870Y-23572470D02*
X33059370Y-23635970D01*
X33059370Y-23572470D02*
X32995870Y-23635970D01*
X33066990Y-12332970D02*
X33130490Y-12396470D01*
X33130490Y-12332970D02*
X33066990Y-12396470D01*
X33208250Y-19974250D02*
X33271750Y-20037750D01*
X33271750Y-19974250D02*
X33208250Y-20037750D01*
X33273250Y-16311250D02*
X33336750Y-16374750D01*
X33336750Y-16311250D02*
X33273250Y-16374750D01*
X33326070Y-22785070D02*
X33389570Y-22848570D01*
X33389570Y-22785070D02*
X33326070Y-22848570D01*
X33359250Y-21356250D02*
X33422750Y-21419750D01*
X33422750Y-21356250D02*
X33359250Y-21419750D01*
X33385810Y-22585250D02*
X33449310Y-22648750D01*
X33449310Y-22585250D02*
X33385810Y-22648750D01*
X33420250Y-12814250D02*
X33483750Y-12877750D01*
X33483750Y-12814250D02*
X33420250Y-12877750D01*
X33437830Y-23572470D02*
X33501330Y-23635970D01*
X33501330Y-23572470D02*
X33437830Y-23635970D01*
X33641030Y-22785070D02*
X33704530Y-22848570D01*
X33704530Y-22785070D02*
X33641030Y-22848570D01*
X33644250Y-15995250D02*
X33707750Y-16058750D01*
X33707750Y-15995250D02*
X33644250Y-16058750D01*
X33961070Y-12244070D02*
X34024570Y-12307570D01*
X34024570Y-12244070D02*
X33961070Y-12307570D01*
X34105850Y-17722850D02*
X34169350Y-17786350D01*
X34169350Y-17722850D02*
X34105850Y-17786350D01*
X34156250Y-19597250D02*
X34219750Y-19660750D01*
X34219750Y-19597250D02*
X34156250Y-19660750D01*
X34156650Y-17214850D02*
X34220150Y-17278350D01*
X34220150Y-17214850D02*
X34156650Y-17278350D01*
X34484310Y-9935210D02*
X34547810Y-9998710D01*
X34547810Y-9935210D02*
X34484310Y-9998710D01*
X34489390Y-10255250D02*
X34552890Y-10318750D01*
X34552890Y-10255250D02*
X34489390Y-10318750D01*
X34512250Y-17875250D02*
X34575750Y-17938750D01*
X34575750Y-17875250D02*
X34512250Y-17938750D01*
X34654490Y-9942830D02*
X34717990Y-10006330D01*
X34717990Y-9942830D02*
X34654490Y-10006330D01*
X34662110Y-10252710D02*
X34725610Y-10316210D01*
X34725610Y-10252710D02*
X34662110Y-10316210D01*
X34740850Y-18256250D02*
X34804350Y-18319750D01*
X34804350Y-18256250D02*
X34740850Y-18319750D01*
X34765250Y-17493250D02*
X34828750Y-17556750D01*
X34828750Y-17493250D02*
X34765250Y-17556750D01*
X34765250Y-19571250D02*
X34828750Y-19634750D01*
X34828750Y-19571250D02*
X34765250Y-19634750D01*
X34810250Y-15374250D02*
X34873750Y-15437750D01*
X34873750Y-15374250D02*
X34810250Y-15437750D01*
X34945270Y-15844250D02*
X35008770Y-15907750D01*
X35008770Y-15844250D02*
X34945270Y-15907750D01*
X34990250Y-10279250D02*
X35053750Y-10342750D01*
X35053750Y-10279250D02*
X34990250Y-10342750D01*
X34994850Y-12203430D02*
X35058350Y-12266930D01*
X35058350Y-12203430D02*
X34994850Y-12266930D01*
X35039171Y-12013131D02*
X35102671Y-12076631D01*
X35102671Y-12013131D02*
X35039171Y-12076631D01*
X35040570Y-14359890D02*
X35104070Y-14423390D01*
X35104070Y-14359890D02*
X35040570Y-14423390D01*
X35159950Y-14641830D02*
X35223450Y-14705330D01*
X35223450Y-14641830D02*
X35159950Y-14705330D01*
X35212250Y-9686250D02*
X35275750Y-9749750D01*
X35275750Y-9686250D02*
X35212250Y-9749750D01*
X35216250Y-12796250D02*
X35279750Y-12859750D01*
X35279750Y-12796250D02*
X35216250Y-12859750D01*
X35368250Y-22202250D02*
X35431750Y-22265750D01*
X35431750Y-22202250D02*
X35368250Y-22265750D01*
X35405250Y-19650250D02*
X35468750Y-19713750D01*
X35468750Y-19650250D02*
X35405250Y-19713750D01*
X35447250Y-17847250D02*
X35510750Y-17910750D01*
X35510750Y-17847250D02*
X35447250Y-17910750D01*
X35450250Y-21874430D02*
X35513750Y-21937930D01*
X35513750Y-21874430D02*
X35450250Y-21937930D01*
X35535250Y-21294250D02*
X35598750Y-21357750D01*
X35598750Y-21294250D02*
X35535250Y-21357750D01*
X35602250Y-18370250D02*
X35665750Y-18433750D01*
X35665750Y-18370250D02*
X35602250Y-18433750D01*
X35632390Y-21926550D02*
X35695890Y-21990050D01*
X35695890Y-21926550D02*
X35632390Y-21990050D01*
X35687250Y-19217250D02*
X35750750Y-19280750D01*
X35750750Y-19217250D02*
X35687250Y-19280750D01*
X35756250Y-19476250D02*
X35819750Y-19539750D01*
X35819750Y-19476250D02*
X35756250Y-19539750D01*
X35822250Y-18235250D02*
X35885750Y-18298750D01*
X35885750Y-18235250D02*
X35822250Y-18298750D01*
X35915250Y-22212250D02*
X35978750Y-22275750D01*
X35978750Y-22212250D02*
X35915250Y-22275750D01*
X36023550Y-21926550D02*
X36087050Y-21990050D01*
X36087050Y-21926550D02*
X36023550Y-21990050D01*
X36296250Y-19656250D02*
X36359750Y-19719750D01*
X36359750Y-19656250D02*
X36296250Y-19719750D01*
X36317250Y-18459250D02*
X36380750Y-18522750D01*
X36380750Y-18459250D02*
X36317250Y-18522750D01*
X36457890Y-20356830D02*
X36521390Y-20420330D01*
X36521390Y-20356830D02*
X36457890Y-20420330D01*
X36460430Y-20786090D02*
X36523930Y-20849590D01*
X36523930Y-20786090D02*
X36460430Y-20849590D01*
X36462970Y-17784820D02*
X36526470Y-17848320D01*
X36526470Y-17784820D02*
X36462970Y-17848320D01*
X36501493Y-17563320D02*
X36564993Y-17626820D01*
X36564993Y-17563320D02*
X36501493Y-17626820D01*
X36541250Y-19718250D02*
X36604750Y-19781750D01*
X36604750Y-19718250D02*
X36541250Y-19781750D01*
X36628250Y-14480250D02*
X36691750Y-14543750D01*
X36691750Y-14480250D02*
X36628250Y-14543750D01*
X36650250Y-15190250D02*
X36713750Y-15253750D01*
X36713750Y-15190250D02*
X36650250Y-15253750D01*
X36744155Y-14887455D02*
X36807655Y-14950955D01*
X36807655Y-14887455D02*
X36744155Y-14950955D01*
X36866830Y-14753590D02*
X36930330Y-14817090D01*
X36930330Y-14753590D02*
X36866830Y-14817090D01*
X36931250Y-20080250D02*
X36994750Y-20143750D01*
X36994750Y-20080250D02*
X36931250Y-20143750D01*
X36956250Y-20400250D02*
X37019750Y-20463750D01*
X37019750Y-20400250D02*
X36956250Y-20463750D01*
X37016690Y-14634210D02*
X37080190Y-14697710D01*
X37080190Y-14634210D02*
X37016690Y-14697710D01*
X37070404Y-14144332D02*
X37133904Y-14207832D01*
X37133904Y-14144332D02*
X37070404Y-14207832D01*
X37092250Y-18171110D02*
X37155750Y-18234610D01*
X37155750Y-18171110D02*
X37092250Y-18234610D01*
X37092727Y-17862727D02*
X37156227Y-17926227D01*
X37156227Y-17862727D02*
X37092727Y-17926227D01*
X37095250Y-17566250D02*
X37158750Y-17629750D01*
X37158750Y-17566250D02*
X37095250Y-17629750D01*
X37096250Y-9330250D02*
X37159750Y-9393750D01*
X37159750Y-9330250D02*
X37096250Y-9393750D01*
X37230250Y-14210250D02*
X37293750Y-14273750D01*
X37293750Y-14210250D02*
X37230250Y-14273750D01*
X37354462Y-14217282D02*
X37417962Y-14280782D01*
X37417962Y-14217282D02*
X37354462Y-14280782D01*
X37355352Y-17622092D02*
X37418852Y-17685592D01*
X37418852Y-17622092D02*
X37355352Y-17685592D01*
X37401928Y-17262268D02*
X37465428Y-17325768D01*
X37465428Y-17262268D02*
X37401928Y-17325768D01*
X37443000Y-14627753D02*
X37506500Y-14691253D01*
X37506500Y-14627753D02*
X37443000Y-14691253D01*
X37524690Y-17603470D02*
X37588190Y-17666970D01*
X37588190Y-17603470D02*
X37524690Y-17666970D01*
X37527250Y-19416250D02*
X37590750Y-19479750D01*
X37590750Y-19416250D02*
X37527250Y-19479750D01*
X37575490Y-17062450D02*
X37638990Y-17125950D01*
X37638990Y-17062450D02*
X37575490Y-17125950D01*
X37577602Y-17399842D02*
X37641102Y-17463342D01*
X37641102Y-17399842D02*
X37577602Y-17463342D01*
X37578030Y-14542770D02*
X37641530Y-14606270D01*
X37641530Y-14542770D02*
X37578030Y-14606270D01*
X37630150Y-10704250D02*
X37693650Y-10767750D01*
X37693650Y-10704250D02*
X37630150Y-10767750D01*
X37630150Y-12861250D02*
X37693650Y-12924750D01*
X37693650Y-12861250D02*
X37630150Y-12924750D01*
X37716576Y-14637760D02*
X37780076Y-14701260D01*
X37780076Y-14637760D02*
X37716576Y-14701260D01*
X37725350Y-13397230D02*
X37788850Y-13460730D01*
X37788850Y-13397230D02*
X37725350Y-13460730D01*
X37725350Y-13732510D02*
X37788850Y-13796010D01*
X37788850Y-13732510D02*
X37725350Y-13796010D01*
X37725350Y-14243050D02*
X37788850Y-14306550D01*
X37788850Y-14243050D02*
X37725350Y-14306550D01*
X37725350Y-16904970D02*
X37788850Y-16968470D01*
X37788850Y-16904970D02*
X37725350Y-16968470D01*
X37725350Y-17265650D02*
X37788850Y-17329150D01*
X37788850Y-17265650D02*
X37725350Y-17329150D01*
X37760250Y-19653250D02*
X37823750Y-19716750D01*
X37823750Y-19653250D02*
X37760250Y-19716750D01*
X37847250Y-9532250D02*
X37910750Y-9595750D01*
X37910750Y-9532250D02*
X37847250Y-9595750D01*
X37849810Y-18075910D02*
X37913310Y-18139410D01*
X37913310Y-18075910D02*
X37849810Y-18139410D01*
X37862510Y-16539210D02*
X37926010Y-16602710D01*
X37926010Y-16539210D02*
X37862510Y-16602710D01*
X37865050Y-12952730D02*
X37928550Y-13016230D01*
X37928550Y-12952730D02*
X37865050Y-13016230D01*
X37939250Y-18274250D02*
X38002750Y-18337750D01*
X38002750Y-18274250D02*
X37939250Y-18337750D01*
X37964110Y-19472910D02*
X38027610Y-19536410D01*
X38027610Y-19472910D02*
X37964110Y-19536410D01*
X37989510Y-16831310D02*
X38053010Y-16894810D01*
X38053010Y-16831310D02*
X37989510Y-16894810D01*
X38006250Y-12964250D02*
X38069750Y-13027750D01*
X38069750Y-12964250D02*
X38006250Y-13027750D01*
X38017250Y-10605250D02*
X38080750Y-10668750D01*
X38080750Y-10605250D02*
X38017250Y-10668750D01*
X38022250Y-16587250D02*
X38085750Y-16650750D01*
X38085750Y-16587250D02*
X38022250Y-16650750D01*
X38045390Y-10168890D02*
X38108890Y-10232390D01*
X38108890Y-10168890D02*
X38045390Y-10232390D01*
X38091110Y-17971770D02*
X38154610Y-18035270D01*
X38154610Y-17971770D02*
X38091110Y-18035270D01*
X38149530Y-10344150D02*
X38213030Y-10407650D01*
X38213030Y-10344150D02*
X38149530Y-10407650D01*
X38195250Y-14653310D02*
X38258750Y-14716810D01*
X38258750Y-14653310D02*
X38195250Y-14716810D01*
X38195250Y-15309850D02*
X38258750Y-15373350D01*
X38258750Y-15309850D02*
X38195250Y-15373350D01*
X38268910Y-13943330D02*
X38332410Y-14006830D01*
X38332410Y-13943330D02*
X38268910Y-14006830D01*
X38342570Y-14187170D02*
X38406070Y-14250670D01*
X38406070Y-14187170D02*
X38342570Y-14250670D01*
X38349250Y-19486250D02*
X38412750Y-19549750D01*
X38412750Y-19486250D02*
X38349250Y-19549750D01*
X38384250Y-17877250D02*
X38447750Y-17940750D01*
X38447750Y-17877250D02*
X38384250Y-17940750D01*
X38418770Y-14076420D02*
X38482270Y-14139920D01*
X38482270Y-14076420D02*
X38418770Y-14139920D01*
X38502590Y-10184130D02*
X38566090Y-10247630D01*
X38566090Y-10184130D02*
X38502590Y-10247630D01*
X38511250Y-11556250D02*
X38574750Y-11619750D01*
X38574750Y-11556250D02*
X38511250Y-11619750D01*
X38652450Y-28771850D02*
X38715950Y-28835350D01*
X38715950Y-28771850D02*
X38652450Y-28835350D01*
X38656250Y-15995250D02*
X38719750Y-16058750D01*
X38719750Y-15995250D02*
X38656250Y-16058750D01*
X38657530Y-19036030D02*
X38721030Y-19099530D01*
X38721030Y-19036030D02*
X38657530Y-19099530D01*
X38669250Y-18497250D02*
X38732750Y-18560750D01*
X38732750Y-18497250D02*
X38669250Y-18560750D01*
X38682930Y-16539210D02*
X38746430Y-16602710D01*
X38746430Y-16539210D02*
X38682930Y-16602710D01*
X38710870Y-9168130D02*
X38774370Y-9231630D01*
X38774370Y-9168130D02*
X38710870Y-9231630D01*
X38764450Y-18313208D02*
X38827950Y-18376708D01*
X38827950Y-18313208D02*
X38764450Y-18376708D01*
X38773250Y-18660250D02*
X38836750Y-18723750D01*
X38836750Y-18660250D02*
X38773250Y-18723750D01*
X38781990Y-15828010D02*
X38845490Y-15891510D01*
X38845490Y-15828010D02*
X38781990Y-15891510D01*
X38853110Y-29081730D02*
X38916610Y-29145230D01*
X38916610Y-29081730D02*
X38853110Y-29145230D01*
X38880250Y-16525250D02*
X38943750Y-16588750D01*
X38943750Y-16525250D02*
X38880250Y-16588750D01*
X39053250Y-9268250D02*
X39116750Y-9331750D01*
X39116750Y-9268250D02*
X39053250Y-9331750D01*
X39053250Y-9682250D02*
X39116750Y-9745750D01*
X39116750Y-9682250D02*
X39053250Y-9745750D01*
X39267130Y-24669750D02*
X39330630Y-24733250D01*
X39330630Y-24669750D02*
X39267130Y-24733250D01*
X39424610Y-28802330D02*
X39488110Y-28865830D01*
X39488110Y-28802330D02*
X39424610Y-28865830D01*
X39472870Y-25805130D02*
X39536370Y-25868630D01*
X39536370Y-25805130D02*
X39472870Y-25868630D01*
X39572250Y-16454250D02*
X39635750Y-16517750D01*
X39635750Y-16454250D02*
X39572250Y-16517750D01*
X39584630Y-25317450D02*
X39648130Y-25380950D01*
X39648130Y-25317450D02*
X39584630Y-25380950D01*
X39618250Y-18191250D02*
X39681750Y-18254750D01*
X39681750Y-18191250D02*
X39618250Y-18254750D01*
X39860250Y-28173250D02*
X39923750Y-28236750D01*
X39923750Y-28173250D02*
X39860250Y-28236750D01*
X40173250Y-28813250D02*
X40236750Y-28876750D01*
X40236750Y-28813250D02*
X40173250Y-28876750D01*
X40213250Y-28241250D02*
X40276750Y-28304750D01*
X40276750Y-28241250D02*
X40213250Y-28304750D01*
X40305250Y-25672250D02*
X40368750Y-25735750D01*
X40368750Y-25672250D02*
X40305250Y-25735750D01*
X40331390Y-18677890D02*
X40394890Y-18741390D01*
X40394890Y-18677890D02*
X40331390Y-18741390D01*
X40594250Y-21899250D02*
X40657750Y-21962750D01*
X40657750Y-21899250D02*
X40594250Y-21962750D01*
X40597250Y-21456250D02*
X40660750Y-21519750D01*
X40660750Y-21456250D02*
X40597250Y-21519750D01*
X40694610Y-29302710D02*
X40758110Y-29366210D01*
X40758110Y-29302710D02*
X40694610Y-29366210D01*
X40775890Y-21926550D02*
X40839390Y-21990050D01*
X40839390Y-21926550D02*
X40775890Y-21990050D01*
X40828086Y-21304707D02*
X40891586Y-21368207D01*
X40891586Y-21304707D02*
X40828086Y-21368207D01*
X40835250Y-22724250D02*
X40898750Y-22787750D01*
X40898750Y-22724250D02*
X40835250Y-22787750D01*
X40872410Y-22117050D02*
X40935910Y-22180550D01*
X40935910Y-22117050D02*
X40872410Y-22180550D01*
X40948610Y-27684730D02*
X41012110Y-27748230D01*
X41012110Y-27684730D02*
X40948610Y-27748230D01*
X40968250Y-10670250D02*
X41031750Y-10733750D01*
X41031750Y-10670250D02*
X40968250Y-10733750D01*
X40971470Y-15154910D02*
X41034970Y-15218410D01*
X41034970Y-15154910D02*
X40971470Y-15218410D01*
X41017190Y-24878030D02*
X41080690Y-24941530D01*
X41080690Y-24878030D02*
X41017190Y-24941530D01*
X41019250Y-5884250D02*
X41082750Y-5947750D01*
X41082750Y-5884250D02*
X41019250Y-5947750D01*
X41022270Y-14824710D02*
X41085770Y-14888210D01*
X41085770Y-14824710D02*
X41022270Y-14888210D01*
X41054250Y-19645250D02*
X41117750Y-19708750D01*
X41117750Y-19645250D02*
X41054250Y-19708750D01*
X41106090Y-19030950D02*
X41169590Y-19094450D01*
X41169590Y-19030950D02*
X41106090Y-19094450D01*
X41118790Y-16534130D02*
X41182290Y-16597630D01*
X41182290Y-16534130D02*
X41118790Y-16597630D01*
X41136570Y-19831050D02*
X41200070Y-19894550D01*
X41200070Y-19831050D02*
X41136570Y-19894550D01*
X41139110Y-20224750D02*
X41202610Y-20288250D01*
X41202610Y-20224750D02*
X41139110Y-20288250D01*
X41160250Y-16016250D02*
X41223750Y-16079750D01*
X41223750Y-16016250D02*
X41160250Y-16079750D01*
X41192250Y-18514250D02*
X41255750Y-18577750D01*
X41255750Y-18514250D02*
X41192250Y-18577750D01*
X41225250Y-16235250D02*
X41288750Y-16298750D01*
X41288750Y-16235250D02*
X41225250Y-16298750D01*
X41225250Y-18779250D02*
X41288750Y-18842750D01*
X41288750Y-18779250D02*
X41225250Y-18842750D01*
X41228250Y-7838250D02*
X41291750Y-7901750D01*
X41291750Y-7838250D02*
X41228250Y-7901750D01*
X41259924Y-21926550D02*
X41323424Y-21990050D01*
X41323424Y-21926550D02*
X41259924Y-21990050D01*
X41260747Y-18311584D02*
X41324247Y-18375084D01*
X41324247Y-18311584D02*
X41260747Y-18375084D01*
X41265250Y-22728250D02*
X41328750Y-22791750D01*
X41328750Y-22728250D02*
X41265250Y-22791750D01*
X41266110Y-15820390D02*
X41329610Y-15883890D01*
X41329610Y-15820390D02*
X41266110Y-15883890D01*
X41286430Y-22117050D02*
X41349930Y-22180550D01*
X41349930Y-22117050D02*
X41286430Y-22180550D01*
X41302450Y-21129737D02*
X41365950Y-21193237D01*
X41365950Y-21129737D02*
X41302450Y-21193237D01*
X41302450Y-21306457D02*
X41365950Y-21369957D01*
X41365950Y-21306457D02*
X41302450Y-21369957D01*
X41316250Y-5813250D02*
X41379750Y-5876750D01*
X41379750Y-5813250D02*
X41316250Y-5876750D01*
X41405810Y-9323070D02*
X41469310Y-9386570D01*
X41469310Y-9323070D02*
X41405810Y-9386570D01*
X41405810Y-9538970D02*
X41469310Y-9602470D01*
X41469310Y-9538970D02*
X41405810Y-9602470D01*
X41547250Y-21674250D02*
X41610750Y-21737750D01*
X41610750Y-21674250D02*
X41547250Y-21737750D01*
X41683629Y-19755450D02*
X41747129Y-19818950D01*
X41747129Y-19755450D02*
X41683629Y-19818950D01*
X41776650Y-21809710D02*
X41840150Y-21873210D01*
X41840150Y-21809710D02*
X41776650Y-21873210D01*
X41819819Y-19830452D02*
X41883319Y-19893952D01*
X41883319Y-19830452D02*
X41819819Y-19893952D01*
X41860470Y-9356090D02*
X41923970Y-9419590D01*
X41923970Y-9356090D02*
X41860470Y-9419590D01*
X41860470Y-9528810D02*
X41923970Y-9592310D01*
X41923970Y-9528810D02*
X41860470Y-9592310D01*
X41929250Y-21162250D02*
X41992750Y-21225750D01*
X41992750Y-21162250D02*
X41929250Y-21225750D01*
X41935250Y-22310250D02*
X41998750Y-22373750D01*
X41998750Y-22310250D02*
X41935250Y-22373750D01*
X41959530Y-17438370D02*
X42023030Y-17501870D01*
X42023030Y-17438370D02*
X41959530Y-17501870D01*
X41968250Y-19111250D02*
X42031750Y-19174750D01*
X42031750Y-19111250D02*
X41968250Y-19174750D01*
X41968250Y-20923250D02*
X42031750Y-20986750D01*
X42031750Y-20923250D02*
X41968250Y-20986750D01*
X41969690Y-21822410D02*
X42033190Y-21885910D01*
X42033190Y-21822410D02*
X41969690Y-21885910D01*
X42020250Y-15844250D02*
X42083750Y-15907750D01*
X42083750Y-15844250D02*
X42020250Y-15907750D01*
X42050970Y-17115790D02*
X42114470Y-17179290D01*
X42114470Y-17115790D02*
X42050970Y-17179290D01*
X42120250Y-8926250D02*
X42183750Y-8989750D01*
X42183750Y-8926250D02*
X42120250Y-8989750D01*
X42122090Y-17611090D02*
X42185590Y-17674590D01*
X42185590Y-17611090D02*
X42122090Y-17674590D01*
X42131744Y-17248677D02*
X42195244Y-17312177D01*
X42195244Y-17248677D02*
X42131744Y-17312177D01*
X42274490Y-17778730D02*
X42337990Y-17842230D01*
X42337990Y-17778730D02*
X42274490Y-17842230D01*
X42355770Y-22975570D02*
X42419270Y-23039070D01*
X42419270Y-22975570D02*
X42355770Y-23039070D01*
X42365930Y-15883890D02*
X42429430Y-15947390D01*
X42429430Y-15883890D02*
X42365930Y-15947390D01*
X42367411Y-16471020D02*
X42430911Y-16534520D01*
X42430911Y-16471020D02*
X42367411Y-16534520D01*
X42393870Y-18459450D02*
X42457370Y-18522950D01*
X42457370Y-18459450D02*
X42393870Y-18522950D01*
X42487850Y-16117570D02*
X42551350Y-16181070D01*
X42551350Y-16117570D02*
X42487850Y-16181070D01*
X42599610Y-18449290D02*
X42663110Y-18512790D01*
X42663110Y-18449290D02*
X42599610Y-18512790D01*
X42617390Y-9295130D02*
X42680890Y-9358630D01*
X42680890Y-9295130D02*
X42617390Y-9358630D01*
X42617390Y-9650730D02*
X42680890Y-9714230D01*
X42680890Y-9650730D02*
X42617390Y-9714230D01*
X42670730Y-22114510D02*
X42734230Y-22178010D01*
X42734230Y-22114510D02*
X42670730Y-22178010D01*
X42726610Y-18670270D02*
X42790110Y-18733770D01*
X42790110Y-18670270D02*
X42726610Y-18733770D01*
X42746930Y-17789900D02*
X42810430Y-17853400D01*
X42810430Y-17789900D02*
X42746930Y-17853400D01*
X42904410Y-19818350D02*
X42967910Y-19881850D01*
X42967910Y-19818350D02*
X42904410Y-19881850D01*
X42904410Y-20245070D02*
X42967910Y-20308570D01*
X42967910Y-20245070D02*
X42904410Y-20308570D01*
X42972990Y-21322030D02*
X43036490Y-21385530D01*
X43036490Y-21322030D02*
X42972990Y-21385530D01*
X42980610Y-21933160D02*
X43044110Y-21996660D01*
X43044110Y-21933160D02*
X42980610Y-21996660D01*
X43016170Y-26414730D02*
X43079670Y-26478230D01*
X43079670Y-26414730D02*
X43016170Y-26478230D01*
X43158410Y-24055070D02*
X43221910Y-24118570D01*
X43221910Y-24055070D02*
X43158410Y-24118570D01*
X43205250Y-5831250D02*
X43268750Y-5894750D01*
X43268750Y-5831250D02*
X43205250Y-5894750D01*
X43364150Y-8990330D02*
X43427650Y-9053830D01*
X43427650Y-8990330D02*
X43364150Y-9053830D01*
X43364150Y-9897110D02*
X43427650Y-9960610D01*
X43427650Y-9897110D02*
X43364150Y-9960610D01*
X43453250Y-5725250D02*
X43516750Y-5788750D01*
X43516750Y-5725250D02*
X43453250Y-5788750D01*
X43610530Y-19038570D02*
X43674030Y-19102070D01*
X43674030Y-19038570D02*
X43610530Y-19102070D01*
X43613070Y-16546830D02*
X43676570Y-16610330D01*
X43676570Y-16546830D02*
X43613070Y-16610330D01*
X43663250Y-16096250D02*
X43726750Y-16159750D01*
X43726750Y-16096250D02*
X43663250Y-16159750D01*
X43722290Y-15825470D02*
X43785790Y-15888970D01*
X43785790Y-15825470D02*
X43722290Y-15888970D01*
X43723250Y-18489250D02*
X43786750Y-18552750D01*
X43786750Y-18489250D02*
X43723250Y-18552750D01*
X43745250Y-18716250D02*
X43808750Y-18779750D01*
X43808750Y-18716250D02*
X43745250Y-18779750D01*
X43773746Y-18304121D02*
X43837246Y-18367621D01*
X43837246Y-18304121D02*
X43773746Y-18367621D01*
X43848250Y-16508250D02*
X43911750Y-16571750D01*
X43911750Y-16508250D02*
X43848250Y-16571750D01*
X44048250Y-10956250D02*
X44111750Y-11019750D01*
X44111750Y-10956250D02*
X44048250Y-11019750D01*
X44050250Y-11737250D02*
X44113750Y-11800750D01*
X44113750Y-11737250D02*
X44050250Y-11800750D01*
X44265250Y-15498250D02*
X44328750Y-15561750D01*
X44328750Y-15498250D02*
X44265250Y-15561750D01*
X44499250Y-16555250D02*
X44562750Y-16618750D01*
X44562750Y-16555250D02*
X44499250Y-16618750D01*
X44655250Y-18204450D02*
X44718750Y-18267950D01*
X44718750Y-18204450D02*
X44655250Y-18267950D01*
X44667170Y-15673070D02*
X44730670Y-15736570D01*
X44730670Y-15673070D02*
X44667170Y-15736570D01*
X44667170Y-15947390D02*
X44730670Y-16010890D01*
X44730670Y-15947390D02*
X44667170Y-16010890D01*
X44761250Y-14796250D02*
X44824750Y-14859750D01*
X44824750Y-14796250D02*
X44761250Y-14859750D01*
X44887250Y-19309250D02*
X44950750Y-19372750D01*
X44950750Y-19309250D02*
X44887250Y-19372750D01*
X45032930Y-9554210D02*
X45096430Y-9617710D01*
X45096430Y-9554210D02*
X45032930Y-9617710D01*
X45032930Y-9805670D02*
X45096430Y-9869170D01*
X45096430Y-9805670D02*
X45032930Y-9869170D01*
X45335190Y-18916650D02*
X45398690Y-18980150D01*
X45398690Y-18916650D02*
X45335190Y-18980150D01*
X45347890Y-18439130D02*
X45411390Y-18502630D01*
X45411390Y-18439130D02*
X45347890Y-18502630D01*
X45485050Y-9848850D02*
X45548550Y-9912350D01*
X45548550Y-9848850D02*
X45485050Y-9912350D01*
X45487590Y-9579610D02*
X45551090Y-9643110D01*
X45551090Y-9579610D02*
X45487590Y-9643110D01*
X45496250Y-19351250D02*
X45559750Y-19414750D01*
X45559750Y-19351250D02*
X45496250Y-19414750D01*
X45637450Y-9579610D02*
X45700950Y-9643110D01*
X45700950Y-9579610D02*
X45637450Y-9643110D01*
X45637450Y-9851390D02*
X45700950Y-9914890D01*
X45700950Y-9851390D02*
X45637450Y-9914890D01*
X46087030Y-19036030D02*
X46150530Y-19099530D01*
X46150530Y-19036030D02*
X46087030Y-19099530D01*
X46094650Y-16531590D02*
X46158150Y-16595090D01*
X46158150Y-16531590D02*
X46094650Y-16595090D01*
X46164250Y-18515250D02*
X46227750Y-18578750D01*
X46227750Y-18515250D02*
X46164250Y-18578750D01*
X46188250Y-15998250D02*
X46251750Y-16061750D01*
X46251750Y-15998250D02*
X46188250Y-16061750D01*
X46256651Y-15800681D02*
X46320151Y-15864181D01*
X46320151Y-15800681D02*
X46256651Y-15864181D01*
X46259750Y-18317210D02*
X46323250Y-18380710D01*
X46323250Y-18317210D02*
X46259750Y-18380710D01*
X46271250Y-18674250D02*
X46334750Y-18737750D01*
X46334750Y-18674250D02*
X46271250Y-18737750D01*
X46287250Y-16183250D02*
X46350750Y-16246750D01*
X46350750Y-16183250D02*
X46287250Y-16246750D01*
X46664250Y-9581250D02*
X46727750Y-9644750D01*
X46727750Y-9581250D02*
X46664250Y-9644750D01*
X46949250Y-20076250D02*
X47012750Y-20139750D01*
X47012750Y-20076250D02*
X46949250Y-20139750D01*
X47036250Y-21656250D02*
X47099750Y-21719750D01*
X47099750Y-21656250D02*
X47036250Y-21719750D01*
X47147250Y-18359250D02*
X47210750Y-18422750D01*
X47210750Y-18359250D02*
X47147250Y-18422750D01*
X47154250Y-15895250D02*
X47217750Y-15958750D01*
X47217750Y-15895250D02*
X47154250Y-15958750D01*
X47349250Y-21190250D02*
X47412750Y-21253750D01*
X47412750Y-21190250D02*
X47349250Y-21253750D01*
D13*
X23272420Y-10703460D02*
G75*
G03*
X23272420Y-10703460I-45000J0D01*
G01*
X23276420Y-11155460D02*
G75*
G03*
X23276420Y-11155460I-45000J0D01*
G01*
X23281420Y-11615460D02*
G75*
G03*
X23281420Y-11615460I-45000J0D01*
G01*
X23281420Y-12065460D02*
G75*
G03*
X23281420Y-12065460I-45000J0D01*
G01*
X23281420Y-12515460D02*
G75*
G03*
X23281420Y-12515460I-45000J0D01*
G01*
X23281420Y-12965460D02*
G75*
G03*
X23281420Y-12965460I-45000J0D01*
G01*
X23281420Y-13415460D02*
G75*
G03*
X23281420Y-13415460I-45000J0D01*
G01*
X23281420Y-13865460D02*
G75*
G03*
X23281420Y-13865460I-45000J0D01*
G01*
X23281420Y-14315460D02*
G75*
G03*
X23281420Y-14315460I-45000J0D01*
G01*
X23281420Y-14765460D02*
G75*
G03*
X23281420Y-14765460I-45000J0D01*
G01*
X23281420Y-15215460D02*
G75*
G03*
X23281420Y-15215460I-45000J0D01*
G01*
X23281420Y-15665460D02*
G75*
G03*
X23281420Y-15665460I-45000J0D01*
G01*
X23281420Y-16115460D02*
G75*
G03*
X23281420Y-16115460I-45000J0D01*
G01*
X23281420Y-16565460D02*
G75*
G03*
X23281420Y-16565460I-45000J0D01*
G01*
X23281420Y-17015460D02*
G75*
G03*
X23281420Y-17015460I-45000J0D01*
G01*
X23526420Y-10703460D02*
G75*
G03*
X23526420Y-10703460I-45000J0D01*
G01*
X23530420Y-11155460D02*
G75*
G03*
X23530420Y-11155460I-45000J0D01*
G01*
X23535420Y-11615460D02*
G75*
G03*
X23535420Y-11615460I-45000J0D01*
G01*
X23535420Y-12065460D02*
G75*
G03*
X23535420Y-12065460I-45000J0D01*
G01*
X23535420Y-12515460D02*
G75*
G03*
X23535420Y-12515460I-45000J0D01*
G01*
X23535420Y-12965460D02*
G75*
G03*
X23535420Y-12965460I-45000J0D01*
G01*
X23535420Y-13415460D02*
G75*
G03*
X23535420Y-13415460I-45000J0D01*
G01*
X23535420Y-13865460D02*
G75*
G03*
X23535420Y-13865460I-45000J0D01*
G01*
X23535420Y-14315460D02*
G75*
G03*
X23535420Y-14315460I-45000J0D01*
G01*
X23535420Y-14765460D02*
G75*
G03*
X23535420Y-14765460I-45000J0D01*
G01*
X23535420Y-15215460D02*
G75*
G03*
X23535420Y-15215460I-45000J0D01*
G01*
X23535420Y-15665460D02*
G75*
G03*
X23535420Y-15665460I-45000J0D01*
G01*
X23535420Y-16115460D02*
G75*
G03*
X23535420Y-16115460I-45000J0D01*
G01*
X23535420Y-16565460D02*
G75*
G03*
X23535420Y-16565460I-45000J0D01*
G01*
X23535420Y-17015460D02*
G75*
G03*
X23535420Y-17015460I-45000J0D01*
G01*
X26684520Y-14312920D02*
G75*
G03*
X26684520Y-14312920I-45000J0D01*
G01*
X26684520Y-14762920D02*
G75*
G03*
X26684520Y-14762920I-45000J0D01*
G01*
X26684520Y-15212920D02*
G75*
G03*
X26684520Y-15212920I-45000J0D01*
G01*
X26684520Y-15662920D02*
G75*
G03*
X26684520Y-15662920I-45000J0D01*
G01*
X26684520Y-16112920D02*
G75*
G03*
X26684520Y-16112920I-45000J0D01*
G01*
X26684520Y-16562920D02*
G75*
G03*
X26684520Y-16562920I-45000J0D01*
G01*
X26684520Y-17012920D02*
G75*
G03*
X26684520Y-17012920I-45000J0D01*
G01*
X26687020Y-10713920D02*
G75*
G03*
X26687020Y-10713920I-45000J0D01*
G01*
X26687020Y-11163920D02*
G75*
G03*
X26687020Y-11163920I-45000J0D01*
G01*
X26687020Y-11613920D02*
G75*
G03*
X26687020Y-11613920I-45000J0D01*
G01*
X26687020Y-12063920D02*
G75*
G03*
X26687020Y-12063920I-45000J0D01*
G01*
X26687020Y-12513920D02*
G75*
G03*
X26687020Y-12513920I-45000J0D01*
G01*
X26687020Y-12963920D02*
G75*
G03*
X26687020Y-12963920I-45000J0D01*
G01*
X26687020Y-13413920D02*
G75*
G03*
X26687020Y-13413920I-45000J0D01*
G01*
X26687020Y-13863920D02*
G75*
G03*
X26687020Y-13863920I-45000J0D01*
G01*
X26938520Y-14312920D02*
G75*
G03*
X26938520Y-14312920I-45000J0D01*
G01*
X26938520Y-14762920D02*
G75*
G03*
X26938520Y-14762920I-45000J0D01*
G01*
X26938520Y-15212920D02*
G75*
G03*
X26938520Y-15212920I-45000J0D01*
G01*
X26938520Y-15662920D02*
G75*
G03*
X26938520Y-15662920I-45000J0D01*
G01*
X26938520Y-16112920D02*
G75*
G03*
X26938520Y-16112920I-45000J0D01*
G01*
X26938520Y-16562920D02*
G75*
G03*
X26938520Y-16562920I-45000J0D01*
G01*
X26938520Y-17012920D02*
G75*
G03*
X26938520Y-17012920I-45000J0D01*
G01*
X26941020Y-10713920D02*
G75*
G03*
X26941020Y-10713920I-45000J0D01*
G01*
X26941020Y-11163920D02*
G75*
G03*
X26941020Y-11163920I-45000J0D01*
G01*
X26941020Y-11613920D02*
G75*
G03*
X26941020Y-11613920I-45000J0D01*
G01*
X26941020Y-12063920D02*
G75*
G03*
X26941020Y-12063920I-45000J0D01*
G01*
X26941020Y-12513920D02*
G75*
G03*
X26941020Y-12513920I-45000J0D01*
G01*
X26941020Y-12963920D02*
G75*
G03*
X26941020Y-12963920I-45000J0D01*
G01*
X26941020Y-13413920D02*
G75*
G03*
X26941020Y-13413920I-45000J0D01*
G01*
X26941020Y-13863920D02*
G75*
G03*
X26941020Y-13863920I-45000J0D01*
G01*
X30077960Y-10712380D02*
G75*
G03*
X30077960Y-10712380I-45000J0D01*
G01*
X30077960Y-11161380D02*
G75*
G03*
X30077960Y-11161380I-45000J0D01*
G01*
X30077960Y-11611380D02*
G75*
G03*
X30077960Y-11611380I-45000J0D01*
G01*
X30077960Y-12061380D02*
G75*
G03*
X30077960Y-12061380I-45000J0D01*
G01*
X30077960Y-12511380D02*
G75*
G03*
X30077960Y-12511380I-45000J0D01*
G01*
X30077960Y-12961380D02*
G75*
G03*
X30077960Y-12961380I-45000J0D01*
G01*
X30077960Y-13411380D02*
G75*
G03*
X30077960Y-13411380I-45000J0D01*
G01*
X30077960Y-13861380D02*
G75*
G03*
X30077960Y-13861380I-45000J0D01*
G01*
X30077960Y-14310380D02*
G75*
G03*
X30077960Y-14310380I-45000J0D01*
G01*
X30077960Y-14760380D02*
G75*
G03*
X30077960Y-14760380I-45000J0D01*
G01*
X30077960Y-15210380D02*
G75*
G03*
X30077960Y-15210380I-45000J0D01*
G01*
X30077960Y-15660380D02*
G75*
G03*
X30077960Y-15660380I-45000J0D01*
G01*
X30077960Y-16110380D02*
G75*
G03*
X30077960Y-16110380I-45000J0D01*
G01*
X30077960Y-16560380D02*
G75*
G03*
X30077960Y-16560380I-45000J0D01*
G01*
X30077960Y-17010380D02*
G75*
G03*
X30077960Y-17010380I-45000J0D01*
G01*
X30331960Y-10712380D02*
G75*
G03*
X30331960Y-10712380I-45000J0D01*
G01*
X30331960Y-11161380D02*
G75*
G03*
X30331960Y-11161380I-45000J0D01*
G01*
X30331960Y-11611380D02*
G75*
G03*
X30331960Y-11611380I-45000J0D01*
G01*
X30331960Y-12061380D02*
G75*
G03*
X30331960Y-12061380I-45000J0D01*
G01*
X30331960Y-12511380D02*
G75*
G03*
X30331960Y-12511380I-45000J0D01*
G01*
X30331960Y-12961380D02*
G75*
G03*
X30331960Y-12961380I-45000J0D01*
G01*
X30331960Y-13411380D02*
G75*
G03*
X30331960Y-13411380I-45000J0D01*
G01*
X30331960Y-13861380D02*
G75*
G03*
X30331960Y-13861380I-45000J0D01*
G01*
X30331960Y-14310380D02*
G75*
G03*
X30331960Y-14310380I-45000J0D01*
G01*
X30331960Y-14760380D02*
G75*
G03*
X30331960Y-14760380I-45000J0D01*
G01*
X30331960Y-15210380D02*
G75*
G03*
X30331960Y-15210380I-45000J0D01*
G01*
X30331960Y-15660380D02*
G75*
G03*
X30331960Y-15660380I-45000J0D01*
G01*
X30331960Y-16110380D02*
G75*
G03*
X30331960Y-16110380I-45000J0D01*
G01*
X30331960Y-16560380D02*
G75*
G03*
X30331960Y-16560380I-45000J0D01*
G01*
X30331960Y-17010380D02*
G75*
G03*
X30331960Y-17010380I-45000J0D01*
G01*
X34091660Y-11127360D02*
G75*
G03*
X34091660Y-11127360I-45000J0D01*
G01*
X34091660Y-11577360D02*
G75*
G03*
X34091660Y-11577360I-45000J0D01*
G01*
X34091660Y-12027360D02*
G75*
G03*
X34091660Y-12027360I-45000J0D01*
G01*
X34091660Y-12477360D02*
G75*
G03*
X34091660Y-12477360I-45000J0D01*
G01*
X34091660Y-13377360D02*
G75*
G03*
X34091660Y-13377360I-45000J0D01*
G01*
X34091660Y-13827360D02*
G75*
G03*
X34091660Y-13827360I-45000J0D01*
G01*
X34091660Y-14277360D02*
G75*
G03*
X34091660Y-14277360I-45000J0D01*
G01*
X34091660Y-14727360D02*
G75*
G03*
X34091660Y-14727360I-45000J0D01*
G01*
X34091660Y-15177360D02*
G75*
G03*
X34091660Y-15177360I-45000J0D01*
G01*
X34091660Y-15627360D02*
G75*
G03*
X34091660Y-15627360I-45000J0D01*
G01*
X34091660Y-16077360D02*
G75*
G03*
X34091660Y-16077360I-45000J0D01*
G01*
X34091660Y-16527360D02*
G75*
G03*
X34091660Y-16527360I-45000J0D01*
G01*
X34091660Y-16977360D02*
G75*
G03*
X34091660Y-16977360I-45000J0D01*
G01*
X34092660Y-10677360D02*
G75*
G03*
X34092660Y-10677360I-45000J0D01*
G01*
X34093160Y-12927360D02*
G75*
G03*
X34093160Y-12927360I-45000J0D01*
G01*
X34345660Y-11127360D02*
G75*
G03*
X34345660Y-11127360I-45000J0D01*
G01*
X34345660Y-11577360D02*
G75*
G03*
X34345660Y-11577360I-45000J0D01*
G01*
X34345660Y-12027360D02*
G75*
G03*
X34345660Y-12027360I-45000J0D01*
G01*
X34345660Y-12477360D02*
G75*
G03*
X34345660Y-12477360I-45000J0D01*
G01*
X34345660Y-13377360D02*
G75*
G03*
X34345660Y-13377360I-45000J0D01*
G01*
X34345660Y-13827360D02*
G75*
G03*
X34345660Y-13827360I-45000J0D01*
G01*
X34345660Y-14277360D02*
G75*
G03*
X34345660Y-14277360I-45000J0D01*
G01*
X34345660Y-14727360D02*
G75*
G03*
X34345660Y-14727360I-45000J0D01*
G01*
X34345660Y-15177360D02*
G75*
G03*
X34345660Y-15177360I-45000J0D01*
G01*
X34345660Y-15627360D02*
G75*
G03*
X34345660Y-15627360I-45000J0D01*
G01*
X34345660Y-16077360D02*
G75*
G03*
X34345660Y-16077360I-45000J0D01*
G01*
X34345660Y-16527360D02*
G75*
G03*
X34345660Y-16527360I-45000J0D01*
G01*
X34345660Y-16977360D02*
G75*
G03*
X34345660Y-16977360I-45000J0D01*
G01*
X34346660Y-10677360D02*
G75*
G03*
X34346660Y-10677360I-45000J0D01*
G01*
X34347160Y-12927360D02*
G75*
G03*
X34347160Y-12927360I-45000J0D01*
G01*
X35681700Y-10667200D02*
G75*
G03*
X35681700Y-10667200I-45000J0D01*
G01*
X35681700Y-11117200D02*
G75*
G03*
X35681700Y-11117200I-45000J0D01*
G01*
X35681700Y-11567200D02*
G75*
G03*
X35681700Y-11567200I-45000J0D01*
G01*
X35681700Y-12017200D02*
G75*
G03*
X35681700Y-12017200I-45000J0D01*
G01*
X35681700Y-12467200D02*
G75*
G03*
X35681700Y-12467200I-45000J0D01*
G01*
X35681700Y-12917200D02*
G75*
G03*
X35681700Y-12917200I-45000J0D01*
G01*
X35681700Y-13367200D02*
G75*
G03*
X35681700Y-13367200I-45000J0D01*
G01*
X35681700Y-13817200D02*
G75*
G03*
X35681700Y-13817200I-45000J0D01*
G01*
X35681700Y-14267200D02*
G75*
G03*
X35681700Y-14267200I-45000J0D01*
G01*
X35681700Y-14717200D02*
G75*
G03*
X35681700Y-14717200I-45000J0D01*
G01*
X35681700Y-15167200D02*
G75*
G03*
X35681700Y-15167200I-45000J0D01*
G01*
X35681700Y-15617200D02*
G75*
G03*
X35681700Y-15617200I-45000J0D01*
G01*
X35681700Y-16067200D02*
G75*
G03*
X35681700Y-16067200I-45000J0D01*
G01*
X35681700Y-16517200D02*
G75*
G03*
X35681700Y-16517200I-45000J0D01*
G01*
X35681700Y-16967200D02*
G75*
G03*
X35681700Y-16967200I-45000J0D01*
G01*
X35935700Y-10667200D02*
G75*
G03*
X35935700Y-10667200I-45000J0D01*
G01*
X35935700Y-11117200D02*
G75*
G03*
X35935700Y-11117200I-45000J0D01*
G01*
X35935700Y-11567200D02*
G75*
G03*
X35935700Y-11567200I-45000J0D01*
G01*
X35935700Y-12017200D02*
G75*
G03*
X35935700Y-12017200I-45000J0D01*
G01*
X35935700Y-12467200D02*
G75*
G03*
X35935700Y-12467200I-45000J0D01*
G01*
X35935700Y-12917200D02*
G75*
G03*
X35935700Y-12917200I-45000J0D01*
G01*
X35935700Y-13367200D02*
G75*
G03*
X35935700Y-13367200I-45000J0D01*
G01*
X35935700Y-13817200D02*
G75*
G03*
X35935700Y-13817200I-45000J0D01*
G01*
X35935700Y-14267200D02*
G75*
G03*
X35935700Y-14267200I-45000J0D01*
G01*
X35935700Y-14717200D02*
G75*
G03*
X35935700Y-14717200I-45000J0D01*
G01*
X35935700Y-15167200D02*
G75*
G03*
X35935700Y-15167200I-45000J0D01*
G01*
X35935700Y-15617200D02*
G75*
G03*
X35935700Y-15617200I-45000J0D01*
G01*
X35935700Y-16067200D02*
G75*
G03*
X35935700Y-16067200I-45000J0D01*
G01*
X35935700Y-16517200D02*
G75*
G03*
X35935700Y-16517200I-45000J0D01*
G01*
X35935700Y-16967200D02*
G75*
G03*
X35935700Y-16967200I-45000J0D01*
G01*
D14*
X21655000Y-21047500D02*
X21655000Y-21142500D01*
X21607500Y-21095000D02*
X21702500Y-21095000D01*
X21655000Y-21297500D02*
X21655000Y-21392500D01*
X21607500Y-21345000D02*
X21702500Y-21345000D01*
X21655000Y-21547500D02*
X21655000Y-21642500D01*
X21607500Y-21595000D02*
X21702500Y-21595000D01*
X21655000Y-21797500D02*
X21655000Y-21892500D01*
X21607500Y-21845000D02*
X21702500Y-21845000D01*
X46675000Y-21077500D02*
X46675000Y-21172500D01*
X46627500Y-21125000D02*
X46722500Y-21125000D01*
X46675000Y-21327500D02*
X46675000Y-21422500D01*
X46627500Y-21375000D02*
X46722500Y-21375000D01*
X46675000Y-21577500D02*
X46675000Y-21672500D01*
X46627500Y-21625000D02*
X46722500Y-21625000D01*
X46675000Y-21827500D02*
X46675000Y-21922500D01*
X46627500Y-21875000D02*
X46722500Y-21875000D01*
D15*
X12980356Y-7582356D02*
X12980356Y-7511644D01*
X12909644Y-7511644D01*
X12909644Y-7582356D01*
X12980356Y-7582356D01*
X13230356Y-7582356D02*
X13230356Y-7511644D01*
X13159644Y-7511644D01*
X13159644Y-7582356D01*
X13230356Y-7582356D01*
X13480356Y-7582356D02*
X13480356Y-7511644D01*
X13409644Y-7511644D01*
X13409644Y-7582356D01*
X13480356Y-7582356D01*
X17182356Y-7583356D02*
X17182356Y-7512644D01*
X17111644Y-7512644D01*
X17111644Y-7583356D01*
X17182356Y-7583356D01*
X17185356Y-10688356D02*
X17185356Y-10617644D01*
X17114644Y-10617644D01*
X17114644Y-10688356D01*
X17185356Y-10688356D01*
X17185356Y-12138356D02*
X17185356Y-12067644D01*
X17114644Y-12067644D01*
X17114644Y-12138356D01*
X17185356Y-12138356D01*
X17432356Y-7583356D02*
X17432356Y-7512644D01*
X17361644Y-7512644D01*
X17361644Y-7583356D01*
X17432356Y-7583356D01*
X17435356Y-10688356D02*
X17435356Y-10617644D01*
X17364644Y-10617644D01*
X17364644Y-10688356D01*
X17435356Y-10688356D01*
X17682356Y-7583356D02*
X17682356Y-7512644D01*
X17611644Y-7512644D01*
X17611644Y-7583356D01*
X17682356Y-7583356D01*
X17685356Y-10688356D02*
X17685356Y-10617644D01*
X17614644Y-10617644D01*
X17614644Y-10688356D01*
X17685356Y-10688356D01*
X17685356Y-12138356D02*
X17685356Y-12067644D01*
X17614644Y-12067644D01*
X17614644Y-12138356D01*
X17685356Y-12138356D01*
X20471356Y-23265356D02*
X20471356Y-23194644D01*
X20400644Y-23194644D01*
X20400644Y-23265356D01*
X20471356Y-23265356D01*
X20474356Y-30355356D02*
X20474356Y-30284644D01*
X20403644Y-30284644D01*
X20403644Y-30355356D01*
X20474356Y-30355356D01*
X20725356Y-23265356D02*
X20725356Y-23194644D01*
X20654644Y-23194644D01*
X20654644Y-23265356D01*
X20725356Y-23265356D01*
X20979356Y-23265356D02*
X20979356Y-23194644D01*
X20908644Y-23194644D01*
X20908644Y-23265356D01*
X20979356Y-23265356D01*
X20982356Y-30355356D02*
X20982356Y-30284644D01*
X20911644Y-30284644D01*
X20911644Y-30355356D01*
X20982356Y-30355356D01*
X21233356Y-23265356D02*
X21233356Y-23194644D01*
X21162644Y-23194644D01*
X21162644Y-23265356D01*
X21233356Y-23265356D01*
X21271356Y-7581356D02*
X21271356Y-7510644D01*
X21200644Y-7510644D01*
X21200644Y-7581356D01*
X21271356Y-7581356D01*
X21521356Y-7581356D02*
X21521356Y-7510644D01*
X21450644Y-7510644D01*
X21450644Y-7581356D01*
X21521356Y-7581356D01*
X21771356Y-7581356D02*
X21771356Y-7510644D01*
X21700644Y-7510644D01*
X21700644Y-7581356D01*
X21771356Y-7581356D01*
X24544356Y-24872156D02*
X24544356Y-24801444D01*
X24473644Y-24801444D01*
X24473644Y-24872156D01*
X24544356Y-24872156D01*
X24555356Y-30358556D02*
X24555356Y-30287844D01*
X24484644Y-30287844D01*
X24484644Y-30358556D01*
X24555356Y-30358556D01*
X24680356Y-14368356D02*
X24680356Y-14297644D01*
X24609644Y-14297644D01*
X24609644Y-14368356D01*
X24680356Y-14368356D01*
X24681356Y-7572356D02*
X24681356Y-7501644D01*
X24610644Y-7501644D01*
X24610644Y-7572356D01*
X24681356Y-7572356D01*
X24683356Y-17777356D02*
X24683356Y-17706644D01*
X24612644Y-17706644D01*
X24612644Y-17777356D01*
X24683356Y-17777356D01*
X24684356Y-10973356D02*
X24684356Y-10902644D01*
X24613644Y-10902644D01*
X24613644Y-10973356D01*
X24684356Y-10973356D01*
X24686356Y-21270356D02*
X24686356Y-21199644D01*
X24615644Y-21199644D01*
X24615644Y-21270356D01*
X24686356Y-21270356D01*
X24798356Y-24872156D02*
X24798356Y-24801444D01*
X24727644Y-24801444D01*
X24727644Y-24872156D01*
X24798356Y-24872156D01*
X24930356Y-14368356D02*
X24930356Y-14297644D01*
X24859644Y-14297644D01*
X24859644Y-14368356D01*
X24930356Y-14368356D01*
X24931356Y-7572356D02*
X24931356Y-7501644D01*
X24860644Y-7501644D01*
X24860644Y-7572356D01*
X24931356Y-7572356D01*
X24933356Y-17777356D02*
X24933356Y-17706644D01*
X24862644Y-17706644D01*
X24862644Y-17777356D01*
X24933356Y-17777356D01*
X24934356Y-10973356D02*
X24934356Y-10902644D01*
X24863644Y-10902644D01*
X24863644Y-10973356D01*
X24934356Y-10973356D01*
X24936356Y-21270356D02*
X24936356Y-21199644D01*
X24865644Y-21199644D01*
X24865644Y-21270356D01*
X24936356Y-21270356D01*
X25052356Y-24872156D02*
X25052356Y-24801444D01*
X24981644Y-24801444D01*
X24981644Y-24872156D01*
X25052356Y-24872156D01*
X25063356Y-30358556D02*
X25063356Y-30287844D01*
X24992644Y-30287844D01*
X24992644Y-30358556D01*
X25063356Y-30358556D01*
X25180356Y-14368356D02*
X25180356Y-14297644D01*
X25109644Y-14297644D01*
X25109644Y-14368356D01*
X25180356Y-14368356D01*
X25181356Y-7572356D02*
X25181356Y-7501644D01*
X25110644Y-7501644D01*
X25110644Y-7572356D01*
X25181356Y-7572356D01*
X25183356Y-17777356D02*
X25183356Y-17706644D01*
X25112644Y-17706644D01*
X25112644Y-17777356D01*
X25183356Y-17777356D01*
X25184356Y-10973356D02*
X25184356Y-10902644D01*
X25113644Y-10902644D01*
X25113644Y-10973356D01*
X25184356Y-10973356D01*
X25186356Y-21270356D02*
X25186356Y-21199644D01*
X25115644Y-21199644D01*
X25115644Y-21270356D01*
X25186356Y-21270356D01*
X25306356Y-24872156D02*
X25306356Y-24801444D01*
X25235644Y-24801444D01*
X25235644Y-24872156D01*
X25306356Y-24872156D01*
X27952356Y-24879156D02*
X27952356Y-24808444D01*
X27881644Y-24808444D01*
X27881644Y-24879156D01*
X27952356Y-24879156D01*
X27963356Y-30365556D02*
X27963356Y-30294844D01*
X27892644Y-30294844D01*
X27892644Y-30365556D01*
X27963356Y-30365556D01*
X28082356Y-17781356D02*
X28082356Y-17710644D01*
X28011644Y-17710644D01*
X28011644Y-17781356D01*
X28082356Y-17781356D01*
X28084356Y-10975356D02*
X28084356Y-10904644D01*
X28013644Y-10904644D01*
X28013644Y-10975356D01*
X28084356Y-10975356D01*
X28085356Y-14378356D02*
X28085356Y-14307644D01*
X28014644Y-14307644D01*
X28014644Y-14378356D01*
X28085356Y-14378356D01*
X28085356Y-21290356D02*
X28085356Y-21219644D01*
X28014644Y-21219644D01*
X28014644Y-21290356D01*
X28085356Y-21290356D01*
X28086356Y-7579356D02*
X28086356Y-7508644D01*
X28015644Y-7508644D01*
X28015644Y-7579356D01*
X28086356Y-7579356D01*
X28206356Y-24879156D02*
X28206356Y-24808444D01*
X28135644Y-24808444D01*
X28135644Y-24879156D01*
X28206356Y-24879156D01*
X28332356Y-17781356D02*
X28332356Y-17710644D01*
X28261644Y-17710644D01*
X28261644Y-17781356D01*
X28332356Y-17781356D01*
X28334356Y-10975356D02*
X28334356Y-10904644D01*
X28263644Y-10904644D01*
X28263644Y-10975356D01*
X28334356Y-10975356D01*
X28335356Y-14378356D02*
X28335356Y-14307644D01*
X28264644Y-14307644D01*
X28264644Y-14378356D01*
X28335356Y-14378356D01*
X28335356Y-21290356D02*
X28335356Y-21219644D01*
X28264644Y-21219644D01*
X28264644Y-21290356D01*
X28335356Y-21290356D01*
X28336356Y-7579356D02*
X28336356Y-7508644D01*
X28265644Y-7508644D01*
X28265644Y-7579356D01*
X28336356Y-7579356D01*
X28460356Y-24879156D02*
X28460356Y-24808444D01*
X28389644Y-24808444D01*
X28389644Y-24879156D01*
X28460356Y-24879156D01*
X28471356Y-30365556D02*
X28471356Y-30294844D01*
X28400644Y-30294844D01*
X28400644Y-30365556D01*
X28471356Y-30365556D01*
X28582356Y-17781356D02*
X28582356Y-17710644D01*
X28511644Y-17710644D01*
X28511644Y-17781356D01*
X28582356Y-17781356D01*
X28584356Y-10975356D02*
X28584356Y-10904644D01*
X28513644Y-10904644D01*
X28513644Y-10975356D01*
X28584356Y-10975356D01*
X28585356Y-14378356D02*
X28585356Y-14307644D01*
X28514644Y-14307644D01*
X28514644Y-14378356D01*
X28585356Y-14378356D01*
X28585356Y-21290356D02*
X28585356Y-21219644D01*
X28514644Y-21219644D01*
X28514644Y-21290356D01*
X28585356Y-21290356D01*
X28586356Y-7579356D02*
X28586356Y-7508644D01*
X28515644Y-7508644D01*
X28515644Y-7579356D01*
X28586356Y-7579356D01*
X28714356Y-24879156D02*
X28714356Y-24808444D01*
X28643644Y-24808444D01*
X28643644Y-24879156D01*
X28714356Y-24879156D01*
X31341356Y-24867156D02*
X31341356Y-24796444D01*
X31270644Y-24796444D01*
X31270644Y-24867156D01*
X31341356Y-24867156D01*
X31352356Y-30353556D02*
X31352356Y-30282844D01*
X31281644Y-30282844D01*
X31281644Y-30353556D01*
X31352356Y-30353556D01*
X31485356Y-21280356D02*
X31485356Y-21209644D01*
X31414644Y-21209644D01*
X31414644Y-21280356D01*
X31485356Y-21280356D01*
X31486356Y-7573356D02*
X31486356Y-7502644D01*
X31415644Y-7502644D01*
X31415644Y-7573356D01*
X31486356Y-7573356D01*
X31486356Y-14378356D02*
X31486356Y-14307644D01*
X31415644Y-14307644D01*
X31415644Y-14378356D01*
X31486356Y-14378356D01*
X31495053Y-10975574D02*
X31495053Y-10904863D01*
X31424342Y-10904863D01*
X31424342Y-10975574D01*
X31495053Y-10975574D01*
X31495356Y-17775356D02*
X31495356Y-17704644D01*
X31424644Y-17704644D01*
X31424644Y-17775356D01*
X31495356Y-17775356D01*
X31595356Y-24867156D02*
X31595356Y-24796444D01*
X31524644Y-24796444D01*
X31524644Y-24867156D01*
X31595356Y-24867156D01*
X31735356Y-21280356D02*
X31735356Y-21209644D01*
X31664644Y-21209644D01*
X31664644Y-21280356D01*
X31735356Y-21280356D01*
X31736356Y-7573356D02*
X31736356Y-7502644D01*
X31665644Y-7502644D01*
X31665644Y-7573356D01*
X31736356Y-7573356D01*
X31736356Y-14378356D02*
X31736356Y-14307644D01*
X31665644Y-14307644D01*
X31665644Y-14378356D01*
X31736356Y-14378356D01*
X31745053Y-10975574D02*
X31745053Y-10904863D01*
X31674342Y-10904863D01*
X31674342Y-10975574D01*
X31745053Y-10975574D01*
X31745356Y-17775356D02*
X31745356Y-17704644D01*
X31674644Y-17704644D01*
X31674644Y-17775356D01*
X31745356Y-17775356D01*
X31849356Y-24867156D02*
X31849356Y-24796444D01*
X31778644Y-24796444D01*
X31778644Y-24867156D01*
X31849356Y-24867156D01*
X31860356Y-30353556D02*
X31860356Y-30282844D01*
X31789644Y-30282844D01*
X31789644Y-30353556D01*
X31860356Y-30353556D01*
X31985356Y-21280356D02*
X31985356Y-21209644D01*
X31914644Y-21209644D01*
X31914644Y-21280356D01*
X31985356Y-21280356D01*
X31986356Y-7573356D02*
X31986356Y-7502644D01*
X31915644Y-7502644D01*
X31915644Y-7573356D01*
X31986356Y-7573356D01*
X31986356Y-14378356D02*
X31986356Y-14307644D01*
X31915644Y-14307644D01*
X31915644Y-14378356D01*
X31986356Y-14378356D01*
X31995053Y-10975574D02*
X31995053Y-10904863D01*
X31924342Y-10904863D01*
X31924342Y-10975574D01*
X31995053Y-10975574D01*
X31995356Y-17775356D02*
X31995356Y-17704644D01*
X31924644Y-17704644D01*
X31924644Y-17775356D01*
X31995356Y-17775356D01*
X32103356Y-24867156D02*
X32103356Y-24796444D01*
X32032644Y-24796444D01*
X32032644Y-24867156D01*
X32103356Y-24867156D01*
X34685356Y-9200157D02*
X34685356Y-9129446D01*
X34614644Y-9129446D01*
X34614644Y-9200157D01*
X34685356Y-9200157D01*
X34688356Y-25739356D02*
X34688356Y-25668644D01*
X34617644Y-25668644D01*
X34617644Y-25739356D01*
X34688356Y-25739356D01*
X34691356Y-29039356D02*
X34691356Y-28968644D01*
X34620644Y-28968644D01*
X34620644Y-29039356D01*
X34691356Y-29039356D01*
X34935356Y-9200157D02*
X34935356Y-9129446D01*
X34864644Y-9129446D01*
X34864644Y-9200157D01*
X34935356Y-9200157D01*
X34938356Y-25739356D02*
X34938356Y-25668644D01*
X34867644Y-25668644D01*
X34867644Y-25739356D01*
X34938356Y-25739356D01*
X34941356Y-29039356D02*
X34941356Y-28968644D01*
X34870644Y-28968644D01*
X34870644Y-29039356D01*
X34941356Y-29039356D01*
X35185356Y-9200157D02*
X35185356Y-9129446D01*
X35114644Y-9129446D01*
X35114644Y-9200157D01*
X35185356Y-9200157D01*
X35188356Y-25739356D02*
X35188356Y-25668644D01*
X35117644Y-25668644D01*
X35117644Y-25739356D01*
X35188356Y-25739356D01*
X35191356Y-29039356D02*
X35191356Y-28968644D01*
X35120644Y-28968644D01*
X35120644Y-29039356D01*
X35191356Y-29039356D01*
X37984356Y-7573356D02*
X37984356Y-7502644D01*
X37913644Y-7502644D01*
X37913644Y-7573356D01*
X37984356Y-7573356D01*
X38234356Y-7573356D02*
X38234356Y-7502644D01*
X38163644Y-7502644D01*
X38163644Y-7573356D01*
X38234356Y-7573356D01*
X38484356Y-7573356D02*
X38484356Y-7502644D01*
X38413644Y-7502644D01*
X38413644Y-7573356D01*
X38484356Y-7573356D01*
X42184356Y-10740356D02*
X42184356Y-10669644D01*
X42113644Y-10669644D01*
X42113644Y-10740356D01*
X42184356Y-10740356D01*
X42184356Y-12190356D02*
X42184356Y-12119644D01*
X42113644Y-12119644D01*
X42113644Y-12190356D01*
X42184356Y-12190356D01*
X42186356Y-7574356D02*
X42186356Y-7503644D01*
X42115644Y-7503644D01*
X42115644Y-7574356D01*
X42186356Y-7574356D01*
X42434356Y-12190356D02*
X42434356Y-12119644D01*
X42363644Y-12119644D01*
X42363644Y-12190356D01*
X42434356Y-12190356D01*
X42436356Y-7574356D02*
X42436356Y-7503644D01*
X42365644Y-7503644D01*
X42365644Y-7574356D01*
X42436356Y-7574356D01*
X42684356Y-10740356D02*
X42684356Y-10669644D01*
X42613644Y-10669644D01*
X42613644Y-10740356D01*
X42684356Y-10740356D01*
X42684356Y-12190356D02*
X42684356Y-12119644D01*
X42613644Y-12119644D01*
X42613644Y-12190356D01*
X42684356Y-12190356D01*
X42686356Y-7574356D02*
X42686356Y-7503644D01*
X42615644Y-7503644D01*
X42615644Y-7574356D01*
X42686356Y-7574356D01*
X45464356Y-23257356D02*
X45464356Y-23186644D01*
X45393644Y-23186644D01*
X45393644Y-23257356D01*
X45464356Y-23257356D01*
X45467356Y-30347356D02*
X45467356Y-30276644D01*
X45396644Y-30276644D01*
X45396644Y-30347356D01*
X45467356Y-30347356D01*
X45718356Y-23257356D02*
X45718356Y-23186644D01*
X45647644Y-23186644D01*
X45647644Y-23257356D01*
X45718356Y-23257356D01*
X45972356Y-23257356D02*
X45972356Y-23186644D01*
X45901644Y-23186644D01*
X45901644Y-23257356D01*
X45972356Y-23257356D01*
X45975356Y-30347356D02*
X45975356Y-30276644D01*
X45904644Y-30276644D01*
X45904644Y-30347356D01*
X45975356Y-30347356D01*
X46226356Y-23257356D02*
X46226356Y-23186644D01*
X46155644Y-23186644D01*
X46155644Y-23257356D01*
X46226356Y-23257356D01*
X46282356Y-7568356D02*
X46282356Y-7497644D01*
X46211644Y-7497644D01*
X46211644Y-7568356D01*
X46282356Y-7568356D01*
X46532356Y-7568356D02*
X46532356Y-7497644D01*
X46461644Y-7497644D01*
X46461644Y-7568356D01*
X46532356Y-7568356D01*
X46782356Y-7568356D02*
X46782356Y-7497644D01*
X46711644Y-7497644D01*
X46711644Y-7568356D01*
X46782356Y-7568356D01*
D16*
X39995750Y-7482300D02*
X40046550Y-7431500D01*
X39995750Y-7380700D01*
X39944950Y-7431500D01*
X39995750Y-7482300D01*
X39995750Y-7736300D02*
X40046550Y-7685500D01*
X39995750Y-7634700D01*
X39944950Y-7685500D01*
X39995750Y-7736300D01*
X39995750Y-7990300D02*
X40046550Y-7939500D01*
X39995750Y-7888700D01*
X39944950Y-7939500D01*
X39995750Y-7990300D01*
X39995750Y-8244300D02*
X40046550Y-8193500D01*
X39995750Y-8142700D01*
X39944950Y-8193500D01*
X39995750Y-8244300D01*
X39995750Y-8498300D02*
X40046550Y-8447500D01*
X39995750Y-8396700D01*
X39944950Y-8447500D01*
X39995750Y-8498300D01*
X39995750Y-8752300D02*
X40046550Y-8701500D01*
X39995750Y-8650700D01*
X39944950Y-8701500D01*
X39995750Y-8752300D01*
X39995750Y-9006300D02*
X40046550Y-8955500D01*
X39995750Y-8904700D01*
X39944950Y-8955500D01*
X39995750Y-9006300D01*
X39995750Y-9260300D02*
X40046550Y-9209500D01*
X39995750Y-9158700D01*
X39944950Y-9209500D01*
X39995750Y-9260300D01*
X39995750Y-9768300D02*
X40046550Y-9717500D01*
X39995750Y-9666700D01*
X39944950Y-9717500D01*
X39995750Y-9768300D01*
X39995750Y-10022300D02*
X40046550Y-9971500D01*
X39995750Y-9920700D01*
X39944950Y-9971500D01*
X39995750Y-10022300D01*
X39995750Y-10276300D02*
X40046550Y-10225500D01*
X39995750Y-10174700D01*
X39944950Y-10225500D01*
X39995750Y-10276300D01*
X39995750Y-10530300D02*
X40046550Y-10479500D01*
X39995750Y-10428700D01*
X39944950Y-10479500D01*
X39995750Y-10530300D01*
X39995750Y-10784300D02*
X40046550Y-10733500D01*
X39995750Y-10682700D01*
X39944950Y-10733500D01*
X39995750Y-10784300D01*
X39995750Y-11038300D02*
X40046550Y-10987500D01*
X39995750Y-10936700D01*
X39944950Y-10987500D01*
X39995750Y-11038300D01*
X39995750Y-11292300D02*
X40046550Y-11241500D01*
X39995750Y-11190700D01*
X39944950Y-11241500D01*
X39995750Y-11292300D01*
X39995750Y-11546300D02*
X40046550Y-11495500D01*
X39995750Y-11444700D01*
X39944950Y-11495500D01*
X39995750Y-11546300D01*
X39995750Y-12054300D02*
X40046550Y-12003500D01*
X39995750Y-11952700D01*
X39944950Y-12003500D01*
X39995750Y-12054300D01*
X39995750Y-12308300D02*
X40046550Y-12257500D01*
X39995750Y-12206700D01*
X39944950Y-12257500D01*
X39995750Y-12308300D01*
X39995750Y-12562300D02*
X40046550Y-12511500D01*
X39995750Y-12460700D01*
X39944950Y-12511500D01*
X39995750Y-12562300D01*
X39995750Y-12816300D02*
X40046550Y-12765500D01*
X39995750Y-12714700D01*
X39944950Y-12765500D01*
X39995750Y-12816300D01*
X39995750Y-13070300D02*
X40046550Y-13019500D01*
X39995750Y-12968700D01*
X39944950Y-13019500D01*
X39995750Y-13070300D01*
X39995750Y-13324300D02*
X40046550Y-13273500D01*
X39995750Y-13222700D01*
X39944950Y-13273500D01*
X39995750Y-13324300D01*
X39995750Y-13578300D02*
X40046550Y-13527500D01*
X39995750Y-13476700D01*
X39944950Y-13527500D01*
X39995750Y-13578300D01*
X39995750Y-13832300D02*
X40046550Y-13781500D01*
X39995750Y-13730700D01*
X39944950Y-13781500D01*
X39995750Y-13832300D01*
X40503750Y-14086300D02*
X40554550Y-14035500D01*
X40503750Y-13984700D01*
X40452950Y-14035500D01*
X40503750Y-14086300D01*
X40503750Y-14340300D02*
X40554550Y-14289500D01*
X40503750Y-14238700D01*
X40452950Y-14289500D01*
X40503750Y-14340300D01*
X40757750Y-14086300D02*
X40808550Y-14035500D01*
X40757750Y-13984700D01*
X40706950Y-14035500D01*
X40757750Y-14086300D01*
X40757750Y-14340300D02*
X40808550Y-14289500D01*
X40757750Y-14238700D01*
X40706950Y-14289500D01*
X40757750Y-14340300D01*
X41011750Y-14086300D02*
X41062550Y-14035500D01*
X41011750Y-13984700D01*
X40960950Y-14035500D01*
X41011750Y-14086300D01*
X41011750Y-14340300D02*
X41062550Y-14289500D01*
X41011750Y-14238700D01*
X40960950Y-14289500D01*
X41011750Y-14340300D01*
X41265750Y-14086300D02*
X41316550Y-14035500D01*
X41265750Y-13984700D01*
X41214950Y-14035500D01*
X41265750Y-14086300D01*
X41265750Y-14340300D02*
X41316550Y-14289500D01*
X41265750Y-14238700D01*
X41214950Y-14289500D01*
X41265750Y-14340300D01*
X41519750Y-14086300D02*
X41570550Y-14035500D01*
X41519750Y-13984700D01*
X41468950Y-14035500D01*
X41519750Y-14086300D01*
X41519750Y-14340300D02*
X41570550Y-14289500D01*
X41519750Y-14238700D01*
X41468950Y-14289500D01*
X41519750Y-14340300D01*
X41773750Y-14086300D02*
X41824550Y-14035500D01*
X41773750Y-13984700D01*
X41722950Y-14035500D01*
X41773750Y-14086300D01*
X41773750Y-14340300D02*
X41824550Y-14289500D01*
X41773750Y-14238700D01*
X41722950Y-14289500D01*
X41773750Y-14340300D01*
X42027750Y-14086300D02*
X42078550Y-14035500D01*
X42027750Y-13984700D01*
X41976950Y-14035500D01*
X42027750Y-14086300D01*
X42027750Y-14340300D02*
X42078550Y-14289500D01*
X42027750Y-14238700D01*
X41976950Y-14289500D01*
X42027750Y-14340300D01*
X42281750Y-14086300D02*
X42332550Y-14035500D01*
X42281750Y-13984700D01*
X42230950Y-14035500D01*
X42281750Y-14086300D01*
X42281750Y-14340300D02*
X42332550Y-14289500D01*
X42281750Y-14238700D01*
X42230950Y-14289500D01*
X42281750Y-14340300D01*
X42535750Y-14086300D02*
X42586550Y-14035500D01*
X42535750Y-13984700D01*
X42484950Y-14035500D01*
X42535750Y-14086300D01*
X42535750Y-14340300D02*
X42586550Y-14289500D01*
X42535750Y-14238700D01*
X42484950Y-14289500D01*
X42535750Y-14340300D01*
X42789750Y-14086300D02*
X42840550Y-14035500D01*
X42789750Y-13984700D01*
X42738950Y-14035500D01*
X42789750Y-14086300D01*
X42789750Y-14340300D02*
X42840550Y-14289500D01*
X42789750Y-14238700D01*
X42738950Y-14289500D01*
X42789750Y-14340300D01*
X43043750Y-14086300D02*
X43094550Y-14035500D01*
X43043750Y-13984700D01*
X42992950Y-14035500D01*
X43043750Y-14086300D01*
X43043750Y-14340300D02*
X43094550Y-14289500D01*
X43043750Y-14238700D01*
X42992950Y-14289500D01*
X43043750Y-14340300D01*
X43297750Y-14086300D02*
X43348550Y-14035500D01*
X43297750Y-13984700D01*
X43246950Y-14035500D01*
X43297750Y-14086300D01*
X43297750Y-14340300D02*
X43348550Y-14289500D01*
X43297750Y-14238700D01*
X43246950Y-14289500D01*
X43297750Y-14340300D01*
X43551750Y-14086300D02*
X43602550Y-14035500D01*
X43551750Y-13984700D01*
X43500950Y-14035500D01*
X43551750Y-14086300D01*
X43551750Y-14340300D02*
X43602550Y-14289500D01*
X43551750Y-14238700D01*
X43500950Y-14289500D01*
X43551750Y-14340300D01*
X43805750Y-14086300D02*
X43856550Y-14035500D01*
X43805750Y-13984700D01*
X43754950Y-14035500D01*
X43805750Y-14086300D01*
X43805750Y-14340300D02*
X43856550Y-14289500D01*
X43805750Y-14238700D01*
X43754950Y-14289500D01*
X43805750Y-14340300D01*
X44059750Y-14086300D02*
X44110550Y-14035500D01*
X44059750Y-13984700D01*
X44008950Y-14035500D01*
X44059750Y-14086300D01*
X44059750Y-14340300D02*
X44110550Y-14289500D01*
X44059750Y-14238700D01*
X44008950Y-14289500D01*
X44059750Y-14340300D01*
X44313750Y-14086300D02*
X44364550Y-14035500D01*
X44313750Y-13984700D01*
X44262950Y-14035500D01*
X44313750Y-14086300D01*
X44313750Y-14340300D02*
X44364550Y-14289500D01*
X44313750Y-14238700D01*
X44262950Y-14289500D01*
X44313750Y-14340300D01*
X44567750Y-14086300D02*
X44618550Y-14035500D01*
X44567750Y-13984700D01*
X44516950Y-14035500D01*
X44567750Y-14086300D01*
X44567750Y-14340300D02*
X44618550Y-14289500D01*
X44567750Y-14238700D01*
X44516950Y-14289500D01*
X44567750Y-14340300D01*
X44821750Y-6567900D02*
X44872550Y-6517100D01*
X44821750Y-6466300D01*
X44770950Y-6517100D01*
X44821750Y-6567900D01*
X44821750Y-6821900D02*
X44872550Y-6771100D01*
X44821750Y-6720300D01*
X44770950Y-6771100D01*
X44821750Y-6821900D01*
X44821750Y-7075900D02*
X44872550Y-7025100D01*
X44821750Y-6974300D01*
X44770950Y-7025100D01*
X44821750Y-7075900D01*
X44821750Y-7329900D02*
X44872550Y-7279100D01*
X44821750Y-7228300D01*
X44770950Y-7279100D01*
X44821750Y-7329900D01*
X44821750Y-7583900D02*
X44872550Y-7533100D01*
X44821750Y-7482300D01*
X44770950Y-7533100D01*
X44821750Y-7583900D01*
X44821750Y-7837900D02*
X44872550Y-7787100D01*
X44821750Y-7736300D01*
X44770950Y-7787100D01*
X44821750Y-7837900D01*
X44821750Y-8091900D02*
X44872550Y-8041100D01*
X44821750Y-7990300D01*
X44770950Y-8041100D01*
X44821750Y-8091900D01*
X44821750Y-8345900D02*
X44872550Y-8295100D01*
X44821750Y-8244300D01*
X44770950Y-8295100D01*
X44821750Y-8345900D01*
X44821750Y-8599900D02*
X44872550Y-8549100D01*
X44821750Y-8498300D01*
X44770950Y-8549100D01*
X44821750Y-8599900D01*
X44821750Y-8853900D02*
X44872550Y-8803100D01*
X44821750Y-8752300D01*
X44770950Y-8803100D01*
X44821750Y-8853900D01*
X44821750Y-9260300D02*
X44872550Y-9209500D01*
X44821750Y-9158700D01*
X44770950Y-9209500D01*
X44821750Y-9260300D01*
X44821750Y-9514300D02*
X44872550Y-9463500D01*
X44821750Y-9412700D01*
X44770950Y-9463500D01*
X44821750Y-9514300D01*
X44821750Y-9768300D02*
X44872550Y-9717500D01*
X44821750Y-9666700D01*
X44770950Y-9717500D01*
X44821750Y-9768300D01*
X44821750Y-10022300D02*
X44872550Y-9971500D01*
X44821750Y-9920700D01*
X44770950Y-9971500D01*
X44821750Y-10022300D01*
X44821750Y-10276300D02*
X44872550Y-10225500D01*
X44821750Y-10174700D01*
X44770950Y-10225500D01*
X44821750Y-10276300D01*
X44821750Y-10530300D02*
X44872550Y-10479500D01*
X44821750Y-10428700D01*
X44770950Y-10479500D01*
X44821750Y-10530300D01*
X44821750Y-10784300D02*
X44872550Y-10733500D01*
X44821750Y-10682700D01*
X44770950Y-10733500D01*
X44821750Y-10784300D01*
X44821750Y-11038300D02*
X44872550Y-10987500D01*
X44821750Y-10936700D01*
X44770950Y-10987500D01*
X44821750Y-11038300D01*
X44821750Y-11546300D02*
X44872550Y-11495500D01*
X44821750Y-11444700D01*
X44770950Y-11495500D01*
X44821750Y-11546300D01*
X44821750Y-11800300D02*
X44872550Y-11749500D01*
X44821750Y-11698700D01*
X44770950Y-11749500D01*
X44821750Y-11800300D01*
X44821750Y-12054300D02*
X44872550Y-12003500D01*
X44821750Y-11952700D01*
X44770950Y-12003500D01*
X44821750Y-12054300D01*
X44821750Y-12308300D02*
X44872550Y-12257500D01*
X44821750Y-12206700D01*
X44770950Y-12257500D01*
X44821750Y-12308300D01*
X44821750Y-12562300D02*
X44872550Y-12511500D01*
X44821750Y-12460700D01*
X44770950Y-12511500D01*
X44821750Y-12562300D01*
X44821750Y-12816300D02*
X44872550Y-12765500D01*
X44821750Y-12714700D01*
X44770950Y-12765500D01*
X44821750Y-12816300D01*
X44821750Y-13070300D02*
X44872550Y-13019500D01*
X44821750Y-12968700D01*
X44770950Y-13019500D01*
X44821750Y-13070300D01*
X44821750Y-13324300D02*
X44872550Y-13273500D01*
X44821750Y-13222700D01*
X44770950Y-13273500D01*
X44821750Y-13324300D01*
X44821750Y-14086300D02*
X44872550Y-14035500D01*
X44821750Y-13984700D01*
X44770950Y-14035500D01*
X44821750Y-14086300D01*
X44821750Y-14340300D02*
X44872550Y-14289500D01*
X44821750Y-14238700D01*
X44770950Y-14289500D01*
X44821750Y-14340300D01*
D17*
X20742000Y-24105000D02*
X20892000Y-24255000D01*
X20892000Y-24105000D02*
X20742000Y-24255000D01*
X20892000Y-24180000D02*
G75*
G03*
X20892000Y-24180000I-75000J0D01*
G01*
X20742000Y-29155000D02*
X20892000Y-29305000D01*
X20892000Y-29155000D02*
X20742000Y-29305000D01*
X20892000Y-29230000D02*
G75*
G03*
X20892000Y-29230000I-75000J0D01*
G01*
X24815000Y-25855000D02*
X24965000Y-26005000D01*
X24965000Y-25855000D02*
X24815000Y-26005000D01*
X24965000Y-25930000D02*
G75*
G03*
X24965000Y-25930000I-75000J0D01*
G01*
X24815000Y-29155000D02*
X24965000Y-29305000D01*
X24965000Y-29155000D02*
X24815000Y-29305000D01*
X24965000Y-29230000D02*
G75*
G03*
X24965000Y-29230000I-75000J0D01*
G01*
X28223000Y-25862000D02*
X28373000Y-26012000D01*
X28373000Y-25862000D02*
X28223000Y-26012000D01*
X28373000Y-25937000D02*
G75*
G03*
X28373000Y-25937000I-75000J0D01*
G01*
X28223000Y-29162000D02*
X28373000Y-29312000D01*
X28373000Y-29162000D02*
X28223000Y-29312000D01*
X28373000Y-29237000D02*
G75*
G03*
X28373000Y-29237000I-75000J0D01*
G01*
X31612000Y-25850000D02*
X31762000Y-26000000D01*
X31762000Y-25850000D02*
X31612000Y-26000000D01*
X31762000Y-25925000D02*
G75*
G03*
X31762000Y-25925000I-75000J0D01*
G01*
X31612000Y-29150000D02*
X31762000Y-29300000D01*
X31762000Y-29150000D02*
X31612000Y-29300000D01*
X31762000Y-29225000D02*
G75*
G03*
X31762000Y-29225000I-75000J0D01*
G01*
X45735000Y-24097000D02*
X45885000Y-24247000D01*
X45885000Y-24097000D02*
X45735000Y-24247000D01*
X45885000Y-24172000D02*
G75*
G03*
X45885000Y-24172000I-75000J0D01*
G01*
X45735000Y-29147000D02*
X45885000Y-29297000D01*
X45885000Y-29147000D02*
X45735000Y-29297000D01*
X45885000Y-29222000D02*
G75*
G03*
X45885000Y-29222000I-75000J0D01*
G01*
D18*
X16710000Y-11273000D02*
X16970000Y-11533000D01*
X16970000Y-11273000D02*
X16710000Y-11533000D01*
X16840000Y-11273000D02*
X16840000Y-11533000D01*
X16710000Y-11403000D02*
X16970000Y-11403000D01*
X17830000Y-11273000D02*
X18090000Y-11533000D01*
X18090000Y-11273000D02*
X17830000Y-11533000D01*
X17960000Y-11273000D02*
X17960000Y-11533000D01*
X17830000Y-11403000D02*
X18090000Y-11403000D01*
X41709000Y-11275000D02*
X41969000Y-11535000D01*
X41969000Y-11275000D02*
X41709000Y-11535000D01*
X41839000Y-11275000D02*
X41839000Y-11535000D01*
X41709000Y-11405000D02*
X41969000Y-11405000D01*
X42829000Y-11275000D02*
X43089000Y-11535000D01*
X43089000Y-11275000D02*
X42829000Y-11535000D01*
X42959000Y-11275000D02*
X42959000Y-11535000D01*
X42829000Y-11405000D02*
X43089000Y-11405000D01*
D19*
X12340000Y-30340000D02*
X12660000Y-30660000D01*
X12660000Y-30340000D02*
X12340000Y-30660000D01*
X12613138Y-30613138D02*
X12613138Y-30386862D01*
X12386862Y-30386862D01*
X12386862Y-30613138D01*
X12613138Y-30613138D01*
X12360000Y-5570000D02*
X12680000Y-5890000D01*
X12680000Y-5570000D02*
X12360000Y-5890000D01*
X12633138Y-5843138D02*
X12633138Y-5616862D01*
X12406862Y-5616862D01*
X12406862Y-5843138D01*
X12633138Y-5843138D01*
X13276600Y-14445000D02*
X13596600Y-14765000D01*
X13596600Y-14445000D02*
X13276600Y-14765000D01*
X13549738Y-14718138D02*
X13549738Y-14491862D01*
X13323462Y-14491862D01*
X13323462Y-14718138D01*
X13549738Y-14718138D01*
X19779000Y-10127000D02*
X20099000Y-10447000D01*
X20099000Y-10127000D02*
X19779000Y-10447000D01*
X20052138Y-10400138D02*
X20052138Y-10173862D01*
X19825862Y-10173862D01*
X19825862Y-10400138D01*
X20052138Y-10400138D01*
X22242800Y-26230600D02*
X22562800Y-26550600D01*
X22562800Y-26230600D02*
X22242800Y-26550600D01*
X22515938Y-26503738D02*
X22515938Y-26277462D01*
X22289662Y-26277462D01*
X22289662Y-26503738D01*
X22515938Y-26503738D01*
X23360400Y-18686800D02*
X23680400Y-19006800D01*
X23680400Y-18686800D02*
X23360400Y-19006800D01*
X23633538Y-18959938D02*
X23633538Y-18733662D01*
X23407262Y-18733662D01*
X23407262Y-18959938D01*
X23633538Y-18959938D01*
X32809200Y-18839200D02*
X33129200Y-19159200D01*
X33129200Y-18839200D02*
X32809200Y-19159200D01*
X33082338Y-19112338D02*
X33082338Y-18886062D01*
X32856062Y-18886062D01*
X32856062Y-19112338D01*
X33082338Y-19112338D01*
X35704800Y-6748800D02*
X36024800Y-7068800D01*
X36024800Y-6748800D02*
X35704800Y-7068800D01*
X35977938Y-7021938D02*
X35977938Y-6795662D01*
X35751662Y-6795662D01*
X35751662Y-7021938D01*
X35977938Y-7021938D01*
X36543000Y-26230600D02*
X36863000Y-26550600D01*
X36863000Y-26230600D02*
X36543000Y-26550600D01*
X36816138Y-26503738D02*
X36816138Y-26277462D01*
X36589862Y-26277462D01*
X36589862Y-26503738D01*
X36816138Y-26503738D01*
X46220400Y-12082800D02*
X46540400Y-12402800D01*
X46540400Y-12082800D02*
X46220400Y-12402800D01*
X46493538Y-12355938D02*
X46493538Y-12129662D01*
X46267262Y-12129662D01*
X46267262Y-12355938D01*
X46493538Y-12355938D01*
X47140000Y-5540000D02*
X47460000Y-5860000D01*
X47460000Y-5540000D02*
X47140000Y-5860000D01*
X47413138Y-5813138D02*
X47413138Y-5586862D01*
X47186862Y-5586862D01*
X47186862Y-5813138D01*
X47413138Y-5813138D01*
X47140000Y-30340000D02*
X47460000Y-30660000D01*
X47460000Y-30340000D02*
X47140000Y-30660000D01*
X47413138Y-30613138D02*
X47413138Y-30386862D01*
X47186862Y-30386862D01*
X47186862Y-30613138D01*
X47413138Y-30613138D01*
D11*
X12655000Y-6747000D02*
X12855000Y-6947000D01*
X12855000Y-6747000D02*
X12655000Y-6947000D01*
X12755000Y-6947000D02*
X12855000Y-6847000D01*
X12755000Y-6747000D01*
X12655000Y-6847000D01*
X12755000Y-6947000D01*
X13535000Y-6747000D02*
X13735000Y-6947000D01*
X13735000Y-6747000D02*
X13535000Y-6947000D01*
X13635000Y-6947000D02*
X13735000Y-6847000D01*
X13635000Y-6747000D01*
X13535000Y-6847000D01*
X13635000Y-6947000D01*
X16857000Y-6748000D02*
X17057000Y-6948000D01*
X17057000Y-6748000D02*
X16857000Y-6948000D01*
X16957000Y-6948000D02*
X17057000Y-6848000D01*
X16957000Y-6748000D01*
X16857000Y-6848000D01*
X16957000Y-6948000D01*
X17737000Y-6748000D02*
X17937000Y-6948000D01*
X17937000Y-6748000D02*
X17737000Y-6948000D01*
X17837000Y-6948000D02*
X17937000Y-6848000D01*
X17837000Y-6748000D01*
X17737000Y-6848000D01*
X17837000Y-6948000D01*
X20946000Y-6746000D02*
X21146000Y-6946000D01*
X21146000Y-6746000D02*
X20946000Y-6946000D01*
X21046000Y-6946000D02*
X21146000Y-6846000D01*
X21046000Y-6746000D01*
X20946000Y-6846000D01*
X21046000Y-6946000D01*
X21826000Y-6746000D02*
X22026000Y-6946000D01*
X22026000Y-6746000D02*
X21826000Y-6946000D01*
X21926000Y-6946000D02*
X22026000Y-6846000D01*
X21926000Y-6746000D01*
X21826000Y-6846000D01*
X21926000Y-6946000D01*
X24355000Y-13533000D02*
X24555000Y-13733000D01*
X24555000Y-13533000D02*
X24355000Y-13733000D01*
X24455000Y-13733000D02*
X24555000Y-13633000D01*
X24455000Y-13533000D01*
X24355000Y-13633000D01*
X24455000Y-13733000D01*
X24356000Y-6737000D02*
X24556000Y-6937000D01*
X24556000Y-6737000D02*
X24356000Y-6937000D01*
X24456000Y-6937000D02*
X24556000Y-6837000D01*
X24456000Y-6737000D01*
X24356000Y-6837000D01*
X24456000Y-6937000D01*
X24358000Y-16942000D02*
X24558000Y-17142000D01*
X24558000Y-16942000D02*
X24358000Y-17142000D01*
X24458000Y-17142000D02*
X24558000Y-17042000D01*
X24458000Y-16942000D01*
X24358000Y-17042000D01*
X24458000Y-17142000D01*
X24359000Y-10138000D02*
X24559000Y-10338000D01*
X24559000Y-10138000D02*
X24359000Y-10338000D01*
X24459000Y-10338000D02*
X24559000Y-10238000D01*
X24459000Y-10138000D01*
X24359000Y-10238000D01*
X24459000Y-10338000D01*
X24361000Y-20435000D02*
X24561000Y-20635000D01*
X24561000Y-20435000D02*
X24361000Y-20635000D01*
X24461000Y-20635000D02*
X24561000Y-20535000D01*
X24461000Y-20435000D01*
X24361000Y-20535000D01*
X24461000Y-20635000D01*
X25235000Y-13533000D02*
X25435000Y-13733000D01*
X25435000Y-13533000D02*
X25235000Y-13733000D01*
X25335000Y-13733000D02*
X25435000Y-13633000D01*
X25335000Y-13533000D01*
X25235000Y-13633000D01*
X25335000Y-13733000D01*
X25236000Y-6737000D02*
X25436000Y-6937000D01*
X25436000Y-6737000D02*
X25236000Y-6937000D01*
X25336000Y-6937000D02*
X25436000Y-6837000D01*
X25336000Y-6737000D01*
X25236000Y-6837000D01*
X25336000Y-6937000D01*
X25238000Y-16942000D02*
X25438000Y-17142000D01*
X25438000Y-16942000D02*
X25238000Y-17142000D01*
X25338000Y-17142000D02*
X25438000Y-17042000D01*
X25338000Y-16942000D01*
X25238000Y-17042000D01*
X25338000Y-17142000D01*
X25239000Y-10138000D02*
X25439000Y-10338000D01*
X25439000Y-10138000D02*
X25239000Y-10338000D01*
X25339000Y-10338000D02*
X25439000Y-10238000D01*
X25339000Y-10138000D01*
X25239000Y-10238000D01*
X25339000Y-10338000D01*
X25241000Y-20435000D02*
X25441000Y-20635000D01*
X25441000Y-20435000D02*
X25241000Y-20635000D01*
X25341000Y-20635000D02*
X25441000Y-20535000D01*
X25341000Y-20435000D01*
X25241000Y-20535000D01*
X25341000Y-20635000D01*
X27757000Y-16946000D02*
X27957000Y-17146000D01*
X27957000Y-16946000D02*
X27757000Y-17146000D01*
X27857000Y-17146000D02*
X27957000Y-17046000D01*
X27857000Y-16946000D01*
X27757000Y-17046000D01*
X27857000Y-17146000D01*
X27759000Y-10140000D02*
X27959000Y-10340000D01*
X27959000Y-10140000D02*
X27759000Y-10340000D01*
X27859000Y-10340000D02*
X27959000Y-10240000D01*
X27859000Y-10140000D01*
X27759000Y-10240000D01*
X27859000Y-10340000D01*
X27760000Y-13543000D02*
X27960000Y-13743000D01*
X27960000Y-13543000D02*
X27760000Y-13743000D01*
X27860000Y-13743000D02*
X27960000Y-13643000D01*
X27860000Y-13543000D01*
X27760000Y-13643000D01*
X27860000Y-13743000D01*
X27760000Y-20455000D02*
X27960000Y-20655000D01*
X27960000Y-20455000D02*
X27760000Y-20655000D01*
X27860000Y-20655000D02*
X27960000Y-20555000D01*
X27860000Y-20455000D01*
X27760000Y-20555000D01*
X27860000Y-20655000D01*
X27761000Y-6744000D02*
X27961000Y-6944000D01*
X27961000Y-6744000D02*
X27761000Y-6944000D01*
X27861000Y-6944000D02*
X27961000Y-6844000D01*
X27861000Y-6744000D01*
X27761000Y-6844000D01*
X27861000Y-6944000D01*
X28637000Y-16946000D02*
X28837000Y-17146000D01*
X28837000Y-16946000D02*
X28637000Y-17146000D01*
X28737000Y-17146000D02*
X28837000Y-17046000D01*
X28737000Y-16946000D01*
X28637000Y-17046000D01*
X28737000Y-17146000D01*
X28639000Y-10140000D02*
X28839000Y-10340000D01*
X28839000Y-10140000D02*
X28639000Y-10340000D01*
X28739000Y-10340000D02*
X28839000Y-10240000D01*
X28739000Y-10140000D01*
X28639000Y-10240000D01*
X28739000Y-10340000D01*
X28640000Y-13543000D02*
X28840000Y-13743000D01*
X28840000Y-13543000D02*
X28640000Y-13743000D01*
X28740000Y-13743000D02*
X28840000Y-13643000D01*
X28740000Y-13543000D01*
X28640000Y-13643000D01*
X28740000Y-13743000D01*
X28640000Y-20455000D02*
X28840000Y-20655000D01*
X28840000Y-20455000D02*
X28640000Y-20655000D01*
X28740000Y-20655000D02*
X28840000Y-20555000D01*
X28740000Y-20455000D01*
X28640000Y-20555000D01*
X28740000Y-20655000D01*
X28641000Y-6744000D02*
X28841000Y-6944000D01*
X28841000Y-6744000D02*
X28641000Y-6944000D01*
X28741000Y-6944000D02*
X28841000Y-6844000D01*
X28741000Y-6744000D01*
X28641000Y-6844000D01*
X28741000Y-6944000D01*
X31160000Y-20445000D02*
X31360000Y-20645000D01*
X31360000Y-20445000D02*
X31160000Y-20645000D01*
X31260000Y-20645000D02*
X31360000Y-20545000D01*
X31260000Y-20445000D01*
X31160000Y-20545000D01*
X31260000Y-20645000D01*
X31161000Y-6738000D02*
X31361000Y-6938000D01*
X31361000Y-6738000D02*
X31161000Y-6938000D01*
X31261000Y-6938000D02*
X31361000Y-6838000D01*
X31261000Y-6738000D01*
X31161000Y-6838000D01*
X31261000Y-6938000D01*
X31161000Y-13543000D02*
X31361000Y-13743000D01*
X31361000Y-13543000D02*
X31161000Y-13743000D01*
X31261000Y-13743000D02*
X31361000Y-13643000D01*
X31261000Y-13543000D01*
X31161000Y-13643000D01*
X31261000Y-13743000D01*
X31169697Y-10140219D02*
X31369697Y-10340219D01*
X31369697Y-10140219D02*
X31169697Y-10340219D01*
X31269697Y-10340219D02*
X31369697Y-10240219D01*
X31269697Y-10140219D01*
X31169697Y-10240219D01*
X31269697Y-10340219D01*
X31170000Y-16940000D02*
X31370000Y-17140000D01*
X31370000Y-16940000D02*
X31170000Y-17140000D01*
X31270000Y-17140000D02*
X31370000Y-17040000D01*
X31270000Y-16940000D01*
X31170000Y-17040000D01*
X31270000Y-17140000D01*
X32040000Y-20445000D02*
X32240000Y-20645000D01*
X32240000Y-20445000D02*
X32040000Y-20645000D01*
X32140000Y-20645000D02*
X32240000Y-20545000D01*
X32140000Y-20445000D01*
X32040000Y-20545000D01*
X32140000Y-20645000D01*
X32041000Y-6738000D02*
X32241000Y-6938000D01*
X32241000Y-6738000D02*
X32041000Y-6938000D01*
X32141000Y-6938000D02*
X32241000Y-6838000D01*
X32141000Y-6738000D01*
X32041000Y-6838000D01*
X32141000Y-6938000D01*
X32041000Y-13543000D02*
X32241000Y-13743000D01*
X32241000Y-13543000D02*
X32041000Y-13743000D01*
X32141000Y-13743000D02*
X32241000Y-13643000D01*
X32141000Y-13543000D01*
X32041000Y-13643000D01*
X32141000Y-13743000D01*
X32049697Y-10140219D02*
X32249697Y-10340219D01*
X32249697Y-10140219D02*
X32049697Y-10340219D01*
X32149697Y-10340219D02*
X32249697Y-10240219D01*
X32149697Y-10140219D01*
X32049697Y-10240219D01*
X32149697Y-10340219D01*
X32050000Y-16940000D02*
X32250000Y-17140000D01*
X32250000Y-16940000D02*
X32050000Y-17140000D01*
X32150000Y-17140000D02*
X32250000Y-17040000D01*
X32150000Y-16940000D01*
X32050000Y-17040000D01*
X32150000Y-17140000D01*
X34360000Y-8364801D02*
X34560000Y-8564801D01*
X34560000Y-8364801D02*
X34360000Y-8564801D01*
X34460000Y-8564801D02*
X34560000Y-8464801D01*
X34460000Y-8364801D01*
X34360000Y-8464801D01*
X34460000Y-8564801D01*
X34363000Y-24904000D02*
X34563000Y-25104000D01*
X34563000Y-24904000D02*
X34363000Y-25104000D01*
X34463000Y-25104000D02*
X34563000Y-25004000D01*
X34463000Y-24904000D01*
X34363000Y-25004000D01*
X34463000Y-25104000D01*
X34366000Y-28204000D02*
X34566000Y-28404000D01*
X34566000Y-28204000D02*
X34366000Y-28404000D01*
X34466000Y-28404000D02*
X34566000Y-28304000D01*
X34466000Y-28204000D01*
X34366000Y-28304000D01*
X34466000Y-28404000D01*
X35240000Y-8364801D02*
X35440000Y-8564801D01*
X35440000Y-8364801D02*
X35240000Y-8564801D01*
X35340000Y-8564801D02*
X35440000Y-8464801D01*
X35340000Y-8364801D01*
X35240000Y-8464801D01*
X35340000Y-8564801D01*
X35243000Y-24904000D02*
X35443000Y-25104000D01*
X35443000Y-24904000D02*
X35243000Y-25104000D01*
X35343000Y-25104000D02*
X35443000Y-25004000D01*
X35343000Y-24904000D01*
X35243000Y-25004000D01*
X35343000Y-25104000D01*
X35246000Y-28204000D02*
X35446000Y-28404000D01*
X35446000Y-28204000D02*
X35246000Y-28404000D01*
X35346000Y-28404000D02*
X35446000Y-28304000D01*
X35346000Y-28204000D01*
X35246000Y-28304000D01*
X35346000Y-28404000D01*
X37659000Y-6738000D02*
X37859000Y-6938000D01*
X37859000Y-6738000D02*
X37659000Y-6938000D01*
X37759000Y-6938000D02*
X37859000Y-6838000D01*
X37759000Y-6738000D01*
X37659000Y-6838000D01*
X37759000Y-6938000D01*
X38539000Y-6738000D02*
X38739000Y-6938000D01*
X38739000Y-6738000D02*
X38539000Y-6938000D01*
X38639000Y-6938000D02*
X38739000Y-6838000D01*
X38639000Y-6738000D01*
X38539000Y-6838000D01*
X38639000Y-6938000D01*
X41861000Y-6739000D02*
X42061000Y-6939000D01*
X42061000Y-6739000D02*
X41861000Y-6939000D01*
X41961000Y-6939000D02*
X42061000Y-6839000D01*
X41961000Y-6739000D01*
X41861000Y-6839000D01*
X41961000Y-6939000D01*
X42741000Y-6739000D02*
X42941000Y-6939000D01*
X42941000Y-6739000D02*
X42741000Y-6939000D01*
X42841000Y-6939000D02*
X42941000Y-6839000D01*
X42841000Y-6739000D01*
X42741000Y-6839000D01*
X42841000Y-6939000D01*
X45957000Y-6733000D02*
X46157000Y-6933000D01*
X46157000Y-6733000D02*
X45957000Y-6933000D01*
X46057000Y-6933000D02*
X46157000Y-6833000D01*
X46057000Y-6733000D01*
X45957000Y-6833000D01*
X46057000Y-6933000D01*
X46837000Y-6733000D02*
X47037000Y-6933000D01*
X47037000Y-6733000D02*
X46837000Y-6933000D01*
X46937000Y-6933000D02*
X47037000Y-6833000D01*
X46937000Y-6733000D01*
X46837000Y-6833000D01*
X46937000Y-6933000D01*
D19*
X13702000Y-17300000D02*
X13702000Y-17620000D01*
X13542000Y-17460000D02*
X13862000Y-17460000D01*
X13862000Y-17460000D02*
G75*
G03*
X13862000Y-17460000I-160000J0D01*
G01*
X14952000Y-16049000D02*
X14952000Y-16369000D01*
X14792000Y-16209000D02*
X15112000Y-16209000D01*
X15112000Y-16209000D02*
G75*
G03*
X15112000Y-16209000I-160000J0D01*
G01*
X14952000Y-18547000D02*
X14952000Y-18867000D01*
X14792000Y-18707000D02*
X15112000Y-18707000D01*
X15112000Y-18707000D02*
G75*
G03*
X15112000Y-18707000I-160000J0D01*
G01*
X16202000Y-17298000D02*
X16202000Y-17618000D01*
X16042000Y-17458000D02*
X16362000Y-17458000D01*
X16362000Y-17458000D02*
G75*
G03*
X16362000Y-17458000I-160000J0D01*
G01*
X18698000Y-17298000D02*
X18698000Y-17618000D01*
X18538000Y-17458000D02*
X18858000Y-17458000D01*
X18858000Y-17458000D02*
G75*
G03*
X18858000Y-17458000I-160000J0D01*
G01*
X19947000Y-16048000D02*
X19947000Y-16368000D01*
X19787000Y-16208000D02*
X20107000Y-16208000D01*
X20107000Y-16208000D02*
G75*
G03*
X20107000Y-16208000I-160000J0D01*
G01*
X19949000Y-18546000D02*
X19949000Y-18866000D01*
X19789000Y-18706000D02*
X20109000Y-18706000D01*
X20109000Y-18706000D02*
G75*
G03*
X20109000Y-18706000I-160000J0D01*
G01*
X21198000Y-17297000D02*
X21198000Y-17617000D01*
X21038000Y-17457000D02*
X21358000Y-17457000D01*
X21358000Y-17457000D02*
G75*
G03*
X21358000Y-17457000I-160000J0D01*
G01*
X38756000Y-17303000D02*
X38756000Y-17623000D01*
X38596000Y-17463000D02*
X38916000Y-17463000D01*
X38916000Y-17463000D02*
G75*
G03*
X38916000Y-17463000I-160000J0D01*
G01*
X40005000Y-16052000D02*
X40005000Y-16372000D01*
X39845000Y-16212000D02*
X40165000Y-16212000D01*
X40165000Y-16212000D02*
G75*
G03*
X40165000Y-16212000I-160000J0D01*
G01*
X40006000Y-18549000D02*
X40006000Y-18869000D01*
X39846000Y-18709000D02*
X40166000Y-18709000D01*
X40166000Y-18709000D02*
G75*
G03*
X40166000Y-18709000I-160000J0D01*
G01*
X41255000Y-17302000D02*
X41255000Y-17622000D01*
X41095000Y-17462000D02*
X41415000Y-17462000D01*
X41415000Y-17462000D02*
G75*
G03*
X41415000Y-17462000I-160000J0D01*
G01*
X43751000Y-17301000D02*
X43751000Y-17621000D01*
X43591000Y-17461000D02*
X43911000Y-17461000D01*
X43911000Y-17461000D02*
G75*
G03*
X43911000Y-17461000I-160000J0D01*
G01*
X45000000Y-16050000D02*
X45000000Y-16370000D01*
X44840000Y-16210000D02*
X45160000Y-16210000D01*
X45160000Y-16210000D02*
G75*
G03*
X45160000Y-16210000I-160000J0D01*
G01*
X45002000Y-18549000D02*
X45002000Y-18869000D01*
X44842000Y-18709000D02*
X45162000Y-18709000D01*
X45162000Y-18709000D02*
G75*
G03*
X45162000Y-18709000I-160000J0D01*
G01*
X46251000Y-17299000D02*
X46251000Y-17619000D01*
X46091000Y-17459000D02*
X46411000Y-17459000D01*
X46411000Y-17459000D02*
G75*
G03*
X46411000Y-17459000I-160000J0D01*
G01*
D11*
X12150119Y-31417976D02*
X12150119Y-31217976D01*
X12197738Y-31217976D01*
X12226309Y-31227500D01*
X12245357Y-31246548D01*
X12254881Y-31265595D01*
X12264405Y-31303690D01*
X12264405Y-31332262D01*
X12254881Y-31370357D01*
X12245357Y-31389405D01*
X12226309Y-31408452D01*
X12197738Y-31417976D01*
X12150119Y-31417976D01*
X12350119Y-31417976D02*
X12350119Y-31284643D01*
X12350119Y-31322738D02*
X12359643Y-31303690D01*
X12369167Y-31294167D01*
X12388214Y-31284643D01*
X12407262Y-31284643D01*
X12473928Y-31417976D02*
X12473928Y-31284643D01*
X12473928Y-31217976D02*
X12464405Y-31227500D01*
X12473928Y-31237024D01*
X12483452Y-31227500D01*
X12473928Y-31217976D01*
X12473928Y-31237024D01*
X12597738Y-31417976D02*
X12578690Y-31408452D01*
X12569167Y-31389405D01*
X12569167Y-31217976D01*
X12702500Y-31417976D02*
X12683452Y-31408452D01*
X12673928Y-31389405D01*
X12673928Y-31217976D01*
X12931071Y-31417976D02*
X12931071Y-31217976D01*
X12997738Y-31360833D01*
X13064405Y-31217976D01*
X13064405Y-31417976D01*
X13245357Y-31417976D02*
X13245357Y-31313214D01*
X13235833Y-31294167D01*
X13216786Y-31284643D01*
X13178690Y-31284643D01*
X13159643Y-31294167D01*
X13245357Y-31408452D02*
X13226309Y-31417976D01*
X13178690Y-31417976D01*
X13159643Y-31408452D01*
X13150119Y-31389405D01*
X13150119Y-31370357D01*
X13159643Y-31351309D01*
X13178690Y-31341786D01*
X13226309Y-31341786D01*
X13245357Y-31332262D01*
X13340595Y-31284643D02*
X13340595Y-31484643D01*
X13340595Y-31294167D02*
X13359643Y-31284643D01*
X13397738Y-31284643D01*
X13416786Y-31294167D01*
X13426309Y-31303690D01*
X13435833Y-31322738D01*
X13435833Y-31379881D01*
X13426309Y-31398928D01*
X13416786Y-31408452D01*
X13397738Y-31417976D01*
X13359643Y-31417976D01*
X13340595Y-31408452D01*
X13521548Y-31398928D02*
X13531071Y-31408452D01*
X13521548Y-31417976D01*
X13512024Y-31408452D01*
X13521548Y-31398928D01*
X13521548Y-31417976D01*
X13521548Y-31294167D02*
X13531071Y-31303690D01*
X13521548Y-31313214D01*
X13512024Y-31303690D01*
X13521548Y-31294167D01*
X13521548Y-31313214D01*
D12*
X11829000Y-31715750D02*
X11892500Y-31779250D01*
X11892500Y-31715750D02*
X11829000Y-31779250D01*
D11*
X12188214Y-31637976D02*
X12207262Y-31637976D01*
X12226309Y-31647500D01*
X12235833Y-31657024D01*
X12245357Y-31676071D01*
X12254881Y-31714167D01*
X12254881Y-31761786D01*
X12245357Y-31799881D01*
X12235833Y-31818928D01*
X12226309Y-31828452D01*
X12207262Y-31837976D01*
X12188214Y-31837976D01*
X12169167Y-31828452D01*
X12159643Y-31818928D01*
X12150119Y-31799881D01*
X12140595Y-31761786D01*
X12140595Y-31714167D01*
X12150119Y-31676071D01*
X12159643Y-31657024D01*
X12169167Y-31647500D01*
X12188214Y-31637976D01*
X12340595Y-31818928D02*
X12350119Y-31828452D01*
X12340595Y-31837976D01*
X12331071Y-31828452D01*
X12340595Y-31818928D01*
X12340595Y-31837976D01*
X12521548Y-31637976D02*
X12483452Y-31637976D01*
X12464405Y-31647500D01*
X12454881Y-31657024D01*
X12435833Y-31685595D01*
X12426309Y-31723690D01*
X12426309Y-31799881D01*
X12435833Y-31818928D01*
X12445357Y-31828452D01*
X12464405Y-31837976D01*
X12502500Y-31837976D01*
X12521548Y-31828452D01*
X12531071Y-31818928D01*
X12540595Y-31799881D01*
X12540595Y-31752262D01*
X12531071Y-31733214D01*
X12521548Y-31723690D01*
X12502500Y-31714167D01*
X12464405Y-31714167D01*
X12445357Y-31723690D01*
X12435833Y-31733214D01*
X12426309Y-31752262D01*
X12607262Y-31637976D02*
X12731071Y-31637976D01*
X12664405Y-31714167D01*
X12692976Y-31714167D01*
X12712024Y-31723690D01*
X12721548Y-31733214D01*
X12731071Y-31752262D01*
X12731071Y-31799881D01*
X12721548Y-31818928D01*
X12712024Y-31828452D01*
X12692976Y-31837976D01*
X12635833Y-31837976D01*
X12616786Y-31828452D01*
X12607262Y-31818928D01*
X12912024Y-31637976D02*
X12816786Y-31637976D01*
X12807262Y-31733214D01*
X12816786Y-31723690D01*
X12835833Y-31714167D01*
X12883452Y-31714167D01*
X12902500Y-31723690D01*
X12912024Y-31733214D01*
X12921548Y-31752262D01*
X12921548Y-31799881D01*
X12912024Y-31818928D01*
X12902500Y-31828452D01*
X12883452Y-31837976D01*
X12835833Y-31837976D01*
X12816786Y-31828452D01*
X12807262Y-31818928D01*
X13007262Y-31837976D02*
X13007262Y-31704643D01*
X13007262Y-31723690D02*
X13016786Y-31714167D01*
X13035833Y-31704643D01*
X13064405Y-31704643D01*
X13083452Y-31714167D01*
X13092976Y-31733214D01*
X13092976Y-31837976D01*
X13092976Y-31733214D02*
X13102500Y-31714167D01*
X13121548Y-31704643D01*
X13150119Y-31704643D01*
X13169167Y-31714167D01*
X13178690Y-31733214D01*
X13178690Y-31837976D01*
X13273928Y-31837976D02*
X13273928Y-31704643D01*
X13273928Y-31723690D02*
X13283452Y-31714167D01*
X13302500Y-31704643D01*
X13331071Y-31704643D01*
X13350119Y-31714167D01*
X13359643Y-31733214D01*
X13359643Y-31837976D01*
X13359643Y-31733214D02*
X13369167Y-31714167D01*
X13388214Y-31704643D01*
X13416786Y-31704643D01*
X13435833Y-31714167D01*
X13445357Y-31733214D01*
X13445357Y-31837976D01*
X13835833Y-31628452D02*
X13664405Y-31885595D01*
X14092976Y-31637976D02*
X14112024Y-31637976D01*
X14131071Y-31647500D01*
X14140595Y-31657024D01*
X14150119Y-31676071D01*
X14159643Y-31714167D01*
X14159643Y-31761786D01*
X14150119Y-31799881D01*
X14140595Y-31818928D01*
X14131071Y-31828452D01*
X14112024Y-31837976D01*
X14092976Y-31837976D01*
X14073928Y-31828452D01*
X14064405Y-31818928D01*
X14054881Y-31799881D01*
X14045357Y-31761786D01*
X14045357Y-31714167D01*
X14054881Y-31676071D01*
X14064405Y-31657024D01*
X14073928Y-31647500D01*
X14092976Y-31637976D01*
X14245357Y-31818928D02*
X14254881Y-31828452D01*
X14245357Y-31837976D01*
X14235833Y-31828452D01*
X14245357Y-31818928D01*
X14245357Y-31837976D01*
X14378690Y-31637976D02*
X14397738Y-31637976D01*
X14416786Y-31647500D01*
X14426309Y-31657024D01*
X14435833Y-31676071D01*
X14445357Y-31714167D01*
X14445357Y-31761786D01*
X14435833Y-31799881D01*
X14426309Y-31818928D01*
X14416786Y-31828452D01*
X14397738Y-31837976D01*
X14378690Y-31837976D01*
X14359643Y-31828452D01*
X14350119Y-31818928D01*
X14340595Y-31799881D01*
X14331071Y-31761786D01*
X14331071Y-31714167D01*
X14340595Y-31676071D01*
X14350119Y-31657024D01*
X14359643Y-31647500D01*
X14378690Y-31637976D01*
X14521548Y-31657024D02*
X14531071Y-31647500D01*
X14550119Y-31637976D01*
X14597738Y-31637976D01*
X14616786Y-31647500D01*
X14626309Y-31657024D01*
X14635833Y-31676071D01*
X14635833Y-31695119D01*
X14626309Y-31723690D01*
X14512024Y-31837976D01*
X14635833Y-31837976D01*
X14816786Y-31637976D02*
X14721548Y-31637976D01*
X14712024Y-31733214D01*
X14721548Y-31723690D01*
X14740595Y-31714167D01*
X14788214Y-31714167D01*
X14807262Y-31723690D01*
X14816786Y-31733214D01*
X14826309Y-31752262D01*
X14826309Y-31799881D01*
X14816786Y-31818928D01*
X14807262Y-31828452D01*
X14788214Y-31837976D01*
X14740595Y-31837976D01*
X14721548Y-31828452D01*
X14712024Y-31818928D01*
X14950119Y-31637976D02*
X14969167Y-31637976D01*
X14988214Y-31647500D01*
X14997738Y-31657024D01*
X15007262Y-31676071D01*
X15016786Y-31714167D01*
X15016786Y-31761786D01*
X15007262Y-31799881D01*
X14997738Y-31818928D01*
X14988214Y-31828452D01*
X14969167Y-31837976D01*
X14950119Y-31837976D01*
X14931071Y-31828452D01*
X14921548Y-31818928D01*
X14912024Y-31799881D01*
X14902500Y-31761786D01*
X14902500Y-31714167D01*
X14912024Y-31676071D01*
X14921548Y-31657024D01*
X14931071Y-31647500D01*
X14950119Y-31637976D01*
X15092976Y-31637976D02*
X15092976Y-31676071D01*
X15169167Y-31637976D02*
X15169167Y-31676071D01*
X15464405Y-31914167D02*
X15454881Y-31904643D01*
X15435833Y-31876071D01*
X15426309Y-31857024D01*
X15416786Y-31828452D01*
X15407262Y-31780833D01*
X15407262Y-31742738D01*
X15416786Y-31695119D01*
X15426309Y-31666548D01*
X15435833Y-31647500D01*
X15454881Y-31618928D01*
X15464405Y-31609405D01*
X15626309Y-31704643D02*
X15626309Y-31837976D01*
X15578690Y-31628452D02*
X15531071Y-31771309D01*
X15654881Y-31771309D01*
X15826309Y-31637976D02*
X15731071Y-31637976D01*
X15721548Y-31733214D01*
X15731071Y-31723690D01*
X15750119Y-31714167D01*
X15797738Y-31714167D01*
X15816786Y-31723690D01*
X15826309Y-31733214D01*
X15835833Y-31752262D01*
X15835833Y-31799881D01*
X15826309Y-31818928D01*
X15816786Y-31828452D01*
X15797738Y-31837976D01*
X15750119Y-31837976D01*
X15731071Y-31828452D01*
X15721548Y-31818928D01*
X15931071Y-31837976D02*
X15969167Y-31837976D01*
X15988214Y-31828452D01*
X15997738Y-31818928D01*
X16016786Y-31790357D01*
X16026309Y-31752262D01*
X16026309Y-31676071D01*
X16016786Y-31657024D01*
X16007262Y-31647500D01*
X15988214Y-31637976D01*
X15950119Y-31637976D01*
X15931071Y-31647500D01*
X15921548Y-31657024D01*
X15912024Y-31676071D01*
X15912024Y-31723690D01*
X15921548Y-31742738D01*
X15931071Y-31752262D01*
X15950119Y-31761786D01*
X15988214Y-31761786D01*
X16007262Y-31752262D01*
X16016786Y-31742738D01*
X16026309Y-31723690D01*
X16264405Y-31837976D02*
X16264405Y-31637976D01*
X16350119Y-31837976D02*
X16350119Y-31733214D01*
X16340595Y-31714167D01*
X16321548Y-31704643D01*
X16292976Y-31704643D01*
X16273928Y-31714167D01*
X16264405Y-31723690D01*
X16473928Y-31837976D02*
X16454881Y-31828452D01*
X16445357Y-31818928D01*
X16435833Y-31799881D01*
X16435833Y-31742738D01*
X16445357Y-31723690D01*
X16454881Y-31714167D01*
X16473928Y-31704643D01*
X16502500Y-31704643D01*
X16521548Y-31714167D01*
X16531071Y-31723690D01*
X16540595Y-31742738D01*
X16540595Y-31799881D01*
X16531071Y-31818928D01*
X16521548Y-31828452D01*
X16502500Y-31837976D01*
X16473928Y-31837976D01*
X16654881Y-31837976D02*
X16635833Y-31828452D01*
X16626309Y-31809405D01*
X16626309Y-31637976D01*
X16807262Y-31828452D02*
X16788214Y-31837976D01*
X16750119Y-31837976D01*
X16731071Y-31828452D01*
X16721548Y-31809405D01*
X16721548Y-31733214D01*
X16731071Y-31714167D01*
X16750119Y-31704643D01*
X16788214Y-31704643D01*
X16807262Y-31714167D01*
X16816786Y-31733214D01*
X16816786Y-31752262D01*
X16721548Y-31771309D01*
X16892976Y-31828452D02*
X16912024Y-31837976D01*
X16950119Y-31837976D01*
X16969167Y-31828452D01*
X16978690Y-31809405D01*
X16978690Y-31799881D01*
X16969167Y-31780833D01*
X16950119Y-31771309D01*
X16921548Y-31771309D01*
X16902500Y-31761786D01*
X16892976Y-31742738D01*
X16892976Y-31733214D01*
X16902500Y-31714167D01*
X16921548Y-31704643D01*
X16950119Y-31704643D01*
X16969167Y-31714167D01*
X17045357Y-31914167D02*
X17054881Y-31904643D01*
X17073929Y-31876071D01*
X17083452Y-31857024D01*
X17092976Y-31828452D01*
X17102500Y-31780833D01*
X17102500Y-31742738D01*
X17092976Y-31695119D01*
X17083452Y-31666548D01*
X17073929Y-31647500D01*
X17054881Y-31618928D01*
X17045357Y-31609405D01*
D13*
X11892500Y-32011500D02*
G75*
G03*
X11892500Y-32011500I-45000J0D01*
G01*
D11*
X12188214Y-31901976D02*
X12207262Y-31901976D01*
X12226309Y-31911500D01*
X12235833Y-31921024D01*
X12245357Y-31940071D01*
X12254881Y-31978167D01*
X12254881Y-32025786D01*
X12245357Y-32063881D01*
X12235833Y-32082928D01*
X12226309Y-32092452D01*
X12207262Y-32101976D01*
X12188214Y-32101976D01*
X12169167Y-32092452D01*
X12159643Y-32082928D01*
X12150119Y-32063881D01*
X12140595Y-32025786D01*
X12140595Y-31978167D01*
X12150119Y-31940071D01*
X12159643Y-31921024D01*
X12169167Y-31911500D01*
X12188214Y-31901976D01*
X12340595Y-32082928D02*
X12350119Y-32092452D01*
X12340595Y-32101976D01*
X12331071Y-32092452D01*
X12340595Y-32082928D01*
X12340595Y-32101976D01*
X12445357Y-32101976D02*
X12483452Y-32101976D01*
X12502500Y-32092452D01*
X12512024Y-32082928D01*
X12531071Y-32054357D01*
X12540595Y-32016262D01*
X12540595Y-31940071D01*
X12531071Y-31921024D01*
X12521548Y-31911500D01*
X12502500Y-31901976D01*
X12464405Y-31901976D01*
X12445357Y-31911500D01*
X12435833Y-31921024D01*
X12426309Y-31940071D01*
X12426309Y-31987690D01*
X12435833Y-32006738D01*
X12445357Y-32016262D01*
X12464405Y-32025786D01*
X12502500Y-32025786D01*
X12521548Y-32016262D01*
X12531071Y-32006738D01*
X12540595Y-31987690D01*
X12664405Y-31901976D02*
X12683452Y-31901976D01*
X12702500Y-31911500D01*
X12712024Y-31921024D01*
X12721548Y-31940071D01*
X12731071Y-31978167D01*
X12731071Y-32025786D01*
X12721548Y-32063881D01*
X12712024Y-32082928D01*
X12702500Y-32092452D01*
X12683452Y-32101976D01*
X12664405Y-32101976D01*
X12645357Y-32092452D01*
X12635833Y-32082928D01*
X12626309Y-32063881D01*
X12616786Y-32025786D01*
X12616786Y-31978167D01*
X12626309Y-31940071D01*
X12635833Y-31921024D01*
X12645357Y-31911500D01*
X12664405Y-31901976D01*
X12854881Y-31901976D02*
X12873928Y-31901976D01*
X12892976Y-31911500D01*
X12902500Y-31921024D01*
X12912024Y-31940071D01*
X12921548Y-31978167D01*
X12921548Y-32025786D01*
X12912024Y-32063881D01*
X12902500Y-32082928D01*
X12892976Y-32092452D01*
X12873928Y-32101976D01*
X12854881Y-32101976D01*
X12835833Y-32092452D01*
X12826309Y-32082928D01*
X12816786Y-32063881D01*
X12807262Y-32025786D01*
X12807262Y-31978167D01*
X12816786Y-31940071D01*
X12826309Y-31921024D01*
X12835833Y-31911500D01*
X12854881Y-31901976D01*
X13007262Y-32101976D02*
X13007262Y-31968643D01*
X13007262Y-31987690D02*
X13016786Y-31978167D01*
X13035833Y-31968643D01*
X13064405Y-31968643D01*
X13083452Y-31978167D01*
X13092976Y-31997214D01*
X13092976Y-32101976D01*
X13092976Y-31997214D02*
X13102500Y-31978167D01*
X13121548Y-31968643D01*
X13150119Y-31968643D01*
X13169167Y-31978167D01*
X13178690Y-31997214D01*
X13178690Y-32101976D01*
X13273928Y-32101976D02*
X13273928Y-31968643D01*
X13273928Y-31987690D02*
X13283452Y-31978167D01*
X13302500Y-31968643D01*
X13331071Y-31968643D01*
X13350119Y-31978167D01*
X13359643Y-31997214D01*
X13359643Y-32101976D01*
X13359643Y-31997214D02*
X13369167Y-31978167D01*
X13388214Y-31968643D01*
X13416786Y-31968643D01*
X13435833Y-31978167D01*
X13445357Y-31997214D01*
X13445357Y-32101976D01*
X13835833Y-31892452D02*
X13664405Y-32149595D01*
X14092976Y-31901976D02*
X14112024Y-31901976D01*
X14131071Y-31911500D01*
X14140595Y-31921024D01*
X14150119Y-31940071D01*
X14159643Y-31978167D01*
X14159643Y-32025786D01*
X14150119Y-32063881D01*
X14140595Y-32082928D01*
X14131071Y-32092452D01*
X14112024Y-32101976D01*
X14092976Y-32101976D01*
X14073928Y-32092452D01*
X14064405Y-32082928D01*
X14054881Y-32063881D01*
X14045357Y-32025786D01*
X14045357Y-31978167D01*
X14054881Y-31940071D01*
X14064405Y-31921024D01*
X14073928Y-31911500D01*
X14092976Y-31901976D01*
X14245357Y-32082928D02*
X14254881Y-32092452D01*
X14245357Y-32101976D01*
X14235833Y-32092452D01*
X14245357Y-32082928D01*
X14245357Y-32101976D01*
X14378690Y-31901976D02*
X14397738Y-31901976D01*
X14416786Y-31911500D01*
X14426309Y-31921024D01*
X14435833Y-31940071D01*
X14445357Y-31978167D01*
X14445357Y-32025786D01*
X14435833Y-32063881D01*
X14426309Y-32082928D01*
X14416786Y-32092452D01*
X14397738Y-32101976D01*
X14378690Y-32101976D01*
X14359643Y-32092452D01*
X14350119Y-32082928D01*
X14340595Y-32063881D01*
X14331071Y-32025786D01*
X14331071Y-31978167D01*
X14340595Y-31940071D01*
X14350119Y-31921024D01*
X14359643Y-31911500D01*
X14378690Y-31901976D01*
X14512024Y-31901976D02*
X14635833Y-31901976D01*
X14569167Y-31978167D01*
X14597738Y-31978167D01*
X14616786Y-31987690D01*
X14626309Y-31997214D01*
X14635833Y-32016262D01*
X14635833Y-32063881D01*
X14626309Y-32082928D01*
X14616786Y-32092452D01*
X14597738Y-32101976D01*
X14540595Y-32101976D01*
X14521548Y-32092452D01*
X14512024Y-32082928D01*
X14816786Y-31901976D02*
X14721548Y-31901976D01*
X14712024Y-31997214D01*
X14721548Y-31987690D01*
X14740595Y-31978167D01*
X14788214Y-31978167D01*
X14807262Y-31987690D01*
X14816786Y-31997214D01*
X14826309Y-32016262D01*
X14826309Y-32063881D01*
X14816786Y-32082928D01*
X14807262Y-32092452D01*
X14788214Y-32101976D01*
X14740595Y-32101976D01*
X14721548Y-32092452D01*
X14712024Y-32082928D01*
X14997738Y-31968643D02*
X14997738Y-32101976D01*
X14950119Y-31892452D02*
X14902500Y-32035309D01*
X15026309Y-32035309D01*
X15092976Y-31901976D02*
X15092976Y-31940071D01*
X15169167Y-31901976D02*
X15169167Y-31940071D01*
X15464405Y-32178167D02*
X15454881Y-32168643D01*
X15435833Y-32140071D01*
X15426309Y-32121024D01*
X15416786Y-32092452D01*
X15407262Y-32044833D01*
X15407262Y-32006738D01*
X15416786Y-31959119D01*
X15426309Y-31930548D01*
X15435833Y-31911500D01*
X15454881Y-31882928D01*
X15464405Y-31873405D01*
X15645357Y-32101976D02*
X15531071Y-32101976D01*
X15588214Y-32101976D02*
X15588214Y-31901976D01*
X15569167Y-31930548D01*
X15550119Y-31949595D01*
X15531071Y-31959119D01*
X15826309Y-31901976D02*
X15731071Y-31901976D01*
X15721548Y-31997214D01*
X15731071Y-31987690D01*
X15750119Y-31978167D01*
X15797738Y-31978167D01*
X15816786Y-31987690D01*
X15826309Y-31997214D01*
X15835833Y-32016262D01*
X15835833Y-32063881D01*
X15826309Y-32082928D01*
X15816786Y-32092452D01*
X15797738Y-32101976D01*
X15750119Y-32101976D01*
X15731071Y-32092452D01*
X15721548Y-32082928D01*
X15959643Y-31901976D02*
X15978690Y-31901976D01*
X15997738Y-31911500D01*
X16007262Y-31921024D01*
X16016786Y-31940071D01*
X16026309Y-31978167D01*
X16026309Y-32025786D01*
X16016786Y-32063881D01*
X16007262Y-32082928D01*
X15997738Y-32092452D01*
X15978690Y-32101976D01*
X15959643Y-32101976D01*
X15940595Y-32092452D01*
X15931071Y-32082928D01*
X15921548Y-32063881D01*
X15912024Y-32025786D01*
X15912024Y-31978167D01*
X15921548Y-31940071D01*
X15931071Y-31921024D01*
X15940595Y-31911500D01*
X15959643Y-31901976D01*
X16264405Y-32101976D02*
X16264405Y-31901976D01*
X16350119Y-32101976D02*
X16350119Y-31997214D01*
X16340595Y-31978167D01*
X16321548Y-31968643D01*
X16292976Y-31968643D01*
X16273928Y-31978167D01*
X16264405Y-31987690D01*
X16473928Y-32101976D02*
X16454881Y-32092452D01*
X16445357Y-32082928D01*
X16435833Y-32063881D01*
X16435833Y-32006738D01*
X16445357Y-31987690D01*
X16454881Y-31978167D01*
X16473928Y-31968643D01*
X16502500Y-31968643D01*
X16521548Y-31978167D01*
X16531071Y-31987690D01*
X16540595Y-32006738D01*
X16540595Y-32063881D01*
X16531071Y-32082928D01*
X16521548Y-32092452D01*
X16502500Y-32101976D01*
X16473928Y-32101976D01*
X16654881Y-32101976D02*
X16635833Y-32092452D01*
X16626309Y-32073405D01*
X16626309Y-31901976D01*
X16807262Y-32092452D02*
X16788214Y-32101976D01*
X16750119Y-32101976D01*
X16731071Y-32092452D01*
X16721548Y-32073405D01*
X16721548Y-31997214D01*
X16731071Y-31978167D01*
X16750119Y-31968643D01*
X16788214Y-31968643D01*
X16807262Y-31978167D01*
X16816786Y-31997214D01*
X16816786Y-32016262D01*
X16721548Y-32035309D01*
X16892976Y-32092452D02*
X16912024Y-32101976D01*
X16950119Y-32101976D01*
X16969167Y-32092452D01*
X16978690Y-32073405D01*
X16978690Y-32063881D01*
X16969167Y-32044833D01*
X16950119Y-32035309D01*
X16921548Y-32035309D01*
X16902500Y-32025786D01*
X16892976Y-32006738D01*
X16892976Y-31997214D01*
X16902500Y-31978167D01*
X16921548Y-31968643D01*
X16950119Y-31968643D01*
X16969167Y-31978167D01*
X17045357Y-32178167D02*
X17054881Y-32168643D01*
X17073929Y-32140071D01*
X17083452Y-32121024D01*
X17092976Y-32092452D01*
X17102500Y-32044833D01*
X17102500Y-32006738D01*
X17092976Y-31959119D01*
X17083452Y-31930548D01*
X17073929Y-31911500D01*
X17054881Y-31882928D01*
X17045357Y-31873405D01*
D14*
X11845000Y-32228000D02*
X11845000Y-32323000D01*
X11797500Y-32275500D02*
X11892500Y-32275500D01*
D11*
X12188214Y-32165976D02*
X12207262Y-32165976D01*
X12226309Y-32175500D01*
X12235833Y-32185024D01*
X12245357Y-32204071D01*
X12254881Y-32242167D01*
X12254881Y-32289786D01*
X12245357Y-32327881D01*
X12235833Y-32346928D01*
X12226309Y-32356452D01*
X12207262Y-32365976D01*
X12188214Y-32365976D01*
X12169167Y-32356452D01*
X12159643Y-32346928D01*
X12150119Y-32327881D01*
X12140595Y-32289786D01*
X12140595Y-32242167D01*
X12150119Y-32204071D01*
X12159643Y-32185024D01*
X12169167Y-32175500D01*
X12188214Y-32165976D01*
X12340595Y-32346928D02*
X12350119Y-32356452D01*
X12340595Y-32365976D01*
X12331071Y-32356452D01*
X12340595Y-32346928D01*
X12340595Y-32365976D01*
X12445357Y-32365976D02*
X12483452Y-32365976D01*
X12502500Y-32356452D01*
X12512024Y-32346928D01*
X12531071Y-32318357D01*
X12540595Y-32280262D01*
X12540595Y-32204071D01*
X12531071Y-32185024D01*
X12521548Y-32175500D01*
X12502500Y-32165976D01*
X12464405Y-32165976D01*
X12445357Y-32175500D01*
X12435833Y-32185024D01*
X12426309Y-32204071D01*
X12426309Y-32251690D01*
X12435833Y-32270738D01*
X12445357Y-32280262D01*
X12464405Y-32289786D01*
X12502500Y-32289786D01*
X12521548Y-32280262D01*
X12531071Y-32270738D01*
X12540595Y-32251690D01*
X12721548Y-32165976D02*
X12626309Y-32165976D01*
X12616786Y-32261214D01*
X12626309Y-32251690D01*
X12645357Y-32242167D01*
X12692976Y-32242167D01*
X12712024Y-32251690D01*
X12721548Y-32261214D01*
X12731071Y-32280262D01*
X12731071Y-32327881D01*
X12721548Y-32346928D01*
X12712024Y-32356452D01*
X12692976Y-32365976D01*
X12645357Y-32365976D01*
X12626309Y-32356452D01*
X12616786Y-32346928D01*
X12854881Y-32165976D02*
X12873928Y-32165976D01*
X12892976Y-32175500D01*
X12902500Y-32185024D01*
X12912024Y-32204071D01*
X12921548Y-32242167D01*
X12921548Y-32289786D01*
X12912024Y-32327881D01*
X12902500Y-32346928D01*
X12892976Y-32356452D01*
X12873928Y-32365976D01*
X12854881Y-32365976D01*
X12835833Y-32356452D01*
X12826309Y-32346928D01*
X12816786Y-32327881D01*
X12807262Y-32289786D01*
X12807262Y-32242167D01*
X12816786Y-32204071D01*
X12826309Y-32185024D01*
X12835833Y-32175500D01*
X12854881Y-32165976D01*
X13007262Y-32365976D02*
X13007262Y-32232643D01*
X13007262Y-32251690D02*
X13016786Y-32242167D01*
X13035833Y-32232643D01*
X13064405Y-32232643D01*
X13083452Y-32242167D01*
X13092976Y-32261214D01*
X13092976Y-32365976D01*
X13092976Y-32261214D02*
X13102500Y-32242167D01*
X13121548Y-32232643D01*
X13150119Y-32232643D01*
X13169167Y-32242167D01*
X13178690Y-32261214D01*
X13178690Y-32365976D01*
X13273928Y-32365976D02*
X13273928Y-32232643D01*
X13273928Y-32251690D02*
X13283452Y-32242167D01*
X13302500Y-32232643D01*
X13331071Y-32232643D01*
X13350119Y-32242167D01*
X13359643Y-32261214D01*
X13359643Y-32365976D01*
X13359643Y-32261214D02*
X13369167Y-32242167D01*
X13388214Y-32232643D01*
X13416786Y-32232643D01*
X13435833Y-32242167D01*
X13445357Y-32261214D01*
X13445357Y-32365976D01*
X13835833Y-32156452D02*
X13664405Y-32413595D01*
X14092976Y-32165976D02*
X14112024Y-32165976D01*
X14131071Y-32175500D01*
X14140595Y-32185024D01*
X14150119Y-32204071D01*
X14159643Y-32242167D01*
X14159643Y-32289786D01*
X14150119Y-32327881D01*
X14140595Y-32346928D01*
X14131071Y-32356452D01*
X14112024Y-32365976D01*
X14092976Y-32365976D01*
X14073928Y-32356452D01*
X14064405Y-32346928D01*
X14054881Y-32327881D01*
X14045357Y-32289786D01*
X14045357Y-32242167D01*
X14054881Y-32204071D01*
X14064405Y-32185024D01*
X14073928Y-32175500D01*
X14092976Y-32165976D01*
X14245357Y-32346928D02*
X14254881Y-32356452D01*
X14245357Y-32365976D01*
X14235833Y-32356452D01*
X14245357Y-32346928D01*
X14245357Y-32365976D01*
X14378690Y-32165976D02*
X14397738Y-32165976D01*
X14416786Y-32175500D01*
X14426309Y-32185024D01*
X14435833Y-32204071D01*
X14445357Y-32242167D01*
X14445357Y-32289786D01*
X14435833Y-32327881D01*
X14426309Y-32346928D01*
X14416786Y-32356452D01*
X14397738Y-32365976D01*
X14378690Y-32365976D01*
X14359643Y-32356452D01*
X14350119Y-32346928D01*
X14340595Y-32327881D01*
X14331071Y-32289786D01*
X14331071Y-32242167D01*
X14340595Y-32204071D01*
X14350119Y-32185024D01*
X14359643Y-32175500D01*
X14378690Y-32165976D01*
X14512024Y-32165976D02*
X14635833Y-32165976D01*
X14569167Y-32242167D01*
X14597738Y-32242167D01*
X14616786Y-32251690D01*
X14626309Y-32261214D01*
X14635833Y-32280262D01*
X14635833Y-32327881D01*
X14626309Y-32346928D01*
X14616786Y-32356452D01*
X14597738Y-32365976D01*
X14540595Y-32365976D01*
X14521548Y-32356452D01*
X14512024Y-32346928D01*
X14702500Y-32165976D02*
X14835833Y-32165976D01*
X14750119Y-32365976D01*
X14997738Y-32232643D02*
X14997738Y-32365976D01*
X14950119Y-32156452D02*
X14902500Y-32299309D01*
X15026309Y-32299309D01*
X15092976Y-32165976D02*
X15092976Y-32204071D01*
X15169167Y-32165976D02*
X15169167Y-32204071D01*
X15464405Y-32442167D02*
X15454881Y-32432643D01*
X15435833Y-32404071D01*
X15426309Y-32385024D01*
X15416786Y-32356452D01*
X15407262Y-32308833D01*
X15407262Y-32270738D01*
X15416786Y-32223119D01*
X15426309Y-32194548D01*
X15435833Y-32175500D01*
X15454881Y-32146928D01*
X15464405Y-32137405D01*
X15569167Y-32251690D02*
X15550119Y-32242167D01*
X15540595Y-32232643D01*
X15531071Y-32213595D01*
X15531071Y-32204071D01*
X15540595Y-32185024D01*
X15550119Y-32175500D01*
X15569167Y-32165976D01*
X15607262Y-32165976D01*
X15626309Y-32175500D01*
X15635833Y-32185024D01*
X15645357Y-32204071D01*
X15645357Y-32213595D01*
X15635833Y-32232643D01*
X15626309Y-32242167D01*
X15607262Y-32251690D01*
X15569167Y-32251690D01*
X15550119Y-32261214D01*
X15540595Y-32270738D01*
X15531071Y-32289786D01*
X15531071Y-32327881D01*
X15540595Y-32346928D01*
X15550119Y-32356452D01*
X15569167Y-32365976D01*
X15607262Y-32365976D01*
X15626309Y-32356452D01*
X15635833Y-32346928D01*
X15645357Y-32327881D01*
X15645357Y-32289786D01*
X15635833Y-32270738D01*
X15626309Y-32261214D01*
X15607262Y-32251690D01*
X15883452Y-32365976D02*
X15883452Y-32165976D01*
X15969167Y-32365976D02*
X15969167Y-32261214D01*
X15959643Y-32242167D01*
X15940595Y-32232643D01*
X15912024Y-32232643D01*
X15892976Y-32242167D01*
X15883452Y-32251690D01*
X16092976Y-32365976D02*
X16073928Y-32356452D01*
X16064405Y-32346928D01*
X16054881Y-32327881D01*
X16054881Y-32270738D01*
X16064405Y-32251690D01*
X16073928Y-32242167D01*
X16092976Y-32232643D01*
X16121548Y-32232643D01*
X16140595Y-32242167D01*
X16150119Y-32251690D01*
X16159643Y-32270738D01*
X16159643Y-32327881D01*
X16150119Y-32346928D01*
X16140595Y-32356452D01*
X16121548Y-32365976D01*
X16092976Y-32365976D01*
X16273928Y-32365976D02*
X16254881Y-32356452D01*
X16245357Y-32337405D01*
X16245357Y-32165976D01*
X16426309Y-32356452D02*
X16407262Y-32365976D01*
X16369167Y-32365976D01*
X16350119Y-32356452D01*
X16340595Y-32337405D01*
X16340595Y-32261214D01*
X16350119Y-32242167D01*
X16369167Y-32232643D01*
X16407262Y-32232643D01*
X16426309Y-32242167D01*
X16435833Y-32261214D01*
X16435833Y-32280262D01*
X16340595Y-32299309D01*
X16512024Y-32356452D02*
X16531071Y-32365976D01*
X16569167Y-32365976D01*
X16588214Y-32356452D01*
X16597738Y-32337405D01*
X16597738Y-32327881D01*
X16588214Y-32308833D01*
X16569167Y-32299309D01*
X16540595Y-32299309D01*
X16521548Y-32289786D01*
X16512024Y-32270738D01*
X16512024Y-32261214D01*
X16521548Y-32242167D01*
X16540595Y-32232643D01*
X16569167Y-32232643D01*
X16588214Y-32242167D01*
X16664405Y-32442167D02*
X16673928Y-32432643D01*
X16692976Y-32404071D01*
X16702500Y-32385024D01*
X16712024Y-32356452D01*
X16721548Y-32308833D01*
X16721548Y-32270738D01*
X16712024Y-32223119D01*
X16702500Y-32194548D01*
X16692976Y-32175500D01*
X16673928Y-32146928D01*
X16664405Y-32137405D01*
D15*
X11877856Y-32574856D02*
X11877856Y-32504144D01*
X11807144Y-32504144D01*
X11807144Y-32574856D01*
X11877856Y-32574856D01*
D11*
X12254881Y-32629976D02*
X12140595Y-32629976D01*
X12197738Y-32629976D02*
X12197738Y-32429976D01*
X12178690Y-32458548D01*
X12159643Y-32477595D01*
X12140595Y-32487119D01*
X12340595Y-32610928D02*
X12350119Y-32620452D01*
X12340595Y-32629976D01*
X12331071Y-32620452D01*
X12340595Y-32610928D01*
X12340595Y-32629976D01*
X12473928Y-32429976D02*
X12492976Y-32429976D01*
X12512024Y-32439500D01*
X12521548Y-32449024D01*
X12531071Y-32468071D01*
X12540595Y-32506167D01*
X12540595Y-32553786D01*
X12531071Y-32591881D01*
X12521548Y-32610928D01*
X12512024Y-32620452D01*
X12492976Y-32629976D01*
X12473928Y-32629976D01*
X12454881Y-32620452D01*
X12445357Y-32610928D01*
X12435833Y-32591881D01*
X12426309Y-32553786D01*
X12426309Y-32506167D01*
X12435833Y-32468071D01*
X12445357Y-32449024D01*
X12454881Y-32439500D01*
X12473928Y-32429976D01*
X12664405Y-32429976D02*
X12683452Y-32429976D01*
X12702500Y-32439500D01*
X12712024Y-32449024D01*
X12721548Y-32468071D01*
X12731071Y-32506167D01*
X12731071Y-32553786D01*
X12721548Y-32591881D01*
X12712024Y-32610928D01*
X12702500Y-32620452D01*
X12683452Y-32629976D01*
X12664405Y-32629976D01*
X12645357Y-32620452D01*
X12635833Y-32610928D01*
X12626309Y-32591881D01*
X12616786Y-32553786D01*
X12616786Y-32506167D01*
X12626309Y-32468071D01*
X12635833Y-32449024D01*
X12645357Y-32439500D01*
X12664405Y-32429976D01*
X12854881Y-32429976D02*
X12873928Y-32429976D01*
X12892976Y-32439500D01*
X12902500Y-32449024D01*
X12912024Y-32468071D01*
X12921548Y-32506167D01*
X12921548Y-32553786D01*
X12912024Y-32591881D01*
X12902500Y-32610928D01*
X12892976Y-32620452D01*
X12873928Y-32629976D01*
X12854881Y-32629976D01*
X12835833Y-32620452D01*
X12826309Y-32610928D01*
X12816786Y-32591881D01*
X12807262Y-32553786D01*
X12807262Y-32506167D01*
X12816786Y-32468071D01*
X12826309Y-32449024D01*
X12835833Y-32439500D01*
X12854881Y-32429976D01*
X13007262Y-32629976D02*
X13007262Y-32496643D01*
X13007262Y-32515690D02*
X13016786Y-32506167D01*
X13035833Y-32496643D01*
X13064405Y-32496643D01*
X13083452Y-32506167D01*
X13092976Y-32525214D01*
X13092976Y-32629976D01*
X13092976Y-32525214D02*
X13102500Y-32506167D01*
X13121548Y-32496643D01*
X13150119Y-32496643D01*
X13169167Y-32506167D01*
X13178690Y-32525214D01*
X13178690Y-32629976D01*
X13273928Y-32629976D02*
X13273928Y-32496643D01*
X13273928Y-32515690D02*
X13283452Y-32506167D01*
X13302500Y-32496643D01*
X13331071Y-32496643D01*
X13350119Y-32506167D01*
X13359643Y-32525214D01*
X13359643Y-32629976D01*
X13359643Y-32525214D02*
X13369167Y-32506167D01*
X13388214Y-32496643D01*
X13416786Y-32496643D01*
X13435833Y-32506167D01*
X13445357Y-32525214D01*
X13445357Y-32629976D01*
X13835833Y-32420452D02*
X13664405Y-32677595D01*
X14092976Y-32429976D02*
X14112024Y-32429976D01*
X14131071Y-32439500D01*
X14140595Y-32449024D01*
X14150119Y-32468071D01*
X14159643Y-32506167D01*
X14159643Y-32553786D01*
X14150119Y-32591881D01*
X14140595Y-32610928D01*
X14131071Y-32620452D01*
X14112024Y-32629976D01*
X14092976Y-32629976D01*
X14073928Y-32620452D01*
X14064405Y-32610928D01*
X14054881Y-32591881D01*
X14045357Y-32553786D01*
X14045357Y-32506167D01*
X14054881Y-32468071D01*
X14064405Y-32449024D01*
X14073928Y-32439500D01*
X14092976Y-32429976D01*
X14245357Y-32610928D02*
X14254881Y-32620452D01*
X14245357Y-32629976D01*
X14235833Y-32620452D01*
X14245357Y-32610928D01*
X14245357Y-32629976D01*
X14378690Y-32429976D02*
X14397738Y-32429976D01*
X14416786Y-32439500D01*
X14426309Y-32449024D01*
X14435833Y-32468071D01*
X14445357Y-32506167D01*
X14445357Y-32553786D01*
X14435833Y-32591881D01*
X14426309Y-32610928D01*
X14416786Y-32620452D01*
X14397738Y-32629976D01*
X14378690Y-32629976D01*
X14359643Y-32620452D01*
X14350119Y-32610928D01*
X14340595Y-32591881D01*
X14331071Y-32553786D01*
X14331071Y-32506167D01*
X14340595Y-32468071D01*
X14350119Y-32449024D01*
X14359643Y-32439500D01*
X14378690Y-32429976D01*
X14512024Y-32429976D02*
X14635833Y-32429976D01*
X14569167Y-32506167D01*
X14597738Y-32506167D01*
X14616786Y-32515690D01*
X14626309Y-32525214D01*
X14635833Y-32544262D01*
X14635833Y-32591881D01*
X14626309Y-32610928D01*
X14616786Y-32620452D01*
X14597738Y-32629976D01*
X14540595Y-32629976D01*
X14521548Y-32620452D01*
X14512024Y-32610928D01*
X14731071Y-32629976D02*
X14769167Y-32629976D01*
X14788214Y-32620452D01*
X14797738Y-32610928D01*
X14816786Y-32582357D01*
X14826309Y-32544262D01*
X14826309Y-32468071D01*
X14816786Y-32449024D01*
X14807262Y-32439500D01*
X14788214Y-32429976D01*
X14750119Y-32429976D01*
X14731071Y-32439500D01*
X14721548Y-32449024D01*
X14712024Y-32468071D01*
X14712024Y-32515690D01*
X14721548Y-32534738D01*
X14731071Y-32544262D01*
X14750119Y-32553786D01*
X14788214Y-32553786D01*
X14807262Y-32544262D01*
X14816786Y-32534738D01*
X14826309Y-32515690D01*
X14997738Y-32496643D02*
X14997738Y-32629976D01*
X14950119Y-32420452D02*
X14902500Y-32563309D01*
X15026309Y-32563309D01*
X15092976Y-32429976D02*
X15092976Y-32468071D01*
X15169167Y-32429976D02*
X15169167Y-32468071D01*
X15464405Y-32706167D02*
X15454881Y-32696643D01*
X15435833Y-32668071D01*
X15426309Y-32649024D01*
X15416786Y-32620452D01*
X15407262Y-32572833D01*
X15407262Y-32534738D01*
X15416786Y-32487119D01*
X15426309Y-32458548D01*
X15435833Y-32439500D01*
X15454881Y-32410928D01*
X15464405Y-32401405D01*
X15645357Y-32629976D02*
X15531071Y-32629976D01*
X15588214Y-32629976D02*
X15588214Y-32429976D01*
X15569167Y-32458548D01*
X15550119Y-32477595D01*
X15531071Y-32487119D01*
X15835833Y-32629976D02*
X15721548Y-32629976D01*
X15778690Y-32629976D02*
X15778690Y-32429976D01*
X15759643Y-32458548D01*
X15740595Y-32477595D01*
X15721548Y-32487119D01*
X15912024Y-32449024D02*
X15921548Y-32439500D01*
X15940595Y-32429976D01*
X15988214Y-32429976D01*
X16007262Y-32439500D01*
X16016786Y-32449024D01*
X16026309Y-32468071D01*
X16026309Y-32487119D01*
X16016786Y-32515690D01*
X15902500Y-32629976D01*
X16026309Y-32629976D01*
X16264405Y-32629976D02*
X16264405Y-32429976D01*
X16350119Y-32629976D02*
X16350119Y-32525214D01*
X16340595Y-32506167D01*
X16321548Y-32496643D01*
X16292976Y-32496643D01*
X16273928Y-32506167D01*
X16264405Y-32515690D01*
X16473928Y-32629976D02*
X16454881Y-32620452D01*
X16445357Y-32610928D01*
X16435833Y-32591881D01*
X16435833Y-32534738D01*
X16445357Y-32515690D01*
X16454881Y-32506167D01*
X16473928Y-32496643D01*
X16502500Y-32496643D01*
X16521548Y-32506167D01*
X16531071Y-32515690D01*
X16540595Y-32534738D01*
X16540595Y-32591881D01*
X16531071Y-32610928D01*
X16521548Y-32620452D01*
X16502500Y-32629976D01*
X16473928Y-32629976D01*
X16654881Y-32629976D02*
X16635833Y-32620452D01*
X16626309Y-32601405D01*
X16626309Y-32429976D01*
X16807262Y-32620452D02*
X16788214Y-32629976D01*
X16750119Y-32629976D01*
X16731071Y-32620452D01*
X16721548Y-32601405D01*
X16721548Y-32525214D01*
X16731071Y-32506167D01*
X16750119Y-32496643D01*
X16788214Y-32496643D01*
X16807262Y-32506167D01*
X16816786Y-32525214D01*
X16816786Y-32544262D01*
X16721548Y-32563309D01*
X16892976Y-32620452D02*
X16912024Y-32629976D01*
X16950119Y-32629976D01*
X16969167Y-32620452D01*
X16978690Y-32601405D01*
X16978690Y-32591881D01*
X16969167Y-32572833D01*
X16950119Y-32563309D01*
X16921548Y-32563309D01*
X16902500Y-32553786D01*
X16892976Y-32534738D01*
X16892976Y-32525214D01*
X16902500Y-32506167D01*
X16921548Y-32496643D01*
X16950119Y-32496643D01*
X16969167Y-32506167D01*
X17045357Y-32706167D02*
X17054881Y-32696643D01*
X17073929Y-32668071D01*
X17083452Y-32649024D01*
X17092976Y-32620452D01*
X17102500Y-32572833D01*
X17102500Y-32534738D01*
X17092976Y-32487119D01*
X17083452Y-32458548D01*
X17073929Y-32439500D01*
X17054881Y-32410928D01*
X17045357Y-32401405D01*
D16*
X11841700Y-32854300D02*
X11892500Y-32803500D01*
X11841700Y-32752700D01*
X11790900Y-32803500D01*
X11841700Y-32854300D01*
D11*
X12254881Y-32893976D02*
X12140595Y-32893976D01*
X12197738Y-32893976D02*
X12197738Y-32693976D01*
X12178690Y-32722548D01*
X12159643Y-32741595D01*
X12140595Y-32751119D01*
X12340595Y-32874928D02*
X12350119Y-32884452D01*
X12340595Y-32893976D01*
X12331071Y-32884452D01*
X12340595Y-32874928D01*
X12340595Y-32893976D01*
X12473928Y-32693976D02*
X12492976Y-32693976D01*
X12512024Y-32703500D01*
X12521548Y-32713024D01*
X12531071Y-32732071D01*
X12540595Y-32770167D01*
X12540595Y-32817786D01*
X12531071Y-32855881D01*
X12521548Y-32874928D01*
X12512024Y-32884452D01*
X12492976Y-32893976D01*
X12473928Y-32893976D01*
X12454881Y-32884452D01*
X12445357Y-32874928D01*
X12435833Y-32855881D01*
X12426309Y-32817786D01*
X12426309Y-32770167D01*
X12435833Y-32732071D01*
X12445357Y-32713024D01*
X12454881Y-32703500D01*
X12473928Y-32693976D01*
X12731071Y-32893976D02*
X12616786Y-32893976D01*
X12673928Y-32893976D02*
X12673928Y-32693976D01*
X12654881Y-32722548D01*
X12635833Y-32741595D01*
X12616786Y-32751119D01*
X12902500Y-32693976D02*
X12864405Y-32693976D01*
X12845357Y-32703500D01*
X12835833Y-32713024D01*
X12816786Y-32741595D01*
X12807262Y-32779690D01*
X12807262Y-32855881D01*
X12816786Y-32874928D01*
X12826309Y-32884452D01*
X12845357Y-32893976D01*
X12883452Y-32893976D01*
X12902500Y-32884452D01*
X12912024Y-32874928D01*
X12921548Y-32855881D01*
X12921548Y-32808262D01*
X12912024Y-32789214D01*
X12902500Y-32779690D01*
X12883452Y-32770167D01*
X12845357Y-32770167D01*
X12826309Y-32779690D01*
X12816786Y-32789214D01*
X12807262Y-32808262D01*
X13007262Y-32893976D02*
X13007262Y-32760643D01*
X13007262Y-32779690D02*
X13016786Y-32770167D01*
X13035833Y-32760643D01*
X13064405Y-32760643D01*
X13083452Y-32770167D01*
X13092976Y-32789214D01*
X13092976Y-32893976D01*
X13092976Y-32789214D02*
X13102500Y-32770167D01*
X13121548Y-32760643D01*
X13150119Y-32760643D01*
X13169167Y-32770167D01*
X13178690Y-32789214D01*
X13178690Y-32893976D01*
X13273928Y-32893976D02*
X13273928Y-32760643D01*
X13273928Y-32779690D02*
X13283452Y-32770167D01*
X13302500Y-32760643D01*
X13331071Y-32760643D01*
X13350119Y-32770167D01*
X13359643Y-32789214D01*
X13359643Y-32893976D01*
X13359643Y-32789214D02*
X13369167Y-32770167D01*
X13388214Y-32760643D01*
X13416786Y-32760643D01*
X13435833Y-32770167D01*
X13445357Y-32789214D01*
X13445357Y-32893976D01*
X13835833Y-32684452D02*
X13664405Y-32941595D01*
X14092976Y-32693976D02*
X14112024Y-32693976D01*
X14131071Y-32703500D01*
X14140595Y-32713024D01*
X14150119Y-32732071D01*
X14159643Y-32770167D01*
X14159643Y-32817786D01*
X14150119Y-32855881D01*
X14140595Y-32874928D01*
X14131071Y-32884452D01*
X14112024Y-32893976D01*
X14092976Y-32893976D01*
X14073928Y-32884452D01*
X14064405Y-32874928D01*
X14054881Y-32855881D01*
X14045357Y-32817786D01*
X14045357Y-32770167D01*
X14054881Y-32732071D01*
X14064405Y-32713024D01*
X14073928Y-32703500D01*
X14092976Y-32693976D01*
X14245357Y-32874928D02*
X14254881Y-32884452D01*
X14245357Y-32893976D01*
X14235833Y-32884452D01*
X14245357Y-32874928D01*
X14245357Y-32893976D01*
X14378690Y-32693976D02*
X14397738Y-32693976D01*
X14416786Y-32703500D01*
X14426309Y-32713024D01*
X14435833Y-32732071D01*
X14445357Y-32770167D01*
X14445357Y-32817786D01*
X14435833Y-32855881D01*
X14426309Y-32874928D01*
X14416786Y-32884452D01*
X14397738Y-32893976D01*
X14378690Y-32893976D01*
X14359643Y-32884452D01*
X14350119Y-32874928D01*
X14340595Y-32855881D01*
X14331071Y-32817786D01*
X14331071Y-32770167D01*
X14340595Y-32732071D01*
X14350119Y-32713024D01*
X14359643Y-32703500D01*
X14378690Y-32693976D01*
X14616786Y-32760643D02*
X14616786Y-32893976D01*
X14569167Y-32684452D02*
X14521548Y-32827309D01*
X14645357Y-32827309D01*
X14759643Y-32693976D02*
X14778690Y-32693976D01*
X14797738Y-32703500D01*
X14807262Y-32713024D01*
X14816786Y-32732071D01*
X14826309Y-32770167D01*
X14826309Y-32817786D01*
X14816786Y-32855881D01*
X14807262Y-32874928D01*
X14797738Y-32884452D01*
X14778690Y-32893976D01*
X14759643Y-32893976D01*
X14740595Y-32884452D01*
X14731071Y-32874928D01*
X14721548Y-32855881D01*
X14712024Y-32817786D01*
X14712024Y-32770167D01*
X14721548Y-32732071D01*
X14731071Y-32713024D01*
X14740595Y-32703500D01*
X14759643Y-32693976D01*
X14950119Y-32693976D02*
X14969167Y-32693976D01*
X14988214Y-32703500D01*
X14997738Y-32713024D01*
X15007262Y-32732071D01*
X15016786Y-32770167D01*
X15016786Y-32817786D01*
X15007262Y-32855881D01*
X14997738Y-32874928D01*
X14988214Y-32884452D01*
X14969167Y-32893976D01*
X14950119Y-32893976D01*
X14931071Y-32884452D01*
X14921548Y-32874928D01*
X14912024Y-32855881D01*
X14902500Y-32817786D01*
X14902500Y-32770167D01*
X14912024Y-32732071D01*
X14921548Y-32713024D01*
X14931071Y-32703500D01*
X14950119Y-32693976D01*
X15092976Y-32693976D02*
X15092976Y-32732071D01*
X15169167Y-32693976D02*
X15169167Y-32732071D01*
X15464405Y-32970167D02*
X15454881Y-32960643D01*
X15435833Y-32932071D01*
X15426309Y-32913024D01*
X15416786Y-32884452D01*
X15407262Y-32836833D01*
X15407262Y-32798738D01*
X15416786Y-32751119D01*
X15426309Y-32722548D01*
X15435833Y-32703500D01*
X15454881Y-32674928D01*
X15464405Y-32665405D01*
X15569167Y-32779690D02*
X15550119Y-32770167D01*
X15540595Y-32760643D01*
X15531071Y-32741595D01*
X15531071Y-32732071D01*
X15540595Y-32713024D01*
X15550119Y-32703500D01*
X15569167Y-32693976D01*
X15607262Y-32693976D01*
X15626309Y-32703500D01*
X15635833Y-32713024D01*
X15645357Y-32732071D01*
X15645357Y-32741595D01*
X15635833Y-32760643D01*
X15626309Y-32770167D01*
X15607262Y-32779690D01*
X15569167Y-32779690D01*
X15550119Y-32789214D01*
X15540595Y-32798738D01*
X15531071Y-32817786D01*
X15531071Y-32855881D01*
X15540595Y-32874928D01*
X15550119Y-32884452D01*
X15569167Y-32893976D01*
X15607262Y-32893976D01*
X15626309Y-32884452D01*
X15635833Y-32874928D01*
X15645357Y-32855881D01*
X15645357Y-32817786D01*
X15635833Y-32798738D01*
X15626309Y-32789214D01*
X15607262Y-32779690D01*
X15816786Y-32693976D02*
X15778690Y-32693976D01*
X15759643Y-32703500D01*
X15750119Y-32713024D01*
X15731071Y-32741595D01*
X15721548Y-32779690D01*
X15721548Y-32855881D01*
X15731071Y-32874928D01*
X15740595Y-32884452D01*
X15759643Y-32893976D01*
X15797738Y-32893976D01*
X15816786Y-32884452D01*
X15826309Y-32874928D01*
X15835833Y-32855881D01*
X15835833Y-32808262D01*
X15826309Y-32789214D01*
X15816786Y-32779690D01*
X15797738Y-32770167D01*
X15759643Y-32770167D01*
X15740595Y-32779690D01*
X15731071Y-32789214D01*
X15721548Y-32808262D01*
X16073928Y-32893976D02*
X16073928Y-32693976D01*
X16159643Y-32893976D02*
X16159643Y-32789214D01*
X16150119Y-32770167D01*
X16131071Y-32760643D01*
X16102500Y-32760643D01*
X16083452Y-32770167D01*
X16073928Y-32779690D01*
X16283452Y-32893976D02*
X16264405Y-32884452D01*
X16254881Y-32874928D01*
X16245357Y-32855881D01*
X16245357Y-32798738D01*
X16254881Y-32779690D01*
X16264405Y-32770167D01*
X16283452Y-32760643D01*
X16312024Y-32760643D01*
X16331071Y-32770167D01*
X16340595Y-32779690D01*
X16350119Y-32798738D01*
X16350119Y-32855881D01*
X16340595Y-32874928D01*
X16331071Y-32884452D01*
X16312024Y-32893976D01*
X16283452Y-32893976D01*
X16464405Y-32893976D02*
X16445357Y-32884452D01*
X16435833Y-32865405D01*
X16435833Y-32693976D01*
X16616786Y-32884452D02*
X16597738Y-32893976D01*
X16559643Y-32893976D01*
X16540595Y-32884452D01*
X16531071Y-32865405D01*
X16531071Y-32789214D01*
X16540595Y-32770167D01*
X16559643Y-32760643D01*
X16597738Y-32760643D01*
X16616786Y-32770167D01*
X16626309Y-32789214D01*
X16626309Y-32808262D01*
X16531071Y-32827309D01*
X16702500Y-32884452D02*
X16721548Y-32893976D01*
X16759643Y-32893976D01*
X16778690Y-32884452D01*
X16788214Y-32865405D01*
X16788214Y-32855881D01*
X16778690Y-32836833D01*
X16759643Y-32827309D01*
X16731071Y-32827309D01*
X16712024Y-32817786D01*
X16702500Y-32798738D01*
X16702500Y-32789214D01*
X16712024Y-32770167D01*
X16731071Y-32760643D01*
X16759643Y-32760643D01*
X16778690Y-32770167D01*
X16854881Y-32970167D02*
X16864405Y-32960643D01*
X16883452Y-32932071D01*
X16892976Y-32913024D01*
X16902500Y-32884452D01*
X16912024Y-32836833D01*
X16912024Y-32798738D01*
X16902500Y-32751119D01*
X16892976Y-32722548D01*
X16883452Y-32703500D01*
X16864405Y-32674928D01*
X16854881Y-32665405D01*
D17*
X11742500Y-32992500D02*
X11892500Y-33142500D01*
X11892500Y-32992500D02*
X11742500Y-33142500D01*
X11892500Y-33067500D02*
G75*
G03*
X11892500Y-33067500I-75000J0D01*
G01*
D11*
X12254881Y-33157976D02*
X12140595Y-33157976D01*
X12197738Y-33157976D02*
X12197738Y-32957976D01*
X12178690Y-32986548D01*
X12159643Y-33005595D01*
X12140595Y-33015119D01*
X12340595Y-33138928D02*
X12350119Y-33148452D01*
X12340595Y-33157976D01*
X12331071Y-33148452D01*
X12340595Y-33138928D01*
X12340595Y-33157976D01*
X12531071Y-32957976D02*
X12435833Y-32957976D01*
X12426309Y-33053214D01*
X12435833Y-33043690D01*
X12454881Y-33034167D01*
X12502500Y-33034167D01*
X12521548Y-33043690D01*
X12531071Y-33053214D01*
X12540595Y-33072262D01*
X12540595Y-33119881D01*
X12531071Y-33138928D01*
X12521548Y-33148452D01*
X12502500Y-33157976D01*
X12454881Y-33157976D01*
X12435833Y-33148452D01*
X12426309Y-33138928D01*
X12664405Y-32957976D02*
X12683452Y-32957976D01*
X12702500Y-32967500D01*
X12712024Y-32977024D01*
X12721548Y-32996071D01*
X12731071Y-33034167D01*
X12731071Y-33081786D01*
X12721548Y-33119881D01*
X12712024Y-33138928D01*
X12702500Y-33148452D01*
X12683452Y-33157976D01*
X12664405Y-33157976D01*
X12645357Y-33148452D01*
X12635833Y-33138928D01*
X12626309Y-33119881D01*
X12616786Y-33081786D01*
X12616786Y-33034167D01*
X12626309Y-32996071D01*
X12635833Y-32977024D01*
X12645357Y-32967500D01*
X12664405Y-32957976D01*
X12854881Y-32957976D02*
X12873928Y-32957976D01*
X12892976Y-32967500D01*
X12902500Y-32977024D01*
X12912024Y-32996071D01*
X12921548Y-33034167D01*
X12921548Y-33081786D01*
X12912024Y-33119881D01*
X12902500Y-33138928D01*
X12892976Y-33148452D01*
X12873928Y-33157976D01*
X12854881Y-33157976D01*
X12835833Y-33148452D01*
X12826309Y-33138928D01*
X12816786Y-33119881D01*
X12807262Y-33081786D01*
X12807262Y-33034167D01*
X12816786Y-32996071D01*
X12826309Y-32977024D01*
X12835833Y-32967500D01*
X12854881Y-32957976D01*
X13007262Y-33157976D02*
X13007262Y-33024643D01*
X13007262Y-33043690D02*
X13016786Y-33034167D01*
X13035833Y-33024643D01*
X13064405Y-33024643D01*
X13083452Y-33034167D01*
X13092976Y-33053214D01*
X13092976Y-33157976D01*
X13092976Y-33053214D02*
X13102500Y-33034167D01*
X13121548Y-33024643D01*
X13150119Y-33024643D01*
X13169167Y-33034167D01*
X13178690Y-33053214D01*
X13178690Y-33157976D01*
X13273928Y-33157976D02*
X13273928Y-33024643D01*
X13273928Y-33043690D02*
X13283452Y-33034167D01*
X13302500Y-33024643D01*
X13331071Y-33024643D01*
X13350119Y-33034167D01*
X13359643Y-33053214D01*
X13359643Y-33157976D01*
X13359643Y-33053214D02*
X13369167Y-33034167D01*
X13388214Y-33024643D01*
X13416786Y-33024643D01*
X13435833Y-33034167D01*
X13445357Y-33053214D01*
X13445357Y-33157976D01*
X13835833Y-32948452D02*
X13664405Y-33205595D01*
X14092976Y-32957976D02*
X14112024Y-32957976D01*
X14131071Y-32967500D01*
X14140595Y-32977024D01*
X14150119Y-32996071D01*
X14159643Y-33034167D01*
X14159643Y-33081786D01*
X14150119Y-33119881D01*
X14140595Y-33138928D01*
X14131071Y-33148452D01*
X14112024Y-33157976D01*
X14092976Y-33157976D01*
X14073928Y-33148452D01*
X14064405Y-33138928D01*
X14054881Y-33119881D01*
X14045357Y-33081786D01*
X14045357Y-33034167D01*
X14054881Y-32996071D01*
X14064405Y-32977024D01*
X14073928Y-32967500D01*
X14092976Y-32957976D01*
X14245357Y-33138928D02*
X14254881Y-33148452D01*
X14245357Y-33157976D01*
X14235833Y-33148452D01*
X14245357Y-33138928D01*
X14245357Y-33157976D01*
X14378690Y-32957976D02*
X14397738Y-32957976D01*
X14416786Y-32967500D01*
X14426309Y-32977024D01*
X14435833Y-32996071D01*
X14445357Y-33034167D01*
X14445357Y-33081786D01*
X14435833Y-33119881D01*
X14426309Y-33138928D01*
X14416786Y-33148452D01*
X14397738Y-33157976D01*
X14378690Y-33157976D01*
X14359643Y-33148452D01*
X14350119Y-33138928D01*
X14340595Y-33119881D01*
X14331071Y-33081786D01*
X14331071Y-33034167D01*
X14340595Y-32996071D01*
X14350119Y-32977024D01*
X14359643Y-32967500D01*
X14378690Y-32957976D01*
X14626309Y-32957976D02*
X14531071Y-32957976D01*
X14521548Y-33053214D01*
X14531071Y-33043690D01*
X14550119Y-33034167D01*
X14597738Y-33034167D01*
X14616786Y-33043690D01*
X14626309Y-33053214D01*
X14635833Y-33072262D01*
X14635833Y-33119881D01*
X14626309Y-33138928D01*
X14616786Y-33148452D01*
X14597738Y-33157976D01*
X14550119Y-33157976D01*
X14531071Y-33148452D01*
X14521548Y-33138928D01*
X14731071Y-33157976D02*
X14769167Y-33157976D01*
X14788214Y-33148452D01*
X14797738Y-33138928D01*
X14816786Y-33110357D01*
X14826309Y-33072262D01*
X14826309Y-32996071D01*
X14816786Y-32977024D01*
X14807262Y-32967500D01*
X14788214Y-32957976D01*
X14750119Y-32957976D01*
X14731071Y-32967500D01*
X14721548Y-32977024D01*
X14712024Y-32996071D01*
X14712024Y-33043690D01*
X14721548Y-33062738D01*
X14731071Y-33072262D01*
X14750119Y-33081786D01*
X14788214Y-33081786D01*
X14807262Y-33072262D01*
X14816786Y-33062738D01*
X14826309Y-33043690D01*
X15016786Y-33157976D02*
X14902500Y-33157976D01*
X14959643Y-33157976D02*
X14959643Y-32957976D01*
X14940595Y-32986548D01*
X14921548Y-33005595D01*
X14902500Y-33015119D01*
X15092976Y-32957976D02*
X15092976Y-32996071D01*
X15169167Y-32957976D02*
X15169167Y-32996071D01*
X15464405Y-33234167D02*
X15454881Y-33224643D01*
X15435833Y-33196071D01*
X15426309Y-33177024D01*
X15416786Y-33148452D01*
X15407262Y-33100833D01*
X15407262Y-33062738D01*
X15416786Y-33015119D01*
X15426309Y-32986548D01*
X15435833Y-32967500D01*
X15454881Y-32938928D01*
X15464405Y-32929405D01*
X15645357Y-33157976D02*
X15531071Y-33157976D01*
X15588214Y-33157976D02*
X15588214Y-32957976D01*
X15569167Y-32986548D01*
X15550119Y-33005595D01*
X15531071Y-33015119D01*
X15769167Y-32957976D02*
X15788214Y-32957976D01*
X15807262Y-32967500D01*
X15816786Y-32977024D01*
X15826309Y-32996071D01*
X15835833Y-33034167D01*
X15835833Y-33081786D01*
X15826309Y-33119881D01*
X15816786Y-33138928D01*
X15807262Y-33148452D01*
X15788214Y-33157976D01*
X15769167Y-33157976D01*
X15750119Y-33148452D01*
X15740595Y-33138928D01*
X15731071Y-33119881D01*
X15721548Y-33081786D01*
X15721548Y-33034167D01*
X15731071Y-32996071D01*
X15740595Y-32977024D01*
X15750119Y-32967500D01*
X15769167Y-32957976D01*
X16073928Y-33157976D02*
X16073928Y-32957976D01*
X16159643Y-33157976D02*
X16159643Y-33053214D01*
X16150119Y-33034167D01*
X16131071Y-33024643D01*
X16102500Y-33024643D01*
X16083452Y-33034167D01*
X16073928Y-33043690D01*
X16283452Y-33157976D02*
X16264405Y-33148452D01*
X16254881Y-33138928D01*
X16245357Y-33119881D01*
X16245357Y-33062738D01*
X16254881Y-33043690D01*
X16264405Y-33034167D01*
X16283452Y-33024643D01*
X16312024Y-33024643D01*
X16331071Y-33034167D01*
X16340595Y-33043690D01*
X16350119Y-33062738D01*
X16350119Y-33119881D01*
X16340595Y-33138928D01*
X16331071Y-33148452D01*
X16312024Y-33157976D01*
X16283452Y-33157976D01*
X16464405Y-33157976D02*
X16445357Y-33148452D01*
X16435833Y-33129405D01*
X16435833Y-32957976D01*
X16616786Y-33148452D02*
X16597738Y-33157976D01*
X16559643Y-33157976D01*
X16540595Y-33148452D01*
X16531071Y-33129405D01*
X16531071Y-33053214D01*
X16540595Y-33034167D01*
X16559643Y-33024643D01*
X16597738Y-33024643D01*
X16616786Y-33034167D01*
X16626309Y-33053214D01*
X16626309Y-33072262D01*
X16531071Y-33091309D01*
X16702500Y-33148452D02*
X16721548Y-33157976D01*
X16759643Y-33157976D01*
X16778690Y-33148452D01*
X16788214Y-33129405D01*
X16788214Y-33119881D01*
X16778690Y-33100833D01*
X16759643Y-33091309D01*
X16731071Y-33091309D01*
X16712024Y-33081786D01*
X16702500Y-33062738D01*
X16702500Y-33053214D01*
X16712024Y-33034167D01*
X16731071Y-33024643D01*
X16759643Y-33024643D01*
X16778690Y-33034167D01*
X16854881Y-33234167D02*
X16864405Y-33224643D01*
X16883452Y-33196071D01*
X16892976Y-33177024D01*
X16902500Y-33148452D01*
X16912024Y-33100833D01*
X16912024Y-33062738D01*
X16902500Y-33015119D01*
X16892976Y-32986548D01*
X16883452Y-32967500D01*
X16864405Y-32938928D01*
X16854881Y-32929405D01*
X11692500Y-33237500D02*
X11892500Y-33437500D01*
X11892500Y-33237500D02*
X11692500Y-33437500D01*
X11792500Y-33237500D02*
X11792500Y-33437500D01*
X11692500Y-33337500D02*
X11892500Y-33337500D01*
X12140595Y-33247024D02*
X12150119Y-33237500D01*
X12169167Y-33227976D01*
X12216786Y-33227976D01*
X12235833Y-33237500D01*
X12245357Y-33247024D01*
X12254881Y-33266071D01*
X12254881Y-33285119D01*
X12245357Y-33313690D01*
X12131071Y-33427976D01*
X12254881Y-33427976D01*
X12340595Y-33408928D02*
X12350119Y-33418452D01*
X12340595Y-33427976D01*
X12331071Y-33418452D01*
X12340595Y-33408928D01*
X12340595Y-33427976D01*
X12521548Y-33227976D02*
X12483452Y-33227976D01*
X12464405Y-33237500D01*
X12454881Y-33247024D01*
X12435833Y-33275595D01*
X12426309Y-33313690D01*
X12426309Y-33389881D01*
X12435833Y-33408928D01*
X12445357Y-33418452D01*
X12464405Y-33427976D01*
X12502500Y-33427976D01*
X12521548Y-33418452D01*
X12531071Y-33408928D01*
X12540595Y-33389881D01*
X12540595Y-33342262D01*
X12531071Y-33323214D01*
X12521548Y-33313690D01*
X12502500Y-33304167D01*
X12464405Y-33304167D01*
X12445357Y-33313690D01*
X12435833Y-33323214D01*
X12426309Y-33342262D01*
X12664405Y-33227976D02*
X12683452Y-33227976D01*
X12702500Y-33237500D01*
X12712024Y-33247024D01*
X12721548Y-33266071D01*
X12731071Y-33304167D01*
X12731071Y-33351786D01*
X12721548Y-33389881D01*
X12712024Y-33408928D01*
X12702500Y-33418452D01*
X12683452Y-33427976D01*
X12664405Y-33427976D01*
X12645357Y-33418452D01*
X12635833Y-33408928D01*
X12626309Y-33389881D01*
X12616786Y-33351786D01*
X12616786Y-33304167D01*
X12626309Y-33266071D01*
X12635833Y-33247024D01*
X12645357Y-33237500D01*
X12664405Y-33227976D01*
X12854881Y-33227976D02*
X12873928Y-33227976D01*
X12892976Y-33237500D01*
X12902500Y-33247024D01*
X12912024Y-33266071D01*
X12921548Y-33304167D01*
X12921548Y-33351786D01*
X12912024Y-33389881D01*
X12902500Y-33408928D01*
X12892976Y-33418452D01*
X12873928Y-33427976D01*
X12854881Y-33427976D01*
X12835833Y-33418452D01*
X12826309Y-33408928D01*
X12816786Y-33389881D01*
X12807262Y-33351786D01*
X12807262Y-33304167D01*
X12816786Y-33266071D01*
X12826309Y-33247024D01*
X12835833Y-33237500D01*
X12854881Y-33227976D01*
X13007262Y-33427976D02*
X13007262Y-33294643D01*
X13007262Y-33313690D02*
X13016786Y-33304167D01*
X13035833Y-33294643D01*
X13064405Y-33294643D01*
X13083452Y-33304167D01*
X13092976Y-33323214D01*
X13092976Y-33427976D01*
X13092976Y-33323214D02*
X13102500Y-33304167D01*
X13121548Y-33294643D01*
X13150119Y-33294643D01*
X13169167Y-33304167D01*
X13178690Y-33323214D01*
X13178690Y-33427976D01*
X13273928Y-33427976D02*
X13273928Y-33294643D01*
X13273928Y-33313690D02*
X13283452Y-33304167D01*
X13302500Y-33294643D01*
X13331071Y-33294643D01*
X13350119Y-33304167D01*
X13359643Y-33323214D01*
X13359643Y-33427976D01*
X13359643Y-33323214D02*
X13369167Y-33304167D01*
X13388214Y-33294643D01*
X13416786Y-33294643D01*
X13435833Y-33304167D01*
X13445357Y-33323214D01*
X13445357Y-33427976D01*
X13835833Y-33218452D02*
X13664405Y-33475595D01*
X14092976Y-33227976D02*
X14112024Y-33227976D01*
X14131071Y-33237500D01*
X14140595Y-33247024D01*
X14150119Y-33266071D01*
X14159643Y-33304167D01*
X14159643Y-33351786D01*
X14150119Y-33389881D01*
X14140595Y-33408928D01*
X14131071Y-33418452D01*
X14112024Y-33427976D01*
X14092976Y-33427976D01*
X14073928Y-33418452D01*
X14064405Y-33408928D01*
X14054881Y-33389881D01*
X14045357Y-33351786D01*
X14045357Y-33304167D01*
X14054881Y-33266071D01*
X14064405Y-33247024D01*
X14073928Y-33237500D01*
X14092976Y-33227976D01*
X14245357Y-33408928D02*
X14254881Y-33418452D01*
X14245357Y-33427976D01*
X14235833Y-33418452D01*
X14245357Y-33408928D01*
X14245357Y-33427976D01*
X14445357Y-33427976D02*
X14331071Y-33427976D01*
X14388214Y-33427976D02*
X14388214Y-33227976D01*
X14369167Y-33256548D01*
X14350119Y-33275595D01*
X14331071Y-33285119D01*
X14569167Y-33227976D02*
X14588214Y-33227976D01*
X14607262Y-33237500D01*
X14616786Y-33247024D01*
X14626309Y-33266071D01*
X14635833Y-33304167D01*
X14635833Y-33351786D01*
X14626309Y-33389881D01*
X14616786Y-33408928D01*
X14607262Y-33418452D01*
X14588214Y-33427976D01*
X14569167Y-33427976D01*
X14550119Y-33418452D01*
X14540595Y-33408928D01*
X14531071Y-33389881D01*
X14521548Y-33351786D01*
X14521548Y-33304167D01*
X14531071Y-33266071D01*
X14540595Y-33247024D01*
X14550119Y-33237500D01*
X14569167Y-33227976D01*
X14712024Y-33247024D02*
X14721548Y-33237500D01*
X14740595Y-33227976D01*
X14788214Y-33227976D01*
X14807262Y-33237500D01*
X14816786Y-33247024D01*
X14826309Y-33266071D01*
X14826309Y-33285119D01*
X14816786Y-33313690D01*
X14702500Y-33427976D01*
X14826309Y-33427976D01*
X14997738Y-33294643D02*
X14997738Y-33427976D01*
X14950119Y-33218452D02*
X14902500Y-33361309D01*
X15026309Y-33361309D01*
X15092976Y-33227976D02*
X15092976Y-33266071D01*
X15169167Y-33227976D02*
X15169167Y-33266071D01*
X15464405Y-33504167D02*
X15454881Y-33494643D01*
X15435833Y-33466071D01*
X15426309Y-33447024D01*
X15416786Y-33418452D01*
X15407262Y-33370833D01*
X15407262Y-33332738D01*
X15416786Y-33285119D01*
X15426309Y-33256548D01*
X15435833Y-33237500D01*
X15454881Y-33208928D01*
X15464405Y-33199405D01*
X15626309Y-33294643D02*
X15626309Y-33427976D01*
X15578690Y-33218452D02*
X15531071Y-33361309D01*
X15654881Y-33361309D01*
X15883452Y-33427976D02*
X15883452Y-33227976D01*
X15969167Y-33427976D02*
X15969167Y-33323214D01*
X15959643Y-33304167D01*
X15940595Y-33294643D01*
X15912024Y-33294643D01*
X15892976Y-33304167D01*
X15883452Y-33313690D01*
X16092976Y-33427976D02*
X16073928Y-33418452D01*
X16064405Y-33408928D01*
X16054881Y-33389881D01*
X16054881Y-33332738D01*
X16064405Y-33313690D01*
X16073928Y-33304167D01*
X16092976Y-33294643D01*
X16121548Y-33294643D01*
X16140595Y-33304167D01*
X16150119Y-33313690D01*
X16159643Y-33332738D01*
X16159643Y-33389881D01*
X16150119Y-33408928D01*
X16140595Y-33418452D01*
X16121548Y-33427976D01*
X16092976Y-33427976D01*
X16273928Y-33427976D02*
X16254881Y-33418452D01*
X16245357Y-33399405D01*
X16245357Y-33227976D01*
X16426309Y-33418452D02*
X16407262Y-33427976D01*
X16369167Y-33427976D01*
X16350119Y-33418452D01*
X16340595Y-33399405D01*
X16340595Y-33323214D01*
X16350119Y-33304167D01*
X16369167Y-33294643D01*
X16407262Y-33294643D01*
X16426309Y-33304167D01*
X16435833Y-33323214D01*
X16435833Y-33342262D01*
X16340595Y-33361309D01*
X16512024Y-33418452D02*
X16531071Y-33427976D01*
X16569167Y-33427976D01*
X16588214Y-33418452D01*
X16597738Y-33399405D01*
X16597738Y-33389881D01*
X16588214Y-33370833D01*
X16569167Y-33361309D01*
X16540595Y-33361309D01*
X16521548Y-33351786D01*
X16512024Y-33332738D01*
X16512024Y-33323214D01*
X16521548Y-33304167D01*
X16540595Y-33294643D01*
X16569167Y-33294643D01*
X16588214Y-33304167D01*
X16664405Y-33504167D02*
X16673928Y-33494643D01*
X16692976Y-33466071D01*
X16702500Y-33447024D01*
X16712024Y-33418452D01*
X16721548Y-33370833D01*
X16721548Y-33332738D01*
X16712024Y-33285119D01*
X16702500Y-33256548D01*
X16692976Y-33237500D01*
X16673928Y-33208928D01*
X16664405Y-33199405D01*
X11692500Y-33557500D02*
X11892500Y-33757500D01*
X11892500Y-33557500D02*
X11692500Y-33757500D01*
X11863211Y-33728211D02*
X11863211Y-33586789D01*
X11721789Y-33586789D01*
X11721789Y-33728211D01*
X11863211Y-33728211D01*
X12131071Y-33547976D02*
X12254881Y-33547976D01*
X12188214Y-33624167D01*
X12216786Y-33624167D01*
X12235833Y-33633690D01*
X12245357Y-33643214D01*
X12254881Y-33662262D01*
X12254881Y-33709881D01*
X12245357Y-33728929D01*
X12235833Y-33738452D01*
X12216786Y-33747976D01*
X12159643Y-33747976D01*
X12140595Y-33738452D01*
X12131071Y-33728929D01*
X12340595Y-33728929D02*
X12350119Y-33738452D01*
X12340595Y-33747976D01*
X12331071Y-33738452D01*
X12340595Y-33728929D01*
X12340595Y-33747976D01*
X12426309Y-33567024D02*
X12435833Y-33557500D01*
X12454881Y-33547976D01*
X12502500Y-33547976D01*
X12521548Y-33557500D01*
X12531071Y-33567024D01*
X12540595Y-33586071D01*
X12540595Y-33605119D01*
X12531071Y-33633690D01*
X12416786Y-33747976D01*
X12540595Y-33747976D01*
X12664405Y-33547976D02*
X12683452Y-33547976D01*
X12702500Y-33557500D01*
X12712024Y-33567024D01*
X12721548Y-33586071D01*
X12731071Y-33624167D01*
X12731071Y-33671786D01*
X12721548Y-33709881D01*
X12712024Y-33728929D01*
X12702500Y-33738452D01*
X12683452Y-33747976D01*
X12664405Y-33747976D01*
X12645357Y-33738452D01*
X12635833Y-33728929D01*
X12626309Y-33709881D01*
X12616786Y-33671786D01*
X12616786Y-33624167D01*
X12626309Y-33586071D01*
X12635833Y-33567024D01*
X12645357Y-33557500D01*
X12664405Y-33547976D01*
X12854881Y-33547976D02*
X12873928Y-33547976D01*
X12892976Y-33557500D01*
X12902500Y-33567024D01*
X12912024Y-33586071D01*
X12921548Y-33624167D01*
X12921548Y-33671786D01*
X12912024Y-33709881D01*
X12902500Y-33728929D01*
X12892976Y-33738452D01*
X12873928Y-33747976D01*
X12854881Y-33747976D01*
X12835833Y-33738452D01*
X12826309Y-33728929D01*
X12816786Y-33709881D01*
X12807262Y-33671786D01*
X12807262Y-33624167D01*
X12816786Y-33586071D01*
X12826309Y-33567024D01*
X12835833Y-33557500D01*
X12854881Y-33547976D01*
X13007262Y-33747976D02*
X13007262Y-33614643D01*
X13007262Y-33633690D02*
X13016786Y-33624167D01*
X13035833Y-33614643D01*
X13064405Y-33614643D01*
X13083452Y-33624167D01*
X13092976Y-33643214D01*
X13092976Y-33747976D01*
X13092976Y-33643214D02*
X13102500Y-33624167D01*
X13121548Y-33614643D01*
X13150119Y-33614643D01*
X13169167Y-33624167D01*
X13178690Y-33643214D01*
X13178690Y-33747976D01*
X13273928Y-33747976D02*
X13273928Y-33614643D01*
X13273928Y-33633690D02*
X13283452Y-33624167D01*
X13302500Y-33614643D01*
X13331071Y-33614643D01*
X13350119Y-33624167D01*
X13359643Y-33643214D01*
X13359643Y-33747976D01*
X13359643Y-33643214D02*
X13369167Y-33624167D01*
X13388214Y-33614643D01*
X13416786Y-33614643D01*
X13435833Y-33624167D01*
X13445357Y-33643214D01*
X13445357Y-33747976D01*
X13835833Y-33538452D02*
X13664405Y-33795595D01*
X14092976Y-33547976D02*
X14112024Y-33547976D01*
X14131071Y-33557500D01*
X14140595Y-33567024D01*
X14150119Y-33586071D01*
X14159643Y-33624167D01*
X14159643Y-33671786D01*
X14150119Y-33709881D01*
X14140595Y-33728929D01*
X14131071Y-33738452D01*
X14112024Y-33747976D01*
X14092976Y-33747976D01*
X14073928Y-33738452D01*
X14064405Y-33728929D01*
X14054881Y-33709881D01*
X14045357Y-33671786D01*
X14045357Y-33624167D01*
X14054881Y-33586071D01*
X14064405Y-33567024D01*
X14073928Y-33557500D01*
X14092976Y-33547976D01*
X14245357Y-33728929D02*
X14254881Y-33738452D01*
X14245357Y-33747976D01*
X14235833Y-33738452D01*
X14245357Y-33728929D01*
X14245357Y-33747976D01*
X14445357Y-33747976D02*
X14331071Y-33747976D01*
X14388214Y-33747976D02*
X14388214Y-33547976D01*
X14369167Y-33576548D01*
X14350119Y-33595595D01*
X14331071Y-33605119D01*
X14521548Y-33567024D02*
X14531071Y-33557500D01*
X14550119Y-33547976D01*
X14597738Y-33547976D01*
X14616786Y-33557500D01*
X14626309Y-33567024D01*
X14635833Y-33586071D01*
X14635833Y-33605119D01*
X14626309Y-33633690D01*
X14512024Y-33747976D01*
X14635833Y-33747976D01*
X14807262Y-33547976D02*
X14769167Y-33547976D01*
X14750119Y-33557500D01*
X14740595Y-33567024D01*
X14721548Y-33595595D01*
X14712024Y-33633690D01*
X14712024Y-33709881D01*
X14721548Y-33728929D01*
X14731071Y-33738452D01*
X14750119Y-33747976D01*
X14788214Y-33747976D01*
X14807262Y-33738452D01*
X14816786Y-33728929D01*
X14826309Y-33709881D01*
X14826309Y-33662262D01*
X14816786Y-33643214D01*
X14807262Y-33633690D01*
X14788214Y-33624167D01*
X14750119Y-33624167D01*
X14731071Y-33633690D01*
X14721548Y-33643214D01*
X14712024Y-33662262D01*
X14950119Y-33547976D02*
X14969167Y-33547976D01*
X14988214Y-33557500D01*
X14997738Y-33567024D01*
X15007262Y-33586071D01*
X15016786Y-33624167D01*
X15016786Y-33671786D01*
X15007262Y-33709881D01*
X14997738Y-33728929D01*
X14988214Y-33738452D01*
X14969167Y-33747976D01*
X14950119Y-33747976D01*
X14931071Y-33738452D01*
X14921548Y-33728929D01*
X14912024Y-33709881D01*
X14902500Y-33671786D01*
X14902500Y-33624167D01*
X14912024Y-33586071D01*
X14921548Y-33567024D01*
X14931071Y-33557500D01*
X14950119Y-33547976D01*
X15092976Y-33547976D02*
X15092976Y-33586071D01*
X15169167Y-33547976D02*
X15169167Y-33586071D01*
X15464405Y-33824167D02*
X15454881Y-33814643D01*
X15435833Y-33786071D01*
X15426309Y-33767024D01*
X15416786Y-33738452D01*
X15407262Y-33690833D01*
X15407262Y-33652738D01*
X15416786Y-33605119D01*
X15426309Y-33576548D01*
X15435833Y-33557500D01*
X15454881Y-33528928D01*
X15464405Y-33519405D01*
X15645357Y-33747976D02*
X15531071Y-33747976D01*
X15588214Y-33747976D02*
X15588214Y-33547976D01*
X15569167Y-33576548D01*
X15550119Y-33595595D01*
X15531071Y-33605119D01*
X15721548Y-33567024D02*
X15731071Y-33557500D01*
X15750119Y-33547976D01*
X15797738Y-33547976D01*
X15816786Y-33557500D01*
X15826309Y-33567024D01*
X15835833Y-33586071D01*
X15835833Y-33605119D01*
X15826309Y-33633690D01*
X15712024Y-33747976D01*
X15835833Y-33747976D01*
X16073928Y-33747976D02*
X16073928Y-33547976D01*
X16159643Y-33747976D02*
X16159643Y-33643214D01*
X16150119Y-33624167D01*
X16131071Y-33614643D01*
X16102500Y-33614643D01*
X16083452Y-33624167D01*
X16073928Y-33633690D01*
X16283452Y-33747976D02*
X16264405Y-33738452D01*
X16254881Y-33728929D01*
X16245357Y-33709881D01*
X16245357Y-33652738D01*
X16254881Y-33633690D01*
X16264405Y-33624167D01*
X16283452Y-33614643D01*
X16312024Y-33614643D01*
X16331071Y-33624167D01*
X16340595Y-33633690D01*
X16350119Y-33652738D01*
X16350119Y-33709881D01*
X16340595Y-33728929D01*
X16331071Y-33738452D01*
X16312024Y-33747976D01*
X16283452Y-33747976D01*
X16464405Y-33747976D02*
X16445357Y-33738452D01*
X16435833Y-33719405D01*
X16435833Y-33547976D01*
X16616786Y-33738452D02*
X16597738Y-33747976D01*
X16559643Y-33747976D01*
X16540595Y-33738452D01*
X16531071Y-33719405D01*
X16531071Y-33643214D01*
X16540595Y-33624167D01*
X16559643Y-33614643D01*
X16597738Y-33614643D01*
X16616786Y-33624167D01*
X16626309Y-33643214D01*
X16626309Y-33662262D01*
X16531071Y-33681310D01*
X16702500Y-33738452D02*
X16721548Y-33747976D01*
X16759643Y-33747976D01*
X16778690Y-33738452D01*
X16788214Y-33719405D01*
X16788214Y-33709881D01*
X16778690Y-33690833D01*
X16759643Y-33681310D01*
X16731071Y-33681310D01*
X16712024Y-33671786D01*
X16702500Y-33652738D01*
X16702500Y-33643214D01*
X16712024Y-33624167D01*
X16731071Y-33614643D01*
X16759643Y-33614643D01*
X16778690Y-33624167D01*
X16854881Y-33824167D02*
X16864405Y-33814643D01*
X16883452Y-33786071D01*
X16892976Y-33767024D01*
X16902500Y-33738452D01*
X16912024Y-33690833D01*
X16912024Y-33652738D01*
X16902500Y-33605119D01*
X16892976Y-33576548D01*
X16883452Y-33557500D01*
X16864405Y-33528928D01*
X16854881Y-33519405D01*
X11692500Y-33877500D02*
X11892500Y-34077500D01*
X11892500Y-33877500D02*
X11692500Y-34077500D01*
X11792500Y-34077500D02*
X11892500Y-33977500D01*
X11792500Y-33877500D01*
X11692500Y-33977500D01*
X11792500Y-34077500D01*
X12140595Y-33887024D02*
X12150119Y-33877500D01*
X12169167Y-33867976D01*
X12216786Y-33867976D01*
X12235833Y-33877500D01*
X12245357Y-33887024D01*
X12254881Y-33906071D01*
X12254881Y-33925119D01*
X12245357Y-33953690D01*
X12131071Y-34067976D01*
X12254881Y-34067976D01*
X12340595Y-34048929D02*
X12350119Y-34058452D01*
X12340595Y-34067976D01*
X12331071Y-34058452D01*
X12340595Y-34048929D01*
X12340595Y-34067976D01*
X12473928Y-33867976D02*
X12492976Y-33867976D01*
X12512024Y-33877500D01*
X12521548Y-33887024D01*
X12531071Y-33906071D01*
X12540595Y-33944167D01*
X12540595Y-33991786D01*
X12531071Y-34029881D01*
X12521548Y-34048929D01*
X12512024Y-34058452D01*
X12492976Y-34067976D01*
X12473928Y-34067976D01*
X12454881Y-34058452D01*
X12445357Y-34048929D01*
X12435833Y-34029881D01*
X12426309Y-33991786D01*
X12426309Y-33944167D01*
X12435833Y-33906071D01*
X12445357Y-33887024D01*
X12454881Y-33877500D01*
X12473928Y-33867976D01*
X12664405Y-33867976D02*
X12683452Y-33867976D01*
X12702500Y-33877500D01*
X12712024Y-33887024D01*
X12721548Y-33906071D01*
X12731071Y-33944167D01*
X12731071Y-33991786D01*
X12721548Y-34029881D01*
X12712024Y-34048929D01*
X12702500Y-34058452D01*
X12683452Y-34067976D01*
X12664405Y-34067976D01*
X12645357Y-34058452D01*
X12635833Y-34048929D01*
X12626309Y-34029881D01*
X12616786Y-33991786D01*
X12616786Y-33944167D01*
X12626309Y-33906071D01*
X12635833Y-33887024D01*
X12645357Y-33877500D01*
X12664405Y-33867976D01*
X12854881Y-33867976D02*
X12873928Y-33867976D01*
X12892976Y-33877500D01*
X12902500Y-33887024D01*
X12912024Y-33906071D01*
X12921548Y-33944167D01*
X12921548Y-33991786D01*
X12912024Y-34029881D01*
X12902500Y-34048929D01*
X12892976Y-34058452D01*
X12873928Y-34067976D01*
X12854881Y-34067976D01*
X12835833Y-34058452D01*
X12826309Y-34048929D01*
X12816786Y-34029881D01*
X12807262Y-33991786D01*
X12807262Y-33944167D01*
X12816786Y-33906071D01*
X12826309Y-33887024D01*
X12835833Y-33877500D01*
X12854881Y-33867976D01*
X13007262Y-34067976D02*
X13007262Y-33934643D01*
X13007262Y-33953690D02*
X13016786Y-33944167D01*
X13035833Y-33934643D01*
X13064405Y-33934643D01*
X13083452Y-33944167D01*
X13092976Y-33963214D01*
X13092976Y-34067976D01*
X13092976Y-33963214D02*
X13102500Y-33944167D01*
X13121548Y-33934643D01*
X13150119Y-33934643D01*
X13169167Y-33944167D01*
X13178690Y-33963214D01*
X13178690Y-34067976D01*
X13273928Y-34067976D02*
X13273928Y-33934643D01*
X13273928Y-33953690D02*
X13283452Y-33944167D01*
X13302500Y-33934643D01*
X13331071Y-33934643D01*
X13350119Y-33944167D01*
X13359643Y-33963214D01*
X13359643Y-34067976D01*
X13359643Y-33963214D02*
X13369167Y-33944167D01*
X13388214Y-33934643D01*
X13416786Y-33934643D01*
X13435833Y-33944167D01*
X13445357Y-33963214D01*
X13445357Y-34067976D01*
X13835833Y-33858452D02*
X13664405Y-34115595D01*
X14092976Y-33867976D02*
X14112024Y-33867976D01*
X14131071Y-33877500D01*
X14140595Y-33887024D01*
X14150119Y-33906071D01*
X14159643Y-33944167D01*
X14159643Y-33991786D01*
X14150119Y-34029881D01*
X14140595Y-34048929D01*
X14131071Y-34058452D01*
X14112024Y-34067976D01*
X14092976Y-34067976D01*
X14073928Y-34058452D01*
X14064405Y-34048929D01*
X14054881Y-34029881D01*
X14045357Y-33991786D01*
X14045357Y-33944167D01*
X14054881Y-33906071D01*
X14064405Y-33887024D01*
X14073928Y-33877500D01*
X14092976Y-33867976D01*
X14245357Y-34048929D02*
X14254881Y-34058452D01*
X14245357Y-34067976D01*
X14235833Y-34058452D01*
X14245357Y-34048929D01*
X14245357Y-34067976D01*
X14378690Y-33867976D02*
X14397738Y-33867976D01*
X14416786Y-33877500D01*
X14426309Y-33887024D01*
X14435833Y-33906071D01*
X14445357Y-33944167D01*
X14445357Y-33991786D01*
X14435833Y-34029881D01*
X14426309Y-34048929D01*
X14416786Y-34058452D01*
X14397738Y-34067976D01*
X14378690Y-34067976D01*
X14359643Y-34058452D01*
X14350119Y-34048929D01*
X14340595Y-34029881D01*
X14331071Y-33991786D01*
X14331071Y-33944167D01*
X14340595Y-33906071D01*
X14350119Y-33887024D01*
X14359643Y-33877500D01*
X14378690Y-33867976D01*
X14512024Y-33867976D02*
X14645357Y-33867976D01*
X14559643Y-34067976D01*
X14750119Y-33953690D02*
X14731071Y-33944167D01*
X14721548Y-33934643D01*
X14712024Y-33915595D01*
X14712024Y-33906071D01*
X14721548Y-33887024D01*
X14731071Y-33877500D01*
X14750119Y-33867976D01*
X14788214Y-33867976D01*
X14807262Y-33877500D01*
X14816786Y-33887024D01*
X14826309Y-33906071D01*
X14826309Y-33915595D01*
X14816786Y-33934643D01*
X14807262Y-33944167D01*
X14788214Y-33953690D01*
X14750119Y-33953690D01*
X14731071Y-33963214D01*
X14721548Y-33972738D01*
X14712024Y-33991786D01*
X14712024Y-34029881D01*
X14721548Y-34048929D01*
X14731071Y-34058452D01*
X14750119Y-34067976D01*
X14788214Y-34067976D01*
X14807262Y-34058452D01*
X14816786Y-34048929D01*
X14826309Y-34029881D01*
X14826309Y-33991786D01*
X14816786Y-33972738D01*
X14807262Y-33963214D01*
X14788214Y-33953690D01*
X14892976Y-33867976D02*
X15026309Y-33867976D01*
X14940595Y-34067976D01*
X15092976Y-33867976D02*
X15092976Y-33906071D01*
X15169167Y-33867976D02*
X15169167Y-33906071D01*
X15464405Y-34144167D02*
X15454881Y-34134643D01*
X15435833Y-34106071D01*
X15426309Y-34087024D01*
X15416786Y-34058452D01*
X15407262Y-34010833D01*
X15407262Y-33972738D01*
X15416786Y-33925119D01*
X15426309Y-33896548D01*
X15435833Y-33877500D01*
X15454881Y-33848929D01*
X15464405Y-33839405D01*
X15626309Y-33934643D02*
X15626309Y-34067976D01*
X15578690Y-33858452D02*
X15531071Y-34001310D01*
X15654881Y-34001310D01*
X15759643Y-33953690D02*
X15740595Y-33944167D01*
X15731071Y-33934643D01*
X15721548Y-33915595D01*
X15721548Y-33906071D01*
X15731071Y-33887024D01*
X15740595Y-33877500D01*
X15759643Y-33867976D01*
X15797738Y-33867976D01*
X15816786Y-33877500D01*
X15826309Y-33887024D01*
X15835833Y-33906071D01*
X15835833Y-33915595D01*
X15826309Y-33934643D01*
X15816786Y-33944167D01*
X15797738Y-33953690D01*
X15759643Y-33953690D01*
X15740595Y-33963214D01*
X15731071Y-33972738D01*
X15721548Y-33991786D01*
X15721548Y-34029881D01*
X15731071Y-34048929D01*
X15740595Y-34058452D01*
X15759643Y-34067976D01*
X15797738Y-34067976D01*
X15816786Y-34058452D01*
X15826309Y-34048929D01*
X15835833Y-34029881D01*
X15835833Y-33991786D01*
X15826309Y-33972738D01*
X15816786Y-33963214D01*
X15797738Y-33953690D01*
X16073928Y-34067976D02*
X16073928Y-33867976D01*
X16159643Y-34067976D02*
X16159643Y-33963214D01*
X16150119Y-33944167D01*
X16131071Y-33934643D01*
X16102500Y-33934643D01*
X16083452Y-33944167D01*
X16073928Y-33953690D01*
X16283452Y-34067976D02*
X16264405Y-34058452D01*
X16254881Y-34048929D01*
X16245357Y-34029881D01*
X16245357Y-33972738D01*
X16254881Y-33953690D01*
X16264405Y-33944167D01*
X16283452Y-33934643D01*
X16312024Y-33934643D01*
X16331071Y-33944167D01*
X16340595Y-33953690D01*
X16350119Y-33972738D01*
X16350119Y-34029881D01*
X16340595Y-34048929D01*
X16331071Y-34058452D01*
X16312024Y-34067976D01*
X16283452Y-34067976D01*
X16464405Y-34067976D02*
X16445357Y-34058452D01*
X16435833Y-34039405D01*
X16435833Y-33867976D01*
X16616786Y-34058452D02*
X16597738Y-34067976D01*
X16559643Y-34067976D01*
X16540595Y-34058452D01*
X16531071Y-34039405D01*
X16531071Y-33963214D01*
X16540595Y-33944167D01*
X16559643Y-33934643D01*
X16597738Y-33934643D01*
X16616786Y-33944167D01*
X16626309Y-33963214D01*
X16626309Y-33982262D01*
X16531071Y-34001310D01*
X16702500Y-34058452D02*
X16721548Y-34067976D01*
X16759643Y-34067976D01*
X16778690Y-34058452D01*
X16788214Y-34039405D01*
X16788214Y-34029881D01*
X16778690Y-34010833D01*
X16759643Y-34001310D01*
X16731071Y-34001310D01*
X16712024Y-33991786D01*
X16702500Y-33972738D01*
X16702500Y-33963214D01*
X16712024Y-33944167D01*
X16731071Y-33934643D01*
X16759643Y-33934643D01*
X16778690Y-33944167D01*
X16854881Y-34144167D02*
X16864405Y-34134643D01*
X16883452Y-34106071D01*
X16892976Y-34087024D01*
X16902500Y-34058452D01*
X16912024Y-34010833D01*
X16912024Y-33972738D01*
X16902500Y-33925119D01*
X16892976Y-33896548D01*
X16883452Y-33877500D01*
X16864405Y-33848929D01*
X16854881Y-33839405D01*
X17216786Y-34144167D02*
X17207262Y-34134643D01*
X17188214Y-34106071D01*
X17178690Y-34087024D01*
X17169167Y-34058452D01*
X17159643Y-34010833D01*
X17159643Y-33972738D01*
X17169167Y-33925119D01*
X17178690Y-33896548D01*
X17188214Y-33877500D01*
X17207262Y-33848929D01*
X17216786Y-33839405D01*
X17292976Y-33934643D02*
X17292976Y-34067976D01*
X17292976Y-33953690D02*
X17302500Y-33944167D01*
X17321548Y-33934643D01*
X17350119Y-33934643D01*
X17369167Y-33944167D01*
X17378690Y-33963214D01*
X17378690Y-34067976D01*
X17502500Y-34067976D02*
X17483452Y-34058452D01*
X17473929Y-34048929D01*
X17464405Y-34029881D01*
X17464405Y-33972738D01*
X17473929Y-33953690D01*
X17483452Y-33944167D01*
X17502500Y-33934643D01*
X17531071Y-33934643D01*
X17550119Y-33944167D01*
X17559643Y-33953690D01*
X17569167Y-33972738D01*
X17569167Y-34029881D01*
X17559643Y-34048929D01*
X17550119Y-34058452D01*
X17531071Y-34067976D01*
X17502500Y-34067976D01*
X17626310Y-33934643D02*
X17702500Y-33934643D01*
X17654881Y-33867976D02*
X17654881Y-34039405D01*
X17664405Y-34058452D01*
X17683452Y-34067976D01*
X17702500Y-34067976D01*
X17921548Y-33934643D02*
X17921548Y-34134643D01*
X17921548Y-33944167D02*
X17940595Y-33934643D01*
X17978690Y-33934643D01*
X17997738Y-33944167D01*
X18007262Y-33953690D01*
X18016786Y-33972738D01*
X18016786Y-34029881D01*
X18007262Y-34048929D01*
X17997738Y-34058452D01*
X17978690Y-34067976D01*
X17940595Y-34067976D01*
X17921548Y-34058452D01*
X18131071Y-34067976D02*
X18112024Y-34058452D01*
X18102500Y-34039405D01*
X18102500Y-33867976D01*
X18292976Y-34067976D02*
X18292976Y-33963214D01*
X18283452Y-33944167D01*
X18264405Y-33934643D01*
X18226310Y-33934643D01*
X18207262Y-33944167D01*
X18292976Y-34058452D02*
X18273929Y-34067976D01*
X18226310Y-34067976D01*
X18207262Y-34058452D01*
X18197738Y-34039405D01*
X18197738Y-34020357D01*
X18207262Y-34001310D01*
X18226310Y-33991786D01*
X18273929Y-33991786D01*
X18292976Y-33982262D01*
X18359643Y-33934643D02*
X18435833Y-33934643D01*
X18388214Y-33867976D02*
X18388214Y-34039405D01*
X18397738Y-34058452D01*
X18416786Y-34067976D01*
X18435833Y-34067976D01*
X18578690Y-34058452D02*
X18559643Y-34067976D01*
X18521548Y-34067976D01*
X18502500Y-34058452D01*
X18492976Y-34039405D01*
X18492976Y-33963214D01*
X18502500Y-33944167D01*
X18521548Y-33934643D01*
X18559643Y-33934643D01*
X18578690Y-33944167D01*
X18588214Y-33963214D01*
X18588214Y-33982262D01*
X18492976Y-34001310D01*
X18759643Y-34067976D02*
X18759643Y-33867976D01*
X18759643Y-34058452D02*
X18740595Y-34067976D01*
X18702500Y-34067976D01*
X18683452Y-34058452D01*
X18673929Y-34048929D01*
X18664405Y-34029881D01*
X18664405Y-33972738D01*
X18673929Y-33953690D01*
X18683452Y-33944167D01*
X18702500Y-33934643D01*
X18740595Y-33934643D01*
X18759643Y-33944167D01*
X18835833Y-34144167D02*
X18845357Y-34134643D01*
X18864405Y-34106071D01*
X18873929Y-34087024D01*
X18883452Y-34058452D01*
X18892976Y-34010833D01*
X18892976Y-33972738D01*
X18883452Y-33925119D01*
X18873929Y-33896548D01*
X18864405Y-33877500D01*
X18845357Y-33848929D01*
X18835833Y-33839405D01*
X11792500Y-34197500D02*
X11792500Y-34397500D01*
X11692500Y-34297500D02*
X11892500Y-34297500D01*
X11892500Y-34297500D02*
G75*
G03*
X11892500Y-34297500I-100000J0D01*
G01*
X12131071Y-34187976D02*
X12254881Y-34187976D01*
X12188214Y-34264167D01*
X12216786Y-34264167D01*
X12235833Y-34273690D01*
X12245357Y-34283214D01*
X12254881Y-34302262D01*
X12254881Y-34349881D01*
X12245357Y-34368929D01*
X12235833Y-34378452D01*
X12216786Y-34387976D01*
X12159643Y-34387976D01*
X12140595Y-34378452D01*
X12131071Y-34368929D01*
X12340595Y-34368929D02*
X12350119Y-34378452D01*
X12340595Y-34387976D01*
X12331071Y-34378452D01*
X12340595Y-34368929D01*
X12340595Y-34387976D01*
X12426309Y-34207024D02*
X12435833Y-34197500D01*
X12454881Y-34187976D01*
X12502500Y-34187976D01*
X12521548Y-34197500D01*
X12531071Y-34207024D01*
X12540595Y-34226071D01*
X12540595Y-34245119D01*
X12531071Y-34273690D01*
X12416786Y-34387976D01*
X12540595Y-34387976D01*
X12664405Y-34187976D02*
X12683452Y-34187976D01*
X12702500Y-34197500D01*
X12712024Y-34207024D01*
X12721548Y-34226071D01*
X12731071Y-34264167D01*
X12731071Y-34311786D01*
X12721548Y-34349881D01*
X12712024Y-34368929D01*
X12702500Y-34378452D01*
X12683452Y-34387976D01*
X12664405Y-34387976D01*
X12645357Y-34378452D01*
X12635833Y-34368929D01*
X12626309Y-34349881D01*
X12616786Y-34311786D01*
X12616786Y-34264167D01*
X12626309Y-34226071D01*
X12635833Y-34207024D01*
X12645357Y-34197500D01*
X12664405Y-34187976D01*
X12854881Y-34187976D02*
X12873928Y-34187976D01*
X12892976Y-34197500D01*
X12902500Y-34207024D01*
X12912024Y-34226071D01*
X12921548Y-34264167D01*
X12921548Y-34311786D01*
X12912024Y-34349881D01*
X12902500Y-34368929D01*
X12892976Y-34378452D01*
X12873928Y-34387976D01*
X12854881Y-34387976D01*
X12835833Y-34378452D01*
X12826309Y-34368929D01*
X12816786Y-34349881D01*
X12807262Y-34311786D01*
X12807262Y-34264167D01*
X12816786Y-34226071D01*
X12826309Y-34207024D01*
X12835833Y-34197500D01*
X12854881Y-34187976D01*
X13007262Y-34387976D02*
X13007262Y-34254643D01*
X13007262Y-34273690D02*
X13016786Y-34264167D01*
X13035833Y-34254643D01*
X13064405Y-34254643D01*
X13083452Y-34264167D01*
X13092976Y-34283214D01*
X13092976Y-34387976D01*
X13092976Y-34283214D02*
X13102500Y-34264167D01*
X13121548Y-34254643D01*
X13150119Y-34254643D01*
X13169167Y-34264167D01*
X13178690Y-34283214D01*
X13178690Y-34387976D01*
X13273928Y-34387976D02*
X13273928Y-34254643D01*
X13273928Y-34273690D02*
X13283452Y-34264167D01*
X13302500Y-34254643D01*
X13331071Y-34254643D01*
X13350119Y-34264167D01*
X13359643Y-34283214D01*
X13359643Y-34387976D01*
X13359643Y-34283214D02*
X13369167Y-34264167D01*
X13388214Y-34254643D01*
X13416786Y-34254643D01*
X13435833Y-34264167D01*
X13445357Y-34283214D01*
X13445357Y-34387976D01*
X13835833Y-34178452D02*
X13664405Y-34435595D01*
X14092976Y-34187976D02*
X14112024Y-34187976D01*
X14131071Y-34197500D01*
X14140595Y-34207024D01*
X14150119Y-34226071D01*
X14159643Y-34264167D01*
X14159643Y-34311786D01*
X14150119Y-34349881D01*
X14140595Y-34368929D01*
X14131071Y-34378452D01*
X14112024Y-34387976D01*
X14092976Y-34387976D01*
X14073928Y-34378452D01*
X14064405Y-34368929D01*
X14054881Y-34349881D01*
X14045357Y-34311786D01*
X14045357Y-34264167D01*
X14054881Y-34226071D01*
X14064405Y-34207024D01*
X14073928Y-34197500D01*
X14092976Y-34187976D01*
X14245357Y-34368929D02*
X14254881Y-34378452D01*
X14245357Y-34387976D01*
X14235833Y-34378452D01*
X14245357Y-34368929D01*
X14245357Y-34387976D01*
X14445357Y-34387976D02*
X14331071Y-34387976D01*
X14388214Y-34387976D02*
X14388214Y-34187976D01*
X14369167Y-34216548D01*
X14350119Y-34235595D01*
X14331071Y-34245119D01*
X14521548Y-34207024D02*
X14531071Y-34197500D01*
X14550119Y-34187976D01*
X14597738Y-34187976D01*
X14616786Y-34197500D01*
X14626309Y-34207024D01*
X14635833Y-34226071D01*
X14635833Y-34245119D01*
X14626309Y-34273690D01*
X14512024Y-34387976D01*
X14635833Y-34387976D01*
X14807262Y-34187976D02*
X14769167Y-34187976D01*
X14750119Y-34197500D01*
X14740595Y-34207024D01*
X14721548Y-34235595D01*
X14712024Y-34273690D01*
X14712024Y-34349881D01*
X14721548Y-34368929D01*
X14731071Y-34378452D01*
X14750119Y-34387976D01*
X14788214Y-34387976D01*
X14807262Y-34378452D01*
X14816786Y-34368929D01*
X14826309Y-34349881D01*
X14826309Y-34302262D01*
X14816786Y-34283214D01*
X14807262Y-34273690D01*
X14788214Y-34264167D01*
X14750119Y-34264167D01*
X14731071Y-34273690D01*
X14721548Y-34283214D01*
X14712024Y-34302262D01*
X14950119Y-34187976D02*
X14969167Y-34187976D01*
X14988214Y-34197500D01*
X14997738Y-34207024D01*
X15007262Y-34226071D01*
X15016786Y-34264167D01*
X15016786Y-34311786D01*
X15007262Y-34349881D01*
X14997738Y-34368929D01*
X14988214Y-34378452D01*
X14969167Y-34387976D01*
X14950119Y-34387976D01*
X14931071Y-34378452D01*
X14921548Y-34368929D01*
X14912024Y-34349881D01*
X14902500Y-34311786D01*
X14902500Y-34264167D01*
X14912024Y-34226071D01*
X14921548Y-34207024D01*
X14931071Y-34197500D01*
X14950119Y-34187976D01*
X15092976Y-34187976D02*
X15092976Y-34226071D01*
X15169167Y-34187976D02*
X15169167Y-34226071D01*
X15464405Y-34464167D02*
X15454881Y-34454643D01*
X15435833Y-34426071D01*
X15426309Y-34407024D01*
X15416786Y-34378452D01*
X15407262Y-34330833D01*
X15407262Y-34292738D01*
X15416786Y-34245119D01*
X15426309Y-34216548D01*
X15435833Y-34197500D01*
X15454881Y-34168929D01*
X15464405Y-34159405D01*
X15645357Y-34387976D02*
X15531071Y-34387976D01*
X15588214Y-34387976D02*
X15588214Y-34187976D01*
X15569167Y-34216548D01*
X15550119Y-34235595D01*
X15531071Y-34245119D01*
X15816786Y-34187976D02*
X15778690Y-34187976D01*
X15759643Y-34197500D01*
X15750119Y-34207024D01*
X15731071Y-34235595D01*
X15721548Y-34273690D01*
X15721548Y-34349881D01*
X15731071Y-34368929D01*
X15740595Y-34378452D01*
X15759643Y-34387976D01*
X15797738Y-34387976D01*
X15816786Y-34378452D01*
X15826309Y-34368929D01*
X15835833Y-34349881D01*
X15835833Y-34302262D01*
X15826309Y-34283214D01*
X15816786Y-34273690D01*
X15797738Y-34264167D01*
X15759643Y-34264167D01*
X15740595Y-34273690D01*
X15731071Y-34283214D01*
X15721548Y-34302262D01*
X16073928Y-34387976D02*
X16073928Y-34187976D01*
X16159643Y-34387976D02*
X16159643Y-34283214D01*
X16150119Y-34264167D01*
X16131071Y-34254643D01*
X16102500Y-34254643D01*
X16083452Y-34264167D01*
X16073928Y-34273690D01*
X16283452Y-34387976D02*
X16264405Y-34378452D01*
X16254881Y-34368929D01*
X16245357Y-34349881D01*
X16245357Y-34292738D01*
X16254881Y-34273690D01*
X16264405Y-34264167D01*
X16283452Y-34254643D01*
X16312024Y-34254643D01*
X16331071Y-34264167D01*
X16340595Y-34273690D01*
X16350119Y-34292738D01*
X16350119Y-34349881D01*
X16340595Y-34368929D01*
X16331071Y-34378452D01*
X16312024Y-34387976D01*
X16283452Y-34387976D01*
X16464405Y-34387976D02*
X16445357Y-34378452D01*
X16435833Y-34359405D01*
X16435833Y-34187976D01*
X16616786Y-34378452D02*
X16597738Y-34387976D01*
X16559643Y-34387976D01*
X16540595Y-34378452D01*
X16531071Y-34359405D01*
X16531071Y-34283214D01*
X16540595Y-34264167D01*
X16559643Y-34254643D01*
X16597738Y-34254643D01*
X16616786Y-34264167D01*
X16626309Y-34283214D01*
X16626309Y-34302262D01*
X16531071Y-34321310D01*
X16702500Y-34378452D02*
X16721548Y-34387976D01*
X16759643Y-34387976D01*
X16778690Y-34378452D01*
X16788214Y-34359405D01*
X16788214Y-34349881D01*
X16778690Y-34330833D01*
X16759643Y-34321310D01*
X16731071Y-34321310D01*
X16712024Y-34311786D01*
X16702500Y-34292738D01*
X16702500Y-34283214D01*
X16712024Y-34264167D01*
X16731071Y-34254643D01*
X16759643Y-34254643D01*
X16778690Y-34264167D01*
X16854881Y-34464167D02*
X16864405Y-34454643D01*
X16883452Y-34426071D01*
X16892976Y-34407024D01*
X16902500Y-34378452D01*
X16912024Y-34330833D01*
X16912024Y-34292738D01*
X16902500Y-34245119D01*
X16892976Y-34216548D01*
X16883452Y-34197500D01*
X16864405Y-34168929D01*
X16854881Y-34159405D01*
X17216786Y-34464167D02*
X17207262Y-34454643D01*
X17188214Y-34426071D01*
X17178690Y-34407024D01*
X17169167Y-34378452D01*
X17159643Y-34330833D01*
X17159643Y-34292738D01*
X17169167Y-34245119D01*
X17178690Y-34216548D01*
X17188214Y-34197500D01*
X17207262Y-34168929D01*
X17216786Y-34159405D01*
X17292976Y-34254643D02*
X17292976Y-34387976D01*
X17292976Y-34273690D02*
X17302500Y-34264167D01*
X17321548Y-34254643D01*
X17350119Y-34254643D01*
X17369167Y-34264167D01*
X17378690Y-34283214D01*
X17378690Y-34387976D01*
X17502500Y-34387976D02*
X17483452Y-34378452D01*
X17473929Y-34368929D01*
X17464405Y-34349881D01*
X17464405Y-34292738D01*
X17473929Y-34273690D01*
X17483452Y-34264167D01*
X17502500Y-34254643D01*
X17531071Y-34254643D01*
X17550119Y-34264167D01*
X17559643Y-34273690D01*
X17569167Y-34292738D01*
X17569167Y-34349881D01*
X17559643Y-34368929D01*
X17550119Y-34378452D01*
X17531071Y-34387976D01*
X17502500Y-34387976D01*
X17626310Y-34254643D02*
X17702500Y-34254643D01*
X17654881Y-34187976D02*
X17654881Y-34359405D01*
X17664405Y-34378452D01*
X17683452Y-34387976D01*
X17702500Y-34387976D01*
X17921548Y-34254643D02*
X17921548Y-34454643D01*
X17921548Y-34264167D02*
X17940595Y-34254643D01*
X17978690Y-34254643D01*
X17997738Y-34264167D01*
X18007262Y-34273690D01*
X18016786Y-34292738D01*
X18016786Y-34349881D01*
X18007262Y-34368929D01*
X17997738Y-34378452D01*
X17978690Y-34387976D01*
X17940595Y-34387976D01*
X17921548Y-34378452D01*
X18131071Y-34387976D02*
X18112024Y-34378452D01*
X18102500Y-34359405D01*
X18102500Y-34187976D01*
X18292976Y-34387976D02*
X18292976Y-34283214D01*
X18283452Y-34264167D01*
X18264405Y-34254643D01*
X18226310Y-34254643D01*
X18207262Y-34264167D01*
X18292976Y-34378452D02*
X18273929Y-34387976D01*
X18226310Y-34387976D01*
X18207262Y-34378452D01*
X18197738Y-34359405D01*
X18197738Y-34340357D01*
X18207262Y-34321310D01*
X18226310Y-34311786D01*
X18273929Y-34311786D01*
X18292976Y-34302262D01*
X18359643Y-34254643D02*
X18435833Y-34254643D01*
X18388214Y-34187976D02*
X18388214Y-34359405D01*
X18397738Y-34378452D01*
X18416786Y-34387976D01*
X18435833Y-34387976D01*
X18578690Y-34378452D02*
X18559643Y-34387976D01*
X18521548Y-34387976D01*
X18502500Y-34378452D01*
X18492976Y-34359405D01*
X18492976Y-34283214D01*
X18502500Y-34264167D01*
X18521548Y-34254643D01*
X18559643Y-34254643D01*
X18578690Y-34264167D01*
X18588214Y-34283214D01*
X18588214Y-34302262D01*
X18492976Y-34321310D01*
X18759643Y-34387976D02*
X18759643Y-34187976D01*
X18759643Y-34378452D02*
X18740595Y-34387976D01*
X18702500Y-34387976D01*
X18683452Y-34378452D01*
X18673929Y-34368929D01*
X18664405Y-34349881D01*
X18664405Y-34292738D01*
X18673929Y-34273690D01*
X18683452Y-34264167D01*
X18702500Y-34254643D01*
X18740595Y-34254643D01*
X18759643Y-34264167D01*
X18835833Y-34464167D02*
X18845357Y-34454643D01*
X18864405Y-34426071D01*
X18873929Y-34407024D01*
X18883452Y-34378452D01*
X18892976Y-34330833D01*
X18892976Y-34292738D01*
X18883452Y-34245119D01*
X18873929Y-34216548D01*
X18864405Y-34197500D01*
X18845357Y-34168929D01*
X18835833Y-34159405D01*
M02*
