M48
; DRILL file {KiCad (5.99.0-11071-g7fde05e8ee)} date Sat Sep 11 01:06:52 2021
; FORMAT={-:-/ absolute / metric / decimal}
; #@! TF.CreationDate,2021-09-11T01:06:52+02:00
; #@! TF.GenerationSoftware,Kicad,Pcbnew,(5.99.0-11071-g7fde05e8ee)
; #@! TF.FileFunction,NonPlated,1,2,NPTH
FMAT,2
METRIC
; #@! TA.AperFunction,NonPlated,NPTH,ComponentDrill
T1C2.000
; #@! TA.AperFunction,NonPlated,NPTH,ComponentDrill
T2C3.200
%
G90
G05
T1
X127.55Y-68.47
X136.35Y-68.47
X169.57Y-68.48
X178.37Y-68.48
X210.46Y-68.46
X219.26Y-68.46
X244.55Y-136.33
X244.56Y-68.37
X244.58Y-170.42
X244.59Y-102.38
X244.61Y-205.35
X253.35Y-136.33
X253.36Y-68.37
X253.38Y-170.42
X253.39Y-102.38
X253.41Y-205.35
X278.57Y-170.46
X278.59Y-102.4
X278.6Y-136.43
X278.6Y-205.55
X278.61Y-68.44
X287.37Y-170.46
X287.39Y-102.4
X287.4Y-136.43
X287.4Y-205.55
X287.41Y-68.44
X312.6Y-205.45
X312.61Y-68.38
X312.61Y-136.43
X312.697Y-102.402
X312.7Y-170.4
X321.4Y-205.45
X321.41Y-68.38
X321.41Y-136.43
X321.497Y-102.402
X321.5Y-170.4
X344.6Y-84.648
X344.63Y-250.04
X344.66Y-283.04
X353.4Y-84.648
X353.43Y-250.04
X353.46Y-283.04
X377.59Y-68.38
X386.39Y-68.38
X419.61Y-68.39
X428.41Y-68.39
X460.57Y-68.33
X469.37Y-68.33
T2
X137.02Y-174.6
X149.52Y-162.09
X149.52Y-187.07
X162.02Y-174.58
X186.98Y-174.58
X199.47Y-162.08
X199.49Y-187.06
X211.98Y-174.57
X387.56Y-174.63
X400.05Y-162.12
X400.06Y-187.09
X412.55Y-174.62
X437.51Y-174.61
X450.0Y-162.1
X450.02Y-187.09
X462.51Y-174.59
T0
M30
