%TF.GenerationSoftware,KiCad,Pcbnew,(5.99.0-11071-g7fde05e8ee)*%
%TF.CreationDate,2021-09-11T01:06:25+02:00*%
%TF.ProjectId,Mixduino,4d697864-7569-46e6-9f2e-6b696361645f,rev?*%
%TF.SameCoordinates,Original*%
%TF.FileFunction,Paste,Bot*%
%TF.FilePolarity,Positive*%
%FSLAX46Y46*%
G04 Gerber Fmt 4.6, Leading zero omitted, Abs format (unit mm)*
G04 Created by KiCad (PCBNEW (5.99.0-11071-g7fde05e8ee)) date 2021-09-11 01:06:25*
%MOMM*%
%LPD*%
G01*
G04 APERTURE LIST*
G04 Aperture macros list*
%AMRoundRect*
0 Rectangle with rounded corners*
0 $1 Rounding radius*
0 $2 $3 $4 $5 $6 $7 $8 $9 X,Y pos of 4 corners*
0 Add a 4 corners polygon primitive as box body*
4,1,4,$2,$3,$4,$5,$6,$7,$8,$9,$2,$3,0*
0 Add four circle primitives for the rounded corners*
1,1,$1+$1,$2,$3*
1,1,$1+$1,$4,$5*
1,1,$1+$1,$6,$7*
1,1,$1+$1,$8,$9*
0 Add four rect primitives between the rounded corners*
20,1,$1+$1,$2,$3,$4,$5,0*
20,1,$1+$1,$4,$5,$6,$7,0*
20,1,$1+$1,$6,$7,$8,$9,0*
20,1,$1+$1,$8,$9,$2,$3,0*%
G04 Aperture macros list end*
%TA.AperFunction,Profile*%
%ADD10C,0.150000*%
%TD*%
%ADD11RoundRect,0.250000X-0.400000X-0.625000X0.400000X-0.625000X0.400000X0.625000X-0.400000X0.625000X0*%
%ADD12R,1.900000X0.800000*%
%ADD13RoundRect,0.250000X0.400000X0.625000X-0.400000X0.625000X-0.400000X-0.625000X0.400000X-0.625000X0*%
%ADD14RoundRect,0.150000X0.150000X-0.875000X0.150000X0.875000X-0.150000X0.875000X-0.150000X-0.875000X0*%
%ADD15RoundRect,0.250000X0.625000X-0.400000X0.625000X0.400000X-0.625000X0.400000X-0.625000X-0.400000X0*%
%ADD16RoundRect,0.150000X-0.725000X-0.150000X0.725000X-0.150000X0.725000X0.150000X-0.725000X0.150000X0*%
%ADD17RoundRect,0.150000X0.875000X0.150000X-0.875000X0.150000X-0.875000X-0.150000X0.875000X-0.150000X0*%
G04 APERTURE END LIST*
D10*
X479000000Y-311000000D02*
X119000000Y-311000000D01*
X119000000Y-311000000D02*
X119000000Y-51000000D01*
X479000000Y-51000000D02*
X479000000Y-311000000D01*
X119000000Y-51000000D02*
X479000000Y-51000000D01*
D11*
%TO.C,R15*%
X158750000Y-283300000D03*
X161850000Y-283300000D03*
%TD*%
D12*
%TO.C,Q3*%
X403500000Y-252750000D03*
X403500000Y-254650000D03*
X400500000Y-253700000D03*
%TD*%
D13*
%TO.C,NPR1*%
X146250000Y-153240000D03*
X143150000Y-153240000D03*
%TD*%
D12*
%TO.C,Q2*%
X155400000Y-283650000D03*
X155400000Y-285550000D03*
X152400000Y-284600000D03*
%TD*%
D14*
%TO.C,IC-MPLEX-2*%
X431385000Y-216350000D03*
X430115000Y-216350000D03*
X428845000Y-216350000D03*
X427575000Y-216350000D03*
X426305000Y-216350000D03*
X425035000Y-216350000D03*
X423765000Y-216350000D03*
X422495000Y-216350000D03*
X421225000Y-216350000D03*
X419955000Y-216350000D03*
X418685000Y-216350000D03*
X417415000Y-216350000D03*
X417415000Y-207050000D03*
X418685000Y-207050000D03*
X419955000Y-207050000D03*
X421225000Y-207050000D03*
X422495000Y-207050000D03*
X423765000Y-207050000D03*
X425035000Y-207050000D03*
X426305000Y-207050000D03*
X427575000Y-207050000D03*
X428845000Y-207050000D03*
X430115000Y-207050000D03*
X431385000Y-207050000D03*
%TD*%
D15*
%TO.C,R22*%
X393000000Y-255150000D03*
X393000000Y-252050000D03*
%TD*%
D16*
%TO.C,U5*%
X313125000Y-156545000D03*
X313125000Y-155275000D03*
X313125000Y-154005000D03*
X313125000Y-152735000D03*
X313125000Y-151465000D03*
X313125000Y-150195000D03*
X313125000Y-148925000D03*
X313125000Y-147655000D03*
X318275000Y-147655000D03*
X318275000Y-148925000D03*
X318275000Y-150195000D03*
X318275000Y-151465000D03*
X318275000Y-152735000D03*
X318275000Y-154005000D03*
X318275000Y-155275000D03*
X318275000Y-156545000D03*
%TD*%
%TO.C,U1*%
X245025000Y-156845000D03*
X245025000Y-155575000D03*
X245025000Y-154305000D03*
X245025000Y-153035000D03*
X245025000Y-151765000D03*
X245025000Y-150495000D03*
X245025000Y-149225000D03*
X245025000Y-147955000D03*
X250175000Y-147955000D03*
X250175000Y-149225000D03*
X250175000Y-150495000D03*
X250175000Y-151765000D03*
X250175000Y-153035000D03*
X250175000Y-154305000D03*
X250175000Y-155575000D03*
X250175000Y-156845000D03*
%TD*%
%TO.C,U2*%
X245025000Y-124145000D03*
X245025000Y-122875000D03*
X245025000Y-121605000D03*
X245025000Y-120335000D03*
X245025000Y-119065000D03*
X245025000Y-117795000D03*
X245025000Y-116525000D03*
X245025000Y-115255000D03*
X250175000Y-115255000D03*
X250175000Y-116525000D03*
X250175000Y-117795000D03*
X250175000Y-119065000D03*
X250175000Y-120335000D03*
X250175000Y-121605000D03*
X250175000Y-122875000D03*
X250175000Y-124145000D03*
%TD*%
D11*
%TO.C,R14*%
X406650000Y-281900000D03*
X409750000Y-281900000D03*
%TD*%
D12*
%TO.C,Q4*%
X153900000Y-253950000D03*
X153900000Y-255850000D03*
X150900000Y-254900000D03*
%TD*%
D16*
%TO.C,U7*%
X347600000Y-156510000D03*
X347600000Y-155240000D03*
X347600000Y-153970000D03*
X347600000Y-152700000D03*
X347600000Y-151430000D03*
X347600000Y-150160000D03*
X347600000Y-148890000D03*
X347600000Y-147620000D03*
X352750000Y-147620000D03*
X352750000Y-148890000D03*
X352750000Y-150160000D03*
X352750000Y-151430000D03*
X352750000Y-152700000D03*
X352750000Y-153970000D03*
X352750000Y-155240000D03*
X352750000Y-156510000D03*
%TD*%
D13*
%TO.C,R18*%
X410550000Y-257000000D03*
X407450000Y-257000000D03*
%TD*%
%TO.C,R12*%
X409850000Y-287600000D03*
X406750000Y-287600000D03*
%TD*%
D16*
%TO.C,U9*%
X365725000Y-155245000D03*
X365725000Y-153975000D03*
X365725000Y-152705000D03*
X365725000Y-151435000D03*
X365725000Y-150165000D03*
X365725000Y-148895000D03*
X365725000Y-147625000D03*
X365725000Y-146355000D03*
X370875000Y-146355000D03*
X370875000Y-147625000D03*
X370875000Y-148895000D03*
X370875000Y-150165000D03*
X370875000Y-151435000D03*
X370875000Y-152705000D03*
X370875000Y-153975000D03*
X370875000Y-155245000D03*
%TD*%
D17*
%TO.C,IC-MPLEX-4*%
X304250000Y-206515000D03*
X304250000Y-207785000D03*
X304250000Y-209055000D03*
X304250000Y-210325000D03*
X304250000Y-211595000D03*
X304250000Y-212865000D03*
X304250000Y-214135000D03*
X304250000Y-215405000D03*
X304250000Y-216675000D03*
X304250000Y-217945000D03*
X304250000Y-219215000D03*
X304250000Y-220485000D03*
X294950000Y-220485000D03*
X294950000Y-219215000D03*
X294950000Y-217945000D03*
X294950000Y-216675000D03*
X294950000Y-215405000D03*
X294950000Y-214135000D03*
X294950000Y-212865000D03*
X294950000Y-211595000D03*
X294950000Y-210325000D03*
X294950000Y-209055000D03*
X294950000Y-207785000D03*
X294950000Y-206515000D03*
%TD*%
D13*
%TO.C,R19*%
X159650000Y-256700000D03*
X156550000Y-256700000D03*
%TD*%
D16*
%TO.C,U6*%
X312625000Y-123645000D03*
X312625000Y-122375000D03*
X312625000Y-121105000D03*
X312625000Y-119835000D03*
X312625000Y-118565000D03*
X312625000Y-117295000D03*
X312625000Y-116025000D03*
X312625000Y-114755000D03*
X317775000Y-114755000D03*
X317775000Y-116025000D03*
X317775000Y-117295000D03*
X317775000Y-118565000D03*
X317775000Y-119835000D03*
X317775000Y-121105000D03*
X317775000Y-122375000D03*
X317775000Y-123645000D03*
%TD*%
D11*
%TO.C,R17*%
X141650000Y-283300000D03*
X144750000Y-283300000D03*
%TD*%
D16*
%TO.C,U4*%
X279125000Y-124245000D03*
X279125000Y-122975000D03*
X279125000Y-121705000D03*
X279125000Y-120435000D03*
X279125000Y-119165000D03*
X279125000Y-117895000D03*
X279125000Y-116625000D03*
X279125000Y-115355000D03*
X284275000Y-115355000D03*
X284275000Y-116625000D03*
X284275000Y-117895000D03*
X284275000Y-119165000D03*
X284275000Y-120435000D03*
X284275000Y-121705000D03*
X284275000Y-122975000D03*
X284275000Y-124245000D03*
%TD*%
D12*
%TO.C,Q1*%
X403200000Y-284550000D03*
X403200000Y-286450000D03*
X400200000Y-285500000D03*
%TD*%
D17*
%TO.C,IC-MPLEX-1*%
X305550000Y-83715000D03*
X305550000Y-84985000D03*
X305550000Y-86255000D03*
X305550000Y-87525000D03*
X305550000Y-88795000D03*
X305550000Y-90065000D03*
X305550000Y-91335000D03*
X305550000Y-92605000D03*
X305550000Y-93875000D03*
X305550000Y-95145000D03*
X305550000Y-96415000D03*
X305550000Y-97685000D03*
X296250000Y-97685000D03*
X296250000Y-96415000D03*
X296250000Y-95145000D03*
X296250000Y-93875000D03*
X296250000Y-92605000D03*
X296250000Y-91335000D03*
X296250000Y-90065000D03*
X296250000Y-88795000D03*
X296250000Y-87525000D03*
X296250000Y-86255000D03*
X296250000Y-84985000D03*
X296250000Y-83715000D03*
%TD*%
D11*
%TO.C,R21*%
X156650000Y-253100000D03*
X159750000Y-253100000D03*
%TD*%
%TO.C,R20*%
X407350000Y-251700000D03*
X410450000Y-251700000D03*
%TD*%
D16*
%TO.C,U10*%
X365325000Y-122745000D03*
X365325000Y-121475000D03*
X365325000Y-120205000D03*
X365325000Y-118935000D03*
X365325000Y-117665000D03*
X365325000Y-116395000D03*
X365325000Y-115125000D03*
X365325000Y-113855000D03*
X370475000Y-113855000D03*
X370475000Y-115125000D03*
X370475000Y-116395000D03*
X370475000Y-117665000D03*
X370475000Y-118935000D03*
X370475000Y-120205000D03*
X370475000Y-121475000D03*
X370475000Y-122745000D03*
%TD*%
%TO.C,U8*%
X347325000Y-123745000D03*
X347325000Y-122475000D03*
X347325000Y-121205000D03*
X347325000Y-119935000D03*
X347325000Y-118665000D03*
X347325000Y-117395000D03*
X347325000Y-116125000D03*
X347325000Y-114855000D03*
X352475000Y-114855000D03*
X352475000Y-116125000D03*
X352475000Y-117395000D03*
X352475000Y-118665000D03*
X352475000Y-119935000D03*
X352475000Y-121205000D03*
X352475000Y-122475000D03*
X352475000Y-123745000D03*
%TD*%
D14*
%TO.C,IC-MPLEX-3*%
X180785000Y-217550000D03*
X179515000Y-217550000D03*
X178245000Y-217550000D03*
X176975000Y-217550000D03*
X175705000Y-217550000D03*
X174435000Y-217550000D03*
X173165000Y-217550000D03*
X171895000Y-217550000D03*
X170625000Y-217550000D03*
X169355000Y-217550000D03*
X168085000Y-217550000D03*
X166815000Y-217550000D03*
X166815000Y-208250000D03*
X168085000Y-208250000D03*
X169355000Y-208250000D03*
X170625000Y-208250000D03*
X171895000Y-208250000D03*
X173165000Y-208250000D03*
X174435000Y-208250000D03*
X175705000Y-208250000D03*
X176975000Y-208250000D03*
X178245000Y-208250000D03*
X179515000Y-208250000D03*
X180785000Y-208250000D03*
%TD*%
D11*
%TO.C,R23*%
X141250000Y-253400000D03*
X144350000Y-253400000D03*
%TD*%
D13*
%TO.C,R13*%
X161650000Y-286300000D03*
X158550000Y-286300000D03*
%TD*%
D16*
%TO.C,U3*%
X279225000Y-157045000D03*
X279225000Y-155775000D03*
X279225000Y-154505000D03*
X279225000Y-153235000D03*
X279225000Y-151965000D03*
X279225000Y-150695000D03*
X279225000Y-149425000D03*
X279225000Y-148155000D03*
X284375000Y-148155000D03*
X284375000Y-149425000D03*
X284375000Y-150695000D03*
X284375000Y-151965000D03*
X284375000Y-153235000D03*
X284375000Y-154505000D03*
X284375000Y-155775000D03*
X284375000Y-157045000D03*
%TD*%
D13*
%TO.C,R16*%
X394550000Y-283600000D03*
X391450000Y-283600000D03*
%TD*%
M02*
