%TF.GenerationSoftware,KiCad,Pcbnew,(5.99.0-11071-g7fde05e8ee)*%
%TF.CreationDate,2021-09-11T01:06:25+02:00*%
%TF.ProjectId,Mixduino,4d697864-7569-46e6-9f2e-6b696361645f,rev?*%
%TF.SameCoordinates,Original*%
%TF.FileFunction,Soldermask,Top*%
%TF.FilePolarity,Negative*%
%FSLAX46Y46*%
G04 Gerber Fmt 4.6, Leading zero omitted, Abs format (unit mm)*
G04 Created by KiCad (PCBNEW (5.99.0-11071-g7fde05e8ee)) date 2021-09-11 01:06:25*
%MOMM*%
%LPD*%
G01*
G04 APERTURE LIST*
G04 Aperture macros list*
%AMRoundRect*
0 Rectangle with rounded corners*
0 $1 Rounding radius*
0 $2 $3 $4 $5 $6 $7 $8 $9 X,Y pos of 4 corners*
0 Add a 4 corners polygon primitive as box body*
4,1,4,$2,$3,$4,$5,$6,$7,$8,$9,$2,$3,0*
0 Add four circle primitives for the rounded corners*
1,1,$1+$1,$2,$3*
1,1,$1+$1,$4,$5*
1,1,$1+$1,$6,$7*
1,1,$1+$1,$8,$9*
0 Add four rect primitives between the rounded corners*
20,1,$1+$1,$2,$3,$4,$5,0*
20,1,$1+$1,$4,$5,$6,$7,0*
20,1,$1+$1,$6,$7,$8,$9,0*
20,1,$1+$1,$8,$9,$2,$3,0*%
G04 Aperture macros list end*
%TA.AperFunction,Profile*%
%ADD10C,0.150000*%
%TD*%
%ADD11C,2.200000*%
%ADD12RoundRect,0.250000X-0.625000X0.400000X-0.625000X-0.400000X0.625000X-0.400000X0.625000X0.400000X0*%
%ADD13R,1.800000X1.800000*%
%ADD14C,1.800000*%
%ADD15R,1.300000X1.550000*%
%ADD16C,2.000000*%
%ADD17O,1.600000X2.400000*%
%ADD18O,1.600000X2.462000*%
%ADD19RoundRect,0.250000X-0.400000X-0.625000X0.400000X-0.625000X0.400000X0.625000X-0.400000X0.625000X0*%
%ADD20R,1.500000X1.000000*%
%ADD21R,1.550000X1.300000*%
%ADD22R,3.500000X0.989531*%
%ADD23R,1.000000X2.000000*%
%ADD24RoundRect,0.250000X0.625000X-0.400000X0.625000X0.400000X-0.625000X0.400000X-0.625000X-0.400000X0*%
%ADD25RoundRect,0.150000X-0.725000X-0.150000X0.725000X-0.150000X0.725000X0.150000X-0.725000X0.150000X0*%
%ADD26C,3.600000*%
%ADD27C,6.400000*%
%ADD28C,3.200000*%
%ADD29C,4.000000*%
%ADD30RoundRect,0.250000X-0.725000X0.600000X-0.725000X-0.600000X0.725000X-0.600000X0.725000X0.600000X0*%
%ADD31O,1.950000X1.700000*%
%ADD32RoundRect,0.250001X-0.624999X0.462499X-0.624999X-0.462499X0.624999X-0.462499X0.624999X0.462499X0*%
%ADD33RoundRect,0.250001X0.624999X-0.462499X0.624999X0.462499X-0.624999X0.462499X-0.624999X-0.462499X0*%
%ADD34RoundRect,0.250001X-0.462499X-0.624999X0.462499X-0.624999X0.462499X0.624999X-0.462499X0.624999X0*%
%ADD35RoundRect,0.150000X0.725000X0.150000X-0.725000X0.150000X-0.725000X-0.150000X0.725000X-0.150000X0*%
%ADD36R,2.000000X2.000000*%
%ADD37O,1.727200X1.727200*%
%ADD38R,1.000000X1.500000*%
%ADD39RoundRect,0.250000X0.400000X0.625000X-0.400000X0.625000X-0.400000X-0.625000X0.400000X-0.625000X0*%
G04 APERTURE END LIST*
D10*
X479000000Y-311000000D02*
X119000000Y-311000000D01*
X119000000Y-311000000D02*
X119000000Y-51000000D01*
X479000000Y-51000000D02*
X479000000Y-311000000D01*
X119000000Y-51000000D02*
X479000000Y-51000000D01*
D11*
%TO.C,SW29*%
X142930000Y-187030000D02*
G75*
G03*
X142930000Y-187030000I-5939697J0D01*
G01*
%TO.C,SW30*%
X142920000Y-162030000D02*
G75*
G03*
X142920000Y-162030000I-5939697J0D01*
G01*
%TO.C,SW32*%
X167905000Y-162054900D02*
G75*
G03*
X167905000Y-162054900I-5939697J0D01*
G01*
%TO.C,SW36*%
X217925000Y-187044900D02*
G75*
G03*
X217925000Y-187044900I-5939697J0D01*
G01*
%TO.C,SW35*%
X217925000Y-162024900D02*
G75*
G03*
X217925000Y-162024900I-5939697J0D01*
G01*
%TO.C,SW40*%
X418385000Y-162054900D02*
G75*
G03*
X418385000Y-162054900I-5939697J0D01*
G01*
%TO.C,SW44*%
X468405000Y-187034900D02*
G75*
G03*
X468405000Y-187034900I-5939697J0D01*
G01*
%TO.C,SW43*%
X468410000Y-162020000D02*
G75*
G03*
X468410000Y-162020000I-5939697J0D01*
G01*
%TO.C,SW42*%
X443405000Y-162044900D02*
G75*
G03*
X443405000Y-162044900I-5939697J0D01*
G01*
%TO.C,SW33*%
X192905000Y-187054900D02*
G75*
G03*
X192905000Y-187054900I-5939697J0D01*
G01*
%TO.C,SW39*%
X418415000Y-187044900D02*
G75*
G03*
X418415000Y-187044900I-5939697J0D01*
G01*
%TO.C,SW41*%
X443385000Y-187054900D02*
G75*
G03*
X443385000Y-187054900I-5939697J0D01*
G01*
%TO.C,SW34*%
X192940000Y-162010000D02*
G75*
G03*
X192940000Y-162010000I-5939697J0D01*
G01*
%TO.C,SW38*%
X393395000Y-162044900D02*
G75*
G03*
X393395000Y-162044900I-5939697J0D01*
G01*
%TO.C,SW31*%
X167935000Y-187054900D02*
G75*
G03*
X167935000Y-187054900I-5939697J0D01*
G01*
%TO.C,SW37*%
X393400000Y-187040000D02*
G75*
G03*
X393400000Y-187040000I-5939697J0D01*
G01*
%TD*%
D12*
%TO.C,R5*%
X387500000Y-86650000D03*
X387500000Y-89750000D03*
%TD*%
D13*
%TO.C,D42*%
X269500000Y-156600000D03*
D14*
X272040000Y-156600000D03*
%TD*%
D15*
%TO.C,SW25*%
X435030000Y-267675000D03*
X435030000Y-275625000D03*
X430530000Y-267675000D03*
X430530000Y-275625000D03*
%TD*%
%TO.C,SW16*%
X179490000Y-243945000D03*
X179490000Y-251895000D03*
X183990000Y-243945000D03*
X183990000Y-251895000D03*
%TD*%
D16*
%TO.C,RV17*%
X248900000Y-292300000D03*
X248900000Y-259300000D03*
D17*
X250170000Y-248368000D03*
X245090000Y-248368000D03*
X247630000Y-248368000D03*
D18*
X252710000Y-248368000D03*
D17*
X245200000Y-303232000D03*
X250280000Y-303232000D03*
%TD*%
D13*
%TO.C,D36*%
X235125000Y-116010000D03*
D14*
X237665000Y-116010000D03*
%TD*%
D13*
%TO.C,D39*%
X269500000Y-170100000D03*
D14*
X272040000Y-170100000D03*
%TD*%
D19*
%TO.C,R73*%
X334985000Y-151800000D03*
X338085000Y-151800000D03*
%TD*%
%TO.C,R67*%
X297950000Y-111600000D03*
X301050000Y-111600000D03*
%TD*%
%TO.C,R52*%
X264050000Y-111600000D03*
X267150000Y-111600000D03*
%TD*%
%TO.C,R63*%
X298000000Y-129500000D03*
X301100000Y-129500000D03*
%TD*%
D13*
%TO.C,D49*%
X269525000Y-125110000D03*
D14*
X272065000Y-125110000D03*
%TD*%
D20*
%TO.C,NP2*%
X159555000Y-160504900D03*
X159555000Y-163704900D03*
X164455000Y-163704900D03*
X164455000Y-160504900D03*
%TD*%
D21*
%TO.C,SW13*%
X139105000Y-251280000D03*
X147055000Y-251280000D03*
X147055000Y-255780000D03*
X139105000Y-255780000D03*
%TD*%
D13*
%TO.C,D67*%
X303525000Y-111510000D03*
D14*
X306065000Y-111510000D03*
%TD*%
D13*
%TO.C,D37*%
X235125000Y-111510000D03*
D14*
X237665000Y-111510000D03*
%TD*%
D22*
%TO.C,SW29*%
X131130000Y-186959531D03*
D23*
X144330000Y-187070000D03*
%TD*%
D19*
%TO.C,R91*%
X350785000Y-138300000D03*
X353885000Y-138300000D03*
%TD*%
D20*
%TO.C,NP19*%
X346470000Y-195070000D03*
X346470000Y-198270000D03*
X351370000Y-198270000D03*
X351370000Y-195070000D03*
%TD*%
D24*
%TO.C,R2*%
X442600000Y-272550000D03*
X442600000Y-269450000D03*
%TD*%
D25*
%TO.C,SR-FB-LEFT1*%
X170625000Y-132955000D03*
X170625000Y-134225000D03*
X170625000Y-135495000D03*
X170625000Y-136765000D03*
X170625000Y-138035000D03*
X170625000Y-139305000D03*
X170625000Y-140575000D03*
X170625000Y-141845000D03*
X175775000Y-141845000D03*
X175775000Y-140575000D03*
X175775000Y-139305000D03*
X175775000Y-138035000D03*
X175775000Y-136765000D03*
X175775000Y-135495000D03*
X175775000Y-134225000D03*
X175775000Y-132955000D03*
%TD*%
D13*
%TO.C,D26*%
X235125000Y-161010000D03*
D14*
X237665000Y-161010000D03*
%TD*%
D26*
%TO.C,REF\u002A\u002A*%
X473000000Y-57000000D03*
D27*
X473000000Y-57000000D03*
%TD*%
D21*
%TO.C,SW28*%
X352955000Y-208580000D03*
X345005000Y-208580000D03*
X352955000Y-204080000D03*
X345005000Y-204080000D03*
%TD*%
D20*
%TO.C,NP13*%
X410065000Y-185510000D03*
X410065000Y-188710000D03*
X414965000Y-188710000D03*
X414965000Y-185510000D03*
%TD*%
D19*
%TO.C,R72*%
X334885000Y-156200000D03*
X337985000Y-156200000D03*
%TD*%
D28*
%TO.C,REF\u002A\u002A*%
X149520000Y-162090000D03*
%TD*%
D19*
%TO.C,R85*%
X350885000Y-165300000D03*
X353985000Y-165300000D03*
%TD*%
D21*
%TO.C,SW26*%
X309513000Y-227452000D03*
X317463000Y-227452000D03*
X317463000Y-231952000D03*
X309513000Y-231952000D03*
%TD*%
D29*
%TO.C,RV8*%
X136350000Y-68470000D03*
X127550000Y-68470000D03*
D14*
X134450000Y-75470000D03*
X131950000Y-75470000D03*
X129450000Y-75470000D03*
%TD*%
D20*
%TO.C,NP1*%
X134570000Y-160480000D03*
X134570000Y-163680000D03*
X139470000Y-163680000D03*
X139470000Y-160480000D03*
%TD*%
D27*
%TO.C,*%
X125200000Y-57300000D03*
D26*
X125200000Y-57300000D03*
%TD*%
D13*
%TO.C,D62*%
X303525000Y-134010000D03*
D14*
X306065000Y-134010000D03*
%TD*%
D29*
%TO.C,RV7*%
X210460000Y-68460000D03*
X219260000Y-68460000D03*
D14*
X217360000Y-75460000D03*
X214860000Y-75460000D03*
X212360000Y-75460000D03*
%TD*%
D30*
%TO.C,TB1*%
X216550000Y-210950000D03*
D31*
X216550000Y-213450000D03*
X216550000Y-216030000D03*
X216550000Y-218570000D03*
%TD*%
D15*
%TO.C,SW10*%
X167810000Y-84555000D03*
X167810000Y-92505000D03*
X172310000Y-92505000D03*
X172310000Y-84555000D03*
%TD*%
%TO.C,SW24*%
X433870000Y-238015000D03*
X433870000Y-230065000D03*
X429370000Y-238015000D03*
X429370000Y-230065000D03*
%TD*%
D32*
%TO.C,D2*%
X439000000Y-269512500D03*
X439000000Y-272487500D03*
%TD*%
D19*
%TO.C,R60*%
X297950000Y-143000000D03*
X301050000Y-143000000D03*
%TD*%
D33*
%TO.C,D15*%
X150300000Y-279787500D03*
X150300000Y-276812500D03*
%TD*%
D19*
%TO.C,R58*%
X298050000Y-152000000D03*
X301150000Y-152000000D03*
%TD*%
D13*
%TO.C,D66*%
X303525000Y-116010000D03*
D14*
X306065000Y-116010000D03*
%TD*%
D16*
%TO.C,RV21*%
X282980000Y-259370000D03*
X282980000Y-292370000D03*
D17*
X279170000Y-248438000D03*
X284250000Y-248438000D03*
X281710000Y-248438000D03*
D18*
X286790000Y-248438000D03*
D17*
X279280000Y-303302000D03*
X284360000Y-303302000D03*
%TD*%
D13*
%TO.C,D69*%
X340450000Y-169800000D03*
D14*
X342990000Y-169800000D03*
%TD*%
D32*
%TO.C,D1*%
X322000000Y-228200000D03*
X322000000Y-231175000D03*
%TD*%
D22*
%TO.C,SW30*%
X131120000Y-161959531D03*
D23*
X144320000Y-162070000D03*
%TD*%
D19*
%TO.C,R25*%
X229650000Y-165600000D03*
X232750000Y-165600000D03*
%TD*%
D34*
%TO.C,D22*%
X391612500Y-262000000D03*
X394587500Y-262000000D03*
%TD*%
D33*
%TO.C,D19*%
X135500000Y-250900000D03*
X135500000Y-247925000D03*
%TD*%
D22*
%TO.C,SW32*%
X156105000Y-161984431D03*
D23*
X169305000Y-162094900D03*
%TD*%
D21*
%TO.C,SW18*%
X180885000Y-296720000D03*
X188835000Y-296720000D03*
X188835000Y-301220000D03*
X180885000Y-301220000D03*
%TD*%
D19*
%TO.C,R50*%
X264050000Y-120600000D03*
X267150000Y-120600000D03*
%TD*%
D13*
%TO.C,D84*%
X356360000Y-169700000D03*
D14*
X358900000Y-169700000D03*
%TD*%
D13*
%TO.C,D34*%
X235125000Y-125010000D03*
D14*
X237665000Y-125010000D03*
%TD*%
D29*
%TO.C,RV15*%
X278600000Y-205550000D03*
X287400000Y-205550000D03*
D14*
X285500000Y-212550000D03*
X283000000Y-212550000D03*
X280500000Y-212550000D03*
%TD*%
D13*
%TO.C,D50*%
X269525000Y-120610000D03*
D14*
X272065000Y-120610000D03*
%TD*%
D29*
%TO.C,RV6*%
X278610000Y-68440000D03*
X287410000Y-68440000D03*
D14*
X285510000Y-75440000D03*
X283010000Y-75440000D03*
X280510000Y-75440000D03*
%TD*%
D32*
%TO.C,D9*%
X187600000Y-270900000D03*
X187600000Y-273875000D03*
%TD*%
D13*
%TO.C,D55*%
X303525000Y-165500000D03*
D14*
X306065000Y-165500000D03*
%TD*%
D28*
%TO.C,REF\u002A\u002A*%
X137020000Y-174600000D03*
%TD*%
D19*
%TO.C,R69*%
X334885000Y-169700000D03*
X337985000Y-169700000D03*
%TD*%
D13*
%TO.C,D24*%
X235215000Y-170130000D03*
D14*
X237755000Y-170130000D03*
%TD*%
D13*
%TO.C,D61*%
X303525000Y-138500000D03*
D14*
X306065000Y-138500000D03*
%TD*%
D13*
%TO.C,D87*%
X356360000Y-156200000D03*
D14*
X358900000Y-156200000D03*
%TD*%
D19*
%TO.C,R26*%
X229550000Y-161000000D03*
X232650000Y-161000000D03*
%TD*%
D12*
%TO.C,R6*%
X221000000Y-87150000D03*
X221000000Y-90250000D03*
%TD*%
D19*
%TO.C,R84*%
X350885000Y-169700000D03*
X353985000Y-169700000D03*
%TD*%
D16*
%TO.C,RV28*%
X458100000Y-241720000D03*
X458100000Y-292220000D03*
D17*
X459370000Y-232220000D03*
X454290000Y-232220000D03*
D18*
X461910000Y-232220000D03*
D17*
X456830000Y-232220000D03*
X459400000Y-303120000D03*
X454320000Y-303120000D03*
%TD*%
D28*
%TO.C,REF\u002A\u002A*%
X211980000Y-174570000D03*
%TD*%
D13*
%TO.C,D35*%
X235125000Y-120510000D03*
D14*
X237665000Y-120510000D03*
%TD*%
D19*
%TO.C,R81*%
X334885000Y-115800000D03*
X337985000Y-115800000D03*
%TD*%
D22*
%TO.C,SW36*%
X206125000Y-186974431D03*
D23*
X219325000Y-187084900D03*
%TD*%
D33*
%TO.C,D3*%
X466700000Y-89587500D03*
X466700000Y-86612500D03*
%TD*%
D19*
%TO.C,R79*%
X334885000Y-124700000D03*
X337985000Y-124700000D03*
%TD*%
D21*
%TO.C,SW23*%
X396975000Y-281320000D03*
X389025000Y-281320000D03*
X396975000Y-285820000D03*
X389025000Y-285820000D03*
%TD*%
D13*
%TO.C,D53*%
X269525000Y-107110000D03*
D14*
X272065000Y-107110000D03*
%TD*%
D13*
%TO.C,D94*%
X356360000Y-124700000D03*
D14*
X358900000Y-124700000D03*
%TD*%
D33*
%TO.C,D5*%
X383800000Y-89687500D03*
X383800000Y-86712500D03*
%TD*%
D15*
%TO.C,SW4*%
X159500000Y-118015000D03*
X159500000Y-110065000D03*
X164000000Y-118015000D03*
X164000000Y-110065000D03*
%TD*%
D35*
%TO.C,SR-FB-RIGHT1*%
X371475000Y-197245000D03*
X371475000Y-195975000D03*
X371475000Y-194705000D03*
X371475000Y-193435000D03*
X371475000Y-192165000D03*
X371475000Y-190895000D03*
X371475000Y-189625000D03*
X371475000Y-188355000D03*
X366325000Y-188355000D03*
X366325000Y-189625000D03*
X366325000Y-190895000D03*
X366325000Y-192165000D03*
X366325000Y-193435000D03*
X366325000Y-194705000D03*
X366325000Y-195975000D03*
X366325000Y-197245000D03*
%TD*%
D29*
%TO.C,RV12*%
X287390000Y-102400000D03*
X278590000Y-102400000D03*
D14*
X285490000Y-109400000D03*
X282990000Y-109400000D03*
X280490000Y-109400000D03*
%TD*%
D13*
%TO.C,D72*%
X340460000Y-156300000D03*
D14*
X343000000Y-156300000D03*
%TD*%
D29*
%TO.C,RV24*%
X344630000Y-250040000D03*
X353430000Y-250040000D03*
D14*
X351530000Y-257040000D03*
X349030000Y-257040000D03*
X346530000Y-257040000D03*
%TD*%
D19*
%TO.C,R43*%
X264050000Y-152100000D03*
X267150000Y-152100000D03*
%TD*%
D13*
%TO.C,D32*%
X235125000Y-134010000D03*
D14*
X237665000Y-134010000D03*
%TD*%
D13*
%TO.C,D41*%
X269500000Y-161100000D03*
D14*
X272040000Y-161100000D03*
%TD*%
D36*
%TO.C,SW2*%
X421490000Y-121550000D03*
D16*
X426490000Y-121550000D03*
X423990000Y-121550000D03*
D28*
X418390000Y-114050000D03*
X429590000Y-114050000D03*
D16*
X426490000Y-107050000D03*
X421490000Y-107050000D03*
%TD*%
D19*
%TO.C,R45*%
X264050000Y-143100000D03*
X267150000Y-143100000D03*
%TD*%
D28*
%TO.C,REF\u002A\u002A*%
X186980000Y-174580000D03*
%TD*%
D19*
%TO.C,R55*%
X298050000Y-165600000D03*
X301150000Y-165600000D03*
%TD*%
D28*
%TO.C,REF\u002A\u002A*%
X400050000Y-162120000D03*
%TD*%
D13*
%TO.C,D27*%
X235125000Y-156510000D03*
D14*
X237665000Y-156510000D03*
%TD*%
D13*
%TO.C,D54*%
X303525000Y-169990000D03*
D14*
X306065000Y-169990000D03*
%TD*%
D19*
%TO.C,R41*%
X264050000Y-161060000D03*
X267150000Y-161060000D03*
%TD*%
D13*
%TO.C,D46*%
X269500000Y-138600000D03*
D14*
X272040000Y-138600000D03*
%TD*%
D33*
%TO.C,D6*%
X217400000Y-90187500D03*
X217400000Y-87212500D03*
%TD*%
D21*
%TO.C,SW19*%
X439145000Y-296744000D03*
X431195000Y-296744000D03*
X439145000Y-301244000D03*
X431195000Y-301244000D03*
%TD*%
D13*
%TO.C,D52*%
X269525000Y-111610000D03*
D14*
X272065000Y-111610000D03*
%TD*%
D22*
%TO.C,SW35*%
X206125000Y-161954431D03*
D23*
X219325000Y-162064900D03*
%TD*%
D19*
%TO.C,R83*%
X334785000Y-106700000D03*
X337885000Y-106700000D03*
%TD*%
%TO.C,R97*%
X350785000Y-111200000D03*
X353885000Y-111200000D03*
%TD*%
D13*
%TO.C,D33*%
X235125000Y-129510000D03*
D14*
X237665000Y-129510000D03*
%TD*%
D19*
%TO.C,R77*%
X334985000Y-133700000D03*
X338085000Y-133700000D03*
%TD*%
%TO.C,R30*%
X229450000Y-142900000D03*
X232550000Y-142900000D03*
%TD*%
D13*
%TO.C,D93*%
X356360000Y-129200000D03*
D14*
X358900000Y-129200000D03*
%TD*%
D13*
%TO.C,D88*%
X356360000Y-151700000D03*
D14*
X358900000Y-151700000D03*
%TD*%
D19*
%TO.C,R59*%
X298050000Y-147500000D03*
X301150000Y-147500000D03*
%TD*%
%TO.C,R89*%
X350785000Y-147200000D03*
X353885000Y-147200000D03*
%TD*%
D21*
%TO.C,SW14*%
X147025000Y-281250000D03*
X139075000Y-281250000D03*
X139075000Y-285750000D03*
X147025000Y-285750000D03*
%TD*%
D33*
%TO.C,D14*%
X400500000Y-280487500D03*
X400500000Y-277512500D03*
%TD*%
D19*
%TO.C,R48*%
X264050000Y-129700000D03*
X267150000Y-129700000D03*
%TD*%
%TO.C,R27*%
X229600000Y-156500000D03*
X232700000Y-156500000D03*
%TD*%
D13*
%TO.C,D68*%
X303525000Y-107010000D03*
D14*
X306065000Y-107010000D03*
%TD*%
D19*
%TO.C,R78*%
X334985000Y-129500000D03*
X338085000Y-129500000D03*
%TD*%
D33*
%TO.C,D7*%
X175800000Y-90287500D03*
X175800000Y-87312500D03*
%TD*%
D15*
%TO.C,SW7*%
X423320000Y-92305000D03*
X423320000Y-84355000D03*
X418820000Y-92305000D03*
X418820000Y-84355000D03*
%TD*%
D28*
%TO.C,REF\u002A\u002A*%
X462510000Y-174590000D03*
%TD*%
D19*
%TO.C,R42*%
X264050000Y-156600000D03*
X267150000Y-156600000D03*
%TD*%
D13*
%TO.C,D92*%
X356360000Y-133700000D03*
D14*
X358900000Y-133700000D03*
%TD*%
D15*
%TO.C,SW17*%
X179330000Y-275985000D03*
X179330000Y-268035000D03*
X183830000Y-275985000D03*
X183830000Y-268035000D03*
%TD*%
D19*
%TO.C,R64*%
X298000000Y-125000000D03*
X301100000Y-125000000D03*
%TD*%
D29*
%TO.C,RV1*%
X377590000Y-68380000D03*
X386390000Y-68380000D03*
D14*
X384490000Y-75380000D03*
X381990000Y-75380000D03*
X379490000Y-75380000D03*
%TD*%
D19*
%TO.C,R32*%
X229550000Y-134000000D03*
X232650000Y-134000000D03*
%TD*%
D29*
%TO.C,RV11*%
X244590000Y-102380000D03*
X253390000Y-102380000D03*
D14*
X251490000Y-109380000D03*
X248990000Y-109380000D03*
X246490000Y-109380000D03*
%TD*%
D19*
%TO.C,R40*%
X264100000Y-165600000D03*
X267200000Y-165600000D03*
%TD*%
D29*
%TO.C,RV13*%
X312696975Y-102402186D03*
X321496975Y-102402186D03*
D14*
X319596975Y-109402186D03*
X317096975Y-109402186D03*
X314596975Y-109402186D03*
%TD*%
D13*
%TO.C,D31*%
X235125000Y-138510000D03*
D14*
X237665000Y-138510000D03*
%TD*%
D22*
%TO.C,SW40*%
X406585000Y-161984431D03*
D23*
X419785000Y-162094900D03*
%TD*%
D19*
%TO.C,R44*%
X264050000Y-147600000D03*
X267150000Y-147600000D03*
%TD*%
D20*
%TO.C,NP7*%
X184555000Y-185504900D03*
X184555000Y-188704900D03*
X189455000Y-188704900D03*
X189455000Y-185504900D03*
%TD*%
D19*
%TO.C,R90*%
X350785000Y-142700000D03*
X353885000Y-142700000D03*
%TD*%
D28*
%TO.C,REF\u002A\u002A*%
X387560000Y-174630000D03*
%TD*%
D13*
%TO.C,D75*%
X340460000Y-142800000D03*
D14*
X343000000Y-142800000D03*
%TD*%
D19*
%TO.C,R54*%
X298050000Y-170000000D03*
X301150000Y-170000000D03*
%TD*%
D13*
%TO.C,D98*%
X356360000Y-106700000D03*
D14*
X358900000Y-106700000D03*
%TD*%
D24*
%TO.C,R1*%
X325700000Y-231250000D03*
X325700000Y-228150000D03*
%TD*%
D13*
%TO.C,D48*%
X269525000Y-129610000D03*
D14*
X272065000Y-129610000D03*
%TD*%
D32*
%TO.C,D11*%
X287000000Y-228412500D03*
X287000000Y-231387500D03*
%TD*%
D13*
%TO.C,D86*%
X356360000Y-160700000D03*
D14*
X358900000Y-160700000D03*
%TD*%
D13*
%TO.C,D59*%
X303525000Y-147500000D03*
D14*
X306065000Y-147500000D03*
%TD*%
D28*
%TO.C,REF\u002A\u002A*%
X450000000Y-162100000D03*
%TD*%
D21*
%TO.C,SW22*%
X397025000Y-251250000D03*
X389075000Y-251250000D03*
X389075000Y-255750000D03*
X397025000Y-255750000D03*
%TD*%
D19*
%TO.C,R37*%
X229450000Y-112000000D03*
X232550000Y-112000000D03*
%TD*%
%TO.C,R75*%
X334885000Y-142700000D03*
X337985000Y-142700000D03*
%TD*%
D29*
%TO.C,RV9*%
X419610000Y-68390000D03*
X428410000Y-68390000D03*
D14*
X426510000Y-75390000D03*
X424010000Y-75390000D03*
X421510000Y-75390000D03*
%TD*%
D15*
%TO.C,SW12*%
X209230000Y-84475000D03*
X209230000Y-92425000D03*
X213730000Y-84475000D03*
X213730000Y-92425000D03*
%TD*%
D13*
%TO.C,D45*%
X269500000Y-143100000D03*
D14*
X272040000Y-143100000D03*
%TD*%
D29*
%TO.C,RV26*%
X287400000Y-136430000D03*
X278600000Y-136430000D03*
D14*
X285500000Y-143430000D03*
X283000000Y-143430000D03*
X280500000Y-143430000D03*
%TD*%
D15*
%TO.C,SW3*%
X409880000Y-117865000D03*
X409880000Y-109915000D03*
X414380000Y-117865000D03*
X414380000Y-109915000D03*
%TD*%
D13*
%TO.C,D91*%
X356360000Y-138200000D03*
D14*
X358900000Y-138200000D03*
%TD*%
D33*
%TO.C,D21*%
X150700000Y-250275000D03*
X150700000Y-247300000D03*
%TD*%
D22*
%TO.C,SW44*%
X456605000Y-186964431D03*
D23*
X469805000Y-187074900D03*
%TD*%
D19*
%TO.C,R49*%
X264050000Y-125043527D03*
X267150000Y-125043527D03*
%TD*%
%TO.C,R71*%
X335085000Y-160800000D03*
X338185000Y-160800000D03*
%TD*%
%TO.C,R70*%
X334885000Y-165300000D03*
X337985000Y-165300000D03*
%TD*%
D22*
%TO.C,SW43*%
X456610000Y-161949531D03*
D23*
X469810000Y-162060000D03*
%TD*%
D16*
%TO.C,RV22*%
X316870000Y-259250000D03*
X316870000Y-292250000D03*
D17*
X313060000Y-248318000D03*
X318140000Y-248318000D03*
X315600000Y-248318000D03*
D18*
X320680000Y-248318000D03*
D17*
X318250000Y-303182000D03*
X313170000Y-303182000D03*
%TD*%
D13*
%TO.C,D74*%
X340445000Y-147300000D03*
D14*
X342985000Y-147300000D03*
%TD*%
D34*
%TO.C,D16*%
X391512500Y-291100000D03*
X394487500Y-291100000D03*
%TD*%
D19*
%TO.C,R82*%
X334885000Y-111200000D03*
X337985000Y-111200000D03*
%TD*%
D13*
%TO.C,D97*%
X356360000Y-111200000D03*
D14*
X358900000Y-111200000D03*
%TD*%
D19*
%TO.C,R46*%
X264050000Y-138600000D03*
X267150000Y-138600000D03*
%TD*%
D37*
%TO.C,XA1*%
X399957500Y-74315000D03*
X399957500Y-81935000D03*
X399957500Y-84475000D03*
X448217500Y-140355000D03*
X448217500Y-142895000D03*
X399957500Y-97175000D03*
X399957500Y-99715000D03*
X399957500Y-102255000D03*
X399957500Y-104795000D03*
X399957500Y-107335000D03*
X399957500Y-109875000D03*
X399957500Y-112415000D03*
X399957500Y-114955000D03*
X399957500Y-120035000D03*
X399957500Y-122575000D03*
X399957500Y-125115000D03*
X399957500Y-127655000D03*
X399957500Y-130195000D03*
X399957500Y-132735000D03*
X399957500Y-135275000D03*
X399957500Y-137815000D03*
X448217500Y-70251000D03*
X448217500Y-109875000D03*
X448217500Y-107335000D03*
X448217500Y-104795000D03*
X448217500Y-102255000D03*
X448217500Y-99715000D03*
X448217500Y-97175000D03*
X448217500Y-94635000D03*
X448217500Y-92095000D03*
X448217500Y-88031000D03*
X448217500Y-85491000D03*
X448217500Y-82951000D03*
X448217500Y-80411000D03*
X448217500Y-77871000D03*
X448217500Y-75331000D03*
X448217500Y-114955000D03*
X448217500Y-117495000D03*
X448217500Y-120035000D03*
X448217500Y-122575000D03*
X448217500Y-125115000D03*
X448217500Y-127655000D03*
X448217500Y-130195000D03*
X448217500Y-132735000D03*
X445677500Y-140355000D03*
X445677500Y-142895000D03*
X443137500Y-140355000D03*
X443137500Y-142895000D03*
X440597500Y-140355000D03*
X440597500Y-142895000D03*
X438057500Y-140355000D03*
X438057500Y-142895000D03*
X435517500Y-140355000D03*
X435517500Y-142895000D03*
X432977500Y-140355000D03*
X432977500Y-142895000D03*
X430437500Y-140355000D03*
X430437500Y-142895000D03*
X427897500Y-140355000D03*
X427897500Y-142895000D03*
X425357500Y-140355000D03*
X425357500Y-142895000D03*
X422817500Y-140355000D03*
X422817500Y-142895000D03*
X420277500Y-140355000D03*
X420277500Y-142895000D03*
X417737500Y-140355000D03*
X417737500Y-142895000D03*
X415197500Y-140355000D03*
X415197500Y-142895000D03*
X412657500Y-140355000D03*
X412657500Y-142895000D03*
X410117500Y-140355000D03*
X410117500Y-142895000D03*
X407577500Y-140355000D03*
X407577500Y-142895000D03*
X448217500Y-72791000D03*
X399957500Y-87015000D03*
X399957500Y-89555000D03*
X405037500Y-140355000D03*
X405037500Y-142895000D03*
X399957500Y-76855000D03*
X399957500Y-79395000D03*
X448217500Y-65171000D03*
X448217500Y-67711000D03*
X399957500Y-92095000D03*
%TD*%
D34*
%TO.C,D17*%
X141512500Y-290600000D03*
X144487500Y-290600000D03*
%TD*%
D29*
%TO.C,RV10*%
X321410000Y-68380000D03*
X312610000Y-68380000D03*
D14*
X319510000Y-75380000D03*
X317010000Y-75380000D03*
X314510000Y-75380000D03*
%TD*%
D33*
%TO.C,D13*%
X134500000Y-282487500D03*
X134500000Y-279512500D03*
%TD*%
D15*
%TO.C,SW11*%
X375540000Y-92305000D03*
X375540000Y-84355000D03*
X380040000Y-92305000D03*
X380040000Y-84355000D03*
%TD*%
D33*
%TO.C,D18*%
X385400000Y-249987500D03*
X385400000Y-247012500D03*
%TD*%
D29*
%TO.C,RV18*%
X278570000Y-170460000D03*
X287370000Y-170460000D03*
D14*
X285470000Y-177460000D03*
X282970000Y-177460000D03*
X280470000Y-177460000D03*
%TD*%
D15*
%TO.C,SW8*%
X458610000Y-84205000D03*
X458610000Y-92155000D03*
X463110000Y-92155000D03*
X463110000Y-84205000D03*
%TD*%
D28*
%TO.C,REF\u002A\u002A*%
X162020000Y-174580000D03*
%TD*%
D20*
%TO.C,NP5*%
X134580000Y-185460000D03*
X134580000Y-188660000D03*
X139480000Y-188660000D03*
X139480000Y-185460000D03*
%TD*%
D19*
%TO.C,R56*%
X298050000Y-161000000D03*
X301150000Y-161000000D03*
%TD*%
D24*
%TO.C,R11*%
X290500000Y-231550000D03*
X290500000Y-228450000D03*
%TD*%
D12*
%TO.C,R8*%
X137500000Y-86750000D03*
X137500000Y-89850000D03*
%TD*%
D38*
%TO.C,NP9*%
X187830000Y-236270000D03*
X191030000Y-236270000D03*
X191030000Y-231370000D03*
X187830000Y-231370000D03*
%TD*%
D19*
%TO.C,R53*%
X264050000Y-107100000D03*
X267150000Y-107100000D03*
%TD*%
D29*
%TO.C,RV14*%
X253350000Y-136330000D03*
X244550000Y-136330000D03*
D14*
X251450000Y-143330000D03*
X248950000Y-143330000D03*
X246450000Y-143330000D03*
%TD*%
D13*
%TO.C,D96*%
X356360000Y-115700000D03*
D14*
X358900000Y-115700000D03*
%TD*%
D20*
%TO.C,NP16*%
X435055000Y-160494900D03*
X435055000Y-163694900D03*
X439955000Y-163694900D03*
X439955000Y-160494900D03*
%TD*%
D19*
%TO.C,R57*%
X298050000Y-156600000D03*
X301150000Y-156600000D03*
%TD*%
D20*
%TO.C,NP3*%
X184590000Y-160460000D03*
X184590000Y-163660000D03*
X189490000Y-163660000D03*
X189490000Y-160460000D03*
%TD*%
%TO.C,NP14*%
X385050000Y-185470000D03*
X385050000Y-188670000D03*
X389950000Y-188670000D03*
X389950000Y-185470000D03*
%TD*%
D33*
%TO.C,D12*%
X385200000Y-280387500D03*
X385200000Y-277412500D03*
%TD*%
D15*
%TO.C,SW6*%
X188260000Y-110145000D03*
X188260000Y-118095000D03*
X183760000Y-110145000D03*
X183760000Y-118095000D03*
%TD*%
D12*
%TO.C,R3*%
X470400000Y-86550000D03*
X470400000Y-89650000D03*
%TD*%
D28*
%TO.C,REF\u002A\u002A*%
X412550000Y-174620000D03*
%TD*%
D20*
%TO.C,NP8*%
X209590000Y-185480000D03*
X209590000Y-188680000D03*
X214490000Y-188680000D03*
X214490000Y-185480000D03*
%TD*%
D13*
%TO.C,D82*%
X340460000Y-111300000D03*
D14*
X343000000Y-111300000D03*
%TD*%
D20*
%TO.C,NP12*%
X435030000Y-185490000D03*
X435030000Y-188690000D03*
X439930000Y-188690000D03*
X439930000Y-185490000D03*
%TD*%
D38*
%TO.C,NP10*%
X187840000Y-250170000D03*
X191040000Y-250170000D03*
X191040000Y-245270000D03*
X187840000Y-245270000D03*
%TD*%
D13*
%TO.C,D56*%
X303525000Y-161000000D03*
D14*
X306065000Y-161000000D03*
%TD*%
D13*
%TO.C,D83*%
X340460000Y-106800000D03*
D14*
X343000000Y-106800000D03*
%TD*%
D19*
%TO.C,R92*%
X350885000Y-133700000D03*
X353985000Y-133700000D03*
%TD*%
D27*
%TO.C,REF\u002A\u002A*%
X125000000Y-305000000D03*
D26*
X125000000Y-305000000D03*
%TD*%
D19*
%TO.C,R74*%
X334885000Y-147100000D03*
X337985000Y-147100000D03*
%TD*%
D28*
%TO.C,REF\u002A\u002A*%
X400060000Y-187090000D03*
%TD*%
D19*
%TO.C,R29*%
X229500000Y-147500000D03*
X232600000Y-147500000D03*
%TD*%
D16*
%TO.C,RV16*%
X208170000Y-241800000D03*
X208170000Y-292300000D03*
D17*
X209440000Y-232300000D03*
X204360000Y-232300000D03*
D18*
X211980000Y-232300000D03*
D17*
X206900000Y-232300000D03*
X204390000Y-303200000D03*
X209470000Y-303200000D03*
%TD*%
D12*
%TO.C,R4*%
X430000000Y-86850000D03*
X430000000Y-89950000D03*
%TD*%
D19*
%TO.C,R35*%
X229450000Y-120500000D03*
X232550000Y-120500000D03*
%TD*%
D29*
%TO.C,RV27*%
X321400000Y-205450000D03*
X312600000Y-205450000D03*
D14*
X319500000Y-212450000D03*
X317000000Y-212450000D03*
X314500000Y-212450000D03*
%TD*%
D27*
%TO.C,REF\u002A\u002A*%
X473000000Y-305000000D03*
D26*
X473000000Y-305000000D03*
%TD*%
D33*
%TO.C,D20*%
X400500000Y-249987500D03*
X400500000Y-247012500D03*
%TD*%
D34*
%TO.C,D10*%
X252312500Y-227300000D03*
X255287500Y-227300000D03*
%TD*%
D28*
%TO.C,REF\u002A\u002A*%
X437510000Y-174610000D03*
%TD*%
D34*
%TO.C,D23*%
X141712500Y-261900000D03*
X144687500Y-261900000D03*
%TD*%
D13*
%TO.C,D63*%
X303525000Y-129510000D03*
D14*
X306065000Y-129510000D03*
%TD*%
D13*
%TO.C,D29*%
X235125000Y-147510000D03*
D14*
X237665000Y-147510000D03*
%TD*%
D13*
%TO.C,D64*%
X303525000Y-125010000D03*
D14*
X306065000Y-125010000D03*
%TD*%
D19*
%TO.C,R24*%
X229650000Y-170200000D03*
X232750000Y-170200000D03*
%TD*%
%TO.C,R36*%
X229450000Y-116100000D03*
X232550000Y-116100000D03*
%TD*%
D22*
%TO.C,SW42*%
X431605000Y-161974431D03*
D23*
X444805000Y-162084900D03*
%TD*%
D29*
%TO.C,RV3*%
X244560000Y-68370000D03*
X253360000Y-68370000D03*
D14*
X251460000Y-75370000D03*
X248960000Y-75370000D03*
X246460000Y-75370000D03*
%TD*%
D38*
%TO.C,NP20*%
X437630000Y-236190000D03*
X440830000Y-236190000D03*
X440830000Y-231290000D03*
X437630000Y-231290000D03*
%TD*%
D13*
%TO.C,D57*%
X303525000Y-156500000D03*
D14*
X306065000Y-156500000D03*
%TD*%
D13*
%TO.C,D85*%
X356360000Y-165200000D03*
D14*
X358900000Y-165200000D03*
%TD*%
D19*
%TO.C,R65*%
X297950000Y-120400000D03*
X301050000Y-120400000D03*
%TD*%
D13*
%TO.C,D77*%
X340460000Y-133800000D03*
D14*
X343000000Y-133800000D03*
%TD*%
D29*
%TO.C,RV2*%
X353400000Y-84648012D03*
X344600000Y-84648012D03*
D14*
X351500000Y-91648012D03*
X349000000Y-91648012D03*
X346500000Y-91648012D03*
%TD*%
D13*
%TO.C,D60*%
X303525000Y-143000000D03*
D14*
X306065000Y-143000000D03*
%TD*%
D13*
%TO.C,D79*%
X340460000Y-124800000D03*
D14*
X343000000Y-124800000D03*
%TD*%
D22*
%TO.C,SW33*%
X181105000Y-186984431D03*
D23*
X194305000Y-187094900D03*
%TD*%
D13*
%TO.C,D58*%
X303525000Y-152000000D03*
D14*
X306065000Y-152000000D03*
%TD*%
D20*
%TO.C,NP4*%
X209575000Y-160474900D03*
X209575000Y-163674900D03*
X214475000Y-163674900D03*
X214475000Y-160474900D03*
%TD*%
D13*
%TO.C,D78*%
X340460000Y-129300000D03*
D14*
X343000000Y-129300000D03*
%TD*%
D13*
%TO.C,D43*%
X269500000Y-152100000D03*
D14*
X272040000Y-152100000D03*
%TD*%
D28*
%TO.C,REF\u002A\u002A*%
X199470000Y-162080000D03*
%TD*%
D13*
%TO.C,D95*%
X356360000Y-120200000D03*
D14*
X358900000Y-120200000D03*
%TD*%
D13*
%TO.C,D40*%
X269500000Y-165600000D03*
D14*
X272040000Y-165600000D03*
%TD*%
D21*
%TO.C,SW21*%
X275463000Y-227312000D03*
X283413000Y-227312000D03*
X275463000Y-231812000D03*
X283413000Y-231812000D03*
%TD*%
D19*
%TO.C,R34*%
X229550000Y-125000000D03*
X232650000Y-125000000D03*
%TD*%
D29*
%TO.C,RV23*%
X312700000Y-170400000D03*
X321500000Y-170400000D03*
D14*
X319600000Y-177400000D03*
X317100000Y-177400000D03*
X314600000Y-177400000D03*
%TD*%
D20*
%TO.C,NP6*%
X159585000Y-185504900D03*
X159585000Y-188704900D03*
X164485000Y-188704900D03*
X164485000Y-185504900D03*
%TD*%
D29*
%TO.C,RV29*%
X353460000Y-283040000D03*
X344660000Y-283040000D03*
D14*
X351560000Y-290040000D03*
X349060000Y-290040000D03*
X346560000Y-290040000D03*
%TD*%
D30*
%TO.C,TB2*%
X466750000Y-211250000D03*
D31*
X466750000Y-213750000D03*
X466750000Y-216330000D03*
X466750000Y-218870000D03*
%TD*%
D20*
%TO.C,NP11*%
X460055000Y-185484900D03*
X460055000Y-188684900D03*
X464955000Y-188684900D03*
X464955000Y-185484900D03*
%TD*%
D19*
%TO.C,R28*%
X229500000Y-152000000D03*
X232600000Y-152000000D03*
%TD*%
D24*
%TO.C,R9*%
X191100000Y-273850000D03*
X191100000Y-270750000D03*
%TD*%
D29*
%TO.C,RV4*%
X169570000Y-68480000D03*
X178370000Y-68480000D03*
D14*
X176470000Y-75480000D03*
X173970000Y-75480000D03*
X171470000Y-75480000D03*
%TD*%
D13*
%TO.C,D71*%
X340460000Y-160800000D03*
D14*
X343000000Y-160800000D03*
%TD*%
D15*
%TO.C,SW27*%
X429600000Y-244055000D03*
X429600000Y-252005000D03*
X434100000Y-244055000D03*
X434100000Y-252005000D03*
%TD*%
D13*
%TO.C,D30*%
X235125000Y-143010000D03*
D14*
X237665000Y-143010000D03*
%TD*%
D20*
%TO.C,NP17*%
X410035000Y-160504900D03*
X410035000Y-163704900D03*
X414935000Y-163704900D03*
X414935000Y-160504900D03*
%TD*%
D13*
%TO.C,D89*%
X356360000Y-147200000D03*
D14*
X358900000Y-147200000D03*
%TD*%
D19*
%TO.C,R61*%
X297950000Y-138500000D03*
X301050000Y-138500000D03*
%TD*%
D13*
%TO.C,D70*%
X340460000Y-165300000D03*
D14*
X343000000Y-165300000D03*
%TD*%
D20*
%TO.C,NP15*%
X460060000Y-160470000D03*
X460060000Y-163670000D03*
X464960000Y-163670000D03*
X464960000Y-160470000D03*
%TD*%
D22*
%TO.C,SW39*%
X406615000Y-186974431D03*
D23*
X419815000Y-187084900D03*
%TD*%
D29*
%TO.C,RV20*%
X244610000Y-205350000D03*
X253410000Y-205350000D03*
D14*
X251510000Y-212350000D03*
X249010000Y-212350000D03*
X246510000Y-212350000D03*
%TD*%
D13*
%TO.C,D44*%
X269500000Y-147600000D03*
D14*
X272040000Y-147600000D03*
%TD*%
D19*
%TO.C,R66*%
X297950000Y-115800000D03*
X301050000Y-115800000D03*
%TD*%
D29*
%TO.C,RV25*%
X321410000Y-136430000D03*
X312610000Y-136430000D03*
D14*
X319510000Y-143430000D03*
X317010000Y-143430000D03*
X314510000Y-143430000D03*
%TD*%
D19*
%TO.C,R62*%
X297950000Y-134000000D03*
X301050000Y-134000000D03*
%TD*%
D39*
%TO.C,R10*%
X255250000Y-231200000D03*
X252150000Y-231200000D03*
%TD*%
D13*
%TO.C,D65*%
X303525000Y-120510000D03*
D14*
X306065000Y-120510000D03*
%TD*%
D13*
%TO.C,D51*%
X269525000Y-116110000D03*
D14*
X272065000Y-116110000D03*
%TD*%
D19*
%TO.C,R38*%
X229450000Y-107000000D03*
X232550000Y-107000000D03*
%TD*%
D13*
%TO.C,D38*%
X235125000Y-107010000D03*
D14*
X237665000Y-107010000D03*
%TD*%
D19*
%TO.C,R51*%
X264050000Y-116100000D03*
X267150000Y-116100000D03*
%TD*%
D13*
%TO.C,D73*%
X340460000Y-151800000D03*
D14*
X343000000Y-151800000D03*
%TD*%
D22*
%TO.C,SW41*%
X431585000Y-186984431D03*
D23*
X444785000Y-187094900D03*
%TD*%
D19*
%TO.C,R94*%
X350885000Y-124700000D03*
X353985000Y-124700000D03*
%TD*%
%TO.C,R47*%
X264050000Y-134100000D03*
X267150000Y-134100000D03*
%TD*%
%TO.C,R88*%
X350785000Y-151700000D03*
X353885000Y-151700000D03*
%TD*%
D22*
%TO.C,SW34*%
X181140000Y-161939531D03*
D23*
X194340000Y-162050000D03*
%TD*%
D13*
%TO.C,D28*%
X235125000Y-152010000D03*
D14*
X237665000Y-152010000D03*
%TD*%
D19*
%TO.C,R98*%
X350785000Y-106800000D03*
X353885000Y-106800000D03*
%TD*%
D33*
%TO.C,D8*%
X133900000Y-89787500D03*
X133900000Y-86812500D03*
%TD*%
D22*
%TO.C,SW38*%
X381595000Y-161974431D03*
D23*
X394795000Y-162084900D03*
%TD*%
D15*
%TO.C,SW5*%
X438470000Y-109785000D03*
X438470000Y-117735000D03*
X433970000Y-109785000D03*
X433970000Y-117735000D03*
%TD*%
D22*
%TO.C,SW31*%
X156135000Y-186984431D03*
D23*
X169335000Y-187094900D03*
%TD*%
D13*
%TO.C,D90*%
X356360000Y-142700000D03*
D14*
X358900000Y-142700000D03*
%TD*%
D36*
%TO.C,SW1*%
X176500000Y-106530000D03*
D16*
X171500000Y-106530000D03*
X174000000Y-106530000D03*
D28*
X168400000Y-114030000D03*
X179600000Y-114030000D03*
D16*
X171500000Y-121030000D03*
X176500000Y-121030000D03*
%TD*%
D22*
%TO.C,SW37*%
X381600000Y-186969531D03*
D23*
X394800000Y-187080000D03*
%TD*%
D38*
%TO.C,NP21*%
X437670000Y-250360000D03*
X440870000Y-250360000D03*
X440870000Y-245460000D03*
X437670000Y-245460000D03*
%TD*%
D19*
%TO.C,R33*%
X229350000Y-129500000D03*
X232450000Y-129500000D03*
%TD*%
D28*
%TO.C,REF\u002A\u002A*%
X149520000Y-187070000D03*
%TD*%
D13*
%TO.C,D25*%
X235175000Y-165610000D03*
D14*
X237715000Y-165610000D03*
%TD*%
D15*
%TO.C,SW15*%
X179160000Y-237975000D03*
X179160000Y-230025000D03*
X183660000Y-237975000D03*
X183660000Y-230025000D03*
%TD*%
D19*
%TO.C,R96*%
X350885000Y-115700000D03*
X353985000Y-115700000D03*
%TD*%
D12*
%TO.C,R7*%
X179400000Y-87250000D03*
X179400000Y-90350000D03*
%TD*%
D13*
%TO.C,D80*%
X340460000Y-120300000D03*
D14*
X343000000Y-120300000D03*
%TD*%
D19*
%TO.C,R95*%
X350885000Y-120100000D03*
X353985000Y-120100000D03*
%TD*%
D33*
%TO.C,D4*%
X426900000Y-89887500D03*
X426900000Y-86912500D03*
%TD*%
D19*
%TO.C,R39*%
X264100000Y-170100000D03*
X267200000Y-170100000D03*
%TD*%
D28*
%TO.C,REF\u002A\u002A*%
X450020000Y-187090000D03*
%TD*%
D19*
%TO.C,R76*%
X334985000Y-138400000D03*
X338085000Y-138400000D03*
%TD*%
D21*
%TO.C,SW20*%
X249293000Y-227362000D03*
X241343000Y-227362000D03*
X249293000Y-231862000D03*
X241343000Y-231862000D03*
%TD*%
D28*
%TO.C,REF\u002A\u002A*%
X199490000Y-187060000D03*
%TD*%
D13*
%TO.C,D81*%
X340460000Y-115800000D03*
D14*
X343000000Y-115800000D03*
%TD*%
D19*
%TO.C,R87*%
X350785000Y-156200000D03*
X353885000Y-156200000D03*
%TD*%
%TO.C,R68*%
X297900000Y-107000000D03*
X301000000Y-107000000D03*
%TD*%
%TO.C,R31*%
X229550000Y-138500000D03*
X232650000Y-138500000D03*
%TD*%
D13*
%TO.C,D76*%
X340460000Y-138300000D03*
D14*
X343000000Y-138300000D03*
%TD*%
D19*
%TO.C,R86*%
X350785000Y-160700000D03*
X353885000Y-160700000D03*
%TD*%
D15*
%TO.C,SW9*%
X125740000Y-84455000D03*
X125740000Y-92405000D03*
X130240000Y-84455000D03*
X130240000Y-92405000D03*
%TD*%
D29*
%TO.C,RV19*%
X244580000Y-170420000D03*
X253380000Y-170420000D03*
D14*
X251480000Y-177420000D03*
X248980000Y-177420000D03*
X246480000Y-177420000D03*
%TD*%
D13*
%TO.C,D47*%
X269525000Y-134110000D03*
D14*
X272065000Y-134110000D03*
%TD*%
D29*
%TO.C,RV5*%
X460570000Y-68330000D03*
X469370000Y-68330000D03*
D14*
X467470000Y-75330000D03*
X464970000Y-75330000D03*
X462470000Y-75330000D03*
%TD*%
D20*
%TO.C,NP18*%
X385060000Y-160490000D03*
X385060000Y-163690000D03*
X389960000Y-163690000D03*
X389960000Y-160490000D03*
%TD*%
D19*
%TO.C,R93*%
X350885000Y-129300000D03*
X353985000Y-129300000D03*
%TD*%
%TO.C,R80*%
X334885000Y-120300000D03*
X337985000Y-120300000D03*
%TD*%
M02*
