M48
; DRILL file {KiCad (5.99.0-11071-g7fde05e8ee)} date Fri Jun 18 03:58:43 2021
; FORMAT={-:-/ absolute / metric / decimal}
; #@! TF.CreationDate,2021-06-18T03:58:43+02:00
; #@! TF.GenerationSoftware,Kicad,Pcbnew,(5.99.0-11071-g7fde05e8ee)
; #@! TF.FileFunction,Plated,1,2,PTH
FMAT,2
METRIC
; #@! TA.AperFunction,Plated,PTH,ViaDrill
T1C0.635
; #@! TA.AperFunction,Plated,PTH,ComponentDrill
T2C0.762
; #@! TA.AperFunction,Plated,PTH,ViaDrill
T3C0.800
; #@! TA.AperFunction,Plated,PTH,ComponentDrill
T4C0.900
; #@! TA.AperFunction,Plated,PTH,ComponentDrill
T5C1.000
; #@! TA.AperFunction,Plated,PTH,ComponentDrill
T6C1.016
; #@! TA.AperFunction,Plated,PTH,ComponentDrill
T7C1.100
; #@! TA.AperFunction,Plated,PTH,ComponentDrill
T8C1.500
; #@! TA.AperFunction,Plated,PTH,ComponentDrill
T9C2.600
; #@! TA.AperFunction,Plated,PTH,ComponentDrill
T10C3.200
%
G90
G05
T1
X135.4Y-158.6
X136.5Y-187.1
X136.8Y-185.4
X136.9Y-161.9
X137.0Y-190.2
X137.1Y-159.6
X137.1Y-164.9
X137.2Y-183.7
X153.1Y-192.1
X153.6Y-240.35
X156.6Y-169.0
X161.4Y-158.4
X161.8Y-188.4
X162.0Y-184.2
X162.1Y-165.1
X162.2Y-160.7
X162.2Y-162.7
X162.3Y-186.5
X162.4Y-190.4
X162.675Y-58.775
X164.125Y-58.95
X180.2Y-168.1
X185.5Y-159.1
X185.85Y-59.227
X186.8Y-233.8
X186.9Y-247.6
X187.0Y-184.1
X187.1Y-161.0
X187.1Y-165.0
X187.2Y-73.1
X187.2Y-163.0
X187.2Y-190.3
X187.3Y-186.6
X187.4Y-188.2
X187.7Y-243.1
X189.2Y-229.1
X189.8Y-239.5
X194.71Y-245.68
X203.6Y-163.3
X205.6Y-212.1
X209.8Y-214.7
X211.5Y-139.5
X211.8Y-165.2
X212.0Y-158.3
X212.3Y-183.6
X212.4Y-185.7
X212.45Y-190.32
X212.5Y-161.1
X215.7Y-139.0
X215.8Y-145.2
X217.797Y-138.944
X221.1Y-140.8
X226.5Y-212.9
X226.575Y-214.425
X226.7Y-211.6
X227.75Y-215.35
X229.952Y-214.275
X243.9Y-152.7
X246.4Y-154.1
X250.3Y-147.5
X250.9Y-151.7
X251.7Y-154.3
X251.8Y-152.7
X253.7Y-147.9
X267.24Y-130.419
X269.3Y-223.6
X271.083Y-129.003
X272.505Y-218.552
X275.0Y-217.8
X279.4Y-153.6
X284.5Y-159.9
X284.958Y-152.7
X285.5Y-217.6
X285.748Y-151.739
X285.9Y-155.7
X293.0Y-222.3
X297.55Y-216.25
X297.6Y-217.6
X299.9Y-213.9
X301.0Y-129.375
X301.0Y-215.0
X303.9Y-128.828
X305.4Y-201.7
X306.175Y-198.25
X307.5Y-127.1
X307.6Y-118.5
X309.0Y-156.045
X309.3Y-198.375
X310.925Y-219.575
X311.875Y-218.623
X312.18Y-156.218
X312.3Y-153.4
X313.1Y-152.3
X314.2Y-159.3
X318.3Y-153.1
X319.3Y-152.2
X331.2Y-118.3
X331.2Y-121.8
X332.6Y-214.35
X333.825Y-128.175
X336.85Y-127.628
X340.627Y-75.927
X340.8Y-67.5
X341.8Y-200.4
X341.9Y-73.0
X342.2Y-75.7
X342.8Y-158.3
X343.4Y-155.0
X343.5Y-140.7
X343.8Y-150.3
X346.1Y-79.9
X346.3Y-74.0
X346.4Y-75.8
X346.944Y-147.448
X347.919Y-152.844
X348.0Y-150.8
X348.0Y-156.65
X348.025Y-154.1
X348.6Y-160.3
X348.85Y-195.625
X350.073Y-146.793
X351.0Y-148.7
X356.45Y-201.675
X356.8Y-77.7
X357.2Y-75.8
X357.3Y-68.3
X357.3Y-74.4
X357.6Y-199.0
X357.8Y-158.275
X359.025Y-155.425
X359.92Y-167.139
X359.945Y-153.208
X359.975Y-160.025
X360.6Y-139.5
X361.2Y-80.0
X362.5Y-133.5
X363.427Y-131.227
X364.888Y-127.9
X365.325Y-74.25
X365.95Y-157.05
X366.175Y-142.05
X367.2Y-146.825
X367.752Y-127.371
X368.459Y-146.752
X369.475Y-144.548
X370.761Y-137.489
X371.1Y-151.1
X375.9Y-219.15
X377.043Y-222.412
X377.25Y-219.075
X378.178Y-221.837
X379.6Y-191.8
X381.7Y-234.1
X385.3Y-234.2
X386.972Y-162.197
X387.075Y-184.325
X387.125Y-187.45
X387.425Y-158.975
X387.6Y-165.1
X387.7Y-190.0
X388.2Y-162.0
X388.5Y-186.9
X390.675Y-219.95
X393.425Y-221.9
X396.1Y-216.2
X396.32Y-141.4
X396.45Y-60.125
X404.6Y-166.9
X404.6Y-192.6
X408.512Y-133.904
X409.1Y-135.0
X411.7Y-186.6
X412.175Y-162.675
X412.3Y-158.4
X412.3Y-165.4
X412.375Y-187.875
X412.5Y-190.1
X412.625Y-160.825
X412.75Y-185.575
X418.25Y-235.825
X420.5Y-136.125
X422.379Y-135.252
X422.6Y-170.6
X427.09Y-193.72
X427.18Y-198.5
X427.187Y-135.252
X428.5Y-163.8
X429.3Y-160.1
X429.35Y-195.94
X430.3Y-170.6
X430.462Y-135.252
X431.4Y-193.3
X433.5Y-134.4
X437.1Y-185.8
X437.2Y-190.6
X437.3Y-158.6
X437.45Y-183.65
X437.465Y-162.552
X437.7Y-160.6
X438.4Y-187.0
X438.5Y-153.2
X438.6Y-151.8
X441.2Y-145.425
X443.6Y-168.4
X444.8Y-170.5
X451.6Y-91.8
X451.7Y-150.8
X452.9Y-143.9
X453.0Y-161.3
X453.5Y-215.9
X453.9Y-144.8
X455.57Y-194.97
X455.7Y-141.1
X456.9Y-141.9
X461.452Y-183.152
X461.9Y-186.8
X462.04Y-190.24
X462.1Y-162.1
X462.475Y-165.075
X462.775Y-158.95
X463.3Y-163.4
T2
X170.39Y-212.18
X172.93Y-212.18
X175.47Y-212.18
X178.01Y-212.18
X421.39Y-212.18
X423.93Y-212.18
X426.47Y-212.18
X429.01Y-212.18
T3
X302.5Y-213.1
X305.0Y-150.2
X305.1Y-154.8
X305.1Y-159.1
X318.7Y-126.6
X319.5Y-117.8
X339.826Y-134.874
X341.4Y-153.6
X345.3Y-148.4
X353.7Y-80.5
X377.5Y-162.3
X454.1Y-75.0
T4
X135.9Y-86.935
X135.9Y-89.475
X141.765Y-289.15
X141.925Y-259.09
X144.305Y-289.15
X144.465Y-259.09
X178.06Y-87.085
X178.06Y-89.625
X189.685Y-270.451
X189.685Y-272.991
X218.91Y-87.005
X218.91Y-89.545
X252.91Y-226.195
X252.91Y-228.735
X259.685Y-165.01
X259.705Y-135.01
X259.705Y-140.01
X259.705Y-159.99
X259.725Y-170.02
X259.73Y-145.01
X259.745Y-155.0
X259.765Y-150.0
X262.225Y-165.01
X262.245Y-135.01
X262.245Y-140.01
X262.245Y-159.99
X262.265Y-170.02
X262.27Y-145.01
X262.285Y-155.0
X262.305Y-150.0
X286.94Y-226.195
X286.94Y-228.735
X293.895Y-139.96
X293.945Y-134.95
X293.955Y-144.96
X293.99Y-169.96
X293.995Y-154.95
X294.015Y-149.95
X294.035Y-159.97
X294.035Y-164.99
X296.435Y-139.96
X296.485Y-134.95
X296.495Y-144.96
X296.53Y-169.96
X296.535Y-154.95
X296.555Y-149.95
X296.575Y-159.97
X296.575Y-164.99
X321.08Y-226.375
X321.08Y-228.915
X327.945Y-139.86
X327.965Y-134.93
X327.995Y-144.89
X327.995Y-149.87
X327.995Y-169.89
X328.015Y-154.88
X328.015Y-159.89
X328.045Y-164.88
X330.485Y-139.86
X330.505Y-134.93
X330.535Y-144.89
X330.535Y-149.87
X330.535Y-169.89
X330.555Y-154.88
X330.555Y-159.89
X330.585Y-164.88
X341.665Y-84.52
X341.67Y-89.52
X341.685Y-104.5
X341.715Y-99.49
X341.72Y-94.47
X341.725Y-119.5
X341.735Y-114.46
X341.765Y-109.52
X344.205Y-84.52
X344.21Y-89.52
X344.225Y-104.5
X344.255Y-99.49
X344.26Y-94.47
X344.265Y-119.5
X344.275Y-114.46
X344.305Y-109.52
X353.625Y-89.47
X353.645Y-104.45
X353.655Y-84.49
X353.655Y-114.48
X353.685Y-94.48
X353.685Y-99.49
X353.685Y-109.5
X353.715Y-119.51
X356.165Y-89.47
X356.185Y-104.45
X356.195Y-84.49
X356.195Y-114.48
X356.225Y-94.48
X356.225Y-99.49
X356.225Y-109.5
X356.255Y-119.51
X386.004Y-86.583
X386.004Y-89.123
X391.663Y-259.842
X391.675Y-289.63
X394.203Y-259.842
X394.215Y-289.63
X427.554Y-86.928
X427.554Y-89.468
X439.05Y-270.765
X439.05Y-273.305
X468.564Y-86.883
X468.564Y-89.423
T5
X129.45Y-75.47
X131.95Y-75.47
X134.45Y-75.47
X171.47Y-75.48
X171.5Y-106.53
X171.5Y-121.03
X173.97Y-75.48
X174.0Y-106.53
X176.47Y-75.48
X176.5Y-106.53
X176.5Y-121.03
X204.36Y-232.3
X204.39Y-303.2
X206.9Y-232.3
X209.44Y-232.3
X209.47Y-303.2
X211.98Y-232.3
X212.36Y-75.46
X214.86Y-75.46
X217.36Y-75.46
X245.19Y-241.568
X245.3Y-296.432
X246.45Y-143.33
X246.46Y-75.37
X246.48Y-177.42
X246.49Y-109.38
X246.51Y-212.35
X247.73Y-241.568
X248.95Y-143.33
X248.96Y-75.37
X248.98Y-177.42
X248.99Y-109.38
X249.01Y-212.35
X250.27Y-241.568
X250.38Y-296.432
X251.45Y-143.33
X251.46Y-75.37
X251.48Y-177.42
X251.49Y-109.38
X251.51Y-212.35
X252.81Y-241.568
X279.27Y-241.638
X279.38Y-296.502
X280.47Y-177.46
X280.49Y-109.4
X280.5Y-143.43
X280.5Y-212.55
X280.51Y-75.44
X281.81Y-241.638
X282.97Y-177.46
X282.99Y-109.4
X283.0Y-143.43
X283.0Y-212.55
X283.01Y-75.44
X284.35Y-241.638
X284.46Y-296.502
X285.47Y-177.46
X285.49Y-109.4
X285.5Y-143.43
X285.5Y-212.55
X285.51Y-75.44
X286.89Y-241.638
X313.16Y-241.518
X313.27Y-296.382
X314.49Y-143.48
X314.5Y-109.42
X314.5Y-212.45
X314.51Y-75.38
X314.6Y-177.4
X315.7Y-241.518
X316.99Y-143.48
X317.0Y-109.42
X317.0Y-212.45
X317.01Y-75.38
X317.1Y-177.4
X318.24Y-241.518
X318.35Y-296.382
X319.49Y-143.48
X319.5Y-109.42
X319.5Y-212.45
X319.51Y-75.38
X319.6Y-177.4
X320.78Y-241.518
X346.47Y-258.4
X346.5Y-143.46
X346.51Y-291.44
X348.97Y-258.4
X349.0Y-143.46
X349.01Y-291.44
X351.47Y-258.4
X351.5Y-143.46
X351.51Y-291.44
X379.49Y-75.38
X381.99Y-75.38
X384.49Y-75.38
X421.49Y-107.05
X421.49Y-121.55
X421.51Y-75.39
X423.99Y-121.55
X424.01Y-75.39
X426.49Y-107.05
X426.49Y-121.55
X426.51Y-75.39
X454.29Y-232.22
X454.32Y-303.12
X456.83Y-232.22
X459.37Y-232.22
X459.4Y-303.12
X461.91Y-232.22
X462.47Y-75.33
X464.97Y-75.33
X467.47Y-75.33
T6
X399.957Y-74.315
X399.957Y-76.855
X399.957Y-79.395
X399.957Y-81.935
X399.957Y-84.475
X399.957Y-87.015
X399.957Y-89.555
X399.957Y-92.095
X399.957Y-97.175
X399.957Y-99.715
X399.957Y-102.255
X399.957Y-104.795
X399.957Y-107.335
X399.957Y-109.875
X399.957Y-112.415
X399.957Y-114.955
X399.957Y-120.035
X399.957Y-122.575
X399.957Y-125.115
X399.957Y-127.655
X399.957Y-130.195
X399.957Y-132.735
X399.957Y-135.275
X399.957Y-137.815
X405.037Y-140.355
X405.037Y-142.895
X407.577Y-140.355
X407.577Y-142.895
X410.118Y-140.355
X410.118Y-142.895
X412.657Y-140.355
X412.657Y-142.895
X415.197Y-140.355
X415.197Y-142.895
X417.737Y-140.355
X417.737Y-142.895
X420.277Y-140.355
X420.277Y-142.895
X422.817Y-140.355
X422.817Y-142.895
X425.357Y-140.355
X425.357Y-142.895
X427.897Y-140.355
X427.897Y-142.895
X430.438Y-140.355
X430.438Y-142.895
X432.977Y-140.355
X432.977Y-142.895
X435.517Y-140.355
X435.517Y-142.895
X438.058Y-140.355
X438.058Y-142.895
X440.597Y-140.355
X440.597Y-142.895
X443.137Y-140.355
X443.137Y-142.895
X445.677Y-140.355
X445.677Y-142.895
X448.217Y-65.171
X448.217Y-67.711
X448.217Y-70.251
X448.217Y-72.791
X448.217Y-75.331
X448.217Y-77.871
X448.217Y-80.411
X448.217Y-82.951
X448.217Y-85.491
X448.217Y-88.031
X448.217Y-92.095
X448.217Y-94.635
X448.217Y-97.175
X448.217Y-99.715
X448.217Y-102.255
X448.217Y-104.795
X448.217Y-107.335
X448.217Y-109.875
X448.217Y-114.955
X448.217Y-117.495
X448.217Y-120.035
X448.217Y-122.575
X448.217Y-125.115
X448.217Y-127.655
X448.217Y-130.195
X448.217Y-132.735
X448.217Y-140.355
X448.217Y-142.895
T7
X127.08Y-85.15
X127.08Y-91.65
X131.58Y-85.15
X131.58Y-91.65
X139.86Y-281.01
X139.86Y-285.51
X139.9Y-251.01
X139.9Y-255.51
X146.36Y-281.01
X146.36Y-285.51
X146.4Y-251.01
X146.4Y-255.51
X159.78Y-110.78
X159.78Y-117.28
X164.28Y-110.78
X164.28Y-117.28
X169.09Y-85.14
X169.09Y-91.64
X173.59Y-85.14
X173.59Y-91.64
X178.85Y-269.55
X178.85Y-274.05
X179.57Y-244.69
X179.57Y-251.19
X179.6Y-230.75
X179.6Y-237.25
X181.662Y-296.708
X181.662Y-301.208
X183.77Y-110.77
X183.77Y-117.27
X184.07Y-244.69
X184.07Y-251.19
X184.1Y-230.75
X184.1Y-237.25
X185.35Y-269.55
X185.35Y-274.05
X188.162Y-296.708
X188.162Y-301.208
X188.27Y-110.77
X188.27Y-117.27
X209.87Y-85.18
X209.87Y-91.68
X214.37Y-85.18
X214.37Y-91.68
X242.37Y-225.22
X242.37Y-229.72
X248.87Y-225.22
X248.87Y-229.72
X276.38Y-225.27
X276.38Y-229.77
X282.88Y-225.27
X282.88Y-229.77
X310.38Y-225.27
X310.38Y-229.77
X316.88Y-225.27
X316.88Y-229.77
X345.53Y-206.89
X345.53Y-211.39
X352.03Y-206.89
X352.03Y-211.39
X377.13Y-85.11
X377.13Y-91.61
X381.63Y-85.11
X381.63Y-91.61
X389.76Y-280.96
X389.76Y-285.46
X389.88Y-251.08
X389.88Y-255.58
X396.26Y-280.96
X396.26Y-285.46
X396.38Y-251.08
X396.38Y-255.58
X409.84Y-110.73
X409.84Y-117.23
X414.34Y-110.73
X414.34Y-117.23
X418.834Y-84.958
X418.834Y-91.458
X423.334Y-84.958
X423.334Y-91.458
X428.869Y-269.58
X428.869Y-274.08
X429.32Y-244.7
X429.32Y-251.2
X429.34Y-230.75
X429.34Y-237.25
X431.852Y-296.708
X431.852Y-301.208
X433.55Y-110.77
X433.55Y-117.27
X433.82Y-244.7
X433.82Y-251.2
X433.84Y-230.75
X433.84Y-237.25
X435.369Y-269.58
X435.369Y-274.08
X438.05Y-110.77
X438.05Y-117.27
X438.352Y-296.708
X438.352Y-301.208
X459.824Y-85.028
X459.824Y-91.528
X464.324Y-85.028
X464.324Y-91.528
T8
X208.17Y-241.8
X208.17Y-292.3
X249.0Y-252.5
X249.0Y-285.5
X283.08Y-252.57
X283.08Y-285.57
X316.97Y-252.45
X316.97Y-285.45
X458.1Y-241.72
X458.1Y-292.22
T9
X168.4Y-114.03
X179.6Y-114.03
X418.39Y-114.05
X429.59Y-114.05
T10
X125.0Y-57.0
X125.0Y-305.0
X473.0Y-57.0
X473.0Y-305.0
T0
M30
