M48
; DRILL file {KiCad (5.99.0-11071-g7fde05e8ee)} date Sun Sep 26 21:52:59 2021
; FORMAT={-:-/ absolute / metric / decimal}
; #@! TF.CreationDate,2021-09-26T21:52:59+02:00
; #@! TF.GenerationSoftware,Kicad,Pcbnew,(5.99.0-11071-g7fde05e8ee)
; #@! TF.FileFunction,MixedPlating,1,2
FMAT,2
METRIC
; #@! TA.AperFunction,Plated,PTH,ViaDrill
T1C0.635
; #@! TA.AperFunction,Plated,PTH,ComponentDrill
T2C0.900
; #@! TA.AperFunction,Plated,PTH,ComponentDrill
T3C0.950
; #@! TA.AperFunction,Plated,PTH,ComponentDrill
T4C1.000
; #@! TA.AperFunction,Plated,PTH,ComponentDrill
T5C1.016
; #@! TA.AperFunction,Plated,PTH,ComponentDrill
T6C1.500
; #@! TA.AperFunction,Plated,PTH,ComponentDrill
T7C2.600
; #@! TA.AperFunction,Plated,PTH,ComponentDrill
T8C3.200
; #@! TA.AperFunction,NonPlated,NPTH,ComponentDrill
T9C2.000
; #@! TA.AperFunction,NonPlated,NPTH,ComponentDrill
T10C3.200
%
G90
G05
T1
X128.397Y-162.027
X129.108Y-194.361
X132.33Y-173.56
X132.52Y-169.38
X136.38Y-185.04
X136.57Y-160.52
X136.754Y-165.456
X137.008Y-190.754
X137.06Y-187.02
X137.53Y-162.1
X137.566Y-158.826
X137.592Y-221.183
X137.922Y-183.693
X138.379Y-258.826
X144.653Y-287.553
X144.678Y-258.547
X145.67Y-156.2
X146.202Y-132.791
X146.24Y-181.4
X149.403Y-288.646
X150.901Y-252.451
X151.78Y-258.1
X151.994Y-282.296
X152.33Y-287.18
X153.01Y-57.683
X153.721Y-192.481
X154.33Y-56.769
X155.423Y-60.071
X156.515Y-58.852
X159.741Y-238.811
X160.377Y-93.688
X161.468Y-93.091
X161.646Y-190.729
X161.7Y-185.4
X161.77Y-160.86
X161.849Y-273.736
X162.255Y-158.75
X162.29Y-187.05
X162.433Y-165.837
X162.433Y-183.591
X162.89Y-94.64
X163.0Y-162.67
X163.148Y-220.421
X163.22Y-96.012
X165.354Y-96.012
X165.735Y-94.64
X166.421Y-57.912
X166.85Y-214.79
X169.32Y-90.51
X169.49Y-210.68
X170.307Y-57.887
X170.942Y-78.232
X170.942Y-143.51
X171.3Y-182.1
X171.83Y-156.73
X172.4Y-192.68
X174.422Y-185.242
X174.48Y-92.76
X175.703Y-224.626
X176.301Y-185.141
X176.606Y-93.269
X176.606Y-96.012
X176.987Y-187.096
X177.113Y-225.283
X178.257Y-220.421
X179.07Y-137.16
X179.248Y-95.758
X179.299Y-92.735
X179.47Y-140.7
X179.57Y-221.254
X180.52Y-193.48
X182.38Y-198.64
X183.49Y-92.888
X183.515Y-95.936
X186.49Y-185.62
X186.665Y-190.881
X186.86Y-107.0
X186.89Y-160.4
X187.4Y-165.876
X187.5Y-187.18
X187.808Y-158.648
X187.858Y-183.921
X187.858Y-221.209
X187.858Y-224.79
X187.99Y-162.25
X191.948Y-301.295
X194.208Y-227.787
X194.208Y-231.038
X194.76Y-181.628
X195.7Y-156.71
X196.139Y-226.39
X196.139Y-230.988
X196.139Y-275.946
X196.367Y-184.81
X199.034Y-192.126
X203.454Y-138.151
X203.976Y-139.305
X204.37Y-225.09
X204.699Y-137.084
X206.629Y-138.151
X207.645Y-137.084
X210.871Y-196.19
X211.252Y-121.209
X211.62Y-160.46
X211.62Y-185.42
X211.938Y-190.398
X211.988Y-158.496
X212.077Y-115.672
X212.48Y-162.28
X212.547Y-165.557
X212.815Y-183.568
X212.94Y-187.16
X217.678Y-95.656
X219.253Y-124.028
X219.71Y-93.599
X220.172Y-159.268
X221.35Y-184.1
X224.64Y-128.63
X230.08Y-227.82
X230.62Y-224.6
X230.63Y-221.5
X230.901Y-226.886
X231.851Y-122.936
X233.84Y-236.22
X234.73Y-237.23
X234.77Y-239.42
X236.08Y-239.39
X238.02Y-218.74
X238.557Y-228.534
X245.262Y-222.362
X245.262Y-225.044
X246.228Y-150.749
X246.888Y-125.222
X247.396Y-121.666
X249.717Y-126.091
X249.784Y-123.292
X250.393Y-151.435
X253.42Y-236.84
X253.924Y-124.587
X254.23Y-122.16
X255.037Y-144.439
X256.591Y-89.154
X256.718Y-87.452
X258.326Y-85.336
X258.394Y-86.97
X259.97Y-160.23
X264.08Y-228.17
X264.11Y-223.77
X265.659Y-122.885
X272.872Y-229.641
X276.352Y-139.192
X276.352Y-143.002
X277.2Y-120.75
X280.924Y-124.968
X281.34Y-217.3
X283.02Y-151.73
X283.972Y-119.964
X286.06Y-226.01
X286.1Y-223.58
X287.477Y-92.735
X288.188Y-129.845
X288.671Y-123.673
X289.287Y-116.821
X289.966Y-93.447
X290.56Y-217.96
X290.957Y-143.891
X291.363Y-132.131
X291.414Y-129.87
X291.814Y-217.974
X292.456Y-143.307
X292.99Y-218.38
X293.81Y-127.62
X294.91Y-224.96
X295.02Y-160.39
X296.44Y-226.98
X297.592Y-220.497
X297.98Y-216.71
X299.085Y-92.024
X299.21Y-215.41
X299.288Y-219.227
X299.339Y-87.528
X299.822Y-122.911
X300.07Y-182.04
X300.253Y-93.447
X300.28Y-209.75
X300.99Y-208.392
X301.356Y-218.908
X301.371Y-222.123
X302.05Y-207.74
X305.28Y-237.06
X306.63Y-237.09
X308.42Y-221.27
X309.55Y-82.86
X310.464Y-94.64
X310.49Y-216.814
X310.57Y-215.261
X310.591Y-96.583
X311.099Y-84.033
X311.099Y-87.554
X311.531Y-95.631
X313.22Y-94.628
X314.223Y-95.631
X315.189Y-96.495
X316.99Y-183.54
X317.04Y-151.98
X318.64Y-138.63
X322.605Y-121.691
X322.605Y-125.451
X324.1Y-182.22
X324.2Y-125.61
X325.349Y-130.2
X325.907Y-121.514
X325.97Y-182.18
X326.669Y-127.762
X326.669Y-131.293
X326.99Y-117.35
X327.16Y-124.99
X328.23Y-143.6
X330.09Y-163.43
X330.276Y-236.042
X330.987Y-123.647
X332.4Y-200.06
X333.05Y-163.43
X333.578Y-228.168
X333.91Y-213.88
X334.176Y-226.17
X334.52Y-128.46
X334.696Y-236.042
X336.728Y-228.168
X336.76Y-160.27
X339.928Y-122.758
X341.376Y-177.546
X341.88Y-196.29
X341.884Y-172.466
X345.161Y-99.67
X345.211Y-102.87
X345.44Y-179.07
X346.862Y-99.746
X346.939Y-102.845
X347.726Y-182.88
X347.97Y-175.25
X347.97Y-196.03
X348.42Y-154.06
X349.77Y-158.76
X350.22Y-103.11
X350.266Y-122.352
X350.709Y-120.449
X350.723Y-143.916
X351.917Y-146.736
X352.44Y-97.18
X352.48Y-128.28
X354.0Y-222.34
X354.37Y-196.82
X354.79Y-178.79
X354.82Y-219.062
X355.67Y-213.26
X356.34Y-184.02
X356.641Y-219.583
X357.19Y-192.49
X357.88Y-195.08
X358.54Y-182.67
X359.47Y-222.44
X360.553Y-219.583
X363.28Y-196.88
X363.49Y-184.91
X364.896Y-203.886
X364.922Y-208.178
X364.947Y-178.166
X365.332Y-175.951
X365.73Y-197.5
X366.6Y-145.12
X366.82Y-152.22
X367.759Y-149.192
X368.986Y-147.853
X369.63Y-201.12
X369.88Y-204.32
X370.484Y-146.66
X371.022Y-141.761
X371.24Y-182.029
X371.245Y-178.945
X371.27Y-175.98
X371.28Y-93.62
X372.62Y-142.42
X373.862Y-142.49
X373.871Y-176.538
X374.337Y-172.94
X374.748Y-146.595
X375.564Y-176.352
X375.59Y-194.48
X376.072Y-170.942
X376.094Y-174.316
X376.098Y-145.745
X376.619Y-107.36
X376.619Y-128.93
X377.483Y-146.695
X377.571Y-134.29
X377.571Y-137.643
X377.571Y-142.748
X377.571Y-169.367
X377.571Y-172.974
X377.92Y-196.85
X378.79Y-95.64
X378.816Y-181.077
X378.943Y-165.71
X378.968Y-129.845
X379.71Y-183.06
X379.959Y-195.047
X380.213Y-168.631
X380.38Y-129.96
X380.49Y-106.37
X380.54Y-166.19
X380.771Y-102.006
X381.229Y-180.035
X381.813Y-103.759
X382.27Y-146.851
X382.27Y-153.416
X383.007Y-139.751
X383.743Y-142.189
X383.81Y-195.18
X384.16Y-179.09
X384.505Y-141.082
X385.343Y-102.159
X385.43Y-115.88
X386.842Y-288.036
X386.88Y-160.27
X386.893Y-190.678
X387.01Y-185.29
X387.147Y-165.71
X387.426Y-91.999
X387.962Y-183.45
X388.05Y-186.92
X388.137Y-158.598
X388.849Y-291.135
X389.12Y-165.57
X390.85Y-93.0
X390.85Y-97.14
X392.989Y-247.015
X394.564Y-288.341
X395.046Y-258.369
X396.04Y-164.86
X396.164Y-253.492
X396.5Y-182.23
X398.92Y-282.05
X402.05Y-288.45
X402.45Y-282.73
X403.37Y-257.04
X403.631Y-187.096
X406.26Y-219.31
X406.29Y-214.88
X407.264Y-293.345
X408.076Y-219.583
X408.598Y-213.365
X408.67Y-227.56
X409.042Y-221.488
X409.804Y-277.165
X410.0Y-107.02
X410.032Y-151.867
X410.489Y-249.098
X410.51Y-59.16
X410.54Y-148.565
X410.86Y-196.77
X411.378Y-190.627
X411.505Y-165.659
X411.683Y-198.628
X411.709Y-202.565
X411.92Y-160.48
X412.24Y-185.46
X412.57Y-162.67
X412.57Y-188.11
X412.6Y-78.7
X412.917Y-219.583
X412.925Y-183.433
X412.97Y-227.6
X412.979Y-158.521
X413.182Y-221.488
X413.342Y-211.615
X413.342Y-213.382
X413.48Y-58.45
X414.376Y-93.548
X414.376Y-95.707
X415.79Y-217.06
X417.154Y-197.872
X418.084Y-218.415
X418.516Y-198.622
X418.922Y-93.878
X418.922Y-95.606
X419.61Y-211.94
X419.67Y-223.42
X419.913Y-174.701
X420.0Y-191.43
X420.0Y-209.55
X420.014Y-218.542
X420.52Y-158.76
X420.827Y-171.475
X421.52Y-89.58
X421.538Y-176.428
X421.635Y-172.804
X423.062Y-178.105
X423.875Y-230.073
X423.977Y-159.156
X423.992Y-165.028
X424.256Y-184.912
X425.196Y-161.493
X426.314Y-184.81
X426.491Y-93.269
X426.491Y-96.825
X427.025Y-221.463
X427.584Y-187.02
X427.787Y-178.216
X429.362Y-198.501
X429.362Y-202.768
X430.047Y-213.538
X430.124Y-219.649
X430.479Y-264.465
X431.902Y-240.868
X432.37Y-58.63
X433.959Y-90.221
X433.959Y-99.289
X434.85Y-57.57
X436.423Y-190.703
X436.448Y-165.786
X436.95Y-161.28
X437.54Y-158.572
X437.55Y-185.21
X437.77Y-187.48
X438.055Y-183.359
X438.8Y-165.4
X440.8Y-109.88
X440.82Y-117.69
X442.97Y-155.3
X445.31Y-165.87
X446.87Y-182.362
X446.989Y-157.048
X446.989Y-159.791
X447.93Y-148.28
X449.19Y-193.41
X450.647Y-95.86
X450.647Y-98.374
X453.669Y-189.484
X453.796Y-184.709
X455.168Y-98.806
X455.193Y-96.114
X455.28Y-193.83
X456.692Y-96.114
X456.692Y-98.831
X461.188Y-190.678
X461.264Y-165.633
X461.96Y-185.47
X462.2Y-160.3
X462.884Y-158.324
X462.915Y-183.49
X463.03Y-187.06
X463.19Y-162.15
X466.96Y-96.13
X469.81Y-201.08
X470.68Y-216.88
X471.79Y-183.91
X471.86Y-159.27
X473.81Y-212.22
T2
X232.274Y-107.035
X232.314Y-111.555
X232.364Y-116.155
X232.364Y-120.655
X232.364Y-125.155
X232.364Y-129.655
X232.364Y-134.155
X232.364Y-138.655
X232.364Y-143.155
X232.364Y-147.655
X232.364Y-152.155
X232.364Y-156.655
X232.364Y-161.155
X232.364Y-165.655
X232.364Y-170.155
X234.814Y-107.035
X234.854Y-111.555
X234.904Y-116.155
X234.904Y-120.655
X234.904Y-125.155
X234.904Y-129.655
X234.904Y-134.155
X234.904Y-138.655
X234.904Y-143.155
X234.904Y-147.655
X234.904Y-152.155
X234.904Y-156.655
X234.904Y-161.155
X234.904Y-165.655
X234.904Y-170.155
X266.395Y-143.129
X266.395Y-147.629
X266.395Y-152.129
X266.395Y-156.629
X266.395Y-161.129
X266.395Y-165.629
X266.395Y-170.129
X266.42Y-107.139
X266.42Y-111.639
X266.42Y-116.139
X266.42Y-120.639
X266.42Y-125.139
X266.42Y-129.639
X266.42Y-134.139
X266.42Y-138.639
X268.935Y-143.129
X268.935Y-147.629
X268.935Y-152.129
X268.935Y-156.629
X268.935Y-161.129
X268.935Y-165.629
X268.935Y-170.129
X268.96Y-107.139
X268.96Y-111.639
X268.96Y-116.139
X268.96Y-120.639
X268.96Y-125.139
X268.96Y-129.639
X268.96Y-134.139
X268.96Y-138.639
X300.33Y-107.124
X300.33Y-111.614
X300.33Y-116.114
X300.33Y-120.614
X300.33Y-125.114
X300.33Y-129.614
X300.33Y-134.114
X300.33Y-138.614
X300.33Y-143.104
X300.33Y-147.604
X300.33Y-152.104
X300.33Y-156.604
X300.33Y-161.104
X300.33Y-165.604
X300.33Y-170.104
X302.87Y-107.124
X302.87Y-111.614
X302.87Y-116.114
X302.87Y-120.614
X302.87Y-125.114
X302.87Y-129.614
X302.87Y-134.114
X302.87Y-138.614
X302.87Y-143.104
X302.87Y-147.604
X302.87Y-152.104
X302.87Y-156.604
X302.87Y-161.104
X302.87Y-165.604
X302.87Y-170.104
X340.467Y-111.274
X340.467Y-115.774
X340.467Y-120.274
X340.467Y-124.774
X340.467Y-133.774
X340.467Y-138.274
X340.467Y-142.774
X340.467Y-147.274
X340.467Y-151.774
X340.467Y-156.274
X340.467Y-160.774
X340.467Y-165.274
X340.467Y-169.774
X340.477Y-106.774
X340.482Y-129.274
X343.007Y-111.274
X343.007Y-115.774
X343.007Y-120.274
X343.007Y-124.774
X343.007Y-133.774
X343.007Y-138.274
X343.007Y-142.774
X343.007Y-147.274
X343.007Y-151.774
X343.007Y-156.274
X343.007Y-160.774
X343.007Y-165.274
X343.007Y-169.774
X343.017Y-106.774
X343.022Y-129.274
X356.367Y-106.672
X356.367Y-111.172
X356.367Y-115.672
X356.367Y-120.172
X356.367Y-124.672
X356.367Y-129.172
X356.367Y-133.672
X356.367Y-138.172
X356.367Y-142.672
X356.367Y-147.172
X356.367Y-151.672
X356.367Y-156.172
X356.367Y-160.672
X356.367Y-165.172
X356.367Y-169.672
X358.907Y-106.672
X358.907Y-111.172
X358.907Y-115.672
X358.907Y-120.172
X358.907Y-124.672
X358.907Y-129.172
X358.907Y-133.672
X358.907Y-138.172
X358.907Y-142.672
X358.907Y-147.172
X358.907Y-151.672
X358.907Y-156.172
X358.907Y-160.672
X358.907Y-165.172
X358.907Y-169.672
T3
X216.55Y-210.95
X216.55Y-213.45
X216.55Y-215.95
X216.55Y-218.45
X466.75Y-211.25
X466.75Y-213.75
X466.75Y-216.25
X466.75Y-218.75
T4
X129.45Y-75.47
X131.95Y-75.47
X134.45Y-75.47
X171.47Y-75.48
X171.5Y-106.53
X171.5Y-121.03
X173.97Y-75.48
X174.0Y-106.53
X176.47Y-75.48
X176.5Y-106.53
X176.5Y-121.03
X204.36Y-232.3
X204.39Y-303.2
X206.9Y-232.3
X209.44Y-232.3
X209.47Y-303.2
X211.98Y-232.3
X212.36Y-75.46
X214.86Y-75.46
X217.36Y-75.46
X245.09Y-248.368
X245.2Y-303.232
X246.45Y-143.33
X246.46Y-75.37
X246.48Y-177.42
X246.49Y-109.38
X246.51Y-212.35
X247.63Y-248.368
X248.95Y-143.33
X248.96Y-75.37
X248.98Y-177.42
X248.99Y-109.38
X249.01Y-212.35
X250.17Y-248.368
X250.28Y-303.232
X251.45Y-143.33
X251.46Y-75.37
X251.48Y-177.42
X251.49Y-109.38
X251.51Y-212.35
X252.71Y-248.368
X279.17Y-248.438
X279.28Y-303.302
X280.47Y-177.46
X280.49Y-109.4
X280.5Y-143.43
X280.5Y-212.55
X280.51Y-75.44
X281.71Y-248.438
X282.97Y-177.46
X282.99Y-109.4
X283.0Y-143.43
X283.0Y-212.55
X283.01Y-75.44
X284.25Y-248.438
X284.36Y-303.302
X285.47Y-177.46
X285.49Y-109.4
X285.5Y-143.43
X285.5Y-212.55
X285.51Y-75.44
X286.79Y-248.438
X313.06Y-248.318
X313.17Y-303.182
X314.5Y-212.45
X314.51Y-75.38
X314.51Y-143.43
X314.597Y-109.402
X314.6Y-177.4
X315.6Y-248.318
X317.0Y-212.45
X317.01Y-75.38
X317.01Y-143.43
X317.097Y-109.402
X317.1Y-177.4
X318.14Y-248.318
X318.25Y-303.182
X319.5Y-212.45
X319.51Y-75.38
X319.51Y-143.43
X319.597Y-109.402
X319.6Y-177.4
X320.68Y-248.318
X346.5Y-91.648
X346.53Y-257.04
X346.56Y-290.04
X349.0Y-91.648
X349.03Y-257.04
X349.06Y-290.04
X351.5Y-91.648
X351.53Y-257.04
X351.56Y-290.04
X379.49Y-75.38
X381.99Y-75.38
X384.49Y-75.38
X421.49Y-107.05
X421.49Y-121.55
X421.51Y-75.39
X423.99Y-121.55
X424.01Y-75.39
X426.49Y-107.05
X426.49Y-121.55
X426.51Y-75.39
X454.29Y-232.22
X454.32Y-303.12
X456.83Y-232.22
X459.37Y-232.22
X459.4Y-303.12
X461.91Y-232.22
X462.47Y-75.33
X464.97Y-75.33
X467.47Y-75.33
T5
X399.957Y-74.315
X399.957Y-76.855
X399.957Y-79.395
X399.957Y-81.935
X399.957Y-84.475
X399.957Y-87.015
X399.957Y-89.555
X399.957Y-92.095
X399.957Y-97.175
X399.957Y-99.715
X399.957Y-102.255
X399.957Y-104.795
X399.957Y-107.335
X399.957Y-109.875
X399.957Y-112.415
X399.957Y-114.955
X399.957Y-120.035
X399.957Y-122.575
X399.957Y-125.115
X399.957Y-127.655
X399.957Y-130.195
X399.957Y-132.735
X399.957Y-135.275
X399.957Y-137.815
X405.037Y-140.355
X405.037Y-142.895
X407.577Y-140.355
X407.577Y-142.895
X410.118Y-140.355
X410.118Y-142.895
X412.657Y-140.355
X412.657Y-142.895
X415.197Y-140.355
X415.197Y-142.895
X417.737Y-140.355
X417.737Y-142.895
X420.277Y-140.355
X420.277Y-142.895
X422.817Y-140.355
X422.817Y-142.895
X425.357Y-140.355
X425.357Y-142.895
X427.897Y-140.355
X427.897Y-142.895
X430.438Y-140.355
X430.438Y-142.895
X432.977Y-140.355
X432.977Y-142.895
X435.517Y-140.355
X435.517Y-142.895
X438.058Y-140.355
X438.058Y-142.895
X440.597Y-140.355
X440.597Y-142.895
X443.137Y-140.355
X443.137Y-142.895
X445.677Y-140.355
X445.677Y-142.895
X448.217Y-65.171
X448.217Y-67.711
X448.217Y-70.251
X448.217Y-72.791
X448.217Y-75.331
X448.217Y-77.871
X448.217Y-80.411
X448.217Y-82.951
X448.217Y-85.491
X448.217Y-88.031
X448.217Y-92.095
X448.217Y-94.635
X448.217Y-97.175
X448.217Y-99.715
X448.217Y-102.255
X448.217Y-104.795
X448.217Y-107.335
X448.217Y-109.875
X448.217Y-114.955
X448.217Y-117.495
X448.217Y-120.035
X448.217Y-122.575
X448.217Y-125.115
X448.217Y-127.655
X448.217Y-130.195
X448.217Y-132.735
X448.217Y-140.355
X448.217Y-142.895
T6
X208.17Y-241.8
X208.17Y-292.3
X248.9Y-259.3
X248.9Y-292.3
X282.98Y-259.37
X282.98Y-292.37
X316.87Y-259.25
X316.87Y-292.25
X458.1Y-241.72
X458.1Y-292.22
T7
X168.4Y-114.03
X179.6Y-114.03
X418.39Y-114.05
X429.59Y-114.05
T8
X125.0Y-305.0
X125.2Y-57.3
X134.366Y-146.05
X199.39Y-102.87
X224.028Y-263.906
X235.204Y-188.468
X329.692Y-189.992
X358.648Y-69.088
X367.03Y-263.906
X463.804Y-122.428
X473.0Y-57.0
X473.0Y-305.0
T9
X127.55Y-68.47
X136.35Y-68.47
X169.57Y-68.48
X178.37Y-68.48
X210.46Y-68.46
X219.26Y-68.46
X244.55Y-136.33
X244.56Y-68.37
X244.58Y-170.42
X244.59Y-102.38
X244.61Y-205.35
X253.35Y-136.33
X253.36Y-68.37
X253.38Y-170.42
X253.39Y-102.38
X253.41Y-205.35
X278.57Y-170.46
X278.59Y-102.4
X278.6Y-136.43
X278.6Y-205.55
X278.61Y-68.44
X287.37Y-170.46
X287.39Y-102.4
X287.4Y-136.43
X287.4Y-205.55
X287.41Y-68.44
X312.6Y-205.45
X312.61Y-68.38
X312.61Y-136.43
X312.697Y-102.402
X312.7Y-170.4
X321.4Y-205.45
X321.41Y-68.38
X321.41Y-136.43
X321.497Y-102.402
X321.5Y-170.4
X344.6Y-84.648
X344.63Y-250.04
X344.66Y-283.04
X353.4Y-84.648
X353.43Y-250.04
X353.46Y-283.04
X377.59Y-68.38
X386.39Y-68.38
X419.61Y-68.39
X428.41Y-68.39
X460.57Y-68.33
X469.37Y-68.33
T10
X137.02Y-174.6
X149.52Y-162.09
X149.52Y-187.07
X162.02Y-174.58
X186.98Y-174.58
X199.47Y-162.08
X199.49Y-187.06
X211.98Y-174.57
X387.56Y-174.63
X400.05Y-162.12
X400.06Y-187.09
X412.55Y-174.62
X437.51Y-174.61
X450.0Y-162.1
X450.02Y-187.09
X462.51Y-174.59
T0
M30
