%TF.GenerationSoftware,KiCad,Pcbnew,(5.99.0-10428-g50fd94d35d)*%
%TF.CreationDate,2021-04-27T03:38:52+02:00*%
%TF.ProjectId,Mixduino,4d697864-7569-46e6-9f2e-6b696361645f,rev?*%
%TF.SameCoordinates,Original*%
%TF.FileFunction,Soldermask,Top*%
%TF.FilePolarity,Negative*%
%FSLAX46Y46*%
G04 Gerber Fmt 4.6, Leading zero omitted, Abs format (unit mm)*
G04 Created by KiCad (PCBNEW (5.99.0-10428-g50fd94d35d)) date 2021-04-27 03:38:52*
%MOMM*%
%LPD*%
G01*
G04 APERTURE LIST*
G04 Aperture macros list*
%AMRoundRect*
0 Rectangle with rounded corners*
0 $1 Rounding radius*
0 $2 $3 $4 $5 $6 $7 $8 $9 X,Y pos of 4 corners*
0 Add a 4 corners polygon primitive as box body*
4,1,4,$2,$3,$4,$5,$6,$7,$8,$9,$2,$3,0*
0 Add four circle primitives for the rounded corners*
1,1,$1+$1,$2,$3*
1,1,$1+$1,$4,$5*
1,1,$1+$1,$6,$7*
1,1,$1+$1,$8,$9*
0 Add four rect primitives between the rounded corners*
20,1,$1+$1,$2,$3,$4,$5,0*
20,1,$1+$1,$4,$5,$6,$7,0*
20,1,$1+$1,$6,$7,$8,$9,0*
20,1,$1+$1,$8,$9,$2,$3,0*%
G04 Aperture macros list end*
%ADD10C,0.100000*%
%ADD11C,0.150000*%
%ADD12C,0.300000*%
%ADD13C,0.400000*%
%ADD14C,2.200000*%
%ADD15C,4.000000*%
%ADD16C,6.800000*%
%ADD17RoundRect,0.250000X0.825000X0.250000X-0.825000X0.250000X-0.825000X-0.250000X0.825000X-0.250000X0*%
%ADD18RoundRect,0.200000X0.900000X0.900000X-0.900000X0.900000X-0.900000X-0.900000X0.900000X-0.900000X0*%
%ADD19C,2.200000*%
%ADD20C,2.400000*%
%ADD21O,2.000000X2.800000*%
%ADD22O,2.000000X2.862000*%
%ADD23RoundRect,0.200000X-0.750000X-0.500000X0.750000X-0.500000X0.750000X0.500000X-0.750000X0.500000X0*%
%ADD24RoundRect,0.200000X-1.750000X-0.494765X1.750000X-0.494765X1.750000X0.494765X-1.750000X0.494765X0*%
%ADD25RoundRect,0.200000X0.500000X-1.000000X0.500000X1.000000X-0.500000X1.000000X-0.500000X-1.000000X0*%
%ADD26C,3.600000*%
%ADD27C,4.400000*%
%ADD28C,1.924000*%
%ADD29RoundRect,0.200000X0.900000X-0.900000X0.900000X0.900000X-0.900000X0.900000X-0.900000X-0.900000X0*%
%ADD30RoundRect,0.200000X-0.900000X-0.900000X0.900000X-0.900000X0.900000X0.900000X-0.900000X0.900000X0*%
%ADD31RoundRect,0.200000X1.000000X-1.000000X1.000000X1.000000X-1.000000X1.000000X-1.000000X-1.000000X0*%
%ADD32RoundRect,0.200000X-0.900000X0.900000X-0.900000X-0.900000X0.900000X-0.900000X0.900000X0.900000X0*%
%ADD33RoundRect,0.250000X0.250000X-0.825000X0.250000X0.825000X-0.250000X0.825000X-0.250000X-0.825000X0*%
%ADD34O,2.127200X2.127200*%
%ADD35RoundRect,0.200000X0.500000X-0.750000X0.500000X0.750000X-0.500000X0.750000X-0.500000X-0.750000X0*%
%ADD36RoundRect,0.250000X0.250000X-0.975000X0.250000X0.975000X-0.250000X0.975000X-0.250000X-0.975000X0*%
%ADD37RoundRect,0.250000X-0.825000X-0.250000X0.825000X-0.250000X0.825000X0.250000X-0.825000X0.250000X0*%
%ADD38RoundRect,0.200000X-1.000000X1.000000X-1.000000X-1.000000X1.000000X-1.000000X1.000000X1.000000X0*%
G04 APERTURE END LIST*
D10*
D11*
X474004400Y-375989000D02*
X474004400Y-407989000D01*
X582004400Y-407989000D01*
X582004400Y-375989000D01*
X474004400Y-375989000D01*
D10*
D11*
X10000000Y-10000000D02*
X10000000Y-409989000D01*
X584004400Y-409989000D01*
X584004400Y-10000000D01*
X10000000Y-10000000D01*
D10*
D11*
X12000000Y-12000000D02*
X12000000Y-407989000D01*
X582004400Y-407989000D01*
X582004400Y-12000000D01*
X12000000Y-12000000D01*
D10*
D11*
X60000000Y-12000000D02*
X60000000Y-10000000D01*
D10*
D11*
X110000000Y-12000000D02*
X110000000Y-10000000D01*
D10*
D11*
X160000000Y-12000000D02*
X160000000Y-10000000D01*
D10*
D11*
X210000000Y-12000000D02*
X210000000Y-10000000D01*
D10*
D11*
X260000000Y-12000000D02*
X260000000Y-10000000D01*
D10*
D11*
X310000000Y-12000000D02*
X310000000Y-10000000D01*
D10*
D11*
X360000000Y-12000000D02*
X360000000Y-10000000D01*
D10*
D11*
X410000000Y-12000000D02*
X410000000Y-10000000D01*
D10*
D11*
X460000000Y-12000000D02*
X460000000Y-10000000D01*
D10*
D11*
X510000000Y-12000000D02*
X510000000Y-10000000D01*
D10*
D11*
X560000000Y-12000000D02*
X560000000Y-10000000D01*
D10*
D11*
X36065476Y-11588095D02*
X35322619Y-11588095D01*
X35694047Y-11588095D02*
X35694047Y-10288095D01*
X35570238Y-10473809D01*
X35446428Y-10597619D01*
X35322619Y-10659523D01*
D10*
D11*
X85322619Y-10411904D02*
X85384523Y-10350000D01*
X85508333Y-10288095D01*
X85817857Y-10288095D01*
X85941666Y-10350000D01*
X86003571Y-10411904D01*
X86065476Y-10535714D01*
X86065476Y-10659523D01*
X86003571Y-10845238D01*
X85260714Y-11588095D01*
X86065476Y-11588095D01*
D10*
D11*
X135260714Y-10288095D02*
X136065476Y-10288095D01*
X135632142Y-10783333D01*
X135817857Y-10783333D01*
X135941666Y-10845238D01*
X136003571Y-10907142D01*
X136065476Y-11030952D01*
X136065476Y-11340476D01*
X136003571Y-11464285D01*
X135941666Y-11526190D01*
X135817857Y-11588095D01*
X135446428Y-11588095D01*
X135322619Y-11526190D01*
X135260714Y-11464285D01*
D10*
D11*
X185941666Y-10721428D02*
X185941666Y-11588095D01*
X185632142Y-10226190D02*
X185322619Y-11154761D01*
X186127380Y-11154761D01*
D10*
D11*
X236003571Y-10288095D02*
X235384523Y-10288095D01*
X235322619Y-10907142D01*
X235384523Y-10845238D01*
X235508333Y-10783333D01*
X235817857Y-10783333D01*
X235941666Y-10845238D01*
X236003571Y-10907142D01*
X236065476Y-11030952D01*
X236065476Y-11340476D01*
X236003571Y-11464285D01*
X235941666Y-11526190D01*
X235817857Y-11588095D01*
X235508333Y-11588095D01*
X235384523Y-11526190D01*
X235322619Y-11464285D01*
D10*
D11*
X285941666Y-10288095D02*
X285694047Y-10288095D01*
X285570238Y-10350000D01*
X285508333Y-10411904D01*
X285384523Y-10597619D01*
X285322619Y-10845238D01*
X285322619Y-11340476D01*
X285384523Y-11464285D01*
X285446428Y-11526190D01*
X285570238Y-11588095D01*
X285817857Y-11588095D01*
X285941666Y-11526190D01*
X286003571Y-11464285D01*
X286065476Y-11340476D01*
X286065476Y-11030952D01*
X286003571Y-10907142D01*
X285941666Y-10845238D01*
X285817857Y-10783333D01*
X285570238Y-10783333D01*
X285446428Y-10845238D01*
X285384523Y-10907142D01*
X285322619Y-11030952D01*
D10*
D11*
X335260714Y-10288095D02*
X336127380Y-10288095D01*
X335570238Y-11588095D01*
D10*
D11*
X385570238Y-10845238D02*
X385446428Y-10783333D01*
X385384523Y-10721428D01*
X385322619Y-10597619D01*
X385322619Y-10535714D01*
X385384523Y-10411904D01*
X385446428Y-10350000D01*
X385570238Y-10288095D01*
X385817857Y-10288095D01*
X385941666Y-10350000D01*
X386003571Y-10411904D01*
X386065476Y-10535714D01*
X386065476Y-10597619D01*
X386003571Y-10721428D01*
X385941666Y-10783333D01*
X385817857Y-10845238D01*
X385570238Y-10845238D01*
X385446428Y-10907142D01*
X385384523Y-10969047D01*
X385322619Y-11092857D01*
X385322619Y-11340476D01*
X385384523Y-11464285D01*
X385446428Y-11526190D01*
X385570238Y-11588095D01*
X385817857Y-11588095D01*
X385941666Y-11526190D01*
X386003571Y-11464285D01*
X386065476Y-11340476D01*
X386065476Y-11092857D01*
X386003571Y-10969047D01*
X385941666Y-10907142D01*
X385817857Y-10845238D01*
D10*
D11*
X435446428Y-11588095D02*
X435694047Y-11588095D01*
X435817857Y-11526190D01*
X435879761Y-11464285D01*
X436003571Y-11278571D01*
X436065476Y-11030952D01*
X436065476Y-10535714D01*
X436003571Y-10411904D01*
X435941666Y-10350000D01*
X435817857Y-10288095D01*
X435570238Y-10288095D01*
X435446428Y-10350000D01*
X435384523Y-10411904D01*
X435322619Y-10535714D01*
X435322619Y-10845238D01*
X435384523Y-10969047D01*
X435446428Y-11030952D01*
X435570238Y-11092857D01*
X435817857Y-11092857D01*
X435941666Y-11030952D01*
X436003571Y-10969047D01*
X436065476Y-10845238D01*
D10*
D11*
X486065476Y-11588095D02*
X485322619Y-11588095D01*
X485694047Y-11588095D02*
X485694047Y-10288095D01*
X485570238Y-10473809D01*
X485446428Y-10597619D01*
X485322619Y-10659523D01*
X486870238Y-10288095D02*
X486994047Y-10288095D01*
X487117857Y-10350000D01*
X487179761Y-10411904D01*
X487241666Y-10535714D01*
X487303571Y-10783333D01*
X487303571Y-11092857D01*
X487241666Y-11340476D01*
X487179761Y-11464285D01*
X487117857Y-11526190D01*
X486994047Y-11588095D01*
X486870238Y-11588095D01*
X486746428Y-11526190D01*
X486684523Y-11464285D01*
X486622619Y-11340476D01*
X486560714Y-11092857D01*
X486560714Y-10783333D01*
X486622619Y-10535714D01*
X486684523Y-10411904D01*
X486746428Y-10350000D01*
X486870238Y-10288095D01*
D10*
D11*
X536065476Y-11588095D02*
X535322619Y-11588095D01*
X535694047Y-11588095D02*
X535694047Y-10288095D01*
X535570238Y-10473809D01*
X535446428Y-10597619D01*
X535322619Y-10659523D01*
X537303571Y-11588095D02*
X536560714Y-11588095D01*
X536932142Y-11588095D02*
X536932142Y-10288095D01*
X536808333Y-10473809D01*
X536684523Y-10597619D01*
X536560714Y-10659523D01*
D10*
D11*
X60000000Y-407989000D02*
X60000000Y-409989000D01*
D10*
D11*
X110000000Y-407989000D02*
X110000000Y-409989000D01*
D10*
D11*
X160000000Y-407989000D02*
X160000000Y-409989000D01*
D10*
D11*
X210000000Y-407989000D02*
X210000000Y-409989000D01*
D10*
D11*
X260000000Y-407989000D02*
X260000000Y-409989000D01*
D10*
D11*
X310000000Y-407989000D02*
X310000000Y-409989000D01*
D10*
D11*
X360000000Y-407989000D02*
X360000000Y-409989000D01*
D10*
D11*
X410000000Y-407989000D02*
X410000000Y-409989000D01*
D10*
D11*
X460000000Y-407989000D02*
X460000000Y-409989000D01*
D10*
D11*
X510000000Y-407989000D02*
X510000000Y-409989000D01*
D10*
D11*
X560000000Y-407989000D02*
X560000000Y-409989000D01*
D10*
D11*
X36065476Y-409577095D02*
X35322619Y-409577095D01*
X35694047Y-409577095D02*
X35694047Y-408277095D01*
X35570238Y-408462809D01*
X35446428Y-408586619D01*
X35322619Y-408648523D01*
D10*
D11*
X85322619Y-408400904D02*
X85384523Y-408339000D01*
X85508333Y-408277095D01*
X85817857Y-408277095D01*
X85941666Y-408339000D01*
X86003571Y-408400904D01*
X86065476Y-408524714D01*
X86065476Y-408648523D01*
X86003571Y-408834238D01*
X85260714Y-409577095D01*
X86065476Y-409577095D01*
D10*
D11*
X135260714Y-408277095D02*
X136065476Y-408277095D01*
X135632142Y-408772333D01*
X135817857Y-408772333D01*
X135941666Y-408834238D01*
X136003571Y-408896142D01*
X136065476Y-409019952D01*
X136065476Y-409329476D01*
X136003571Y-409453285D01*
X135941666Y-409515190D01*
X135817857Y-409577095D01*
X135446428Y-409577095D01*
X135322619Y-409515190D01*
X135260714Y-409453285D01*
D10*
D11*
X185941666Y-408710428D02*
X185941666Y-409577095D01*
X185632142Y-408215190D02*
X185322619Y-409143761D01*
X186127380Y-409143761D01*
D10*
D11*
X236003571Y-408277095D02*
X235384523Y-408277095D01*
X235322619Y-408896142D01*
X235384523Y-408834238D01*
X235508333Y-408772333D01*
X235817857Y-408772333D01*
X235941666Y-408834238D01*
X236003571Y-408896142D01*
X236065476Y-409019952D01*
X236065476Y-409329476D01*
X236003571Y-409453285D01*
X235941666Y-409515190D01*
X235817857Y-409577095D01*
X235508333Y-409577095D01*
X235384523Y-409515190D01*
X235322619Y-409453285D01*
D10*
D11*
X285941666Y-408277095D02*
X285694047Y-408277095D01*
X285570238Y-408339000D01*
X285508333Y-408400904D01*
X285384523Y-408586619D01*
X285322619Y-408834238D01*
X285322619Y-409329476D01*
X285384523Y-409453285D01*
X285446428Y-409515190D01*
X285570238Y-409577095D01*
X285817857Y-409577095D01*
X285941666Y-409515190D01*
X286003571Y-409453285D01*
X286065476Y-409329476D01*
X286065476Y-409019952D01*
X286003571Y-408896142D01*
X285941666Y-408834238D01*
X285817857Y-408772333D01*
X285570238Y-408772333D01*
X285446428Y-408834238D01*
X285384523Y-408896142D01*
X285322619Y-409019952D01*
D10*
D11*
X335260714Y-408277095D02*
X336127380Y-408277095D01*
X335570238Y-409577095D01*
D10*
D11*
X385570238Y-408834238D02*
X385446428Y-408772333D01*
X385384523Y-408710428D01*
X385322619Y-408586619D01*
X385322619Y-408524714D01*
X385384523Y-408400904D01*
X385446428Y-408339000D01*
X385570238Y-408277095D01*
X385817857Y-408277095D01*
X385941666Y-408339000D01*
X386003571Y-408400904D01*
X386065476Y-408524714D01*
X386065476Y-408586619D01*
X386003571Y-408710428D01*
X385941666Y-408772333D01*
X385817857Y-408834238D01*
X385570238Y-408834238D01*
X385446428Y-408896142D01*
X385384523Y-408958047D01*
X385322619Y-409081857D01*
X385322619Y-409329476D01*
X385384523Y-409453285D01*
X385446428Y-409515190D01*
X385570238Y-409577095D01*
X385817857Y-409577095D01*
X385941666Y-409515190D01*
X386003571Y-409453285D01*
X386065476Y-409329476D01*
X386065476Y-409081857D01*
X386003571Y-408958047D01*
X385941666Y-408896142D01*
X385817857Y-408834238D01*
D10*
D11*
X435446428Y-409577095D02*
X435694047Y-409577095D01*
X435817857Y-409515190D01*
X435879761Y-409453285D01*
X436003571Y-409267571D01*
X436065476Y-409019952D01*
X436065476Y-408524714D01*
X436003571Y-408400904D01*
X435941666Y-408339000D01*
X435817857Y-408277095D01*
X435570238Y-408277095D01*
X435446428Y-408339000D01*
X435384523Y-408400904D01*
X435322619Y-408524714D01*
X435322619Y-408834238D01*
X435384523Y-408958047D01*
X435446428Y-409019952D01*
X435570238Y-409081857D01*
X435817857Y-409081857D01*
X435941666Y-409019952D01*
X436003571Y-408958047D01*
X436065476Y-408834238D01*
D10*
D11*
X486065476Y-409577095D02*
X485322619Y-409577095D01*
X485694047Y-409577095D02*
X485694047Y-408277095D01*
X485570238Y-408462809D01*
X485446428Y-408586619D01*
X485322619Y-408648523D01*
X486870238Y-408277095D02*
X486994047Y-408277095D01*
X487117857Y-408339000D01*
X487179761Y-408400904D01*
X487241666Y-408524714D01*
X487303571Y-408772333D01*
X487303571Y-409081857D01*
X487241666Y-409329476D01*
X487179761Y-409453285D01*
X487117857Y-409515190D01*
X486994047Y-409577095D01*
X486870238Y-409577095D01*
X486746428Y-409515190D01*
X486684523Y-409453285D01*
X486622619Y-409329476D01*
X486560714Y-409081857D01*
X486560714Y-408772333D01*
X486622619Y-408524714D01*
X486684523Y-408400904D01*
X486746428Y-408339000D01*
X486870238Y-408277095D01*
D10*
D11*
X536065476Y-409577095D02*
X535322619Y-409577095D01*
X535694047Y-409577095D02*
X535694047Y-408277095D01*
X535570238Y-408462809D01*
X535446428Y-408586619D01*
X535322619Y-408648523D01*
X537303571Y-409577095D02*
X536560714Y-409577095D01*
X536932142Y-409577095D02*
X536932142Y-408277095D01*
X536808333Y-408462809D01*
X536684523Y-408586619D01*
X536560714Y-408648523D01*
D10*
D11*
X10000000Y-60000000D02*
X12000000Y-60000000D01*
D10*
D11*
X10000000Y-110000000D02*
X12000000Y-110000000D01*
D10*
D11*
X10000000Y-160000000D02*
X12000000Y-160000000D01*
D10*
D11*
X10000000Y-210000000D02*
X12000000Y-210000000D01*
D10*
D11*
X10000000Y-260000000D02*
X12000000Y-260000000D01*
D10*
D11*
X10000000Y-310000000D02*
X12000000Y-310000000D01*
D10*
D11*
X10000000Y-360000000D02*
X12000000Y-360000000D01*
D10*
D11*
X10690476Y-35216666D02*
X11309523Y-35216666D01*
X10566666Y-35588095D02*
X11000000Y-34288095D01*
X11433333Y-35588095D01*
D10*
D11*
X11092857Y-84907142D02*
X11278571Y-84969047D01*
X11340476Y-85030952D01*
X11402380Y-85154761D01*
X11402380Y-85340476D01*
X11340476Y-85464285D01*
X11278571Y-85526190D01*
X11154761Y-85588095D01*
X10659523Y-85588095D01*
X10659523Y-84288095D01*
X11092857Y-84288095D01*
X11216666Y-84350000D01*
X11278571Y-84411904D01*
X11340476Y-84535714D01*
X11340476Y-84659523D01*
X11278571Y-84783333D01*
X11216666Y-84845238D01*
X11092857Y-84907142D01*
X10659523Y-84907142D01*
D10*
D11*
X11402380Y-135464285D02*
X11340476Y-135526190D01*
X11154761Y-135588095D01*
X11030952Y-135588095D01*
X10845238Y-135526190D01*
X10721428Y-135402380D01*
X10659523Y-135278571D01*
X10597619Y-135030952D01*
X10597619Y-134845238D01*
X10659523Y-134597619D01*
X10721428Y-134473809D01*
X10845238Y-134350000D01*
X11030952Y-134288095D01*
X11154761Y-134288095D01*
X11340476Y-134350000D01*
X11402380Y-134411904D01*
D10*
D11*
X10659523Y-185588095D02*
X10659523Y-184288095D01*
X10969047Y-184288095D01*
X11154761Y-184350000D01*
X11278571Y-184473809D01*
X11340476Y-184597619D01*
X11402380Y-184845238D01*
X11402380Y-185030952D01*
X11340476Y-185278571D01*
X11278571Y-185402380D01*
X11154761Y-185526190D01*
X10969047Y-185588095D01*
X10659523Y-185588095D01*
D10*
D11*
X10721428Y-234907142D02*
X11154761Y-234907142D01*
X11340476Y-235588095D02*
X10721428Y-235588095D01*
X10721428Y-234288095D01*
X11340476Y-234288095D01*
D10*
D11*
X11185714Y-284907142D02*
X10752380Y-284907142D01*
X10752380Y-285588095D02*
X10752380Y-284288095D01*
X11371428Y-284288095D01*
D10*
D11*
X11340476Y-334350000D02*
X11216666Y-334288095D01*
X11030952Y-334288095D01*
X10845238Y-334350000D01*
X10721428Y-334473809D01*
X10659523Y-334597619D01*
X10597619Y-334845238D01*
X10597619Y-335030952D01*
X10659523Y-335278571D01*
X10721428Y-335402380D01*
X10845238Y-335526190D01*
X11030952Y-335588095D01*
X11154761Y-335588095D01*
X11340476Y-335526190D01*
X11402380Y-335464285D01*
X11402380Y-335030952D01*
X11154761Y-335030952D01*
D10*
D11*
X10628571Y-385588095D02*
X10628571Y-384288095D01*
X10628571Y-384907142D02*
X11371428Y-384907142D01*
X11371428Y-385588095D02*
X11371428Y-384288095D01*
D10*
D11*
X584004400Y-60000000D02*
X582004400Y-60000000D01*
D10*
D11*
X584004400Y-110000000D02*
X582004400Y-110000000D01*
D10*
D11*
X584004400Y-160000000D02*
X582004400Y-160000000D01*
D10*
D11*
X584004400Y-210000000D02*
X582004400Y-210000000D01*
D10*
D11*
X584004400Y-260000000D02*
X582004400Y-260000000D01*
D10*
D11*
X584004400Y-310000000D02*
X582004400Y-310000000D01*
D10*
D11*
X584004400Y-360000000D02*
X582004400Y-360000000D01*
D10*
D11*
X582694876Y-35216666D02*
X583313923Y-35216666D01*
X582571066Y-35588095D02*
X583004400Y-34288095D01*
X583437733Y-35588095D01*
D10*
D11*
X583097257Y-84907142D02*
X583282971Y-84969047D01*
X583344876Y-85030952D01*
X583406780Y-85154761D01*
X583406780Y-85340476D01*
X583344876Y-85464285D01*
X583282971Y-85526190D01*
X583159161Y-85588095D01*
X582663923Y-85588095D01*
X582663923Y-84288095D01*
X583097257Y-84288095D01*
X583221066Y-84350000D01*
X583282971Y-84411904D01*
X583344876Y-84535714D01*
X583344876Y-84659523D01*
X583282971Y-84783333D01*
X583221066Y-84845238D01*
X583097257Y-84907142D01*
X582663923Y-84907142D01*
D10*
D11*
X583406780Y-135464285D02*
X583344876Y-135526190D01*
X583159161Y-135588095D01*
X583035352Y-135588095D01*
X582849638Y-135526190D01*
X582725828Y-135402380D01*
X582663923Y-135278571D01*
X582602019Y-135030952D01*
X582602019Y-134845238D01*
X582663923Y-134597619D01*
X582725828Y-134473809D01*
X582849638Y-134350000D01*
X583035352Y-134288095D01*
X583159161Y-134288095D01*
X583344876Y-134350000D01*
X583406780Y-134411904D01*
D10*
D11*
X582663923Y-185588095D02*
X582663923Y-184288095D01*
X582973447Y-184288095D01*
X583159161Y-184350000D01*
X583282971Y-184473809D01*
X583344876Y-184597619D01*
X583406780Y-184845238D01*
X583406780Y-185030952D01*
X583344876Y-185278571D01*
X583282971Y-185402380D01*
X583159161Y-185526190D01*
X582973447Y-185588095D01*
X582663923Y-185588095D01*
D10*
D11*
X582725828Y-234907142D02*
X583159161Y-234907142D01*
X583344876Y-235588095D02*
X582725828Y-235588095D01*
X582725828Y-234288095D01*
X583344876Y-234288095D01*
D10*
D11*
X583190114Y-284907142D02*
X582756780Y-284907142D01*
X582756780Y-285588095D02*
X582756780Y-284288095D01*
X583375828Y-284288095D01*
D10*
D11*
X583344876Y-334350000D02*
X583221066Y-334288095D01*
X583035352Y-334288095D01*
X582849638Y-334350000D01*
X582725828Y-334473809D01*
X582663923Y-334597619D01*
X582602019Y-334845238D01*
X582602019Y-335030952D01*
X582663923Y-335278571D01*
X582725828Y-335402380D01*
X582849638Y-335526190D01*
X583035352Y-335588095D01*
X583159161Y-335588095D01*
X583344876Y-335526190D01*
X583406780Y-335464285D01*
X583406780Y-335030952D01*
X583159161Y-335030952D01*
D10*
D11*
X582632971Y-385588095D02*
X582632971Y-384288095D01*
X582632971Y-384907142D02*
X583375828Y-384907142D01*
X583375828Y-385588095D02*
X583375828Y-384288095D01*
D10*
D11*
X497436542Y-403767571D02*
X497436542Y-402267571D01*
X497793685Y-402267571D01*
X498007971Y-402339000D01*
X498150828Y-402481857D01*
X498222257Y-402624714D01*
X498293685Y-402910428D01*
X498293685Y-403124714D01*
X498222257Y-403410428D01*
X498150828Y-403553285D01*
X498007971Y-403696142D01*
X497793685Y-403767571D01*
X497436542Y-403767571D01*
X499579400Y-403767571D02*
X499579400Y-402981857D01*
X499507971Y-402839000D01*
X499365114Y-402767571D01*
X499079400Y-402767571D01*
X498936542Y-402839000D01*
X499579400Y-403696142D02*
X499436542Y-403767571D01*
X499079400Y-403767571D01*
X498936542Y-403696142D01*
X498865114Y-403553285D01*
X498865114Y-403410428D01*
X498936542Y-403267571D01*
X499079400Y-403196142D01*
X499436542Y-403196142D01*
X499579400Y-403124714D01*
X500079400Y-402767571D02*
X500650828Y-402767571D01*
X500293685Y-402267571D02*
X500293685Y-403553285D01*
X500365114Y-403696142D01*
X500507971Y-403767571D01*
X500650828Y-403767571D01*
X501722257Y-403696142D02*
X501579400Y-403767571D01*
X501293685Y-403767571D01*
X501150828Y-403696142D01*
X501079400Y-403553285D01*
X501079400Y-402981857D01*
X501150828Y-402839000D01*
X501293685Y-402767571D01*
X501579400Y-402767571D01*
X501722257Y-402839000D01*
X501793685Y-402981857D01*
X501793685Y-403124714D01*
X501079400Y-403267571D01*
X502436542Y-403624714D02*
X502507971Y-403696142D01*
X502436542Y-403767571D01*
X502365114Y-403696142D01*
X502436542Y-403624714D01*
X502436542Y-403767571D01*
X502436542Y-402839000D02*
X502507971Y-402910428D01*
X502436542Y-402981857D01*
X502365114Y-402910428D01*
X502436542Y-402839000D01*
X502436542Y-402981857D01*
D10*
D11*
X474004400Y-404489000D02*
X582004400Y-404489000D01*
D10*
D11*
X475436542Y-406567571D02*
X475436542Y-405067571D01*
X476293685Y-406567571D02*
X475650828Y-405710428D01*
X476293685Y-405067571D02*
X475436542Y-405924714D01*
X476936542Y-406567571D02*
X476936542Y-405567571D01*
X476936542Y-405067571D02*
X476865114Y-405139000D01*
X476936542Y-405210428D01*
X477007971Y-405139000D01*
X476936542Y-405067571D01*
X476936542Y-405210428D01*
X478507971Y-406424714D02*
X478436542Y-406496142D01*
X478222257Y-406567571D01*
X478079400Y-406567571D01*
X477865114Y-406496142D01*
X477722257Y-406353285D01*
X477650828Y-406210428D01*
X477579400Y-405924714D01*
X477579400Y-405710428D01*
X477650828Y-405424714D01*
X477722257Y-405281857D01*
X477865114Y-405139000D01*
X478079400Y-405067571D01*
X478222257Y-405067571D01*
X478436542Y-405139000D01*
X478507971Y-405210428D01*
X479793685Y-406567571D02*
X479793685Y-405781857D01*
X479722257Y-405639000D01*
X479579400Y-405567571D01*
X479293685Y-405567571D01*
X479150828Y-405639000D01*
X479793685Y-406496142D02*
X479650828Y-406567571D01*
X479293685Y-406567571D01*
X479150828Y-406496142D01*
X479079400Y-406353285D01*
X479079400Y-406210428D01*
X479150828Y-406067571D01*
X479293685Y-405996142D01*
X479650828Y-405996142D01*
X479793685Y-405924714D01*
X481150828Y-406567571D02*
X481150828Y-405067571D01*
X481150828Y-406496142D02*
X481007971Y-406567571D01*
X480722257Y-406567571D01*
X480579400Y-406496142D01*
X480507971Y-406424714D01*
X480436542Y-406281857D01*
X480436542Y-405853285D01*
X480507971Y-405710428D01*
X480579400Y-405639000D01*
X480722257Y-405567571D01*
X481007971Y-405567571D01*
X481150828Y-405639000D01*
X483007971Y-405781857D02*
X483507971Y-405781857D01*
X483722257Y-406567571D02*
X483007971Y-406567571D01*
X483007971Y-405067571D01*
X483722257Y-405067571D01*
X484365114Y-406424714D02*
X484436542Y-406496142D01*
X484365114Y-406567571D01*
X484293685Y-406496142D01*
X484365114Y-406424714D01*
X484365114Y-406567571D01*
X485079400Y-406567571D02*
X485079400Y-405067571D01*
X485436542Y-405067571D01*
X485650828Y-405139000D01*
X485793685Y-405281857D01*
X485865114Y-405424714D01*
X485936542Y-405710428D01*
X485936542Y-405924714D01*
X485865114Y-406210428D01*
X485793685Y-406353285D01*
X485650828Y-406496142D01*
X485436542Y-406567571D01*
X485079400Y-406567571D01*
X486579400Y-406424714D02*
X486650828Y-406496142D01*
X486579400Y-406567571D01*
X486507971Y-406496142D01*
X486579400Y-406424714D01*
X486579400Y-406567571D01*
X487222257Y-406139000D02*
X487936542Y-406139000D01*
X487079400Y-406567571D02*
X487579400Y-405067571D01*
X488079400Y-406567571D01*
X488579400Y-406424714D02*
X488650828Y-406496142D01*
X488579400Y-406567571D01*
X488507971Y-406496142D01*
X488579400Y-406424714D01*
X488579400Y-406567571D01*
X491579400Y-406567571D02*
X491579400Y-405067571D01*
X491722257Y-405996142D02*
X492150828Y-406567571D01*
X492150828Y-405567571D02*
X491579400Y-406139000D01*
X492793685Y-406567571D02*
X492793685Y-405567571D01*
X492793685Y-405067571D02*
X492722257Y-405139000D01*
X492793685Y-405210428D01*
X492865114Y-405139000D01*
X492793685Y-405067571D01*
X492793685Y-405210428D01*
X494150828Y-406496142D02*
X494007971Y-406567571D01*
X493722257Y-406567571D01*
X493579400Y-406496142D01*
X493507971Y-406424714D01*
X493436542Y-406281857D01*
X493436542Y-405853285D01*
X493507971Y-405710428D01*
X493579400Y-405639000D01*
X493722257Y-405567571D01*
X494007971Y-405567571D01*
X494150828Y-405639000D01*
X495436542Y-406567571D02*
X495436542Y-405781857D01*
X495365114Y-405639000D01*
X495222257Y-405567571D01*
X494936542Y-405567571D01*
X494793685Y-405639000D01*
X495436542Y-406496142D02*
X495293685Y-406567571D01*
X494936542Y-406567571D01*
X494793685Y-406496142D01*
X494722257Y-406353285D01*
X494722257Y-406210428D01*
X494793685Y-406067571D01*
X494936542Y-405996142D01*
X495293685Y-405996142D01*
X495436542Y-405924714D01*
X496793685Y-406567571D02*
X496793685Y-405067571D01*
X496793685Y-406496142D02*
X496650828Y-406567571D01*
X496365114Y-406567571D01*
X496222257Y-406496142D01*
X496150828Y-406424714D01*
X496079400Y-406281857D01*
X496079400Y-405853285D01*
X496150828Y-405710428D01*
X496222257Y-405639000D01*
X496365114Y-405567571D01*
X496650828Y-405567571D01*
X496793685Y-405639000D01*
X499079400Y-407139000D02*
X499007971Y-407067571D01*
X498865114Y-406853285D01*
X498793685Y-406710428D01*
X498722257Y-406496142D01*
X498650828Y-406139000D01*
X498650828Y-405853285D01*
X498722257Y-405496142D01*
X498793685Y-405281857D01*
X498865114Y-405139000D01*
X499007971Y-404924714D01*
X499079400Y-404853285D01*
X500365114Y-405067571D02*
X499650828Y-405067571D01*
X499579400Y-405781857D01*
X499650828Y-405710428D01*
X499793685Y-405639000D01*
X500150828Y-405639000D01*
X500293685Y-405710428D01*
X500365114Y-405781857D01*
X500436542Y-405924714D01*
X500436542Y-406281857D01*
X500365114Y-406424714D01*
X500293685Y-406496142D01*
X500150828Y-406567571D01*
X499793685Y-406567571D01*
X499650828Y-406496142D01*
X499579400Y-406424714D01*
X501079400Y-406424714D02*
X501150828Y-406496142D01*
X501079400Y-406567571D01*
X501007971Y-406496142D01*
X501079400Y-406424714D01*
X501079400Y-406567571D01*
X501865114Y-406567571D02*
X502150828Y-406567571D01*
X502293685Y-406496142D01*
X502365114Y-406424714D01*
X502507971Y-406210428D01*
X502579400Y-405924714D01*
X502579400Y-405353285D01*
X502507971Y-405210428D01*
X502436542Y-405139000D01*
X502293685Y-405067571D01*
X502007971Y-405067571D01*
X501865114Y-405139000D01*
X501793685Y-405210428D01*
X501722257Y-405353285D01*
X501722257Y-405710428D01*
X501793685Y-405853285D01*
X501865114Y-405924714D01*
X502007971Y-405996142D01*
X502293685Y-405996142D01*
X502436542Y-405924714D01*
X502507971Y-405853285D01*
X502579400Y-405710428D01*
X503293685Y-406567571D02*
X503579400Y-406567571D01*
X503722257Y-406496142D01*
X503793685Y-406424714D01*
X503936542Y-406210428D01*
X504007971Y-405924714D01*
X504007971Y-405353285D01*
X503936542Y-405210428D01*
X503865114Y-405139000D01*
X503722257Y-405067571D01*
X503436542Y-405067571D01*
X503293685Y-405139000D01*
X503222257Y-405210428D01*
X503150828Y-405353285D01*
X503150828Y-405710428D01*
X503222257Y-405853285D01*
X503293685Y-405924714D01*
X503436542Y-405996142D01*
X503722257Y-405996142D01*
X503865114Y-405924714D01*
X503936542Y-405853285D01*
X504007971Y-405710428D01*
X504650828Y-406424714D02*
X504722257Y-406496142D01*
X504650828Y-406567571D01*
X504579400Y-406496142D01*
X504650828Y-406424714D01*
X504650828Y-406567571D01*
X505650828Y-405067571D02*
X505793685Y-405067571D01*
X505936542Y-405139000D01*
X506007971Y-405210428D01*
X506079400Y-405353285D01*
X506150828Y-405639000D01*
X506150828Y-405996142D01*
X506079400Y-406281857D01*
X506007971Y-406424714D01*
X505936542Y-406496142D01*
X505793685Y-406567571D01*
X505650828Y-406567571D01*
X505507971Y-406496142D01*
X505436542Y-406424714D01*
X505365114Y-406281857D01*
X505293685Y-405996142D01*
X505293685Y-405639000D01*
X505365114Y-405353285D01*
X505436542Y-405210428D01*
X505507971Y-405139000D01*
X505650828Y-405067571D01*
X506793685Y-405996142D02*
X507936542Y-405996142D01*
X509436542Y-406567571D02*
X508579400Y-406567571D01*
X509007971Y-406567571D02*
X509007971Y-405067571D01*
X508865114Y-405281857D01*
X508722257Y-405424714D01*
X508579400Y-405496142D01*
X510365114Y-405067571D02*
X510507971Y-405067571D01*
X510650828Y-405139000D01*
X510722257Y-405210428D01*
X510793685Y-405353285D01*
X510865114Y-405639000D01*
X510865114Y-405996142D01*
X510793685Y-406281857D01*
X510722257Y-406424714D01*
X510650828Y-406496142D01*
X510507971Y-406567571D01*
X510365114Y-406567571D01*
X510222257Y-406496142D01*
X510150828Y-406424714D01*
X510079400Y-406281857D01*
X510007971Y-405996142D01*
X510007971Y-405639000D01*
X510079400Y-405353285D01*
X510150828Y-405210428D01*
X510222257Y-405139000D01*
X510365114Y-405067571D01*
X512150828Y-405567571D02*
X512150828Y-406567571D01*
X511793685Y-404996142D02*
X511436542Y-406067571D01*
X512365114Y-406067571D01*
X512865114Y-405210428D02*
X512936542Y-405139000D01*
X513079400Y-405067571D01*
X513436542Y-405067571D01*
X513579400Y-405139000D01*
X513650828Y-405210428D01*
X513722257Y-405353285D01*
X513722257Y-405496142D01*
X513650828Y-405710428D01*
X512793685Y-406567571D01*
X513722257Y-406567571D01*
X514579400Y-405710428D02*
X514436542Y-405639000D01*
X514365114Y-405567571D01*
X514293685Y-405424714D01*
X514293685Y-405353285D01*
X514365114Y-405210428D01*
X514436542Y-405139000D01*
X514579400Y-405067571D01*
X514865114Y-405067571D01*
X515007971Y-405139000D01*
X515079400Y-405210428D01*
X515150828Y-405353285D01*
X515150828Y-405424714D01*
X515079400Y-405567571D01*
X515007971Y-405639000D01*
X514865114Y-405710428D01*
X514579400Y-405710428D01*
X514436542Y-405781857D01*
X514365114Y-405853285D01*
X514293685Y-405996142D01*
X514293685Y-406281857D01*
X514365114Y-406424714D01*
X514436542Y-406496142D01*
X514579400Y-406567571D01*
X514865114Y-406567571D01*
X515007971Y-406496142D01*
X515079400Y-406424714D01*
X515150828Y-406281857D01*
X515150828Y-405996142D01*
X515079400Y-405853285D01*
X515007971Y-405781857D01*
X514865114Y-405710428D01*
X515793685Y-405996142D02*
X516936542Y-405996142D01*
X518293685Y-405567571D02*
X518293685Y-406781857D01*
X518222257Y-406924714D01*
X518150828Y-406996142D01*
X518007971Y-407067571D01*
X517793685Y-407067571D01*
X517650828Y-406996142D01*
X518293685Y-406496142D02*
X518150828Y-406567571D01*
X517865114Y-406567571D01*
X517722257Y-406496142D01*
X517650828Y-406424714D01*
X517579400Y-406281857D01*
X517579400Y-405853285D01*
X517650828Y-405710428D01*
X517722257Y-405639000D01*
X517865114Y-405567571D01*
X518150828Y-405567571D01*
X518293685Y-405639000D01*
X519722257Y-405067571D02*
X519007971Y-405067571D01*
X518936542Y-405781857D01*
X519007971Y-405710428D01*
X519150828Y-405639000D01*
X519507971Y-405639000D01*
X519650828Y-405710428D01*
X519722257Y-405781857D01*
X519793685Y-405924714D01*
X519793685Y-406281857D01*
X519722257Y-406424714D01*
X519650828Y-406496142D01*
X519507971Y-406567571D01*
X519150828Y-406567571D01*
X519007971Y-406496142D01*
X518936542Y-406424714D01*
X520722257Y-405067571D02*
X520865114Y-405067571D01*
X521007971Y-405139000D01*
X521079400Y-405210428D01*
X521150828Y-405353285D01*
X521222257Y-405639000D01*
X521222257Y-405996142D01*
X521150828Y-406281857D01*
X521079400Y-406424714D01*
X521007971Y-406496142D01*
X520865114Y-406567571D01*
X520722257Y-406567571D01*
X520579400Y-406496142D01*
X520507971Y-406424714D01*
X520436542Y-406281857D01*
X520365114Y-405996142D01*
X520365114Y-405639000D01*
X520436542Y-405353285D01*
X520507971Y-405210428D01*
X520579400Y-405139000D01*
X520722257Y-405067571D01*
X521650828Y-405567571D02*
X522222257Y-405567571D01*
X521865114Y-406567571D02*
X521865114Y-405281857D01*
X521936542Y-405139000D01*
X522079400Y-405067571D01*
X522222257Y-405067571D01*
X523365114Y-406567571D02*
X523365114Y-405067571D01*
X523365114Y-406496142D02*
X523222257Y-406567571D01*
X522936542Y-406567571D01*
X522793685Y-406496142D01*
X522722257Y-406424714D01*
X522650828Y-406281857D01*
X522650828Y-405853285D01*
X522722257Y-405710428D01*
X522793685Y-405639000D01*
X522936542Y-405567571D01*
X523222257Y-405567571D01*
X523365114Y-405639000D01*
X524150828Y-406567571D02*
X524436542Y-406567571D01*
X524579400Y-406496142D01*
X524650828Y-406424714D01*
X524793685Y-406210428D01*
X524865114Y-405924714D01*
X524865114Y-405353285D01*
X524793685Y-405210428D01*
X524722257Y-405139000D01*
X524579400Y-405067571D01*
X524293685Y-405067571D01*
X524150828Y-405139000D01*
X524079400Y-405210428D01*
X524007971Y-405353285D01*
X524007971Y-405710428D01*
X524079400Y-405853285D01*
X524150828Y-405924714D01*
X524293685Y-405996142D01*
X524579400Y-405996142D01*
X524722257Y-405924714D01*
X524793685Y-405853285D01*
X524865114Y-405710428D01*
X526150828Y-405567571D02*
X526150828Y-406567571D01*
X525793685Y-404996142D02*
X525436542Y-406067571D01*
X526365114Y-406067571D01*
X527579400Y-406567571D02*
X527579400Y-405067571D01*
X527579400Y-406496142D02*
X527436542Y-406567571D01*
X527150828Y-406567571D01*
X527007971Y-406496142D01*
X526936542Y-406424714D01*
X526865114Y-406281857D01*
X526865114Y-405853285D01*
X526936542Y-405710428D01*
X527007971Y-405639000D01*
X527150828Y-405567571D01*
X527436542Y-405567571D01*
X527579400Y-405639000D01*
X528150828Y-405067571D02*
X529079400Y-405067571D01*
X528579400Y-405639000D01*
X528793685Y-405639000D01*
X528936542Y-405710428D01*
X529007971Y-405781857D01*
X529079400Y-405924714D01*
X529079400Y-406281857D01*
X529007971Y-406424714D01*
X528936542Y-406496142D01*
X528793685Y-406567571D01*
X528365114Y-406567571D01*
X528222257Y-406496142D01*
X528150828Y-406424714D01*
X530436542Y-405067571D02*
X529722257Y-405067571D01*
X529650828Y-405781857D01*
X529722257Y-405710428D01*
X529865114Y-405639000D01*
X530222257Y-405639000D01*
X530365114Y-405710428D01*
X530436542Y-405781857D01*
X530507971Y-405924714D01*
X530507971Y-406281857D01*
X530436542Y-406424714D01*
X530365114Y-406496142D01*
X530222257Y-406567571D01*
X529865114Y-406567571D01*
X529722257Y-406496142D01*
X529650828Y-406424714D01*
X531793685Y-406567571D02*
X531793685Y-405067571D01*
X531793685Y-406496142D02*
X531650828Y-406567571D01*
X531365114Y-406567571D01*
X531222257Y-406496142D01*
X531150828Y-406424714D01*
X531079400Y-406281857D01*
X531079400Y-405853285D01*
X531150828Y-405710428D01*
X531222257Y-405639000D01*
X531365114Y-405567571D01*
X531650828Y-405567571D01*
X531793685Y-405639000D01*
X532365114Y-407139000D02*
X532436542Y-407067571D01*
X532579400Y-406853285D01*
X532650828Y-406710428D01*
X532722257Y-406496142D01*
X532793685Y-406139000D01*
X532793685Y-405853285D01*
X532722257Y-405496142D01*
X532650828Y-405281857D01*
X532579400Y-405139000D01*
X532436542Y-404924714D01*
X532365114Y-404853285D01*
D10*
D11*
X474004400Y-401489000D02*
X582004400Y-401489000D01*
D10*
D12*
X561413685Y-403767571D02*
X560913685Y-403053285D01*
X560556542Y-403767571D02*
X560556542Y-402267571D01*
X561127971Y-402267571D01*
X561270828Y-402339000D01*
X561342257Y-402410428D01*
X561413685Y-402553285D01*
X561413685Y-402767571D01*
X561342257Y-402910428D01*
X561270828Y-402981857D01*
X561127971Y-403053285D01*
X560556542Y-403053285D01*
X562627971Y-403696142D02*
X562485114Y-403767571D01*
X562199400Y-403767571D01*
X562056542Y-403696142D01*
X561985114Y-403553285D01*
X561985114Y-402981857D01*
X562056542Y-402839000D01*
X562199400Y-402767571D01*
X562485114Y-402767571D01*
X562627971Y-402839000D01*
X562699400Y-402981857D01*
X562699400Y-403124714D01*
X561985114Y-403267571D01*
X563199400Y-402767571D02*
X563556542Y-403767571D01*
X563913685Y-402767571D01*
X564485114Y-403624714D02*
X564556542Y-403696142D01*
X564485114Y-403767571D01*
X564413685Y-403696142D01*
X564485114Y-403624714D01*
X564485114Y-403767571D01*
X564485114Y-402839000D02*
X564556542Y-402910428D01*
X564485114Y-402981857D01*
X564413685Y-402910428D01*
X564485114Y-402839000D01*
X564485114Y-402981857D01*
D10*
D11*
X475365114Y-403696142D02*
X475579400Y-403767571D01*
X475936542Y-403767571D01*
X476079400Y-403696142D01*
X476150828Y-403624714D01*
X476222257Y-403481857D01*
X476222257Y-403339000D01*
X476150828Y-403196142D01*
X476079400Y-403124714D01*
X475936542Y-403053285D01*
X475650828Y-402981857D01*
X475507971Y-402910428D01*
X475436542Y-402839000D01*
X475365114Y-402696142D01*
X475365114Y-402553285D01*
X475436542Y-402410428D01*
X475507971Y-402339000D01*
X475650828Y-402267571D01*
X476007971Y-402267571D01*
X476222257Y-402339000D01*
X476865114Y-403767571D02*
X476865114Y-402767571D01*
X476865114Y-402267571D02*
X476793685Y-402339000D01*
X476865114Y-402410428D01*
X476936542Y-402339000D01*
X476865114Y-402267571D01*
X476865114Y-402410428D01*
X477436542Y-402767571D02*
X478222257Y-402767571D01*
X477436542Y-403767571D01*
X478222257Y-403767571D01*
X479365114Y-403696142D02*
X479222257Y-403767571D01*
X478936542Y-403767571D01*
X478793685Y-403696142D01*
X478722257Y-403553285D01*
X478722257Y-402981857D01*
X478793685Y-402839000D01*
X478936542Y-402767571D01*
X479222257Y-402767571D01*
X479365114Y-402839000D01*
X479436542Y-402981857D01*
X479436542Y-403124714D01*
X478722257Y-403267571D01*
X480079400Y-403624714D02*
X480150828Y-403696142D01*
X480079400Y-403767571D01*
X480007971Y-403696142D01*
X480079400Y-403624714D01*
X480079400Y-403767571D01*
X480079400Y-402839000D02*
X480150828Y-402910428D01*
X480079400Y-402981857D01*
X480007971Y-402910428D01*
X480079400Y-402839000D01*
X480079400Y-402981857D01*
X481865114Y-403339000D02*
X482579400Y-403339000D01*
X481722257Y-403767571D02*
X482222257Y-402267571D01*
X482722257Y-403767571D01*
X483150828Y-402410428D02*
X483222257Y-402339000D01*
X483365114Y-402267571D01*
X483722257Y-402267571D01*
X483865114Y-402339000D01*
X483936542Y-402410428D01*
X484007971Y-402553285D01*
X484007971Y-402696142D01*
X483936542Y-402910428D01*
X483079400Y-403767571D01*
X484007971Y-403767571D01*
D10*
D11*
X560436542Y-406567571D02*
X560436542Y-405067571D01*
X561793685Y-406567571D02*
X561793685Y-405067571D01*
X561793685Y-406496142D02*
X561650828Y-406567571D01*
X561365114Y-406567571D01*
X561222257Y-406496142D01*
X561150828Y-406424714D01*
X561079400Y-406281857D01*
X561079400Y-405853285D01*
X561150828Y-405710428D01*
X561222257Y-405639000D01*
X561365114Y-405567571D01*
X561650828Y-405567571D01*
X561793685Y-405639000D01*
X562507971Y-406424714D02*
X562579400Y-406496142D01*
X562507971Y-406567571D01*
X562436542Y-406496142D01*
X562507971Y-406424714D01*
X562507971Y-406567571D01*
X562507971Y-405639000D02*
X562579400Y-405710428D01*
X562507971Y-405781857D01*
X562436542Y-405710428D01*
X562507971Y-405639000D01*
X562507971Y-405781857D01*
X565150828Y-406567571D02*
X564293685Y-406567571D01*
X564722257Y-406567571D02*
X564722257Y-405067571D01*
X564579400Y-405281857D01*
X564436542Y-405424714D01*
X564293685Y-405496142D01*
X566865114Y-404996142D02*
X565579400Y-406924714D01*
X568150828Y-406567571D02*
X567293685Y-406567571D01*
X567722257Y-406567571D02*
X567722257Y-405067571D01*
X567579400Y-405281857D01*
X567436542Y-405424714D01*
X567293685Y-405496142D01*
D10*
D11*
X474004400Y-397489000D02*
X582004400Y-397489000D01*
D10*
D13*
X475716780Y-398193761D02*
X476859638Y-398193761D01*
X476038209Y-400193761D02*
X476288209Y-398193761D01*
X477276304Y-400193761D02*
X477442971Y-398860428D01*
X477526304Y-398193761D02*
X477419161Y-398289000D01*
X477502495Y-398384238D01*
X477609638Y-398289000D01*
X477526304Y-398193761D01*
X477502495Y-398384238D01*
X478109638Y-398860428D02*
X478871542Y-398860428D01*
X478478685Y-398193761D02*
X478264400Y-399908047D01*
X478335828Y-400098523D01*
X478514400Y-400193761D01*
X478704876Y-400193761D01*
X479657257Y-400193761D02*
X479478685Y-400098523D01*
X479407257Y-399908047D01*
X479621542Y-398193761D01*
X481192971Y-400098523D02*
X480990590Y-400193761D01*
X480609638Y-400193761D01*
X480431066Y-400098523D01*
X480359638Y-399908047D01*
X480454876Y-399146142D01*
X480573923Y-398955666D01*
X480776304Y-398860428D01*
X481157257Y-398860428D01*
X481335828Y-398955666D01*
X481407257Y-399146142D01*
X481383447Y-399336619D01*
X480407257Y-399527095D01*
X482157257Y-400003285D02*
X482240590Y-400098523D01*
X482133447Y-400193761D01*
X482050114Y-400098523D01*
X482157257Y-400003285D01*
X482133447Y-400193761D01*
X482288209Y-398955666D02*
X482371542Y-399050904D01*
X482264400Y-399146142D01*
X482181066Y-399050904D01*
X482288209Y-398955666D01*
X482264400Y-399146142D01*
D10*
D11*
X475936542Y-395581857D02*
X475436542Y-395581857D01*
X475436542Y-396367571D02*
X475436542Y-394867571D01*
X476150828Y-394867571D01*
X476722257Y-396367571D02*
X476722257Y-395367571D01*
X476722257Y-394867571D02*
X476650828Y-394939000D01*
X476722257Y-395010428D01*
X476793685Y-394939000D01*
X476722257Y-394867571D01*
X476722257Y-395010428D01*
X477650828Y-396367571D02*
X477507971Y-396296142D01*
X477436542Y-396153285D01*
X477436542Y-394867571D01*
X478793685Y-396296142D02*
X478650828Y-396367571D01*
X478365114Y-396367571D01*
X478222257Y-396296142D01*
X478150828Y-396153285D01*
X478150828Y-395581857D01*
X478222257Y-395439000D01*
X478365114Y-395367571D01*
X478650828Y-395367571D01*
X478793685Y-395439000D01*
X478865114Y-395581857D01*
X478865114Y-395724714D01*
X478150828Y-395867571D01*
X479507971Y-396224714D02*
X479579400Y-396296142D01*
X479507971Y-396367571D01*
X479436542Y-396296142D01*
X479507971Y-396224714D01*
X479507971Y-396367571D01*
X479507971Y-395439000D02*
X479579400Y-395510428D01*
X479507971Y-395581857D01*
X479436542Y-395510428D01*
X479507971Y-395439000D01*
X479507971Y-395581857D01*
X481365114Y-396367571D02*
X481365114Y-394867571D01*
X481865114Y-395939000D01*
X482365114Y-394867571D01*
X482365114Y-396367571D01*
X483079400Y-396367571D02*
X483079400Y-395367571D01*
X483079400Y-394867571D02*
X483007971Y-394939000D01*
X483079400Y-395010428D01*
X483150828Y-394939000D01*
X483079400Y-394867571D01*
X483079400Y-395010428D01*
X483650828Y-396367571D02*
X484436542Y-395367571D01*
X483650828Y-395367571D02*
X484436542Y-396367571D01*
X485650828Y-396367571D02*
X485650828Y-394867571D01*
X485650828Y-396296142D02*
X485507971Y-396367571D01*
X485222257Y-396367571D01*
X485079400Y-396296142D01*
X485007971Y-396224714D01*
X484936542Y-396081857D01*
X484936542Y-395653285D01*
X485007971Y-395510428D01*
X485079400Y-395439000D01*
X485222257Y-395367571D01*
X485507971Y-395367571D01*
X485650828Y-395439000D01*
X487007971Y-395367571D02*
X487007971Y-396367571D01*
X486365114Y-395367571D02*
X486365114Y-396153285D01*
X486436542Y-396296142D01*
X486579400Y-396367571D01*
X486793685Y-396367571D01*
X486936542Y-396296142D01*
X487007971Y-396224714D01*
X487722257Y-396367571D02*
X487722257Y-395367571D01*
X487722257Y-394867571D02*
X487650828Y-394939000D01*
X487722257Y-395010428D01*
X487793685Y-394939000D01*
X487722257Y-394867571D01*
X487722257Y-395010428D01*
X488436542Y-395367571D02*
X488436542Y-396367571D01*
X488436542Y-395510428D02*
X488507971Y-395439000D01*
X488650828Y-395367571D01*
X488865114Y-395367571D01*
X489007971Y-395439000D01*
X489079400Y-395581857D01*
X489079400Y-396367571D01*
X490007971Y-396367571D02*
X489865114Y-396296142D01*
X489793685Y-396224714D01*
X489722257Y-396081857D01*
X489722257Y-395653285D01*
X489793685Y-395510428D01*
X489865114Y-395439000D01*
X490007971Y-395367571D01*
X490222257Y-395367571D01*
X490365114Y-395439000D01*
X490436542Y-395510428D01*
X490507971Y-395653285D01*
X490507971Y-396081857D01*
X490436542Y-396224714D01*
X490365114Y-396296142D01*
X490222257Y-396367571D01*
X490007971Y-396367571D01*
X491150828Y-396224714D02*
X491222257Y-396296142D01*
X491150828Y-396367571D01*
X491079400Y-396296142D01*
X491150828Y-396224714D01*
X491150828Y-396367571D01*
X491865114Y-396367571D02*
X491865114Y-394867571D01*
X492007971Y-395796142D02*
X492436542Y-396367571D01*
X492436542Y-395367571D02*
X491865114Y-395939000D01*
X493079400Y-396367571D02*
X493079400Y-395367571D01*
X493079400Y-394867571D02*
X493007971Y-394939000D01*
X493079400Y-395010428D01*
X493150828Y-394939000D01*
X493079400Y-394867571D01*
X493079400Y-395010428D01*
X494436542Y-396296142D02*
X494293685Y-396367571D01*
X494007971Y-396367571D01*
X493865114Y-396296142D01*
X493793685Y-396224714D01*
X493722257Y-396081857D01*
X493722257Y-395653285D01*
X493793685Y-395510428D01*
X493865114Y-395439000D01*
X494007971Y-395367571D01*
X494293685Y-395367571D01*
X494436542Y-395439000D01*
X495722257Y-396367571D02*
X495722257Y-395581857D01*
X495650828Y-395439000D01*
X495507971Y-395367571D01*
X495222257Y-395367571D01*
X495079400Y-395439000D01*
X495722257Y-396296142D02*
X495579400Y-396367571D01*
X495222257Y-396367571D01*
X495079400Y-396296142D01*
X495007971Y-396153285D01*
X495007971Y-396010428D01*
X495079400Y-395867571D01*
X495222257Y-395796142D01*
X495579400Y-395796142D01*
X495722257Y-395724714D01*
X497079400Y-396367571D02*
X497079400Y-394867571D01*
X497079400Y-396296142D02*
X496936542Y-396367571D01*
X496650828Y-396367571D01*
X496507971Y-396296142D01*
X496436542Y-396224714D01*
X496365114Y-396081857D01*
X496365114Y-395653285D01*
X496436542Y-395510428D01*
X496507971Y-395439000D01*
X496650828Y-395367571D01*
X496936542Y-395367571D01*
X497079400Y-395439000D01*
X497436542Y-396510428D02*
X498579400Y-396510428D01*
X498936542Y-395367571D02*
X498936542Y-396867571D01*
X498936542Y-395439000D02*
X499079400Y-395367571D01*
X499365114Y-395367571D01*
X499507971Y-395439000D01*
X499579400Y-395510428D01*
X499650828Y-395653285D01*
X499650828Y-396081857D01*
X499579400Y-396224714D01*
X499507971Y-396296142D01*
X499365114Y-396367571D01*
X499079400Y-396367571D01*
X498936542Y-396296142D01*
X500936542Y-396296142D02*
X500793685Y-396367571D01*
X500507971Y-396367571D01*
X500365114Y-396296142D01*
X500293685Y-396224714D01*
X500222257Y-396081857D01*
X500222257Y-395653285D01*
X500293685Y-395510428D01*
X500365114Y-395439000D01*
X500507971Y-395367571D01*
X500793685Y-395367571D01*
X500936542Y-395439000D01*
X501579400Y-396367571D02*
X501579400Y-394867571D01*
X501579400Y-395439000D02*
X501722257Y-395367571D01*
X502007971Y-395367571D01*
X502150828Y-395439000D01*
X502222257Y-395510428D01*
X502293685Y-395653285D01*
X502293685Y-396081857D01*
X502222257Y-396224714D01*
X502150828Y-396296142D01*
X502007971Y-396367571D01*
X501722257Y-396367571D01*
X501579400Y-396296142D01*
D10*
D11*
X474004400Y-391489000D02*
X582004400Y-391489000D01*
D10*
D11*
X475365114Y-393596142D02*
X475579400Y-393667571D01*
X475936542Y-393667571D01*
X476079400Y-393596142D01*
X476150828Y-393524714D01*
X476222257Y-393381857D01*
X476222257Y-393239000D01*
X476150828Y-393096142D01*
X476079400Y-393024714D01*
X475936542Y-392953285D01*
X475650828Y-392881857D01*
X475507971Y-392810428D01*
X475436542Y-392739000D01*
X475365114Y-392596142D01*
X475365114Y-392453285D01*
X475436542Y-392310428D01*
X475507971Y-392239000D01*
X475650828Y-392167571D01*
X476007971Y-392167571D01*
X476222257Y-392239000D01*
X476865114Y-393667571D02*
X476865114Y-392167571D01*
X477507971Y-393667571D02*
X477507971Y-392881857D01*
X477436542Y-392739000D01*
X477293685Y-392667571D01*
X477079400Y-392667571D01*
X476936542Y-392739000D01*
X476865114Y-392810428D01*
X478793685Y-393596142D02*
X478650828Y-393667571D01*
X478365114Y-393667571D01*
X478222257Y-393596142D01*
X478150828Y-393453285D01*
X478150828Y-392881857D01*
X478222257Y-392739000D01*
X478365114Y-392667571D01*
X478650828Y-392667571D01*
X478793685Y-392739000D01*
X478865114Y-392881857D01*
X478865114Y-393024714D01*
X478150828Y-393167571D01*
X480079400Y-393596142D02*
X479936542Y-393667571D01*
X479650828Y-393667571D01*
X479507971Y-393596142D01*
X479436542Y-393453285D01*
X479436542Y-392881857D01*
X479507971Y-392739000D01*
X479650828Y-392667571D01*
X479936542Y-392667571D01*
X480079400Y-392739000D01*
X480150828Y-392881857D01*
X480150828Y-393024714D01*
X479436542Y-393167571D01*
X480579400Y-392667571D02*
X481150828Y-392667571D01*
X480793685Y-392167571D02*
X480793685Y-393453285D01*
X480865114Y-393596142D01*
X481007971Y-393667571D01*
X481150828Y-393667571D01*
X481650828Y-393524714D02*
X481722257Y-393596142D01*
X481650828Y-393667571D01*
X481579400Y-393596142D01*
X481650828Y-393524714D01*
X481650828Y-393667571D01*
X481650828Y-392739000D02*
X481722257Y-392810428D01*
X481650828Y-392881857D01*
X481579400Y-392810428D01*
X481650828Y-392739000D01*
X481650828Y-392881857D01*
D10*
D12*
D10*
D11*
D10*
D11*
D10*
D11*
D10*
D11*
D10*
D11*
X494004400Y-401489000D02*
X494004400Y-404489000D01*
D10*
D11*
X558004400Y-401489000D02*
X558004400Y-407989000D01*
D14*
%TO.C,SW22*%
X142930000Y-187030000D02*
G75*
G03*
X142930000Y-187030000I-5939697J0D01*
G01*
%TO.C,SW1*%
X142920000Y-162030000D02*
G75*
G03*
X142920000Y-162030000I-5939697J0D01*
G01*
%TO.C,SW6*%
X167905000Y-162054900D02*
G75*
G03*
X167905000Y-162054900I-5939697J0D01*
G01*
%TO.C,SW38*%
X217925000Y-187044900D02*
G75*
G03*
X217925000Y-187044900I-5939697J0D01*
G01*
%TO.C,SW17*%
X217925000Y-162024900D02*
G75*
G03*
X217925000Y-162024900I-5939697J0D01*
G01*
%TO.C,SW7*%
X418385000Y-162054900D02*
G75*
G03*
X418385000Y-162054900I-5939697J0D01*
G01*
%TO.C,SW35*%
X468405000Y-187034900D02*
G75*
G03*
X468405000Y-187034900I-5939697J0D01*
G01*
%TO.C,SW18*%
X468410000Y-162020000D02*
G75*
G03*
X468410000Y-162020000I-5939697J0D01*
G01*
%TO.C,SW15*%
X443405000Y-162044900D02*
G75*
G03*
X443405000Y-162044900I-5939697J0D01*
G01*
%TO.C,SW32*%
X192905000Y-187054900D02*
G75*
G03*
X192905000Y-187054900I-5939697J0D01*
G01*
%TO.C,SW27*%
X418415000Y-187044900D02*
G75*
G03*
X418415000Y-187044900I-5939697J0D01*
G01*
%TO.C,SW31*%
X443385000Y-187054900D02*
G75*
G03*
X443385000Y-187054900I-5939697J0D01*
G01*
%TO.C,SW11*%
X192940000Y-162010000D02*
G75*
G03*
X192940000Y-162010000I-5939697J0D01*
G01*
%TO.C,SW2*%
X393395000Y-162044900D02*
G75*
G03*
X393395000Y-162044900I-5939697J0D01*
G01*
%TO.C,SW28*%
X167935000Y-187054900D02*
G75*
G03*
X167935000Y-187054900I-5939697J0D01*
G01*
%TO.C,SW23*%
X393400000Y-187040000D02*
G75*
G03*
X393400000Y-187040000I-5939697J0D01*
G01*
%TO.C,SW22*%
X142930000Y-187030000D02*
G75*
G03*
X142930000Y-187030000I-5939697J0D01*
G01*
%TO.C,SW1*%
X142920000Y-162030000D02*
G75*
G03*
X142920000Y-162030000I-5939697J0D01*
G01*
%TO.C,SW6*%
X167905000Y-162054900D02*
G75*
G03*
X167905000Y-162054900I-5939697J0D01*
G01*
%TO.C,SW38*%
X217925000Y-187044900D02*
G75*
G03*
X217925000Y-187044900I-5939697J0D01*
G01*
%TO.C,SW17*%
X217925000Y-162024900D02*
G75*
G03*
X217925000Y-162024900I-5939697J0D01*
G01*
%TO.C,SW7*%
X418385000Y-162054900D02*
G75*
G03*
X418385000Y-162054900I-5939697J0D01*
G01*
%TO.C,SW35*%
X468405000Y-187034900D02*
G75*
G03*
X468405000Y-187034900I-5939697J0D01*
G01*
%TO.C,SW18*%
X468410000Y-162020000D02*
G75*
G03*
X468410000Y-162020000I-5939697J0D01*
G01*
%TO.C,SW15*%
X443405000Y-162044900D02*
G75*
G03*
X443405000Y-162044900I-5939697J0D01*
G01*
%TO.C,SW32*%
X192905000Y-187054900D02*
G75*
G03*
X192905000Y-187054900I-5939697J0D01*
G01*
%TO.C,SW27*%
X418415000Y-187044900D02*
G75*
G03*
X418415000Y-187044900I-5939697J0D01*
G01*
%TO.C,SW31*%
X443385000Y-187054900D02*
G75*
G03*
X443385000Y-187054900I-5939697J0D01*
G01*
%TO.C,SW11*%
X192940000Y-162010000D02*
G75*
G03*
X192940000Y-162010000I-5939697J0D01*
G01*
%TO.C,SW2*%
X393395000Y-162044900D02*
G75*
G03*
X393395000Y-162044900I-5939697J0D01*
G01*
%TO.C,SW28*%
X167935000Y-187054900D02*
G75*
G03*
X167935000Y-187054900I-5939697J0D01*
G01*
%TO.C,SW23*%
X393400000Y-187040000D02*
G75*
G03*
X393400000Y-187040000I-5939697J0D01*
G01*
%TD*%
D15*
%TO.C,REF\u002A\u002A*%
X473000000Y-305000000D03*
D16*
X473000000Y-305000000D03*
%TD*%
D15*
%TO.C,REF\u002A\u002A*%
X125000000Y-305000000D03*
D16*
X125000000Y-305000000D03*
%TD*%
D15*
%TO.C,REF\u002A\u002A*%
X125000000Y-57000000D03*
D16*
X125000000Y-57000000D03*
%TD*%
D15*
%TO.C,REF\u002A\u002A*%
X473000000Y-57000000D03*
D16*
X473000000Y-57000000D03*
%TD*%
D17*
%TO.C,UVU-LINE3*%
X321580000Y-158380000D03*
X321580000Y-157110000D03*
X321580000Y-155840000D03*
X321580000Y-154570000D03*
X321580000Y-153300000D03*
X321580000Y-152030000D03*
X321580000Y-150760000D03*
X321580000Y-149490000D03*
X316430000Y-149490000D03*
X316430000Y-150760000D03*
X316430000Y-152030000D03*
X316430000Y-153300000D03*
X316430000Y-154570000D03*
X316430000Y-155840000D03*
X316430000Y-157110000D03*
X316430000Y-158380000D03*
%TD*%
D18*
%TO.C,D17*%
X296535000Y-154950000D03*
D19*
X293995000Y-154950000D03*
%TD*%
D20*
%TO.C,SW19*%
X179570000Y-251190000D03*
X179570000Y-244690000D03*
X184070000Y-244690000D03*
X184070000Y-251190000D03*
%TD*%
%TO.C,RV1*%
X249000000Y-285500000D03*
X249000000Y-252500000D03*
D21*
X245190000Y-241568000D03*
X250270000Y-241568000D03*
X247730000Y-241568000D03*
D22*
X252810000Y-241568000D03*
D21*
X250380000Y-296432000D03*
X245300000Y-296432000D03*
%TD*%
D18*
%TO.C,D14*%
X296530000Y-169960000D03*
D19*
X293990000Y-169960000D03*
%TD*%
D23*
%TO.C,NP2*%
X159555000Y-160504900D03*
X159555000Y-163704900D03*
X164455000Y-163704900D03*
X164455000Y-160504900D03*
%TD*%
D20*
%TO.C,SW8*%
X139900000Y-251010000D03*
X146400000Y-251010000D03*
X146400000Y-255510000D03*
X139900000Y-255510000D03*
%TD*%
D24*
%TO.C,SW22*%
X131130000Y-186959531D03*
D25*
X144330000Y-187070000D03*
%TD*%
D23*
%TO.C,NP19*%
X346150000Y-198100000D03*
X346150000Y-201300000D03*
X351050000Y-201300000D03*
X351050000Y-198100000D03*
%TD*%
D18*
%TO.C,D3*%
X262245000Y-159990000D03*
D19*
X259705000Y-159990000D03*
%TD*%
D20*
%TO.C,SW21*%
X345530000Y-211390000D03*
X352030000Y-211390000D03*
X345530000Y-206890000D03*
X352030000Y-206890000D03*
%TD*%
D23*
%TO.C,NP13*%
X410065000Y-185510000D03*
X410065000Y-188710000D03*
X414965000Y-188710000D03*
X414965000Y-185510000D03*
%TD*%
D26*
%TO.C,REF\u002A\u002A*%
X149520000Y-162090000D03*
%TD*%
D20*
%TO.C,SW14*%
X316880000Y-225270000D03*
X310380000Y-225270000D03*
X310380000Y-229770000D03*
X316880000Y-229770000D03*
%TD*%
D27*
%TO.C,RV20*%
X136390000Y-86410000D03*
X127590000Y-86410000D03*
D19*
X134490000Y-93410000D03*
X131990000Y-93410000D03*
X129490000Y-93410000D03*
%TD*%
D23*
%TO.C,NP1*%
X134570000Y-160480000D03*
X134570000Y-163680000D03*
X139470000Y-163680000D03*
X139470000Y-160480000D03*
%TD*%
D27*
%TO.C,RV22*%
X210500000Y-86400000D03*
X219300000Y-86400000D03*
D19*
X217400000Y-93400000D03*
X214900000Y-93400000D03*
X212400000Y-93400000D03*
%TD*%
D28*
%TO.C,TB1*%
X170390000Y-212180000D03*
X172930000Y-212180000D03*
X175470000Y-212180000D03*
X178010000Y-212180000D03*
%TD*%
D20*
%TO.C,SW33*%
X169210000Y-71230000D03*
X169210000Y-64730000D03*
X173710000Y-71230000D03*
X173710000Y-64730000D03*
%TD*%
%TO.C,SW25*%
X433840000Y-237250000D03*
X433840000Y-230750000D03*
X429340000Y-237250000D03*
X429340000Y-230750000D03*
%TD*%
%TO.C,RV7*%
X283080000Y-252570000D03*
X283080000Y-285570000D03*
D21*
X284350000Y-241638000D03*
X279270000Y-241638000D03*
D22*
X286890000Y-241638000D03*
D21*
X281810000Y-241638000D03*
X279380000Y-296502000D03*
X284460000Y-296502000D03*
%TD*%
D18*
%TO.C,D38*%
X344265000Y-119500000D03*
D19*
X341725000Y-119500000D03*
%TD*%
D24*
%TO.C,SW1*%
X131120000Y-161959531D03*
D25*
X144320000Y-162070000D03*
%TD*%
D29*
%TO.C,D22*%
X252910000Y-228735000D03*
D19*
X252910000Y-226195000D03*
%TD*%
D24*
%TO.C,SW6*%
X156105000Y-161984431D03*
D25*
X169305000Y-162094900D03*
%TD*%
D20*
%TO.C,SW12*%
X188162000Y-296708000D03*
X181662000Y-296708000D03*
X188162000Y-301208000D03*
X181662000Y-301208000D03*
%TD*%
D18*
%TO.C,D46*%
X356255000Y-119510000D03*
D19*
X353715000Y-119510000D03*
%TD*%
D27*
%TO.C,RV8*%
X287400000Y-205550000D03*
X278600000Y-205550000D03*
D19*
X285500000Y-212550000D03*
X283000000Y-212550000D03*
X280500000Y-212550000D03*
%TD*%
D27*
%TO.C,RV12*%
X278610000Y-68440000D03*
X287410000Y-68440000D03*
D19*
X285510000Y-75440000D03*
X283010000Y-75440000D03*
X280510000Y-75440000D03*
%TD*%
D30*
%TO.C,D9*%
X141765000Y-289150000D03*
D19*
X144305000Y-289150000D03*
%TD*%
D18*
%TO.C,D31*%
X330585000Y-164880000D03*
D19*
X328045000Y-164880000D03*
%TD*%
D18*
%TO.C,D1*%
X262265000Y-170020000D03*
D19*
X259725000Y-170020000D03*
%TD*%
D30*
%TO.C,D25*%
X391675000Y-289630000D03*
D19*
X394215000Y-289630000D03*
%TD*%
D18*
%TO.C,D37*%
X330505000Y-134930000D03*
D19*
X327965000Y-134930000D03*
%TD*%
D18*
%TO.C,D49*%
X356185000Y-104450000D03*
D19*
X353645000Y-104450000D03*
%TD*%
D20*
%TO.C,RV23*%
X458100000Y-241720000D03*
X458100000Y-292220000D03*
D21*
X459370000Y-232220000D03*
X454290000Y-232220000D03*
D22*
X461910000Y-232220000D03*
D21*
X456830000Y-232220000D03*
X459400000Y-303120000D03*
X454320000Y-303120000D03*
%TD*%
D26*
%TO.C,REF\u002A\u002A*%
X211980000Y-174570000D03*
%TD*%
D24*
%TO.C,SW38*%
X206125000Y-186974431D03*
D25*
X219325000Y-187084900D03*
%TD*%
D20*
%TO.C,SW4*%
X389760000Y-280960000D03*
X396260000Y-280960000D03*
X389760000Y-285460000D03*
X396260000Y-285460000D03*
%TD*%
%TO.C,SW41*%
X159780000Y-110780000D03*
X159780000Y-117280000D03*
X164280000Y-117280000D03*
X164280000Y-110780000D03*
%TD*%
D29*
%TO.C,D11*%
X136020000Y-69065000D03*
D19*
X136020000Y-66525000D03*
%TD*%
D27*
%TO.C,RV11*%
X278590000Y-102400000D03*
X287390000Y-102400000D03*
D19*
X285490000Y-109400000D03*
X282990000Y-109400000D03*
X280490000Y-109400000D03*
%TD*%
D18*
%TO.C,D41*%
X344225000Y-104500000D03*
D19*
X341685000Y-104500000D03*
%TD*%
D18*
%TO.C,D16*%
X296575000Y-159970000D03*
D19*
X294035000Y-159970000D03*
%TD*%
D31*
%TO.C,SW26*%
X421490000Y-121550000D03*
D20*
X426490000Y-121550000D03*
X423990000Y-121550000D03*
D26*
X429590000Y-114050000D03*
X418390000Y-114050000D03*
D20*
X426490000Y-107050000D03*
X421490000Y-107050000D03*
%TD*%
D26*
%TO.C,REF\u002A\u002A*%
X186980000Y-174580000D03*
%TD*%
D32*
%TO.C,D27*%
X386100000Y-66295000D03*
D19*
X386100000Y-68835000D03*
%TD*%
D26*
%TO.C,REF\u002A\u002A*%
X400050000Y-162120000D03*
%TD*%
D18*
%TO.C,D4*%
X262285000Y-155000000D03*
D19*
X259745000Y-155000000D03*
%TD*%
D18*
%TO.C,D30*%
X330535000Y-169890000D03*
D19*
X327995000Y-169890000D03*
%TD*%
D26*
%TO.C,REF\u002A\u002A*%
X387560000Y-174620000D03*
%TD*%
D18*
%TO.C,D21*%
X296485000Y-134950000D03*
D19*
X293945000Y-134950000D03*
%TD*%
D20*
%TO.C,SW13*%
X431852000Y-296708000D03*
X438352000Y-296708000D03*
X438352000Y-301208000D03*
X431852000Y-301208000D03*
%TD*%
D24*
%TO.C,SW17*%
X206125000Y-161954431D03*
D25*
X219325000Y-162064900D03*
%TD*%
D18*
%TO.C,D50*%
X356225000Y-99490000D03*
D19*
X353685000Y-99490000D03*
%TD*%
D20*
%TO.C,SW3*%
X139860000Y-281010000D03*
X146360000Y-281010000D03*
X139860000Y-285510000D03*
X146360000Y-285510000D03*
%TD*%
%TO.C,SW34*%
X423430000Y-71170000D03*
X423430000Y-64670000D03*
X418930000Y-71170000D03*
X418930000Y-64670000D03*
%TD*%
D26*
%TO.C,REF\u002A\u002A*%
X462510000Y-174590000D03*
%TD*%
D27*
%TO.C,RV24*%
X386390000Y-86400000D03*
X377590000Y-86400000D03*
D19*
X384490000Y-93400000D03*
X381990000Y-93400000D03*
X379490000Y-93400000D03*
%TD*%
D29*
%TO.C,D12*%
X178180000Y-69215000D03*
D19*
X178180000Y-66675000D03*
%TD*%
D27*
%TO.C,RV5*%
X253390000Y-102380000D03*
X244590000Y-102380000D03*
D19*
X251490000Y-109380000D03*
X248990000Y-109380000D03*
X246490000Y-109380000D03*
%TD*%
D27*
%TO.C,RV17*%
X321400000Y-102420000D03*
X312600000Y-102420000D03*
D19*
X319500000Y-109420000D03*
X317000000Y-109420000D03*
X314500000Y-109420000D03*
%TD*%
D18*
%TO.C,D8*%
X262245000Y-135010000D03*
D19*
X259705000Y-135010000D03*
%TD*%
D24*
%TO.C,SW7*%
X406585000Y-161984431D03*
D25*
X419785000Y-162094900D03*
%TD*%
D23*
%TO.C,NP7*%
X184555000Y-185504900D03*
X184555000Y-188704900D03*
X189455000Y-188704900D03*
X189455000Y-185504900D03*
%TD*%
D18*
%TO.C,D44*%
X344210000Y-89520000D03*
D19*
X341670000Y-89520000D03*
%TD*%
D33*
%TO.C,U-LEDS1*%
X210755000Y-142225000D03*
X212025000Y-142225000D03*
X213295000Y-142225000D03*
X214565000Y-142225000D03*
X215835000Y-142225000D03*
X217105000Y-142225000D03*
X218375000Y-142225000D03*
X219645000Y-142225000D03*
X219645000Y-137075000D03*
X218375000Y-137075000D03*
X217105000Y-137075000D03*
X215835000Y-137075000D03*
X214565000Y-137075000D03*
X213295000Y-137075000D03*
X212025000Y-137075000D03*
X210755000Y-137075000D03*
%TD*%
D18*
%TO.C,D48*%
X356225000Y-109500000D03*
D19*
X353685000Y-109500000D03*
%TD*%
D18*
%TO.C,D35*%
X330535000Y-144890000D03*
D19*
X327995000Y-144890000D03*
%TD*%
D29*
%TO.C,D13*%
X219030000Y-69135000D03*
D19*
X219030000Y-66595000D03*
%TD*%
D26*
%TO.C,REF\u002A\u002A*%
X450000000Y-162100000D03*
%TD*%
D20*
%TO.C,SW9*%
X396380000Y-251080000D03*
X389880000Y-251080000D03*
X396380000Y-255580000D03*
X389880000Y-255580000D03*
%TD*%
D27*
%TO.C,RV25*%
X428410000Y-86410000D03*
X419610000Y-86410000D03*
D19*
X426510000Y-93410000D03*
X424010000Y-93410000D03*
X421510000Y-93410000D03*
%TD*%
D20*
%TO.C,SW36*%
X209990000Y-64770000D03*
X209990000Y-71270000D03*
X214490000Y-64770000D03*
X214490000Y-71270000D03*
%TD*%
D18*
%TO.C,D20*%
X296435000Y-139960000D03*
D19*
X293895000Y-139960000D03*
%TD*%
D27*
%TO.C,RV10*%
X278600000Y-136430000D03*
X287400000Y-136430000D03*
D19*
X285500000Y-143430000D03*
X283000000Y-143430000D03*
X280500000Y-143430000D03*
%TD*%
D20*
%TO.C,SW42*%
X409840000Y-110730000D03*
X409840000Y-117230000D03*
X414340000Y-117230000D03*
X414340000Y-110730000D03*
%TD*%
D18*
%TO.C,D53*%
X356195000Y-84490000D03*
D19*
X353655000Y-84490000D03*
%TD*%
D24*
%TO.C,SW35*%
X456605000Y-186964431D03*
D25*
X469805000Y-187074900D03*
%TD*%
D24*
%TO.C,SW18*%
X456610000Y-161949531D03*
D25*
X469810000Y-162060000D03*
%TD*%
D20*
%TO.C,RV13*%
X316970000Y-285450000D03*
X316970000Y-252450000D03*
D21*
X318240000Y-241518000D03*
X313160000Y-241518000D03*
X315700000Y-241518000D03*
D22*
X320780000Y-241518000D03*
D21*
X318350000Y-296382000D03*
X313270000Y-296382000D03*
%TD*%
D18*
%TO.C,D43*%
X344260000Y-94470000D03*
D19*
X341720000Y-94470000D03*
%TD*%
D34*
%TO.C,XA1*%
X399957500Y-74315000D03*
X399957500Y-81935000D03*
X399957500Y-84475000D03*
X448217500Y-140355000D03*
X448217500Y-142895000D03*
X399957500Y-97175000D03*
X399957500Y-99715000D03*
X399957500Y-102255000D03*
X399957500Y-104795000D03*
X399957500Y-107335000D03*
X399957500Y-109875000D03*
X399957500Y-112415000D03*
X399957500Y-114955000D03*
X399957500Y-120035000D03*
X399957500Y-122575000D03*
X399957500Y-125115000D03*
X399957500Y-127655000D03*
X399957500Y-130195000D03*
X399957500Y-132735000D03*
X399957500Y-135275000D03*
X399957500Y-137815000D03*
X448217500Y-70251000D03*
X448217500Y-109875000D03*
X448217500Y-107335000D03*
X448217500Y-104795000D03*
X448217500Y-102255000D03*
X448217500Y-99715000D03*
X448217500Y-97175000D03*
X448217500Y-94635000D03*
X448217500Y-92095000D03*
X448217500Y-88031000D03*
X448217500Y-85491000D03*
X448217500Y-82951000D03*
X448217500Y-80411000D03*
X448217500Y-77871000D03*
X448217500Y-75331000D03*
X448217500Y-114955000D03*
X448217500Y-117495000D03*
X448217500Y-120035000D03*
X448217500Y-122575000D03*
X448217500Y-125115000D03*
X448217500Y-127655000D03*
X448217500Y-130195000D03*
X448217500Y-132735000D03*
X445677500Y-140355000D03*
X445677500Y-142895000D03*
X443137500Y-140355000D03*
X443137500Y-142895000D03*
X440597500Y-140355000D03*
X440597500Y-142895000D03*
X438057500Y-140355000D03*
X438057500Y-142895000D03*
X435517500Y-140355000D03*
X435517500Y-142895000D03*
X432977500Y-140355000D03*
X432977500Y-142895000D03*
X430437500Y-140355000D03*
X430437500Y-142895000D03*
X427897500Y-140355000D03*
X427897500Y-142895000D03*
X425357500Y-140355000D03*
X425357500Y-142895000D03*
X422817500Y-140355000D03*
X422817500Y-142895000D03*
X420277500Y-140355000D03*
X420277500Y-142895000D03*
X417737500Y-140355000D03*
X417737500Y-142895000D03*
X415197500Y-140355000D03*
X415197500Y-142895000D03*
X412657500Y-140355000D03*
X412657500Y-142895000D03*
X410117500Y-140355000D03*
X410117500Y-142895000D03*
X407577500Y-140355000D03*
X407577500Y-142895000D03*
X448217500Y-72791000D03*
X399957500Y-87015000D03*
X399957500Y-89555000D03*
X405037500Y-140355000D03*
X405037500Y-142895000D03*
X399957500Y-76855000D03*
X399957500Y-79395000D03*
X448217500Y-65171000D03*
X448217500Y-67711000D03*
X399957500Y-92095000D03*
%TD*%
D27*
%TO.C,RV18*%
X312610000Y-68380000D03*
X321410000Y-68380000D03*
D19*
X319510000Y-75380000D03*
X317010000Y-75380000D03*
X314510000Y-75380000D03*
%TD*%
D20*
%TO.C,SW30*%
X377226000Y-64822000D03*
X377226000Y-71322000D03*
X381726000Y-64822000D03*
X381726000Y-71322000D03*
%TD*%
D26*
%TO.C,REF\u002A\u002A*%
X137030000Y-174600000D03*
%TD*%
D17*
%TO.C,U-LEDSR1*%
X351275000Y-159145000D03*
X351275000Y-157875000D03*
X351275000Y-156605000D03*
X351275000Y-155335000D03*
X351275000Y-154065000D03*
X351275000Y-152795000D03*
X351275000Y-151525000D03*
X351275000Y-150255000D03*
X346125000Y-150255000D03*
X346125000Y-151525000D03*
X346125000Y-152795000D03*
X346125000Y-154065000D03*
X346125000Y-155335000D03*
X346125000Y-156605000D03*
X346125000Y-157875000D03*
X346125000Y-159145000D03*
%TD*%
D27*
%TO.C,RV9*%
X287370000Y-170460000D03*
X278570000Y-170460000D03*
D19*
X285470000Y-177460000D03*
X282970000Y-177460000D03*
X280470000Y-177460000D03*
%TD*%
D20*
%TO.C,SW37*%
X459920000Y-71240000D03*
X459920000Y-64740000D03*
X464420000Y-64740000D03*
X464420000Y-71240000D03*
%TD*%
D26*
%TO.C,REF\u002A\u002A*%
X162020000Y-174580000D03*
%TD*%
D23*
%TO.C,NP5*%
X134580000Y-185460000D03*
X134580000Y-188660000D03*
X139480000Y-188660000D03*
X139480000Y-185460000D03*
%TD*%
D35*
%TO.C,NP9*%
X187830000Y-236270000D03*
X191030000Y-236270000D03*
X191030000Y-231370000D03*
X187830000Y-231370000D03*
%TD*%
D27*
%TO.C,RV4*%
X253350000Y-136330000D03*
X244550000Y-136330000D03*
D19*
X251450000Y-143330000D03*
X248950000Y-143330000D03*
X246450000Y-143330000D03*
%TD*%
D23*
%TO.C,NP16*%
X435055000Y-160494900D03*
X435055000Y-163694900D03*
X439955000Y-163694900D03*
X439955000Y-160494900D03*
%TD*%
%TO.C,NP3*%
X184590000Y-160460000D03*
X184590000Y-163660000D03*
X189490000Y-163660000D03*
X189490000Y-160460000D03*
%TD*%
%TO.C,NP14*%
X385050000Y-185470000D03*
X385050000Y-188670000D03*
X389950000Y-188670000D03*
X389950000Y-185470000D03*
%TD*%
D30*
%TO.C,D26*%
X391663000Y-259842000D03*
D19*
X394203000Y-259842000D03*
%TD*%
D20*
%TO.C,SW39*%
X188270000Y-110770000D03*
X188270000Y-117270000D03*
X183770000Y-117270000D03*
X183770000Y-110770000D03*
%TD*%
D36*
%TO.C,IC-POTS-1*%
X277965000Y-193500000D03*
X279235000Y-193500000D03*
X280505000Y-193500000D03*
X281775000Y-193500000D03*
X283045000Y-193500000D03*
X284315000Y-193500000D03*
X285585000Y-193500000D03*
X286855000Y-193500000D03*
X288125000Y-193500000D03*
X289395000Y-193500000D03*
X290665000Y-193500000D03*
X291935000Y-193500000D03*
X291935000Y-184200000D03*
X290665000Y-184200000D03*
X289395000Y-184200000D03*
X288125000Y-184200000D03*
X286855000Y-184200000D03*
X285585000Y-184200000D03*
X284315000Y-184200000D03*
X283045000Y-184200000D03*
X281775000Y-184200000D03*
X280505000Y-184200000D03*
X279235000Y-184200000D03*
X277965000Y-184200000D03*
%TD*%
D26*
%TO.C,REF\u002A\u002A*%
X412550000Y-174620000D03*
%TD*%
D23*
%TO.C,NP8*%
X209590000Y-185480000D03*
X209590000Y-188680000D03*
X214490000Y-188680000D03*
X214490000Y-185480000D03*
%TD*%
%TO.C,NP12*%
X435030000Y-185490000D03*
X435030000Y-188690000D03*
X439930000Y-188690000D03*
X439930000Y-185490000D03*
%TD*%
D35*
%TO.C,NP10*%
X187840000Y-250170000D03*
X191040000Y-250170000D03*
X191040000Y-245270000D03*
X187840000Y-245270000D03*
%TD*%
D18*
%TO.C,D32*%
X330555000Y-159890000D03*
D19*
X328015000Y-159890000D03*
%TD*%
D26*
%TO.C,REF\u002A\u002A*%
X400060000Y-187090000D03*
%TD*%
D20*
%TO.C,RV19*%
X208170000Y-292300000D03*
X208170000Y-241800000D03*
D21*
X209440000Y-232300000D03*
X204360000Y-232300000D03*
X206900000Y-232300000D03*
D22*
X211980000Y-232300000D03*
D21*
X209470000Y-303200000D03*
X204390000Y-303200000D03*
%TD*%
D27*
%TO.C,RV14*%
X321400000Y-205450000D03*
X312600000Y-205450000D03*
D19*
X319500000Y-212450000D03*
X317000000Y-212450000D03*
X314500000Y-212450000D03*
%TD*%
D27*
%TO.C,RV28*%
X344570000Y-251400000D03*
X353370000Y-251400000D03*
D19*
X351470000Y-258400000D03*
X348970000Y-258400000D03*
X346470000Y-258400000D03*
%TD*%
D30*
%TO.C,D10*%
X141925000Y-259090000D03*
D19*
X144465000Y-259090000D03*
%TD*%
D26*
%TO.C,REF\u002A\u002A*%
X437510000Y-174610000D03*
%TD*%
D32*
%TO.C,D29*%
X468660000Y-66595000D03*
D19*
X468660000Y-69135000D03*
%TD*%
D29*
%TO.C,D23*%
X286940000Y-228735000D03*
D19*
X286940000Y-226195000D03*
%TD*%
D18*
%TO.C,D6*%
X262270000Y-145010000D03*
D19*
X259730000Y-145010000D03*
%TD*%
D27*
%TO.C,RV27*%
X344610000Y-284440000D03*
X353410000Y-284440000D03*
D19*
X351510000Y-291440000D03*
X349010000Y-291440000D03*
X346510000Y-291440000D03*
%TD*%
D29*
%TO.C,D24*%
X321080000Y-228915000D03*
D19*
X321080000Y-226375000D03*
%TD*%
D24*
%TO.C,SW15*%
X431605000Y-161974431D03*
D25*
X444805000Y-162084900D03*
%TD*%
D27*
%TO.C,RV6*%
X253360000Y-68370000D03*
X244560000Y-68370000D03*
D19*
X251460000Y-75370000D03*
X248960000Y-75370000D03*
X246460000Y-75370000D03*
%TD*%
D35*
%TO.C,NP20*%
X437630000Y-236190000D03*
X440830000Y-236190000D03*
X440830000Y-231290000D03*
X437630000Y-231290000D03*
%TD*%
D18*
%TO.C,D33*%
X330555000Y-154880000D03*
D19*
X328015000Y-154880000D03*
%TD*%
D18*
%TO.C,D47*%
X356195000Y-114480000D03*
D19*
X353655000Y-114480000D03*
%TD*%
D27*
%TO.C,RV29*%
X344600000Y-136460000D03*
X353400000Y-136460000D03*
D19*
X351500000Y-143460000D03*
X349000000Y-143460000D03*
X346500000Y-143460000D03*
%TD*%
D18*
%TO.C,D36*%
X330485000Y-139860000D03*
D19*
X327945000Y-139860000D03*
%TD*%
D24*
%TO.C,SW32*%
X181105000Y-186984431D03*
D25*
X194305000Y-187094900D03*
%TD*%
D18*
%TO.C,D34*%
X330535000Y-149870000D03*
D19*
X327995000Y-149870000D03*
%TD*%
D23*
%TO.C,NP4*%
X209575000Y-160474900D03*
X209575000Y-163674900D03*
X214475000Y-163674900D03*
X214475000Y-160474900D03*
%TD*%
D18*
%TO.C,D18*%
X296555000Y-149950000D03*
D19*
X294015000Y-149950000D03*
%TD*%
D26*
%TO.C,REF\u002A\u002A*%
X199470000Y-162080000D03*
%TD*%
D18*
%TO.C,D15*%
X296575000Y-164990000D03*
D19*
X294035000Y-164990000D03*
%TD*%
D20*
%TO.C,SW10*%
X282880000Y-225270000D03*
X276380000Y-225270000D03*
X282880000Y-229770000D03*
X276380000Y-229770000D03*
%TD*%
D37*
%TO.C,UVU-MASTER-L1*%
X338801000Y-69455000D03*
X338801000Y-70725000D03*
X338801000Y-71995000D03*
X338801000Y-73265000D03*
X338801000Y-74535000D03*
X338801000Y-75805000D03*
X338801000Y-77075000D03*
X338801000Y-78345000D03*
X343951000Y-78345000D03*
X343951000Y-77075000D03*
X343951000Y-75805000D03*
X343951000Y-74535000D03*
X343951000Y-73265000D03*
X343951000Y-71995000D03*
X343951000Y-70725000D03*
X343951000Y-69455000D03*
%TD*%
D27*
%TO.C,RV15*%
X312700000Y-170400000D03*
X321500000Y-170400000D03*
D19*
X319600000Y-177400000D03*
X317100000Y-177400000D03*
X314600000Y-177400000D03*
%TD*%
D23*
%TO.C,NP6*%
X159585000Y-185504900D03*
X159585000Y-188704900D03*
X164485000Y-188704900D03*
X164485000Y-185504900D03*
%TD*%
D28*
%TO.C,TB2*%
X421390000Y-212180000D03*
X423930000Y-212180000D03*
X426470000Y-212180000D03*
X429010000Y-212180000D03*
%TD*%
D23*
%TO.C,NP11*%
X460055000Y-185484900D03*
X460055000Y-188684900D03*
X464955000Y-188684900D03*
X464955000Y-185484900D03*
%TD*%
D37*
%TO.C,UVU-MASTER-R1*%
X354295000Y-69469000D03*
X354295000Y-70739000D03*
X354295000Y-72009000D03*
X354295000Y-73279000D03*
X354295000Y-74549000D03*
X354295000Y-75819000D03*
X354295000Y-77089000D03*
X354295000Y-78359000D03*
X359445000Y-78359000D03*
X359445000Y-77089000D03*
X359445000Y-75819000D03*
X359445000Y-74549000D03*
X359445000Y-73279000D03*
X359445000Y-72009000D03*
X359445000Y-70739000D03*
X359445000Y-69469000D03*
%TD*%
D27*
%TO.C,RV21*%
X169610000Y-86420000D03*
X178410000Y-86420000D03*
D19*
X176510000Y-93420000D03*
X174010000Y-93420000D03*
X171510000Y-93420000D03*
%TD*%
D18*
%TO.C,D40*%
X344305000Y-109520000D03*
D19*
X341765000Y-109520000D03*
%TD*%
D20*
%TO.C,SW20*%
X429320000Y-251200000D03*
X429320000Y-244700000D03*
X433820000Y-244700000D03*
X433820000Y-251200000D03*
%TD*%
D18*
%TO.C,D7*%
X262245000Y-140010000D03*
D19*
X259705000Y-140010000D03*
%TD*%
D23*
%TO.C,NP17*%
X410035000Y-160504900D03*
X410035000Y-163704900D03*
X414935000Y-163704900D03*
X414935000Y-160504900D03*
%TD*%
D18*
%TO.C,D51*%
X356225000Y-94480000D03*
D19*
X353685000Y-94480000D03*
%TD*%
D18*
%TO.C,D39*%
X344275000Y-114460000D03*
D19*
X341735000Y-114460000D03*
%TD*%
D23*
%TO.C,NP15*%
X460060000Y-160470000D03*
X460060000Y-163670000D03*
X464960000Y-163670000D03*
X464960000Y-160470000D03*
%TD*%
D24*
%TO.C,SW27*%
X406615000Y-186974431D03*
D25*
X419815000Y-187084900D03*
%TD*%
D27*
%TO.C,RV2*%
X253410000Y-205350000D03*
X244610000Y-205350000D03*
D19*
X251510000Y-212350000D03*
X249010000Y-212350000D03*
X246510000Y-212350000D03*
%TD*%
D18*
%TO.C,D19*%
X296495000Y-144960000D03*
D19*
X293955000Y-144960000D03*
%TD*%
D27*
%TO.C,RV16*%
X312590000Y-136480000D03*
X321390000Y-136480000D03*
D19*
X319490000Y-143480000D03*
X316990000Y-143480000D03*
X314490000Y-143480000D03*
%TD*%
D18*
%TO.C,D42*%
X344255000Y-99490000D03*
D19*
X341715000Y-99490000D03*
%TD*%
D24*
%TO.C,SW31*%
X431585000Y-186984431D03*
D25*
X444785000Y-187094900D03*
%TD*%
D17*
%TO.C,UVU-LINE1*%
X253905000Y-157945000D03*
X253905000Y-156675000D03*
X253905000Y-155405000D03*
X253905000Y-154135000D03*
X253905000Y-152865000D03*
X253905000Y-151595000D03*
X253905000Y-150325000D03*
X253905000Y-149055000D03*
X248755000Y-149055000D03*
X248755000Y-150325000D03*
X248755000Y-151595000D03*
X248755000Y-152865000D03*
X248755000Y-154135000D03*
X248755000Y-155405000D03*
X248755000Y-156675000D03*
X248755000Y-157945000D03*
%TD*%
%TO.C,UVU-LINE2*%
X288425000Y-157895000D03*
X288425000Y-156625000D03*
X288425000Y-155355000D03*
X288425000Y-154085000D03*
X288425000Y-152815000D03*
X288425000Y-151545000D03*
X288425000Y-150275000D03*
X288425000Y-149005000D03*
X283275000Y-149005000D03*
X283275000Y-150275000D03*
X283275000Y-151545000D03*
X283275000Y-152815000D03*
X283275000Y-154085000D03*
X283275000Y-155355000D03*
X283275000Y-156625000D03*
X283275000Y-157895000D03*
%TD*%
D24*
%TO.C,SW11*%
X181140000Y-161939531D03*
D25*
X194340000Y-162050000D03*
%TD*%
D18*
%TO.C,D5*%
X262305000Y-150000000D03*
D19*
X259765000Y-150000000D03*
%TD*%
D32*
%TO.C,D28*%
X427650000Y-66640000D03*
D19*
X427650000Y-69180000D03*
%TD*%
D24*
%TO.C,SW2*%
X381595000Y-161974431D03*
D25*
X394795000Y-162084900D03*
%TD*%
D20*
%TO.C,SW40*%
X438050000Y-110770000D03*
X438050000Y-117270000D03*
X433550000Y-117270000D03*
X433550000Y-110770000D03*
%TD*%
D24*
%TO.C,SW28*%
X156135000Y-186984431D03*
D25*
X169335000Y-187094900D03*
%TD*%
D18*
%TO.C,D52*%
X356165000Y-89470000D03*
D19*
X353625000Y-89470000D03*
%TD*%
D38*
%TO.C,SW16*%
X176500000Y-106530000D03*
D20*
X171500000Y-106530000D03*
X174000000Y-106530000D03*
D26*
X179600000Y-114030000D03*
X168400000Y-114030000D03*
D20*
X171500000Y-121030000D03*
X176500000Y-121030000D03*
%TD*%
D24*
%TO.C,SW23*%
X381600000Y-186969531D03*
D25*
X394800000Y-187080000D03*
%TD*%
D35*
%TO.C,NP21*%
X437670000Y-250360000D03*
X440870000Y-250360000D03*
X440870000Y-245460000D03*
X437670000Y-245460000D03*
%TD*%
D26*
%TO.C,REF\u002A\u002A*%
X149520000Y-187070000D03*
%TD*%
D18*
%TO.C,D2*%
X262225000Y-165010000D03*
D19*
X259685000Y-165010000D03*
%TD*%
D20*
%TO.C,SW24*%
X179600000Y-237250000D03*
X179600000Y-230750000D03*
X184100000Y-237250000D03*
X184100000Y-230750000D03*
%TD*%
D26*
%TO.C,REF\u002A\u002A*%
X450020000Y-187090000D03*
%TD*%
D20*
%TO.C,SW5*%
X242370000Y-225220000D03*
X248870000Y-225220000D03*
X242370000Y-229720000D03*
X248870000Y-229720000D03*
%TD*%
D26*
%TO.C,REF\u002A\u002A*%
X199490000Y-187060000D03*
%TD*%
D18*
%TO.C,D45*%
X344205000Y-84520000D03*
D19*
X341665000Y-84520000D03*
%TD*%
D20*
%TO.C,SW29*%
X127200000Y-64740000D03*
X127200000Y-71240000D03*
X131700000Y-64740000D03*
X131700000Y-71240000D03*
%TD*%
D27*
%TO.C,RV3*%
X253380000Y-170420000D03*
X244580000Y-170420000D03*
D19*
X251480000Y-177420000D03*
X248980000Y-177420000D03*
X246480000Y-177420000D03*
%TD*%
D27*
%TO.C,RV26*%
X460570000Y-86350000D03*
X469370000Y-86350000D03*
D19*
X467470000Y-93350000D03*
X464970000Y-93350000D03*
X462470000Y-93350000D03*
%TD*%
D23*
%TO.C,NP18*%
X385060000Y-160490000D03*
X385060000Y-163690000D03*
X389960000Y-163690000D03*
X389960000Y-160490000D03*
%TD*%
G36*
X422691902Y-121058439D02*
G01*
X422710799Y-121116598D01*
X422759748Y-121152162D01*
X422820250Y-121152162D01*
X422869389Y-121116461D01*
X422873500Y-121109481D01*
X422875240Y-121108496D01*
X422876964Y-121109511D01*
X422877133Y-121111089D01*
X422818187Y-121300924D01*
X422792419Y-121518638D01*
X422806758Y-121737411D01*
X422860723Y-121949897D01*
X422916070Y-122069955D01*
X422915887Y-122071946D01*
X422914071Y-122072784D01*
X422912441Y-122071637D01*
X422878950Y-121999814D01*
X422837459Y-121955321D01*
X422778069Y-121943776D01*
X422723234Y-121969346D01*
X422693788Y-122022467D01*
X422691991Y-122041135D01*
X422690829Y-122042763D01*
X422688839Y-122042571D01*
X422688000Y-122040943D01*
X422688000Y-121059057D01*
X422689000Y-121057325D01*
X422691000Y-121057325D01*
X422691902Y-121058439D01*
G37*
G36*
X425115529Y-121131234D02*
G01*
X425119084Y-121138859D01*
X425119203Y-121139186D01*
X425145259Y-121236428D01*
X425178392Y-121287448D01*
X425234876Y-121309130D01*
X425293318Y-121293470D01*
X425330857Y-121247113D01*
X425332724Y-121246397D01*
X425334278Y-121247655D01*
X425334321Y-121248965D01*
X425318187Y-121300924D01*
X425292419Y-121518638D01*
X425306758Y-121737411D01*
X425338424Y-121862094D01*
X425337882Y-121864019D01*
X425335943Y-121864511D01*
X425334809Y-121863675D01*
X425301608Y-121812552D01*
X425245124Y-121790870D01*
X425186682Y-121806530D01*
X425152516Y-121848722D01*
X425150649Y-121849438D01*
X425149095Y-121848180D01*
X425149068Y-121846820D01*
X425154892Y-121829663D01*
X425186359Y-121612633D01*
X425187998Y-121550072D01*
X425167931Y-121331682D01*
X425111791Y-121132622D01*
X425112283Y-121130683D01*
X425114208Y-121130141D01*
X425115529Y-121131234D01*
G37*
G36*
X175301161Y-106037429D02*
G01*
X175302000Y-106039057D01*
X175302000Y-107020943D01*
X175301000Y-107022675D01*
X175299000Y-107022675D01*
X175298098Y-107021561D01*
X175279201Y-106963402D01*
X175230252Y-106927838D01*
X175169750Y-106927838D01*
X175120611Y-106963539D01*
X175111705Y-106978659D01*
X175109965Y-106979644D01*
X175108241Y-106978629D01*
X175108088Y-106977001D01*
X175164892Y-106809663D01*
X175196359Y-106592633D01*
X175197998Y-106530072D01*
X175177931Y-106311682D01*
X175118422Y-106100679D01*
X175111257Y-106086149D01*
X175111388Y-106084153D01*
X175113182Y-106083268D01*
X175114514Y-106083900D01*
X175152541Y-106124679D01*
X175211931Y-106136224D01*
X175266766Y-106110654D01*
X175296212Y-106057533D01*
X175298009Y-106038865D01*
X175299171Y-106037237D01*
X175301161Y-106037429D01*
G37*
G36*
X172625529Y-106111234D02*
G01*
X172629084Y-106118859D01*
X172629203Y-106119186D01*
X172655259Y-106216428D01*
X172688392Y-106267448D01*
X172744876Y-106289130D01*
X172803318Y-106273470D01*
X172840857Y-106227113D01*
X172842724Y-106226397D01*
X172844278Y-106227655D01*
X172844321Y-106228965D01*
X172828187Y-106280924D01*
X172802419Y-106498638D01*
X172816758Y-106717411D01*
X172848424Y-106842094D01*
X172847882Y-106844019D01*
X172845943Y-106844511D01*
X172844809Y-106843675D01*
X172811608Y-106792552D01*
X172755124Y-106770870D01*
X172696682Y-106786530D01*
X172662516Y-106828722D01*
X172660649Y-106829438D01*
X172659095Y-106828180D01*
X172659068Y-106826820D01*
X172664892Y-106809663D01*
X172696359Y-106592633D01*
X172697998Y-106530072D01*
X172677931Y-106311682D01*
X172621791Y-106112622D01*
X172622283Y-106110683D01*
X172624208Y-106110141D01*
X172625529Y-106111234D01*
G37*
M02*
