%TF.GenerationSoftware,KiCad,Pcbnew,5.99.0-unknown-92c4596252~129~ubuntu20.04.1*%
%TF.CreationDate,2021-06-12T03:19:44+02:00*%
%TF.ProjectId,Mixduino,4d697864-7569-46e6-9f2e-6b696361645f,rev?*%
%TF.SameCoordinates,Original*%
%TF.FileFunction,Soldermask,Top*%
%TF.FilePolarity,Negative*%
%FSLAX46Y46*%
G04 Gerber Fmt 4.6, Leading zero omitted, Abs format (unit mm)*
G04 Created by KiCad (PCBNEW 5.99.0-unknown-92c4596252~129~ubuntu20.04.1) date 2021-06-12 03:19:44*
%MOMM*%
%LPD*%
G01*
G04 APERTURE LIST*
G04 Aperture macros list*
%AMRoundRect*
0 Rectangle with rounded corners*
0 $1 Rounding radius*
0 $2 $3 $4 $5 $6 $7 $8 $9 X,Y pos of 4 corners*
0 Add a 4 corners polygon primitive as box body*
4,1,4,$2,$3,$4,$5,$6,$7,$8,$9,$2,$3,0*
0 Add four circle primitives for the rounded corners*
1,1,$1+$1,$2,$3*
1,1,$1+$1,$4,$5*
1,1,$1+$1,$6,$7*
1,1,$1+$1,$8,$9*
0 Add four rect primitives between the rounded corners*
20,1,$1+$1,$2,$3,$4,$5,0*
20,1,$1+$1,$4,$5,$6,$7,0*
20,1,$1+$1,$6,$7,$8,$9,0*
20,1,$1+$1,$8,$9,$2,$3,0*%
G04 Aperture macros list end*
%ADD10C,2.200000*%
%ADD11RoundRect,0.150000X0.725000X0.150000X-0.725000X0.150000X-0.725000X-0.150000X0.725000X-0.150000X0*%
%ADD12R,1.800000X1.800000*%
%ADD13C,1.800000*%
%ADD14C,2.000000*%
%ADD15O,1.600000X2.400000*%
%ADD16O,1.600000X2.462000*%
%ADD17R,1.500000X1.000000*%
%ADD18R,3.500000X0.989531*%
%ADD19R,1.000000X2.000000*%
%ADD20C,6.400000*%
%ADD21C,3.600000*%
%ADD22C,3.200000*%
%ADD23C,4.000000*%
%ADD24C,1.524000*%
%ADD25R,2.000000X2.000000*%
%ADD26RoundRect,0.150000X0.150000X-0.875000X0.150000X0.875000X-0.150000X0.875000X-0.150000X-0.875000X0*%
%ADD27RoundRect,0.150000X0.150000X-0.725000X0.150000X0.725000X-0.150000X0.725000X-0.150000X-0.725000X0*%
%ADD28O,1.727200X1.727200*%
%ADD29R,1.000000X1.500000*%
%ADD30RoundRect,0.150000X-0.725000X-0.150000X0.725000X-0.150000X0.725000X0.150000X-0.725000X0.150000X0*%
%ADD31RoundRect,0.150000X-0.875000X-0.150000X0.875000X-0.150000X0.875000X0.150000X-0.875000X0.150000X0*%
G04 APERTURE END LIST*
D10*
%TO.C,SW22*%
X142930000Y-187030000D02*
G75*
G03*
X142930000Y-187030000I-5939697J0D01*
G01*
%TO.C,SW1*%
X142920000Y-162030000D02*
G75*
G03*
X142920000Y-162030000I-5939697J0D01*
G01*
%TO.C,SW6*%
X167905000Y-162054900D02*
G75*
G03*
X167905000Y-162054900I-5939697J0D01*
G01*
%TO.C,SW38*%
X217925000Y-187044900D02*
G75*
G03*
X217925000Y-187044900I-5939697J0D01*
G01*
%TO.C,SW17*%
X217925000Y-162024900D02*
G75*
G03*
X217925000Y-162024900I-5939697J0D01*
G01*
%TO.C,SW7*%
X418385000Y-162054900D02*
G75*
G03*
X418385000Y-162054900I-5939697J0D01*
G01*
%TO.C,SW35*%
X468405000Y-187034900D02*
G75*
G03*
X468405000Y-187034900I-5939697J0D01*
G01*
%TO.C,SW18*%
X468410000Y-162020000D02*
G75*
G03*
X468410000Y-162020000I-5939697J0D01*
G01*
%TO.C,SW15*%
X443405000Y-162044900D02*
G75*
G03*
X443405000Y-162044900I-5939697J0D01*
G01*
%TO.C,SW32*%
X192905000Y-187054900D02*
G75*
G03*
X192905000Y-187054900I-5939697J0D01*
G01*
%TO.C,SW27*%
X418415000Y-187044900D02*
G75*
G03*
X418415000Y-187044900I-5939697J0D01*
G01*
%TO.C,SW31*%
X443385000Y-187054900D02*
G75*
G03*
X443385000Y-187054900I-5939697J0D01*
G01*
%TO.C,SW11*%
X192940000Y-162010000D02*
G75*
G03*
X192940000Y-162010000I-5939697J0D01*
G01*
%TO.C,SW2*%
X393395000Y-162044900D02*
G75*
G03*
X393395000Y-162044900I-5939697J0D01*
G01*
%TO.C,SW28*%
X167935000Y-187054900D02*
G75*
G03*
X167935000Y-187054900I-5939697J0D01*
G01*
%TO.C,SW23*%
X393400000Y-187040000D02*
G75*
G03*
X393400000Y-187040000I-5939697J0D01*
G01*
%TD*%
D11*
%TO.C,UVU-LINE3*%
X321580000Y-158380000D03*
X321580000Y-157110000D03*
X321580000Y-155840000D03*
X321580000Y-154570000D03*
X321580000Y-153300000D03*
X321580000Y-152030000D03*
X321580000Y-150760000D03*
X321580000Y-149490000D03*
X316430000Y-149490000D03*
X316430000Y-150760000D03*
X316430000Y-152030000D03*
X316430000Y-153300000D03*
X316430000Y-154570000D03*
X316430000Y-155840000D03*
X316430000Y-157110000D03*
X316430000Y-158380000D03*
%TD*%
D12*
%TO.C,D17*%
X296535000Y-154950000D03*
D13*
X293995000Y-154950000D03*
%TD*%
D14*
%TO.C,SW44*%
X428868839Y-274080000D03*
X435368839Y-274080000D03*
X435368839Y-269580000D03*
X428868839Y-269580000D03*
%TD*%
%TO.C,SW19*%
X179570000Y-244690000D03*
X179570000Y-251190000D03*
X184070000Y-244690000D03*
X184070000Y-251190000D03*
%TD*%
%TO.C,RV1*%
X249000000Y-285500000D03*
X249000000Y-252500000D03*
D15*
X245190000Y-241568000D03*
X250270000Y-241568000D03*
X247730000Y-241568000D03*
D16*
X252810000Y-241568000D03*
D15*
X250380000Y-296432000D03*
X245300000Y-296432000D03*
%TD*%
D12*
%TO.C,D14*%
X296530000Y-169960000D03*
D13*
X293990000Y-169960000D03*
%TD*%
D17*
%TO.C,NP2*%
X159555000Y-160504900D03*
X159555000Y-163704900D03*
X164455000Y-163704900D03*
X164455000Y-160504900D03*
%TD*%
D14*
%TO.C,SW8*%
X146400000Y-251010000D03*
X139900000Y-251010000D03*
X139900000Y-255510000D03*
X146400000Y-255510000D03*
%TD*%
D18*
%TO.C,SW22*%
X131130000Y-186959531D03*
D19*
X144330000Y-187070000D03*
%TD*%
D17*
%TO.C,NP19*%
X346150000Y-198100000D03*
X346150000Y-201300000D03*
X351050000Y-201300000D03*
X351050000Y-198100000D03*
%TD*%
D12*
%TO.C,D3*%
X262245000Y-159990000D03*
D13*
X259705000Y-159990000D03*
%TD*%
D20*
%TO.C,REF\u002A\u002A*%
X473000000Y-57000000D03*
D21*
X473000000Y-57000000D03*
%TD*%
D14*
%TO.C,SW21*%
X352030000Y-211390000D03*
X345530000Y-211390000D03*
X345530000Y-206890000D03*
X352030000Y-206890000D03*
%TD*%
D17*
%TO.C,NP13*%
X410065000Y-185510000D03*
X410065000Y-188710000D03*
X414965000Y-188710000D03*
X414965000Y-185510000D03*
%TD*%
D22*
%TO.C,REF\u002A\u002A*%
X149520000Y-162090000D03*
%TD*%
D14*
%TO.C,SW14*%
X316880000Y-225270000D03*
X310380000Y-225270000D03*
X310380000Y-229770000D03*
X316880000Y-229770000D03*
%TD*%
D23*
%TO.C,RV20*%
X136350000Y-68470000D03*
X127550000Y-68470000D03*
D13*
X134450000Y-75470000D03*
X131950000Y-75470000D03*
X129450000Y-75470000D03*
%TD*%
D17*
%TO.C,NP1*%
X134570000Y-160480000D03*
X134570000Y-163680000D03*
X139470000Y-163680000D03*
X139470000Y-160480000D03*
%TD*%
D23*
%TO.C,RV22*%
X210460000Y-68460000D03*
X219260000Y-68460000D03*
D13*
X217360000Y-75460000D03*
X214860000Y-75460000D03*
X212360000Y-75460000D03*
%TD*%
D24*
%TO.C,TB1*%
X170390000Y-212180000D03*
X172930000Y-212180000D03*
X175470000Y-212180000D03*
X178010000Y-212180000D03*
%TD*%
D14*
%TO.C,SW33*%
X169090000Y-85140000D03*
X169090000Y-91640000D03*
X173590000Y-85140000D03*
X173590000Y-91640000D03*
%TD*%
%TO.C,SW25*%
X433840000Y-237250000D03*
X433840000Y-230750000D03*
X429340000Y-237250000D03*
X429340000Y-230750000D03*
%TD*%
%TO.C,RV7*%
X283080000Y-252570000D03*
X283080000Y-285570000D03*
D15*
X284350000Y-241638000D03*
X279270000Y-241638000D03*
D16*
X286890000Y-241638000D03*
D15*
X281810000Y-241638000D03*
X279380000Y-296502000D03*
X284460000Y-296502000D03*
%TD*%
D12*
%TO.C,D38*%
X344265000Y-119500000D03*
D13*
X341725000Y-119500000D03*
%TD*%
D18*
%TO.C,SW1*%
X131120000Y-161959531D03*
D19*
X144320000Y-162070000D03*
%TD*%
D12*
%TO.C,D22*%
X252910000Y-228735000D03*
D13*
X252910000Y-226195000D03*
%TD*%
D12*
%TO.C,D54*%
X189685363Y-270450904D03*
D13*
X189685363Y-272990904D03*
%TD*%
D18*
%TO.C,SW6*%
X156105000Y-161984431D03*
D19*
X169305000Y-162094900D03*
%TD*%
D14*
%TO.C,SW12*%
X181662000Y-296708000D03*
X188162000Y-296708000D03*
X181662000Y-301208000D03*
X188162000Y-301208000D03*
%TD*%
D12*
%TO.C,D46*%
X356255000Y-119510000D03*
D13*
X353715000Y-119510000D03*
%TD*%
D23*
%TO.C,RV8*%
X287400000Y-205550000D03*
X278600000Y-205550000D03*
D13*
X285500000Y-212550000D03*
X283000000Y-212550000D03*
X280500000Y-212550000D03*
%TD*%
D23*
%TO.C,RV12*%
X278610000Y-68440000D03*
X287410000Y-68440000D03*
D13*
X285510000Y-75440000D03*
X283010000Y-75440000D03*
X280510000Y-75440000D03*
%TD*%
D12*
%TO.C,D9*%
X141765000Y-289150000D03*
D13*
X144305000Y-289150000D03*
%TD*%
D12*
%TO.C,D31*%
X330585000Y-164880000D03*
D13*
X328045000Y-164880000D03*
%TD*%
D12*
%TO.C,D1*%
X262265000Y-170020000D03*
D13*
X259725000Y-170020000D03*
%TD*%
D12*
%TO.C,D25*%
X391675000Y-289630000D03*
D13*
X394215000Y-289630000D03*
%TD*%
D12*
%TO.C,D37*%
X330505000Y-134930000D03*
D13*
X327965000Y-134930000D03*
%TD*%
D12*
%TO.C,D49*%
X356185000Y-104450000D03*
D13*
X353645000Y-104450000D03*
%TD*%
D14*
%TO.C,RV23*%
X458100000Y-241720000D03*
X458100000Y-292220000D03*
D15*
X459370000Y-232220000D03*
X454290000Y-232220000D03*
D16*
X461910000Y-232220000D03*
D15*
X456830000Y-232220000D03*
X459400000Y-303120000D03*
X454320000Y-303120000D03*
%TD*%
D22*
%TO.C,REF\u002A\u002A*%
X211980000Y-174570000D03*
%TD*%
D18*
%TO.C,SW38*%
X206125000Y-186974431D03*
D19*
X219325000Y-187084900D03*
%TD*%
D14*
%TO.C,SW4*%
X396260000Y-280960000D03*
X389760000Y-280960000D03*
X396260000Y-285460000D03*
X389760000Y-285460000D03*
%TD*%
%TO.C,SW41*%
X159780000Y-117280000D03*
X159780000Y-110780000D03*
X164280000Y-110780000D03*
X164280000Y-117280000D03*
%TD*%
D12*
%TO.C,D11*%
X135900000Y-89475000D03*
D13*
X135900000Y-86935000D03*
%TD*%
D23*
%TO.C,RV11*%
X278590000Y-102400000D03*
X287390000Y-102400000D03*
D13*
X285490000Y-109400000D03*
X282990000Y-109400000D03*
X280490000Y-109400000D03*
%TD*%
D12*
%TO.C,D41*%
X344225000Y-104500000D03*
D13*
X341685000Y-104500000D03*
%TD*%
D12*
%TO.C,D16*%
X296575000Y-159970000D03*
D13*
X294035000Y-159970000D03*
%TD*%
D25*
%TO.C,SW26*%
X421490000Y-121550000D03*
D14*
X426490000Y-121550000D03*
X423990000Y-121550000D03*
D22*
X429590000Y-114050000D03*
X418390000Y-114050000D03*
D14*
X426490000Y-107050000D03*
X421490000Y-107050000D03*
%TD*%
D22*
%TO.C,REF\u002A\u002A*%
X186980000Y-174580000D03*
%TD*%
D12*
%TO.C,D55*%
X439050000Y-273305000D03*
D13*
X439050000Y-270765000D03*
%TD*%
D12*
%TO.C,D27*%
X386004000Y-86583000D03*
D13*
X386004000Y-89123000D03*
%TD*%
D22*
%TO.C,REF\u002A\u002A*%
X400050000Y-162120000D03*
%TD*%
D12*
%TO.C,D4*%
X262285000Y-155000000D03*
D13*
X259745000Y-155000000D03*
%TD*%
D12*
%TO.C,D30*%
X330535000Y-169890000D03*
D13*
X327995000Y-169890000D03*
%TD*%
D22*
%TO.C,REF\u002A\u002A*%
X387560000Y-174620000D03*
%TD*%
D21*
%TO.C,REF\u002A\u002A*%
X125000000Y-57000000D03*
D20*
X125000000Y-57000000D03*
%TD*%
D12*
%TO.C,D21*%
X296485000Y-134950000D03*
D13*
X293945000Y-134950000D03*
%TD*%
D14*
%TO.C,SW13*%
X438352000Y-296708000D03*
X431852000Y-296708000D03*
X438352000Y-301208000D03*
X431852000Y-301208000D03*
%TD*%
D18*
%TO.C,SW17*%
X206125000Y-161954431D03*
D19*
X219325000Y-162064900D03*
%TD*%
D26*
%TO.C,IC-MPLEX-2*%
X196723000Y-216740000D03*
X197993000Y-216740000D03*
X199263000Y-216740000D03*
X200533000Y-216740000D03*
X201803000Y-216740000D03*
X203073000Y-216740000D03*
X204343000Y-216740000D03*
X205613000Y-216740000D03*
X206883000Y-216740000D03*
X208153000Y-216740000D03*
X209423000Y-216740000D03*
X210693000Y-216740000D03*
X210693000Y-207440000D03*
X209423000Y-207440000D03*
X208153000Y-207440000D03*
X206883000Y-207440000D03*
X205613000Y-207440000D03*
X204343000Y-207440000D03*
X203073000Y-207440000D03*
X201803000Y-207440000D03*
X200533000Y-207440000D03*
X199263000Y-207440000D03*
X197993000Y-207440000D03*
X196723000Y-207440000D03*
%TD*%
D12*
%TO.C,D50*%
X356225000Y-99490000D03*
D13*
X353685000Y-99490000D03*
%TD*%
D14*
%TO.C,SW3*%
X139860000Y-281010000D03*
X146360000Y-281010000D03*
X146360000Y-285510000D03*
X139860000Y-285510000D03*
%TD*%
%TO.C,SW34*%
X423334000Y-91458000D03*
X423334000Y-84958000D03*
X418834000Y-91458000D03*
X418834000Y-84958000D03*
%TD*%
D22*
%TO.C,REF\u002A\u002A*%
X462510000Y-174590000D03*
%TD*%
D14*
%TO.C,SW43*%
X178850000Y-269550000D03*
X185350000Y-269550000D03*
X185350000Y-274050000D03*
X178850000Y-274050000D03*
%TD*%
D23*
%TO.C,RV24*%
X386390000Y-68380000D03*
X377590000Y-68380000D03*
D13*
X384490000Y-75380000D03*
X381990000Y-75380000D03*
X379490000Y-75380000D03*
%TD*%
D12*
%TO.C,D12*%
X178060000Y-89625000D03*
D13*
X178060000Y-87085000D03*
%TD*%
D23*
%TO.C,RV5*%
X253390000Y-102380000D03*
X244590000Y-102380000D03*
D13*
X251490000Y-109380000D03*
X248990000Y-109380000D03*
X246490000Y-109380000D03*
%TD*%
D23*
%TO.C,RV17*%
X321400000Y-102420000D03*
X312600000Y-102420000D03*
D13*
X319500000Y-109420000D03*
X317000000Y-109420000D03*
X314500000Y-109420000D03*
%TD*%
D12*
%TO.C,D8*%
X262245000Y-135010000D03*
D13*
X259705000Y-135010000D03*
%TD*%
D18*
%TO.C,SW7*%
X406585000Y-161984431D03*
D19*
X419785000Y-162094900D03*
%TD*%
D17*
%TO.C,NP7*%
X184555000Y-185504900D03*
X184555000Y-188704900D03*
X189455000Y-188704900D03*
X189455000Y-185504900D03*
%TD*%
D12*
%TO.C,D44*%
X344210000Y-89520000D03*
D13*
X341670000Y-89520000D03*
%TD*%
D27*
%TO.C,U-LEDS1*%
X210755000Y-142225000D03*
X212025000Y-142225000D03*
X213295000Y-142225000D03*
X214565000Y-142225000D03*
X215835000Y-142225000D03*
X217105000Y-142225000D03*
X218375000Y-142225000D03*
X219645000Y-142225000D03*
X219645000Y-137075000D03*
X218375000Y-137075000D03*
X217105000Y-137075000D03*
X215835000Y-137075000D03*
X214565000Y-137075000D03*
X213295000Y-137075000D03*
X212025000Y-137075000D03*
X210755000Y-137075000D03*
%TD*%
D12*
%TO.C,D48*%
X356225000Y-109500000D03*
D13*
X353685000Y-109500000D03*
%TD*%
D12*
%TO.C,D35*%
X330535000Y-144890000D03*
D13*
X327995000Y-144890000D03*
%TD*%
D12*
%TO.C,D13*%
X218910000Y-89545000D03*
D13*
X218910000Y-87005000D03*
%TD*%
D22*
%TO.C,REF\u002A\u002A*%
X450000000Y-162100000D03*
%TD*%
D14*
%TO.C,SW9*%
X396380000Y-251080000D03*
X389880000Y-251080000D03*
X389880000Y-255580000D03*
X396380000Y-255580000D03*
%TD*%
D23*
%TO.C,RV25*%
X428410000Y-68390000D03*
X419610000Y-68390000D03*
D13*
X426510000Y-75390000D03*
X424010000Y-75390000D03*
X421510000Y-75390000D03*
%TD*%
D14*
%TO.C,SW36*%
X209870000Y-91680000D03*
X209870000Y-85180000D03*
X214370000Y-85180000D03*
X214370000Y-91680000D03*
%TD*%
D12*
%TO.C,D20*%
X296435000Y-139960000D03*
D13*
X293895000Y-139960000D03*
%TD*%
D23*
%TO.C,RV10*%
X278600000Y-136430000D03*
X287400000Y-136430000D03*
D13*
X285500000Y-143430000D03*
X283000000Y-143430000D03*
X280500000Y-143430000D03*
%TD*%
D14*
%TO.C,SW42*%
X409840000Y-117230000D03*
X409840000Y-110730000D03*
X414340000Y-117230000D03*
X414340000Y-110730000D03*
%TD*%
D12*
%TO.C,D53*%
X356195000Y-84490000D03*
D13*
X353655000Y-84490000D03*
%TD*%
D18*
%TO.C,SW35*%
X456605000Y-186964431D03*
D19*
X469805000Y-187074900D03*
%TD*%
D18*
%TO.C,SW18*%
X456610000Y-161949531D03*
D19*
X469810000Y-162060000D03*
%TD*%
D14*
%TO.C,RV13*%
X316970000Y-285450000D03*
X316970000Y-252450000D03*
D15*
X318240000Y-241518000D03*
X313160000Y-241518000D03*
X315700000Y-241518000D03*
D16*
X320780000Y-241518000D03*
D15*
X318350000Y-296382000D03*
X313270000Y-296382000D03*
%TD*%
D12*
%TO.C,D43*%
X344260000Y-94470000D03*
D13*
X341720000Y-94470000D03*
%TD*%
D28*
%TO.C,XA1*%
X399957500Y-74315000D03*
X399957500Y-81935000D03*
X399957500Y-84475000D03*
X448217500Y-140355000D03*
X448217500Y-142895000D03*
X399957500Y-97175000D03*
X399957500Y-99715000D03*
X399957500Y-102255000D03*
X399957500Y-104795000D03*
X399957500Y-107335000D03*
X399957500Y-109875000D03*
X399957500Y-112415000D03*
X399957500Y-114955000D03*
X399957500Y-120035000D03*
X399957500Y-122575000D03*
X399957500Y-125115000D03*
X399957500Y-127655000D03*
X399957500Y-130195000D03*
X399957500Y-132735000D03*
X399957500Y-135275000D03*
X399957500Y-137815000D03*
X448217500Y-70251000D03*
X448217500Y-109875000D03*
X448217500Y-107335000D03*
X448217500Y-104795000D03*
X448217500Y-102255000D03*
X448217500Y-99715000D03*
X448217500Y-97175000D03*
X448217500Y-94635000D03*
X448217500Y-92095000D03*
X448217500Y-88031000D03*
X448217500Y-85491000D03*
X448217500Y-82951000D03*
X448217500Y-80411000D03*
X448217500Y-77871000D03*
X448217500Y-75331000D03*
X448217500Y-114955000D03*
X448217500Y-117495000D03*
X448217500Y-120035000D03*
X448217500Y-122575000D03*
X448217500Y-125115000D03*
X448217500Y-127655000D03*
X448217500Y-130195000D03*
X448217500Y-132735000D03*
X445677500Y-140355000D03*
X445677500Y-142895000D03*
X443137500Y-140355000D03*
X443137500Y-142895000D03*
X440597500Y-140355000D03*
X440597500Y-142895000D03*
X438057500Y-140355000D03*
X438057500Y-142895000D03*
X435517500Y-140355000D03*
X435517500Y-142895000D03*
X432977500Y-140355000D03*
X432977500Y-142895000D03*
X430437500Y-140355000D03*
X430437500Y-142895000D03*
X427897500Y-140355000D03*
X427897500Y-142895000D03*
X425357500Y-140355000D03*
X425357500Y-142895000D03*
X422817500Y-140355000D03*
X422817500Y-142895000D03*
X420277500Y-140355000D03*
X420277500Y-142895000D03*
X417737500Y-140355000D03*
X417737500Y-142895000D03*
X415197500Y-140355000D03*
X415197500Y-142895000D03*
X412657500Y-140355000D03*
X412657500Y-142895000D03*
X410117500Y-140355000D03*
X410117500Y-142895000D03*
X407577500Y-140355000D03*
X407577500Y-142895000D03*
X448217500Y-72791000D03*
X399957500Y-87015000D03*
X399957500Y-89555000D03*
X405037500Y-140355000D03*
X405037500Y-142895000D03*
X399957500Y-76855000D03*
X399957500Y-79395000D03*
X448217500Y-65171000D03*
X448217500Y-67711000D03*
X399957500Y-92095000D03*
%TD*%
D23*
%TO.C,RV18*%
X312610000Y-68380000D03*
X321410000Y-68380000D03*
D13*
X319510000Y-75380000D03*
X317010000Y-75380000D03*
X314510000Y-75380000D03*
%TD*%
D14*
%TO.C,SW30*%
X377130000Y-85110000D03*
X377130000Y-91610000D03*
X381630000Y-85110000D03*
X381630000Y-91610000D03*
%TD*%
D22*
%TO.C,REF\u002A\u002A*%
X137030000Y-174600000D03*
%TD*%
D11*
%TO.C,U-LEDSR1*%
X351275000Y-159145000D03*
X351275000Y-157875000D03*
X351275000Y-156605000D03*
X351275000Y-155335000D03*
X351275000Y-154065000D03*
X351275000Y-152795000D03*
X351275000Y-151525000D03*
X351275000Y-150255000D03*
X346125000Y-150255000D03*
X346125000Y-151525000D03*
X346125000Y-152795000D03*
X346125000Y-154065000D03*
X346125000Y-155335000D03*
X346125000Y-156605000D03*
X346125000Y-157875000D03*
X346125000Y-159145000D03*
%TD*%
D23*
%TO.C,RV9*%
X287370000Y-170460000D03*
X278570000Y-170460000D03*
D13*
X285470000Y-177460000D03*
X282970000Y-177460000D03*
X280470000Y-177460000D03*
%TD*%
D14*
%TO.C,SW37*%
X459824000Y-91528000D03*
X459824000Y-85028000D03*
X464324000Y-85028000D03*
X464324000Y-91528000D03*
%TD*%
D22*
%TO.C,REF\u002A\u002A*%
X162020000Y-174580000D03*
%TD*%
D17*
%TO.C,NP5*%
X134580000Y-185460000D03*
X134580000Y-188660000D03*
X139480000Y-188660000D03*
X139480000Y-185460000D03*
%TD*%
D29*
%TO.C,NP9*%
X187830000Y-236270000D03*
X191030000Y-236270000D03*
X191030000Y-231370000D03*
X187830000Y-231370000D03*
%TD*%
D23*
%TO.C,RV4*%
X253350000Y-136330000D03*
X244550000Y-136330000D03*
D13*
X251450000Y-143330000D03*
X248950000Y-143330000D03*
X246450000Y-143330000D03*
%TD*%
D17*
%TO.C,NP16*%
X435055000Y-160494900D03*
X435055000Y-163694900D03*
X439955000Y-163694900D03*
X439955000Y-160494900D03*
%TD*%
%TO.C,NP3*%
X184590000Y-160460000D03*
X184590000Y-163660000D03*
X189490000Y-163660000D03*
X189490000Y-160460000D03*
%TD*%
%TO.C,NP14*%
X385050000Y-185470000D03*
X385050000Y-188670000D03*
X389950000Y-188670000D03*
X389950000Y-185470000D03*
%TD*%
D12*
%TO.C,D26*%
X391663000Y-259842000D03*
D13*
X394203000Y-259842000D03*
%TD*%
D14*
%TO.C,SW39*%
X188270000Y-110770000D03*
X188270000Y-117270000D03*
X183770000Y-110770000D03*
X183770000Y-117270000D03*
%TD*%
D22*
%TO.C,REF\u002A\u002A*%
X412550000Y-174620000D03*
%TD*%
D17*
%TO.C,NP8*%
X209590000Y-185480000D03*
X209590000Y-188680000D03*
X214490000Y-188680000D03*
X214490000Y-185480000D03*
%TD*%
%TO.C,NP12*%
X435030000Y-185490000D03*
X435030000Y-188690000D03*
X439930000Y-188690000D03*
X439930000Y-185490000D03*
%TD*%
D29*
%TO.C,NP10*%
X187840000Y-250170000D03*
X191040000Y-250170000D03*
X191040000Y-245270000D03*
X187840000Y-245270000D03*
%TD*%
D12*
%TO.C,D32*%
X330555000Y-159890000D03*
D13*
X328015000Y-159890000D03*
%TD*%
D20*
%TO.C,REF\u002A\u002A*%
X125000000Y-305000000D03*
D21*
X125000000Y-305000000D03*
%TD*%
D22*
%TO.C,REF\u002A\u002A*%
X400060000Y-187090000D03*
%TD*%
D14*
%TO.C,RV19*%
X208170000Y-292300000D03*
X208170000Y-241800000D03*
D15*
X209440000Y-232300000D03*
X204360000Y-232300000D03*
X206900000Y-232300000D03*
D16*
X211980000Y-232300000D03*
D15*
X209470000Y-303200000D03*
X204390000Y-303200000D03*
%TD*%
D23*
%TO.C,RV14*%
X321400000Y-205450000D03*
X312600000Y-205450000D03*
D13*
X319500000Y-212450000D03*
X317000000Y-212450000D03*
X314500000Y-212450000D03*
%TD*%
D21*
%TO.C,REF\u002A\u002A*%
X473000000Y-305000000D03*
D20*
X473000000Y-305000000D03*
%TD*%
D23*
%TO.C,RV28*%
X344570000Y-251400000D03*
X353370000Y-251400000D03*
D13*
X351470000Y-258400000D03*
X348970000Y-258400000D03*
X346470000Y-258400000D03*
%TD*%
D12*
%TO.C,D10*%
X141925000Y-259090000D03*
D13*
X144465000Y-259090000D03*
%TD*%
D22*
%TO.C,REF\u002A\u002A*%
X437510000Y-174610000D03*
%TD*%
D12*
%TO.C,D29*%
X468564000Y-86883000D03*
D13*
X468564000Y-89423000D03*
%TD*%
D12*
%TO.C,D23*%
X286940000Y-228735000D03*
D13*
X286940000Y-226195000D03*
%TD*%
D12*
%TO.C,D6*%
X262270000Y-145010000D03*
D13*
X259730000Y-145010000D03*
%TD*%
D23*
%TO.C,RV27*%
X344610000Y-284440000D03*
X353410000Y-284440000D03*
D13*
X351510000Y-291440000D03*
X349010000Y-291440000D03*
X346510000Y-291440000D03*
%TD*%
D12*
%TO.C,D24*%
X321080000Y-228915000D03*
D13*
X321080000Y-226375000D03*
%TD*%
D18*
%TO.C,SW15*%
X431605000Y-161974431D03*
D19*
X444805000Y-162084900D03*
%TD*%
D23*
%TO.C,RV6*%
X253360000Y-68370000D03*
X244560000Y-68370000D03*
D13*
X251460000Y-75370000D03*
X248960000Y-75370000D03*
X246460000Y-75370000D03*
%TD*%
D29*
%TO.C,NP20*%
X437630000Y-236190000D03*
X440830000Y-236190000D03*
X440830000Y-231290000D03*
X437630000Y-231290000D03*
%TD*%
D12*
%TO.C,D33*%
X330555000Y-154880000D03*
D13*
X328015000Y-154880000D03*
%TD*%
D12*
%TO.C,D47*%
X356195000Y-114480000D03*
D13*
X353655000Y-114480000D03*
%TD*%
D23*
%TO.C,RV29*%
X344600000Y-136460000D03*
X353400000Y-136460000D03*
D13*
X351500000Y-143460000D03*
X349000000Y-143460000D03*
X346500000Y-143460000D03*
%TD*%
D12*
%TO.C,D36*%
X330485000Y-139860000D03*
D13*
X327945000Y-139860000D03*
%TD*%
D18*
%TO.C,SW32*%
X181105000Y-186984431D03*
D19*
X194305000Y-187094900D03*
%TD*%
D12*
%TO.C,D34*%
X330535000Y-149870000D03*
D13*
X327995000Y-149870000D03*
%TD*%
D17*
%TO.C,NP4*%
X209575000Y-160474900D03*
X209575000Y-163674900D03*
X214475000Y-163674900D03*
X214475000Y-160474900D03*
%TD*%
D12*
%TO.C,D18*%
X296555000Y-149950000D03*
D13*
X294015000Y-149950000D03*
%TD*%
D22*
%TO.C,REF\u002A\u002A*%
X199470000Y-162080000D03*
%TD*%
D12*
%TO.C,D15*%
X296575000Y-164990000D03*
D13*
X294035000Y-164990000D03*
%TD*%
D14*
%TO.C,SW10*%
X282880000Y-225270000D03*
X276380000Y-225270000D03*
X282880000Y-229770000D03*
X276380000Y-229770000D03*
%TD*%
D30*
%TO.C,UVU-MASTER-L1*%
X338801000Y-69455000D03*
X338801000Y-70725000D03*
X338801000Y-71995000D03*
X338801000Y-73265000D03*
X338801000Y-74535000D03*
X338801000Y-75805000D03*
X338801000Y-77075000D03*
X338801000Y-78345000D03*
X343951000Y-78345000D03*
X343951000Y-77075000D03*
X343951000Y-75805000D03*
X343951000Y-74535000D03*
X343951000Y-73265000D03*
X343951000Y-71995000D03*
X343951000Y-70725000D03*
X343951000Y-69455000D03*
%TD*%
D23*
%TO.C,RV15*%
X312700000Y-170400000D03*
X321500000Y-170400000D03*
D13*
X319600000Y-177400000D03*
X317100000Y-177400000D03*
X314600000Y-177400000D03*
%TD*%
D17*
%TO.C,NP6*%
X159585000Y-185504900D03*
X159585000Y-188704900D03*
X164485000Y-188704900D03*
X164485000Y-185504900D03*
%TD*%
D24*
%TO.C,TB2*%
X421390000Y-212180000D03*
X423930000Y-212180000D03*
X426470000Y-212180000D03*
X429010000Y-212180000D03*
%TD*%
D31*
%TO.C,IC-MPLEX-1*%
X295578000Y-204851000D03*
X295578000Y-206121000D03*
X295578000Y-207391000D03*
X295578000Y-208661000D03*
X295578000Y-209931000D03*
X295578000Y-211201000D03*
X295578000Y-212471000D03*
X295578000Y-213741000D03*
X295578000Y-215011000D03*
X295578000Y-216281000D03*
X295578000Y-217551000D03*
X295578000Y-218821000D03*
X304878000Y-218821000D03*
X304878000Y-217551000D03*
X304878000Y-216281000D03*
X304878000Y-215011000D03*
X304878000Y-213741000D03*
X304878000Y-212471000D03*
X304878000Y-211201000D03*
X304878000Y-209931000D03*
X304878000Y-208661000D03*
X304878000Y-207391000D03*
X304878000Y-206121000D03*
X304878000Y-204851000D03*
%TD*%
D17*
%TO.C,NP11*%
X460055000Y-185484900D03*
X460055000Y-188684900D03*
X464955000Y-188684900D03*
X464955000Y-185484900D03*
%TD*%
D30*
%TO.C,UVU-MASTER-R1*%
X354295000Y-69469000D03*
X354295000Y-70739000D03*
X354295000Y-72009000D03*
X354295000Y-73279000D03*
X354295000Y-74549000D03*
X354295000Y-75819000D03*
X354295000Y-77089000D03*
X354295000Y-78359000D03*
X359445000Y-78359000D03*
X359445000Y-77089000D03*
X359445000Y-75819000D03*
X359445000Y-74549000D03*
X359445000Y-73279000D03*
X359445000Y-72009000D03*
X359445000Y-70739000D03*
X359445000Y-69469000D03*
%TD*%
D23*
%TO.C,RV21*%
X169570000Y-68480000D03*
X178370000Y-68480000D03*
D13*
X176470000Y-75480000D03*
X173970000Y-75480000D03*
X171470000Y-75480000D03*
%TD*%
D12*
%TO.C,D40*%
X344305000Y-109520000D03*
D13*
X341765000Y-109520000D03*
%TD*%
D14*
%TO.C,SW20*%
X429320000Y-251200000D03*
X429320000Y-244700000D03*
X433820000Y-244700000D03*
X433820000Y-251200000D03*
%TD*%
D12*
%TO.C,D7*%
X262245000Y-140010000D03*
D13*
X259705000Y-140010000D03*
%TD*%
D17*
%TO.C,NP17*%
X410035000Y-160504900D03*
X410035000Y-163704900D03*
X414935000Y-163704900D03*
X414935000Y-160504900D03*
%TD*%
D12*
%TO.C,D51*%
X356225000Y-94480000D03*
D13*
X353685000Y-94480000D03*
%TD*%
D12*
%TO.C,D39*%
X344275000Y-114460000D03*
D13*
X341735000Y-114460000D03*
%TD*%
D17*
%TO.C,NP15*%
X460060000Y-160470000D03*
X460060000Y-163670000D03*
X464960000Y-163670000D03*
X464960000Y-160470000D03*
%TD*%
D18*
%TO.C,SW27*%
X406615000Y-186974431D03*
D19*
X419815000Y-187084900D03*
%TD*%
D23*
%TO.C,RV2*%
X253410000Y-205350000D03*
X244610000Y-205350000D03*
D13*
X251510000Y-212350000D03*
X249010000Y-212350000D03*
X246510000Y-212350000D03*
%TD*%
D12*
%TO.C,D19*%
X296495000Y-144960000D03*
D13*
X293955000Y-144960000D03*
%TD*%
D23*
%TO.C,RV16*%
X312590000Y-136480000D03*
X321390000Y-136480000D03*
D13*
X319490000Y-143480000D03*
X316990000Y-143480000D03*
X314490000Y-143480000D03*
%TD*%
D12*
%TO.C,D42*%
X344255000Y-99490000D03*
D13*
X341715000Y-99490000D03*
%TD*%
D18*
%TO.C,SW31*%
X431585000Y-186984431D03*
D19*
X444785000Y-187094900D03*
%TD*%
D11*
%TO.C,UVU-LINE1*%
X253905000Y-157945000D03*
X253905000Y-156675000D03*
X253905000Y-155405000D03*
X253905000Y-154135000D03*
X253905000Y-152865000D03*
X253905000Y-151595000D03*
X253905000Y-150325000D03*
X253905000Y-149055000D03*
X248755000Y-149055000D03*
X248755000Y-150325000D03*
X248755000Y-151595000D03*
X248755000Y-152865000D03*
X248755000Y-154135000D03*
X248755000Y-155405000D03*
X248755000Y-156675000D03*
X248755000Y-157945000D03*
%TD*%
%TO.C,UVU-LINE2*%
X288425000Y-157895000D03*
X288425000Y-156625000D03*
X288425000Y-155355000D03*
X288425000Y-154085000D03*
X288425000Y-152815000D03*
X288425000Y-151545000D03*
X288425000Y-150275000D03*
X288425000Y-149005000D03*
X283275000Y-149005000D03*
X283275000Y-150275000D03*
X283275000Y-151545000D03*
X283275000Y-152815000D03*
X283275000Y-154085000D03*
X283275000Y-155355000D03*
X283275000Y-156625000D03*
X283275000Y-157895000D03*
%TD*%
D18*
%TO.C,SW11*%
X181140000Y-161939531D03*
D19*
X194340000Y-162050000D03*
%TD*%
D12*
%TO.C,D5*%
X262305000Y-150000000D03*
D13*
X259765000Y-150000000D03*
%TD*%
D12*
%TO.C,D28*%
X427554000Y-86928000D03*
D13*
X427554000Y-89468000D03*
%TD*%
D18*
%TO.C,SW2*%
X381595000Y-161974431D03*
D19*
X394795000Y-162084900D03*
%TD*%
D14*
%TO.C,SW40*%
X438050000Y-117270000D03*
X438050000Y-110770000D03*
X433550000Y-117270000D03*
X433550000Y-110770000D03*
%TD*%
D18*
%TO.C,SW28*%
X156135000Y-186984431D03*
D19*
X169335000Y-187094900D03*
%TD*%
D12*
%TO.C,D52*%
X356165000Y-89470000D03*
D13*
X353625000Y-89470000D03*
%TD*%
D25*
%TO.C,SW16*%
X176500000Y-106530000D03*
D14*
X171500000Y-106530000D03*
X174000000Y-106530000D03*
D22*
X179600000Y-114030000D03*
X168400000Y-114030000D03*
D14*
X171500000Y-121030000D03*
X176500000Y-121030000D03*
%TD*%
D18*
%TO.C,SW23*%
X381600000Y-186969531D03*
D19*
X394800000Y-187080000D03*
%TD*%
D29*
%TO.C,NP21*%
X437670000Y-250360000D03*
X440870000Y-250360000D03*
X440870000Y-245460000D03*
X437670000Y-245460000D03*
%TD*%
D22*
%TO.C,REF\u002A\u002A*%
X149520000Y-187070000D03*
%TD*%
D12*
%TO.C,D2*%
X262225000Y-165010000D03*
D13*
X259685000Y-165010000D03*
%TD*%
D14*
%TO.C,SW24*%
X179600000Y-230750000D03*
X179600000Y-237250000D03*
X184100000Y-230750000D03*
X184100000Y-237250000D03*
%TD*%
D22*
%TO.C,REF\u002A\u002A*%
X450020000Y-187090000D03*
%TD*%
D14*
%TO.C,SW5*%
X242370000Y-225220000D03*
X248870000Y-225220000D03*
X248870000Y-229720000D03*
X242370000Y-229720000D03*
%TD*%
D22*
%TO.C,REF\u002A\u002A*%
X199490000Y-187060000D03*
%TD*%
D12*
%TO.C,D45*%
X344205000Y-84520000D03*
D13*
X341665000Y-84520000D03*
%TD*%
D14*
%TO.C,SW29*%
X127080000Y-85150000D03*
X127080000Y-91650000D03*
X131580000Y-85150000D03*
X131580000Y-91650000D03*
%TD*%
D23*
%TO.C,RV3*%
X253380000Y-170420000D03*
X244580000Y-170420000D03*
D13*
X251480000Y-177420000D03*
X248980000Y-177420000D03*
X246480000Y-177420000D03*
%TD*%
D23*
%TO.C,RV26*%
X460570000Y-68330000D03*
X469370000Y-68330000D03*
D13*
X467470000Y-75330000D03*
X464970000Y-75330000D03*
X462470000Y-75330000D03*
%TD*%
D17*
%TO.C,NP18*%
X385060000Y-160490000D03*
X385060000Y-163690000D03*
X389960000Y-163690000D03*
X389960000Y-160490000D03*
%TD*%
M02*
