%FSLAX45Y45*%
G04 Gerber Fmt 4.5, Leading zero omitted, Abs format (unit mm)*
G04 Created by KiCad (PCBNEW (5.99.0-11071-g7fde05e8ee)) date 2021-06-18 03:58:45*
%MOMM*%
%LPD*%
G01*
G04 APERTURE LIST*
%TA.AperFunction,Profile*%
%ADD10C,0.150000*%
%TD*%
%ADD11C,0.200000*%
%ADD12C,0.320000*%
G04 APERTURE END LIST*
D10*
X47900000Y-31100000D02*
X11900000Y-31100000D01*
X11900000Y-31100000D02*
X11900000Y-5100000D01*
X47900000Y-5100000D02*
X47900000Y-31100000D01*
X11900000Y-5100000D02*
X47900000Y-5100000D01*
D11*
X12655000Y-6747000D02*
X12855000Y-6947000D01*
X12855000Y-6747000D02*
X12655000Y-6947000D01*
X13535000Y-6747000D02*
X13735000Y-6947000D01*
X13735000Y-6747000D02*
X13535000Y-6947000D01*
X16857000Y-6748000D02*
X17057000Y-6948000D01*
X17057000Y-6748000D02*
X16857000Y-6948000D01*
X17737000Y-6748000D02*
X17937000Y-6948000D01*
X17937000Y-6748000D02*
X17737000Y-6948000D01*
X20946000Y-6746000D02*
X21146000Y-6946000D01*
X21146000Y-6746000D02*
X20946000Y-6946000D01*
X21826000Y-6746000D02*
X22026000Y-6946000D01*
X22026000Y-6746000D02*
X21826000Y-6946000D01*
X24355000Y-13533000D02*
X24555000Y-13733000D01*
X24555000Y-13533000D02*
X24355000Y-13733000D01*
X24356000Y-6737000D02*
X24556000Y-6937000D01*
X24556000Y-6737000D02*
X24356000Y-6937000D01*
X24358000Y-16942000D02*
X24558000Y-17142000D01*
X24558000Y-16942000D02*
X24358000Y-17142000D01*
X24359000Y-10138000D02*
X24559000Y-10338000D01*
X24559000Y-10138000D02*
X24359000Y-10338000D01*
X24361000Y-20435000D02*
X24561000Y-20635000D01*
X24561000Y-20435000D02*
X24361000Y-20635000D01*
X25235000Y-13533000D02*
X25435000Y-13733000D01*
X25435000Y-13533000D02*
X25235000Y-13733000D01*
X25236000Y-6737000D02*
X25436000Y-6937000D01*
X25436000Y-6737000D02*
X25236000Y-6937000D01*
X25238000Y-16942000D02*
X25438000Y-17142000D01*
X25438000Y-16942000D02*
X25238000Y-17142000D01*
X25239000Y-10138000D02*
X25439000Y-10338000D01*
X25439000Y-10138000D02*
X25239000Y-10338000D01*
X25241000Y-20435000D02*
X25441000Y-20635000D01*
X25441000Y-20435000D02*
X25241000Y-20635000D01*
X27757000Y-16946000D02*
X27957000Y-17146000D01*
X27957000Y-16946000D02*
X27757000Y-17146000D01*
X27759000Y-10140000D02*
X27959000Y-10340000D01*
X27959000Y-10140000D02*
X27759000Y-10340000D01*
X27760000Y-13543000D02*
X27960000Y-13743000D01*
X27960000Y-13543000D02*
X27760000Y-13743000D01*
X27760000Y-20455000D02*
X27960000Y-20655000D01*
X27960000Y-20455000D02*
X27760000Y-20655000D01*
X27761000Y-6744000D02*
X27961000Y-6944000D01*
X27961000Y-6744000D02*
X27761000Y-6944000D01*
X28637000Y-16946000D02*
X28837000Y-17146000D01*
X28837000Y-16946000D02*
X28637000Y-17146000D01*
X28639000Y-10140000D02*
X28839000Y-10340000D01*
X28839000Y-10140000D02*
X28639000Y-10340000D01*
X28640000Y-13543000D02*
X28840000Y-13743000D01*
X28840000Y-13543000D02*
X28640000Y-13743000D01*
X28640000Y-20455000D02*
X28840000Y-20655000D01*
X28840000Y-20455000D02*
X28640000Y-20655000D01*
X28641000Y-6744000D02*
X28841000Y-6944000D01*
X28841000Y-6744000D02*
X28641000Y-6944000D01*
X31159000Y-13548000D02*
X31359000Y-13748000D01*
X31359000Y-13548000D02*
X31159000Y-13748000D01*
X31160000Y-10142000D02*
X31360000Y-10342000D01*
X31360000Y-10142000D02*
X31160000Y-10342000D01*
X31160000Y-20445000D02*
X31360000Y-20645000D01*
X31360000Y-20445000D02*
X31160000Y-20645000D01*
X31161000Y-6738000D02*
X31361000Y-6938000D01*
X31361000Y-6738000D02*
X31161000Y-6938000D01*
X31170000Y-16940000D02*
X31370000Y-17140000D01*
X31370000Y-16940000D02*
X31170000Y-17140000D01*
X32039000Y-13548000D02*
X32239000Y-13748000D01*
X32239000Y-13548000D02*
X32039000Y-13748000D01*
X32040000Y-10142000D02*
X32240000Y-10342000D01*
X32240000Y-10142000D02*
X32040000Y-10342000D01*
X32040000Y-20445000D02*
X32240000Y-20645000D01*
X32240000Y-20445000D02*
X32040000Y-20645000D01*
X32041000Y-6738000D02*
X32241000Y-6938000D01*
X32241000Y-6738000D02*
X32041000Y-6938000D01*
X32050000Y-16940000D02*
X32250000Y-17140000D01*
X32250000Y-16940000D02*
X32050000Y-17140000D01*
X34357000Y-25040000D02*
X34557000Y-25240000D01*
X34557000Y-25040000D02*
X34357000Y-25240000D01*
X34360000Y-13546000D02*
X34560000Y-13746000D01*
X34560000Y-13546000D02*
X34360000Y-13746000D01*
X34361000Y-28344000D02*
X34561000Y-28544000D01*
X34561000Y-28344000D02*
X34361000Y-28544000D01*
X35237000Y-25040000D02*
X35437000Y-25240000D01*
X35437000Y-25040000D02*
X35237000Y-25240000D01*
X35240000Y-13546000D02*
X35440000Y-13746000D01*
X35440000Y-13546000D02*
X35240000Y-13746000D01*
X35241000Y-28344000D02*
X35441000Y-28544000D01*
X35441000Y-28344000D02*
X35241000Y-28544000D01*
X37659000Y-6738000D02*
X37859000Y-6938000D01*
X37859000Y-6738000D02*
X37659000Y-6938000D01*
X38539000Y-6738000D02*
X38739000Y-6938000D01*
X38739000Y-6738000D02*
X38539000Y-6938000D01*
X41861000Y-6739000D02*
X42061000Y-6939000D01*
X42061000Y-6739000D02*
X41861000Y-6939000D01*
X42741000Y-6739000D02*
X42941000Y-6939000D01*
X42941000Y-6739000D02*
X42741000Y-6939000D01*
X45957000Y-6733000D02*
X46157000Y-6933000D01*
X46157000Y-6733000D02*
X45957000Y-6933000D01*
X46837000Y-6733000D02*
X47037000Y-6933000D01*
X47037000Y-6733000D02*
X46837000Y-6933000D01*
D12*
X13863000Y-17460000D02*
G75*
G03*
X13863000Y-17460000I-160000J0D01*
G01*
X15112000Y-16209000D02*
G75*
G03*
X15112000Y-16209000I-160000J0D01*
G01*
X15112000Y-18707000D02*
G75*
G03*
X15112000Y-18707000I-160000J0D01*
G01*
X16362000Y-17458000D02*
G75*
G03*
X16362000Y-17458000I-160000J0D01*
G01*
X18858000Y-17458000D02*
G75*
G03*
X18858000Y-17458000I-160000J0D01*
G01*
X20107000Y-16208000D02*
G75*
G03*
X20107000Y-16208000I-160000J0D01*
G01*
X20109000Y-18706000D02*
G75*
G03*
X20109000Y-18706000I-160000J0D01*
G01*
X21358000Y-17457000D02*
G75*
G03*
X21358000Y-17457000I-160000J0D01*
G01*
X38916000Y-17462000D02*
G75*
G03*
X38916000Y-17462000I-160000J0D01*
G01*
X40165000Y-16212000D02*
G75*
G03*
X40165000Y-16212000I-160000J0D01*
G01*
X40166000Y-18709000D02*
G75*
G03*
X40166000Y-18709000I-160000J0D01*
G01*
X41415000Y-17462000D02*
G75*
G03*
X41415000Y-17462000I-160000J0D01*
G01*
X43911000Y-17461000D02*
G75*
G03*
X43911000Y-17461000I-160000J0D01*
G01*
X45160000Y-16210000D02*
G75*
G03*
X45160000Y-16210000I-160000J0D01*
G01*
X45162000Y-18709000D02*
G75*
G03*
X45162000Y-18709000I-160000J0D01*
G01*
X46411000Y-17459000D02*
G75*
G03*
X46411000Y-17459000I-160000J0D01*
G01*
D11*
X12150119Y-31417976D02*
X12150119Y-31217976D01*
X12197738Y-31217976D01*
X12226309Y-31227500D01*
X12245357Y-31246548D01*
X12254881Y-31265595D01*
X12264405Y-31303690D01*
X12264405Y-31332262D01*
X12254881Y-31370357D01*
X12245357Y-31389405D01*
X12226309Y-31408452D01*
X12197738Y-31417976D01*
X12150119Y-31417976D01*
X12350119Y-31417976D02*
X12350119Y-31284643D01*
X12350119Y-31322738D02*
X12359643Y-31303690D01*
X12369167Y-31294167D01*
X12388214Y-31284643D01*
X12407262Y-31284643D01*
X12473928Y-31417976D02*
X12473928Y-31284643D01*
X12473928Y-31217976D02*
X12464405Y-31227500D01*
X12473928Y-31237024D01*
X12483452Y-31227500D01*
X12473928Y-31217976D01*
X12473928Y-31237024D01*
X12597738Y-31417976D02*
X12578690Y-31408452D01*
X12569167Y-31389405D01*
X12569167Y-31217976D01*
X12702500Y-31417976D02*
X12683452Y-31408452D01*
X12673928Y-31389405D01*
X12673928Y-31217976D01*
X12931071Y-31417976D02*
X12931071Y-31217976D01*
X12997738Y-31360833D01*
X13064405Y-31217976D01*
X13064405Y-31417976D01*
X13245357Y-31417976D02*
X13245357Y-31313214D01*
X13235833Y-31294167D01*
X13216786Y-31284643D01*
X13178690Y-31284643D01*
X13159643Y-31294167D01*
X13245357Y-31408452D02*
X13226309Y-31417976D01*
X13178690Y-31417976D01*
X13159643Y-31408452D01*
X13150119Y-31389405D01*
X13150119Y-31370357D01*
X13159643Y-31351309D01*
X13178690Y-31341786D01*
X13226309Y-31341786D01*
X13245357Y-31332262D01*
X13340595Y-31284643D02*
X13340595Y-31484643D01*
X13340595Y-31294167D02*
X13359643Y-31284643D01*
X13397738Y-31284643D01*
X13416786Y-31294167D01*
X13426309Y-31303690D01*
X13435833Y-31322738D01*
X13435833Y-31379881D01*
X13426309Y-31398928D01*
X13416786Y-31408452D01*
X13397738Y-31417976D01*
X13359643Y-31417976D01*
X13340595Y-31408452D01*
X13521548Y-31398928D02*
X13531071Y-31408452D01*
X13521548Y-31417976D01*
X13512024Y-31408452D01*
X13521548Y-31398928D01*
X13521548Y-31417976D01*
X13521548Y-31294167D02*
X13531071Y-31303690D01*
X13521548Y-31313214D01*
X13512024Y-31303690D01*
X13521548Y-31294167D01*
X13521548Y-31313214D01*
X11692500Y-31647500D02*
X11892500Y-31847500D01*
X11892500Y-31647500D02*
X11692500Y-31847500D01*
X12140595Y-31657024D02*
X12150119Y-31647500D01*
X12169167Y-31637976D01*
X12216786Y-31637976D01*
X12235833Y-31647500D01*
X12245357Y-31657024D01*
X12254881Y-31676071D01*
X12254881Y-31695119D01*
X12245357Y-31723690D01*
X12131071Y-31837976D01*
X12254881Y-31837976D01*
X12340595Y-31818928D02*
X12350119Y-31828452D01*
X12340595Y-31837976D01*
X12331071Y-31828452D01*
X12340595Y-31818928D01*
X12340595Y-31837976D01*
X12473928Y-31637976D02*
X12492976Y-31637976D01*
X12512024Y-31647500D01*
X12521548Y-31657024D01*
X12531071Y-31676071D01*
X12540595Y-31714167D01*
X12540595Y-31761786D01*
X12531071Y-31799881D01*
X12521548Y-31818928D01*
X12512024Y-31828452D01*
X12492976Y-31837976D01*
X12473928Y-31837976D01*
X12454881Y-31828452D01*
X12445357Y-31818928D01*
X12435833Y-31799881D01*
X12426309Y-31761786D01*
X12426309Y-31714167D01*
X12435833Y-31676071D01*
X12445357Y-31657024D01*
X12454881Y-31647500D01*
X12473928Y-31637976D01*
X12664405Y-31637976D02*
X12683452Y-31637976D01*
X12702500Y-31647500D01*
X12712024Y-31657024D01*
X12721548Y-31676071D01*
X12731071Y-31714167D01*
X12731071Y-31761786D01*
X12721548Y-31799881D01*
X12712024Y-31818928D01*
X12702500Y-31828452D01*
X12683452Y-31837976D01*
X12664405Y-31837976D01*
X12645357Y-31828452D01*
X12635833Y-31818928D01*
X12626309Y-31799881D01*
X12616786Y-31761786D01*
X12616786Y-31714167D01*
X12626309Y-31676071D01*
X12635833Y-31657024D01*
X12645357Y-31647500D01*
X12664405Y-31637976D01*
X12854881Y-31637976D02*
X12873928Y-31637976D01*
X12892976Y-31647500D01*
X12902500Y-31657024D01*
X12912024Y-31676071D01*
X12921548Y-31714167D01*
X12921548Y-31761786D01*
X12912024Y-31799881D01*
X12902500Y-31818928D01*
X12892976Y-31828452D01*
X12873928Y-31837976D01*
X12854881Y-31837976D01*
X12835833Y-31828452D01*
X12826309Y-31818928D01*
X12816786Y-31799881D01*
X12807262Y-31761786D01*
X12807262Y-31714167D01*
X12816786Y-31676071D01*
X12826309Y-31657024D01*
X12835833Y-31647500D01*
X12854881Y-31637976D01*
X13007262Y-31837976D02*
X13007262Y-31704643D01*
X13007262Y-31723690D02*
X13016786Y-31714167D01*
X13035833Y-31704643D01*
X13064405Y-31704643D01*
X13083452Y-31714167D01*
X13092976Y-31733214D01*
X13092976Y-31837976D01*
X13092976Y-31733214D02*
X13102500Y-31714167D01*
X13121548Y-31704643D01*
X13150119Y-31704643D01*
X13169167Y-31714167D01*
X13178690Y-31733214D01*
X13178690Y-31837976D01*
X13273928Y-31837976D02*
X13273928Y-31704643D01*
X13273928Y-31723690D02*
X13283452Y-31714167D01*
X13302500Y-31704643D01*
X13331071Y-31704643D01*
X13350119Y-31714167D01*
X13359643Y-31733214D01*
X13359643Y-31837976D01*
X13359643Y-31733214D02*
X13369167Y-31714167D01*
X13388214Y-31704643D01*
X13416786Y-31704643D01*
X13435833Y-31714167D01*
X13445357Y-31733214D01*
X13445357Y-31837976D01*
X13835833Y-31628452D02*
X13664405Y-31885595D01*
X14092976Y-31637976D02*
X14112024Y-31637976D01*
X14131071Y-31647500D01*
X14140595Y-31657024D01*
X14150119Y-31676071D01*
X14159643Y-31714167D01*
X14159643Y-31761786D01*
X14150119Y-31799881D01*
X14140595Y-31818928D01*
X14131071Y-31828452D01*
X14112024Y-31837976D01*
X14092976Y-31837976D01*
X14073928Y-31828452D01*
X14064405Y-31818928D01*
X14054881Y-31799881D01*
X14045357Y-31761786D01*
X14045357Y-31714167D01*
X14054881Y-31676071D01*
X14064405Y-31657024D01*
X14073928Y-31647500D01*
X14092976Y-31637976D01*
X14245357Y-31818928D02*
X14254881Y-31828452D01*
X14245357Y-31837976D01*
X14235833Y-31828452D01*
X14245357Y-31818928D01*
X14245357Y-31837976D01*
X14378690Y-31637976D02*
X14397738Y-31637976D01*
X14416786Y-31647500D01*
X14426309Y-31657024D01*
X14435833Y-31676071D01*
X14445357Y-31714167D01*
X14445357Y-31761786D01*
X14435833Y-31799881D01*
X14426309Y-31818928D01*
X14416786Y-31828452D01*
X14397738Y-31837976D01*
X14378690Y-31837976D01*
X14359643Y-31828452D01*
X14350119Y-31818928D01*
X14340595Y-31799881D01*
X14331071Y-31761786D01*
X14331071Y-31714167D01*
X14340595Y-31676071D01*
X14350119Y-31657024D01*
X14359643Y-31647500D01*
X14378690Y-31637976D01*
X14512024Y-31637976D02*
X14645357Y-31637976D01*
X14559643Y-31837976D01*
X14750119Y-31723690D02*
X14731071Y-31714167D01*
X14721548Y-31704643D01*
X14712024Y-31685595D01*
X14712024Y-31676071D01*
X14721548Y-31657024D01*
X14731071Y-31647500D01*
X14750119Y-31637976D01*
X14788214Y-31637976D01*
X14807262Y-31647500D01*
X14816786Y-31657024D01*
X14826309Y-31676071D01*
X14826309Y-31685595D01*
X14816786Y-31704643D01*
X14807262Y-31714167D01*
X14788214Y-31723690D01*
X14750119Y-31723690D01*
X14731071Y-31733214D01*
X14721548Y-31742738D01*
X14712024Y-31761786D01*
X14712024Y-31799881D01*
X14721548Y-31818928D01*
X14731071Y-31828452D01*
X14750119Y-31837976D01*
X14788214Y-31837976D01*
X14807262Y-31828452D01*
X14816786Y-31818928D01*
X14826309Y-31799881D01*
X14826309Y-31761786D01*
X14816786Y-31742738D01*
X14807262Y-31733214D01*
X14788214Y-31723690D01*
X14892976Y-31637976D02*
X15026309Y-31637976D01*
X14940595Y-31837976D01*
X15092976Y-31637976D02*
X15092976Y-31676071D01*
X15169167Y-31637976D02*
X15169167Y-31676071D01*
X15464405Y-31914167D02*
X15454881Y-31904643D01*
X15435833Y-31876071D01*
X15426309Y-31857024D01*
X15416786Y-31828452D01*
X15407262Y-31780833D01*
X15407262Y-31742738D01*
X15416786Y-31695119D01*
X15426309Y-31666548D01*
X15435833Y-31647500D01*
X15454881Y-31618928D01*
X15464405Y-31609405D01*
X15626309Y-31704643D02*
X15626309Y-31837976D01*
X15578690Y-31628452D02*
X15531071Y-31771309D01*
X15654881Y-31771309D01*
X15759643Y-31723690D02*
X15740595Y-31714167D01*
X15731071Y-31704643D01*
X15721548Y-31685595D01*
X15721548Y-31676071D01*
X15731071Y-31657024D01*
X15740595Y-31647500D01*
X15759643Y-31637976D01*
X15797738Y-31637976D01*
X15816786Y-31647500D01*
X15826309Y-31657024D01*
X15835833Y-31676071D01*
X15835833Y-31685595D01*
X15826309Y-31704643D01*
X15816786Y-31714167D01*
X15797738Y-31723690D01*
X15759643Y-31723690D01*
X15740595Y-31733214D01*
X15731071Y-31742738D01*
X15721548Y-31761786D01*
X15721548Y-31799881D01*
X15731071Y-31818928D01*
X15740595Y-31828452D01*
X15759643Y-31837976D01*
X15797738Y-31837976D01*
X15816786Y-31828452D01*
X15826309Y-31818928D01*
X15835833Y-31799881D01*
X15835833Y-31761786D01*
X15826309Y-31742738D01*
X15816786Y-31733214D01*
X15797738Y-31723690D01*
X16073928Y-31837976D02*
X16073928Y-31637976D01*
X16159643Y-31837976D02*
X16159643Y-31733214D01*
X16150119Y-31714167D01*
X16131071Y-31704643D01*
X16102500Y-31704643D01*
X16083452Y-31714167D01*
X16073928Y-31723690D01*
X16283452Y-31837976D02*
X16264405Y-31828452D01*
X16254881Y-31818928D01*
X16245357Y-31799881D01*
X16245357Y-31742738D01*
X16254881Y-31723690D01*
X16264405Y-31714167D01*
X16283452Y-31704643D01*
X16312024Y-31704643D01*
X16331071Y-31714167D01*
X16340595Y-31723690D01*
X16350119Y-31742738D01*
X16350119Y-31799881D01*
X16340595Y-31818928D01*
X16331071Y-31828452D01*
X16312024Y-31837976D01*
X16283452Y-31837976D01*
X16464405Y-31837976D02*
X16445357Y-31828452D01*
X16435833Y-31809405D01*
X16435833Y-31637976D01*
X16616786Y-31828452D02*
X16597738Y-31837976D01*
X16559643Y-31837976D01*
X16540595Y-31828452D01*
X16531071Y-31809405D01*
X16531071Y-31733214D01*
X16540595Y-31714167D01*
X16559643Y-31704643D01*
X16597738Y-31704643D01*
X16616786Y-31714167D01*
X16626309Y-31733214D01*
X16626309Y-31752262D01*
X16531071Y-31771309D01*
X16702500Y-31828452D02*
X16721548Y-31837976D01*
X16759643Y-31837976D01*
X16778690Y-31828452D01*
X16788214Y-31809405D01*
X16788214Y-31799881D01*
X16778690Y-31780833D01*
X16759643Y-31771309D01*
X16731071Y-31771309D01*
X16712024Y-31761786D01*
X16702500Y-31742738D01*
X16702500Y-31733214D01*
X16712024Y-31714167D01*
X16731071Y-31704643D01*
X16759643Y-31704643D01*
X16778690Y-31714167D01*
X16854881Y-31914167D02*
X16864405Y-31904643D01*
X16883452Y-31876071D01*
X16892976Y-31857024D01*
X16902500Y-31828452D01*
X16912024Y-31780833D01*
X16912024Y-31742738D01*
X16902500Y-31695119D01*
X16892976Y-31666548D01*
X16883452Y-31647500D01*
X16864405Y-31618928D01*
X16854881Y-31609405D01*
X17216786Y-31914167D02*
X17207262Y-31904643D01*
X17188214Y-31876071D01*
X17178690Y-31857024D01*
X17169167Y-31828452D01*
X17159643Y-31780833D01*
X17159643Y-31742738D01*
X17169167Y-31695119D01*
X17178690Y-31666548D01*
X17188214Y-31647500D01*
X17207262Y-31618928D01*
X17216786Y-31609405D01*
X17292976Y-31704643D02*
X17292976Y-31837976D01*
X17292976Y-31723690D02*
X17302500Y-31714167D01*
X17321548Y-31704643D01*
X17350119Y-31704643D01*
X17369167Y-31714167D01*
X17378690Y-31733214D01*
X17378690Y-31837976D01*
X17502500Y-31837976D02*
X17483452Y-31828452D01*
X17473929Y-31818928D01*
X17464405Y-31799881D01*
X17464405Y-31742738D01*
X17473929Y-31723690D01*
X17483452Y-31714167D01*
X17502500Y-31704643D01*
X17531071Y-31704643D01*
X17550119Y-31714167D01*
X17559643Y-31723690D01*
X17569167Y-31742738D01*
X17569167Y-31799881D01*
X17559643Y-31818928D01*
X17550119Y-31828452D01*
X17531071Y-31837976D01*
X17502500Y-31837976D01*
X17626310Y-31704643D02*
X17702500Y-31704643D01*
X17654881Y-31637976D02*
X17654881Y-31809405D01*
X17664405Y-31828452D01*
X17683452Y-31837976D01*
X17702500Y-31837976D01*
X17921548Y-31704643D02*
X17921548Y-31904643D01*
X17921548Y-31714167D02*
X17940595Y-31704643D01*
X17978690Y-31704643D01*
X17997738Y-31714167D01*
X18007262Y-31723690D01*
X18016786Y-31742738D01*
X18016786Y-31799881D01*
X18007262Y-31818928D01*
X17997738Y-31828452D01*
X17978690Y-31837976D01*
X17940595Y-31837976D01*
X17921548Y-31828452D01*
X18131071Y-31837976D02*
X18112024Y-31828452D01*
X18102500Y-31809405D01*
X18102500Y-31637976D01*
X18292976Y-31837976D02*
X18292976Y-31733214D01*
X18283452Y-31714167D01*
X18264405Y-31704643D01*
X18226310Y-31704643D01*
X18207262Y-31714167D01*
X18292976Y-31828452D02*
X18273929Y-31837976D01*
X18226310Y-31837976D01*
X18207262Y-31828452D01*
X18197738Y-31809405D01*
X18197738Y-31790357D01*
X18207262Y-31771309D01*
X18226310Y-31761786D01*
X18273929Y-31761786D01*
X18292976Y-31752262D01*
X18359643Y-31704643D02*
X18435833Y-31704643D01*
X18388214Y-31637976D02*
X18388214Y-31809405D01*
X18397738Y-31828452D01*
X18416786Y-31837976D01*
X18435833Y-31837976D01*
X18578690Y-31828452D02*
X18559643Y-31837976D01*
X18521548Y-31837976D01*
X18502500Y-31828452D01*
X18492976Y-31809405D01*
X18492976Y-31733214D01*
X18502500Y-31714167D01*
X18521548Y-31704643D01*
X18559643Y-31704643D01*
X18578690Y-31714167D01*
X18588214Y-31733214D01*
X18588214Y-31752262D01*
X18492976Y-31771309D01*
X18759643Y-31837976D02*
X18759643Y-31637976D01*
X18759643Y-31828452D02*
X18740595Y-31837976D01*
X18702500Y-31837976D01*
X18683452Y-31828452D01*
X18673929Y-31818928D01*
X18664405Y-31799881D01*
X18664405Y-31742738D01*
X18673929Y-31723690D01*
X18683452Y-31714167D01*
X18702500Y-31704643D01*
X18740595Y-31704643D01*
X18759643Y-31714167D01*
X18835833Y-31914167D02*
X18845357Y-31904643D01*
X18864405Y-31876071D01*
X18873929Y-31857024D01*
X18883452Y-31828452D01*
X18892976Y-31780833D01*
X18892976Y-31742738D01*
X18883452Y-31695119D01*
X18873929Y-31666548D01*
X18864405Y-31647500D01*
X18845357Y-31618928D01*
X18835833Y-31609405D01*
X11892500Y-32067500D02*
G75*
G03*
X11892500Y-32067500I-100000J0D01*
G01*
X12131071Y-31957976D02*
X12254881Y-31957976D01*
X12188214Y-32034167D01*
X12216786Y-32034167D01*
X12235833Y-32043690D01*
X12245357Y-32053214D01*
X12254881Y-32072262D01*
X12254881Y-32119881D01*
X12245357Y-32138928D01*
X12235833Y-32148452D01*
X12216786Y-32157976D01*
X12159643Y-32157976D01*
X12140595Y-32148452D01*
X12131071Y-32138928D01*
X12340595Y-32138928D02*
X12350119Y-32148452D01*
X12340595Y-32157976D01*
X12331071Y-32148452D01*
X12340595Y-32138928D01*
X12340595Y-32157976D01*
X12426309Y-31977024D02*
X12435833Y-31967500D01*
X12454881Y-31957976D01*
X12502500Y-31957976D01*
X12521548Y-31967500D01*
X12531071Y-31977024D01*
X12540595Y-31996071D01*
X12540595Y-32015119D01*
X12531071Y-32043690D01*
X12416786Y-32157976D01*
X12540595Y-32157976D01*
X12664405Y-31957976D02*
X12683452Y-31957976D01*
X12702500Y-31967500D01*
X12712024Y-31977024D01*
X12721548Y-31996071D01*
X12731071Y-32034167D01*
X12731071Y-32081786D01*
X12721548Y-32119881D01*
X12712024Y-32138928D01*
X12702500Y-32148452D01*
X12683452Y-32157976D01*
X12664405Y-32157976D01*
X12645357Y-32148452D01*
X12635833Y-32138928D01*
X12626309Y-32119881D01*
X12616786Y-32081786D01*
X12616786Y-32034167D01*
X12626309Y-31996071D01*
X12635833Y-31977024D01*
X12645357Y-31967500D01*
X12664405Y-31957976D01*
X12854881Y-31957976D02*
X12873928Y-31957976D01*
X12892976Y-31967500D01*
X12902500Y-31977024D01*
X12912024Y-31996071D01*
X12921548Y-32034167D01*
X12921548Y-32081786D01*
X12912024Y-32119881D01*
X12902500Y-32138928D01*
X12892976Y-32148452D01*
X12873928Y-32157976D01*
X12854881Y-32157976D01*
X12835833Y-32148452D01*
X12826309Y-32138928D01*
X12816786Y-32119881D01*
X12807262Y-32081786D01*
X12807262Y-32034167D01*
X12816786Y-31996071D01*
X12826309Y-31977024D01*
X12835833Y-31967500D01*
X12854881Y-31957976D01*
X13007262Y-32157976D02*
X13007262Y-32024643D01*
X13007262Y-32043690D02*
X13016786Y-32034167D01*
X13035833Y-32024643D01*
X13064405Y-32024643D01*
X13083452Y-32034167D01*
X13092976Y-32053214D01*
X13092976Y-32157976D01*
X13092976Y-32053214D02*
X13102500Y-32034167D01*
X13121548Y-32024643D01*
X13150119Y-32024643D01*
X13169167Y-32034167D01*
X13178690Y-32053214D01*
X13178690Y-32157976D01*
X13273928Y-32157976D02*
X13273928Y-32024643D01*
X13273928Y-32043690D02*
X13283452Y-32034167D01*
X13302500Y-32024643D01*
X13331071Y-32024643D01*
X13350119Y-32034167D01*
X13359643Y-32053214D01*
X13359643Y-32157976D01*
X13359643Y-32053214D02*
X13369167Y-32034167D01*
X13388214Y-32024643D01*
X13416786Y-32024643D01*
X13435833Y-32034167D01*
X13445357Y-32053214D01*
X13445357Y-32157976D01*
X13835833Y-31948452D02*
X13664405Y-32205595D01*
X14092976Y-31957976D02*
X14112024Y-31957976D01*
X14131071Y-31967500D01*
X14140595Y-31977024D01*
X14150119Y-31996071D01*
X14159643Y-32034167D01*
X14159643Y-32081786D01*
X14150119Y-32119881D01*
X14140595Y-32138928D01*
X14131071Y-32148452D01*
X14112024Y-32157976D01*
X14092976Y-32157976D01*
X14073928Y-32148452D01*
X14064405Y-32138928D01*
X14054881Y-32119881D01*
X14045357Y-32081786D01*
X14045357Y-32034167D01*
X14054881Y-31996071D01*
X14064405Y-31977024D01*
X14073928Y-31967500D01*
X14092976Y-31957976D01*
X14245357Y-32138928D02*
X14254881Y-32148452D01*
X14245357Y-32157976D01*
X14235833Y-32148452D01*
X14245357Y-32138928D01*
X14245357Y-32157976D01*
X14445357Y-32157976D02*
X14331071Y-32157976D01*
X14388214Y-32157976D02*
X14388214Y-31957976D01*
X14369167Y-31986548D01*
X14350119Y-32005595D01*
X14331071Y-32015119D01*
X14521548Y-31977024D02*
X14531071Y-31967500D01*
X14550119Y-31957976D01*
X14597738Y-31957976D01*
X14616786Y-31967500D01*
X14626309Y-31977024D01*
X14635833Y-31996071D01*
X14635833Y-32015119D01*
X14626309Y-32043690D01*
X14512024Y-32157976D01*
X14635833Y-32157976D01*
X14807262Y-31957976D02*
X14769167Y-31957976D01*
X14750119Y-31967500D01*
X14740595Y-31977024D01*
X14721548Y-32005595D01*
X14712024Y-32043690D01*
X14712024Y-32119881D01*
X14721548Y-32138928D01*
X14731071Y-32148452D01*
X14750119Y-32157976D01*
X14788214Y-32157976D01*
X14807262Y-32148452D01*
X14816786Y-32138928D01*
X14826309Y-32119881D01*
X14826309Y-32072262D01*
X14816786Y-32053214D01*
X14807262Y-32043690D01*
X14788214Y-32034167D01*
X14750119Y-32034167D01*
X14731071Y-32043690D01*
X14721548Y-32053214D01*
X14712024Y-32072262D01*
X14950119Y-31957976D02*
X14969167Y-31957976D01*
X14988214Y-31967500D01*
X14997738Y-31977024D01*
X15007262Y-31996071D01*
X15016786Y-32034167D01*
X15016786Y-32081786D01*
X15007262Y-32119881D01*
X14997738Y-32138928D01*
X14988214Y-32148452D01*
X14969167Y-32157976D01*
X14950119Y-32157976D01*
X14931071Y-32148452D01*
X14921548Y-32138928D01*
X14912024Y-32119881D01*
X14902500Y-32081786D01*
X14902500Y-32034167D01*
X14912024Y-31996071D01*
X14921548Y-31977024D01*
X14931071Y-31967500D01*
X14950119Y-31957976D01*
X15092976Y-31957976D02*
X15092976Y-31996071D01*
X15169167Y-31957976D02*
X15169167Y-31996071D01*
X15464405Y-32234167D02*
X15454881Y-32224643D01*
X15435833Y-32196071D01*
X15426309Y-32177024D01*
X15416786Y-32148452D01*
X15407262Y-32100833D01*
X15407262Y-32062738D01*
X15416786Y-32015119D01*
X15426309Y-31986548D01*
X15435833Y-31967500D01*
X15454881Y-31938928D01*
X15464405Y-31929405D01*
X15645357Y-32157976D02*
X15531071Y-32157976D01*
X15588214Y-32157976D02*
X15588214Y-31957976D01*
X15569167Y-31986548D01*
X15550119Y-32005595D01*
X15531071Y-32015119D01*
X15816786Y-31957976D02*
X15778690Y-31957976D01*
X15759643Y-31967500D01*
X15750119Y-31977024D01*
X15731071Y-32005595D01*
X15721548Y-32043690D01*
X15721548Y-32119881D01*
X15731071Y-32138928D01*
X15740595Y-32148452D01*
X15759643Y-32157976D01*
X15797738Y-32157976D01*
X15816786Y-32148452D01*
X15826309Y-32138928D01*
X15835833Y-32119881D01*
X15835833Y-32072262D01*
X15826309Y-32053214D01*
X15816786Y-32043690D01*
X15797738Y-32034167D01*
X15759643Y-32034167D01*
X15740595Y-32043690D01*
X15731071Y-32053214D01*
X15721548Y-32072262D01*
X16073928Y-32157976D02*
X16073928Y-31957976D01*
X16159643Y-32157976D02*
X16159643Y-32053214D01*
X16150119Y-32034167D01*
X16131071Y-32024643D01*
X16102500Y-32024643D01*
X16083452Y-32034167D01*
X16073928Y-32043690D01*
X16283452Y-32157976D02*
X16264405Y-32148452D01*
X16254881Y-32138928D01*
X16245357Y-32119881D01*
X16245357Y-32062738D01*
X16254881Y-32043690D01*
X16264405Y-32034167D01*
X16283452Y-32024643D01*
X16312024Y-32024643D01*
X16331071Y-32034167D01*
X16340595Y-32043690D01*
X16350119Y-32062738D01*
X16350119Y-32119881D01*
X16340595Y-32138928D01*
X16331071Y-32148452D01*
X16312024Y-32157976D01*
X16283452Y-32157976D01*
X16464405Y-32157976D02*
X16445357Y-32148452D01*
X16435833Y-32129405D01*
X16435833Y-31957976D01*
X16616786Y-32148452D02*
X16597738Y-32157976D01*
X16559643Y-32157976D01*
X16540595Y-32148452D01*
X16531071Y-32129405D01*
X16531071Y-32053214D01*
X16540595Y-32034167D01*
X16559643Y-32024643D01*
X16597738Y-32024643D01*
X16616786Y-32034167D01*
X16626309Y-32053214D01*
X16626309Y-32072262D01*
X16531071Y-32091309D01*
X16702500Y-32148452D02*
X16721548Y-32157976D01*
X16759643Y-32157976D01*
X16778690Y-32148452D01*
X16788214Y-32129405D01*
X16788214Y-32119881D01*
X16778690Y-32100833D01*
X16759643Y-32091309D01*
X16731071Y-32091309D01*
X16712024Y-32081786D01*
X16702500Y-32062738D01*
X16702500Y-32053214D01*
X16712024Y-32034167D01*
X16731071Y-32024643D01*
X16759643Y-32024643D01*
X16778690Y-32034167D01*
X16854881Y-32234167D02*
X16864405Y-32224643D01*
X16883452Y-32196071D01*
X16892976Y-32177024D01*
X16902500Y-32148452D01*
X16912024Y-32100833D01*
X16912024Y-32062738D01*
X16902500Y-32015119D01*
X16892976Y-31986548D01*
X16883452Y-31967500D01*
X16864405Y-31938928D01*
X16854881Y-31929405D01*
X17216786Y-32234167D02*
X17207262Y-32224643D01*
X17188214Y-32196071D01*
X17178690Y-32177024D01*
X17169167Y-32148452D01*
X17159643Y-32100833D01*
X17159643Y-32062738D01*
X17169167Y-32015119D01*
X17178690Y-31986548D01*
X17188214Y-31967500D01*
X17207262Y-31938928D01*
X17216786Y-31929405D01*
X17292976Y-32024643D02*
X17292976Y-32157976D01*
X17292976Y-32043690D02*
X17302500Y-32034167D01*
X17321548Y-32024643D01*
X17350119Y-32024643D01*
X17369167Y-32034167D01*
X17378690Y-32053214D01*
X17378690Y-32157976D01*
X17502500Y-32157976D02*
X17483452Y-32148452D01*
X17473929Y-32138928D01*
X17464405Y-32119881D01*
X17464405Y-32062738D01*
X17473929Y-32043690D01*
X17483452Y-32034167D01*
X17502500Y-32024643D01*
X17531071Y-32024643D01*
X17550119Y-32034167D01*
X17559643Y-32043690D01*
X17569167Y-32062738D01*
X17569167Y-32119881D01*
X17559643Y-32138928D01*
X17550119Y-32148452D01*
X17531071Y-32157976D01*
X17502500Y-32157976D01*
X17626310Y-32024643D02*
X17702500Y-32024643D01*
X17654881Y-31957976D02*
X17654881Y-32129405D01*
X17664405Y-32148452D01*
X17683452Y-32157976D01*
X17702500Y-32157976D01*
X17921548Y-32024643D02*
X17921548Y-32224643D01*
X17921548Y-32034167D02*
X17940595Y-32024643D01*
X17978690Y-32024643D01*
X17997738Y-32034167D01*
X18007262Y-32043690D01*
X18016786Y-32062738D01*
X18016786Y-32119881D01*
X18007262Y-32138928D01*
X17997738Y-32148452D01*
X17978690Y-32157976D01*
X17940595Y-32157976D01*
X17921548Y-32148452D01*
X18131071Y-32157976D02*
X18112024Y-32148452D01*
X18102500Y-32129405D01*
X18102500Y-31957976D01*
X18292976Y-32157976D02*
X18292976Y-32053214D01*
X18283452Y-32034167D01*
X18264405Y-32024643D01*
X18226310Y-32024643D01*
X18207262Y-32034167D01*
X18292976Y-32148452D02*
X18273929Y-32157976D01*
X18226310Y-32157976D01*
X18207262Y-32148452D01*
X18197738Y-32129405D01*
X18197738Y-32110357D01*
X18207262Y-32091309D01*
X18226310Y-32081786D01*
X18273929Y-32081786D01*
X18292976Y-32072262D01*
X18359643Y-32024643D02*
X18435833Y-32024643D01*
X18388214Y-31957976D02*
X18388214Y-32129405D01*
X18397738Y-32148452D01*
X18416786Y-32157976D01*
X18435833Y-32157976D01*
X18578690Y-32148452D02*
X18559643Y-32157976D01*
X18521548Y-32157976D01*
X18502500Y-32148452D01*
X18492976Y-32129405D01*
X18492976Y-32053214D01*
X18502500Y-32034167D01*
X18521548Y-32024643D01*
X18559643Y-32024643D01*
X18578690Y-32034167D01*
X18588214Y-32053214D01*
X18588214Y-32072262D01*
X18492976Y-32091309D01*
X18759643Y-32157976D02*
X18759643Y-31957976D01*
X18759643Y-32148452D02*
X18740595Y-32157976D01*
X18702500Y-32157976D01*
X18683452Y-32148452D01*
X18673929Y-32138928D01*
X18664405Y-32119881D01*
X18664405Y-32062738D01*
X18673929Y-32043690D01*
X18683452Y-32034167D01*
X18702500Y-32024643D01*
X18740595Y-32024643D01*
X18759643Y-32034167D01*
X18835833Y-32234167D02*
X18845357Y-32224643D01*
X18864405Y-32196071D01*
X18873929Y-32177024D01*
X18883452Y-32148452D01*
X18892976Y-32100833D01*
X18892976Y-32062738D01*
X18883452Y-32015119D01*
X18873929Y-31986548D01*
X18864405Y-31967500D01*
X18845357Y-31938928D01*
X18835833Y-31929405D01*
M02*
