M48
; DRILL file {KiCad (5.99.0-10428-g50fd94d35d)} date Tue Apr 27 03:41:53 2021
; FORMAT={-:-/ absolute / metric / decimal}
; #@! TF.CreationDate,2021-04-27T03:41:53+02:00
; #@! TF.GenerationSoftware,Kicad,Pcbnew,(5.99.0-10428-g50fd94d35d)
; #@! TF.FileFunction,Plated,1,2,PTH
FMAT,2
METRIC
; #@! TA.AperFunction,Plated,PTH,ViaDrill
T1C0.635
; #@! TA.AperFunction,Plated,PTH,ComponentDrill
T2C0.762
; #@! TA.AperFunction,Plated,PTH,ViaDrill
T3C0.800
; #@! TA.AperFunction,Plated,PTH,ComponentDrill
T4C0.900
; #@! TA.AperFunction,Plated,PTH,ComponentDrill
T5C1.000
; #@! TA.AperFunction,Plated,PTH,ComponentDrill
T6C1.016
; #@! TA.AperFunction,Plated,PTH,ComponentDrill
T7C1.100
; #@! TA.AperFunction,Plated,PTH,ComponentDrill
T8C1.500
; #@! TA.AperFunction,Plated,PTH,ComponentDrill
T9C2.600
; #@! TA.AperFunction,Plated,PTH,ComponentDrill
T10C3.200
%
G90
G05
T1
X135.95Y-190.64
X136.17Y-165.67
X136.652Y-186.436
X136.906Y-161.798
X137.98Y-183.58
X138.51Y-158.75
X140.08Y-150.49
X148.65Y-192.09
X149.41Y-256.81
X160.75Y-68.15
X161.0Y-190.78
X161.05Y-165.81
X161.798Y-161.798
X162.052Y-59.182
X162.052Y-62.738
X162.052Y-186.69
X163.01Y-183.55
X163.13Y-158.49
X171.1Y-157.72
X172.94Y-137.73
X177.97Y-261.11
X184.6Y-140.275
X185.58Y-139.1
X185.75Y-190.53
X186.07Y-165.74
X186.69Y-161.798
X187.198Y-186.944
X187.7Y-183.48
X188.03Y-158.57
X189.29Y-254.86
X194.41Y-261.44
X195.83Y-154.19
X195.99Y-155.84
X196.34Y-180.61
X198.75Y-154.23
X199.41Y-155.715
X202.74Y-139.106
X202.775Y-140.35
X205.67Y-136.78
X205.71Y-121.018
X206.98Y-194.09
X210.5Y-190.57
X211.35Y-165.77
X211.65Y-134.07
X212.02Y-161.92
X212.344Y-186.944
X213.09Y-158.52
X213.12Y-183.56
X215.983Y-139.136
X219.46Y-134.13
X221.92Y-63.85
X222.69Y-184.01
X225.6Y-104.4
X225.61Y-106.54
X225.97Y-109.98
X226.12Y-108.16
X227.62Y-147.94
X227.86Y-146.65
X228.95Y-138.475
X230.33Y-147.91
X230.38Y-118.12
X231.03Y-106.52
X231.07Y-108.16
X231.1Y-109.93
X231.58Y-146.73
X232.26Y-104.44
X238.5Y-129.025
X238.71Y-218.62
X241.03Y-219.31
X241.8Y-129.175
X243.875Y-152.5
X244.975Y-151.5
X245.79Y-157.6
X250.825Y-152.9
X250.83Y-155.47
X250.925Y-151.65
X256.95Y-156.1
X258.325Y-124.827
X258.425Y-120.625
X261.875Y-123.875
X263.475Y-119.675
X263.625Y-122.6
X264.975Y-123.875
X270.38Y-157.43
X272.65Y-219.775
X272.675Y-217.35
X274.4Y-198.45
X275.325Y-199.375
X275.986Y-196.889
X276.15Y-183.02
X276.2Y-200.625
X276.35Y-219.79
X276.923Y-197.827
X277.01Y-216.48
X278.1Y-198.7
X279.08Y-190.74
X279.35Y-152.802
X280.025Y-151.525
X280.72Y-149.05
X281.875Y-180.775
X284.83Y-159.52
X284.853Y-182.409
X285.075Y-151.575
X285.075Y-152.819
X285.21Y-155.39
X287.2Y-159.52
X287.6Y-178.425
X287.625Y-180.528
X288.84Y-222.89
X289.05Y-178.623
X289.05Y-180.527
X289.925Y-188.6
X290.77Y-186.92
X290.96Y-180.99
X291.75Y-196.39
X292.125Y-215.85
X293.175Y-214.9
X293.522Y-121.278
X294.175Y-203.325
X294.225Y-206.675
X294.275Y-218.075
X294.37Y-157.31
X294.4Y-213.725
X294.65Y-122.6
X294.875Y-185.65
X295.275Y-217.075
X295.35Y-188.625
X295.675Y-123.85
X295.7Y-212.525
X296.425Y-121.225
X296.625Y-215.95
X296.775Y-211.325
X297.65Y-186.0
X297.7Y-122.525
X297.75Y-214.75
X298.64Y-187.87
X298.88Y-190.6
X298.925Y-213.5
X299.075Y-123.9
X301.525Y-194.925
X304.36Y-157.34
X308.125Y-194.925
X310.399Y-153.268
X310.45Y-152.025
X311.45Y-150.63
X312.15Y-146.525
X312.35Y-155.59
X313.1Y-150.83
X313.39Y-154.44
X314.57Y-154.88
X315.725Y-146.65
X318.521Y-152.041
X318.675Y-153.275
X319.77Y-147.69
X321.6Y-147.92
X322.56Y-145.13
X324.5Y-148.425
X324.676Y-150.107
X325.126Y-152.351
X326.15Y-151.398
X326.7Y-121.4
X327.88Y-230.65
X328.55Y-122.625
X329.875Y-123.85
X330.14Y-229.9
X331.925Y-122.625
X332.55Y-229.28
X333.15Y-123.975
X333.5Y-121.673
X338.89Y-155.02
X341.73Y-79.67
X342.275Y-193.225
X343.21Y-151.3
X343.21Y-156.53
X343.88Y-199.42
X344.025Y-179.2
X346.52Y-75.692
X346.71Y-74.422
X347.726Y-154.014
X347.76Y-152.56
X348.234Y-73.152
X352.67Y-147.22
X353.95Y-197.025
X356.025Y-153.025
X356.806Y-73.152
X357.632Y-74.422
X357.632Y-75.946
X358.394Y-153.924
X358.42Y-146.24
X360.025Y-146.24
X360.225Y-156.575
X360.338Y-157.85
X360.625Y-144.025
X361.6Y-146.25
X362.17Y-69.94
X362.225Y-144.075
X362.29Y-78.66
X363.625Y-144.2
X364.3Y-146.425
X365.35Y-173.57
X366.45Y-156.55
X366.475Y-203.4
X366.475Y-205.875
X366.625Y-144.075
X367.402Y-157.85
X368.05Y-203.4
X368.1Y-205.9
X370.209Y-228.738
X371.03Y-120.47
X371.125Y-233.4
X372.057Y-228.738
X372.9Y-233.3
X374.4Y-124.15
X374.45Y-99.25
X374.88Y-139.41
X375.475Y-119.8
X375.575Y-121.375
X376.174Y-117.602
X376.428Y-123.952
X377.175Y-100.6
X379.3Y-115.29
X380.675Y-102.45
X383.05Y-99.275
X383.1Y-102.5
X383.275Y-100.7
X385.675Y-165.375
X385.825Y-190.25
X387.03Y-186.82
X387.35Y-158.75
X388.625Y-112.725
X388.675Y-119.202
X388.725Y-137.2
X390.025Y-138.0
X390.075Y-108.05
X390.1Y-114.425
X390.1Y-120.075
X391.1Y-162.175
X391.15Y-187.025
X391.25Y-104.65
X394.525Y-142.45
X397.075Y-142.95
X398.56Y-260.71
X398.8Y-71.725
X400.775Y-143.1
X402.025Y-95.425
X402.15Y-119.083
X402.2Y-121.5
X403.0Y-258.99
X403.4Y-118.375
X403.489Y-120.944
X404.459Y-117.434
X404.675Y-120.05
X405.13Y-145.288
X405.925Y-119.05
X406.875Y-71.8
X406.975Y-117.875
X407.525Y-132.875
X407.575Y-138.1
X407.935Y-116.633
X408.225Y-95.425
X409.31Y-87.81
X409.32Y-92.95
X410.05Y-138.0
X410.075Y-133.95
X410.43Y-86.7
X410.43Y-91.56
X410.725Y-190.3
X410.8Y-165.6
X411.56Y-85.4
X411.62Y-88.36
X412.33Y-159.29
X412.49Y-187.03
X412.575Y-135.0
X412.6Y-138.2
X412.94Y-83.79
X412.94Y-89.04
X415.725Y-162.125
X416.25Y-187.15
X416.49Y-220.73
X417.19Y-222.11
X418.49Y-223.07
X419.275Y-224.4
X419.45Y-220.68
X420.61Y-221.78
X421.625Y-131.6
X422.04Y-223.04
X423.448Y-133.202
X423.925Y-134.5
X425.075Y-224.275
X425.704Y-75.184
X429.768Y-227.584
X432.58Y-56.7
X433.49Y-145.23
X433.74Y-67.55
X434.61Y-146.2
X434.784Y-131.5
X435.475Y-190.325
X435.864Y-81.534
X436.15Y-165.7
X436.55Y-133.206
X436.55Y-134.45
X437.388Y-158.75
X437.4Y-187.05
X441.175Y-162.125
X441.275Y-187.075
X449.57Y-149.84
X451.36Y-91.43
X452.48Y-141.5
X452.51Y-139.61
X453.898Y-82.296
X454.406Y-83.82
X455.422Y-151.892
X456.692Y-83.312
X457.708Y-82.042
X460.225Y-190.125
X460.675Y-165.425
X462.35Y-158.74
X462.47Y-186.94
X464.45Y-184.0
X466.425Y-162.225
X470.39Y-142.26
X470.41Y-143.7
X472.19Y-218.72
X473.93Y-231.92
X474.98Y-226.568
X474.98Y-229.87
T2
X170.39Y-212.18
X172.93Y-212.18
X175.47Y-212.18
X178.01Y-212.18
X421.39Y-212.18
X423.93Y-212.18
X426.47Y-212.18
X429.01Y-212.18
T3
X262.17Y-126.18
X271.34Y-150.4
X271.58Y-154.32
X305.37Y-154.84
X305.61Y-150.21
X338.49Y-79.75
X341.52Y-73.24
X341.95Y-76.93
X354.25Y-79.85
X362.72Y-73.38
X383.29Y-151.9
X409.24Y-79.33
X415.55Y-79.33
X424.75Y-79.71
T4
X136.02Y-66.525
X136.02Y-69.065
X141.765Y-289.15
X141.925Y-259.09
X144.305Y-289.15
X144.465Y-259.09
X178.18Y-66.675
X178.18Y-69.215
X219.03Y-66.595
X219.03Y-69.135
X252.91Y-226.195
X252.91Y-228.735
X259.685Y-165.01
X259.705Y-135.01
X259.705Y-140.01
X259.705Y-159.99
X259.725Y-170.02
X259.73Y-145.01
X259.745Y-155.0
X259.765Y-150.0
X262.225Y-165.01
X262.245Y-135.01
X262.245Y-140.01
X262.245Y-159.99
X262.265Y-170.02
X262.27Y-145.01
X262.285Y-155.0
X262.305Y-150.0
X286.94Y-226.195
X286.94Y-228.735
X293.895Y-139.96
X293.945Y-134.95
X293.955Y-144.96
X293.99Y-169.96
X293.995Y-154.95
X294.015Y-149.95
X294.035Y-159.97
X294.035Y-164.99
X296.435Y-139.96
X296.485Y-134.95
X296.495Y-144.96
X296.53Y-169.96
X296.535Y-154.95
X296.555Y-149.95
X296.575Y-159.97
X296.575Y-164.99
X321.08Y-226.375
X321.08Y-228.915
X327.945Y-139.86
X327.965Y-134.93
X327.995Y-144.89
X327.995Y-149.87
X327.995Y-169.89
X328.015Y-154.88
X328.015Y-159.89
X328.045Y-164.88
X330.485Y-139.86
X330.505Y-134.93
X330.535Y-144.89
X330.535Y-149.87
X330.535Y-169.89
X330.555Y-154.88
X330.555Y-159.89
X330.585Y-164.88
X341.665Y-84.52
X341.67Y-89.52
X341.685Y-104.5
X341.715Y-99.49
X341.72Y-94.47
X341.725Y-119.5
X341.735Y-114.46
X341.765Y-109.52
X344.205Y-84.52
X344.21Y-89.52
X344.225Y-104.5
X344.255Y-99.49
X344.26Y-94.47
X344.265Y-119.5
X344.275Y-114.46
X344.305Y-109.52
X353.625Y-89.47
X353.645Y-104.45
X353.655Y-84.49
X353.655Y-114.48
X353.685Y-94.48
X353.685Y-99.49
X353.685Y-109.5
X353.715Y-119.51
X356.165Y-89.47
X356.185Y-104.45
X356.195Y-84.49
X356.195Y-114.48
X356.225Y-94.48
X356.225Y-99.49
X356.225Y-109.5
X356.255Y-119.51
X386.1Y-66.295
X386.1Y-68.835
X391.663Y-259.842
X391.675Y-289.63
X394.203Y-259.842
X394.215Y-289.63
X427.65Y-66.64
X427.65Y-69.18
X468.66Y-66.595
X468.66Y-69.135
T5
X129.49Y-93.41
X131.99Y-93.41
X134.49Y-93.41
X171.5Y-106.53
X171.5Y-121.03
X171.51Y-93.42
X174.0Y-106.53
X174.01Y-93.42
X176.5Y-106.53
X176.5Y-121.03
X176.51Y-93.42
X204.36Y-232.3
X204.39Y-303.2
X206.9Y-232.3
X209.44Y-232.3
X209.47Y-303.2
X211.98Y-232.3
X212.4Y-93.4
X214.9Y-93.4
X217.4Y-93.4
X245.19Y-241.568
X245.3Y-296.432
X246.45Y-143.33
X246.46Y-75.37
X246.48Y-177.42
X246.49Y-109.38
X246.51Y-212.35
X247.73Y-241.568
X248.95Y-143.33
X248.96Y-75.37
X248.98Y-177.42
X248.99Y-109.38
X249.01Y-212.35
X250.27Y-241.568
X250.38Y-296.432
X251.45Y-143.33
X251.46Y-75.37
X251.48Y-177.42
X251.49Y-109.38
X251.51Y-212.35
X252.81Y-241.568
X279.27Y-241.638
X279.38Y-296.502
X280.47Y-177.46
X280.49Y-109.4
X280.5Y-143.43
X280.5Y-212.55
X280.51Y-75.44
X281.81Y-241.638
X282.97Y-177.46
X282.99Y-109.4
X283.0Y-143.43
X283.0Y-212.55
X283.01Y-75.44
X284.35Y-241.638
X284.46Y-296.502
X285.47Y-177.46
X285.49Y-109.4
X285.5Y-143.43
X285.5Y-212.55
X285.51Y-75.44
X286.89Y-241.638
X313.16Y-241.518
X313.27Y-296.382
X314.49Y-143.48
X314.5Y-109.42
X314.5Y-212.45
X314.51Y-75.38
X314.6Y-177.4
X315.7Y-241.518
X316.99Y-143.48
X317.0Y-109.42
X317.0Y-212.45
X317.01Y-75.38
X317.1Y-177.4
X318.24Y-241.518
X318.35Y-296.382
X319.49Y-143.48
X319.5Y-109.42
X319.5Y-212.45
X319.51Y-75.38
X319.6Y-177.4
X320.78Y-241.518
X346.47Y-258.4
X346.5Y-143.46
X346.51Y-291.44
X348.97Y-258.4
X349.0Y-143.46
X349.01Y-291.44
X351.47Y-258.4
X351.5Y-143.46
X351.51Y-291.44
X379.49Y-93.4
X381.99Y-93.4
X384.49Y-93.4
X421.49Y-107.05
X421.49Y-121.55
X421.51Y-93.41
X423.99Y-121.55
X424.01Y-93.41
X426.49Y-107.05
X426.49Y-121.55
X426.51Y-93.41
X454.29Y-232.22
X454.32Y-303.12
X456.83Y-232.22
X459.37Y-232.22
X459.4Y-303.12
X461.91Y-232.22
X462.47Y-93.35
X464.97Y-93.35
X467.47Y-93.35
T6
X399.957Y-74.315
X399.957Y-76.855
X399.957Y-79.395
X399.957Y-81.935
X399.957Y-84.475
X399.957Y-87.015
X399.957Y-89.555
X399.957Y-92.095
X399.957Y-97.175
X399.957Y-99.715
X399.957Y-102.255
X399.957Y-104.795
X399.957Y-107.335
X399.957Y-109.875
X399.957Y-112.415
X399.957Y-114.955
X399.957Y-120.035
X399.957Y-122.575
X399.957Y-125.115
X399.957Y-127.655
X399.957Y-130.195
X399.957Y-132.735
X399.957Y-135.275
X399.957Y-137.815
X405.037Y-140.355
X405.037Y-142.895
X407.577Y-140.355
X407.577Y-142.895
X410.118Y-140.355
X410.118Y-142.895
X412.657Y-140.355
X412.657Y-142.895
X415.197Y-140.355
X415.197Y-142.895
X417.737Y-140.355
X417.737Y-142.895
X420.277Y-140.355
X420.277Y-142.895
X422.817Y-140.355
X422.817Y-142.895
X425.357Y-140.355
X425.357Y-142.895
X427.897Y-140.355
X427.897Y-142.895
X430.438Y-140.355
X430.438Y-142.895
X432.977Y-140.355
X432.977Y-142.895
X435.517Y-140.355
X435.517Y-142.895
X438.058Y-140.355
X438.058Y-142.895
X440.597Y-140.355
X440.597Y-142.895
X443.137Y-140.355
X443.137Y-142.895
X445.677Y-140.355
X445.677Y-142.895
X448.217Y-65.171
X448.217Y-67.711
X448.217Y-70.251
X448.217Y-72.791
X448.217Y-75.331
X448.217Y-77.871
X448.217Y-80.411
X448.217Y-82.951
X448.217Y-85.491
X448.217Y-88.031
X448.217Y-92.095
X448.217Y-94.635
X448.217Y-97.175
X448.217Y-99.715
X448.217Y-102.255
X448.217Y-104.795
X448.217Y-107.335
X448.217Y-109.875
X448.217Y-114.955
X448.217Y-117.495
X448.217Y-120.035
X448.217Y-122.575
X448.217Y-125.115
X448.217Y-127.655
X448.217Y-130.195
X448.217Y-132.735
X448.217Y-140.355
X448.217Y-142.895
T7
X127.2Y-64.74
X127.2Y-71.24
X131.7Y-64.74
X131.7Y-71.24
X139.86Y-281.01
X139.86Y-285.51
X139.9Y-251.01
X139.9Y-255.51
X146.36Y-281.01
X146.36Y-285.51
X146.4Y-251.01
X146.4Y-255.51
X159.78Y-110.78
X159.78Y-117.28
X164.28Y-110.78
X164.28Y-117.28
X169.21Y-64.73
X169.21Y-71.23
X173.71Y-64.73
X173.71Y-71.23
X179.57Y-244.69
X179.57Y-251.19
X179.6Y-230.75
X179.6Y-237.25
X181.662Y-296.708
X181.662Y-301.208
X183.77Y-110.77
X183.77Y-117.27
X184.07Y-244.69
X184.07Y-251.19
X184.1Y-230.75
X184.1Y-237.25
X188.162Y-296.708
X188.162Y-301.208
X188.27Y-110.77
X188.27Y-117.27
X209.99Y-64.77
X209.99Y-71.27
X214.49Y-64.77
X214.49Y-71.27
X242.37Y-225.22
X242.37Y-229.72
X248.87Y-225.22
X248.87Y-229.72
X276.38Y-225.27
X276.38Y-229.77
X282.88Y-225.27
X282.88Y-229.77
X310.38Y-225.27
X310.38Y-229.77
X316.88Y-225.27
X316.88Y-229.77
X345.53Y-206.89
X345.53Y-211.39
X352.03Y-206.89
X352.03Y-211.39
X377.226Y-64.822
X377.226Y-71.322
X381.726Y-64.822
X381.726Y-71.322
X389.76Y-280.96
X389.76Y-285.46
X389.88Y-251.08
X389.88Y-255.58
X396.26Y-280.96
X396.26Y-285.46
X396.38Y-251.08
X396.38Y-255.58
X409.84Y-110.73
X409.84Y-117.23
X414.34Y-110.73
X414.34Y-117.23
X418.93Y-64.67
X418.93Y-71.17
X423.43Y-64.67
X423.43Y-71.17
X429.32Y-244.7
X429.32Y-251.2
X429.34Y-230.75
X429.34Y-237.25
X431.852Y-296.708
X431.852Y-301.208
X433.55Y-110.77
X433.55Y-117.27
X433.82Y-244.7
X433.82Y-251.2
X433.84Y-230.75
X433.84Y-237.25
X438.05Y-110.77
X438.05Y-117.27
X438.352Y-296.708
X438.352Y-301.208
X459.92Y-64.74
X459.92Y-71.24
X464.42Y-64.74
X464.42Y-71.24
T8
X208.17Y-241.8
X208.17Y-292.3
X249.0Y-252.5
X249.0Y-285.5
X283.08Y-252.57
X283.08Y-285.57
X316.97Y-252.45
X316.97Y-285.45
X458.1Y-241.72
X458.1Y-292.22
T9
X168.4Y-114.03
X179.6Y-114.03
X418.39Y-114.05
X429.59Y-114.05
T10
X125.0Y-57.0
X125.0Y-305.0
X473.0Y-57.0
X473.0Y-305.0
T0
M30
