M48
; DRILL file {KiCad (5.99.0-11071-g7fde05e8ee)} date Sat Sep 11 01:06:52 2021
; FORMAT={-:-/ absolute / metric / decimal}
; #@! TF.CreationDate,2021-09-11T01:06:52+02:00
; #@! TF.GenerationSoftware,Kicad,Pcbnew,(5.99.0-11071-g7fde05e8ee)
; #@! TF.FileFunction,Plated,1,2,PTH
FMAT,2
METRIC
; #@! TA.AperFunction,Plated,PTH,ViaDrill
T1C0.635
; #@! TA.AperFunction,Plated,PTH,ComponentDrill
T2C0.900
; #@! TA.AperFunction,Plated,PTH,ComponentDrill
T3C0.950
; #@! TA.AperFunction,Plated,PTH,ComponentDrill
T4C1.000
; #@! TA.AperFunction,Plated,PTH,ComponentDrill
T5C1.016
; #@! TA.AperFunction,Plated,PTH,ComponentDrill
T6C1.500
; #@! TA.AperFunction,Plated,PTH,ComponentDrill
T7C2.600
; #@! TA.AperFunction,Plated,PTH,ComponentDrill
T8C3.200
%
G90
G05
T1
X135.5Y-165.6
X136.144Y-161.29
X136.144Y-183.642
X136.7Y-190.9
X137.2Y-254.2
X137.8Y-187.48
X138.1Y-162.33
X138.4Y-183.4
X138.894Y-158.511
X139.9Y-288.4
X141.54Y-249.83
X142.6Y-288.1
X144.3Y-259.0
X144.574Y-184.903
X144.8Y-278.1
X145.96Y-164.44
X146.304Y-149.86
X146.9Y-287.4
X147.3Y-247.7
X150.8Y-252.4
X151.2Y-281.9
X152.59Y-288.26
X153.5Y-245.29
X156.64Y-248.77
X160.528Y-78.486
X161.798Y-158.496
X161.9Y-165.8
X161.98Y-162.98
X162.0Y-190.9
X162.052Y-77.978
X162.052Y-81.28
X162.07Y-188.16
X162.1Y-185.7
X162.1Y-253.1
X162.1Y-280.1
X162.306Y-183.642
X162.4Y-160.8
X163.004Y-83.566
X167.27Y-221.4
X169.64Y-234.01
X169.926Y-205.74
X170.37Y-184.47
X171.1Y-237.7
X171.2Y-226.8
X171.3Y-159.84
X171.45Y-204.216
X171.45Y-205.74
X171.46Y-143.23
X171.628Y-202.946
X172.6Y-244.4
X174.9Y-223.3
X175.006Y-204.724
X175.9Y-222.1
X176.022Y-81.534
X176.022Y-203.962
X177.2Y-220.9
X178.054Y-204.724
X178.24Y-226.92
X178.28Y-136.87
X179.578Y-205.74
X179.832Y-141.224
X180.34Y-81.534
X183.6Y-261.2
X183.6Y-265.3
X184.658Y-216.662
X186.7Y-165.6
X186.9Y-190.6
X186.944Y-183.642
X187.1Y-187.91
X187.198Y-158.75
X187.4Y-185.7
X187.8Y-160.6
X188.95Y-165.4
X190.754Y-209.296
X194.27Y-166.99
X194.818Y-233.934
X195.31Y-189.67
X196.85Y-248.412
X196.85Y-252.73
X196.85Y-299.212
X196.85Y-302.768
X198.12Y-249.174
X198.12Y-251.46
X198.12Y-299.974
X198.12Y-302.514
X206.41Y-90.47
X206.46Y-85.4
X207.3Y-194.3
X210.3Y-190.5
X211.6Y-165.5
X211.73Y-85.53
X211.73Y-89.91
X211.836Y-161.798
X212.09Y-183.642
X212.59Y-187.89
X212.7Y-185.7
X213.0Y-160.4
X215.54Y-162.0
X219.77Y-158.35
X220.25Y-189.95
X225.66Y-116.84
X226.08Y-111.88
X226.804Y-207.932
X237.49Y-230.378
X250.444Y-216.408
X252.5Y-117.9
X252.6Y-119.6
X254.24Y-121.74
X254.254Y-220.408
X254.475Y-151.005
X255.8Y-119.5
X257.81Y-220.98
X261.96Y-111.76
X261.96Y-116.2
X272.796Y-230.886
X280.416Y-189.484
X280.924Y-192.278
X280.98Y-107.04
X281.686Y-104.902
X283.756Y-222.212
X284.734Y-217.424
X285.134Y-106.826
X286.004Y-225.806
X286.5Y-117.9
X287.55Y-210.25
X288.036Y-224.028
X288.29Y-120.142
X288.544Y-218.694
X289.7Y-116.02
X289.82Y-111.6
X289.82Y-213.26
X290.068Y-148.844
X291.084Y-82.55
X291.592Y-88.392
X291.846Y-98.298
X292.11Y-211.77
X292.608Y-226.06
X292.844Y-99.04
X293.3Y-204.66
X293.37Y-196.342
X294.265Y-197.479
X294.894Y-221.488
X296.926Y-219.456
X297.434Y-207.518
X297.434Y-217.932
X297.942Y-215.392
X298.2Y-87.5
X298.3Y-95.86
X298.958Y-208.026
X298.958Y-214.122
X299.72Y-209.55
X299.72Y-224.536
X301.244Y-203.962
X301.244Y-211.074
X301.498Y-201.93
X301.752Y-221.742
X302.08Y-99.23
X302.832Y-223.946
X303.022Y-200.406
X303.022Y-203.962
X303.276Y-227.838
X305.928Y-224.98
X306.744Y-220.052
X307.34Y-208.28
X307.91Y-221.1
X308.102Y-224.028
X308.61Y-208.28
X308.864Y-215.9
X308.88Y-87.5
X309.118Y-83.82
X310.92Y-216.6
X316.652Y-150.114
X317.26Y-225.51
X317.5Y-93.472
X318.0Y-126.0
X318.262Y-158.496
X318.262Y-161.798
X318.77Y-94.424
X320.3Y-117.4
X320.6Y-151.38
X321.056Y-155.448
X321.63Y-225.63
X322.6Y-120.0
X326.644Y-214.63
X331.61Y-115.59
X332.14Y-111.47
X332.486Y-179.324
X332.67Y-140.92
X332.994Y-181.864
X333.8Y-234.6
X335.28Y-232.41
X337.3Y-234.7
X338.836Y-236.22
X340.01Y-140.65
X340.614Y-104.648
X344.98Y-151.31
X348.31Y-112.24
X348.42Y-140.92
X349.09Y-120.07
X349.12Y-127.09
X349.19Y-146.59
X349.22Y-115.29
X349.66Y-117.448
X350.23Y-121.89
X350.236Y-149.956
X350.59Y-153.79
X350.852Y-148.875
X350.89Y-210.34
X352.42Y-158.4
X353.06Y-140.462
X353.06Y-144.78
X354.465Y-117.448
X355.028Y-144.78
X355.37Y-197.81
X355.65Y-193.44
X355.854Y-140.716
X360.94Y-152.56
X361.0Y-198.7
X361.01Y-141.88
X361.3Y-204.1
X362.024Y-149.836
X362.204Y-197.104
X363.1Y-195.6
X363.16Y-150.483
X363.452Y-200.43
X363.5Y-204.3
X364.744Y-198.12
X366.776Y-174.498
X367.25Y-144.91
X367.739Y-150.962
X367.8Y-149.4
X367.99Y-119.71
X368.2Y-116.9
X368.24Y-115.11
X368.8Y-154.8
X369.2Y-194.6
X369.316Y-156.972
X369.91Y-126.12
X370.332Y-158.242
X371.18Y-186.51
X372.49Y-128.99
X373.06Y-151.4
X373.2Y-200.9
X373.31Y-118.72
X373.8Y-120.0
X374.49Y-149.97
X374.87Y-147.58
X375.1Y-193.2
X375.86Y-184.07
X376.174Y-77.724
X376.682Y-149.86
X377.0Y-204.4
X377.19Y-157.734
X377.19Y-175.006
X377.952Y-81.788
X378.0Y-195.8
X380.06Y-117.54
X380.2Y-200.4
X380.238Y-59.436
X380.238Y-175.006
X380.395Y-184.084
X381.0Y-60.706
X381.508Y-156.718
X381.51Y-126.74
X381.59Y-152.14
X381.762Y-118.618
X382.88Y-150.8
X383.032Y-60.706
X383.794Y-59.436
X384.0Y-124.25
X384.7Y-187.0
X384.7Y-204.0
X385.6Y-159.0
X386.334Y-183.896
X386.773Y-139.013
X387.056Y-119.848
X387.5Y-153.6
X387.6Y-162.4
X387.7Y-186.7
X387.73Y-164.88
X388.04Y-188.55
X388.1Y-184.0
X388.4Y-158.7
X388.938Y-137.02
X389.2Y-140.395
X389.575Y-216.525
X389.685Y-141.638
X389.89Y-135.382
X390.144Y-218.44
X390.775Y-138.637
X391.346Y-136.052
X391.986Y-118.79
X392.176Y-131.064
X392.43Y-110.49
X392.7Y-288.5
X393.3Y-212.8
X393.4Y-104.8
X393.6Y-133.794
X394.71Y-165.8
X394.872Y-136.467
X394.93Y-138.48
X395.1Y-259.5
X395.13Y-150.81
X395.432Y-139.98
X395.6Y-157.0
X395.732Y-132.842
X395.77Y-191.13
X396.1Y-184.7
X396.4Y-141.2
X396.748Y-115.316
X396.85Y-152.12
X396.88Y-282.66
X396.91Y-253.72
X397.218Y-283.857
X397.51Y-224.116
X397.764Y-59.69
X400.05Y-58.928
X400.4Y-282.7
X400.5Y-251.9
X403.1Y-194.8
X403.3Y-199.6
X403.58Y-257.08
X404.746Y-194.72
X405.48Y-177.45
X405.604Y-148.95
X405.62Y-134.982
X405.64Y-121.68
X406.1Y-195.5
X406.146Y-224.79
X406.4Y-137.668
X406.46Y-133.022
X406.595Y-146.228
X406.625Y-124.46
X407.006Y-194.408
X407.2Y-200.7
X407.83Y-172.09
X408.4Y-151.94
X408.647Y-149.752
X408.873Y-169.063
X408.94Y-137.668
X409.03Y-124.76
X409.9Y-187.1
X410.14Y-150.9
X410.6Y-278.9
X410.9Y-149.2
X411.48Y-125.73
X412.242Y-185.166
X412.242Y-186.944
X412.31Y-105.98
X412.4Y-162.6
X412.72Y-160.93
X412.96Y-165.02
X413.004Y-126.682
X413.004Y-158.496
X413.31Y-190.27
X413.512Y-183.642
X413.79Y-215.68
X414.8Y-238.6
X415.45Y-218.11
X417.576Y-209.296
X417.93Y-131.32
X418.094Y-218.861
X418.1Y-211.8
X418.7Y-167.53
X418.846Y-209.042
X419.2Y-213.0
X419.374Y-220.756
X420.37Y-218.948
X421.386Y-127.342
X421.5Y-192.91
X421.894Y-137.668
X422.43Y-187.618
X423.19Y-198.12
X423.79Y-227.33
X426.3Y-195.6
X426.974Y-128.294
X428.0Y-188.0
X428.849Y-137.668
X429.006Y-99.822
X429.9Y-264.3
X430.784Y-192.532
X432.308Y-194.056
X432.562Y-99.822
X432.8Y-195.7
X432.96Y-202.66
X433.1Y-241.5
X436.372Y-186.69
X436.88Y-159.004
X437.5Y-162.2
X437.57Y-190.36
X437.642Y-183.388
X437.8Y-164.8
X437.9Y-160.6
X438.239Y-188.307
X444.15Y-192.42
X444.31Y-167.33
X450.85Y-89.11
X453.898Y-93.98
X454.406Y-86.614
X455.62Y-145.42
X455.676Y-92.202
X456.946Y-97.028
X458.724Y-95.25
X460.298Y-194.608
X460.3Y-162.0
X461.4Y-190.6
X461.6Y-165.6
X462.026Y-161.036
X462.026Y-187.198
X462.5Y-159.5
X462.5Y-185.7
X463.05Y-162.4
X463.84Y-187.26
X470.29Y-166.18
X471.25Y-190.28
T2
X235.125Y-107.01
X235.125Y-111.51
X235.125Y-116.01
X235.125Y-120.51
X235.125Y-125.01
X235.125Y-129.51
X235.125Y-134.01
X235.125Y-138.51
X235.125Y-143.01
X235.125Y-147.51
X235.125Y-152.01
X235.125Y-156.51
X235.125Y-161.01
X235.175Y-165.61
X235.215Y-170.13
X237.665Y-107.01
X237.665Y-111.51
X237.665Y-116.01
X237.665Y-120.51
X237.665Y-125.01
X237.665Y-129.51
X237.665Y-134.01
X237.665Y-138.51
X237.665Y-143.01
X237.665Y-147.51
X237.665Y-152.01
X237.665Y-156.51
X237.665Y-161.01
X237.715Y-165.61
X237.755Y-170.13
X269.5Y-138.6
X269.5Y-143.1
X269.5Y-147.6
X269.5Y-152.1
X269.5Y-156.6
X269.5Y-161.1
X269.5Y-165.6
X269.5Y-170.1
X269.525Y-107.11
X269.525Y-111.61
X269.525Y-116.11
X269.525Y-120.61
X269.525Y-125.11
X269.525Y-129.61
X269.525Y-134.11
X272.04Y-138.6
X272.04Y-143.1
X272.04Y-147.6
X272.04Y-152.1
X272.04Y-156.6
X272.04Y-161.1
X272.04Y-165.6
X272.04Y-170.1
X272.065Y-107.11
X272.065Y-111.61
X272.065Y-116.11
X272.065Y-120.61
X272.065Y-125.11
X272.065Y-129.61
X272.065Y-134.11
X303.525Y-107.01
X303.525Y-111.51
X303.525Y-116.01
X303.525Y-120.51
X303.525Y-125.01
X303.525Y-129.51
X303.525Y-134.01
X303.525Y-138.5
X303.525Y-143.0
X303.525Y-147.5
X303.525Y-152.0
X303.525Y-156.5
X303.525Y-161.0
X303.525Y-165.5
X303.525Y-169.99
X306.065Y-107.01
X306.065Y-111.51
X306.065Y-116.01
X306.065Y-120.51
X306.065Y-125.01
X306.065Y-129.51
X306.065Y-134.01
X306.065Y-138.5
X306.065Y-143.0
X306.065Y-147.5
X306.065Y-152.0
X306.065Y-156.5
X306.065Y-161.0
X306.065Y-165.5
X306.065Y-169.99
X340.445Y-147.3
X340.45Y-169.8
X340.46Y-106.8
X340.46Y-111.3
X340.46Y-115.8
X340.46Y-120.3
X340.46Y-124.8
X340.46Y-129.3
X340.46Y-133.8
X340.46Y-138.3
X340.46Y-142.8
X340.46Y-151.8
X340.46Y-156.3
X340.46Y-160.8
X340.46Y-165.3
X342.985Y-147.3
X342.99Y-169.8
X343.0Y-106.8
X343.0Y-111.3
X343.0Y-115.8
X343.0Y-120.3
X343.0Y-124.8
X343.0Y-129.3
X343.0Y-133.8
X343.0Y-138.3
X343.0Y-142.8
X343.0Y-151.8
X343.0Y-156.3
X343.0Y-160.8
X343.0Y-165.3
X356.36Y-106.7
X356.36Y-111.2
X356.36Y-115.7
X356.36Y-120.2
X356.36Y-124.7
X356.36Y-129.2
X356.36Y-133.7
X356.36Y-138.2
X356.36Y-142.7
X356.36Y-147.2
X356.36Y-151.7
X356.36Y-156.2
X356.36Y-160.7
X356.36Y-165.2
X356.36Y-169.7
X358.9Y-106.7
X358.9Y-111.2
X358.9Y-115.7
X358.9Y-120.2
X358.9Y-124.7
X358.9Y-129.2
X358.9Y-133.7
X358.9Y-138.2
X358.9Y-142.7
X358.9Y-147.2
X358.9Y-151.7
X358.9Y-156.2
X358.9Y-160.7
X358.9Y-165.2
X358.9Y-169.7
T3
X216.55Y-210.95
X216.55Y-213.45
X216.55Y-216.03
X216.55Y-218.57
X466.75Y-211.25
X466.75Y-213.75
X466.75Y-216.33
X466.75Y-218.87
T4
X129.45Y-75.47
X131.95Y-75.47
X134.45Y-75.47
X171.47Y-75.48
X171.5Y-106.53
X171.5Y-121.03
X173.97Y-75.48
X174.0Y-106.53
X176.47Y-75.48
X176.5Y-106.53
X176.5Y-121.03
X204.36Y-232.3
X204.39Y-303.2
X206.9Y-232.3
X209.44Y-232.3
X209.47Y-303.2
X211.98Y-232.3
X212.36Y-75.46
X214.86Y-75.46
X217.36Y-75.46
X245.09Y-248.368
X245.2Y-303.232
X246.45Y-143.33
X246.46Y-75.37
X246.48Y-177.42
X246.49Y-109.38
X246.51Y-212.35
X247.63Y-248.368
X248.95Y-143.33
X248.96Y-75.37
X248.98Y-177.42
X248.99Y-109.38
X249.01Y-212.35
X250.17Y-248.368
X250.28Y-303.232
X251.45Y-143.33
X251.46Y-75.37
X251.48Y-177.42
X251.49Y-109.38
X251.51Y-212.35
X252.71Y-248.368
X279.17Y-248.438
X279.28Y-303.302
X280.47Y-177.46
X280.49Y-109.4
X280.5Y-143.43
X280.5Y-212.55
X280.51Y-75.44
X281.71Y-248.438
X282.97Y-177.46
X282.99Y-109.4
X283.0Y-143.43
X283.0Y-212.55
X283.01Y-75.44
X284.25Y-248.438
X284.36Y-303.302
X285.47Y-177.46
X285.49Y-109.4
X285.5Y-143.43
X285.5Y-212.55
X285.51Y-75.44
X286.79Y-248.438
X313.06Y-248.318
X313.17Y-303.182
X314.5Y-212.45
X314.51Y-75.38
X314.51Y-143.43
X314.597Y-109.402
X314.6Y-177.4
X315.6Y-248.318
X317.0Y-212.45
X317.01Y-75.38
X317.01Y-143.43
X317.097Y-109.402
X317.1Y-177.4
X318.14Y-248.318
X318.25Y-303.182
X319.5Y-212.45
X319.51Y-75.38
X319.51Y-143.43
X319.597Y-109.402
X319.6Y-177.4
X320.68Y-248.318
X346.5Y-91.648
X346.53Y-257.04
X346.56Y-290.04
X349.0Y-91.648
X349.03Y-257.04
X349.06Y-290.04
X351.5Y-91.648
X351.53Y-257.04
X351.56Y-290.04
X379.49Y-75.38
X381.99Y-75.38
X384.49Y-75.38
X421.49Y-107.05
X421.49Y-121.55
X421.51Y-75.39
X423.99Y-121.55
X424.01Y-75.39
X426.49Y-107.05
X426.49Y-121.55
X426.51Y-75.39
X454.29Y-232.22
X454.32Y-303.12
X456.83Y-232.22
X459.37Y-232.22
X459.4Y-303.12
X461.91Y-232.22
X462.47Y-75.33
X464.97Y-75.33
X467.47Y-75.33
T5
X399.957Y-74.315
X399.957Y-76.855
X399.957Y-79.395
X399.957Y-81.935
X399.957Y-84.475
X399.957Y-87.015
X399.957Y-89.555
X399.957Y-92.095
X399.957Y-97.175
X399.957Y-99.715
X399.957Y-102.255
X399.957Y-104.795
X399.957Y-107.335
X399.957Y-109.875
X399.957Y-112.415
X399.957Y-114.955
X399.957Y-120.035
X399.957Y-122.575
X399.957Y-125.115
X399.957Y-127.655
X399.957Y-130.195
X399.957Y-132.735
X399.957Y-135.275
X399.957Y-137.815
X405.037Y-140.355
X405.037Y-142.895
X407.577Y-140.355
X407.577Y-142.895
X410.118Y-140.355
X410.118Y-142.895
X412.657Y-140.355
X412.657Y-142.895
X415.197Y-140.355
X415.197Y-142.895
X417.737Y-140.355
X417.737Y-142.895
X420.277Y-140.355
X420.277Y-142.895
X422.817Y-140.355
X422.817Y-142.895
X425.357Y-140.355
X425.357Y-142.895
X427.897Y-140.355
X427.897Y-142.895
X430.438Y-140.355
X430.438Y-142.895
X432.977Y-140.355
X432.977Y-142.895
X435.517Y-140.355
X435.517Y-142.895
X438.058Y-140.355
X438.058Y-142.895
X440.597Y-140.355
X440.597Y-142.895
X443.137Y-140.355
X443.137Y-142.895
X445.677Y-140.355
X445.677Y-142.895
X448.217Y-65.171
X448.217Y-67.711
X448.217Y-70.251
X448.217Y-72.791
X448.217Y-75.331
X448.217Y-77.871
X448.217Y-80.411
X448.217Y-82.951
X448.217Y-85.491
X448.217Y-88.031
X448.217Y-92.095
X448.217Y-94.635
X448.217Y-97.175
X448.217Y-99.715
X448.217Y-102.255
X448.217Y-104.795
X448.217Y-107.335
X448.217Y-109.875
X448.217Y-114.955
X448.217Y-117.495
X448.217Y-120.035
X448.217Y-122.575
X448.217Y-125.115
X448.217Y-127.655
X448.217Y-130.195
X448.217Y-132.735
X448.217Y-140.355
X448.217Y-142.895
T6
X208.17Y-241.8
X208.17Y-292.3
X248.9Y-259.3
X248.9Y-292.3
X282.98Y-259.37
X282.98Y-292.37
X316.87Y-259.25
X316.87Y-292.25
X458.1Y-241.72
X458.1Y-292.22
T7
X168.4Y-114.03
X179.6Y-114.03
X418.39Y-114.05
X429.59Y-114.05
T8
X125.0Y-305.0
X125.2Y-57.3
X473.0Y-57.0
X473.0Y-305.0
T0
M30
