%TF.GenerationSoftware,KiCad,Pcbnew,(5.99.0-11071-g7fde05e8ee)*%
%TF.CreationDate,2021-09-11T01:06:25+02:00*%
%TF.ProjectId,Mixduino,4d697864-7569-46e6-9f2e-6b696361645f,rev?*%
%TF.SameCoordinates,Original*%
%TF.FileFunction,Soldermask,Bot*%
%TF.FilePolarity,Negative*%
%FSLAX46Y46*%
G04 Gerber Fmt 4.6, Leading zero omitted, Abs format (unit mm)*
G04 Created by KiCad (PCBNEW (5.99.0-11071-g7fde05e8ee)) date 2021-09-11 01:06:25*
%MOMM*%
%LPD*%
G01*
G04 APERTURE LIST*
G04 Aperture macros list*
%AMRoundRect*
0 Rectangle with rounded corners*
0 $1 Rounding radius*
0 $2 $3 $4 $5 $6 $7 $8 $9 X,Y pos of 4 corners*
0 Add a 4 corners polygon primitive as box body*
4,1,4,$2,$3,$4,$5,$6,$7,$8,$9,$2,$3,0*
0 Add four circle primitives for the rounded corners*
1,1,$1+$1,$2,$3*
1,1,$1+$1,$4,$5*
1,1,$1+$1,$6,$7*
1,1,$1+$1,$8,$9*
0 Add four rect primitives between the rounded corners*
20,1,$1+$1,$2,$3,$4,$5,0*
20,1,$1+$1,$4,$5,$6,$7,0*
20,1,$1+$1,$6,$7,$8,$9,0*
20,1,$1+$1,$8,$9,$2,$3,0*%
G04 Aperture macros list end*
%TA.AperFunction,Profile*%
%ADD10C,0.150000*%
%TD*%
%ADD11R,1.800000X1.800000*%
%ADD12C,1.800000*%
%ADD13C,2.000000*%
%ADD14O,1.600000X2.400000*%
%ADD15O,1.600000X2.462000*%
%ADD16C,3.600000*%
%ADD17C,6.400000*%
%ADD18C,3.200000*%
%ADD19C,4.000000*%
%ADD20RoundRect,0.250000X-0.725000X0.600000X-0.725000X-0.600000X0.725000X-0.600000X0.725000X0.600000X0*%
%ADD21O,1.950000X1.700000*%
%ADD22R,2.000000X2.000000*%
%ADD23O,1.727200X1.727200*%
%ADD24RoundRect,0.250000X-0.400000X-0.625000X0.400000X-0.625000X0.400000X0.625000X-0.400000X0.625000X0*%
%ADD25R,1.900000X0.800000*%
%ADD26RoundRect,0.250000X0.400000X0.625000X-0.400000X0.625000X-0.400000X-0.625000X0.400000X-0.625000X0*%
%ADD27RoundRect,0.150000X0.150000X-0.875000X0.150000X0.875000X-0.150000X0.875000X-0.150000X-0.875000X0*%
%ADD28RoundRect,0.250000X0.625000X-0.400000X0.625000X0.400000X-0.625000X0.400000X-0.625000X-0.400000X0*%
%ADD29RoundRect,0.150000X-0.725000X-0.150000X0.725000X-0.150000X0.725000X0.150000X-0.725000X0.150000X0*%
%ADD30RoundRect,0.150000X0.875000X0.150000X-0.875000X0.150000X-0.875000X-0.150000X0.875000X-0.150000X0*%
G04 APERTURE END LIST*
D10*
X479000000Y-311000000D02*
X119000000Y-311000000D01*
X119000000Y-311000000D02*
X119000000Y-51000000D01*
X479000000Y-51000000D02*
X479000000Y-311000000D01*
X119000000Y-51000000D02*
X479000000Y-51000000D01*
D11*
%TO.C,D42*%
X269500000Y-156600000D03*
D12*
X272040000Y-156600000D03*
%TD*%
D13*
%TO.C,RV17*%
X248900000Y-292300000D03*
X248900000Y-259300000D03*
D14*
X250170000Y-248368000D03*
X245090000Y-248368000D03*
X247630000Y-248368000D03*
D15*
X252710000Y-248368000D03*
D14*
X245200000Y-303232000D03*
X250280000Y-303232000D03*
%TD*%
D11*
%TO.C,D36*%
X235125000Y-116010000D03*
D12*
X237665000Y-116010000D03*
%TD*%
D11*
%TO.C,D39*%
X269500000Y-170100000D03*
D12*
X272040000Y-170100000D03*
%TD*%
D11*
%TO.C,D49*%
X269525000Y-125110000D03*
D12*
X272065000Y-125110000D03*
%TD*%
D11*
%TO.C,D67*%
X303525000Y-111510000D03*
D12*
X306065000Y-111510000D03*
%TD*%
D11*
%TO.C,D37*%
X235125000Y-111510000D03*
D12*
X237665000Y-111510000D03*
%TD*%
D11*
%TO.C,D26*%
X235125000Y-161010000D03*
D12*
X237665000Y-161010000D03*
%TD*%
D16*
%TO.C,REF\u002A\u002A*%
X473000000Y-57000000D03*
D17*
X473000000Y-57000000D03*
%TD*%
D18*
%TO.C,REF\u002A\u002A*%
X149520000Y-162090000D03*
%TD*%
D19*
%TO.C,RV8*%
X136350000Y-68470000D03*
X127550000Y-68470000D03*
D12*
X134450000Y-75470000D03*
X131950000Y-75470000D03*
X129450000Y-75470000D03*
%TD*%
D16*
%TO.C,*%
X125200000Y-57300000D03*
D17*
X125200000Y-57300000D03*
%TD*%
D11*
%TO.C,D62*%
X303525000Y-134010000D03*
D12*
X306065000Y-134010000D03*
%TD*%
D19*
%TO.C,RV7*%
X210460000Y-68460000D03*
X219260000Y-68460000D03*
D12*
X217360000Y-75460000D03*
X214860000Y-75460000D03*
X212360000Y-75460000D03*
%TD*%
D20*
%TO.C,TB1*%
X216550000Y-210950000D03*
D21*
X216550000Y-213450000D03*
X216550000Y-216030000D03*
X216550000Y-218570000D03*
%TD*%
D11*
%TO.C,D66*%
X303525000Y-116010000D03*
D12*
X306065000Y-116010000D03*
%TD*%
D13*
%TO.C,RV21*%
X282980000Y-259370000D03*
X282980000Y-292370000D03*
D14*
X279170000Y-248438000D03*
X284250000Y-248438000D03*
X281710000Y-248438000D03*
D15*
X286790000Y-248438000D03*
D14*
X279280000Y-303302000D03*
X284360000Y-303302000D03*
%TD*%
D11*
%TO.C,D69*%
X340450000Y-169800000D03*
D12*
X342990000Y-169800000D03*
%TD*%
D11*
%TO.C,D84*%
X356360000Y-169700000D03*
D12*
X358900000Y-169700000D03*
%TD*%
D11*
%TO.C,D34*%
X235125000Y-125010000D03*
D12*
X237665000Y-125010000D03*
%TD*%
D19*
%TO.C,RV15*%
X278600000Y-205550000D03*
X287400000Y-205550000D03*
D12*
X285500000Y-212550000D03*
X283000000Y-212550000D03*
X280500000Y-212550000D03*
%TD*%
D11*
%TO.C,D50*%
X269525000Y-120610000D03*
D12*
X272065000Y-120610000D03*
%TD*%
D19*
%TO.C,RV6*%
X278610000Y-68440000D03*
X287410000Y-68440000D03*
D12*
X285510000Y-75440000D03*
X283010000Y-75440000D03*
X280510000Y-75440000D03*
%TD*%
D11*
%TO.C,D55*%
X303525000Y-165500000D03*
D12*
X306065000Y-165500000D03*
%TD*%
D18*
%TO.C,REF\u002A\u002A*%
X137020000Y-174600000D03*
%TD*%
D11*
%TO.C,D24*%
X235215000Y-170130000D03*
D12*
X237755000Y-170130000D03*
%TD*%
D11*
%TO.C,D61*%
X303525000Y-138500000D03*
D12*
X306065000Y-138500000D03*
%TD*%
D11*
%TO.C,D87*%
X356360000Y-156200000D03*
D12*
X358900000Y-156200000D03*
%TD*%
D13*
%TO.C,RV28*%
X458100000Y-241720000D03*
X458100000Y-292220000D03*
D14*
X459370000Y-232220000D03*
X454290000Y-232220000D03*
D15*
X461910000Y-232220000D03*
D14*
X456830000Y-232220000D03*
X459400000Y-303120000D03*
X454320000Y-303120000D03*
%TD*%
D18*
%TO.C,REF\u002A\u002A*%
X211980000Y-174570000D03*
%TD*%
D11*
%TO.C,D35*%
X235125000Y-120510000D03*
D12*
X237665000Y-120510000D03*
%TD*%
D11*
%TO.C,D53*%
X269525000Y-107110000D03*
D12*
X272065000Y-107110000D03*
%TD*%
D11*
%TO.C,D94*%
X356360000Y-124700000D03*
D12*
X358900000Y-124700000D03*
%TD*%
D19*
%TO.C,RV12*%
X287390000Y-102400000D03*
X278590000Y-102400000D03*
D12*
X285490000Y-109400000D03*
X282990000Y-109400000D03*
X280490000Y-109400000D03*
%TD*%
D11*
%TO.C,D72*%
X340460000Y-156300000D03*
D12*
X343000000Y-156300000D03*
%TD*%
D19*
%TO.C,RV24*%
X344630000Y-250040000D03*
X353430000Y-250040000D03*
D12*
X351530000Y-257040000D03*
X349030000Y-257040000D03*
X346530000Y-257040000D03*
%TD*%
D11*
%TO.C,D32*%
X235125000Y-134010000D03*
D12*
X237665000Y-134010000D03*
%TD*%
D11*
%TO.C,D41*%
X269500000Y-161100000D03*
D12*
X272040000Y-161100000D03*
%TD*%
D22*
%TO.C,SW2*%
X421490000Y-121550000D03*
D13*
X426490000Y-121550000D03*
X423990000Y-121550000D03*
D18*
X418390000Y-114050000D03*
X429590000Y-114050000D03*
D13*
X426490000Y-107050000D03*
X421490000Y-107050000D03*
%TD*%
D18*
%TO.C,REF\u002A\u002A*%
X186980000Y-174580000D03*
%TD*%
%TO.C,REF\u002A\u002A*%
X400050000Y-162120000D03*
%TD*%
D11*
%TO.C,D27*%
X235125000Y-156510000D03*
D12*
X237665000Y-156510000D03*
%TD*%
D11*
%TO.C,D54*%
X303525000Y-169990000D03*
D12*
X306065000Y-169990000D03*
%TD*%
D11*
%TO.C,D46*%
X269500000Y-138600000D03*
D12*
X272040000Y-138600000D03*
%TD*%
D11*
%TO.C,D52*%
X269525000Y-111610000D03*
D12*
X272065000Y-111610000D03*
%TD*%
D11*
%TO.C,D33*%
X235125000Y-129510000D03*
D12*
X237665000Y-129510000D03*
%TD*%
D11*
%TO.C,D93*%
X356360000Y-129200000D03*
D12*
X358900000Y-129200000D03*
%TD*%
D11*
%TO.C,D88*%
X356360000Y-151700000D03*
D12*
X358900000Y-151700000D03*
%TD*%
D11*
%TO.C,D68*%
X303525000Y-107010000D03*
D12*
X306065000Y-107010000D03*
%TD*%
D18*
%TO.C,REF\u002A\u002A*%
X462510000Y-174590000D03*
%TD*%
D11*
%TO.C,D92*%
X356360000Y-133700000D03*
D12*
X358900000Y-133700000D03*
%TD*%
D19*
%TO.C,RV1*%
X377590000Y-68380000D03*
X386390000Y-68380000D03*
D12*
X384490000Y-75380000D03*
X381990000Y-75380000D03*
X379490000Y-75380000D03*
%TD*%
D19*
%TO.C,RV11*%
X244590000Y-102380000D03*
X253390000Y-102380000D03*
D12*
X251490000Y-109380000D03*
X248990000Y-109380000D03*
X246490000Y-109380000D03*
%TD*%
D19*
%TO.C,RV13*%
X312696975Y-102402186D03*
X321496975Y-102402186D03*
D12*
X319596975Y-109402186D03*
X317096975Y-109402186D03*
X314596975Y-109402186D03*
%TD*%
D11*
%TO.C,D31*%
X235125000Y-138510000D03*
D12*
X237665000Y-138510000D03*
%TD*%
D18*
%TO.C,REF\u002A\u002A*%
X387560000Y-174630000D03*
%TD*%
D11*
%TO.C,D75*%
X340460000Y-142800000D03*
D12*
X343000000Y-142800000D03*
%TD*%
D11*
%TO.C,D98*%
X356360000Y-106700000D03*
D12*
X358900000Y-106700000D03*
%TD*%
D11*
%TO.C,D48*%
X269525000Y-129610000D03*
D12*
X272065000Y-129610000D03*
%TD*%
D11*
%TO.C,D86*%
X356360000Y-160700000D03*
D12*
X358900000Y-160700000D03*
%TD*%
D11*
%TO.C,D59*%
X303525000Y-147500000D03*
D12*
X306065000Y-147500000D03*
%TD*%
D18*
%TO.C,REF\u002A\u002A*%
X450000000Y-162100000D03*
%TD*%
D19*
%TO.C,RV9*%
X419610000Y-68390000D03*
X428410000Y-68390000D03*
D12*
X426510000Y-75390000D03*
X424010000Y-75390000D03*
X421510000Y-75390000D03*
%TD*%
D11*
%TO.C,D45*%
X269500000Y-143100000D03*
D12*
X272040000Y-143100000D03*
%TD*%
D19*
%TO.C,RV26*%
X287400000Y-136430000D03*
X278600000Y-136430000D03*
D12*
X285500000Y-143430000D03*
X283000000Y-143430000D03*
X280500000Y-143430000D03*
%TD*%
D11*
%TO.C,D91*%
X356360000Y-138200000D03*
D12*
X358900000Y-138200000D03*
%TD*%
D13*
%TO.C,RV22*%
X316870000Y-259250000D03*
X316870000Y-292250000D03*
D14*
X313060000Y-248318000D03*
X318140000Y-248318000D03*
X315600000Y-248318000D03*
D15*
X320680000Y-248318000D03*
D14*
X318250000Y-303182000D03*
X313170000Y-303182000D03*
%TD*%
D11*
%TO.C,D74*%
X340445000Y-147300000D03*
D12*
X342985000Y-147300000D03*
%TD*%
D11*
%TO.C,D97*%
X356360000Y-111200000D03*
D12*
X358900000Y-111200000D03*
%TD*%
D23*
%TO.C,XA1*%
X399957500Y-74315000D03*
X399957500Y-81935000D03*
X399957500Y-84475000D03*
X448217500Y-140355000D03*
X448217500Y-142895000D03*
X399957500Y-97175000D03*
X399957500Y-99715000D03*
X399957500Y-102255000D03*
X399957500Y-104795000D03*
X399957500Y-107335000D03*
X399957500Y-109875000D03*
X399957500Y-112415000D03*
X399957500Y-114955000D03*
X399957500Y-120035000D03*
X399957500Y-122575000D03*
X399957500Y-125115000D03*
X399957500Y-127655000D03*
X399957500Y-130195000D03*
X399957500Y-132735000D03*
X399957500Y-135275000D03*
X399957500Y-137815000D03*
X448217500Y-70251000D03*
X448217500Y-109875000D03*
X448217500Y-107335000D03*
X448217500Y-104795000D03*
X448217500Y-102255000D03*
X448217500Y-99715000D03*
X448217500Y-97175000D03*
X448217500Y-94635000D03*
X448217500Y-92095000D03*
X448217500Y-88031000D03*
X448217500Y-85491000D03*
X448217500Y-82951000D03*
X448217500Y-80411000D03*
X448217500Y-77871000D03*
X448217500Y-75331000D03*
X448217500Y-114955000D03*
X448217500Y-117495000D03*
X448217500Y-120035000D03*
X448217500Y-122575000D03*
X448217500Y-125115000D03*
X448217500Y-127655000D03*
X448217500Y-130195000D03*
X448217500Y-132735000D03*
X445677500Y-140355000D03*
X445677500Y-142895000D03*
X443137500Y-140355000D03*
X443137500Y-142895000D03*
X440597500Y-140355000D03*
X440597500Y-142895000D03*
X438057500Y-140355000D03*
X438057500Y-142895000D03*
X435517500Y-140355000D03*
X435517500Y-142895000D03*
X432977500Y-140355000D03*
X432977500Y-142895000D03*
X430437500Y-140355000D03*
X430437500Y-142895000D03*
X427897500Y-140355000D03*
X427897500Y-142895000D03*
X425357500Y-140355000D03*
X425357500Y-142895000D03*
X422817500Y-140355000D03*
X422817500Y-142895000D03*
X420277500Y-140355000D03*
X420277500Y-142895000D03*
X417737500Y-140355000D03*
X417737500Y-142895000D03*
X415197500Y-140355000D03*
X415197500Y-142895000D03*
X412657500Y-140355000D03*
X412657500Y-142895000D03*
X410117500Y-140355000D03*
X410117500Y-142895000D03*
X407577500Y-140355000D03*
X407577500Y-142895000D03*
X448217500Y-72791000D03*
X399957500Y-87015000D03*
X399957500Y-89555000D03*
X405037500Y-140355000D03*
X405037500Y-142895000D03*
X399957500Y-76855000D03*
X399957500Y-79395000D03*
X448217500Y-65171000D03*
X448217500Y-67711000D03*
X399957500Y-92095000D03*
%TD*%
D19*
%TO.C,RV10*%
X321410000Y-68380000D03*
X312610000Y-68380000D03*
D12*
X319510000Y-75380000D03*
X317010000Y-75380000D03*
X314510000Y-75380000D03*
%TD*%
D19*
%TO.C,RV18*%
X278570000Y-170460000D03*
X287370000Y-170460000D03*
D12*
X285470000Y-177460000D03*
X282970000Y-177460000D03*
X280470000Y-177460000D03*
%TD*%
D18*
%TO.C,REF\u002A\u002A*%
X162020000Y-174580000D03*
%TD*%
D19*
%TO.C,RV14*%
X253350000Y-136330000D03*
X244550000Y-136330000D03*
D12*
X251450000Y-143330000D03*
X248950000Y-143330000D03*
X246450000Y-143330000D03*
%TD*%
D11*
%TO.C,D96*%
X356360000Y-115700000D03*
D12*
X358900000Y-115700000D03*
%TD*%
D18*
%TO.C,REF\u002A\u002A*%
X412550000Y-174620000D03*
%TD*%
D11*
%TO.C,D82*%
X340460000Y-111300000D03*
D12*
X343000000Y-111300000D03*
%TD*%
D11*
%TO.C,D56*%
X303525000Y-161000000D03*
D12*
X306065000Y-161000000D03*
%TD*%
D11*
%TO.C,D83*%
X340460000Y-106800000D03*
D12*
X343000000Y-106800000D03*
%TD*%
D16*
%TO.C,REF\u002A\u002A*%
X125000000Y-305000000D03*
D17*
X125000000Y-305000000D03*
%TD*%
D18*
%TO.C,REF\u002A\u002A*%
X400060000Y-187090000D03*
%TD*%
D13*
%TO.C,RV16*%
X208170000Y-241800000D03*
X208170000Y-292300000D03*
D14*
X209440000Y-232300000D03*
X204360000Y-232300000D03*
D15*
X211980000Y-232300000D03*
D14*
X206900000Y-232300000D03*
X204390000Y-303200000D03*
X209470000Y-303200000D03*
%TD*%
D19*
%TO.C,RV27*%
X321400000Y-205450000D03*
X312600000Y-205450000D03*
D12*
X319500000Y-212450000D03*
X317000000Y-212450000D03*
X314500000Y-212450000D03*
%TD*%
D17*
%TO.C,REF\u002A\u002A*%
X473000000Y-305000000D03*
D16*
X473000000Y-305000000D03*
%TD*%
D18*
%TO.C,REF\u002A\u002A*%
X437510000Y-174610000D03*
%TD*%
D11*
%TO.C,D63*%
X303525000Y-129510000D03*
D12*
X306065000Y-129510000D03*
%TD*%
D11*
%TO.C,D29*%
X235125000Y-147510000D03*
D12*
X237665000Y-147510000D03*
%TD*%
D11*
%TO.C,D64*%
X303525000Y-125010000D03*
D12*
X306065000Y-125010000D03*
%TD*%
D19*
%TO.C,RV3*%
X244560000Y-68370000D03*
X253360000Y-68370000D03*
D12*
X251460000Y-75370000D03*
X248960000Y-75370000D03*
X246460000Y-75370000D03*
%TD*%
D11*
%TO.C,D57*%
X303525000Y-156500000D03*
D12*
X306065000Y-156500000D03*
%TD*%
D11*
%TO.C,D85*%
X356360000Y-165200000D03*
D12*
X358900000Y-165200000D03*
%TD*%
D11*
%TO.C,D77*%
X340460000Y-133800000D03*
D12*
X343000000Y-133800000D03*
%TD*%
D19*
%TO.C,RV2*%
X353400000Y-84648012D03*
X344600000Y-84648012D03*
D12*
X351500000Y-91648012D03*
X349000000Y-91648012D03*
X346500000Y-91648012D03*
%TD*%
D11*
%TO.C,D60*%
X303525000Y-143000000D03*
D12*
X306065000Y-143000000D03*
%TD*%
D11*
%TO.C,D79*%
X340460000Y-124800000D03*
D12*
X343000000Y-124800000D03*
%TD*%
D11*
%TO.C,D58*%
X303525000Y-152000000D03*
D12*
X306065000Y-152000000D03*
%TD*%
D11*
%TO.C,D78*%
X340460000Y-129300000D03*
D12*
X343000000Y-129300000D03*
%TD*%
D11*
%TO.C,D43*%
X269500000Y-152100000D03*
D12*
X272040000Y-152100000D03*
%TD*%
D18*
%TO.C,REF\u002A\u002A*%
X199470000Y-162080000D03*
%TD*%
D11*
%TO.C,D95*%
X356360000Y-120200000D03*
D12*
X358900000Y-120200000D03*
%TD*%
D11*
%TO.C,D40*%
X269500000Y-165600000D03*
D12*
X272040000Y-165600000D03*
%TD*%
D19*
%TO.C,RV23*%
X312700000Y-170400000D03*
X321500000Y-170400000D03*
D12*
X319600000Y-177400000D03*
X317100000Y-177400000D03*
X314600000Y-177400000D03*
%TD*%
D19*
%TO.C,RV29*%
X353460000Y-283040000D03*
X344660000Y-283040000D03*
D12*
X351560000Y-290040000D03*
X349060000Y-290040000D03*
X346560000Y-290040000D03*
%TD*%
D20*
%TO.C,TB2*%
X466750000Y-211250000D03*
D21*
X466750000Y-213750000D03*
X466750000Y-216330000D03*
X466750000Y-218870000D03*
%TD*%
D19*
%TO.C,RV4*%
X169570000Y-68480000D03*
X178370000Y-68480000D03*
D12*
X176470000Y-75480000D03*
X173970000Y-75480000D03*
X171470000Y-75480000D03*
%TD*%
D11*
%TO.C,D71*%
X340460000Y-160800000D03*
D12*
X343000000Y-160800000D03*
%TD*%
D11*
%TO.C,D30*%
X235125000Y-143010000D03*
D12*
X237665000Y-143010000D03*
%TD*%
D11*
%TO.C,D89*%
X356360000Y-147200000D03*
D12*
X358900000Y-147200000D03*
%TD*%
D11*
%TO.C,D70*%
X340460000Y-165300000D03*
D12*
X343000000Y-165300000D03*
%TD*%
D19*
%TO.C,RV20*%
X244610000Y-205350000D03*
X253410000Y-205350000D03*
D12*
X251510000Y-212350000D03*
X249010000Y-212350000D03*
X246510000Y-212350000D03*
%TD*%
D11*
%TO.C,D44*%
X269500000Y-147600000D03*
D12*
X272040000Y-147600000D03*
%TD*%
D19*
%TO.C,RV25*%
X321410000Y-136430000D03*
X312610000Y-136430000D03*
D12*
X319510000Y-143430000D03*
X317010000Y-143430000D03*
X314510000Y-143430000D03*
%TD*%
D11*
%TO.C,D65*%
X303525000Y-120510000D03*
D12*
X306065000Y-120510000D03*
%TD*%
D11*
%TO.C,D51*%
X269525000Y-116110000D03*
D12*
X272065000Y-116110000D03*
%TD*%
D11*
%TO.C,D38*%
X235125000Y-107010000D03*
D12*
X237665000Y-107010000D03*
%TD*%
D11*
%TO.C,D73*%
X340460000Y-151800000D03*
D12*
X343000000Y-151800000D03*
%TD*%
D11*
%TO.C,D28*%
X235125000Y-152010000D03*
D12*
X237665000Y-152010000D03*
%TD*%
D11*
%TO.C,D90*%
X356360000Y-142700000D03*
D12*
X358900000Y-142700000D03*
%TD*%
D22*
%TO.C,SW1*%
X176500000Y-106530000D03*
D13*
X171500000Y-106530000D03*
X174000000Y-106530000D03*
D18*
X168400000Y-114030000D03*
X179600000Y-114030000D03*
D13*
X171500000Y-121030000D03*
X176500000Y-121030000D03*
%TD*%
D18*
%TO.C,REF\u002A\u002A*%
X149520000Y-187070000D03*
%TD*%
D11*
%TO.C,D25*%
X235175000Y-165610000D03*
D12*
X237715000Y-165610000D03*
%TD*%
D11*
%TO.C,D80*%
X340460000Y-120300000D03*
D12*
X343000000Y-120300000D03*
%TD*%
D18*
%TO.C,REF\u002A\u002A*%
X450020000Y-187090000D03*
%TD*%
%TO.C,REF\u002A\u002A*%
X199490000Y-187060000D03*
%TD*%
D11*
%TO.C,D81*%
X340460000Y-115800000D03*
D12*
X343000000Y-115800000D03*
%TD*%
D11*
%TO.C,D76*%
X340460000Y-138300000D03*
D12*
X343000000Y-138300000D03*
%TD*%
D19*
%TO.C,RV19*%
X244580000Y-170420000D03*
X253380000Y-170420000D03*
D12*
X251480000Y-177420000D03*
X248980000Y-177420000D03*
X246480000Y-177420000D03*
%TD*%
D11*
%TO.C,D47*%
X269525000Y-134110000D03*
D12*
X272065000Y-134110000D03*
%TD*%
D19*
%TO.C,RV5*%
X460570000Y-68330000D03*
X469370000Y-68330000D03*
D12*
X467470000Y-75330000D03*
X464970000Y-75330000D03*
X462470000Y-75330000D03*
%TD*%
D24*
%TO.C,R15*%
X158750000Y-283300000D03*
X161850000Y-283300000D03*
%TD*%
D25*
%TO.C,Q3*%
X403500000Y-252750000D03*
X403500000Y-254650000D03*
X400500000Y-253700000D03*
%TD*%
D26*
%TO.C,NPR1*%
X146250000Y-153240000D03*
X143150000Y-153240000D03*
%TD*%
D25*
%TO.C,Q2*%
X155400000Y-283650000D03*
X155400000Y-285550000D03*
X152400000Y-284600000D03*
%TD*%
D27*
%TO.C,IC-MPLEX-2*%
X431385000Y-216350000D03*
X430115000Y-216350000D03*
X428845000Y-216350000D03*
X427575000Y-216350000D03*
X426305000Y-216350000D03*
X425035000Y-216350000D03*
X423765000Y-216350000D03*
X422495000Y-216350000D03*
X421225000Y-216350000D03*
X419955000Y-216350000D03*
X418685000Y-216350000D03*
X417415000Y-216350000D03*
X417415000Y-207050000D03*
X418685000Y-207050000D03*
X419955000Y-207050000D03*
X421225000Y-207050000D03*
X422495000Y-207050000D03*
X423765000Y-207050000D03*
X425035000Y-207050000D03*
X426305000Y-207050000D03*
X427575000Y-207050000D03*
X428845000Y-207050000D03*
X430115000Y-207050000D03*
X431385000Y-207050000D03*
%TD*%
D28*
%TO.C,R22*%
X393000000Y-255150000D03*
X393000000Y-252050000D03*
%TD*%
D29*
%TO.C,U5*%
X313125000Y-156545000D03*
X313125000Y-155275000D03*
X313125000Y-154005000D03*
X313125000Y-152735000D03*
X313125000Y-151465000D03*
X313125000Y-150195000D03*
X313125000Y-148925000D03*
X313125000Y-147655000D03*
X318275000Y-147655000D03*
X318275000Y-148925000D03*
X318275000Y-150195000D03*
X318275000Y-151465000D03*
X318275000Y-152735000D03*
X318275000Y-154005000D03*
X318275000Y-155275000D03*
X318275000Y-156545000D03*
%TD*%
%TO.C,U1*%
X245025000Y-156845000D03*
X245025000Y-155575000D03*
X245025000Y-154305000D03*
X245025000Y-153035000D03*
X245025000Y-151765000D03*
X245025000Y-150495000D03*
X245025000Y-149225000D03*
X245025000Y-147955000D03*
X250175000Y-147955000D03*
X250175000Y-149225000D03*
X250175000Y-150495000D03*
X250175000Y-151765000D03*
X250175000Y-153035000D03*
X250175000Y-154305000D03*
X250175000Y-155575000D03*
X250175000Y-156845000D03*
%TD*%
%TO.C,U2*%
X245025000Y-124145000D03*
X245025000Y-122875000D03*
X245025000Y-121605000D03*
X245025000Y-120335000D03*
X245025000Y-119065000D03*
X245025000Y-117795000D03*
X245025000Y-116525000D03*
X245025000Y-115255000D03*
X250175000Y-115255000D03*
X250175000Y-116525000D03*
X250175000Y-117795000D03*
X250175000Y-119065000D03*
X250175000Y-120335000D03*
X250175000Y-121605000D03*
X250175000Y-122875000D03*
X250175000Y-124145000D03*
%TD*%
D24*
%TO.C,R14*%
X406650000Y-281900000D03*
X409750000Y-281900000D03*
%TD*%
D25*
%TO.C,Q4*%
X153900000Y-253950000D03*
X153900000Y-255850000D03*
X150900000Y-254900000D03*
%TD*%
D29*
%TO.C,U7*%
X347600000Y-156510000D03*
X347600000Y-155240000D03*
X347600000Y-153970000D03*
X347600000Y-152700000D03*
X347600000Y-151430000D03*
X347600000Y-150160000D03*
X347600000Y-148890000D03*
X347600000Y-147620000D03*
X352750000Y-147620000D03*
X352750000Y-148890000D03*
X352750000Y-150160000D03*
X352750000Y-151430000D03*
X352750000Y-152700000D03*
X352750000Y-153970000D03*
X352750000Y-155240000D03*
X352750000Y-156510000D03*
%TD*%
D26*
%TO.C,R18*%
X410550000Y-257000000D03*
X407450000Y-257000000D03*
%TD*%
%TO.C,R12*%
X409850000Y-287600000D03*
X406750000Y-287600000D03*
%TD*%
D29*
%TO.C,U9*%
X365725000Y-155245000D03*
X365725000Y-153975000D03*
X365725000Y-152705000D03*
X365725000Y-151435000D03*
X365725000Y-150165000D03*
X365725000Y-148895000D03*
X365725000Y-147625000D03*
X365725000Y-146355000D03*
X370875000Y-146355000D03*
X370875000Y-147625000D03*
X370875000Y-148895000D03*
X370875000Y-150165000D03*
X370875000Y-151435000D03*
X370875000Y-152705000D03*
X370875000Y-153975000D03*
X370875000Y-155245000D03*
%TD*%
D30*
%TO.C,IC-MPLEX-4*%
X304250000Y-206515000D03*
X304250000Y-207785000D03*
X304250000Y-209055000D03*
X304250000Y-210325000D03*
X304250000Y-211595000D03*
X304250000Y-212865000D03*
X304250000Y-214135000D03*
X304250000Y-215405000D03*
X304250000Y-216675000D03*
X304250000Y-217945000D03*
X304250000Y-219215000D03*
X304250000Y-220485000D03*
X294950000Y-220485000D03*
X294950000Y-219215000D03*
X294950000Y-217945000D03*
X294950000Y-216675000D03*
X294950000Y-215405000D03*
X294950000Y-214135000D03*
X294950000Y-212865000D03*
X294950000Y-211595000D03*
X294950000Y-210325000D03*
X294950000Y-209055000D03*
X294950000Y-207785000D03*
X294950000Y-206515000D03*
%TD*%
D26*
%TO.C,R19*%
X159650000Y-256700000D03*
X156550000Y-256700000D03*
%TD*%
D29*
%TO.C,U6*%
X312625000Y-123645000D03*
X312625000Y-122375000D03*
X312625000Y-121105000D03*
X312625000Y-119835000D03*
X312625000Y-118565000D03*
X312625000Y-117295000D03*
X312625000Y-116025000D03*
X312625000Y-114755000D03*
X317775000Y-114755000D03*
X317775000Y-116025000D03*
X317775000Y-117295000D03*
X317775000Y-118565000D03*
X317775000Y-119835000D03*
X317775000Y-121105000D03*
X317775000Y-122375000D03*
X317775000Y-123645000D03*
%TD*%
D24*
%TO.C,R17*%
X141650000Y-283300000D03*
X144750000Y-283300000D03*
%TD*%
D29*
%TO.C,U4*%
X279125000Y-124245000D03*
X279125000Y-122975000D03*
X279125000Y-121705000D03*
X279125000Y-120435000D03*
X279125000Y-119165000D03*
X279125000Y-117895000D03*
X279125000Y-116625000D03*
X279125000Y-115355000D03*
X284275000Y-115355000D03*
X284275000Y-116625000D03*
X284275000Y-117895000D03*
X284275000Y-119165000D03*
X284275000Y-120435000D03*
X284275000Y-121705000D03*
X284275000Y-122975000D03*
X284275000Y-124245000D03*
%TD*%
D25*
%TO.C,Q1*%
X403200000Y-284550000D03*
X403200000Y-286450000D03*
X400200000Y-285500000D03*
%TD*%
D30*
%TO.C,IC-MPLEX-1*%
X305550000Y-83715000D03*
X305550000Y-84985000D03*
X305550000Y-86255000D03*
X305550000Y-87525000D03*
X305550000Y-88795000D03*
X305550000Y-90065000D03*
X305550000Y-91335000D03*
X305550000Y-92605000D03*
X305550000Y-93875000D03*
X305550000Y-95145000D03*
X305550000Y-96415000D03*
X305550000Y-97685000D03*
X296250000Y-97685000D03*
X296250000Y-96415000D03*
X296250000Y-95145000D03*
X296250000Y-93875000D03*
X296250000Y-92605000D03*
X296250000Y-91335000D03*
X296250000Y-90065000D03*
X296250000Y-88795000D03*
X296250000Y-87525000D03*
X296250000Y-86255000D03*
X296250000Y-84985000D03*
X296250000Y-83715000D03*
%TD*%
D24*
%TO.C,R21*%
X156650000Y-253100000D03*
X159750000Y-253100000D03*
%TD*%
%TO.C,R20*%
X407350000Y-251700000D03*
X410450000Y-251700000D03*
%TD*%
D29*
%TO.C,U10*%
X365325000Y-122745000D03*
X365325000Y-121475000D03*
X365325000Y-120205000D03*
X365325000Y-118935000D03*
X365325000Y-117665000D03*
X365325000Y-116395000D03*
X365325000Y-115125000D03*
X365325000Y-113855000D03*
X370475000Y-113855000D03*
X370475000Y-115125000D03*
X370475000Y-116395000D03*
X370475000Y-117665000D03*
X370475000Y-118935000D03*
X370475000Y-120205000D03*
X370475000Y-121475000D03*
X370475000Y-122745000D03*
%TD*%
%TO.C,U8*%
X347325000Y-123745000D03*
X347325000Y-122475000D03*
X347325000Y-121205000D03*
X347325000Y-119935000D03*
X347325000Y-118665000D03*
X347325000Y-117395000D03*
X347325000Y-116125000D03*
X347325000Y-114855000D03*
X352475000Y-114855000D03*
X352475000Y-116125000D03*
X352475000Y-117395000D03*
X352475000Y-118665000D03*
X352475000Y-119935000D03*
X352475000Y-121205000D03*
X352475000Y-122475000D03*
X352475000Y-123745000D03*
%TD*%
D27*
%TO.C,IC-MPLEX-3*%
X180785000Y-217550000D03*
X179515000Y-217550000D03*
X178245000Y-217550000D03*
X176975000Y-217550000D03*
X175705000Y-217550000D03*
X174435000Y-217550000D03*
X173165000Y-217550000D03*
X171895000Y-217550000D03*
X170625000Y-217550000D03*
X169355000Y-217550000D03*
X168085000Y-217550000D03*
X166815000Y-217550000D03*
X166815000Y-208250000D03*
X168085000Y-208250000D03*
X169355000Y-208250000D03*
X170625000Y-208250000D03*
X171895000Y-208250000D03*
X173165000Y-208250000D03*
X174435000Y-208250000D03*
X175705000Y-208250000D03*
X176975000Y-208250000D03*
X178245000Y-208250000D03*
X179515000Y-208250000D03*
X180785000Y-208250000D03*
%TD*%
D24*
%TO.C,R23*%
X141250000Y-253400000D03*
X144350000Y-253400000D03*
%TD*%
D26*
%TO.C,R13*%
X161650000Y-286300000D03*
X158550000Y-286300000D03*
%TD*%
D29*
%TO.C,U3*%
X279225000Y-157045000D03*
X279225000Y-155775000D03*
X279225000Y-154505000D03*
X279225000Y-153235000D03*
X279225000Y-151965000D03*
X279225000Y-150695000D03*
X279225000Y-149425000D03*
X279225000Y-148155000D03*
X284375000Y-148155000D03*
X284375000Y-149425000D03*
X284375000Y-150695000D03*
X284375000Y-151965000D03*
X284375000Y-153235000D03*
X284375000Y-154505000D03*
X284375000Y-155775000D03*
X284375000Y-157045000D03*
%TD*%
D26*
%TO.C,R16*%
X394550000Y-283600000D03*
X391450000Y-283600000D03*
%TD*%
M02*
