M48
; DRILL file {KiCad (5.99.0-10428-g50fd94d35d)} date Tue Apr 27 03:41:53 2021
; FORMAT={-:-/ absolute / metric / decimal}
; #@! TF.CreationDate,2021-04-27T03:41:53+02:00
; #@! TF.GenerationSoftware,Kicad,Pcbnew,(5.99.0-10428-g50fd94d35d)
; #@! TF.FileFunction,NonPlated,1,2,NPTH
FMAT,2
METRIC
; #@! TA.AperFunction,NonPlated,NPTH,ComponentDrill
T1C2.000
; #@! TA.AperFunction,NonPlated,NPTH,ComponentDrill
T2C3.200
%
G90
G05
T1
X127.59Y-86.41
X136.39Y-86.41
X169.61Y-86.42
X178.41Y-86.42
X210.5Y-86.4
X219.3Y-86.4
X244.55Y-136.33
X244.56Y-68.37
X244.58Y-170.42
X244.59Y-102.38
X244.61Y-205.35
X253.35Y-136.33
X253.36Y-68.37
X253.38Y-170.42
X253.39Y-102.38
X253.41Y-205.35
X278.57Y-170.46
X278.59Y-102.4
X278.6Y-136.43
X278.6Y-205.55
X278.61Y-68.44
X287.37Y-170.46
X287.39Y-102.4
X287.4Y-136.43
X287.4Y-205.55
X287.41Y-68.44
X312.59Y-136.48
X312.6Y-102.42
X312.6Y-205.45
X312.61Y-68.38
X312.7Y-170.4
X321.39Y-136.48
X321.4Y-102.42
X321.4Y-205.45
X321.41Y-68.38
X321.5Y-170.4
X344.57Y-251.4
X344.6Y-136.46
X344.61Y-284.44
X353.37Y-251.4
X353.4Y-136.46
X353.41Y-284.44
X377.59Y-86.4
X386.39Y-86.4
X419.61Y-86.41
X428.41Y-86.41
X460.57Y-86.35
X469.37Y-86.35
T2
X137.03Y-174.6
X149.52Y-162.09
X149.52Y-187.07
X162.02Y-174.58
X186.98Y-174.58
X199.47Y-162.08
X199.49Y-187.06
X211.98Y-174.57
X387.56Y-174.62
X400.05Y-162.12
X400.06Y-187.09
X412.55Y-174.62
X437.51Y-174.61
X450.0Y-162.1
X450.02Y-187.09
X462.51Y-174.59
T0
M30
