%TF.GenerationSoftware,KiCad,Pcbnew,5.99.0-unknown-f88d39b4f0~125~ubuntu20.04.1*%
%TF.CreationDate,2021-04-04T03:48:13+02:00*%
%TF.ProjectId,Traktorino,5472616b-746f-4726-996e-6f2e6b696361,rev?*%
%TF.SameCoordinates,Original*%
%TF.FileFunction,Legend,Bot*%
%TF.FilePolarity,Positive*%
%FSLAX46Y46*%
G04 Gerber Fmt 4.6, Leading zero omitted, Abs format (unit mm)*
G04 Created by KiCad (PCBNEW 5.99.0-unknown-f88d39b4f0~125~ubuntu20.04.1) date 2021-04-04 03:48:13*
%MOMM*%
%LPD*%
G01*
G04 APERTURE LIST*
%ADD10C,0.100000*%
%ADD11C,0.150000*%
%ADD12C,0.300000*%
%ADD13C,0.400000*%
%ADD14C,0.120000*%
G04 APERTURE END LIST*
D10*
D11*
X474004400Y-375989000D02*
X474004400Y-407989000D01*
X582004400Y-407989000D01*
X582004400Y-375989000D01*
X474004400Y-375989000D01*
D10*
D11*
X10000000Y-10000000D02*
X10000000Y-409989000D01*
X584004400Y-409989000D01*
X584004400Y-10000000D01*
X10000000Y-10000000D01*
D10*
D11*
X12000000Y-12000000D02*
X12000000Y-407989000D01*
X582004400Y-407989000D01*
X582004400Y-12000000D01*
X12000000Y-12000000D01*
D10*
D11*
X60000000Y-12000000D02*
X60000000Y-10000000D01*
D10*
D11*
X110000000Y-12000000D02*
X110000000Y-10000000D01*
D10*
D11*
X160000000Y-12000000D02*
X160000000Y-10000000D01*
D10*
D11*
X210000000Y-12000000D02*
X210000000Y-10000000D01*
D10*
D11*
X260000000Y-12000000D02*
X260000000Y-10000000D01*
D10*
D11*
X310000000Y-12000000D02*
X310000000Y-10000000D01*
D10*
D11*
X360000000Y-12000000D02*
X360000000Y-10000000D01*
D10*
D11*
X410000000Y-12000000D02*
X410000000Y-10000000D01*
D10*
D11*
X460000000Y-12000000D02*
X460000000Y-10000000D01*
D10*
D11*
X510000000Y-12000000D02*
X510000000Y-10000000D01*
D10*
D11*
X560000000Y-12000000D02*
X560000000Y-10000000D01*
D10*
D11*
X36065476Y-11588095D02*
X35322619Y-11588095D01*
X35694047Y-11588095D02*
X35694047Y-10288095D01*
X35570238Y-10473809D01*
X35446428Y-10597619D01*
X35322619Y-10659523D01*
D10*
D11*
X85322619Y-10411904D02*
X85384523Y-10350000D01*
X85508333Y-10288095D01*
X85817857Y-10288095D01*
X85941666Y-10350000D01*
X86003571Y-10411904D01*
X86065476Y-10535714D01*
X86065476Y-10659523D01*
X86003571Y-10845238D01*
X85260714Y-11588095D01*
X86065476Y-11588095D01*
D10*
D11*
X135260714Y-10288095D02*
X136065476Y-10288095D01*
X135632142Y-10783333D01*
X135817857Y-10783333D01*
X135941666Y-10845238D01*
X136003571Y-10907142D01*
X136065476Y-11030952D01*
X136065476Y-11340476D01*
X136003571Y-11464285D01*
X135941666Y-11526190D01*
X135817857Y-11588095D01*
X135446428Y-11588095D01*
X135322619Y-11526190D01*
X135260714Y-11464285D01*
D10*
D11*
X185941666Y-10721428D02*
X185941666Y-11588095D01*
X185632142Y-10226190D02*
X185322619Y-11154761D01*
X186127380Y-11154761D01*
D10*
D11*
X236003571Y-10288095D02*
X235384523Y-10288095D01*
X235322619Y-10907142D01*
X235384523Y-10845238D01*
X235508333Y-10783333D01*
X235817857Y-10783333D01*
X235941666Y-10845238D01*
X236003571Y-10907142D01*
X236065476Y-11030952D01*
X236065476Y-11340476D01*
X236003571Y-11464285D01*
X235941666Y-11526190D01*
X235817857Y-11588095D01*
X235508333Y-11588095D01*
X235384523Y-11526190D01*
X235322619Y-11464285D01*
D10*
D11*
X285941666Y-10288095D02*
X285694047Y-10288095D01*
X285570238Y-10350000D01*
X285508333Y-10411904D01*
X285384523Y-10597619D01*
X285322619Y-10845238D01*
X285322619Y-11340476D01*
X285384523Y-11464285D01*
X285446428Y-11526190D01*
X285570238Y-11588095D01*
X285817857Y-11588095D01*
X285941666Y-11526190D01*
X286003571Y-11464285D01*
X286065476Y-11340476D01*
X286065476Y-11030952D01*
X286003571Y-10907142D01*
X285941666Y-10845238D01*
X285817857Y-10783333D01*
X285570238Y-10783333D01*
X285446428Y-10845238D01*
X285384523Y-10907142D01*
X285322619Y-11030952D01*
D10*
D11*
X335260714Y-10288095D02*
X336127380Y-10288095D01*
X335570238Y-11588095D01*
D10*
D11*
X385570238Y-10845238D02*
X385446428Y-10783333D01*
X385384523Y-10721428D01*
X385322619Y-10597619D01*
X385322619Y-10535714D01*
X385384523Y-10411904D01*
X385446428Y-10350000D01*
X385570238Y-10288095D01*
X385817857Y-10288095D01*
X385941666Y-10350000D01*
X386003571Y-10411904D01*
X386065476Y-10535714D01*
X386065476Y-10597619D01*
X386003571Y-10721428D01*
X385941666Y-10783333D01*
X385817857Y-10845238D01*
X385570238Y-10845238D01*
X385446428Y-10907142D01*
X385384523Y-10969047D01*
X385322619Y-11092857D01*
X385322619Y-11340476D01*
X385384523Y-11464285D01*
X385446428Y-11526190D01*
X385570238Y-11588095D01*
X385817857Y-11588095D01*
X385941666Y-11526190D01*
X386003571Y-11464285D01*
X386065476Y-11340476D01*
X386065476Y-11092857D01*
X386003571Y-10969047D01*
X385941666Y-10907142D01*
X385817857Y-10845238D01*
D10*
D11*
X435446428Y-11588095D02*
X435694047Y-11588095D01*
X435817857Y-11526190D01*
X435879761Y-11464285D01*
X436003571Y-11278571D01*
X436065476Y-11030952D01*
X436065476Y-10535714D01*
X436003571Y-10411904D01*
X435941666Y-10350000D01*
X435817857Y-10288095D01*
X435570238Y-10288095D01*
X435446428Y-10350000D01*
X435384523Y-10411904D01*
X435322619Y-10535714D01*
X435322619Y-10845238D01*
X435384523Y-10969047D01*
X435446428Y-11030952D01*
X435570238Y-11092857D01*
X435817857Y-11092857D01*
X435941666Y-11030952D01*
X436003571Y-10969047D01*
X436065476Y-10845238D01*
D10*
D11*
X486065476Y-11588095D02*
X485322619Y-11588095D01*
X485694047Y-11588095D02*
X485694047Y-10288095D01*
X485570238Y-10473809D01*
X485446428Y-10597619D01*
X485322619Y-10659523D01*
X486870238Y-10288095D02*
X486994047Y-10288095D01*
X487117857Y-10350000D01*
X487179761Y-10411904D01*
X487241666Y-10535714D01*
X487303571Y-10783333D01*
X487303571Y-11092857D01*
X487241666Y-11340476D01*
X487179761Y-11464285D01*
X487117857Y-11526190D01*
X486994047Y-11588095D01*
X486870238Y-11588095D01*
X486746428Y-11526190D01*
X486684523Y-11464285D01*
X486622619Y-11340476D01*
X486560714Y-11092857D01*
X486560714Y-10783333D01*
X486622619Y-10535714D01*
X486684523Y-10411904D01*
X486746428Y-10350000D01*
X486870238Y-10288095D01*
D10*
D11*
X536065476Y-11588095D02*
X535322619Y-11588095D01*
X535694047Y-11588095D02*
X535694047Y-10288095D01*
X535570238Y-10473809D01*
X535446428Y-10597619D01*
X535322619Y-10659523D01*
X537303571Y-11588095D02*
X536560714Y-11588095D01*
X536932142Y-11588095D02*
X536932142Y-10288095D01*
X536808333Y-10473809D01*
X536684523Y-10597619D01*
X536560714Y-10659523D01*
D10*
D11*
X60000000Y-407989000D02*
X60000000Y-409989000D01*
D10*
D11*
X110000000Y-407989000D02*
X110000000Y-409989000D01*
D10*
D11*
X160000000Y-407989000D02*
X160000000Y-409989000D01*
D10*
D11*
X210000000Y-407989000D02*
X210000000Y-409989000D01*
D10*
D11*
X260000000Y-407989000D02*
X260000000Y-409989000D01*
D10*
D11*
X310000000Y-407989000D02*
X310000000Y-409989000D01*
D10*
D11*
X360000000Y-407989000D02*
X360000000Y-409989000D01*
D10*
D11*
X410000000Y-407989000D02*
X410000000Y-409989000D01*
D10*
D11*
X460000000Y-407989000D02*
X460000000Y-409989000D01*
D10*
D11*
X510000000Y-407989000D02*
X510000000Y-409989000D01*
D10*
D11*
X560000000Y-407989000D02*
X560000000Y-409989000D01*
D10*
D11*
X36065476Y-409577095D02*
X35322619Y-409577095D01*
X35694047Y-409577095D02*
X35694047Y-408277095D01*
X35570238Y-408462809D01*
X35446428Y-408586619D01*
X35322619Y-408648523D01*
D10*
D11*
X85322619Y-408400904D02*
X85384523Y-408339000D01*
X85508333Y-408277095D01*
X85817857Y-408277095D01*
X85941666Y-408339000D01*
X86003571Y-408400904D01*
X86065476Y-408524714D01*
X86065476Y-408648523D01*
X86003571Y-408834238D01*
X85260714Y-409577095D01*
X86065476Y-409577095D01*
D10*
D11*
X135260714Y-408277095D02*
X136065476Y-408277095D01*
X135632142Y-408772333D01*
X135817857Y-408772333D01*
X135941666Y-408834238D01*
X136003571Y-408896142D01*
X136065476Y-409019952D01*
X136065476Y-409329476D01*
X136003571Y-409453285D01*
X135941666Y-409515190D01*
X135817857Y-409577095D01*
X135446428Y-409577095D01*
X135322619Y-409515190D01*
X135260714Y-409453285D01*
D10*
D11*
X185941666Y-408710428D02*
X185941666Y-409577095D01*
X185632142Y-408215190D02*
X185322619Y-409143761D01*
X186127380Y-409143761D01*
D10*
D11*
X236003571Y-408277095D02*
X235384523Y-408277095D01*
X235322619Y-408896142D01*
X235384523Y-408834238D01*
X235508333Y-408772333D01*
X235817857Y-408772333D01*
X235941666Y-408834238D01*
X236003571Y-408896142D01*
X236065476Y-409019952D01*
X236065476Y-409329476D01*
X236003571Y-409453285D01*
X235941666Y-409515190D01*
X235817857Y-409577095D01*
X235508333Y-409577095D01*
X235384523Y-409515190D01*
X235322619Y-409453285D01*
D10*
D11*
X285941666Y-408277095D02*
X285694047Y-408277095D01*
X285570238Y-408339000D01*
X285508333Y-408400904D01*
X285384523Y-408586619D01*
X285322619Y-408834238D01*
X285322619Y-409329476D01*
X285384523Y-409453285D01*
X285446428Y-409515190D01*
X285570238Y-409577095D01*
X285817857Y-409577095D01*
X285941666Y-409515190D01*
X286003571Y-409453285D01*
X286065476Y-409329476D01*
X286065476Y-409019952D01*
X286003571Y-408896142D01*
X285941666Y-408834238D01*
X285817857Y-408772333D01*
X285570238Y-408772333D01*
X285446428Y-408834238D01*
X285384523Y-408896142D01*
X285322619Y-409019952D01*
D10*
D11*
X335260714Y-408277095D02*
X336127380Y-408277095D01*
X335570238Y-409577095D01*
D10*
D11*
X385570238Y-408834238D02*
X385446428Y-408772333D01*
X385384523Y-408710428D01*
X385322619Y-408586619D01*
X385322619Y-408524714D01*
X385384523Y-408400904D01*
X385446428Y-408339000D01*
X385570238Y-408277095D01*
X385817857Y-408277095D01*
X385941666Y-408339000D01*
X386003571Y-408400904D01*
X386065476Y-408524714D01*
X386065476Y-408586619D01*
X386003571Y-408710428D01*
X385941666Y-408772333D01*
X385817857Y-408834238D01*
X385570238Y-408834238D01*
X385446428Y-408896142D01*
X385384523Y-408958047D01*
X385322619Y-409081857D01*
X385322619Y-409329476D01*
X385384523Y-409453285D01*
X385446428Y-409515190D01*
X385570238Y-409577095D01*
X385817857Y-409577095D01*
X385941666Y-409515190D01*
X386003571Y-409453285D01*
X386065476Y-409329476D01*
X386065476Y-409081857D01*
X386003571Y-408958047D01*
X385941666Y-408896142D01*
X385817857Y-408834238D01*
D10*
D11*
X435446428Y-409577095D02*
X435694047Y-409577095D01*
X435817857Y-409515190D01*
X435879761Y-409453285D01*
X436003571Y-409267571D01*
X436065476Y-409019952D01*
X436065476Y-408524714D01*
X436003571Y-408400904D01*
X435941666Y-408339000D01*
X435817857Y-408277095D01*
X435570238Y-408277095D01*
X435446428Y-408339000D01*
X435384523Y-408400904D01*
X435322619Y-408524714D01*
X435322619Y-408834238D01*
X435384523Y-408958047D01*
X435446428Y-409019952D01*
X435570238Y-409081857D01*
X435817857Y-409081857D01*
X435941666Y-409019952D01*
X436003571Y-408958047D01*
X436065476Y-408834238D01*
D10*
D11*
X486065476Y-409577095D02*
X485322619Y-409577095D01*
X485694047Y-409577095D02*
X485694047Y-408277095D01*
X485570238Y-408462809D01*
X485446428Y-408586619D01*
X485322619Y-408648523D01*
X486870238Y-408277095D02*
X486994047Y-408277095D01*
X487117857Y-408339000D01*
X487179761Y-408400904D01*
X487241666Y-408524714D01*
X487303571Y-408772333D01*
X487303571Y-409081857D01*
X487241666Y-409329476D01*
X487179761Y-409453285D01*
X487117857Y-409515190D01*
X486994047Y-409577095D01*
X486870238Y-409577095D01*
X486746428Y-409515190D01*
X486684523Y-409453285D01*
X486622619Y-409329476D01*
X486560714Y-409081857D01*
X486560714Y-408772333D01*
X486622619Y-408524714D01*
X486684523Y-408400904D01*
X486746428Y-408339000D01*
X486870238Y-408277095D01*
D10*
D11*
X536065476Y-409577095D02*
X535322619Y-409577095D01*
X535694047Y-409577095D02*
X535694047Y-408277095D01*
X535570238Y-408462809D01*
X535446428Y-408586619D01*
X535322619Y-408648523D01*
X537303571Y-409577095D02*
X536560714Y-409577095D01*
X536932142Y-409577095D02*
X536932142Y-408277095D01*
X536808333Y-408462809D01*
X536684523Y-408586619D01*
X536560714Y-408648523D01*
D10*
D11*
X10000000Y-60000000D02*
X12000000Y-60000000D01*
D10*
D11*
X10000000Y-110000000D02*
X12000000Y-110000000D01*
D10*
D11*
X10000000Y-160000000D02*
X12000000Y-160000000D01*
D10*
D11*
X10000000Y-210000000D02*
X12000000Y-210000000D01*
D10*
D11*
X10000000Y-260000000D02*
X12000000Y-260000000D01*
D10*
D11*
X10000000Y-310000000D02*
X12000000Y-310000000D01*
D10*
D11*
X10000000Y-360000000D02*
X12000000Y-360000000D01*
D10*
D11*
X10690476Y-35216666D02*
X11309523Y-35216666D01*
X10566666Y-35588095D02*
X11000000Y-34288095D01*
X11433333Y-35588095D01*
D10*
D11*
X11092857Y-84907142D02*
X11278571Y-84969047D01*
X11340476Y-85030952D01*
X11402380Y-85154761D01*
X11402380Y-85340476D01*
X11340476Y-85464285D01*
X11278571Y-85526190D01*
X11154761Y-85588095D01*
X10659523Y-85588095D01*
X10659523Y-84288095D01*
X11092857Y-84288095D01*
X11216666Y-84350000D01*
X11278571Y-84411904D01*
X11340476Y-84535714D01*
X11340476Y-84659523D01*
X11278571Y-84783333D01*
X11216666Y-84845238D01*
X11092857Y-84907142D01*
X10659523Y-84907142D01*
D10*
D11*
X11402380Y-135464285D02*
X11340476Y-135526190D01*
X11154761Y-135588095D01*
X11030952Y-135588095D01*
X10845238Y-135526190D01*
X10721428Y-135402380D01*
X10659523Y-135278571D01*
X10597619Y-135030952D01*
X10597619Y-134845238D01*
X10659523Y-134597619D01*
X10721428Y-134473809D01*
X10845238Y-134350000D01*
X11030952Y-134288095D01*
X11154761Y-134288095D01*
X11340476Y-134350000D01*
X11402380Y-134411904D01*
D10*
D11*
X10659523Y-185588095D02*
X10659523Y-184288095D01*
X10969047Y-184288095D01*
X11154761Y-184350000D01*
X11278571Y-184473809D01*
X11340476Y-184597619D01*
X11402380Y-184845238D01*
X11402380Y-185030952D01*
X11340476Y-185278571D01*
X11278571Y-185402380D01*
X11154761Y-185526190D01*
X10969047Y-185588095D01*
X10659523Y-185588095D01*
D10*
D11*
X10721428Y-234907142D02*
X11154761Y-234907142D01*
X11340476Y-235588095D02*
X10721428Y-235588095D01*
X10721428Y-234288095D01*
X11340476Y-234288095D01*
D10*
D11*
X11185714Y-284907142D02*
X10752380Y-284907142D01*
X10752380Y-285588095D02*
X10752380Y-284288095D01*
X11371428Y-284288095D01*
D10*
D11*
X11340476Y-334350000D02*
X11216666Y-334288095D01*
X11030952Y-334288095D01*
X10845238Y-334350000D01*
X10721428Y-334473809D01*
X10659523Y-334597619D01*
X10597619Y-334845238D01*
X10597619Y-335030952D01*
X10659523Y-335278571D01*
X10721428Y-335402380D01*
X10845238Y-335526190D01*
X11030952Y-335588095D01*
X11154761Y-335588095D01*
X11340476Y-335526190D01*
X11402380Y-335464285D01*
X11402380Y-335030952D01*
X11154761Y-335030952D01*
D10*
D11*
X10628571Y-385588095D02*
X10628571Y-384288095D01*
X10628571Y-384907142D02*
X11371428Y-384907142D01*
X11371428Y-385588095D02*
X11371428Y-384288095D01*
D10*
D11*
X584004400Y-60000000D02*
X582004400Y-60000000D01*
D10*
D11*
X584004400Y-110000000D02*
X582004400Y-110000000D01*
D10*
D11*
X584004400Y-160000000D02*
X582004400Y-160000000D01*
D10*
D11*
X584004400Y-210000000D02*
X582004400Y-210000000D01*
D10*
D11*
X584004400Y-260000000D02*
X582004400Y-260000000D01*
D10*
D11*
X584004400Y-310000000D02*
X582004400Y-310000000D01*
D10*
D11*
X584004400Y-360000000D02*
X582004400Y-360000000D01*
D10*
D11*
X582694876Y-35216666D02*
X583313923Y-35216666D01*
X582571066Y-35588095D02*
X583004400Y-34288095D01*
X583437733Y-35588095D01*
D10*
D11*
X583097257Y-84907142D02*
X583282971Y-84969047D01*
X583344876Y-85030952D01*
X583406780Y-85154761D01*
X583406780Y-85340476D01*
X583344876Y-85464285D01*
X583282971Y-85526190D01*
X583159161Y-85588095D01*
X582663923Y-85588095D01*
X582663923Y-84288095D01*
X583097257Y-84288095D01*
X583221066Y-84350000D01*
X583282971Y-84411904D01*
X583344876Y-84535714D01*
X583344876Y-84659523D01*
X583282971Y-84783333D01*
X583221066Y-84845238D01*
X583097257Y-84907142D01*
X582663923Y-84907142D01*
D10*
D11*
X583406780Y-135464285D02*
X583344876Y-135526190D01*
X583159161Y-135588095D01*
X583035352Y-135588095D01*
X582849638Y-135526190D01*
X582725828Y-135402380D01*
X582663923Y-135278571D01*
X582602019Y-135030952D01*
X582602019Y-134845238D01*
X582663923Y-134597619D01*
X582725828Y-134473809D01*
X582849638Y-134350000D01*
X583035352Y-134288095D01*
X583159161Y-134288095D01*
X583344876Y-134350000D01*
X583406780Y-134411904D01*
D10*
D11*
X582663923Y-185588095D02*
X582663923Y-184288095D01*
X582973447Y-184288095D01*
X583159161Y-184350000D01*
X583282971Y-184473809D01*
X583344876Y-184597619D01*
X583406780Y-184845238D01*
X583406780Y-185030952D01*
X583344876Y-185278571D01*
X583282971Y-185402380D01*
X583159161Y-185526190D01*
X582973447Y-185588095D01*
X582663923Y-185588095D01*
D10*
D11*
X582725828Y-234907142D02*
X583159161Y-234907142D01*
X583344876Y-235588095D02*
X582725828Y-235588095D01*
X582725828Y-234288095D01*
X583344876Y-234288095D01*
D10*
D11*
X583190114Y-284907142D02*
X582756780Y-284907142D01*
X582756780Y-285588095D02*
X582756780Y-284288095D01*
X583375828Y-284288095D01*
D10*
D11*
X583344876Y-334350000D02*
X583221066Y-334288095D01*
X583035352Y-334288095D01*
X582849638Y-334350000D01*
X582725828Y-334473809D01*
X582663923Y-334597619D01*
X582602019Y-334845238D01*
X582602019Y-335030952D01*
X582663923Y-335278571D01*
X582725828Y-335402380D01*
X582849638Y-335526190D01*
X583035352Y-335588095D01*
X583159161Y-335588095D01*
X583344876Y-335526190D01*
X583406780Y-335464285D01*
X583406780Y-335030952D01*
X583159161Y-335030952D01*
D10*
D11*
X582632971Y-385588095D02*
X582632971Y-384288095D01*
X582632971Y-384907142D02*
X583375828Y-384907142D01*
X583375828Y-385588095D02*
X583375828Y-384288095D01*
D10*
D11*
X497436542Y-403767571D02*
X497436542Y-402267571D01*
X497793685Y-402267571D01*
X498007971Y-402339000D01*
X498150828Y-402481857D01*
X498222257Y-402624714D01*
X498293685Y-402910428D01*
X498293685Y-403124714D01*
X498222257Y-403410428D01*
X498150828Y-403553285D01*
X498007971Y-403696142D01*
X497793685Y-403767571D01*
X497436542Y-403767571D01*
X499579400Y-403767571D02*
X499579400Y-402981857D01*
X499507971Y-402839000D01*
X499365114Y-402767571D01*
X499079400Y-402767571D01*
X498936542Y-402839000D01*
X499579400Y-403696142D02*
X499436542Y-403767571D01*
X499079400Y-403767571D01*
X498936542Y-403696142D01*
X498865114Y-403553285D01*
X498865114Y-403410428D01*
X498936542Y-403267571D01*
X499079400Y-403196142D01*
X499436542Y-403196142D01*
X499579400Y-403124714D01*
X500079400Y-402767571D02*
X500650828Y-402767571D01*
X500293685Y-402267571D02*
X500293685Y-403553285D01*
X500365114Y-403696142D01*
X500507971Y-403767571D01*
X500650828Y-403767571D01*
X501722257Y-403696142D02*
X501579400Y-403767571D01*
X501293685Y-403767571D01*
X501150828Y-403696142D01*
X501079400Y-403553285D01*
X501079400Y-402981857D01*
X501150828Y-402839000D01*
X501293685Y-402767571D01*
X501579400Y-402767571D01*
X501722257Y-402839000D01*
X501793685Y-402981857D01*
X501793685Y-403124714D01*
X501079400Y-403267571D01*
X502436542Y-403624714D02*
X502507971Y-403696142D01*
X502436542Y-403767571D01*
X502365114Y-403696142D01*
X502436542Y-403624714D01*
X502436542Y-403767571D01*
X502436542Y-402839000D02*
X502507971Y-402910428D01*
X502436542Y-402981857D01*
X502365114Y-402910428D01*
X502436542Y-402839000D01*
X502436542Y-402981857D01*
D10*
D11*
X474004400Y-404489000D02*
X582004400Y-404489000D01*
D10*
D11*
X475436542Y-406567571D02*
X475436542Y-405067571D01*
X476293685Y-406567571D02*
X475650828Y-405710428D01*
X476293685Y-405067571D02*
X475436542Y-405924714D01*
X476936542Y-406567571D02*
X476936542Y-405567571D01*
X476936542Y-405067571D02*
X476865114Y-405139000D01*
X476936542Y-405210428D01*
X477007971Y-405139000D01*
X476936542Y-405067571D01*
X476936542Y-405210428D01*
X478507971Y-406424714D02*
X478436542Y-406496142D01*
X478222257Y-406567571D01*
X478079400Y-406567571D01*
X477865114Y-406496142D01*
X477722257Y-406353285D01*
X477650828Y-406210428D01*
X477579400Y-405924714D01*
X477579400Y-405710428D01*
X477650828Y-405424714D01*
X477722257Y-405281857D01*
X477865114Y-405139000D01*
X478079400Y-405067571D01*
X478222257Y-405067571D01*
X478436542Y-405139000D01*
X478507971Y-405210428D01*
X479793685Y-406567571D02*
X479793685Y-405781857D01*
X479722257Y-405639000D01*
X479579400Y-405567571D01*
X479293685Y-405567571D01*
X479150828Y-405639000D01*
X479793685Y-406496142D02*
X479650828Y-406567571D01*
X479293685Y-406567571D01*
X479150828Y-406496142D01*
X479079400Y-406353285D01*
X479079400Y-406210428D01*
X479150828Y-406067571D01*
X479293685Y-405996142D01*
X479650828Y-405996142D01*
X479793685Y-405924714D01*
X481150828Y-406567571D02*
X481150828Y-405067571D01*
X481150828Y-406496142D02*
X481007971Y-406567571D01*
X480722257Y-406567571D01*
X480579400Y-406496142D01*
X480507971Y-406424714D01*
X480436542Y-406281857D01*
X480436542Y-405853285D01*
X480507971Y-405710428D01*
X480579400Y-405639000D01*
X480722257Y-405567571D01*
X481007971Y-405567571D01*
X481150828Y-405639000D01*
X483007971Y-405781857D02*
X483507971Y-405781857D01*
X483722257Y-406567571D02*
X483007971Y-406567571D01*
X483007971Y-405067571D01*
X483722257Y-405067571D01*
X484365114Y-406424714D02*
X484436542Y-406496142D01*
X484365114Y-406567571D01*
X484293685Y-406496142D01*
X484365114Y-406424714D01*
X484365114Y-406567571D01*
X485079400Y-406567571D02*
X485079400Y-405067571D01*
X485436542Y-405067571D01*
X485650828Y-405139000D01*
X485793685Y-405281857D01*
X485865114Y-405424714D01*
X485936542Y-405710428D01*
X485936542Y-405924714D01*
X485865114Y-406210428D01*
X485793685Y-406353285D01*
X485650828Y-406496142D01*
X485436542Y-406567571D01*
X485079400Y-406567571D01*
X486579400Y-406424714D02*
X486650828Y-406496142D01*
X486579400Y-406567571D01*
X486507971Y-406496142D01*
X486579400Y-406424714D01*
X486579400Y-406567571D01*
X487222257Y-406139000D02*
X487936542Y-406139000D01*
X487079400Y-406567571D02*
X487579400Y-405067571D01*
X488079400Y-406567571D01*
X488579400Y-406424714D02*
X488650828Y-406496142D01*
X488579400Y-406567571D01*
X488507971Y-406496142D01*
X488579400Y-406424714D01*
X488579400Y-406567571D01*
X491579400Y-406567571D02*
X491579400Y-405067571D01*
X491722257Y-405996142D02*
X492150828Y-406567571D01*
X492150828Y-405567571D02*
X491579400Y-406139000D01*
X492793685Y-406567571D02*
X492793685Y-405567571D01*
X492793685Y-405067571D02*
X492722257Y-405139000D01*
X492793685Y-405210428D01*
X492865114Y-405139000D01*
X492793685Y-405067571D01*
X492793685Y-405210428D01*
X494150828Y-406496142D02*
X494007971Y-406567571D01*
X493722257Y-406567571D01*
X493579400Y-406496142D01*
X493507971Y-406424714D01*
X493436542Y-406281857D01*
X493436542Y-405853285D01*
X493507971Y-405710428D01*
X493579400Y-405639000D01*
X493722257Y-405567571D01*
X494007971Y-405567571D01*
X494150828Y-405639000D01*
X495436542Y-406567571D02*
X495436542Y-405781857D01*
X495365114Y-405639000D01*
X495222257Y-405567571D01*
X494936542Y-405567571D01*
X494793685Y-405639000D01*
X495436542Y-406496142D02*
X495293685Y-406567571D01*
X494936542Y-406567571D01*
X494793685Y-406496142D01*
X494722257Y-406353285D01*
X494722257Y-406210428D01*
X494793685Y-406067571D01*
X494936542Y-405996142D01*
X495293685Y-405996142D01*
X495436542Y-405924714D01*
X496793685Y-406567571D02*
X496793685Y-405067571D01*
X496793685Y-406496142D02*
X496650828Y-406567571D01*
X496365114Y-406567571D01*
X496222257Y-406496142D01*
X496150828Y-406424714D01*
X496079400Y-406281857D01*
X496079400Y-405853285D01*
X496150828Y-405710428D01*
X496222257Y-405639000D01*
X496365114Y-405567571D01*
X496650828Y-405567571D01*
X496793685Y-405639000D01*
X499365114Y-405067571D02*
X498650828Y-405067571D01*
X498579400Y-405781857D01*
X498650828Y-405710428D01*
X498793685Y-405639000D01*
X499150828Y-405639000D01*
X499293685Y-405710428D01*
X499365114Y-405781857D01*
X499436542Y-405924714D01*
X499436542Y-406281857D01*
X499365114Y-406424714D01*
X499293685Y-406496142D01*
X499150828Y-406567571D01*
X498793685Y-406567571D01*
X498650828Y-406496142D01*
X498579400Y-406424714D01*
X500079400Y-406424714D02*
X500150828Y-406496142D01*
X500079400Y-406567571D01*
X500007971Y-406496142D01*
X500079400Y-406424714D01*
X500079400Y-406567571D01*
X500865114Y-406567571D02*
X501150828Y-406567571D01*
X501293685Y-406496142D01*
X501365114Y-406424714D01*
X501507971Y-406210428D01*
X501579400Y-405924714D01*
X501579400Y-405353285D01*
X501507971Y-405210428D01*
X501436542Y-405139000D01*
X501293685Y-405067571D01*
X501007971Y-405067571D01*
X500865114Y-405139000D01*
X500793685Y-405210428D01*
X500722257Y-405353285D01*
X500722257Y-405710428D01*
X500793685Y-405853285D01*
X500865114Y-405924714D01*
X501007971Y-405996142D01*
X501293685Y-405996142D01*
X501436542Y-405924714D01*
X501507971Y-405853285D01*
X501579400Y-405710428D01*
X502293685Y-406567571D02*
X502579400Y-406567571D01*
X502722257Y-406496142D01*
X502793685Y-406424714D01*
X502936542Y-406210428D01*
X503007971Y-405924714D01*
X503007971Y-405353285D01*
X502936542Y-405210428D01*
X502865114Y-405139000D01*
X502722257Y-405067571D01*
X502436542Y-405067571D01*
X502293685Y-405139000D01*
X502222257Y-405210428D01*
X502150828Y-405353285D01*
X502150828Y-405710428D01*
X502222257Y-405853285D01*
X502293685Y-405924714D01*
X502436542Y-405996142D01*
X502722257Y-405996142D01*
X502865114Y-405924714D01*
X502936542Y-405853285D01*
X503007971Y-405710428D01*
X503650828Y-406424714D02*
X503722257Y-406496142D01*
X503650828Y-406567571D01*
X503579400Y-406496142D01*
X503650828Y-406424714D01*
X503650828Y-406567571D01*
X504650828Y-405067571D02*
X504793685Y-405067571D01*
X504936542Y-405139000D01*
X505007971Y-405210428D01*
X505079400Y-405353285D01*
X505150828Y-405639000D01*
X505150828Y-405996142D01*
X505079400Y-406281857D01*
X505007971Y-406424714D01*
X504936542Y-406496142D01*
X504793685Y-406567571D01*
X504650828Y-406567571D01*
X504507971Y-406496142D01*
X504436542Y-406424714D01*
X504365114Y-406281857D01*
X504293685Y-405996142D01*
X504293685Y-405639000D01*
X504365114Y-405353285D01*
X504436542Y-405210428D01*
X504507971Y-405139000D01*
X504650828Y-405067571D01*
X505793685Y-405996142D02*
X506936542Y-405996142D01*
X508293685Y-405567571D02*
X508293685Y-406567571D01*
X507650828Y-405567571D02*
X507650828Y-406353285D01*
X507722257Y-406496142D01*
X507865114Y-406567571D01*
X508079400Y-406567571D01*
X508222257Y-406496142D01*
X508293685Y-406424714D01*
X509007971Y-405567571D02*
X509007971Y-406567571D01*
X509007971Y-405710428D02*
X509079400Y-405639000D01*
X509222257Y-405567571D01*
X509436542Y-405567571D01*
X509579400Y-405639000D01*
X509650828Y-405781857D01*
X509650828Y-406567571D01*
X510365114Y-406567571D02*
X510365114Y-405067571D01*
X510507971Y-405996142D02*
X510936542Y-406567571D01*
X510936542Y-405567571D02*
X510365114Y-406139000D01*
X511579400Y-405567571D02*
X511579400Y-406567571D01*
X511579400Y-405710428D02*
X511650828Y-405639000D01*
X511793685Y-405567571D01*
X512007971Y-405567571D01*
X512150828Y-405639000D01*
X512222257Y-405781857D01*
X512222257Y-406567571D01*
X513150828Y-406567571D02*
X513007971Y-406496142D01*
X512936542Y-406424714D01*
X512865114Y-406281857D01*
X512865114Y-405853285D01*
X512936542Y-405710428D01*
X513007971Y-405639000D01*
X513150828Y-405567571D01*
X513365114Y-405567571D01*
X513507971Y-405639000D01*
X513579400Y-405710428D01*
X513650828Y-405853285D01*
X513650828Y-406281857D01*
X513579400Y-406424714D01*
X513507971Y-406496142D01*
X513365114Y-406567571D01*
X513150828Y-406567571D01*
X514150828Y-405567571D02*
X514436542Y-406567571D01*
X514722257Y-405853285D01*
X515007971Y-406567571D01*
X515293685Y-405567571D01*
X515865114Y-405567571D02*
X515865114Y-406567571D01*
X515865114Y-405710428D02*
X515936542Y-405639000D01*
X516079400Y-405567571D01*
X516293685Y-405567571D01*
X516436542Y-405639000D01*
X516507971Y-405781857D01*
X516507971Y-406567571D01*
X517222257Y-405996142D02*
X518365114Y-405996142D01*
X518865114Y-405567571D02*
X519436542Y-405567571D01*
X519079400Y-406567571D02*
X519079400Y-405281857D01*
X519150828Y-405139000D01*
X519293685Y-405067571D01*
X519436542Y-405067571D01*
X520150828Y-405710428D02*
X520007971Y-405639000D01*
X519936542Y-405567571D01*
X519865114Y-405424714D01*
X519865114Y-405353285D01*
X519936542Y-405210428D01*
X520007971Y-405139000D01*
X520150828Y-405067571D01*
X520436542Y-405067571D01*
X520579400Y-405139000D01*
X520650828Y-405210428D01*
X520722257Y-405353285D01*
X520722257Y-405424714D01*
X520650828Y-405567571D01*
X520579400Y-405639000D01*
X520436542Y-405710428D01*
X520150828Y-405710428D01*
X520007971Y-405781857D01*
X519936542Y-405853285D01*
X519865114Y-405996142D01*
X519865114Y-406281857D01*
X519936542Y-406424714D01*
X520007971Y-406496142D01*
X520150828Y-406567571D01*
X520436542Y-406567571D01*
X520579400Y-406496142D01*
X520650828Y-406424714D01*
X520722257Y-406281857D01*
X520722257Y-405996142D01*
X520650828Y-405853285D01*
X520579400Y-405781857D01*
X520436542Y-405710428D01*
X521579400Y-405710428D02*
X521436542Y-405639000D01*
X521365114Y-405567571D01*
X521293685Y-405424714D01*
X521293685Y-405353285D01*
X521365114Y-405210428D01*
X521436542Y-405139000D01*
X521579400Y-405067571D01*
X521865114Y-405067571D01*
X522007971Y-405139000D01*
X522079400Y-405210428D01*
X522150828Y-405353285D01*
X522150828Y-405424714D01*
X522079400Y-405567571D01*
X522007971Y-405639000D01*
X521865114Y-405710428D01*
X521579400Y-405710428D01*
X521436542Y-405781857D01*
X521365114Y-405853285D01*
X521293685Y-405996142D01*
X521293685Y-406281857D01*
X521365114Y-406424714D01*
X521436542Y-406496142D01*
X521579400Y-406567571D01*
X521865114Y-406567571D01*
X522007971Y-406496142D01*
X522079400Y-406424714D01*
X522150828Y-406281857D01*
X522150828Y-405996142D01*
X522079400Y-405853285D01*
X522007971Y-405781857D01*
X521865114Y-405710428D01*
X523436542Y-406567571D02*
X523436542Y-405067571D01*
X523436542Y-406496142D02*
X523293685Y-406567571D01*
X523007971Y-406567571D01*
X522865114Y-406496142D01*
X522793685Y-406424714D01*
X522722257Y-406281857D01*
X522722257Y-405853285D01*
X522793685Y-405710428D01*
X522865114Y-405639000D01*
X523007971Y-405567571D01*
X523293685Y-405567571D01*
X523436542Y-405639000D01*
X524007971Y-405067571D02*
X524936542Y-405067571D01*
X524436542Y-405639000D01*
X524650828Y-405639000D01*
X524793685Y-405710428D01*
X524865114Y-405781857D01*
X524936542Y-405924714D01*
X524936542Y-406281857D01*
X524865114Y-406424714D01*
X524793685Y-406496142D01*
X524650828Y-406567571D01*
X524222257Y-406567571D01*
X524079400Y-406496142D01*
X524007971Y-406424714D01*
X525650828Y-406567571D02*
X525936542Y-406567571D01*
X526079400Y-406496142D01*
X526150828Y-406424714D01*
X526293685Y-406210428D01*
X526365114Y-405924714D01*
X526365114Y-405353285D01*
X526293685Y-405210428D01*
X526222257Y-405139000D01*
X526079400Y-405067571D01*
X525793685Y-405067571D01*
X525650828Y-405139000D01*
X525579400Y-405210428D01*
X525507971Y-405353285D01*
X525507971Y-405710428D01*
X525579400Y-405853285D01*
X525650828Y-405924714D01*
X525793685Y-405996142D01*
X526079400Y-405996142D01*
X526222257Y-405924714D01*
X526293685Y-405853285D01*
X526365114Y-405710428D01*
X527007971Y-406567571D02*
X527007971Y-405067571D01*
X527007971Y-405639000D02*
X527150828Y-405567571D01*
X527436542Y-405567571D01*
X527579400Y-405639000D01*
X527650828Y-405710428D01*
X527722257Y-405853285D01*
X527722257Y-406281857D01*
X527650828Y-406424714D01*
X527579400Y-406496142D01*
X527436542Y-406567571D01*
X527150828Y-406567571D01*
X527007971Y-406496142D01*
X529007971Y-405567571D02*
X529007971Y-406567571D01*
X528650828Y-404996142D02*
X528293685Y-406067571D01*
X529222257Y-406067571D01*
X529579400Y-405567571D02*
X530150828Y-405567571D01*
X529793685Y-406567571D02*
X529793685Y-405281857D01*
X529865114Y-405139000D01*
X530007971Y-405067571D01*
X530150828Y-405067571D01*
X530936542Y-405067571D02*
X531079400Y-405067571D01*
X531222257Y-405139000D01*
X531293685Y-405210428D01*
X531365114Y-405353285D01*
X531436542Y-405639000D01*
X531436542Y-405996142D01*
X531365114Y-406281857D01*
X531293685Y-406424714D01*
X531222257Y-406496142D01*
X531079400Y-406567571D01*
X530936542Y-406567571D01*
X530793685Y-406496142D01*
X530722257Y-406424714D01*
X530650828Y-406281857D01*
X530579400Y-405996142D01*
X530579400Y-405639000D01*
X530650828Y-405353285D01*
X530722257Y-405210428D01*
X530793685Y-405139000D01*
X530936542Y-405067571D01*
X531722257Y-404644000D02*
X533150828Y-404644000D01*
X532865114Y-406567571D02*
X532007971Y-406567571D01*
X532436542Y-406567571D02*
X532436542Y-405067571D01*
X532293685Y-405281857D01*
X532150828Y-405424714D01*
X532007971Y-405496142D01*
X533150828Y-404644000D02*
X534579400Y-404644000D01*
X533436542Y-405210428D02*
X533507971Y-405139000D01*
X533650828Y-405067571D01*
X534007971Y-405067571D01*
X534150828Y-405139000D01*
X534222257Y-405210428D01*
X534293685Y-405353285D01*
X534293685Y-405496142D01*
X534222257Y-405710428D01*
X533365114Y-406567571D01*
X534293685Y-406567571D01*
X534579400Y-404644000D02*
X536007971Y-404644000D01*
X535650828Y-405067571D02*
X534936542Y-405067571D01*
X534865114Y-405781857D01*
X534936542Y-405710428D01*
X535079400Y-405639000D01*
X535436542Y-405639000D01*
X535579400Y-405710428D01*
X535650828Y-405781857D01*
X535722257Y-405924714D01*
X535722257Y-406281857D01*
X535650828Y-406424714D01*
X535579400Y-406496142D01*
X535436542Y-406567571D01*
X535079400Y-406567571D01*
X534936542Y-406496142D01*
X534865114Y-406424714D01*
X537007971Y-405567571D02*
X537007971Y-406567571D01*
X536365114Y-405567571D02*
X536365114Y-406353285D01*
X536436542Y-406496142D01*
X536579400Y-406567571D01*
X536793685Y-406567571D01*
X536936542Y-406496142D01*
X537007971Y-406424714D01*
X537722257Y-406567571D02*
X537722257Y-405067571D01*
X537722257Y-405639000D02*
X537865114Y-405567571D01*
X538150828Y-405567571D01*
X538293685Y-405639000D01*
X538365114Y-405710428D01*
X538436542Y-405853285D01*
X538436542Y-406281857D01*
X538365114Y-406424714D01*
X538293685Y-406496142D01*
X538150828Y-406567571D01*
X537865114Y-406567571D01*
X537722257Y-406496142D01*
X539722257Y-405567571D02*
X539722257Y-406567571D01*
X539079400Y-405567571D02*
X539079400Y-406353285D01*
X539150828Y-406496142D01*
X539293685Y-406567571D01*
X539507971Y-406567571D01*
X539650828Y-406496142D01*
X539722257Y-406424714D01*
X540436542Y-405567571D02*
X540436542Y-406567571D01*
X540436542Y-405710428D02*
X540507971Y-405639000D01*
X540650828Y-405567571D01*
X540865114Y-405567571D01*
X541007971Y-405639000D01*
X541079400Y-405781857D01*
X541079400Y-406567571D01*
X541579400Y-405567571D02*
X542150828Y-405567571D01*
X541793685Y-405067571D02*
X541793685Y-406353285D01*
X541865114Y-406496142D01*
X542007971Y-406567571D01*
X542150828Y-406567571D01*
X543293685Y-405567571D02*
X543293685Y-406567571D01*
X542650828Y-405567571D02*
X542650828Y-406353285D01*
X542722257Y-406496142D01*
X542865114Y-406567571D01*
X543079400Y-406567571D01*
X543222257Y-406496142D01*
X543293685Y-406424714D01*
X543936542Y-405210428D02*
X544007971Y-405139000D01*
X544150828Y-405067571D01*
X544507971Y-405067571D01*
X544650828Y-405139000D01*
X544722257Y-405210428D01*
X544793685Y-405353285D01*
X544793685Y-405496142D01*
X544722257Y-405710428D01*
X543865114Y-406567571D01*
X544793685Y-406567571D01*
X545722257Y-405067571D02*
X545865114Y-405067571D01*
X546007971Y-405139000D01*
X546079400Y-405210428D01*
X546150828Y-405353285D01*
X546222257Y-405639000D01*
X546222257Y-405996142D01*
X546150828Y-406281857D01*
X546079400Y-406424714D01*
X546007971Y-406496142D01*
X545865114Y-406567571D01*
X545722257Y-406567571D01*
X545579400Y-406496142D01*
X545507971Y-406424714D01*
X545436542Y-406281857D01*
X545365114Y-405996142D01*
X545365114Y-405639000D01*
X545436542Y-405353285D01*
X545507971Y-405210428D01*
X545579400Y-405139000D01*
X545722257Y-405067571D01*
X546865114Y-406424714D02*
X546936542Y-406496142D01*
X546865114Y-406567571D01*
X546793685Y-406496142D01*
X546865114Y-406424714D01*
X546865114Y-406567571D01*
X547865114Y-405067571D02*
X548007971Y-405067571D01*
X548150828Y-405139000D01*
X548222257Y-405210428D01*
X548293685Y-405353285D01*
X548365114Y-405639000D01*
X548365114Y-405996142D01*
X548293685Y-406281857D01*
X548222257Y-406424714D01*
X548150828Y-406496142D01*
X548007971Y-406567571D01*
X547865114Y-406567571D01*
X547722257Y-406496142D01*
X547650828Y-406424714D01*
X547579400Y-406281857D01*
X547507971Y-405996142D01*
X547507971Y-405639000D01*
X547579400Y-405353285D01*
X547650828Y-405210428D01*
X547722257Y-405139000D01*
X547865114Y-405067571D01*
X549650828Y-405567571D02*
X549650828Y-406567571D01*
X549293685Y-404996142D02*
X548936542Y-406067571D01*
X549865114Y-406067571D01*
X550436542Y-406424714D02*
X550507971Y-406496142D01*
X550436542Y-406567571D01*
X550365114Y-406496142D01*
X550436542Y-406424714D01*
X550436542Y-406567571D01*
X551936542Y-406567571D02*
X551079400Y-406567571D01*
X551507971Y-406567571D02*
X551507971Y-405067571D01*
X551365114Y-405281857D01*
X551222257Y-405424714D01*
X551079400Y-405496142D01*
D10*
D11*
X474004400Y-401489000D02*
X582004400Y-401489000D01*
D10*
D12*
X561413685Y-403767571D02*
X560913685Y-403053285D01*
X560556542Y-403767571D02*
X560556542Y-402267571D01*
X561127971Y-402267571D01*
X561270828Y-402339000D01*
X561342257Y-402410428D01*
X561413685Y-402553285D01*
X561413685Y-402767571D01*
X561342257Y-402910428D01*
X561270828Y-402981857D01*
X561127971Y-403053285D01*
X560556542Y-403053285D01*
X562627971Y-403696142D02*
X562485114Y-403767571D01*
X562199400Y-403767571D01*
X562056542Y-403696142D01*
X561985114Y-403553285D01*
X561985114Y-402981857D01*
X562056542Y-402839000D01*
X562199400Y-402767571D01*
X562485114Y-402767571D01*
X562627971Y-402839000D01*
X562699400Y-402981857D01*
X562699400Y-403124714D01*
X561985114Y-403267571D01*
X563199400Y-402767571D02*
X563556542Y-403767571D01*
X563913685Y-402767571D01*
X564485114Y-403624714D02*
X564556542Y-403696142D01*
X564485114Y-403767571D01*
X564413685Y-403696142D01*
X564485114Y-403624714D01*
X564485114Y-403767571D01*
X564485114Y-402839000D02*
X564556542Y-402910428D01*
X564485114Y-402981857D01*
X564413685Y-402910428D01*
X564485114Y-402839000D01*
X564485114Y-402981857D01*
D10*
D11*
X475365114Y-403696142D02*
X475579400Y-403767571D01*
X475936542Y-403767571D01*
X476079400Y-403696142D01*
X476150828Y-403624714D01*
X476222257Y-403481857D01*
X476222257Y-403339000D01*
X476150828Y-403196142D01*
X476079400Y-403124714D01*
X475936542Y-403053285D01*
X475650828Y-402981857D01*
X475507971Y-402910428D01*
X475436542Y-402839000D01*
X475365114Y-402696142D01*
X475365114Y-402553285D01*
X475436542Y-402410428D01*
X475507971Y-402339000D01*
X475650828Y-402267571D01*
X476007971Y-402267571D01*
X476222257Y-402339000D01*
X476865114Y-403767571D02*
X476865114Y-402767571D01*
X476865114Y-402267571D02*
X476793685Y-402339000D01*
X476865114Y-402410428D01*
X476936542Y-402339000D01*
X476865114Y-402267571D01*
X476865114Y-402410428D01*
X477436542Y-402767571D02*
X478222257Y-402767571D01*
X477436542Y-403767571D01*
X478222257Y-403767571D01*
X479365114Y-403696142D02*
X479222257Y-403767571D01*
X478936542Y-403767571D01*
X478793685Y-403696142D01*
X478722257Y-403553285D01*
X478722257Y-402981857D01*
X478793685Y-402839000D01*
X478936542Y-402767571D01*
X479222257Y-402767571D01*
X479365114Y-402839000D01*
X479436542Y-402981857D01*
X479436542Y-403124714D01*
X478722257Y-403267571D01*
X480079400Y-403624714D02*
X480150828Y-403696142D01*
X480079400Y-403767571D01*
X480007971Y-403696142D01*
X480079400Y-403624714D01*
X480079400Y-403767571D01*
X480079400Y-402839000D02*
X480150828Y-402910428D01*
X480079400Y-402981857D01*
X480007971Y-402910428D01*
X480079400Y-402839000D01*
X480079400Y-402981857D01*
X481865114Y-403339000D02*
X482579400Y-403339000D01*
X481722257Y-403767571D02*
X482222257Y-402267571D01*
X482722257Y-403767571D01*
X483150828Y-402410428D02*
X483222257Y-402339000D01*
X483365114Y-402267571D01*
X483722257Y-402267571D01*
X483865114Y-402339000D01*
X483936542Y-402410428D01*
X484007971Y-402553285D01*
X484007971Y-402696142D01*
X483936542Y-402910428D01*
X483079400Y-403767571D01*
X484007971Y-403767571D01*
D10*
D11*
X560436542Y-406567571D02*
X560436542Y-405067571D01*
X561793685Y-406567571D02*
X561793685Y-405067571D01*
X561793685Y-406496142D02*
X561650828Y-406567571D01*
X561365114Y-406567571D01*
X561222257Y-406496142D01*
X561150828Y-406424714D01*
X561079400Y-406281857D01*
X561079400Y-405853285D01*
X561150828Y-405710428D01*
X561222257Y-405639000D01*
X561365114Y-405567571D01*
X561650828Y-405567571D01*
X561793685Y-405639000D01*
X562507971Y-406424714D02*
X562579400Y-406496142D01*
X562507971Y-406567571D01*
X562436542Y-406496142D01*
X562507971Y-406424714D01*
X562507971Y-406567571D01*
X562507971Y-405639000D02*
X562579400Y-405710428D01*
X562507971Y-405781857D01*
X562436542Y-405710428D01*
X562507971Y-405639000D01*
X562507971Y-405781857D01*
X565150828Y-406567571D02*
X564293685Y-406567571D01*
X564722257Y-406567571D02*
X564722257Y-405067571D01*
X564579400Y-405281857D01*
X564436542Y-405424714D01*
X564293685Y-405496142D01*
X566865114Y-404996142D02*
X565579400Y-406924714D01*
X568150828Y-406567571D02*
X567293685Y-406567571D01*
X567722257Y-406567571D02*
X567722257Y-405067571D01*
X567579400Y-405281857D01*
X567436542Y-405424714D01*
X567293685Y-405496142D01*
D10*
D11*
X474004400Y-397489000D02*
X582004400Y-397489000D01*
D10*
D13*
X475716780Y-398193761D02*
X476859638Y-398193761D01*
X476038209Y-400193761D02*
X476288209Y-398193761D01*
X477276304Y-400193761D02*
X477442971Y-398860428D01*
X477526304Y-398193761D02*
X477419161Y-398289000D01*
X477502495Y-398384238D01*
X477609638Y-398289000D01*
X477526304Y-398193761D01*
X477502495Y-398384238D01*
X478109638Y-398860428D02*
X478871542Y-398860428D01*
X478478685Y-398193761D02*
X478264400Y-399908047D01*
X478335828Y-400098523D01*
X478514400Y-400193761D01*
X478704876Y-400193761D01*
X479657257Y-400193761D02*
X479478685Y-400098523D01*
X479407257Y-399908047D01*
X479621542Y-398193761D01*
X481192971Y-400098523D02*
X480990590Y-400193761D01*
X480609638Y-400193761D01*
X480431066Y-400098523D01*
X480359638Y-399908047D01*
X480454876Y-399146142D01*
X480573923Y-398955666D01*
X480776304Y-398860428D01*
X481157257Y-398860428D01*
X481335828Y-398955666D01*
X481407257Y-399146142D01*
X481383447Y-399336619D01*
X480407257Y-399527095D01*
X482157257Y-400003285D02*
X482240590Y-400098523D01*
X482133447Y-400193761D01*
X482050114Y-400098523D01*
X482157257Y-400003285D01*
X482133447Y-400193761D01*
X482288209Y-398955666D02*
X482371542Y-399050904D01*
X482264400Y-399146142D01*
X482181066Y-399050904D01*
X482288209Y-398955666D01*
X482264400Y-399146142D01*
D10*
D11*
X475936542Y-395581857D02*
X475436542Y-395581857D01*
X475436542Y-396367571D02*
X475436542Y-394867571D01*
X476150828Y-394867571D01*
X476722257Y-396367571D02*
X476722257Y-395367571D01*
X476722257Y-394867571D02*
X476650828Y-394939000D01*
X476722257Y-395010428D01*
X476793685Y-394939000D01*
X476722257Y-394867571D01*
X476722257Y-395010428D01*
X477650828Y-396367571D02*
X477507971Y-396296142D01*
X477436542Y-396153285D01*
X477436542Y-394867571D01*
X478793685Y-396296142D02*
X478650828Y-396367571D01*
X478365114Y-396367571D01*
X478222257Y-396296142D01*
X478150828Y-396153285D01*
X478150828Y-395581857D01*
X478222257Y-395439000D01*
X478365114Y-395367571D01*
X478650828Y-395367571D01*
X478793685Y-395439000D01*
X478865114Y-395581857D01*
X478865114Y-395724714D01*
X478150828Y-395867571D01*
X479507971Y-396224714D02*
X479579400Y-396296142D01*
X479507971Y-396367571D01*
X479436542Y-396296142D01*
X479507971Y-396224714D01*
X479507971Y-396367571D01*
X479507971Y-395439000D02*
X479579400Y-395510428D01*
X479507971Y-395581857D01*
X479436542Y-395510428D01*
X479507971Y-395439000D01*
X479507971Y-395581857D01*
X481150828Y-394867571D02*
X482007971Y-394867571D01*
X481579400Y-396367571D02*
X481579400Y-394867571D01*
X482507971Y-396367571D02*
X482507971Y-395367571D01*
X482507971Y-395653285D02*
X482579400Y-395510428D01*
X482650828Y-395439000D01*
X482793685Y-395367571D01*
X482936542Y-395367571D01*
X484079400Y-396367571D02*
X484079400Y-395581857D01*
X484007971Y-395439000D01*
X483865114Y-395367571D01*
X483579400Y-395367571D01*
X483436542Y-395439000D01*
X484079400Y-396296142D02*
X483936542Y-396367571D01*
X483579400Y-396367571D01*
X483436542Y-396296142D01*
X483365114Y-396153285D01*
X483365114Y-396010428D01*
X483436542Y-395867571D01*
X483579400Y-395796142D01*
X483936542Y-395796142D01*
X484079400Y-395724714D01*
X484793685Y-396367571D02*
X484793685Y-394867571D01*
X484936542Y-395796142D02*
X485365114Y-396367571D01*
X485365114Y-395367571D02*
X484793685Y-395939000D01*
X485793685Y-395367571D02*
X486365114Y-395367571D01*
X486007971Y-394867571D02*
X486007971Y-396153285D01*
X486079400Y-396296142D01*
X486222257Y-396367571D01*
X486365114Y-396367571D01*
X487079400Y-396367571D02*
X486936542Y-396296142D01*
X486865114Y-396224714D01*
X486793685Y-396081857D01*
X486793685Y-395653285D01*
X486865114Y-395510428D01*
X486936542Y-395439000D01*
X487079400Y-395367571D01*
X487293685Y-395367571D01*
X487436542Y-395439000D01*
X487507971Y-395510428D01*
X487579400Y-395653285D01*
X487579400Y-396081857D01*
X487507971Y-396224714D01*
X487436542Y-396296142D01*
X487293685Y-396367571D01*
X487079400Y-396367571D01*
X488222257Y-396367571D02*
X488222257Y-395367571D01*
X488222257Y-395653285D02*
X488293685Y-395510428D01*
X488365114Y-395439000D01*
X488507971Y-395367571D01*
X488650828Y-395367571D01*
X489150828Y-396367571D02*
X489150828Y-395367571D01*
X489150828Y-394867571D02*
X489079400Y-394939000D01*
X489150828Y-395010428D01*
X489222257Y-394939000D01*
X489150828Y-394867571D01*
X489150828Y-395010428D01*
X489865114Y-395367571D02*
X489865114Y-396367571D01*
X489865114Y-395510428D02*
X489936542Y-395439000D01*
X490079400Y-395367571D01*
X490293685Y-395367571D01*
X490436542Y-395439000D01*
X490507971Y-395581857D01*
X490507971Y-396367571D01*
X491436542Y-396367571D02*
X491293685Y-396296142D01*
X491222257Y-396224714D01*
X491150828Y-396081857D01*
X491150828Y-395653285D01*
X491222257Y-395510428D01*
X491293685Y-395439000D01*
X491436542Y-395367571D01*
X491650828Y-395367571D01*
X491793685Y-395439000D01*
X491865114Y-395510428D01*
X491936542Y-395653285D01*
X491936542Y-396081857D01*
X491865114Y-396224714D01*
X491793685Y-396296142D01*
X491650828Y-396367571D01*
X491436542Y-396367571D01*
X492579400Y-396224714D02*
X492650828Y-396296142D01*
X492579400Y-396367571D01*
X492507971Y-396296142D01*
X492579400Y-396224714D01*
X492579400Y-396367571D01*
X493293685Y-396367571D02*
X493293685Y-394867571D01*
X493436542Y-395796142D02*
X493865114Y-396367571D01*
X493865114Y-395367571D02*
X493293685Y-395939000D01*
X494507971Y-396367571D02*
X494507971Y-395367571D01*
X494507971Y-394867571D02*
X494436542Y-394939000D01*
X494507971Y-395010428D01*
X494579400Y-394939000D01*
X494507971Y-394867571D01*
X494507971Y-395010428D01*
X495865114Y-396296142D02*
X495722257Y-396367571D01*
X495436542Y-396367571D01*
X495293685Y-396296142D01*
X495222257Y-396224714D01*
X495150828Y-396081857D01*
X495150828Y-395653285D01*
X495222257Y-395510428D01*
X495293685Y-395439000D01*
X495436542Y-395367571D01*
X495722257Y-395367571D01*
X495865114Y-395439000D01*
X497150828Y-396367571D02*
X497150828Y-395581857D01*
X497079400Y-395439000D01*
X496936542Y-395367571D01*
X496650828Y-395367571D01*
X496507971Y-395439000D01*
X497150828Y-396296142D02*
X497007971Y-396367571D01*
X496650828Y-396367571D01*
X496507971Y-396296142D01*
X496436542Y-396153285D01*
X496436542Y-396010428D01*
X496507971Y-395867571D01*
X496650828Y-395796142D01*
X497007971Y-395796142D01*
X497150828Y-395724714D01*
X498507971Y-396367571D02*
X498507971Y-394867571D01*
X498507971Y-396296142D02*
X498365114Y-396367571D01*
X498079400Y-396367571D01*
X497936542Y-396296142D01*
X497865114Y-396224714D01*
X497793685Y-396081857D01*
X497793685Y-395653285D01*
X497865114Y-395510428D01*
X497936542Y-395439000D01*
X498079400Y-395367571D01*
X498365114Y-395367571D01*
X498507971Y-395439000D01*
X498865114Y-396510428D02*
X500007971Y-396510428D01*
X500365114Y-395367571D02*
X500365114Y-396867571D01*
X500365114Y-395439000D02*
X500507971Y-395367571D01*
X500793685Y-395367571D01*
X500936542Y-395439000D01*
X501007971Y-395510428D01*
X501079400Y-395653285D01*
X501079400Y-396081857D01*
X501007971Y-396224714D01*
X500936542Y-396296142D01*
X500793685Y-396367571D01*
X500507971Y-396367571D01*
X500365114Y-396296142D01*
X502365114Y-396296142D02*
X502222257Y-396367571D01*
X501936542Y-396367571D01*
X501793685Y-396296142D01*
X501722257Y-396224714D01*
X501650828Y-396081857D01*
X501650828Y-395653285D01*
X501722257Y-395510428D01*
X501793685Y-395439000D01*
X501936542Y-395367571D01*
X502222257Y-395367571D01*
X502365114Y-395439000D01*
X503007971Y-396367571D02*
X503007971Y-394867571D01*
X503007971Y-395439000D02*
X503150828Y-395367571D01*
X503436542Y-395367571D01*
X503579400Y-395439000D01*
X503650828Y-395510428D01*
X503722257Y-395653285D01*
X503722257Y-396081857D01*
X503650828Y-396224714D01*
X503579400Y-396296142D01*
X503436542Y-396367571D01*
X503150828Y-396367571D01*
X503007971Y-396296142D01*
D10*
D11*
X474004400Y-391489000D02*
X582004400Y-391489000D01*
D10*
D11*
X475365114Y-393596142D02*
X475579400Y-393667571D01*
X475936542Y-393667571D01*
X476079400Y-393596142D01*
X476150828Y-393524714D01*
X476222257Y-393381857D01*
X476222257Y-393239000D01*
X476150828Y-393096142D01*
X476079400Y-393024714D01*
X475936542Y-392953285D01*
X475650828Y-392881857D01*
X475507971Y-392810428D01*
X475436542Y-392739000D01*
X475365114Y-392596142D01*
X475365114Y-392453285D01*
X475436542Y-392310428D01*
X475507971Y-392239000D01*
X475650828Y-392167571D01*
X476007971Y-392167571D01*
X476222257Y-392239000D01*
X476865114Y-393667571D02*
X476865114Y-392167571D01*
X477507971Y-393667571D02*
X477507971Y-392881857D01*
X477436542Y-392739000D01*
X477293685Y-392667571D01*
X477079400Y-392667571D01*
X476936542Y-392739000D01*
X476865114Y-392810428D01*
X478793685Y-393596142D02*
X478650828Y-393667571D01*
X478365114Y-393667571D01*
X478222257Y-393596142D01*
X478150828Y-393453285D01*
X478150828Y-392881857D01*
X478222257Y-392739000D01*
X478365114Y-392667571D01*
X478650828Y-392667571D01*
X478793685Y-392739000D01*
X478865114Y-392881857D01*
X478865114Y-393024714D01*
X478150828Y-393167571D01*
X480079400Y-393596142D02*
X479936542Y-393667571D01*
X479650828Y-393667571D01*
X479507971Y-393596142D01*
X479436542Y-393453285D01*
X479436542Y-392881857D01*
X479507971Y-392739000D01*
X479650828Y-392667571D01*
X479936542Y-392667571D01*
X480079400Y-392739000D01*
X480150828Y-392881857D01*
X480150828Y-393024714D01*
X479436542Y-393167571D01*
X480579400Y-392667571D02*
X481150828Y-392667571D01*
X480793685Y-392167571D02*
X480793685Y-393453285D01*
X480865114Y-393596142D01*
X481007971Y-393667571D01*
X481150828Y-393667571D01*
X481650828Y-393524714D02*
X481722257Y-393596142D01*
X481650828Y-393667571D01*
X481579400Y-393596142D01*
X481650828Y-393524714D01*
X481650828Y-393667571D01*
X481650828Y-392739000D02*
X481722257Y-392810428D01*
X481650828Y-392881857D01*
X481579400Y-392810428D01*
X481650828Y-392739000D01*
X481650828Y-392881857D01*
D10*
D12*
D10*
D11*
D10*
D11*
D10*
D11*
D10*
D11*
D10*
D11*
X494004400Y-401489000D02*
X494004400Y-404489000D01*
D10*
D11*
X558004400Y-401489000D02*
X558004400Y-407989000D01*
%TO.C,PADL-IN-R1*%
X105410028Y-195101380D02*
X105410028Y-194101380D01*
X105029076Y-194101380D01*
X104933838Y-194149000D01*
X104886219Y-194196619D01*
X104838600Y-194291857D01*
X104838600Y-194434714D01*
X104886219Y-194529952D01*
X104933838Y-194577571D01*
X105029076Y-194625190D01*
X105410028Y-194625190D01*
X104457647Y-194815666D02*
X103981457Y-194815666D01*
X104552885Y-195101380D02*
X104219552Y-194101380D01*
X103886219Y-195101380D01*
X103552885Y-195101380D02*
X103552885Y-194101380D01*
X103314790Y-194101380D01*
X103171933Y-194149000D01*
X103076695Y-194244238D01*
X103029076Y-194339476D01*
X102981457Y-194529952D01*
X102981457Y-194672809D01*
X103029076Y-194863285D01*
X103076695Y-194958523D01*
X103171933Y-195053761D01*
X103314790Y-195101380D01*
X103552885Y-195101380D01*
X102076695Y-195101380D02*
X102552885Y-195101380D01*
X102552885Y-194101380D01*
X101743361Y-194720428D02*
X100981457Y-194720428D01*
X100505266Y-195101380D02*
X100505266Y-194101380D01*
X100029076Y-195101380D02*
X100029076Y-194101380D01*
X99457647Y-195101380D01*
X99457647Y-194101380D01*
X98981457Y-194720428D02*
X98219552Y-194720428D01*
X97171933Y-195101380D02*
X97505266Y-194625190D01*
X97743361Y-195101380D02*
X97743361Y-194101380D01*
X97362409Y-194101380D01*
X97267171Y-194149000D01*
X97219552Y-194196619D01*
X97171933Y-194291857D01*
X97171933Y-194434714D01*
X97219552Y-194529952D01*
X97267171Y-194577571D01*
X97362409Y-194625190D01*
X97743361Y-194625190D01*
X96219552Y-195101380D02*
X96790980Y-195101380D01*
X96505266Y-195101380D02*
X96505266Y-194101380D01*
X96600504Y-194244238D01*
X96695742Y-194339476D01*
X96790980Y-194387095D01*
%TO.C,VUMASLR3*%
X287721485Y-118505180D02*
X287388152Y-119505180D01*
X287054819Y-118505180D01*
X286721485Y-118505180D02*
X286721485Y-119314704D01*
X286673866Y-119409942D01*
X286626247Y-119457561D01*
X286531009Y-119505180D01*
X286340533Y-119505180D01*
X286245295Y-119457561D01*
X286197676Y-119409942D01*
X286150057Y-119314704D01*
X286150057Y-118505180D01*
X285673866Y-119505180D02*
X285673866Y-118505180D01*
X285340533Y-119219466D01*
X285007200Y-118505180D01*
X285007200Y-119505180D01*
X284578628Y-119219466D02*
X284102438Y-119219466D01*
X284673866Y-119505180D02*
X284340533Y-118505180D01*
X284007200Y-119505180D01*
X283721485Y-119457561D02*
X283578628Y-119505180D01*
X283340533Y-119505180D01*
X283245295Y-119457561D01*
X283197676Y-119409942D01*
X283150057Y-119314704D01*
X283150057Y-119219466D01*
X283197676Y-119124228D01*
X283245295Y-119076609D01*
X283340533Y-119028990D01*
X283531009Y-118981371D01*
X283626247Y-118933752D01*
X283673866Y-118886133D01*
X283721485Y-118790895D01*
X283721485Y-118695657D01*
X283673866Y-118600419D01*
X283626247Y-118552800D01*
X283531009Y-118505180D01*
X283292914Y-118505180D01*
X283150057Y-118552800D01*
X282245295Y-119505180D02*
X282721485Y-119505180D01*
X282721485Y-118505180D01*
X281340533Y-119505180D02*
X281673866Y-119028990D01*
X281911961Y-119505180D02*
X281911961Y-118505180D01*
X281531009Y-118505180D01*
X281435771Y-118552800D01*
X281388152Y-118600419D01*
X281340533Y-118695657D01*
X281340533Y-118838514D01*
X281388152Y-118933752D01*
X281435771Y-118981371D01*
X281531009Y-119028990D01*
X281911961Y-119028990D01*
X281007200Y-118505180D02*
X280388152Y-118505180D01*
X280721485Y-118886133D01*
X280578628Y-118886133D01*
X280483390Y-118933752D01*
X280435771Y-118981371D01*
X280388152Y-119076609D01*
X280388152Y-119314704D01*
X280435771Y-119409942D01*
X280483390Y-119457561D01*
X280578628Y-119505180D01*
X280864342Y-119505180D01*
X280959580Y-119457561D01*
X281007200Y-119409942D01*
%TO.C,VUMASLR6*%
X287014285Y-98672380D02*
X286680952Y-99672380D01*
X286347619Y-98672380D01*
X286014285Y-98672380D02*
X286014285Y-99481904D01*
X285966666Y-99577142D01*
X285919047Y-99624761D01*
X285823809Y-99672380D01*
X285633333Y-99672380D01*
X285538095Y-99624761D01*
X285490476Y-99577142D01*
X285442857Y-99481904D01*
X285442857Y-98672380D01*
X284966666Y-99672380D02*
X284966666Y-98672380D01*
X284633333Y-99386666D01*
X284300000Y-98672380D01*
X284300000Y-99672380D01*
X283871428Y-99386666D02*
X283395238Y-99386666D01*
X283966666Y-99672380D02*
X283633333Y-98672380D01*
X283300000Y-99672380D01*
X283014285Y-99624761D02*
X282871428Y-99672380D01*
X282633333Y-99672380D01*
X282538095Y-99624761D01*
X282490476Y-99577142D01*
X282442857Y-99481904D01*
X282442857Y-99386666D01*
X282490476Y-99291428D01*
X282538095Y-99243809D01*
X282633333Y-99196190D01*
X282823809Y-99148571D01*
X282919047Y-99100952D01*
X282966666Y-99053333D01*
X283014285Y-98958095D01*
X283014285Y-98862857D01*
X282966666Y-98767619D01*
X282919047Y-98720000D01*
X282823809Y-98672380D01*
X282585714Y-98672380D01*
X282442857Y-98720000D01*
X281538095Y-99672380D02*
X282014285Y-99672380D01*
X282014285Y-98672380D01*
X280633333Y-99672380D02*
X280966666Y-99196190D01*
X281204761Y-99672380D02*
X281204761Y-98672380D01*
X280823809Y-98672380D01*
X280728571Y-98720000D01*
X280680952Y-98767619D01*
X280633333Y-98862857D01*
X280633333Y-99005714D01*
X280680952Y-99100952D01*
X280728571Y-99148571D01*
X280823809Y-99196190D01*
X281204761Y-99196190D01*
X279776190Y-98672380D02*
X279966666Y-98672380D01*
X280061904Y-98720000D01*
X280109523Y-98767619D01*
X280204761Y-98910476D01*
X280252380Y-99100952D01*
X280252380Y-99481904D01*
X280204761Y-99577142D01*
X280157142Y-99624761D01*
X280061904Y-99672380D01*
X279871428Y-99672380D01*
X279776190Y-99624761D01*
X279728571Y-99577142D01*
X279680952Y-99481904D01*
X279680952Y-99243809D01*
X279728571Y-99148571D01*
X279776190Y-99100952D01*
X279871428Y-99053333D01*
X280061904Y-99053333D01*
X280157142Y-99100952D01*
X280204761Y-99148571D01*
X280252380Y-99243809D01*
%TO.C,VUMASRR3*%
X308539523Y-120352380D02*
X308206190Y-121352380D01*
X307872857Y-120352380D01*
X307539523Y-120352380D02*
X307539523Y-121161904D01*
X307491904Y-121257142D01*
X307444285Y-121304761D01*
X307349047Y-121352380D01*
X307158571Y-121352380D01*
X307063333Y-121304761D01*
X307015714Y-121257142D01*
X306968095Y-121161904D01*
X306968095Y-120352380D01*
X306491904Y-121352380D02*
X306491904Y-120352380D01*
X306158571Y-121066666D01*
X305825238Y-120352380D01*
X305825238Y-121352380D01*
X305396666Y-121066666D02*
X304920476Y-121066666D01*
X305491904Y-121352380D02*
X305158571Y-120352380D01*
X304825238Y-121352380D01*
X304539523Y-121304761D02*
X304396666Y-121352380D01*
X304158571Y-121352380D01*
X304063333Y-121304761D01*
X304015714Y-121257142D01*
X303968095Y-121161904D01*
X303968095Y-121066666D01*
X304015714Y-120971428D01*
X304063333Y-120923809D01*
X304158571Y-120876190D01*
X304349047Y-120828571D01*
X304444285Y-120780952D01*
X304491904Y-120733333D01*
X304539523Y-120638095D01*
X304539523Y-120542857D01*
X304491904Y-120447619D01*
X304444285Y-120400000D01*
X304349047Y-120352380D01*
X304110952Y-120352380D01*
X303968095Y-120400000D01*
X302968095Y-121352380D02*
X303301428Y-120876190D01*
X303539523Y-121352380D02*
X303539523Y-120352380D01*
X303158571Y-120352380D01*
X303063333Y-120400000D01*
X303015714Y-120447619D01*
X302968095Y-120542857D01*
X302968095Y-120685714D01*
X303015714Y-120780952D01*
X303063333Y-120828571D01*
X303158571Y-120876190D01*
X303539523Y-120876190D01*
X301968095Y-121352380D02*
X302301428Y-120876190D01*
X302539523Y-121352380D02*
X302539523Y-120352380D01*
X302158571Y-120352380D01*
X302063333Y-120400000D01*
X302015714Y-120447619D01*
X301968095Y-120542857D01*
X301968095Y-120685714D01*
X302015714Y-120780952D01*
X302063333Y-120828571D01*
X302158571Y-120876190D01*
X302539523Y-120876190D01*
X301634761Y-120352380D02*
X301015714Y-120352380D01*
X301349047Y-120733333D01*
X301206190Y-120733333D01*
X301110952Y-120780952D01*
X301063333Y-120828571D01*
X301015714Y-120923809D01*
X301015714Y-121161904D01*
X301063333Y-121257142D01*
X301110952Y-121304761D01*
X301206190Y-121352380D01*
X301491904Y-121352380D01*
X301587142Y-121304761D01*
X301634761Y-121257142D01*
%TO.C,VUMASRR7*%
X308519523Y-96322380D02*
X308186190Y-97322380D01*
X307852857Y-96322380D01*
X307519523Y-96322380D02*
X307519523Y-97131904D01*
X307471904Y-97227142D01*
X307424285Y-97274761D01*
X307329047Y-97322380D01*
X307138571Y-97322380D01*
X307043333Y-97274761D01*
X306995714Y-97227142D01*
X306948095Y-97131904D01*
X306948095Y-96322380D01*
X306471904Y-97322380D02*
X306471904Y-96322380D01*
X306138571Y-97036666D01*
X305805238Y-96322380D01*
X305805238Y-97322380D01*
X305376666Y-97036666D02*
X304900476Y-97036666D01*
X305471904Y-97322380D02*
X305138571Y-96322380D01*
X304805238Y-97322380D01*
X304519523Y-97274761D02*
X304376666Y-97322380D01*
X304138571Y-97322380D01*
X304043333Y-97274761D01*
X303995714Y-97227142D01*
X303948095Y-97131904D01*
X303948095Y-97036666D01*
X303995714Y-96941428D01*
X304043333Y-96893809D01*
X304138571Y-96846190D01*
X304329047Y-96798571D01*
X304424285Y-96750952D01*
X304471904Y-96703333D01*
X304519523Y-96608095D01*
X304519523Y-96512857D01*
X304471904Y-96417619D01*
X304424285Y-96370000D01*
X304329047Y-96322380D01*
X304090952Y-96322380D01*
X303948095Y-96370000D01*
X302948095Y-97322380D02*
X303281428Y-96846190D01*
X303519523Y-97322380D02*
X303519523Y-96322380D01*
X303138571Y-96322380D01*
X303043333Y-96370000D01*
X302995714Y-96417619D01*
X302948095Y-96512857D01*
X302948095Y-96655714D01*
X302995714Y-96750952D01*
X303043333Y-96798571D01*
X303138571Y-96846190D01*
X303519523Y-96846190D01*
X301948095Y-97322380D02*
X302281428Y-96846190D01*
X302519523Y-97322380D02*
X302519523Y-96322380D01*
X302138571Y-96322380D01*
X302043333Y-96370000D01*
X301995714Y-96417619D01*
X301948095Y-96512857D01*
X301948095Y-96655714D01*
X301995714Y-96750952D01*
X302043333Y-96798571D01*
X302138571Y-96846190D01*
X302519523Y-96846190D01*
X301614761Y-96322380D02*
X300948095Y-96322380D01*
X301376666Y-97322380D01*
%TO.C,VUMASLR7*%
X287134285Y-92782380D02*
X286800952Y-93782380D01*
X286467619Y-92782380D01*
X286134285Y-92782380D02*
X286134285Y-93591904D01*
X286086666Y-93687142D01*
X286039047Y-93734761D01*
X285943809Y-93782380D01*
X285753333Y-93782380D01*
X285658095Y-93734761D01*
X285610476Y-93687142D01*
X285562857Y-93591904D01*
X285562857Y-92782380D01*
X285086666Y-93782380D02*
X285086666Y-92782380D01*
X284753333Y-93496666D01*
X284420000Y-92782380D01*
X284420000Y-93782380D01*
X283991428Y-93496666D02*
X283515238Y-93496666D01*
X284086666Y-93782380D02*
X283753333Y-92782380D01*
X283420000Y-93782380D01*
X283134285Y-93734761D02*
X282991428Y-93782380D01*
X282753333Y-93782380D01*
X282658095Y-93734761D01*
X282610476Y-93687142D01*
X282562857Y-93591904D01*
X282562857Y-93496666D01*
X282610476Y-93401428D01*
X282658095Y-93353809D01*
X282753333Y-93306190D01*
X282943809Y-93258571D01*
X283039047Y-93210952D01*
X283086666Y-93163333D01*
X283134285Y-93068095D01*
X283134285Y-92972857D01*
X283086666Y-92877619D01*
X283039047Y-92830000D01*
X282943809Y-92782380D01*
X282705714Y-92782380D01*
X282562857Y-92830000D01*
X281658095Y-93782380D02*
X282134285Y-93782380D01*
X282134285Y-92782380D01*
X280753333Y-93782380D02*
X281086666Y-93306190D01*
X281324761Y-93782380D02*
X281324761Y-92782380D01*
X280943809Y-92782380D01*
X280848571Y-92830000D01*
X280800952Y-92877619D01*
X280753333Y-92972857D01*
X280753333Y-93115714D01*
X280800952Y-93210952D01*
X280848571Y-93258571D01*
X280943809Y-93306190D01*
X281324761Y-93306190D01*
X280420000Y-92782380D02*
X279753333Y-92782380D01*
X280181904Y-93782380D01*
%TO.C,PADR-IN-R1*%
X339876666Y-200432380D02*
X339876666Y-199432380D01*
X339495714Y-199432380D01*
X339400476Y-199480000D01*
X339352857Y-199527619D01*
X339305238Y-199622857D01*
X339305238Y-199765714D01*
X339352857Y-199860952D01*
X339400476Y-199908571D01*
X339495714Y-199956190D01*
X339876666Y-199956190D01*
X338924285Y-200146666D02*
X338448095Y-200146666D01*
X339019523Y-200432380D02*
X338686190Y-199432380D01*
X338352857Y-200432380D01*
X338019523Y-200432380D02*
X338019523Y-199432380D01*
X337781428Y-199432380D01*
X337638571Y-199480000D01*
X337543333Y-199575238D01*
X337495714Y-199670476D01*
X337448095Y-199860952D01*
X337448095Y-200003809D01*
X337495714Y-200194285D01*
X337543333Y-200289523D01*
X337638571Y-200384761D01*
X337781428Y-200432380D01*
X338019523Y-200432380D01*
X336448095Y-200432380D02*
X336781428Y-199956190D01*
X337019523Y-200432380D02*
X337019523Y-199432380D01*
X336638571Y-199432380D01*
X336543333Y-199480000D01*
X336495714Y-199527619D01*
X336448095Y-199622857D01*
X336448095Y-199765714D01*
X336495714Y-199860952D01*
X336543333Y-199908571D01*
X336638571Y-199956190D01*
X337019523Y-199956190D01*
X336019523Y-200051428D02*
X335257619Y-200051428D01*
X334781428Y-200432380D02*
X334781428Y-199432380D01*
X334305238Y-200432380D02*
X334305238Y-199432380D01*
X333733809Y-200432380D01*
X333733809Y-199432380D01*
X333257619Y-200051428D02*
X332495714Y-200051428D01*
X331448095Y-200432380D02*
X331781428Y-199956190D01*
X332019523Y-200432380D02*
X332019523Y-199432380D01*
X331638571Y-199432380D01*
X331543333Y-199480000D01*
X331495714Y-199527619D01*
X331448095Y-199622857D01*
X331448095Y-199765714D01*
X331495714Y-199860952D01*
X331543333Y-199908571D01*
X331638571Y-199956190D01*
X332019523Y-199956190D01*
X330495714Y-200432380D02*
X331067142Y-200432380D01*
X330781428Y-200432380D02*
X330781428Y-199432380D01*
X330876666Y-199575238D01*
X330971904Y-199670476D01*
X331067142Y-199718095D01*
%TO.C,VUMASRR8*%
X308619523Y-90362380D02*
X308286190Y-91362380D01*
X307952857Y-90362380D01*
X307619523Y-90362380D02*
X307619523Y-91171904D01*
X307571904Y-91267142D01*
X307524285Y-91314761D01*
X307429047Y-91362380D01*
X307238571Y-91362380D01*
X307143333Y-91314761D01*
X307095714Y-91267142D01*
X307048095Y-91171904D01*
X307048095Y-90362380D01*
X306571904Y-91362380D02*
X306571904Y-90362380D01*
X306238571Y-91076666D01*
X305905238Y-90362380D01*
X305905238Y-91362380D01*
X305476666Y-91076666D02*
X305000476Y-91076666D01*
X305571904Y-91362380D02*
X305238571Y-90362380D01*
X304905238Y-91362380D01*
X304619523Y-91314761D02*
X304476666Y-91362380D01*
X304238571Y-91362380D01*
X304143333Y-91314761D01*
X304095714Y-91267142D01*
X304048095Y-91171904D01*
X304048095Y-91076666D01*
X304095714Y-90981428D01*
X304143333Y-90933809D01*
X304238571Y-90886190D01*
X304429047Y-90838571D01*
X304524285Y-90790952D01*
X304571904Y-90743333D01*
X304619523Y-90648095D01*
X304619523Y-90552857D01*
X304571904Y-90457619D01*
X304524285Y-90410000D01*
X304429047Y-90362380D01*
X304190952Y-90362380D01*
X304048095Y-90410000D01*
X303048095Y-91362380D02*
X303381428Y-90886190D01*
X303619523Y-91362380D02*
X303619523Y-90362380D01*
X303238571Y-90362380D01*
X303143333Y-90410000D01*
X303095714Y-90457619D01*
X303048095Y-90552857D01*
X303048095Y-90695714D01*
X303095714Y-90790952D01*
X303143333Y-90838571D01*
X303238571Y-90886190D01*
X303619523Y-90886190D01*
X302048095Y-91362380D02*
X302381428Y-90886190D01*
X302619523Y-91362380D02*
X302619523Y-90362380D01*
X302238571Y-90362380D01*
X302143333Y-90410000D01*
X302095714Y-90457619D01*
X302048095Y-90552857D01*
X302048095Y-90695714D01*
X302095714Y-90790952D01*
X302143333Y-90838571D01*
X302238571Y-90886190D01*
X302619523Y-90886190D01*
X301476666Y-90790952D02*
X301571904Y-90743333D01*
X301619523Y-90695714D01*
X301667142Y-90600476D01*
X301667142Y-90552857D01*
X301619523Y-90457619D01*
X301571904Y-90410000D01*
X301476666Y-90362380D01*
X301286190Y-90362380D01*
X301190952Y-90410000D01*
X301143333Y-90457619D01*
X301095714Y-90552857D01*
X301095714Y-90600476D01*
X301143333Y-90695714D01*
X301190952Y-90743333D01*
X301286190Y-90790952D01*
X301476666Y-90790952D01*
X301571904Y-90838571D01*
X301619523Y-90886190D01*
X301667142Y-90981428D01*
X301667142Y-91171904D01*
X301619523Y-91267142D01*
X301571904Y-91314761D01*
X301476666Y-91362380D01*
X301286190Y-91362380D01*
X301190952Y-91314761D01*
X301143333Y-91267142D01*
X301095714Y-91171904D01*
X301095714Y-90981428D01*
X301143333Y-90886190D01*
X301190952Y-90838571D01*
X301286190Y-90790952D01*
%TO.C,VUMASLR5*%
X287034285Y-104442380D02*
X286700952Y-105442380D01*
X286367619Y-104442380D01*
X286034285Y-104442380D02*
X286034285Y-105251904D01*
X285986666Y-105347142D01*
X285939047Y-105394761D01*
X285843809Y-105442380D01*
X285653333Y-105442380D01*
X285558095Y-105394761D01*
X285510476Y-105347142D01*
X285462857Y-105251904D01*
X285462857Y-104442380D01*
X284986666Y-105442380D02*
X284986666Y-104442380D01*
X284653333Y-105156666D01*
X284320000Y-104442380D01*
X284320000Y-105442380D01*
X283891428Y-105156666D02*
X283415238Y-105156666D01*
X283986666Y-105442380D02*
X283653333Y-104442380D01*
X283320000Y-105442380D01*
X283034285Y-105394761D02*
X282891428Y-105442380D01*
X282653333Y-105442380D01*
X282558095Y-105394761D01*
X282510476Y-105347142D01*
X282462857Y-105251904D01*
X282462857Y-105156666D01*
X282510476Y-105061428D01*
X282558095Y-105013809D01*
X282653333Y-104966190D01*
X282843809Y-104918571D01*
X282939047Y-104870952D01*
X282986666Y-104823333D01*
X283034285Y-104728095D01*
X283034285Y-104632857D01*
X282986666Y-104537619D01*
X282939047Y-104490000D01*
X282843809Y-104442380D01*
X282605714Y-104442380D01*
X282462857Y-104490000D01*
X281558095Y-105442380D02*
X282034285Y-105442380D01*
X282034285Y-104442380D01*
X280653333Y-105442380D02*
X280986666Y-104966190D01*
X281224761Y-105442380D02*
X281224761Y-104442380D01*
X280843809Y-104442380D01*
X280748571Y-104490000D01*
X280700952Y-104537619D01*
X280653333Y-104632857D01*
X280653333Y-104775714D01*
X280700952Y-104870952D01*
X280748571Y-104918571D01*
X280843809Y-104966190D01*
X281224761Y-104966190D01*
X279748571Y-104442380D02*
X280224761Y-104442380D01*
X280272380Y-104918571D01*
X280224761Y-104870952D01*
X280129523Y-104823333D01*
X279891428Y-104823333D01*
X279796190Y-104870952D01*
X279748571Y-104918571D01*
X279700952Y-105013809D01*
X279700952Y-105251904D01*
X279748571Y-105347142D01*
X279796190Y-105394761D01*
X279891428Y-105442380D01*
X280129523Y-105442380D01*
X280224761Y-105394761D01*
X280272380Y-105347142D01*
%TO.C,VUMASLR8*%
X287024285Y-87002380D02*
X286690952Y-88002380D01*
X286357619Y-87002380D01*
X286024285Y-87002380D02*
X286024285Y-87811904D01*
X285976666Y-87907142D01*
X285929047Y-87954761D01*
X285833809Y-88002380D01*
X285643333Y-88002380D01*
X285548095Y-87954761D01*
X285500476Y-87907142D01*
X285452857Y-87811904D01*
X285452857Y-87002380D01*
X284976666Y-88002380D02*
X284976666Y-87002380D01*
X284643333Y-87716666D01*
X284310000Y-87002380D01*
X284310000Y-88002380D01*
X283881428Y-87716666D02*
X283405238Y-87716666D01*
X283976666Y-88002380D02*
X283643333Y-87002380D01*
X283310000Y-88002380D01*
X283024285Y-87954761D02*
X282881428Y-88002380D01*
X282643333Y-88002380D01*
X282548095Y-87954761D01*
X282500476Y-87907142D01*
X282452857Y-87811904D01*
X282452857Y-87716666D01*
X282500476Y-87621428D01*
X282548095Y-87573809D01*
X282643333Y-87526190D01*
X282833809Y-87478571D01*
X282929047Y-87430952D01*
X282976666Y-87383333D01*
X283024285Y-87288095D01*
X283024285Y-87192857D01*
X282976666Y-87097619D01*
X282929047Y-87050000D01*
X282833809Y-87002380D01*
X282595714Y-87002380D01*
X282452857Y-87050000D01*
X281548095Y-88002380D02*
X282024285Y-88002380D01*
X282024285Y-87002380D01*
X280643333Y-88002380D02*
X280976666Y-87526190D01*
X281214761Y-88002380D02*
X281214761Y-87002380D01*
X280833809Y-87002380D01*
X280738571Y-87050000D01*
X280690952Y-87097619D01*
X280643333Y-87192857D01*
X280643333Y-87335714D01*
X280690952Y-87430952D01*
X280738571Y-87478571D01*
X280833809Y-87526190D01*
X281214761Y-87526190D01*
X280071904Y-87430952D02*
X280167142Y-87383333D01*
X280214761Y-87335714D01*
X280262380Y-87240476D01*
X280262380Y-87192857D01*
X280214761Y-87097619D01*
X280167142Y-87050000D01*
X280071904Y-87002380D01*
X279881428Y-87002380D01*
X279786190Y-87050000D01*
X279738571Y-87097619D01*
X279690952Y-87192857D01*
X279690952Y-87240476D01*
X279738571Y-87335714D01*
X279786190Y-87383333D01*
X279881428Y-87430952D01*
X280071904Y-87430952D01*
X280167142Y-87478571D01*
X280214761Y-87526190D01*
X280262380Y-87621428D01*
X280262380Y-87811904D01*
X280214761Y-87907142D01*
X280167142Y-87954761D01*
X280071904Y-88002380D01*
X279881428Y-88002380D01*
X279786190Y-87954761D01*
X279738571Y-87907142D01*
X279690952Y-87811904D01*
X279690952Y-87621428D01*
X279738571Y-87526190D01*
X279786190Y-87478571D01*
X279881428Y-87430952D01*
%TO.C,VUMASLR2*%
X287414285Y-122572380D02*
X287080952Y-123572380D01*
X286747619Y-122572380D01*
X286414285Y-122572380D02*
X286414285Y-123381904D01*
X286366666Y-123477142D01*
X286319047Y-123524761D01*
X286223809Y-123572380D01*
X286033333Y-123572380D01*
X285938095Y-123524761D01*
X285890476Y-123477142D01*
X285842857Y-123381904D01*
X285842857Y-122572380D01*
X285366666Y-123572380D02*
X285366666Y-122572380D01*
X285033333Y-123286666D01*
X284700000Y-122572380D01*
X284700000Y-123572380D01*
X284271428Y-123286666D02*
X283795238Y-123286666D01*
X284366666Y-123572380D02*
X284033333Y-122572380D01*
X283700000Y-123572380D01*
X283414285Y-123524761D02*
X283271428Y-123572380D01*
X283033333Y-123572380D01*
X282938095Y-123524761D01*
X282890476Y-123477142D01*
X282842857Y-123381904D01*
X282842857Y-123286666D01*
X282890476Y-123191428D01*
X282938095Y-123143809D01*
X283033333Y-123096190D01*
X283223809Y-123048571D01*
X283319047Y-123000952D01*
X283366666Y-122953333D01*
X283414285Y-122858095D01*
X283414285Y-122762857D01*
X283366666Y-122667619D01*
X283319047Y-122620000D01*
X283223809Y-122572380D01*
X282985714Y-122572380D01*
X282842857Y-122620000D01*
X281938095Y-123572380D02*
X282414285Y-123572380D01*
X282414285Y-122572380D01*
X281033333Y-123572380D02*
X281366666Y-123096190D01*
X281604761Y-123572380D02*
X281604761Y-122572380D01*
X281223809Y-122572380D01*
X281128571Y-122620000D01*
X281080952Y-122667619D01*
X281033333Y-122762857D01*
X281033333Y-122905714D01*
X281080952Y-123000952D01*
X281128571Y-123048571D01*
X281223809Y-123096190D01*
X281604761Y-123096190D01*
X280652380Y-122667619D02*
X280604761Y-122620000D01*
X280509523Y-122572380D01*
X280271428Y-122572380D01*
X280176190Y-122620000D01*
X280128571Y-122667619D01*
X280080952Y-122762857D01*
X280080952Y-122858095D01*
X280128571Y-123000952D01*
X280700000Y-123572380D01*
X280080952Y-123572380D01*
%TO.C,VUMASRR4*%
X308619523Y-114122380D02*
X308286190Y-115122380D01*
X307952857Y-114122380D01*
X307619523Y-114122380D02*
X307619523Y-114931904D01*
X307571904Y-115027142D01*
X307524285Y-115074761D01*
X307429047Y-115122380D01*
X307238571Y-115122380D01*
X307143333Y-115074761D01*
X307095714Y-115027142D01*
X307048095Y-114931904D01*
X307048095Y-114122380D01*
X306571904Y-115122380D02*
X306571904Y-114122380D01*
X306238571Y-114836666D01*
X305905238Y-114122380D01*
X305905238Y-115122380D01*
X305476666Y-114836666D02*
X305000476Y-114836666D01*
X305571904Y-115122380D02*
X305238571Y-114122380D01*
X304905238Y-115122380D01*
X304619523Y-115074761D02*
X304476666Y-115122380D01*
X304238571Y-115122380D01*
X304143333Y-115074761D01*
X304095714Y-115027142D01*
X304048095Y-114931904D01*
X304048095Y-114836666D01*
X304095714Y-114741428D01*
X304143333Y-114693809D01*
X304238571Y-114646190D01*
X304429047Y-114598571D01*
X304524285Y-114550952D01*
X304571904Y-114503333D01*
X304619523Y-114408095D01*
X304619523Y-114312857D01*
X304571904Y-114217619D01*
X304524285Y-114170000D01*
X304429047Y-114122380D01*
X304190952Y-114122380D01*
X304048095Y-114170000D01*
X303048095Y-115122380D02*
X303381428Y-114646190D01*
X303619523Y-115122380D02*
X303619523Y-114122380D01*
X303238571Y-114122380D01*
X303143333Y-114170000D01*
X303095714Y-114217619D01*
X303048095Y-114312857D01*
X303048095Y-114455714D01*
X303095714Y-114550952D01*
X303143333Y-114598571D01*
X303238571Y-114646190D01*
X303619523Y-114646190D01*
X302048095Y-115122380D02*
X302381428Y-114646190D01*
X302619523Y-115122380D02*
X302619523Y-114122380D01*
X302238571Y-114122380D01*
X302143333Y-114170000D01*
X302095714Y-114217619D01*
X302048095Y-114312857D01*
X302048095Y-114455714D01*
X302095714Y-114550952D01*
X302143333Y-114598571D01*
X302238571Y-114646190D01*
X302619523Y-114646190D01*
X301190952Y-114455714D02*
X301190952Y-115122380D01*
X301429047Y-114074761D02*
X301667142Y-114789047D01*
X301048095Y-114789047D01*
%TO.C,VUMASRR6*%
X308459523Y-102362380D02*
X308126190Y-103362380D01*
X307792857Y-102362380D01*
X307459523Y-102362380D02*
X307459523Y-103171904D01*
X307411904Y-103267142D01*
X307364285Y-103314761D01*
X307269047Y-103362380D01*
X307078571Y-103362380D01*
X306983333Y-103314761D01*
X306935714Y-103267142D01*
X306888095Y-103171904D01*
X306888095Y-102362380D01*
X306411904Y-103362380D02*
X306411904Y-102362380D01*
X306078571Y-103076666D01*
X305745238Y-102362380D01*
X305745238Y-103362380D01*
X305316666Y-103076666D02*
X304840476Y-103076666D01*
X305411904Y-103362380D02*
X305078571Y-102362380D01*
X304745238Y-103362380D01*
X304459523Y-103314761D02*
X304316666Y-103362380D01*
X304078571Y-103362380D01*
X303983333Y-103314761D01*
X303935714Y-103267142D01*
X303888095Y-103171904D01*
X303888095Y-103076666D01*
X303935714Y-102981428D01*
X303983333Y-102933809D01*
X304078571Y-102886190D01*
X304269047Y-102838571D01*
X304364285Y-102790952D01*
X304411904Y-102743333D01*
X304459523Y-102648095D01*
X304459523Y-102552857D01*
X304411904Y-102457619D01*
X304364285Y-102410000D01*
X304269047Y-102362380D01*
X304030952Y-102362380D01*
X303888095Y-102410000D01*
X302888095Y-103362380D02*
X303221428Y-102886190D01*
X303459523Y-103362380D02*
X303459523Y-102362380D01*
X303078571Y-102362380D01*
X302983333Y-102410000D01*
X302935714Y-102457619D01*
X302888095Y-102552857D01*
X302888095Y-102695714D01*
X302935714Y-102790952D01*
X302983333Y-102838571D01*
X303078571Y-102886190D01*
X303459523Y-102886190D01*
X301888095Y-103362380D02*
X302221428Y-102886190D01*
X302459523Y-103362380D02*
X302459523Y-102362380D01*
X302078571Y-102362380D01*
X301983333Y-102410000D01*
X301935714Y-102457619D01*
X301888095Y-102552857D01*
X301888095Y-102695714D01*
X301935714Y-102790952D01*
X301983333Y-102838571D01*
X302078571Y-102886190D01*
X302459523Y-102886190D01*
X301030952Y-102362380D02*
X301221428Y-102362380D01*
X301316666Y-102410000D01*
X301364285Y-102457619D01*
X301459523Y-102600476D01*
X301507142Y-102790952D01*
X301507142Y-103171904D01*
X301459523Y-103267142D01*
X301411904Y-103314761D01*
X301316666Y-103362380D01*
X301126190Y-103362380D01*
X301030952Y-103314761D01*
X300983333Y-103267142D01*
X300935714Y-103171904D01*
X300935714Y-102933809D01*
X300983333Y-102838571D01*
X301030952Y-102790952D01*
X301126190Y-102743333D01*
X301316666Y-102743333D01*
X301411904Y-102790952D01*
X301459523Y-102838571D01*
X301507142Y-102933809D01*
%TO.C,VUMASRR5*%
X308589523Y-108302380D02*
X308256190Y-109302380D01*
X307922857Y-108302380D01*
X307589523Y-108302380D02*
X307589523Y-109111904D01*
X307541904Y-109207142D01*
X307494285Y-109254761D01*
X307399047Y-109302380D01*
X307208571Y-109302380D01*
X307113333Y-109254761D01*
X307065714Y-109207142D01*
X307018095Y-109111904D01*
X307018095Y-108302380D01*
X306541904Y-109302380D02*
X306541904Y-108302380D01*
X306208571Y-109016666D01*
X305875238Y-108302380D01*
X305875238Y-109302380D01*
X305446666Y-109016666D02*
X304970476Y-109016666D01*
X305541904Y-109302380D02*
X305208571Y-108302380D01*
X304875238Y-109302380D01*
X304589523Y-109254761D02*
X304446666Y-109302380D01*
X304208571Y-109302380D01*
X304113333Y-109254761D01*
X304065714Y-109207142D01*
X304018095Y-109111904D01*
X304018095Y-109016666D01*
X304065714Y-108921428D01*
X304113333Y-108873809D01*
X304208571Y-108826190D01*
X304399047Y-108778571D01*
X304494285Y-108730952D01*
X304541904Y-108683333D01*
X304589523Y-108588095D01*
X304589523Y-108492857D01*
X304541904Y-108397619D01*
X304494285Y-108350000D01*
X304399047Y-108302380D01*
X304160952Y-108302380D01*
X304018095Y-108350000D01*
X303018095Y-109302380D02*
X303351428Y-108826190D01*
X303589523Y-109302380D02*
X303589523Y-108302380D01*
X303208571Y-108302380D01*
X303113333Y-108350000D01*
X303065714Y-108397619D01*
X303018095Y-108492857D01*
X303018095Y-108635714D01*
X303065714Y-108730952D01*
X303113333Y-108778571D01*
X303208571Y-108826190D01*
X303589523Y-108826190D01*
X302018095Y-109302380D02*
X302351428Y-108826190D01*
X302589523Y-109302380D02*
X302589523Y-108302380D01*
X302208571Y-108302380D01*
X302113333Y-108350000D01*
X302065714Y-108397619D01*
X302018095Y-108492857D01*
X302018095Y-108635714D01*
X302065714Y-108730952D01*
X302113333Y-108778571D01*
X302208571Y-108826190D01*
X302589523Y-108826190D01*
X301113333Y-108302380D02*
X301589523Y-108302380D01*
X301637142Y-108778571D01*
X301589523Y-108730952D01*
X301494285Y-108683333D01*
X301256190Y-108683333D01*
X301160952Y-108730952D01*
X301113333Y-108778571D01*
X301065714Y-108873809D01*
X301065714Y-109111904D01*
X301113333Y-109207142D01*
X301160952Y-109254761D01*
X301256190Y-109302380D01*
X301494285Y-109302380D01*
X301589523Y-109254761D01*
X301637142Y-109207142D01*
%TO.C,VUMASLR4*%
X287304285Y-110172380D02*
X286970952Y-111172380D01*
X286637619Y-110172380D01*
X286304285Y-110172380D02*
X286304285Y-110981904D01*
X286256666Y-111077142D01*
X286209047Y-111124761D01*
X286113809Y-111172380D01*
X285923333Y-111172380D01*
X285828095Y-111124761D01*
X285780476Y-111077142D01*
X285732857Y-110981904D01*
X285732857Y-110172380D01*
X285256666Y-111172380D02*
X285256666Y-110172380D01*
X284923333Y-110886666D01*
X284590000Y-110172380D01*
X284590000Y-111172380D01*
X284161428Y-110886666D02*
X283685238Y-110886666D01*
X284256666Y-111172380D02*
X283923333Y-110172380D01*
X283590000Y-111172380D01*
X283304285Y-111124761D02*
X283161428Y-111172380D01*
X282923333Y-111172380D01*
X282828095Y-111124761D01*
X282780476Y-111077142D01*
X282732857Y-110981904D01*
X282732857Y-110886666D01*
X282780476Y-110791428D01*
X282828095Y-110743809D01*
X282923333Y-110696190D01*
X283113809Y-110648571D01*
X283209047Y-110600952D01*
X283256666Y-110553333D01*
X283304285Y-110458095D01*
X283304285Y-110362857D01*
X283256666Y-110267619D01*
X283209047Y-110220000D01*
X283113809Y-110172380D01*
X282875714Y-110172380D01*
X282732857Y-110220000D01*
X281828095Y-111172380D02*
X282304285Y-111172380D01*
X282304285Y-110172380D01*
X280923333Y-111172380D02*
X281256666Y-110696190D01*
X281494761Y-111172380D02*
X281494761Y-110172380D01*
X281113809Y-110172380D01*
X281018571Y-110220000D01*
X280970952Y-110267619D01*
X280923333Y-110362857D01*
X280923333Y-110505714D01*
X280970952Y-110600952D01*
X281018571Y-110648571D01*
X281113809Y-110696190D01*
X281494761Y-110696190D01*
X280066190Y-110505714D02*
X280066190Y-111172380D01*
X280304285Y-110124761D02*
X280542380Y-110839047D01*
X279923333Y-110839047D01*
%TO.C,VUMASLR1*%
X287284285Y-128782380D02*
X286950952Y-129782380D01*
X286617619Y-128782380D01*
X286284285Y-128782380D02*
X286284285Y-129591904D01*
X286236666Y-129687142D01*
X286189047Y-129734761D01*
X286093809Y-129782380D01*
X285903333Y-129782380D01*
X285808095Y-129734761D01*
X285760476Y-129687142D01*
X285712857Y-129591904D01*
X285712857Y-128782380D01*
X285236666Y-129782380D02*
X285236666Y-128782380D01*
X284903333Y-129496666D01*
X284570000Y-128782380D01*
X284570000Y-129782380D01*
X284141428Y-129496666D02*
X283665238Y-129496666D01*
X284236666Y-129782380D02*
X283903333Y-128782380D01*
X283570000Y-129782380D01*
X283284285Y-129734761D02*
X283141428Y-129782380D01*
X282903333Y-129782380D01*
X282808095Y-129734761D01*
X282760476Y-129687142D01*
X282712857Y-129591904D01*
X282712857Y-129496666D01*
X282760476Y-129401428D01*
X282808095Y-129353809D01*
X282903333Y-129306190D01*
X283093809Y-129258571D01*
X283189047Y-129210952D01*
X283236666Y-129163333D01*
X283284285Y-129068095D01*
X283284285Y-128972857D01*
X283236666Y-128877619D01*
X283189047Y-128830000D01*
X283093809Y-128782380D01*
X282855714Y-128782380D01*
X282712857Y-128830000D01*
X281808095Y-129782380D02*
X282284285Y-129782380D01*
X282284285Y-128782380D01*
X280903333Y-129782380D02*
X281236666Y-129306190D01*
X281474761Y-129782380D02*
X281474761Y-128782380D01*
X281093809Y-128782380D01*
X280998571Y-128830000D01*
X280950952Y-128877619D01*
X280903333Y-128972857D01*
X280903333Y-129115714D01*
X280950952Y-129210952D01*
X280998571Y-129258571D01*
X281093809Y-129306190D01*
X281474761Y-129306190D01*
X279950952Y-129782380D02*
X280522380Y-129782380D01*
X280236666Y-129782380D02*
X280236666Y-128782380D01*
X280331904Y-128925238D01*
X280427142Y-129020476D01*
X280522380Y-129068095D01*
D14*
%TO.C,PADL-IN-R1*%
X101565664Y-197379000D02*
X100111536Y-197379000D01*
X101565664Y-195559000D02*
X100111536Y-195559000D01*
%TO.C,VUMASLR3*%
X284734264Y-121782800D02*
X283280136Y-121782800D01*
X284734264Y-119962800D02*
X283280136Y-119962800D01*
%TO.C,VUMASLR6*%
X284027064Y-100130000D02*
X282572936Y-100130000D01*
X284027064Y-101950000D02*
X282572936Y-101950000D01*
%TO.C,VUMASRR3*%
X304002936Y-119990000D02*
X305457064Y-119990000D01*
X304002936Y-118170000D02*
X305457064Y-118170000D01*
%TO.C,VUMASRR7*%
X303982936Y-94140000D02*
X305437064Y-94140000D01*
X303982936Y-95960000D02*
X305437064Y-95960000D01*
%TO.C,VUMASLR7*%
X284147064Y-96060000D02*
X282692936Y-96060000D01*
X284147064Y-94240000D02*
X282692936Y-94240000D01*
%TO.C,PADR-IN-R1*%
X334482936Y-197250000D02*
X335937064Y-197250000D01*
X334482936Y-199070000D02*
X335937064Y-199070000D01*
%TO.C,VUMASRR8*%
X304082936Y-88180000D02*
X305537064Y-88180000D01*
X304082936Y-90000000D02*
X305537064Y-90000000D01*
%TO.C,VUMASLR5*%
X284047064Y-107720000D02*
X282592936Y-107720000D01*
X284047064Y-105900000D02*
X282592936Y-105900000D01*
%TO.C,VUMASLR8*%
X284037064Y-88460000D02*
X282582936Y-88460000D01*
X284037064Y-90280000D02*
X282582936Y-90280000D01*
%TO.C,VUMASLR2*%
X284427064Y-124030000D02*
X282972936Y-124030000D01*
X284427064Y-125850000D02*
X282972936Y-125850000D01*
%TO.C,VUMASRR4*%
X304082936Y-113760000D02*
X305537064Y-113760000D01*
X304082936Y-111940000D02*
X305537064Y-111940000D01*
%TO.C,VUMASRR6*%
X303922936Y-102000000D02*
X305377064Y-102000000D01*
X303922936Y-100180000D02*
X305377064Y-100180000D01*
%TO.C,VUMASRR5*%
X304052936Y-106120000D02*
X305507064Y-106120000D01*
X304052936Y-107940000D02*
X305507064Y-107940000D01*
%TO.C,VUMASLR4*%
X284317064Y-113450000D02*
X282862936Y-113450000D01*
X284317064Y-111630000D02*
X282862936Y-111630000D01*
%TO.C,VUMASLR1*%
X284297064Y-132060000D02*
X282842936Y-132060000D01*
X284297064Y-130240000D02*
X282842936Y-130240000D01*
%TD*%
M02*
