M48
; DRILL file {KiCad 5.99.0-unknown-f88d39b4f0~125~ubuntu20.04.1} date Sun Apr  4 03:48:23 2021
; FORMAT={-:-/ absolute / inch / decimal}
; #@! TF.CreationDate,2021-04-04T03:48:23+02:00
; #@! TF.GenerationSoftware,Kicad,Pcbnew,5.99.0-unknown-f88d39b4f0~125~ubuntu20.04.1
; #@! TF.FileFunction,Plated,1,2,PTH
FMAT,2
INCH
; #@! TA.AperFunction,Plated,PTH,ViaDrill
T1C0.0250
; #@! TA.AperFunction,Plated,PTH,ComponentDrill
T2C0.0300
; #@! TA.AperFunction,Plated,PTH,ComponentDrill
T3C0.0354
; #@! TA.AperFunction,Plated,PTH,ComponentDrill
T4C0.0394
; #@! TA.AperFunction,Plated,PTH,ComponentDrill
T5C0.0400
; #@! TA.AperFunction,Plated,PTH,ComponentDrill
T6C0.0433
; #@! TA.AperFunction,Plated,PTH,ComponentDrill
T7C0.0591
; #@! TA.AperFunction,Plated,PTH,ComponentDrill
T8C0.1024
%
G90
G05
T1
X3.6189Y-7.0945
X3.6862Y-7.2303
X3.6862Y-8.1646
X3.6921Y-8.3559
X3.7303Y-7.0831
X3.7354Y-8.0705
X4.0295Y-7.0768
X4.0858Y-6.9913
X4.2079Y-7.1811
X4.2228Y-6.9898
X4.6638Y-7.3768
X4.6705Y-8.3649
X4.6764Y-7.2028
X4.6795Y-8.1894
X4.6949Y-7.0874
X4.7157Y-8.0799
X5.1657Y-8.2173
X5.2043Y-8.1606
X5.2831Y-8.6043
X5.3138Y-8.3724
X5.5717Y-4.2626
X5.6476Y-7.3717
X5.6508Y-8.1488
X5.6551Y-7.2051
X5.6697Y-8.3543
X5.6748Y-7.0945
X5.6906Y-8.072
X5.6988Y-10.7567
X5.8685Y-7.8457
X5.9831Y-11.485
X6.0657Y-7.7811
X6.0728Y-8.1295
X6.0752Y-7.6343
X6.1512Y-7.6268
X6.6193Y-3.1728
X6.6244Y-8.3492
X6.626Y-8.1559
X6.6374Y-7.1961
X6.6528Y-8.0618
X6.6583Y-7.085
X6.7681Y-10.452
X6.8555Y-10.0874
X6.8555Y-10.3362
X6.9469Y-9.8181
X6.9665Y-9.1807
X6.9752Y-8.5429
X7.0295Y-8.8441
X7.0386Y-9.8299
X7.0398Y-10.1858
X7.0941Y-8.0846
X7.1169Y-8.8402
X7.1512Y-8.6051
X7.1587Y-8.9764
X7.1697Y-8.7295
X7.1945Y-8.5429
X7.3626Y-9.5917
X7.3969Y-8.1335
X7.5114Y-8.8638
X7.5717Y-6.7583
X7.6425Y-7.2437
X7.6461Y-8.5677
X7.6555Y-6.9323
X7.6823Y-7.0831
X7.6949Y-6.9811
X7.7012Y-9.6346
X7.7984Y-8.7303
X7.8626Y-8.448
X7.8634Y-8.8579
X7.8634Y-8.9673
X7.9461Y-8.4429
X7.9461Y-8.9626
X7.9472Y-8.8512
X8.0374Y-8.4602
X8.0378Y-8.8461
X8.0398Y-8.9575
X8.0787Y-9.9362
X8.0953Y-8.3445
X8.1378Y-8.5051
X8.1378Y-8.726
X8.2024Y-8.8587
X8.2272Y-9.9374
X8.2598Y-8.4693
X8.2862Y-7.0291
X8.2988Y-9.5126
X8.3067Y-8.748
X8.4071Y-9.137
X8.4193Y-8.7299
X8.478Y-9.5126
X8.4811Y-8.9094
X8.5031Y-8.5039
X8.5039Y-8.7287
X8.5189Y-8.8295
X8.5283Y-9.8441
X8.572Y-8.9551
X8.6095Y-9.4118
X8.6115Y-9.4608
X8.6142Y-9.5976
X8.6173Y-9.7677
X8.6177Y-9.7079
X8.6189Y-9.8445
X8.6969Y-6.9874
X8.7083Y-6.828
X8.7106Y-7.1138
X8.8193Y-6.9866
X8.8331Y-9.5134
X8.837Y-7.0839
X8.8598Y-6.8819
X8.9535Y-7.2378
X8.9783Y-6.7508
X9.0106Y-9.7118
X9.0369Y-6.7402
X9.1394Y-6.4874
X9.1469Y-9.2988
X9.1591Y-9.6909
X9.1787Y-9.9882
X9.2472Y-10.363
X9.2579Y-9.5118
X9.2807Y-10.8386
X9.287Y-9.5602
X9.4555Y-10.1539
X9.5752Y-9.2921
X9.5807Y-10.4606
X9.622Y-9.9079
X9.6469Y-9.5882
X9.6988Y-9.6299
X9.7476Y-9.2744
X9.75Y-9.874
X9.7504Y-9.3331
X9.7776Y-8.2996
X9.7882Y-10.8576
X9.7887Y-9.9857
X9.7913Y-10.7768
X9.8051Y-10.2555
X9.8268Y-10.0165
X9.8622Y-6.9276
X9.8807Y-9.9866
X9.9232Y-10.9228
X9.9433Y-10.8685
X9.9528Y-10.6247
X9.9531Y-10.7055
X9.9783Y-9.8728
X10.035Y-10.6197
X10.0358Y-10.7469
X10.0406Y-6.7496
X10.0614Y-6.9346
X10.1488Y-10.8576
X10.1685Y-7.1906
X10.1921Y-6.9862
X10.2075Y-6.8571
X10.3728Y-6.9894
X10.4673Y-5.3307
X10.5638Y-5.9154
X10.5642Y-6.0768
X10.5791Y-6.7811
X10.6126Y-4.7386
X10.6232Y-6.0752
X10.65Y-5.9157
X10.9929Y-5.8377
X11.0024Y-8.0843
X11.0299Y-7.974
X11.126Y-7.9654
X11.1309Y-5.6167
X11.135Y-8.0256
X11.1366Y-5.4795
X11.1776Y-5.8421
X11.2843Y-9.9835
X11.335Y-5.3606
X11.3508Y-5.6772
X11.4295Y-5.561
X11.5425Y-5.6118
X11.5878Y-9.828
X11.661Y-9.7799
X11.7268Y-9.4803
X11.8243Y-5.4772
X11.8303Y-5.6551
X11.8339Y-9.5429
X11.8559Y-6.5846
X11.8618Y-5.4118
X11.9008Y-10.0693
X11.9563Y-10.0181
X11.9957Y-5.3
X12.0051Y-6.2717
X12.0374Y-5.6374
X12.0421Y-5.5535
X12.0543Y-5.3654
X12.0732Y-8.5701
X12.0764Y-9.4575
X12.0772Y-8.6677
X12.0772Y-9.3067
X12.0972Y-5.5134
X12.1035Y-5.9276
X12.1131Y-6.3087
X12.128Y-4.7681
X12.1287Y-4.6902
X12.1638Y-8.7587
X12.1677Y-6.263
X12.1693Y-8.9224
X12.1709Y-4.9602
X12.1712Y-9.4181
X12.1791Y-6.8043
X12.1811Y-6.3516
X12.1826Y-4.5488
X12.1854Y-5.5713
X12.187Y-5.4724
X12.2201Y-4.8122
X12.2362Y-5.9311
X12.2366Y-8.6697
X12.2366Y-8.7555
X12.248Y-9.4752
X12.2539Y-9.715
X12.2815Y-4.5724
X12.2815Y-4.685
X12.2902Y-4.9598
X12.3074Y-6.3441
X12.339Y-4.987
X12.3555Y-6.3004
X12.3626Y-6.3944
X12.363Y-8.6744
X12.3634Y-9.0406
X12.3635Y-9.2788
X12.3646Y-9.3594
X12.4461Y-6.2437
X12.4728Y-6.3642
X12.4776Y-8.6728
X12.478Y-8.9165
X12.5124Y-5.6648
X12.5134Y-5.8547
X12.522Y-10.852
X12.5244Y-6.4173
X12.548Y-4.3303
X12.55Y-4.1669
X12.5571Y-8.6744
X12.5583Y-8.5768
X12.5614Y-6.1717
X12.5902Y-6.4185
X12.5902Y-6.8035
X12.6008Y-5.2024
X12.6008Y-9.2169
X12.6008Y-9.2713
X12.6043Y-10.6402
X12.6118Y-9.7134
X12.613Y-5.5102
X12.6591Y-6.4185
X12.6646Y-8.6701
X12.6654Y-8.5524
X12.6665Y-5.2488
X12.7165Y-10.6398
X12.7272Y-5.7413
X12.7311Y-9.2713
X12.7315Y-8.665
X12.7319Y-6.4177
X12.8236Y-6.7122
X12.8252Y-6.4118
X12.8276Y-5.7382
X12.9035Y-9.402
X12.9067Y-6.4142
X12.9075Y-6.7079
X12.9787Y-6.415
X13.0042Y-6.7022
X13.0075Y-5.5492
X13.0319Y-10.8496
X13.0524Y-6.4161
X13.0547Y-6.7047
X13.0685Y-7.578
X13.0961Y-7.0701
X13.0984Y-8.0551
X13.1256Y-5.6063
X13.1264Y-5.7425
X13.1587Y-8.3335
X13.1783Y-5.3795
X13.1862Y-8.065
X13.1921Y-7.0626
X13.1969Y-7.3575
X13.2283Y-5.7528
X13.2665Y-7.5531
X13.3268Y-5.752
X13.4283Y-5.7524
X13.4291Y-5.5984
X13.5024Y-5.0701
X13.5454Y-7.3575
X13.5846Y-7.6717
X13.6811Y-5.7512
X13.6921Y-5.139
X13.7508Y-5.6823
X13.8398Y-7.0713
X14.1378Y-8.3366
X14.1398Y-7.1831
X14.1409Y-7.3769
X14.1413Y-8.1539
X14.165Y-4.8657
X14.1673Y-4.7508
X14.1689Y-8.0661
X14.1732Y-5.7118
X14.1866Y-7.0831
X14.2138Y-8.6268
X14.2244Y-4.8807
X14.2264Y-4.7732
X14.2291Y-5.7535
X14.2665Y-5.6598
X14.287Y-7.2303
X14.3354Y-6.0228
X14.3728Y-10.7398
X14.3795Y-6.2051
X14.3949Y-5.9791
X14.4039Y-9.2874
X14.4102Y-8.5043
X14.4495Y-5.5516
X14.487Y-6.0976
X14.487Y-6.2406
X14.4909Y-7.0236
X14.537Y-6.063
X14.537Y-6.2047
X14.5429Y-4.6909
X14.5445Y-5.3346
X14.55Y-10.7398
X14.5504Y-5.2453
X14.5791Y-6.4102
X14.6205Y-5.1039
X14.6283Y-5.0516
X14.6367Y-5.5603
X14.6406Y-5.4256
X14.6433Y-5.5118
X14.6665Y-8.5059
X14.6783Y-6.8386
X14.6803Y-5.7539
X14.6921Y-8.0504
X14.7122Y-5.0492
X14.7142Y-6.9276
X14.7165Y-6.0228
X14.7181Y-7.0571
X14.7193Y-6.4913
X14.7244Y-6.5858
X14.726Y-5.102
X14.7264Y-5.7154
X14.7287Y-5.9331
X14.8083Y-6.5827
X14.8236Y-6.7134
X14.8256Y-7.0571
X14.8283Y-8.048
X14.8929Y-6.4185
X14.9594Y-5.4055
X14.9752Y-5.6756
X15.1004Y-7.3618
X15.1024Y-5.6803
X15.1134Y-8.3417
X15.1193Y-7.1661
X15.1197Y-8.1524
X15.1417Y-8.0504
X15.1465Y-10.7406
X15.1555Y-7.0571
X15.2071Y-10.0634
X15.4346Y-5.4079
X15.5386Y-5.1748
X15.5846Y-7.1878
X15.6189Y-5.3287
X15.635Y-6.9992
X15.648Y-8.0413
X15.739Y-5.4071
X15.7972Y-5.6
X15.8098Y-7.0
X15.8394Y-5.3142
X15.887Y-9.413
X15.9681Y-8.5287
X15.9701Y-7.8768
X15.9906Y-6.8874
X16.0882Y-8.3512
X16.0937Y-8.1634
X16.1083Y-7.1594
X16.1504Y-7.0693
X16.1539Y-8.0591
X16.4079Y-6.3016
X16.4083Y-6.5795
T2
X5.123Y-9.163
X5.223Y-9.163
X5.323Y-9.163
X5.423Y-9.163
X14.516Y-9.14
X14.616Y-9.14
X14.716Y-9.14
X14.816Y-9.14
T3
X3.9557Y-11.2677
X3.971Y-12.415
X4.0557Y-11.2677
X4.071Y-12.415
X7.4644Y-9.9374
X7.5644Y-9.9374
X8.0755Y-6.1574
X8.0755Y-6.2574
X8.0755Y-6.3937
X8.0755Y-6.4937
X8.0755Y-6.6299
X8.0755Y-6.7299
X8.0755Y-6.8661
X8.0755Y-6.9661
X8.0755Y-7.1023
X8.0755Y-7.2023
X8.0755Y-7.3385
X8.0755Y-7.4385
X8.0755Y-7.5748
X8.0755Y-7.6748
X8.0755Y-7.811
X8.0755Y-7.911
X8.8494Y-9.9374
X8.9494Y-9.9374
X9.4511Y-6.1468
X9.4511Y-6.2468
X9.4511Y-6.383
X9.4511Y-6.483
X9.4511Y-6.6192
X9.4511Y-6.7192
X9.4511Y-6.8555
X9.4511Y-6.9555
X9.4511Y-7.0917
X9.4511Y-7.1917
X9.4511Y-7.3279
X9.4511Y-7.4279
X9.4511Y-7.5641
X9.4511Y-7.6641
X9.4511Y-7.8003
X9.4511Y-7.9003
X10.1791Y-9.9346
X10.2791Y-9.9346
X10.792Y-6.1468
X10.792Y-6.2468
X10.792Y-6.383
X10.792Y-6.483
X10.792Y-6.6192
X10.792Y-6.7192
X10.792Y-6.8555
X10.792Y-6.9555
X10.792Y-7.0917
X10.792Y-7.1917
X10.792Y-7.3279
X10.792Y-7.4279
X10.792Y-7.5641
X10.792Y-7.6641
X10.792Y-7.8003
X10.792Y-7.9003
X11.3331Y-3.407
X11.3331Y-3.507
X11.3331Y-3.6432
X11.3331Y-3.7432
X11.3331Y-3.8794
X11.3331Y-3.9794
X11.3331Y-4.1156
X11.3331Y-4.2156
X11.3331Y-4.3518
X11.3331Y-4.4518
X11.3331Y-4.5881
X11.3331Y-4.6881
X11.3331Y-4.8243
X11.3331Y-4.9243
X11.3331Y-5.0605
X11.3331Y-5.1605
X11.8079Y-3.407
X11.8079Y-3.507
X11.8079Y-3.6432
X11.8079Y-3.7432
X11.8079Y-3.8794
X11.8079Y-3.9794
X11.8079Y-4.1156
X11.8079Y-4.2156
X11.8079Y-4.3518
X11.8079Y-4.4518
X11.8079Y-4.5881
X11.8079Y-4.6881
X11.8079Y-4.8243
X11.8079Y-4.9243
X11.8079Y-5.0605
X11.8079Y-5.1605
X13.3252Y-12.4201
X13.3268Y-11.2547
X13.4252Y-12.4201
X13.4268Y-11.2547
T4
X3.6144Y-4.9774
X3.7128Y-4.9774
X3.8112Y-4.9774
X4.8675Y-4.9774
X4.966Y-4.9774
X5.0644Y-4.9774
X5.1479Y-2.7312
X5.1479Y-2.8296
X5.1479Y-2.9281
X5.7188Y-2.7312
X5.7188Y-2.9281
X6.0844Y-4.9774
X6.1559Y-10.437
X6.1571Y-13.2283
X6.1828Y-4.9774
X6.2559Y-10.437
X6.2812Y-4.9774
X6.3559Y-10.437
X6.3571Y-13.2283
X6.4559Y-10.437
X7.37Y-11.2378
X7.3743Y-13.3978
X7.4215Y-3.8159
X7.4215Y-5.1938
X7.4215Y-6.5718
X7.4215Y-7.9497
X7.4215Y-9.3277
X7.47Y-11.2378
X7.52Y-3.8159
X7.52Y-5.1938
X7.52Y-6.5718
X7.52Y-7.9497
X7.52Y-9.3277
X7.57Y-11.2378
X7.5743Y-13.3978
X7.6184Y-3.8159
X7.6184Y-5.1938
X7.6184Y-6.5718
X7.6184Y-7.9497
X7.6184Y-9.3277
X7.67Y-11.2378
X8.7365Y-11.2386
X8.7408Y-13.3986
X8.7995Y-3.8159
X8.7995Y-5.1938
X8.7995Y-6.5698
X8.7995Y-7.9497
X8.7995Y-9.3277
X8.8365Y-11.2386
X8.8979Y-3.8159
X8.8979Y-5.1938
X8.8979Y-6.5698
X8.8979Y-7.9497
X8.8979Y-9.3277
X8.9365Y-11.2386
X8.9408Y-13.3986
X8.9963Y-3.8159
X8.9963Y-5.1938
X8.9963Y-6.5698
X8.9963Y-7.9497
X8.9963Y-9.3277
X9.0365Y-11.2386
X10.0865Y-11.2378
X10.0908Y-13.3978
X10.1381Y-3.8159
X10.1381Y-5.1938
X10.1381Y-6.5698
X10.1381Y-7.9497
X10.1381Y-9.3277
X10.1865Y-11.2378
X10.2365Y-3.8159
X10.2365Y-5.1938
X10.2365Y-6.5698
X10.2365Y-7.9497
X10.2365Y-9.3277
X10.2865Y-11.2378
X10.2908Y-13.3978
X10.3349Y-3.8159
X10.3349Y-5.1938
X10.3349Y-6.5698
X10.3349Y-7.9497
X10.3349Y-9.3277
X10.3865Y-11.2378
X11.4748Y-11.6596
X11.4748Y-12.8407
X11.476Y-9.3334
X11.5732Y-11.6596
X11.5732Y-12.8407
X11.5744Y-9.3334
X11.6716Y-11.6596
X11.6716Y-12.8407
X11.6728Y-9.3334
X13.6075Y-4.9774
X13.706Y-4.9774
X13.8044Y-4.9774
X14.8575Y-4.9766
X14.956Y-4.9766
X15.0544Y-4.9766
X15.2454Y-2.7602
X15.2454Y-2.8586
X15.2454Y-2.9571
X15.6335Y-10.4528
X15.6346Y-13.2441
X15.7335Y-10.4528
X15.8163Y-2.7602
X15.8163Y-2.9571
X15.8335Y-10.4528
X15.8346Y-13.2441
X15.9335Y-10.4528
X16.1091Y-4.9766
X16.2075Y-4.9766
X16.306Y-4.9766
T5
X12.4278Y-3.2224
X12.4278Y-3.3224
X12.4278Y-3.4224
X12.4278Y-3.5224
X12.4278Y-3.6224
X12.4278Y-3.7224
X12.4278Y-3.8224
X12.4278Y-3.9224
X12.4278Y-4.1224
X12.4278Y-4.2224
X12.4278Y-4.3224
X12.4278Y-4.4224
X12.4278Y-4.5224
X12.4278Y-4.6224
X12.4278Y-4.7224
X12.4278Y-4.8224
X12.4278Y-5.0224
X12.4278Y-5.1224
X12.4278Y-5.2224
X12.4278Y-5.3224
X12.4278Y-5.4224
X12.4278Y-5.5224
X12.4278Y-5.6224
X12.4278Y-5.7224
X12.6278Y-5.8224
X12.6278Y-5.9224
X12.7278Y-5.8224
X12.7278Y-5.9224
X12.8278Y-5.8224
X12.8278Y-5.9224
X12.9278Y-5.8224
X12.9278Y-5.9224
X13.0278Y-5.8224
X13.0278Y-5.9224
X13.1278Y-5.8224
X13.1278Y-5.9224
X13.2278Y-5.8224
X13.2278Y-5.9224
X13.3278Y-5.8224
X13.3278Y-5.9224
X13.4278Y-5.8224
X13.4278Y-5.9224
X13.5278Y-5.8224
X13.5278Y-5.9224
X13.6278Y-5.8224
X13.6278Y-5.9224
X13.7278Y-5.8224
X13.7278Y-5.9224
X13.8278Y-5.8224
X13.8278Y-5.9224
X13.9278Y-5.8224
X13.9278Y-5.9224
X14.0278Y-5.8224
X14.0278Y-5.9224
X14.1278Y-5.8224
X14.1278Y-5.9224
X14.2278Y-5.8224
X14.2278Y-5.9224
X14.3278Y-2.8624
X14.3278Y-2.9624
X14.3278Y-3.0624
X14.3278Y-3.1624
X14.3278Y-3.2624
X14.3278Y-3.3624
X14.3278Y-3.4624
X14.3278Y-3.5624
X14.3278Y-3.6624
X14.3278Y-3.7624
X14.3278Y-3.9224
X14.3278Y-4.0224
X14.3278Y-4.1224
X14.3278Y-4.2224
X14.3278Y-4.3224
X14.3278Y-4.4224
X14.3278Y-4.5224
X14.3278Y-4.6224
X14.3278Y-4.8224
X14.3278Y-4.9224
X14.3278Y-5.0224
X14.3278Y-5.1224
X14.3278Y-5.2224
X14.3278Y-5.3224
X14.3278Y-5.4224
X14.3278Y-5.5224
X14.3278Y-5.8224
X14.3278Y-5.9224
T6
X3.5885Y-5.3137
X3.5885Y-5.4908
X3.8444Y-5.3137
X3.8444Y-5.4908
X3.8852Y-11.3838
X3.8852Y-11.561
X3.8951Y-12.5428
X3.8951Y-12.72
X4.1411Y-11.3838
X4.1411Y-11.561
X4.151Y-12.5428
X4.151Y-12.72
X4.8467Y-5.3037
X4.8467Y-5.4808
X4.9412Y-3.4989
X4.9412Y-3.6761
X5.1026Y-5.3037
X5.1026Y-5.4808
X5.1971Y-3.4989
X5.1971Y-3.6761
X5.2717Y-10.3071
X5.2717Y-10.4843
X5.2776Y-11.0276
X5.2776Y-11.2047
X5.2795Y-13.0748
X5.2795Y-13.252
X5.4924Y-3.4989
X5.4924Y-3.6761
X5.5276Y-10.3071
X5.5276Y-10.4843
X5.5335Y-11.0276
X5.5335Y-11.2047
X5.5354Y-13.0748
X5.5354Y-13.252
X5.7483Y-3.4989
X5.7483Y-3.6761
X6.0564Y-5.3077
X6.0564Y-5.4848
X6.3123Y-5.3077
X6.3123Y-5.4848
X7.392Y-10.1033
X7.392Y-10.2804
X7.3985Y-2.7603
X7.3985Y-2.9374
X7.6479Y-10.1033
X7.6479Y-10.2804
X7.6544Y-2.7603
X7.6544Y-2.9374
X8.7685Y-2.7603
X8.7685Y-2.9374
X8.77Y-10.1033
X8.77Y-10.2804
X9.0244Y-2.7603
X9.0244Y-2.9374
X9.0259Y-10.1033
X9.0259Y-10.2804
X10.0985Y-2.7603
X10.0985Y-2.9374
X10.1086Y-10.1033
X10.1086Y-10.2804
X10.3544Y-2.7603
X10.3544Y-2.9374
X10.3645Y-10.1033
X10.3645Y-10.2804
X13.252Y-11.3819
X13.252Y-11.5591
X13.2559Y-12.5453
X13.2559Y-12.7224
X13.5079Y-11.3819
X13.5079Y-11.5591
X13.5118Y-12.5453
X13.5118Y-12.7224
X13.5774Y-5.3089
X13.5774Y-5.486
X13.8333Y-5.3089
X13.8333Y-5.486
X14.7185Y-11.0197
X14.7185Y-11.1969
X14.7185Y-13.0787
X14.7185Y-13.2559
X14.7205Y-10.2717
X14.7205Y-10.4488
X14.8314Y-5.3093
X14.8314Y-5.4864
X14.9744Y-11.0197
X14.9744Y-11.1969
X14.9744Y-13.0787
X14.9744Y-13.2559
X14.9764Y-10.2717
X14.9764Y-10.4488
X15.0873Y-5.3093
X15.0873Y-5.4864
X15.0984Y-3.5173
X15.0984Y-3.6945
X15.3543Y-3.5173
X15.3543Y-3.6945
X15.6764Y-3.5185
X15.6764Y-3.6957
X15.9323Y-3.5185
X15.9323Y-3.6957
X16.0814Y-5.3019
X16.0814Y-5.479
X16.3373Y-5.3019
X16.3373Y-5.479
T7
X6.3059Y-10.811
X6.3059Y-12.7992
X7.52Y-11.6682
X7.52Y-12.9674
X8.8865Y-11.669
X8.8865Y-12.9682
X10.2365Y-11.6682
X10.2365Y-12.9674
X15.7835Y-10.8268
X15.7835Y-12.815
T8
X5.4432Y-2.6092
X5.4432Y-3.0501
X15.5407Y-2.6382
X15.5407Y-3.0791
T0
M30
