M48
; DRILL file {KiCad (5.99.0-9972-g9020611657)} date Sat Apr  3 00:57:04 2021
; FORMAT={-:-/ absolute / metric / decimal}
; #@! TF.CreationDate,2021-04-03T00:57:04+02:00
; #@! TF.GenerationSoftware,Kicad,Pcbnew,(5.99.0-9972-g9020611657)
; #@! TF.FileFunction,NonPlated,1,2,NPTH
FMAT,2
METRIC
; #@! TA.AperFunction,ComponentDrill,NonPlated,NPTH
T1C2.000
%
G90
G05
T1
; not plated pad hole
X89.905Y-119.427
X98.705Y-119.427
X121.735Y-119.427
X130.535Y-119.427
X152.643Y-119.427
X161.443Y-119.427
X186.607Y-89.923
X186.607Y-124.923
X186.607Y-159.923
X186.607Y-194.923
X186.607Y-229.923
X195.407Y-89.923
X195.407Y-124.923
X195.407Y-159.923
X195.407Y-194.923
X195.407Y-229.923
X221.607Y-89.923
X221.607Y-124.923
X221.607Y-159.873
X221.607Y-194.923
X221.607Y-229.923
X230.407Y-89.923
X230.407Y-124.923
X230.407Y-159.873
X230.407Y-194.923
X230.407Y-229.923
X255.607Y-89.923
X255.607Y-124.923
X255.607Y-159.873
X255.607Y-194.923
X255.607Y-229.923
X264.407Y-89.923
X264.407Y-124.923
X264.407Y-159.873
X264.407Y-194.923
X264.407Y-229.923
X289.559Y-289.154
X289.559Y-319.154
X289.589Y-230.069
X298.359Y-289.154
X298.359Y-319.154
X298.389Y-230.069
X343.731Y-119.427
X352.531Y-119.427
X375.481Y-119.405
X384.281Y-119.405
X407.271Y-119.405
X416.071Y-119.405
T0
M30
