M48
; DRILL file {KiCad 5.99.0-unknown-f88d39b4f0~125~ubuntu20.04.1} date Sun Apr  4 03:48:23 2021
; FORMAT={-:-/ absolute / inch / decimal}
; #@! TF.CreationDate,2021-04-04T03:48:23+02:00
; #@! TF.GenerationSoftware,Kicad,Pcbnew,5.99.0-unknown-f88d39b4f0~125~ubuntu20.04.1
; #@! TF.FileFunction,NonPlated,1,2,NPTH
FMAT,2
INCH
; #@! TA.AperFunction,NonPlated,NPTH,ComponentDrill
T1C0.0787
%
G90
G05
T1
X3.5396Y-4.7018
X3.886Y-4.7018
X4.7927Y-4.7018
X5.1392Y-4.7018
X6.0096Y-4.7018
X6.356Y-4.7018
X7.3467Y-3.5403
X7.3467Y-4.9182
X7.3467Y-6.2962
X7.3467Y-7.6741
X7.3467Y-9.0521
X7.6932Y-3.5403
X7.6932Y-4.9182
X7.6932Y-6.2962
X7.6932Y-7.6741
X7.6932Y-9.0521
X8.7247Y-3.5403
X8.7247Y-4.9182
X8.7247Y-6.2942
X8.7247Y-7.6741
X8.7247Y-9.0521
X9.0711Y-3.5403
X9.0711Y-4.9182
X9.0711Y-6.2942
X9.0711Y-7.6741
X9.0711Y-9.0521
X10.0633Y-3.5403
X10.0633Y-4.9182
X10.0633Y-6.2942
X10.0633Y-7.6741
X10.0633Y-9.0521
X10.4097Y-3.5403
X10.4097Y-4.9182
X10.4097Y-6.2942
X10.4097Y-7.6741
X10.4097Y-9.0521
X11.4Y-11.384
X11.4Y-12.5651
X11.4011Y-9.0578
X11.7464Y-11.384
X11.7464Y-12.5651
X11.7476Y-9.0578
X13.5327Y-4.7018
X13.8792Y-4.7018
X14.7827Y-4.701
X15.1292Y-4.701
X16.0343Y-4.701
X16.3808Y-4.701
T0
M30
