%TF.GenerationSoftware,KiCad,Pcbnew,5.99.0-unknown-f88d39b4f0~125~ubuntu20.04.1*%
%TF.CreationDate,2021-04-04T03:48:13+02:00*%
%TF.ProjectId,Traktorino,5472616b-746f-4726-996e-6f2e6b696361,rev?*%
%TF.SameCoordinates,Original*%
%TF.FileFunction,Profile,NP*%
%FSLAX46Y46*%
G04 Gerber Fmt 4.6, Leading zero omitted, Abs format (unit mm)*
G04 Created by KiCad (PCBNEW 5.99.0-unknown-f88d39b4f0~125~ubuntu20.04.1) date 2021-04-04 03:48:13*
%MOMM*%
%LPD*%
G01*
G04 APERTURE LIST*
%ADD10C,0.100000*%
%ADD11C,0.150000*%
%ADD12C,0.300000*%
%ADD13C,0.400000*%
%TA.AperFunction,Profile*%
%ADD14C,0.150000*%
%TD*%
G04 APERTURE END LIST*
D10*
D11*
X474004400Y-375989000D02*
X474004400Y-407989000D01*
X582004400Y-407989000D01*
X582004400Y-375989000D01*
X474004400Y-375989000D01*
D10*
D11*
X10000000Y-10000000D02*
X10000000Y-409989000D01*
X584004400Y-409989000D01*
X584004400Y-10000000D01*
X10000000Y-10000000D01*
D10*
D11*
X12000000Y-12000000D02*
X12000000Y-407989000D01*
X582004400Y-407989000D01*
X582004400Y-12000000D01*
X12000000Y-12000000D01*
D10*
D11*
X60000000Y-12000000D02*
X60000000Y-10000000D01*
D10*
D11*
X110000000Y-12000000D02*
X110000000Y-10000000D01*
D10*
D11*
X160000000Y-12000000D02*
X160000000Y-10000000D01*
D10*
D11*
X210000000Y-12000000D02*
X210000000Y-10000000D01*
D10*
D11*
X260000000Y-12000000D02*
X260000000Y-10000000D01*
D10*
D11*
X310000000Y-12000000D02*
X310000000Y-10000000D01*
D10*
D11*
X360000000Y-12000000D02*
X360000000Y-10000000D01*
D10*
D11*
X410000000Y-12000000D02*
X410000000Y-10000000D01*
D10*
D11*
X460000000Y-12000000D02*
X460000000Y-10000000D01*
D10*
D11*
X510000000Y-12000000D02*
X510000000Y-10000000D01*
D10*
D11*
X560000000Y-12000000D02*
X560000000Y-10000000D01*
D10*
D11*
X36065476Y-11588095D02*
X35322619Y-11588095D01*
X35694047Y-11588095D02*
X35694047Y-10288095D01*
X35570238Y-10473809D01*
X35446428Y-10597619D01*
X35322619Y-10659523D01*
D10*
D11*
X85322619Y-10411904D02*
X85384523Y-10350000D01*
X85508333Y-10288095D01*
X85817857Y-10288095D01*
X85941666Y-10350000D01*
X86003571Y-10411904D01*
X86065476Y-10535714D01*
X86065476Y-10659523D01*
X86003571Y-10845238D01*
X85260714Y-11588095D01*
X86065476Y-11588095D01*
D10*
D11*
X135260714Y-10288095D02*
X136065476Y-10288095D01*
X135632142Y-10783333D01*
X135817857Y-10783333D01*
X135941666Y-10845238D01*
X136003571Y-10907142D01*
X136065476Y-11030952D01*
X136065476Y-11340476D01*
X136003571Y-11464285D01*
X135941666Y-11526190D01*
X135817857Y-11588095D01*
X135446428Y-11588095D01*
X135322619Y-11526190D01*
X135260714Y-11464285D01*
D10*
D11*
X185941666Y-10721428D02*
X185941666Y-11588095D01*
X185632142Y-10226190D02*
X185322619Y-11154761D01*
X186127380Y-11154761D01*
D10*
D11*
X236003571Y-10288095D02*
X235384523Y-10288095D01*
X235322619Y-10907142D01*
X235384523Y-10845238D01*
X235508333Y-10783333D01*
X235817857Y-10783333D01*
X235941666Y-10845238D01*
X236003571Y-10907142D01*
X236065476Y-11030952D01*
X236065476Y-11340476D01*
X236003571Y-11464285D01*
X235941666Y-11526190D01*
X235817857Y-11588095D01*
X235508333Y-11588095D01*
X235384523Y-11526190D01*
X235322619Y-11464285D01*
D10*
D11*
X285941666Y-10288095D02*
X285694047Y-10288095D01*
X285570238Y-10350000D01*
X285508333Y-10411904D01*
X285384523Y-10597619D01*
X285322619Y-10845238D01*
X285322619Y-11340476D01*
X285384523Y-11464285D01*
X285446428Y-11526190D01*
X285570238Y-11588095D01*
X285817857Y-11588095D01*
X285941666Y-11526190D01*
X286003571Y-11464285D01*
X286065476Y-11340476D01*
X286065476Y-11030952D01*
X286003571Y-10907142D01*
X285941666Y-10845238D01*
X285817857Y-10783333D01*
X285570238Y-10783333D01*
X285446428Y-10845238D01*
X285384523Y-10907142D01*
X285322619Y-11030952D01*
D10*
D11*
X335260714Y-10288095D02*
X336127380Y-10288095D01*
X335570238Y-11588095D01*
D10*
D11*
X385570238Y-10845238D02*
X385446428Y-10783333D01*
X385384523Y-10721428D01*
X385322619Y-10597619D01*
X385322619Y-10535714D01*
X385384523Y-10411904D01*
X385446428Y-10350000D01*
X385570238Y-10288095D01*
X385817857Y-10288095D01*
X385941666Y-10350000D01*
X386003571Y-10411904D01*
X386065476Y-10535714D01*
X386065476Y-10597619D01*
X386003571Y-10721428D01*
X385941666Y-10783333D01*
X385817857Y-10845238D01*
X385570238Y-10845238D01*
X385446428Y-10907142D01*
X385384523Y-10969047D01*
X385322619Y-11092857D01*
X385322619Y-11340476D01*
X385384523Y-11464285D01*
X385446428Y-11526190D01*
X385570238Y-11588095D01*
X385817857Y-11588095D01*
X385941666Y-11526190D01*
X386003571Y-11464285D01*
X386065476Y-11340476D01*
X386065476Y-11092857D01*
X386003571Y-10969047D01*
X385941666Y-10907142D01*
X385817857Y-10845238D01*
D10*
D11*
X435446428Y-11588095D02*
X435694047Y-11588095D01*
X435817857Y-11526190D01*
X435879761Y-11464285D01*
X436003571Y-11278571D01*
X436065476Y-11030952D01*
X436065476Y-10535714D01*
X436003571Y-10411904D01*
X435941666Y-10350000D01*
X435817857Y-10288095D01*
X435570238Y-10288095D01*
X435446428Y-10350000D01*
X435384523Y-10411904D01*
X435322619Y-10535714D01*
X435322619Y-10845238D01*
X435384523Y-10969047D01*
X435446428Y-11030952D01*
X435570238Y-11092857D01*
X435817857Y-11092857D01*
X435941666Y-11030952D01*
X436003571Y-10969047D01*
X436065476Y-10845238D01*
D10*
D11*
X486065476Y-11588095D02*
X485322619Y-11588095D01*
X485694047Y-11588095D02*
X485694047Y-10288095D01*
X485570238Y-10473809D01*
X485446428Y-10597619D01*
X485322619Y-10659523D01*
X486870238Y-10288095D02*
X486994047Y-10288095D01*
X487117857Y-10350000D01*
X487179761Y-10411904D01*
X487241666Y-10535714D01*
X487303571Y-10783333D01*
X487303571Y-11092857D01*
X487241666Y-11340476D01*
X487179761Y-11464285D01*
X487117857Y-11526190D01*
X486994047Y-11588095D01*
X486870238Y-11588095D01*
X486746428Y-11526190D01*
X486684523Y-11464285D01*
X486622619Y-11340476D01*
X486560714Y-11092857D01*
X486560714Y-10783333D01*
X486622619Y-10535714D01*
X486684523Y-10411904D01*
X486746428Y-10350000D01*
X486870238Y-10288095D01*
D10*
D11*
X536065476Y-11588095D02*
X535322619Y-11588095D01*
X535694047Y-11588095D02*
X535694047Y-10288095D01*
X535570238Y-10473809D01*
X535446428Y-10597619D01*
X535322619Y-10659523D01*
X537303571Y-11588095D02*
X536560714Y-11588095D01*
X536932142Y-11588095D02*
X536932142Y-10288095D01*
X536808333Y-10473809D01*
X536684523Y-10597619D01*
X536560714Y-10659523D01*
D10*
D11*
X60000000Y-407989000D02*
X60000000Y-409989000D01*
D10*
D11*
X110000000Y-407989000D02*
X110000000Y-409989000D01*
D10*
D11*
X160000000Y-407989000D02*
X160000000Y-409989000D01*
D10*
D11*
X210000000Y-407989000D02*
X210000000Y-409989000D01*
D10*
D11*
X260000000Y-407989000D02*
X260000000Y-409989000D01*
D10*
D11*
X310000000Y-407989000D02*
X310000000Y-409989000D01*
D10*
D11*
X360000000Y-407989000D02*
X360000000Y-409989000D01*
D10*
D11*
X410000000Y-407989000D02*
X410000000Y-409989000D01*
D10*
D11*
X460000000Y-407989000D02*
X460000000Y-409989000D01*
D10*
D11*
X510000000Y-407989000D02*
X510000000Y-409989000D01*
D10*
D11*
X560000000Y-407989000D02*
X560000000Y-409989000D01*
D10*
D11*
X36065476Y-409577095D02*
X35322619Y-409577095D01*
X35694047Y-409577095D02*
X35694047Y-408277095D01*
X35570238Y-408462809D01*
X35446428Y-408586619D01*
X35322619Y-408648523D01*
D10*
D11*
X85322619Y-408400904D02*
X85384523Y-408339000D01*
X85508333Y-408277095D01*
X85817857Y-408277095D01*
X85941666Y-408339000D01*
X86003571Y-408400904D01*
X86065476Y-408524714D01*
X86065476Y-408648523D01*
X86003571Y-408834238D01*
X85260714Y-409577095D01*
X86065476Y-409577095D01*
D10*
D11*
X135260714Y-408277095D02*
X136065476Y-408277095D01*
X135632142Y-408772333D01*
X135817857Y-408772333D01*
X135941666Y-408834238D01*
X136003571Y-408896142D01*
X136065476Y-409019952D01*
X136065476Y-409329476D01*
X136003571Y-409453285D01*
X135941666Y-409515190D01*
X135817857Y-409577095D01*
X135446428Y-409577095D01*
X135322619Y-409515190D01*
X135260714Y-409453285D01*
D10*
D11*
X185941666Y-408710428D02*
X185941666Y-409577095D01*
X185632142Y-408215190D02*
X185322619Y-409143761D01*
X186127380Y-409143761D01*
D10*
D11*
X236003571Y-408277095D02*
X235384523Y-408277095D01*
X235322619Y-408896142D01*
X235384523Y-408834238D01*
X235508333Y-408772333D01*
X235817857Y-408772333D01*
X235941666Y-408834238D01*
X236003571Y-408896142D01*
X236065476Y-409019952D01*
X236065476Y-409329476D01*
X236003571Y-409453285D01*
X235941666Y-409515190D01*
X235817857Y-409577095D01*
X235508333Y-409577095D01*
X235384523Y-409515190D01*
X235322619Y-409453285D01*
D10*
D11*
X285941666Y-408277095D02*
X285694047Y-408277095D01*
X285570238Y-408339000D01*
X285508333Y-408400904D01*
X285384523Y-408586619D01*
X285322619Y-408834238D01*
X285322619Y-409329476D01*
X285384523Y-409453285D01*
X285446428Y-409515190D01*
X285570238Y-409577095D01*
X285817857Y-409577095D01*
X285941666Y-409515190D01*
X286003571Y-409453285D01*
X286065476Y-409329476D01*
X286065476Y-409019952D01*
X286003571Y-408896142D01*
X285941666Y-408834238D01*
X285817857Y-408772333D01*
X285570238Y-408772333D01*
X285446428Y-408834238D01*
X285384523Y-408896142D01*
X285322619Y-409019952D01*
D10*
D11*
X335260714Y-408277095D02*
X336127380Y-408277095D01*
X335570238Y-409577095D01*
D10*
D11*
X385570238Y-408834238D02*
X385446428Y-408772333D01*
X385384523Y-408710428D01*
X385322619Y-408586619D01*
X385322619Y-408524714D01*
X385384523Y-408400904D01*
X385446428Y-408339000D01*
X385570238Y-408277095D01*
X385817857Y-408277095D01*
X385941666Y-408339000D01*
X386003571Y-408400904D01*
X386065476Y-408524714D01*
X386065476Y-408586619D01*
X386003571Y-408710428D01*
X385941666Y-408772333D01*
X385817857Y-408834238D01*
X385570238Y-408834238D01*
X385446428Y-408896142D01*
X385384523Y-408958047D01*
X385322619Y-409081857D01*
X385322619Y-409329476D01*
X385384523Y-409453285D01*
X385446428Y-409515190D01*
X385570238Y-409577095D01*
X385817857Y-409577095D01*
X385941666Y-409515190D01*
X386003571Y-409453285D01*
X386065476Y-409329476D01*
X386065476Y-409081857D01*
X386003571Y-408958047D01*
X385941666Y-408896142D01*
X385817857Y-408834238D01*
D10*
D11*
X435446428Y-409577095D02*
X435694047Y-409577095D01*
X435817857Y-409515190D01*
X435879761Y-409453285D01*
X436003571Y-409267571D01*
X436065476Y-409019952D01*
X436065476Y-408524714D01*
X436003571Y-408400904D01*
X435941666Y-408339000D01*
X435817857Y-408277095D01*
X435570238Y-408277095D01*
X435446428Y-408339000D01*
X435384523Y-408400904D01*
X435322619Y-408524714D01*
X435322619Y-408834238D01*
X435384523Y-408958047D01*
X435446428Y-409019952D01*
X435570238Y-409081857D01*
X435817857Y-409081857D01*
X435941666Y-409019952D01*
X436003571Y-408958047D01*
X436065476Y-408834238D01*
D10*
D11*
X486065476Y-409577095D02*
X485322619Y-409577095D01*
X485694047Y-409577095D02*
X485694047Y-408277095D01*
X485570238Y-408462809D01*
X485446428Y-408586619D01*
X485322619Y-408648523D01*
X486870238Y-408277095D02*
X486994047Y-408277095D01*
X487117857Y-408339000D01*
X487179761Y-408400904D01*
X487241666Y-408524714D01*
X487303571Y-408772333D01*
X487303571Y-409081857D01*
X487241666Y-409329476D01*
X487179761Y-409453285D01*
X487117857Y-409515190D01*
X486994047Y-409577095D01*
X486870238Y-409577095D01*
X486746428Y-409515190D01*
X486684523Y-409453285D01*
X486622619Y-409329476D01*
X486560714Y-409081857D01*
X486560714Y-408772333D01*
X486622619Y-408524714D01*
X486684523Y-408400904D01*
X486746428Y-408339000D01*
X486870238Y-408277095D01*
D10*
D11*
X536065476Y-409577095D02*
X535322619Y-409577095D01*
X535694047Y-409577095D02*
X535694047Y-408277095D01*
X535570238Y-408462809D01*
X535446428Y-408586619D01*
X535322619Y-408648523D01*
X537303571Y-409577095D02*
X536560714Y-409577095D01*
X536932142Y-409577095D02*
X536932142Y-408277095D01*
X536808333Y-408462809D01*
X536684523Y-408586619D01*
X536560714Y-408648523D01*
D10*
D11*
X10000000Y-60000000D02*
X12000000Y-60000000D01*
D10*
D11*
X10000000Y-110000000D02*
X12000000Y-110000000D01*
D10*
D11*
X10000000Y-160000000D02*
X12000000Y-160000000D01*
D10*
D11*
X10000000Y-210000000D02*
X12000000Y-210000000D01*
D10*
D11*
X10000000Y-260000000D02*
X12000000Y-260000000D01*
D10*
D11*
X10000000Y-310000000D02*
X12000000Y-310000000D01*
D10*
D11*
X10000000Y-360000000D02*
X12000000Y-360000000D01*
D10*
D11*
X10690476Y-35216666D02*
X11309523Y-35216666D01*
X10566666Y-35588095D02*
X11000000Y-34288095D01*
X11433333Y-35588095D01*
D10*
D11*
X11092857Y-84907142D02*
X11278571Y-84969047D01*
X11340476Y-85030952D01*
X11402380Y-85154761D01*
X11402380Y-85340476D01*
X11340476Y-85464285D01*
X11278571Y-85526190D01*
X11154761Y-85588095D01*
X10659523Y-85588095D01*
X10659523Y-84288095D01*
X11092857Y-84288095D01*
X11216666Y-84350000D01*
X11278571Y-84411904D01*
X11340476Y-84535714D01*
X11340476Y-84659523D01*
X11278571Y-84783333D01*
X11216666Y-84845238D01*
X11092857Y-84907142D01*
X10659523Y-84907142D01*
D10*
D11*
X11402380Y-135464285D02*
X11340476Y-135526190D01*
X11154761Y-135588095D01*
X11030952Y-135588095D01*
X10845238Y-135526190D01*
X10721428Y-135402380D01*
X10659523Y-135278571D01*
X10597619Y-135030952D01*
X10597619Y-134845238D01*
X10659523Y-134597619D01*
X10721428Y-134473809D01*
X10845238Y-134350000D01*
X11030952Y-134288095D01*
X11154761Y-134288095D01*
X11340476Y-134350000D01*
X11402380Y-134411904D01*
D10*
D11*
X10659523Y-185588095D02*
X10659523Y-184288095D01*
X10969047Y-184288095D01*
X11154761Y-184350000D01*
X11278571Y-184473809D01*
X11340476Y-184597619D01*
X11402380Y-184845238D01*
X11402380Y-185030952D01*
X11340476Y-185278571D01*
X11278571Y-185402380D01*
X11154761Y-185526190D01*
X10969047Y-185588095D01*
X10659523Y-185588095D01*
D10*
D11*
X10721428Y-234907142D02*
X11154761Y-234907142D01*
X11340476Y-235588095D02*
X10721428Y-235588095D01*
X10721428Y-234288095D01*
X11340476Y-234288095D01*
D10*
D11*
X11185714Y-284907142D02*
X10752380Y-284907142D01*
X10752380Y-285588095D02*
X10752380Y-284288095D01*
X11371428Y-284288095D01*
D10*
D11*
X11340476Y-334350000D02*
X11216666Y-334288095D01*
X11030952Y-334288095D01*
X10845238Y-334350000D01*
X10721428Y-334473809D01*
X10659523Y-334597619D01*
X10597619Y-334845238D01*
X10597619Y-335030952D01*
X10659523Y-335278571D01*
X10721428Y-335402380D01*
X10845238Y-335526190D01*
X11030952Y-335588095D01*
X11154761Y-335588095D01*
X11340476Y-335526190D01*
X11402380Y-335464285D01*
X11402380Y-335030952D01*
X11154761Y-335030952D01*
D10*
D11*
X10628571Y-385588095D02*
X10628571Y-384288095D01*
X10628571Y-384907142D02*
X11371428Y-384907142D01*
X11371428Y-385588095D02*
X11371428Y-384288095D01*
D10*
D11*
X584004400Y-60000000D02*
X582004400Y-60000000D01*
D10*
D11*
X584004400Y-110000000D02*
X582004400Y-110000000D01*
D10*
D11*
X584004400Y-160000000D02*
X582004400Y-160000000D01*
D10*
D11*
X584004400Y-210000000D02*
X582004400Y-210000000D01*
D10*
D11*
X584004400Y-260000000D02*
X582004400Y-260000000D01*
D10*
D11*
X584004400Y-310000000D02*
X582004400Y-310000000D01*
D10*
D11*
X584004400Y-360000000D02*
X582004400Y-360000000D01*
D10*
D11*
X582694876Y-35216666D02*
X583313923Y-35216666D01*
X582571066Y-35588095D02*
X583004400Y-34288095D01*
X583437733Y-35588095D01*
D10*
D11*
X583097257Y-84907142D02*
X583282971Y-84969047D01*
X583344876Y-85030952D01*
X583406780Y-85154761D01*
X583406780Y-85340476D01*
X583344876Y-85464285D01*
X583282971Y-85526190D01*
X583159161Y-85588095D01*
X582663923Y-85588095D01*
X582663923Y-84288095D01*
X583097257Y-84288095D01*
X583221066Y-84350000D01*
X583282971Y-84411904D01*
X583344876Y-84535714D01*
X583344876Y-84659523D01*
X583282971Y-84783333D01*
X583221066Y-84845238D01*
X583097257Y-84907142D01*
X582663923Y-84907142D01*
D10*
D11*
X583406780Y-135464285D02*
X583344876Y-135526190D01*
X583159161Y-135588095D01*
X583035352Y-135588095D01*
X582849638Y-135526190D01*
X582725828Y-135402380D01*
X582663923Y-135278571D01*
X582602019Y-135030952D01*
X582602019Y-134845238D01*
X582663923Y-134597619D01*
X582725828Y-134473809D01*
X582849638Y-134350000D01*
X583035352Y-134288095D01*
X583159161Y-134288095D01*
X583344876Y-134350000D01*
X583406780Y-134411904D01*
D10*
D11*
X582663923Y-185588095D02*
X582663923Y-184288095D01*
X582973447Y-184288095D01*
X583159161Y-184350000D01*
X583282971Y-184473809D01*
X583344876Y-184597619D01*
X583406780Y-184845238D01*
X583406780Y-185030952D01*
X583344876Y-185278571D01*
X583282971Y-185402380D01*
X583159161Y-185526190D01*
X582973447Y-185588095D01*
X582663923Y-185588095D01*
D10*
D11*
X582725828Y-234907142D02*
X583159161Y-234907142D01*
X583344876Y-235588095D02*
X582725828Y-235588095D01*
X582725828Y-234288095D01*
X583344876Y-234288095D01*
D10*
D11*
X583190114Y-284907142D02*
X582756780Y-284907142D01*
X582756780Y-285588095D02*
X582756780Y-284288095D01*
X583375828Y-284288095D01*
D10*
D11*
X583344876Y-334350000D02*
X583221066Y-334288095D01*
X583035352Y-334288095D01*
X582849638Y-334350000D01*
X582725828Y-334473809D01*
X582663923Y-334597619D01*
X582602019Y-334845238D01*
X582602019Y-335030952D01*
X582663923Y-335278571D01*
X582725828Y-335402380D01*
X582849638Y-335526190D01*
X583035352Y-335588095D01*
X583159161Y-335588095D01*
X583344876Y-335526190D01*
X583406780Y-335464285D01*
X583406780Y-335030952D01*
X583159161Y-335030952D01*
D10*
D11*
X582632971Y-385588095D02*
X582632971Y-384288095D01*
X582632971Y-384907142D02*
X583375828Y-384907142D01*
X583375828Y-385588095D02*
X583375828Y-384288095D01*
D10*
D11*
X497436542Y-403767571D02*
X497436542Y-402267571D01*
X497793685Y-402267571D01*
X498007971Y-402339000D01*
X498150828Y-402481857D01*
X498222257Y-402624714D01*
X498293685Y-402910428D01*
X498293685Y-403124714D01*
X498222257Y-403410428D01*
X498150828Y-403553285D01*
X498007971Y-403696142D01*
X497793685Y-403767571D01*
X497436542Y-403767571D01*
X499579400Y-403767571D02*
X499579400Y-402981857D01*
X499507971Y-402839000D01*
X499365114Y-402767571D01*
X499079400Y-402767571D01*
X498936542Y-402839000D01*
X499579400Y-403696142D02*
X499436542Y-403767571D01*
X499079400Y-403767571D01*
X498936542Y-403696142D01*
X498865114Y-403553285D01*
X498865114Y-403410428D01*
X498936542Y-403267571D01*
X499079400Y-403196142D01*
X499436542Y-403196142D01*
X499579400Y-403124714D01*
X500079400Y-402767571D02*
X500650828Y-402767571D01*
X500293685Y-402267571D02*
X500293685Y-403553285D01*
X500365114Y-403696142D01*
X500507971Y-403767571D01*
X500650828Y-403767571D01*
X501722257Y-403696142D02*
X501579400Y-403767571D01*
X501293685Y-403767571D01*
X501150828Y-403696142D01*
X501079400Y-403553285D01*
X501079400Y-402981857D01*
X501150828Y-402839000D01*
X501293685Y-402767571D01*
X501579400Y-402767571D01*
X501722257Y-402839000D01*
X501793685Y-402981857D01*
X501793685Y-403124714D01*
X501079400Y-403267571D01*
X502436542Y-403624714D02*
X502507971Y-403696142D01*
X502436542Y-403767571D01*
X502365114Y-403696142D01*
X502436542Y-403624714D01*
X502436542Y-403767571D01*
X502436542Y-402839000D02*
X502507971Y-402910428D01*
X502436542Y-402981857D01*
X502365114Y-402910428D01*
X502436542Y-402839000D01*
X502436542Y-402981857D01*
D10*
D11*
X474004400Y-404489000D02*
X582004400Y-404489000D01*
D10*
D11*
X475436542Y-406567571D02*
X475436542Y-405067571D01*
X476293685Y-406567571D02*
X475650828Y-405710428D01*
X476293685Y-405067571D02*
X475436542Y-405924714D01*
X476936542Y-406567571D02*
X476936542Y-405567571D01*
X476936542Y-405067571D02*
X476865114Y-405139000D01*
X476936542Y-405210428D01*
X477007971Y-405139000D01*
X476936542Y-405067571D01*
X476936542Y-405210428D01*
X478507971Y-406424714D02*
X478436542Y-406496142D01*
X478222257Y-406567571D01*
X478079400Y-406567571D01*
X477865114Y-406496142D01*
X477722257Y-406353285D01*
X477650828Y-406210428D01*
X477579400Y-405924714D01*
X477579400Y-405710428D01*
X477650828Y-405424714D01*
X477722257Y-405281857D01*
X477865114Y-405139000D01*
X478079400Y-405067571D01*
X478222257Y-405067571D01*
X478436542Y-405139000D01*
X478507971Y-405210428D01*
X479793685Y-406567571D02*
X479793685Y-405781857D01*
X479722257Y-405639000D01*
X479579400Y-405567571D01*
X479293685Y-405567571D01*
X479150828Y-405639000D01*
X479793685Y-406496142D02*
X479650828Y-406567571D01*
X479293685Y-406567571D01*
X479150828Y-406496142D01*
X479079400Y-406353285D01*
X479079400Y-406210428D01*
X479150828Y-406067571D01*
X479293685Y-405996142D01*
X479650828Y-405996142D01*
X479793685Y-405924714D01*
X481150828Y-406567571D02*
X481150828Y-405067571D01*
X481150828Y-406496142D02*
X481007971Y-406567571D01*
X480722257Y-406567571D01*
X480579400Y-406496142D01*
X480507971Y-406424714D01*
X480436542Y-406281857D01*
X480436542Y-405853285D01*
X480507971Y-405710428D01*
X480579400Y-405639000D01*
X480722257Y-405567571D01*
X481007971Y-405567571D01*
X481150828Y-405639000D01*
X483007971Y-405781857D02*
X483507971Y-405781857D01*
X483722257Y-406567571D02*
X483007971Y-406567571D01*
X483007971Y-405067571D01*
X483722257Y-405067571D01*
X484365114Y-406424714D02*
X484436542Y-406496142D01*
X484365114Y-406567571D01*
X484293685Y-406496142D01*
X484365114Y-406424714D01*
X484365114Y-406567571D01*
X485079400Y-406567571D02*
X485079400Y-405067571D01*
X485436542Y-405067571D01*
X485650828Y-405139000D01*
X485793685Y-405281857D01*
X485865114Y-405424714D01*
X485936542Y-405710428D01*
X485936542Y-405924714D01*
X485865114Y-406210428D01*
X485793685Y-406353285D01*
X485650828Y-406496142D01*
X485436542Y-406567571D01*
X485079400Y-406567571D01*
X486579400Y-406424714D02*
X486650828Y-406496142D01*
X486579400Y-406567571D01*
X486507971Y-406496142D01*
X486579400Y-406424714D01*
X486579400Y-406567571D01*
X487222257Y-406139000D02*
X487936542Y-406139000D01*
X487079400Y-406567571D02*
X487579400Y-405067571D01*
X488079400Y-406567571D01*
X488579400Y-406424714D02*
X488650828Y-406496142D01*
X488579400Y-406567571D01*
X488507971Y-406496142D01*
X488579400Y-406424714D01*
X488579400Y-406567571D01*
X491579400Y-406567571D02*
X491579400Y-405067571D01*
X491722257Y-405996142D02*
X492150828Y-406567571D01*
X492150828Y-405567571D02*
X491579400Y-406139000D01*
X492793685Y-406567571D02*
X492793685Y-405567571D01*
X492793685Y-405067571D02*
X492722257Y-405139000D01*
X492793685Y-405210428D01*
X492865114Y-405139000D01*
X492793685Y-405067571D01*
X492793685Y-405210428D01*
X494150828Y-406496142D02*
X494007971Y-406567571D01*
X493722257Y-406567571D01*
X493579400Y-406496142D01*
X493507971Y-406424714D01*
X493436542Y-406281857D01*
X493436542Y-405853285D01*
X493507971Y-405710428D01*
X493579400Y-405639000D01*
X493722257Y-405567571D01*
X494007971Y-405567571D01*
X494150828Y-405639000D01*
X495436542Y-406567571D02*
X495436542Y-405781857D01*
X495365114Y-405639000D01*
X495222257Y-405567571D01*
X494936542Y-405567571D01*
X494793685Y-405639000D01*
X495436542Y-406496142D02*
X495293685Y-406567571D01*
X494936542Y-406567571D01*
X494793685Y-406496142D01*
X494722257Y-406353285D01*
X494722257Y-406210428D01*
X494793685Y-406067571D01*
X494936542Y-405996142D01*
X495293685Y-405996142D01*
X495436542Y-405924714D01*
X496793685Y-406567571D02*
X496793685Y-405067571D01*
X496793685Y-406496142D02*
X496650828Y-406567571D01*
X496365114Y-406567571D01*
X496222257Y-406496142D01*
X496150828Y-406424714D01*
X496079400Y-406281857D01*
X496079400Y-405853285D01*
X496150828Y-405710428D01*
X496222257Y-405639000D01*
X496365114Y-405567571D01*
X496650828Y-405567571D01*
X496793685Y-405639000D01*
X499365114Y-405067571D02*
X498650828Y-405067571D01*
X498579400Y-405781857D01*
X498650828Y-405710428D01*
X498793685Y-405639000D01*
X499150828Y-405639000D01*
X499293685Y-405710428D01*
X499365114Y-405781857D01*
X499436542Y-405924714D01*
X499436542Y-406281857D01*
X499365114Y-406424714D01*
X499293685Y-406496142D01*
X499150828Y-406567571D01*
X498793685Y-406567571D01*
X498650828Y-406496142D01*
X498579400Y-406424714D01*
X500079400Y-406424714D02*
X500150828Y-406496142D01*
X500079400Y-406567571D01*
X500007971Y-406496142D01*
X500079400Y-406424714D01*
X500079400Y-406567571D01*
X500865114Y-406567571D02*
X501150828Y-406567571D01*
X501293685Y-406496142D01*
X501365114Y-406424714D01*
X501507971Y-406210428D01*
X501579400Y-405924714D01*
X501579400Y-405353285D01*
X501507971Y-405210428D01*
X501436542Y-405139000D01*
X501293685Y-405067571D01*
X501007971Y-405067571D01*
X500865114Y-405139000D01*
X500793685Y-405210428D01*
X500722257Y-405353285D01*
X500722257Y-405710428D01*
X500793685Y-405853285D01*
X500865114Y-405924714D01*
X501007971Y-405996142D01*
X501293685Y-405996142D01*
X501436542Y-405924714D01*
X501507971Y-405853285D01*
X501579400Y-405710428D01*
X502293685Y-406567571D02*
X502579400Y-406567571D01*
X502722257Y-406496142D01*
X502793685Y-406424714D01*
X502936542Y-406210428D01*
X503007971Y-405924714D01*
X503007971Y-405353285D01*
X502936542Y-405210428D01*
X502865114Y-405139000D01*
X502722257Y-405067571D01*
X502436542Y-405067571D01*
X502293685Y-405139000D01*
X502222257Y-405210428D01*
X502150828Y-405353285D01*
X502150828Y-405710428D01*
X502222257Y-405853285D01*
X502293685Y-405924714D01*
X502436542Y-405996142D01*
X502722257Y-405996142D01*
X502865114Y-405924714D01*
X502936542Y-405853285D01*
X503007971Y-405710428D01*
X503650828Y-406424714D02*
X503722257Y-406496142D01*
X503650828Y-406567571D01*
X503579400Y-406496142D01*
X503650828Y-406424714D01*
X503650828Y-406567571D01*
X504650828Y-405067571D02*
X504793685Y-405067571D01*
X504936542Y-405139000D01*
X505007971Y-405210428D01*
X505079400Y-405353285D01*
X505150828Y-405639000D01*
X505150828Y-405996142D01*
X505079400Y-406281857D01*
X505007971Y-406424714D01*
X504936542Y-406496142D01*
X504793685Y-406567571D01*
X504650828Y-406567571D01*
X504507971Y-406496142D01*
X504436542Y-406424714D01*
X504365114Y-406281857D01*
X504293685Y-405996142D01*
X504293685Y-405639000D01*
X504365114Y-405353285D01*
X504436542Y-405210428D01*
X504507971Y-405139000D01*
X504650828Y-405067571D01*
X505793685Y-405996142D02*
X506936542Y-405996142D01*
X508293685Y-405567571D02*
X508293685Y-406567571D01*
X507650828Y-405567571D02*
X507650828Y-406353285D01*
X507722257Y-406496142D01*
X507865114Y-406567571D01*
X508079400Y-406567571D01*
X508222257Y-406496142D01*
X508293685Y-406424714D01*
X509007971Y-405567571D02*
X509007971Y-406567571D01*
X509007971Y-405710428D02*
X509079400Y-405639000D01*
X509222257Y-405567571D01*
X509436542Y-405567571D01*
X509579400Y-405639000D01*
X509650828Y-405781857D01*
X509650828Y-406567571D01*
X510365114Y-406567571D02*
X510365114Y-405067571D01*
X510507971Y-405996142D02*
X510936542Y-406567571D01*
X510936542Y-405567571D02*
X510365114Y-406139000D01*
X511579400Y-405567571D02*
X511579400Y-406567571D01*
X511579400Y-405710428D02*
X511650828Y-405639000D01*
X511793685Y-405567571D01*
X512007971Y-405567571D01*
X512150828Y-405639000D01*
X512222257Y-405781857D01*
X512222257Y-406567571D01*
X513150828Y-406567571D02*
X513007971Y-406496142D01*
X512936542Y-406424714D01*
X512865114Y-406281857D01*
X512865114Y-405853285D01*
X512936542Y-405710428D01*
X513007971Y-405639000D01*
X513150828Y-405567571D01*
X513365114Y-405567571D01*
X513507971Y-405639000D01*
X513579400Y-405710428D01*
X513650828Y-405853285D01*
X513650828Y-406281857D01*
X513579400Y-406424714D01*
X513507971Y-406496142D01*
X513365114Y-406567571D01*
X513150828Y-406567571D01*
X514150828Y-405567571D02*
X514436542Y-406567571D01*
X514722257Y-405853285D01*
X515007971Y-406567571D01*
X515293685Y-405567571D01*
X515865114Y-405567571D02*
X515865114Y-406567571D01*
X515865114Y-405710428D02*
X515936542Y-405639000D01*
X516079400Y-405567571D01*
X516293685Y-405567571D01*
X516436542Y-405639000D01*
X516507971Y-405781857D01*
X516507971Y-406567571D01*
X517222257Y-405996142D02*
X518365114Y-405996142D01*
X518865114Y-405567571D02*
X519436542Y-405567571D01*
X519079400Y-406567571D02*
X519079400Y-405281857D01*
X519150828Y-405139000D01*
X519293685Y-405067571D01*
X519436542Y-405067571D01*
X520150828Y-405710428D02*
X520007971Y-405639000D01*
X519936542Y-405567571D01*
X519865114Y-405424714D01*
X519865114Y-405353285D01*
X519936542Y-405210428D01*
X520007971Y-405139000D01*
X520150828Y-405067571D01*
X520436542Y-405067571D01*
X520579400Y-405139000D01*
X520650828Y-405210428D01*
X520722257Y-405353285D01*
X520722257Y-405424714D01*
X520650828Y-405567571D01*
X520579400Y-405639000D01*
X520436542Y-405710428D01*
X520150828Y-405710428D01*
X520007971Y-405781857D01*
X519936542Y-405853285D01*
X519865114Y-405996142D01*
X519865114Y-406281857D01*
X519936542Y-406424714D01*
X520007971Y-406496142D01*
X520150828Y-406567571D01*
X520436542Y-406567571D01*
X520579400Y-406496142D01*
X520650828Y-406424714D01*
X520722257Y-406281857D01*
X520722257Y-405996142D01*
X520650828Y-405853285D01*
X520579400Y-405781857D01*
X520436542Y-405710428D01*
X521579400Y-405710428D02*
X521436542Y-405639000D01*
X521365114Y-405567571D01*
X521293685Y-405424714D01*
X521293685Y-405353285D01*
X521365114Y-405210428D01*
X521436542Y-405139000D01*
X521579400Y-405067571D01*
X521865114Y-405067571D01*
X522007971Y-405139000D01*
X522079400Y-405210428D01*
X522150828Y-405353285D01*
X522150828Y-405424714D01*
X522079400Y-405567571D01*
X522007971Y-405639000D01*
X521865114Y-405710428D01*
X521579400Y-405710428D01*
X521436542Y-405781857D01*
X521365114Y-405853285D01*
X521293685Y-405996142D01*
X521293685Y-406281857D01*
X521365114Y-406424714D01*
X521436542Y-406496142D01*
X521579400Y-406567571D01*
X521865114Y-406567571D01*
X522007971Y-406496142D01*
X522079400Y-406424714D01*
X522150828Y-406281857D01*
X522150828Y-405996142D01*
X522079400Y-405853285D01*
X522007971Y-405781857D01*
X521865114Y-405710428D01*
X523436542Y-406567571D02*
X523436542Y-405067571D01*
X523436542Y-406496142D02*
X523293685Y-406567571D01*
X523007971Y-406567571D01*
X522865114Y-406496142D01*
X522793685Y-406424714D01*
X522722257Y-406281857D01*
X522722257Y-405853285D01*
X522793685Y-405710428D01*
X522865114Y-405639000D01*
X523007971Y-405567571D01*
X523293685Y-405567571D01*
X523436542Y-405639000D01*
X524007971Y-405067571D02*
X524936542Y-405067571D01*
X524436542Y-405639000D01*
X524650828Y-405639000D01*
X524793685Y-405710428D01*
X524865114Y-405781857D01*
X524936542Y-405924714D01*
X524936542Y-406281857D01*
X524865114Y-406424714D01*
X524793685Y-406496142D01*
X524650828Y-406567571D01*
X524222257Y-406567571D01*
X524079400Y-406496142D01*
X524007971Y-406424714D01*
X525650828Y-406567571D02*
X525936542Y-406567571D01*
X526079400Y-406496142D01*
X526150828Y-406424714D01*
X526293685Y-406210428D01*
X526365114Y-405924714D01*
X526365114Y-405353285D01*
X526293685Y-405210428D01*
X526222257Y-405139000D01*
X526079400Y-405067571D01*
X525793685Y-405067571D01*
X525650828Y-405139000D01*
X525579400Y-405210428D01*
X525507971Y-405353285D01*
X525507971Y-405710428D01*
X525579400Y-405853285D01*
X525650828Y-405924714D01*
X525793685Y-405996142D01*
X526079400Y-405996142D01*
X526222257Y-405924714D01*
X526293685Y-405853285D01*
X526365114Y-405710428D01*
X527007971Y-406567571D02*
X527007971Y-405067571D01*
X527007971Y-405639000D02*
X527150828Y-405567571D01*
X527436542Y-405567571D01*
X527579400Y-405639000D01*
X527650828Y-405710428D01*
X527722257Y-405853285D01*
X527722257Y-406281857D01*
X527650828Y-406424714D01*
X527579400Y-406496142D01*
X527436542Y-406567571D01*
X527150828Y-406567571D01*
X527007971Y-406496142D01*
X529007971Y-405567571D02*
X529007971Y-406567571D01*
X528650828Y-404996142D02*
X528293685Y-406067571D01*
X529222257Y-406067571D01*
X529579400Y-405567571D02*
X530150828Y-405567571D01*
X529793685Y-406567571D02*
X529793685Y-405281857D01*
X529865114Y-405139000D01*
X530007971Y-405067571D01*
X530150828Y-405067571D01*
X530936542Y-405067571D02*
X531079400Y-405067571D01*
X531222257Y-405139000D01*
X531293685Y-405210428D01*
X531365114Y-405353285D01*
X531436542Y-405639000D01*
X531436542Y-405996142D01*
X531365114Y-406281857D01*
X531293685Y-406424714D01*
X531222257Y-406496142D01*
X531079400Y-406567571D01*
X530936542Y-406567571D01*
X530793685Y-406496142D01*
X530722257Y-406424714D01*
X530650828Y-406281857D01*
X530579400Y-405996142D01*
X530579400Y-405639000D01*
X530650828Y-405353285D01*
X530722257Y-405210428D01*
X530793685Y-405139000D01*
X530936542Y-405067571D01*
X531722257Y-404644000D02*
X533150828Y-404644000D01*
X532865114Y-406567571D02*
X532007971Y-406567571D01*
X532436542Y-406567571D02*
X532436542Y-405067571D01*
X532293685Y-405281857D01*
X532150828Y-405424714D01*
X532007971Y-405496142D01*
X533150828Y-404644000D02*
X534579400Y-404644000D01*
X533436542Y-405210428D02*
X533507971Y-405139000D01*
X533650828Y-405067571D01*
X534007971Y-405067571D01*
X534150828Y-405139000D01*
X534222257Y-405210428D01*
X534293685Y-405353285D01*
X534293685Y-405496142D01*
X534222257Y-405710428D01*
X533365114Y-406567571D01*
X534293685Y-406567571D01*
X534579400Y-404644000D02*
X536007971Y-404644000D01*
X535650828Y-405067571D02*
X534936542Y-405067571D01*
X534865114Y-405781857D01*
X534936542Y-405710428D01*
X535079400Y-405639000D01*
X535436542Y-405639000D01*
X535579400Y-405710428D01*
X535650828Y-405781857D01*
X535722257Y-405924714D01*
X535722257Y-406281857D01*
X535650828Y-406424714D01*
X535579400Y-406496142D01*
X535436542Y-406567571D01*
X535079400Y-406567571D01*
X534936542Y-406496142D01*
X534865114Y-406424714D01*
X537007971Y-405567571D02*
X537007971Y-406567571D01*
X536365114Y-405567571D02*
X536365114Y-406353285D01*
X536436542Y-406496142D01*
X536579400Y-406567571D01*
X536793685Y-406567571D01*
X536936542Y-406496142D01*
X537007971Y-406424714D01*
X537722257Y-406567571D02*
X537722257Y-405067571D01*
X537722257Y-405639000D02*
X537865114Y-405567571D01*
X538150828Y-405567571D01*
X538293685Y-405639000D01*
X538365114Y-405710428D01*
X538436542Y-405853285D01*
X538436542Y-406281857D01*
X538365114Y-406424714D01*
X538293685Y-406496142D01*
X538150828Y-406567571D01*
X537865114Y-406567571D01*
X537722257Y-406496142D01*
X539722257Y-405567571D02*
X539722257Y-406567571D01*
X539079400Y-405567571D02*
X539079400Y-406353285D01*
X539150828Y-406496142D01*
X539293685Y-406567571D01*
X539507971Y-406567571D01*
X539650828Y-406496142D01*
X539722257Y-406424714D01*
X540436542Y-405567571D02*
X540436542Y-406567571D01*
X540436542Y-405710428D02*
X540507971Y-405639000D01*
X540650828Y-405567571D01*
X540865114Y-405567571D01*
X541007971Y-405639000D01*
X541079400Y-405781857D01*
X541079400Y-406567571D01*
X541579400Y-405567571D02*
X542150828Y-405567571D01*
X541793685Y-405067571D02*
X541793685Y-406353285D01*
X541865114Y-406496142D01*
X542007971Y-406567571D01*
X542150828Y-406567571D01*
X543293685Y-405567571D02*
X543293685Y-406567571D01*
X542650828Y-405567571D02*
X542650828Y-406353285D01*
X542722257Y-406496142D01*
X542865114Y-406567571D01*
X543079400Y-406567571D01*
X543222257Y-406496142D01*
X543293685Y-406424714D01*
X543936542Y-405210428D02*
X544007971Y-405139000D01*
X544150828Y-405067571D01*
X544507971Y-405067571D01*
X544650828Y-405139000D01*
X544722257Y-405210428D01*
X544793685Y-405353285D01*
X544793685Y-405496142D01*
X544722257Y-405710428D01*
X543865114Y-406567571D01*
X544793685Y-406567571D01*
X545722257Y-405067571D02*
X545865114Y-405067571D01*
X546007971Y-405139000D01*
X546079400Y-405210428D01*
X546150828Y-405353285D01*
X546222257Y-405639000D01*
X546222257Y-405996142D01*
X546150828Y-406281857D01*
X546079400Y-406424714D01*
X546007971Y-406496142D01*
X545865114Y-406567571D01*
X545722257Y-406567571D01*
X545579400Y-406496142D01*
X545507971Y-406424714D01*
X545436542Y-406281857D01*
X545365114Y-405996142D01*
X545365114Y-405639000D01*
X545436542Y-405353285D01*
X545507971Y-405210428D01*
X545579400Y-405139000D01*
X545722257Y-405067571D01*
X546865114Y-406424714D02*
X546936542Y-406496142D01*
X546865114Y-406567571D01*
X546793685Y-406496142D01*
X546865114Y-406424714D01*
X546865114Y-406567571D01*
X547865114Y-405067571D02*
X548007971Y-405067571D01*
X548150828Y-405139000D01*
X548222257Y-405210428D01*
X548293685Y-405353285D01*
X548365114Y-405639000D01*
X548365114Y-405996142D01*
X548293685Y-406281857D01*
X548222257Y-406424714D01*
X548150828Y-406496142D01*
X548007971Y-406567571D01*
X547865114Y-406567571D01*
X547722257Y-406496142D01*
X547650828Y-406424714D01*
X547579400Y-406281857D01*
X547507971Y-405996142D01*
X547507971Y-405639000D01*
X547579400Y-405353285D01*
X547650828Y-405210428D01*
X547722257Y-405139000D01*
X547865114Y-405067571D01*
X549650828Y-405567571D02*
X549650828Y-406567571D01*
X549293685Y-404996142D02*
X548936542Y-406067571D01*
X549865114Y-406067571D01*
X550436542Y-406424714D02*
X550507971Y-406496142D01*
X550436542Y-406567571D01*
X550365114Y-406496142D01*
X550436542Y-406424714D01*
X550436542Y-406567571D01*
X551936542Y-406567571D02*
X551079400Y-406567571D01*
X551507971Y-406567571D02*
X551507971Y-405067571D01*
X551365114Y-405281857D01*
X551222257Y-405424714D01*
X551079400Y-405496142D01*
D10*
D11*
X474004400Y-401489000D02*
X582004400Y-401489000D01*
D10*
D12*
X561413685Y-403767571D02*
X560913685Y-403053285D01*
X560556542Y-403767571D02*
X560556542Y-402267571D01*
X561127971Y-402267571D01*
X561270828Y-402339000D01*
X561342257Y-402410428D01*
X561413685Y-402553285D01*
X561413685Y-402767571D01*
X561342257Y-402910428D01*
X561270828Y-402981857D01*
X561127971Y-403053285D01*
X560556542Y-403053285D01*
X562627971Y-403696142D02*
X562485114Y-403767571D01*
X562199400Y-403767571D01*
X562056542Y-403696142D01*
X561985114Y-403553285D01*
X561985114Y-402981857D01*
X562056542Y-402839000D01*
X562199400Y-402767571D01*
X562485114Y-402767571D01*
X562627971Y-402839000D01*
X562699400Y-402981857D01*
X562699400Y-403124714D01*
X561985114Y-403267571D01*
X563199400Y-402767571D02*
X563556542Y-403767571D01*
X563913685Y-402767571D01*
X564485114Y-403624714D02*
X564556542Y-403696142D01*
X564485114Y-403767571D01*
X564413685Y-403696142D01*
X564485114Y-403624714D01*
X564485114Y-403767571D01*
X564485114Y-402839000D02*
X564556542Y-402910428D01*
X564485114Y-402981857D01*
X564413685Y-402910428D01*
X564485114Y-402839000D01*
X564485114Y-402981857D01*
D10*
D11*
X475365114Y-403696142D02*
X475579400Y-403767571D01*
X475936542Y-403767571D01*
X476079400Y-403696142D01*
X476150828Y-403624714D01*
X476222257Y-403481857D01*
X476222257Y-403339000D01*
X476150828Y-403196142D01*
X476079400Y-403124714D01*
X475936542Y-403053285D01*
X475650828Y-402981857D01*
X475507971Y-402910428D01*
X475436542Y-402839000D01*
X475365114Y-402696142D01*
X475365114Y-402553285D01*
X475436542Y-402410428D01*
X475507971Y-402339000D01*
X475650828Y-402267571D01*
X476007971Y-402267571D01*
X476222257Y-402339000D01*
X476865114Y-403767571D02*
X476865114Y-402767571D01*
X476865114Y-402267571D02*
X476793685Y-402339000D01*
X476865114Y-402410428D01*
X476936542Y-402339000D01*
X476865114Y-402267571D01*
X476865114Y-402410428D01*
X477436542Y-402767571D02*
X478222257Y-402767571D01*
X477436542Y-403767571D01*
X478222257Y-403767571D01*
X479365114Y-403696142D02*
X479222257Y-403767571D01*
X478936542Y-403767571D01*
X478793685Y-403696142D01*
X478722257Y-403553285D01*
X478722257Y-402981857D01*
X478793685Y-402839000D01*
X478936542Y-402767571D01*
X479222257Y-402767571D01*
X479365114Y-402839000D01*
X479436542Y-402981857D01*
X479436542Y-403124714D01*
X478722257Y-403267571D01*
X480079400Y-403624714D02*
X480150828Y-403696142D01*
X480079400Y-403767571D01*
X480007971Y-403696142D01*
X480079400Y-403624714D01*
X480079400Y-403767571D01*
X480079400Y-402839000D02*
X480150828Y-402910428D01*
X480079400Y-402981857D01*
X480007971Y-402910428D01*
X480079400Y-402839000D01*
X480079400Y-402981857D01*
X481865114Y-403339000D02*
X482579400Y-403339000D01*
X481722257Y-403767571D02*
X482222257Y-402267571D01*
X482722257Y-403767571D01*
X483150828Y-402410428D02*
X483222257Y-402339000D01*
X483365114Y-402267571D01*
X483722257Y-402267571D01*
X483865114Y-402339000D01*
X483936542Y-402410428D01*
X484007971Y-402553285D01*
X484007971Y-402696142D01*
X483936542Y-402910428D01*
X483079400Y-403767571D01*
X484007971Y-403767571D01*
D10*
D11*
X560436542Y-406567571D02*
X560436542Y-405067571D01*
X561793685Y-406567571D02*
X561793685Y-405067571D01*
X561793685Y-406496142D02*
X561650828Y-406567571D01*
X561365114Y-406567571D01*
X561222257Y-406496142D01*
X561150828Y-406424714D01*
X561079400Y-406281857D01*
X561079400Y-405853285D01*
X561150828Y-405710428D01*
X561222257Y-405639000D01*
X561365114Y-405567571D01*
X561650828Y-405567571D01*
X561793685Y-405639000D01*
X562507971Y-406424714D02*
X562579400Y-406496142D01*
X562507971Y-406567571D01*
X562436542Y-406496142D01*
X562507971Y-406424714D01*
X562507971Y-406567571D01*
X562507971Y-405639000D02*
X562579400Y-405710428D01*
X562507971Y-405781857D01*
X562436542Y-405710428D01*
X562507971Y-405639000D01*
X562507971Y-405781857D01*
X565150828Y-406567571D02*
X564293685Y-406567571D01*
X564722257Y-406567571D02*
X564722257Y-405067571D01*
X564579400Y-405281857D01*
X564436542Y-405424714D01*
X564293685Y-405496142D01*
X566865114Y-404996142D02*
X565579400Y-406924714D01*
X568150828Y-406567571D02*
X567293685Y-406567571D01*
X567722257Y-406567571D02*
X567722257Y-405067571D01*
X567579400Y-405281857D01*
X567436542Y-405424714D01*
X567293685Y-405496142D01*
D10*
D11*
X474004400Y-397489000D02*
X582004400Y-397489000D01*
D10*
D13*
X475716780Y-398193761D02*
X476859638Y-398193761D01*
X476038209Y-400193761D02*
X476288209Y-398193761D01*
X477276304Y-400193761D02*
X477442971Y-398860428D01*
X477526304Y-398193761D02*
X477419161Y-398289000D01*
X477502495Y-398384238D01*
X477609638Y-398289000D01*
X477526304Y-398193761D01*
X477502495Y-398384238D01*
X478109638Y-398860428D02*
X478871542Y-398860428D01*
X478478685Y-398193761D02*
X478264400Y-399908047D01*
X478335828Y-400098523D01*
X478514400Y-400193761D01*
X478704876Y-400193761D01*
X479657257Y-400193761D02*
X479478685Y-400098523D01*
X479407257Y-399908047D01*
X479621542Y-398193761D01*
X481192971Y-400098523D02*
X480990590Y-400193761D01*
X480609638Y-400193761D01*
X480431066Y-400098523D01*
X480359638Y-399908047D01*
X480454876Y-399146142D01*
X480573923Y-398955666D01*
X480776304Y-398860428D01*
X481157257Y-398860428D01*
X481335828Y-398955666D01*
X481407257Y-399146142D01*
X481383447Y-399336619D01*
X480407257Y-399527095D01*
X482157257Y-400003285D02*
X482240590Y-400098523D01*
X482133447Y-400193761D01*
X482050114Y-400098523D01*
X482157257Y-400003285D01*
X482133447Y-400193761D01*
X482288209Y-398955666D02*
X482371542Y-399050904D01*
X482264400Y-399146142D01*
X482181066Y-399050904D01*
X482288209Y-398955666D01*
X482264400Y-399146142D01*
D10*
D11*
X475936542Y-395581857D02*
X475436542Y-395581857D01*
X475436542Y-396367571D02*
X475436542Y-394867571D01*
X476150828Y-394867571D01*
X476722257Y-396367571D02*
X476722257Y-395367571D01*
X476722257Y-394867571D02*
X476650828Y-394939000D01*
X476722257Y-395010428D01*
X476793685Y-394939000D01*
X476722257Y-394867571D01*
X476722257Y-395010428D01*
X477650828Y-396367571D02*
X477507971Y-396296142D01*
X477436542Y-396153285D01*
X477436542Y-394867571D01*
X478793685Y-396296142D02*
X478650828Y-396367571D01*
X478365114Y-396367571D01*
X478222257Y-396296142D01*
X478150828Y-396153285D01*
X478150828Y-395581857D01*
X478222257Y-395439000D01*
X478365114Y-395367571D01*
X478650828Y-395367571D01*
X478793685Y-395439000D01*
X478865114Y-395581857D01*
X478865114Y-395724714D01*
X478150828Y-395867571D01*
X479507971Y-396224714D02*
X479579400Y-396296142D01*
X479507971Y-396367571D01*
X479436542Y-396296142D01*
X479507971Y-396224714D01*
X479507971Y-396367571D01*
X479507971Y-395439000D02*
X479579400Y-395510428D01*
X479507971Y-395581857D01*
X479436542Y-395510428D01*
X479507971Y-395439000D01*
X479507971Y-395581857D01*
X481150828Y-394867571D02*
X482007971Y-394867571D01*
X481579400Y-396367571D02*
X481579400Y-394867571D01*
X482507971Y-396367571D02*
X482507971Y-395367571D01*
X482507971Y-395653285D02*
X482579400Y-395510428D01*
X482650828Y-395439000D01*
X482793685Y-395367571D01*
X482936542Y-395367571D01*
X484079400Y-396367571D02*
X484079400Y-395581857D01*
X484007971Y-395439000D01*
X483865114Y-395367571D01*
X483579400Y-395367571D01*
X483436542Y-395439000D01*
X484079400Y-396296142D02*
X483936542Y-396367571D01*
X483579400Y-396367571D01*
X483436542Y-396296142D01*
X483365114Y-396153285D01*
X483365114Y-396010428D01*
X483436542Y-395867571D01*
X483579400Y-395796142D01*
X483936542Y-395796142D01*
X484079400Y-395724714D01*
X484793685Y-396367571D02*
X484793685Y-394867571D01*
X484936542Y-395796142D02*
X485365114Y-396367571D01*
X485365114Y-395367571D02*
X484793685Y-395939000D01*
X485793685Y-395367571D02*
X486365114Y-395367571D01*
X486007971Y-394867571D02*
X486007971Y-396153285D01*
X486079400Y-396296142D01*
X486222257Y-396367571D01*
X486365114Y-396367571D01*
X487079400Y-396367571D02*
X486936542Y-396296142D01*
X486865114Y-396224714D01*
X486793685Y-396081857D01*
X486793685Y-395653285D01*
X486865114Y-395510428D01*
X486936542Y-395439000D01*
X487079400Y-395367571D01*
X487293685Y-395367571D01*
X487436542Y-395439000D01*
X487507971Y-395510428D01*
X487579400Y-395653285D01*
X487579400Y-396081857D01*
X487507971Y-396224714D01*
X487436542Y-396296142D01*
X487293685Y-396367571D01*
X487079400Y-396367571D01*
X488222257Y-396367571D02*
X488222257Y-395367571D01*
X488222257Y-395653285D02*
X488293685Y-395510428D01*
X488365114Y-395439000D01*
X488507971Y-395367571D01*
X488650828Y-395367571D01*
X489150828Y-396367571D02*
X489150828Y-395367571D01*
X489150828Y-394867571D02*
X489079400Y-394939000D01*
X489150828Y-395010428D01*
X489222257Y-394939000D01*
X489150828Y-394867571D01*
X489150828Y-395010428D01*
X489865114Y-395367571D02*
X489865114Y-396367571D01*
X489865114Y-395510428D02*
X489936542Y-395439000D01*
X490079400Y-395367571D01*
X490293685Y-395367571D01*
X490436542Y-395439000D01*
X490507971Y-395581857D01*
X490507971Y-396367571D01*
X491436542Y-396367571D02*
X491293685Y-396296142D01*
X491222257Y-396224714D01*
X491150828Y-396081857D01*
X491150828Y-395653285D01*
X491222257Y-395510428D01*
X491293685Y-395439000D01*
X491436542Y-395367571D01*
X491650828Y-395367571D01*
X491793685Y-395439000D01*
X491865114Y-395510428D01*
X491936542Y-395653285D01*
X491936542Y-396081857D01*
X491865114Y-396224714D01*
X491793685Y-396296142D01*
X491650828Y-396367571D01*
X491436542Y-396367571D01*
X492579400Y-396224714D02*
X492650828Y-396296142D01*
X492579400Y-396367571D01*
X492507971Y-396296142D01*
X492579400Y-396224714D01*
X492579400Y-396367571D01*
X493293685Y-396367571D02*
X493293685Y-394867571D01*
X493436542Y-395796142D02*
X493865114Y-396367571D01*
X493865114Y-395367571D02*
X493293685Y-395939000D01*
X494507971Y-396367571D02*
X494507971Y-395367571D01*
X494507971Y-394867571D02*
X494436542Y-394939000D01*
X494507971Y-395010428D01*
X494579400Y-394939000D01*
X494507971Y-394867571D01*
X494507971Y-395010428D01*
X495865114Y-396296142D02*
X495722257Y-396367571D01*
X495436542Y-396367571D01*
X495293685Y-396296142D01*
X495222257Y-396224714D01*
X495150828Y-396081857D01*
X495150828Y-395653285D01*
X495222257Y-395510428D01*
X495293685Y-395439000D01*
X495436542Y-395367571D01*
X495722257Y-395367571D01*
X495865114Y-395439000D01*
X497150828Y-396367571D02*
X497150828Y-395581857D01*
X497079400Y-395439000D01*
X496936542Y-395367571D01*
X496650828Y-395367571D01*
X496507971Y-395439000D01*
X497150828Y-396296142D02*
X497007971Y-396367571D01*
X496650828Y-396367571D01*
X496507971Y-396296142D01*
X496436542Y-396153285D01*
X496436542Y-396010428D01*
X496507971Y-395867571D01*
X496650828Y-395796142D01*
X497007971Y-395796142D01*
X497150828Y-395724714D01*
X498507971Y-396367571D02*
X498507971Y-394867571D01*
X498507971Y-396296142D02*
X498365114Y-396367571D01*
X498079400Y-396367571D01*
X497936542Y-396296142D01*
X497865114Y-396224714D01*
X497793685Y-396081857D01*
X497793685Y-395653285D01*
X497865114Y-395510428D01*
X497936542Y-395439000D01*
X498079400Y-395367571D01*
X498365114Y-395367571D01*
X498507971Y-395439000D01*
X498865114Y-396510428D02*
X500007971Y-396510428D01*
X500365114Y-395367571D02*
X500365114Y-396867571D01*
X500365114Y-395439000D02*
X500507971Y-395367571D01*
X500793685Y-395367571D01*
X500936542Y-395439000D01*
X501007971Y-395510428D01*
X501079400Y-395653285D01*
X501079400Y-396081857D01*
X501007971Y-396224714D01*
X500936542Y-396296142D01*
X500793685Y-396367571D01*
X500507971Y-396367571D01*
X500365114Y-396296142D01*
X502365114Y-396296142D02*
X502222257Y-396367571D01*
X501936542Y-396367571D01*
X501793685Y-396296142D01*
X501722257Y-396224714D01*
X501650828Y-396081857D01*
X501650828Y-395653285D01*
X501722257Y-395510428D01*
X501793685Y-395439000D01*
X501936542Y-395367571D01*
X502222257Y-395367571D01*
X502365114Y-395439000D01*
X503007971Y-396367571D02*
X503007971Y-394867571D01*
X503007971Y-395439000D02*
X503150828Y-395367571D01*
X503436542Y-395367571D01*
X503579400Y-395439000D01*
X503650828Y-395510428D01*
X503722257Y-395653285D01*
X503722257Y-396081857D01*
X503650828Y-396224714D01*
X503579400Y-396296142D01*
X503436542Y-396367571D01*
X503150828Y-396367571D01*
X503007971Y-396296142D01*
D10*
D11*
X474004400Y-391489000D02*
X582004400Y-391489000D01*
D10*
D11*
X475365114Y-393596142D02*
X475579400Y-393667571D01*
X475936542Y-393667571D01*
X476079400Y-393596142D01*
X476150828Y-393524714D01*
X476222257Y-393381857D01*
X476222257Y-393239000D01*
X476150828Y-393096142D01*
X476079400Y-393024714D01*
X475936542Y-392953285D01*
X475650828Y-392881857D01*
X475507971Y-392810428D01*
X475436542Y-392739000D01*
X475365114Y-392596142D01*
X475365114Y-392453285D01*
X475436542Y-392310428D01*
X475507971Y-392239000D01*
X475650828Y-392167571D01*
X476007971Y-392167571D01*
X476222257Y-392239000D01*
X476865114Y-393667571D02*
X476865114Y-392167571D01*
X477507971Y-393667571D02*
X477507971Y-392881857D01*
X477436542Y-392739000D01*
X477293685Y-392667571D01*
X477079400Y-392667571D01*
X476936542Y-392739000D01*
X476865114Y-392810428D01*
X478793685Y-393596142D02*
X478650828Y-393667571D01*
X478365114Y-393667571D01*
X478222257Y-393596142D01*
X478150828Y-393453285D01*
X478150828Y-392881857D01*
X478222257Y-392739000D01*
X478365114Y-392667571D01*
X478650828Y-392667571D01*
X478793685Y-392739000D01*
X478865114Y-392881857D01*
X478865114Y-393024714D01*
X478150828Y-393167571D01*
X480079400Y-393596142D02*
X479936542Y-393667571D01*
X479650828Y-393667571D01*
X479507971Y-393596142D01*
X479436542Y-393453285D01*
X479436542Y-392881857D01*
X479507971Y-392739000D01*
X479650828Y-392667571D01*
X479936542Y-392667571D01*
X480079400Y-392739000D01*
X480150828Y-392881857D01*
X480150828Y-393024714D01*
X479436542Y-393167571D01*
X480579400Y-392667571D02*
X481150828Y-392667571D01*
X480793685Y-392167571D02*
X480793685Y-393453285D01*
X480865114Y-393596142D01*
X481007971Y-393667571D01*
X481150828Y-393667571D01*
X481650828Y-393524714D02*
X481722257Y-393596142D01*
X481650828Y-393667571D01*
X481579400Y-393596142D01*
X481650828Y-393524714D01*
X481650828Y-393667571D01*
X481650828Y-392739000D02*
X481722257Y-392810428D01*
X481650828Y-392881857D01*
X481579400Y-392810428D01*
X481650828Y-392739000D01*
X481650828Y-392881857D01*
D10*
D12*
D10*
D11*
D10*
D11*
D10*
D11*
D10*
D11*
D10*
D11*
X494004400Y-401489000D02*
X494004400Y-404489000D01*
D10*
D11*
X558004400Y-401489000D02*
X558004400Y-407989000D01*
D14*
X423007200Y-353872800D02*
X423007200Y-53872800D01*
X83007200Y-353872800D02*
X423007200Y-353872800D01*
X423007200Y-53872800D02*
X123007200Y-53872800D01*
X83007200Y-53872800D02*
X83007200Y-353872800D01*
X123007200Y-53872800D02*
X83007200Y-53872800D01*
M02*
