M48
; DRILL file {KiCad (5.99.0-9972-g9020611657)} date Sat Apr  3 00:57:04 2021
; FORMAT={-:-/ absolute / metric / decimal}
; #@! TF.CreationDate,2021-04-03T00:57:04+02:00
; #@! TF.GenerationSoftware,Kicad,Pcbnew,(5.99.0-9972-g9020611657)
; #@! TF.FileFunction,Plated,1,2,PTH
FMAT,2
METRIC
; #@! TA.AperFunction,ViaDrill
T1C0.635
; #@! TA.AperFunction,ComponentDrill,Plated,PTH
T2C0.762
; #@! TA.AperFunction,ComponentDrill,Plated,PTH
T3C0.900
; #@! TA.AperFunction,ComponentDrill,Plated,PTH
T4C1.000
; #@! TA.AperFunction,ComponentDrill,Plated,PTH
T5C1.016
; #@! TA.AperFunction,ComponentDrill,Plated,PTH
T6C1.100
; #@! TA.AperFunction,ComponentDrill,Plated,PTH
T7C1.500
; #@! TA.AperFunction,ComponentDrill,Plated,PTH
T8C2.600
; #@! TA.AperFunction,ComponentDrill,Plated,PTH
T9C3.200
%
G90
G05
T1
; via hole
X91.92Y-180.2
X93.63Y-183.65
X93.63Y-207.38
X93.78Y-212.24
X94.75Y-179.91
X94.88Y-204.99
X102.35Y-179.75
X103.78Y-177.58
X106.88Y-182.4
X107.26Y-177.54
X118.46Y-187.37
X118.632Y-212.469
X118.78Y-182.95
X118.86Y-208.01
X119.25Y-180.02
X119.78Y-205.23
X131.21Y-208.72
X132.19Y-207.28
X134.19Y-218.55
X134.97Y-212.66
X141.52Y-108.27
X143.45Y-187.24
X143.53Y-206.98
X143.64Y-183.01
X144.01Y-212.2
X144.14Y-180.2
X144.54Y-205.03
X144.75Y-273.22
X149.06Y-199.28
X151.97Y-291.72
X154.07Y-197.64
X154.25Y-206.49
X154.31Y-193.91
X156.24Y-193.72
X168.13Y-80.59
X168.26Y-212.07
X168.3Y-207.16
X168.59Y-182.78
X168.98Y-204.77
X169.12Y-179.96
X171.91Y-265.48
X174.13Y-256.22
X174.13Y-262.54
X176.45Y-249.38
X176.95Y-233.19
X177.17Y-216.99
X178.55Y-224.64
X178.78Y-249.68
X178.81Y-258.72
X180.19Y-205.35
X180.77Y-224.54
X181.64Y-218.57
X181.83Y-228.0
X182.11Y-221.73
X182.74Y-216.99
X187.01Y-243.63
X187.88Y-206.59
X190.79Y-225.14
X192.32Y-171.66
X194.12Y-183.99
X194.21Y-217.62
X194.45Y-176.08
X195.13Y-179.91
X195.45Y-177.32
X195.61Y-244.72
X198.08Y-221.75
X199.71Y-214.58
X199.73Y-224.99
X199.73Y-227.77
X201.83Y-214.45
X201.83Y-227.65
X201.86Y-224.82
X204.15Y-214.89
X204.16Y-224.69
X204.21Y-227.52
X205.2Y-252.38
X205.62Y-211.95
X206.7Y-216.03
X206.7Y-221.64
X208.34Y-225.01
X208.97Y-252.41
X209.8Y-215.12
X210.47Y-178.54
X210.79Y-241.62
X210.99Y-222.2
X213.54Y-232.08
X213.85Y-221.74
X215.34Y-241.62
X215.42Y-226.3
X215.98Y-216.0
X216.0Y-221.71
X216.38Y-224.27
X216.62Y-250.04
X217.73Y-227.46
X218.682Y-239.06
X218.733Y-240.303
X218.8Y-243.78
X218.88Y-248.1
X218.89Y-246.58
X218.92Y-250.05
X220.9Y-177.48
X221.19Y-173.432
X221.25Y-180.69
X224.01Y-177.46
X224.36Y-241.64
X224.46Y-179.93
X225.04Y-174.8
X227.42Y-183.84
X228.05Y-171.47
X228.87Y-246.68
X229.538Y-171.2
X232.14Y-164.78
X232.33Y-236.19
X232.64Y-246.15
X233.14Y-253.7
X234.88Y-263.22
X235.15Y-241.6
X235.73Y-275.3
X235.89Y-242.828
X240.17Y-257.91
X243.21Y-236.02
X243.35Y-265.7
X244.4Y-251.66
X245.03Y-243.54
X246.35Y-244.6
X247.59Y-235.57
X247.65Y-250.8
X247.66Y-237.06
X248.35Y-210.81
X248.62Y-275.782
X248.634Y-253.636
X248.7Y-273.73
X249.05Y-260.49
X249.6Y-254.42
X250.5Y-175.96
X250.97Y-253.66
X252.05Y-277.44
X252.56Y-276.06
X252.8Y-269.868
X252.81Y-271.92
X253.45Y-250.77
X254.89Y-269.74
X254.91Y-272.97
X255.03Y-171.44
X255.56Y-176.14
X257.78Y-275.782
X258.28Y-182.64
X258.88Y-177.45
X259.27Y-174.17
X263.47Y-177.53
X265.87Y-135.4
X268.32Y-150.25
X268.33Y-154.35
X268.71Y-172.24
X269.56Y-120.36
X269.83Y-154.31
X270.51Y-150.26
X279.22Y-148.278
X279.46Y-205.34
X280.16Y-202.54
X282.6Y-202.32
X282.724Y-142.664
X282.83Y-203.85
X282.87Y-139.18
X283.91Y-148.39
X286.62Y-253.58
X287.91Y-136.16
X288.31Y-144.2
X290.31Y-141.25
X293.18Y-142.54
X294.33Y-249.63
X296.19Y-248.41
X297.86Y-240.8
X300.338Y-139.12
X300.49Y-143.64
X300.58Y-242.39
X301.29Y-137.46
X302.28Y-255.76
X303.69Y-254.46
X304.69Y-134.62
X304.93Y-159.3
X305.75Y-143.19
X305.87Y-141.06
X306.18Y-136.28
X306.66Y-217.68
X306.74Y-240.22
X306.76Y-220.16
X306.76Y-236.39
X308.05Y-121.11
X308.07Y-119.13
X309.06Y-159.08
X309.14Y-125.99
X309.4Y-161.33
X309.438Y-115.54
X309.51Y-141.51
X309.55Y-139.0
X310.39Y-122.23
X310.8Y-150.65
X310.81Y-220.21
X310.81Y-222.39
X311.1Y-240.67
X311.25Y-246.76
X311.95Y-116.14
X311.95Y-119.0
X312.17Y-125.98
X312.608Y-161.139
X313.41Y-126.67
X313.83Y-160.03
X314.01Y-162.418
X314.02Y-220.33
X314.03Y-229.63
X314.033Y-235.683
X314.06Y-237.73
X315.43Y-232.02
X315.44Y-220.32
X315.44Y-227.99
X316.13Y-158.59
X316.81Y-161.65
X316.93Y-220.29
X316.94Y-226.48
X317.815Y-143.885
X317.84Y-148.71
X318.06Y-275.64
X318.12Y-163.0
X318.72Y-109.99
X318.77Y-105.84
X318.95Y-220.33
X318.98Y-217.85
X319.06Y-156.76
X319.79Y-163.03
X320.06Y-132.14
X320.06Y-234.11
X320.06Y-235.49
X320.15Y-270.26
X320.34Y-246.72
X320.37Y-139.96
X321.54Y-163.03
X321.68Y-220.22
X321.7Y-217.23
X321.73Y-133.32
X323.0Y-270.25
X323.27Y-145.83
X323.37Y-235.49
X323.38Y-220.09
X323.39Y-163.01
X325.72Y-170.49
X325.76Y-162.86
X325.82Y-145.75
X327.75Y-238.81
X327.83Y-162.92
X327.85Y-170.38
X329.66Y-162.94
X330.307Y-170.237
X330.39Y-140.95
X331.01Y-275.58
X331.53Y-162.97
X331.59Y-170.3
X331.94Y-192.48
X332.64Y-179.58
X332.7Y-204.6
X333.39Y-142.4
X333.41Y-145.86
X334.23Y-211.67
X334.73Y-136.64
X334.93Y-204.85
X335.08Y-179.39
X335.2Y-186.88
X336.0Y-146.12
X336.97Y-191.85
X338.5Y-146.1
X341.08Y-146.11
X341.1Y-142.2
X342.96Y-128.78
X344.052Y-186.88
X345.05Y-194.86
X347.5Y-146.08
X347.78Y-130.53
X349.27Y-144.33
X351.53Y-179.61
X359.1Y-211.75
X359.15Y-182.45
X359.18Y-187.373
X359.19Y-207.11
X359.79Y-123.59
X359.85Y-120.67
X359.89Y-204.88
X360.0Y-145.08
X360.34Y-179.91
X361.03Y-219.12
X361.3Y-123.97
X361.35Y-121.24
X361.42Y-146.14
X362.37Y-143.76
X362.89Y-183.65
X364.12Y-152.98
X365.07Y-272.79
X365.24Y-157.61
X365.63Y-151.87
X365.86Y-235.9
X366.02Y-216.01
X367.018Y-141.01
X367.97Y-154.88
X367.97Y-158.51
X368.07Y-178.4
X369.24Y-154.0
X369.24Y-157.6
X369.39Y-119.15
X369.43Y-135.5
X369.57Y-272.79
X369.58Y-133.23
X370.31Y-162.82
X371.36Y-129.64
X371.56Y-128.31
X371.772Y-141.233
X371.87Y-137.81
X371.94Y-140.0
X372.53Y-216.05
X372.83Y-173.7
X372.88Y-146.15
X373.18Y-204.48
X373.69Y-128.25
X373.74Y-175.96
X373.8Y-152.98
X373.84Y-179.25
X373.87Y-164.88
X374.0Y-167.28
X374.04Y-129.59
X374.05Y-145.17
X374.11Y-150.7
X376.13Y-167.2
X376.52Y-170.52
X376.57Y-179.25
X376.64Y-204.42
X378.28Y-163.03
X379.97Y-137.3
X380.37Y-144.16
X383.55Y-186.99
X383.6Y-144.28
X383.88Y-211.88
X384.03Y-182.02
X384.04Y-207.07
X384.6Y-204.48
X384.72Y-272.81
X384.95Y-179.25
X386.26Y-255.61
X392.04Y-137.36
X394.68Y-131.44
X395.85Y-182.57
X396.72Y-135.35
X397.13Y-177.78
X397.46Y-204.25
X399.77Y-137.34
X399.99Y-177.8
X401.25Y-142.24
X402.32Y-134.98
X403.53Y-239.09
X405.59Y-216.63
X405.64Y-200.07
X406.16Y-174.94
X408.64Y-212.12
X408.78Y-207.35
X409.15Y-181.85
X410.22Y-179.56
X410.31Y-204.7
X416.76Y-160.06
X416.77Y-167.12
T2
; plated pad hole
X130.124Y-232.74
X132.664Y-232.74
X135.204Y-232.74
X137.744Y-232.74
X368.706Y-232.156
X371.246Y-232.156
X373.786Y-232.156
X376.326Y-232.156
T3
X100.475Y-286.2
X100.863Y-315.341
X103.015Y-286.2
X103.403Y-315.341
X189.595Y-252.411
X192.135Y-252.411
X205.117Y-156.399
X205.117Y-158.939
X205.117Y-162.399
X205.117Y-164.939
X205.117Y-168.399
X205.117Y-170.939
X205.117Y-174.399
X205.117Y-176.939
X205.117Y-180.399
X205.117Y-182.939
X205.117Y-186.399
X205.117Y-188.939
X205.117Y-192.399
X205.117Y-194.939
X205.117Y-198.399
X205.117Y-200.939
X224.774Y-252.411
X227.314Y-252.411
X240.057Y-156.129
X240.057Y-158.669
X240.057Y-162.129
X240.057Y-164.669
X240.057Y-168.129
X240.057Y-170.669
X240.057Y-174.129
X240.057Y-176.669
X240.057Y-180.129
X240.057Y-182.669
X240.057Y-186.129
X240.057Y-188.669
X240.057Y-192.129
X240.057Y-194.669
X240.057Y-198.129
X240.057Y-200.669
X258.55Y-252.34
X261.09Y-252.34
X274.117Y-156.129
X274.117Y-158.669
X274.117Y-162.129
X274.117Y-164.669
X274.117Y-168.129
X274.117Y-170.669
X274.117Y-174.129
X274.117Y-176.669
X274.117Y-180.129
X274.117Y-182.669
X274.117Y-186.129
X274.117Y-188.669
X274.117Y-192.129
X274.117Y-194.669
X274.117Y-198.129
X274.117Y-200.669
X287.86Y-86.537
X287.86Y-89.077
X287.86Y-92.537
X287.86Y-95.077
X287.86Y-98.537
X287.86Y-101.077
X287.86Y-104.537
X287.86Y-107.077
X287.86Y-110.537
X287.86Y-113.077
X287.86Y-116.537
X287.86Y-119.077
X287.86Y-122.537
X287.86Y-125.077
X287.86Y-128.537
X287.86Y-131.077
X299.92Y-86.537
X299.92Y-89.077
X299.92Y-92.537
X299.92Y-95.077
X299.92Y-98.537
X299.92Y-101.077
X299.92Y-104.537
X299.92Y-107.077
X299.92Y-110.537
X299.92Y-113.077
X299.92Y-116.537
X299.92Y-119.077
X299.92Y-122.537
X299.92Y-125.077
X299.92Y-128.537
X299.92Y-131.077
X338.46Y-315.47
X338.5Y-285.87
X341.0Y-315.47
X341.04Y-285.87
T4
X91.805Y-126.427
X94.305Y-126.427
X96.805Y-126.427
X123.635Y-126.427
X126.135Y-126.427
X128.635Y-126.427
X130.757Y-69.373
X130.757Y-71.873
X130.757Y-74.373
X145.257Y-69.373
X145.257Y-74.373
X154.543Y-126.427
X156.36Y-265.1
X156.39Y-336.0
X157.043Y-126.427
X158.9Y-265.1
X159.543Y-126.427
X161.44Y-265.1
X161.47Y-336.0
X163.98Y-265.1
X187.197Y-285.441
X187.307Y-340.305
X188.507Y-96.923
X188.507Y-131.923
X188.507Y-166.923
X188.507Y-201.923
X188.507Y-236.923
X189.737Y-285.441
X191.007Y-96.923
X191.007Y-131.923
X191.007Y-166.923
X191.007Y-201.923
X191.007Y-236.923
X192.277Y-285.441
X192.387Y-340.305
X193.507Y-96.923
X193.507Y-131.923
X193.507Y-166.923
X193.507Y-201.923
X193.507Y-236.923
X194.817Y-285.441
X221.907Y-285.461
X222.017Y-340.325
X223.507Y-96.923
X223.507Y-131.923
X223.507Y-166.873
X223.507Y-201.923
X223.507Y-236.923
X224.447Y-285.461
X226.007Y-96.923
X226.007Y-131.923
X226.007Y-166.873
X226.007Y-201.923
X226.007Y-236.923
X226.987Y-285.461
X227.097Y-340.325
X228.507Y-96.923
X228.507Y-131.923
X228.507Y-166.873
X228.507Y-201.923
X228.507Y-236.923
X229.527Y-285.461
X256.197Y-285.441
X256.307Y-340.305
X257.507Y-96.923
X257.507Y-131.923
X257.507Y-166.873
X257.507Y-201.923
X257.507Y-236.923
X258.737Y-285.441
X260.007Y-96.923
X260.007Y-131.923
X260.007Y-166.873
X260.007Y-201.923
X260.007Y-236.923
X261.277Y-285.441
X261.387Y-340.305
X262.507Y-96.923
X262.507Y-131.923
X262.507Y-166.873
X262.507Y-201.923
X262.507Y-236.923
X263.817Y-285.441
X291.459Y-296.154
X291.459Y-326.154
X291.489Y-237.069
X293.959Y-296.154
X293.959Y-326.154
X293.989Y-237.069
X296.459Y-296.154
X296.459Y-326.154
X296.489Y-237.069
X345.631Y-126.427
X348.131Y-126.427
X350.631Y-126.427
X377.381Y-126.405
X379.881Y-126.405
X382.381Y-126.405
X387.234Y-70.109
X387.234Y-72.609
X387.234Y-75.109
X397.09Y-265.5
X397.12Y-336.4
X399.63Y-265.5
X401.734Y-70.109
X401.734Y-75.109
X402.17Y-265.5
X402.2Y-336.4
X404.71Y-265.5
X409.171Y-126.405
X411.671Y-126.405
X414.171Y-126.405
T5
X315.667Y-81.85
X315.667Y-84.39
X315.667Y-86.93
X315.667Y-89.47
X315.667Y-92.01
X315.667Y-94.55
X315.667Y-97.09
X315.667Y-99.63
X315.667Y-104.71
X315.667Y-107.25
X315.667Y-109.79
X315.667Y-112.33
X315.667Y-114.87
X315.667Y-117.41
X315.667Y-119.95
X315.667Y-122.49
X315.667Y-127.57
X315.667Y-130.11
X315.667Y-132.65
X315.667Y-135.19
X315.667Y-137.73
X315.667Y-140.27
X315.667Y-142.81
X315.667Y-145.35
X320.747Y-147.89
X320.747Y-150.43
X323.287Y-147.89
X323.287Y-150.43
X325.827Y-147.89
X325.827Y-150.43
X328.367Y-147.89
X328.367Y-150.43
X330.907Y-147.89
X330.907Y-150.43
X333.447Y-147.89
X333.447Y-150.43
X335.987Y-147.89
X335.987Y-150.43
X338.527Y-147.89
X338.527Y-150.43
X341.067Y-147.89
X341.067Y-150.43
X343.607Y-147.89
X343.607Y-150.43
X346.147Y-147.89
X346.147Y-150.43
X348.687Y-147.89
X348.687Y-150.43
X351.227Y-147.89
X351.227Y-150.43
X353.767Y-147.89
X353.767Y-150.43
X356.307Y-147.89
X356.307Y-150.43
X358.847Y-147.89
X358.847Y-150.43
X361.387Y-147.89
X361.387Y-150.43
X363.927Y-72.706
X363.927Y-75.246
X363.927Y-77.786
X363.927Y-80.326
X363.927Y-82.866
X363.927Y-85.406
X363.927Y-87.946
X363.927Y-90.486
X363.927Y-93.026
X363.927Y-95.566
X363.927Y-99.63
X363.927Y-102.17
X363.927Y-104.71
X363.927Y-107.25
X363.927Y-109.79
X363.927Y-112.33
X363.927Y-114.87
X363.927Y-117.41
X363.927Y-122.49
X363.927Y-125.03
X363.927Y-127.57
X363.927Y-130.11
X363.927Y-132.65
X363.927Y-135.19
X363.927Y-137.73
X363.927Y-140.27
X363.927Y-147.89
X363.927Y-150.43
T6
X91.147Y-134.967
X91.147Y-139.467
X97.647Y-134.967
X97.647Y-139.467
X98.684Y-289.148
X98.684Y-293.648
X98.935Y-318.588
X98.935Y-323.088
X105.184Y-289.148
X105.184Y-293.648
X105.435Y-318.588
X105.435Y-323.088
X123.107Y-134.713
X123.107Y-139.213
X125.507Y-88.873
X125.507Y-93.373
X129.607Y-134.713
X129.607Y-139.213
X132.007Y-88.873
X132.007Y-93.373
X133.9Y-261.8
X133.9Y-266.3
X134.05Y-280.1
X134.05Y-284.6
X134.1Y-332.1
X134.1Y-336.6
X139.507Y-88.873
X139.507Y-93.373
X140.4Y-261.8
X140.4Y-266.3
X140.55Y-280.1
X140.55Y-284.6
X140.6Y-332.1
X140.6Y-336.6
X146.007Y-88.873
X146.007Y-93.373
X153.833Y-134.815
X153.833Y-139.315
X160.333Y-134.815
X160.333Y-139.315
X187.757Y-256.623
X187.757Y-261.123
X187.921Y-70.111
X187.921Y-74.611
X194.257Y-256.623
X194.257Y-261.123
X194.421Y-70.111
X194.421Y-74.611
X222.719Y-70.111
X222.719Y-74.611
X222.757Y-256.623
X222.757Y-261.123
X229.219Y-70.111
X229.219Y-74.611
X229.257Y-256.623
X229.257Y-261.123
X256.501Y-70.111
X256.501Y-74.611
X256.757Y-256.623
X256.757Y-261.123
X263.001Y-70.111
X263.001Y-74.611
X263.257Y-256.623
X263.257Y-261.123
X336.6Y-289.1
X336.6Y-293.6
X336.7Y-318.65
X336.7Y-323.15
X343.1Y-289.1
X343.1Y-293.6
X343.2Y-318.65
X343.2Y-323.15
X344.867Y-134.845
X344.867Y-139.345
X351.367Y-134.845
X351.367Y-139.345
X373.85Y-279.9
X373.85Y-284.4
X373.85Y-332.2
X373.85Y-336.7
X373.9Y-260.9
X373.9Y-265.4
X376.718Y-134.855
X376.718Y-139.355
X380.35Y-279.9
X380.35Y-284.4
X380.35Y-332.2
X380.35Y-336.7
X380.4Y-260.9
X380.4Y-265.4
X381.984Y-86.859
X381.984Y-91.359
X383.218Y-134.855
X383.218Y-139.355
X388.484Y-86.859
X388.484Y-91.359
X399.247Y-86.968
X399.247Y-91.468
X405.747Y-86.968
X405.747Y-91.468
X408.468Y-134.667
X408.468Y-139.167
X414.968Y-134.667
X414.968Y-139.167
T7
X160.17Y-274.6
X160.17Y-325.1
X191.007Y-296.373
X191.007Y-329.373
X225.717Y-296.393
X225.717Y-329.393
X260.007Y-296.373
X260.007Y-329.373
X400.9Y-275.0
X400.9Y-325.5
T8
X138.257Y-66.273
X138.257Y-77.473
X394.734Y-67.009
X394.734Y-78.209
T9
X93.0Y-63.9
X93.0Y-343.9
X413.0Y-64.0
X413.0Y-343.9
T0
M30
