%TF.GenerationSoftware,KiCad,Pcbnew,5.99.0-unknown-f88d39b4f0~125~ubuntu20.04.1*%
%TF.CreationDate,2021-04-04T03:48:13+02:00*%
%TF.ProjectId,Traktorino,5472616b-746f-4726-996e-6f2e6b696361,rev?*%
%TF.SameCoordinates,Original*%
%TF.FileFunction,Soldermask,Top*%
%TF.FilePolarity,Negative*%
%FSLAX46Y46*%
G04 Gerber Fmt 4.6, Leading zero omitted, Abs format (unit mm)*
G04 Created by KiCad (PCBNEW 5.99.0-unknown-f88d39b4f0~125~ubuntu20.04.1) date 2021-04-04 03:48:13*
%MOMM*%
%LPD*%
G01*
G04 APERTURE LIST*
G04 Aperture macros list*
%AMRoundRect*
0 Rectangle with rounded corners*
0 $1 Rounding radius*
0 $2 $3 $4 $5 $6 $7 $8 $9 X,Y pos of 4 corners*
0 Add a 4 corners polygon primitive as box body*
4,1,4,$2,$3,$4,$5,$6,$7,$8,$9,$2,$3,0*
0 Add four circle primitives for the rounded corners*
1,1,$1+$1,$2,$3*
1,1,$1+$1,$4,$5*
1,1,$1+$1,$6,$7*
1,1,$1+$1,$8,$9*
0 Add four rect primitives between the rounded corners*
20,1,$1+$1,$2,$3,$4,$5,0*
20,1,$1+$1,$4,$5,$6,$7,0*
20,1,$1+$1,$6,$7,$8,$9,0*
20,1,$1+$1,$8,$9,$2,$3,0*%
G04 Aperture macros list end*
%ADD10C,0.100000*%
%ADD11C,0.150000*%
%ADD12C,0.300000*%
%ADD13C,0.400000*%
%ADD14C,2.200000*%
%ADD15RoundRect,0.200000X0.900000X-0.900000X0.900000X0.900000X-0.900000X0.900000X-0.900000X-0.900000X0*%
%ADD16C,2.200000*%
%ADD17C,2.400000*%
%ADD18C,4.400000*%
%ADD19O,2.000000X2.800000*%
%ADD20O,2.000000X2.862000*%
%ADD21RoundRect,0.326923X0.748077X-0.523077X0.748077X0.523077X-0.748077X0.523077X-0.748077X-0.523077X0*%
%ADD22RoundRect,0.200000X-0.900000X-0.900000X0.900000X-0.900000X0.900000X0.900000X-0.900000X0.900000X0*%
%ADD23RoundRect,0.200000X-1.000000X-1.000000X1.000000X-1.000000X1.000000X1.000000X-1.000000X1.000000X0*%
%ADD24C,3.600000*%
%ADD25RoundRect,0.250000X0.250000X-0.825000X0.250000X0.825000X-0.250000X0.825000X-0.250000X-0.825000X0*%
%ADD26RoundRect,0.326923X-0.523077X-0.748077X0.523077X-0.748077X0.523077X0.748077X-0.523077X0.748077X0*%
%ADD27RoundRect,0.200000X-0.750000X-0.500000X0.750000X-0.500000X0.750000X0.500000X-0.750000X0.500000X0*%
%ADD28RoundRect,0.250000X-0.825000X-0.250000X0.825000X-0.250000X0.825000X0.250000X-0.825000X0.250000X0*%
%ADD29C,1.924000*%
%ADD30O,2.127200X2.127200*%
%ADD31RoundRect,0.326923X0.523077X0.748077X-0.523077X0.748077X-0.523077X-0.748077X0.523077X-0.748077X0*%
%ADD32RoundRect,0.250000X0.825000X0.250000X-0.825000X0.250000X-0.825000X-0.250000X0.825000X-0.250000X0*%
%ADD33RoundRect,0.200000X0.900000X0.900000X-0.900000X0.900000X-0.900000X-0.900000X0.900000X-0.900000X0*%
%ADD34RoundRect,0.250000X0.250000X-0.975000X0.250000X0.975000X-0.250000X0.975000X-0.250000X-0.975000X0*%
G04 APERTURE END LIST*
D10*
D11*
X474004400Y-375989000D02*
X474004400Y-407989000D01*
X582004400Y-407989000D01*
X582004400Y-375989000D01*
X474004400Y-375989000D01*
D10*
D11*
X10000000Y-10000000D02*
X10000000Y-409989000D01*
X584004400Y-409989000D01*
X584004400Y-10000000D01*
X10000000Y-10000000D01*
D10*
D11*
X12000000Y-12000000D02*
X12000000Y-407989000D01*
X582004400Y-407989000D01*
X582004400Y-12000000D01*
X12000000Y-12000000D01*
D10*
D11*
X60000000Y-12000000D02*
X60000000Y-10000000D01*
D10*
D11*
X110000000Y-12000000D02*
X110000000Y-10000000D01*
D10*
D11*
X160000000Y-12000000D02*
X160000000Y-10000000D01*
D10*
D11*
X210000000Y-12000000D02*
X210000000Y-10000000D01*
D10*
D11*
X260000000Y-12000000D02*
X260000000Y-10000000D01*
D10*
D11*
X310000000Y-12000000D02*
X310000000Y-10000000D01*
D10*
D11*
X360000000Y-12000000D02*
X360000000Y-10000000D01*
D10*
D11*
X410000000Y-12000000D02*
X410000000Y-10000000D01*
D10*
D11*
X460000000Y-12000000D02*
X460000000Y-10000000D01*
D10*
D11*
X510000000Y-12000000D02*
X510000000Y-10000000D01*
D10*
D11*
X560000000Y-12000000D02*
X560000000Y-10000000D01*
D10*
D11*
X36065476Y-11588095D02*
X35322619Y-11588095D01*
X35694047Y-11588095D02*
X35694047Y-10288095D01*
X35570238Y-10473809D01*
X35446428Y-10597619D01*
X35322619Y-10659523D01*
D10*
D11*
X85322619Y-10411904D02*
X85384523Y-10350000D01*
X85508333Y-10288095D01*
X85817857Y-10288095D01*
X85941666Y-10350000D01*
X86003571Y-10411904D01*
X86065476Y-10535714D01*
X86065476Y-10659523D01*
X86003571Y-10845238D01*
X85260714Y-11588095D01*
X86065476Y-11588095D01*
D10*
D11*
X135260714Y-10288095D02*
X136065476Y-10288095D01*
X135632142Y-10783333D01*
X135817857Y-10783333D01*
X135941666Y-10845238D01*
X136003571Y-10907142D01*
X136065476Y-11030952D01*
X136065476Y-11340476D01*
X136003571Y-11464285D01*
X135941666Y-11526190D01*
X135817857Y-11588095D01*
X135446428Y-11588095D01*
X135322619Y-11526190D01*
X135260714Y-11464285D01*
D10*
D11*
X185941666Y-10721428D02*
X185941666Y-11588095D01*
X185632142Y-10226190D02*
X185322619Y-11154761D01*
X186127380Y-11154761D01*
D10*
D11*
X236003571Y-10288095D02*
X235384523Y-10288095D01*
X235322619Y-10907142D01*
X235384523Y-10845238D01*
X235508333Y-10783333D01*
X235817857Y-10783333D01*
X235941666Y-10845238D01*
X236003571Y-10907142D01*
X236065476Y-11030952D01*
X236065476Y-11340476D01*
X236003571Y-11464285D01*
X235941666Y-11526190D01*
X235817857Y-11588095D01*
X235508333Y-11588095D01*
X235384523Y-11526190D01*
X235322619Y-11464285D01*
D10*
D11*
X285941666Y-10288095D02*
X285694047Y-10288095D01*
X285570238Y-10350000D01*
X285508333Y-10411904D01*
X285384523Y-10597619D01*
X285322619Y-10845238D01*
X285322619Y-11340476D01*
X285384523Y-11464285D01*
X285446428Y-11526190D01*
X285570238Y-11588095D01*
X285817857Y-11588095D01*
X285941666Y-11526190D01*
X286003571Y-11464285D01*
X286065476Y-11340476D01*
X286065476Y-11030952D01*
X286003571Y-10907142D01*
X285941666Y-10845238D01*
X285817857Y-10783333D01*
X285570238Y-10783333D01*
X285446428Y-10845238D01*
X285384523Y-10907142D01*
X285322619Y-11030952D01*
D10*
D11*
X335260714Y-10288095D02*
X336127380Y-10288095D01*
X335570238Y-11588095D01*
D10*
D11*
X385570238Y-10845238D02*
X385446428Y-10783333D01*
X385384523Y-10721428D01*
X385322619Y-10597619D01*
X385322619Y-10535714D01*
X385384523Y-10411904D01*
X385446428Y-10350000D01*
X385570238Y-10288095D01*
X385817857Y-10288095D01*
X385941666Y-10350000D01*
X386003571Y-10411904D01*
X386065476Y-10535714D01*
X386065476Y-10597619D01*
X386003571Y-10721428D01*
X385941666Y-10783333D01*
X385817857Y-10845238D01*
X385570238Y-10845238D01*
X385446428Y-10907142D01*
X385384523Y-10969047D01*
X385322619Y-11092857D01*
X385322619Y-11340476D01*
X385384523Y-11464285D01*
X385446428Y-11526190D01*
X385570238Y-11588095D01*
X385817857Y-11588095D01*
X385941666Y-11526190D01*
X386003571Y-11464285D01*
X386065476Y-11340476D01*
X386065476Y-11092857D01*
X386003571Y-10969047D01*
X385941666Y-10907142D01*
X385817857Y-10845238D01*
D10*
D11*
X435446428Y-11588095D02*
X435694047Y-11588095D01*
X435817857Y-11526190D01*
X435879761Y-11464285D01*
X436003571Y-11278571D01*
X436065476Y-11030952D01*
X436065476Y-10535714D01*
X436003571Y-10411904D01*
X435941666Y-10350000D01*
X435817857Y-10288095D01*
X435570238Y-10288095D01*
X435446428Y-10350000D01*
X435384523Y-10411904D01*
X435322619Y-10535714D01*
X435322619Y-10845238D01*
X435384523Y-10969047D01*
X435446428Y-11030952D01*
X435570238Y-11092857D01*
X435817857Y-11092857D01*
X435941666Y-11030952D01*
X436003571Y-10969047D01*
X436065476Y-10845238D01*
D10*
D11*
X486065476Y-11588095D02*
X485322619Y-11588095D01*
X485694047Y-11588095D02*
X485694047Y-10288095D01*
X485570238Y-10473809D01*
X485446428Y-10597619D01*
X485322619Y-10659523D01*
X486870238Y-10288095D02*
X486994047Y-10288095D01*
X487117857Y-10350000D01*
X487179761Y-10411904D01*
X487241666Y-10535714D01*
X487303571Y-10783333D01*
X487303571Y-11092857D01*
X487241666Y-11340476D01*
X487179761Y-11464285D01*
X487117857Y-11526190D01*
X486994047Y-11588095D01*
X486870238Y-11588095D01*
X486746428Y-11526190D01*
X486684523Y-11464285D01*
X486622619Y-11340476D01*
X486560714Y-11092857D01*
X486560714Y-10783333D01*
X486622619Y-10535714D01*
X486684523Y-10411904D01*
X486746428Y-10350000D01*
X486870238Y-10288095D01*
D10*
D11*
X536065476Y-11588095D02*
X535322619Y-11588095D01*
X535694047Y-11588095D02*
X535694047Y-10288095D01*
X535570238Y-10473809D01*
X535446428Y-10597619D01*
X535322619Y-10659523D01*
X537303571Y-11588095D02*
X536560714Y-11588095D01*
X536932142Y-11588095D02*
X536932142Y-10288095D01*
X536808333Y-10473809D01*
X536684523Y-10597619D01*
X536560714Y-10659523D01*
D10*
D11*
X60000000Y-407989000D02*
X60000000Y-409989000D01*
D10*
D11*
X110000000Y-407989000D02*
X110000000Y-409989000D01*
D10*
D11*
X160000000Y-407989000D02*
X160000000Y-409989000D01*
D10*
D11*
X210000000Y-407989000D02*
X210000000Y-409989000D01*
D10*
D11*
X260000000Y-407989000D02*
X260000000Y-409989000D01*
D10*
D11*
X310000000Y-407989000D02*
X310000000Y-409989000D01*
D10*
D11*
X360000000Y-407989000D02*
X360000000Y-409989000D01*
D10*
D11*
X410000000Y-407989000D02*
X410000000Y-409989000D01*
D10*
D11*
X460000000Y-407989000D02*
X460000000Y-409989000D01*
D10*
D11*
X510000000Y-407989000D02*
X510000000Y-409989000D01*
D10*
D11*
X560000000Y-407989000D02*
X560000000Y-409989000D01*
D10*
D11*
X36065476Y-409577095D02*
X35322619Y-409577095D01*
X35694047Y-409577095D02*
X35694047Y-408277095D01*
X35570238Y-408462809D01*
X35446428Y-408586619D01*
X35322619Y-408648523D01*
D10*
D11*
X85322619Y-408400904D02*
X85384523Y-408339000D01*
X85508333Y-408277095D01*
X85817857Y-408277095D01*
X85941666Y-408339000D01*
X86003571Y-408400904D01*
X86065476Y-408524714D01*
X86065476Y-408648523D01*
X86003571Y-408834238D01*
X85260714Y-409577095D01*
X86065476Y-409577095D01*
D10*
D11*
X135260714Y-408277095D02*
X136065476Y-408277095D01*
X135632142Y-408772333D01*
X135817857Y-408772333D01*
X135941666Y-408834238D01*
X136003571Y-408896142D01*
X136065476Y-409019952D01*
X136065476Y-409329476D01*
X136003571Y-409453285D01*
X135941666Y-409515190D01*
X135817857Y-409577095D01*
X135446428Y-409577095D01*
X135322619Y-409515190D01*
X135260714Y-409453285D01*
D10*
D11*
X185941666Y-408710428D02*
X185941666Y-409577095D01*
X185632142Y-408215190D02*
X185322619Y-409143761D01*
X186127380Y-409143761D01*
D10*
D11*
X236003571Y-408277095D02*
X235384523Y-408277095D01*
X235322619Y-408896142D01*
X235384523Y-408834238D01*
X235508333Y-408772333D01*
X235817857Y-408772333D01*
X235941666Y-408834238D01*
X236003571Y-408896142D01*
X236065476Y-409019952D01*
X236065476Y-409329476D01*
X236003571Y-409453285D01*
X235941666Y-409515190D01*
X235817857Y-409577095D01*
X235508333Y-409577095D01*
X235384523Y-409515190D01*
X235322619Y-409453285D01*
D10*
D11*
X285941666Y-408277095D02*
X285694047Y-408277095D01*
X285570238Y-408339000D01*
X285508333Y-408400904D01*
X285384523Y-408586619D01*
X285322619Y-408834238D01*
X285322619Y-409329476D01*
X285384523Y-409453285D01*
X285446428Y-409515190D01*
X285570238Y-409577095D01*
X285817857Y-409577095D01*
X285941666Y-409515190D01*
X286003571Y-409453285D01*
X286065476Y-409329476D01*
X286065476Y-409019952D01*
X286003571Y-408896142D01*
X285941666Y-408834238D01*
X285817857Y-408772333D01*
X285570238Y-408772333D01*
X285446428Y-408834238D01*
X285384523Y-408896142D01*
X285322619Y-409019952D01*
D10*
D11*
X335260714Y-408277095D02*
X336127380Y-408277095D01*
X335570238Y-409577095D01*
D10*
D11*
X385570238Y-408834238D02*
X385446428Y-408772333D01*
X385384523Y-408710428D01*
X385322619Y-408586619D01*
X385322619Y-408524714D01*
X385384523Y-408400904D01*
X385446428Y-408339000D01*
X385570238Y-408277095D01*
X385817857Y-408277095D01*
X385941666Y-408339000D01*
X386003571Y-408400904D01*
X386065476Y-408524714D01*
X386065476Y-408586619D01*
X386003571Y-408710428D01*
X385941666Y-408772333D01*
X385817857Y-408834238D01*
X385570238Y-408834238D01*
X385446428Y-408896142D01*
X385384523Y-408958047D01*
X385322619Y-409081857D01*
X385322619Y-409329476D01*
X385384523Y-409453285D01*
X385446428Y-409515190D01*
X385570238Y-409577095D01*
X385817857Y-409577095D01*
X385941666Y-409515190D01*
X386003571Y-409453285D01*
X386065476Y-409329476D01*
X386065476Y-409081857D01*
X386003571Y-408958047D01*
X385941666Y-408896142D01*
X385817857Y-408834238D01*
D10*
D11*
X435446428Y-409577095D02*
X435694047Y-409577095D01*
X435817857Y-409515190D01*
X435879761Y-409453285D01*
X436003571Y-409267571D01*
X436065476Y-409019952D01*
X436065476Y-408524714D01*
X436003571Y-408400904D01*
X435941666Y-408339000D01*
X435817857Y-408277095D01*
X435570238Y-408277095D01*
X435446428Y-408339000D01*
X435384523Y-408400904D01*
X435322619Y-408524714D01*
X435322619Y-408834238D01*
X435384523Y-408958047D01*
X435446428Y-409019952D01*
X435570238Y-409081857D01*
X435817857Y-409081857D01*
X435941666Y-409019952D01*
X436003571Y-408958047D01*
X436065476Y-408834238D01*
D10*
D11*
X486065476Y-409577095D02*
X485322619Y-409577095D01*
X485694047Y-409577095D02*
X485694047Y-408277095D01*
X485570238Y-408462809D01*
X485446428Y-408586619D01*
X485322619Y-408648523D01*
X486870238Y-408277095D02*
X486994047Y-408277095D01*
X487117857Y-408339000D01*
X487179761Y-408400904D01*
X487241666Y-408524714D01*
X487303571Y-408772333D01*
X487303571Y-409081857D01*
X487241666Y-409329476D01*
X487179761Y-409453285D01*
X487117857Y-409515190D01*
X486994047Y-409577095D01*
X486870238Y-409577095D01*
X486746428Y-409515190D01*
X486684523Y-409453285D01*
X486622619Y-409329476D01*
X486560714Y-409081857D01*
X486560714Y-408772333D01*
X486622619Y-408524714D01*
X486684523Y-408400904D01*
X486746428Y-408339000D01*
X486870238Y-408277095D01*
D10*
D11*
X536065476Y-409577095D02*
X535322619Y-409577095D01*
X535694047Y-409577095D02*
X535694047Y-408277095D01*
X535570238Y-408462809D01*
X535446428Y-408586619D01*
X535322619Y-408648523D01*
X537303571Y-409577095D02*
X536560714Y-409577095D01*
X536932142Y-409577095D02*
X536932142Y-408277095D01*
X536808333Y-408462809D01*
X536684523Y-408586619D01*
X536560714Y-408648523D01*
D10*
D11*
X10000000Y-60000000D02*
X12000000Y-60000000D01*
D10*
D11*
X10000000Y-110000000D02*
X12000000Y-110000000D01*
D10*
D11*
X10000000Y-160000000D02*
X12000000Y-160000000D01*
D10*
D11*
X10000000Y-210000000D02*
X12000000Y-210000000D01*
D10*
D11*
X10000000Y-260000000D02*
X12000000Y-260000000D01*
D10*
D11*
X10000000Y-310000000D02*
X12000000Y-310000000D01*
D10*
D11*
X10000000Y-360000000D02*
X12000000Y-360000000D01*
D10*
D11*
X10690476Y-35216666D02*
X11309523Y-35216666D01*
X10566666Y-35588095D02*
X11000000Y-34288095D01*
X11433333Y-35588095D01*
D10*
D11*
X11092857Y-84907142D02*
X11278571Y-84969047D01*
X11340476Y-85030952D01*
X11402380Y-85154761D01*
X11402380Y-85340476D01*
X11340476Y-85464285D01*
X11278571Y-85526190D01*
X11154761Y-85588095D01*
X10659523Y-85588095D01*
X10659523Y-84288095D01*
X11092857Y-84288095D01*
X11216666Y-84350000D01*
X11278571Y-84411904D01*
X11340476Y-84535714D01*
X11340476Y-84659523D01*
X11278571Y-84783333D01*
X11216666Y-84845238D01*
X11092857Y-84907142D01*
X10659523Y-84907142D01*
D10*
D11*
X11402380Y-135464285D02*
X11340476Y-135526190D01*
X11154761Y-135588095D01*
X11030952Y-135588095D01*
X10845238Y-135526190D01*
X10721428Y-135402380D01*
X10659523Y-135278571D01*
X10597619Y-135030952D01*
X10597619Y-134845238D01*
X10659523Y-134597619D01*
X10721428Y-134473809D01*
X10845238Y-134350000D01*
X11030952Y-134288095D01*
X11154761Y-134288095D01*
X11340476Y-134350000D01*
X11402380Y-134411904D01*
D10*
D11*
X10659523Y-185588095D02*
X10659523Y-184288095D01*
X10969047Y-184288095D01*
X11154761Y-184350000D01*
X11278571Y-184473809D01*
X11340476Y-184597619D01*
X11402380Y-184845238D01*
X11402380Y-185030952D01*
X11340476Y-185278571D01*
X11278571Y-185402380D01*
X11154761Y-185526190D01*
X10969047Y-185588095D01*
X10659523Y-185588095D01*
D10*
D11*
X10721428Y-234907142D02*
X11154761Y-234907142D01*
X11340476Y-235588095D02*
X10721428Y-235588095D01*
X10721428Y-234288095D01*
X11340476Y-234288095D01*
D10*
D11*
X11185714Y-284907142D02*
X10752380Y-284907142D01*
X10752380Y-285588095D02*
X10752380Y-284288095D01*
X11371428Y-284288095D01*
D10*
D11*
X11340476Y-334350000D02*
X11216666Y-334288095D01*
X11030952Y-334288095D01*
X10845238Y-334350000D01*
X10721428Y-334473809D01*
X10659523Y-334597619D01*
X10597619Y-334845238D01*
X10597619Y-335030952D01*
X10659523Y-335278571D01*
X10721428Y-335402380D01*
X10845238Y-335526190D01*
X11030952Y-335588095D01*
X11154761Y-335588095D01*
X11340476Y-335526190D01*
X11402380Y-335464285D01*
X11402380Y-335030952D01*
X11154761Y-335030952D01*
D10*
D11*
X10628571Y-385588095D02*
X10628571Y-384288095D01*
X10628571Y-384907142D02*
X11371428Y-384907142D01*
X11371428Y-385588095D02*
X11371428Y-384288095D01*
D10*
D11*
X584004400Y-60000000D02*
X582004400Y-60000000D01*
D10*
D11*
X584004400Y-110000000D02*
X582004400Y-110000000D01*
D10*
D11*
X584004400Y-160000000D02*
X582004400Y-160000000D01*
D10*
D11*
X584004400Y-210000000D02*
X582004400Y-210000000D01*
D10*
D11*
X584004400Y-260000000D02*
X582004400Y-260000000D01*
D10*
D11*
X584004400Y-310000000D02*
X582004400Y-310000000D01*
D10*
D11*
X584004400Y-360000000D02*
X582004400Y-360000000D01*
D10*
D11*
X582694876Y-35216666D02*
X583313923Y-35216666D01*
X582571066Y-35588095D02*
X583004400Y-34288095D01*
X583437733Y-35588095D01*
D10*
D11*
X583097257Y-84907142D02*
X583282971Y-84969047D01*
X583344876Y-85030952D01*
X583406780Y-85154761D01*
X583406780Y-85340476D01*
X583344876Y-85464285D01*
X583282971Y-85526190D01*
X583159161Y-85588095D01*
X582663923Y-85588095D01*
X582663923Y-84288095D01*
X583097257Y-84288095D01*
X583221066Y-84350000D01*
X583282971Y-84411904D01*
X583344876Y-84535714D01*
X583344876Y-84659523D01*
X583282971Y-84783333D01*
X583221066Y-84845238D01*
X583097257Y-84907142D01*
X582663923Y-84907142D01*
D10*
D11*
X583406780Y-135464285D02*
X583344876Y-135526190D01*
X583159161Y-135588095D01*
X583035352Y-135588095D01*
X582849638Y-135526190D01*
X582725828Y-135402380D01*
X582663923Y-135278571D01*
X582602019Y-135030952D01*
X582602019Y-134845238D01*
X582663923Y-134597619D01*
X582725828Y-134473809D01*
X582849638Y-134350000D01*
X583035352Y-134288095D01*
X583159161Y-134288095D01*
X583344876Y-134350000D01*
X583406780Y-134411904D01*
D10*
D11*
X582663923Y-185588095D02*
X582663923Y-184288095D01*
X582973447Y-184288095D01*
X583159161Y-184350000D01*
X583282971Y-184473809D01*
X583344876Y-184597619D01*
X583406780Y-184845238D01*
X583406780Y-185030952D01*
X583344876Y-185278571D01*
X583282971Y-185402380D01*
X583159161Y-185526190D01*
X582973447Y-185588095D01*
X582663923Y-185588095D01*
D10*
D11*
X582725828Y-234907142D02*
X583159161Y-234907142D01*
X583344876Y-235588095D02*
X582725828Y-235588095D01*
X582725828Y-234288095D01*
X583344876Y-234288095D01*
D10*
D11*
X583190114Y-284907142D02*
X582756780Y-284907142D01*
X582756780Y-285588095D02*
X582756780Y-284288095D01*
X583375828Y-284288095D01*
D10*
D11*
X583344876Y-334350000D02*
X583221066Y-334288095D01*
X583035352Y-334288095D01*
X582849638Y-334350000D01*
X582725828Y-334473809D01*
X582663923Y-334597619D01*
X582602019Y-334845238D01*
X582602019Y-335030952D01*
X582663923Y-335278571D01*
X582725828Y-335402380D01*
X582849638Y-335526190D01*
X583035352Y-335588095D01*
X583159161Y-335588095D01*
X583344876Y-335526190D01*
X583406780Y-335464285D01*
X583406780Y-335030952D01*
X583159161Y-335030952D01*
D10*
D11*
X582632971Y-385588095D02*
X582632971Y-384288095D01*
X582632971Y-384907142D02*
X583375828Y-384907142D01*
X583375828Y-385588095D02*
X583375828Y-384288095D01*
D10*
D11*
X497436542Y-403767571D02*
X497436542Y-402267571D01*
X497793685Y-402267571D01*
X498007971Y-402339000D01*
X498150828Y-402481857D01*
X498222257Y-402624714D01*
X498293685Y-402910428D01*
X498293685Y-403124714D01*
X498222257Y-403410428D01*
X498150828Y-403553285D01*
X498007971Y-403696142D01*
X497793685Y-403767571D01*
X497436542Y-403767571D01*
X499579400Y-403767571D02*
X499579400Y-402981857D01*
X499507971Y-402839000D01*
X499365114Y-402767571D01*
X499079400Y-402767571D01*
X498936542Y-402839000D01*
X499579400Y-403696142D02*
X499436542Y-403767571D01*
X499079400Y-403767571D01*
X498936542Y-403696142D01*
X498865114Y-403553285D01*
X498865114Y-403410428D01*
X498936542Y-403267571D01*
X499079400Y-403196142D01*
X499436542Y-403196142D01*
X499579400Y-403124714D01*
X500079400Y-402767571D02*
X500650828Y-402767571D01*
X500293685Y-402267571D02*
X500293685Y-403553285D01*
X500365114Y-403696142D01*
X500507971Y-403767571D01*
X500650828Y-403767571D01*
X501722257Y-403696142D02*
X501579400Y-403767571D01*
X501293685Y-403767571D01*
X501150828Y-403696142D01*
X501079400Y-403553285D01*
X501079400Y-402981857D01*
X501150828Y-402839000D01*
X501293685Y-402767571D01*
X501579400Y-402767571D01*
X501722257Y-402839000D01*
X501793685Y-402981857D01*
X501793685Y-403124714D01*
X501079400Y-403267571D01*
X502436542Y-403624714D02*
X502507971Y-403696142D01*
X502436542Y-403767571D01*
X502365114Y-403696142D01*
X502436542Y-403624714D01*
X502436542Y-403767571D01*
X502436542Y-402839000D02*
X502507971Y-402910428D01*
X502436542Y-402981857D01*
X502365114Y-402910428D01*
X502436542Y-402839000D01*
X502436542Y-402981857D01*
D10*
D11*
X474004400Y-404489000D02*
X582004400Y-404489000D01*
D10*
D11*
X475436542Y-406567571D02*
X475436542Y-405067571D01*
X476293685Y-406567571D02*
X475650828Y-405710428D01*
X476293685Y-405067571D02*
X475436542Y-405924714D01*
X476936542Y-406567571D02*
X476936542Y-405567571D01*
X476936542Y-405067571D02*
X476865114Y-405139000D01*
X476936542Y-405210428D01*
X477007971Y-405139000D01*
X476936542Y-405067571D01*
X476936542Y-405210428D01*
X478507971Y-406424714D02*
X478436542Y-406496142D01*
X478222257Y-406567571D01*
X478079400Y-406567571D01*
X477865114Y-406496142D01*
X477722257Y-406353285D01*
X477650828Y-406210428D01*
X477579400Y-405924714D01*
X477579400Y-405710428D01*
X477650828Y-405424714D01*
X477722257Y-405281857D01*
X477865114Y-405139000D01*
X478079400Y-405067571D01*
X478222257Y-405067571D01*
X478436542Y-405139000D01*
X478507971Y-405210428D01*
X479793685Y-406567571D02*
X479793685Y-405781857D01*
X479722257Y-405639000D01*
X479579400Y-405567571D01*
X479293685Y-405567571D01*
X479150828Y-405639000D01*
X479793685Y-406496142D02*
X479650828Y-406567571D01*
X479293685Y-406567571D01*
X479150828Y-406496142D01*
X479079400Y-406353285D01*
X479079400Y-406210428D01*
X479150828Y-406067571D01*
X479293685Y-405996142D01*
X479650828Y-405996142D01*
X479793685Y-405924714D01*
X481150828Y-406567571D02*
X481150828Y-405067571D01*
X481150828Y-406496142D02*
X481007971Y-406567571D01*
X480722257Y-406567571D01*
X480579400Y-406496142D01*
X480507971Y-406424714D01*
X480436542Y-406281857D01*
X480436542Y-405853285D01*
X480507971Y-405710428D01*
X480579400Y-405639000D01*
X480722257Y-405567571D01*
X481007971Y-405567571D01*
X481150828Y-405639000D01*
X483007971Y-405781857D02*
X483507971Y-405781857D01*
X483722257Y-406567571D02*
X483007971Y-406567571D01*
X483007971Y-405067571D01*
X483722257Y-405067571D01*
X484365114Y-406424714D02*
X484436542Y-406496142D01*
X484365114Y-406567571D01*
X484293685Y-406496142D01*
X484365114Y-406424714D01*
X484365114Y-406567571D01*
X485079400Y-406567571D02*
X485079400Y-405067571D01*
X485436542Y-405067571D01*
X485650828Y-405139000D01*
X485793685Y-405281857D01*
X485865114Y-405424714D01*
X485936542Y-405710428D01*
X485936542Y-405924714D01*
X485865114Y-406210428D01*
X485793685Y-406353285D01*
X485650828Y-406496142D01*
X485436542Y-406567571D01*
X485079400Y-406567571D01*
X486579400Y-406424714D02*
X486650828Y-406496142D01*
X486579400Y-406567571D01*
X486507971Y-406496142D01*
X486579400Y-406424714D01*
X486579400Y-406567571D01*
X487222257Y-406139000D02*
X487936542Y-406139000D01*
X487079400Y-406567571D02*
X487579400Y-405067571D01*
X488079400Y-406567571D01*
X488579400Y-406424714D02*
X488650828Y-406496142D01*
X488579400Y-406567571D01*
X488507971Y-406496142D01*
X488579400Y-406424714D01*
X488579400Y-406567571D01*
X491579400Y-406567571D02*
X491579400Y-405067571D01*
X491722257Y-405996142D02*
X492150828Y-406567571D01*
X492150828Y-405567571D02*
X491579400Y-406139000D01*
X492793685Y-406567571D02*
X492793685Y-405567571D01*
X492793685Y-405067571D02*
X492722257Y-405139000D01*
X492793685Y-405210428D01*
X492865114Y-405139000D01*
X492793685Y-405067571D01*
X492793685Y-405210428D01*
X494150828Y-406496142D02*
X494007971Y-406567571D01*
X493722257Y-406567571D01*
X493579400Y-406496142D01*
X493507971Y-406424714D01*
X493436542Y-406281857D01*
X493436542Y-405853285D01*
X493507971Y-405710428D01*
X493579400Y-405639000D01*
X493722257Y-405567571D01*
X494007971Y-405567571D01*
X494150828Y-405639000D01*
X495436542Y-406567571D02*
X495436542Y-405781857D01*
X495365114Y-405639000D01*
X495222257Y-405567571D01*
X494936542Y-405567571D01*
X494793685Y-405639000D01*
X495436542Y-406496142D02*
X495293685Y-406567571D01*
X494936542Y-406567571D01*
X494793685Y-406496142D01*
X494722257Y-406353285D01*
X494722257Y-406210428D01*
X494793685Y-406067571D01*
X494936542Y-405996142D01*
X495293685Y-405996142D01*
X495436542Y-405924714D01*
X496793685Y-406567571D02*
X496793685Y-405067571D01*
X496793685Y-406496142D02*
X496650828Y-406567571D01*
X496365114Y-406567571D01*
X496222257Y-406496142D01*
X496150828Y-406424714D01*
X496079400Y-406281857D01*
X496079400Y-405853285D01*
X496150828Y-405710428D01*
X496222257Y-405639000D01*
X496365114Y-405567571D01*
X496650828Y-405567571D01*
X496793685Y-405639000D01*
X499365114Y-405067571D02*
X498650828Y-405067571D01*
X498579400Y-405781857D01*
X498650828Y-405710428D01*
X498793685Y-405639000D01*
X499150828Y-405639000D01*
X499293685Y-405710428D01*
X499365114Y-405781857D01*
X499436542Y-405924714D01*
X499436542Y-406281857D01*
X499365114Y-406424714D01*
X499293685Y-406496142D01*
X499150828Y-406567571D01*
X498793685Y-406567571D01*
X498650828Y-406496142D01*
X498579400Y-406424714D01*
X500079400Y-406424714D02*
X500150828Y-406496142D01*
X500079400Y-406567571D01*
X500007971Y-406496142D01*
X500079400Y-406424714D01*
X500079400Y-406567571D01*
X500865114Y-406567571D02*
X501150828Y-406567571D01*
X501293685Y-406496142D01*
X501365114Y-406424714D01*
X501507971Y-406210428D01*
X501579400Y-405924714D01*
X501579400Y-405353285D01*
X501507971Y-405210428D01*
X501436542Y-405139000D01*
X501293685Y-405067571D01*
X501007971Y-405067571D01*
X500865114Y-405139000D01*
X500793685Y-405210428D01*
X500722257Y-405353285D01*
X500722257Y-405710428D01*
X500793685Y-405853285D01*
X500865114Y-405924714D01*
X501007971Y-405996142D01*
X501293685Y-405996142D01*
X501436542Y-405924714D01*
X501507971Y-405853285D01*
X501579400Y-405710428D01*
X502293685Y-406567571D02*
X502579400Y-406567571D01*
X502722257Y-406496142D01*
X502793685Y-406424714D01*
X502936542Y-406210428D01*
X503007971Y-405924714D01*
X503007971Y-405353285D01*
X502936542Y-405210428D01*
X502865114Y-405139000D01*
X502722257Y-405067571D01*
X502436542Y-405067571D01*
X502293685Y-405139000D01*
X502222257Y-405210428D01*
X502150828Y-405353285D01*
X502150828Y-405710428D01*
X502222257Y-405853285D01*
X502293685Y-405924714D01*
X502436542Y-405996142D01*
X502722257Y-405996142D01*
X502865114Y-405924714D01*
X502936542Y-405853285D01*
X503007971Y-405710428D01*
X503650828Y-406424714D02*
X503722257Y-406496142D01*
X503650828Y-406567571D01*
X503579400Y-406496142D01*
X503650828Y-406424714D01*
X503650828Y-406567571D01*
X504650828Y-405067571D02*
X504793685Y-405067571D01*
X504936542Y-405139000D01*
X505007971Y-405210428D01*
X505079400Y-405353285D01*
X505150828Y-405639000D01*
X505150828Y-405996142D01*
X505079400Y-406281857D01*
X505007971Y-406424714D01*
X504936542Y-406496142D01*
X504793685Y-406567571D01*
X504650828Y-406567571D01*
X504507971Y-406496142D01*
X504436542Y-406424714D01*
X504365114Y-406281857D01*
X504293685Y-405996142D01*
X504293685Y-405639000D01*
X504365114Y-405353285D01*
X504436542Y-405210428D01*
X504507971Y-405139000D01*
X504650828Y-405067571D01*
X505793685Y-405996142D02*
X506936542Y-405996142D01*
X508293685Y-405567571D02*
X508293685Y-406567571D01*
X507650828Y-405567571D02*
X507650828Y-406353285D01*
X507722257Y-406496142D01*
X507865114Y-406567571D01*
X508079400Y-406567571D01*
X508222257Y-406496142D01*
X508293685Y-406424714D01*
X509007971Y-405567571D02*
X509007971Y-406567571D01*
X509007971Y-405710428D02*
X509079400Y-405639000D01*
X509222257Y-405567571D01*
X509436542Y-405567571D01*
X509579400Y-405639000D01*
X509650828Y-405781857D01*
X509650828Y-406567571D01*
X510365114Y-406567571D02*
X510365114Y-405067571D01*
X510507971Y-405996142D02*
X510936542Y-406567571D01*
X510936542Y-405567571D02*
X510365114Y-406139000D01*
X511579400Y-405567571D02*
X511579400Y-406567571D01*
X511579400Y-405710428D02*
X511650828Y-405639000D01*
X511793685Y-405567571D01*
X512007971Y-405567571D01*
X512150828Y-405639000D01*
X512222257Y-405781857D01*
X512222257Y-406567571D01*
X513150828Y-406567571D02*
X513007971Y-406496142D01*
X512936542Y-406424714D01*
X512865114Y-406281857D01*
X512865114Y-405853285D01*
X512936542Y-405710428D01*
X513007971Y-405639000D01*
X513150828Y-405567571D01*
X513365114Y-405567571D01*
X513507971Y-405639000D01*
X513579400Y-405710428D01*
X513650828Y-405853285D01*
X513650828Y-406281857D01*
X513579400Y-406424714D01*
X513507971Y-406496142D01*
X513365114Y-406567571D01*
X513150828Y-406567571D01*
X514150828Y-405567571D02*
X514436542Y-406567571D01*
X514722257Y-405853285D01*
X515007971Y-406567571D01*
X515293685Y-405567571D01*
X515865114Y-405567571D02*
X515865114Y-406567571D01*
X515865114Y-405710428D02*
X515936542Y-405639000D01*
X516079400Y-405567571D01*
X516293685Y-405567571D01*
X516436542Y-405639000D01*
X516507971Y-405781857D01*
X516507971Y-406567571D01*
X517222257Y-405996142D02*
X518365114Y-405996142D01*
X518865114Y-405567571D02*
X519436542Y-405567571D01*
X519079400Y-406567571D02*
X519079400Y-405281857D01*
X519150828Y-405139000D01*
X519293685Y-405067571D01*
X519436542Y-405067571D01*
X520150828Y-405710428D02*
X520007971Y-405639000D01*
X519936542Y-405567571D01*
X519865114Y-405424714D01*
X519865114Y-405353285D01*
X519936542Y-405210428D01*
X520007971Y-405139000D01*
X520150828Y-405067571D01*
X520436542Y-405067571D01*
X520579400Y-405139000D01*
X520650828Y-405210428D01*
X520722257Y-405353285D01*
X520722257Y-405424714D01*
X520650828Y-405567571D01*
X520579400Y-405639000D01*
X520436542Y-405710428D01*
X520150828Y-405710428D01*
X520007971Y-405781857D01*
X519936542Y-405853285D01*
X519865114Y-405996142D01*
X519865114Y-406281857D01*
X519936542Y-406424714D01*
X520007971Y-406496142D01*
X520150828Y-406567571D01*
X520436542Y-406567571D01*
X520579400Y-406496142D01*
X520650828Y-406424714D01*
X520722257Y-406281857D01*
X520722257Y-405996142D01*
X520650828Y-405853285D01*
X520579400Y-405781857D01*
X520436542Y-405710428D01*
X521579400Y-405710428D02*
X521436542Y-405639000D01*
X521365114Y-405567571D01*
X521293685Y-405424714D01*
X521293685Y-405353285D01*
X521365114Y-405210428D01*
X521436542Y-405139000D01*
X521579400Y-405067571D01*
X521865114Y-405067571D01*
X522007971Y-405139000D01*
X522079400Y-405210428D01*
X522150828Y-405353285D01*
X522150828Y-405424714D01*
X522079400Y-405567571D01*
X522007971Y-405639000D01*
X521865114Y-405710428D01*
X521579400Y-405710428D01*
X521436542Y-405781857D01*
X521365114Y-405853285D01*
X521293685Y-405996142D01*
X521293685Y-406281857D01*
X521365114Y-406424714D01*
X521436542Y-406496142D01*
X521579400Y-406567571D01*
X521865114Y-406567571D01*
X522007971Y-406496142D01*
X522079400Y-406424714D01*
X522150828Y-406281857D01*
X522150828Y-405996142D01*
X522079400Y-405853285D01*
X522007971Y-405781857D01*
X521865114Y-405710428D01*
X523436542Y-406567571D02*
X523436542Y-405067571D01*
X523436542Y-406496142D02*
X523293685Y-406567571D01*
X523007971Y-406567571D01*
X522865114Y-406496142D01*
X522793685Y-406424714D01*
X522722257Y-406281857D01*
X522722257Y-405853285D01*
X522793685Y-405710428D01*
X522865114Y-405639000D01*
X523007971Y-405567571D01*
X523293685Y-405567571D01*
X523436542Y-405639000D01*
X524007971Y-405067571D02*
X524936542Y-405067571D01*
X524436542Y-405639000D01*
X524650828Y-405639000D01*
X524793685Y-405710428D01*
X524865114Y-405781857D01*
X524936542Y-405924714D01*
X524936542Y-406281857D01*
X524865114Y-406424714D01*
X524793685Y-406496142D01*
X524650828Y-406567571D01*
X524222257Y-406567571D01*
X524079400Y-406496142D01*
X524007971Y-406424714D01*
X525650828Y-406567571D02*
X525936542Y-406567571D01*
X526079400Y-406496142D01*
X526150828Y-406424714D01*
X526293685Y-406210428D01*
X526365114Y-405924714D01*
X526365114Y-405353285D01*
X526293685Y-405210428D01*
X526222257Y-405139000D01*
X526079400Y-405067571D01*
X525793685Y-405067571D01*
X525650828Y-405139000D01*
X525579400Y-405210428D01*
X525507971Y-405353285D01*
X525507971Y-405710428D01*
X525579400Y-405853285D01*
X525650828Y-405924714D01*
X525793685Y-405996142D01*
X526079400Y-405996142D01*
X526222257Y-405924714D01*
X526293685Y-405853285D01*
X526365114Y-405710428D01*
X527007971Y-406567571D02*
X527007971Y-405067571D01*
X527007971Y-405639000D02*
X527150828Y-405567571D01*
X527436542Y-405567571D01*
X527579400Y-405639000D01*
X527650828Y-405710428D01*
X527722257Y-405853285D01*
X527722257Y-406281857D01*
X527650828Y-406424714D01*
X527579400Y-406496142D01*
X527436542Y-406567571D01*
X527150828Y-406567571D01*
X527007971Y-406496142D01*
X529007971Y-405567571D02*
X529007971Y-406567571D01*
X528650828Y-404996142D02*
X528293685Y-406067571D01*
X529222257Y-406067571D01*
X529579400Y-405567571D02*
X530150828Y-405567571D01*
X529793685Y-406567571D02*
X529793685Y-405281857D01*
X529865114Y-405139000D01*
X530007971Y-405067571D01*
X530150828Y-405067571D01*
X530936542Y-405067571D02*
X531079400Y-405067571D01*
X531222257Y-405139000D01*
X531293685Y-405210428D01*
X531365114Y-405353285D01*
X531436542Y-405639000D01*
X531436542Y-405996142D01*
X531365114Y-406281857D01*
X531293685Y-406424714D01*
X531222257Y-406496142D01*
X531079400Y-406567571D01*
X530936542Y-406567571D01*
X530793685Y-406496142D01*
X530722257Y-406424714D01*
X530650828Y-406281857D01*
X530579400Y-405996142D01*
X530579400Y-405639000D01*
X530650828Y-405353285D01*
X530722257Y-405210428D01*
X530793685Y-405139000D01*
X530936542Y-405067571D01*
X531722257Y-404644000D02*
X533150828Y-404644000D01*
X532865114Y-406567571D02*
X532007971Y-406567571D01*
X532436542Y-406567571D02*
X532436542Y-405067571D01*
X532293685Y-405281857D01*
X532150828Y-405424714D01*
X532007971Y-405496142D01*
X533150828Y-404644000D02*
X534579400Y-404644000D01*
X533436542Y-405210428D02*
X533507971Y-405139000D01*
X533650828Y-405067571D01*
X534007971Y-405067571D01*
X534150828Y-405139000D01*
X534222257Y-405210428D01*
X534293685Y-405353285D01*
X534293685Y-405496142D01*
X534222257Y-405710428D01*
X533365114Y-406567571D01*
X534293685Y-406567571D01*
X534579400Y-404644000D02*
X536007971Y-404644000D01*
X535650828Y-405067571D02*
X534936542Y-405067571D01*
X534865114Y-405781857D01*
X534936542Y-405710428D01*
X535079400Y-405639000D01*
X535436542Y-405639000D01*
X535579400Y-405710428D01*
X535650828Y-405781857D01*
X535722257Y-405924714D01*
X535722257Y-406281857D01*
X535650828Y-406424714D01*
X535579400Y-406496142D01*
X535436542Y-406567571D01*
X535079400Y-406567571D01*
X534936542Y-406496142D01*
X534865114Y-406424714D01*
X537007971Y-405567571D02*
X537007971Y-406567571D01*
X536365114Y-405567571D02*
X536365114Y-406353285D01*
X536436542Y-406496142D01*
X536579400Y-406567571D01*
X536793685Y-406567571D01*
X536936542Y-406496142D01*
X537007971Y-406424714D01*
X537722257Y-406567571D02*
X537722257Y-405067571D01*
X537722257Y-405639000D02*
X537865114Y-405567571D01*
X538150828Y-405567571D01*
X538293685Y-405639000D01*
X538365114Y-405710428D01*
X538436542Y-405853285D01*
X538436542Y-406281857D01*
X538365114Y-406424714D01*
X538293685Y-406496142D01*
X538150828Y-406567571D01*
X537865114Y-406567571D01*
X537722257Y-406496142D01*
X539722257Y-405567571D02*
X539722257Y-406567571D01*
X539079400Y-405567571D02*
X539079400Y-406353285D01*
X539150828Y-406496142D01*
X539293685Y-406567571D01*
X539507971Y-406567571D01*
X539650828Y-406496142D01*
X539722257Y-406424714D01*
X540436542Y-405567571D02*
X540436542Y-406567571D01*
X540436542Y-405710428D02*
X540507971Y-405639000D01*
X540650828Y-405567571D01*
X540865114Y-405567571D01*
X541007971Y-405639000D01*
X541079400Y-405781857D01*
X541079400Y-406567571D01*
X541579400Y-405567571D02*
X542150828Y-405567571D01*
X541793685Y-405067571D02*
X541793685Y-406353285D01*
X541865114Y-406496142D01*
X542007971Y-406567571D01*
X542150828Y-406567571D01*
X543293685Y-405567571D02*
X543293685Y-406567571D01*
X542650828Y-405567571D02*
X542650828Y-406353285D01*
X542722257Y-406496142D01*
X542865114Y-406567571D01*
X543079400Y-406567571D01*
X543222257Y-406496142D01*
X543293685Y-406424714D01*
X543936542Y-405210428D02*
X544007971Y-405139000D01*
X544150828Y-405067571D01*
X544507971Y-405067571D01*
X544650828Y-405139000D01*
X544722257Y-405210428D01*
X544793685Y-405353285D01*
X544793685Y-405496142D01*
X544722257Y-405710428D01*
X543865114Y-406567571D01*
X544793685Y-406567571D01*
X545722257Y-405067571D02*
X545865114Y-405067571D01*
X546007971Y-405139000D01*
X546079400Y-405210428D01*
X546150828Y-405353285D01*
X546222257Y-405639000D01*
X546222257Y-405996142D01*
X546150828Y-406281857D01*
X546079400Y-406424714D01*
X546007971Y-406496142D01*
X545865114Y-406567571D01*
X545722257Y-406567571D01*
X545579400Y-406496142D01*
X545507971Y-406424714D01*
X545436542Y-406281857D01*
X545365114Y-405996142D01*
X545365114Y-405639000D01*
X545436542Y-405353285D01*
X545507971Y-405210428D01*
X545579400Y-405139000D01*
X545722257Y-405067571D01*
X546865114Y-406424714D02*
X546936542Y-406496142D01*
X546865114Y-406567571D01*
X546793685Y-406496142D01*
X546865114Y-406424714D01*
X546865114Y-406567571D01*
X547865114Y-405067571D02*
X548007971Y-405067571D01*
X548150828Y-405139000D01*
X548222257Y-405210428D01*
X548293685Y-405353285D01*
X548365114Y-405639000D01*
X548365114Y-405996142D01*
X548293685Y-406281857D01*
X548222257Y-406424714D01*
X548150828Y-406496142D01*
X548007971Y-406567571D01*
X547865114Y-406567571D01*
X547722257Y-406496142D01*
X547650828Y-406424714D01*
X547579400Y-406281857D01*
X547507971Y-405996142D01*
X547507971Y-405639000D01*
X547579400Y-405353285D01*
X547650828Y-405210428D01*
X547722257Y-405139000D01*
X547865114Y-405067571D01*
X549650828Y-405567571D02*
X549650828Y-406567571D01*
X549293685Y-404996142D02*
X548936542Y-406067571D01*
X549865114Y-406067571D01*
X550436542Y-406424714D02*
X550507971Y-406496142D01*
X550436542Y-406567571D01*
X550365114Y-406496142D01*
X550436542Y-406424714D01*
X550436542Y-406567571D01*
X551936542Y-406567571D02*
X551079400Y-406567571D01*
X551507971Y-406567571D02*
X551507971Y-405067571D01*
X551365114Y-405281857D01*
X551222257Y-405424714D01*
X551079400Y-405496142D01*
D10*
D11*
X474004400Y-401489000D02*
X582004400Y-401489000D01*
D10*
D12*
X561413685Y-403767571D02*
X560913685Y-403053285D01*
X560556542Y-403767571D02*
X560556542Y-402267571D01*
X561127971Y-402267571D01*
X561270828Y-402339000D01*
X561342257Y-402410428D01*
X561413685Y-402553285D01*
X561413685Y-402767571D01*
X561342257Y-402910428D01*
X561270828Y-402981857D01*
X561127971Y-403053285D01*
X560556542Y-403053285D01*
X562627971Y-403696142D02*
X562485114Y-403767571D01*
X562199400Y-403767571D01*
X562056542Y-403696142D01*
X561985114Y-403553285D01*
X561985114Y-402981857D01*
X562056542Y-402839000D01*
X562199400Y-402767571D01*
X562485114Y-402767571D01*
X562627971Y-402839000D01*
X562699400Y-402981857D01*
X562699400Y-403124714D01*
X561985114Y-403267571D01*
X563199400Y-402767571D02*
X563556542Y-403767571D01*
X563913685Y-402767571D01*
X564485114Y-403624714D02*
X564556542Y-403696142D01*
X564485114Y-403767571D01*
X564413685Y-403696142D01*
X564485114Y-403624714D01*
X564485114Y-403767571D01*
X564485114Y-402839000D02*
X564556542Y-402910428D01*
X564485114Y-402981857D01*
X564413685Y-402910428D01*
X564485114Y-402839000D01*
X564485114Y-402981857D01*
D10*
D11*
X475365114Y-403696142D02*
X475579400Y-403767571D01*
X475936542Y-403767571D01*
X476079400Y-403696142D01*
X476150828Y-403624714D01*
X476222257Y-403481857D01*
X476222257Y-403339000D01*
X476150828Y-403196142D01*
X476079400Y-403124714D01*
X475936542Y-403053285D01*
X475650828Y-402981857D01*
X475507971Y-402910428D01*
X475436542Y-402839000D01*
X475365114Y-402696142D01*
X475365114Y-402553285D01*
X475436542Y-402410428D01*
X475507971Y-402339000D01*
X475650828Y-402267571D01*
X476007971Y-402267571D01*
X476222257Y-402339000D01*
X476865114Y-403767571D02*
X476865114Y-402767571D01*
X476865114Y-402267571D02*
X476793685Y-402339000D01*
X476865114Y-402410428D01*
X476936542Y-402339000D01*
X476865114Y-402267571D01*
X476865114Y-402410428D01*
X477436542Y-402767571D02*
X478222257Y-402767571D01*
X477436542Y-403767571D01*
X478222257Y-403767571D01*
X479365114Y-403696142D02*
X479222257Y-403767571D01*
X478936542Y-403767571D01*
X478793685Y-403696142D01*
X478722257Y-403553285D01*
X478722257Y-402981857D01*
X478793685Y-402839000D01*
X478936542Y-402767571D01*
X479222257Y-402767571D01*
X479365114Y-402839000D01*
X479436542Y-402981857D01*
X479436542Y-403124714D01*
X478722257Y-403267571D01*
X480079400Y-403624714D02*
X480150828Y-403696142D01*
X480079400Y-403767571D01*
X480007971Y-403696142D01*
X480079400Y-403624714D01*
X480079400Y-403767571D01*
X480079400Y-402839000D02*
X480150828Y-402910428D01*
X480079400Y-402981857D01*
X480007971Y-402910428D01*
X480079400Y-402839000D01*
X480079400Y-402981857D01*
X481865114Y-403339000D02*
X482579400Y-403339000D01*
X481722257Y-403767571D02*
X482222257Y-402267571D01*
X482722257Y-403767571D01*
X483150828Y-402410428D02*
X483222257Y-402339000D01*
X483365114Y-402267571D01*
X483722257Y-402267571D01*
X483865114Y-402339000D01*
X483936542Y-402410428D01*
X484007971Y-402553285D01*
X484007971Y-402696142D01*
X483936542Y-402910428D01*
X483079400Y-403767571D01*
X484007971Y-403767571D01*
D10*
D11*
X560436542Y-406567571D02*
X560436542Y-405067571D01*
X561793685Y-406567571D02*
X561793685Y-405067571D01*
X561793685Y-406496142D02*
X561650828Y-406567571D01*
X561365114Y-406567571D01*
X561222257Y-406496142D01*
X561150828Y-406424714D01*
X561079400Y-406281857D01*
X561079400Y-405853285D01*
X561150828Y-405710428D01*
X561222257Y-405639000D01*
X561365114Y-405567571D01*
X561650828Y-405567571D01*
X561793685Y-405639000D01*
X562507971Y-406424714D02*
X562579400Y-406496142D01*
X562507971Y-406567571D01*
X562436542Y-406496142D01*
X562507971Y-406424714D01*
X562507971Y-406567571D01*
X562507971Y-405639000D02*
X562579400Y-405710428D01*
X562507971Y-405781857D01*
X562436542Y-405710428D01*
X562507971Y-405639000D01*
X562507971Y-405781857D01*
X565150828Y-406567571D02*
X564293685Y-406567571D01*
X564722257Y-406567571D02*
X564722257Y-405067571D01*
X564579400Y-405281857D01*
X564436542Y-405424714D01*
X564293685Y-405496142D01*
X566865114Y-404996142D02*
X565579400Y-406924714D01*
X568150828Y-406567571D02*
X567293685Y-406567571D01*
X567722257Y-406567571D02*
X567722257Y-405067571D01*
X567579400Y-405281857D01*
X567436542Y-405424714D01*
X567293685Y-405496142D01*
D10*
D11*
X474004400Y-397489000D02*
X582004400Y-397489000D01*
D10*
D13*
X475716780Y-398193761D02*
X476859638Y-398193761D01*
X476038209Y-400193761D02*
X476288209Y-398193761D01*
X477276304Y-400193761D02*
X477442971Y-398860428D01*
X477526304Y-398193761D02*
X477419161Y-398289000D01*
X477502495Y-398384238D01*
X477609638Y-398289000D01*
X477526304Y-398193761D01*
X477502495Y-398384238D01*
X478109638Y-398860428D02*
X478871542Y-398860428D01*
X478478685Y-398193761D02*
X478264400Y-399908047D01*
X478335828Y-400098523D01*
X478514400Y-400193761D01*
X478704876Y-400193761D01*
X479657257Y-400193761D02*
X479478685Y-400098523D01*
X479407257Y-399908047D01*
X479621542Y-398193761D01*
X481192971Y-400098523D02*
X480990590Y-400193761D01*
X480609638Y-400193761D01*
X480431066Y-400098523D01*
X480359638Y-399908047D01*
X480454876Y-399146142D01*
X480573923Y-398955666D01*
X480776304Y-398860428D01*
X481157257Y-398860428D01*
X481335828Y-398955666D01*
X481407257Y-399146142D01*
X481383447Y-399336619D01*
X480407257Y-399527095D01*
X482157257Y-400003285D02*
X482240590Y-400098523D01*
X482133447Y-400193761D01*
X482050114Y-400098523D01*
X482157257Y-400003285D01*
X482133447Y-400193761D01*
X482288209Y-398955666D02*
X482371542Y-399050904D01*
X482264400Y-399146142D01*
X482181066Y-399050904D01*
X482288209Y-398955666D01*
X482264400Y-399146142D01*
D10*
D11*
X475936542Y-395581857D02*
X475436542Y-395581857D01*
X475436542Y-396367571D02*
X475436542Y-394867571D01*
X476150828Y-394867571D01*
X476722257Y-396367571D02*
X476722257Y-395367571D01*
X476722257Y-394867571D02*
X476650828Y-394939000D01*
X476722257Y-395010428D01*
X476793685Y-394939000D01*
X476722257Y-394867571D01*
X476722257Y-395010428D01*
X477650828Y-396367571D02*
X477507971Y-396296142D01*
X477436542Y-396153285D01*
X477436542Y-394867571D01*
X478793685Y-396296142D02*
X478650828Y-396367571D01*
X478365114Y-396367571D01*
X478222257Y-396296142D01*
X478150828Y-396153285D01*
X478150828Y-395581857D01*
X478222257Y-395439000D01*
X478365114Y-395367571D01*
X478650828Y-395367571D01*
X478793685Y-395439000D01*
X478865114Y-395581857D01*
X478865114Y-395724714D01*
X478150828Y-395867571D01*
X479507971Y-396224714D02*
X479579400Y-396296142D01*
X479507971Y-396367571D01*
X479436542Y-396296142D01*
X479507971Y-396224714D01*
X479507971Y-396367571D01*
X479507971Y-395439000D02*
X479579400Y-395510428D01*
X479507971Y-395581857D01*
X479436542Y-395510428D01*
X479507971Y-395439000D01*
X479507971Y-395581857D01*
X481150828Y-394867571D02*
X482007971Y-394867571D01*
X481579400Y-396367571D02*
X481579400Y-394867571D01*
X482507971Y-396367571D02*
X482507971Y-395367571D01*
X482507971Y-395653285D02*
X482579400Y-395510428D01*
X482650828Y-395439000D01*
X482793685Y-395367571D01*
X482936542Y-395367571D01*
X484079400Y-396367571D02*
X484079400Y-395581857D01*
X484007971Y-395439000D01*
X483865114Y-395367571D01*
X483579400Y-395367571D01*
X483436542Y-395439000D01*
X484079400Y-396296142D02*
X483936542Y-396367571D01*
X483579400Y-396367571D01*
X483436542Y-396296142D01*
X483365114Y-396153285D01*
X483365114Y-396010428D01*
X483436542Y-395867571D01*
X483579400Y-395796142D01*
X483936542Y-395796142D01*
X484079400Y-395724714D01*
X484793685Y-396367571D02*
X484793685Y-394867571D01*
X484936542Y-395796142D02*
X485365114Y-396367571D01*
X485365114Y-395367571D02*
X484793685Y-395939000D01*
X485793685Y-395367571D02*
X486365114Y-395367571D01*
X486007971Y-394867571D02*
X486007971Y-396153285D01*
X486079400Y-396296142D01*
X486222257Y-396367571D01*
X486365114Y-396367571D01*
X487079400Y-396367571D02*
X486936542Y-396296142D01*
X486865114Y-396224714D01*
X486793685Y-396081857D01*
X486793685Y-395653285D01*
X486865114Y-395510428D01*
X486936542Y-395439000D01*
X487079400Y-395367571D01*
X487293685Y-395367571D01*
X487436542Y-395439000D01*
X487507971Y-395510428D01*
X487579400Y-395653285D01*
X487579400Y-396081857D01*
X487507971Y-396224714D01*
X487436542Y-396296142D01*
X487293685Y-396367571D01*
X487079400Y-396367571D01*
X488222257Y-396367571D02*
X488222257Y-395367571D01*
X488222257Y-395653285D02*
X488293685Y-395510428D01*
X488365114Y-395439000D01*
X488507971Y-395367571D01*
X488650828Y-395367571D01*
X489150828Y-396367571D02*
X489150828Y-395367571D01*
X489150828Y-394867571D02*
X489079400Y-394939000D01*
X489150828Y-395010428D01*
X489222257Y-394939000D01*
X489150828Y-394867571D01*
X489150828Y-395010428D01*
X489865114Y-395367571D02*
X489865114Y-396367571D01*
X489865114Y-395510428D02*
X489936542Y-395439000D01*
X490079400Y-395367571D01*
X490293685Y-395367571D01*
X490436542Y-395439000D01*
X490507971Y-395581857D01*
X490507971Y-396367571D01*
X491436542Y-396367571D02*
X491293685Y-396296142D01*
X491222257Y-396224714D01*
X491150828Y-396081857D01*
X491150828Y-395653285D01*
X491222257Y-395510428D01*
X491293685Y-395439000D01*
X491436542Y-395367571D01*
X491650828Y-395367571D01*
X491793685Y-395439000D01*
X491865114Y-395510428D01*
X491936542Y-395653285D01*
X491936542Y-396081857D01*
X491865114Y-396224714D01*
X491793685Y-396296142D01*
X491650828Y-396367571D01*
X491436542Y-396367571D01*
X492579400Y-396224714D02*
X492650828Y-396296142D01*
X492579400Y-396367571D01*
X492507971Y-396296142D01*
X492579400Y-396224714D01*
X492579400Y-396367571D01*
X493293685Y-396367571D02*
X493293685Y-394867571D01*
X493436542Y-395796142D02*
X493865114Y-396367571D01*
X493865114Y-395367571D02*
X493293685Y-395939000D01*
X494507971Y-396367571D02*
X494507971Y-395367571D01*
X494507971Y-394867571D02*
X494436542Y-394939000D01*
X494507971Y-395010428D01*
X494579400Y-394939000D01*
X494507971Y-394867571D01*
X494507971Y-395010428D01*
X495865114Y-396296142D02*
X495722257Y-396367571D01*
X495436542Y-396367571D01*
X495293685Y-396296142D01*
X495222257Y-396224714D01*
X495150828Y-396081857D01*
X495150828Y-395653285D01*
X495222257Y-395510428D01*
X495293685Y-395439000D01*
X495436542Y-395367571D01*
X495722257Y-395367571D01*
X495865114Y-395439000D01*
X497150828Y-396367571D02*
X497150828Y-395581857D01*
X497079400Y-395439000D01*
X496936542Y-395367571D01*
X496650828Y-395367571D01*
X496507971Y-395439000D01*
X497150828Y-396296142D02*
X497007971Y-396367571D01*
X496650828Y-396367571D01*
X496507971Y-396296142D01*
X496436542Y-396153285D01*
X496436542Y-396010428D01*
X496507971Y-395867571D01*
X496650828Y-395796142D01*
X497007971Y-395796142D01*
X497150828Y-395724714D01*
X498507971Y-396367571D02*
X498507971Y-394867571D01*
X498507971Y-396296142D02*
X498365114Y-396367571D01*
X498079400Y-396367571D01*
X497936542Y-396296142D01*
X497865114Y-396224714D01*
X497793685Y-396081857D01*
X497793685Y-395653285D01*
X497865114Y-395510428D01*
X497936542Y-395439000D01*
X498079400Y-395367571D01*
X498365114Y-395367571D01*
X498507971Y-395439000D01*
X498865114Y-396510428D02*
X500007971Y-396510428D01*
X500365114Y-395367571D02*
X500365114Y-396867571D01*
X500365114Y-395439000D02*
X500507971Y-395367571D01*
X500793685Y-395367571D01*
X500936542Y-395439000D01*
X501007971Y-395510428D01*
X501079400Y-395653285D01*
X501079400Y-396081857D01*
X501007971Y-396224714D01*
X500936542Y-396296142D01*
X500793685Y-396367571D01*
X500507971Y-396367571D01*
X500365114Y-396296142D01*
X502365114Y-396296142D02*
X502222257Y-396367571D01*
X501936542Y-396367571D01*
X501793685Y-396296142D01*
X501722257Y-396224714D01*
X501650828Y-396081857D01*
X501650828Y-395653285D01*
X501722257Y-395510428D01*
X501793685Y-395439000D01*
X501936542Y-395367571D01*
X502222257Y-395367571D01*
X502365114Y-395439000D01*
X503007971Y-396367571D02*
X503007971Y-394867571D01*
X503007971Y-395439000D02*
X503150828Y-395367571D01*
X503436542Y-395367571D01*
X503579400Y-395439000D01*
X503650828Y-395510428D01*
X503722257Y-395653285D01*
X503722257Y-396081857D01*
X503650828Y-396224714D01*
X503579400Y-396296142D01*
X503436542Y-396367571D01*
X503150828Y-396367571D01*
X503007971Y-396296142D01*
D10*
D11*
X474004400Y-391489000D02*
X582004400Y-391489000D01*
D10*
D11*
X475365114Y-393596142D02*
X475579400Y-393667571D01*
X475936542Y-393667571D01*
X476079400Y-393596142D01*
X476150828Y-393524714D01*
X476222257Y-393381857D01*
X476222257Y-393239000D01*
X476150828Y-393096142D01*
X476079400Y-393024714D01*
X475936542Y-392953285D01*
X475650828Y-392881857D01*
X475507971Y-392810428D01*
X475436542Y-392739000D01*
X475365114Y-392596142D01*
X475365114Y-392453285D01*
X475436542Y-392310428D01*
X475507971Y-392239000D01*
X475650828Y-392167571D01*
X476007971Y-392167571D01*
X476222257Y-392239000D01*
X476865114Y-393667571D02*
X476865114Y-392167571D01*
X477507971Y-393667571D02*
X477507971Y-392881857D01*
X477436542Y-392739000D01*
X477293685Y-392667571D01*
X477079400Y-392667571D01*
X476936542Y-392739000D01*
X476865114Y-392810428D01*
X478793685Y-393596142D02*
X478650828Y-393667571D01*
X478365114Y-393667571D01*
X478222257Y-393596142D01*
X478150828Y-393453285D01*
X478150828Y-392881857D01*
X478222257Y-392739000D01*
X478365114Y-392667571D01*
X478650828Y-392667571D01*
X478793685Y-392739000D01*
X478865114Y-392881857D01*
X478865114Y-393024714D01*
X478150828Y-393167571D01*
X480079400Y-393596142D02*
X479936542Y-393667571D01*
X479650828Y-393667571D01*
X479507971Y-393596142D01*
X479436542Y-393453285D01*
X479436542Y-392881857D01*
X479507971Y-392739000D01*
X479650828Y-392667571D01*
X479936542Y-392667571D01*
X480079400Y-392739000D01*
X480150828Y-392881857D01*
X480150828Y-393024714D01*
X479436542Y-393167571D01*
X480579400Y-392667571D02*
X481150828Y-392667571D01*
X480793685Y-392167571D02*
X480793685Y-393453285D01*
X480865114Y-393596142D01*
X481007971Y-393667571D01*
X481150828Y-393667571D01*
X481650828Y-393524714D02*
X481722257Y-393596142D01*
X481650828Y-393667571D01*
X481579400Y-393596142D01*
X481650828Y-393524714D01*
X481650828Y-393667571D01*
X481650828Y-392739000D02*
X481722257Y-392810428D01*
X481650828Y-392881857D01*
X481579400Y-392810428D01*
X481650828Y-392739000D01*
X481650828Y-392881857D01*
D10*
D12*
D10*
D11*
D10*
D11*
D10*
D11*
D10*
D11*
D10*
D11*
X494004400Y-401489000D02*
X494004400Y-404489000D01*
D10*
D11*
X558004400Y-401489000D02*
X558004400Y-407989000D01*
D14*
%TO.C,SW11*%
X390422750Y-208016200D02*
G75*
G03*
X390422750Y-208016200I-5939697J0D01*
G01*
%TO.C,SW7*%
X149863897Y-183478800D02*
G75*
G03*
X149863897Y-183478800I-5939697J0D01*
G01*
%TO.C,SW1*%
X99903897Y-208438800D02*
G75*
G03*
X99903897Y-208438800I-5939697J0D01*
G01*
%TO.C,SW2*%
X124943897Y-208478800D02*
G75*
G03*
X124943897Y-208478800I-5939697J0D01*
G01*
%TO.C,SW10*%
X365479950Y-208241600D02*
G75*
G03*
X365479950Y-208241600I-5939697J0D01*
G01*
%TO.C,SW12*%
X415263950Y-208265600D02*
G75*
G03*
X415263950Y-208265600I-5939697J0D01*
G01*
%TO.C,SW8*%
X174983897Y-183598800D02*
G75*
G03*
X174983897Y-183598800I-5939697J0D01*
G01*
%TO.C,SW3*%
X149949350Y-208358800D02*
G75*
G03*
X149949350Y-208358800I-5939697J0D01*
G01*
%TO.C,SW4*%
X174859350Y-208578800D02*
G75*
G03*
X174859350Y-208578800I-5939697J0D01*
G01*
%TO.C,SW16*%
X415416350Y-183073400D02*
G75*
G03*
X415416350Y-183073400I-5939697J0D01*
G01*
%TO.C,SW15*%
X390371950Y-183073400D02*
G75*
G03*
X390371950Y-183073400I-5939697J0D01*
G01*
%TO.C,SW6*%
X124899350Y-183498800D02*
G75*
G03*
X124899350Y-183498800I-5939697J0D01*
G01*
%TO.C,SW5*%
X99949350Y-183528800D02*
G75*
G03*
X99949350Y-183528800I-5939697J0D01*
G01*
%TO.C,SW13*%
X340333950Y-183149600D02*
G75*
G03*
X340333950Y-183149600I-5939697J0D01*
G01*
%TO.C,SW9*%
X340384750Y-208117800D02*
G75*
G03*
X340384750Y-208117800I-5939697J0D01*
G01*
%TO.C,SW14*%
X365352950Y-183373600D02*
G75*
G03*
X365352950Y-183373600I-5939697J0D01*
G01*
%TD*%
D15*
%TO.C,VUL2D2*%
X240057200Y-194668800D03*
D16*
X240057200Y-192128800D03*
%TD*%
D15*
%TO.C,VUMASRD3*%
X299919600Y-119076800D03*
D16*
X299919600Y-116536800D03*
%TD*%
D17*
%TO.C,SW25*%
X132007200Y-88872800D03*
X125507200Y-88872800D03*
X132007200Y-93372800D03*
X125507200Y-93372800D03*
%TD*%
D15*
%TO.C,VUMASLD1*%
X287859600Y-131076800D03*
D16*
X287859600Y-128536800D03*
%TD*%
D17*
%TO.C,SW27*%
X343200000Y-318650000D03*
X336700000Y-318650000D03*
X343200000Y-323150000D03*
X336700000Y-323150000D03*
%TD*%
D18*
%TO.C,RV20*%
X230407200Y-159872800D03*
X221607200Y-159872800D03*
D16*
X228507200Y-166872800D03*
X226007200Y-166872800D03*
X223507200Y-166872800D03*
%TD*%
D15*
%TO.C,VUMASRD7*%
X299919600Y-95076800D03*
D16*
X299919600Y-92536800D03*
%TD*%
D17*
%TO.C,RV2*%
X225717200Y-329392800D03*
X225717200Y-296392800D03*
D19*
X226987200Y-285460800D03*
X221907200Y-285460800D03*
X224447200Y-285460800D03*
D20*
X229527200Y-285460800D03*
D19*
X222017200Y-340324800D03*
X227097200Y-340324800D03*
%TD*%
D18*
%TO.C,RV11*%
X352531200Y-119426800D03*
X343731200Y-119426800D03*
D16*
X350631200Y-126426800D03*
X348131200Y-126426800D03*
X345631200Y-126426800D03*
%TD*%
D15*
%TO.C,VUL2D4*%
X240057200Y-182668800D03*
D16*
X240057200Y-180128800D03*
%TD*%
D17*
%TO.C,SW29*%
X373850000Y-332200000D03*
X380350000Y-332200000D03*
X380350000Y-336700000D03*
X373850000Y-336700000D03*
%TD*%
D18*
%TO.C,RV28*%
X221607200Y-89922800D03*
X230407200Y-89922800D03*
D16*
X228507200Y-96922800D03*
X226007200Y-96922800D03*
X223507200Y-96922800D03*
%TD*%
D18*
%TO.C,RV7*%
X195407200Y-229922800D03*
X186607200Y-229922800D03*
D16*
X193507200Y-236922800D03*
X191007200Y-236922800D03*
X188507200Y-236922800D03*
%TD*%
D15*
%TO.C,VUL1D7*%
X205117200Y-164938800D03*
D16*
X205117200Y-162398800D03*
%TD*%
D17*
%TO.C,SW35*%
X390000000Y-89340000D03*
X383500000Y-89340000D03*
X390000000Y-93840000D03*
X383500000Y-93840000D03*
%TD*%
%TO.C,SW42*%
X263001200Y-70110800D03*
X256501200Y-70110800D03*
X263001200Y-74610800D03*
X256501200Y-74610800D03*
%TD*%
D15*
%TO.C,VUL1D8*%
X205117200Y-158938800D03*
D16*
X205117200Y-156398800D03*
%TD*%
D21*
%TO.C,VUL3R2*%
X278270000Y-194810000D03*
X278270000Y-191710000D03*
%TD*%
D22*
%TO.C,BCUELD1*%
X100475000Y-286200000D03*
D16*
X103015000Y-286200000D03*
%TD*%
D17*
%TO.C,SW39*%
X263257200Y-256622800D03*
X256757200Y-256622800D03*
X263257200Y-261122800D03*
X256757200Y-261122800D03*
%TD*%
D23*
%TO.C,SW44*%
X387234000Y-70109200D03*
D17*
X387234000Y-75109200D03*
X387234000Y-72609200D03*
D24*
X394734000Y-78209200D03*
X394734000Y-67009200D03*
D17*
X401734000Y-75109200D03*
X401734000Y-70109200D03*
%TD*%
D15*
%TO.C,VUL2D5*%
X240057200Y-176668800D03*
D16*
X240057200Y-174128800D03*
%TD*%
D25*
%TO.C,U-LEDS1*%
X237325000Y-246715000D03*
X238595000Y-246715000D03*
X239865000Y-246715000D03*
X241135000Y-246715000D03*
X242405000Y-246715000D03*
X243675000Y-246715000D03*
X244945000Y-246715000D03*
X246215000Y-246715000D03*
X246215000Y-241565000D03*
X244945000Y-241565000D03*
X243675000Y-241565000D03*
X242405000Y-241565000D03*
X241135000Y-241565000D03*
X239865000Y-241565000D03*
X238595000Y-241565000D03*
X237325000Y-241565000D03*
%TD*%
D15*
%TO.C,VUL1D1*%
X205117200Y-200938800D03*
D16*
X205117200Y-198398800D03*
%TD*%
D26*
%TO.C,VUL1R8*%
X208090000Y-158900000D03*
X211190000Y-158900000D03*
%TD*%
D21*
%TO.C,VUL3R1*%
X278190000Y-200680000D03*
X278190000Y-197580000D03*
%TD*%
D26*
%TO.C,VUL1R7*%
X208230000Y-164810000D03*
X211330000Y-164810000D03*
%TD*%
%TO.C,VUL3R5*%
X277310000Y-176730000D03*
X280410000Y-176730000D03*
%TD*%
D15*
%TO.C,VUL1D5*%
X205117200Y-176938800D03*
D16*
X205117200Y-174398800D03*
%TD*%
D18*
%TO.C,RV9*%
X264407200Y-229922800D03*
X255607200Y-229922800D03*
D16*
X262507200Y-236922800D03*
X260007200Y-236922800D03*
X257507200Y-236922800D03*
%TD*%
D27*
%TO.C,PADL-D8*%
X166536200Y-182092800D03*
X166536200Y-185292800D03*
X171436200Y-185292800D03*
X171436200Y-182092800D03*
%TD*%
D17*
%TO.C,SW19*%
X140600000Y-332100000D03*
X134100000Y-332100000D03*
X134100000Y-336600000D03*
X140600000Y-336600000D03*
%TD*%
%TO.C,SW41*%
X222719200Y-70110800D03*
X229219200Y-70110800D03*
X229219200Y-74610800D03*
X222719200Y-74610800D03*
%TD*%
D18*
%TO.C,RV27*%
X186607200Y-89922800D03*
X195407200Y-89922800D03*
D16*
X193507200Y-96922800D03*
X191007200Y-96922800D03*
X188507200Y-96922800D03*
%TD*%
D15*
%TO.C,VUMASLD4*%
X287859600Y-113076800D03*
D16*
X287859600Y-110536800D03*
%TD*%
D27*
%TO.C,PADR-D3*%
X381916600Y-206451600D03*
X381916600Y-209651600D03*
X386816600Y-209651600D03*
X386816600Y-206451600D03*
%TD*%
D26*
%TO.C,VUL1R3*%
X207960000Y-189020000D03*
X211060000Y-189020000D03*
%TD*%
D18*
%TO.C,RV8*%
X221607200Y-229922800D03*
X230407200Y-229922800D03*
D16*
X228507200Y-236922800D03*
X226007200Y-236922800D03*
X223507200Y-236922800D03*
%TD*%
D26*
%TO.C,VUL2R2*%
X242900000Y-194690000D03*
X246000000Y-194690000D03*
%TD*%
D15*
%TO.C,VUMASLD5*%
X287859600Y-107076800D03*
D16*
X287859600Y-104536800D03*
%TD*%
D17*
%TO.C,SW17*%
X98935400Y-318588000D03*
X105435400Y-318588000D03*
X98935400Y-323088000D03*
X105435400Y-323088000D03*
%TD*%
D15*
%TO.C,VUL3D3*%
X274117200Y-188668800D03*
D16*
X274117200Y-186128800D03*
%TD*%
D18*
%TO.C,RV29*%
X264407200Y-89922800D03*
X255607200Y-89922800D03*
D16*
X262507200Y-96922800D03*
X260007200Y-96922800D03*
X257507200Y-96922800D03*
%TD*%
D27*
%TO.C,PADR-D6*%
X356973800Y-181914800D03*
X356973800Y-185114800D03*
X361873800Y-185114800D03*
X361873800Y-181914800D03*
%TD*%
D15*
%TO.C,VUMASRD5*%
X299919600Y-107076800D03*
D16*
X299919600Y-104536800D03*
%TD*%
D28*
%TO.C,UVU-MASTER-R1*%
X298145000Y-135925000D03*
X298145000Y-137195000D03*
X298145000Y-138465000D03*
X298145000Y-139735000D03*
X298145000Y-141005000D03*
X298145000Y-142275000D03*
X298145000Y-143545000D03*
X298145000Y-144815000D03*
X303295000Y-144815000D03*
X303295000Y-143545000D03*
X303295000Y-142275000D03*
X303295000Y-141005000D03*
X303295000Y-139735000D03*
X303295000Y-138465000D03*
X303295000Y-137195000D03*
X303295000Y-135925000D03*
%TD*%
D17*
%TO.C,SW37*%
X187757200Y-256622800D03*
X194257200Y-256622800D03*
X187757200Y-261122800D03*
X194257200Y-261122800D03*
%TD*%
D15*
%TO.C,VUL3D2*%
X274117200Y-194668800D03*
D16*
X274117200Y-192128800D03*
%TD*%
D18*
%TO.C,RV14*%
X230407200Y-194922800D03*
X221607200Y-194922800D03*
D16*
X228507200Y-201922800D03*
X226007200Y-201922800D03*
X223507200Y-201922800D03*
%TD*%
D17*
%TO.C,SW20*%
X134050000Y-280100000D03*
X140550000Y-280100000D03*
X140550000Y-284600000D03*
X134050000Y-284600000D03*
%TD*%
D15*
%TO.C,VUMASLD7*%
X287859600Y-95076800D03*
D16*
X287859600Y-92536800D03*
%TD*%
D29*
%TO.C,TB1*%
X130124200Y-232740200D03*
X132664200Y-232740200D03*
X135204200Y-232740200D03*
X137744200Y-232740200D03*
%TD*%
D26*
%TO.C,VUL3R8*%
X277110000Y-158690000D03*
X280210000Y-158690000D03*
%TD*%
%TO.C,VUL3R6*%
X277290000Y-170740000D03*
X280390000Y-170740000D03*
%TD*%
D30*
%TO.C,XA1*%
X315666700Y-81849800D03*
X315666700Y-89469800D03*
X315666700Y-92009800D03*
X363926700Y-147889800D03*
X363926700Y-150429800D03*
X315666700Y-104709800D03*
X315666700Y-107249800D03*
X315666700Y-109789800D03*
X315666700Y-112329800D03*
X315666700Y-114869800D03*
X315666700Y-117409800D03*
X315666700Y-119949800D03*
X315666700Y-122489800D03*
X315666700Y-127569800D03*
X315666700Y-130109800D03*
X315666700Y-132649800D03*
X315666700Y-135189800D03*
X315666700Y-137729800D03*
X315666700Y-140269800D03*
X315666700Y-142809800D03*
X315666700Y-145349800D03*
X363926700Y-77785800D03*
X363926700Y-117409800D03*
X363926700Y-114869800D03*
X363926700Y-112329800D03*
X363926700Y-109789800D03*
X363926700Y-107249800D03*
X363926700Y-104709800D03*
X363926700Y-102169800D03*
X363926700Y-99629800D03*
X363926700Y-95565800D03*
X363926700Y-93025800D03*
X363926700Y-90485800D03*
X363926700Y-87945800D03*
X363926700Y-85405800D03*
X363926700Y-82865800D03*
X363926700Y-122489800D03*
X363926700Y-125029800D03*
X363926700Y-127569800D03*
X363926700Y-130109800D03*
X363926700Y-132649800D03*
X363926700Y-135189800D03*
X363926700Y-137729800D03*
X363926700Y-140269800D03*
X361386700Y-147889800D03*
X361386700Y-150429800D03*
X358846700Y-147889800D03*
X358846700Y-150429800D03*
X356306700Y-147889800D03*
X356306700Y-150429800D03*
X353766700Y-147889800D03*
X353766700Y-150429800D03*
X351226700Y-147889800D03*
X351226700Y-150429800D03*
X348686700Y-147889800D03*
X348686700Y-150429800D03*
X346146700Y-147889800D03*
X346146700Y-150429800D03*
X343606700Y-147889800D03*
X343606700Y-150429800D03*
X341066700Y-147889800D03*
X341066700Y-150429800D03*
X338526700Y-147889800D03*
X338526700Y-150429800D03*
X335986700Y-147889800D03*
X335986700Y-150429800D03*
X333446700Y-147889800D03*
X333446700Y-150429800D03*
X330906700Y-147889800D03*
X330906700Y-150429800D03*
X328366700Y-147889800D03*
X328366700Y-150429800D03*
X325826700Y-147889800D03*
X325826700Y-150429800D03*
X323286700Y-147889800D03*
X323286700Y-150429800D03*
X363926700Y-80325800D03*
X315666700Y-94549800D03*
X315666700Y-97089800D03*
X320746700Y-147889800D03*
X320746700Y-150429800D03*
X315666700Y-84389800D03*
X315666700Y-86929800D03*
X363926700Y-72705800D03*
X363926700Y-75245800D03*
X315666700Y-99629800D03*
%TD*%
D22*
%TO.C,BHPL1D1*%
X189595200Y-252410800D03*
D16*
X192135200Y-252410800D03*
%TD*%
D17*
%TO.C,SW33*%
X376718200Y-134855400D03*
X383218200Y-134855400D03*
X383218200Y-139355400D03*
X376718200Y-139355400D03*
%TD*%
D18*
%TO.C,RV24*%
X195407200Y-124922800D03*
X186607200Y-124922800D03*
D16*
X193507200Y-131922800D03*
X191007200Y-131922800D03*
X188507200Y-131922800D03*
%TD*%
D26*
%TO.C,BPLAYLR1*%
X100900000Y-312400000D03*
X104000000Y-312400000D03*
%TD*%
D27*
%TO.C,PADL-D6*%
X116512000Y-182194200D03*
X116512000Y-185394200D03*
X121412000Y-185394200D03*
X121412000Y-182194200D03*
%TD*%
%TO.C,PADL-D1*%
X91340600Y-206883000D03*
X91340600Y-210083000D03*
X96240600Y-210083000D03*
X96240600Y-206883000D03*
%TD*%
D31*
%TO.C,BCUERR1*%
X341600000Y-283170000D03*
X338500000Y-283170000D03*
%TD*%
D18*
%TO.C,RV21*%
X264407200Y-159872800D03*
X255607200Y-159872800D03*
D16*
X262507200Y-166872800D03*
X260007200Y-166872800D03*
X257507200Y-166872800D03*
%TD*%
D17*
%TO.C,SW31*%
X373900000Y-260900000D03*
X380400000Y-260900000D03*
X380400000Y-265400000D03*
X373900000Y-265400000D03*
%TD*%
D18*
%TO.C,RV15*%
X264407200Y-194922800D03*
X255607200Y-194922800D03*
D16*
X262507200Y-201922800D03*
X260007200Y-201922800D03*
X257507200Y-201922800D03*
%TD*%
D28*
%TO.C,UVU-MASTER-L1*%
X280355000Y-136155000D03*
X280355000Y-137425000D03*
X280355000Y-138695000D03*
X280355000Y-139965000D03*
X280355000Y-141235000D03*
X280355000Y-142505000D03*
X280355000Y-143775000D03*
X280355000Y-145045000D03*
X285505000Y-145045000D03*
X285505000Y-143775000D03*
X285505000Y-142505000D03*
X285505000Y-141235000D03*
X285505000Y-139965000D03*
X285505000Y-138695000D03*
X285505000Y-137425000D03*
X285505000Y-136155000D03*
%TD*%
D15*
%TO.C,VUL1D6*%
X205117200Y-170938800D03*
D16*
X205117200Y-168398800D03*
%TD*%
D18*
%TO.C,RV19*%
X186607200Y-159922800D03*
X195407200Y-159922800D03*
D16*
X193507200Y-166922800D03*
X191007200Y-166922800D03*
X188507200Y-166922800D03*
%TD*%
D26*
%TO.C,VUL2R6*%
X243250000Y-170780000D03*
X246350000Y-170780000D03*
%TD*%
D15*
%TO.C,VUL3D5*%
X274117200Y-176668800D03*
D16*
X274117200Y-174128800D03*
%TD*%
D15*
%TO.C,VUL1D4*%
X205117200Y-182938800D03*
D16*
X205117200Y-180398800D03*
%TD*%
D18*
%TO.C,RV16*%
X130535200Y-119426800D03*
X121735200Y-119426800D03*
D16*
X128635200Y-126426800D03*
X126135200Y-126426800D03*
X123635200Y-126426800D03*
%TD*%
D32*
%TO.C,UVU-LINE2*%
X232302200Y-182433800D03*
X232302200Y-181163800D03*
X232302200Y-179893800D03*
X232302200Y-178623800D03*
X232302200Y-177353800D03*
X232302200Y-176083800D03*
X232302200Y-174813800D03*
X232302200Y-173543800D03*
X227152200Y-173543800D03*
X227152200Y-174813800D03*
X227152200Y-176083800D03*
X227152200Y-177353800D03*
X227152200Y-178623800D03*
X227152200Y-179893800D03*
X227152200Y-181163800D03*
X227152200Y-182433800D03*
%TD*%
D26*
%TO.C,BCUELR1*%
X100250000Y-283350000D03*
X103350000Y-283350000D03*
%TD*%
D15*
%TO.C,VUL3D4*%
X274117200Y-182668800D03*
D16*
X274117200Y-180128800D03*
%TD*%
D15*
%TO.C,VUMASRD8*%
X299919600Y-89076800D03*
D16*
X299919600Y-86536800D03*
%TD*%
D17*
%TO.C,RV3*%
X260007200Y-329372800D03*
X260007200Y-296372800D03*
D19*
X256197200Y-285440800D03*
X261277200Y-285440800D03*
X258737200Y-285440800D03*
D20*
X263817200Y-285440800D03*
D19*
X261387200Y-340304800D03*
X256307200Y-340304800D03*
%TD*%
D18*
%TO.C,RV12*%
X289559200Y-319154400D03*
X298359200Y-319154400D03*
D16*
X296459200Y-326154400D03*
X293959200Y-326154400D03*
X291459200Y-326154400D03*
%TD*%
D15*
%TO.C,VUL3D1*%
X274117200Y-200668800D03*
D16*
X274117200Y-198128800D03*
%TD*%
D18*
%TO.C,RV10*%
X98705200Y-119426800D03*
X89905200Y-119426800D03*
D16*
X96805200Y-126426800D03*
X94305200Y-126426800D03*
X91805200Y-126426800D03*
%TD*%
D26*
%TO.C,VUL2R3*%
X242770000Y-188590000D03*
X245870000Y-188590000D03*
%TD*%
D21*
%TO.C,VUL3R3*%
X278230000Y-188980000D03*
X278230000Y-185880000D03*
%TD*%
D17*
%TO.C,SW23*%
X123107200Y-134712800D03*
X129607200Y-134712800D03*
X129607200Y-139212800D03*
X123107200Y-139212800D03*
%TD*%
%TO.C,SW18*%
X105183600Y-289148200D03*
X98683600Y-289148200D03*
X98683600Y-293648200D03*
X105183600Y-293648200D03*
%TD*%
D15*
%TO.C,VUL2D3*%
X240057200Y-188668800D03*
D16*
X240057200Y-186128800D03*
%TD*%
D17*
%TO.C,RV1*%
X191007200Y-329372800D03*
X191007200Y-296372800D03*
D19*
X192277200Y-285440800D03*
X187197200Y-285440800D03*
D20*
X194817200Y-285440800D03*
D19*
X189737200Y-285440800D03*
X192387200Y-340304800D03*
X187307200Y-340304800D03*
%TD*%
D15*
%TO.C,VUMASLD8*%
X287859600Y-89076800D03*
D16*
X287859600Y-86536800D03*
%TD*%
D15*
%TO.C,VUL3D7*%
X274117200Y-164668800D03*
D16*
X274117200Y-162128800D03*
%TD*%
D15*
%TO.C,VUL1D2*%
X205117200Y-194938800D03*
D16*
X205117200Y-192398800D03*
%TD*%
D33*
%TO.C,D23*%
X261090000Y-252340000D03*
D16*
X258550000Y-252340000D03*
%TD*%
D15*
%TO.C,VUL1D3*%
X205117200Y-188938800D03*
D16*
X205117200Y-186398800D03*
%TD*%
D17*
%TO.C,SW28*%
X343100000Y-289100000D03*
X336600000Y-289100000D03*
X336600000Y-293600000D03*
X343100000Y-293600000D03*
%TD*%
%TO.C,SW22*%
X97647200Y-134966800D03*
X91147200Y-134966800D03*
X91147200Y-139466800D03*
X97647200Y-139466800D03*
%TD*%
%TO.C,RV5*%
X400900000Y-325500000D03*
X400900000Y-275000000D03*
D19*
X397090000Y-265500000D03*
X402170000Y-265500000D03*
D20*
X404710000Y-265500000D03*
D19*
X399630000Y-265500000D03*
X397120000Y-336400000D03*
X402200000Y-336400000D03*
%TD*%
D27*
%TO.C,PADL-D5*%
X91490800Y-182016400D03*
X91490800Y-185216400D03*
X96390800Y-185216400D03*
X96390800Y-182016400D03*
%TD*%
D26*
%TO.C,VUMASRR2*%
X303730000Y-122970000D03*
X306830000Y-122970000D03*
%TD*%
D15*
%TO.C,VUMASRD2*%
X299919600Y-125076800D03*
D16*
X299919600Y-122536800D03*
%TD*%
D15*
%TO.C,VUL2D7*%
X240057200Y-164668800D03*
D16*
X240057200Y-162128800D03*
%TD*%
D17*
%TO.C,SW40*%
X187921200Y-70110800D03*
X194421200Y-70110800D03*
X194421200Y-74610800D03*
X187921200Y-74610800D03*
%TD*%
D26*
%TO.C,VUL2R7*%
X242950000Y-164890000D03*
X246050000Y-164890000D03*
%TD*%
%TO.C,VUMASRR1*%
X303070000Y-131070000D03*
X306170000Y-131070000D03*
%TD*%
D21*
%TO.C,VUL1R1*%
X209090000Y-200930000D03*
X209090000Y-197830000D03*
%TD*%
D15*
%TO.C,VUL2D6*%
X240057200Y-170668800D03*
D16*
X240057200Y-168128800D03*
%TD*%
D31*
%TO.C,BHPL2R1*%
X222460000Y-252380000D03*
X219360000Y-252380000D03*
%TD*%
D32*
%TO.C,UVU-LINE1*%
X197504200Y-182433800D03*
X197504200Y-181163800D03*
X197504200Y-179893800D03*
X197504200Y-178623800D03*
X197504200Y-177353800D03*
X197504200Y-176083800D03*
X197504200Y-174813800D03*
X197504200Y-173543800D03*
X192354200Y-173543800D03*
X192354200Y-174813800D03*
X192354200Y-176083800D03*
X192354200Y-177353800D03*
X192354200Y-178623800D03*
X192354200Y-179893800D03*
X192354200Y-181163800D03*
X192354200Y-182433800D03*
%TD*%
D23*
%TO.C,SW43*%
X130757200Y-69372800D03*
D17*
X130757200Y-74372800D03*
X130757200Y-71872800D03*
D24*
X138257200Y-66272800D03*
X138257200Y-77472800D03*
D17*
X145257200Y-74372800D03*
X145257200Y-69372800D03*
%TD*%
D15*
%TO.C,VUMASRD6*%
X299919600Y-101076800D03*
D16*
X299919600Y-98536800D03*
%TD*%
D27*
%TO.C,PADR-D7*%
X381865800Y-181458000D03*
X381865800Y-184658000D03*
X386765800Y-184658000D03*
X386765800Y-181458000D03*
%TD*%
%TO.C,PADR-D5*%
X331839400Y-181356200D03*
X331839400Y-184556200D03*
X336739400Y-184556200D03*
X336739400Y-181356200D03*
%TD*%
%TO.C,PADR-D4*%
X406783200Y-206730600D03*
X406783200Y-209930600D03*
X411683200Y-209930600D03*
X411683200Y-206730600D03*
%TD*%
D26*
%TO.C,VUL3R7*%
X277120000Y-164610000D03*
X280220000Y-164610000D03*
%TD*%
%TO.C,R23*%
X265464400Y-251902800D03*
X268564400Y-251902800D03*
%TD*%
D18*
%TO.C,RV23*%
X416071200Y-119404800D03*
X407271200Y-119404800D03*
D16*
X414171200Y-126404800D03*
X411671200Y-126404800D03*
X409171200Y-126404800D03*
%TD*%
D15*
%TO.C,VUMASLD3*%
X287859600Y-119076800D03*
D16*
X287859600Y-116536800D03*
%TD*%
D18*
%TO.C,RV6*%
X298359200Y-289154400D03*
X289559200Y-289154400D03*
D16*
X296459200Y-296154400D03*
X293959200Y-296154400D03*
X291459200Y-296154400D03*
%TD*%
D18*
%TO.C,RV25*%
X230407200Y-124922800D03*
X221607200Y-124922800D03*
D16*
X228507200Y-131922800D03*
X226007200Y-131922800D03*
X223507200Y-131922800D03*
%TD*%
D32*
%TO.C,UVU-LINE3*%
X266846200Y-182433800D03*
X266846200Y-181163800D03*
X266846200Y-179893800D03*
X266846200Y-178623800D03*
X266846200Y-177353800D03*
X266846200Y-176083800D03*
X266846200Y-174813800D03*
X266846200Y-173543800D03*
X261696200Y-173543800D03*
X261696200Y-174813800D03*
X261696200Y-176083800D03*
X261696200Y-177353800D03*
X261696200Y-178623800D03*
X261696200Y-179893800D03*
X261696200Y-181163800D03*
X261696200Y-182433800D03*
%TD*%
D27*
%TO.C,PADR-D1*%
X331929400Y-206476600D03*
X331929400Y-209676600D03*
X336829400Y-209676600D03*
X336829400Y-206476600D03*
%TD*%
D15*
%TO.C,VUMASRD4*%
X299919600Y-113076800D03*
D16*
X299919600Y-110536800D03*
%TD*%
D17*
%TO.C,SW24*%
X153833200Y-134814800D03*
X160333200Y-134814800D03*
X160333200Y-139314800D03*
X153833200Y-139314800D03*
%TD*%
%TO.C,SW26*%
X139507200Y-88872800D03*
X146007200Y-88872800D03*
X139507200Y-93372800D03*
X146007200Y-93372800D03*
%TD*%
D26*
%TO.C,VUL2R4*%
X242710000Y-182760000D03*
X245810000Y-182760000D03*
%TD*%
D15*
%TO.C,VUMASLD2*%
X287859600Y-125076800D03*
D16*
X287859600Y-122536800D03*
%TD*%
D17*
%TO.C,SW34*%
X408468200Y-134667000D03*
X414968200Y-134667000D03*
X414968200Y-139167000D03*
X408468200Y-139167000D03*
%TD*%
D15*
%TO.C,VUL3D6*%
X274117200Y-170668800D03*
D16*
X274117200Y-168128800D03*
%TD*%
D26*
%TO.C,VUL1R4*%
X207930000Y-183080000D03*
X211030000Y-183080000D03*
%TD*%
D27*
%TO.C,PADR-D8*%
X406961000Y-181356000D03*
X406961000Y-184556000D03*
X411861000Y-184556000D03*
X411861000Y-181356000D03*
%TD*%
D17*
%TO.C,SW32*%
X351366600Y-134844800D03*
X344866600Y-134844800D03*
X344866600Y-139344800D03*
X351366600Y-139344800D03*
%TD*%
D18*
%TO.C,RV22*%
X161443200Y-119426800D03*
X152643200Y-119426800D03*
D16*
X159543200Y-126426800D03*
X157043200Y-126426800D03*
X154543200Y-126426800D03*
%TD*%
D33*
%TO.C,BCUERD1*%
X341040000Y-285870000D03*
D16*
X338500000Y-285870000D03*
%TD*%
D15*
%TO.C,VUL3D8*%
X274117200Y-158668800D03*
D16*
X274117200Y-156128800D03*
%TD*%
D17*
%TO.C,RV4*%
X160170000Y-274600000D03*
X160170000Y-325100000D03*
D19*
X156360000Y-265100000D03*
X161440000Y-265100000D03*
D20*
X163980000Y-265100000D03*
D19*
X158900000Y-265100000D03*
X156390000Y-336000000D03*
X161470000Y-336000000D03*
%TD*%
D26*
%TO.C,VUL2R8*%
X243000000Y-161350000D03*
X246100000Y-161350000D03*
%TD*%
D18*
%TO.C,RV26*%
X264407200Y-124922800D03*
X255607200Y-124922800D03*
D16*
X262507200Y-131922800D03*
X260007200Y-131922800D03*
X257507200Y-131922800D03*
%TD*%
D15*
%TO.C,VUMASLD6*%
X287859600Y-101076800D03*
D16*
X287859600Y-98536800D03*
%TD*%
D27*
%TO.C,PADL-D3*%
X141327800Y-207086200D03*
X141327800Y-210286200D03*
X146227800Y-210286200D03*
X146227800Y-207086200D03*
%TD*%
D26*
%TO.C,VUL1R2*%
X208170000Y-194970000D03*
X211270000Y-194970000D03*
%TD*%
%TO.C,VUL1R5*%
X208160000Y-174310000D03*
X211260000Y-174310000D03*
%TD*%
D18*
%TO.C,RV17*%
X384281200Y-119404800D03*
X375481200Y-119404800D03*
D16*
X382381200Y-126404800D03*
X379881200Y-126404800D03*
X377381200Y-126404800D03*
%TD*%
D26*
%TO.C,VUL2R1*%
X242930000Y-200700000D03*
X246030000Y-200700000D03*
%TD*%
D27*
%TO.C,PADL-D4*%
X166270600Y-206756000D03*
X166270600Y-209956000D03*
X171170600Y-209956000D03*
X171170600Y-206756000D03*
%TD*%
D31*
%TO.C,BPLAYRR1*%
X341500000Y-312400000D03*
X338400000Y-312400000D03*
%TD*%
D27*
%TO.C,PADL-D7*%
X141480200Y-182372000D03*
X141480200Y-185572000D03*
X146380200Y-185572000D03*
X146380200Y-182372000D03*
%TD*%
D22*
%TO.C,BHPL2D1*%
X224774200Y-252410800D03*
D16*
X227314200Y-252410800D03*
%TD*%
D18*
%TO.C,RV13*%
X195407200Y-194922800D03*
X186607200Y-194922800D03*
D16*
X193507200Y-201922800D03*
X191007200Y-201922800D03*
X188507200Y-201922800D03*
%TD*%
D17*
%TO.C,SW36*%
X398180000Y-89370000D03*
X404680000Y-89370000D03*
X398180000Y-93870000D03*
X404680000Y-93870000D03*
%TD*%
D15*
%TO.C,VUMASRD1*%
X299919600Y-131076800D03*
D16*
X299919600Y-128536800D03*
%TD*%
D15*
%TO.C,VUL2D8*%
X240057200Y-158668800D03*
D16*
X240057200Y-156128800D03*
%TD*%
D22*
%TO.C,BPLAYLD1*%
X100863400Y-315341000D03*
D16*
X103403400Y-315341000D03*
%TD*%
D26*
%TO.C,VUL3R4*%
X276900000Y-182740000D03*
X280000000Y-182740000D03*
%TD*%
%TO.C,BHPL1R1*%
X189320000Y-249710000D03*
X192420000Y-249710000D03*
%TD*%
D34*
%TO.C,IC-POTS-1*%
X235737400Y-277801600D03*
X237007400Y-277801600D03*
X238277400Y-277801600D03*
X239547400Y-277801600D03*
X240817400Y-277801600D03*
X242087400Y-277801600D03*
X243357400Y-277801600D03*
X244627400Y-277801600D03*
X245897400Y-277801600D03*
X247167400Y-277801600D03*
X248437400Y-277801600D03*
X249707400Y-277801600D03*
X249707400Y-268501600D03*
X248437400Y-268501600D03*
X247167400Y-268501600D03*
X245897400Y-268501600D03*
X244627400Y-268501600D03*
X243357400Y-268501600D03*
X242087400Y-268501600D03*
X240817400Y-268501600D03*
X239547400Y-268501600D03*
X238277400Y-268501600D03*
X237007400Y-268501600D03*
X235737400Y-268501600D03*
%TD*%
D29*
%TO.C,TB2*%
X368706400Y-232156000D03*
X371246400Y-232156000D03*
X373786400Y-232156000D03*
X376326400Y-232156000D03*
%TD*%
D18*
%TO.C,RV18*%
X289589200Y-230069200D03*
X298389200Y-230069200D03*
D16*
X296489200Y-237069200D03*
X293989200Y-237069200D03*
X291489200Y-237069200D03*
%TD*%
D15*
%TO.C,VUL2D1*%
X240057200Y-200668800D03*
D16*
X240057200Y-198128800D03*
%TD*%
D27*
%TO.C,PADL-D2*%
X116498200Y-207238800D03*
X116498200Y-210438800D03*
X121398200Y-210438800D03*
X121398200Y-207238800D03*
%TD*%
D17*
%TO.C,SW30*%
X373850000Y-279900000D03*
X380350000Y-279900000D03*
X380350000Y-284400000D03*
X373850000Y-284400000D03*
%TD*%
D26*
%TO.C,VUL2R5*%
X243070000Y-176660000D03*
X246170000Y-176660000D03*
%TD*%
D17*
%TO.C,SW38*%
X229257200Y-256622800D03*
X222757200Y-256622800D03*
X222757200Y-261122800D03*
X229257200Y-261122800D03*
%TD*%
D26*
%TO.C,VUL1R6*%
X208180000Y-170800000D03*
X211280000Y-170800000D03*
%TD*%
D27*
%TO.C,PADR-D2*%
X357050000Y-206578600D03*
X357050000Y-209778600D03*
X361950000Y-209778600D03*
X361950000Y-206578600D03*
%TD*%
D17*
%TO.C,SW21*%
X140400000Y-261800000D03*
X133900000Y-261800000D03*
X140400000Y-266300000D03*
X133900000Y-266300000D03*
%TD*%
D33*
%TO.C,BPLAYRD1*%
X341000000Y-315470000D03*
D16*
X338460000Y-315470000D03*
%TD*%
M02*
