<?xml version="1.0" standalone="no"?>
 <!DOCTYPE svg PUBLIC "-//W3C//DTD SVG 1.1//EN" 
 "http://www.w3.org/Graphics/SVG/1.1/DTD/svg11.dtd"> 
<svg
  xmlns:svg="http://www.w3.org/2000/svg"
  xmlns="http://www.w3.org/2000/svg"
  xmlns:xlink="http://www.w3.org/1999/xlink"
  version="1.1"
  width="37.904420cm" height="27.117040cm" viewBox="0 0 379044200 271170400">
<title>SVG Picture created as Mixduino-B_Silkscreen.svg date 2021/04/27 03:43:27 </title>
  <desc>Picture generated by PCBNEW </desc>
<g style="fill:#000000; fill-opacity:1.000000;stroke:#000000; stroke-opacity:1.000000;
stroke-linecap:round; stroke-linejoin:round;"
 transform="translate(0 0) scale(1 1)">
</g>
<g style="fill:#000000; fill-opacity:0.0; 
stroke:#000000; stroke-width:0.000000; stroke-opacity:1; 
stroke-linecap:round; stroke-linejoin:round;">
</g>
<g style="fill:#AAAAE0; fill-opacity:0.0; 
stroke:#AAAAE0; stroke-width:0.000000; stroke-opacity:1; 
stroke-linecap:round; stroke-linejoin:round;">
</g>
<g style="fill:#AAAAE0; fill-opacity:0.0; 
stroke:#AAAAE0; stroke-width:150000.000000; stroke-opacity:1; 
stroke-linecap:round; stroke-linejoin:round;">
<text x="157167381.000000" y="132296000.000000"
transform="scale(-1 1) translate(-314334762.000000 0)"
textLength="1802381.000000" font-size="1333333.000000" lengthAdjust="spacingAndGlyphs"
text-anchor="middle" opacity="0">R1</text>
<g class="stroked-text"><desc>R1</desc>
<path d="M157334047 132248380
L157667381 131772190
" />
<path d="M157905476 132248380
L157905476 131248380
L157524523 131248380
L157429285 131296000
L157381666 131343619
L157334047 131438857
L157334047 131581714
L157381666 131676952
L157429285 131724571
L157524523 131772190
L157905476 131772190
" />
<path d="M156381666 132248380
L156953095 132248380
" />
<path d="M156667381 132248380
L156667381 131248380
L156762619 131391238
L156857857 131486476
L156953095 131534095
" />
</g><text x="250927381.000000" y="51778000.000000"
transform="scale(-1 1) translate(-501854762.000000 0)"
textLength="2709762.000000" font-size="1333333.000000" lengthAdjust="spacingAndGlyphs"
text-anchor="middle" opacity="0">R52</text>
<g class="stroked-text"><desc>R52</desc>
<path d="M251570238 51730380
L251903571 51254190
" />
<path d="M252141666 51730380
L252141666 50730380
L251760714 50730380
L251665476 50778000
L251617857 50825619
L251570238 50920857
L251570238 51063714
L251617857 51158952
L251665476 51206571
L251760714 51254190
L252141666 51254190
" />
<path d="M250665476 50730380
L251141666 50730380
L251189285 51206571
L251141666 51158952
L251046428 51111333
L250808333 51111333
L250713095 51158952
L250665476 51206571
L250617857 51301809
L250617857 51539904
L250665476 51635142
L250713095 51682761
L250808333 51730380
L251046428 51730380
L251141666 51682761
L251189285 51635142
" />
<path d="M250236904 50825619
L250189285 50778000
L250094047 50730380
L249855952 50730380
L249760714 50778000
L249713095 50825619
L249665476 50920857
L249665476 51016095
L249713095 51158952
L250284523 51730380
L249665476 51730380
" />
</g><g transform="rotate(-90.000000 32555381.000000 27868000.000000)">
<text x="32555381.000000" y="28368000.000000"
transform="scale(-1 1) translate(-65110762.000000 0)"
textLength="2709762.000000" font-size="1333333.000000" lengthAdjust="spacingAndGlyphs"
text-anchor="middle" opacity="0">R11</text>
</g>
<g class="stroked-text"><desc>R11</desc>
<path d="M33007761 27225142
L32531571 26891809
" />
<path d="M33007761 26653714
L32007761 26653714
L32007761 27034666
L32055381 27129904
L32103000 27177523
L32198238 27225142
L32341095 27225142
L32436333 27177523
L32483952 27129904
L32531571 27034666
L32531571 26653714
" />
<path d="M33007761 28177523
L33007761 27606095
" />
<path d="M33007761 27891809
L32007761 27891809
L32150619 27796571
L32245857 27701333
L32293476 27606095
" />
<path d="M33007761 29129904
L33007761 28558476
" />
<path d="M33007761 28844190
L32007761 28844190
L32150619 28748952
L32245857 28653714
L32293476 28558476
" />
</g><text x="191527381.000000" y="97244000.000000"
transform="scale(-1 1) translate(-383054762.000000 0)"
textLength="2709762.000000" font-size="1333333.000000" lengthAdjust="spacingAndGlyphs"
text-anchor="middle" opacity="0">R21</text>
<g class="stroked-text"><desc>R21</desc>
<path d="M192170238 97196380
L192503571 96720190
" />
<path d="M192741666 97196380
L192741666 96196380
L192360714 96196380
L192265476 96244000
L192217857 96291619
L192170238 96386857
L192170238 96529714
L192217857 96624952
L192265476 96672571
L192360714 96720190
L192741666 96720190
" />
<path d="M191789285 96291619
L191741666 96244000
L191646428 96196380
L191408333 96196380
L191313095 96244000
L191265476 96291619
L191217857 96386857
L191217857 96482095
L191265476 96624952
L191836904 97196380
L191217857 97196380
" />
<path d="M190265476 97196380
L190836904 97196380
" />
<path d="M190551190 97196380
L190551190 96196380
L190646428 96339238
L190741666 96434476
L190836904 96482095
" />
</g><text x="283719381.000000" y="256248000.000000"
transform="scale(-1 1) translate(-567438762.000000 0)"
textLength="2709762.000000" font-size="1333333.000000" lengthAdjust="spacingAndGlyphs"
text-anchor="middle" opacity="0">R25</text>
<g class="stroked-text"><desc>R25</desc>
<path d="M284362238 256200380
L284695571 255724190
" />
<path d="M284933666 256200380
L284933666 255200380
L284552714 255200380
L284457476 255248000
L284409857 255295619
L284362238 255390857
L284362238 255533714
L284409857 255628952
L284457476 255676571
L284552714 255724190
L284933666 255724190
" />
<path d="M283981285 255295619
L283933666 255248000
L283838428 255200380
L283600333 255200380
L283505095 255248000
L283457476 255295619
L283409857 255390857
L283409857 255486095
L283457476 255628952
L284028904 256200380
L283409857 256200380
" />
<path d="M282505095 255200380
L282981285 255200380
L283028904 255676571
L282981285 255628952
L282886047 255581333
L282647952 255581333
L282552714 255628952
L282505095 255676571
L282457476 255771809
L282457476 256009904
L282505095 256105142
L282552714 256152761
L282647952 256200380
L282886047 256200380
L282981285 256152761
L283028904 256105142
" />
</g><text x="250927381.000000" y="61684000.000000"
transform="scale(-1 1) translate(-501854762.000000 0)"
textLength="2709762.000000" font-size="1333333.000000" lengthAdjust="spacingAndGlyphs"
text-anchor="middle" opacity="0">R50</text>
<g class="stroked-text"><desc>R50</desc>
<path d="M251570238 61636380
L251903571 61160190
" />
<path d="M252141666 61636380
L252141666 60636380
L251760714 60636380
L251665476 60684000
L251617857 60731619
L251570238 60826857
L251570238 60969714
L251617857 61064952
L251665476 61112571
L251760714 61160190
L252141666 61160190
" />
<path d="M250665476 60636380
L251141666 60636380
L251189285 61112571
L251141666 61064952
L251046428 61017333
L250808333 61017333
L250713095 61064952
L250665476 61112571
L250617857 61207809
L250617857 61445904
L250665476 61541142
L250713095 61588761
L250808333 61636380
L251046428 61636380
L251141666 61588761
L251189285 61541142
" />
<path d="M249998809 60636380
L249903571 60636380
L249808333 60684000
L249760714 60731619
L249713095 60826857
L249665476 61017333
L249665476 61255428
L249713095 61445904
L249760714 61541142
L249808333 61588761
L249903571 61636380
L249998809 61636380
L250094047 61588761
L250141666 61541142
L250189285 61445904
L250236904 61255428
L250236904 61017333
L250189285 60826857
L250141666 60731619
L250094047 60684000
L249998809 60636380
" />
</g><text x="32167381.000000" y="115200000.000000"
transform="scale(-1 1) translate(-64334762.000000 0)"
textLength="3805000.000000" font-size="1333333.000000" lengthAdjust="spacingAndGlyphs"
text-anchor="middle" opacity="0">NPR1</text>
<g class="stroked-text"><desc>NPR1</desc>
<path d="M33929285 115152380
L33929285 114152380
L33357857 115152380
L33357857 114152380
" />
<path d="M32881666 115152380
L32881666 114152380
L32500714 114152380
L32405476 114200000
L32357857 114247619
L32310238 114342857
L32310238 114485714
L32357857 114580952
L32405476 114628571
L32500714 114676190
L32881666 114676190
" />
<path d="M31310238 115152380
L31643571 114676190
" />
<path d="M31881666 115152380
L31881666 114152380
L31500714 114152380
L31405476 114200000
L31357857 114247619
L31310238 114342857
L31310238 114485714
L31357857 114580952
L31405476 114628571
L31500714 114676190
L31881666 114676190
" />
<path d="M30357857 115152380
L30929285 115152380
" />
<path d="M30643571 115152380
L30643571 114152380
L30738809 114295238
L30834047 114390476
L30929285 114438095
" />
</g><text x="283608381.000000" y="226144000.000000"
transform="scale(-1 1) translate(-567216762.000000 0)"
textLength="2709762.000000" font-size="1333333.000000" lengthAdjust="spacingAndGlyphs"
text-anchor="middle" opacity="0">R26</text>
<g class="stroked-text"><desc>R26</desc>
<path d="M284251238 226096380
L284584571 225620190
" />
<path d="M284822666 226096380
L284822666 225096380
L284441714 225096380
L284346476 225144000
L284298857 225191619
L284251238 225286857
L284251238 225429714
L284298857 225524952
L284346476 225572571
L284441714 225620190
L284822666 225620190
" />
<path d="M283870285 225191619
L283822666 225144000
L283727428 225096380
L283489333 225096380
L283394095 225144000
L283346476 225191619
L283298857 225286857
L283298857 225382095
L283346476 225524952
L283917904 226096380
L283298857 226096380
" />
<path d="M282441714 225096380
L282632190 225096380
L282727428 225144000
L282775047 225191619
L282870285 225334476
L282917904 225524952
L282917904 225905904
L282870285 226001142
L282822666 226048761
L282727428 226096380
L282536952 226096380
L282441714 226048761
L282394095 226001142
L282346476 225905904
L282346476 225667809
L282394095 225572571
L282441714 225524952
L282536952 225477333
L282727428 225477333
L282822666 225524952
L282870285 225572571
L282917904 225667809
" />
</g><text x="225527381.000000" y="112230000.000000"
transform="scale(-1 1) translate(-451054762.000000 0)"
textLength="2709762.000000" font-size="1333333.000000" lengthAdjust="spacingAndGlyphs"
text-anchor="middle" opacity="0">R34</text>
<g class="stroked-text"><desc>R34</desc>
<path d="M226170238 112182380
L226503571 111706190
" />
<path d="M226741666 112182380
L226741666 111182380
L226360714 111182380
L226265476 111230000
L226217857 111277619
L226170238 111372857
L226170238 111515714
L226217857 111610952
L226265476 111658571
L226360714 111706190
L226741666 111706190
" />
<path d="M225836904 111182380
L225217857 111182380
L225551190 111563333
L225408333 111563333
L225313095 111610952
L225265476 111658571
L225217857 111753809
L225217857 111991904
L225265476 112087142
L225313095 112134761
L225408333 112182380
L225694047 112182380
L225789285 112134761
L225836904 112087142
" />
<path d="M224360714 111515714
L224360714 112182380
" />
<path d="M224598809 111134761
L224836904 111849047
L224217857 111849047
" />
</g><text x="191527381.000000" y="132296000.000000"
transform="scale(-1 1) translate(-383054762.000000 0)"
textLength="2709762.000000" font-size="1333333.000000" lengthAdjust="spacingAndGlyphs"
text-anchor="middle" opacity="0">R14</text>
<g class="stroked-text"><desc>R14</desc>
<path d="M192170238 132248380
L192503571 131772190
" />
<path d="M192741666 132248380
L192741666 131248380
L192360714 131248380
L192265476 131296000
L192217857 131343619
L192170238 131438857
L192170238 131581714
L192217857 131676952
L192265476 131724571
L192360714 131772190
L192741666 131772190
" />
<path d="M191217857 132248380
L191789285 132248380
" />
<path d="M191503571 132248380
L191503571 131248380
L191598809 131391238
L191694047 131486476
L191789285 131534095
" />
<path d="M190360714 131581714
L190360714 132248380
" />
<path d="M190598809 131200761
L190836904 131915047
L190217857 131915047
" />
</g><text x="225553381.000000" y="97244000.000000"
transform="scale(-1 1) translate(-451106762.000000 0)"
textLength="2709762.000000" font-size="1333333.000000" lengthAdjust="spacingAndGlyphs"
text-anchor="middle" opacity="0">R37</text>
<g class="stroked-text"><desc>R37</desc>
<path d="M226196238 97196380
L226529571 96720190
" />
<path d="M226767666 97196380
L226767666 96196380
L226386714 96196380
L226291476 96244000
L226243857 96291619
L226196238 96386857
L226196238 96529714
L226243857 96624952
L226291476 96672571
L226386714 96720190
L226767666 96720190
" />
<path d="M225862904 96196380
L225243857 96196380
L225577190 96577333
L225434333 96577333
L225339095 96624952
L225291476 96672571
L225243857 96767809
L225243857 97005904
L225291476 97101142
L225339095 97148761
L225434333 97196380
L225720047 97196380
L225815285 97148761
L225862904 97101142
" />
<path d="M224910523 96196380
L224243857 96196380
L224672428 97196380
" />
</g><text x="238761381.000000" y="56858000.000000"
transform="scale(-1 1) translate(-477522762.000000 0)"
textLength="2709762.000000" font-size="1333333.000000" lengthAdjust="spacingAndGlyphs"
text-anchor="middle" opacity="0">R43</text>
<g class="stroked-text"><desc>R43</desc>
<path d="M239404238 56810380
L239737571 56334190
" />
<path d="M239975666 56810380
L239975666 55810380
L239594714 55810380
L239499476 55858000
L239451857 55905619
L239404238 56000857
L239404238 56143714
L239451857 56238952
L239499476 56286571
L239594714 56334190
L239975666 56334190
" />
<path d="M238547095 56143714
L238547095 56810380
" />
<path d="M238785190 55762761
L239023285 56477047
L238404238 56477047
" />
<path d="M238118523 55810380
L237499476 55810380
L237832809 56191333
L237689952 56191333
L237594714 56238952
L237547095 56286571
L237499476 56381809
L237499476 56619904
L237547095 56715142
L237594714 56762761
L237689952 56810380
L237975666 56810380
L238070904 56762761
L238118523 56715142
" />
</g><text x="238761381.000000" y="46952000.000000"
transform="scale(-1 1) translate(-477522762.000000 0)"
textLength="2709762.000000" font-size="1333333.000000" lengthAdjust="spacingAndGlyphs"
text-anchor="middle" opacity="0">R45</text>
<g class="stroked-text"><desc>R45</desc>
<path d="M239404238 46904380
L239737571 46428190
" />
<path d="M239975666 46904380
L239975666 45904380
L239594714 45904380
L239499476 45952000
L239451857 45999619
L239404238 46094857
L239404238 46237714
L239451857 46332952
L239499476 46380571
L239594714 46428190
L239975666 46428190
" />
<path d="M238547095 46237714
L238547095 46904380
" />
<path d="M238785190 45856761
L239023285 46571047
L238404238 46571047
" />
<path d="M237547095 45904380
L238023285 45904380
L238070904 46380571
L238023285 46332952
L237928047 46285333
L237689952 46285333
L237594714 46332952
L237547095 46380571
L237499476 46475809
L237499476 46713904
L237547095 46809142
L237594714 46856761
L237689952 46904380
L237928047 46904380
L238023285 46856761
L238070904 46809142
" />
</g><text x="238761381.000000" y="82004000.000000"
transform="scale(-1 1) translate(-477522762.000000 0)"
textLength="2709762.000000" font-size="1333333.000000" lengthAdjust="spacingAndGlyphs"
text-anchor="middle" opacity="0">R38</text>
<g class="stroked-text"><desc>R38</desc>
<path d="M239404238 81956380
L239737571 81480190
" />
<path d="M239975666 81956380
L239975666 80956380
L239594714 80956380
L239499476 81004000
L239451857 81051619
L239404238 81146857
L239404238 81289714
L239451857 81384952
L239499476 81432571
L239594714 81480190
L239975666 81480190
" />
<path d="M239070904 80956380
L238451857 80956380
L238785190 81337333
L238642333 81337333
L238547095 81384952
L238499476 81432571
L238451857 81527809
L238451857 81765904
L238499476 81861142
L238547095 81908761
L238642333 81956380
L238928047 81956380
L239023285 81908761
L239070904 81861142
" />
<path d="M237880428 81384952
L237975666 81337333
L238023285 81289714
L238070904 81194476
L238070904 81146857
L238023285 81051619
L237975666 81004000
L237880428 80956380
L237689952 80956380
L237594714 81004000
L237547095 81051619
L237499476 81146857
L237499476 81194476
L237547095 81289714
L237594714 81337333
L237689952 81384952
L237880428 81384952
L237975666 81432571
L238023285 81480190
L238070904 81575428
L238070904 81765904
L238023285 81861142
L237975666 81908761
L237880428 81956380
L237689952 81956380
L237594714 81908761
L237547095 81861142
L237499476 81765904
L237499476 81575428
L237547095 81480190
L237594714 81432571
L237689952 81384952
" />
</g><text x="238761381.000000" y="66764000.000000"
transform="scale(-1 1) translate(-477522762.000000 0)"
textLength="2709762.000000" font-size="1333333.000000" lengthAdjust="spacingAndGlyphs"
text-anchor="middle" opacity="0">R41</text>
<g class="stroked-text"><desc>R41</desc>
<path d="M239404238 66716380
L239737571 66240190
" />
<path d="M239975666 66716380
L239975666 65716380
L239594714 65716380
L239499476 65764000
L239451857 65811619
L239404238 65906857
L239404238 66049714
L239451857 66144952
L239499476 66192571
L239594714 66240190
L239975666 66240190
" />
<path d="M238547095 66049714
L238547095 66716380
" />
<path d="M238785190 65668761
L239023285 66383047
L238404238 66383047
" />
<path d="M237499476 66716380
L238070904 66716380
" />
<path d="M237785190 66716380
L237785190 65716380
L237880428 65859238
L237975666 65954476
L238070904 66002095
" />
</g><text x="157113381.000000" y="102400000.000000"
transform="scale(-1 1) translate(-314226762.000000 0)"
textLength="1757381.000000" font-size="1333333.000000" lengthAdjust="spacingAndGlyphs"
text-anchor="middle" opacity="0">R7</text>
<g class="stroked-text"><desc>R7</desc>
<path d="M157280047 102352380
L157613381 101876190
" />
<path d="M157851476 102352380
L157851476 101352380
L157470523 101352380
L157375285 101400000
L157327666 101447619
L157280047 101542857
L157280047 101685714
L157327666 101780952
L157375285 101828571
L157470523 101876190
L157851476 101876190
" />
<path d="M156946714 101352380
L156280047 101352380
L156708619 102352380
" />
</g><text x="157043381.000000" y="117370000.000000"
transform="scale(-1 1) translate(-314086762.000000 0)"
textLength="1757381.000000" font-size="1333333.000000" lengthAdjust="spacingAndGlyphs"
text-anchor="middle" opacity="0">R4</text>
<g class="stroked-text"><desc>R4</desc>
<path d="M157210047 117322380
L157543381 116846190
" />
<path d="M157781476 117322380
L157781476 116322380
L157400523 116322380
L157305285 116370000
L157257666 116417619
L157210047 116512857
L157210047 116655714
L157257666 116750952
L157305285 116798571
L157400523 116846190
L157781476 116846190
" />
<path d="M156352904 116655714
L156352904 117322380
" />
<path d="M156591000 116274761
L156829095 116989047
L156210047 116989047
" />
</g><text x="225527381.000000" y="122390000.000000"
transform="scale(-1 1) translate(-451054762.000000 0)"
textLength="2709762.000000" font-size="1333333.000000" lengthAdjust="spacingAndGlyphs"
text-anchor="middle" opacity="0">R32</text>
<g class="stroked-text"><desc>R32</desc>
<path d="M226170238 122342380
L226503571 121866190
" />
<path d="M226741666 122342380
L226741666 121342380
L226360714 121342380
L226265476 121390000
L226217857 121437619
L226170238 121532857
L226170238 121675714
L226217857 121770952
L226265476 121818571
L226360714 121866190
L226741666 121866190
" />
<path d="M225836904 121342380
L225217857 121342380
L225551190 121723333
L225408333 121723333
L225313095 121770952
L225265476 121818571
L225217857 121913809
L225217857 122151904
L225265476 122247142
L225313095 122294761
L225408333 122342380
L225694047 122342380
L225789285 122294761
L225836904 122247142
" />
<path d="M224836904 121437619
L224789285 121390000
L224694047 121342380
L224455952 121342380
L224360714 121390000
L224313095 121437619
L224265476 121532857
L224265476 121628095
L224313095 121770952
L224884523 122342380
L224265476 122342380
" />
</g><text x="250979381.000000" y="71844000.000000"
transform="scale(-1 1) translate(-501958762.000000 0)"
textLength="2709762.000000" font-size="1333333.000000" lengthAdjust="spacingAndGlyphs"
text-anchor="middle" opacity="0">R48</text>
<g class="stroked-text"><desc>R48</desc>
<path d="M251622238 71796380
L251955571 71320190
" />
<path d="M252193666 71796380
L252193666 70796380
L251812714 70796380
L251717476 70844000
L251669857 70891619
L251622238 70986857
L251622238 71129714
L251669857 71224952
L251717476 71272571
L251812714 71320190
L252193666 71320190
" />
<path d="M250765095 71129714
L250765095 71796380
" />
<path d="M251003190 70748761
L251241285 71463047
L250622238 71463047
" />
<path d="M250098428 71224952
L250193666 71177333
L250241285 71129714
L250288904 71034476
L250288904 70986857
L250241285 70891619
L250193666 70844000
L250098428 70796380
L249907952 70796380
L249812714 70844000
L249765095 70891619
L249717476 70986857
L249717476 71034476
L249765095 71129714
L249812714 71177333
L249907952 71224952
L250098428 71224952
L250193666 71272571
L250241285 71320190
L250288904 71415428
L250288904 71605904
L250241285 71701142
L250193666 71748761
L250098428 71796380
L249907952 71796380
L249812714 71748761
L249765095 71701142
L249717476 71605904
L249717476 71415428
L249765095 71320190
L249812714 71272571
L249907952 71224952
" />
</g><g transform="rotate(-90.000000 278089381.000000 27868000.000000)">
<text x="278089381.000000" y="28368000.000000"
transform="scale(-1 1) translate(-556178762.000000 0)"
textLength="2709762.000000" font-size="1333333.000000" lengthAdjust="spacingAndGlyphs"
text-anchor="middle" opacity="0">R27</text>
</g>
<g class="stroked-text"><desc>R27</desc>
<path d="M278541761 27225142
L278065571 26891809
" />
<path d="M278541761 26653714
L277541761 26653714
L277541761 27034666
L277589381 27129904
L277637000 27177523
L277732238 27225142
L277875095 27225142
L277970333 27177523
L278017952 27129904
L278065571 27034666
L278065571 26653714
" />
<path d="M277637000 27606095
L277589381 27653714
L277541761 27748952
L277541761 27987047
L277589381 28082285
L277637000 28129904
L277732238 28177523
L277827476 28177523
L277970333 28129904
L278541761 27558476
L278541761 28177523
" />
<path d="M277541761 28510857
L277541761 29177523
L278541761 28748952
" />
</g><text x="191527381.000000" y="112230000.000000"
transform="scale(-1 1) translate(-383054762.000000 0)"
textLength="2709762.000000" font-size="1333333.000000" lengthAdjust="spacingAndGlyphs"
text-anchor="middle" opacity="0">R18</text>
<g class="stroked-text"><desc>R18</desc>
<path d="M192170238 112182380
L192503571 111706190
" />
<path d="M192741666 112182380
L192741666 111182380
L192360714 111182380
L192265476 111230000
L192217857 111277619
L192170238 111372857
L192170238 111515714
L192217857 111610952
L192265476 111658571
L192360714 111706190
L192741666 111706190
" />
<path d="M191217857 112182380
L191789285 112182380
" />
<path d="M191503571 112182380
L191503571 111182380
L191598809 111325238
L191694047 111420476
L191789285 111468095
" />
<path d="M190646428 111610952
L190741666 111563333
L190789285 111515714
L190836904 111420476
L190836904 111372857
L190789285 111277619
L190741666 111230000
L190646428 111182380
L190455952 111182380
L190360714 111230000
L190313095 111277619
L190265476 111372857
L190265476 111420476
L190313095 111515714
L190360714 111563333
L190455952 111610952
L190646428 111610952
L190741666 111658571
L190789285 111706190
L190836904 111801428
L190836904 111991904
L190789285 112087142
L190741666 112134761
L190646428 112182380
L190455952 112182380
L190360714 112134761
L190313095 112087142
L190265476 111991904
L190265476 111801428
L190313095 111706190
L190360714 111658571
L190455952 111610952
" />
</g><g transform="rotate(-90.000000 148633381.000000 187380000.000000)">
<text x="148633381.000000" y="187880000.000000"
transform="scale(-1 1) translate(-297266762.000000 0)"
textLength="2709762.000000" font-size="1333333.000000" lengthAdjust="spacingAndGlyphs"
text-anchor="middle" opacity="0">R22</text>
</g>
<g class="stroked-text"><desc>R22</desc>
<path d="M149085761 186737142
L148609571 186403809
" />
<path d="M149085761 186165714
L148085761 186165714
L148085761 186546666
L148133381 186641904
L148181000 186689523
L148276238 186737142
L148419095 186737142
L148514333 186689523
L148561952 186641904
L148609571 186546666
L148609571 186165714
" />
<path d="M148181000 187118095
L148133381 187165714
L148085761 187260952
L148085761 187499047
L148133381 187594285
L148181000 187641904
L148276238 187689523
L148371476 187689523
L148514333 187641904
L149085761 187070476
L149085761 187689523
" />
<path d="M148181000 188070476
L148133381 188118095
L148085761 188213333
L148085761 188451428
L148133381 188546666
L148181000 188594285
L148276238 188641904
L148371476 188641904
L148514333 188594285
L149085761 188022857
L149085761 188641904
" />
</g><g transform="rotate(-90.000000 115359381.000000 27868000.000000)">
<text x="115359381.000000" y="28368000.000000"
transform="scale(-1 1) translate(-230718762.000000 0)"
textLength="2709762.000000" font-size="1333333.000000" lengthAdjust="spacingAndGlyphs"
text-anchor="middle" opacity="0">R13</text>
</g>
<g class="stroked-text"><desc>R13</desc>
<path d="M115811761 27225142
L115335571 26891809
" />
<path d="M115811761 26653714
L114811761 26653714
L114811761 27034666
L114859381 27129904
L114907000 27177523
L115002238 27225142
L115145095 27225142
L115240333 27177523
L115287952 27129904
L115335571 27034666
L115335571 26653714
" />
<path d="M115811761 28177523
L115811761 27606095
" />
<path d="M115811761 27891809
L114811761 27891809
L114954619 27796571
L115049857 27701333
L115097476 27606095
" />
<path d="M114811761 28510857
L114811761 29129904
L115192714 28796571
L115192714 28939428
L115240333 29034666
L115287952 29082285
L115383190 29129904
L115621285 29129904
L115716523 29082285
L115764142 29034666
L115811761 28939428
L115811761 28653714
L115764142 28558476
L115716523 28510857
" />
</g><text x="238761381.000000" y="61684000.000000"
transform="scale(-1 1) translate(-477522762.000000 0)"
textLength="2709762.000000" font-size="1333333.000000" lengthAdjust="spacingAndGlyphs"
text-anchor="middle" opacity="0">R42</text>
<g class="stroked-text"><desc>R42</desc>
<path d="M239404238 61636380
L239737571 61160190
" />
<path d="M239975666 61636380
L239975666 60636380
L239594714 60636380
L239499476 60684000
L239451857 60731619
L239404238 60826857
L239404238 60969714
L239451857 61064952
L239499476 61112571
L239594714 61160190
L239975666 61160190
" />
<path d="M238547095 60969714
L238547095 61636380
" />
<path d="M238785190 60588761
L239023285 61303047
L238404238 61303047
" />
<path d="M238070904 60731619
L238023285 60684000
L237928047 60636380
L237689952 60636380
L237594714 60684000
L237547095 60731619
L237499476 60826857
L237499476 60922095
L237547095 61064952
L238118523 61636380
L237499476 61636380
" />
</g><text x="359427381.000000" y="136790000.000000"
transform="scale(-1 1) translate(-718854762.000000 0)"
textLength="3805000.000000" font-size="1333333.000000" lengthAdjust="spacingAndGlyphs"
text-anchor="middle" opacity="0">NPR2</text>
<g class="stroked-text"><desc>NPR2</desc>
<path d="M361189285 136742380
L361189285 135742380
L360617857 136742380
L360617857 135742380
" />
<path d="M360141666 136742380
L360141666 135742380
L359760714 135742380
L359665476 135790000
L359617857 135837619
L359570238 135932857
L359570238 136075714
L359617857 136170952
L359665476 136218571
L359760714 136266190
L360141666 136266190
" />
<path d="M358570238 136742380
L358903571 136266190
" />
<path d="M359141666 136742380
L359141666 135742380
L358760714 135742380
L358665476 135790000
L358617857 135837619
L358570238 135932857
L358570238 136075714
L358617857 136170952
L358665476 136218571
L358760714 136266190
L359141666 136266190
" />
<path d="M358189285 135837619
L358141666 135790000
L358046428 135742380
L357808333 135742380
L357713095 135790000
L357665476 135837619
L357617857 135932857
L357617857 136028095
L357665476 136170952
L358236904 136742380
L357617857 136742380
" />
</g><text x="191527381.000000" y="117310000.000000"
transform="scale(-1 1) translate(-383054762.000000 0)"
textLength="2709762.000000" font-size="1333333.000000" lengthAdjust="spacingAndGlyphs"
text-anchor="middle" opacity="0">R17</text>
<g class="stroked-text"><desc>R17</desc>
<path d="M192170238 117262380
L192503571 116786190
" />
<path d="M192741666 117262380
L192741666 116262380
L192360714 116262380
L192265476 116310000
L192217857 116357619
L192170238 116452857
L192170238 116595714
L192217857 116690952
L192265476 116738571
L192360714 116786190
L192741666 116786190
" />
<path d="M191217857 117262380
L191789285 117262380
" />
<path d="M191503571 117262380
L191503571 116262380
L191598809 116405238
L191694047 116500476
L191789285 116548095
" />
<path d="M190884523 116262380
L190217857 116262380
L190646428 117262380
" />
</g><text x="238761381.000000" y="71844000.000000"
transform="scale(-1 1) translate(-477522762.000000 0)"
textLength="2709762.000000" font-size="1333333.000000" lengthAdjust="spacingAndGlyphs"
text-anchor="middle" opacity="0">R40</text>
<g class="stroked-text"><desc>R40</desc>
<path d="M239404238 71796380
L239737571 71320190
" />
<path d="M239975666 71796380
L239975666 70796380
L239594714 70796380
L239499476 70844000
L239451857 70891619
L239404238 70986857
L239404238 71129714
L239451857 71224952
L239499476 71272571
L239594714 71320190
L239975666 71320190
" />
<path d="M238547095 71129714
L238547095 71796380
" />
<path d="M238785190 70748761
L239023285 71463047
L238404238 71463047
" />
<path d="M237832809 70796380
L237737571 70796380
L237642333 70844000
L237594714 70891619
L237547095 70986857
L237499476 71177333
L237499476 71415428
L237547095 71605904
L237594714 71701142
L237642333 71748761
L237737571 71796380
L237832809 71796380
L237928047 71748761
L237975666 71701142
L238023285 71605904
L238070904 71415428
L238070904 71177333
L238023285 70986857
L237975666 70891619
L237928047 70844000
L237832809 70796380
" />
</g><text x="238761381.000000" y="52032000.000000"
transform="scale(-1 1) translate(-477522762.000000 0)"
textLength="2709762.000000" font-size="1333333.000000" lengthAdjust="spacingAndGlyphs"
text-anchor="middle" opacity="0">R44</text>
<g class="stroked-text"><desc>R44</desc>
<path d="M239404238 51984380
L239737571 51508190
" />
<path d="M239975666 51984380
L239975666 50984380
L239594714 50984380
L239499476 51032000
L239451857 51079619
L239404238 51174857
L239404238 51317714
L239451857 51412952
L239499476 51460571
L239594714 51508190
L239975666 51508190
" />
<path d="M238547095 51317714
L238547095 51984380
" />
<path d="M238785190 50936761
L239023285 51651047
L238404238 51651047
" />
<path d="M237594714 51317714
L237594714 51984380
" />
<path d="M237832809 50936761
L238070904 51651047
L237451857 51651047
" />
</g><text x="191517381.000000" y="107404000.000000"
transform="scale(-1 1) translate(-383034762.000000 0)"
textLength="2709762.000000" font-size="1333333.000000" lengthAdjust="spacingAndGlyphs"
text-anchor="middle" opacity="0">R19</text>
<g class="stroked-text"><desc>R19</desc>
<path d="M192160238 107356380
L192493571 106880190
" />
<path d="M192731666 107356380
L192731666 106356380
L192350714 106356380
L192255476 106404000
L192207857 106451619
L192160238 106546857
L192160238 106689714
L192207857 106784952
L192255476 106832571
L192350714 106880190
L192731666 106880190
" />
<path d="M191207857 107356380
L191779285 107356380
" />
<path d="M191493571 107356380
L191493571 106356380
L191588809 106499238
L191684047 106594476
L191779285 106642095
" />
<path d="M190731666 107356380
L190541190 107356380
L190445952 107308761
L190398333 107261142
L190303095 107118285
L190255476 106927809
L190255476 106546857
L190303095 106451619
L190350714 106404000
L190445952 106356380
L190636428 106356380
L190731666 106404000
L190779285 106451619
L190826904 106546857
L190826904 106784952
L190779285 106880190
L190731666 106927809
L190636428 106975428
L190445952 106975428
L190350714 106927809
L190303095 106880190
L190255476 106784952
" />
</g><text x="191527381.000000" y="102324000.000000"
transform="scale(-1 1) translate(-383054762.000000 0)"
textLength="2709762.000000" font-size="1333333.000000" lengthAdjust="spacingAndGlyphs"
text-anchor="middle" opacity="0">R20</text>
<g class="stroked-text"><desc>R20</desc>
<path d="M192170238 102276380
L192503571 101800190
" />
<path d="M192741666 102276380
L192741666 101276380
L192360714 101276380
L192265476 101324000
L192217857 101371619
L192170238 101466857
L192170238 101609714
L192217857 101704952
L192265476 101752571
L192360714 101800190
L192741666 101800190
" />
<path d="M191789285 101371619
L191741666 101324000
L191646428 101276380
L191408333 101276380
L191313095 101324000
L191265476 101371619
L191217857 101466857
L191217857 101562095
L191265476 101704952
L191836904 102276380
L191217857 102276380
" />
<path d="M190598809 101276380
L190503571 101276380
L190408333 101324000
L190360714 101371619
L190313095 101466857
L190265476 101657333
L190265476 101895428
L190313095 102085904
L190360714 102181142
L190408333 102228761
L190503571 102276380
L190598809 102276380
L190694047 102228761
L190741666 102181142
L190789285 102085904
L190836904 101895428
L190836904 101657333
L190789285 101466857
L190741666 101371619
L190694047 101324000
L190598809 101276380
" />
</g><text x="225527381.000000" y="127216000.000000"
transform="scale(-1 1) translate(-451054762.000000 0)"
textLength="2709762.000000" font-size="1333333.000000" lengthAdjust="spacingAndGlyphs"
text-anchor="middle" opacity="0">R31</text>
<g class="stroked-text"><desc>R31</desc>
<path d="M226170238 127168380
L226503571 126692190
" />
<path d="M226741666 127168380
L226741666 126168380
L226360714 126168380
L226265476 126216000
L226217857 126263619
L226170238 126358857
L226170238 126501714
L226217857 126596952
L226265476 126644571
L226360714 126692190
L226741666 126692190
" />
<path d="M225836904 126168380
L225217857 126168380
L225551190 126549333
L225408333 126549333
L225313095 126596952
L225265476 126644571
L225217857 126739809
L225217857 126977904
L225265476 127073142
L225313095 127120761
L225408333 127168380
L225694047 127168380
L225789285 127120761
L225836904 127073142
" />
<path d="M224265476 127168380
L224836904 127168380
" />
<path d="M224551190 127168380
L224551190 126168380
L224646428 126311238
L224741666 126406476
L224836904 126454095
" />
</g><text x="225527381.000000" y="117310000.000000"
transform="scale(-1 1) translate(-451054762.000000 0)"
textLength="2709762.000000" font-size="1333333.000000" lengthAdjust="spacingAndGlyphs"
text-anchor="middle" opacity="0">R33</text>
<g class="stroked-text"><desc>R33</desc>
<path d="M226170238 117262380
L226503571 116786190
" />
<path d="M226741666 117262380
L226741666 116262380
L226360714 116262380
L226265476 116310000
L226217857 116357619
L226170238 116452857
L226170238 116595714
L226217857 116690952
L226265476 116738571
L226360714 116786190
L226741666 116786190
" />
<path d="M225836904 116262380
L225217857 116262380
L225551190 116643333
L225408333 116643333
L225313095 116690952
L225265476 116738571
L225217857 116833809
L225217857 117071904
L225265476 117167142
L225313095 117214761
L225408333 117262380
L225694047 117262380
L225789285 117214761
L225836904 117167142
" />
<path d="M224884523 116262380
L224265476 116262380
L224598809 116643333
L224455952 116643333
L224360714 116690952
L224313095 116738571
L224265476 116833809
L224265476 117071904
L224313095 117167142
L224360714 117214761
L224455952 117262380
L224741666 117262380
L224836904 117214761
L224884523 117167142
" />
</g><text x="250927381.000000" y="66764000.000000"
transform="scale(-1 1) translate(-501854762.000000 0)"
textLength="2709762.000000" font-size="1333333.000000" lengthAdjust="spacingAndGlyphs"
text-anchor="middle" opacity="0">R49</text>
<g class="stroked-text"><desc>R49</desc>
<path d="M251570238 66716380
L251903571 66240190
" />
<path d="M252141666 66716380
L252141666 65716380
L251760714 65716380
L251665476 65764000
L251617857 65811619
L251570238 65906857
L251570238 66049714
L251617857 66144952
L251665476 66192571
L251760714 66240190
L252141666 66240190
" />
<path d="M250713095 66049714
L250713095 66716380
" />
<path d="M250951190 65668761
L251189285 66383047
L250570238 66383047
" />
<path d="M250141666 66716380
L249951190 66716380
L249855952 66668761
L249808333 66621142
L249713095 66478285
L249665476 66287809
L249665476 65906857
L249713095 65811619
L249760714 65764000
L249855952 65716380
L250046428 65716380
L250141666 65764000
L250189285 65811619
L250236904 65906857
L250236904 66144952
L250189285 66240190
L250141666 66287809
L250046428 66335428
L249855952 66335428
L249760714 66287809
L249713095 66240190
L249665476 66144952
" />
</g><text x="157093381.000000" y="122410000.000000"
transform="scale(-1 1) translate(-314186762.000000 0)"
textLength="1757381.000000" font-size="1333333.000000" lengthAdjust="spacingAndGlyphs"
text-anchor="middle" opacity="0">R3</text>
<g class="stroked-text"><desc>R3</desc>
<path d="M157260047 122362380
L157593381 121886190
" />
<path d="M157831476 122362380
L157831476 121362380
L157450523 121362380
L157355285 121410000
L157307666 121457619
L157260047 121552857
L157260047 121695714
L157307666 121790952
L157355285 121838571
L157450523 121886190
L157831476 121886190
" />
<path d="M156926714 121362380
L156307666 121362380
L156641000 121743333
L156498142 121743333
L156402904 121790952
L156355285 121838571
L156307666 121933809
L156307666 122171904
L156355285 122267142
L156402904 122314761
L156498142 122362380
L156783857 122362380
L156879095 122314761
L156926714 122267142
" />
</g><text x="250979381.000000" y="82004000.000000"
transform="scale(-1 1) translate(-501958762.000000 0)"
textLength="2709762.000000" font-size="1333333.000000" lengthAdjust="spacingAndGlyphs"
text-anchor="middle" opacity="0">R46</text>
<g class="stroked-text"><desc>R46</desc>
<path d="M251622238 81956380
L251955571 81480190
" />
<path d="M252193666 81956380
L252193666 80956380
L251812714 80956380
L251717476 81004000
L251669857 81051619
L251622238 81146857
L251622238 81289714
L251669857 81384952
L251717476 81432571
L251812714 81480190
L252193666 81480190
" />
<path d="M250765095 81289714
L250765095 81956380
" />
<path d="M251003190 80908761
L251241285 81623047
L250622238 81623047
" />
<path d="M249812714 80956380
L250003190 80956380
L250098428 81004000
L250146047 81051619
L250241285 81194476
L250288904 81384952
L250288904 81765904
L250241285 81861142
L250193666 81908761
L250098428 81956380
L249907952 81956380
L249812714 81908761
L249765095 81861142
L249717476 81765904
L249717476 81527809
L249765095 81432571
L249812714 81384952
L249907952 81337333
L250098428 81337333
L250193666 81384952
L250241285 81432571
L250288904 81527809
" />
</g><text x="191527381.000000" y="122390000.000000"
transform="scale(-1 1) translate(-383054762.000000 0)"
textLength="2709762.000000" font-size="1333333.000000" lengthAdjust="spacingAndGlyphs"
text-anchor="middle" opacity="0">R16</text>
<g class="stroked-text"><desc>R16</desc>
<path d="M192170238 122342380
L192503571 121866190
" />
<path d="M192741666 122342380
L192741666 121342380
L192360714 121342380
L192265476 121390000
L192217857 121437619
L192170238 121532857
L192170238 121675714
L192217857 121770952
L192265476 121818571
L192360714 121866190
L192741666 121866190
" />
<path d="M191217857 122342380
L191789285 122342380
" />
<path d="M191503571 122342380
L191503571 121342380
L191598809 121485238
L191694047 121580476
L191789285 121628095
" />
<path d="M190360714 121342380
L190551190 121342380
L190646428 121390000
L190694047 121437619
L190789285 121580476
L190836904 121770952
L190836904 122151904
L190789285 122247142
L190741666 122294761
L190646428 122342380
L190455952 122342380
L190360714 122294761
L190313095 122247142
L190265476 122151904
L190265476 121913809
L190313095 121818571
L190360714 121770952
L190455952 121723333
L190646428 121723333
L190741666 121770952
L190789285 121818571
L190836904 121913809
" />
</g><text x="157013381.000000" y="112380000.000000"
transform="scale(-1 1) translate(-314026762.000000 0)"
textLength="1757381.000000" font-size="1333333.000000" lengthAdjust="spacingAndGlyphs"
text-anchor="middle" opacity="0">R5</text>
<g class="stroked-text"><desc>R5</desc>
<path d="M157180047 112332380
L157513381 111856190
" />
<path d="M157751476 112332380
L157751476 111332380
L157370523 111332380
L157275285 111380000
L157227666 111427619
L157180047 111522857
L157180047 111665714
L157227666 111760952
L157275285 111808571
L157370523 111856190
L157751476 111856190
" />
<path d="M156275285 111332380
L156751476 111332380
L156799095 111808571
L156751476 111760952
L156656238 111713333
L156418142 111713333
L156322904 111760952
L156275285 111808571
L156227666 111903809
L156227666 112141904
L156275285 112237142
L156322904 112284761
L156418142 112332380
L156656238 112332380
L156751476 112284761
L156799095 112237142
" />
</g><text x="157143381.000000" y="127380000.000000"
transform="scale(-1 1) translate(-314286762.000000 0)"
textLength="1757381.000000" font-size="1333333.000000" lengthAdjust="spacingAndGlyphs"
text-anchor="middle" opacity="0">R2</text>
<g class="stroked-text"><desc>R2</desc>
<path d="M157310047 127332380
L157643381 126856190
" />
<path d="M157881476 127332380
L157881476 126332380
L157500523 126332380
L157405285 126380000
L157357666 126427619
L157310047 126522857
L157310047 126665714
L157357666 126760952
L157405285 126808571
L157500523 126856190
L157881476 126856190
" />
<path d="M156929095 126427619
L156881476 126380000
L156786238 126332380
L156548142 126332380
L156452904 126380000
L156405285 126427619
L156357666 126522857
L156357666 126618095
L156405285 126760952
L156976714 127332380
L156357666 127332380
" />
</g><text x="250927381.000000" y="46952000.000000"
transform="scale(-1 1) translate(-501854762.000000 0)"
textLength="2709762.000000" font-size="1333333.000000" lengthAdjust="spacingAndGlyphs"
text-anchor="middle" opacity="0">R53</text>
<g class="stroked-text"><desc>R53</desc>
<path d="M251570238 46904380
L251903571 46428190
" />
<path d="M252141666 46904380
L252141666 45904380
L251760714 45904380
L251665476 45952000
L251617857 45999619
L251570238 46094857
L251570238 46237714
L251617857 46332952
L251665476 46380571
L251760714 46428190
L252141666 46428190
" />
<path d="M250665476 45904380
L251141666 45904380
L251189285 46380571
L251141666 46332952
L251046428 46285333
L250808333 46285333
L250713095 46332952
L250665476 46380571
L250617857 46475809
L250617857 46713904
L250665476 46809142
L250713095 46856761
L250808333 46904380
L251046428 46904380
L251141666 46856761
L251189285 46809142
" />
<path d="M250284523 45904380
L249665476 45904380
L249998809 46285333
L249855952 46285333
L249760714 46332952
L249713095 46380571
L249665476 46475809
L249665476 46713904
L249713095 46809142
L249760714 46856761
L249855952 46904380
L250141666 46904380
L250236904 46856761
L250284523 46809142
" />
</g><text x="225527381.000000" y="132296000.000000"
transform="scale(-1 1) translate(-451054762.000000 0)"
textLength="2709762.000000" font-size="1333333.000000" lengthAdjust="spacingAndGlyphs"
text-anchor="middle" opacity="0">R30</text>
<g class="stroked-text"><desc>R30</desc>
<path d="M226170238 132248380
L226503571 131772190
" />
<path d="M226741666 132248380
L226741666 131248380
L226360714 131248380
L226265476 131296000
L226217857 131343619
L226170238 131438857
L226170238 131581714
L226217857 131676952
L226265476 131724571
L226360714 131772190
L226741666 131772190
" />
<path d="M225836904 131248380
L225217857 131248380
L225551190 131629333
L225408333 131629333
L225313095 131676952
L225265476 131724571
L225217857 131819809
L225217857 132057904
L225265476 132153142
L225313095 132200761
L225408333 132248380
L225694047 132248380
L225789285 132200761
L225836904 132153142
" />
<path d="M224598809 131248380
L224503571 131248380
L224408333 131296000
L224360714 131343619
L224313095 131438857
L224265476 131629333
L224265476 131867428
L224313095 132057904
L224360714 132153142
L224408333 132200761
L224503571 132248380
L224598809 132248380
L224694047 132200761
L224741666 132153142
L224789285 132057904
L224836904 131867428
L224836904 131629333
L224789285 131438857
L224741666 131343619
L224694047 131296000
L224598809 131248380
" />
</g><text x="157043381.000000" y="107290000.000000"
transform="scale(-1 1) translate(-314086762.000000 0)"
textLength="1757381.000000" font-size="1333333.000000" lengthAdjust="spacingAndGlyphs"
text-anchor="middle" opacity="0">R6</text>
<g class="stroked-text"><desc>R6</desc>
<path d="M157210047 107242380
L157543381 106766190
" />
<path d="M157781476 107242380
L157781476 106242380
L157400523 106242380
L157305285 106290000
L157257666 106337619
L157210047 106432857
L157210047 106575714
L157257666 106670952
L157305285 106718571
L157400523 106766190
L157781476 106766190
" />
<path d="M156352904 106242380
L156543381 106242380
L156638619 106290000
L156686238 106337619
L156781476 106480476
L156829095 106670952
L156829095 107051904
L156781476 107147142
L156733857 107194761
L156638619 107242380
L156448142 107242380
L156352904 107194761
L156305285 107147142
L156257666 107051904
L156257666 106813809
L156305285 106718571
L156352904 106670952
L156448142 106623333
L156638619 106623333
L156733857 106670952
L156781476 106718571
L156829095 106813809
" />
</g><text x="156973381.000000" y="97330000.000000"
transform="scale(-1 1) translate(-313946762.000000 0)"
textLength="1757381.000000" font-size="1333333.000000" lengthAdjust="spacingAndGlyphs"
text-anchor="middle" opacity="0">R8</text>
<g class="stroked-text"><desc>R8</desc>
<path d="M157140047 97282380
L157473381 96806190
" />
<path d="M157711476 97282380
L157711476 96282380
L157330523 96282380
L157235285 96330000
L157187666 96377619
L157140047 96472857
L157140047 96615714
L157187666 96710952
L157235285 96758571
L157330523 96806190
L157711476 96806190
" />
<path d="M156568619 96710952
L156663857 96663333
L156711476 96615714
L156759095 96520476
L156759095 96472857
L156711476 96377619
L156663857 96330000
L156568619 96282380
L156378142 96282380
L156282904 96330000
L156235285 96377619
L156187666 96472857
L156187666 96520476
L156235285 96615714
L156282904 96663333
L156378142 96710952
L156568619 96710952
L156663857 96758571
L156711476 96806190
L156759095 96901428
L156759095 97091904
L156711476 97187142
L156663857 97234761
L156568619 97282380
L156378142 97282380
L156282904 97234761
L156235285 97187142
L156187666 97091904
L156187666 96901428
L156235285 96806190
L156282904 96758571
L156378142 96710952
" />
</g><g transform="rotate(-90.000000 360639381.000000 28122000.000000)">
<text x="360639381.000000" y="28622000.000000"
transform="scale(-1 1) translate(-721278762.000000 0)"
textLength="2709762.000000" font-size="1333333.000000" lengthAdjust="spacingAndGlyphs"
text-anchor="middle" opacity="0">R29</text>
</g>
<g class="stroked-text"><desc>R29</desc>
<path d="M361091761 27479142
L360615571 27145809
" />
<path d="M361091761 26907714
L360091761 26907714
L360091761 27288666
L360139381 27383904
L360187000 27431523
L360282238 27479142
L360425095 27479142
L360520333 27431523
L360567952 27383904
L360615571 27288666
L360615571 26907714
" />
<path d="M360187000 27860095
L360139381 27907714
L360091761 28002952
L360091761 28241047
L360139381 28336285
L360187000 28383904
L360282238 28431523
L360377476 28431523
L360520333 28383904
L361091761 27812476
L361091761 28431523
" />
<path d="M361091761 28907714
L361091761 29098190
L361044142 29193428
L360996523 29241047
L360853666 29336285
L360663190 29383904
L360282238 29383904
L360187000 29336285
L360139381 29288666
L360091761 29193428
L360091761 29002952
L360139381 28907714
L360187000 28860095
L360282238 28812476
L360520333 28812476
L360615571 28860095
L360663190 28907714
L360710809 29002952
L360710809 29193428
L360663190 29288666
L360615571 29336285
L360520333 29383904
" />
</g><g transform="rotate(-90.000000 216959381.000000 187888000.000000)">
<text x="216959381.000000" y="188388000.000000"
transform="scale(-1 1) translate(-433918762.000000 0)"
textLength="2709762.000000" font-size="1333333.000000" lengthAdjust="spacingAndGlyphs"
text-anchor="middle" opacity="0">R24</text>
</g>
<g class="stroked-text"><desc>R24</desc>
<path d="M217411761 187245142
L216935571 186911809
" />
<path d="M217411761 186673714
L216411761 186673714
L216411761 187054666
L216459381 187149904
L216507000 187197523
L216602238 187245142
L216745095 187245142
L216840333 187197523
L216887952 187149904
L216935571 187054666
L216935571 186673714
" />
<path d="M216507000 187626095
L216459381 187673714
L216411761 187768952
L216411761 188007047
L216459381 188102285
L216507000 188149904
L216602238 188197523
L216697476 188197523
L216840333 188149904
L217411761 187578476
L217411761 188197523
" />
<path d="M216745095 189054666
L217411761 189054666
" />
<path d="M216364142 188816571
L217078428 188578476
L217078428 189197523
" />
</g><text x="191527381.000000" y="127470000.000000"
transform="scale(-1 1) translate(-383054762.000000 0)"
textLength="2709762.000000" font-size="1333333.000000" lengthAdjust="spacingAndGlyphs"
text-anchor="middle" opacity="0">R15</text>
<g class="stroked-text"><desc>R15</desc>
<path d="M192170238 127422380
L192503571 126946190
" />
<path d="M192741666 127422380
L192741666 126422380
L192360714 126422380
L192265476 126470000
L192217857 126517619
L192170238 126612857
L192170238 126755714
L192217857 126850952
L192265476 126898571
L192360714 126946190
L192741666 126946190
" />
<path d="M191217857 127422380
L191789285 127422380
" />
<path d="M191503571 127422380
L191503571 126422380
L191598809 126565238
L191694047 126660476
L191789285 126708095
" />
<path d="M190313095 126422380
L190789285 126422380
L190836904 126898571
L190789285 126850952
L190694047 126803333
L190455952 126803333
L190360714 126850952
L190313095 126898571
L190265476 126993809
L190265476 127231904
L190313095 127327142
L190360714 127374761
L190455952 127422380
L190694047 127422380
L190789285 127374761
L190836904 127327142
" />
</g><text x="225553381.000000" y="102070000.000000"
transform="scale(-1 1) translate(-451106762.000000 0)"
textLength="2709762.000000" font-size="1333333.000000" lengthAdjust="spacingAndGlyphs"
text-anchor="middle" opacity="0">R36</text>
<g class="stroked-text"><desc>R36</desc>
<path d="M226196238 102022380
L226529571 101546190
" />
<path d="M226767666 102022380
L226767666 101022380
L226386714 101022380
L226291476 101070000
L226243857 101117619
L226196238 101212857
L226196238 101355714
L226243857 101450952
L226291476 101498571
L226386714 101546190
L226767666 101546190
" />
<path d="M225862904 101022380
L225243857 101022380
L225577190 101403333
L225434333 101403333
L225339095 101450952
L225291476 101498571
L225243857 101593809
L225243857 101831904
L225291476 101927142
L225339095 101974761
L225434333 102022380
L225720047 102022380
L225815285 101974761
L225862904 101927142
" />
<path d="M224386714 101022380
L224577190 101022380
L224672428 101070000
L224720047 101117619
L224815285 101260476
L224862904 101450952
L224862904 101831904
L224815285 101927142
L224767666 101974761
L224672428 102022380
L224481952 102022380
L224386714 101974761
L224339095 101927142
L224291476 101831904
L224291476 101593809
L224339095 101498571
L224386714 101450952
L224481952 101403333
L224672428 101403333
L224767666 101450952
L224815285 101498571
L224862904 101593809
" />
</g><g transform="rotate(-90.000000 319745381.000000 27868000.000000)">
<text x="319745381.000000" y="28368000.000000"
transform="scale(-1 1) translate(-639490762.000000 0)"
textLength="2709762.000000" font-size="1333333.000000" lengthAdjust="spacingAndGlyphs"
text-anchor="middle" opacity="0">R28</text>
</g>
<g class="stroked-text"><desc>R28</desc>
<path d="M320197761 27225142
L319721571 26891809
" />
<path d="M320197761 26653714
L319197761 26653714
L319197761 27034666
L319245381 27129904
L319293000 27177523
L319388238 27225142
L319531095 27225142
L319626333 27177523
L319673952 27129904
L319721571 27034666
L319721571 26653714
" />
<path d="M319293000 27606095
L319245381 27653714
L319197761 27748952
L319197761 27987047
L319245381 28082285
L319293000 28129904
L319388238 28177523
L319483476 28177523
L319626333 28129904
L320197761 27558476
L320197761 28177523
" />
<path d="M319626333 28748952
L319578714 28653714
L319531095 28606095
L319435857 28558476
L319388238 28558476
L319293000 28606095
L319245381 28653714
L319197761 28748952
L319197761 28939428
L319245381 29034666
L319293000 29082285
L319388238 29129904
L319435857 29129904
L319531095 29082285
L319578714 29034666
L319626333 28939428
L319626333 28748952
L319673952 28653714
L319721571 28606095
L319816809 28558476
L320007285 28558476
L320102523 28606095
L320150142 28653714
L320197761 28748952
L320197761 28939428
L320150142 29034666
L320102523 29082285
L320007285 29129904
L319816809 29129904
L319721571 29082285
L319673952 29034666
L319626333 28939428
" />
</g><text x="33783381.000000" y="255232000.000000"
transform="scale(-1 1) translate(-67566762.000000 0)"
textLength="1757381.000000" font-size="1333333.000000" lengthAdjust="spacingAndGlyphs"
text-anchor="middle" opacity="0">R9</text>
<g class="stroked-text"><desc>R9</desc>
<path d="M33950047 255184380
L34283381 254708190
" />
<path d="M34521476 255184380
L34521476 254184380
L34140523 254184380
L34045285 254232000
L33997666 254279619
L33950047 254374857
L33950047 254517714
L33997666 254612952
L34045285 254660571
L34140523 254708190
L34521476 254708190
" />
<path d="M33473857 255184380
L33283381 255184380
L33188142 255136761
L33140523 255089142
L33045285 254946285
L32997666 254755809
L32997666 254374857
L33045285 254279619
L33092904 254232000
L33188142 254184380
L33378619 254184380
L33473857 254232000
L33521476 254279619
L33569095 254374857
L33569095 254612952
L33521476 254708190
L33473857 254755809
L33378619 254803428
L33188142 254803428
L33092904 254755809
L33045285 254708190
L32997666 254612952
" />
</g><text x="225527381.000000" y="107150000.000000"
transform="scale(-1 1) translate(-451054762.000000 0)"
textLength="2709762.000000" font-size="1333333.000000" lengthAdjust="spacingAndGlyphs"
text-anchor="middle" opacity="0">R35</text>
<g class="stroked-text"><desc>R35</desc>
<path d="M226170238 107102380
L226503571 106626190
" />
<path d="M226741666 107102380
L226741666 106102380
L226360714 106102380
L226265476 106150000
L226217857 106197619
L226170238 106292857
L226170238 106435714
L226217857 106530952
L226265476 106578571
L226360714 106626190
L226741666 106626190
" />
<path d="M225836904 106102380
L225217857 106102380
L225551190 106483333
L225408333 106483333
L225313095 106530952
L225265476 106578571
L225217857 106673809
L225217857 106911904
L225265476 107007142
L225313095 107054761
L225408333 107102380
L225694047 107102380
L225789285 107054761
L225836904 107007142
" />
<path d="M224313095 106102380
L224789285 106102380
L224836904 106578571
L224789285 106530952
L224694047 106483333
L224455952 106483333
L224360714 106530952
L224313095 106578571
L224265476 106673809
L224265476 106911904
L224313095 107007142
L224360714 107054761
L224455952 107102380
L224694047 107102380
L224789285 107054761
L224836904 107007142
" />
</g><g transform="rotate(-90.000000 74465381.000000 27868000.000000)">
<text x="74465381.000000" y="28368000.000000"
transform="scale(-1 1) translate(-148930762.000000 0)"
textLength="2709762.000000" font-size="1333333.000000" lengthAdjust="spacingAndGlyphs"
text-anchor="middle" opacity="0">R12</text>
</g>
<g class="stroked-text"><desc>R12</desc>
<path d="M74917761 27225142
L74441571 26891809
" />
<path d="M74917761 26653714
L73917761 26653714
L73917761 27034666
L73965381 27129904
L74013000 27177523
L74108238 27225142
L74251095 27225142
L74346333 27177523
L74393952 27129904
L74441571 27034666
L74441571 26653714
" />
<path d="M74917761 28177523
L74917761 27606095
" />
<path d="M74917761 27891809
L73917761 27891809
L74060619 27796571
L74155857 27701333
L74203476 27606095
" />
<path d="M74013000 28558476
L73965381 28606095
L73917761 28701333
L73917761 28939428
L73965381 29034666
L74013000 29082285
L74108238 29129904
L74203476 29129904
L74346333 29082285
L74917761 28510857
L74917761 29129904
" />
</g><text x="34037381.000000" y="225514000.000000"
transform="scale(-1 1) translate(-68074762.000000 0)"
textLength="2709762.000000" font-size="1333333.000000" lengthAdjust="spacingAndGlyphs"
text-anchor="middle" opacity="0">R10</text>
<g class="stroked-text"><desc>R10</desc>
<path d="M34680238 225466380
L35013571 224990190
" />
<path d="M35251666 225466380
L35251666 224466380
L34870714 224466380
L34775476 224514000
L34727857 224561619
L34680238 224656857
L34680238 224799714
L34727857 224894952
L34775476 224942571
L34870714 224990190
L35251666 224990190
" />
<path d="M33727857 225466380
L34299285 225466380
" />
<path d="M34013571 225466380
L34013571 224466380
L34108809 224609238
L34204047 224704476
L34299285 224752095
" />
<path d="M33108809 224466380
L33013571 224466380
L32918333 224514000
L32870714 224561619
L32823095 224656857
L32775476 224847333
L32775476 225085428
L32823095 225275904
L32870714 225371142
L32918333 225418761
L33013571 225466380
L33108809 225466380
L33204047 225418761
L33251666 225371142
L33299285 225275904
L33346904 225085428
L33346904 224847333
L33299285 224656857
L33251666 224561619
L33204047 224514000
L33108809 224466380
" />
</g><text x="250927381.000000" y="56858000.000000"
transform="scale(-1 1) translate(-501854762.000000 0)"
textLength="2709762.000000" font-size="1333333.000000" lengthAdjust="spacingAndGlyphs"
text-anchor="middle" opacity="0">R51</text>
<g class="stroked-text"><desc>R51</desc>
<path d="M251570238 56810380
L251903571 56334190
" />
<path d="M252141666 56810380
L252141666 55810380
L251760714 55810380
L251665476 55858000
L251617857 55905619
L251570238 56000857
L251570238 56143714
L251617857 56238952
L251665476 56286571
L251760714 56334190
L252141666 56334190
" />
<path d="M250665476 55810380
L251141666 55810380
L251189285 56286571
L251141666 56238952
L251046428 56191333
L250808333 56191333
L250713095 56238952
L250665476 56286571
L250617857 56381809
L250617857 56619904
L250665476 56715142
L250713095 56762761
L250808333 56810380
L251046428 56810380
L251141666 56762761
L251189285 56715142
" />
<path d="M249665476 56810380
L250236904 56810380
" />
<path d="M249951190 56810380
L249951190 55810380
L250046428 55953238
L250141666 56048476
L250236904 56096095
" />
</g><text x="250979381.000000" y="76924000.000000"
transform="scale(-1 1) translate(-501958762.000000 0)"
textLength="2709762.000000" font-size="1333333.000000" lengthAdjust="spacingAndGlyphs"
text-anchor="middle" opacity="0">R47</text>
<g class="stroked-text"><desc>R47</desc>
<path d="M251622238 76876380
L251955571 76400190
" />
<path d="M252193666 76876380
L252193666 75876380
L251812714 75876380
L251717476 75924000
L251669857 75971619
L251622238 76066857
L251622238 76209714
L251669857 76304952
L251717476 76352571
L251812714 76400190
L252193666 76400190
" />
<path d="M250765095 76209714
L250765095 76876380
" />
<path d="M251003190 75828761
L251241285 76543047
L250622238 76543047
" />
<path d="M250336523 75876380
L249669857 75876380
L250098428 76876380
" />
</g><g transform="rotate(-90.000000 182897381.000000 187310000.000000)">
<text x="182897381.000000" y="187810000.000000"
transform="scale(-1 1) translate(-365794762.000000 0)"
textLength="2709762.000000" font-size="1333333.000000" lengthAdjust="spacingAndGlyphs"
text-anchor="middle" opacity="0">R23</text>
</g>
<g class="stroked-text"><desc>R23</desc>
<path d="M183349761 186667142
L182873571 186333809
" />
<path d="M183349761 186095714
L182349761 186095714
L182349761 186476666
L182397381 186571904
L182445000 186619523
L182540238 186667142
L182683095 186667142
L182778333 186619523
L182825952 186571904
L182873571 186476666
L182873571 186095714
" />
<path d="M182445000 187048095
L182397381 187095714
L182349761 187190952
L182349761 187429047
L182397381 187524285
L182445000 187571904
L182540238 187619523
L182635476 187619523
L182778333 187571904
L183349761 187000476
L183349761 187619523
" />
<path d="M182349761 187952857
L182349761 188571904
L182730714 188238571
L182730714 188381428
L182778333 188476666
L182825952 188524285
L182921190 188571904
L183159285 188571904
L183254523 188524285
L183302142 188476666
L183349761 188381428
L183349761 188095714
L183302142 188000476
L183254523 187952857
" />
</g><text x="238761381.000000" y="76924000.000000"
transform="scale(-1 1) translate(-477522762.000000 0)"
textLength="2709762.000000" font-size="1333333.000000" lengthAdjust="spacingAndGlyphs"
text-anchor="middle" opacity="0">R39</text>
<g class="stroked-text"><desc>R39</desc>
<path d="M239404238 76876380
L239737571 76400190
" />
<path d="M239975666 76876380
L239975666 75876380
L239594714 75876380
L239499476 75924000
L239451857 75971619
L239404238 76066857
L239404238 76209714
L239451857 76304952
L239499476 76352571
L239594714 76400190
L239975666 76400190
" />
<path d="M239070904 75876380
L238451857 75876380
L238785190 76257333
L238642333 76257333
L238547095 76304952
L238499476 76352571
L238451857 76447809
L238451857 76685904
L238499476 76781142
L238547095 76828761
L238642333 76876380
L238928047 76876380
L239023285 76828761
L239070904 76781142
" />
<path d="M237975666 76876380
L237785190 76876380
L237689952 76828761
L237642333 76781142
L237547095 76638285
L237499476 76447809
L237499476 76066857
L237547095 75971619
L237594714 75924000
L237689952 75876380
L237880428 75876380
L237975666 75924000
L238023285 75971619
L238070904 76066857
L238070904 76304952
L238023285 76400190
L237975666 76447809
L237880428 76495428
L237689952 76495428
L237594714 76447809
L237547095 76400190
L237499476 76304952
" />
</g></g>
<g style="fill:#AAAAE0; fill-opacity:0.0; 
stroke:#AAAAE0; stroke-width:120000.000000; stroke-opacity:1; 
stroke-linecap:round; stroke-linejoin:round;">
<path d="M156440317 129066000
L157894445 129066000
" />
<path d="M156440317 130886000
L157894445 130886000
" />
<path d="M250200317 48548000
L251654445 48548000
" />
<path d="M250200317 50368000
L251654445 50368000
" />
<path d="M29825381 28595064
L29825381 27140936
" />
<path d="M31645381 28595064
L31645381 27140936
" />
<path d="M190800317 94014000
L192254445 94014000
" />
<path d="M190800317 95834000
L192254445 95834000
" />
<path d="M282992317 254838000
L284446445 254838000
" />
<path d="M282992317 253018000
L284446445 253018000
" />
<path d="M250200317 60274000
L251654445 60274000
" />
<path d="M250200317 58454000
L251654445 58454000
" />
<path d="M31440317 113790000
L32894445 113790000
" />
<path d="M31440317 111970000
L32894445 111970000
" />
<path d="M282881317 224734000
L284335445 224734000
" />
<path d="M282881317 222914000
L284335445 222914000
" />
<path d="M224800317 110820000
L226254445 110820000
" />
<path d="M224800317 109000000
L226254445 109000000
" />
<path d="M190800317 130886000
L192254445 130886000
" />
<path d="M190800317 129066000
L192254445 129066000
" />
<path d="M224826317 95834000
L226280445 95834000
" />
<path d="M224826317 94014000
L226280445 94014000
" />
<path d="M238034317 53628000
L239488445 53628000
" />
<path d="M238034317 55448000
L239488445 55448000
" />
<path d="M238034317 43722000
L239488445 43722000
" />
<path d="M238034317 45542000
L239488445 45542000
" />
<path d="M238034317 80594000
L239488445 80594000
" />
<path d="M238034317 78774000
L239488445 78774000
" />
<path d="M238034317 63534000
L239488445 63534000
" />
<path d="M238034317 65354000
L239488445 65354000
" />
<path d="M156386317 99170000
L157840445 99170000
" />
<path d="M156386317 100990000
L157840445 100990000
" />
<path d="M156316317 115960000
L157770445 115960000
" />
<path d="M156316317 114140000
L157770445 114140000
" />
<path d="M224800317 120980000
L226254445 120980000
" />
<path d="M224800317 119160000
L226254445 119160000
" />
<path d="M250252317 68614000
L251706445 68614000
" />
<path d="M250252317 70434000
L251706445 70434000
" />
<path d="M280819381 27140936
L280819381 28595064
" />
<path d="M278999381 27140936
L278999381 28595064
" />
<path d="M190800317 109000000
L192254445 109000000
" />
<path d="M190800317 110820000
L192254445 110820000
" />
<path d="M145903381 188107064
L145903381 186652936
" />
<path d="M147723381 188107064
L147723381 186652936
" />
<path d="M112629381 28595064
L112629381 27140936
" />
<path d="M114449381 28595064
L114449381 27140936
" />
<path d="M238034317 60274000
L239488445 60274000
" />
<path d="M238034317 58454000
L239488445 58454000
" />
<path d="M360154445 139020000
L358700317 139020000
" />
<path d="M360154445 137200000
L358700317 137200000
" />
<path d="M190800317 115900000
L192254445 115900000
" />
<path d="M190800317 114080000
L192254445 114080000
" />
<path d="M238034317 70434000
L239488445 70434000
" />
<path d="M238034317 68614000
L239488445 68614000
" />
<path d="M238034317 50622000
L239488445 50622000
" />
<path d="M238034317 48802000
L239488445 48802000
" />
<path d="M190790317 104174000
L192244445 104174000
" />
<path d="M190790317 105994000
L192244445 105994000
" />
<path d="M190800317 99094000
L192254445 99094000
" />
<path d="M190800317 100914000
L192254445 100914000
" />
<path d="M224800317 125806000
L226254445 125806000
" />
<path d="M224800317 123986000
L226254445 123986000
" />
<path d="M224800317 115900000
L226254445 115900000
" />
<path d="M224800317 114080000
L226254445 114080000
" />
<path d="M250200317 65354000
L251654445 65354000
" />
<path d="M250200317 63534000
L251654445 63534000
" />
<path d="M156366317 121000000
L157820445 121000000
" />
<path d="M156366317 119180000
L157820445 119180000
" />
<path d="M250252317 78774000
L251706445 78774000
" />
<path d="M250252317 80594000
L251706445 80594000
" />
<path d="M190800317 119160000
L192254445 119160000
" />
<path d="M190800317 120980000
L192254445 120980000
" />
<path d="M156286317 110970000
L157740445 110970000
" />
<path d="M156286317 109150000
L157740445 109150000
" />
<path d="M156416317 125970000
L157870445 125970000
" />
<path d="M156416317 124150000
L157870445 124150000
" />
<path d="M250200317 43722000
L251654445 43722000
" />
<path d="M250200317 45542000
L251654445 45542000
" />
<path d="M224800317 129066000
L226254445 129066000
" />
<path d="M224800317 130886000
L226254445 130886000
" />
<path d="M156316317 105880000
L157770445 105880000
" />
<path d="M156316317 104060000
L157770445 104060000
" />
<path d="M156246317 95920000
L157700445 95920000
" />
<path d="M156246317 94100000
L157700445 94100000
" />
<path d="M363369381 27394936
L363369381 28849064
" />
<path d="M361549381 27394936
L361549381 28849064
" />
<path d="M214229381 188615064
L214229381 187160936
" />
<path d="M216049381 188615064
L216049381 187160936
" />
<path d="M190800317 124240000
L192254445 124240000
" />
<path d="M190800317 126060000
L192254445 126060000
" />
<path d="M224826317 100660000
L226280445 100660000
" />
<path d="M224826317 98840000
L226280445 98840000
" />
<path d="M322475381 27140936
L322475381 28595064
" />
<path d="M320655381 27140936
L320655381 28595064
" />
<path d="M33056317 252002000
L34510445 252002000
" />
<path d="M33056317 253822000
L34510445 253822000
" />
<path d="M224800317 103920000
L226254445 103920000
" />
<path d="M224800317 105740000
L226254445 105740000
" />
<path d="M71735381 28595064
L71735381 27140936
" />
<path d="M73555381 28595064
L73555381 27140936
" />
<path d="M33310317 224104000
L34764445 224104000
" />
<path d="M33310317 222284000
L34764445 222284000
" />
<path d="M250200317 55448000
L251654445 55448000
" />
<path d="M250200317 53628000
L251654445 53628000
" />
<path d="M250252317 73694000
L251706445 73694000
" />
<path d="M250252317 75514000
L251706445 75514000
" />
<path d="M181987381 188037064
L181987381 186582936
" />
<path d="M180167381 188037064
L180167381 186582936
" />
<path d="M238034317 75514000
L239488445 75514000
" />
<path d="M238034317 73694000
L239488445 73694000
" />
<g >
</g>
<g >
</g>
<g >
</g>
<g >
</g>
<g >
</g>
<g >
</g>
<g >
</g>
<g >
</g>
<g >
</g>
<g >
</g>
<g >
</g>
<g >
</g>
<g >
</g>
<g >
</g>
<g >
</g>
<g >
</g>
<g >
</g>
<g >
</g>
<g >
</g>
<g >
</g>
<g >
</g>
<g >
</g>
<g >
</g>
<g >
</g>
<g >
</g>
<g >
</g>
<g >
</g>
<g >
</g>
<g >
</g>
<g >
</g>
<g >
</g>
<g >
</g>
<g >
</g>
<g >
</g>
<g >
</g>
<g >
</g>
<g >
</g>
<g >
</g>
<g >
</g>
<g >
</g>
<g >
</g>
<g >
</g>
<g >
</g>
<g >
</g>
<g >
</g>
<g >
</g>
<g >
</g>
<g >
</g>
<g >
</g>
<g >
</g>
<g >
</g>
<g >
</g>
<g >
</g>
<g >
</g>
<g >
</g>
<g >
</g>
<g >
</g>
<g >
</g>
<g >
</g>
<g >
</g>
<g >
</g>
<g >
</g>
<g >
</g>
<g >
</g>
<g >
</g>
<g >
</g>
<g >
</g>
<g >
</g>
<g >
</g>
<g >
</g>
<g >
</g>
<g >
</g>
<g >
</g>
<g >
</g>
<g >
</g>
<g >
</g>
<g >
</g>
<g >
</g>
<g >
</g>
<g >
</g>
<g >
</g>
<g >
</g>
<g >
</g>
<g >
</g>
<g >
</g>
<g >
</g>
<g >
</g>
<g >
</g>
<g >
</g>
<g >
</g>
<g >
</g>
<g >
</g>
<g >
</g>
<g >
</g>
<g >
</g>
<g >
</g>
<g >
</g>
<g >
</g>
<g >
</g>
<g >
</g>
<g >
</g>
<g >
</g>
<g >
</g>
<g >
</g>
<g >
</g>
<g >
</g>
<g >
</g>
<g >
</g>
<g >
</g>
<g >
</g>
<g >
</g>
<g >
</g>
<g >
</g>
<g >
</g>
<g >
</g>
<g >
</g>
<g >
</g>
<g >
</g>
<g >
</g>
<g >
</g>
<g >
</g>
<g >
</g>
<g >
</g>
<g >
</g>
<g >
</g>
<g >
</g>
<g >
</g>
<g >
</g>
<g >
</g>
<g >
</g>
<g >
</g>
<g >
</g>
<g >
</g>
<g >
</g>
<g >
</g>
<g >
</g>
<g >
</g>
<g >
</g>
<g >
</g>
<g >
</g>
<g >
</g>
<g >
</g>
<g >
</g>
<g >
</g>
<g >
</g>
<g >
</g>
<g >
</g>
<g >
</g>
<g >
</g>
<g >
</g>
<g >
</g>
<g >
</g>
<g >
</g>
<g >
</g>
<g >
</g>
<g >
</g>
<g >
</g>
<g >
</g>
<g >
</g>
<g >
</g>
<g >
</g>
<g >
</g>
<g >
</g>
<g >
</g>
<g >
</g>
<g >
</g>
<g >
</g>
<g >
</g>
<g >
</g>
<g >
</g>
<g >
</g>
<g >
</g>
<g >
</g>
<g >
</g>
<g >
</g>
<g >
</g>
<g >
</g>
<g >
</g>
<g >
</g>
<g >
</g>
<g >
</g>
<g >
</g>
<g >
</g>
<g >
</g>
<g >
</g>
<g >
</g>
<g >
</g>
<g >
</g>
<g >
</g>
<g >
</g>
<g >
</g>
<g >
</g>
<g >
</g>
<g >
</g>
<g >
</g>
<g >
</g>
<g >
</g>
<g >
</g>
<g >
</g>
<g >
</g>
<g >
</g>
<g >
</g>
<g >
</g>
<g >
</g>
<g >
</g>
<g >
</g>
<g >
</g>
<g >
</g>
<g >
</g>
<g >
</g>
<g >
</g>
<g >
</g>
<g >
</g>
<g >
</g>
<g >
</g>
<g >
</g>
<g >
</g>
<g >
</g>
<g >
</g>
<g >
</g>
<g >
</g>
<g >
</g>
<g >
</g>
<g >
</g>
<g >
</g>
<g >
</g>
<g >
</g>
<g >
</g>
<g >
</g>
<g >
</g>
<g >
</g>
<g >
</g>
<g >
</g>
<g >
</g>
<g >
</g>
<g >
</g>
</g>
<g style="fill:#000000; fill-opacity:0.0; 
stroke:#000000; stroke-width:120000.000000; stroke-opacity:1; 
stroke-linecap:round; stroke-linejoin:round;">
</g>
<g style="fill:#A0A0A0; fill-opacity:0.0; 
stroke:#A0A0A0; stroke-width:120000.000000; stroke-opacity:1; 
stroke-linecap:round; stroke-linejoin:round;">
</g>
<g style="fill:#A0A0A0; fill-opacity:0.0; 
stroke:#A0A0A0; stroke-width:150000.000000; stroke-opacity:1; 
stroke-linecap:round; stroke-linejoin:round;">
<path d="M369527381 271050000
L9527381 271050000
" />
<path d="M9527381 271050000
L9527381 11050000
" />
<path d="M369527381 11050000
L369527381 271050000
" />
<path d="M9527381 11050000
L369527381 11050000
" />
<g >
</g>
<g >
</g>
<g >
</g>
<g >
</g>
<g >
</g>
<g >
</g>
<g >
</g>
<g >
</g>
<g >
</g>
<g >
</g>
<g >
</g>
<g >
</g>
<g >
</g>
<g >
</g>
<g >
</g>
<g >
</g>
<g >
</g>
<g >
</g>
<g >
</g>
<g >
</g>
<g >
</g>
<g >
</g>
<g >
</g>
<g >
</g>
<g >
</g>
<g >
</g>
<g >
</g>
<g >
</g>
<g >
</g>
<g >
</g>
<g >
</g>
<g >
</g>
<g >
</g>
<g >
</g>
<g >
</g>
<g >
</g>
<g >
</g>
<g >
</g>
<g >
</g>
<g >
</g>
<g >
</g>
<g >
</g>
<g >
</g>
<g >
</g>
<g >
</g>
<g >
</g>
<g >
</g>
<g >
</g>
<g >
</g>
<g >
</g>
<g >
</g>
<g >
</g>
<g >
</g>
<g >
</g>
<g >
</g>
<g >
</g>
<g >
</g>
<g >
</g>
<g >
</g>
<g >
</g>
<g >
</g>
<g >
</g>
<g >
</g>
<g >
</g>
<g >
</g>
<g >
</g>
<g >
</g>
<g >
</g>
<g >
</g>
<g >
</g>
<g >
</g>
<g >
</g>
<g >
</g>
<g >
</g>
<g >
</g>
<g >
</g>
<g >
</g>
<g >
</g>
<g >
</g>
<g >
</g>
<g >
</g>
<g >
</g>
<g >
</g>
<g >
</g>
<g >
</g>
<g >
</g>
<g >
</g>
<g >
</g>
<g >
</g>
<g >
</g>
<g >
</g>
<g >
</g>
<g >
</g>
<g >
</g>
<g >
</g>
<g >
</g>
<g >
</g>
<g >
</g>
<g >
</g>
<g >
</g>
<g >
</g>
<g >
</g>
<g >
</g>
<g >
</g>
<g >
</g>
<g >
</g>
<g >
</g>
<g >
</g>
<g >
</g>
<g >
</g>
<g >
</g>
<g >
</g>
<g >
</g>
<g >
</g>
<g >
</g>
<g >
</g>
<g >
</g>
<g >
</g>
<g >
</g>
<g >
</g>
<g >
</g>
<g >
</g>
<g >
</g>
<g >
</g>
<g >
</g>
<g >
</g>
<g >
</g>
<g >
</g>
<g >
</g>
<g >
</g>
<g >
</g>
<g >
</g>
<g >
</g>
<g >
</g>
<g >
</g>
<g >
</g>
<g >
</g>
<g >
</g>
<g >
</g>
<g >
</g>
<g >
</g>
<g >
</g>
<g >
</g>
<g >
</g>
<g >
</g>
<g >
</g>
<g >
</g>
<g >
</g>
<g >
</g>
<g >
</g>
<g >
</g>
<g >
</g>
<g >
</g>
<g >
</g>
<g >
</g>
<g >
</g>
<g >
</g>
<g >
</g>
<g >
</g>
<g >
</g>
<g >
</g>
<g >
</g>
<g >
</g>
<g >
</g>
<g >
</g>
<g >
</g>
<g >
</g>
<g >
</g>
<g >
</g>
<g >
</g>
<g >
</g>
<g >
</g>
<g >
</g>
<g >
</g>
<g >
</g>
<g >
</g>
<g >
</g>
<g >
</g>
<g >
</g>
<g >
</g>
<g >
</g>
<g >
</g>
<g >
</g>
<g >
</g>
<g >
</g>
<g >
</g>
<g >
</g>
<g >
</g>
<g >
</g>
<g >
</g>
<g >
</g>
<g >
</g>
<g >
</g>
<g >
</g>
<g >
</g>
<g >
</g>
<g >
</g>
<g >
</g>
<g >
</g>
<g >
</g>
<g >
</g>
<g >
</g>
<g >
</g>
<g >
</g>
<g >
</g>
<g >
</g>
<g >
</g>
<g >
</g>
<g >
</g>
<g >
</g>
<g >
</g>
<g >
</g>
<g >
</g>
<g >
</g>
<g >
</g>
<g >
</g>
<g >
</g>
<g >
</g>
<g >
</g>
<g >
</g>
<g >
</g>
<g >
</g>
<g >
</g>
<g >
</g>
<g >
</g>
<g >
</g>
<g >
</g>
<g >
</g>
<g >
</g>
<g >
</g>
<g >
</g>
<g >
</g>
<g >
</g>
<g >
</g>
<g >
</g>
<g >
</g>
</g> 
</svg>
