<?xml version="1.0" standalone="no"?>
 <!DOCTYPE svg PUBLIC "-//W3C//DTD SVG 1.1//EN" 
 "http://www.w3.org/Graphics/SVG/1.1/DTD/svg11.dtd"> 
<svg
  xmlns:svg="http://www.w3.org/2000/svg"
  xmlns="http://www.w3.org/2000/svg"
  xmlns:xlink="http://www.w3.org/1999/xlink"
  version="1.1"
  width="59.400440cm" height="41.998900cm" viewBox="0 0 594004400 419989000">
<title>SVG Picture created as Mixduino-B_Silkscreen.svg date 2021/05/01 16:34:19 </title>
  <desc>Picture generated by PCBNEW </desc>
<g style="fill:#000000; fill-opacity:1.000000;stroke:#000000; stroke-opacity:1.000000;
stroke-linecap:round; stroke-linejoin:round;"
 transform="translate(0 0) scale(1 1)">
</g>
<g style="fill:#000000; fill-opacity:0.0; 
stroke:#000000; stroke-width:0.000000; stroke-opacity:1; 
stroke-linecap:round; stroke-linejoin:round;">
</g>
<g style="fill:#000000; fill-opacity:0.0; 
stroke:#000000; stroke-width:150000.000000; stroke-opacity:1; 
stroke-linecap:round; stroke-linejoin:round;">
<path d="M479000000 311000000
L119000000 311000000
" />
<path d="M119000000 311000000
L119000000 51000000
" />
<path d="M479000000 51000000
L479000000 311000000
" />
<path d="M119000000 51000000
L479000000 51000000
" />
</g>
<g style="fill:#000000; fill-opacity:0.0; 
stroke:#000000; stroke-width:120000.000000; stroke-opacity:1; 
stroke-linecap:round; stroke-linejoin:round;">
<path d="M265912936 169016000
L267367064 169016000
" />
<path d="M265912936 170836000
L267367064 170836000
" />
<path d="M359672936 88498000
L361127064 88498000
" />
<path d="M359672936 90318000
L361127064 90318000
" />
<path d="M139298000 68545064
L139298000 67090936
" />
<path d="M141118000 68545064
L141118000 67090936
" />
<path d="M300272936 133964000
L301727064 133964000
" />
<path d="M300272936 135784000
L301727064 135784000
" />
<path d="M392464936 294788000
L393919064 294788000
" />
<path d="M392464936 292968000
L393919064 292968000
" />
<path d="M359672936 100224000
L361127064 100224000
" />
<path d="M359672936 98404000
L361127064 98404000
" />
<path d="M140912936 153740000
L142367064 153740000
" />
<path d="M140912936 151920000
L142367064 151920000
" />
<path d="M392353936 264684000
L393808064 264684000
" />
<path d="M392353936 262864000
L393808064 262864000
" />
<path d="M334272936 150770000
L335727064 150770000
" />
<path d="M334272936 148950000
L335727064 148950000
" />
<path d="M300272936 170836000
L301727064 170836000
" />
<path d="M300272936 169016000
L301727064 169016000
" />
<path d="M334298936 135784000
L335753064 135784000
" />
<path d="M334298936 133964000
L335753064 133964000
" />
<path d="M347506936 93578000
L348961064 93578000
" />
<path d="M347506936 95398000
L348961064 95398000
" />
<path d="M347506936 83672000
L348961064 83672000
" />
<path d="M347506936 85492000
L348961064 85492000
" />
<path d="M347506936 120544000
L348961064 120544000
" />
<path d="M347506936 118724000
L348961064 118724000
" />
<path d="M347506936 103484000
L348961064 103484000
" />
<path d="M347506936 105304000
L348961064 105304000
" />
<path d="M265858936 139120000
L267313064 139120000
" />
<path d="M265858936 140940000
L267313064 140940000
" />
<path d="M265788936 155910000
L267243064 155910000
" />
<path d="M265788936 154090000
L267243064 154090000
" />
<path d="M334272936 160930000
L335727064 160930000
" />
<path d="M334272936 159110000
L335727064 159110000
" />
<path d="M359724936 108564000
L361179064 108564000
" />
<path d="M359724936 110384000
L361179064 110384000
" />
<path d="M390292000 67090936
L390292000 68545064
" />
<path d="M388472000 67090936
L388472000 68545064
" />
<path d="M300272936 148950000
L301727064 148950000
" />
<path d="M300272936 150770000
L301727064 150770000
" />
<path d="M255376000 228057064
L255376000 226602936
" />
<path d="M257196000 228057064
L257196000 226602936
" />
<path d="M222102000 68545064
L222102000 67090936
" />
<path d="M223922000 68545064
L223922000 67090936
" />
<path d="M347506936 100224000
L348961064 100224000
" />
<path d="M347506936 98404000
L348961064 98404000
" />
<path d="M469627064 178970000
L468172936 178970000
" />
<path d="M469627064 177150000
L468172936 177150000
" />
<path d="M300272936 155850000
L301727064 155850000
" />
<path d="M300272936 154030000
L301727064 154030000
" />
<path d="M347506936 110384000
L348961064 110384000
" />
<path d="M347506936 108564000
L348961064 108564000
" />
<path d="M347506936 90572000
L348961064 90572000
" />
<path d="M347506936 88752000
L348961064 88752000
" />
<path d="M300262936 144124000
L301717064 144124000
" />
<path d="M300262936 145944000
L301717064 145944000
" />
<path d="M300272936 139044000
L301727064 139044000
" />
<path d="M300272936 140864000
L301727064 140864000
" />
<path d="M334272936 165756000
L335727064 165756000
" />
<path d="M334272936 163936000
L335727064 163936000
" />
<path d="M334272936 155850000
L335727064 155850000
" />
<path d="M334272936 154030000
L335727064 154030000
" />
<path d="M359672936 105304000
L361127064 105304000
" />
<path d="M359672936 103484000
L361127064 103484000
" />
<path d="M265838936 160950000
L267293064 160950000
" />
<path d="M265838936 159130000
L267293064 159130000
" />
<path d="M359724936 118724000
L361179064 118724000
" />
<path d="M359724936 120544000
L361179064 120544000
" />
<path d="M300272936 159110000
L301727064 159110000
" />
<path d="M300272936 160930000
L301727064 160930000
" />
<path d="M265758936 150920000
L267213064 150920000
" />
<path d="M265758936 149100000
L267213064 149100000
" />
<path d="M265888936 165920000
L267343064 165920000
" />
<path d="M265888936 164100000
L267343064 164100000
" />
<path d="M359672936 83672000
L361127064 83672000
" />
<path d="M359672936 85492000
L361127064 85492000
" />
<path d="M334272936 169016000
L335727064 169016000
" />
<path d="M334272936 170836000
L335727064 170836000
" />
<path d="M265788936 145830000
L267243064 145830000
" />
<path d="M265788936 144010000
L267243064 144010000
" />
<path d="M265718936 135870000
L267173064 135870000
" />
<path d="M265718936 134050000
L267173064 134050000
" />
<path d="M472842000 67344936
L472842000 68799064
" />
<path d="M471022000 67344936
L471022000 68799064
" />
<path d="M323702000 228565064
L323702000 227110936
" />
<path d="M325522000 228565064
L325522000 227110936
" />
<path d="M300272936 164190000
L301727064 164190000
" />
<path d="M300272936 166010000
L301727064 166010000
" />
<path d="M334298936 140610000
L335753064 140610000
" />
<path d="M334298936 138790000
L335753064 138790000
" />
<path d="M431948000 67090936
L431948000 68545064
" />
<path d="M430128000 67090936
L430128000 68545064
" />
<path d="M142528936 291952000
L143983064 291952000
" />
<path d="M142528936 293772000
L143983064 293772000
" />
<path d="M334272936 143870000
L335727064 143870000
" />
<path d="M334272936 145690000
L335727064 145690000
" />
<path d="M181208000 68545064
L181208000 67090936
" />
<path d="M183028000 68545064
L183028000 67090936
" />
<path d="M142782936 264054000
L144237064 264054000
" />
<path d="M142782936 262234000
L144237064 262234000
" />
<path d="M359672936 95398000
L361127064 95398000
" />
<path d="M359672936 93578000
L361127064 93578000
" />
<path d="M359724936 113644000
L361179064 113644000
" />
<path d="M359724936 115464000
L361179064 115464000
" />
<path d="M291460000 227987064
L291460000 226532936
" />
<path d="M289640000 227987064
L289640000 226532936
" />
<path d="M347506936 115464000
L348961064 115464000
" />
<path d="M347506936 113644000
L348961064 113644000
" />
<g >
</g>
<g >
</g>
<g >
</g>
<g >
</g>
<g >
</g>
<g >
</g>
<g >
</g>
<g >
</g>
<g >
</g>
<g >
</g>
<g >
</g>
<g >
</g>
<g >
</g>
<g >
</g>
<g >
</g>
<g >
</g>
<g >
</g>
<g >
</g>
<g >
</g>
<g >
</g>
<g >
</g>
<g >
</g>
<g >
</g>
<g >
</g>
<g >
</g>
<g >
</g>
<g >
</g>
<g >
</g>
<g >
</g>
<g >
</g>
<g >
</g>
<g >
</g>
<g >
</g>
<g >
</g>
<g >
</g>
<g >
</g>
<g >
</g>
<g >
</g>
<g >
</g>
<g >
</g>
<g >
</g>
<g >
</g>
<g >
</g>
<g >
</g>
<g >
</g>
<g >
</g>
<g >
</g>
<g >
</g>
<g >
</g>
<g >
</g>
<g >
</g>
<g >
</g>
<g >
</g>
<g >
</g>
<g >
</g>
<g >
</g>
<g >
</g>
<g >
</g>
<g >
</g>
<g >
</g>
<g >
</g>
<g >
</g>
<g >
</g>
<g >
</g>
<g >
</g>
<g >
</g>
<g >
</g>
<g >
</g>
<g >
</g>
<g >
</g>
<g >
</g>
<g >
</g>
<g >
</g>
<g >
</g>
<g >
</g>
<g >
</g>
<g >
</g>
<g >
</g>
<g >
</g>
<g >
</g>
<g >
</g>
<g >
</g>
<g >
</g>
<g >
</g>
<g >
</g>
<g >
</g>
<g >
</g>
<g >
</g>
<g >
</g>
<g >
</g>
<g >
</g>
<g >
</g>
<g >
</g>
<g >
</g>
<g >
</g>
<g >
</g>
<g >
</g>
<g >
</g>
<g >
</g>
<g >
</g>
<g >
</g>
<g >
</g>
<g >
</g>
<g >
</g>
<g >
</g>
<g >
</g>
<g >
</g>
<g >
</g>
<g >
</g>
<g >
</g>
<g >
</g>
<g >
</g>
<g >
</g>
<g >
</g>
<g >
</g>
<g >
</g>
<g >
</g>
<g >
</g>
<g >
</g>
<g >
</g>
<g >
</g>
<g >
</g>
<g >
</g>
<g >
</g>
<g >
</g>
<g >
</g>
<g >
</g>
<g >
</g>
<g >
</g>
<g >
</g>
<g >
</g>
<g >
</g>
<g >
</g>
<g >
</g>
<g >
</g>
<g >
</g>
<g >
</g>
<g >
</g>
<g >
</g>
<g >
</g>
<g >
</g>
<g >
</g>
<g >
</g>
<g >
</g>
<g >
</g>
<g >
</g>
<g >
</g>
<g >
</g>
<g >
</g>
<g >
</g>
<g >
</g>
<g >
</g>
<g >
</g>
<g >
</g>
<g >
</g>
<g >
</g>
<g >
</g>
<g >
</g>
<g >
</g>
<g >
</g>
<g >
</g>
<g >
</g>
<g >
</g>
<g >
</g>
<g >
</g>
<g >
</g>
<g >
</g>
<g >
</g>
<g >
</g>
<g >
</g>
<g >
</g>
<g >
</g>
<g >
</g>
<g >
</g>
<g >
</g>
<g >
</g>
<g >
</g>
<g >
</g>
<g >
</g>
<g >
</g>
<g >
</g>
<g >
</g>
<g >
</g>
<g >
</g>
<g >
</g>
<g >
</g>
<g >
</g>
<g >
</g>
<g >
</g>
<g >
</g>
<g >
</g>
<g >
</g>
<g >
</g>
<g >
</g>
<g >
</g>
<g >
</g>
<g >
</g>
<g >
</g>
<g >
</g>
<g >
</g>
<g >
</g>
<g >
</g>
<g >
</g>
<g >
</g>
<g >
</g>
<g >
</g>
<g >
</g>
<g >
</g>
<g >
</g>
<g >
</g>
<g >
</g>
<g >
</g>
<g >
</g>
<g >
</g>
<g >
</g>
<g >
</g>
<g >
</g>
<g >
</g>
<g >
</g>
<g >
</g>
<g >
</g>
<g >
</g>
<g >
</g>
<g >
</g>
<g >
</g>
<g >
</g>
<g >
</g>
<g >
</g>
<g >
</g>
<g >
</g>
<g >
</g>
<g >
</g>
<g >
</g>
<g >
</g>
<g >
</g>
<g >
</g>
</g> 
</svg>
