<?xml version="1.0" standalone="no"?>
 <!DOCTYPE svg PUBLIC "-//W3C//DTD SVG 1.1//EN" 
 "http://www.w3.org/Graphics/SVG/1.1/DTD/svg11.dtd"> 
<svg
  xmlns:svg="http://www.w3.org/2000/svg"
  xmlns="http://www.w3.org/2000/svg"
  xmlns:xlink="http://www.w3.org/1999/xlink"
  version="1.1"
  width="59.400440cm" height="41.998900cm" viewBox="0 0 594004400 419989000">
<title>SVG Picture created as Mixduino-B_Silkscreen.svg date 2021/07/29 16:07:25 </title>
  <desc>Picture generated by PCBNEW </desc>
<g style="fill:#000000; fill-opacity:1.000000;stroke:#000000; stroke-opacity:1.000000;
stroke-linecap:round; stroke-linejoin:round;"
 transform="translate(0 0) scale(1 1)">
</g>
<g style="fill:#000000; fill-opacity:0.0; 
stroke:#000000; stroke-width:0.000000; stroke-opacity:1; 
stroke-linecap:round; stroke-linejoin:round;">
</g>
<g style="fill:#000000; fill-opacity:0.0; 
stroke:#000000; stroke-width:150000.000000; stroke-opacity:1; 
stroke-linecap:round; stroke-linejoin:round;">
<path d="M479000000 311000000
L119000000 311000000
" />
<path d="M119000000 311000000
L119000000 51000000
" />
<path d="M479000000 51000000
L479000000 311000000
" />
<path d="M119000000 51000000
L479000000 51000000
" />
<text x="266640000.000000" y="172246000.000000"
transform="scale(-1 1) translate(-533280000.000000 0)"
textLength="1757381.000000" font-size="1333333.000000" lengthAdjust="spacingAndGlyphs"
text-anchor="middle" opacity="0">R1</text>
<g class="stroked-text"><desc>R1</desc>
<path d="M266806666 172198380
L267140000 171722190
" />
<path d="M267378095 172198380
L267378095 171198380
L266997142 171198380
L266901904 171246000
L266854285 171293619
L266806666 171388857
L266806666 171531714
L266854285 171626952
L266901904 171674571
L266997142 171722190
L267378095 171722190
" />
<path d="M265854285 172198380
L266425714 172198380
" />
<path d="M266140000 172198380
L266140000 171198380
L266235238 171341238
L266330476 171436476
L266425714 171484095
" />
</g><text x="360400000.000000" y="91728000.000000"
transform="scale(-1 1) translate(-720800000.000000 0)"
textLength="2709762.000000" font-size="1333333.000000" lengthAdjust="spacingAndGlyphs"
text-anchor="middle" opacity="0">R52</text>
<g class="stroked-text"><desc>R52</desc>
<path d="M361042857 91680380
L361376190 91204190
" />
<path d="M361614285 91680380
L361614285 90680380
L361233333 90680380
L361138095 90728000
L361090476 90775619
L361042857 90870857
L361042857 91013714
L361090476 91108952
L361138095 91156571
L361233333 91204190
L361614285 91204190
" />
<path d="M360138095 90680380
L360614285 90680380
L360661904 91156571
L360614285 91108952
L360519047 91061333
L360280952 91061333
L360185714 91108952
L360138095 91156571
L360090476 91251809
L360090476 91489904
L360138095 91585142
L360185714 91632761
L360280952 91680380
L360519047 91680380
L360614285 91632761
L360661904 91585142
" />
<path d="M359709523 90775619
L359661904 90728000
L359566666 90680380
L359328571 90680380
L359233333 90728000
L359185714 90775619
L359138095 90870857
L359138095 90966095
L359185714 91108952
L359757142 91680380
L359138095 91680380
" />
</g><g transform="rotate(-90.000000 141908000.000000 88228000.000000)">
<text x="141908000.000000" y="88728000.000000"
transform="scale(-1 1) translate(-283816000.000000 0)"
textLength="2709762.000000" font-size="1333333.000000" lengthAdjust="spacingAndGlyphs"
text-anchor="middle" opacity="0">R11</text>
</g>
<g class="stroked-text"><desc>R11</desc>
<path d="M142360380 87585142
L141884190 87251809
" />
<path d="M142360380 87013714
L141360380 87013714
L141360380 87394666
L141408000 87489904
L141455619 87537523
L141550857 87585142
L141693714 87585142
L141788952 87537523
L141836571 87489904
L141884190 87394666
L141884190 87013714
" />
<path d="M142360380 88537523
L142360380 87966095
" />
<path d="M142360380 88251809
L141360380 88251809
L141503238 88156571
L141598476 88061333
L141646095 87966095
" />
<path d="M142360380 89489904
L142360380 88918476
" />
<path d="M142360380 89204190
L141360380 89204190
L141503238 89108952
L141598476 89013714
L141646095 88918476
" />
</g><text x="301000000.000000" y="137194000.000000"
transform="scale(-1 1) translate(-602000000.000000 0)"
textLength="2709762.000000" font-size="1333333.000000" lengthAdjust="spacingAndGlyphs"
text-anchor="middle" opacity="0">R21</text>
<g class="stroked-text"><desc>R21</desc>
<path d="M301642857 137146380
L301976190 136670190
" />
<path d="M302214285 137146380
L302214285 136146380
L301833333 136146380
L301738095 136194000
L301690476 136241619
L301642857 136336857
L301642857 136479714
L301690476 136574952
L301738095 136622571
L301833333 136670190
L302214285 136670190
" />
<path d="M301261904 136241619
L301214285 136194000
L301119047 136146380
L300880952 136146380
L300785714 136194000
L300738095 136241619
L300690476 136336857
L300690476 136432095
L300738095 136574952
L301309523 137146380
L300690476 137146380
" />
<path d="M299738095 137146380
L300309523 137146380
" />
<path d="M300023809 137146380
L300023809 136146380
L300119047 136289238
L300214285 136384476
L300309523 136432095
" />
</g><text x="393192000.000000" y="296198000.000000"
transform="scale(-1 1) translate(-786384000.000000 0)"
textLength="2709762.000000" font-size="1333333.000000" lengthAdjust="spacingAndGlyphs"
text-anchor="middle" opacity="0">R25</text>
<g class="stroked-text"><desc>R25</desc>
<path d="M393834857 296150380
L394168190 295674190
" />
<path d="M394406285 296150380
L394406285 295150380
L394025333 295150380
L393930095 295198000
L393882476 295245619
L393834857 295340857
L393834857 295483714
L393882476 295578952
L393930095 295626571
L394025333 295674190
L394406285 295674190
" />
<path d="M393453904 295245619
L393406285 295198000
L393311047 295150380
L393072952 295150380
L392977714 295198000
L392930095 295245619
L392882476 295340857
L392882476 295436095
L392930095 295578952
L393501523 296150380
L392882476 296150380
" />
<path d="M391977714 295150380
L392453904 295150380
L392501523 295626571
L392453904 295578952
L392358666 295531333
L392120571 295531333
L392025333 295578952
L391977714 295626571
L391930095 295721809
L391930095 295959904
L391977714 296055142
L392025333 296102761
L392120571 296150380
L392358666 296150380
L392453904 296102761
L392501523 296055142
" />
</g><text x="360400000.000000" y="101634000.000000"
transform="scale(-1 1) translate(-720800000.000000 0)"
textLength="2709762.000000" font-size="1333333.000000" lengthAdjust="spacingAndGlyphs"
text-anchor="middle" opacity="0">R50</text>
<g class="stroked-text"><desc>R50</desc>
<path d="M361042857 101586380
L361376190 101110190
" />
<path d="M361614285 101586380
L361614285 100586380
L361233333 100586380
L361138095 100634000
L361090476 100681619
L361042857 100776857
L361042857 100919714
L361090476 101014952
L361138095 101062571
L361233333 101110190
L361614285 101110190
" />
<path d="M360138095 100586380
L360614285 100586380
L360661904 101062571
L360614285 101014952
L360519047 100967333
L360280952 100967333
L360185714 101014952
L360138095 101062571
L360090476 101157809
L360090476 101395904
L360138095 101491142
L360185714 101538761
L360280952 101586380
L360519047 101586380
L360614285 101538761
L360661904 101491142
" />
<path d="M359471428 100586380
L359376190 100586380
L359280952 100634000
L359233333 100681619
L359185714 100776857
L359138095 100967333
L359138095 101205428
L359185714 101395904
L359233333 101491142
L359280952 101538761
L359376190 101586380
L359471428 101586380
L359566666 101538761
L359614285 101491142
L359661904 101395904
L359709523 101205428
L359709523 100967333
L359661904 100776857
L359614285 100681619
L359566666 100634000
L359471428 100586380
" />
</g><text x="144700000.000000" y="151920000.000000"
transform="scale(-1 1) translate(-289400000.000000 0)"
textLength="3805000.000000" font-size="1333333.000000" lengthAdjust="spacingAndGlyphs"
text-anchor="middle" opacity="0">NPR1</text>
<g class="stroked-text"><desc>NPR1</desc>
<path d="M146461904 151872380
L146461904 150872380
L145890476 151872380
L145890476 150872380
" />
<path d="M145414285 151872380
L145414285 150872380
L145033333 150872380
L144938095 150920000
L144890476 150967619
L144842857 151062857
L144842857 151205714
L144890476 151300952
L144938095 151348571
L145033333 151396190
L145414285 151396190
" />
<path d="M143842857 151872380
L144176190 151396190
" />
<path d="M144414285 151872380
L144414285 150872380
L144033333 150872380
L143938095 150920000
L143890476 150967619
L143842857 151062857
L143842857 151205714
L143890476 151300952
L143938095 151348571
L144033333 151396190
L144414285 151396190
" />
<path d="M142890476 151872380
L143461904 151872380
" />
<path d="M143176190 151872380
L143176190 150872380
L143271428 151015238
L143366666 151110476
L143461904 151158095
" />
</g><text x="393081000.000000" y="266094000.000000"
transform="scale(-1 1) translate(-786162000.000000 0)"
textLength="2709762.000000" font-size="1333333.000000" lengthAdjust="spacingAndGlyphs"
text-anchor="middle" opacity="0">R26</text>
<g class="stroked-text"><desc>R26</desc>
<path d="M393723857 266046380
L394057190 265570190
" />
<path d="M394295285 266046380
L394295285 265046380
L393914333 265046380
L393819095 265094000
L393771476 265141619
L393723857 265236857
L393723857 265379714
L393771476 265474952
L393819095 265522571
L393914333 265570190
L394295285 265570190
" />
<path d="M393342904 265141619
L393295285 265094000
L393200047 265046380
L392961952 265046380
L392866714 265094000
L392819095 265141619
L392771476 265236857
L392771476 265332095
L392819095 265474952
L393390523 266046380
L392771476 266046380
" />
<path d="M391914333 265046380
L392104809 265046380
L392200047 265094000
L392247666 265141619
L392342904 265284476
L392390523 265474952
L392390523 265855904
L392342904 265951142
L392295285 265998761
L392200047 266046380
L392009571 266046380
L391914333 265998761
L391866714 265951142
L391819095 265855904
L391819095 265617809
L391866714 265522571
L391914333 265474952
L392009571 265427333
L392200047 265427333
L392295285 265474952
L392342904 265522571
L392390523 265617809
" />
</g><text x="335000000.000000" y="152180000.000000"
transform="scale(-1 1) translate(-670000000.000000 0)"
textLength="2709762.000000" font-size="1333333.000000" lengthAdjust="spacingAndGlyphs"
text-anchor="middle" opacity="0">R34</text>
<g class="stroked-text"><desc>R34</desc>
<path d="M335642857 152132380
L335976190 151656190
" />
<path d="M336214285 152132380
L336214285 151132380
L335833333 151132380
L335738095 151180000
L335690476 151227619
L335642857 151322857
L335642857 151465714
L335690476 151560952
L335738095 151608571
L335833333 151656190
L336214285 151656190
" />
<path d="M335309523 151132380
L334690476 151132380
L335023809 151513333
L334880952 151513333
L334785714 151560952
L334738095 151608571
L334690476 151703809
L334690476 151941904
L334738095 152037142
L334785714 152084761
L334880952 152132380
L335166666 152132380
L335261904 152084761
L335309523 152037142
" />
<path d="M333833333 151465714
L333833333 152132380
" />
<path d="M334071428 151084761
L334309523 151799047
L333690476 151799047
" />
</g><text x="301000000.000000" y="172246000.000000"
transform="scale(-1 1) translate(-602000000.000000 0)"
textLength="2709762.000000" font-size="1333333.000000" lengthAdjust="spacingAndGlyphs"
text-anchor="middle" opacity="0">R14</text>
<g class="stroked-text"><desc>R14</desc>
<path d="M301642857 172198380
L301976190 171722190
" />
<path d="M302214285 172198380
L302214285 171198380
L301833333 171198380
L301738095 171246000
L301690476 171293619
L301642857 171388857
L301642857 171531714
L301690476 171626952
L301738095 171674571
L301833333 171722190
L302214285 171722190
" />
<path d="M300690476 172198380
L301261904 172198380
" />
<path d="M300976190 172198380
L300976190 171198380
L301071428 171341238
L301166666 171436476
L301261904 171484095
" />
<path d="M299833333 171531714
L299833333 172198380
" />
<path d="M300071428 171150761
L300309523 171865047
L299690476 171865047
" />
</g><text x="335026000.000000" y="137194000.000000"
transform="scale(-1 1) translate(-670052000.000000 0)"
textLength="2709762.000000" font-size="1333333.000000" lengthAdjust="spacingAndGlyphs"
text-anchor="middle" opacity="0">R37</text>
<g class="stroked-text"><desc>R37</desc>
<path d="M335668857 137146380
L336002190 136670190
" />
<path d="M336240285 137146380
L336240285 136146380
L335859333 136146380
L335764095 136194000
L335716476 136241619
L335668857 136336857
L335668857 136479714
L335716476 136574952
L335764095 136622571
L335859333 136670190
L336240285 136670190
" />
<path d="M335335523 136146380
L334716476 136146380
L335049809 136527333
L334906952 136527333
L334811714 136574952
L334764095 136622571
L334716476 136717809
L334716476 136955904
L334764095 137051142
L334811714 137098761
L334906952 137146380
L335192666 137146380
L335287904 137098761
L335335523 137051142
" />
<path d="M334383142 136146380
L333716476 136146380
L334145047 137146380
" />
</g><text x="348234000.000000" y="96808000.000000"
transform="scale(-1 1) translate(-696468000.000000 0)"
textLength="2709762.000000" font-size="1333333.000000" lengthAdjust="spacingAndGlyphs"
text-anchor="middle" opacity="0">R43</text>
<g class="stroked-text"><desc>R43</desc>
<path d="M348876857 96760380
L349210190 96284190
" />
<path d="M349448285 96760380
L349448285 95760380
L349067333 95760380
L348972095 95808000
L348924476 95855619
L348876857 95950857
L348876857 96093714
L348924476 96188952
L348972095 96236571
L349067333 96284190
L349448285 96284190
" />
<path d="M348019714 96093714
L348019714 96760380
" />
<path d="M348257809 95712761
L348495904 96427047
L347876857 96427047
" />
<path d="M347591142 95760380
L346972095 95760380
L347305428 96141333
L347162571 96141333
L347067333 96188952
L347019714 96236571
L346972095 96331809
L346972095 96569904
L347019714 96665142
L347067333 96712761
L347162571 96760380
L347448285 96760380
L347543523 96712761
L347591142 96665142
" />
</g><text x="348234000.000000" y="86902000.000000"
transform="scale(-1 1) translate(-696468000.000000 0)"
textLength="2709762.000000" font-size="1333333.000000" lengthAdjust="spacingAndGlyphs"
text-anchor="middle" opacity="0">R45</text>
<g class="stroked-text"><desc>R45</desc>
<path d="M348876857 86854380
L349210190 86378190
" />
<path d="M349448285 86854380
L349448285 85854380
L349067333 85854380
L348972095 85902000
L348924476 85949619
L348876857 86044857
L348876857 86187714
L348924476 86282952
L348972095 86330571
L349067333 86378190
L349448285 86378190
" />
<path d="M348019714 86187714
L348019714 86854380
" />
<path d="M348257809 85806761
L348495904 86521047
L347876857 86521047
" />
<path d="M347019714 85854380
L347495904 85854380
L347543523 86330571
L347495904 86282952
L347400666 86235333
L347162571 86235333
L347067333 86282952
L347019714 86330571
L346972095 86425809
L346972095 86663904
L347019714 86759142
L347067333 86806761
L347162571 86854380
L347400666 86854380
L347495904 86806761
L347543523 86759142
" />
</g><g transform="rotate(-90.000000 445310000.000000 271990000.000000)">
<text x="445310000.000000" y="272490000.000000"
transform="scale(-1 1) translate(-890620000.000000 0)"
textLength="2709762.000000" font-size="1333333.000000" lengthAdjust="spacingAndGlyphs"
text-anchor="middle" opacity="0">R55</text>
</g>
<g class="stroked-text"><desc>R55</desc>
<path d="M445762380 271347142
L445286190 271013809
" />
<path d="M445762380 270775714
L444762380 270775714
L444762380 271156666
L444810000 271251904
L444857619 271299523
L444952857 271347142
L445095714 271347142
L445190952 271299523
L445238571 271251904
L445286190 271156666
L445286190 270775714
" />
<path d="M444762380 272251904
L444762380 271775714
L445238571 271728095
L445190952 271775714
L445143333 271870952
L445143333 272109047
L445190952 272204285
L445238571 272251904
L445333809 272299523
L445571904 272299523
L445667142 272251904
L445714761 272204285
L445762380 272109047
L445762380 271870952
L445714761 271775714
L445667142 271728095
" />
<path d="M444762380 273204285
L444762380 272728095
L445238571 272680476
L445190952 272728095
L445143333 272823333
L445143333 273061428
L445190952 273156666
L445238571 273204285
L445333809 273251904
L445571904 273251904
L445667142 273204285
L445714761 273156666
L445762380 273061428
L445762380 272823333
L445714761 272728095
L445667142 272680476
" />
</g><text x="348234000.000000" y="121954000.000000"
transform="scale(-1 1) translate(-696468000.000000 0)"
textLength="2709762.000000" font-size="1333333.000000" lengthAdjust="spacingAndGlyphs"
text-anchor="middle" opacity="0">R38</text>
<g class="stroked-text"><desc>R38</desc>
<path d="M348876857 121906380
L349210190 121430190
" />
<path d="M349448285 121906380
L349448285 120906380
L349067333 120906380
L348972095 120954000
L348924476 121001619
L348876857 121096857
L348876857 121239714
L348924476 121334952
L348972095 121382571
L349067333 121430190
L349448285 121430190
" />
<path d="M348543523 120906380
L347924476 120906380
L348257809 121287333
L348114952 121287333
L348019714 121334952
L347972095 121382571
L347924476 121477809
L347924476 121715904
L347972095 121811142
L348019714 121858761
L348114952 121906380
L348400666 121906380
L348495904 121858761
L348543523 121811142
" />
<path d="M347353047 121334952
L347448285 121287333
L347495904 121239714
L347543523 121144476
L347543523 121096857
L347495904 121001619
L347448285 120954000
L347353047 120906380
L347162571 120906380
L347067333 120954000
L347019714 121001619
L346972095 121096857
L346972095 121144476
L347019714 121239714
L347067333 121287333
L347162571 121334952
L347353047 121334952
L347448285 121382571
L347495904 121430190
L347543523 121525428
L347543523 121715904
L347495904 121811142
L347448285 121858761
L347353047 121906380
L347162571 121906380
L347067333 121858761
L347019714 121811142
L346972095 121715904
L346972095 121525428
L347019714 121430190
L347067333 121382571
L347162571 121334952
" />
</g><text x="348234000.000000" y="106714000.000000"
transform="scale(-1 1) translate(-696468000.000000 0)"
textLength="2709762.000000" font-size="1333333.000000" lengthAdjust="spacingAndGlyphs"
text-anchor="middle" opacity="0">R41</text>
<g class="stroked-text"><desc>R41</desc>
<path d="M348876857 106666380
L349210190 106190190
" />
<path d="M349448285 106666380
L349448285 105666380
L349067333 105666380
L348972095 105714000
L348924476 105761619
L348876857 105856857
L348876857 105999714
L348924476 106094952
L348972095 106142571
L349067333 106190190
L349448285 106190190
" />
<path d="M348019714 105999714
L348019714 106666380
" />
<path d="M348257809 105618761
L348495904 106333047
L347876857 106333047
" />
<path d="M346972095 106666380
L347543523 106666380
" />
<path d="M347257809 106666380
L347257809 105666380
L347353047 105809238
L347448285 105904476
L347543523 105952095
" />
</g><text x="266586000.000000" y="142350000.000000"
transform="scale(-1 1) translate(-533172000.000000 0)"
textLength="1757381.000000" font-size="1333333.000000" lengthAdjust="spacingAndGlyphs"
text-anchor="middle" opacity="0">R7</text>
<g class="stroked-text"><desc>R7</desc>
<path d="M266752666 142302380
L267086000 141826190
" />
<path d="M267324095 142302380
L267324095 141302380
L266943142 141302380
L266847904 141350000
L266800285 141397619
L266752666 141492857
L266752666 141635714
L266800285 141730952
L266847904 141778571
L266943142 141826190
L267324095 141826190
" />
<path d="M266419333 141302380
L265752666 141302380
L266181238 142302380
" />
</g><text x="266516000.000000" y="157320000.000000"
transform="scale(-1 1) translate(-533032000.000000 0)"
textLength="1757381.000000" font-size="1333333.000000" lengthAdjust="spacingAndGlyphs"
text-anchor="middle" opacity="0">R4</text>
<g class="stroked-text"><desc>R4</desc>
<path d="M266682666 157272380
L267016000 156796190
" />
<path d="M267254095 157272380
L267254095 156272380
L266873142 156272380
L266777904 156320000
L266730285 156367619
L266682666 156462857
L266682666 156605714
L266730285 156700952
L266777904 156748571
L266873142 156796190
L267254095 156796190
" />
<path d="M265825523 156605714
L265825523 157272380
" />
<path d="M266063619 156224761
L266301714 156939047
L265682666 156939047
" />
</g><text x="335000000.000000" y="162340000.000000"
transform="scale(-1 1) translate(-670000000.000000 0)"
textLength="2709762.000000" font-size="1333333.000000" lengthAdjust="spacingAndGlyphs"
text-anchor="middle" opacity="0">R32</text>
<g class="stroked-text"><desc>R32</desc>
<path d="M335642857 162292380
L335976190 161816190
" />
<path d="M336214285 162292380
L336214285 161292380
L335833333 161292380
L335738095 161340000
L335690476 161387619
L335642857 161482857
L335642857 161625714
L335690476 161720952
L335738095 161768571
L335833333 161816190
L336214285 161816190
" />
<path d="M335309523 161292380
L334690476 161292380
L335023809 161673333
L334880952 161673333
L334785714 161720952
L334738095 161768571
L334690476 161863809
L334690476 162101904
L334738095 162197142
L334785714 162244761
L334880952 162292380
L335166666 162292380
L335261904 162244761
L335309523 162197142
" />
<path d="M334309523 161387619
L334261904 161340000
L334166666 161292380
L333928571 161292380
L333833333 161340000
L333785714 161387619
L333738095 161482857
L333738095 161578095
L333785714 161720952
L334357142 162292380
L333738095 162292380
" />
</g><text x="360452000.000000" y="111794000.000000"
transform="scale(-1 1) translate(-720904000.000000 0)"
textLength="2709762.000000" font-size="1333333.000000" lengthAdjust="spacingAndGlyphs"
text-anchor="middle" opacity="0">R48</text>
<g class="stroked-text"><desc>R48</desc>
<path d="M361094857 111746380
L361428190 111270190
" />
<path d="M361666285 111746380
L361666285 110746380
L361285333 110746380
L361190095 110794000
L361142476 110841619
L361094857 110936857
L361094857 111079714
L361142476 111174952
L361190095 111222571
L361285333 111270190
L361666285 111270190
" />
<path d="M360237714 111079714
L360237714 111746380
" />
<path d="M360475809 110698761
L360713904 111413047
L360094857 111413047
" />
<path d="M359571047 111174952
L359666285 111127333
L359713904 111079714
L359761523 110984476
L359761523 110936857
L359713904 110841619
L359666285 110794000
L359571047 110746380
L359380571 110746380
L359285333 110794000
L359237714 110841619
L359190095 110936857
L359190095 110984476
L359237714 111079714
L359285333 111127333
L359380571 111174952
L359571047 111174952
L359666285 111222571
L359713904 111270190
L359761523 111365428
L359761523 111555904
L359713904 111651142
L359666285 111698761
L359571047 111746380
L359380571 111746380
L359285333 111698761
L359237714 111651142
L359190095 111555904
L359190095 111365428
L359237714 111270190
L359285333 111222571
L359380571 111174952
" />
</g><g transform="rotate(-90.000000 387466000.000000 88106000.000000)">
<text x="387466000.000000" y="88606000.000000"
transform="scale(-1 1) translate(-774932000.000000 0)"
textLength="2709762.000000" font-size="1333333.000000" lengthAdjust="spacingAndGlyphs"
text-anchor="middle" opacity="0">R27</text>
</g>
<g class="stroked-text"><desc>R27</desc>
<path d="M387918380 87463142
L387442190 87129809
" />
<path d="M387918380 86891714
L386918380 86891714
L386918380 87272666
L386966000 87367904
L387013619 87415523
L387108857 87463142
L387251714 87463142
L387346952 87415523
L387394571 87367904
L387442190 87272666
L387442190 86891714
" />
<path d="M387013619 87844095
L386966000 87891714
L386918380 87986952
L386918380 88225047
L386966000 88320285
L387013619 88367904
L387108857 88415523
L387204095 88415523
L387346952 88367904
L387918380 87796476
L387918380 88415523
" />
<path d="M386918380 88748857
L386918380 89415523
L387918380 88986952
" />
</g><text x="301000000.000000" y="152180000.000000"
transform="scale(-1 1) translate(-602000000.000000 0)"
textLength="2709762.000000" font-size="1333333.000000" lengthAdjust="spacingAndGlyphs"
text-anchor="middle" opacity="0">R18</text>
<g class="stroked-text"><desc>R18</desc>
<path d="M301642857 152132380
L301976190 151656190
" />
<path d="M302214285 152132380
L302214285 151132380
L301833333 151132380
L301738095 151180000
L301690476 151227619
L301642857 151322857
L301642857 151465714
L301690476 151560952
L301738095 151608571
L301833333 151656190
L302214285 151656190
" />
<path d="M300690476 152132380
L301261904 152132380
" />
<path d="M300976190 152132380
L300976190 151132380
L301071428 151275238
L301166666 151370476
L301261904 151418095
" />
<path d="M300119047 151560952
L300214285 151513333
L300261904 151465714
L300309523 151370476
L300309523 151322857
L300261904 151227619
L300214285 151180000
L300119047 151132380
L299928571 151132380
L299833333 151180000
L299785714 151227619
L299738095 151322857
L299738095 151370476
L299785714 151465714
L299833333 151513333
L299928571 151560952
L300119047 151560952
L300214285 151608571
L300261904 151656190
L300309523 151751428
L300309523 151941904
L300261904 152037142
L300214285 152084761
L300119047 152132380
L299928571 152132380
L299833333 152084761
L299785714 152037142
L299738095 151941904
L299738095 151751428
L299785714 151656190
L299833333 151608571
L299928571 151560952
" />
</g><g transform="rotate(-90.000000 258106000.000000 227330000.000000)">
<text x="258106000.000000" y="227830000.000000"
transform="scale(-1 1) translate(-516212000.000000 0)"
textLength="2709762.000000" font-size="1333333.000000" lengthAdjust="spacingAndGlyphs"
text-anchor="middle" opacity="0">R22</text>
</g>
<g class="stroked-text"><desc>R22</desc>
<path d="M258558380 226687142
L258082190 226353809
" />
<path d="M258558380 226115714
L257558380 226115714
L257558380 226496666
L257606000 226591904
L257653619 226639523
L257748857 226687142
L257891714 226687142
L257986952 226639523
L258034571 226591904
L258082190 226496666
L258082190 226115714
" />
<path d="M257653619 227068095
L257606000 227115714
L257558380 227210952
L257558380 227449047
L257606000 227544285
L257653619 227591904
L257748857 227639523
L257844095 227639523
L257986952 227591904
L258558380 227020476
L258558380 227639523
" />
<path d="M257653619 228020476
L257606000 228068095
L257558380 228163333
L257558380 228401428
L257606000 228496666
L257653619 228544285
L257748857 228591904
L257844095 228591904
L257986952 228544285
L258558380 227972857
L258558380 228591904
" />
</g><g transform="rotate(-90.000000 224712000.000000 88228000.000000)">
<text x="224712000.000000" y="88728000.000000"
transform="scale(-1 1) translate(-449424000.000000 0)"
textLength="2709762.000000" font-size="1333333.000000" lengthAdjust="spacingAndGlyphs"
text-anchor="middle" opacity="0">R13</text>
</g>
<g class="stroked-text"><desc>R13</desc>
<path d="M225164380 87585142
L224688190 87251809
" />
<path d="M225164380 87013714
L224164380 87013714
L224164380 87394666
L224212000 87489904
L224259619 87537523
L224354857 87585142
L224497714 87585142
L224592952 87537523
L224640571 87489904
L224688190 87394666
L224688190 87013714
" />
<path d="M225164380 88537523
L225164380 87966095
" />
<path d="M225164380 88251809
L224164380 88251809
L224307238 88156571
L224402476 88061333
L224450095 87966095
" />
<path d="M224164380 88870857
L224164380 89489904
L224545333 89156571
L224545333 89299428
L224592952 89394666
L224640571 89442285
L224735809 89489904
L224973904 89489904
L225069142 89442285
L225116761 89394666
L225164380 89299428
L225164380 89013714
L225116761 88918476
L225069142 88870857
" />
</g><text x="348234000.000000" y="101634000.000000"
transform="scale(-1 1) translate(-696468000.000000 0)"
textLength="2709762.000000" font-size="1333333.000000" lengthAdjust="spacingAndGlyphs"
text-anchor="middle" opacity="0">R42</text>
<g class="stroked-text"><desc>R42</desc>
<path d="M348876857 101586380
L349210190 101110190
" />
<path d="M349448285 101586380
L349448285 100586380
L349067333 100586380
L348972095 100634000
L348924476 100681619
L348876857 100776857
L348876857 100919714
L348924476 101014952
L348972095 101062571
L349067333 101110190
L349448285 101110190
" />
<path d="M348019714 100919714
L348019714 101586380
" />
<path d="M348257809 100538761
L348495904 101253047
L347876857 101253047
" />
<path d="M347543523 100681619
L347495904 100634000
L347400666 100586380
L347162571 100586380
L347067333 100634000
L347019714 100681619
L346972095 100776857
L346972095 100872095
L347019714 101014952
L347591142 101586380
L346972095 101586380
" />
</g><text x="301000000.000000" y="157260000.000000"
transform="scale(-1 1) translate(-602000000.000000 0)"
textLength="2709762.000000" font-size="1333333.000000" lengthAdjust="spacingAndGlyphs"
text-anchor="middle" opacity="0">R17</text>
<g class="stroked-text"><desc>R17</desc>
<path d="M301642857 157212380
L301976190 156736190
" />
<path d="M302214285 157212380
L302214285 156212380
L301833333 156212380
L301738095 156260000
L301690476 156307619
L301642857 156402857
L301642857 156545714
L301690476 156640952
L301738095 156688571
L301833333 156736190
L302214285 156736190
" />
<path d="M300690476 157212380
L301261904 157212380
" />
<path d="M300976190 157212380
L300976190 156212380
L301071428 156355238
L301166666 156450476
L301261904 156498095
" />
<path d="M300357142 156212380
L299690476 156212380
L300119047 157212380
" />
</g><text x="348234000.000000" y="111794000.000000"
transform="scale(-1 1) translate(-696468000.000000 0)"
textLength="2709762.000000" font-size="1333333.000000" lengthAdjust="spacingAndGlyphs"
text-anchor="middle" opacity="0">R40</text>
<g class="stroked-text"><desc>R40</desc>
<path d="M348876857 111746380
L349210190 111270190
" />
<path d="M349448285 111746380
L349448285 110746380
L349067333 110746380
L348972095 110794000
L348924476 110841619
L348876857 110936857
L348876857 111079714
L348924476 111174952
L348972095 111222571
L349067333 111270190
L349448285 111270190
" />
<path d="M348019714 111079714
L348019714 111746380
" />
<path d="M348257809 110698761
L348495904 111413047
L347876857 111413047
" />
<path d="M347305428 110746380
L347210190 110746380
L347114952 110794000
L347067333 110841619
L347019714 110936857
L346972095 111127333
L346972095 111365428
L347019714 111555904
L347067333 111651142
L347114952 111698761
L347210190 111746380
L347305428 111746380
L347400666 111698761
L347448285 111651142
L347495904 111555904
L347543523 111365428
L347543523 111127333
L347495904 110936857
L347448285 110841619
L347400666 110794000
L347305428 110746380
" />
</g><text x="348234000.000000" y="91982000.000000"
transform="scale(-1 1) translate(-696468000.000000 0)"
textLength="2709762.000000" font-size="1333333.000000" lengthAdjust="spacingAndGlyphs"
text-anchor="middle" opacity="0">R44</text>
<g class="stroked-text"><desc>R44</desc>
<path d="M348876857 91934380
L349210190 91458190
" />
<path d="M349448285 91934380
L349448285 90934380
L349067333 90934380
L348972095 90982000
L348924476 91029619
L348876857 91124857
L348876857 91267714
L348924476 91362952
L348972095 91410571
L349067333 91458190
L349448285 91458190
" />
<path d="M348019714 91267714
L348019714 91934380
" />
<path d="M348257809 90886761
L348495904 91601047
L347876857 91601047
" />
<path d="M347067333 91267714
L347067333 91934380
" />
<path d="M347305428 90886761
L347543523 91601047
L346924476 91601047
" />
</g><text x="300990000.000000" y="147354000.000000"
transform="scale(-1 1) translate(-601980000.000000 0)"
textLength="2709762.000000" font-size="1333333.000000" lengthAdjust="spacingAndGlyphs"
text-anchor="middle" opacity="0">R19</text>
<g class="stroked-text"><desc>R19</desc>
<path d="M301632857 147306380
L301966190 146830190
" />
<path d="M302204285 147306380
L302204285 146306380
L301823333 146306380
L301728095 146354000
L301680476 146401619
L301632857 146496857
L301632857 146639714
L301680476 146734952
L301728095 146782571
L301823333 146830190
L302204285 146830190
" />
<path d="M300680476 147306380
L301251904 147306380
" />
<path d="M300966190 147306380
L300966190 146306380
L301061428 146449238
L301156666 146544476
L301251904 146592095
" />
<path d="M300204285 147306380
L300013809 147306380
L299918571 147258761
L299870952 147211142
L299775714 147068285
L299728095 146877809
L299728095 146496857
L299775714 146401619
L299823333 146354000
L299918571 146306380
L300109047 146306380
L300204285 146354000
L300251904 146401619
L300299523 146496857
L300299523 146734952
L300251904 146830190
L300204285 146877809
L300109047 146925428
L299918571 146925428
L299823333 146877809
L299775714 146830190
L299728095 146734952
" />
</g><text x="301000000.000000" y="142274000.000000"
transform="scale(-1 1) translate(-602000000.000000 0)"
textLength="2709762.000000" font-size="1333333.000000" lengthAdjust="spacingAndGlyphs"
text-anchor="middle" opacity="0">R20</text>
<g class="stroked-text"><desc>R20</desc>
<path d="M301642857 142226380
L301976190 141750190
" />
<path d="M302214285 142226380
L302214285 141226380
L301833333 141226380
L301738095 141274000
L301690476 141321619
L301642857 141416857
L301642857 141559714
L301690476 141654952
L301738095 141702571
L301833333 141750190
L302214285 141750190
" />
<path d="M301261904 141321619
L301214285 141274000
L301119047 141226380
L300880952 141226380
L300785714 141274000
L300738095 141321619
L300690476 141416857
L300690476 141512095
L300738095 141654952
L301309523 142226380
L300690476 142226380
" />
<path d="M300071428 141226380
L299976190 141226380
L299880952 141274000
L299833333 141321619
L299785714 141416857
L299738095 141607333
L299738095 141845428
L299785714 142035904
L299833333 142131142
L299880952 142178761
L299976190 142226380
L300071428 142226380
L300166666 142178761
L300214285 142131142
L300261904 142035904
L300309523 141845428
L300309523 141607333
L300261904 141416857
L300214285 141321619
L300166666 141274000
L300071428 141226380
" />
</g><g transform="rotate(-90.000000 191835363.000000 271705904.000000)">
<text x="191835363.000000" y="272205904.000000"
transform="scale(-1 1) translate(-383670726.000000 0)"
textLength="2709762.000000" font-size="1333333.000000" lengthAdjust="spacingAndGlyphs"
text-anchor="middle" opacity="0">R54</text>
</g>
<g class="stroked-text"><desc>R54</desc>
<path d="M192287743 271063046
L191811553 270729713
" />
<path d="M192287743 270491618
L191287743 270491618
L191287743 270872570
L191335363 270967808
L191382982 271015427
L191478220 271063046
L191621077 271063046
L191716315 271015427
L191763934 270967808
L191811553 270872570
L191811553 270491618
" />
<path d="M191287743 271967808
L191287743 271491618
L191763934 271443999
L191716315 271491618
L191668696 271586856
L191668696 271824951
L191716315 271920189
L191763934 271967808
L191859172 272015427
L192097267 272015427
L192192505 271967808
L192240124 271920189
L192287743 271824951
L192287743 271586856
L192240124 271491618
L192192505 271443999
" />
<path d="M191621077 272872570
L192287743 272872570
" />
<path d="M191240124 272634475
L191954410 272396380
L191954410 273015427
" />
</g><text x="335000000.000000" y="167166000.000000"
transform="scale(-1 1) translate(-670000000.000000 0)"
textLength="2709762.000000" font-size="1333333.000000" lengthAdjust="spacingAndGlyphs"
text-anchor="middle" opacity="0">R31</text>
<g class="stroked-text"><desc>R31</desc>
<path d="M335642857 167118380
L335976190 166642190
" />
<path d="M336214285 167118380
L336214285 166118380
L335833333 166118380
L335738095 166166000
L335690476 166213619
L335642857 166308857
L335642857 166451714
L335690476 166546952
L335738095 166594571
L335833333 166642190
L336214285 166642190
" />
<path d="M335309523 166118380
L334690476 166118380
L335023809 166499333
L334880952 166499333
L334785714 166546952
L334738095 166594571
L334690476 166689809
L334690476 166927904
L334738095 167023142
L334785714 167070761
L334880952 167118380
L335166666 167118380
L335261904 167070761
L335309523 167023142
" />
<path d="M333738095 167118380
L334309523 167118380
" />
<path d="M334023809 167118380
L334023809 166118380
L334119047 166261238
L334214285 166356476
L334309523 166404095
" />
</g><text x="335000000.000000" y="157260000.000000"
transform="scale(-1 1) translate(-670000000.000000 0)"
textLength="2709762.000000" font-size="1333333.000000" lengthAdjust="spacingAndGlyphs"
text-anchor="middle" opacity="0">R33</text>
<g class="stroked-text"><desc>R33</desc>
<path d="M335642857 157212380
L335976190 156736190
" />
<path d="M336214285 157212380
L336214285 156212380
L335833333 156212380
L335738095 156260000
L335690476 156307619
L335642857 156402857
L335642857 156545714
L335690476 156640952
L335738095 156688571
L335833333 156736190
L336214285 156736190
" />
<path d="M335309523 156212380
L334690476 156212380
L335023809 156593333
L334880952 156593333
L334785714 156640952
L334738095 156688571
L334690476 156783809
L334690476 157021904
L334738095 157117142
L334785714 157164761
L334880952 157212380
L335166666 157212380
L335261904 157164761
L335309523 157117142
" />
<path d="M334357142 156212380
L333738095 156212380
L334071428 156593333
L333928571 156593333
L333833333 156640952
L333785714 156688571
L333738095 156783809
L333738095 157021904
L333785714 157117142
L333833333 157164761
L333928571 157212380
L334214285 157212380
L334309523 157164761
L334357142 157117142
" />
</g><text x="360400000.000000" y="106714000.000000"
transform="scale(-1 1) translate(-720800000.000000 0)"
textLength="2709762.000000" font-size="1333333.000000" lengthAdjust="spacingAndGlyphs"
text-anchor="middle" opacity="0">R49</text>
<g class="stroked-text"><desc>R49</desc>
<path d="M361042857 106666380
L361376190 106190190
" />
<path d="M361614285 106666380
L361614285 105666380
L361233333 105666380
L361138095 105714000
L361090476 105761619
L361042857 105856857
L361042857 105999714
L361090476 106094952
L361138095 106142571
L361233333 106190190
L361614285 106190190
" />
<path d="M360185714 105999714
L360185714 106666380
" />
<path d="M360423809 105618761
L360661904 106333047
L360042857 106333047
" />
<path d="M359614285 106666380
L359423809 106666380
L359328571 106618761
L359280952 106571142
L359185714 106428285
L359138095 106237809
L359138095 105856857
L359185714 105761619
L359233333 105714000
L359328571 105666380
L359519047 105666380
L359614285 105714000
L359661904 105761619
L359709523 105856857
L359709523 106094952
L359661904 106190190
L359614285 106237809
L359519047 106285428
L359328571 106285428
L359233333 106237809
L359185714 106190190
L359138095 106094952
" />
</g><text x="266566000.000000" y="162360000.000000"
transform="scale(-1 1) translate(-533132000.000000 0)"
textLength="1757381.000000" font-size="1333333.000000" lengthAdjust="spacingAndGlyphs"
text-anchor="middle" opacity="0">R3</text>
<g class="stroked-text"><desc>R3</desc>
<path d="M266732666 162312380
L267066000 161836190
" />
<path d="M267304095 162312380
L267304095 161312380
L266923142 161312380
L266827904 161360000
L266780285 161407619
L266732666 161502857
L266732666 161645714
L266780285 161740952
L266827904 161788571
L266923142 161836190
L267304095 161836190
" />
<path d="M266399333 161312380
L265780285 161312380
L266113619 161693333
L265970761 161693333
L265875523 161740952
L265827904 161788571
L265780285 161883809
L265780285 162121904
L265827904 162217142
L265875523 162264761
L265970761 162312380
L266256476 162312380
L266351714 162264761
L266399333 162217142
" />
</g><text x="360452000.000000" y="121954000.000000"
transform="scale(-1 1) translate(-720904000.000000 0)"
textLength="2709762.000000" font-size="1333333.000000" lengthAdjust="spacingAndGlyphs"
text-anchor="middle" opacity="0">R46</text>
<g class="stroked-text"><desc>R46</desc>
<path d="M361094857 121906380
L361428190 121430190
" />
<path d="M361666285 121906380
L361666285 120906380
L361285333 120906380
L361190095 120954000
L361142476 121001619
L361094857 121096857
L361094857 121239714
L361142476 121334952
L361190095 121382571
L361285333 121430190
L361666285 121430190
" />
<path d="M360237714 121239714
L360237714 121906380
" />
<path d="M360475809 120858761
L360713904 121573047
L360094857 121573047
" />
<path d="M359285333 120906380
L359475809 120906380
L359571047 120954000
L359618666 121001619
L359713904 121144476
L359761523 121334952
L359761523 121715904
L359713904 121811142
L359666285 121858761
L359571047 121906380
L359380571 121906380
L359285333 121858761
L359237714 121811142
L359190095 121715904
L359190095 121477809
L359237714 121382571
L359285333 121334952
L359380571 121287333
L359571047 121287333
L359666285 121334952
L359713904 121382571
L359761523 121477809
" />
</g><text x="301000000.000000" y="162340000.000000"
transform="scale(-1 1) translate(-602000000.000000 0)"
textLength="2709762.000000" font-size="1333333.000000" lengthAdjust="spacingAndGlyphs"
text-anchor="middle" opacity="0">R16</text>
<g class="stroked-text"><desc>R16</desc>
<path d="M301642857 162292380
L301976190 161816190
" />
<path d="M302214285 162292380
L302214285 161292380
L301833333 161292380
L301738095 161340000
L301690476 161387619
L301642857 161482857
L301642857 161625714
L301690476 161720952
L301738095 161768571
L301833333 161816190
L302214285 161816190
" />
<path d="M300690476 162292380
L301261904 162292380
" />
<path d="M300976190 162292380
L300976190 161292380
L301071428 161435238
L301166666 161530476
L301261904 161578095
" />
<path d="M299833333 161292380
L300023809 161292380
L300119047 161340000
L300166666 161387619
L300261904 161530476
L300309523 161720952
L300309523 162101904
L300261904 162197142
L300214285 162244761
L300119047 162292380
L299928571 162292380
L299833333 162244761
L299785714 162197142
L299738095 162101904
L299738095 161863809
L299785714 161768571
L299833333 161720952
L299928571 161673333
L300119047 161673333
L300214285 161720952
L300261904 161768571
L300309523 161863809
" />
</g><text x="266486000.000000" y="152330000.000000"
transform="scale(-1 1) translate(-532972000.000000 0)"
textLength="1757381.000000" font-size="1333333.000000" lengthAdjust="spacingAndGlyphs"
text-anchor="middle" opacity="0">R5</text>
<g class="stroked-text"><desc>R5</desc>
<path d="M266652666 152282380
L266986000 151806190
" />
<path d="M267224095 152282380
L267224095 151282380
L266843142 151282380
L266747904 151330000
L266700285 151377619
L266652666 151472857
L266652666 151615714
L266700285 151710952
L266747904 151758571
L266843142 151806190
L267224095 151806190
" />
<path d="M265747904 151282380
L266224095 151282380
L266271714 151758571
L266224095 151710952
L266128857 151663333
L265890761 151663333
L265795523 151710952
L265747904 151758571
L265700285 151853809
L265700285 152091904
L265747904 152187142
L265795523 152234761
L265890761 152282380
L266128857 152282380
L266224095 152234761
L266271714 152187142
" />
</g><text x="266616000.000000" y="167330000.000000"
transform="scale(-1 1) translate(-533232000.000000 0)"
textLength="1757381.000000" font-size="1333333.000000" lengthAdjust="spacingAndGlyphs"
text-anchor="middle" opacity="0">R2</text>
<g class="stroked-text"><desc>R2</desc>
<path d="M266782666 167282380
L267116000 166806190
" />
<path d="M267354095 167282380
L267354095 166282380
L266973142 166282380
L266877904 166330000
L266830285 166377619
L266782666 166472857
L266782666 166615714
L266830285 166710952
L266877904 166758571
L266973142 166806190
L267354095 166806190
" />
<path d="M266401714 166377619
L266354095 166330000
L266258857 166282380
L266020761 166282380
L265925523 166330000
L265877904 166377619
L265830285 166472857
L265830285 166568095
L265877904 166710952
L266449333 167282380
L265830285 167282380
" />
</g><text x="360400000.000000" y="86902000.000000"
transform="scale(-1 1) translate(-720800000.000000 0)"
textLength="2709762.000000" font-size="1333333.000000" lengthAdjust="spacingAndGlyphs"
text-anchor="middle" opacity="0">R53</text>
<g class="stroked-text"><desc>R53</desc>
<path d="M361042857 86854380
L361376190 86378190
" />
<path d="M361614285 86854380
L361614285 85854380
L361233333 85854380
L361138095 85902000
L361090476 85949619
L361042857 86044857
L361042857 86187714
L361090476 86282952
L361138095 86330571
L361233333 86378190
L361614285 86378190
" />
<path d="M360138095 85854380
L360614285 85854380
L360661904 86330571
L360614285 86282952
L360519047 86235333
L360280952 86235333
L360185714 86282952
L360138095 86330571
L360090476 86425809
L360090476 86663904
L360138095 86759142
L360185714 86806761
L360280952 86854380
L360519047 86854380
L360614285 86806761
L360661904 86759142
" />
<path d="M359757142 85854380
L359138095 85854380
L359471428 86235333
L359328571 86235333
L359233333 86282952
L359185714 86330571
L359138095 86425809
L359138095 86663904
L359185714 86759142
L359233333 86806761
L359328571 86854380
L359614285 86854380
L359709523 86806761
L359757142 86759142
" />
</g><text x="335000000.000000" y="172246000.000000"
transform="scale(-1 1) translate(-670000000.000000 0)"
textLength="2709762.000000" font-size="1333333.000000" lengthAdjust="spacingAndGlyphs"
text-anchor="middle" opacity="0">R30</text>
<g class="stroked-text"><desc>R30</desc>
<path d="M335642857 172198380
L335976190 171722190
" />
<path d="M336214285 172198380
L336214285 171198380
L335833333 171198380
L335738095 171246000
L335690476 171293619
L335642857 171388857
L335642857 171531714
L335690476 171626952
L335738095 171674571
L335833333 171722190
L336214285 171722190
" />
<path d="M335309523 171198380
L334690476 171198380
L335023809 171579333
L334880952 171579333
L334785714 171626952
L334738095 171674571
L334690476 171769809
L334690476 172007904
L334738095 172103142
L334785714 172150761
L334880952 172198380
L335166666 172198380
L335261904 172150761
L335309523 172103142
" />
<path d="M334071428 171198380
L333976190 171198380
L333880952 171246000
L333833333 171293619
L333785714 171388857
L333738095 171579333
L333738095 171817428
L333785714 172007904
L333833333 172103142
L333880952 172150761
L333976190 172198380
L334071428 172198380
L334166666 172150761
L334214285 172103142
L334261904 172007904
L334309523 171817428
L334309523 171579333
L334261904 171388857
L334214285 171293619
L334166666 171246000
L334071428 171198380
" />
</g><text x="266516000.000000" y="147240000.000000"
transform="scale(-1 1) translate(-533032000.000000 0)"
textLength="1757381.000000" font-size="1333333.000000" lengthAdjust="spacingAndGlyphs"
text-anchor="middle" opacity="0">R6</text>
<g class="stroked-text"><desc>R6</desc>
<path d="M266682666 147192380
L267016000 146716190
" />
<path d="M267254095 147192380
L267254095 146192380
L266873142 146192380
L266777904 146240000
L266730285 146287619
L266682666 146382857
L266682666 146525714
L266730285 146620952
L266777904 146668571
L266873142 146716190
L267254095 146716190
" />
<path d="M265825523 146192380
L266016000 146192380
L266111238 146240000
L266158857 146287619
L266254095 146430476
L266301714 146620952
L266301714 147001904
L266254095 147097142
L266206476 147144761
L266111238 147192380
L265920761 147192380
L265825523 147144761
L265777904 147097142
L265730285 147001904
L265730285 146763809
L265777904 146668571
L265825523 146620952
L265920761 146573333
L266111238 146573333
L266206476 146620952
L266254095 146668571
L266301714 146763809
" />
</g><text x="266446000.000000" y="137280000.000000"
transform="scale(-1 1) translate(-532892000.000000 0)"
textLength="1757381.000000" font-size="1333333.000000" lengthAdjust="spacingAndGlyphs"
text-anchor="middle" opacity="0">R8</text>
<g class="stroked-text"><desc>R8</desc>
<path d="M266612666 137232380
L266946000 136756190
" />
<path d="M267184095 137232380
L267184095 136232380
L266803142 136232380
L266707904 136280000
L266660285 136327619
L266612666 136422857
L266612666 136565714
L266660285 136660952
L266707904 136708571
L266803142 136756190
L267184095 136756190
" />
<path d="M266041238 136660952
L266136476 136613333
L266184095 136565714
L266231714 136470476
L266231714 136422857
L266184095 136327619
L266136476 136280000
L266041238 136232380
L265850761 136232380
L265755523 136280000
L265707904 136327619
L265660285 136422857
L265660285 136470476
L265707904 136565714
L265755523 136613333
L265850761 136660952
L266041238 136660952
L266136476 136708571
L266184095 136756190
L266231714 136851428
L266231714 137041904
L266184095 137137142
L266136476 137184761
L266041238 137232380
L265850761 137232380
L265755523 137184761
L265707904 137137142
L265660285 137041904
L265660285 136851428
L265707904 136756190
L265755523 136708571
L265850761 136660952
" />
</g><g transform="rotate(-90.000000 470016000.000000 88360000.000000)">
<text x="470016000.000000" y="88860000.000000"
transform="scale(-1 1) translate(-940032000.000000 0)"
textLength="2709762.000000" font-size="1333333.000000" lengthAdjust="spacingAndGlyphs"
text-anchor="middle" opacity="0">R29</text>
</g>
<g class="stroked-text"><desc>R29</desc>
<path d="M470468380 87717142
L469992190 87383809
" />
<path d="M470468380 87145714
L469468380 87145714
L469468380 87526666
L469516000 87621904
L469563619 87669523
L469658857 87717142
L469801714 87717142
L469896952 87669523
L469944571 87621904
L469992190 87526666
L469992190 87145714
" />
<path d="M469563619 88098095
L469516000 88145714
L469468380 88240952
L469468380 88479047
L469516000 88574285
L469563619 88621904
L469658857 88669523
L469754095 88669523
L469896952 88621904
L470468380 88050476
L470468380 88669523
" />
<path d="M470468380 89145714
L470468380 89336190
L470420761 89431428
L470373142 89479047
L470230285 89574285
L470039809 89621904
L469658857 89621904
L469563619 89574285
L469516000 89526666
L469468380 89431428
L469468380 89240952
L469516000 89145714
L469563619 89098095
L469658857 89050476
L469896952 89050476
L469992190 89098095
L470039809 89145714
L470087428 89240952
L470087428 89431428
L470039809 89526666
L469992190 89574285
L469896952 89621904
" />
</g><g transform="rotate(-90.000000 326432000.000000 227838000.000000)">
<text x="326432000.000000" y="228338000.000000"
transform="scale(-1 1) translate(-652864000.000000 0)"
textLength="2709762.000000" font-size="1333333.000000" lengthAdjust="spacingAndGlyphs"
text-anchor="middle" opacity="0">R24</text>
</g>
<g class="stroked-text"><desc>R24</desc>
<path d="M326884380 227195142
L326408190 226861809
" />
<path d="M326884380 226623714
L325884380 226623714
L325884380 227004666
L325932000 227099904
L325979619 227147523
L326074857 227195142
L326217714 227195142
L326312952 227147523
L326360571 227099904
L326408190 227004666
L326408190 226623714
" />
<path d="M325979619 227576095
L325932000 227623714
L325884380 227718952
L325884380 227957047
L325932000 228052285
L325979619 228099904
L326074857 228147523
L326170095 228147523
L326312952 228099904
L326884380 227528476
L326884380 228147523
" />
<path d="M326217714 229004666
L326884380 229004666
" />
<path d="M325836761 228766571
L326551047 228528476
L326551047 229147523
" />
</g><text x="301000000.000000" y="167420000.000000"
transform="scale(-1 1) translate(-602000000.000000 0)"
textLength="2709762.000000" font-size="1333333.000000" lengthAdjust="spacingAndGlyphs"
text-anchor="middle" opacity="0">R15</text>
<g class="stroked-text"><desc>R15</desc>
<path d="M301642857 167372380
L301976190 166896190
" />
<path d="M302214285 167372380
L302214285 166372380
L301833333 166372380
L301738095 166420000
L301690476 166467619
L301642857 166562857
L301642857 166705714
L301690476 166800952
L301738095 166848571
L301833333 166896190
L302214285 166896190
" />
<path d="M300690476 167372380
L301261904 167372380
" />
<path d="M300976190 167372380
L300976190 166372380
L301071428 166515238
L301166666 166610476
L301261904 166658095
" />
<path d="M299785714 166372380
L300261904 166372380
L300309523 166848571
L300261904 166800952
L300166666 166753333
L299928571 166753333
L299833333 166800952
L299785714 166848571
L299738095 166943809
L299738095 167181904
L299785714 167277142
L299833333 167324761
L299928571 167372380
L300166666 167372380
L300261904 167324761
L300309523 167277142
" />
</g><text x="335026000.000000" y="142020000.000000"
transform="scale(-1 1) translate(-670052000.000000 0)"
textLength="2709762.000000" font-size="1333333.000000" lengthAdjust="spacingAndGlyphs"
text-anchor="middle" opacity="0">R36</text>
<g class="stroked-text"><desc>R36</desc>
<path d="M335668857 141972380
L336002190 141496190
" />
<path d="M336240285 141972380
L336240285 140972380
L335859333 140972380
L335764095 141020000
L335716476 141067619
L335668857 141162857
L335668857 141305714
L335716476 141400952
L335764095 141448571
L335859333 141496190
L336240285 141496190
" />
<path d="M335335523 140972380
L334716476 140972380
L335049809 141353333
L334906952 141353333
L334811714 141400952
L334764095 141448571
L334716476 141543809
L334716476 141781904
L334764095 141877142
L334811714 141924761
L334906952 141972380
L335192666 141972380
L335287904 141924761
L335335523 141877142
" />
<path d="M333859333 140972380
L334049809 140972380
L334145047 141020000
L334192666 141067619
L334287904 141210476
L334335523 141400952
L334335523 141781904
L334287904 141877142
L334240285 141924761
L334145047 141972380
L333954571 141972380
L333859333 141924761
L333811714 141877142
L333764095 141781904
L333764095 141543809
L333811714 141448571
L333859333 141400952
L333954571 141353333
L334145047 141353333
L334240285 141400952
L334287904 141448571
L334335523 141543809
" />
</g><g transform="rotate(-90.000000 429122000.000000 88106000.000000)">
<text x="429122000.000000" y="88606000.000000"
transform="scale(-1 1) translate(-858244000.000000 0)"
textLength="2709762.000000" font-size="1333333.000000" lengthAdjust="spacingAndGlyphs"
text-anchor="middle" opacity="0">R28</text>
</g>
<g class="stroked-text"><desc>R28</desc>
<path d="M429574380 87463142
L429098190 87129809
" />
<path d="M429574380 86891714
L428574380 86891714
L428574380 87272666
L428622000 87367904
L428669619 87415523
L428764857 87463142
L428907714 87463142
L429002952 87415523
L429050571 87367904
L429098190 87272666
L429098190 86891714
" />
<path d="M428669619 87844095
L428622000 87891714
L428574380 87986952
L428574380 88225047
L428622000 88320285
L428669619 88367904
L428764857 88415523
L428860095 88415523
L429002952 88367904
L429574380 87796476
L429574380 88415523
" />
<path d="M429002952 88986952
L428955333 88891714
L428907714 88844095
L428812476 88796476
L428764857 88796476
L428669619 88844095
L428622000 88891714
L428574380 88986952
L428574380 89177428
L428622000 89272666
L428669619 89320285
L428764857 89367904
L428812476 89367904
L428907714 89320285
L428955333 89272666
L429002952 89177428
L429002952 88986952
L429050571 88891714
L429098190 88844095
L429193428 88796476
L429383904 88796476
L429479142 88844095
L429526761 88891714
L429574380 88986952
L429574380 89177428
L429526761 89272666
L429479142 89320285
L429383904 89367904
L429193428 89367904
L429098190 89320285
L429050571 89272666
L429002952 89177428
" />
</g><text x="143256000.000000" y="295182000.000000"
transform="scale(-1 1) translate(-286512000.000000 0)"
textLength="1757381.000000" font-size="1333333.000000" lengthAdjust="spacingAndGlyphs"
text-anchor="middle" opacity="0">R9</text>
<g class="stroked-text"><desc>R9</desc>
<path d="M143422666 295134380
L143756000 294658190
" />
<path d="M143994095 295134380
L143994095 294134380
L143613142 294134380
L143517904 294182000
L143470285 294229619
L143422666 294324857
L143422666 294467714
L143470285 294562952
L143517904 294610571
L143613142 294658190
L143994095 294658190
" />
<path d="M142946476 295134380
L142756000 295134380
L142660761 295086761
L142613142 295039142
L142517904 294896285
L142470285 294705809
L142470285 294324857
L142517904 294229619
L142565523 294182000
L142660761 294134380
L142851238 294134380
L142946476 294182000
L142994095 294229619
L143041714 294324857
L143041714 294562952
L142994095 294658190
L142946476 294705809
L142851238 294753428
L142660761 294753428
L142565523 294705809
L142517904 294658190
L142470285 294562952
" />
</g><text x="335000000.000000" y="147100000.000000"
transform="scale(-1 1) translate(-670000000.000000 0)"
textLength="2709762.000000" font-size="1333333.000000" lengthAdjust="spacingAndGlyphs"
text-anchor="middle" opacity="0">R35</text>
<g class="stroked-text"><desc>R35</desc>
<path d="M335642857 147052380
L335976190 146576190
" />
<path d="M336214285 147052380
L336214285 146052380
L335833333 146052380
L335738095 146100000
L335690476 146147619
L335642857 146242857
L335642857 146385714
L335690476 146480952
L335738095 146528571
L335833333 146576190
L336214285 146576190
" />
<path d="M335309523 146052380
L334690476 146052380
L335023809 146433333
L334880952 146433333
L334785714 146480952
L334738095 146528571
L334690476 146623809
L334690476 146861904
L334738095 146957142
L334785714 147004761
L334880952 147052380
L335166666 147052380
L335261904 147004761
L335309523 146957142
" />
<path d="M333785714 146052380
L334261904 146052380
L334309523 146528571
L334261904 146480952
L334166666 146433333
L333928571 146433333
L333833333 146480952
L333785714 146528571
L333738095 146623809
L333738095 146861904
L333785714 146957142
L333833333 147004761
L333928571 147052380
L334166666 147052380
L334261904 147004761
L334309523 146957142
" />
</g><g transform="rotate(-90.000000 183818000.000000 88228000.000000)">
<text x="183818000.000000" y="88728000.000000"
transform="scale(-1 1) translate(-367636000.000000 0)"
textLength="2709762.000000" font-size="1333333.000000" lengthAdjust="spacingAndGlyphs"
text-anchor="middle" opacity="0">R12</text>
</g>
<g class="stroked-text"><desc>R12</desc>
<path d="M184270380 87585142
L183794190 87251809
" />
<path d="M184270380 87013714
L183270380 87013714
L183270380 87394666
L183318000 87489904
L183365619 87537523
L183460857 87585142
L183603714 87585142
L183698952 87537523
L183746571 87489904
L183794190 87394666
L183794190 87013714
" />
<path d="M184270380 88537523
L184270380 87966095
" />
<path d="M184270380 88251809
L183270380 88251809
L183413238 88156571
L183508476 88061333
L183556095 87966095
" />
<path d="M183365619 88918476
L183318000 88966095
L183270380 89061333
L183270380 89299428
L183318000 89394666
L183365619 89442285
L183460857 89489904
L183556095 89489904
L183698952 89442285
L184270380 88870857
L184270380 89489904
" />
</g><text x="143510000.000000" y="265464000.000000"
transform="scale(-1 1) translate(-287020000.000000 0)"
textLength="2709762.000000" font-size="1333333.000000" lengthAdjust="spacingAndGlyphs"
text-anchor="middle" opacity="0">R10</text>
<g class="stroked-text"><desc>R10</desc>
<path d="M144152857 265416380
L144486190 264940190
" />
<path d="M144724285 265416380
L144724285 264416380
L144343333 264416380
L144248095 264464000
L144200476 264511619
L144152857 264606857
L144152857 264749714
L144200476 264844952
L144248095 264892571
L144343333 264940190
L144724285 264940190
" />
<path d="M143200476 265416380
L143771904 265416380
" />
<path d="M143486190 265416380
L143486190 264416380
L143581428 264559238
L143676666 264654476
L143771904 264702095
" />
<path d="M142581428 264416380
L142486190 264416380
L142390952 264464000
L142343333 264511619
L142295714 264606857
L142248095 264797333
L142248095 265035428
L142295714 265225904
L142343333 265321142
L142390952 265368761
L142486190 265416380
L142581428 265416380
L142676666 265368761
L142724285 265321142
L142771904 265225904
L142819523 265035428
L142819523 264797333
L142771904 264606857
L142724285 264511619
L142676666 264464000
L142581428 264416380
" />
</g><text x="360400000.000000" y="96808000.000000"
transform="scale(-1 1) translate(-720800000.000000 0)"
textLength="2709762.000000" font-size="1333333.000000" lengthAdjust="spacingAndGlyphs"
text-anchor="middle" opacity="0">R51</text>
<g class="stroked-text"><desc>R51</desc>
<path d="M361042857 96760380
L361376190 96284190
" />
<path d="M361614285 96760380
L361614285 95760380
L361233333 95760380
L361138095 95808000
L361090476 95855619
L361042857 95950857
L361042857 96093714
L361090476 96188952
L361138095 96236571
L361233333 96284190
L361614285 96284190
" />
<path d="M360138095 95760380
L360614285 95760380
L360661904 96236571
L360614285 96188952
L360519047 96141333
L360280952 96141333
L360185714 96188952
L360138095 96236571
L360090476 96331809
L360090476 96569904
L360138095 96665142
L360185714 96712761
L360280952 96760380
L360519047 96760380
L360614285 96712761
L360661904 96665142
" />
<path d="M359138095 96760380
L359709523 96760380
" />
<path d="M359423809 96760380
L359423809 95760380
L359519047 95903238
L359614285 95998476
L359709523 96046095
" />
</g><text x="360452000.000000" y="116874000.000000"
transform="scale(-1 1) translate(-720904000.000000 0)"
textLength="2709762.000000" font-size="1333333.000000" lengthAdjust="spacingAndGlyphs"
text-anchor="middle" opacity="0">R47</text>
<g class="stroked-text"><desc>R47</desc>
<path d="M361094857 116826380
L361428190 116350190
" />
<path d="M361666285 116826380
L361666285 115826380
L361285333 115826380
L361190095 115874000
L361142476 115921619
L361094857 116016857
L361094857 116159714
L361142476 116254952
L361190095 116302571
L361285333 116350190
L361666285 116350190
" />
<path d="M360237714 116159714
L360237714 116826380
" />
<path d="M360475809 115778761
L360713904 116493047
L360094857 116493047
" />
<path d="M359809142 115826380
L359142476 115826380
L359571047 116826380
" />
</g><g transform="rotate(-90.000000 288730000.000000 227260000.000000)">
<text x="288730000.000000" y="227760000.000000"
transform="scale(-1 1) translate(-577460000.000000 0)"
textLength="2709762.000000" font-size="1333333.000000" lengthAdjust="spacingAndGlyphs"
text-anchor="middle" opacity="0">R23</text>
</g>
<g class="stroked-text"><desc>R23</desc>
<path d="M289182380 226617142
L288706190 226283809
" />
<path d="M289182380 226045714
L288182380 226045714
L288182380 226426666
L288230000 226521904
L288277619 226569523
L288372857 226617142
L288515714 226617142
L288610952 226569523
L288658571 226521904
L288706190 226426666
L288706190 226045714
" />
<path d="M288277619 226998095
L288230000 227045714
L288182380 227140952
L288182380 227379047
L288230000 227474285
L288277619 227521904
L288372857 227569523
L288468095 227569523
L288610952 227521904
L289182380 226950476
L289182380 227569523
" />
<path d="M288182380 227902857
L288182380 228521904
L288563333 228188571
L288563333 228331428
L288610952 228426666
L288658571 228474285
L288753809 228521904
L288991904 228521904
L289087142 228474285
L289134761 228426666
L289182380 228331428
L289182380 228045714
L289134761 227950476
L289087142 227902857
" />
</g><text x="348234000.000000" y="116874000.000000"
transform="scale(-1 1) translate(-696468000.000000 0)"
textLength="2709762.000000" font-size="1333333.000000" lengthAdjust="spacingAndGlyphs"
text-anchor="middle" opacity="0">R39</text>
<g class="stroked-text"><desc>R39</desc>
<path d="M348876857 116826380
L349210190 116350190
" />
<path d="M349448285 116826380
L349448285 115826380
L349067333 115826380
L348972095 115874000
L348924476 115921619
L348876857 116016857
L348876857 116159714
L348924476 116254952
L348972095 116302571
L349067333 116350190
L349448285 116350190
" />
<path d="M348543523 115826380
L347924476 115826380
L348257809 116207333
L348114952 116207333
L348019714 116254952
L347972095 116302571
L347924476 116397809
L347924476 116635904
L347972095 116731142
L348019714 116778761
L348114952 116826380
L348400666 116826380
L348495904 116778761
L348543523 116731142
" />
<path d="M347448285 116826380
L347257809 116826380
L347162571 116778761
L347114952 116731142
L347019714 116588285
L346972095 116397809
L346972095 116016857
L347019714 115921619
L347067333 115874000
L347162571 115826380
L347353047 115826380
L347448285 115874000
L347495904 115921619
L347543523 116016857
L347543523 116254952
L347495904 116350190
L347448285 116397809
L347353047 116445428
L347162571 116445428
L347067333 116397809
L347019714 116350190
L346972095 116254952
" />
</g></g>
<g style="fill:#000000; fill-opacity:0.0; 
stroke:#000000; stroke-width:120000.000000; stroke-opacity:1; 
stroke-linecap:round; stroke-linejoin:round;">
<path d="M265912936 169016000
L267367064 169016000
" />
<path d="M265912936 170836000
L267367064 170836000
" />
<path d="M359672936 88498000
L361127064 88498000
" />
<path d="M359672936 90318000
L361127064 90318000
" />
<path d="M139178000 88955064
L139178000 87500936
" />
<path d="M140998000 88955064
L140998000 87500936
" />
<path d="M300272936 133964000
L301727064 133964000
" />
<path d="M300272936 135784000
L301727064 135784000
" />
<path d="M392464936 294788000
L393919064 294788000
" />
<path d="M392464936 292968000
L393919064 292968000
" />
<path d="M359672936 100224000
L361127064 100224000
" />
<path d="M359672936 98404000
L361127064 98404000
" />
<path d="M145427064 152330000
L143972936 152330000
" />
<path d="M145427064 154150000
L143972936 154150000
" />
<path d="M392353936 264684000
L393808064 264684000
" />
<path d="M392353936 262864000
L393808064 262864000
" />
<path d="M334272936 150770000
L335727064 150770000
" />
<path d="M334272936 148950000
L335727064 148950000
" />
<path d="M300272936 170836000
L301727064 170836000
" />
<path d="M300272936 169016000
L301727064 169016000
" />
<path d="M334298936 135784000
L335753064 135784000
" />
<path d="M334298936 133964000
L335753064 133964000
" />
<path d="M347506936 93578000
L348961064 93578000
" />
<path d="M347506936 95398000
L348961064 95398000
" />
<path d="M347506936 83672000
L348961064 83672000
" />
<path d="M347506936 85492000
L348961064 85492000
" />
<path d="M444400000 272717064
L444400000 271262936
" />
<path d="M442580000 272717064
L442580000 271262936
" />
<path d="M347506936 120544000
L348961064 120544000
" />
<path d="M347506936 118724000
L348961064 118724000
" />
<path d="M347506936 103484000
L348961064 103484000
" />
<path d="M347506936 105304000
L348961064 105304000
" />
<path d="M265858936 139120000
L267313064 139120000
" />
<path d="M265858936 140940000
L267313064 140940000
" />
<path d="M265788936 155910000
L267243064 155910000
" />
<path d="M265788936 154090000
L267243064 154090000
" />
<path d="M334272936 160930000
L335727064 160930000
" />
<path d="M334272936 159110000
L335727064 159110000
" />
<path d="M359724936 108564000
L361179064 108564000
" />
<path d="M359724936 110384000
L361179064 110384000
" />
<path d="M390196000 87378936
L390196000 88833064
" />
<path d="M388376000 87378936
L388376000 88833064
" />
<path d="M300272936 148950000
L301727064 148950000
" />
<path d="M300272936 150770000
L301727064 150770000
" />
<path d="M255376000 228057064
L255376000 226602936
" />
<path d="M257196000 228057064
L257196000 226602936
" />
<path d="M221982000 88955064
L221982000 87500936
" />
<path d="M223802000 88955064
L223802000 87500936
" />
<path d="M347506936 100224000
L348961064 100224000
" />
<path d="M347506936 98404000
L348961064 98404000
" />
<path d="M300272936 155850000
L301727064 155850000
" />
<path d="M300272936 154030000
L301727064 154030000
" />
<path d="M347506936 110384000
L348961064 110384000
" />
<path d="M347506936 108564000
L348961064 108564000
" />
<path d="M347506936 90572000
L348961064 90572000
" />
<path d="M347506936 88752000
L348961064 88752000
" />
<path d="M300262936 144124000
L301717064 144124000
" />
<path d="M300262936 145944000
L301717064 145944000
" />
<path d="M300272936 139044000
L301727064 139044000
" />
<path d="M300272936 140864000
L301727064 140864000
" />
<path d="M192745363 270978840
L192745363 272432968
" />
<path d="M194565363 270978840
L194565363 272432968
" />
<path d="M334272936 165756000
L335727064 165756000
" />
<path d="M334272936 163936000
L335727064 163936000
" />
<path d="M334272936 155850000
L335727064 155850000
" />
<path d="M334272936 154030000
L335727064 154030000
" />
<path d="M359672936 105304000
L361127064 105304000
" />
<path d="M359672936 103484000
L361127064 103484000
" />
<path d="M265838936 160950000
L267293064 160950000
" />
<path d="M265838936 159130000
L267293064 159130000
" />
<path d="M359724936 118724000
L361179064 118724000
" />
<path d="M359724936 120544000
L361179064 120544000
" />
<path d="M300272936 159110000
L301727064 159110000
" />
<path d="M300272936 160930000
L301727064 160930000
" />
<path d="M265758936 150920000
L267213064 150920000
" />
<path d="M265758936 149100000
L267213064 149100000
" />
<path d="M265888936 165920000
L267343064 165920000
" />
<path d="M265888936 164100000
L267343064 164100000
" />
<path d="M359672936 83672000
L361127064 83672000
" />
<path d="M359672936 85492000
L361127064 85492000
" />
<path d="M334272936 169016000
L335727064 169016000
" />
<path d="M334272936 170836000
L335727064 170836000
" />
<path d="M265788936 145830000
L267243064 145830000
" />
<path d="M265788936 144010000
L267243064 144010000
" />
<path d="M265718936 135870000
L267173064 135870000
" />
<path d="M265718936 134050000
L267173064 134050000
" />
<path d="M472746000 87632936
L472746000 89087064
" />
<path d="M470926000 87632936
L470926000 89087064
" />
<path d="M323702000 228565064
L323702000 227110936
" />
<path d="M325522000 228565064
L325522000 227110936
" />
<path d="M300272936 164190000
L301727064 164190000
" />
<path d="M300272936 166010000
L301727064 166010000
" />
<path d="M334298936 140610000
L335753064 140610000
" />
<path d="M334298936 138790000
L335753064 138790000
" />
<path d="M431852000 87378936
L431852000 88833064
" />
<path d="M430032000 87378936
L430032000 88833064
" />
<path d="M142528936 291952000
L143983064 291952000
" />
<path d="M142528936 293772000
L143983064 293772000
" />
<path d="M334272936 143870000
L335727064 143870000
" />
<path d="M334272936 145690000
L335727064 145690000
" />
<path d="M181088000 88955064
L181088000 87500936
" />
<path d="M182908000 88955064
L182908000 87500936
" />
<path d="M142782936 264054000
L144237064 264054000
" />
<path d="M142782936 262234000
L144237064 262234000
" />
<path d="M359672936 95398000
L361127064 95398000
" />
<path d="M359672936 93578000
L361127064 93578000
" />
<path d="M359724936 113644000
L361179064 113644000
" />
<path d="M359724936 115464000
L361179064 115464000
" />
<path d="M289640000 226532936
L289640000 227987064
" />
<path d="M291460000 226532936
L291460000 227987064
" />
<path d="M347506936 115464000
L348961064 115464000
" />
<path d="M347506936 113644000
L348961064 113644000
" />
<g >
</g>
<g >
</g>
<g >
</g>
<g >
</g>
<g >
</g>
<g >
</g>
<g >
</g>
<g >
</g>
<g >
</g>
<g >
</g>
<g >
</g>
<g >
</g>
<g >
</g>
<g >
</g>
<g >
</g>
<g >
</g>
<g >
</g>
<g >
</g>
<g >
</g>
<g >
</g>
<g >
</g>
<g >
</g>
<g >
</g>
<g >
</g>
<g >
</g>
<g >
</g>
<g >
</g>
<g >
</g>
<g >
</g>
<g >
</g>
<g >
</g>
<g >
</g>
<g >
</g>
<g >
</g>
<g >
</g>
<g >
</g>
<g >
</g>
<g >
</g>
<g >
</g>
<g >
</g>
<g >
</g>
<g >
</g>
<g >
</g>
<g >
</g>
<g >
</g>
<g >
</g>
<g >
</g>
<g >
</g>
<g >
</g>
<g >
</g>
<g >
</g>
<g >
</g>
<g >
</g>
<g >
</g>
<g >
</g>
<g >
</g>
<g >
</g>
<g >
</g>
<g >
</g>
<g >
</g>
<g >
</g>
<g >
</g>
<g >
</g>
<g >
</g>
<g >
</g>
<g >
</g>
<g >
</g>
<g >
</g>
<g >
</g>
<g >
</g>
<g >
</g>
<g >
</g>
<g >
</g>
<g >
</g>
<g >
</g>
<g >
</g>
<g >
</g>
<g >
</g>
<g >
</g>
<g >
</g>
<g >
</g>
<g >
</g>
<g >
</g>
<g >
</g>
<g >
</g>
<g >
</g>
<g >
</g>
<g >
</g>
<g >
</g>
<g >
</g>
<g >
</g>
<g >
</g>
<g >
</g>
<g >
</g>
<g >
</g>
<g >
</g>
<g >
</g>
<g >
</g>
<g >
</g>
<g >
</g>
<g >
</g>
<g >
</g>
<g >
</g>
<g >
</g>
<g >
</g>
<g >
</g>
<g >
</g>
<g >
</g>
<g >
</g>
<g >
</g>
<g >
</g>
<g >
</g>
<g >
</g>
<g >
</g>
<g >
</g>
<g >
</g>
<g >
</g>
<g >
</g>
<g >
</g>
<g >
</g>
<g >
</g>
<g >
</g>
<g >
</g>
<g >
</g>
<g >
</g>
<g >
</g>
<g >
</g>
<g >
</g>
<g >
</g>
<g >
</g>
<g >
</g>
<g >
</g>
<g >
</g>
<g >
</g>
<g >
</g>
<g >
</g>
<g >
</g>
<g >
</g>
<g >
</g>
<g >
</g>
<g >
</g>
<g >
</g>
<g >
</g>
<g >
</g>
<g >
</g>
<g >
</g>
<g >
</g>
<g >
</g>
<g >
</g>
<g >
</g>
<g >
</g>
<g >
</g>
<g >
</g>
<g >
</g>
<g >
</g>
<g >
</g>
<g >
</g>
<g >
</g>
<g >
</g>
<g >
</g>
<g >
</g>
<g >
</g>
<g >
</g>
<g >
</g>
<g >
</g>
<g >
</g>
<g >
</g>
<g >
</g>
<g >
</g>
<g >
</g>
<g >
</g>
<g >
</g>
<g >
</g>
<g >
</g>
<g >
</g>
<g >
</g>
<g >
</g>
<g >
</g>
<g >
</g>
<g >
</g>
<g >
</g>
<g >
</g>
<g >
</g>
<g >
</g>
<g >
</g>
<g >
</g>
<g >
</g>
<g >
</g>
<g >
</g>
<g >
</g>
<g >
</g>
<g >
</g>
<g >
</g>
<g >
</g>
<g >
</g>
<g >
</g>
<g >
</g>
<g >
</g>
<g >
</g>
<g >
</g>
<g >
</g>
<g >
</g>
<g >
</g>
<g >
</g>
<g >
</g>
<g >
</g>
<g >
</g>
<g >
</g>
<g >
</g>
<g >
</g>
<g >
</g>
<g >
</g>
<g >
</g>
<g >
</g>
<g >
</g>
<g >
</g>
<g >
</g>
<g >
</g>
<g >
</g>
<g >
</g>
<g >
</g>
<g >
</g>
<g >
</g>
<g >
</g>
<g >
</g>
<g >
</g>
<g >
</g>
<g >
</g>
<g >
</g>
<g >
</g>
<g >
</g>
<g >
</g>
<g >
</g>
<g >
</g>
<g >
</g>
<g >
</g>
<g >
</g>
<g >
</g>
<g >
</g>
<g >
</g>
<g >
</g>
<g >
</g>
<g >
</g>
<g >
</g>
<g >
</g>
<g >
</g>
<g >
</g>
<g >
</g>
</g> 
</svg>
